solid ASCII
  facet normal 1.736482e-01 9.848078e-01 0.000000e+00
    outer loop
      vertex   -1.951858e+00 3.441651e-01 1.124030e+01
      vertex   0.000000e+00 0.000000e+00 0.000000e+00
      vertex   -2.191713e+00 3.864582e-01 1.119161e+01
    endloop
  endfacet
  facet normal 1.736482e-01 9.848078e-01 -1.469289e-17
    outer loop
      vertex   -2.191713e+00 3.864582e-01 1.119161e+01
      vertex   0.000000e+00 0.000000e+00 0.000000e+00
      vertex   -2.430421e+00 4.285487e-01 1.113732e+01
    endloop
  endfacet
  facet normal 1.736482e-01 9.848078e-01 -2.400019e-16
    outer loop
      vertex   -2.430421e+00 4.285487e-01 1.113732e+01
      vertex   0.000000e+00 0.000000e+00 0.000000e+00
      vertex   -2.667890e+00 4.704209e-01 1.107743e+01
    endloop
  endfacet
  facet normal 1.736482e-01 9.848078e-01 -1.567283e-16
    outer loop
      vertex   -2.667890e+00 4.704209e-01 1.107743e+01
      vertex   0.000000e+00 0.000000e+00 0.000000e+00
      vertex   -2.904030e+00 5.120589e-01 1.101198e+01
    endloop
  endfacet
  facet normal 1.736482e-01 9.848078e-01 6.365990e-17
    outer loop
      vertex   -2.904030e+00 5.120589e-01 1.101198e+01
      vertex   0.000000e+00 0.000000e+00 0.000000e+00
      vertex   -3.138752e+00 5.534467e-01 1.094098e+01
    endloop
  endfacet
  facet normal 1.736482e-01 9.848078e-01 -3.035188e-16
    outer loop
      vertex   -3.138752e+00 5.534467e-01 1.094098e+01
      vertex   0.000000e+00 0.000000e+00 0.000000e+00
      vertex   -3.371967e+00 5.945687e-01 1.086447e+01
    endloop
  endfacet
  facet normal 1.736482e-01 9.848078e-01 1.957361e-16
    outer loop
      vertex   -3.371967e+00 5.945687e-01 1.086447e+01
      vertex   0.000000e+00 0.000000e+00 0.000000e+00
      vertex   -3.603583e+00 6.354089e-01 1.078245e+01
    endloop
  endfacet
  facet normal 1.736482e-01 9.848078e-01 1.075960e-16
    outer loop
      vertex   -3.603583e+00 6.354089e-01 1.078245e+01
      vertex   0.000000e+00 0.000000e+00 0.000000e+00
      vertex   -3.833512e+00 6.759515e-01 1.069497e+01
    endloop
  endfacet
  facet normal -1.957730e-01 3.698452e-03 9.806423e-01
    outer loop
      vertex   -2.226149e+00 -1.887644e-13 1.119181e+01
      vertex   -1.982013e+00 -5.387796e-16 1.124055e+01
      vertex   -2.218641e+00 9.443939e-02 1.119296e+01
    endloop
  endfacet
  facet normal -1.954827e-01 4.453415e-03 9.806970e-01
    outer loop
      vertex   -2.218641e+00 9.443939e-02 1.119296e+01
      vertex   -1.982013e+00 -5.387796e-16 1.124055e+01
      vertex   -1.980124e+00 8.645383e-02 1.124054e+01
    endloop
  endfacet
  facet normal -1.951884e-01 1.313042e-02 9.806779e-01
    outer loop
      vertex   -2.218641e+00 9.443939e-02 1.119296e+01
      vertex   -1.980124e+00 8.645383e-02 1.124054e+01
      vertex   -2.212191e+00 1.903201e-01 1.119296e+01
    endloop
  endfacet
  facet normal -1.950933e-01 1.335035e-02 9.806938e-01
    outer loop
      vertex   -2.212191e+00 1.903201e-01 1.119296e+01
      vertex   -1.980124e+00 8.645383e-02 1.124054e+01
      vertex   -1.974459e+00 1.727432e-01 1.124049e+01
    endloop
  endfacet
  facet normal -1.944459e-01 2.203027e-02 9.806658e-01
    outer loop
      vertex   -2.212191e+00 1.903201e-01 1.119296e+01
      vertex   -1.974459e+00 1.727432e-01 1.124049e+01
      vertex   -2.201194e+00 2.873863e-01 1.119296e+01
    endloop
  endfacet
  facet normal -1.943516e-01 2.222273e-02 9.806802e-01
    outer loop
      vertex   -2.201194e+00 2.873863e-01 1.119296e+01
      vertex   -1.974459e+00 1.727432e-01 1.124049e+01
      vertex   -1.965031e+00 2.587008e-01 1.124041e+01
    endloop
  endfacet
  facet normal -1.932731e-01 3.105768e-02 9.806533e-01
    outer loop
      vertex   -2.201194e+00 2.873863e-01 1.119296e+01
      vertex   -1.965031e+00 2.587008e-01 1.124041e+01
      vertex   -1.951858e+00 3.441651e-01 1.124030e+01
    endloop
  endfacet
  facet normal -1.934306e-01 3.179530e-02 9.805986e-01
    outer loop
      vertex   -1.951858e+00 3.441651e-01 1.124030e+01
      vertex   -2.191713e+00 3.864582e-01 1.119161e+01
      vertex   -2.201194e+00 2.873863e-01 1.119296e+01
    endloop
  endfacet
  facet normal -2.152098e-01 3.381685e-02 9.759822e-01
    outer loop
      vertex   -2.201194e+00 2.873863e-01 1.119296e+01
      vertex   -2.191713e+00 3.864582e-01 1.119161e+01
      vertex   -2.438322e+00 3.183456e-01 1.113960e+01
    endloop
  endfacet
  facet normal -2.164255e-01 2.452051e-02 9.759912e-01
    outer loop
      vertex   -2.201194e+00 2.873863e-01 1.119296e+01
      vertex   -2.438322e+00 3.183456e-01 1.113960e+01
      vertex   -2.212191e+00 1.903201e-01 1.119296e+01
    endloop
  endfacet
  facet normal -2.164255e-01 2.452051e-02 9.759912e-01
    outer loop
      vertex   -2.212191e+00 1.903201e-01 1.119296e+01
      vertex   -2.438322e+00 3.183456e-01 1.113960e+01
      vertex   -2.450504e+00 2.108228e-01 1.113960e+01
    endloop
  endfacet
  facet normal -2.172796e-01 1.461650e-02 9.760000e-01
    outer loop
      vertex   -2.212191e+00 1.903201e-01 1.119296e+01
      vertex   -2.450504e+00 2.108228e-01 1.113960e+01
      vertex   -2.218641e+00 9.443939e-02 1.119296e+01
    endloop
  endfacet
  facet normal -2.172796e-01 1.461650e-02 9.760000e-01
    outer loop
      vertex   -2.218641e+00 9.443939e-02 1.119296e+01
      vertex   -2.450504e+00 2.108228e-01 1.113960e+01
      vertex   -2.457649e+00 1.046131e-01 1.113960e+01
    endloop
  endfacet
  facet normal -2.176694e-01 5.495394e-03 9.760071e-01
    outer loop
      vertex   -2.218641e+00 9.443939e-02 1.119296e+01
      vertex   -2.457649e+00 1.046131e-01 1.113960e+01
      vertex   -2.226149e+00 -1.887644e-13 1.119181e+01
    endloop
  endfacet
  facet normal -2.183685e-01 3.874386e-03 9.758587e-01
    outer loop
      vertex   -2.226149e+00 -1.887644e-13 1.119181e+01
      vertex   -2.457649e+00 1.046131e-01 1.113960e+01
      vertex   -2.469046e+00 -1.757858e-13 1.113746e+01
    endloop
  endfacet
  facet normal -2.398498e-01 6.318218e-03 9.707894e-01
    outer loop
      vertex   -2.469046e+00 -1.757858e-13 1.113746e+01
      vertex   -2.457649e+00 1.046131e-01 1.113960e+01
      vertex   -2.696977e+00 1.148004e-01 1.108040e+01
    endloop
  endfacet
  facet normal -2.408193e-01 4.279557e-03 9.705605e-01
    outer loop
      vertex   -2.469046e+00 -1.757858e-13 1.113746e+01
      vertex   -2.696977e+00 1.148004e-01 1.108040e+01
      vertex   -2.710496e+00 -1.479312e-13 1.107755e+01
    endloop
  endfacet
  facet normal -2.620391e-01 6.915488e-03 9.650325e-01
    outer loop
      vertex   -2.710496e+00 -1.479312e-13 1.107755e+01
      vertex   -2.696977e+00 1.148004e-01 1.108040e+01
      vertex   -2.936438e+00 1.249934e-01 1.101530e+01
    endloop
  endfacet
  facet normal -2.631102e-01 4.840461e-03 9.647536e-01
    outer loop
      vertex   -2.710496e+00 -1.479312e-13 1.107755e+01
      vertex   -2.936438e+00 1.249934e-01 1.101530e+01
      vertex   -2.950411e+00 -1.113533e-13 1.101212e+01
    endloop
  endfacet
  facet normal -2.842148e-01 7.352954e-03 9.587324e-01
    outer loop
      vertex   -2.950411e+00 -1.113533e-13 1.101212e+01
      vertex   -2.936438e+00 1.249934e-01 1.101530e+01
      vertex   -3.175840e+00 1.351838e-01 1.094426e+01
    endloop
  endfacet
  facet normal -2.852311e-01 5.512846e-03 9.584429e-01
    outer loop
      vertex   -2.950411e+00 -1.113533e-13 1.101212e+01
      vertex   -3.175840e+00 1.351838e-01 1.094426e+01
      vertex   -3.188704e+00 -7.220493e-14 1.094121e+01
    endloop
  endfacet
  facet normal -3.008332e-01 7.105649e-03 9.536503e-01
    outer loop
      vertex   -3.188704e+00 -7.220493e-14 1.094121e+01
      vertex   -3.175840e+00 1.351838e-01 1.094426e+01
      vertex   -3.295458e+00 1.402755e-01 1.090648e+01
    endloop
  endfacet
  facet normal -3.071779e-01 1.782165e-03 9.516504e-01
    outer loop
      vertex   -3.188704e+00 -7.220493e-14 1.094121e+01
      vertex   -3.295458e+00 1.402755e-01 1.090648e+01
      vertex   -3.425290e+00 -3.663882e-14 1.086484e+01
    endloop
  endfacet
  facet normal -3.119158e-01 6.631577e-03 9.500866e-01
    outer loop
      vertex   -3.425290e+00 -3.663882e-14 1.086484e+01
      vertex   -3.295458e+00 1.402755e-01 1.090648e+01
      vertex   -3.414986e+00 1.453634e-01 1.086721e+01
    endloop
  endfacet
  facet normal -3.229286e-01 7.472308e-03 9.463938e-01
    outer loop
      vertex   -3.425290e+00 -3.663882e-14 1.086484e+01
      vertex   -3.414986e+00 1.453634e-01 1.086721e+01
      vertex   -3.534401e+00 1.504464e-01 1.082642e+01
    endloop
  endfacet
  facet normal -3.223198e-01 2.168261e-02 9.463825e-01
    outer loop
      vertex   -3.534401e+00 1.504464e-01 1.082642e+01
      vertex   -3.414986e+00 1.453634e-01 1.086721e+01
      vertex   -3.524126e+00 3.031890e-01 1.082642e+01
    endloop
  endfacet
  facet normal -3.333164e-01 2.242236e-02 9.425484e-01
    outer loop
      vertex   -3.534401e+00 1.504464e-01 1.082642e+01
      vertex   -3.524126e+00 3.031890e-01 1.082642e+01
      vertex   -3.643053e+00 3.134206e-01 1.078412e+01
    endloop
  endfacet
  facet normal -3.320022e-01 3.761507e-02 9.425283e-01
    outer loop
      vertex   -3.643053e+00 3.134206e-01 1.078412e+01
      vertex   -3.524126e+00 3.031890e-01 1.082642e+01
      vertex   -3.624943e+00 4.732700e-01 1.078412e+01
    endloop
  endfacet
  facet normal -3.429335e-01 3.885356e-02 9.385558e-01
    outer loop
      vertex   -3.643053e+00 3.134206e-01 1.078412e+01
      vertex   -3.624943e+00 4.732700e-01 1.078412e+01
      vertex   -3.743115e+00 4.886985e-01 1.074030e+01
    endloop
  endfacet
  facet normal -3.408731e-01 5.454866e-02 9.385254e-01
    outer loop
      vertex   -3.743115e+00 4.886985e-01 1.074030e+01
      vertex   -3.624943e+00 4.732700e-01 1.078412e+01
      vertex   -3.603583e+00 6.354089e-01 1.078245e+01
    endloop
  endfacet
  facet normal -3.457607e-01 5.980348e-02 9.364150e-01
    outer loop
      vertex   -3.743115e+00 4.886985e-01 1.074030e+01
      vertex   -3.603583e+00 6.354089e-01 1.078245e+01
      vertex   -3.833512e+00 6.759515e-01 1.069497e+01
    endloop
  endfacet
  facet normal -2.156771e-01 3.563694e-02 9.758142e-01
    outer loop
      vertex   -2.191713e+00 3.864582e-01 1.119161e+01
      vertex   -2.430421e+00 4.285487e-01 1.113732e+01
      vertex   -2.438322e+00 3.183456e-01 1.113960e+01
    endloop
  endfacet
  facet normal -2.371742e-01 3.707375e-02 9.707595e-01
    outer loop
      vertex   -2.438322e+00 3.183456e-01 1.113960e+01
      vertex   -2.430421e+00 4.285487e-01 1.113732e+01
      vertex   -2.675768e+00 3.493464e-01 1.108040e+01
    endloop
  endfacet
  facet normal -2.384892e-01 2.702027e-02 9.707692e-01
    outer loop
      vertex   -2.438322e+00 3.183456e-01 1.113960e+01
      vertex   -2.675768e+00 3.493464e-01 1.108040e+01
      vertex   -2.450504e+00 2.108228e-01 1.113960e+01
    endloop
  endfacet
  facet normal -2.384892e-01 2.702027e-02 9.707692e-01
    outer loop
      vertex   -2.450504e+00 2.108228e-01 1.113960e+01
      vertex   -2.675768e+00 3.493464e-01 1.108040e+01
      vertex   -2.689137e+00 2.313529e-01 1.108040e+01
    endloop
  endfacet
  facet normal -2.394308e-01 1.610662e-02 9.707798e-01
    outer loop
      vertex   -2.450504e+00 2.108228e-01 1.113960e+01
      vertex   -2.689137e+00 2.313529e-01 1.108040e+01
      vertex   -2.457649e+00 1.046131e-01 1.113960e+01
    endloop
  endfacet
  facet normal -2.394308e-01 1.610662e-02 9.707798e-01
    outer loop
      vertex   -2.457649e+00 1.046131e-01 1.113960e+01
      vertex   -2.689137e+00 2.313529e-01 1.108040e+01
      vertex   -2.696977e+00 1.148004e-01 1.108040e+01
    endloop
  endfacet
  facet normal -2.378252e-01 3.926674e-02 9.705139e-01
    outer loop
      vertex   -2.430421e+00 4.285487e-01 1.113732e+01
      vertex   -2.667890e+00 4.704209e-01 1.107743e+01
      vertex   -2.675768e+00 3.493464e-01 1.108040e+01
    endloop
  endfacet
  facet normal -2.591132e-01 4.051677e-02 9.649968e-01
    outer loop
      vertex   -2.675768e+00 3.493464e-01 1.108040e+01
      vertex   -2.667890e+00 4.704209e-01 1.107743e+01
      vertex   -2.913346e+00 3.803645e-01 1.101530e+01
    endloop
  endfacet
  facet normal -2.605521e-01 2.951994e-02 9.650084e-01
    outer loop
      vertex   -2.675768e+00 3.493464e-01 1.108040e+01
      vertex   -2.913346e+00 3.803645e-01 1.101530e+01
      vertex   -2.689137e+00 2.313529e-01 1.108040e+01
    endloop
  endfacet
  facet normal -2.605521e-01 2.951994e-02 9.650084e-01
    outer loop
      vertex   -2.689137e+00 2.313529e-01 1.108040e+01
      vertex   -2.913346e+00 3.803645e-01 1.101530e+01
      vertex   -2.927902e+00 2.518944e-01 1.101530e+01
    endloop
  endfacet
  facet normal -2.615813e-01 1.759670e-02 9.650210e-01
    outer loop
      vertex   -2.689137e+00 2.313529e-01 1.108040e+01
      vertex   -2.927902e+00 2.518944e-01 1.101530e+01
      vertex   -2.696977e+00 1.148004e-01 1.108040e+01
    endloop
  endfacet
  facet normal -2.615813e-01 1.759670e-02 9.650210e-01
    outer loop
      vertex   -2.696977e+00 1.148004e-01 1.108040e+01
      vertex   -2.927902e+00 2.518944e-01 1.101530e+01
      vertex   -2.936438e+00 1.249934e-01 1.101530e+01
    endloop
  endfacet
  facet normal -2.598547e-01 4.274176e-02 9.647013e-01
    outer loop
      vertex   -2.667890e+00 4.704209e-01 1.107743e+01
      vertex   -2.904030e+00 5.120589e-01 1.101198e+01
      vertex   -2.913346e+00 3.803645e-01 1.101530e+01
    endloop
  endfacet
  facet normal -2.810145e-01 4.408687e-02 9.586903e-01
    outer loop
      vertex   -2.913346e+00 3.803645e-01 1.101530e+01
      vertex   -2.904030e+00 5.120589e-01 1.101198e+01
      vertex   -3.150866e+00 4.113748e-01 1.094426e+01
    endloop
  endfacet
  facet normal -2.825947e-01 3.201732e-02 9.587049e-01
    outer loop
      vertex   -2.913346e+00 3.803645e-01 1.101530e+01
      vertex   -3.150866e+00 4.113748e-01 1.094426e+01
      vertex   -2.927902e+00 2.518944e-01 1.101530e+01
    endloop
  endfacet
  facet normal -2.825947e-01 3.201732e-02 9.587049e-01
    outer loop
      vertex   -2.927902e+00 2.518944e-01 1.101530e+01
      vertex   -3.150866e+00 4.113748e-01 1.094426e+01
      vertex   -3.166608e+00 2.724309e-01 1.094426e+01
    endloop
  endfacet
  facet normal -2.837117e-01 1.908542e-02 9.587197e-01
    outer loop
      vertex   -2.927902e+00 2.518944e-01 1.101530e+01
      vertex   -3.166608e+00 2.724309e-01 1.094426e+01
      vertex   -2.936438e+00 1.249934e-01 1.101530e+01
    endloop
  endfacet
  facet normal -2.837117e-01 1.908542e-02 9.587197e-01
    outer loop
      vertex   -2.936438e+00 1.249934e-01 1.101530e+01
      vertex   -3.166608e+00 2.724309e-01 1.094426e+01
      vertex   -3.175840e+00 1.351838e-01 1.094426e+01
    endloop
  endfacet
  facet normal -2.817494e-01 4.609715e-02 9.583801e-01
    outer loop
      vertex   -2.904030e+00 5.120589e-01 1.101198e+01
      vertex   -3.138752e+00 5.534467e-01 1.094098e+01
      vertex   -3.150866e+00 4.113748e-01 1.094426e+01
    endloop
  endfacet
  facet normal -2.973297e-01 4.731550e-02 9.536018e-01
    outer loop
      vertex   -3.150866e+00 4.113748e-01 1.094426e+01
      vertex   -3.138752e+00 5.534467e-01 1.094098e+01
      vertex   -3.269543e+00 4.268692e-01 1.090648e+01
    endloop
  endfacet
  facet normal -2.990898e-01 3.388617e-02 9.536231e-01
    outer loop
      vertex   -3.150866e+00 4.113748e-01 1.094426e+01
      vertex   -3.269543e+00 4.268692e-01 1.090648e+01
      vertex   -3.166608e+00 2.724309e-01 1.094426e+01
    endloop
  endfacet
  facet normal -2.990898e-01 3.388617e-02 9.536231e-01
    outer loop
      vertex   -3.166608e+00 2.724309e-01 1.094426e+01
      vertex   -3.269543e+00 4.268692e-01 1.090648e+01
      vertex   -3.285877e+00 2.826919e-01 1.090648e+01
    endloop
  endfacet
  facet normal -3.002725e-01 2.019948e-02 9.536396e-01
    outer loop
      vertex   -3.166608e+00 2.724309e-01 1.094426e+01
      vertex   -3.285877e+00 2.826919e-01 1.090648e+01
      vertex   -3.175840e+00 1.351838e-01 1.094426e+01
    endloop
  endfacet
  facet normal -3.002725e-01 2.019948e-02 9.536396e-01
    outer loop
      vertex   -3.175840e+00 1.351838e-01 1.094426e+01
      vertex   -3.285877e+00 2.826919e-01 1.090648e+01
      vertex   -3.295458e+00 1.402755e-01 1.090648e+01
    endloop
  endfacet
  facet normal -3.027686e-01 5.349140e-02 9.515618e-01
    outer loop
      vertex   -3.138752e+00 5.534467e-01 1.094098e+01
      vertex   -3.371967e+00 5.945687e-01 1.086447e+01
      vertex   -3.269543e+00 4.268692e-01 1.090648e+01
    endloop
  endfacet
  facet normal -3.081500e-01 4.982141e-02 9.500323e-01
    outer loop
      vertex   -3.269543e+00 4.268692e-01 1.090648e+01
      vertex   -3.371967e+00 5.945687e-01 1.086447e+01
      vertex   -3.388131e+00 4.423520e-01 1.086721e+01
    endloop
  endfacet
  facet normal -3.100778e-01 3.513109e-02 9.500619e-01
    outer loop
      vertex   -3.269543e+00 4.268692e-01 1.090648e+01
      vertex   -3.388131e+00 4.423520e-01 1.086721e+01
      vertex   -3.285877e+00 2.826919e-01 1.090648e+01
    endloop
  endfacet
  facet normal -3.100778e-01 3.513109e-02 9.500619e-01
    outer loop
      vertex   -3.285877e+00 2.826919e-01 1.090648e+01
      vertex   -3.388131e+00 4.423520e-01 1.086721e+01
      vertex   -3.405058e+00 2.929454e-01 1.086721e+01
    endloop
  endfacet
  facet normal -3.113043e-01 2.094159e-02 9.500795e-01
    outer loop
      vertex   -3.285877e+00 2.826919e-01 1.090648e+01
      vertex   -3.405058e+00 2.929454e-01 1.086721e+01
      vertex   -3.295458e+00 1.402755e-01 1.090648e+01
    endloop
  endfacet
  facet normal -3.113043e-01 2.094159e-02 9.500795e-01
    outer loop
      vertex   -3.295458e+00 1.402755e-01 1.090648e+01
      vertex   -3.405058e+00 2.929454e-01 1.086721e+01
      vertex   -3.414986e+00 1.453634e-01 1.086721e+01
    endloop
  endfacet
  facet normal -3.191413e-01 5.092211e-02 9.463381e-01
    outer loop
      vertex   -3.388131e+00 4.423520e-01 1.086721e+01
      vertex   -3.371967e+00 5.945687e-01 1.086447e+01
      vertex   -3.506606e+00 4.578201e-01 1.082642e+01
    endloop
  endfacet
  facet normal -3.243582e-01 5.664323e-02 9.442369e-01
    outer loop
      vertex   -3.506606e+00 4.578201e-01 1.082642e+01
      vertex   -3.371967e+00 5.945687e-01 1.086447e+01
      vertex   -3.603583e+00 6.354089e-01 1.078245e+01
    endloop
  endfacet
  facet normal -3.299623e-01 5.315211e-02 9.424965e-01
    outer loop
      vertex   -3.506606e+00 4.578201e-01 1.082642e+01
      vertex   -3.603583e+00 6.354089e-01 1.078245e+01
      vertex   -3.624943e+00 4.732700e-01 1.078412e+01
    endloop
  endfacet
  facet normal -3.513565e-01 5.664492e-02 9.345266e-01
    outer loop
      vertex   -3.833512e+00 6.759515e-01 1.069497e+01
      vertex   -3.859494e+00 5.081065e-01 1.069537e+01
      vertex   -3.743115e+00 4.886985e-01 1.074030e+01
    endloop
  endfacet
  facet normal -3.539728e-01 4.060277e-02 9.343739e-01
    outer loop
      vertex   -3.743115e+00 4.886985e-01 1.074030e+01
      vertex   -3.859494e+00 5.081065e-01 1.069537e+01
      vertex   -3.878090e+00 3.392845e-01 1.069566e+01
    endloop
  endfacet
  facet normal -3.534288e-01 4.004266e-02 9.346040e-01
    outer loop
      vertex   -3.743115e+00 4.886985e-01 1.074030e+01
      vertex   -3.878090e+00 3.392845e-01 1.069566e+01
      vertex   -3.761816e+00 3.236381e-01 1.074030e+01
    endloop
  endfacet
  facet normal -3.554470e-01 2.440020e-02 9.343779e-01
    outer loop
      vertex   -3.761816e+00 3.236381e-01 1.074030e+01
      vertex   -3.878090e+00 3.392845e-01 1.069566e+01
      vertex   -3.889262e+00 1.698051e-01 1.069584e+01
    endloop
  endfacet
  facet normal -3.548900e-01 2.387362e-02 9.346032e-01
    outer loop
      vertex   -3.761816e+00 3.236381e-01 1.074030e+01
      vertex   -3.889262e+00 1.698051e-01 1.069584e+01
      vertex   -3.772784e+00 1.605935e-01 1.074030e+01
    endloop
  endfacet
  facet normal -3.560665e-01 8.137442e-03 9.344252e-01
    outer loop
      vertex   -3.772784e+00 1.605935e-01 1.074030e+01
      vertex   -3.889262e+00 1.698051e-01 1.069584e+01
      vertex   -3.892988e+00 -1.058250e-15 1.069590e+01
    endloop
  endfacet
  facet normal -3.504869e-01 3.370370e-03 9.365616e-01
    outer loop
      vertex   -3.772784e+00 1.605935e-01 1.074030e+01
      vertex   -3.892988e+00 -1.058250e-15 1.069590e+01
      vertex   -3.660080e+00 -1.080773e-14 1.078306e+01
    endloop
  endfacet
  facet normal -3.289315e-01 2.596843e-03 9.443502e-01
    outer loop
      vertex   -3.425290e+00 -3.663882e-14 1.086484e+01
      vertex   -3.534401e+00 1.504464e-01 1.082642e+01
      vertex   -3.660080e+00 -1.080773e-14 1.078306e+01
    endloop
  endfacet
  facet normal -3.339628e-01 7.316446e-03 9.425579e-01
    outer loop
      vertex   -3.660080e+00 -1.080773e-14 1.078306e+01
      vertex   -3.534401e+00 1.504464e-01 1.082642e+01
      vertex   -3.653675e+00 1.555235e-01 1.078412e+01
    endloop
  endfacet
  facet normal -3.449498e-01 7.796023e-03 9.385888e-01
    outer loop
      vertex   -3.660080e+00 -1.080773e-14 1.078306e+01
      vertex   -3.653675e+00 1.555235e-01 1.078412e+01
      vertex   -3.772784e+00 1.605935e-01 1.074030e+01
    endloop
  endfacet
  facet normal -3.442915e-01 2.316065e-02 9.385771e-01
    outer loop
      vertex   -3.772784e+00 1.605935e-01 1.074030e+01
      vertex   -3.653675e+00 1.555235e-01 1.078412e+01
      vertex   -3.761816e+00 3.236381e-01 1.074030e+01
    endloop
  endfacet
  facet normal -3.223198e-01 2.168261e-02 9.463825e-01
    outer loop
      vertex   -3.524126e+00 3.031890e-01 1.082642e+01
      vertex   -3.414986e+00 1.453634e-01 1.086721e+01
      vertex   -3.405058e+00 2.929454e-01 1.086721e+01
    endloop
  endfacet
  facet normal -3.442915e-01 2.316065e-02 9.385771e-01
    outer loop
      vertex   -3.761816e+00 3.236381e-01 1.074030e+01
      vertex   -3.653675e+00 1.555235e-01 1.078412e+01
      vertex   -3.643053e+00 3.134206e-01 1.078412e+01
    endloop
  endfacet
  facet normal -3.333164e-01 2.242236e-02 9.425484e-01
    outer loop
      vertex   -3.643053e+00 3.134206e-01 1.078412e+01
      vertex   -3.653675e+00 1.555235e-01 1.078412e+01
      vertex   -3.534401e+00 1.504464e-01 1.082642e+01
    endloop
  endfacet
  facet normal -3.210494e-01 3.637415e-02 9.463637e-01
    outer loop
      vertex   -3.388131e+00 4.423520e-01 1.086721e+01
      vertex   -3.506606e+00 4.578201e-01 1.082642e+01
      vertex   -3.405058e+00 2.929454e-01 1.086721e+01
    endloop
  endfacet
  facet normal -3.210494e-01 3.637415e-02 9.463637e-01
    outer loop
      vertex   -3.405058e+00 2.929454e-01 1.086721e+01
      vertex   -3.506606e+00 4.578201e-01 1.082642e+01
      vertex   -3.524126e+00 3.031890e-01 1.082642e+01
    endloop
  endfacet
  facet normal -3.429335e-01 3.885356e-02 9.385558e-01
    outer loop
      vertex   -3.743115e+00 4.886985e-01 1.074030e+01
      vertex   -3.761816e+00 3.236381e-01 1.074030e+01
      vertex   -3.643053e+00 3.134206e-01 1.078412e+01
    endloop
  endfacet
  facet normal -3.320022e-01 3.761507e-02 9.425283e-01
    outer loop
      vertex   -3.506606e+00 4.578201e-01 1.082642e+01
      vertex   -3.624943e+00 4.732700e-01 1.078412e+01
      vertex   -3.524126e+00 3.031890e-01 1.082642e+01
    endloop
  endfacet
  facet normal 7.447771e-13 -1.000000e+00 1.312764e-13
    outer loop
      vertex   -1.982013e+00 -5.387796e-16 1.124055e+01
      vertex   -2.226149e+00 -1.887644e-13 1.119181e+01
      vertex   0.000000e+00 0.000000e+00 0.000000e+00
    endloop
  endfacet
  facet normal -4.754227e-14 -1.000000e+00 -2.632287e-14
    outer loop
      vertex   0.000000e+00 0.000000e+00 0.000000e+00
      vertex   -2.226149e+00 -1.887644e-13 1.119181e+01
      vertex   -2.469046e+00 -1.757858e-13 1.113746e+01
    endloop
  endfacet
  facet normal -1.056373e-13 -1.000000e+00 -3.920187e-14
    outer loop
      vertex   0.000000e+00 0.000000e+00 0.000000e+00
      vertex   -2.469046e+00 -1.757858e-13 1.113746e+01
      vertex   -2.710496e+00 -1.479312e-13 1.107755e+01
    endloop
  endfacet
  facet normal -1.395103e-13 -1.000000e+00 -4.749003e-14
    outer loop
      vertex   -2.710496e+00 -1.479312e-13 1.107755e+01
      vertex   -2.950411e+00 -1.113533e-13 1.101212e+01
      vertex   0.000000e+00 0.000000e+00 0.000000e+00
    endloop
  endfacet
  facet normal -1.493674e-13 -1.000000e+00 -5.013099e-14
    outer loop
      vertex   0.000000e+00 0.000000e+00 0.000000e+00
      vertex   -2.950411e+00 -1.113533e-13 1.101212e+01
      vertex   -3.188704e+00 -7.220493e-14 1.094121e+01
    endloop
  endfacet
  facet normal -1.354580e-13 -1.000000e+00 -4.607722e-14
    outer loop
      vertex   0.000000e+00 0.000000e+00 0.000000e+00
      vertex   -3.188704e+00 -7.220493e-14 1.094121e+01
      vertex   -3.425290e+00 -3.663882e-14 1.086484e+01
    endloop
  endfacet
  facet normal -9.807351e-14 -1.000000e+00 -3.429126e-14
    outer loop
      vertex   -3.425290e+00 -3.663882e-14 1.086484e+01
      vertex   -3.660080e+00 -1.080773e-14 1.078306e+01
      vertex   0.000000e+00 0.000000e+00 0.000000e+00
    endloop
  endfacet
  facet normal -3.680900e-14 -1.000000e+00 -1.349632e-14
    outer loop
      vertex   0.000000e+00 0.000000e+00 0.000000e+00
      vertex   -3.660080e+00 -1.080773e-14 1.078306e+01
      vertex   -3.892988e+00 -1.058250e-15 1.069590e+01
    endloop
  endfacet
  facet normal 9.732413e-01 -1.497954e-01 1.742490e-01
    outer loop
      vertex   -1.965031e+00 2.587008e-01 1.124041e+01
      vertex   -1.316314e+00 1.151627e-01 7.493702e+00
      vertex   -1.951858e+00 3.441651e-01 1.124030e+01
    endloop
  endfacet
  facet normal 9.764106e-01 -1.285470e-01 1.734879e-01
    outer loop
      vertex   -1.951858e+00 3.441651e-01 1.124030e+01
      vertex   -1.316314e+00 1.151627e-01 7.493702e+00
      vertex   -6.581569e-01 5.758131e-02 3.746851e+00
    endloop
  endfacet
  facet normal 9.764106e-01 -1.285470e-01 1.734879e-01
    outer loop
      vertex   -1.951858e+00 3.441651e-01 1.124030e+01
      vertex   -6.581569e-01 5.758131e-02 3.746851e+00
      vertex   0.000000e+00 0.000000e+00 0.000000e+00
    endloop
  endfacet
  facet normal 9.789614e-01 -1.072137e-01 1.736081e-01
    outer loop
      vertex   -1.965031e+00 2.587008e-01 1.124041e+01
      vertex   -1.974459e+00 1.727432e-01 1.124049e+01
      vertex   -1.316314e+00 1.151627e-01 7.493702e+00
    endloop
  endfacet
  facet normal 9.827063e-01 -6.441003e-02 1.736081e-01
    outer loop
      vertex   -1.316314e+00 1.151627e-01 7.493702e+00
      vertex   -1.974459e+00 1.727432e-01 1.124049e+01
      vertex   -1.980124e+00 8.645383e-02 1.124054e+01
    endloop
  endfacet
  facet normal 9.844673e-01 -2.148096e-02 1.742490e-01
    outer loop
      vertex   -1.316314e+00 1.151627e-01 7.493702e+00
      vertex   -1.980124e+00 8.645383e-02 1.124054e+01
      vertex   -1.982013e+00 -5.387796e-16 1.124055e+01
    endloop
  endfacet
  facet normal 9.838987e-01 -4.295802e-02 1.734879e-01
    outer loop
      vertex   -1.316314e+00 1.151627e-01 7.493702e+00
      vertex   -1.982013e+00 -5.387796e-16 1.124055e+01
      vertex   -6.581569e-01 5.758131e-02 3.746851e+00
    endloop
  endfacet
  facet normal 9.838987e-01 -4.295798e-02 1.734879e-01
    outer loop
      vertex   -6.581569e-01 5.758131e-02 3.746851e+00
      vertex   -1.982013e+00 -5.387796e-16 1.124055e+01
      vertex   0.000000e+00 0.000000e+00 0.000000e+00
    endloop
  endfacet
  facet normal -9.394022e-01 2.049722e-02 -3.422038e-01
    outer loop
      vertex   -3.889262e+00 1.698051e-01 1.069584e+01
      vertex   -2.590935e+00 1.509048e-01 7.130599e+00
      vertex   -3.892988e+00 -1.058250e-15 1.069590e+01
    endloop
  endfacet
  facet normal -9.393416e-01 2.733204e-02 -3.418924e-01
    outer loop
      vertex   -3.892988e+00 -1.058250e-15 1.069590e+01
      vertex   -2.590935e+00 1.509048e-01 7.130599e+00
      vertex   -1.295467e+00 7.545238e-02 3.565299e+00
    endloop
  endfacet
  facet normal -9.393416e-01 2.733204e-02 -3.418924e-01
    outer loop
      vertex   -3.892988e+00 -1.058250e-15 1.069590e+01
      vertex   -1.295467e+00 7.545238e-02 3.565299e+00
      vertex   0.000000e+00 0.000000e+00 0.000000e+00
    endloop
  endfacet
  facet normal -9.377532e-01 6.146282e-02 -3.418205e-01
    outer loop
      vertex   -3.889262e+00 1.698051e-01 1.069584e+01
      vertex   -3.878090e+00 3.392845e-01 1.069566e+01
      vertex   -2.590935e+00 1.509048e-01 7.130599e+00
    endloop
  endfacet
  facet normal -9.360241e-01 8.189150e-02 -3.422757e-01
    outer loop
      vertex   -2.590935e+00 1.509048e-01 7.130599e+00
      vertex   -3.878090e+00 3.392845e-01 1.069566e+01
      vertex   -2.577777e+00 3.012989e-01 7.130599e+00
    endloop
  endfacet
  facet normal -9.361631e-01 8.190366e-02 -3.418924e-01
    outer loop
      vertex   -2.590935e+00 1.509048e-01 7.130599e+00
      vertex   -2.577777e+00 3.012989e-01 7.130599e+00
      vertex   -1.288888e+00 1.506495e-01 3.565299e+00
    endloop
  endfacet
  facet normal -9.298170e-01 1.361981e-01 -3.418924e-01
    outer loop
      vertex   -1.288888e+00 1.506495e-01 3.565299e+00
      vertex   -2.577777e+00 3.012989e-01 7.130599e+00
      vertex   -3.833512e+00 6.759515e-01 1.069497e+01
    endloop
  endfacet
  facet normal -9.298170e-01 1.361981e-01 -3.418924e-01
    outer loop
      vertex   -1.288888e+00 1.506495e-01 3.565299e+00
      vertex   -3.833512e+00 6.759515e-01 1.069497e+01
      vertex   0.000000e+00 0.000000e+00 0.000000e+00
    endloop
  endfacet
  facet normal -9.341797e-01 1.023083e-01 -3.418205e-01
    outer loop
      vertex   -3.878090e+00 3.392845e-01 1.069566e+01
      vertex   -3.859494e+00 5.081065e-01 1.069537e+01
      vertex   -2.577777e+00 3.012989e-01 7.130599e+00
    endloop
  endfacet
  facet normal -9.286901e-01 1.429378e-01 -3.422038e-01
    outer loop
      vertex   -2.577777e+00 3.012989e-01 7.130599e+00
      vertex   -3.859494e+00 5.081065e-01 1.069537e+01
      vertex   -3.833512e+00 6.759515e-01 1.069497e+01
    endloop
  endfacet
  facet normal -9.361631e-01 8.190366e-02 -3.418924e-01
    outer loop
      vertex   -1.288888e+00 1.506495e-01 3.565299e+00
      vertex   0.000000e+00 0.000000e+00 0.000000e+00
      vertex   -1.295467e+00 7.545238e-02 3.565299e+00
    endloop
  endfacet
  facet normal -9.361631e-01 8.190366e-02 -3.418924e-01
    outer loop
      vertex   -1.288888e+00 1.506495e-01 3.565299e+00
      vertex   -1.295467e+00 7.545238e-02 3.565299e+00
      vertex   -2.590935e+00 1.509048e-01 7.130599e+00
    endloop
  endfacet
endsolid
