solid ASCII
  facet normal -5.000000e-01 8.660254e-01 -9.091402e-16
    outer loop
      vertex   1.716152e+00 9.908211e-01 -1.123845e+01
      vertex   0.000000e+00 0.000000e+00 0.000000e+00
      vertex   1.927418e+00 1.112795e+00 -1.118918e+01
    endloop
  endfacet
  facet normal -5.000000e-01 8.660254e-01 5.869081e-17
    outer loop
      vertex   1.927418e+00 1.112795e+00 -1.118918e+01
      vertex   0.000000e+00 0.000000e+00 0.000000e+00
      vertex   2.137571e+00 1.234127e+00 -1.113425e+01
    endloop
  endfacet
  facet normal -5.000000e-01 8.660254e-01 7.832612e-17
    outer loop
      vertex   2.137571e+00 1.234127e+00 -1.113425e+01
      vertex   0.000000e+00 0.000000e+00 0.000000e+00
      vertex   2.346446e+00 1.354721e+00 -1.107371e+01
    endloop
  endfacet
  facet normal -5.000000e-01 8.660254e-01 -1.567751e-16
    outer loop
      vertex   2.346446e+00 1.354721e+00 -1.107371e+01
      vertex   0.000000e+00 0.000000e+00 0.000000e+00
      vertex   2.553966e+00 1.474533e+00 -1.100760e+01
    endloop
  endfacet
  facet normal -5.000000e-01 8.660254e-01 5.294625e-16
    outer loop
      vertex   2.553966e+00 1.474533e+00 -1.100760e+01
      vertex   0.000000e+00 0.000000e+00 0.000000e+00
      vertex   2.760057e+00 1.593520e+00 -1.093595e+01
    endloop
  endfacet
  facet normal -5.000000e-01 8.660254e-01 1.962005e-16
    outer loop
      vertex   2.760057e+00 1.593520e+00 -1.093595e+01
      vertex   0.000000e+00 0.000000e+00 0.000000e+00
      vertex   2.964643e+00 1.711637e+00 -1.085881e+01
    endloop
  endfacet
  facet normal -5.000000e-01 8.660254e-01 6.673488e-16
    outer loop
      vertex   2.964643e+00 1.711637e+00 -1.085881e+01
      vertex   0.000000e+00 0.000000e+00 0.000000e+00
      vertex   3.167648e+00 1.828842e+00 -1.077621e+01
    endloop
  endfacet
  facet normal -5.000000e-01 8.660254e-01 -2.552329e-16
    outer loop
      vertex   3.167648e+00 1.828842e+00 -1.077621e+01
      vertex   0.000000e+00 0.000000e+00 0.000000e+00
      vertex   3.368997e+00 1.945091e+00 -1.068819e+01
    endloop
  endfacet
  facet normal 1.827754e-01 7.315114e-02 -9.804295e-01
    outer loop
      vertex   2.091112e+00 7.611025e-01 -1.119070e+01
      vertex   1.862320e+00 6.778290e-01 -1.123957e+01
      vertex   2.056268e+00 8.371943e-01 -1.119152e+01
    endloop
  endfacet
  facet normal 1.792474e-01 7.753951e-02 -9.807436e-01
    outer loop
      vertex   2.056268e+00 8.371943e-01 -1.119152e+01
      vertex   1.862320e+00 6.778290e-01 -1.123957e+01
      vertex   1.796075e+00 8.375198e-01 -1.123905e+01
    endloop
  endfacet
  facet normal 1.792081e-01 8.054931e-02 -9.805082e-01
    outer loop
      vertex   2.056268e+00 8.371943e-01 -1.119152e+01
      vertex   1.796075e+00 8.375198e-01 -1.123905e+01
      vertex   2.021766e+00 9.139555e-01 -1.119152e+01
    endloop
  endfacet
  facet normal 1.766834e-01 8.789638e-02 -9.803352e-01
    outer loop
      vertex   2.021766e+00 9.139555e-01 -1.119152e+01
      vertex   1.796075e+00 8.375198e-01 -1.123905e+01
      vertex   1.983997e+00 9.898766e-01 -1.119152e+01
    endloop
  endfacet
  facet normal 1.964047e-01 9.770732e-02 -9.756426e-01
    outer loop
      vertex   2.021766e+00 9.139555e-01 -1.119152e+01
      vertex   1.983997e+00 9.898766e-01 -1.119152e+01
      vertex   2.198456e+00 1.096877e+00 -1.113763e+01
    endloop
  endfacet
  facet normal 1.925362e-01 1.054438e-01 -9.756082e-01
    outer loop
      vertex   2.198456e+00 1.096877e+00 -1.113763e+01
      vertex   1.983997e+00 9.898766e-01 -1.119152e+01
      vertex   2.153011e+00 1.179859e+00 -1.113763e+01
    endloop
  endfacet
  facet normal 2.122168e-01 1.162220e-01 -9.702868e-01
    outer loop
      vertex   2.198456e+00 1.096877e+00 -1.113763e+01
      vertex   2.153011e+00 1.179859e+00 -1.113763e+01
      vertex   2.363315e+00 1.295107e+00 -1.107783e+01
    endloop
  endfacet
  facet normal 2.099840e-01 1.202910e-01 -9.702766e-01
    outer loop
      vertex   2.363315e+00 1.295107e+00 -1.107783e+01
      vertex   2.153011e+00 1.179859e+00 -1.113763e+01
      vertex   2.137571e+00 1.234127e+00 -1.113425e+01
    endloop
  endfacet
  facet normal 2.083247e-01 1.260843e-01 -9.698987e-01
    outer loop
      vertex   2.363315e+00 1.295107e+00 -1.107783e+01
      vertex   2.137571e+00 1.234127e+00 -1.113425e+01
      vertex   2.346446e+00 1.354721e+00 -1.107371e+01
    endloop
  endfacet
  facet normal 1.721429e-01 9.358461e-02 -9.806165e-01
    outer loop
      vertex   1.796075e+00 8.375198e-01 -1.123905e+01
      vertex   1.716152e+00 9.908211e-01 -1.123845e+01
      vertex   1.983997e+00 9.898766e-01 -1.119152e+01
    endloop
  endfacet
  facet normal 1.721340e-01 9.427042e-02 -9.805524e-01
    outer loop
      vertex   1.983997e+00 9.898766e-01 -1.119152e+01
      vertex   1.716152e+00 9.908211e-01 -1.123845e+01
      vertex   1.942984e+00 1.064763e+00 -1.119152e+01
    endloop
  endfacet
  facet normal 1.925362e-01 1.054438e-01 -9.756082e-01
    outer loop
      vertex   1.983997e+00 9.898766e-01 -1.119152e+01
      vertex   1.942984e+00 1.064763e+00 -1.119152e+01
      vertex   2.153011e+00 1.179859e+00 -1.113763e+01
    endloop
  endfacet
  facet normal 1.904393e-01 1.092659e-01 -9.755992e-01
    outer loop
      vertex   2.153011e+00 1.179859e+00 -1.113763e+01
      vertex   1.942984e+00 1.064763e+00 -1.119152e+01
      vertex   1.927418e+00 1.112795e+00 -1.118918e+01
    endloop
  endfacet
  facet normal 1.887944e-01 1.145766e-01 -9.753096e-01
    outer loop
      vertex   2.153011e+00 1.179859e+00 -1.113763e+01
      vertex   1.927418e+00 1.112795e+00 -1.118918e+01
      vertex   2.137571e+00 1.234127e+00 -1.113425e+01
    endloop
  endfacet
  facet normal 1.693297e-01 1.026491e-01 -9.801993e-01
    outer loop
      vertex   1.716152e+00 9.908211e-01 -1.123845e+01
      vertex   1.927418e+00 1.112795e+00 -1.118918e+01
      vertex   1.942984e+00 1.064763e+00 -1.119152e+01
    endloop
  endfacet
  facet normal 2.293392e-01 1.316504e-01 -9.644023e-01
    outer loop
      vertex   2.363315e+00 1.295107e+00 -1.107783e+01
      vertex   2.346446e+00 1.354721e+00 -1.107371e+01
      vertex   2.573730e+00 1.410415e+00 -1.101205e+01
    endloop
  endfacet
  facet normal 2.278446e-01 1.372737e-01 -9.639724e-01
    outer loop
      vertex   2.573730e+00 1.410415e+00 -1.101205e+01
      vertex   2.346446e+00 1.354721e+00 -1.107371e+01
      vertex   2.553966e+00 1.474533e+00 -1.100760e+01
    endloop
  endfacet
  facet normal 2.485406e-01 1.432357e-01 -9.579724e-01
    outer loop
      vertex   2.573730e+00 1.410415e+00 -1.101205e+01
      vertex   2.553966e+00 1.474533e+00 -1.100760e+01
      vertex   2.784085e+00 1.525690e+00 -1.094024e+01
    endloop
  endfacet
  facet normal 2.473085e-01 1.482030e-01 -9.575356e-01
    outer loop
      vertex   2.784085e+00 1.525690e+00 -1.094024e+01
      vertex   2.553966e+00 1.474533e+00 -1.100760e+01
      vertex   2.760057e+00 1.593520e+00 -1.093595e+01
    endloop
  endfacet
  facet normal 2.676025e-01 1.549771e-01 -9.509842e-01
    outer loop
      vertex   2.784085e+00 1.525690e+00 -1.094024e+01
      vertex   2.760057e+00 1.593520e+00 -1.093595e+01
      vertex   2.994203e+00 1.640836e+00 -1.086235e+01
    endloop
  endfacet
  facet normal 2.666863e-01 1.589036e-01 -9.505935e-01
    outer loop
      vertex   2.994203e+00 1.640836e+00 -1.086235e+01
      vertex   2.760057e+00 1.593520e+00 -1.093595e+01
      vertex   2.964643e+00 1.711637e+00 -1.085881e+01
    endloop
  endfacet
  facet normal 2.865260e-01 1.668286e-01 -9.434358e-01
    outer loop
      vertex   2.994203e+00 1.640836e+00 -1.086235e+01
      vertex   2.964643e+00 1.711637e+00 -1.085881e+01
      vertex   3.203906e+00 1.755754e+00 -1.077834e+01
    endloop
  endfacet
  facet normal 2.859581e-01 1.693905e-01 -9.431515e-01
    outer loop
      vertex   3.203906e+00 1.755754e+00 -1.077834e+01
      vertex   2.964643e+00 1.711637e+00 -1.085881e+01
      vertex   3.167648e+00 1.828842e+00 -1.077621e+01
    endloop
  endfacet
  facet normal 3.055633e-01 1.788849e-01 -9.352172e-01
    outer loop
      vertex   3.203906e+00 1.755754e+00 -1.077834e+01
      vertex   3.167648e+00 1.828842e+00 -1.077621e+01
      vertex   3.368997e+00 1.945091e+00 -1.068819e+01
    endloop
  endfacet
  facet normal 3.076714e-01 1.768977e-01 -9.349040e-01
    outer loop
      vertex   3.368997e+00 1.945091e+00 -1.068819e+01
      vertex   3.451011e+00 1.796455e+00 -1.068932e+01
      vertex   3.203906e+00 1.755754e+00 -1.077834e+01
    endloop
  endfacet
  facet normal 3.092318e-01 1.693529e-01 -9.357859e-01
    outer loop
      vertex   3.203906e+00 1.755754e+00 -1.077834e+01
      vertex   3.451011e+00 1.796455e+00 -1.068932e+01
      vertex   3.271534e+00 1.632268e+00 -1.077834e+01
    endloop
  endfacet
  facet normal 2.907141e-01 1.592116e-01 -9.434707e-01
    outer loop
      vertex   3.203906e+00 1.755754e+00 -1.077834e+01
      vertex   3.271534e+00 1.632268e+00 -1.077834e+01
      vertex   3.057404e+00 1.525433e+00 -1.086235e+01
    endloop
  endfacet
  facet normal 2.965688e-01 1.475369e-01 -9.435464e-01
    outer loop
      vertex   3.057404e+00 1.525433e+00 -1.086235e+01
      vertex   3.271534e+00 1.632268e+00 -1.077834e+01
      vertex   3.115608e+00 1.408436e+00 -1.086235e+01
    endloop
  endfacet
  facet normal 2.766179e-01 1.376117e-01 -9.510760e-01
    outer loop
      vertex   3.057404e+00 1.525433e+00 -1.086235e+01
      vertex   3.115608e+00 1.408436e+00 -1.086235e+01
      vertex   2.896970e+00 1.309599e+00 -1.094024e+01
    endloop
  endfacet
  facet normal 2.816256e-01 1.265832e-01 -9.511381e-01
    outer loop
      vertex   2.896970e+00 1.309599e+00 -1.094024e+01
      vertex   3.115608e+00 1.408436e+00 -1.086235e+01
      vertex   2.946408e+00 1.199608e+00 -1.094024e+01
    endloop
  endfacet
  facet normal 2.612504e-01 1.174252e-01 -9.581021e-01
    outer loop
      vertex   2.896970e+00 1.309599e+00 -1.094024e+01
      vertex   2.946408e+00 1.199608e+00 -1.094024e+01
      vertex   2.723789e+00 1.108971e+00 -1.101205e+01
    endloop
  endfacet
  facet normal 2.652441e-01 1.076559e-01 -9.581523e-01
    outer loop
      vertex   2.723789e+00 1.108971e+00 -1.101205e+01
      vertex   2.946408e+00 1.199608e+00 -1.094024e+01
      vertex   2.770531e+00 1.008391e+00 -1.101042e+01
    endloop
  endfacet
  facet normal 2.454681e-01 9.836361e-02 -9.644014e-01
    outer loop
      vertex   2.723789e+00 1.108971e+00 -1.101205e+01
      vertex   2.770531e+00 1.008391e+00 -1.101042e+01
      vertex   2.545304e+00 9.264147e-01 -1.107610e+01
    endloop
  endfacet
  facet normal 3.149136e-01 1.627498e-01 -9.350625e-01
    outer loop
      vertex   3.451011e+00 1.796455e+00 -1.068932e+01
      vertex   3.526441e+00 1.644373e+00 -1.069039e+01
      vertex   3.271534e+00 1.632268e+00 -1.077834e+01
    endloop
  endfacet
  facet normal 3.154678e-01 1.569387e-01 -9.358688e-01
    outer loop
      vertex   3.271534e+00 1.632268e+00 -1.077834e+01
      vertex   3.526441e+00 1.644373e+00 -1.069039e+01
      vertex   3.333814e+00 1.507077e+00 -1.077834e+01
    endloop
  endfacet
  facet normal 2.965688e-01 1.475369e-01 -9.435464e-01
    outer loop
      vertex   3.271534e+00 1.632268e+00 -1.077834e+01
      vertex   3.333814e+00 1.507077e+00 -1.077834e+01
      vertex   3.115608e+00 1.408436e+00 -1.086235e+01
    endloop
  endfacet
  facet normal 3.019405e-01 1.357143e-01 -9.436173e-01
    outer loop
      vertex   3.115608e+00 1.408436e+00 -1.086235e+01
      vertex   3.333814e+00 1.507077e+00 -1.077834e+01
      vertex   3.168777e+00 1.290144e+00 -1.086235e+01
    endloop
  endfacet
  facet normal 2.816256e-01 1.265832e-01 -9.511381e-01
    outer loop
      vertex   3.115608e+00 1.408436e+00 -1.086235e+01
      vertex   3.168777e+00 1.290144e+00 -1.086235e+01
      vertex   2.946408e+00 1.199608e+00 -1.094024e+01
    endloop
  endfacet
  facet normal 2.860498e-01 1.157664e-01 -9.511959e-01
    outer loop
      vertex   2.946408e+00 1.199608e+00 -1.094024e+01
      vertex   3.168777e+00 1.290144e+00 -1.086235e+01
      vertex   2.994398e+00 1.089872e+00 -1.093917e+01
    endloop
  endfacet
  facet normal 2.659881e-01 1.069259e-01 -9.580278e-01
    outer loop
      vertex   2.946408e+00 1.199608e+00 -1.094024e+01
      vertex   2.994398e+00 1.089872e+00 -1.093917e+01
      vertex   2.770531e+00 1.008391e+00 -1.101042e+01
    endloop
  endfacet
  facet normal 3.214137e-01 1.482118e-01 -9.352682e-01
    outer loop
      vertex   3.526441e+00 1.644373e+00 -1.069039e+01
      vertex   3.595142e+00 1.489132e+00 -1.069138e+01
      vertex   3.333814e+00 1.507077e+00 -1.077834e+01
    endloop
  endfacet
  facet normal 3.213574e-01 1.444417e-01 -9.358771e-01
    outer loop
      vertex   3.333814e+00 1.507077e+00 -1.077834e+01
      vertex   3.595142e+00 1.489132e+00 -1.069138e+01
      vertex   3.390707e+00 1.380501e+00 -1.077834e+01
    endloop
  endfacet
  facet normal 3.019405e-01 1.357143e-01 -9.436173e-01
    outer loop
      vertex   3.333814e+00 1.507077e+00 -1.077834e+01
      vertex   3.390707e+00 1.380501e+00 -1.077834e+01
      vertex   3.168777e+00 1.290144e+00 -1.086235e+01
    endloop
  endfacet
  facet normal 3.066662e-01 1.241688e-01 -9.436832e-01
    outer loop
      vertex   3.168777e+00 1.290144e+00 -1.086235e+01
      vertex   3.390707e+00 1.380501e+00 -1.077834e+01
      vertex   3.437708e+00 1.251223e+00 -1.078008e+01
    endloop
  endfacet
  facet normal 3.066197e-01 1.236805e-01 -9.437624e-01
    outer loop
      vertex   3.168777e+00 1.290144e+00 -1.086235e+01
      vertex   3.437708e+00 1.251223e+00 -1.078008e+01
      vertex   3.216819e+00 1.170826e+00 -1.086238e+01
    endloop
  endfacet
  facet normal 3.271200e-01 1.333199e-01 -9.355310e-01
    outer loop
      vertex   3.595142e+00 1.489132e+00 -1.069138e+01
      vertex   3.656978e+00 1.331031e+00 -1.069229e+01
      vertex   3.390707e+00 1.380501e+00 -1.077834e+01
    endloop
  endfacet
  facet normal 3.268800e-01 1.314130e-01 -9.358847e-01
    outer loop
      vertex   3.390707e+00 1.380501e+00 -1.077834e+01
      vertex   3.656978e+00 1.331031e+00 -1.069229e+01
      vertex   3.437708e+00 1.251223e+00 -1.078008e+01
    endloop
  endfacet
  facet normal 2.863222e-01 1.155097e-01 -9.511451e-01
    outer loop
      vertex   3.216819e+00 1.170826e+00 -1.086238e+01
      vertex   2.994398e+00 1.089872e+00 -1.093917e+01
      vertex   3.168777e+00 1.290144e+00 -1.086235e+01
    endloop
  endfacet
  facet normal 2.444409e-01 9.942139e-02 -9.645538e-01
    outer loop
      vertex   2.723789e+00 1.108971e+00 -1.101205e+01
      vertex   2.545304e+00 9.264147e-01 -1.107610e+01
      vertex   2.501106e+00 1.018307e+00 -1.107783e+01
    endloop
  endfacet
  facet normal 2.247633e-01 8.984954e-02 -9.702621e-01
    outer loop
      vertex   2.501106e+00 1.018307e+00 -1.107783e+01
      vertex   2.545304e+00 9.264147e-01 -1.107610e+01
      vertex   2.318802e+00 8.439749e-01 -1.113621e+01
    endloop
  endfacet
  facet normal 2.236729e-01 9.103705e-02 -9.704034e-01
    outer loop
      vertex   2.501106e+00 1.018307e+00 -1.107783e+01
      vertex   2.318802e+00 8.439749e-01 -1.113621e+01
      vertex   2.278540e+00 9.276907e-01 -1.113763e+01
    endloop
  endfacet
  facet normal 2.038698e-01 8.142431e-02 -9.756061e-01
    outer loop
      vertex   2.278540e+00 9.276907e-01 -1.113763e+01
      vertex   2.318802e+00 8.439749e-01 -1.113621e+01
      vertex   2.091112e+00 7.611025e-01 -1.119070e+01
    endloop
  endfacet
  facet normal 2.029817e-01 8.245487e-02 -9.757047e-01
    outer loop
      vertex   2.278540e+00 9.276907e-01 -1.113763e+01
      vertex   2.091112e+00 7.611025e-01 -1.119070e+01
      vertex   2.056268e+00 8.371943e-01 -1.119152e+01
    endloop
  endfacet
  facet normal 1.999538e-01 8.987395e-02 -9.756747e-01
    outer loop
      vertex   2.278540e+00 9.276907e-01 -1.113763e+01
      vertex   2.056268e+00 8.371943e-01 -1.119152e+01
      vertex   2.240308e+00 1.012749e+00 -1.113763e+01
    endloop
  endfacet
  facet normal 1.999538e-01 8.987395e-02 -9.756747e-01
    outer loop
      vertex   2.240308e+00 1.012749e+00 -1.113763e+01
      vertex   2.056268e+00 8.371943e-01 -1.119152e+01
      vertex   2.021766e+00 9.139555e-01 -1.119152e+01
    endloop
  endfacet
  facet normal 1.964047e-01 9.770732e-02 -9.756426e-01
    outer loop
      vertex   2.240308e+00 1.012749e+00 -1.113763e+01
      vertex   2.021766e+00 9.139555e-01 -1.119152e+01
      vertex   2.198456e+00 1.096877e+00 -1.113763e+01
    endloop
  endfacet
  facet normal 2.203959e-01 9.906211e-02 -9.703671e-01
    outer loop
      vertex   2.501106e+00 1.018307e+00 -1.107783e+01
      vertex   2.278540e+00 9.276907e-01 -1.113763e+01
      vertex   2.459140e+00 1.111674e+00 -1.107783e+01
    endloop
  endfacet
  facet normal 2.203959e-01 9.906211e-02 -9.703671e-01
    outer loop
      vertex   2.459140e+00 1.111674e+00 -1.107783e+01
      vertex   2.278540e+00 9.276907e-01 -1.113763e+01
      vertex   2.240308e+00 1.012749e+00 -1.113763e+01
    endloop
  endfacet
  facet normal 2.164824e-01 1.076956e-01 -9.703283e-01
    outer loop
      vertex   2.459140e+00 1.111674e+00 -1.107783e+01
      vertex   2.240308e+00 1.012749e+00 -1.113763e+01
      vertex   2.413200e+00 1.204019e+00 -1.107783e+01
    endloop
  endfacet
  facet normal 2.164824e-01 1.076956e-01 -9.703283e-01
    outer loop
      vertex   2.413200e+00 1.204019e+00 -1.107783e+01
      vertex   2.240308e+00 1.012749e+00 -1.113763e+01
      vertex   2.198456e+00 1.096877e+00 -1.113763e+01
    endloop
  endfacet
  facet normal 2.122168e-01 1.162220e-01 -9.702868e-01
    outer loop
      vertex   2.413200e+00 1.204019e+00 -1.107783e+01
      vertex   2.198456e+00 1.096877e+00 -1.113763e+01
      vertex   2.363315e+00 1.295107e+00 -1.107783e+01
    endloop
  endfacet
  facet normal 2.408342e-01 1.082486e-01 -9.645108e-01
    outer loop
      vertex   2.723789e+00 1.108971e+00 -1.101205e+01
      vertex   2.501106e+00 1.018307e+00 -1.107783e+01
      vertex   2.678086e+00 1.210651e+00 -1.101205e+01
    endloop
  endfacet
  facet normal 2.408342e-01 1.082486e-01 -9.645108e-01
    outer loop
      vertex   2.678086e+00 1.210651e+00 -1.101205e+01
      vertex   2.501106e+00 1.018307e+00 -1.107783e+01
      vertex   2.459140e+00 1.111674e+00 -1.107783e+01
    endloop
  endfacet
  facet normal 2.365561e-01 1.176818e-01 -9.644647e-01
    outer loop
      vertex   2.678086e+00 1.210651e+00 -1.101205e+01
      vertex   2.459140e+00 1.111674e+00 -1.107783e+01
      vertex   2.628056e+00 1.311218e+00 -1.101205e+01
    endloop
  endfacet
  facet normal 2.365561e-01 1.176818e-01 -9.644647e-01
    outer loop
      vertex   2.628056e+00 1.311218e+00 -1.101205e+01
      vertex   2.459140e+00 1.111674e+00 -1.107783e+01
      vertex   2.413200e+00 1.204019e+00 -1.107783e+01
    endloop
  endfacet
  facet normal 2.318929e-01 1.269978e-01 -9.644155e-01
    outer loop
      vertex   2.628056e+00 1.311218e+00 -1.101205e+01
      vertex   2.413200e+00 1.204019e+00 -1.107783e+01
      vertex   2.573730e+00 1.410415e+00 -1.101205e+01
    endloop
  endfacet
  facet normal 2.318929e-01 1.269978e-01 -9.644155e-01
    outer loop
      vertex   2.573730e+00 1.410415e+00 -1.101205e+01
      vertex   2.413200e+00 1.204019e+00 -1.107783e+01
      vertex   2.363315e+00 1.295107e+00 -1.107783e+01
    endloop
  endfacet
  facet normal 2.566074e-01 1.276569e-01 -9.580482e-01
    outer loop
      vertex   2.896970e+00 1.309599e+00 -1.094024e+01
      vertex   2.678086e+00 1.210651e+00 -1.101205e+01
      vertex   2.842851e+00 1.418385e+00 -1.094024e+01
    endloop
  endfacet
  facet normal 2.566074e-01 1.276569e-01 -9.580482e-01
    outer loop
      vertex   2.842851e+00 1.418385e+00 -1.094024e+01
      vertex   2.678086e+00 1.210651e+00 -1.101205e+01
      vertex   2.628056e+00 1.311218e+00 -1.101205e+01
    endloop
  endfacet
  facet normal 2.515468e-01 1.377613e-01 -9.579906e-01
    outer loop
      vertex   2.842851e+00 1.418385e+00 -1.094024e+01
      vertex   2.628056e+00 1.311218e+00 -1.101205e+01
      vertex   2.784085e+00 1.525690e+00 -1.094024e+01
    endloop
  endfacet
  facet normal 2.515468e-01 1.377613e-01 -9.579906e-01
    outer loop
      vertex   2.784085e+00 1.525690e+00 -1.094024e+01
      vertex   2.628056e+00 1.311218e+00 -1.101205e+01
      vertex   2.573730e+00 1.410415e+00 -1.101205e+01
    endloop
  endfacet
  facet normal 2.612504e-01 1.174252e-01 -9.581021e-01
    outer loop
      vertex   2.678086e+00 1.210651e+00 -1.101205e+01
      vertex   2.896970e+00 1.309599e+00 -1.094024e+01
      vertex   2.723789e+00 1.108971e+00 -1.101205e+01
    endloop
  endfacet
  facet normal 2.766179e-01 1.376117e-01 -9.510760e-01
    outer loop
      vertex   2.896970e+00 1.309599e+00 -1.094024e+01
      vertex   2.842851e+00 1.418385e+00 -1.094024e+01
      vertex   3.057404e+00 1.525433e+00 -1.086235e+01
    endloop
  endfacet
  facet normal 2.711600e-01 1.485027e-01 -9.510096e-01
    outer loop
      vertex   3.057404e+00 1.525433e+00 -1.086235e+01
      vertex   2.842851e+00 1.418385e+00 -1.094024e+01
      vertex   2.994203e+00 1.640836e+00 -1.086235e+01
    endloop
  endfacet
  facet normal 2.907141e-01 1.592116e-01 -9.434707e-01
    outer loop
      vertex   3.057404e+00 1.525433e+00 -1.086235e+01
      vertex   2.994203e+00 1.640836e+00 -1.086235e+01
      vertex   3.203906e+00 1.755754e+00 -1.077834e+01
    endloop
  endfacet
  facet normal 2.711600e-01 1.485027e-01 -9.510096e-01
    outer loop
      vertex   2.994203e+00 1.640836e+00 -1.086235e+01
      vertex   2.842851e+00 1.418385e+00 -1.094024e+01
      vertex   2.784085e+00 1.525690e+00 -1.094024e+01
    endloop
  endfacet
  facet normal 3.420201e-01 -9.396926e-01 1.861209e-16
    outer loop
      vertex   1.862320e+00 6.778290e-01 -1.123957e+01
      vertex   2.091112e+00 7.611025e-01 -1.119070e+01
      vertex   0.000000e+00 0.000000e+00 0.000000e+00
    endloop
  endfacet
  facet normal 3.420201e-01 -9.396926e-01 3.919161e-16
    outer loop
      vertex   0.000000e+00 0.000000e+00 0.000000e+00
      vertex   2.091112e+00 7.611025e-01 -1.119070e+01
      vertex   2.318802e+00 8.439749e-01 -1.113621e+01
    endloop
  endfacet
  facet normal 3.420201e-01 -9.396926e-01 3.135600e-16
    outer loop
      vertex   0.000000e+00 0.000000e+00 0.000000e+00
      vertex   2.318802e+00 8.439749e-01 -1.113621e+01
      vertex   2.545304e+00 9.264147e-01 -1.107610e+01
    endloop
  endfacet
  facet normal 3.420201e-01 -9.396926e-01 2.253629e-16
    outer loop
      vertex   2.545304e+00 9.264147e-01 -1.107610e+01
      vertex   2.770531e+00 1.008391e+00 -1.101042e+01
      vertex   0.000000e+00 0.000000e+00 0.000000e+00
    endloop
  endfacet
  facet normal 3.420201e-01 -9.396926e-01 4.702466e-16
    outer loop
      vertex   0.000000e+00 0.000000e+00 0.000000e+00
      vertex   2.770531e+00 1.008391e+00 -1.101042e+01
      vertex   2.994398e+00 1.089872e+00 -1.093917e+01
    endloop
  endfacet
  facet normal 3.420201e-01 -9.396926e-01 1.567041e-16
    outer loop
      vertex   0.000000e+00 0.000000e+00 0.000000e+00
      vertex   2.994398e+00 1.089872e+00 -1.093917e+01
      vertex   3.216819e+00 1.170826e+00 -1.086238e+01
    endloop
  endfacet
  facet normal 3.420201e-01 -9.396926e-01 4.894991e-16
    outer loop
      vertex   3.216819e+00 1.170826e+00 -1.086238e+01
      vertex   3.437708e+00 1.251223e+00 -1.078008e+01
      vertex   0.000000e+00 0.000000e+00 0.000000e+00
    endloop
  endfacet
  facet normal 3.420201e-01 -9.396926e-01 0.000000e+00
    outer loop
      vertex   0.000000e+00 0.000000e+00 0.000000e+00
      vertex   3.437708e+00 1.251223e+00 -1.078008e+01
      vertex   3.656978e+00 1.331031e+00 -1.069229e+01
    endloop
  endfacet
  facet normal 8.757401e-01 3.405520e-01 3.422040e-01
    outer loop
      vertex   3.595142e+00 1.489132e+00 -1.069138e+01
      vertex   2.382266e+00 1.027609e+00 -7.128192e+00
      vertex   3.656978e+00 1.331031e+00 -1.069229e+01
    endloop
  endfacet
  facet normal 8.733442e-01 3.469575e-01 3.418924e-01
    outer loop
      vertex   3.656978e+00 1.331031e+00 -1.069229e+01
      vertex   2.382266e+00 1.027609e+00 -7.128192e+00
      vertex   1.191133e+00 5.138045e-01 -3.564096e+00
    endloop
  endfacet
  facet normal 8.733442e-01 3.469575e-01 3.418924e-01
    outer loop
      vertex   3.656978e+00 1.331031e+00 -1.069229e+01
      vertex   1.191133e+00 5.138045e-01 -3.564096e+00
      vertex   0.000000e+00 0.000000e+00 0.000000e+00
    endloop
  endfacet
  facet normal 8.601802e-01 3.784823e-01 3.418204e-01
    outer loop
      vertex   3.595142e+00 1.489132e+00 -1.069138e+01
      vertex   3.526441e+00 1.644373e+00 -1.069039e+01
      vertex   2.382266e+00 1.027609e+00 -7.128192e+00
    endloop
  endfacet
  facet normal 8.515664e-01 3.970919e-01 3.422758e-01
    outer loop
      vertex   2.382266e+00 1.027609e+00 -7.128192e+00
      vertex   3.526441e+00 1.644373e+00 -1.069039e+01
      vertex   2.318485e+00 1.164387e+00 -7.128192e+00
    endloop
  endfacet
  facet normal 8.516929e-01 3.971509e-01 3.418924e-01
    outer loop
      vertex   2.382266e+00 1.027609e+00 -7.128192e+00
      vertex   2.318485e+00 1.164387e+00 -7.128192e+00
      vertex   1.159242e+00 5.821935e-01 -3.564096e+00
    endloop
  endfacet
  facet normal 8.271597e-01 4.460005e-01 3.418924e-01
    outer loop
      vertex   1.159242e+00 5.821935e-01 -3.564096e+00
      vertex   2.318485e+00 1.164387e+00 -7.128192e+00
      vertex   3.368997e+00 1.945091e+00 -1.068819e+01
    endloop
  endfacet
  facet normal 8.271597e-01 4.460005e-01 3.418924e-01
    outer loop
      vertex   1.159242e+00 5.821935e-01 -3.564096e+00
      vertex   3.368997e+00 1.945091e+00 -1.068819e+01
      vertex   0.000000e+00 0.000000e+00 0.000000e+00
    endloop
  endfacet
  facet normal 8.428524e-01 4.156425e-01 3.418204e-01
    outer loop
      vertex   3.526441e+00 1.644373e+00 -1.069039e+01
      vertex   3.451011e+00 1.796455e+00 -1.068932e+01
      vertex   2.318485e+00 1.164387e+00 -7.128192e+00
    endloop
  endfacet
  facet normal 8.237973e-01 4.519452e-01 3.422038e-01
    outer loop
      vertex   2.318485e+00 1.164387e+00 -7.128192e+00
      vertex   3.451011e+00 1.796455e+00 -1.068932e+01
      vertex   3.368997e+00 1.945091e+00 -1.068819e+01
    endloop
  endfacet
  facet normal 8.516929e-01 3.971509e-01 3.418924e-01
    outer loop
      vertex   1.159242e+00 5.821935e-01 -3.564096e+00
      vertex   0.000000e+00 0.000000e+00 0.000000e+00
      vertex   1.191133e+00 5.138045e-01 -3.564096e+00
    endloop
  endfacet
  facet normal 8.516929e-01 3.971509e-01 3.418924e-01
    outer loop
      vertex   1.159242e+00 5.821935e-01 -3.564096e+00
      vertex   1.191133e+00 5.138045e-01 -3.564096e+00
      vertex   2.382266e+00 1.027609e+00 -7.128192e+00
    endloop
  endfacet
  facet normal -8.735606e-01 -4.547459e-01 -1.734879e-01
    outer loop
      vertex   1.796075e+00 8.375198e-01 -1.123905e+01
      vertex   1.197438e+00 5.583729e-01 -7.493046e+00
      vertex   1.716152e+00 9.908211e-01 -1.123845e+01
    endloop
  endfacet
  facet normal -8.735605e-01 -4.547461e-01 -1.734879e-01
    outer loop
      vertex   1.716152e+00 9.908211e-01 -1.123845e+01
      vertex   1.197438e+00 5.583729e-01 -7.493046e+00
      vertex   5.987190e-01 2.791868e-01 -3.746523e+00
    endloop
  endfacet
  facet normal -8.735603e-01 -4.547464e-01 -1.734879e-01
    outer loop
      vertex   1.716152e+00 9.908211e-01 -1.123845e+01
      vertex   5.987190e-01 2.791868e-01 -3.746523e+00
      vertex   0.000000e+00 0.000000e+00 0.000000e+00
    endloop
  endfacet
  facet normal -9.098702e-01 -3.768795e-01 -1.734879e-01
    outer loop
      vertex   1.796075e+00 8.375198e-01 -1.123905e+01
      vertex   1.862320e+00 6.778290e-01 -1.123957e+01
      vertex   1.197438e+00 5.583729e-01 -7.493046e+00
    endloop
  endfacet
  facet normal -9.098701e-01 -3.768797e-01 -1.734879e-01
    outer loop
      vertex   1.197438e+00 5.583729e-01 -7.493046e+00
      vertex   1.862320e+00 6.778290e-01 -1.123957e+01
      vertex   5.987190e-01 2.791868e-01 -3.746523e+00
    endloop
  endfacet
  facet normal -9.098700e-01 -3.768801e-01 -1.734879e-01
    outer loop
      vertex   1.862320e+00 6.778290e-01 -1.123957e+01
      vertex   0.000000e+00 0.000000e+00 0.000000e+00
      vertex   5.987190e-01 2.791868e-01 -3.746523e+00
    endloop
  endfacet
endsolid
