solid ASCII
  facet normal -9.396926e-01 -3.420201e-01 -1.394752e-10
    outer loop
      vertex   -3.254686e+00 8.942176e+00 -5.494102e+00
      vertex   0.000000e+00 0.000000e+00 0.000000e+00
      vertex   -3.291682e+00 9.043822e+00 -5.281187e+00
    endloop
  endfacet
  facet normal -9.396926e-01 -3.420201e-01 -3.008554e-10
    outer loop
      vertex   -3.291682e+00 9.043822e+00 -5.281187e+00
      vertex   0.000000e+00 0.000000e+00 0.000000e+00
      vertex   -3.327200e+00 9.141406e+00 -5.065963e+00
    endloop
  endfacet
  facet normal -9.396926e-01 -3.420201e-01 -2.807761e-10
    outer loop
      vertex   -3.327200e+00 9.141406e+00 -5.065963e+00
      vertex   0.000000e+00 0.000000e+00 0.000000e+00
      vertex   -3.361228e+00 9.234897e+00 -4.848508e+00
    endloop
  endfacet
  facet normal -9.396926e-01 -3.420201e-01 -7.764362e-11
    outer loop
      vertex   -3.361228e+00 9.234897e+00 -4.848508e+00
      vertex   0.000000e+00 0.000000e+00 0.000000e+00
      vertex   -3.393753e+00 9.324261e+00 -4.628905e+00
    endloop
  endfacet
  facet normal -9.396926e-01 -3.420201e-01 1.715339e-10
    outer loop
      vertex   -3.393753e+00 9.324261e+00 -4.628905e+00
      vertex   0.000000e+00 0.000000e+00 0.000000e+00
      vertex   -3.424735e+00 9.409381e+00 -4.407456e+00
    endloop
  endfacet
  facet normal -9.396926e-01 -3.420201e-01 2.920602e-10
    outer loop
      vertex   -3.424735e+00 9.409381e+00 -4.407456e+00
      vertex   0.000000e+00 0.000000e+00 0.000000e+00
      vertex   -3.454153e+00 9.490206e+00 -4.184343e+00
    endloop
  endfacet
  facet normal -9.396926e-01 -3.420201e-01 2.770520e-10
    outer loop
      vertex   -3.454153e+00 9.490206e+00 -4.184343e+00
      vertex   0.000000e+00 0.000000e+00 0.000000e+00
      vertex   -3.482003e+00 9.566726e+00 -3.959644e+00
    endloop
  endfacet
  facet normal -9.396926e-01 -3.420201e-01 1.237671e-10
    outer loop
      vertex   -3.482003e+00 9.566726e+00 -3.959644e+00
      vertex   0.000000e+00 0.000000e+00 0.000000e+00
      vertex   -3.508284e+00 9.638930e+00 -3.733438e+00
    endloop
  endfacet
  facet normal -1.560279e-01 8.784991e-01 -4.515468e-01
    outer loop
      vertex   -1.668661e+00 9.463444e+00 -5.273304e+00
      vertex   -1.649978e+00 9.357492e+00 -5.485894e+00
      vertex   -1.849995e+00 9.428826e+00 -5.277997e+00
    endloop
  endfacet
  facet normal -1.573556e-01 8.777389e-01 -4.525634e-01
    outer loop
      vertex   -1.849995e+00 9.428826e+00 -5.277997e+00
      vertex   -1.649978e+00 9.357492e+00 -5.485894e+00
      vertex   -1.854110e+00 9.320512e+00 -5.486640e+00
    endloop
  endfacet
  facet normal -1.725387e-01 8.756070e-01 -4.511572e-01
    outer loop
      vertex   -1.849995e+00 9.428826e+00 -5.277997e+00
      vertex   -1.854110e+00 9.320512e+00 -5.486640e+00
      vertex   -2.032127e+00 9.392937e+00 -5.277997e+00
    endloop
  endfacet
  facet normal -1.756228e-01 8.739333e-01 -4.532077e-01
    outer loop
      vertex   -2.032127e+00 9.392937e+00 -5.277997e+00
      vertex   -1.854110e+00 9.320512e+00 -5.486640e+00
      vertex   -2.057393e+00 9.279230e+00 -5.487470e+00
    endloop
  endfacet
  facet normal -1.888120e-01 8.724276e-01 -4.507995e-01
    outer loop
      vertex   -2.032127e+00 9.392937e+00 -5.277997e+00
      vertex   -2.057393e+00 9.279230e+00 -5.487470e+00
      vertex   -2.214554e+00 9.353456e+00 -5.277997e+00
    endloop
  endfacet
  facet normal -1.938328e-01 8.698445e-01 -4.536511e-01
    outer loop
      vertex   -2.214554e+00 9.353456e+00 -5.277997e+00
      vertex   -2.057393e+00 9.279230e+00 -5.487470e+00
      vertex   -2.259759e+00 9.233660e+00 -5.488381e+00
    endloop
  endfacet
  facet normal -2.050984e-01 8.688216e-01 -4.506480e-01
    outer loop
      vertex   -2.214554e+00 9.353456e+00 -5.277997e+00
      vertex   -2.259759e+00 9.233660e+00 -5.488381e+00
      vertex   -2.397172e+00 9.310346e+00 -5.277997e+00
    endloop
  endfacet
  facet normal -2.119835e-01 8.654594e-01 -4.539195e-01
    outer loop
      vertex   -2.397172e+00 9.310346e+00 -5.277997e+00
      vertex   -2.259759e+00 9.233660e+00 -5.488381e+00
      vertex   -2.461136e+00 9.183815e+00 -5.489373e+00
    endloop
  endfacet
  facet normal -2.233226e-01 8.646518e-01 -4.500048e-01
    outer loop
      vertex   -2.397172e+00 9.310346e+00 -5.277997e+00
      vertex   -2.461136e+00 9.183815e+00 -5.489373e+00
      vertex   -2.621248e+00 9.252471e+00 -5.277997e+00
    endloop
  endfacet
  facet normal -2.300901e-01 8.608372e-01 -4.538919e-01
    outer loop
      vertex   -2.621248e+00 9.252471e+00 -5.277997e+00
      vertex   -2.461136e+00 9.183815e+00 -5.489373e+00
      vertex   -2.661409e+00 9.129721e+00 -5.490443e+00
    endloop
  endfacet
  facet normal -2.432787e-01 8.590584e-01 -4.503710e-01
    outer loop
      vertex   -2.621248e+00 9.252471e+00 -5.277997e+00
      vertex   -2.661409e+00 9.129721e+00 -5.490443e+00
      vertex   -2.845253e+00 9.189035e+00 -5.277997e+00
    endloop
  endfacet
  facet normal -2.481346e-01 8.559145e-01 -4.536954e-01
    outer loop
      vertex   -2.845253e+00 9.189035e+00 -5.277997e+00
      vertex   -2.661409e+00 9.129721e+00 -5.490443e+00
      vertex   -2.860471e+00 9.071404e+00 -5.491590e+00
    endloop
  endfacet
  facet normal -2.631974e-01 8.528646e-01 -4.509425e-01
    outer loop
      vertex   -2.845253e+00 9.189035e+00 -5.277997e+00
      vertex   -2.860471e+00 9.071404e+00 -5.491590e+00
      vertex   -3.068980e+00 9.119992e+00 -5.277997e+00
    endloop
  endfacet
  facet normal -2.661196e-01 8.507034e-01 -4.533035e-01
    outer loop
      vertex   -3.068980e+00 9.119992e+00 -5.277997e+00
      vertex   -2.860471e+00 9.071404e+00 -5.491590e+00
      vertex   -3.058254e+00 9.008883e+00 -5.492810e+00
    endloop
  endfacet
  facet normal -2.829162e-01 8.460930e-01 -4.517577e-01
    outer loop
      vertex   -3.068980e+00 9.119992e+00 -5.277997e+00
      vertex   -3.058254e+00 9.008883e+00 -5.492810e+00
      vertex   -3.291682e+00 9.043822e+00 -5.281187e+00
    endloop
  endfacet
  facet normal -2.840269e-01 8.451489e-01 -4.528268e-01
    outer loop
      vertex   -3.291682e+00 9.043822e+00 -5.281187e+00
      vertex   -3.058254e+00 9.008883e+00 -5.492810e+00
      vertex   -3.254686e+00 8.942176e+00 -5.494102e+00
    endloop
  endfacet
  facet normal -2.859080e-01 8.541152e-01 -4.344465e-01
    outer loop
      vertex   -3.291682e+00 9.043822e+00 -5.281187e+00
      vertex   -3.327200e+00 9.141406e+00 -5.065963e+00
      vertex   -3.068980e+00 9.119992e+00 -5.277997e+00
    endloop
  endfacet
  facet normal -2.855658e-01 8.544255e-01 -4.340612e-01
    outer loop
      vertex   -3.068980e+00 9.119992e+00 -5.277997e+00
      vertex   -3.327200e+00 9.141406e+00 -5.065963e+00
      vertex   -3.102451e+00 9.219457e+00 -5.060186e+00
    endloop
  endfacet
  facet normal -2.656698e-01 8.608760e-01 -4.339494e-01
    outer loop
      vertex   -3.068980e+00 9.119992e+00 -5.277997e+00
      vertex   -3.102451e+00 9.219457e+00 -5.060186e+00
      vertex   -2.845253e+00 9.189035e+00 -5.277997e+00
    endloop
  endfacet
  facet normal -2.656698e-01 8.608760e-01 -4.339494e-01
    outer loop
      vertex   -2.845253e+00 9.189035e+00 -5.277997e+00
      vertex   -3.102451e+00 9.219457e+00 -5.060186e+00
      vertex   -2.876284e+00 9.289253e+00 -5.060186e+00
    endloop
  endfacet
  facet normal -2.454982e-01 8.668960e-01 -4.338455e-01
    outer loop
      vertex   -2.845253e+00 9.189035e+00 -5.277997e+00
      vertex   -2.876284e+00 9.289253e+00 -5.060186e+00
      vertex   -2.621248e+00 9.252471e+00 -5.277997e+00
    endloop
  endfacet
  facet normal -2.454982e-01 8.668960e-01 -4.338455e-01
    outer loop
      vertex   -2.621248e+00 9.252471e+00 -5.277997e+00
      vertex   -2.876284e+00 9.289253e+00 -5.060186e+00
      vertex   -2.649836e+00 9.353381e+00 -5.060186e+00
    endloop
  endfacet
  facet normal -2.253250e-01 8.724046e-01 -4.337498e-01
    outer loop
      vertex   -2.621248e+00 9.252471e+00 -5.277997e+00
      vertex   -2.649836e+00 9.353381e+00 -5.060186e+00
      vertex   -2.397172e+00 9.310346e+00 -5.277997e+00
    endloop
  endfacet
  facet normal -2.253250e-01 8.724046e-01 -4.337498e-01
    outer loop
      vertex   -2.397172e+00 9.310346e+00 -5.277997e+00
      vertex   -2.649836e+00 9.353381e+00 -5.060186e+00
      vertex   -2.423316e+00 9.411887e+00 -5.060186e+00
    endloop
  endfacet
  facet normal -2.070205e-01 8.769639e-01 -4.336782e-01
    outer loop
      vertex   -2.397172e+00 9.310346e+00 -5.277997e+00
      vertex   -2.423316e+00 9.411887e+00 -5.060186e+00
      vertex   -2.214554e+00 9.353456e+00 -5.277997e+00
    endloop
  endfacet
  facet normal -2.070205e-01 8.769639e-01 -4.336782e-01
    outer loop
      vertex   -2.214554e+00 9.353456e+00 -5.277997e+00
      vertex   -2.423316e+00 9.411887e+00 -5.060186e+00
      vertex   -2.238706e+00 9.455467e+00 -5.060186e+00
    endloop
  endfacet
  facet normal -1.906045e-01 8.807100e-01 -4.336124e-01
    outer loop
      vertex   -2.214554e+00 9.353456e+00 -5.277997e+00
      vertex   -2.238706e+00 9.455467e+00 -5.060186e+00
      vertex   -2.032127e+00 9.392937e+00 -5.277997e+00
    endloop
  endfacet
  facet normal -1.906045e-01 8.807100e-01 -4.336124e-01
    outer loop
      vertex   -2.032127e+00 9.392937e+00 -5.277997e+00
      vertex   -2.238706e+00 9.455467e+00 -5.060186e+00
      vertex   -2.054290e+00 9.495378e+00 -5.060186e+00
    endloop
  endfacet
  facet normal -1.742176e-01 8.841271e-01 -4.335521e-01
    outer loop
      vertex   -2.032127e+00 9.392937e+00 -5.277997e+00
      vertex   -2.054290e+00 9.495378e+00 -5.060186e+00
      vertex   -1.849995e+00 9.428826e+00 -5.277997e+00
    endloop
  endfacet
  facet normal -1.742176e-01 8.841271e-01 -4.335521e-01
    outer loop
      vertex   -1.849995e+00 9.428826e+00 -5.277997e+00
      vertex   -2.054290e+00 9.495378e+00 -5.060186e+00
      vertex   -1.870171e+00 9.531659e+00 -5.060186e+00
    endloop
  endfacet
  facet normal -1.581499e-01 8.871679e-01 -4.334994e-01
    outer loop
      vertex   -1.849995e+00 9.428826e+00 -5.277997e+00
      vertex   -1.870171e+00 9.531659e+00 -5.060186e+00
      vertex   -1.668661e+00 9.463444e+00 -5.273304e+00
    endloop
  endfacet
  facet normal -1.577877e-01 8.873684e-01 -4.332210e-01
    outer loop
      vertex   -1.668661e+00 9.463444e+00 -5.273304e+00
      vertex   -1.870171e+00 9.531659e+00 -5.060186e+00
      vertex   -1.686593e+00 9.565146e+00 -5.058457e+00
    endloop
  endfacet
  facet normal -1.595031e-01 8.958214e-01 -4.148045e-01
    outer loop
      vertex   -1.686593e+00 9.565146e+00 -5.058457e+00
      vertex   -1.870171e+00 9.531659e+00 -5.060186e+00
      vertex   -1.889427e+00 9.629798e+00 -4.840838e+00
    endloop
  endfacet
  facet normal -1.594380e-01 8.958562e-01 -4.147543e-01
    outer loop
      vertex   -1.686593e+00 9.565146e+00 -5.058457e+00
      vertex   -1.889427e+00 9.629798e+00 -4.840838e+00
      vertex   -1.703771e+00 9.662567e+00 -4.841427e+00
    endloop
  endfacet
  facet normal -1.608151e-01 9.039924e-01 -3.961519e-01
    outer loop
      vertex   -1.703771e+00 9.662567e+00 -4.841427e+00
      vertex   -1.889427e+00 9.629798e+00 -4.840838e+00
      vertex   -1.720189e+00 9.755678e+00 -4.622289e+00
    endloop
  endfacet
  facet normal -1.609817e-01 9.040138e-01 -3.960352e-01
    outer loop
      vertex   -1.720189e+00 9.755678e+00 -4.622289e+00
      vertex   -1.889427e+00 9.629798e+00 -4.840838e+00
      vertex   -1.907758e+00 9.723225e+00 -4.620124e+00
    endloop
  endfacet
  facet normal -1.621043e-01 9.117441e-01 -3.774187e-01
    outer loop
      vertex   -1.720189e+00 9.755678e+00 -4.622289e+00
      vertex   -1.907758e+00 9.723225e+00 -4.620124e+00
      vertex   -1.735842e+00 9.844448e+00 -4.401121e+00
    endloop
  endfacet
  facet normal -1.624040e-01 9.117799e-01 -3.772032e-01
    outer loop
      vertex   -1.735842e+00 9.844448e+00 -4.401121e+00
      vertex   -1.907758e+00 9.723225e+00 -4.620124e+00
      vertex   -1.925162e+00 9.811930e+00 -4.398212e+00
    endloop
  endfacet
  facet normal -1.633747e-01 9.190995e-01 -3.585595e-01
    outer loop
      vertex   -1.735842e+00 9.844448e+00 -4.401121e+00
      vertex   -1.925162e+00 9.811930e+00 -4.398212e+00
      vertex   -1.750724e+00 9.928847e+00 -4.177998e+00
    endloop
  endfacet
  facet normal -1.636998e-01 9.191347e-01 -3.583207e-01
    outer loop
      vertex   -1.750724e+00 9.928847e+00 -4.177998e+00
      vertex   -1.925162e+00 9.811930e+00 -4.398212e+00
      vertex   -1.941639e+00 9.895909e+00 -4.175269e+00
    endloop
  endfacet
  facet normal -1.646259e-01 9.260548e-01 -3.395891e-01
    outer loop
      vertex   -1.750724e+00 9.928847e+00 -4.177998e+00
      vertex   -1.941639e+00 9.895909e+00 -4.175269e+00
      vertex   -1.764817e+00 1.000878e+01 -3.953204e+00
    endloop
  endfacet
  facet normal -1.648786e-01 9.260791e-01 -3.394003e-01
    outer loop
      vertex   -1.764817e+00 1.000878e+01 -3.953204e+00
      vertex   -1.941639e+00 9.895909e+00 -4.175269e+00
      vertex   -1.957190e+00 9.975163e+00 -3.951463e+00
    endloop
  endfacet
  facet normal -1.658485e-01 9.326072e-01 -3.205278e-01
    outer loop
      vertex   -1.764817e+00 1.000878e+01 -3.953204e+00
      vertex   -1.957190e+00 9.975163e+00 -3.951463e+00
      vertex   -1.778111e+00 1.008417e+01 -3.726958e+00
    endloop
  endfacet
  facet normal -1.671468e-01 9.327132e-01 -3.195436e-01
    outer loop
      vertex   -1.778111e+00 1.008417e+01 -3.726958e+00
      vertex   -1.957190e+00 9.975163e+00 -3.951463e+00
      vertex   -1.998161e+00 1.004453e+01 -3.727548e+00
    endloop
  endfacet
  facet normal -1.830791e-01 9.290982e-01 -3.213389e-01
    outer loop
      vertex   -1.998161e+00 1.004453e+01 -3.727548e+00
      vertex   -1.957190e+00 9.975163e+00 -3.951463e+00
      vertex   -2.149875e+00 9.937195e+00 -3.951463e+00
    endloop
  endfacet
  facet normal -1.866649e-01 9.292043e-01 -3.189602e-01
    outer loop
      vertex   -1.998161e+00 1.004453e+01 -3.727548e+00
      vertex   -2.149875e+00 9.937195e+00 -3.951463e+00
      vertex   -2.217307e+00 1.000029e+01 -3.728202e+00
    endloop
  endfacet
  facet normal -2.002606e-01 9.253272e-01 -3.219709e-01
    outer loop
      vertex   -2.217307e+00 1.000029e+01 -3.728202e+00
      vertex   -2.149875e+00 9.937195e+00 -3.951463e+00
      vertex   -2.342872e+00 9.895426e+00 -3.951463e+00
    endloop
  endfacet
  facet normal -2.061011e-01 9.252021e-01 -3.186274e-01
    outer loop
      vertex   -2.217307e+00 1.000029e+01 -3.728202e+00
      vertex   -2.342872e+00 9.895426e+00 -3.951463e+00
      vertex   -2.435474e+00 9.951438e+00 -3.728922e+00
    endloop
  endfacet
  facet normal -2.174840e-01 9.212885e-01 -3.223789e-01
    outer loop
      vertex   -2.435474e+00 9.951438e+00 -3.728922e+00
      vertex   -2.342872e+00 9.895426e+00 -3.951463e+00
      vertex   -2.536072e+00 9.849818e+00 -3.951463e+00
    endloop
  endfacet
  facet normal -2.254465e-01 9.207170e-01 -3.185186e-01
    outer loop
      vertex   -2.435474e+00 9.951438e+00 -3.728922e+00
      vertex   -2.536072e+00 9.849818e+00 -3.951463e+00
      vertex   -2.652587e+00 9.898005e+00 -3.729704e+00
    endloop
  endfacet
  facet normal -2.366345e-01 9.161920e-01 -3.234136e-01
    outer loop
      vertex   -2.652587e+00 9.898005e+00 -3.729704e+00
      vertex   -2.536072e+00 9.849818e+00 -3.951463e+00
      vertex   -2.773132e+00 9.788590e+00 -3.951463e+00
    endloop
  endfacet
  facet normal -2.446734e-01 9.156974e-01 -3.187997e-01
    outer loop
      vertex   -2.652587e+00 9.898005e+00 -3.729704e+00
      vertex   -2.773132e+00 9.788590e+00 -3.951463e+00
      vertex   -2.868523e+00 9.840013e+00 -3.730549e+00
    endloop
  endfacet
  facet normal -2.578461e-01 9.104983e-01 -3.232774e-01
    outer loop
      vertex   -2.868523e+00 9.840013e+00 -3.730549e+00
      vertex   -2.773132e+00 9.788590e+00 -3.951463e+00
      vertex   -3.010116e+00 9.721478e+00 -3.951463e+00
    endloop
  endfacet
  facet normal -2.637797e-01 9.101975e-01 -3.193129e-01
    outer loop
      vertex   -2.868523e+00 9.840013e+00 -3.730549e+00
      vertex   -3.010116e+00 9.721478e+00 -3.951463e+00
      vertex   -3.083167e+00 9.777491e+00 -3.731454e+00
    endloop
  endfacet
  facet normal -2.790851e-01 9.043471e-01 -3.229053e-01
    outer loop
      vertex   -3.083167e+00 9.777491e+00 -3.731454e+00
      vertex   -3.010116e+00 9.721478e+00 -3.951463e+00
      vertex   -3.246807e+00 9.648434e+00 -3.951463e+00
    endloop
  endfacet
  facet normal -2.827487e-01 9.042070e-01 -3.200982e-01
    outer loop
      vertex   -3.083167e+00 9.777491e+00 -3.731454e+00
      vertex   -3.246807e+00 9.648434e+00 -3.951463e+00
      vertex   -3.296446e+00 9.710457e+00 -3.732417e+00
    endloop
  endfacet
  facet normal -3.006340e-01 8.976347e-01 -3.222903e-01
    outer loop
      vertex   -3.296446e+00 9.710457e+00 -3.732417e+00
      vertex   -3.246807e+00 9.648434e+00 -3.951463e+00
      vertex   -3.482003e+00 9.566726e+00 -3.959644e+00
    endloop
  endfacet
  facet normal -3.015248e-01 8.976038e-01 -3.215433e-01
    outer loop
      vertex   -3.296446e+00 9.710457e+00 -3.732417e+00
      vertex   -3.482003e+00 9.566726e+00 -3.959644e+00
      vertex   -3.508284e+00 9.638930e+00 -3.733438e+00
    endloop
  endfacet
  facet normal -2.887763e-01 8.623279e-01 -4.159313e-01
    outer loop
      vertex   -3.327200e+00 9.141406e+00 -5.065963e+00
      vertex   -3.361228e+00 9.234897e+00 -4.848508e+00
      vertex   -3.102451e+00 9.219457e+00 -5.060186e+00
    endloop
  endfacet
  facet normal -2.882774e-01 8.627731e-01 -4.153539e-01
    outer loop
      vertex   -3.102451e+00 9.219457e+00 -5.060186e+00
      vertex   -3.361228e+00 9.234897e+00 -4.848508e+00
      vertex   -3.134395e+00 9.314381e+00 -4.840838e+00
    endloop
  endfacet
  facet normal -2.682566e-01 8.692584e-01 -4.152448e-01
    outer loop
      vertex   -3.102451e+00 9.219457e+00 -5.060186e+00
      vertex   -3.134395e+00 9.314381e+00 -4.840838e+00
      vertex   -2.876284e+00 9.289253e+00 -5.060186e+00
    endloop
  endfacet
  facet normal -2.682566e-01 8.692584e-01 -4.152448e-01
    outer loop
      vertex   -2.876284e+00 9.289253e+00 -5.060186e+00
      vertex   -3.134395e+00 9.314381e+00 -4.840838e+00
      vertex   -2.905898e+00 9.384896e+00 -4.840838e+00
    endloop
  endfacet
  facet normal -2.478875e-01 8.753329e-01 -4.151435e-01
    outer loop
      vertex   -2.876284e+00 9.289253e+00 -5.060186e+00
      vertex   -2.905898e+00 9.384896e+00 -4.840838e+00
      vertex   -2.649836e+00 9.353381e+00 -5.060186e+00
    endloop
  endfacet
  facet normal -2.478875e-01 8.753329e-01 -4.151435e-01
    outer loop
      vertex   -2.649836e+00 9.353381e+00 -5.060186e+00
      vertex   -2.905898e+00 9.384896e+00 -4.840838e+00
      vertex   -2.677119e+00 9.449685e+00 -4.840838e+00
    endloop
  endfacet
  facet normal -2.275170e-01 8.808913e-01 -4.150501e-01
    outer loop
      vertex   -2.649836e+00 9.353381e+00 -5.060186e+00
      vertex   -2.677119e+00 9.449685e+00 -4.840838e+00
      vertex   -2.423316e+00 9.411887e+00 -5.060186e+00
    endloop
  endfacet
  facet normal -2.275170e-01 8.808913e-01 -4.150501e-01
    outer loop
      vertex   -2.423316e+00 9.411887e+00 -5.060186e+00
      vertex   -2.677119e+00 9.449685e+00 -4.840838e+00
      vertex   -2.448267e+00 9.508793e+00 -4.840838e+00
    endloop
  endfacet
  facet normal -2.090338e-01 8.854921e-01 -4.149803e-01
    outer loop
      vertex   -2.423316e+00 9.411887e+00 -5.060186e+00
      vertex   -2.448267e+00 9.508793e+00 -4.840838e+00
      vertex   -2.238706e+00 9.455467e+00 -5.060186e+00
    endloop
  endfacet
  facet normal -2.090338e-01 8.854921e-01 -4.149803e-01
    outer loop
      vertex   -2.238706e+00 9.455467e+00 -5.060186e+00
      vertex   -2.448267e+00 9.508793e+00 -4.840838e+00
      vertex   -2.261756e+00 9.552821e+00 -4.840838e+00
    endloop
  endfacet
  facet normal -1.924575e-01 8.892721e-01 -4.149160e-01
    outer loop
      vertex   -2.238706e+00 9.455467e+00 -5.060186e+00
      vertex   -2.261756e+00 9.552821e+00 -4.840838e+00
      vertex   -2.054290e+00 9.495378e+00 -5.060186e+00
    endloop
  endfacet
  facet normal -1.924575e-01 8.892721e-01 -4.149160e-01
    outer loop
      vertex   -2.054290e+00 9.495378e+00 -5.060186e+00
      vertex   -2.261756e+00 9.552821e+00 -4.840838e+00
      vertex   -2.075441e+00 9.593144e+00 -4.840838e+00
    endloop
  endfacet
  facet normal -1.759108e-01 8.927199e-01 -4.148572e-01
    outer loop
      vertex   -2.054290e+00 9.495378e+00 -5.060186e+00
      vertex   -2.075441e+00 9.593144e+00 -4.840838e+00
      vertex   -1.870171e+00 9.531659e+00 -5.060186e+00
    endloop
  endfacet
  facet normal -1.759108e-01 8.927199e-01 -4.148572e-01
    outer loop
      vertex   -1.870171e+00 9.531659e+00 -5.060186e+00
      vertex   -2.075441e+00 9.593144e+00 -4.840838e+00
      vertex   -1.889427e+00 9.629798e+00 -4.840838e+00
    endloop
  endfacet
  facet normal -2.914836e-01 8.701785e-01 -3.972741e-01
    outer loop
      vertex   -3.361228e+00 9.234897e+00 -4.848508e+00
      vertex   -3.393753e+00 9.324261e+00 -4.628905e+00
      vertex   -3.134395e+00 9.314381e+00 -4.840838e+00
    endloop
  endfacet
  facet normal -2.908878e-01 8.706992e-01 -3.965692e-01
    outer loop
      vertex   -3.134395e+00 9.314381e+00 -4.840838e+00
      vertex   -3.393753e+00 9.324261e+00 -4.628905e+00
      vertex   -3.164804e+00 9.404748e+00 -4.620124e+00
    endloop
  endfacet
  facet normal -2.707162e-01 8.772284e-01 -3.964633e-01
    outer loop
      vertex   -3.134395e+00 9.314381e+00 -4.840838e+00
      vertex   -3.164804e+00 9.404748e+00 -4.620124e+00
      vertex   -2.905898e+00 9.384896e+00 -4.840838e+00
    endloop
  endfacet
  facet normal -2.707162e-01 8.772284e-01 -3.964633e-01
    outer loop
      vertex   -2.905898e+00 9.384896e+00 -4.840838e+00
      vertex   -3.164804e+00 9.404748e+00 -4.620124e+00
      vertex   -2.934091e+00 9.475947e+00 -4.620124e+00
    endloop
  endfacet
  facet normal -2.501592e-01 8.833546e-01 -3.963647e-01
    outer loop
      vertex   -2.905898e+00 9.384896e+00 -4.840838e+00
      vertex   -2.934091e+00 9.475947e+00 -4.620124e+00
      vertex   -2.677119e+00 9.449685e+00 -4.840838e+00
    endloop
  endfacet
  facet normal -2.501592e-01 8.833546e-01 -3.963647e-01
    outer loop
      vertex   -2.677119e+00 9.449685e+00 -4.840838e+00
      vertex   -2.934091e+00 9.475947e+00 -4.620124e+00
      vertex   -2.703092e+00 9.541364e+00 -4.620124e+00
    endloop
  endfacet
  facet normal -2.296010e-01 8.889603e-01 -3.962739e-01
    outer loop
      vertex   -2.677119e+00 9.449685e+00 -4.840838e+00
      vertex   -2.703092e+00 9.541364e+00 -4.620124e+00
      vertex   -2.448267e+00 9.508793e+00 -4.840838e+00
    endloop
  endfacet
  facet normal -2.296010e-01 8.889603e-01 -3.962739e-01
    outer loop
      vertex   -2.448267e+00 9.508793e+00 -4.840838e+00
      vertex   -2.703092e+00 9.541364e+00 -4.620124e+00
      vertex   -2.472020e+00 9.601046e+00 -4.620124e+00
    endloop
  endfacet
  facet normal -2.109479e-01 8.936005e-01 -3.962060e-01
    outer loop
      vertex   -2.448267e+00 9.508793e+00 -4.840838e+00
      vertex   -2.472020e+00 9.601046e+00 -4.620124e+00
      vertex   -2.261756e+00 9.552821e+00 -4.840838e+00
    endloop
  endfacet
  facet normal -2.109479e-01 8.936005e-01 -3.962060e-01
    outer loop
      vertex   -2.261756e+00 9.552821e+00 -4.840838e+00
      vertex   -2.472020e+00 9.601046e+00 -4.620124e+00
      vertex   -2.283700e+00 9.645502e+00 -4.620124e+00
    endloop
  endfacet
  facet normal -1.942193e-01 8.974125e-01 -3.961436e-01
    outer loop
      vertex   -2.261756e+00 9.552821e+00 -4.840838e+00
      vertex   -2.283700e+00 9.645502e+00 -4.620124e+00
      vertex   -2.075441e+00 9.593144e+00 -4.840838e+00
    endloop
  endfacet
  facet normal -1.942193e-01 8.974125e-01 -3.961436e-01
    outer loop
      vertex   -2.075441e+00 9.593144e+00 -4.840838e+00
      vertex   -2.283700e+00 9.645502e+00 -4.620124e+00
      vertex   -2.095577e+00 9.686216e+00 -4.620124e+00
    endloop
  endfacet
  facet normal -1.775206e-01 9.008896e-01 -3.960864e-01
    outer loop
      vertex   -2.075441e+00 9.593144e+00 -4.840838e+00
      vertex   -2.095577e+00 9.686216e+00 -4.620124e+00
      vertex   -1.889427e+00 9.629798e+00 -4.840838e+00
    endloop
  endfacet
  facet normal -1.775206e-01 9.008896e-01 -3.960864e-01
    outer loop
      vertex   -1.889427e+00 9.629798e+00 -4.840838e+00
      vertex   -2.095577e+00 9.686216e+00 -4.620124e+00
      vertex   -1.907758e+00 9.723225e+00 -4.620124e+00
    endloop
  endfacet
  facet normal -2.940290e-01 8.776624e-01 -3.784914e-01
    outer loop
      vertex   -3.393753e+00 9.324261e+00 -4.628905e+00
      vertex   -3.424735e+00 9.409381e+00 -4.407456e+00
      vertex   -3.164804e+00 9.404748e+00 -4.620124e+00
    endloop
  endfacet
  facet normal -2.933885e-01 8.782087e-01 -3.777204e-01
    outer loop
      vertex   -3.164804e+00 9.404748e+00 -4.620124e+00
      vertex   -3.424735e+00 9.409381e+00 -4.407456e+00
      vertex   -3.193677e+00 9.490548e+00 -4.398212e+00
    endloop
  endfacet
  facet normal -2.730490e-01 8.847876e-01 -3.776177e-01
    outer loop
      vertex   -3.164804e+00 9.404748e+00 -4.620124e+00
      vertex   -3.193677e+00 9.490548e+00 -4.398212e+00
      vertex   -2.934091e+00 9.475947e+00 -4.620124e+00
    endloop
  endfacet
  facet normal -2.730490e-01 8.847876e-01 -3.776177e-01
    outer loop
      vertex   -2.934091e+00 9.475947e+00 -4.620124e+00
      vertex   -3.193677e+00 9.490548e+00 -4.398212e+00
      vertex   -2.960859e+00 9.562396e+00 -4.398212e+00
    endloop
  endfacet
  facet normal -2.523138e-01 8.909628e-01 -3.775222e-01
    outer loop
      vertex   -2.934091e+00 9.475947e+00 -4.620124e+00
      vertex   -2.960859e+00 9.562396e+00 -4.398212e+00
      vertex   -2.703092e+00 9.541364e+00 -4.620124e+00
    endloop
  endfacet
  facet normal -2.523138e-01 8.909628e-01 -3.775222e-01
    outer loop
      vertex   -2.703092e+00 9.541364e+00 -4.620124e+00
      vertex   -2.960859e+00 9.562396e+00 -4.398212e+00
      vertex   -2.727753e+00 9.628410e+00 -4.398212e+00
    endloop
  endfacet
  facet normal -2.315776e-01 8.966132e-01 -3.774342e-01
    outer loop
      vertex   -2.703092e+00 9.541364e+00 -4.620124e+00
      vertex   -2.727753e+00 9.628410e+00 -4.398212e+00
      vertex   -2.472020e+00 9.601046e+00 -4.620124e+00
    endloop
  endfacet
  facet normal -2.315776e-01 8.966132e-01 -3.774342e-01
    outer loop
      vertex   -2.472020e+00 9.601046e+00 -4.620124e+00
      vertex   -2.727753e+00 9.628410e+00 -4.398212e+00
      vertex   -2.494572e+00 9.688636e+00 -4.398212e+00
    endloop
  endfacet
  facet normal -2.127632e-01 9.012907e-01 -3.773684e-01
    outer loop
      vertex   -2.472020e+00 9.601046e+00 -4.620124e+00
      vertex   -2.494572e+00 9.688636e+00 -4.398212e+00
      vertex   -2.283700e+00 9.645502e+00 -4.620124e+00
    endloop
  endfacet
  facet normal -2.127632e-01 9.012907e-01 -3.773684e-01
    outer loop
      vertex   -2.283700e+00 9.645502e+00 -4.620124e+00
      vertex   -2.494572e+00 9.688636e+00 -4.398212e+00
      vertex   -2.304534e+00 9.733498e+00 -4.398212e+00
    endloop
  endfacet
  facet normal -1.958902e-01 9.051330e-01 -3.773079e-01
    outer loop
      vertex   -2.283700e+00 9.645502e+00 -4.620124e+00
      vertex   -2.304534e+00 9.733498e+00 -4.398212e+00
      vertex   -2.095577e+00 9.686216e+00 -4.620124e+00
    endloop
  endfacet
  facet normal -1.958902e-01 9.051330e-01 -3.773079e-01
    outer loop
      vertex   -2.095577e+00 9.686216e+00 -4.620124e+00
      vertex   -2.304534e+00 9.733498e+00 -4.398212e+00
      vertex   -2.114695e+00 9.774583e+00 -4.398212e+00
    endloop
  endfacet
  facet normal -1.790474e-01 9.086378e-01 -3.772525e-01
    outer loop
      vertex   -2.095577e+00 9.686216e+00 -4.620124e+00
      vertex   -2.114695e+00 9.774583e+00 -4.398212e+00
      vertex   -1.907758e+00 9.723225e+00 -4.620124e+00
    endloop
  endfacet
  facet normal -1.790474e-01 9.086378e-01 -3.772525e-01
    outer loop
      vertex   -1.907758e+00 9.723225e+00 -4.620124e+00
      vertex   -2.114695e+00 9.774583e+00 -4.398212e+00
      vertex   -1.925162e+00 9.811930e+00 -4.398212e+00
    endloop
  endfacet
  facet normal -2.964192e-01 8.847726e-01 -3.596015e-01
    outer loop
      vertex   -3.424735e+00 9.409381e+00 -4.407456e+00
      vertex   -3.454153e+00 9.490206e+00 -4.184343e+00
      vertex   -3.193677e+00 9.490548e+00 -4.398212e+00
    endloop
  endfacet
  facet normal -2.957783e-01 8.853041e-01 -3.588201e-01
    outer loop
      vertex   -3.193677e+00 9.490548e+00 -4.398212e+00
      vertex   -3.454153e+00 9.490206e+00 -4.184343e+00
      vertex   -3.221011e+00 9.571776e+00 -4.175269e+00
    endloop
  endfacet
  facet normal -2.752557e-01 8.919381e-01 -3.587209e-01
    outer loop
      vertex   -3.193677e+00 9.490548e+00 -4.398212e+00
      vertex   -3.221011e+00 9.571776e+00 -4.175269e+00
      vertex   -2.960859e+00 9.562396e+00 -4.398212e+00
    endloop
  endfacet
  facet normal -2.752557e-01 8.919381e-01 -3.587209e-01
    outer loop
      vertex   -2.960859e+00 9.562396e+00 -4.398212e+00
      vertex   -3.221011e+00 9.571776e+00 -4.175269e+00
      vertex   -2.986200e+00 9.644239e+00 -4.175269e+00
    endloop
  endfacet
  facet normal -2.543518e-01 8.981596e-01 -3.586287e-01
    outer loop
      vertex   -2.960859e+00 9.562396e+00 -4.398212e+00
      vertex   -2.986200e+00 9.644239e+00 -4.175269e+00
      vertex   -2.727753e+00 9.628410e+00 -4.398212e+00
    endloop
  endfacet
  facet normal -2.543518e-01 8.981596e-01 -3.586287e-01
    outer loop
      vertex   -2.727753e+00 9.628410e+00 -4.398212e+00
      vertex   -2.986200e+00 9.644239e+00 -4.175269e+00
      vertex   -2.751099e+00 9.710818e+00 -4.175269e+00
    endloop
  endfacet
  facet normal -2.334473e-01 9.038521e-01 -3.585438e-01
    outer loop
      vertex   -2.727753e+00 9.628410e+00 -4.398212e+00
      vertex   -2.751099e+00 9.710818e+00 -4.175269e+00
      vertex   -2.494572e+00 9.688636e+00 -4.398212e+00
    endloop
  endfacet
  facet normal -2.334473e-01 9.038521e-01 -3.585438e-01
    outer loop
      vertex   -2.494572e+00 9.688636e+00 -4.398212e+00
      vertex   -2.751099e+00 9.710818e+00 -4.175269e+00
      vertex   -2.515923e+00 9.771560e+00 -4.175269e+00
    endloop
  endfacet
  facet normal -2.144804e-01 9.085648e-01 -3.584803e-01
    outer loop
      vertex   -2.494572e+00 9.688636e+00 -4.398212e+00
      vertex   -2.515923e+00 9.771560e+00 -4.175269e+00
      vertex   -2.304534e+00 9.733498e+00 -4.398212e+00
    endloop
  endfacet
  facet normal -2.144804e-01 9.085648e-01 -3.584803e-01
    outer loop
      vertex   -2.304534e+00 9.733498e+00 -4.398212e+00
      vertex   -2.515923e+00 9.771560e+00 -4.175269e+00
      vertex   -2.324258e+00 9.816805e+00 -4.175269e+00
    endloop
  endfacet
  facet normal -1.974707e-01 9.124358e-01 -3.584219e-01
    outer loop
      vertex   -2.304534e+00 9.733498e+00 -4.398212e+00
      vertex   -2.324258e+00 9.816805e+00 -4.175269e+00
      vertex   -2.114695e+00 9.774583e+00 -4.398212e+00
    endloop
  endfacet
  facet normal -1.974707e-01 9.124358e-01 -3.584219e-01
    outer loop
      vertex   -2.114695e+00 9.774583e+00 -4.398212e+00
      vertex   -2.324258e+00 9.816805e+00 -4.175269e+00
      vertex   -2.132794e+00 9.858242e+00 -4.175269e+00
    endloop
  endfacet
  facet normal -1.804915e-01 9.159666e-01 -3.583684e-01
    outer loop
      vertex   -2.114695e+00 9.774583e+00 -4.398212e+00
      vertex   -2.132794e+00 9.858242e+00 -4.175269e+00
      vertex   -1.925162e+00 9.811930e+00 -4.398212e+00
    endloop
  endfacet
  facet normal -1.804915e-01 9.159666e-01 -3.583684e-01
    outer loop
      vertex   -1.925162e+00 9.811930e+00 -4.398212e+00
      vertex   -2.132794e+00 9.858242e+00 -4.175269e+00
      vertex   -1.941639e+00 9.895909e+00 -4.175269e+00
    endloop
  endfacet
  facet normal -2.986572e-01 8.915075e-01 -3.406146e-01
    outer loop
      vertex   -3.454153e+00 9.490206e+00 -4.184343e+00
      vertex   -3.482003e+00 9.566726e+00 -3.959644e+00
      vertex   -3.221011e+00 9.571776e+00 -4.175269e+00
    endloop
  endfacet
  facet normal -2.980602e-01 8.919872e-01 -3.398808e-01
    outer loop
      vertex   -3.221011e+00 9.571776e+00 -4.175269e+00
      vertex   -3.482003e+00 9.566726e+00 -3.959644e+00
      vertex   -3.246807e+00 9.648434e+00 -3.951463e+00
    endloop
  endfacet
  facet normal -2.773370e-01 8.986824e-01 -3.397854e-01
    outer loop
      vertex   -3.221011e+00 9.571776e+00 -4.175269e+00
      vertex   -3.246807e+00 9.648434e+00 -3.951463e+00
      vertex   -2.986200e+00 9.644239e+00 -4.175269e+00
    endloop
  endfacet
  facet normal -2.773370e-01 8.986824e-01 -3.397854e-01
    outer loop
      vertex   -2.986200e+00 9.644239e+00 -4.175269e+00
      vertex   -3.246807e+00 9.648434e+00 -3.951463e+00
      vertex   -3.010116e+00 9.721478e+00 -3.951463e+00
    endloop
  endfacet
  facet normal -2.562741e-01 9.049474e-01 -3.396968e-01
    outer loop
      vertex   -2.986200e+00 9.644239e+00 -4.175269e+00
      vertex   -3.010116e+00 9.721478e+00 -3.951463e+00
      vertex   -2.751099e+00 9.710818e+00 -4.175269e+00
    endloop
  endfacet
  facet normal -2.562741e-01 9.049474e-01 -3.396968e-01
    outer loop
      vertex   -2.751099e+00 9.710818e+00 -4.175269e+00
      vertex   -3.010116e+00 9.721478e+00 -3.951463e+00
      vertex   -2.773132e+00 9.788590e+00 -3.951463e+00
    endloop
  endfacet
  facet normal -2.352107e-01 9.106797e-01 -3.396151e-01
    outer loop
      vertex   -2.751099e+00 9.710818e+00 -4.175269e+00
      vertex   -2.773132e+00 9.788590e+00 -3.951463e+00
      vertex   -2.515923e+00 9.771560e+00 -4.175269e+00
    endloop
  endfacet
  facet normal -2.352107e-01 9.106797e-01 -3.396151e-01
    outer loop
      vertex   -2.515923e+00 9.771560e+00 -4.175269e+00
      vertex   -2.773132e+00 9.788590e+00 -3.951463e+00
      vertex   -2.536072e+00 9.849818e+00 -3.951463e+00
    endloop
  endfacet
  facet normal -2.161000e-01 9.154255e-01 -3.395540e-01
    outer loop
      vertex   -2.515923e+00 9.771560e+00 -4.175269e+00
      vertex   -2.536072e+00 9.849818e+00 -3.951463e+00
      vertex   -2.324258e+00 9.816805e+00 -4.175269e+00
    endloop
  endfacet
  facet normal -2.161000e-01 9.154255e-01 -3.395540e-01
    outer loop
      vertex   -2.324258e+00 9.816805e+00 -4.175269e+00
      vertex   -2.536072e+00 9.849818e+00 -3.951463e+00
      vertex   -2.342872e+00 9.895426e+00 -3.951463e+00
    endloop
  endfacet
  facet normal -1.989613e-01 9.193235e-01 -3.394979e-01
    outer loop
      vertex   -2.324258e+00 9.816805e+00 -4.175269e+00
      vertex   -2.342872e+00 9.895426e+00 -3.951463e+00
      vertex   -2.132794e+00 9.858242e+00 -4.175269e+00
    endloop
  endfacet
  facet normal -1.989613e-01 9.193235e-01 -3.394979e-01
    outer loop
      vertex   -2.132794e+00 9.858242e+00 -4.175269e+00
      vertex   -2.342872e+00 9.895426e+00 -3.951463e+00
      vertex   -2.149875e+00 9.937195e+00 -3.951463e+00
    endloop
  endfacet
  facet normal -1.818536e-01 9.228789e-01 -3.394464e-01
    outer loop
      vertex   -2.132794e+00 9.858242e+00 -4.175269e+00
      vertex   -2.149875e+00 9.937195e+00 -3.951463e+00
      vertex   -1.941639e+00 9.895909e+00 -4.175269e+00
    endloop
  endfacet
  facet normal -1.818536e-01 9.228789e-01 -3.394464e-01
    outer loop
      vertex   -1.941639e+00 9.895909e+00 -4.175269e+00
      vertex   -2.149875e+00 9.937195e+00 -3.951463e+00
      vertex   -1.957190e+00 9.975163e+00 -3.951463e+00
    endloop
  endfacet
  facet normal 9.848078e-01 1.736482e-01 1.002158e-11
    outer loop
      vertex   -1.649978e+00 9.357492e+00 -5.485894e+00
      vertex   -1.668661e+00 9.463444e+00 -5.273304e+00
      vertex   0.000000e+00 0.000000e+00 0.000000e+00
    endloop
  endfacet
  facet normal 9.848078e-01 1.736482e-01 2.515292e-11
    outer loop
      vertex   0.000000e+00 0.000000e+00 0.000000e+00
      vertex   -1.668661e+00 9.463444e+00 -5.273304e+00
      vertex   -1.686593e+00 9.565146e+00 -5.058457e+00
    endloop
  endfacet
  facet normal 9.848078e-01 1.736482e-01 3.262390e-11
    outer loop
      vertex   0.000000e+00 0.000000e+00 0.000000e+00
      vertex   -1.686593e+00 9.565146e+00 -5.058457e+00
      vertex   -1.703771e+00 9.662567e+00 -4.841427e+00
    endloop
  endfacet
  facet normal 9.848078e-01 1.736482e-01 3.226570e-11
    outer loop
      vertex   -1.703771e+00 9.662567e+00 -4.841427e+00
      vertex   -1.720189e+00 9.755678e+00 -4.622289e+00
      vertex   0.000000e+00 0.000000e+00 0.000000e+00
    endloop
  endfacet
  facet normal 9.848078e-01 1.736482e-01 2.391650e-11
    outer loop
      vertex   0.000000e+00 0.000000e+00 0.000000e+00
      vertex   -1.720189e+00 9.755678e+00 -4.622289e+00
      vertex   -1.735842e+00 9.844448e+00 -4.401121e+00
    endloop
  endfacet
  facet normal 9.848078e-01 1.736482e-01 6.647409e-12
    outer loop
      vertex   0.000000e+00 0.000000e+00 0.000000e+00
      vertex   -1.735842e+00 9.844448e+00 -4.401121e+00
      vertex   -1.750724e+00 9.928847e+00 -4.177998e+00
    endloop
  endfacet
  facet normal 9.848078e-01 1.736482e-01 -7.487694e-11
    outer loop
      vertex   -1.750724e+00 9.928847e+00 -4.177998e+00
      vertex   -1.764817e+00 1.000878e+01 -3.953204e+00
      vertex   0.000000e+00 0.000000e+00 0.000000e+00
    endloop
  endfacet
  facet normal 9.848078e-01 1.736482e-01 -6.585297e-11
    outer loop
      vertex   0.000000e+00 0.000000e+00 0.000000e+00
      vertex   -1.764817e+00 1.000878e+01 -3.953204e+00
      vertex   -1.778111e+00 1.008417e+01 -3.726958e+00
    endloop
  endfacet
  facet normal -6.526917e-02 3.357815e-01 9.396759e-01
    outer loop
      vertex   0.000000e+00 0.000000e+00 0.000000e+00
      vertex   -1.778111e+00 1.008417e+01 -3.726958e+00
      vertex   -1.066331e+00 5.016692e+00 -1.866719e+00
    endloop
  endfacet
  facet normal -6.305570e-02 3.361053e-01 9.397112e-01
    outer loop
      vertex   -1.066331e+00 5.016692e+00 -1.866719e+00
      vertex   -1.778111e+00 1.008417e+01 -3.726958e+00
      vertex   -1.998161e+00 1.004453e+01 -3.727548e+00
    endloop
  endfacet
  facet normal -7.039477e-02 3.347335e-01 9.396798e-01
    outer loop
      vertex   -1.066331e+00 5.016692e+00 -1.866719e+00
      vertex   -1.998161e+00 1.004453e+01 -3.727548e+00
      vertex   -2.217307e+00 1.000029e+01 -3.728202e+00
    endloop
  endfacet
  facet normal -7.693257e-02 3.332316e-01 9.397011e-01
    outer loop
      vertex   -1.066331e+00 5.016692e+00 -1.866719e+00
      vertex   -2.217307e+00 1.000029e+01 -3.728202e+00
      vertex   -1.240761e+00 4.976421e+00 -1.866719e+00
    endloop
  endfacet
  facet normal -7.767551e-02 3.330839e-01 9.396923e-01
    outer loop
      vertex   -1.240761e+00 4.976421e+00 -1.866719e+00
      vertex   -2.217307e+00 1.000029e+01 -3.728202e+00
      vertex   -2.435474e+00 9.951438e+00 -3.728922e+00
    endloop
  endfacet
  facet normal -8.493195e-02 3.313374e-01 9.396819e-01
    outer loop
      vertex   -1.240761e+00 4.976421e+00 -1.866719e+00
      vertex   -2.435474e+00 9.951438e+00 -3.728922e+00
      vertex   -2.652587e+00 9.898005e+00 -3.729704e+00
    endloop
  endfacet
  facet normal -8.850940e-02 3.303216e-01 9.397094e-01
    outer loop
      vertex   -1.240761e+00 4.976421e+00 -1.866719e+00
      vertex   -2.652587e+00 9.898005e+00 -3.729704e+00
      vertex   -1.413680e+00 4.930088e+00 -1.866719e+00
    endloop
  endfacet
  facet normal -9.214077e-02 3.294057e-01 9.396819e-01
    outer loop
      vertex   -1.413680e+00 4.930088e+00 -1.866719e+00
      vertex   -2.652587e+00 9.898005e+00 -3.729704e+00
      vertex   -2.868523e+00 9.840013e+00 -3.730549e+00
    endloop
  endfacet
  facet normal -9.929522e-02 3.272898e-01 9.396924e-01
    outer loop
      vertex   -1.413680e+00 4.930088e+00 -1.866719e+00
      vertex   -2.868523e+00 9.840013e+00 -3.730549e+00
      vertex   -3.083167e+00 9.777491e+00 -3.731454e+00
    endloop
  endfacet
  facet normal -9.999033e-02 3.270536e-01 9.397009e-01
    outer loop
      vertex   -1.413680e+00 4.930088e+00 -1.866719e+00
      vertex   -3.083167e+00 9.777491e+00 -3.731454e+00
      vertex   -1.584876e+00 4.877748e+00 -1.866719e+00
    endloop
  endfacet
  facet normal -1.064180e-01 3.250801e-01 9.396798e-01
    outer loop
      vertex   -1.584876e+00 4.877748e+00 -1.866719e+00
      vertex   -3.083167e+00 9.777491e+00 -3.731454e+00
      vertex   -3.296446e+00 9.710457e+00 -3.732417e+00
    endloop
  endfacet
  facet normal -1.134517e-01 3.226011e-01 9.397112e-01
    outer loop
      vertex   -1.584876e+00 4.877748e+00 -1.866719e+00
      vertex   -3.296446e+00 9.710457e+00 -3.732417e+00
      vertex   -3.508284e+00 9.638930e+00 -3.733438e+00
    endloop
  endfacet
  facet normal -1.113658e-01 3.234299e-01 9.396759e-01
    outer loop
      vertex   -3.508284e+00 9.638930e+00 -3.733438e+00
      vertex   0.000000e+00 0.000000e+00 0.000000e+00
      vertex   -1.584876e+00 4.877748e+00 -1.866719e+00
    endloop
  endfacet
  facet normal -1.000105e-01 3.271195e-01 9.396759e-01
    outer loop
      vertex   -1.584876e+00 4.877748e+00 -1.866719e+00
      vertex   0.000000e+00 0.000000e+00 0.000000e+00
      vertex   -1.413680e+00 4.930088e+00 -1.866719e+00
    endloop
  endfacet
  facet normal -8.853323e-02 3.304105e-01 9.396759e-01
    outer loop
      vertex   -1.413680e+00 4.930088e+00 -1.866719e+00
      vertex   0.000000e+00 0.000000e+00 0.000000e+00
      vertex   -1.240761e+00 4.976421e+00 -1.866719e+00
    endloop
  endfacet
  facet normal -7.694814e-02 3.332990e-01 9.396759e-01
    outer loop
      vertex   -1.240761e+00 4.976421e+00 -1.866719e+00
      vertex   0.000000e+00 0.000000e+00 0.000000e+00
      vertex   -1.066331e+00 5.016692e+00 -1.866719e+00
    endloop
  endfacet
  facet normal 1.628027e-01 -4.728133e-01 -8.659924e-01
    outer loop
      vertex   0.000000e+00 0.000000e+00 0.000000e+00
      vertex   -3.254686e+00 8.942176e+00 -5.494102e+00
      vertex   -1.470313e+00 4.525158e+00 -2.747051e+00
    endloop
  endfacet
  facet normal 1.658582e-01 -4.716222e-01 -8.660621e-01
    outer loop
      vertex   -1.470313e+00 4.525158e+00 -2.747051e+00
      vertex   -3.254686e+00 8.942176e+00 -5.494102e+00
      vertex   -3.058254e+00 9.008883e+00 -5.492810e+00
    endloop
  endfacet
  facet normal 1.555687e-01 -4.752284e-01 -8.660002e-01
    outer loop
      vertex   -1.470313e+00 4.525158e+00 -2.747051e+00
      vertex   -3.058254e+00 9.008883e+00 -5.492810e+00
      vertex   -2.860471e+00 9.071404e+00 -5.491590e+00
    endloop
  endfacet
  facet normal 1.461775e-01 -4.781252e-01 -8.660418e-01
    outer loop
      vertex   -1.470313e+00 4.525158e+00 -2.747051e+00
      vertex   -2.860471e+00 9.071404e+00 -5.491590e+00
      vertex   -1.311491e+00 4.573714e+00 -2.747051e+00
    endloop
  endfacet
  facet normal 1.451575e-01 -4.784663e-01 -8.660250e-01
    outer loop
      vertex   -1.311491e+00 4.573714e+00 -2.747051e+00
      vertex   -2.860471e+00 9.071404e+00 -5.491590e+00
      vertex   -2.661409e+00 9.129721e+00 -5.490443e+00
    endloop
  endfacet
  facet normal 1.346965e-01 -4.815533e-01 -8.660042e-01
    outer loop
      vertex   -1.311491e+00 4.573714e+00 -2.747051e+00
      vertex   -2.661409e+00 9.129721e+00 -5.490443e+00
      vertex   -2.461136e+00 9.183815e+00 -5.489373e+00
    endloop
  endfacet
  facet normal 1.293947e-01 -4.829077e-01 -8.660584e-01
    outer loop
      vertex   -1.311491e+00 4.573714e+00 -2.747051e+00
      vertex   -2.461136e+00 9.183815e+00 -5.489373e+00
      vertex   -1.151072e+00 4.616698e+00 -2.747051e+00
    endloop
  endfacet
  facet normal 1.241581e-01 -4.843773e-01 -8.660043e-01
    outer loop
      vertex   -1.151072e+00 4.616698e+00 -2.747051e+00
      vertex   -2.461136e+00 9.183815e+00 -5.489373e+00
      vertex   -2.259759e+00 9.233660e+00 -5.488381e+00
    endloop
  endfacet
  facet normal 1.135518e-01 -4.869364e-01 -8.660248e-01
    outer loop
      vertex   -1.151072e+00 4.616698e+00 -2.747051e+00
      vertex   -2.259759e+00 9.233660e+00 -5.488381e+00
      vertex   -2.057393e+00 9.279230e+00 -5.487470e+00
    endloop
  endfacet
  facet normal 1.124690e-01 -4.871570e-01 -8.660420e-01
    outer loop
      vertex   -1.151072e+00 4.616698e+00 -2.747051e+00
      vertex   -2.057393e+00 9.279230e+00 -5.487470e+00
      vertex   -9.892505e-01 4.654058e+00 -2.747051e+00
    endloop
  endfacet
  facet normal 1.029072e-01 -4.893403e-01 -8.660001e-01
    outer loop
      vertex   -9.892505e-01 4.654058e+00 -2.747051e+00
      vertex   -2.057393e+00 9.279230e+00 -5.487470e+00
      vertex   -1.854110e+00 9.320512e+00 -5.486640e+00
    endloop
  endfacet
  facet normal 9.218295e-02 -4.913643e-01 -8.660620e-01
    outer loop
      vertex   -9.892505e-01 4.654058e+00 -2.747051e+00
      vertex   -1.854110e+00 9.320512e+00 -5.486640e+00
      vertex   -1.649978e+00 9.357492e+00 -5.485894e+00
    endloop
  endfacet
  facet normal 9.541540e-02 -4.908697e-01 -8.659924e-01
    outer loop
      vertex   -1.649978e+00 9.357492e+00 -5.485894e+00
      vertex   0.000000e+00 0.000000e+00 0.000000e+00
      vertex   -9.892505e-01 4.654058e+00 -2.747051e+00
    endloop
  endfacet
  facet normal 1.124884e-01 -4.872407e-01 -8.659924e-01
    outer loop
      vertex   -9.892505e-01 4.654058e+00 -2.747051e+00
      vertex   0.000000e+00 0.000000e+00 0.000000e+00
      vertex   -1.151072e+00 4.616698e+00 -2.747051e+00
    endloop
  endfacet
  facet normal 1.294243e-01 -4.830181e-01 -8.659924e-01
    outer loop
      vertex   -1.151072e+00 4.616698e+00 -2.747051e+00
      vertex   0.000000e+00 0.000000e+00 0.000000e+00
      vertex   -1.311491e+00 4.573714e+00 -2.747051e+00
    endloop
  endfacet
  facet normal 1.462026e-01 -4.782070e-01 -8.659924e-01
    outer loop
      vertex   -1.311491e+00 4.573714e+00 -2.747051e+00
      vertex   0.000000e+00 0.000000e+00 0.000000e+00
      vertex   -1.470313e+00 4.525158e+00 -2.747051e+00
    endloop
  endfacet
endsolid
