solid ASCII
  facet normal -1.736482e-01 9.848078e-01 1.958663e-17
    outer loop
      vertex   1.951858e+00 3.441651e-01 -1.124030e+01
      vertex   0.000000e+00 0.000000e+00 0.000000e+00
      vertex   2.191713e+00 3.864582e-01 -1.119161e+01
    endloop
  endfacet
  facet normal -1.736482e-01 9.848078e-01 1.469289e-17
    outer loop
      vertex   2.191713e+00 3.864582e-01 -1.119161e+01
      vertex   0.000000e+00 0.000000e+00 0.000000e+00
      vertex   2.430421e+00 4.285487e-01 -1.113732e+01
    endloop
  endfacet
  facet normal -1.736482e-01 9.848078e-01 -2.448999e-17
    outer loop
      vertex   2.430421e+00 4.285487e-01 -1.113732e+01
      vertex   0.000000e+00 0.000000e+00 0.000000e+00
      vertex   2.667890e+00 4.704209e-01 -1.107743e+01
    endloop
  endfacet
  facet normal -1.736482e-01 9.848078e-01 -1.959104e-17
    outer loop
      vertex   2.667890e+00 4.704209e-01 -1.107743e+01
      vertex   0.000000e+00 0.000000e+00 0.000000e+00
      vertex   2.904030e+00 5.120589e-01 -1.101198e+01
    endloop
  endfacet
  facet normal -1.736482e-01 9.848078e-01 9.793831e-18
    outer loop
      vertex   2.904030e+00 5.120589e-01 -1.101198e+01
      vertex   0.000000e+00 0.000000e+00 0.000000e+00
      vertex   3.138752e+00 5.534467e-01 -1.094098e+01
    endloop
  endfacet
  facet normal -1.736482e-01 9.848078e-01 -3.916372e-17
    outer loop
      vertex   3.138752e+00 5.534467e-01 -1.094098e+01
      vertex   0.000000e+00 0.000000e+00 0.000000e+00
      vertex   3.371967e+00 5.945687e-01 -1.086447e+01
    endloop
  endfacet
  facet normal -1.736482e-01 9.848078e-01 -1.174417e-16
    outer loop
      vertex   3.371967e+00 5.945687e-01 -1.086447e+01
      vertex   0.000000e+00 0.000000e+00 0.000000e+00
      vertex   3.603583e+00 6.354089e-01 -1.078245e+01
    endloop
  endfacet
  facet normal -1.736482e-01 9.848078e-01 4.695098e-16
    outer loop
      vertex   3.603583e+00 6.354089e-01 -1.078245e+01
      vertex   0.000000e+00 0.000000e+00 0.000000e+00
      vertex   3.833512e+00 6.759515e-01 -1.069497e+01
    endloop
  endfacet
  facet normal 1.957476e-01 3.764641e-03 -9.806471e-01
    outer loop
      vertex   2.225597e+00 -6.245775e-16 -1.119193e+01
      vertex   1.982013e+00 -5.650514e-16 -1.124055e+01
      vertex   2.218641e+00 9.443939e-02 -1.119296e+01
    endloop
  endfacet
  facet normal 1.954827e-01 4.453415e-03 -9.806970e-01
    outer loop
      vertex   2.218641e+00 9.443939e-02 -1.119296e+01
      vertex   1.982013e+00 -5.650514e-16 -1.124055e+01
      vertex   1.980124e+00 8.645383e-02 -1.124054e+01
    endloop
  endfacet
  facet normal 1.951884e-01 1.313042e-02 -9.806779e-01
    outer loop
      vertex   2.218641e+00 9.443939e-02 -1.119296e+01
      vertex   1.980124e+00 8.645383e-02 -1.124054e+01
      vertex   2.212191e+00 1.903201e-01 -1.119296e+01
    endloop
  endfacet
  facet normal 1.950933e-01 1.335035e-02 -9.806938e-01
    outer loop
      vertex   2.212191e+00 1.903201e-01 -1.119296e+01
      vertex   1.980124e+00 8.645383e-02 -1.124054e+01
      vertex   1.974459e+00 1.727432e-01 -1.124049e+01
    endloop
  endfacet
  facet normal 1.944459e-01 2.203027e-02 -9.806658e-01
    outer loop
      vertex   2.212191e+00 1.903201e-01 -1.119296e+01
      vertex   1.974459e+00 1.727432e-01 -1.124049e+01
      vertex   2.201194e+00 2.873863e-01 -1.119296e+01
    endloop
  endfacet
  facet normal 1.943516e-01 2.222273e-02 -9.806802e-01
    outer loop
      vertex   2.201194e+00 2.873863e-01 -1.119296e+01
      vertex   1.974459e+00 1.727432e-01 -1.124049e+01
      vertex   1.965031e+00 2.587008e-01 -1.124041e+01
    endloop
  endfacet
  facet normal 1.931851e-01 3.177248e-02 -9.806478e-01
    outer loop
      vertex   2.201194e+00 2.873863e-01 -1.119296e+01
      vertex   1.965031e+00 2.587008e-01 -1.124041e+01
      vertex   2.191713e+00 3.864582e-01 -1.119161e+01
    endloop
  endfacet
  facet normal 1.935527e-01 3.110072e-02 -9.805968e-01
    outer loop
      vertex   2.191713e+00 3.864582e-01 -1.119161e+01
      vertex   1.965031e+00 2.587008e-01 -1.124041e+01
      vertex   1.951858e+00 3.441651e-01 -1.124030e+01
    endloop
  endfacet
  facet normal 2.152098e-01 3.381685e-02 -9.759822e-01
    outer loop
      vertex   2.201194e+00 2.873863e-01 -1.119296e+01
      vertex   2.191713e+00 3.864582e-01 -1.119161e+01
      vertex   2.438322e+00 3.183456e-01 -1.113960e+01
    endloop
  endfacet
  facet normal 2.156771e-01 3.563694e-02 -9.758142e-01
    outer loop
      vertex   2.438322e+00 3.183456e-01 -1.113960e+01
      vertex   2.191713e+00 3.864582e-01 -1.119161e+01
      vertex   2.430421e+00 4.285487e-01 -1.113732e+01
    endloop
  endfacet
  facet normal 2.371742e-01 3.707375e-02 -9.707595e-01
    outer loop
      vertex   2.438322e+00 3.183456e-01 -1.113960e+01
      vertex   2.430421e+00 4.285487e-01 -1.113732e+01
      vertex   2.675768e+00 3.493464e-01 -1.108040e+01
    endloop
  endfacet
  facet normal 2.378252e-01 3.926674e-02 -9.705139e-01
    outer loop
      vertex   2.675768e+00 3.493464e-01 -1.108040e+01
      vertex   2.430421e+00 4.285487e-01 -1.113732e+01
      vertex   2.667890e+00 4.704209e-01 -1.107743e+01
    endloop
  endfacet
  facet normal 2.591132e-01 4.051677e-02 -9.649968e-01
    outer loop
      vertex   2.675768e+00 3.493464e-01 -1.108040e+01
      vertex   2.667890e+00 4.704209e-01 -1.107743e+01
      vertex   2.913346e+00 3.803645e-01 -1.101530e+01
    endloop
  endfacet
  facet normal 2.598547e-01 4.274176e-02 -9.647013e-01
    outer loop
      vertex   2.913346e+00 3.803645e-01 -1.101530e+01
      vertex   2.667890e+00 4.704209e-01 -1.107743e+01
      vertex   2.904030e+00 5.120589e-01 -1.101198e+01
    endloop
  endfacet
  facet normal 2.754582e-01 4.373489e-02 -9.603177e-01
    outer loop
      vertex   2.913346e+00 3.803645e-01 -1.101530e+01
      vertex   2.904030e+00 5.120589e-01 -1.101198e+01
      vertex   3.032126e+00 3.958722e-01 -1.098053e+01
    endloop
  endfacet
  facet normal 2.809984e-01 5.036592e-02 -9.583857e-01
    outer loop
      vertex   3.032126e+00 3.958722e-01 -1.098053e+01
      vertex   2.904030e+00 5.120589e-01 -1.101198e+01
      vertex   3.138752e+00 5.534467e-01 -1.094098e+01
    endloop
  endfacet
  facet normal 2.862764e-01 4.645182e-02 -9.570204e-01
    outer loop
      vertex   3.032126e+00 3.958722e-01 -1.098053e+01
      vertex   3.138752e+00 5.534467e-01 -1.094098e+01
      vertex   3.150866e+00 4.113748e-01 -1.094426e+01
    endloop
  endfacet
  facet normal 3.028630e-01 4.774664e-02 -9.518373e-01
    outer loop
      vertex   3.150866e+00 4.113748e-01 -1.094426e+01
      vertex   3.138752e+00 5.534467e-01 -1.094098e+01
      vertex   3.388131e+00 4.423520e-01 -1.086721e+01
    endloop
  endfacet
  facet normal 3.045971e-01 3.451015e-02 -9.518559e-01
    outer loop
      vertex   3.150866e+00 4.113748e-01 -1.094426e+01
      vertex   3.388131e+00 4.423520e-01 -1.086721e+01
      vertex   3.166608e+00 2.724309e-01 -1.094426e+01
    endloop
  endfacet
  facet normal 3.045971e-01 3.451015e-02 -9.518559e-01
    outer loop
      vertex   3.166608e+00 2.724309e-01 -1.094426e+01
      vertex   3.388131e+00 4.423520e-01 -1.086721e+01
      vertex   3.405058e+00 2.929454e-01 -1.086721e+01
    endloop
  endfacet
  facet normal 3.058018e-01 2.057144e-02 -9.518729e-01
    outer loop
      vertex   3.166608e+00 2.724309e-01 -1.094426e+01
      vertex   3.405058e+00 2.929454e-01 -1.086721e+01
      vertex   3.175840e+00 1.351838e-01 -1.094426e+01
    endloop
  endfacet
  facet normal 3.058018e-01 2.057144e-02 -9.518729e-01
    outer loop
      vertex   3.175840e+00 1.351838e-01 -1.094426e+01
      vertex   3.405058e+00 2.929454e-01 -1.086721e+01
      vertex   3.414986e+00 1.453634e-01 -1.086721e+01
    endloop
  endfacet
  facet normal 3.063599e-01 7.557783e-03 -9.518858e-01
    outer loop
      vertex   3.175840e+00 1.351838e-01 -1.094426e+01
      vertex   3.414986e+00 1.453634e-01 -1.086721e+01
      vertex   3.187382e+00 -9.192356e-16 -1.094162e+01
    endloop
  endfacet
  facet normal 3.070616e-01 6.347932e-03 -9.516685e-01
    outer loop
      vertex   3.187382e+00 -9.192356e-16 -1.094162e+01
      vertex   3.414986e+00 1.453634e-01 -1.086721e+01
      vertex   3.424234e+00 -9.921022e-16 -1.086519e+01
    endloop
  endfacet
  facet normal 3.284425e-01 7.807626e-03 -9.444917e-01
    outer loop
      vertex   3.424234e+00 -9.921022e-16 -1.086519e+01
      vertex   3.414986e+00 1.453634e-01 -1.086721e+01
      vertex   3.653675e+00 1.555235e-01 -1.078412e+01
    endloop
  endfacet
  facet normal 3.288465e-01 7.141119e-03 -9.443564e-01
    outer loop
      vertex   3.424234e+00 -9.921022e-16 -1.086519e+01
      vertex   3.653675e+00 1.555235e-01 -1.078412e+01
      vertex   3.659467e+00 -1.058675e-15 -1.078328e+01
    endloop
  endfacet
  facet normal 3.504492e-01 7.987833e-03 -9.365477e-01
    outer loop
      vertex   3.659467e+00 -1.058675e-15 -1.078328e+01
      vertex   3.653675e+00 1.555235e-01 -1.078412e+01
      vertex   3.892988e+00 -1.115967e-15 -1.069590e+01
    endloop
  endfacet
  facet normal 3.504648e-01 8.015242e-03 -9.365416e-01
    outer loop
      vertex   3.892988e+00 -1.115967e-15 -1.069590e+01
      vertex   3.653675e+00 1.555235e-01 -1.078412e+01
      vertex   3.889262e+00 1.698051e-01 -1.069584e+01
    endloop
  endfacet
  facet normal 3.495549e-01 2.351473e-02 -9.366208e-01
    outer loop
      vertex   3.889262e+00 1.698051e-01 -1.069584e+01
      vertex   3.653675e+00 1.555235e-01 -1.078412e+01
      vertex   3.643053e+00 3.134206e-01 -1.078412e+01
    endloop
  endfacet
  facet normal 3.498164e-01 2.403124e-02 -9.365100e-01
    outer loop
      vertex   3.889262e+00 1.698051e-01 -1.069584e+01
      vertex   3.643053e+00 3.134206e-01 -1.078412e+01
      vertex   3.878090e+00 3.392845e-01 -1.069566e+01
    endloop
  endfacet
  facet normal 3.481565e-01 3.944531e-02 -9.366062e-01
    outer loop
      vertex   3.878090e+00 3.392845e-01 -1.069566e+01
      vertex   3.643053e+00 3.134206e-01 -1.078412e+01
      vertex   3.624943e+00 4.732700e-01 -1.078412e+01
    endloop
  endfacet
  facet normal 3.484059e-01 3.999324e-02 -9.364902e-01
    outer loop
      vertex   3.878090e+00 3.392845e-01 -1.069566e+01
      vertex   3.624943e+00 4.732700e-01 -1.078412e+01
      vertex   3.859494e+00 5.081065e-01 -1.069537e+01
    endloop
  endfacet
  facet normal 3.461650e-01 5.522547e-02 -9.365468e-01
    outer loop
      vertex   3.859494e+00 5.081065e-01 -1.069537e+01
      vertex   3.624943e+00 4.732700e-01 -1.078412e+01
      vertex   3.603583e+00 6.354089e-01 -1.078245e+01
    endloop
  endfacet
  facet normal 3.464464e-01 5.588937e-02 -9.364034e-01
    outer loop
      vertex   3.859494e+00 5.081065e-01 -1.069537e+01
      vertex   3.603583e+00 6.354089e-01 -1.078245e+01
      vertex   3.833512e+00 6.759515e-01 -1.069497e+01
    endloop
  endfacet
  facet normal 3.034954e-01 4.935450e-02 -9.515538e-01
    outer loop
      vertex   3.138752e+00 5.534467e-01 -1.094098e+01
      vertex   3.371967e+00 5.945687e-01 -1.086447e+01
      vertex   3.388131e+00 4.423520e-01 -1.086721e+01
    endloop
  endfacet
  facet normal 3.246411e-01 5.147191e-02 -9.444357e-01
    outer loop
      vertex   3.388131e+00 4.423520e-01 -1.086721e+01
      vertex   3.371967e+00 5.945687e-01 -1.086447e+01
      vertex   3.624943e+00 4.732700e-01 -1.078412e+01
    endloop
  endfacet
  facet normal 3.265393e-01 3.699614e-02 -9.444593e-01
    outer loop
      vertex   3.388131e+00 4.423520e-01 -1.086721e+01
      vertex   3.624943e+00 4.732700e-01 -1.078412e+01
      vertex   3.405058e+00 2.929454e-01 -1.086721e+01
    endloop
  endfacet
  facet normal 3.265393e-01 3.699614e-02 -9.444593e-01
    outer loop
      vertex   3.405058e+00 2.929454e-01 -1.086721e+01
      vertex   3.624943e+00 4.732700e-01 -1.078412e+01
      vertex   3.643053e+00 3.134206e-01 -1.078412e+01
    endloop
  endfacet
  facet normal 3.278316e-01 2.205339e-02 -9.444787e-01
    outer loop
      vertex   3.405058e+00 2.929454e-01 -1.086721e+01
      vertex   3.643053e+00 3.134206e-01 -1.078412e+01
      vertex   3.414986e+00 1.453634e-01 -1.086721e+01
    endloop
  endfacet
  facet normal 3.278316e-01 2.205339e-02 -9.444787e-01
    outer loop
      vertex   3.414986e+00 1.453634e-01 -1.086721e+01
      vertex   3.643053e+00 3.134206e-01 -1.078412e+01
      vertex   3.653675e+00 1.555235e-01 -1.078412e+01
    endloop
  endfacet
  facet normal 3.250804e-01 5.252675e-02 -9.442265e-01
    outer loop
      vertex   3.371967e+00 5.945687e-01 -1.086447e+01
      vertex   3.603583e+00 6.354089e-01 -1.078245e+01
      vertex   3.624943e+00 4.732700e-01 -1.078412e+01
    endloop
  endfacet
  facet normal 2.897995e-01 6.042675e-03 -9.570683e-01
    outer loop
      vertex   3.175840e+00 1.351838e-01 -1.094426e+01
      vertex   3.187382e+00 -9.192356e-16 -1.094162e+01
      vertex   3.056159e+00 1.300895e-01 -1.098053e+01
    endloop
  endfacet
  facet normal 2.851086e-01 8.842721e-04 -9.584948e-01
    outer loop
      vertex   3.056159e+00 1.300895e-01 -1.098053e+01
      vertex   3.187382e+00 -9.192356e-16 -1.094162e+01
      vertex   2.949001e+00 -8.430626e-16 -1.101252e+01
    endloop
  endfacet
  facet normal 2.786868e-01 6.632591e-03 -9.603591e-01
    outer loop
      vertex   3.056159e+00 1.300895e-01 -1.098053e+01
      vertex   2.949001e+00 -8.430626e-16 -1.101252e+01
      vertex   2.936438e+00 1.249934e-01 -1.101530e+01
    endloop
  endfacet
  facet normal 2.629843e-01 4.955871e-03 -9.647874e-01
    outer loop
      vertex   2.936438e+00 1.249934e-01 -1.101530e+01
      vertex   2.949001e+00 -8.430626e-16 -1.101252e+01
      vertex   2.709182e+00 -7.665704e-16 -1.107789e+01
    endloop
  endfacet
  facet normal 2.620444e-01 6.787138e-03 -9.650319e-01
    outer loop
      vertex   2.936438e+00 1.249934e-01 -1.101530e+01
      vertex   2.709182e+00 -7.665704e-16 -1.107789e+01
      vertex   2.696977e+00 1.148004e-01 -1.108040e+01
    endloop
  endfacet
  facet normal 2.407116e-01 4.397877e-03 -9.705867e-01
    outer loop
      vertex   2.696977e+00 1.148004e-01 -1.108040e+01
      vertex   2.709182e+00 -7.665704e-16 -1.107789e+01
      vertex   2.468017e+00 -6.927463e-16 -1.113770e+01
    endloop
  endfacet
  facet normal 2.398544e-01 6.208457e-03 -9.707890e-01
    outer loop
      vertex   2.696977e+00 1.148004e-01 -1.108040e+01
      vertex   2.468017e+00 -6.927463e-16 -1.113770e+01
      vertex   2.457649e+00 1.046131e-01 -1.113960e+01
    endloop
  endfacet
  facet normal 2.182960e-01 3.979820e-03 -9.758745e-01
    outer loop
      vertex   2.457649e+00 1.046131e-01 -1.113960e+01
      vertex   2.468017e+00 -6.927463e-16 -1.113770e+01
      vertex   2.225597e+00 -6.245775e-16 -1.119193e+01
    endloop
  endfacet
  facet normal 2.176721e-01 5.429866e-03 -9.760068e-01
    outer loop
      vertex   2.457649e+00 1.046131e-01 -1.113960e+01
      vertex   2.225597e+00 -6.245775e-16 -1.119193e+01
      vertex   2.218641e+00 9.443939e-02 -1.119296e+01
    endloop
  endfacet
  facet normal 2.172796e-01 1.461650e-02 -9.760000e-01
    outer loop
      vertex   2.457649e+00 1.046131e-01 -1.113960e+01
      vertex   2.218641e+00 9.443939e-02 -1.119296e+01
      vertex   2.450504e+00 2.108228e-01 -1.113960e+01
    endloop
  endfacet
  facet normal 2.172796e-01 1.461650e-02 -9.760000e-01
    outer loop
      vertex   2.450504e+00 2.108228e-01 -1.113960e+01
      vertex   2.218641e+00 9.443939e-02 -1.119296e+01
      vertex   2.212191e+00 1.903201e-01 -1.119296e+01
    endloop
  endfacet
  facet normal 2.164255e-01 2.452051e-02 -9.759912e-01
    outer loop
      vertex   2.450504e+00 2.108228e-01 -1.113960e+01
      vertex   2.212191e+00 1.903201e-01 -1.119296e+01
      vertex   2.438322e+00 3.183456e-01 -1.113960e+01
    endloop
  endfacet
  facet normal 2.164255e-01 2.452051e-02 -9.759912e-01
    outer loop
      vertex   2.438322e+00 3.183456e-01 -1.113960e+01
      vertex   2.212191e+00 1.903201e-01 -1.119296e+01
      vertex   2.201194e+00 2.873863e-01 -1.119296e+01
    endloop
  endfacet
  facet normal 2.394308e-01 1.610662e-02 -9.707798e-01
    outer loop
      vertex   2.696977e+00 1.148004e-01 -1.108040e+01
      vertex   2.457649e+00 1.046131e-01 -1.113960e+01
      vertex   2.689137e+00 2.313529e-01 -1.108040e+01
    endloop
  endfacet
  facet normal 2.394308e-01 1.610662e-02 -9.707798e-01
    outer loop
      vertex   2.689137e+00 2.313529e-01 -1.108040e+01
      vertex   2.457649e+00 1.046131e-01 -1.113960e+01
      vertex   2.450504e+00 2.108228e-01 -1.113960e+01
    endloop
  endfacet
  facet normal 2.384892e-01 2.702027e-02 -9.707692e-01
    outer loop
      vertex   2.689137e+00 2.313529e-01 -1.108040e+01
      vertex   2.450504e+00 2.108228e-01 -1.113960e+01
      vertex   2.675768e+00 3.493464e-01 -1.108040e+01
    endloop
  endfacet
  facet normal 2.384892e-01 2.702027e-02 -9.707692e-01
    outer loop
      vertex   2.675768e+00 3.493464e-01 -1.108040e+01
      vertex   2.450504e+00 2.108228e-01 -1.113960e+01
      vertex   2.438322e+00 3.183456e-01 -1.113960e+01
    endloop
  endfacet
  facet normal 2.615813e-01 1.759670e-02 -9.650210e-01
    outer loop
      vertex   2.936438e+00 1.249934e-01 -1.101530e+01
      vertex   2.696977e+00 1.148004e-01 -1.108040e+01
      vertex   2.927902e+00 2.518944e-01 -1.101530e+01
    endloop
  endfacet
  facet normal 2.615813e-01 1.759670e-02 -9.650210e-01
    outer loop
      vertex   2.927902e+00 2.518944e-01 -1.101530e+01
      vertex   2.696977e+00 1.148004e-01 -1.108040e+01
      vertex   2.689137e+00 2.313529e-01 -1.108040e+01
    endloop
  endfacet
  facet normal 2.605521e-01 2.951994e-02 -9.650084e-01
    outer loop
      vertex   2.927902e+00 2.518944e-01 -1.101530e+01
      vertex   2.689137e+00 2.313529e-01 -1.108040e+01
      vertex   2.913346e+00 3.803645e-01 -1.101530e+01
    endloop
  endfacet
  facet normal 2.605521e-01 2.951994e-02 -9.650084e-01
    outer loop
      vertex   2.913346e+00 3.803645e-01 -1.101530e+01
      vertex   2.689137e+00 2.313529e-01 -1.108040e+01
      vertex   2.675768e+00 3.493464e-01 -1.108040e+01
    endloop
  endfacet
  facet normal 2.892268e-01 1.945643e-02 -9.570628e-01
    outer loop
      vertex   3.166608e+00 2.724309e-01 -1.094426e+01
      vertex   3.175840e+00 1.351838e-01 -1.094426e+01
      vertex   3.056159e+00 1.300895e-01 -1.098053e+01
    endloop
  endfacet
  facet normal 2.781699e-01 1.871262e-02 -9.603496e-01
    outer loop
      vertex   3.056159e+00 1.300895e-01 -1.098053e+01
      vertex   2.936438e+00 1.249934e-01 -1.101530e+01
      vertex   3.047274e+00 2.621643e-01 -1.098053e+01
    endloop
  endfacet
  facet normal 2.781699e-01 1.871262e-02 -9.603496e-01
    outer loop
      vertex   3.047274e+00 2.621643e-01 -1.098053e+01
      vertex   2.936438e+00 1.249934e-01 -1.101530e+01
      vertex   2.927902e+00 2.518944e-01 -1.101530e+01
    endloop
  endfacet
  facet normal 2.770749e-01 3.139194e-02 -9.603354e-01
    outer loop
      vertex   3.047274e+00 2.621643e-01 -1.098053e+01
      vertex   2.927902e+00 2.518944e-01 -1.101530e+01
      vertex   3.032126e+00 3.958722e-01 -1.098053e+01
    endloop
  endfacet
  facet normal 2.770749e-01 3.139194e-02 -9.603354e-01
    outer loop
      vertex   3.032126e+00 3.958722e-01 -1.098053e+01
      vertex   2.927902e+00 2.518944e-01 -1.101530e+01
      vertex   2.913346e+00 3.803645e-01 -1.101530e+01
    endloop
  endfacet
  facet normal 2.880880e-01 3.263969e-02 -9.570475e-01
    outer loop
      vertex   3.150866e+00 4.113748e-01 -1.094426e+01
      vertex   3.166608e+00 2.724309e-01 -1.094426e+01
      vertex   3.047274e+00 2.621643e-01 -1.098053e+01
    endloop
  endfacet
  facet normal 2.892268e-01 1.945643e-02 -9.570628e-01
    outer loop
      vertex   3.047274e+00 2.621643e-01 -1.098053e+01
      vertex   3.166608e+00 2.724309e-01 -1.094426e+01
      vertex   3.056159e+00 1.300895e-01 -1.098053e+01
    endloop
  endfacet
  facet normal 2.880880e-01 3.263969e-02 -9.570475e-01
    outer loop
      vertex   3.150866e+00 4.113748e-01 -1.094426e+01
      vertex   3.047274e+00 2.621643e-01 -1.098053e+01
      vertex   3.032126e+00 3.958722e-01 -1.098053e+01
    endloop
  endfacet
  facet normal -2.457602e-16 -1.000000e+00 6.934847e-18
    outer loop
      vertex   1.982013e+00 -5.650514e-16 -1.124055e+01
      vertex   2.225597e+00 -6.245775e-16 -1.119193e+01
      vertex   0.000000e+00 0.000000e+00 0.000000e+00
    endloop
  endfacet
  facet normal -2.811767e-16 -1.000000e+00 -1.079754e-19
    outer loop
      vertex   0.000000e+00 0.000000e+00 0.000000e+00
      vertex   2.225597e+00 -6.245775e-16 -1.119193e+01
      vertex   2.468017e+00 -6.927463e-16 -1.113770e+01
    endloop
  endfacet
  facet normal -3.047901e-16 -1.000000e+00 -5.340497e-18
    outer loop
      vertex   0.000000e+00 0.000000e+00 0.000000e+00
      vertex   2.468017e+00 -6.927463e-16 -1.113770e+01
      vertex   2.709182e+00 -7.665704e-16 -1.107789e+01
    endloop
  endfacet
  facet normal -3.167083e-16 -1.000000e+00 -8.255184e-18
    outer loop
      vertex   2.709182e+00 -7.665704e-16 -1.107789e+01
      vertex   2.949001e+00 -8.430626e-16 -1.101252e+01
      vertex   0.000000e+00 0.000000e+00 0.000000e+00
    endloop
  endfacet
  facet normal -3.170594e-16 -1.000000e+00 -8.349212e-18
    outer loop
      vertex   0.000000e+00 0.000000e+00 0.000000e+00
      vertex   2.949001e+00 -8.430626e-16 -1.101252e+01
      vertex   3.187382e+00 -9.192356e-16 -1.094162e+01
    endloop
  endfacet
  facet normal -3.059917e-16 -1.000000e+00 -5.125077e-18
    outer loop
      vertex   0.000000e+00 0.000000e+00 0.000000e+00
      vertex   3.187382e+00 -9.192356e-16 -1.094162e+01
      vertex   3.424234e+00 -9.921022e-16 -1.086519e+01
    endloop
  endfacet
  facet normal -2.836731e-16 -1.000000e+00 1.908772e-18
    outer loop
      vertex   3.424234e+00 -9.921022e-16 -1.086519e+01
      vertex   3.659467e+00 -1.058675e-15 -1.078328e+01
      vertex   0.000000e+00 0.000000e+00 0.000000e+00
    endloop
  endfacet
  facet normal -2.502915e-16 -1.000000e+00 1.323729e-17
    outer loop
      vertex   0.000000e+00 0.000000e+00 0.000000e+00
      vertex   3.659467e+00 -1.058675e-15 -1.078328e+01
      vertex   3.892988e+00 -1.115967e-15 -1.069590e+01
    endloop
  endfacet
  facet normal 9.394022e-01 2.049723e-02 3.422038e-01
    outer loop
      vertex   3.889262e+00 1.698051e-01 -1.069584e+01
      vertex   2.590935e+00 1.509048e-01 -7.130599e+00
      vertex   3.892988e+00 -1.115967e-15 -1.069590e+01
    endloop
  endfacet
  facet normal 9.393416e-01 2.733205e-02 3.418924e-01
    outer loop
      vertex   3.892988e+00 -1.115967e-15 -1.069590e+01
      vertex   2.590935e+00 1.509048e-01 -7.130599e+00
      vertex   1.295467e+00 7.545238e-02 -3.565299e+00
    endloop
  endfacet
  facet normal 9.393416e-01 2.733205e-02 3.418924e-01
    outer loop
      vertex   3.892988e+00 -1.115967e-15 -1.069590e+01
      vertex   1.295467e+00 7.545238e-02 -3.565299e+00
      vertex   0.000000e+00 0.000000e+00 0.000000e+00
    endloop
  endfacet
  facet normal 9.377532e-01 6.146282e-02 3.418205e-01
    outer loop
      vertex   3.889262e+00 1.698051e-01 -1.069584e+01
      vertex   3.878090e+00 3.392845e-01 -1.069566e+01
      vertex   2.590935e+00 1.509048e-01 -7.130599e+00
    endloop
  endfacet
  facet normal 9.360241e-01 8.189150e-02 3.422757e-01
    outer loop
      vertex   2.590935e+00 1.509048e-01 -7.130599e+00
      vertex   3.878090e+00 3.392845e-01 -1.069566e+01
      vertex   2.577777e+00 3.012989e-01 -7.130599e+00
    endloop
  endfacet
  facet normal 9.361631e-01 8.190366e-02 3.418924e-01
    outer loop
      vertex   2.590935e+00 1.509048e-01 -7.130599e+00
      vertex   2.577777e+00 3.012989e-01 -7.130599e+00
      vertex   1.288888e+00 1.506495e-01 -3.565299e+00
    endloop
  endfacet
  facet normal 9.298170e-01 1.361981e-01 3.418924e-01
    outer loop
      vertex   1.288888e+00 1.506495e-01 -3.565299e+00
      vertex   2.577777e+00 3.012989e-01 -7.130599e+00
      vertex   3.833512e+00 6.759515e-01 -1.069497e+01
    endloop
  endfacet
  facet normal 9.298170e-01 1.361981e-01 3.418924e-01
    outer loop
      vertex   1.288888e+00 1.506495e-01 -3.565299e+00
      vertex   3.833512e+00 6.759515e-01 -1.069497e+01
      vertex   0.000000e+00 0.000000e+00 0.000000e+00
    endloop
  endfacet
  facet normal 9.341797e-01 1.023083e-01 3.418205e-01
    outer loop
      vertex   3.878090e+00 3.392845e-01 -1.069566e+01
      vertex   3.859494e+00 5.081065e-01 -1.069537e+01
      vertex   2.577777e+00 3.012989e-01 -7.130599e+00
    endloop
  endfacet
  facet normal 9.286901e-01 1.429378e-01 3.422038e-01
    outer loop
      vertex   2.577777e+00 3.012989e-01 -7.130599e+00
      vertex   3.859494e+00 5.081065e-01 -1.069537e+01
      vertex   3.833512e+00 6.759515e-01 -1.069497e+01
    endloop
  endfacet
  facet normal 9.361631e-01 8.190366e-02 3.418924e-01
    outer loop
      vertex   1.288888e+00 1.506495e-01 -3.565299e+00
      vertex   0.000000e+00 0.000000e+00 0.000000e+00
      vertex   1.295467e+00 7.545238e-02 -3.565299e+00
    endloop
  endfacet
  facet normal 9.361631e-01 8.190366e-02 3.418924e-01
    outer loop
      vertex   1.288888e+00 1.506495e-01 -3.565299e+00
      vertex   1.295467e+00 7.545238e-02 -3.565299e+00
      vertex   2.590935e+00 1.509048e-01 -7.130599e+00
    endloop
  endfacet
  facet normal -9.732413e-01 -1.497954e-01 -1.742490e-01
    outer loop
      vertex   1.965031e+00 2.587008e-01 -1.124041e+01
      vertex   1.316314e+00 1.151627e-01 -7.493702e+00
      vertex   1.951858e+00 3.441651e-01 -1.124030e+01
    endloop
  endfacet
  facet normal -9.764106e-01 -1.285470e-01 -1.734879e-01
    outer loop
      vertex   1.951858e+00 3.441651e-01 -1.124030e+01
      vertex   1.316314e+00 1.151627e-01 -7.493702e+00
      vertex   6.581569e-01 5.758131e-02 -3.746851e+00
    endloop
  endfacet
  facet normal -9.764106e-01 -1.285470e-01 -1.734879e-01
    outer loop
      vertex   1.951858e+00 3.441651e-01 -1.124030e+01
      vertex   6.581569e-01 5.758131e-02 -3.746851e+00
      vertex   0.000000e+00 0.000000e+00 0.000000e+00
    endloop
  endfacet
  facet normal -9.789614e-01 -1.072137e-01 -1.736081e-01
    outer loop
      vertex   1.965031e+00 2.587008e-01 -1.124041e+01
      vertex   1.974459e+00 1.727432e-01 -1.124049e+01
      vertex   1.316314e+00 1.151627e-01 -7.493702e+00
    endloop
  endfacet
  facet normal -9.827063e-01 -6.441003e-02 -1.736081e-01
    outer loop
      vertex   1.316314e+00 1.151627e-01 -7.493702e+00
      vertex   1.974459e+00 1.727432e-01 -1.124049e+01
      vertex   1.980124e+00 8.645383e-02 -1.124054e+01
    endloop
  endfacet
  facet normal -9.844673e-01 -2.148082e-02 -1.742490e-01
    outer loop
      vertex   1.316314e+00 1.151627e-01 -7.493702e+00
      vertex   1.980124e+00 8.645383e-02 -1.124054e+01
      vertex   1.982013e+00 -5.650514e-16 -1.124055e+01
    endloop
  endfacet
  facet normal -9.838987e-01 -4.295795e-02 -1.734879e-01
    outer loop
      vertex   1.316314e+00 1.151627e-01 -7.493702e+00
      vertex   1.982013e+00 -5.650514e-16 -1.124055e+01
      vertex   6.581569e-01 5.758131e-02 -3.746851e+00
    endloop
  endfacet
  facet normal -9.838987e-01 -4.295791e-02 -1.734879e-01
    outer loop
      vertex   6.581569e-01 5.758131e-02 -3.746851e+00
      vertex   1.982013e+00 -5.650514e-16 -1.124055e+01
      vertex   0.000000e+00 0.000000e+00 0.000000e+00
    endloop
  endfacet
endsolid
