solid ASCII
  facet normal 9.848078e-01 1.736482e-01 -3.343214e-15
    outer loop
      vertex   -1.471997e+00 8.348109e+00 7.112957e+00
      vertex   -2.307555e-14 0.000000e+00 -1.776357e-14
      vertex   -1.496796e+00 8.488754e+00 6.919393e+00
    endloop
  endfacet
  facet normal 9.848078e-01 1.736482e-01 -1.579403e-15
    outer loop
      vertex   -1.496796e+00 8.488754e+00 6.919393e+00
      vertex   -2.307555e-14 0.000000e+00 -1.776357e-14
      vertex   -1.520879e+00 8.625332e+00 6.722869e+00
    endloop
  endfacet
  facet normal 9.848078e-01 1.736482e-01 -6.491700e-16
    outer loop
      vertex   -1.520879e+00 8.625332e+00 6.722869e+00
      vertex   -2.307555e-14 0.000000e+00 -1.776357e-14
      vertex   -1.544238e+00 8.757808e+00 6.523462e+00
    endloop
  endfacet
  facet normal 9.848078e-01 1.736482e-01 -1.058494e-15
    outer loop
      vertex   -1.544238e+00 8.757808e+00 6.523462e+00
      vertex   -2.307555e-14 0.000000e+00 -1.776357e-14
      vertex   -1.566868e+00 8.886149e+00 6.321250e+00
    endloop
  endfacet
  facet normal 9.848078e-01 1.736482e-01 -6.293172e-16
    outer loop
      vertex   -1.566868e+00 8.886149e+00 6.321250e+00
      vertex   -2.307555e-14 0.000000e+00 -1.776357e-14
      vertex   -1.588763e+00 9.010322e+00 6.116310e+00
    endloop
  endfacet
  facet normal 9.848078e-01 1.736482e-01 -2.330098e-15
    outer loop
      vertex   -1.588763e+00 9.010322e+00 6.116310e+00
      vertex   -2.307555e-14 0.000000e+00 -1.776357e-14
      vertex   -1.609917e+00 9.130292e+00 5.908719e+00
    endloop
  endfacet
  facet normal 9.848078e-01 1.736482e-01 1.018704e-15
    outer loop
      vertex   -1.609917e+00 9.130292e+00 5.908719e+00
      vertex   -2.307555e-14 0.000000e+00 -1.776357e-14
      vertex   -1.630324e+00 9.246027e+00 5.698555e+00
    endloop
  endfacet
  facet normal 9.848078e-01 1.736482e-01 6.514425e-16
    outer loop
      vertex   -1.630324e+00 9.246027e+00 5.698555e+00
      vertex   -2.307555e-14 0.000000e+00 -1.776357e-14
      vertex   -1.649978e+00 9.357492e+00 5.485894e+00
    endloop
  endfacet
  facet normal -2.560435e-01 7.617898e-01 5.950781e-01
    outer loop
      vertex   -2.902719e+00 7.975155e+00 7.121424e+00
      vertex   -2.727634e+00 8.035044e+00 7.120091e+00
      vertex   -2.951778e+00 8.109944e+00 6.927766e+00
    endloop
  endfacet
  facet normal -2.550758e-01 7.627136e-01 5.943100e-01
    outer loop
      vertex   -2.951778e+00 8.109944e+00 6.927766e+00
      vertex   -2.727634e+00 8.035044e+00 7.120091e+00
      vertex   -2.751973e+00 8.177951e+00 6.926245e+00
    endloop
  endfacet
  facet normal -2.590070e-01 7.738971e-01 5.779262e-01
    outer loop
      vertex   -2.951778e+00 8.109944e+00 6.927766e+00
      vertex   -2.751973e+00 8.177951e+00 6.926245e+00
      vertex   -2.999413e+00 8.240818e+00 6.731165e+00
    endloop
  endfacet
  facet normal -2.587904e-01 7.741209e-01 5.777235e-01
    outer loop
      vertex   -2.999413e+00 8.240818e+00 6.731165e+00
      vertex   -2.751973e+00 8.177951e+00 6.926245e+00
      vertex   -2.796701e+00 8.310868e+00 6.728106e+00
    endloop
  endfacet
  facet normal -2.628971e-01 7.852567e-01 5.605864e-01
    outer loop
      vertex   -2.999413e+00 8.240818e+00 6.731165e+00
      vertex   -2.796701e+00 8.310868e+00 6.728106e+00
      vertex   -3.045611e+00 8.367748e+00 6.531698e+00
    endloop
  endfacet
  facet normal -2.625522e-01 7.856108e-01 5.602518e-01
    outer loop
      vertex   -3.045611e+00 8.367748e+00 6.531698e+00
      vertex   -2.796701e+00 8.310868e+00 6.728106e+00
      vertex   -2.840049e+00 8.439683e+00 6.527161e+00
    endloop
  endfacet
  facet normal -2.666499e-01 7.962358e-01 5.430529e-01
    outer loop
      vertex   -3.045611e+00 8.367748e+00 6.531698e+00
      vertex   -2.840049e+00 8.439683e+00 6.527161e+00
      vertex   -3.090364e+00 8.490704e+00 6.329444e+00
    endloop
  endfacet
  facet normal -2.661947e-01 7.966993e-01 5.425962e-01
    outer loop
      vertex   -3.090364e+00 8.490704e+00 6.329444e+00
      vertex   -2.840049e+00 8.439683e+00 6.527161e+00
      vertex   -2.881993e+00 8.564328e+00 6.323566e+00
    endloop
  endfacet
  facet normal -2.702630e-01 8.068352e-01 5.253331e-01
    outer loop
      vertex   -3.090364e+00 8.490704e+00 6.329444e+00
      vertex   -2.881993e+00 8.564328e+00 6.323566e+00
      vertex   -3.133658e+00 8.609655e+00 6.124479e+00
    endloop
  endfacet
  facet normal -2.697194e-01 8.073829e-01 5.247707e-01
    outer loop
      vertex   -3.133658e+00 8.609655e+00 6.124479e+00
      vertex   -2.881993e+00 8.564328e+00 6.323566e+00
      vertex   -2.922513e+00 8.684740e+00 6.117480e+00
    endloop
  endfacet
  facet normal -2.728537e-01 8.149409e-01 5.112947e-01
    outer loop
      vertex   -3.133658e+00 8.609655e+00 6.124479e+00
      vertex   -2.922513e+00 8.684740e+00 6.117480e+00
      vertex   -2.942233e+00 8.743342e+00 6.013553e+00
    endloop
  endfacet
  facet normal -2.534439e-01 8.212593e-01 5.111745e-01
    outer loop
      vertex   -2.942233e+00 8.743342e+00 6.013553e+00
      vertex   -2.922513e+00 8.684740e+00 6.117480e+00
      vertex   -2.727745e+00 8.809533e+00 6.013553e+00
    endloop
  endfacet
  facet normal -2.550083e-01 8.263285e-01 5.021474e-01
    outer loop
      vertex   -2.942233e+00 8.743342e+00 6.013553e+00
      vertex   -2.727745e+00 8.809533e+00 6.013553e+00
      vertex   -2.745691e+00 8.867492e+00 5.909064e+00
    endloop
  endfacet
  facet normal -2.356507e-01 8.321226e-01 5.020367e-01
    outer loop
      vertex   -2.745691e+00 8.867492e+00 5.909064e+00
      vertex   -2.727745e+00 8.809533e+00 6.013553e+00
      vertex   -2.529525e+00 8.928708e+00 5.909064e+00
    endloop
  endfacet
  facet normal -2.370667e-01 8.371227e-01 4.929757e-01
    outer loop
      vertex   -2.745691e+00 8.867492e+00 5.909064e+00
      vertex   -2.529525e+00 8.928708e+00 5.909064e+00
      vertex   -2.545747e+00 8.985967e+00 5.804033e+00
    endloop
  endfacet
  facet normal -2.175895e-01 8.424546e-01 4.928743e-01
    outer loop
      vertex   -2.545747e+00 8.985967e+00 5.804033e+00
      vertex   -2.529525e+00 8.928708e+00 5.909064e+00
      vertex   -2.328125e+00 9.042174e+00 5.804033e+00
    endloop
  endfacet
  facet normal -2.188620e-01 8.473814e-01 4.837811e-01
    outer loop
      vertex   -2.545747e+00 8.985967e+00 5.804033e+00
      vertex   -2.328125e+00 9.042174e+00 5.804033e+00
      vertex   -2.342673e+00 9.098678e+00 5.698481e+00
    endloop
  endfacet
  facet normal -1.931485e-01 8.537010e-01 4.836200e-01
    outer loop
      vertex   -2.342673e+00 9.098678e+00 5.698481e+00
      vertex   -2.328125e+00 9.042174e+00 5.804033e+00
      vertex   -1.985927e+00 9.179391e+00 5.698481e+00
    endloop
  endfacet
  facet normal -1.942472e-01 8.585573e-01 4.744969e-01
    outer loop
      vertex   -2.342673e+00 9.098678e+00 5.698481e+00
      vertex   -1.985927e+00 9.179391e+00 5.698481e+00
      vertex   -1.998016e+00 9.235268e+00 5.592427e+00
    endloop
  endfacet
  facet normal -1.622353e-01 8.652461e-01 4.743721e-01
    outer loop
      vertex   -1.998016e+00 9.235268e+00 5.592427e+00
      vertex   -1.985927e+00 9.179391e+00 5.698481e+00
      vertex   -1.630324e+00 9.246027e+00 5.698555e+00
    endloop
  endfacet
  facet normal -1.625497e-01 8.645501e-01 4.755320e-01
    outer loop
      vertex   -1.998016e+00 9.235268e+00 5.592427e+00
      vertex   -1.630324e+00 9.246027e+00 5.698555e+00
      vertex   -1.854110e+00 9.320512e+00 5.486640e+00
    endloop
  endfacet
  facet normal -1.556947e-01 8.689190e-01 4.698286e-01
    outer loop
      vertex   -1.854110e+00 9.320512e+00 5.486640e+00
      vertex   -1.630324e+00 9.246027e+00 5.698555e+00
      vertex   -1.649978e+00 9.357492e+00 5.485894e+00
    endloop
  endfacet
  facet normal -2.398916e-01 7.667790e-01 5.954006e-01
    outer loop
      vertex   -2.727634e+00 8.035044e+00 7.120091e+00
      vertex   -2.551330e+00 8.091179e+00 7.118833e+00
      vertex   -2.751973e+00 8.177951e+00 6.926245e+00
    endloop
  endfacet
  facet normal -2.372949e-01 7.689301e-01 5.936645e-01
    outer loop
      vertex   -2.751973e+00 8.177951e+00 6.926245e+00
      vertex   -2.551330e+00 8.091179e+00 7.118833e+00
      vertex   -2.551355e+00 8.239862e+00 6.926245e+00
    endloop
  endfacet
  facet normal -2.407174e-01 7.800205e-01 5.776013e-01
    outer loop
      vertex   -2.751973e+00 8.177951e+00 6.926245e+00
      vertex   -2.551355e+00 8.239862e+00 6.926245e+00
      vertex   -2.592822e+00 8.373786e+00 6.728106e+00
    endloop
  endfacet
  facet normal -2.224500e-01 7.855087e-01 5.774877e-01
    outer loop
      vertex   -2.592822e+00 8.373786e+00 6.728106e+00
      vertex   -2.551355e+00 8.239862e+00 6.926245e+00
      vertex   -2.388692e+00 8.431594e+00 6.728106e+00
    endloop
  endfacet
  facet normal -2.257421e-01 7.971337e-01 5.600164e-01
    outer loop
      vertex   -2.592822e+00 8.373786e+00 6.728106e+00
      vertex   -2.388692e+00 8.431594e+00 6.728106e+00
      vertex   -2.425715e+00 8.562281e+00 6.527161e+00
    endloop
  endfacet
  facet normal -2.071993e-01 8.022263e-01 5.599120e-01
    outer loop
      vertex   -2.425715e+00 8.562281e+00 6.527161e+00
      vertex   -2.388692e+00 8.431594e+00 6.728106e+00
      vertex   -2.218354e+00 8.615838e+00 6.527161e+00
    endloop
  endfacet
  facet normal -2.101152e-01 8.135159e-01 5.422578e-01
    outer loop
      vertex   -2.425715e+00 8.562281e+00 6.527161e+00
      vertex   -2.218354e+00 8.615838e+00 6.527161e+00
      vertex   -2.251117e+00 8.743084e+00 6.323566e+00
    endloop
  endfacet
  facet normal -1.854341e-01 8.196043e-01 5.420914e-01
    outer loop
      vertex   -2.251117e+00 8.743084e+00 6.323566e+00
      vertex   -2.218354e+00 8.615838e+00 6.527161e+00
      vertex   -1.908313e+00 8.820643e+00 6.323566e+00
    endloop
  endfacet
  facet normal -1.879129e-01 8.305603e-01 5.242693e-01
    outer loop
      vertex   -2.251117e+00 8.743084e+00 6.323566e+00
      vertex   -1.908313e+00 8.820643e+00 6.323566e+00
      vertex   -1.935144e+00 8.944659e+00 6.117480e+00
    endloop
  endfacet
  facet normal -1.570288e-01 8.370292e-01 5.241412e-01
    outer loop
      vertex   -1.935144e+00 8.944659e+00 6.117480e+00
      vertex   -1.908313e+00 8.820643e+00 6.323566e+00
      vertex   -1.566868e+00 8.886149e+00 6.321250e+00
    endloop
  endfacet
  facet normal -1.569260e-01 8.371441e-01 5.239885e-01
    outer loop
      vertex   -1.935144e+00 8.944659e+00 6.117480e+00
      vertex   -1.566868e+00 8.886149e+00 6.321250e+00
      vertex   -1.588763e+00 9.010322e+00 6.116310e+00
    endloop
  endfacet
  facet normal -2.236790e-01 7.714839e-01 5.956343e-01
    outer loop
      vertex   -2.551330e+00 8.091179e+00 7.118833e+00
      vertex   -2.373869e+00 8.143544e+00 7.117650e+00
      vertex   -2.551355e+00 8.239862e+00 6.926245e+00
    endloop
  endfacet
  facet normal -2.193598e-01 7.745968e-01 5.931957e-01
    outer loop
      vertex   -2.551355e+00 8.239862e+00 6.926245e+00
      vertex   -2.373869e+00 8.143544e+00 7.117650e+00
      vertex   -2.350489e+00 8.296746e+00 6.926245e+00
    endloop
  endfacet
  facet normal -2.224500e-01 7.855087e-01 5.774877e-01
    outer loop
      vertex   -2.551355e+00 8.239862e+00 6.926245e+00
      vertex   -2.350489e+00 8.296746e+00 6.926245e+00
      vertex   -2.388692e+00 8.431594e+00 6.728106e+00
    endloop
  endfacet
  facet normal -2.041788e-01 7.905313e-01 5.773831e-01
    outer loop
      vertex   -2.388692e+00 8.431594e+00 6.728106e+00
      vertex   -2.350489e+00 8.296746e+00 6.926245e+00
      vertex   -2.184496e+00 8.484334e+00 6.728106e+00
    endloop
  endfacet
  facet normal -2.071993e-01 8.022263e-01 5.599120e-01
    outer loop
      vertex   -2.388692e+00 8.431594e+00 6.728106e+00
      vertex   -2.184496e+00 8.484334e+00 6.728106e+00
      vertex   -2.218354e+00 8.615838e+00 6.527161e+00
    endloop
  endfacet
  facet normal -1.828623e-01 8.082370e-01 5.597448e-01
    outer loop
      vertex   -2.218354e+00 8.615838e+00 6.527161e+00
      vertex   -2.184496e+00 8.484334e+00 6.728106e+00
      vertex   -1.880540e+00 8.692268e+00 6.527161e+00
    endloop
  endfacet
  facet normal -1.854341e-01 8.196043e-01 5.420914e-01
    outer loop
      vertex   -2.218354e+00 8.615838e+00 6.527161e+00
      vertex   -1.880540e+00 8.692268e+00 6.527161e+00
      vertex   -1.908313e+00 8.820643e+00 6.323566e+00
    endloop
  endfacet
  facet normal -1.550110e-01 8.259828e-01 5.419631e-01
    outer loop
      vertex   -1.908313e+00 8.820643e+00 6.323566e+00
      vertex   -1.880540e+00 8.692268e+00 6.527161e+00
      vertex   -1.544238e+00 8.757808e+00 6.523462e+00
    endloop
  endfacet
  facet normal -1.548302e-01 8.261899e-01 5.416990e-01
    outer loop
      vertex   -1.908313e+00 8.820643e+00 6.323566e+00
      vertex   -1.544238e+00 8.757808e+00 6.523462e+00
      vertex   -1.566868e+00 8.886149e+00 6.321250e+00
    endloop
  endfacet
  facet normal -2.074168e-01 7.759406e-01 5.957302e-01
    outer loop
      vertex   -2.373869e+00 8.143544e+00 7.117650e+00
      vertex   -2.195314e+00 8.192121e+00 7.116547e+00
      vertex   -2.350489e+00 8.296746e+00 6.926245e+00
    endloop
  endfacet
  facet normal -2.013825e-01 7.797047e-01 5.928791e-01
    outer loop
      vertex   -2.350489e+00 8.296746e+00 6.926245e+00
      vertex   -2.195314e+00 8.192121e+00 7.116547e+00
      vertex   -2.149558e+00 8.348642e+00 6.926245e+00
    endloop
  endfacet
  facet normal -2.041788e-01 7.905313e-01 5.773831e-01
    outer loop
      vertex   -2.350489e+00 8.296746e+00 6.926245e+00
      vertex   -2.149558e+00 8.348642e+00 6.926245e+00
      vertex   -2.184496e+00 8.484334e+00 6.728106e+00
    endloop
  endfacet
  facet normal -1.801981e-01 7.964613e-01 5.772157e-01
    outer loop
      vertex   -2.184496e+00 8.484334e+00 6.728106e+00
      vertex   -2.149558e+00 8.348642e+00 6.926245e+00
      vertex   -1.851837e+00 8.559597e+00 6.728106e+00
    endloop
  endfacet
  facet normal -1.828623e-01 8.082370e-01 5.597448e-01
    outer loop
      vertex   -2.184496e+00 8.484334e+00 6.728106e+00
      vertex   -1.851837e+00 8.559597e+00 6.728106e+00
      vertex   -1.880540e+00 8.692268e+00 6.527161e+00
    endloop
  endfacet
  facet normal -1.529236e-01 8.145203e-01 5.596168e-01
    outer loop
      vertex   -1.880540e+00 8.692268e+00 6.527161e+00
      vertex   -1.851837e+00 8.559597e+00 6.728106e+00
      vertex   -1.520879e+00 8.625332e+00 6.722869e+00
    endloop
  endfacet
  facet normal -1.526499e-01 8.148416e-01 5.592237e-01
    outer loop
      vertex   -1.880540e+00 8.692268e+00 6.527161e+00
      vertex   -1.520879e+00 8.625332e+00 6.722869e+00
      vertex   -1.544238e+00 8.757808e+00 6.523462e+00
    endloop
  endfacet
  facet normal -1.911013e-01 7.801370e-01 5.957067e-01
    outer loop
      vertex   -2.195314e+00 8.192121e+00 7.116547e+00
      vertex   -2.015762e+00 8.236885e+00 7.115524e+00
      vertex   -2.149558e+00 8.348642e+00 6.926245e+00
    endloop
  endfacet
  facet normal -1.780745e-01 7.870751e-01 5.905948e-01
    outer loop
      vertex   -2.149558e+00 8.348642e+00 6.926245e+00
      vertex   -2.015762e+00 8.236885e+00 7.115524e+00
      vertex   -1.822220e+00 8.422702e+00 6.926245e+00
    endloop
  endfacet
  facet normal -1.801981e-01 7.964613e-01 5.772157e-01
    outer loop
      vertex   -2.149558e+00 8.348642e+00 6.926245e+00
      vertex   -1.822220e+00 8.422702e+00 6.926245e+00
      vertex   -1.851837e+00 8.559597e+00 6.728106e+00
    endloop
  endfacet
  facet normal -1.507648e-01 8.026449e-01 5.770885e-01
    outer loop
      vertex   -1.851837e+00 8.559597e+00 6.728106e+00
      vertex   -1.822220e+00 8.422702e+00 6.926245e+00
      vertex   -1.496796e+00 8.488754e+00 6.919393e+00
    endloop
  endfacet
  facet normal -1.503870e-01 8.030987e-01 5.765554e-01
    outer loop
      vertex   -1.851837e+00 8.559597e+00 6.728106e+00
      vertex   -1.496796e+00 8.488754e+00 6.919393e+00
      vertex   -1.520879e+00 8.625332e+00 6.722869e+00
    endloop
  endfacet
  facet normal -1.752285e-01 7.861837e-01 5.926298e-01
    outer loop
      vertex   -2.015762e+00 8.236885e+00 7.115524e+00
      vertex   -1.835316e+00 8.277812e+00 7.114583e+00
      vertex   -1.822220e+00 8.422702e+00 6.926245e+00
    endloop
  endfacet
  facet normal -1.583462e-01 7.878869e-01 5.951140e-01
    outer loop
      vertex   -1.822220e+00 8.422702e+00 6.926245e+00
      vertex   -1.835316e+00 8.277812e+00 7.114583e+00
      vertex   -1.654040e+00 8.314891e+00 7.113727e+00
    endloop
  endfacet
  facet normal -1.486881e-01 7.937337e-01 5.898124e-01
    outer loop
      vertex   -1.822220e+00 8.422702e+00 6.926245e+00
      vertex   -1.654040e+00 8.314891e+00 7.113727e+00
      vertex   -1.496796e+00 8.488754e+00 6.919393e+00
    endloop
  endfacet
  facet normal -1.420152e-01 7.920509e-01 5.937062e-01
    outer loop
      vertex   -1.496796e+00 8.488754e+00 6.919393e+00
      vertex   -1.654040e+00 8.314891e+00 7.113727e+00
      vertex   -1.471997e+00 8.348109e+00 7.112957e+00
    endloop
  endfacet
  facet normal -1.584693e-01 8.450475e-01 5.106684e-01
    outer loop
      vertex   -1.935144e+00 8.944659e+00 6.117480e+00
      vertex   -1.588763e+00 9.010322e+00 6.116310e+00
      vertex   -1.948201e+00 9.005014e+00 6.013553e+00
    endloop
  endfacet
  facet normal -1.572090e-01 8.480222e-01 5.061064e-01
    outer loop
      vertex   -1.948201e+00 9.005014e+00 6.013553e+00
      vertex   -1.588763e+00 9.010322e+00 6.116310e+00
      vertex   -1.609917e+00 9.130292e+00 5.908719e+00
    endloop
  endfacet
  facet normal -1.594200e-01 8.502580e-01 5.016438e-01
    outer loop
      vertex   -1.948201e+00 9.005014e+00 6.013553e+00
      vertex   -1.609917e+00 9.130292e+00 5.908719e+00
      vertex   -1.961019e+00 9.064258e+00 5.909064e+00
    endloop
  endfacet
  facet normal -1.603878e-01 8.553568e-01 4.925854e-01
    outer loop
      vertex   -1.961019e+00 9.064258e+00 5.909064e+00
      vertex   -1.609917e+00 9.130292e+00 5.908719e+00
      vertex   -1.973594e+00 9.122386e+00 5.804033e+00
    endloop
  endfacet
  facet normal -1.920262e-01 8.487407e-01 4.927120e-01
    outer loop
      vertex   -1.961019e+00 9.064258e+00 5.909064e+00
      vertex   -1.973594e+00 9.122386e+00 5.804033e+00
      vertex   -2.313290e+00 8.984558e+00 5.909064e+00
    endloop
  endfacet
  facet normal -1.920262e-01 8.487407e-01 4.927120e-01
    outer loop
      vertex   -2.313290e+00 8.984558e+00 5.909064e+00
      vertex   -1.973594e+00 9.122386e+00 5.804033e+00
      vertex   -2.328125e+00 9.042174e+00 5.804033e+00
    endloop
  endfacet
  facet normal -2.175895e-01 8.424546e-01 4.928743e-01
    outer loop
      vertex   -2.313290e+00 8.984558e+00 5.909064e+00
      vertex   -2.328125e+00 9.042174e+00 5.804033e+00
      vertex   -2.529525e+00 8.928708e+00 5.909064e+00
    endloop
  endfacet
  facet normal -1.591422e-01 8.581880e-01 4.880442e-01
    outer loop
      vertex   -1.609917e+00 9.130292e+00 5.908719e+00
      vertex   -1.630324e+00 9.246027e+00 5.698555e+00
      vertex   -1.973594e+00 9.122386e+00 5.804033e+00
    endloop
  endfacet
  facet normal -1.613205e-01 8.603540e-01 4.834942e-01
    outer loop
      vertex   -1.973594e+00 9.122386e+00 5.804033e+00
      vertex   -1.630324e+00 9.246027e+00 5.698555e+00
      vertex   -1.985927e+00 9.179391e+00 5.698481e+00
    endloop
  endfacet
  facet normal -1.931485e-01 8.537010e-01 4.836200e-01
    outer loop
      vertex   -1.973594e+00 9.122386e+00 5.804033e+00
      vertex   -1.985927e+00 9.179391e+00 5.698481e+00
      vertex   -2.328125e+00 9.042174e+00 5.804033e+00
    endloop
  endfacet
  facet normal -1.746015e-01 8.690969e-01 4.628012e-01
    outer loop
      vertex   -1.854110e+00 9.320512e+00 5.486640e+00
      vertex   -2.057393e+00 9.279230e+00 5.487470e+00
      vertex   -1.998016e+00 9.235268e+00 5.592427e+00
    endloop
  endfacet
  facet normal -1.919468e-01 8.617872e-01 4.695522e-01
    outer loop
      vertex   -1.998016e+00 9.235268e+00 5.592427e+00
      vertex   -2.057393e+00 9.279230e+00 5.487470e+00
      vertex   -2.259759e+00 9.233660e+00 5.488381e+00
    endloop
  endfacet
  facet normal -1.941650e-01 8.581937e-01 4.751878e-01
    outer loop
      vertex   -1.998016e+00 9.235268e+00 5.592427e+00
      vertex   -2.259759e+00 9.233660e+00 5.488381e+00
      vertex   -2.356934e+00 9.154064e+00 5.592427e+00
    endloop
  endfacet
  facet normal -2.109469e-01 8.614321e-01 4.619915e-01
    outer loop
      vertex   -2.356934e+00 9.154064e+00 5.592427e+00
      vertex   -2.259759e+00 9.233660e+00 5.488381e+00
      vertex   -2.461136e+00 9.183815e+00 5.489373e+00
    endloop
  endfacet
  facet normal -2.207403e-01 8.546536e-01 4.699371e-01
    outer loop
      vertex   -2.356934e+00 9.154064e+00 5.592427e+00
      vertex   -2.461136e+00 9.183815e+00 5.489373e+00
      vertex   -2.577248e+00 9.097161e+00 5.592427e+00
    endloop
  endfacet
  facet normal -2.289055e-01 8.566197e-01 4.623904e-01
    outer loop
      vertex   -2.577248e+00 9.097161e+00 5.592427e+00
      vertex   -2.461136e+00 9.183815e+00 5.489373e+00
      vertex   -2.661409e+00 9.129721e+00 5.490443e+00
    endloop
  endfacet
  facet normal -2.405495e-01 8.494213e-01 4.697013e-01
    outer loop
      vertex   -2.577248e+00 9.097161e+00 5.592427e+00
      vertex   -2.661409e+00 9.129721e+00 5.490443e+00
      vertex   -2.797493e+00 9.034789e+00 5.592427e+00
    endloop
  endfacet
  facet normal -2.467100e-01 8.512379e-01 4.631719e-01
    outer loop
      vertex   -2.797493e+00 9.034789e+00 5.592427e+00
      vertex   -2.661409e+00 9.129721e+00 5.490443e+00
      vertex   -2.860471e+00 9.071404e+00 5.491590e+00
    endloop
  endfacet
  facet normal -2.604277e-01 8.438896e-01 4.690712e-01
    outer loop
      vertex   -2.797493e+00 9.034789e+00 5.592427e+00
      vertex   -2.860471e+00 9.071404e+00 5.491590e+00
      vertex   -3.017465e+00 8.966905e+00 5.592427e+00
    endloop
  endfacet
  facet normal -2.643282e-01 8.452530e-01 4.644115e-01
    outer loop
      vertex   -3.017465e+00 8.966905e+00 5.592427e+00
      vertex   -2.860471e+00 9.071404e+00 5.491590e+00
      vertex   -3.058254e+00 9.008883e+00 5.492810e+00
    endloop
  endfacet
  facet normal -2.813746e-01 8.376362e-01 4.681815e-01
    outer loop
      vertex   -3.017465e+00 8.966905e+00 5.592427e+00
      vertex   -3.058254e+00 9.008883e+00 5.492810e+00
      vertex   -3.254686e+00 8.942176e+00 5.494102e+00
    endloop
  endfacet
  facet normal -2.823950e-01 8.356266e-01 4.711489e-01
    outer loop
      vertex   -3.254686e+00 8.942176e+00 5.494102e+00
      vertex   -3.215830e+00 8.835421e+00 5.706731e+00
      vertex   -3.017465e+00 8.966905e+00 5.592427e+00
    endloop
  endfacet
  facet normal -2.794118e-01 8.344584e-01 4.749823e-01
    outer loop
      vertex   -3.017465e+00 8.966905e+00 5.592427e+00
      vertex   -3.215830e+00 8.835421e+00 5.706731e+00
      vertex   -2.999208e+00 8.912651e+00 5.698481e+00
    endloop
  endfacet
  facet normal -2.595130e-01 8.409257e-01 4.748652e-01
    outer loop
      vertex   -3.017465e+00 8.966905e+00 5.592427e+00
      vertex   -2.999208e+00 8.912651e+00 5.698481e+00
      vertex   -2.797493e+00 9.034789e+00 5.592427e+00
    endloop
  endfacet
  facet normal -2.595130e-01 8.409257e-01 4.748652e-01
    outer loop
      vertex   -2.797493e+00 9.034789e+00 5.592427e+00
      vertex   -2.999208e+00 8.912651e+00 5.698481e+00
      vertex   -2.780567e+00 8.980125e+00 5.698481e+00
    endloop
  endfacet
  facet normal -2.398116e-01 8.468155e-01 4.747567e-01
    outer loop
      vertex   -2.797493e+00 9.034789e+00 5.592427e+00
      vertex   -2.780567e+00 8.980125e+00 5.698481e+00
      vertex   -2.577248e+00 9.097161e+00 5.592427e+00
    endloop
  endfacet
  facet normal -2.398116e-01 8.468155e-01 4.747567e-01
    outer loop
      vertex   -2.577248e+00 9.097161e+00 5.592427e+00
      vertex   -2.780567e+00 8.980125e+00 5.698481e+00
      vertex   -2.561655e+00 9.042119e+00 5.698481e+00
    endloop
  endfacet
  facet normal -2.201079e-01 8.522050e-01 4.746568e-01
    outer loop
      vertex   -2.577248e+00 9.097161e+00 5.592427e+00
      vertex   -2.561655e+00 9.042119e+00 5.698481e+00
      vertex   -2.356934e+00 9.154064e+00 5.592427e+00
    endloop
  endfacet
  facet normal -2.201079e-01 8.522050e-01 4.746568e-01
    outer loop
      vertex   -2.356934e+00 9.154064e+00 5.592427e+00
      vertex   -2.561655e+00 9.042119e+00 5.698481e+00
      vertex   -2.342673e+00 9.098678e+00 5.698481e+00
    endloop
  endfacet
  facet normal -1.942472e-01 8.585573e-01 4.744969e-01
    outer loop
      vertex   -2.356934e+00 9.154064e+00 5.592427e+00
      vertex   -2.342673e+00 9.098678e+00 5.698481e+00
      vertex   -1.998016e+00 9.235268e+00 5.592427e+00
    endloop
  endfacet
  facet normal -2.774261e-01 8.298635e-01 4.841088e-01
    outer loop
      vertex   -2.999208e+00 8.912651e+00 5.698481e+00
      vertex   -3.215830e+00 8.835421e+00 5.706731e+00
      vertex   -2.980583e+00 8.857303e+00 5.804033e+00
    endloop
  endfacet
  facet normal -2.792633e-01 8.261429e-01 4.893872e-01
    outer loop
      vertex   -2.980583e+00 8.857303e+00 5.804033e+00
      vertex   -3.215830e+00 8.835421e+00 5.706731e+00
      vertex   -3.175484e+00 8.724571e+00 5.916882e+00
    endloop
  endfacet
  facet normal -2.762063e-01 8.248996e-01 4.932046e-01
    outer loop
      vertex   -2.980583e+00 8.857303e+00 5.804033e+00
      vertex   -3.175484e+00 8.724571e+00 5.916882e+00
      vertex   -2.961590e+00 8.800864e+00 5.909064e+00
    endloop
  endfacet
  facet normal -2.741628e-01 8.200993e-01 5.022667e-01
    outer loop
      vertex   -2.961590e+00 8.800864e+00 5.909064e+00
      vertex   -3.175484e+00 8.724571e+00 5.916882e+00
      vertex   -2.942233e+00 8.743342e+00 6.013553e+00
    endloop
  endfacet
  facet normal -2.550083e-01 8.263285e-01 5.021474e-01
    outer loop
      vertex   -2.961590e+00 8.800864e+00 5.909064e+00
      vertex   -2.942233e+00 8.743342e+00 6.013553e+00
      vertex   -2.745691e+00 8.867492e+00 5.909064e+00
    endloop
  endfacet
  facet normal -2.760074e-01 8.162747e-01 5.074599e-01
    outer loop
      vertex   -3.175484e+00 8.724571e+00 5.916882e+00
      vertex   -3.133658e+00 8.609655e+00 6.124479e+00
      vertex   -2.942233e+00 8.743342e+00 6.013553e+00
    endloop
  endfacet
  facet normal -2.407174e-01 7.800205e-01 5.776013e-01
    outer loop
      vertex   -2.751973e+00 8.177951e+00 6.926245e+00
      vertex   -2.592822e+00 8.373786e+00 6.728106e+00
      vertex   -2.796701e+00 8.310868e+00 6.728106e+00
    endloop
  endfacet
  facet normal -2.442813e-01 7.915689e-01 5.601298e-01
    outer loop
      vertex   -2.796701e+00 8.310868e+00 6.728106e+00
      vertex   -2.592822e+00 8.373786e+00 6.728106e+00
      vertex   -2.633010e+00 8.503576e+00 6.527161e+00
    endloop
  endfacet
  facet normal -2.442813e-01 7.915689e-01 5.601298e-01
    outer loop
      vertex   -2.796701e+00 8.310868e+00 6.728106e+00
      vertex   -2.633010e+00 8.503576e+00 6.527161e+00
      vertex   -2.840049e+00 8.439683e+00 6.527161e+00
    endloop
  endfacet
  facet normal -2.477217e-01 8.027173e-01 5.424748e-01
    outer loop
      vertex   -2.840049e+00 8.439683e+00 6.527161e+00
      vertex   -2.633010e+00 8.503576e+00 6.527161e+00
      vertex   -2.671897e+00 8.629165e+00 6.323566e+00
    endloop
  endfacet
  facet normal -2.477217e-01 8.027173e-01 5.424748e-01
    outer loop
      vertex   -2.840049e+00 8.439683e+00 6.527161e+00
      vertex   -2.671897e+00 8.629165e+00 6.323566e+00
      vertex   -2.881993e+00 8.564328e+00 6.323566e+00
    endloop
  endfacet
  facet normal -2.510380e-01 8.134631e-01 5.246501e-01
    outer loop
      vertex   -2.881993e+00 8.564328e+00 6.323566e+00
      vertex   -2.671897e+00 8.629165e+00 6.323566e+00
      vertex   -2.709463e+00 8.750489e+00 6.117480e+00
    endloop
  endfacet
  facet normal -2.510380e-01 8.134631e-01 5.246501e-01
    outer loop
      vertex   -2.881993e+00 8.564328e+00 6.323566e+00
      vertex   -2.709463e+00 8.750489e+00 6.117480e+00
      vertex   -2.922513e+00 8.684740e+00 6.117480e+00
    endloop
  endfacet
  facet normal -2.534439e-01 8.212593e-01 5.111745e-01
    outer loop
      vertex   -2.922513e+00 8.684740e+00 6.117480e+00
      vertex   -2.709463e+00 8.750489e+00 6.117480e+00
      vertex   -2.727745e+00 8.809533e+00 6.013553e+00
    endloop
  endfacet
  facet normal -2.580428e-01 8.361618e-01 4.839911e-01
    outer loop
      vertex   -2.780567e+00 8.980125e+00 5.698481e+00
      vertex   -2.999208e+00 8.912651e+00 5.698481e+00
      vertex   -2.980583e+00 8.857303e+00 5.804033e+00
    endloop
  endfacet
  facet normal -2.565413e-01 8.312960e-01 4.930857e-01
    outer loop
      vertex   -2.980583e+00 8.857303e+00 5.804033e+00
      vertex   -2.961590e+00 8.800864e+00 5.909064e+00
      vertex   -2.763299e+00 8.924357e+00 5.804033e+00
    endloop
  endfacet
  facet normal -2.565413e-01 8.312960e-01 4.930857e-01
    outer loop
      vertex   -2.763299e+00 8.924357e+00 5.804033e+00
      vertex   -2.961590e+00 8.800864e+00 5.909064e+00
      vertex   -2.745691e+00 8.867492e+00 5.909064e+00
    endloop
  endfacet
  facet normal -2.370667e-01 8.371227e-01 4.929757e-01
    outer loop
      vertex   -2.763299e+00 8.924357e+00 5.804033e+00
      vertex   -2.745691e+00 8.867492e+00 5.909064e+00
      vertex   -2.545747e+00 8.985967e+00 5.804033e+00
    endloop
  endfacet
  facet normal -2.257421e-01 7.971337e-01 5.600164e-01
    outer loop
      vertex   -2.592822e+00 8.373786e+00 6.728106e+00
      vertex   -2.425715e+00 8.562281e+00 6.527161e+00
      vertex   -2.633010e+00 8.503576e+00 6.527161e+00
    endloop
  endfacet
  facet normal -2.289201e-01 8.083559e-01 5.423618e-01
    outer loop
      vertex   -2.633010e+00 8.503576e+00 6.527161e+00
      vertex   -2.425715e+00 8.562281e+00 6.527161e+00
      vertex   -2.461541e+00 8.688736e+00 6.323566e+00
    endloop
  endfacet
  facet normal -2.289201e-01 8.083559e-01 5.423618e-01
    outer loop
      vertex   -2.633010e+00 8.503576e+00 6.527161e+00
      vertex   -2.461541e+00 8.688736e+00 6.323566e+00
      vertex   -2.671897e+00 8.629165e+00 6.323566e+00
    endloop
  endfacet
  facet normal -2.319833e-01 8.191726e-01 5.245379e-01
    outer loop
      vertex   -2.671897e+00 8.629165e+00 6.323566e+00
      vertex   -2.461541e+00 8.688736e+00 6.323566e+00
      vertex   -2.496149e+00 8.810897e+00 6.117480e+00
    endloop
  endfacet
  facet normal -2.319833e-01 8.191726e-01 5.245379e-01
    outer loop
      vertex   -2.671897e+00 8.629165e+00 6.323566e+00
      vertex   -2.496149e+00 8.810897e+00 6.117480e+00
      vertex   -2.709463e+00 8.750489e+00 6.117480e+00
    endloop
  endfacet
  facet normal -2.342057e-01 8.270201e-01 5.110631e-01
    outer loop
      vertex   -2.709463e+00 8.750489e+00 6.117480e+00
      vertex   -2.496149e+00 8.810897e+00 6.117480e+00
      vertex   -2.512992e+00 8.870350e+00 6.013553e+00
    endloop
  endfacet
  facet normal -2.342057e-01 8.270201e-01 5.110631e-01
    outer loop
      vertex   -2.709463e+00 8.750489e+00 6.117480e+00
      vertex   -2.512992e+00 8.870350e+00 6.013553e+00
      vertex   -2.727745e+00 8.809533e+00 6.013553e+00
    endloop
  endfacet
  facet normal -2.356507e-01 8.321226e-01 5.020367e-01
    outer loop
      vertex   -2.727745e+00 8.809533e+00 6.013553e+00
      vertex   -2.512992e+00 8.870350e+00 6.013553e+00
      vertex   -2.529525e+00 8.928708e+00 5.909064e+00
    endloop
  endfacet
  facet normal -2.384536e-01 8.420204e-01 4.838818e-01
    outer loop
      vertex   -2.561655e+00 9.042119e+00 5.698481e+00
      vertex   -2.780567e+00 8.980125e+00 5.698481e+00
      vertex   -2.763299e+00 8.924357e+00 5.804033e+00
    endloop
  endfacet
  facet normal -2.580428e-01 8.361618e-01 4.839911e-01
    outer loop
      vertex   -2.763299e+00 8.924357e+00 5.804033e+00
      vertex   -2.780567e+00 8.980125e+00 5.698481e+00
      vertex   -2.980583e+00 8.857303e+00 5.804033e+00
    endloop
  endfacet
  facet normal -2.384536e-01 8.420204e-01 4.838818e-01
    outer loop
      vertex   -2.561655e+00 9.042119e+00 5.698481e+00
      vertex   -2.763299e+00 8.924357e+00 5.804033e+00
      vertex   -2.545747e+00 8.985967e+00 5.804033e+00
    endloop
  endfacet
  facet normal -2.101152e-01 8.135159e-01 5.422578e-01
    outer loop
      vertex   -2.425715e+00 8.562281e+00 6.527161e+00
      vertex   -2.251117e+00 8.743084e+00 6.323566e+00
      vertex   -2.461541e+00 8.688736e+00 6.323566e+00
    endloop
  endfacet
  facet normal -2.129257e-01 8.243974e-01 5.244346e-01
    outer loop
      vertex   -2.461541e+00 8.688736e+00 6.323566e+00
      vertex   -2.251117e+00 8.743084e+00 6.323566e+00
      vertex   -2.282767e+00 8.866010e+00 6.117480e+00
    endloop
  endfacet
  facet normal -2.129257e-01 8.243974e-01 5.244346e-01
    outer loop
      vertex   -2.461541e+00 8.688736e+00 6.323566e+00
      vertex   -2.282767e+00 8.866010e+00 6.117480e+00
      vertex   -2.496149e+00 8.810897e+00 6.117480e+00
    endloop
  endfacet
  facet normal -2.149647e-01 8.322918e-01 5.109605e-01
    outer loop
      vertex   -2.496149e+00 8.810897e+00 6.117480e+00
      vertex   -2.282767e+00 8.866010e+00 6.117480e+00
      vertex   -2.298170e+00 8.925834e+00 6.013553e+00
    endloop
  endfacet
  facet normal -2.149647e-01 8.322918e-01 5.109605e-01
    outer loop
      vertex   -2.496149e+00 8.810897e+00 6.117480e+00
      vertex   -2.298170e+00 8.925834e+00 6.013553e+00
      vertex   -2.512992e+00 8.870350e+00 6.013553e+00
    endloop
  endfacet
  facet normal -2.162904e-01 8.374247e-01 5.019346e-01
    outer loop
      vertex   -2.512992e+00 8.870350e+00 6.013553e+00
      vertex   -2.298170e+00 8.925834e+00 6.013553e+00
      vertex   -2.313290e+00 8.984558e+00 5.909064e+00
    endloop
  endfacet
  facet normal -2.162904e-01 8.374247e-01 5.019346e-01
    outer loop
      vertex   -2.512992e+00 8.870350e+00 6.013553e+00
      vertex   -2.313290e+00 8.984558e+00 5.909064e+00
      vertex   -2.529525e+00 8.928708e+00 5.909064e+00
    endloop
  endfacet
  facet normal -2.188620e-01 8.473814e-01 4.837811e-01
    outer loop
      vertex   -2.342673e+00 9.098678e+00 5.698481e+00
      vertex   -2.561655e+00 9.042119e+00 5.698481e+00
      vertex   -2.545747e+00 8.985967e+00 5.804033e+00
    endloop
  endfacet
  facet normal -1.879129e-01 8.305603e-01 5.242693e-01
    outer loop
      vertex   -2.251117e+00 8.743084e+00 6.323566e+00
      vertex   -1.935144e+00 8.944659e+00 6.117480e+00
      vertex   -2.282767e+00 8.866010e+00 6.117480e+00
    endloop
  endfacet
  facet normal -1.897112e-01 8.385087e-01 5.107963e-01
    outer loop
      vertex   -2.282767e+00 8.866010e+00 6.117480e+00
      vertex   -1.935144e+00 8.944659e+00 6.117480e+00
      vertex   -1.948201e+00 9.005014e+00 6.013553e+00
    endloop
  endfacet
  facet normal -1.897112e-01 8.385087e-01 5.107963e-01
    outer loop
      vertex   -2.282767e+00 8.866010e+00 6.117480e+00
      vertex   -1.948201e+00 9.005014e+00 6.013553e+00
      vertex   -2.298170e+00 8.925834e+00 6.013553e+00
    endloop
  endfacet
  facet normal -1.908805e-01 8.436766e-01 5.017713e-01
    outer loop
      vertex   -2.298170e+00 8.925834e+00 6.013553e+00
      vertex   -1.948201e+00 9.005014e+00 6.013553e+00
      vertex   -1.961019e+00 9.064258e+00 5.909064e+00
    endloop
  endfacet
  facet normal -1.908805e-01 8.436766e-01 5.017713e-01
    outer loop
      vertex   -2.298170e+00 8.925834e+00 6.013553e+00
      vertex   -1.961019e+00 9.064258e+00 5.909064e+00
      vertex   -2.313290e+00 8.984558e+00 5.909064e+00
    endloop
  endfacet
  facet normal -9.396926e-01 -3.420201e-01 -9.664756e-15
    outer loop
      vertex   -2.902719e+00 7.975155e+00 7.121424e+00
      vertex   -2.951778e+00 8.109944e+00 6.927766e+00
      vertex   -2.307555e-14 0.000000e+00 -1.776357e-14
    endloop
  endfacet
  facet normal -9.396926e-01 -3.420201e-01 1.334800e-15
    outer loop
      vertex   -2.307555e-14 0.000000e+00 -1.776357e-14
      vertex   -2.951778e+00 8.109944e+00 6.927766e+00
      vertex   -2.999413e+00 8.240818e+00 6.731165e+00
    endloop
  endfacet
  facet normal -9.396926e-01 -3.420201e-01 2.672736e-15
    outer loop
      vertex   -2.307555e-14 0.000000e+00 -1.776357e-14
      vertex   -2.999413e+00 8.240818e+00 6.731165e+00
      vertex   -3.045611e+00 8.367748e+00 6.531698e+00
    endloop
  endfacet
  facet normal -9.396926e-01 -3.420201e-01 -8.361114e-16
    outer loop
      vertex   -3.045611e+00 8.367748e+00 6.531698e+00
      vertex   -3.090364e+00 8.490704e+00 6.329444e+00
      vertex   -2.307555e-14 0.000000e+00 -1.776357e-14
    endloop
  endfacet
  facet normal -9.396926e-01 -3.420201e-01 2.678066e-15
    outer loop
      vertex   -2.307555e-14 0.000000e+00 -1.776357e-14
      vertex   -3.090364e+00 8.490704e+00 6.329444e+00
      vertex   -3.133658e+00 8.609655e+00 6.124479e+00
    endloop
  endfacet
  facet normal -9.396926e-01 -3.420201e-01 -1.340135e-15
    outer loop
      vertex   -2.307555e-14 0.000000e+00 -1.776357e-14
      vertex   -3.133658e+00 8.609655e+00 6.124479e+00
      vertex   -3.175484e+00 8.724571e+00 5.916882e+00
    endloop
  endfacet
  facet normal -9.396926e-01 -3.420201e-01 4.002304e-15
    outer loop
      vertex   -3.175484e+00 8.724571e+00 5.916882e+00
      vertex   -3.215830e+00 8.835421e+00 5.706731e+00
      vertex   -2.307555e-14 0.000000e+00 -1.776357e-14
    endloop
  endfacet
  facet normal -9.396926e-01 -3.420201e-01 -1.341889e-15
    outer loop
      vertex   -2.307555e-14 0.000000e+00 -1.776357e-14
      vertex   -3.215830e+00 8.835421e+00 5.706731e+00
      vertex   -3.254686e+00 8.942176e+00 5.494102e+00
    endloop
  endfacet
  facet normal 1.254222e-01 -6.305241e-01 7.659691e-01
    outer loop
      vertex   -2.307555e-14 0.000000e+00 -1.776357e-14
      vertex   -1.471997e+00 8.348109e+00 7.112957e+00
      vertex   -9.185000e-01 4.142895e+00 3.560712e+00
    endloop
  endfacet
  facet normal 1.184938e-01 -6.316113e-01 7.661765e-01
    outer loop
      vertex   -9.185000e-01 4.142895e+00 3.560712e+00
      vertex   -1.471997e+00 8.348109e+00 7.112957e+00
      vertex   -1.654040e+00 8.314891e+00 7.113727e+00
    endloop
  endfacet
  facet normal 1.322857e-01 -6.290511e-01 7.660256e-01
    outer loop
      vertex   -9.185000e-01 4.142895e+00 3.560712e+00
      vertex   -1.654040e+00 8.314891e+00 7.113727e+00
      vertex   -1.835316e+00 8.277812e+00 7.114583e+00
    endloop
  endfacet
  facet normal 1.459803e-01 -6.260148e-01 7.660256e-01
    outer loop
      vertex   -1.835316e+00 8.277812e+00 7.114583e+00
      vertex   -2.015762e+00 8.236885e+00 7.115524e+00
      vertex   -9.185000e-01 4.142895e+00 3.560712e+00
    endloop
  endfacet
  facet normal 1.527675e-01 -6.242775e-01 7.661199e-01
    outer loop
      vertex   -9.185000e-01 4.142895e+00 3.560712e+00
      vertex   -2.015762e+00 8.236885e+00 7.115524e+00
      vertex   -1.098353e+00 4.098883e+00 3.560712e+00
    endloop
  endfacet
  facet normal 1.528102e-01 -6.244521e-01 7.659691e-01
    outer loop
      vertex   -9.185000e-01 4.142895e+00 3.560712e+00
      vertex   -1.098353e+00 4.098883e+00 3.560712e+00
      vertex   -2.307555e-14 0.000000e+00 -1.776357e-14
    endloop
  endfacet
  facet normal 1.596046e-01 -6.226807e-01 7.660256e-01
    outer loop
      vertex   -2.015762e+00 8.236885e+00 7.115524e+00
      vertex   -2.195314e+00 8.192121e+00 7.116547e+00
      vertex   -1.098353e+00 4.098883e+00 3.560712e+00
    endloop
  endfacet
  facet normal 1.731517e-01 -6.190502e-01 7.660257e-01
    outer loop
      vertex   -1.098353e+00 4.098883e+00 3.560712e+00
      vertex   -2.195314e+00 8.192121e+00 7.116547e+00
      vertex   -2.373869e+00 8.143544e+00 7.117650e+00
    endloop
  endfacet
  facet normal 1.798531e-01 -6.170197e-01 7.661198e-01
    outer loop
      vertex   -1.098353e+00 4.098883e+00 3.560712e+00
      vertex   -2.373869e+00 8.143544e+00 7.117650e+00
      vertex   -1.276086e+00 4.047076e+00 3.560712e+00
    endloop
  endfacet
  facet normal 1.866131e-01 -6.151263e-01 7.660256e-01
    outer loop
      vertex   -1.276086e+00 4.047076e+00 3.560712e+00
      vertex   -2.373869e+00 8.143544e+00 7.117650e+00
      vertex   -2.551330e+00 8.091179e+00 7.118833e+00
    endloop
  endfacet
  facet normal 1.999825e-01 -6.109105e-01 7.660257e-01
    outer loop
      vertex   -1.276086e+00 4.047076e+00 3.560712e+00
      vertex   -2.551330e+00 8.091179e+00 7.118833e+00
      vertex   -2.727634e+00 8.035044e+00 7.120091e+00
    endloop
  endfacet
  facet normal 2.131982e-01 -6.062347e-01 7.661763e-01
    outer loop
      vertex   -2.727634e+00 8.035044e+00 7.120091e+00
      vertex   -2.902719e+00 7.975155e+00 7.121424e+00
      vertex   -1.276086e+00 4.047076e+00 3.560712e+00
    endloop
  endfacet
  facet normal 2.066494e-01 -6.087588e-01 7.659691e-01
    outer loop
      vertex   -1.276086e+00 4.047076e+00 3.560712e+00
      vertex   -2.902719e+00 7.975155e+00 7.121424e+00
      vertex   -2.307555e-14 0.000000e+00 -1.776357e-14
    endloop
  endfacet
  facet normal 1.799033e-01 -6.171921e-01 7.659691e-01
    outer loop
      vertex   -1.276086e+00 4.047076e+00 3.560712e+00
      vertex   -2.307555e-14 0.000000e+00 -1.776357e-14
      vertex   -1.098353e+00 4.098883e+00 3.560712e+00
    endloop
  endfacet
  facet normal -1.628027e-01 4.728133e-01 -8.659924e-01
    outer loop
      vertex   -2.307555e-14 0.000000e+00 -1.776357e-14
      vertex   -3.254686e+00 8.942176e+00 5.494102e+00
      vertex   -1.470313e+00 4.525158e+00 2.747051e+00
    endloop
  endfacet
  facet normal -1.658582e-01 4.716222e-01 -8.660621e-01
    outer loop
      vertex   -1.470313e+00 4.525158e+00 2.747051e+00
      vertex   -3.254686e+00 8.942176e+00 5.494102e+00
      vertex   -3.058254e+00 9.008883e+00 5.492810e+00
    endloop
  endfacet
  facet normal -1.555687e-01 4.752284e-01 -8.660002e-01
    outer loop
      vertex   -1.470313e+00 4.525158e+00 2.747051e+00
      vertex   -3.058254e+00 9.008883e+00 5.492810e+00
      vertex   -2.860471e+00 9.071404e+00 5.491590e+00
    endloop
  endfacet
  facet normal -1.461775e-01 4.781252e-01 -8.660418e-01
    outer loop
      vertex   -1.470313e+00 4.525158e+00 2.747051e+00
      vertex   -2.860471e+00 9.071404e+00 5.491590e+00
      vertex   -1.311491e+00 4.573714e+00 2.747051e+00
    endloop
  endfacet
  facet normal -1.451575e-01 4.784663e-01 -8.660250e-01
    outer loop
      vertex   -1.311491e+00 4.573714e+00 2.747051e+00
      vertex   -2.860471e+00 9.071404e+00 5.491590e+00
      vertex   -2.661409e+00 9.129721e+00 5.490443e+00
    endloop
  endfacet
  facet normal -1.346965e-01 4.815533e-01 -8.660042e-01
    outer loop
      vertex   -1.311491e+00 4.573714e+00 2.747051e+00
      vertex   -2.661409e+00 9.129721e+00 5.490443e+00
      vertex   -2.461136e+00 9.183815e+00 5.489373e+00
    endloop
  endfacet
  facet normal -1.293947e-01 4.829077e-01 -8.660584e-01
    outer loop
      vertex   -1.311491e+00 4.573714e+00 2.747051e+00
      vertex   -2.461136e+00 9.183815e+00 5.489373e+00
      vertex   -1.151072e+00 4.616698e+00 2.747051e+00
    endloop
  endfacet
  facet normal -1.241581e-01 4.843773e-01 -8.660043e-01
    outer loop
      vertex   -1.151072e+00 4.616698e+00 2.747051e+00
      vertex   -2.461136e+00 9.183815e+00 5.489373e+00
      vertex   -2.259759e+00 9.233660e+00 5.488381e+00
    endloop
  endfacet
  facet normal -1.135518e-01 4.869364e-01 -8.660248e-01
    outer loop
      vertex   -1.151072e+00 4.616698e+00 2.747051e+00
      vertex   -2.259759e+00 9.233660e+00 5.488381e+00
      vertex   -2.057393e+00 9.279230e+00 5.487470e+00
    endloop
  endfacet
  facet normal -1.124690e-01 4.871570e-01 -8.660420e-01
    outer loop
      vertex   -1.151072e+00 4.616698e+00 2.747051e+00
      vertex   -2.057393e+00 9.279230e+00 5.487470e+00
      vertex   -9.892505e-01 4.654058e+00 2.747051e+00
    endloop
  endfacet
  facet normal -1.029072e-01 4.893403e-01 -8.660001e-01
    outer loop
      vertex   -9.892505e-01 4.654058e+00 2.747051e+00
      vertex   -2.057393e+00 9.279230e+00 5.487470e+00
      vertex   -1.854110e+00 9.320512e+00 5.486640e+00
    endloop
  endfacet
  facet normal -9.218295e-02 4.913643e-01 -8.660620e-01
    outer loop
      vertex   -9.892505e-01 4.654058e+00 2.747051e+00
      vertex   -1.854110e+00 9.320512e+00 5.486640e+00
      vertex   -1.649978e+00 9.357492e+00 5.485894e+00
    endloop
  endfacet
  facet normal -9.541540e-02 4.908697e-01 -8.659924e-01
    outer loop
      vertex   -1.649978e+00 9.357492e+00 5.485894e+00
      vertex   -2.307555e-14 0.000000e+00 -1.776357e-14
      vertex   -9.892505e-01 4.654058e+00 2.747051e+00
    endloop
  endfacet
  facet normal -1.124884e-01 4.872407e-01 -8.659924e-01
    outer loop
      vertex   -9.892505e-01 4.654058e+00 2.747051e+00
      vertex   -2.307555e-14 0.000000e+00 -1.776357e-14
      vertex   -1.151072e+00 4.616698e+00 2.747051e+00
    endloop
  endfacet
  facet normal -1.294243e-01 4.830181e-01 -8.659924e-01
    outer loop
      vertex   -1.151072e+00 4.616698e+00 2.747051e+00
      vertex   -2.307555e-14 0.000000e+00 -1.776357e-14
      vertex   -1.311491e+00 4.573714e+00 2.747051e+00
    endloop
  endfacet
  facet normal -1.462026e-01 4.782070e-01 -8.659924e-01
    outer loop
      vertex   -1.311491e+00 4.573714e+00 2.747051e+00
      vertex   -2.307555e-14 0.000000e+00 -1.776357e-14
      vertex   -1.470313e+00 4.525158e+00 2.747051e+00
    endloop
  endfacet
endsolid
