solid ASCII
  facet normal -7.660444e-01 6.427876e-01 1.940558e-15
    outer loop
      vertex   5.477631e+00 6.527987e+00 -7.150540e+00
      vertex   -2.307555e-14 0.000000e+00 1.776357e-14
      vertex   5.571044e+00 6.639312e+00 -6.956940e+00
    endloop
  endfacet
  facet normal -7.660444e-01 6.427876e-01 5.373979e-16
    outer loop
      vertex   5.571044e+00 6.639312e+00 -6.956940e+00
      vertex   -2.307555e-14 0.000000e+00 1.776357e-14
      vertex   5.661764e+00 6.747428e+00 -6.760352e+00
    endloop
  endfacet
  facet normal -7.660444e-01 6.427876e-01 1.034578e-15
    outer loop
      vertex   5.661764e+00 6.747428e+00 -6.760352e+00
      vertex   -2.307555e-14 0.000000e+00 1.776357e-14
      vertex   5.749769e+00 6.852307e+00 -6.560852e+00
    endloop
  endfacet
  facet normal -7.660444e-01 6.427876e-01 -2.361112e-15
    outer loop
      vertex   5.749769e+00 6.852307e+00 -6.560852e+00
      vertex   -2.307555e-14 0.000000e+00 1.776357e-14
      vertex   5.835036e+00 6.953926e+00 -6.358518e+00
    endloop
  endfacet
  facet normal -7.660444e-01 6.427876e-01 3.358104e-15
    outer loop
      vertex   5.835036e+00 6.953926e+00 -6.358518e+00
      vertex   -2.307555e-14 0.000000e+00 1.776357e-14
      vertex   5.917545e+00 7.052256e+00 -6.153426e+00
    endloop
  endfacet
  facet normal -7.660444e-01 6.427876e-01 2.945674e-15
    outer loop
      vertex   5.917545e+00 7.052256e+00 -6.153426e+00
      vertex   -2.307555e-14 0.000000e+00 1.776357e-14
      vertex   5.997273e+00 7.147272e+00 -5.945656e+00
    endloop
  endfacet
  facet normal -7.660444e-01 6.427876e-01 -2.656893e-15
    outer loop
      vertex   5.997273e+00 7.147272e+00 -5.945656e+00
      vertex   -2.307555e-14 0.000000e+00 1.776357e-14
      vertex   6.074198e+00 7.238948e+00 -5.735284e+00
    endloop
  endfacet
  facet normal -7.660444e-01 6.427876e-01 -1.204512e-15
    outer loop
      vertex   6.074198e+00 7.238948e+00 -5.735284e+00
      vertex   -2.307555e-14 0.000000e+00 1.776357e-14
      vertex   6.148299e+00 7.327257e+00 -5.522387e+00
    endloop
  endfacet
  facet normal 5.935848e-01 5.327838e-01 -6.031571e-01
    outer loop
      vertex   6.543722e+00 5.490835e+00 -7.167776e+00
      vertex   6.420584e+00 5.630454e+00 -7.165631e+00
      vertex   6.655909e+00 5.584971e+00 -6.974217e+00
    endloop
  endfacet
  facet normal 5.934815e-01 5.331380e-01 -6.029458e-01
    outer loop
      vertex   6.655909e+00 5.584971e+00 -6.974217e+00
      vertex   6.420584e+00 5.630454e+00 -7.165631e+00
      vertex   6.530827e+00 5.727121e+00 -6.971643e+00
    endloop
  endfacet
  facet normal 6.030307e-01 5.412342e-01 -5.860201e-01
    outer loop
      vertex   6.655909e+00 5.584971e+00 -6.974217e+00
      vertex   6.530827e+00 5.727121e+00 -6.971643e+00
      vertex   6.764875e+00 5.676404e+00 -6.777642e+00
    endloop
  endfacet
  facet normal 6.028657e-01 5.417908e-01 -5.856754e-01
    outer loop
      vertex   6.764875e+00 5.676404e+00 -6.777642e+00
      vertex   6.530827e+00 5.727121e+00 -6.971643e+00
      vertex   6.639046e+00 5.822014e+00 -6.772464e+00
    endloop
  endfacet
  facet normal 6.122695e-01 5.493123e-01 -5.686669e-01
    outer loop
      vertex   6.764875e+00 5.676404e+00 -6.777642e+00
      vertex   6.639046e+00 5.822014e+00 -6.772464e+00
      vertex   6.870594e+00 5.765113e+00 -6.578128e+00
    endloop
  endfacet
  facet normal 6.120064e-01 5.501971e-01 -5.680945e-01
    outer loop
      vertex   6.870594e+00 5.765113e+00 -6.578128e+00
      vertex   6.639046e+00 5.822014e+00 -6.772464e+00
      vertex   6.743934e+00 5.913985e+00 -6.570396e+00
    endloop
  endfacet
  facet normal 6.211978e-01 5.571346e-01 -5.511028e-01
    outer loop
      vertex   6.870594e+00 5.765113e+00 -6.578128e+00
      vertex   6.743934e+00 5.913985e+00 -6.570396e+00
      vertex   6.973038e+00 5.851074e+00 -6.375751e+00
    endloop
  endfacet
  facet normal 6.208476e-01 5.583052e-01 -5.503123e-01
    outer loop
      vertex   6.973038e+00 5.851074e+00 -6.375751e+00
      vertex   6.743934e+00 5.913985e+00 -6.570396e+00
      vertex   6.845432e+00 6.002983e+00 -6.365598e+00
    endloop
  endfacet
  facet normal 6.298136e-01 5.647021e-01 -5.333352e-01
    outer loop
      vertex   6.973038e+00 5.851074e+00 -6.375751e+00
      vertex   6.845432e+00 6.002983e+00 -6.365598e+00
      vertex   7.072181e+00 5.934265e+00 -6.170591e+00
    endloop
  endfacet
  facet normal 6.293876e-01 5.661113e-01 -5.323432e-01
    outer loop
      vertex   7.072181e+00 5.934265e+00 -6.170591e+00
      vertex   6.845432e+00 6.002983e+00 -6.365598e+00
      vertex   6.943489e+00 6.088962e+00 -6.158233e+00
    endloop
  endfacet
  facet normal 6.381149e-01 5.720157e-01 -5.153711e-01
    outer loop
      vertex   7.072181e+00 5.934265e+00 -6.170591e+00
      vertex   6.943489e+00 6.088962e+00 -6.158233e+00
      vertex   7.167995e+00 6.014662e+00 -5.962723e+00
    endloop
  endfacet
  facet normal 6.376249e-01 5.736124e-01 -5.142016e-01
    outer loop
      vertex   7.167995e+00 6.014662e+00 -5.962723e+00
      vertex   6.943489e+00 6.088962e+00 -6.158233e+00
      vertex   7.038057e+00 6.171883e+00 -5.948464e+00
    endloop
  endfacet
  facet normal 6.460999e-01 5.790765e-01 -4.972175e-01
    outer loop
      vertex   7.167995e+00 6.014662e+00 -5.962723e+00
      vertex   7.038057e+00 6.171883e+00 -5.948464e+00
      vertex   7.260454e+00 6.092244e+00 -5.752224e+00
    endloop
  endfacet
  facet normal 6.455583e-01 5.808063e-01 -4.959017e-01
    outer loop
      vertex   7.260454e+00 6.092244e+00 -5.752224e+00
      vertex   7.038057e+00 6.171883e+00 -5.948464e+00
      vertex   7.129095e+00 6.251708e+00 -5.736460e+00
    endloop
  endfacet
  facet normal 6.537669e-01 5.858856e-01 -4.788809e-01
    outer loop
      vertex   7.260454e+00 6.092244e+00 -5.752224e+00
      vertex   7.129095e+00 6.251708e+00 -5.736460e+00
      vertex   7.349530e+00 6.166988e+00 -5.539173e+00
    endloop
  endfacet
  facet normal 6.534464e-01 5.868854e-01 -4.780934e-01
    outer loop
      vertex   7.349530e+00 6.166988e+00 -5.539173e+00
      vertex   7.129095e+00 6.251708e+00 -5.736460e+00
      vertex   7.210703e+00 6.323262e+00 -5.537084e+00
    endloop
  endfacet
  facet normal 6.405857e-01 6.010423e-01 -4.779102e-01
    outer loop
      vertex   7.210703e+00 6.323262e+00 -5.537084e+00
      vertex   7.129095e+00 6.251708e+00 -5.736460e+00
      vertex   6.987692e+00 6.402414e+00 -5.736460e+00
    endloop
  endfacet
  facet normal 6.405457e-01 6.011566e-01 -4.778200e-01
    outer loop
      vertex   7.210703e+00 6.323262e+00 -5.537084e+00
      vertex   6.987692e+00 6.402414e+00 -5.736460e+00
      vertex   7.068507e+00 6.476444e+00 -5.534983e+00
    endloop
  endfacet
  facet normal 6.273993e-01 6.150072e-01 -4.776361e-01
    outer loop
      vertex   7.068507e+00 6.476444e+00 -5.534983e+00
      vertex   6.987692e+00 6.402414e+00 -5.736460e+00
      vertex   6.843046e+00 6.549975e+00 -5.736460e+00
    endloop
  endfacet
  facet normal 6.273560e-01 6.151214e-01 -4.775459e-01
    outer loop
      vertex   7.068507e+00 6.476444e+00 -5.534983e+00
      vertex   6.843046e+00 6.549975e+00 -5.736460e+00
      vertex   6.922998e+00 6.626483e+00 -5.532877e+00
    endloop
  endfacet
  facet normal 6.139299e-01 6.286620e-01 -4.773618e-01
    outer loop
      vertex   6.922998e+00 6.626483e+00 -5.532877e+00
      vertex   6.843046e+00 6.549975e+00 -5.736460e+00
      vertex   6.695214e+00 6.694343e+00 -5.736460e+00
    endloop
  endfacet
  facet normal 6.138833e-01 6.287758e-01 -4.772717e-01
    outer loop
      vertex   6.922998e+00 6.626483e+00 -5.532877e+00
      vertex   6.695214e+00 6.694343e+00 -5.736460e+00
      vertex   6.774231e+00 6.773327e+00 -5.530768e+00
    endloop
  endfacet
  facet normal 6.001849e-01 6.420011e-01 -4.770878e-01
    outer loop
      vertex   6.774231e+00 6.773327e+00 -5.530768e+00
      vertex   6.695214e+00 6.694343e+00 -5.736460e+00
      vertex   6.544289e+00 6.835437e+00 -5.736460e+00
    endloop
  endfacet
  facet normal 6.001350e-01 6.421145e-01 -4.769978e-01
    outer loop
      vertex   6.774231e+00 6.773327e+00 -5.530768e+00
      vertex   6.544289e+00 6.835437e+00 -5.736460e+00
      vertex   6.622298e+00 6.916893e+00 -5.528660e+00
    endloop
  endfacet
  facet normal 5.861735e-01 6.550178e-01 -4.768147e-01
    outer loop
      vertex   6.622298e+00 6.916893e+00 -5.528660e+00
      vertex   6.544289e+00 6.835437e+00 -5.736460e+00
      vertex   6.390368e+00 6.973180e+00 -5.736460e+00
    endloop
  endfacet
  facet normal 5.861204e-01 6.551307e-01 -4.767248e-01
    outer loop
      vertex   6.622298e+00 6.916893e+00 -5.528660e+00
      vertex   6.390368e+00 6.973180e+00 -5.736460e+00
      vertex   6.467292e+00 7.057101e+00 -5.526558e+00
    endloop
  endfacet
  facet normal 5.719035e-01 6.677074e-01 -4.765430e-01
    outer loop
      vertex   6.467292e+00 7.057101e+00 -5.526558e+00
      vertex   6.390368e+00 6.973180e+00 -5.736460e+00
      vertex   6.233511e+00 7.107531e+00 -5.736460e+00
    endloop
  endfacet
  facet normal 5.718472e-01 6.678197e-01 -4.764532e-01
    outer loop
      vertex   6.467292e+00 7.057101e+00 -5.526558e+00
      vertex   6.233511e+00 7.107531e+00 -5.736460e+00
      vertex   6.309272e+00 7.193904e+00 -5.524466e+00
    endloop
  endfacet
  facet normal 5.574330e-01 6.800232e-01 -4.762740e-01
    outer loop
      vertex   6.309272e+00 7.193904e+00 -5.524466e+00
      vertex   6.233511e+00 7.107531e+00 -5.736460e+00
      vertex   6.074198e+00 7.238948e+00 -5.735284e+00
    endloop
  endfacet
  facet normal 5.573394e-01 6.801992e-01 -4.761321e-01
    outer loop
      vertex   6.309272e+00 7.193904e+00 -5.524466e+00
      vertex   6.074198e+00 7.238948e+00 -5.735284e+00
      vertex   6.148299e+00 7.327257e+00 -5.522387e+00
    endloop
  endfacet
  facet normal 5.819935e-01 5.458627e-01 -6.027582e-01
    outer loop
      vertex   6.420584e+00 5.630454e+00 -7.165631e+00
      vertex   6.294437e+00 5.767330e+00 -7.163476e+00
      vertex   6.530827e+00 5.727121e+00 -6.971643e+00
    endloop
  endfacet
  facet normal 5.819420e-01 5.460254e-01 -6.026606e-01
    outer loop
      vertex   6.530827e+00 5.727121e+00 -6.971643e+00
      vertex   6.294437e+00 5.767330e+00 -7.163476e+00
      vertex   6.401269e+00 5.865201e+00 -6.971643e+00
    endloop
  endfacet
  facet normal 5.911923e-01 5.547048e-01 -5.854863e-01
    outer loop
      vertex   6.530827e+00 5.727121e+00 -6.971643e+00
      vertex   6.401269e+00 5.865201e+00 -6.971643e+00
      vertex   6.507345e+00 5.962378e+00 -6.772464e+00
    endloop
  endfacet
  facet normal 5.790228e-01 5.675946e-01 -5.852940e-01
    outer loop
      vertex   6.507345e+00 5.962378e+00 -6.772464e+00
      vertex   6.401269e+00 5.865201e+00 -6.971643e+00
      vertex   6.372630e+00 6.099806e+00 -6.772464e+00
    endloop
  endfacet
  facet normal 5.878809e-01 5.762779e-01 -5.677146e-01
    outer loop
      vertex   6.507345e+00 5.962378e+00 -6.772464e+00
      vertex   6.372630e+00 6.099806e+00 -6.772464e+00
      vertex   6.473315e+00 6.196160e+00 -6.570396e+00
    endloop
  endfacet
  facet normal 5.752552e-01 5.890672e-01 -5.675220e-01
    outer loop
      vertex   6.473315e+00 6.196160e+00 -6.570396e+00
      vertex   6.372630e+00 6.099806e+00 -6.772464e+00
      vertex   6.333466e+00 6.332730e+00 -6.570396e+00
    endloop
  endfacet
  facet normal 5.836222e-01 5.976351e-01 -5.497431e-01
    outer loop
      vertex   6.473315e+00 6.196160e+00 -6.570396e+00
      vertex   6.333466e+00 6.332730e+00 -6.570396e+00
      vertex   6.428793e+00 6.428024e+00 -6.365598e+00
    endloop
  endfacet
  facet normal 5.705462e-01 6.103035e-01 -5.495513e-01
    outer loop
      vertex   6.428793e+00 6.428024e+00 -6.365598e+00
      vertex   6.333466e+00 6.332730e+00 -6.570396e+00
      vertex   6.283875e+00 6.563502e+00 -6.365598e+00
    endloop
  endfacet
  facet normal 5.784290e-01 6.187357e-01 -5.315881e-01
    outer loop
      vertex   6.428793e+00 6.428024e+00 -6.365598e+00
      vertex   6.283875e+00 6.563502e+00 -6.365598e+00
      vertex   6.373895e+00 6.657505e+00 -6.158233e+00
    endloop
  endfacet
  facet normal 5.649110e-01 6.312618e-01 -5.313982e-01
    outer loop
      vertex   6.373895e+00 6.657505e+00 -6.158233e+00
      vertex   6.283875e+00 6.563502e+00 -6.365598e+00
      vertex   6.223985e+00 6.791658e+00 -6.158233e+00
    endloop
  endfacet
  facet normal 5.723182e-01 6.395389e-01 -5.132659e-01
    outer loop
      vertex   6.373895e+00 6.657505e+00 -6.158233e+00
      vertex   6.223985e+00 6.791658e+00 -6.158233e+00
      vertex   6.308758e+00 6.884145e+00 -5.948464e+00
    endloop
  endfacet
  facet normal 5.583658e-01 6.519032e-01 -5.130788e-01
    outer loop
      vertex   6.308758e+00 6.884145e+00 -5.948464e+00
      vertex   6.223985e+00 6.791658e+00 -6.158233e+00
      vertex   6.153908e+00 7.016777e+00 -5.948464e+00
    endloop
  endfacet
  facet normal 5.653066e-01 6.600067e-01 -4.947925e-01
    outer loop
      vertex   6.308758e+00 6.884145e+00 -5.948464e+00
      vertex   6.153908e+00 7.016777e+00 -5.948464e+00
      vertex   6.233511e+00 7.107531e+00 -5.736460e+00
    endloop
  endfacet
  facet normal 5.510550e-01 6.720846e-01 -4.946116e-01
    outer loop
      vertex   6.233511e+00 7.107531e+00 -5.736460e+00
      vertex   6.153908e+00 7.016777e+00 -5.948464e+00
      vertex   5.997273e+00 7.147272e+00 -5.945656e+00
    endloop
  endfacet
  facet normal 5.509370e-01 6.723109e-01 -4.944355e-01
    outer loop
      vertex   6.233511e+00 7.107531e+00 -5.736460e+00
      vertex   5.997273e+00 7.147272e+00 -5.945656e+00
      vertex   6.074198e+00 7.238948e+00 -5.735284e+00
    endloop
  endfacet
  facet normal 5.700731e-01 5.586100e-01 -6.024712e-01
    outer loop
      vertex   6.294437e+00 5.767330e+00 -7.163476e+00
      vertex   6.165330e+00 5.901419e+00 -7.161313e+00
      vertex   6.401269e+00 5.865201e+00 -6.971643e+00
    endloop
  endfacet
  facet normal 5.700192e-01 5.587703e-01 -6.023736e-01
    outer loop
      vertex   6.401269e+00 5.865201e+00 -6.971643e+00
      vertex   6.165330e+00 5.901419e+00 -7.161313e+00
      vertex   6.268748e+00 6.000390e+00 -6.971643e+00
    endloop
  endfacet
  facet normal 5.790216e-01 5.675950e-01 -5.852947e-01
    outer loop
      vertex   6.401269e+00 5.865201e+00 -6.971643e+00
      vertex   6.268748e+00 6.000390e+00 -6.971643e+00
      vertex   6.372630e+00 6.099806e+00 -6.772464e+00
    endloop
  endfacet
  facet normal 5.665917e-01 5.801977e-01 -5.851022e-01
    outer loop
      vertex   6.372630e+00 6.099806e+00 -6.772464e+00
      vertex   6.268748e+00 6.000390e+00 -6.971643e+00
      vertex   6.234955e+00 6.234253e+00 -6.772464e+00
    endloop
  endfacet
  facet normal 5.752538e-01 5.890677e-01 -5.675229e-01
    outer loop
      vertex   6.372630e+00 6.099806e+00 -6.772464e+00
      vertex   6.234955e+00 6.234253e+00 -6.772464e+00
      vertex   6.333466e+00 6.332730e+00 -6.570396e+00
    endloop
  endfacet
  facet normal 5.623708e-01 6.015605e-01 -5.673306e-01
    outer loop
      vertex   6.333466e+00 6.332730e+00 -6.570396e+00
      vertex   6.234955e+00 6.234253e+00 -6.772464e+00
      vertex   6.190697e+00 6.466198e+00 -6.570396e+00
    endloop
  endfacet
  facet normal 5.705447e-01 6.103040e-01 -5.495523e-01
    outer loop
      vertex   6.333466e+00 6.332730e+00 -6.570396e+00
      vertex   6.190697e+00 6.466198e+00 -6.570396e+00
      vertex   6.283875e+00 6.563502e+00 -6.365598e+00
    endloop
  endfacet
  facet normal 5.572164e-01 6.226653e-01 -5.493613e-01
    outer loop
      vertex   6.283875e+00 6.563502e+00 -6.365598e+00
      vertex   6.190697e+00 6.466198e+00 -6.570396e+00
      vertex   6.136084e+00 6.695758e+00 -6.365598e+00
    endloop
  endfacet
  facet normal 5.649098e-01 6.312623e-01 -5.313990e-01
    outer loop
      vertex   6.283875e+00 6.563502e+00 -6.365598e+00
      vertex   6.136084e+00 6.695758e+00 -6.365598e+00
      vertex   6.223985e+00 6.791658e+00 -6.158233e+00
    endloop
  endfacet
  facet normal 5.511434e-01 6.434723e-01 -5.312103e-01
    outer loop
      vertex   6.223985e+00 6.791658e+00 -6.158233e+00
      vertex   6.136084e+00 6.695758e+00 -6.365598e+00
      vertex   6.071219e+00 6.922504e+00 -6.158233e+00
    endloop
  endfacet
  facet normal 5.583649e-01 6.519035e-01 -5.130794e-01
    outer loop
      vertex   6.223985e+00 6.791658e+00 -6.158233e+00
      vertex   6.071219e+00 6.922504e+00 -6.158233e+00
      vertex   6.153908e+00 7.016777e+00 -5.948464e+00
    endloop
  endfacet
  facet normal 5.443912e-01 6.637571e-01 -5.128983e-01
    outer loop
      vertex   6.153908e+00 7.016777e+00 -5.948464e+00
      vertex   6.071219e+00 6.922504e+00 -6.158233e+00
      vertex   5.917545e+00 7.052256e+00 -6.153426e+00
    endloop
  endfacet
  facet normal 5.441659e-01 6.642019e-01 -5.125615e-01
    outer loop
      vertex   6.153908e+00 7.016777e+00 -5.948464e+00
      vertex   5.917545e+00 7.052256e+00 -6.153426e+00
      vertex   5.997273e+00 7.147272e+00 -5.945656e+00
    endloop
  endfacet
  facet normal 5.578936e-01 5.710773e-01 -6.021840e-01
    outer loop
      vertex   6.165330e+00 5.901419e+00 -7.161313e+00
      vertex   6.033312e+00 6.032673e+00 -7.159148e+00
      vertex   6.268748e+00 6.000390e+00 -6.971643e+00
    endloop
  endfacet
  facet normal 5.578374e-01 5.712351e-01 -6.020863e-01
    outer loop
      vertex   6.268748e+00 6.000390e+00 -6.971643e+00
      vertex   6.033312e+00 6.032673e+00 -7.159148e+00
      vertex   6.133315e+00 6.132646e+00 -6.971643e+00
    endloop
  endfacet
  facet normal 5.665903e-01 5.801982e-01 -5.851030e-01
    outer loop
      vertex   6.268748e+00 6.000390e+00 -6.971643e+00
      vertex   6.133315e+00 6.132646e+00 -6.971643e+00
      vertex   6.234955e+00 6.234253e+00 -6.772464e+00
    endloop
  endfacet
  facet normal 5.539069e-01 5.925088e-01 -5.849107e-01
    outer loop
      vertex   6.234955e+00 6.234253e+00 -6.772464e+00
      vertex   6.133315e+00 6.132646e+00 -6.971643e+00
      vertex   6.094407e+00 6.365644e+00 -6.772464e+00
    endloop
  endfacet
  facet normal 5.623694e-01 6.015610e-01 -5.673315e-01
    outer loop
      vertex   6.234955e+00 6.234253e+00 -6.772464e+00
      vertex   6.094407e+00 6.365644e+00 -6.772464e+00
      vertex   6.190697e+00 6.466198e+00 -6.570396e+00
    endloop
  endfacet
  facet normal 5.492375e-01 6.137510e-01 -5.671400e-01
    outer loop
      vertex   6.190697e+00 6.466198e+00 -6.570396e+00
      vertex   6.094407e+00 6.365644e+00 -6.772464e+00
      vertex   6.045099e+00 6.596491e+00 -6.570396e+00
    endloop
  endfacet
  facet normal 5.572151e-01 6.226657e-01 -5.493621e-01
    outer loop
      vertex   6.190697e+00 6.466198e+00 -6.570396e+00
      vertex   6.045099e+00 6.596491e+00 -6.570396e+00
      vertex   6.136084e+00 6.695758e+00 -6.365598e+00
    endloop
  endfacet
  facet normal 5.436417e-01 6.347152e-01 -5.491723e-01
    outer loop
      vertex   6.136084e+00 6.695758e+00 -6.365598e+00
      vertex   6.045099e+00 6.596491e+00 -6.570396e+00
      vertex   5.985479e+00 6.824753e+00 -6.365598e+00
    endloop
  endfacet
  facet normal 5.511425e-01 6.434725e-01 -5.312109e-01
    outer loop
      vertex   6.136084e+00 6.695758e+00 -6.365598e+00
      vertex   5.985479e+00 6.824753e+00 -6.365598e+00
      vertex   6.071219e+00 6.922504e+00 -6.158233e+00
    endloop
  endfacet
  facet normal 5.374704e-01 6.550819e-01 -5.310305e-01
    outer loop
      vertex   6.071219e+00 6.922504e+00 -6.158233e+00
      vertex   5.985479e+00 6.824753e+00 -6.365598e+00
      vertex   5.835036e+00 6.953926e+00 -6.358518e+00
    endloop
  endfacet
  facet normal 5.371190e-01 6.557962e-01 -5.305040e-01
    outer loop
      vertex   6.071219e+00 6.922504e+00 -6.158233e+00
      vertex   5.835036e+00 6.953926e+00 -6.358518e+00
      vertex   5.917545e+00 7.052256e+00 -6.153426e+00
    endloop
  endfacet
  facet normal 5.454617e-01 5.832595e-01 -6.018969e-01
    outer loop
      vertex   6.033312e+00 6.032673e+00 -7.159148e+00
      vertex   5.898462e+00 6.161017e+00 -7.156983e+00
      vertex   6.133315e+00 6.132646e+00 -6.971643e+00
    endloop
  endfacet
  facet normal 5.454034e-01 5.834147e-01 -6.017993e-01
    outer loop
      vertex   6.133315e+00 6.132646e+00 -6.971643e+00
      vertex   5.898462e+00 6.161017e+00 -7.156983e+00
      vertex   5.995059e+00 6.261895e+00 -6.971643e+00
    endloop
  endfacet
  facet normal 5.539054e-01 5.925093e-01 -5.849116e-01
    outer loop
      vertex   6.133315e+00 6.132646e+00 -6.971643e+00
      vertex   5.995059e+00 6.261895e+00 -6.971643e+00
      vertex   6.094407e+00 6.365644e+00 -6.772464e+00
    endloop
  endfacet
  facet normal 5.409768e-01 6.045218e-01 -5.847200e-01
    outer loop
      vertex   6.094407e+00 6.365644e+00 -6.772464e+00
      vertex   5.995059e+00 6.261895e+00 -6.971643e+00
      vertex   5.951076e+00 6.493909e+00 -6.772464e+00
    endloop
  endfacet
  facet normal 5.492363e-01 6.137515e-01 -5.671408e-01
    outer loop
      vertex   6.094407e+00 6.365644e+00 -6.772464e+00
      vertex   5.951076e+00 6.493909e+00 -6.772464e+00
      vertex   6.045099e+00 6.596491e+00 -6.570396e+00
    endloop
  endfacet
  facet normal 5.358627e-01 6.256343e-01 -5.669505e-01
    outer loop
      vertex   6.045099e+00 6.596491e+00 -6.570396e+00
      vertex   5.951076e+00 6.493909e+00 -6.772464e+00
      vertex   5.896730e+00 6.723571e+00 -6.570396e+00
    endloop
  endfacet
  facet normal 5.436408e-01 6.347155e-01 -5.491729e-01
    outer loop
      vertex   6.045099e+00 6.596491e+00 -6.570396e+00
      vertex   5.896730e+00 6.723571e+00 -6.570396e+00
      vertex   5.985479e+00 6.824753e+00 -6.365598e+00
    endloop
  endfacet
  facet normal 5.302900e-01 6.460636e-01 -5.489940e-01
    outer loop
      vertex   5.985479e+00 6.824753e+00 -6.365598e+00
      vertex   5.896730e+00 6.723571e+00 -6.570396e+00
      vertex   5.749769e+00 6.852307e+00 -6.560852e+00
    endloop
  endfacet
  facet normal 5.297992e-01 6.470917e-01 -5.482564e-01
    outer loop
      vertex   5.985479e+00 6.824753e+00 -6.365598e+00
      vertex   5.749769e+00 6.852307e+00 -6.560852e+00
      vertex   5.835036e+00 6.953926e+00 -6.358518e+00
    endloop
  endfacet
  facet normal 5.327856e-01 5.951505e-01 -6.016107e-01
    outer loop
      vertex   5.898462e+00 6.161017e+00 -7.156983e+00
      vertex   5.760864e+00 6.286379e+00 -7.154825e+00
      vertex   5.995059e+00 6.261895e+00 -6.971643e+00
    endloop
  endfacet
  facet normal 5.327253e-01 5.953028e-01 -6.015133e-01
    outer loop
      vertex   5.995059e+00 6.261895e+00 -6.971643e+00
      vertex   5.760864e+00 6.286379e+00 -7.154825e+00
      vertex   5.854066e+00 6.388067e+00 -6.971643e+00
    endloop
  endfacet
  facet normal 5.409756e-01 6.045222e-01 -5.847208e-01
    outer loop
      vertex   5.995059e+00 6.261895e+00 -6.971643e+00
      vertex   5.854066e+00 6.388067e+00 -6.971643e+00
      vertex   5.951076e+00 6.493909e+00 -6.772464e+00
    endloop
  endfacet
  facet normal 5.278086e-01 6.162323e-01 -5.845305e-01
    outer loop
      vertex   5.951076e+00 6.493909e+00 -6.772464e+00
      vertex   5.854066e+00 6.388067e+00 -6.971643e+00
      vertex   5.805018e+00 6.619009e+00 -6.772464e+00
    endloop
  endfacet
  facet normal 5.358618e-01 6.256346e-01 -5.669510e-01
    outer loop
      vertex   5.951076e+00 6.493909e+00 -6.772464e+00
      vertex   5.805018e+00 6.619009e+00 -6.772464e+00
      vertex   5.896730e+00 6.723571e+00 -6.570396e+00
    endloop
  endfacet
  facet normal 5.228483e-01 6.367075e-01 -5.667744e-01
    outer loop
      vertex   5.896730e+00 6.723571e+00 -6.570396e+00
      vertex   5.805018e+00 6.619009e+00 -6.772464e+00
      vertex   5.661764e+00 6.747428e+00 -6.760352e+00
    endloop
  endfacet
  facet normal 5.222098e-01 6.380864e-01 -5.658115e-01
    outer loop
      vertex   5.896730e+00 6.723571e+00 -6.570396e+00
      vertex   5.661764e+00 6.747428e+00 -6.760352e+00
      vertex   5.749769e+00 6.852307e+00 -6.560852e+00
    endloop
  endfacet
  facet normal 5.198722e-01 6.067456e-01 -6.013258e-01
    outer loop
      vertex   5.760864e+00 6.286379e+00 -7.154825e+00
      vertex   5.620570e+00 6.408716e+00 -7.152676e+00
      vertex   5.854066e+00 6.388067e+00 -6.971643e+00
    endloop
  endfacet
  facet normal 5.198101e-01 6.068950e-01 -6.012287e-01
    outer loop
      vertex   5.854066e+00 6.388067e+00 -6.971643e+00
      vertex   5.620570e+00 6.408716e+00 -7.152676e+00
      vertex   5.710392e+00 6.511124e+00 -6.971643e+00
    endloop
  endfacet
  facet normal 5.278077e-01 6.162325e-01 -5.845310e-01
    outer loop
      vertex   5.854066e+00 6.388067e+00 -6.971643e+00
      vertex   5.710392e+00 6.511124e+00 -6.971643e+00
      vertex   5.805018e+00 6.619009e+00 -6.772464e+00
    endloop
  endfacet
  facet normal 5.151444e-01 6.270190e-01 -5.843573e-01
    outer loop
      vertex   5.805018e+00 6.619009e+00 -6.772464e+00
      vertex   5.710392e+00 6.511124e+00 -6.971643e+00
      vertex   5.571044e+00 6.639312e+00 -6.956940e+00
    endloop
  endfacet
  facet normal 5.143544e-01 6.287781e-01 -5.831618e-01
    outer loop
      vertex   5.805018e+00 6.619009e+00 -6.772464e+00
      vertex   5.571044e+00 6.639312e+00 -6.956940e+00
      vertex   5.661764e+00 6.747428e+00 -6.760352e+00
    endloop
  endfacet
  facet normal 5.067268e-01 6.180417e-01 -6.010428e-01
    outer loop
      vertex   5.620570e+00 6.408716e+00 -7.152676e+00
      vertex   5.477631e+00 6.527987e+00 -7.150540e+00
      vertex   5.710392e+00 6.511124e+00 -6.971643e+00
    endloop
  endfacet
  facet normal 5.062369e-01 6.191645e-01 -6.002995e-01
    outer loop
      vertex   5.710392e+00 6.511124e+00 -6.971643e+00
      vertex   5.477631e+00 6.527987e+00 -7.150540e+00
      vertex   5.571044e+00 6.639312e+00 -6.956940e+00
    endloop
  endfacet
  facet normal 5.653075e-01 6.600064e-01 -4.947919e-01
    outer loop
      vertex   6.308758e+00 6.884145e+00 -5.948464e+00
      vertex   6.233511e+00 7.107531e+00 -5.736460e+00
      vertex   6.390368e+00 6.973180e+00 -5.736460e+00
    endloop
  endfacet
  facet normal 5.911932e-01 5.547045e-01 -5.854858e-01
    outer loop
      vertex   6.530827e+00 5.727121e+00 -6.971643e+00
      vertex   6.507345e+00 5.962378e+00 -6.772464e+00
      vertex   6.639046e+00 5.822014e+00 -6.772464e+00
    endloop
  endfacet
  facet normal 6.002436e-01 5.631964e-01 -5.679062e-01
    outer loop
      vertex   6.639046e+00 5.822014e+00 -6.772464e+00
      vertex   6.507345e+00 5.962378e+00 -6.772464e+00
      vertex   6.610156e+00 6.056563e+00 -6.570396e+00
    endloop
  endfacet
  facet normal 6.002445e-01 5.631960e-01 -5.679056e-01
    outer loop
      vertex   6.639046e+00 5.822014e+00 -6.772464e+00
      vertex   6.610156e+00 6.056563e+00 -6.570396e+00
      vertex   6.743934e+00 5.913985e+00 -6.570396e+00
    endloop
  endfacet
  facet normal 6.089872e-01 5.713991e-01 -5.501252e-01
    outer loop
      vertex   6.743934e+00 5.913985e+00 -6.570396e+00
      vertex   6.610156e+00 6.056563e+00 -6.570396e+00
      vertex   6.709644e+00 6.147703e+00 -6.365598e+00
    endloop
  endfacet
  facet normal 6.089880e-01 5.713987e-01 -5.501247e-01
    outer loop
      vertex   6.743934e+00 5.913985e+00 -6.570396e+00
      vertex   6.709644e+00 6.147703e+00 -6.365598e+00
      vertex   6.845432e+00 6.002983e+00 -6.365598e+00
    endloop
  endfacet
  facet normal 6.174201e-01 5.793103e-01 -5.321578e-01
    outer loop
      vertex   6.845432e+00 6.002983e+00 -6.365598e+00
      vertex   6.709644e+00 6.147703e+00 -6.365598e+00
      vertex   6.805760e+00 6.235752e+00 -6.158233e+00
    endloop
  endfacet
  facet normal 6.174210e-01 5.793100e-01 -5.321572e-01
    outer loop
      vertex   6.845432e+00 6.002983e+00 -6.365598e+00
      vertex   6.805760e+00 6.235752e+00 -6.158233e+00
      vertex   6.943489e+00 6.088962e+00 -6.158233e+00
    endloop
  endfacet
  facet normal 6.255404e-01 5.869281e-01 -5.140181e-01
    outer loop
      vertex   6.943489e+00 6.088962e+00 -6.158233e+00
      vertex   6.805760e+00 6.235752e+00 -6.158233e+00
      vertex   6.898456e+00 6.320668e+00 -5.948464e+00
    endloop
  endfacet
  facet normal 6.255412e-01 5.869277e-01 -5.140175e-01
    outer loop
      vertex   6.943489e+00 6.088962e+00 -6.158233e+00
      vertex   6.898456e+00 6.320668e+00 -5.948464e+00
      vertex   7.038057e+00 6.171883e+00 -5.948464e+00
    endloop
  endfacet
  facet normal 6.333460e-01 5.942507e-01 -4.957205e-01
    outer loop
      vertex   7.038057e+00 6.171883e+00 -5.948464e+00
      vertex   6.898456e+00 6.320668e+00 -5.948464e+00
      vertex   6.987692e+00 6.402414e+00 -5.736460e+00
    endloop
  endfacet
  facet normal 6.333469e-01 5.942503e-01 -4.957199e-01
    outer loop
      vertex   7.038057e+00 6.171883e+00 -5.948464e+00
      vertex   6.987692e+00 6.402414e+00 -5.736460e+00
      vertex   7.129095e+00 6.251708e+00 -5.736460e+00
    endloop
  endfacet
  facet normal 5.878821e-01 5.762774e-01 -5.677138e-01
    outer loop
      vertex   6.507345e+00 5.962378e+00 -6.772464e+00
      vertex   6.473315e+00 6.196160e+00 -6.570396e+00
      vertex   6.610156e+00 6.056563e+00 -6.570396e+00
    endloop
  endfacet
  facet normal 5.964387e-01 5.846650e-01 -5.499342e-01
    outer loop
      vertex   6.610156e+00 6.056563e+00 -6.570396e+00
      vertex   6.473315e+00 6.196160e+00 -6.570396e+00
      vertex   6.570746e+00 6.289399e+00 -6.365598e+00
    endloop
  endfacet
  facet normal 5.964400e-01 5.846645e-01 -5.499334e-01
    outer loop
      vertex   6.610156e+00 6.056563e+00 -6.570396e+00
      vertex   6.570746e+00 6.289399e+00 -6.365598e+00
      vertex   6.709644e+00 6.147703e+00 -6.365598e+00
    endloop
  endfacet
  facet normal 6.046924e-01 5.927540e-01 -5.319679e-01
    outer loop
      vertex   6.709644e+00 6.147703e+00 -6.365598e+00
      vertex   6.570746e+00 6.289399e+00 -6.365598e+00
      vertex   6.664874e+00 6.379476e+00 -6.158233e+00
    endloop
  endfacet
  facet normal 6.046936e-01 5.927535e-01 -5.319670e-01
    outer loop
      vertex   6.709644e+00 6.147703e+00 -6.365598e+00
      vertex   6.664874e+00 6.379476e+00 -6.158233e+00
      vertex   6.805760e+00 6.235752e+00 -6.158233e+00
    endloop
  endfacet
  facet normal 6.126397e-01 6.005427e-01 -5.138299e-01
    outer loop
      vertex   6.805760e+00 6.235752e+00 -6.158233e+00
      vertex   6.664874e+00 6.379476e+00 -6.158233e+00
      vertex   6.755654e+00 6.466347e+00 -5.948464e+00
    endloop
  endfacet
  facet normal 6.126409e-01 6.005421e-01 -5.138290e-01
    outer loop
      vertex   6.805760e+00 6.235752e+00 -6.158233e+00
      vertex   6.755654e+00 6.466347e+00 -5.948464e+00
      vertex   6.898456e+00 6.320668e+00 -5.948464e+00
    endloop
  endfacet
  facet normal 6.202790e-01 6.080293e-01 -4.955344e-01
    outer loop
      vertex   6.898456e+00 6.320668e+00 -5.948464e+00
      vertex   6.755654e+00 6.466347e+00 -5.948464e+00
      vertex   6.843046e+00 6.549975e+00 -5.736460e+00
    endloop
  endfacet
  facet normal 6.202802e-01 6.080288e-01 -4.955335e-01
    outer loop
      vertex   6.898456e+00 6.320668e+00 -5.948464e+00
      vertex   6.843046e+00 6.549975e+00 -5.736460e+00
      vertex   6.987692e+00 6.402414e+00 -5.736460e+00
    endloop
  endfacet
  facet normal 5.836236e-01 5.976345e-01 -5.497422e-01
    outer loop
      vertex   6.473315e+00 6.196160e+00 -6.570396e+00
      vertex   6.428793e+00 6.428024e+00 -6.365598e+00
      vertex   6.570746e+00 6.289399e+00 -6.365598e+00
    endloop
  endfacet
  facet normal 5.916929e-01 6.058975e-01 -5.317779e-01
    outer loop
      vertex   6.570746e+00 6.289399e+00 -6.365598e+00
      vertex   6.428793e+00 6.428024e+00 -6.365598e+00
      vertex   6.520889e+00 6.520086e+00 -6.158233e+00
    endloop
  endfacet
  facet normal 5.916943e-01 6.058970e-01 -5.317769e-01
    outer loop
      vertex   6.570746e+00 6.289399e+00 -6.365598e+00
      vertex   6.520889e+00 6.520086e+00 -6.158233e+00
      vertex   6.664874e+00 6.379476e+00 -6.158233e+00
    endloop
  endfacet
  facet normal 5.994639e-01 6.138530e-01 -5.136415e-01
    outer loop
      vertex   6.664874e+00 6.379476e+00 -6.158233e+00
      vertex   6.520889e+00 6.520086e+00 -6.158233e+00
      vertex   6.609709e+00 6.608872e+00 -5.948464e+00
    endloop
  endfacet
  facet normal 5.994653e-01 6.138524e-01 -5.136405e-01
    outer loop
      vertex   6.664874e+00 6.379476e+00 -6.158233e+00
      vertex   6.609709e+00 6.608872e+00 -5.948464e+00
      vertex   6.755654e+00 6.466347e+00 -5.948464e+00
    endloop
  endfacet
  facet normal 6.069335e-01 6.214997e-01 -4.953482e-01
    outer loop
      vertex   6.755654e+00 6.466347e+00 -5.948464e+00
      vertex   6.609709e+00 6.608872e+00 -5.948464e+00
      vertex   6.695214e+00 6.694343e+00 -5.736460e+00
    endloop
  endfacet
  facet normal 6.069349e-01 6.214992e-01 -4.953471e-01
    outer loop
      vertex   6.755654e+00 6.466347e+00 -5.948464e+00
      vertex   6.695214e+00 6.694343e+00 -5.736460e+00
      vertex   6.843046e+00 6.549975e+00 -5.736460e+00
    endloop
  endfacet
  facet normal 5.784305e-01 6.187352e-01 -5.315872e-01
    outer loop
      vertex   6.428793e+00 6.428024e+00 -6.365598e+00
      vertex   6.373895e+00 6.657505e+00 -6.158233e+00
      vertex   6.520889e+00 6.520086e+00 -6.158233e+00
    endloop
  endfacet
  facet normal 5.860203e-01 6.268539e-01 -5.134534e-01
    outer loop
      vertex   6.520889e+00 6.520086e+00 -6.158233e+00
      vertex   6.373895e+00 6.657505e+00 -6.158233e+00
      vertex   6.460712e+00 6.748163e+00 -5.948464e+00
    endloop
  endfacet
  facet normal 5.860218e-01 6.268533e-01 -5.134524e-01
    outer loop
      vertex   6.520889e+00 6.520086e+00 -6.158233e+00
      vertex   6.460712e+00 6.748163e+00 -5.948464e+00
      vertex   6.609709e+00 6.608872e+00 -5.948464e+00
    endloop
  endfacet
  facet normal 5.933170e-01 6.346568e-01 -4.951622e-01
    outer loop
      vertex   6.609709e+00 6.608872e+00 -5.948464e+00
      vertex   6.460712e+00 6.748163e+00 -5.948464e+00
      vertex   6.544289e+00 6.835437e+00 -5.736460e+00
    endloop
  endfacet
  facet normal 5.933185e-01 6.346563e-01 -4.951612e-01
    outer loop
      vertex   6.609709e+00 6.608872e+00 -5.948464e+00
      vertex   6.544289e+00 6.835437e+00 -5.736460e+00
      vertex   6.695214e+00 6.694343e+00 -5.736460e+00
    endloop
  endfacet
  facet normal 5.794401e-01 6.474936e-01 -4.949760e-01
    outer loop
      vertex   6.390368e+00 6.973180e+00 -5.736460e+00
      vertex   6.544289e+00 6.835437e+00 -5.736460e+00
      vertex   6.460712e+00 6.748163e+00 -5.948464e+00
    endloop
  endfacet
  facet normal 5.794388e-01 6.474940e-01 -4.949769e-01
    outer loop
      vertex   6.390368e+00 6.973180e+00 -5.736460e+00
      vertex   6.460712e+00 6.748163e+00 -5.948464e+00
      vertex   6.308758e+00 6.884145e+00 -5.948464e+00
    endloop
  endfacet
  facet normal 5.723194e-01 6.395385e-01 -5.132650e-01
    outer loop
      vertex   6.308758e+00 6.884145e+00 -5.948464e+00
      vertex   6.460712e+00 6.748163e+00 -5.948464e+00
      vertex   6.373895e+00 6.657505e+00 -6.158233e+00
    endloop
  endfacet
  facet normal 6.427876e-01 -7.660444e-01 6.325030e-15
    outer loop
      vertex   6.543722e+00 5.490835e+00 -7.167776e+00
      vertex   6.655909e+00 5.584971e+00 -6.974217e+00
      vertex   -2.307555e-14 0.000000e+00 1.776357e-14
    endloop
  endfacet
  facet normal 6.427876e-01 -7.660444e-01 -2.631613e-15
    outer loop
      vertex   -2.307555e-14 0.000000e+00 1.776357e-14
      vertex   6.655909e+00 5.584971e+00 -6.974217e+00
      vertex   6.764875e+00 5.676404e+00 -6.777642e+00
    endloop
  endfacet
  facet normal 6.427876e-01 -7.660444e-01 -2.634323e-15
    outer loop
      vertex   -2.307555e-14 0.000000e+00 1.776357e-14
      vertex   6.764875e+00 5.676404e+00 -6.777642e+00
      vertex   6.870594e+00 5.765113e+00 -6.578128e+00
    endloop
  endfacet
  facet normal 6.427876e-01 -7.660444e-01 2.059936e-16
    outer loop
      vertex   6.870594e+00 5.765113e+00 -6.578128e+00
      vertex   6.973038e+00 5.851074e+00 -6.375751e+00
      vertex   -2.307555e-14 0.000000e+00 1.776357e-14
    endloop
  endfacet
  facet normal 6.427876e-01 -7.660444e-01 2.638806e-15
    outer loop
      vertex   -2.307555e-14 0.000000e+00 1.776357e-14
      vertex   6.973038e+00 5.851074e+00 -6.375751e+00
      vertex   7.072181e+00 5.934265e+00 -6.170591e+00
    endloop
  endfacet
  facet normal 6.427876e-01 -7.660444e-01 -5.281176e-15
    outer loop
      vertex   -2.307555e-14 0.000000e+00 1.776357e-14
      vertex   7.072181e+00 5.934265e+00 -6.170591e+00
      vertex   7.167995e+00 6.014662e+00 -5.962723e+00
    endloop
  endfacet
  facet normal 6.427876e-01 -7.660444e-01 6.068505e-15
    outer loop
      vertex   7.167995e+00 6.014662e+00 -5.962723e+00
      vertex   7.260454e+00 6.092244e+00 -5.752224e+00
      vertex   -2.307555e-14 0.000000e+00 1.776357e-14
    endloop
  endfacet
  facet normal 6.427876e-01 -7.660444e-01 2.643254e-15
    outer loop
      vertex   -2.307555e-14 0.000000e+00 1.776357e-14
      vertex   7.260454e+00 6.092244e+00 -5.752224e+00
      vertex   7.349530e+00 6.166988e+00 -5.539173e+00
    endloop
  endfacet
  facet normal 3.773979e-01 3.280670e-01 8.659924e-01
    outer loop
      vertex   -2.307555e-14 0.000000e+00 1.776357e-14
      vertex   7.349530e+00 6.166988e+00 -5.539173e+00
      vertex   3.564914e+00 3.209863e+00 -2.769587e+00
    endloop
  endfacet
  facet normal 3.794512e-01 3.255045e-01 8.660622e-01
    outer loop
      vertex   3.564914e+00 3.209863e+00 -2.769587e+00
      vertex   7.349530e+00 6.166988e+00 -5.539173e+00
      vertex   7.210703e+00 6.323262e+00 -5.537084e+00
    endloop
  endfacet
  facet normal 3.723466e-01 3.337689e-01 8.660002e-01
    outer loop
      vertex   3.564914e+00 3.209863e+00 -2.769587e+00
      vertex   7.210703e+00 6.323262e+00 -5.537084e+00
      vertex   7.068507e+00 6.476444e+00 -5.534983e+00
    endloop
  endfacet
  facet normal 3.656562e-01 3.409799e-01 8.660417e-01
    outer loop
      vertex   3.564914e+00 3.209863e+00 -2.769587e+00
      vertex   7.068507e+00 6.476444e+00 -5.534983e+00
      vertex   3.450720e+00 3.332321e+00 -2.769587e+00
    endloop
  endfacet
  facet normal 3.649521e-01 3.417754e-01 8.660251e-01
    outer loop
      vertex   3.450720e+00 3.332321e+00 -2.769587e+00
      vertex   7.068507e+00 6.476444e+00 -5.534983e+00
      vertex   6.922998e+00 6.626483e+00 -5.532877e+00
    endloop
  endfacet
  facet normal 3.574378e-01 3.496784e-01 8.660042e-01
    outer loop
      vertex   3.450720e+00 3.332321e+00 -2.769587e+00
      vertex   6.922998e+00 6.626483e+00 -5.532877e+00
      vertex   6.774231e+00 6.773327e+00 -5.530768e+00
    endloop
  endfacet
  facet normal 3.535129e-01 3.535129e-01 8.660585e-01
    outer loop
      vertex   3.450720e+00 3.332321e+00 -2.769587e+00
      vertex   6.774231e+00 6.773327e+00 -5.530768e+00
      vertex   3.332321e+00 3.450720e+00 -2.769587e+00
    endloop
  endfacet
  facet normal 3.497239e-01 3.573929e-01 8.660043e-01
    outer loop
      vertex   3.332321e+00 3.450720e+00 -2.769587e+00
      vertex   6.774231e+00 6.773327e+00 -5.530768e+00
      vertex   6.622298e+00 6.916893e+00 -5.528660e+00
    endloop
  endfacet
  facet normal 3.418176e-01 3.649135e-01 8.660247e-01
    outer loop
      vertex   3.332321e+00 3.450720e+00 -2.769587e+00
      vertex   6.622298e+00 6.916893e+00 -5.528660e+00
      vertex   6.467292e+00 7.057101e+00 -5.526558e+00
    endloop
  endfacet
  facet normal 3.409793e-01 3.656556e-01 8.660422e-01
    outer loop
      vertex   3.332321e+00 3.450720e+00 -2.769587e+00
      vertex   6.467292e+00 7.057101e+00 -5.526558e+00
      vertex   3.209863e+00 3.564914e+00 -2.769587e+00
    endloop
  endfacet
  facet normal 3.337978e-01 3.723210e-01 8.660000e-01
    outer loop
      vertex   3.209863e+00 3.564914e+00 -2.769587e+00
      vertex   6.467292e+00 7.057101e+00 -5.526558e+00
      vertex   6.309272e+00 7.193904e+00 -5.524466e+00
    endloop
  endfacet
  facet normal 3.255186e-01 3.794392e-01 8.660621e-01
    outer loop
      vertex   3.209863e+00 3.564914e+00 -2.769587e+00
      vertex   6.309272e+00 7.193904e+00 -5.524466e+00
      vertex   6.148299e+00 7.327257e+00 -5.522387e+00
    endloop
  endfacet
  facet normal 3.280670e-01 3.773979e-01 8.659924e-01
    outer loop
      vertex   6.148299e+00 7.327257e+00 -5.522387e+00
      vertex   -2.307555e-14 0.000000e+00 1.776357e-14
      vertex   3.209863e+00 3.564914e+00 -2.769587e+00
    endloop
  endfacet
  facet normal 3.410381e-01 3.657186e-01 8.659924e-01
    outer loop
      vertex   3.209863e+00 3.564914e+00 -2.769587e+00
      vertex   -2.307555e-14 0.000000e+00 1.776357e-14
      vertex   3.332321e+00 3.450720e+00 -2.769587e+00
    endloop
  endfacet
  facet normal 3.535938e-01 3.535938e-01 8.659924e-01
    outer loop
      vertex   3.332321e+00 3.450720e+00 -2.769587e+00
      vertex   -2.307555e-14 0.000000e+00 1.776357e-14
      vertex   3.450720e+00 3.332321e+00 -2.769587e+00
    endloop
  endfacet
  facet normal 3.657186e-01 3.410381e-01 8.659924e-01
    outer loop
      vertex   3.450720e+00 3.332321e+00 -2.769587e+00
      vertex   -2.307555e-14 0.000000e+00 1.776357e-14
      vertex   3.564914e+00 3.209863e+00 -2.769587e+00
    endloop
  endfacet
  facet normal -4.238834e-01 -4.833367e-01 -7.659690e-01
    outer loop
      vertex   -2.307555e-14 0.000000e+00 1.776357e-14
      vertex   5.477631e+00 6.527987e+00 -7.150540e+00
      vertex   2.885584e+00 3.148936e+00 -3.583888e+00
    endloop
  endfacet
  facet normal -4.184289e-01 -4.877400e-01 -7.661768e-01
    outer loop
      vertex   2.885584e+00 3.148936e+00 -3.583888e+00
      vertex   5.477631e+00 6.527987e+00 -7.150540e+00
      vertex   5.620570e+00 6.408716e+00 -7.152676e+00
    endloop
  endfacet
  facet normal -4.290961e-01 -4.786245e-01 -7.660255e-01
    outer loop
      vertex   2.885584e+00 3.148936e+00 -3.583888e+00
      vertex   5.620570e+00 6.408716e+00 -7.152676e+00
      vertex   5.760864e+00 6.286379e+00 -7.154825e+00
    endloop
  endfacet
  facet normal -4.394406e-01 -4.691446e-01 -7.660257e-01
    outer loop
      vertex   5.760864e+00 6.286379e+00 -7.154825e+00
      vertex   5.898462e+00 6.161017e+00 -7.156983e+00
      vertex   2.885584e+00 3.148936e+00 -3.583888e+00
    endloop
  endfacet
  facet normal -4.444445e-01 -4.642512e-01 -7.661200e-01
    outer loop
      vertex   2.885584e+00 3.148936e+00 -3.583888e+00
      vertex   5.898462e+00 6.161017e+00 -7.156983e+00
      vertex   3.020212e+00 3.020052e+00 -3.583888e+00
    endloop
  endfacet
  facet normal -4.445689e-01 -4.643812e-01 -7.659691e-01
    outer loop
      vertex   2.885584e+00 3.148936e+00 -3.583888e+00
      vertex   3.020212e+00 3.020052e+00 -3.583888e+00
      vertex   -2.307555e-14 0.000000e+00 1.776357e-14
    endloop
  endfacet
  facet normal -4.495735e-01 -4.594438e-01 -7.660255e-01
    outer loop
      vertex   5.898462e+00 6.161017e+00 -7.156983e+00
      vertex   6.033312e+00 6.032673e+00 -7.159148e+00
      vertex   3.020212e+00 3.020052e+00 -3.583888e+00
    endloop
  endfacet
  facet normal -4.594897e-01 -4.495263e-01 -7.660257e-01
    outer loop
      vertex   3.020212e+00 3.020052e+00 -3.583888e+00
      vertex   6.033312e+00 6.032673e+00 -7.159148e+00
      vertex   6.165330e+00 5.901419e+00 -7.161313e+00
    endloop
  endfacet
  facet normal -4.642720e-01 -4.444231e-01 -7.661199e-01
    outer loop
      vertex   3.020212e+00 3.020052e+00 -3.583888e+00
      vertex   6.165330e+00 5.901419e+00 -7.161313e+00
      vertex   3.149051e+00 2.885459e+00 -3.583888e+00
    endloop
  endfacet
  facet normal -4.691839e-01 -4.393988e-01 -7.660256e-01
    outer loop
      vertex   3.149051e+00 2.885459e+00 -3.583888e+00
      vertex   6.165330e+00 5.901419e+00 -7.161313e+00
      vertex   6.294437e+00 5.767330e+00 -7.163476e+00
    endloop
  endfacet
  facet normal -4.786513e-01 -4.290659e-01 -7.660257e-01
    outer loop
      vertex   3.149051e+00 2.885459e+00 -3.583888e+00
      vertex   6.294437e+00 5.767330e+00 -7.163476e+00
      vertex   6.420584e+00 5.630454e+00 -7.165631e+00
    endloop
  endfacet
  facet normal -4.877556e-01 -4.184117e-01 -7.661763e-01
    outer loop
      vertex   6.420584e+00 5.630454e+00 -7.165631e+00
      vertex   6.543722e+00 5.490835e+00 -7.167776e+00
      vertex   3.149051e+00 2.885459e+00 -3.583888e+00
    endloop
  endfacet
  facet normal -4.833449e-01 -4.238737e-01 -7.659692e-01
    outer loop
      vertex   3.149051e+00 2.885459e+00 -3.583888e+00
      vertex   6.543722e+00 5.490835e+00 -7.167776e+00
      vertex   -2.307555e-14 0.000000e+00 1.776357e-14
    endloop
  endfacet
  facet normal -4.644017e-01 -4.445473e-01 -7.659691e-01
    outer loop
      vertex   3.149051e+00 2.885459e+00 -3.583888e+00
      vertex   -2.307555e-14 0.000000e+00 1.776357e-14
      vertex   3.020212e+00 3.020052e+00 -3.583888e+00
    endloop
  endfacet
endsolid
