solid ASCII
  facet normal 7.660444e-01 -6.427876e-01 6.081858e-16
    outer loop
      vertex   1.273454e+00 1.517644e+00 1.123562e+01
      vertex   0.000000e+00 0.000000e+00 0.000000e+00
      vertex   1.429679e+00 1.703825e+00 1.118578e+01
    endloop
  endfacet
  facet normal 7.660444e-01 -6.427876e-01 -2.943651e-16
    outer loop
      vertex   1.429679e+00 1.703825e+00 1.118578e+01
      vertex   0.000000e+00 0.000000e+00 0.000000e+00
      vertex   1.585126e+00 1.889079e+00 1.113021e+01
    endloop
  endfacet
  facet normal 7.660444e-01 -6.427876e-01 -2.355276e-16
    outer loop
      vertex   1.585126e+00 1.889079e+00 1.113021e+01
      vertex   0.000000e+00 0.000000e+00 0.000000e+00
      vertex   1.739735e+00 2.073336e+00 1.106893e+01
    endloop
  endfacet
  facet normal 7.660444e-01 -6.427876e-01 -1.570223e-16
    outer loop
      vertex   1.739735e+00 2.073336e+00 1.106893e+01
      vertex   0.000000e+00 0.000000e+00 0.000000e+00
      vertex   1.893448e+00 2.256523e+00 1.100197e+01
    endloop
  endfacet
  facet normal 7.660444e-01 -6.427876e-01 -3.925159e-17
    outer loop
      vertex   1.893448e+00 2.256523e+00 1.100197e+01
      vertex   0.000000e+00 0.000000e+00 0.000000e+00
      vertex   2.046204e+00 2.438571e+00 1.092935e+01
    endloop
  endfacet
  facet normal 7.660444e-01 -6.427876e-01 -5.886397e-16
    outer loop
      vertex   2.046204e+00 2.438571e+00 1.092935e+01
      vertex   0.000000e+00 0.000000e+00 0.000000e+00
      vertex   2.197944e+00 2.619408e+00 1.085111e+01
    endloop
  endfacet
  facet normal 7.660444e-01 -6.427876e-01 1.765293e-16
    outer loop
      vertex   2.197944e+00 2.619408e+00 1.085111e+01
      vertex   0.000000e+00 0.000000e+00 0.000000e+00
      vertex   2.348608e+00 2.798962e+00 1.076726e+01
    endloop
  endfacet
  facet normal 7.660444e-01 -6.427876e-01 -5.097275e-16
    outer loop
      vertex   2.348608e+00 2.798962e+00 1.076726e+01
      vertex   0.000000e+00 0.000000e+00 0.000000e+00
      vertex   2.498137e+00 2.977163e+00 1.067783e+01
    endloop
  endfacet
  facet normal 1.002127e-01 1.757986e-01 9.793121e-01
    outer loop
      vertex   1.112237e+00 1.926450e+00 1.118392e+01
      vertex   9.904507e-01 1.715511e+00 1.123425e+01
      vertex   1.189458e+00 1.867662e+00 1.118657e+01
    endloop
  endfacet
  facet normal 1.041727e-01 1.707684e-01 9.797889e-01
    outer loop
      vertex   1.189458e+00 1.867662e+00 1.118657e+01
      vertex   9.904507e-01 1.715511e+00 1.123425e+01
      vertex   1.136270e+00 1.622752e+00 1.123491e+01
    endloop
  endfacet
  facet normal 1.083774e-01 1.697985e-01 9.795013e-01
    outer loop
      vertex   1.189458e+00 1.867662e+00 1.118657e+01
      vertex   1.136270e+00 1.622752e+00 1.123491e+01
      vertex   1.271220e+00 1.815475e+00 1.118657e+01
    endloop
  endfacet
  facet normal 1.154644e-01 1.648451e-01 9.795377e-01
    outer loop
      vertex   1.271220e+00 1.815475e+00 1.118657e+01
      vertex   1.136270e+00 1.622752e+00 1.123491e+01
      vertex   1.350280e+00 1.760099e+00 1.118657e+01
    endloop
  endfacet
  facet normal 1.284679e-01 1.834097e-01 9.746060e-01
    outer loop
      vertex   1.271220e+00 1.815475e+00 1.118657e+01
      vertex   1.350280e+00 1.760099e+00 1.118657e+01
      vertex   1.408548e+00 2.011594e+00 1.113156e+01
    endloop
  endfacet
  facet normal 1.284699e-01 1.834092e-01 9.746058e-01
    outer loop
      vertex   1.408548e+00 2.011594e+00 1.113156e+01
      vertex   1.350280e+00 1.760099e+00 1.118657e+01
      vertex   1.496178e+00 1.950213e+00 1.113156e+01
    endloop
  endfacet
  facet normal 1.415767e-01 2.021212e-01 9.690733e-01
    outer loop
      vertex   1.408548e+00 2.011594e+00 1.113156e+01
      vertex   1.496178e+00 1.950213e+00 1.113156e+01
      vertex   1.546048e+00 2.207958e+00 1.107052e+01
    endloop
  endfacet
  facet normal 1.415789e-01 2.021207e-01 9.690731e-01
    outer loop
      vertex   1.546048e+00 2.207958e+00 1.107052e+01
      vertex   1.496178e+00 1.950213e+00 1.113156e+01
      vertex   1.642265e+00 2.140561e+00 1.107052e+01
    endloop
  endfacet
  facet normal 1.546771e-01 2.208199e-01 9.629712e-01
    outer loop
      vertex   1.546048e+00 2.207958e+00 1.107052e+01
      vertex   1.642265e+00 2.140561e+00 1.107052e+01
      vertex   1.683608e+00 2.404407e+00 1.100338e+01
    endloop
  endfacet
  facet normal 1.546796e-01 2.208195e-01 9.629709e-01
    outer loop
      vertex   1.683608e+00 2.404407e+00 1.100338e+01
      vertex   1.642265e+00 2.140561e+00 1.107052e+01
      vertex   1.788422e+00 2.330987e+00 1.100338e+01
    endloop
  endfacet
  facet normal 1.644826e-01 2.348141e-01 9.580229e-01
    outer loop
      vertex   1.683608e+00 2.404407e+00 1.100338e+01
      vertex   1.788422e+00 2.330987e+00 1.100338e+01
      vertex   1.752375e+00 2.502613e+00 1.096750e+01
    endloop
  endfacet
  facet normal 1.644843e-01 2.348144e-01 9.580225e-01
    outer loop
      vertex   1.752375e+00 2.502613e+00 1.096750e+01
      vertex   1.788422e+00 2.330987e+00 1.100338e+01
      vertex   1.861489e+00 2.426180e+00 1.096750e+01
    endloop
  endfacet
  facet normal 1.710150e-01 2.441376e-01 9.545421e-01
    outer loop
      vertex   1.752375e+00 2.502613e+00 1.096750e+01
      vertex   1.861489e+00 2.426180e+00 1.096750e+01
      vertex   1.821114e+00 2.600778e+00 1.093008e+01
    endloop
  endfacet
  facet normal 1.710168e-01 2.441379e-01 9.545417e-01
    outer loop
      vertex   1.821114e+00 2.600778e+00 1.093008e+01
      vertex   1.861489e+00 2.426180e+00 1.096750e+01
      vertex   1.934528e+00 2.521333e+00 1.093008e+01
    endloop
  endfacet
  facet normal 1.775382e-01 2.534477e-01 9.509177e-01
    outer loop
      vertex   1.821114e+00 2.600778e+00 1.093008e+01
      vertex   1.934528e+00 2.521333e+00 1.093008e+01
      vertex   1.889811e+00 2.698883e+00 1.089110e+01
    endloop
  endfacet
  facet normal 1.775401e-01 2.534481e-01 9.509172e-01
    outer loop
      vertex   1.889811e+00 2.698883e+00 1.089110e+01
      vertex   1.934528e+00 2.521333e+00 1.093008e+01
      vertex   2.007522e+00 2.616426e+00 1.089110e+01
    endloop
  endfacet
  facet normal 1.840506e-01 2.627422e-01 9.471494e-01
    outer loop
      vertex   1.889811e+00 2.698883e+00 1.089110e+01
      vertex   2.007522e+00 2.616426e+00 1.089110e+01
      vertex   1.958449e+00 2.796904e+00 1.085057e+01
    endloop
  endfacet
  facet normal 1.840525e-01 2.627426e-01 9.471489e-01
    outer loop
      vertex   1.958449e+00 2.796904e+00 1.085057e+01
      vertex   2.007522e+00 2.616426e+00 1.089110e+01
      vertex   2.080457e+00 2.711437e+00 1.085057e+01
    endloop
  endfacet
  facet normal 1.905504e-01 2.720186e-01 9.432372e-01
    outer loop
      vertex   1.958449e+00 2.796904e+00 1.085057e+01
      vertex   2.080457e+00 2.711437e+00 1.085057e+01
      vertex   2.027016e+00 2.894822e+00 1.080848e+01
    endloop
  endfacet
  facet normal 1.905525e-01 2.720191e-01 9.432366e-01
    outer loop
      vertex   2.027016e+00 2.894822e+00 1.080848e+01
      vertex   2.080457e+00 2.711437e+00 1.085057e+01
      vertex   2.153316e+00 2.806347e+00 1.080848e+01
    endloop
  endfacet
  facet normal 1.970362e-01 2.812748e-01 9.391811e-01
    outer loop
      vertex   2.027016e+00 2.894822e+00 1.080848e+01
      vertex   2.153316e+00 2.806347e+00 1.080848e+01
      vertex   2.095494e+00 2.992614e+00 1.076483e+01
    endloop
  endfacet
  facet normal 1.970383e-01 2.812753e-01 9.391805e-01
    outer loop
      vertex   2.095494e+00 2.992614e+00 1.076483e+01
      vertex   2.153316e+00 2.806347e+00 1.080848e+01
      vertex   2.226083e+00 2.901134e+00 1.076483e+01
    endloop
  endfacet
  facet normal 2.035062e-01 2.905084e-01 9.349813e-01
    outer loop
      vertex   2.095494e+00 2.992614e+00 1.076483e+01
      vertex   2.226083e+00 2.901134e+00 1.076483e+01
      vertex   2.163869e+00 3.090258e+00 1.071961e+01
    endloop
  endfacet
  facet normal 2.035085e-01 2.905089e-01 9.349807e-01
    outer loop
      vertex   2.163869e+00 3.090258e+00 1.071961e+01
      vertex   2.226083e+00 2.901134e+00 1.076483e+01
      vertex   2.298742e+00 2.995776e+00 1.071961e+01
    endloop
  endfacet
  facet normal 2.097088e-01 2.993599e-01 9.308093e-01
    outer loop
      vertex   2.163869e+00 3.090258e+00 1.071961e+01
      vertex   2.298742e+00 2.995776e+00 1.071961e+01
      vertex   2.365632e+00 3.082901e+00 1.067652e+01
    endloop
  endfacet
  facet normal 2.221331e-01 2.898797e-01 9.309278e-01
    outer loop
      vertex   2.365632e+00 3.082901e+00 1.067652e+01
      vertex   2.298742e+00 2.995776e+00 1.071961e+01
      vertex   2.498137e+00 2.977163e+00 1.067783e+01
    endloop
  endfacet
  facet normal 2.219202e-01 2.821825e-01 9.333405e-01
    outer loop
      vertex   2.498137e+00 2.977163e+00 1.067783e+01
      vertex   2.298742e+00 2.995776e+00 1.071961e+01
      vertex   2.348608e+00 2.798962e+00 1.076726e+01
    endloop
  endfacet
  facet normal 2.158686e-01 2.810734e-01 9.350928e-01
    outer loop
      vertex   2.348608e+00 2.798962e+00 1.076726e+01
      vertex   2.298742e+00 2.995776e+00 1.071961e+01
      vertex   2.226083e+00 2.901134e+00 1.076483e+01
    endloop
  endfacet
  facet normal 2.085957e-01 2.724513e-01 9.392859e-01
    outer loop
      vertex   2.348608e+00 2.798962e+00 1.076726e+01
      vertex   2.226083e+00 2.901134e+00 1.076483e+01
      vertex   2.153316e+00 2.806347e+00 1.080848e+01
    endloop
  endfacet
  facet normal 1.181459e-01 1.607915e-01 9.798917e-01
    outer loop
      vertex   1.136270e+00 1.622752e+00 1.123491e+01
      vertex   1.273454e+00 1.517644e+00 1.123562e+01
      vertex   1.350280e+00 1.760099e+00 1.118657e+01
    endloop
  endfacet
  facet normal 1.226909e-01 1.592880e-01 9.795786e-01
    outer loop
      vertex   1.350280e+00 1.760099e+00 1.118657e+01
      vertex   1.273454e+00 1.517644e+00 1.123562e+01
      vertex   1.429679e+00 1.703825e+00 1.118578e+01
    endloop
  endfacet
  facet normal 1.357741e-01 1.778171e-01 9.746520e-01
    outer loop
      vertex   1.350280e+00 1.760099e+00 1.118657e+01
      vertex   1.429679e+00 1.703825e+00 1.118578e+01
      vertex   1.496178e+00 1.950213e+00 1.113156e+01
    endloop
  endfacet
  facet normal 1.368725e-01 1.774996e-01 9.745562e-01
    outer loop
      vertex   1.496178e+00 1.950213e+00 1.113156e+01
      vertex   1.429679e+00 1.703825e+00 1.118578e+01
      vertex   1.585126e+00 1.889079e+00 1.113021e+01
    endloop
  endfacet
  facet normal 1.495299e-01 1.960363e-01 9.691288e-01
    outer loop
      vertex   1.496178e+00 1.950213e+00 1.113156e+01
      vertex   1.585126e+00 1.889079e+00 1.113021e+01
      vertex   1.642265e+00 2.140561e+00 1.107052e+01
    endloop
  endfacet
  facet normal 1.508179e-01 1.957119e-01 9.689947e-01
    outer loop
      vertex   1.642265e+00 2.140561e+00 1.107052e+01
      vertex   1.585126e+00 1.889079e+00 1.113021e+01
      vertex   1.739735e+00 2.073336e+00 1.106893e+01
    endloop
  endfacet
  facet normal 1.634241e-01 2.141311e-01 9.630371e-01
    outer loop
      vertex   1.642265e+00 2.140561e+00 1.107052e+01
      vertex   1.739735e+00 2.073336e+00 1.106893e+01
      vertex   1.788422e+00 2.330987e+00 1.100338e+01
    endloop
  endfacet
  facet normal 1.645617e-01 2.138810e-01 9.628989e-01
    outer loop
      vertex   1.788422e+00 2.330987e+00 1.100338e+01
      vertex   1.739735e+00 2.073336e+00 1.106893e+01
      vertex   1.893448e+00 2.256523e+00 1.100197e+01
    endloop
  endfacet
  facet normal 1.741169e-01 2.274489e-01 9.580972e-01
    outer loop
      vertex   1.788422e+00 2.330987e+00 1.100338e+01
      vertex   1.893448e+00 2.256523e+00 1.100197e+01
      vertex   1.861489e+00 2.426180e+00 1.096750e+01
    endloop
  endfacet
  facet normal 1.821652e-01 2.286048e-01 9.563241e-01
    outer loop
      vertex   1.861489e+00 2.426180e+00 1.096750e+01
      vertex   1.893448e+00 2.256523e+00 1.100197e+01
      vertex   2.046204e+00 2.438571e+00 1.092935e+01
    endloop
  endfacet
  facet normal 1.812991e-01 2.362771e-01 9.546223e-01
    outer loop
      vertex   1.861489e+00 2.426180e+00 1.096750e+01
      vertex   2.046204e+00 2.438571e+00 1.092935e+01
      vertex   1.934528e+00 2.521333e+00 1.093008e+01
    endloop
  endfacet
  facet normal 1.880489e-01 2.454168e-01 9.510038e-01
    outer loop
      vertex   1.934528e+00 2.521333e+00 1.093008e+01
      vertex   2.046204e+00 2.438571e+00 1.092935e+01
      vertex   2.007522e+00 2.616426e+00 1.089110e+01
    endloop
  endfacet
  facet normal 1.955077e-01 2.466468e-01 9.491797e-01
    outer loop
      vertex   2.046204e+00 2.438571e+00 1.092935e+01
      vertex   2.197944e+00 2.619408e+00 1.085111e+01
      vertex   2.007522e+00 2.616426e+00 1.089110e+01
    endloop
  endfacet
  facet normal 1.949793e-01 2.543943e-01 9.472416e-01
    outer loop
      vertex   2.007522e+00 2.616426e+00 1.089110e+01
      vertex   2.197944e+00 2.619408e+00 1.085111e+01
      vertex   2.080457e+00 2.711437e+00 1.085057e+01
    endloop
  endfacet
  facet normal 2.019710e-01 2.632974e-01 9.433357e-01
    outer loop
      vertex   2.080457e+00 2.711437e+00 1.085057e+01
      vertex   2.197944e+00 2.619408e+00 1.085111e+01
      vertex   2.153316e+00 2.806347e+00 1.080848e+01
    endloop
  endfacet
  facet normal 2.087662e-01 2.645049e-01 9.415168e-01
    outer loop
      vertex   2.153316e+00 2.806347e+00 1.080848e+01
      vertex   2.197944e+00 2.619408e+00 1.085111e+01
      vertex   2.348608e+00 2.798962e+00 1.076726e+01
    endloop
  endfacet
  facet normal 2.097030e-01 2.995462e-01 9.307506e-01
    outer loop
      vertex   2.365632e+00 3.082901e+00 1.067652e+01
      vertex   2.228648e+00 3.182767e+00 1.067524e+01
      vertex   2.163869e+00 3.090258e+00 1.071961e+01
    endloop
  endfacet
  facet normal 1.969071e-01 3.084520e-01 9.306369e-01
    outer loop
      vertex   2.163869e+00 3.090258e+00 1.071961e+01
      vertex   2.228648e+00 3.182767e+00 1.067524e+01
      vertex   2.025125e+00 3.178828e+00 1.071961e+01
    endloop
  endfacet
  facet normal 1.910077e-01 2.992106e-01 9.348738e-01
    outer loop
      vertex   2.163869e+00 3.090258e+00 1.071961e+01
      vertex   2.025125e+00 3.178828e+00 1.071961e+01
      vertex   2.095494e+00 2.992614e+00 1.076483e+01
    endloop
  endfacet
  facet normal 1.910048e-01 2.992098e-01 9.348747e-01
    outer loop
      vertex   2.095494e+00 2.992614e+00 1.076483e+01
      vertex   2.025125e+00 3.178828e+00 1.071961e+01
      vertex   1.961102e+00 3.078405e+00 1.076483e+01
    endloop
  endfacet
  facet normal 1.849359e-01 2.897028e-01 9.390799e-01
    outer loop
      vertex   2.095494e+00 2.992614e+00 1.076483e+01
      vertex   1.961102e+00 3.078405e+00 1.076483e+01
      vertex   2.027016e+00 2.894822e+00 1.080848e+01
    endloop
  endfacet
  facet normal 1.849331e-01 2.897020e-01 9.390807e-01
    outer loop
      vertex   2.027016e+00 2.894822e+00 1.080848e+01
      vertex   1.961102e+00 3.078405e+00 1.076483e+01
      vertex   1.896984e+00 2.977828e+00 1.080848e+01
    endloop
  endfacet
  facet normal 1.788492e-01 2.801714e-01 9.431421e-01
    outer loop
      vertex   2.027016e+00 2.894822e+00 1.080848e+01
      vertex   1.896984e+00 2.977828e+00 1.080848e+01
      vertex   1.958449e+00 2.796904e+00 1.085057e+01
    endloop
  endfacet
  facet normal 1.788466e-01 2.801707e-01 9.431428e-01
    outer loop
      vertex   1.958449e+00 2.796904e+00 1.085057e+01
      vertex   1.896984e+00 2.977828e+00 1.080848e+01
      vertex   1.832787e+00 2.877121e+00 1.085057e+01
    endloop
  endfacet
  facet normal 1.727492e-01 2.706190e-01 9.470602e-01
    outer loop
      vertex   1.958449e+00 2.796904e+00 1.085057e+01
      vertex   1.832787e+00 2.877121e+00 1.085057e+01
      vertex   1.889811e+00 2.698883e+00 1.089110e+01
    endloop
  endfacet
  facet normal 1.727467e-01 2.706183e-01 9.470609e-01
    outer loop
      vertex   1.889811e+00 2.698883e+00 1.089110e+01
      vertex   1.832787e+00 2.877121e+00 1.085057e+01
      vertex   1.768523e+00 2.776305e+00 1.089110e+01
    endloop
  endfacet
  facet normal 1.666375e-01 2.610478e-01 9.508344e-01
    outer loop
      vertex   1.889811e+00 2.698883e+00 1.089110e+01
      vertex   1.768523e+00 2.776305e+00 1.089110e+01
      vertex   1.821114e+00 2.600778e+00 1.093008e+01
    endloop
  endfacet
  facet normal 1.666351e-01 2.610472e-01 9.508350e-01
    outer loop
      vertex   1.821114e+00 2.600778e+00 1.093008e+01
      vertex   1.768523e+00 2.776305e+00 1.089110e+01
      vertex   1.704208e+00 2.675404e+00 1.093008e+01
    endloop
  endfacet
  facet normal 1.605154e-01 2.514602e-01 9.544645e-01
    outer loop
      vertex   1.821114e+00 2.600778e+00 1.093008e+01
      vertex   1.704208e+00 2.675404e+00 1.093008e+01
      vertex   1.752375e+00 2.502613e+00 1.096750e+01
    endloop
  endfacet
  facet normal 1.605131e-01 2.514597e-01 9.544651e-01
    outer loop
      vertex   1.752375e+00 2.502613e+00 1.096750e+01
      vertex   1.704208e+00 2.675404e+00 1.093008e+01
      vertex   1.639854e+00 2.574438e+00 1.096750e+01
    endloop
  endfacet
  facet normal 1.543846e-01 2.418588e-01 9.579508e-01
    outer loop
      vertex   1.752375e+00 2.502613e+00 1.096750e+01
      vertex   1.639854e+00 2.574438e+00 1.096750e+01
      vertex   1.683608e+00 2.404407e+00 1.100338e+01
    endloop
  endfacet
  facet normal 1.543824e-01 2.418583e-01 9.579513e-01
    outer loop
      vertex   1.683608e+00 2.404407e+00 1.100338e+01
      vertex   1.639854e+00 2.574438e+00 1.096750e+01
      vertex   1.575477e+00 2.473429e+00 1.100338e+01
    endloop
  endfacet
  facet normal 1.451829e-01 2.274462e-01 9.629071e-01
    outer loop
      vertex   1.683608e+00 2.404407e+00 1.100338e+01
      vertex   1.575477e+00 2.473429e+00 1.100338e+01
      vertex   1.546048e+00 2.207958e+00 1.107052e+01
    endloop
  endfacet
  facet normal 1.451797e-01 2.274467e-01 9.629075e-01
    outer loop
      vertex   1.546048e+00 2.207958e+00 1.107052e+01
      vertex   1.575477e+00 2.473429e+00 1.100338e+01
      vertex   1.446704e+00 2.271369e+00 1.107052e+01
    endloop
  endfacet
  facet normal 1.328874e-01 2.081889e-01 9.690193e-01
    outer loop
      vertex   1.546048e+00 2.207958e+00 1.107052e+01
      vertex   1.446704e+00 2.271369e+00 1.107052e+01
      vertex   1.408548e+00 2.011594e+00 1.113156e+01
    endloop
  endfacet
  facet normal 1.328845e-01 2.081894e-01 9.690195e-01
    outer loop
      vertex   1.408548e+00 2.011594e+00 1.113156e+01
      vertex   1.446704e+00 2.271369e+00 1.107052e+01
      vertex   1.317996e+00 2.069392e+00 1.113156e+01
    endloop
  endfacet
  facet normal 1.205837e-01 1.889179e-01 9.745612e-01
    outer loop
      vertex   1.408548e+00 2.011594e+00 1.113156e+01
      vertex   1.317996e+00 2.069392e+00 1.113156e+01
      vertex   1.271220e+00 1.815475e+00 1.118657e+01
    endloop
  endfacet
  facet normal 1.205811e-01 1.889184e-01 9.745614e-01
    outer loop
      vertex   1.271220e+00 1.815475e+00 1.118657e+01
      vertex   1.317996e+00 2.069392e+00 1.113156e+01
      vertex   1.189458e+00 1.867662e+00 1.118657e+01
    endloop
  endfacet
  facet normal 1.968913e-01 3.086326e-01 9.305803e-01
    outer loop
      vertex   2.228648e+00 3.182767e+00 1.067524e+01
      vertex   2.087445e+00 3.276576e+00 1.067400e+01
      vertex   2.025125e+00 3.178828e+00 1.071961e+01
    endloop
  endfacet
  facet normal 1.836580e-01 3.170171e-01 9.304676e-01
    outer loop
      vertex   2.025125e+00 3.178828e+00 1.071961e+01
      vertex   2.087445e+00 3.276576e+00 1.067400e+01
      vertex   1.942294e+00 3.364152e+00 1.067282e+01
    endloop
  endfacet
  facet normal 1.773042e-01 3.146875e-01 9.324886e-01
    outer loop
      vertex   2.025125e+00 3.178828e+00 1.071961e+01
      vertex   1.942294e+00 3.364152e+00 1.067282e+01
      vertex   1.826454e+00 3.163512e+00 1.076255e+01
    endloop
  endfacet
  facet normal 1.659926e-01 2.957529e-01 9.407320e-01
    outer loop
      vertex   1.709628e+00 2.961163e+00 1.084678e+01
      vertex   1.896984e+00 2.977828e+00 1.080848e+01
      vertex   1.826454e+00 3.163512e+00 1.076255e+01
    endloop
  endfacet
  facet normal 1.722963e-01 2.977136e-01 9.389785e-01
    outer loop
      vertex   1.826454e+00 3.163512e+00 1.076255e+01
      vertex   1.896984e+00 2.977828e+00 1.080848e+01
      vertex   1.961102e+00 3.078405e+00 1.076483e+01
    endloop
  endfacet
  facet normal 1.783740e-01 3.072165e-01 9.347731e-01
    outer loop
      vertex   1.826454e+00 3.163512e+00 1.076255e+01
      vertex   1.961102e+00 3.078405e+00 1.076483e+01
      vertex   2.025125e+00 3.178828e+00 1.071961e+01
    endloop
  endfacet
  facet normal 1.545360e-01 2.766365e-01 9.484677e-01
    outer loop
      vertex   1.591859e+00 2.757181e+00 1.092547e+01
      vertex   1.768523e+00 2.776305e+00 1.089110e+01
      vertex   1.709628e+00 2.961163e+00 1.084678e+01
    endloop
  endfacet
  facet normal 1.607200e-01 2.782471e-01 9.469676e-01
    outer loop
      vertex   1.709628e+00 2.961163e+00 1.084678e+01
      vertex   1.768523e+00 2.776305e+00 1.089110e+01
      vertex   1.832787e+00 2.877121e+00 1.085057e+01
    endloop
  endfacet
  facet normal 1.671962e-01 2.875610e-01 9.430557e-01
    outer loop
      vertex   1.709628e+00 2.961163e+00 1.084678e+01
      vertex   1.832787e+00 2.877121e+00 1.085057e+01
      vertex   1.896984e+00 2.977828e+00 1.080848e+01
    endloop
  endfacet
  facet normal 1.429192e-01 2.573587e-01 9.556886e-01
    outer loop
      vertex   1.473192e+00 2.551643e+00 1.099856e+01
      vertex   1.639854e+00 2.574438e+00 1.096750e+01
      vertex   1.591859e+00 2.757181e+00 1.092547e+01
    endloop
  endfacet
  facet normal 1.491242e-01 2.586875e-01 9.543808e-01
    outer loop
      vertex   1.591859e+00 2.757181e+00 1.092547e+01
      vertex   1.639854e+00 2.574438e+00 1.096750e+01
      vertex   1.704208e+00 2.675404e+00 1.093008e+01
    endloop
  endfacet
  facet normal 1.559343e-01 2.678393e-01 9.507610e-01
    outer loop
      vertex   1.591859e+00 2.757181e+00 1.092547e+01
      vertex   1.704208e+00 2.675404e+00 1.093008e+01
      vertex   1.768523e+00 2.776305e+00 1.089110e+01
    endloop
  endfacet
  facet normal 1.445995e-01 2.480713e-01 9.578891e-01
    outer loop
      vertex   1.639854e+00 2.574438e+00 1.096750e+01
      vertex   1.473192e+00 2.551643e+00 1.099856e+01
      vertex   1.575477e+00 2.473429e+00 1.100338e+01
    endloop
  endfacet
  facet normal 1.349541e-01 2.357352e-01 9.624013e-01
    outer loop
      vertex   1.575477e+00 2.473429e+00 1.100338e+01
      vertex   1.473192e+00 2.551643e+00 1.099856e+01
      vertex   1.353669e+00 2.344624e+00 1.106603e+01
    endloop
  endfacet
  facet normal 1.368080e-01 2.327668e-01 9.628620e-01
    outer loop
      vertex   1.575477e+00 2.473429e+00 1.100338e+01
      vertex   1.353669e+00 2.344624e+00 1.106603e+01
      vertex   1.446704e+00 2.271369e+00 1.107052e+01
    endloop
  endfacet
  facet normal 1.233255e-01 2.159940e-01 9.685749e-01
    outer loop
      vertex   1.446704e+00 2.271369e+00 1.107052e+01
      vertex   1.353669e+00 2.344624e+00 1.106603e+01
      vertex   1.233336e+00 2.136201e+00 1.112783e+01
    endloop
  endfacet
  facet normal 1.253410e-01 2.129852e-01 9.689824e-01
    outer loop
      vertex   1.446704e+00 2.271369e+00 1.107052e+01
      vertex   1.233336e+00 2.136201e+00 1.112783e+01
      vertex   1.317996e+00 2.069392e+00 1.113156e+01
    endloop
  endfacet
  facet normal 1.117236e-01 1.960218e-01 9.742142e-01
    outer loop
      vertex   1.317996e+00 2.069392e+00 1.113156e+01
      vertex   1.233336e+00 2.136201e+00 1.112783e+01
      vertex   1.112237e+00 1.926450e+00 1.118392e+01
    endloop
  endfacet
  facet normal 1.136976e-01 1.932960e-01 9.745304e-01
    outer loop
      vertex   1.317996e+00 2.069392e+00 1.113156e+01
      vertex   1.112237e+00 1.926450e+00 1.118392e+01
      vertex   1.189458e+00 1.867662e+00 1.118657e+01
    endloop
  endfacet
  facet normal -8.660254e-01 5.000000e-01 8.182404e-11
    outer loop
      vertex   9.904507e-01 1.715511e+00 1.123425e+01
      vertex   1.112237e+00 1.926450e+00 1.118392e+01
      vertex   0.000000e+00 0.000000e+00 0.000000e+00
    endloop
  endfacet
  facet normal -8.660254e-01 5.000000e-01 -1.783854e-11
    outer loop
      vertex   0.000000e+00 0.000000e+00 0.000000e+00
      vertex   1.112237e+00 1.926450e+00 1.118392e+01
      vertex   1.233336e+00 2.136201e+00 1.112783e+01
    endloop
  endfacet
  facet normal -8.660254e-01 5.000000e-01 -2.487608e-11
    outer loop
      vertex   0.000000e+00 0.000000e+00 0.000000e+00
      vertex   1.233336e+00 2.136201e+00 1.112783e+01
      vertex   1.353669e+00 2.344624e+00 1.106603e+01
    endloop
  endfacet
  facet normal -8.660254e-01 5.000000e-01 -2.925404e-11
    outer loop
      vertex   1.353669e+00 2.344624e+00 1.106603e+01
      vertex   1.473192e+00 2.551643e+00 1.099856e+01
      vertex   0.000000e+00 0.000000e+00 0.000000e+00
    endloop
  endfacet
  facet normal -8.660254e-01 5.000000e-01 -3.036487e-11
    outer loop
      vertex   0.000000e+00 0.000000e+00 0.000000e+00
      vertex   1.473192e+00 2.551643e+00 1.099856e+01
      vertex   1.591859e+00 2.757181e+00 1.092547e+01
    endloop
  endfacet
  facet normal -8.660254e-01 5.000000e-01 -2.761254e-11
    outer loop
      vertex   0.000000e+00 0.000000e+00 0.000000e+00
      vertex   1.591859e+00 2.757181e+00 1.092547e+01
      vertex   1.709628e+00 2.961163e+00 1.084678e+01
    endloop
  endfacet
  facet normal -8.660254e-01 5.000000e-01 -2.039840e-11
    outer loop
      vertex   1.709628e+00 2.961163e+00 1.084678e+01
      vertex   1.826454e+00 3.163512e+00 1.076255e+01
      vertex   0.000000e+00 0.000000e+00 0.000000e+00
    endloop
  endfacet
  facet normal -8.660254e-01 5.000000e-01 -8.137705e-12
    outer loop
      vertex   0.000000e+00 0.000000e+00 0.000000e+00
      vertex   1.826454e+00 3.163512e+00 1.076255e+01
      vertex   1.942294e+00 3.364152e+00 1.067282e+01
    endloop
  endfacet
  facet normal -5.995314e-01 -7.813220e-01 1.734879e-01
    outer loop
      vertex   1.136270e+00 1.622752e+00 1.123491e+01
      vertex   7.575600e-01 1.081904e+00 7.490414e+00
      vertex   1.273454e+00 1.517644e+00 1.123562e+01
    endloop
  endfacet
  facet normal -5.995312e-01 -7.813221e-01 1.734879e-01
    outer loop
      vertex   1.273454e+00 1.517644e+00 1.123562e+01
      vertex   7.575600e-01 1.081904e+00 7.490414e+00
      vertex   3.787795e-01 5.409521e-01 3.745207e+00
    endloop
  endfacet
  facet normal -5.995307e-01 -7.813225e-01 1.734879e-01
    outer loop
      vertex   1.273454e+00 1.517644e+00 1.123562e+01
      vertex   3.787795e-01 5.409521e-01 3.745207e+00
      vertex   0.000000e+00 0.000000e+00 0.000000e+00
    endloop
  endfacet
  facet normal -5.291532e-01 -8.306015e-01 1.734879e-01
    outer loop
      vertex   1.136270e+00 1.622752e+00 1.123491e+01
      vertex   9.904507e-01 1.715511e+00 1.123425e+01
      vertex   7.575600e-01 1.081904e+00 7.490414e+00
    endloop
  endfacet
  facet normal -5.291529e-01 -8.306017e-01 1.734879e-01
    outer loop
      vertex   7.575600e-01 1.081904e+00 7.490414e+00
      vertex   9.904507e-01 1.715511e+00 1.123425e+01
      vertex   3.787795e-01 5.409521e-01 3.745207e+00
    endloop
  endfacet
  facet normal -5.291524e-01 -8.306020e-01 1.734879e-01
    outer loop
      vertex   9.904507e-01 1.715511e+00 1.123425e+01
      vertex   0.000000e+00 0.000000e+00 0.000000e+00
      vertex   3.787795e-01 5.409521e-01 3.745207e+00
    endloop
  endfacet
  facet normal 4.874576e-01 8.032942e-01 -3.422039e-01
    outer loop
      vertex   2.087445e+00 3.276576e+00 1.067400e+01
      vertex   1.423745e+00 2.164699e+00 7.118551e+00
      vertex   1.942294e+00 3.364152e+00 1.067282e+01
    endloop
  endfacet
  facet normal 4.933410e-01 7.998276e-01 -3.418924e-01
    outer loop
      vertex   1.942294e+00 3.364152e+00 1.067282e+01
      vertex   1.423745e+00 2.164699e+00 7.118551e+00
      vertex   7.118725e-01 1.082350e+00 3.559275e+00
    endloop
  endfacet
  facet normal 4.933410e-01 7.998276e-01 -3.418924e-01
    outer loop
      vertex   1.942294e+00 3.364152e+00 1.067282e+01
      vertex   7.118725e-01 1.082350e+00 3.559275e+00
      vertex   0.000000e+00 0.000000e+00 0.000000e+00
    endloop
  endfacet
  facet normal 5.221119e-01 7.813821e-01 -3.418204e-01
    outer loop
      vertex   2.087445e+00 3.276576e+00 1.067400e+01
      vertex   2.228648e+00 3.182767e+00 1.067524e+01
      vertex   1.423745e+00 2.164699e+00 7.118551e+00
    endloop
  endfacet
  facet normal 5.389321e-01 7.696749e-01 -3.422758e-01
    outer loop
      vertex   1.423745e+00 2.164699e+00 7.118551e+00
      vertex   2.228648e+00 3.182767e+00 1.067524e+01
      vertex   1.547202e+00 2.078254e+00 7.118551e+00
    endloop
  endfacet
  facet normal 5.390122e-01 7.697892e-01 -3.418924e-01
    outer loop
      vertex   1.423745e+00 2.164699e+00 7.118551e+00
      vertex   1.547202e+00 2.078254e+00 7.118551e+00
      vertex   7.736012e-01 1.039127e+00 3.559275e+00
    endloop
  endfacet
  facet normal 5.828596e-01 7.371461e-01 -3.418924e-01
    outer loop
      vertex   7.736012e-01 1.039127e+00 3.559275e+00
      vertex   1.547202e+00 2.078254e+00 7.118551e+00
      vertex   2.498137e+00 2.977163e+00 1.067783e+01
    endloop
  endfacet
  facet normal 5.828596e-01 7.371461e-01 -3.418924e-01
    outer loop
      vertex   7.736012e-01 1.039127e+00 3.559275e+00
      vertex   2.498137e+00 2.977163e+00 1.067783e+01
      vertex   0.000000e+00 0.000000e+00 0.000000e+00
    endloop
  endfacet
  facet normal 5.556984e-01 7.578641e-01 -3.418204e-01
    outer loop
      vertex   2.228648e+00 3.182767e+00 1.067524e+01
      vertex   2.365632e+00 3.082901e+00 1.067652e+01
      vertex   1.547202e+00 2.078254e+00 7.118551e+00
    endloop
  endfacet
  facet normal 5.881384e-01 7.327958e-01 -3.422040e-01
    outer loop
      vertex   1.547202e+00 2.078254e+00 7.118551e+00
      vertex   2.365632e+00 3.082901e+00 1.067652e+01
      vertex   2.498137e+00 2.977163e+00 1.067783e+01
    endloop
  endfacet
  facet normal 5.390122e-01 7.697892e-01 -3.418924e-01
    outer loop
      vertex   7.736012e-01 1.039127e+00 3.559275e+00
      vertex   0.000000e+00 0.000000e+00 0.000000e+00
      vertex   7.118725e-01 1.082350e+00 3.559275e+00
    endloop
  endfacet
  facet normal 5.390122e-01 7.697892e-01 -3.418924e-01
    outer loop
      vertex   7.736012e-01 1.039127e+00 3.559275e+00
      vertex   7.118725e-01 1.082350e+00 3.559275e+00
      vertex   1.423745e+00 2.164699e+00 7.118551e+00
    endloop
  endfacet
endsolid
