solid ASCII
  facet normal -7.660444e-01 -6.427876e-01 1.600332e-10
    outer loop
      vertex   2.498137e+00 -2.977163e+00 1.067783e+01
      vertex   0.000000e+00 0.000000e+00 -8.881784e-15
      vertex   2.645533e+00 -3.152823e+00 1.058346e+01
    endloop
  endfacet
  facet normal -7.660444e-01 -6.427876e-01 -2.225808e-11
    outer loop
      vertex   2.645533e+00 -3.152823e+00 1.058346e+01
      vertex   0.000000e+00 0.000000e+00 -8.881784e-15
      vertex   2.791404e+00 -3.326666e+00 1.048384e+01
    endloop
  endfacet
  facet normal -7.660444e-01 -6.427876e-01 -3.562428e-11
    outer loop
      vertex   2.791404e+00 -3.326666e+00 1.048384e+01
      vertex   0.000000e+00 0.000000e+00 -8.881784e-15
      vertex   2.935594e+00 -3.498505e+00 1.037910e+01
    endloop
  endfacet
  facet normal -7.660444e-01 -6.427876e-01 -4.378301e-11
    outer loop
      vertex   2.935594e+00 -3.498505e+00 1.037910e+01
      vertex   0.000000e+00 0.000000e+00 -8.881784e-15
      vertex   3.078059e+00 -3.668288e+00 1.026930e+01
    endloop
  endfacet
  facet normal -7.660444e-01 -6.427876e-01 -4.611986e-11
    outer loop
      vertex   3.078059e+00 -3.668288e+00 1.026930e+01
      vertex   0.000000e+00 0.000000e+00 -8.881784e-15
      vertex   3.218756e+00 -3.835964e+00 1.015451e+01
    endloop
  endfacet
  facet normal -7.660444e-01 -6.427876e-01 -4.202800e-11
    outer loop
      vertex   3.218756e+00 -3.835964e+00 1.015451e+01
      vertex   0.000000e+00 0.000000e+00 -8.881784e-15
      vertex   3.357641e+00 -4.001480e+00 1.003479e+01
    endloop
  endfacet
  facet normal -7.660444e-01 -6.427876e-01 -3.091991e-11
    outer loop
      vertex   3.357641e+00 -4.001480e+00 1.003479e+01
      vertex   0.000000e+00 0.000000e+00 -8.881784e-15
      vertex   3.494669e+00 -4.164785e+00 9.910211e+00
    endloop
  endfacet
  facet normal -7.660444e-01 -6.427876e-01 -1.220470e-11
    outer loop
      vertex   3.494669e+00 -4.164785e+00 9.910211e+00
      vertex   0.000000e+00 0.000000e+00 -8.881784e-15
      vertex   3.629799e+00 -4.325826e+00 9.780829e+00
    endloop
  endfacet
  facet normal 2.795085e-01 -2.548567e-01 9.257014e-01
    outer loop
      vertex   3.154597e+00 -2.647021e+00 1.058939e+01
      vertex   2.978652e+00 -2.499386e+00 1.068316e+01
      vertex   3.047900e+00 -2.760792e+00 1.059029e+01
    endloop
  endfacet
  facet normal 2.783951e-01 -2.552339e-01 9.259330e-01
    outer loop
      vertex   3.047900e+00 -2.760792e+00 1.059029e+01
      vertex   2.978652e+00 -2.499386e+00 1.068316e+01
      vertex   2.866460e+00 -2.626583e+00 1.068183e+01
    endloop
  endfacet
  facet normal 2.701088e-01 -2.660363e-01 9.253464e-01
    outer loop
      vertex   3.047900e+00 -2.760792e+00 1.059029e+01
      vertex   2.866460e+00 -2.626583e+00 1.068183e+01
      vertex   2.938349e+00 -2.872020e+00 1.059029e+01
    endloop
  endfacet
  facet normal 2.669562e-01 -2.671781e-01 9.259321e-01
    outer loop
      vertex   2.938349e+00 -2.872020e+00 1.059029e+01
      vertex   2.866460e+00 -2.626583e+00 1.068183e+01
      vertex   2.748824e+00 -2.748764e+00 1.068049e+01
    endloop
  endfacet
  facet normal 2.590923e-01 -2.784696e-01 9.248383e-01
    outer loop
      vertex   2.938349e+00 -2.872020e+00 1.059029e+01
      vertex   2.748824e+00 -2.748764e+00 1.068049e+01
      vertex   2.790060e+00 -3.009990e+00 1.059029e+01
    endloop
  endfacet
  facet normal 2.557031e-01 -2.792491e-01 9.255462e-01
    outer loop
      vertex   2.790060e+00 -3.009990e+00 1.059029e+01
      vertex   2.748824e+00 -2.748764e+00 1.068049e+01
      vertex   2.625971e+00 -2.865698e+00 1.067915e+01
    endloop
  endfacet
  facet normal 2.445411e-01 -2.914781e-01 9.247920e-01
    outer loop
      vertex   2.790060e+00 -3.009990e+00 1.059029e+01
      vertex   2.625971e+00 -2.865698e+00 1.067915e+01
      vertex   2.498137e+00 -2.977163e+00 1.067783e+01
    endloop
  endfacet
  facet normal 2.445170e-01 -2.916038e-01 9.247587e-01
    outer loop
      vertex   2.498137e+00 -2.977163e+00 1.067783e+01
      vertex   2.645533e+00 -3.152823e+00 1.058346e+01
      vertex   2.790060e+00 -3.009990e+00 1.059029e+01
    endloop
  endfacet
  facet normal 2.586966e-01 -3.055503e-01 9.163597e-01
    outer loop
      vertex   2.790060e+00 -3.009990e+00 1.059029e+01
      vertex   2.645533e+00 -3.152823e+00 1.058346e+01
      vertex   2.943624e+00 -3.175658e+00 1.049169e+01
    endloop
  endfacet
  facet normal 2.724818e-01 -2.928605e-01 9.165077e-01
    outer loop
      vertex   2.790060e+00 -3.009990e+00 1.059029e+01
      vertex   2.943624e+00 -3.175658e+00 1.049169e+01
      vertex   2.938349e+00 -2.872020e+00 1.059029e+01
    endloop
  endfacet
  facet normal 2.724818e-01 -2.928605e-01 9.165077e-01
    outer loop
      vertex   2.938349e+00 -2.872020e+00 1.059029e+01
      vertex   2.943624e+00 -3.175658e+00 1.049169e+01
      vertex   3.100074e+00 -3.030094e+00 1.049169e+01
    endloop
  endfacet
  facet normal 2.847273e-01 -2.804344e-01 9.166716e-01
    outer loop
      vertex   2.938349e+00 -2.872020e+00 1.059029e+01
      vertex   3.100074e+00 -3.030094e+00 1.049169e+01
      vertex   3.047900e+00 -2.760792e+00 1.059029e+01
    endloop
  endfacet
  facet normal 2.847273e-01 -2.804344e-01 9.166716e-01
    outer loop
      vertex   3.047900e+00 -2.760792e+00 1.059029e+01
      vertex   3.100074e+00 -3.030094e+00 1.049169e+01
      vertex   3.215655e+00 -2.912744e+00 1.049169e+01
    endloop
  endfacet
  facet normal 2.948632e-01 -2.693266e-01 9.167982e-01
    outer loop
      vertex   3.047900e+00 -2.760792e+00 1.059029e+01
      vertex   3.215655e+00 -2.912744e+00 1.049169e+01
      vertex   3.154597e+00 -2.647021e+00 1.058939e+01
    endloop
  endfacet
  facet normal 2.952924e-01 -2.691917e-01 9.166996e-01
    outer loop
      vertex   3.154597e+00 -2.647021e+00 1.058939e+01
      vertex   3.215655e+00 -2.912744e+00 1.049169e+01
      vertex   3.328788e+00 -2.793184e+00 1.049036e+01
    endloop
  endfacet
  facet normal 3.103630e-01 -2.835567e-01 9.073425e-01
    outer loop
      vertex   3.328788e+00 -2.793184e+00 1.049036e+01
      vertex   3.215655e+00 -2.912744e+00 1.049169e+01
      vertex   3.382510e+00 -3.063882e+00 1.038739e+01
    endloop
  endfacet
  facet normal 3.108092e-01 -2.834256e-01 9.072307e-01
    outer loop
      vertex   3.328788e+00 -2.793184e+00 1.049036e+01
      vertex   3.382510e+00 -3.063882e+00 1.038739e+01
      vertex   3.500992e+00 -2.937681e+00 1.038622e+01
    endloop
  endfacet
  facet normal 3.220213e-01 -2.940195e-01 8.999193e-01
    outer loop
      vertex   3.500992e+00 -2.937681e+00 1.038622e+01
      vertex   3.382510e+00 -3.063882e+00 1.038739e+01
      vertex   3.465556e+00 -3.139105e+00 1.033309e+01
    endloop
  endfacet
  facet normal 3.286329e-01 -2.945091e-01 8.973655e-01
    outer loop
      vertex   3.500992e+00 -2.937681e+00 1.038622e+01
      vertex   3.465556e+00 -3.139105e+00 1.033309e+01
      vertex   3.671159e+00 -3.080468e+00 1.027704e+01
    endloop
  endfacet
  facet normal 3.297712e-01 -3.009439e-01 8.948093e-01
    outer loop
      vertex   3.671159e+00 -3.080468e+00 1.027704e+01
      vertex   3.465556e+00 -3.139105e+00 1.033309e+01
      vertex   3.548323e+00 -3.214075e+00 1.027738e+01
    endloop
  endfacet
  facet normal 3.373803e-01 -3.079527e-01 8.895728e-01
    outer loop
      vertex   3.671159e+00 -3.080468e+00 1.027704e+01
      vertex   3.548323e+00 -3.214075e+00 1.027738e+01
      vertex   3.630794e+00 -3.288777e+00 1.022024e+01
    endloop
  endfacet
  facet normal 3.256690e-01 -3.207588e-01 8.894119e-01
    outer loop
      vertex   3.630794e+00 -3.288777e+00 1.022024e+01
      vertex   3.548323e+00 -3.214075e+00 1.027738e+01
      vertex   3.500291e+00 -3.421278e+00 1.022024e+01
    endloop
  endfacet
  facet normal 3.330059e-01 -3.279850e-01 8.840435e-01
    outer loop
      vertex   3.630794e+00 -3.288777e+00 1.022024e+01
      vertex   3.500291e+00 -3.421278e+00 1.022024e+01
      vertex   3.579494e+00 -3.498693e+00 1.016168e+01
    endloop
  endfacet
  facet normal 3.186630e-01 -3.424956e-01 8.838273e-01
    outer loop
      vertex   3.579494e+00 -3.498693e+00 1.016168e+01
      vertex   3.500291e+00 -3.421278e+00 1.022024e+01
      vertex   3.398850e+00 -3.666768e+00 1.016168e+01
    endloop
  endfacet
  facet normal 3.256444e-01 -3.499991e-01 8.783259e-01
    outer loop
      vertex   3.579494e+00 -3.498693e+00 1.016168e+01
      vertex   3.398850e+00 -3.666768e+00 1.016168e+01
      vertex   3.473752e+00 -3.747574e+00 1.010171e+01
    endloop
  endfacet
  facet normal 3.085722e-01 -3.656624e-01 8.781083e-01
    outer loop
      vertex   3.473752e+00 -3.747574e+00 1.010171e+01
      vertex   3.398850e+00 -3.666768e+00 1.016168e+01
      vertex   3.218756e+00 -3.835964e+00 1.015451e+01
    endloop
  endfacet
  facet normal 3.101985e-01 -3.723887e-01 8.747020e-01
    outer loop
      vertex   3.473752e+00 -3.747574e+00 1.010171e+01
      vertex   3.218756e+00 -3.835964e+00 1.015451e+01
      vertex   3.357641e+00 -4.001480e+00 1.003479e+01
    endloop
  endfacet
  facet normal 2.582947e-01 -3.079815e-01 9.156589e-01
    outer loop
      vertex   2.645533e+00 -3.152823e+00 1.058346e+01
      vertex   2.791404e+00 -3.326666e+00 1.048384e+01
      vertex   2.943624e+00 -3.175658e+00 1.049169e+01
    endloop
  endfacet
  facet normal 2.723014e-01 -3.216431e-01 9.068614e-01
    outer loop
      vertex   2.943624e+00 -3.175658e+00 1.049169e+01
      vertex   2.791404e+00 -3.326666e+00 1.048384e+01
      vertex   3.096364e+00 -3.340438e+00 1.038739e+01
    endloop
  endfacet
  facet normal 2.868286e-01 -3.082803e-01 9.070240e-01
    outer loop
      vertex   2.943624e+00 -3.175658e+00 1.049169e+01
      vertex   3.096364e+00 -3.340438e+00 1.038739e+01
      vertex   3.100074e+00 -3.030094e+00 1.049169e+01
    endloop
  endfacet
  facet normal 2.868286e-01 -3.082803e-01 9.070240e-01
    outer loop
      vertex   3.100074e+00 -3.030094e+00 1.049169e+01
      vertex   3.096364e+00 -3.340438e+00 1.038739e+01
      vertex   3.260931e+00 -3.187321e+00 1.038739e+01
    endloop
  endfacet
  facet normal 2.997247e-01 -2.952056e-01 9.072038e-01
    outer loop
      vertex   3.100074e+00 -3.030094e+00 1.049169e+01
      vertex   3.260931e+00 -3.187321e+00 1.038739e+01
      vertex   3.215655e+00 -2.912744e+00 1.049169e+01
    endloop
  endfacet
  facet normal 2.997247e-01 -2.952056e-01 9.072038e-01
    outer loop
      vertex   3.215655e+00 -2.912744e+00 1.049169e+01
      vertex   3.260931e+00 -3.187321e+00 1.038739e+01
      vertex   3.382510e+00 -3.063882e+00 1.038739e+01
    endloop
  endfacet
  facet normal 2.719471e-01 -3.241012e-01 9.060923e-01
    outer loop
      vertex   2.791404e+00 -3.326666e+00 1.048384e+01
      vertex   2.935594e+00 -3.498505e+00 1.037910e+01
      vertex   3.096364e+00 -3.340438e+00 1.038739e+01
    endloop
  endfacet
  facet normal 2.820195e-01 -3.339947e-01 8.993957e-01
    outer loop
      vertex   3.096364e+00 -3.340438e+00 1.038739e+01
      vertex   2.935594e+00 -3.498505e+00 1.037910e+01
      vertex   3.172384e+00 -3.422450e+00 1.033309e+01
    endloop
  endfacet
  facet normal 2.975085e-01 -3.197590e-01 8.995793e-01
    outer loop
      vertex   3.096364e+00 -3.340438e+00 1.038739e+01
      vertex   3.172384e+00 -3.422450e+00 1.033309e+01
      vertex   3.260931e+00 -3.187321e+00 1.038739e+01
    endloop
  endfacet
  facet normal 2.975085e-01 -3.197590e-01 8.995793e-01
    outer loop
      vertex   3.260931e+00 -3.187321e+00 1.038739e+01
      vertex   3.172384e+00 -3.422450e+00 1.033309e+01
      vertex   3.340992e+00 -3.265575e+00 1.033309e+01
    endloop
  endfacet
  facet normal 3.108894e-01 -3.062021e-01 8.997711e-01
    outer loop
      vertex   3.260931e+00 -3.187321e+00 1.038739e+01
      vertex   3.340992e+00 -3.265575e+00 1.033309e+01
      vertex   3.382510e+00 -3.063882e+00 1.038739e+01
    endloop
  endfacet
  facet normal 3.108894e-01 -3.062021e-01 8.997711e-01
    outer loop
      vertex   3.382510e+00 -3.063882e+00 1.038739e+01
      vertex   3.340992e+00 -3.265575e+00 1.033309e+01
      vertex   3.465556e+00 -3.139105e+00 1.033309e+01
    endloop
  endfacet
  facet normal 2.837485e-01 -3.413902e-01 8.960689e-01
    outer loop
      vertex   2.935594e+00 -3.498505e+00 1.037910e+01
      vertex   3.078059e+00 -3.668288e+00 1.026930e+01
      vertex   3.172384e+00 -3.422450e+00 1.033309e+01
    endloop
  endfacet
  facet normal 2.880488e-01 -3.425671e-01 8.942458e-01
    outer loop
      vertex   3.172384e+00 -3.422450e+00 1.033309e+01
      vertex   3.078059e+00 -3.668288e+00 1.026930e+01
      vertex   3.248149e+00 -3.504188e+00 1.027738e+01
    endloop
  endfacet
  facet normal 3.045934e-01 -3.273738e-01 8.944547e-01
    outer loop
      vertex   3.172384e+00 -3.422450e+00 1.033309e+01
      vertex   3.248149e+00 -3.504188e+00 1.027738e+01
      vertex   3.340992e+00 -3.265575e+00 1.033309e+01
    endloop
  endfacet
  facet normal 3.045934e-01 -3.273738e-01 8.944547e-01
    outer loop
      vertex   3.340992e+00 -3.265575e+00 1.033309e+01
      vertex   3.248149e+00 -3.504188e+00 1.027738e+01
      vertex   3.420785e+00 -3.343566e+00 1.027738e+01
    endloop
  endfacet
  facet normal 3.182963e-01 -3.134973e-01 8.946546e-01
    outer loop
      vertex   3.340992e+00 -3.265575e+00 1.033309e+01
      vertex   3.420785e+00 -3.343566e+00 1.027738e+01
      vertex   3.465556e+00 -3.139105e+00 1.033309e+01
    endloop
  endfacet
  facet normal 3.182963e-01 -3.134973e-01 8.946546e-01
    outer loop
      vertex   3.465556e+00 -3.139105e+00 1.033309e+01
      vertex   3.420785e+00 -3.343566e+00 1.027738e+01
      vertex   3.548323e+00 -3.214075e+00 1.027738e+01
    endloop
  endfacet
  facet normal 2.953707e-01 -3.498984e-01 8.890035e-01
    outer loop
      vertex   3.248149e+00 -3.504188e+00 1.027738e+01
      vertex   3.078059e+00 -3.668288e+00 1.026930e+01
      vertex   3.323644e+00 -3.585633e+00 1.022024e+01
    endloop
  endfacet
  facet normal 2.970819e-01 -3.570010e-01 8.856030e-01
    outer loop
      vertex   3.323644e+00 -3.585633e+00 1.022024e+01
      vertex   3.078059e+00 -3.668288e+00 1.026930e+01
      vertex   3.218756e+00 -3.835964e+00 1.015451e+01
    endloop
  endfacet
  facet normal 3.014376e-01 -3.583011e-01 8.836038e-01
    outer loop
      vertex   3.323644e+00 -3.585633e+00 1.022024e+01
      vertex   3.218756e+00 -3.835964e+00 1.015451e+01
      vertex   3.398850e+00 -3.666768e+00 1.016168e+01
    endloop
  endfacet
  facet normal 3.231003e-01 -3.875419e-01 8.633756e-01
    outer loop
      vertex   3.494669e+00 -4.164785e+00 9.910211e+00
      vertex   3.622576e+00 -3.908130e+00 9.977549e+00
      vertex   3.357641e+00 -4.001480e+00 1.003479e+01
    endloop
  endfacet
  facet normal 3.216128e-01 -3.812715e-01 8.667164e-01
    outer loop
      vertex   3.357641e+00 -4.001480e+00 1.003479e+01
      vertex   3.622576e+00 -3.908130e+00 9.977549e+00
      vertex   3.548333e+00 -3.828034e+00 1.004033e+01
    endloop
  endfacet
  facet normal 3.147034e-01 -3.738587e-01 8.724628e-01
    outer loop
      vertex   3.357641e+00 -4.001480e+00 1.003479e+01
      vertex   3.548333e+00 -3.828034e+00 1.004033e+01
      vertex   3.473752e+00 -3.747574e+00 1.010171e+01
    endloop
  endfacet
  facet normal 3.325880e-01 -3.574621e-01 8.727004e-01
    outer loop
      vertex   3.473752e+00 -3.747574e+00 1.010171e+01
      vertex   3.548333e+00 -3.828034e+00 1.004033e+01
      vertex   3.658377e+00 -3.575795e+00 1.010171e+01
    endloop
  endfacet
  facet normal 3.256444e-01 -3.499991e-01 8.783259e-01
    outer loop
      vertex   3.473752e+00 -3.747574e+00 1.010171e+01
      vertex   3.658377e+00 -3.575795e+00 1.010171e+01
      vertex   3.579494e+00 -3.498693e+00 1.016168e+01
    endloop
  endfacet
  facet normal 3.403052e-01 -3.351743e-01 8.785503e-01
    outer loop
      vertex   3.579494e+00 -3.498693e+00 1.016168e+01
      vertex   3.658377e+00 -3.575795e+00 1.010171e+01
      vertex   3.712950e+00 -3.363195e+00 1.016168e+01
    endloop
  endfacet
  facet normal 3.330059e-01 -3.279850e-01 8.840435e-01
    outer loop
      vertex   3.579494e+00 -3.498693e+00 1.016168e+01
      vertex   3.712950e+00 -3.363195e+00 1.016168e+01
      vertex   3.630794e+00 -3.288777e+00 1.022024e+01
    endloop
  endfacet
  facet normal 3.449503e-01 -3.149300e-01 8.842106e-01
    outer loop
      vertex   3.630794e+00 -3.288777e+00 1.022024e+01
      vertex   3.712950e+00 -3.363195e+00 1.016168e+01
      vertex   3.839235e+00 -3.221500e+00 1.016288e+01
    endloop
  endfacet
  facet normal 3.436303e-01 -3.084622e-01 8.870001e-01
    outer loop
      vertex   3.630794e+00 -3.288777e+00 1.022024e+01
      vertex   3.839235e+00 -3.221500e+00 1.016288e+01
      vertex   3.671159e+00 -3.080468e+00 1.027704e+01
    endloop
  endfacet
  facet normal 3.357902e-01 -4.024489e-01 8.516336e-01
    outer loop
      vertex   3.629799e+00 -4.325826e+00 9.780829e+00
      vertex   3.769986e+00 -4.067159e+00 9.847790e+00
      vertex   3.494669e+00 -4.164785e+00 9.910211e+00
    endloop
  endfacet
  facet normal 3.351172e-01 -3.994925e-01 8.532890e-01
    outer loop
      vertex   3.494669e+00 -4.164785e+00 9.910211e+00
      vertex   3.769986e+00 -4.067159e+00 9.847790e+00
      vertex   3.733274e+00 -4.027553e+00 9.880752e+00
    endloop
  endfacet
  facet normal 3.328211e-01 -3.948440e-01 8.563459e-01
    outer loop
      vertex   3.494669e+00 -4.164785e+00 9.910211e+00
      vertex   3.733274e+00 -4.027553e+00 9.880752e+00
      vertex   3.696466e+00 -3.987844e+00 9.913366e+00
    endloop
  endfacet
  facet normal 3.514747e-01 -3.777613e-01 8.565991e-01
    outer loop
      vertex   3.696466e+00 -3.987844e+00 9.913366e+00
      vertex   3.733274e+00 -4.027553e+00 9.880752e+00
      vertex   3.892929e+00 -3.805052e+00 9.913366e+00
    endloop
  endfacet
  facet normal 3.480641e-01 -3.740957e-01 8.595951e-01
    outer loop
      vertex   3.696466e+00 -3.987844e+00 9.913366e+00
      vertex   3.892929e+00 -3.805052e+00 9.913366e+00
      vertex   3.854068e+00 -3.767069e+00 9.945632e+00
    endloop
  endfacet
  facet normal 3.637475e-01 -3.582632e-01 8.598460e-01
    outer loop
      vertex   3.854068e+00 -3.767069e+00 9.945632e+00
      vertex   3.892929e+00 -3.805052e+00 9.913366e+00
      vertex   3.997761e+00 -3.621177e+00 9.945632e+00
    endloop
  endfacet
  facet normal 3.601701e-01 -3.547397e-01 8.628078e-01
    outer loop
      vertex   3.854068e+00 -3.767069e+00 9.945632e+00
      vertex   3.997761e+00 -3.621177e+00 9.945632e+00
      vertex   3.957352e+00 -3.584574e+00 9.977549e+00
    endloop
  endfacet
  facet normal 3.740270e-01 -3.396094e-01 8.630001e-01
    outer loop
      vertex   3.957352e+00 -3.584574e+00 9.977549e+00
      vertex   3.997761e+00 -3.621177e+00 9.945632e+00
      vertex   4.168905e+00 -3.498127e+00 9.919880e+00
    endloop
  endfacet
  facet normal 3.729754e-01 -3.357184e-01 8.649754e-01
    outer loop
      vertex   3.957352e+00 -3.584574e+00 9.977549e+00
      vertex   4.168905e+00 -3.498127e+00 9.919880e+00
      vertex   4.005168e+00 -3.360735e+00 1.004381e+01
    endloop
  endfacet
  facet normal 3.382124e-01 -4.033971e-01 8.502254e-01
    outer loop
      vertex   3.769986e+00 -4.067159e+00 9.847790e+00
      vertex   3.629799e+00 -4.325826e+00 9.780829e+00
      vertex   3.806602e+00 -4.106662e+00 9.814482e+00
    endloop
  endfacet
  facet normal 3.370690e-01 -4.026022e-01 8.510558e-01
    outer loop
      vertex   3.806602e+00 -4.106662e+00 9.814482e+00
      vertex   3.629799e+00 -4.325826e+00 9.780829e+00
      vertex   3.816109e+00 -4.164407e+00 9.783400e+00
    endloop
  endfacet
  facet normal 3.614383e-01 -3.950891e-01 8.445514e-01
    outer loop
      vertex   3.806602e+00 -4.106662e+00 9.814482e+00
      vertex   3.816109e+00 -4.164407e+00 9.783400e+00
      vertex   3.995207e+00 -3.995022e+00 9.785992e+00
    endloop
  endfacet
  facet normal 3.545393e-01 -3.810551e-01 8.538729e-01
    outer loop
      vertex   3.806602e+00 -4.106662e+00 9.814482e+00
      vertex   3.995207e+00 -3.995022e+00 9.785992e+00
      vertex   4.008919e+00 -3.918424e+00 9.814482e+00
    endloop
  endfacet
  facet normal 3.809424e-01 -3.814559e-01 8.422436e-01
    outer loop
      vertex   4.008919e+00 -3.918424e+00 9.814482e+00
      vertex   3.995207e+00 -3.995022e+00 9.785992e+00
      vertex   4.166747e+00 -3.817987e+00 9.788586e+00
    endloop
  endfacet
  facet normal 3.741330e-01 -3.684921e-01 8.510218e-01
    outer loop
      vertex   4.008919e+00 -3.918424e+00 9.814482e+00
      vertex   4.166747e+00 -3.817987e+00 9.788586e+00
      vertex   4.158384e+00 -3.766670e+00 9.814482e+00
    endloop
  endfacet
  facet normal 3.944581e-01 -3.619525e-01 8.446261e-01
    outer loop
      vertex   4.158384e+00 -3.766670e+00 9.814482e+00
      vertex   4.166747e+00 -3.817987e+00 9.788586e+00
      vertex   4.330395e+00 -3.633633e+00 9.791161e+00
    endloop
  endfacet
  facet normal 3.886120e-01 -3.532791e-01 8.509845e-01
    outer loop
      vertex   4.158384e+00 -3.766670e+00 9.814482e+00
      vertex   4.330395e+00 -3.633633e+00 9.791161e+00
      vertex   4.118385e+00 -3.730438e+00 9.847790e+00
    endloop
  endfacet
  facet normal 3.872985e-01 -3.490279e-01 8.533343e-01
    outer loop
      vertex   4.118385e+00 -3.730438e+00 9.847790e+00
      vertex   4.330395e+00 -3.633633e+00 9.791161e+00
      vertex   4.168905e+00 -3.498127e+00 9.919880e+00
    endloop
  endfacet
  facet normal 3.858434e-01 -3.489286e-01 8.540338e-01
    outer loop
      vertex   4.118385e+00 -3.730438e+00 9.847790e+00
      vertex   4.168905e+00 -3.498127e+00 9.919880e+00
      vertex   4.078279e+00 -3.694110e+00 9.880752e+00
    endloop
  endfacet
  facet normal 3.807139e-01 -3.471591e-01 8.570516e-01
    outer loop
      vertex   4.078279e+00 -3.694110e+00 9.880752e+00
      vertex   4.168905e+00 -3.498127e+00 9.919880e+00
      vertex   4.038070e+00 -3.657689e+00 9.913366e+00
    endloop
  endfacet
  facet normal 3.673139e-01 -3.617758e-01 8.568540e-01
    outer loop
      vertex   4.078279e+00 -3.694110e+00 9.880752e+00
      vertex   4.038070e+00 -3.657689e+00 9.913366e+00
      vertex   3.931692e+00 -3.842941e+00 9.880752e+00
    endloop
  endfacet
  facet normal 3.673139e-01 -3.617758e-01 8.568540e-01
    outer loop
      vertex   3.931692e+00 -3.842941e+00 9.880752e+00
      vertex   4.038070e+00 -3.657689e+00 9.913366e+00
      vertex   3.892929e+00 -3.805052e+00 9.913366e+00
    endloop
  endfacet
  facet normal 3.514747e-01 -3.777613e-01 8.565991e-01
    outer loop
      vertex   3.931692e+00 -3.842941e+00 9.880752e+00
      vertex   3.892929e+00 -3.805052e+00 9.913366e+00
      vertex   3.733274e+00 -4.027553e+00 9.880752e+00
    endloop
  endfacet
  facet normal 3.584152e-01 -3.221978e-01 8.762004e-01
    outer loop
      vertex   3.839235e+00 -3.221500e+00 1.016288e+01
      vertex   3.794774e+00 -3.437311e+00 1.010171e+01
      vertex   4.005168e+00 -3.360735e+00 1.004381e+01
    endloop
  endfacet
  facet normal 3.599635e-01 -3.287867e-01 8.731126e-01
    outer loop
      vertex   4.005168e+00 -3.360735e+00 1.004381e+01
      vertex   3.794774e+00 -3.437311e+00 1.010171e+01
      vertex   3.876247e+00 -3.511109e+00 1.004033e+01
    endloop
  endfacet
  facet normal 3.677251e-01 -3.353084e-01 8.673791e-01
    outer loop
      vertex   4.005168e+00 -3.360735e+00 1.004381e+01
      vertex   3.876247e+00 -3.511109e+00 1.004033e+01
      vertex   3.957352e+00 -3.584574e+00 9.977549e+00
    endloop
  endfacet
  facet normal 3.547845e-01 -3.494353e-01 8.671925e-01
    outer loop
      vertex   3.957352e+00 -3.584574e+00 9.977549e+00
      vertex   3.876247e+00 -3.511109e+00 1.004033e+01
      vertex   3.815112e+00 -3.728992e+00 9.977549e+00
    endloop
  endfacet
  facet normal 3.601701e-01 -3.547397e-01 8.628078e-01
    outer loop
      vertex   3.957352e+00 -3.584574e+00 9.977549e+00
      vertex   3.815112e+00 -3.728992e+00 9.977549e+00
      vertex   3.854068e+00 -3.767069e+00 9.945632e+00
    endloop
  endfacet
  facet normal 3.446429e-01 -3.704185e-01 8.625609e-01
    outer loop
      vertex   3.854068e+00 -3.767069e+00 9.945632e+00
      vertex   3.815112e+00 -3.728992e+00 9.977549e+00
      vertex   3.659567e+00 -3.948036e+00 9.945632e+00
    endloop
  endfacet
  facet normal 3.480641e-01 -3.740957e-01 8.595951e-01
    outer loop
      vertex   3.854068e+00 -3.767069e+00 9.945632e+00
      vertex   3.659567e+00 -3.948036e+00 9.945632e+00
      vertex   3.696466e+00 -3.987844e+00 9.913366e+00
    endloop
  endfacet
  facet normal 3.294949e-01 -3.911040e-01 8.593432e-01
    outer loop
      vertex   3.696466e+00 -3.987844e+00 9.913366e+00
      vertex   3.659567e+00 -3.948036e+00 9.945632e+00
      vertex   3.494669e+00 -4.164785e+00 9.910211e+00
    endloop
  endfacet
  facet normal 3.256690e-01 -3.207588e-01 8.894119e-01
    outer loop
      vertex   3.500291e+00 -3.421278e+00 1.022024e+01
      vertex   3.548323e+00 -3.214075e+00 1.027738e+01
      vertex   3.420785e+00 -3.343566e+00 1.027738e+01
    endloop
  endfacet
  facet normal 3.526201e-01 -3.217192e-01 8.787240e-01
    outer loop
      vertex   3.794774e+00 -3.437311e+00 1.010171e+01
      vertex   3.839235e+00 -3.221500e+00 1.016288e+01
      vertex   3.712950e+00 -3.363195e+00 1.016168e+01
    endloop
  endfacet
  facet normal 3.403052e-01 -3.351743e-01 8.785503e-01
    outer loop
      vertex   3.712950e+00 -3.363195e+00 1.016168e+01
      vertex   3.658377e+00 -3.575795e+00 1.010171e+01
      vertex   3.794774e+00 -3.437311e+00 1.010171e+01
    endloop
  endfacet
  facet normal 3.475653e-01 -3.423249e-01 8.729330e-01
    outer loop
      vertex   3.794774e+00 -3.437311e+00 1.010171e+01
      vertex   3.658377e+00 -3.575795e+00 1.010171e+01
      vertex   3.736922e+00 -3.652567e+00 1.004033e+01
    endloop
  endfacet
  facet normal 3.475653e-01 -3.423249e-01 8.729330e-01
    outer loop
      vertex   3.794774e+00 -3.437311e+00 1.010171e+01
      vertex   3.736922e+00 -3.652567e+00 1.004033e+01
      vertex   3.876247e+00 -3.511109e+00 1.004033e+01
    endloop
  endfacet
  facet normal 3.547845e-01 -3.494353e-01 8.671925e-01
    outer loop
      vertex   3.876247e+00 -3.511109e+00 1.004033e+01
      vertex   3.736922e+00 -3.652567e+00 1.004033e+01
      vertex   3.815112e+00 -3.728992e+00 9.977549e+00
    endloop
  endfacet
  facet normal 3.767755e-01 -3.440517e-01 8.600399e-01
    outer loop
      vertex   4.038070e+00 -3.657689e+00 9.913366e+00
      vertex   4.168905e+00 -3.498127e+00 9.919880e+00
      vertex   3.997761e+00 -3.621177e+00 9.945632e+00
    endloop
  endfacet
  facet normal 3.637475e-01 -3.582632e-01 8.598460e-01
    outer loop
      vertex   3.892929e+00 -3.805052e+00 9.913366e+00
      vertex   4.038070e+00 -3.657689e+00 9.913366e+00
      vertex   3.997761e+00 -3.621177e+00 9.945632e+00
    endloop
  endfacet
  facet normal 3.744123e-01 -3.687672e-01 8.507797e-01
    outer loop
      vertex   4.008919e+00 -3.918424e+00 9.814482e+00
      vertex   4.158384e+00 -3.766670e+00 9.814482e+00
      vertex   4.118385e+00 -3.730438e+00 9.847790e+00
    endloop
  endfacet
  facet normal 3.708689e-01 -3.652772e-01 8.538319e-01
    outer loop
      vertex   4.118385e+00 -3.730438e+00 9.847790e+00
      vertex   4.078279e+00 -3.694110e+00 9.880752e+00
      vertex   3.970356e+00 -3.880732e+00 9.847790e+00
    endloop
  endfacet
  facet normal 3.708689e-01 -3.652772e-01 8.538319e-01
    outer loop
      vertex   3.970356e+00 -3.880732e+00 9.847790e+00
      vertex   4.078279e+00 -3.694110e+00 9.880752e+00
      vertex   3.931692e+00 -3.842941e+00 9.880752e+00
    endloop
  endfacet
  facet normal 3.548743e-01 -3.814152e-01 8.535729e-01
    outer loop
      vertex   3.970356e+00 -3.880732e+00 9.847790e+00
      vertex   3.931692e+00 -3.842941e+00 9.880752e+00
      vertex   3.769986e+00 -4.067159e+00 9.847790e+00
    endloop
  endfacet
  facet normal 3.548743e-01 -3.814152e-01 8.535729e-01
    outer loop
      vertex   3.769986e+00 -4.067159e+00 9.847790e+00
      vertex   3.931692e+00 -3.842941e+00 9.880752e+00
      vertex   3.733274e+00 -4.027553e+00 9.880752e+00
    endloop
  endfacet
  facet normal 3.116455e-01 -3.349533e-01 8.892038e-01
    outer loop
      vertex   3.248149e+00 -3.504188e+00 1.027738e+01
      vertex   3.323644e+00 -3.585633e+00 1.022024e+01
      vertex   3.420785e+00 -3.343566e+00 1.027738e+01
    endloop
  endfacet
  facet normal 3.116455e-01 -3.349533e-01 8.892038e-01
    outer loop
      vertex   3.420785e+00 -3.343566e+00 1.027738e+01
      vertex   3.323644e+00 -3.585633e+00 1.022024e+01
      vertex   3.500291e+00 -3.421278e+00 1.022024e+01
    endloop
  endfacet
  facet normal 3.186630e-01 -3.424956e-01 8.838273e-01
    outer loop
      vertex   3.323644e+00 -3.585633e+00 1.022024e+01
      vertex   3.398850e+00 -3.666768e+00 1.016168e+01
      vertex   3.500291e+00 -3.421278e+00 1.022024e+01
    endloop
  endfacet
  facet normal 3.325880e-01 -3.574621e-01 8.727004e-01
    outer loop
      vertex   3.658377e+00 -3.575795e+00 1.010171e+01
      vertex   3.548333e+00 -3.828034e+00 1.004033e+01
      vertex   3.736922e+00 -3.652567e+00 1.004033e+01
    endloop
  endfacet
  facet normal 3.394924e-01 -3.648828e-01 8.669518e-01
    outer loop
      vertex   3.736922e+00 -3.652567e+00 1.004033e+01
      vertex   3.548333e+00 -3.828034e+00 1.004033e+01
      vertex   3.622576e+00 -3.908130e+00 9.977549e+00
    endloop
  endfacet
  facet normal 3.394924e-01 -3.648828e-01 8.669518e-01
    outer loop
      vertex   3.736922e+00 -3.652567e+00 1.004033e+01
      vertex   3.622576e+00 -3.908130e+00 9.977549e+00
      vertex   3.815112e+00 -3.728992e+00 9.977549e+00
    endloop
  endfacet
  facet normal 3.446429e-01 -3.704185e-01 8.625609e-01
    outer loop
      vertex   3.815112e+00 -3.728992e+00 9.977549e+00
      vertex   3.622576e+00 -3.908130e+00 9.977549e+00
      vertex   3.659567e+00 -3.948036e+00 9.945632e+00
    endloop
  endfacet
  facet normal 3.582629e-01 -3.850572e-01 8.505167e-01
    outer loop
      vertex   3.806602e+00 -4.106662e+00 9.814482e+00
      vertex   4.008919e+00 -3.918424e+00 9.814482e+00
      vertex   3.970356e+00 -3.880732e+00 9.847790e+00
    endloop
  endfacet
  facet normal 3.744123e-01 -3.687672e-01 8.507797e-01
    outer loop
      vertex   3.970356e+00 -3.880732e+00 9.847790e+00
      vertex   4.008919e+00 -3.918424e+00 9.814482e+00
      vertex   4.118385e+00 -3.730438e+00 9.847790e+00
    endloop
  endfacet
  facet normal 3.582629e-01 -3.850572e-01 8.505167e-01
    outer loop
      vertex   3.806602e+00 -4.106662e+00 9.814482e+00
      vertex   3.970356e+00 -3.880732e+00 9.847790e+00
      vertex   3.769986e+00 -4.067159e+00 9.847790e+00
    endloop
  endfacet
  facet normal 3.251409e-01 -3.882717e-01 8.622810e-01
    outer loop
      vertex   3.494669e+00 -4.164785e+00 9.910211e+00
      vertex   3.659567e+00 -3.948036e+00 9.945632e+00
      vertex   3.622576e+00 -3.908130e+00 9.977549e+00
    endloop
  endfacet
  facet normal 6.427876e-01 7.660444e-01 -2.154651e-10
    outer loop
      vertex   2.978652e+00 -2.499386e+00 1.068316e+01
      vertex   3.154597e+00 -2.647021e+00 1.058939e+01
      vertex   0.000000e+00 0.000000e+00 -8.881784e-15
    endloop
  endfacet
  facet normal 6.427876e-01 7.660444e-01 2.787047e-11
    outer loop
      vertex   0.000000e+00 0.000000e+00 -8.881784e-15
      vertex   3.154597e+00 -2.647021e+00 1.058939e+01
      vertex   3.328788e+00 -2.793184e+00 1.049036e+01
    endloop
  endfacet
  facet normal 6.427876e-01 7.660444e-01 4.722119e-11
    outer loop
      vertex   0.000000e+00 0.000000e+00 -8.881784e-15
      vertex   3.328788e+00 -2.793184e+00 1.049036e+01
      vertex   3.500992e+00 -2.937681e+00 1.038622e+01
    endloop
  endfacet
  facet normal 6.427876e-01 7.660444e-01 5.923807e-11
    outer loop
      vertex   3.500992e+00 -2.937681e+00 1.038622e+01
      vertex   3.671159e+00 -3.080468e+00 1.027704e+01
      vertex   0.000000e+00 0.000000e+00 -8.881784e-15
    endloop
  endfacet
  facet normal 6.427876e-01 7.660444e-01 6.306176e-11
    outer loop
      vertex   0.000000e+00 0.000000e+00 -8.881784e-15
      vertex   3.671159e+00 -3.080468e+00 1.027704e+01
      vertex   3.839235e+00 -3.221500e+00 1.016288e+01
    endloop
  endfacet
  facet normal 6.427876e-01 7.660444e-01 5.783937e-11
    outer loop
      vertex   0.000000e+00 0.000000e+00 -8.881784e-15
      vertex   3.839235e+00 -3.221500e+00 1.016288e+01
      vertex   4.005168e+00 -3.360735e+00 1.004381e+01
    endloop
  endfacet
  facet normal 6.427876e-01 7.660444e-01 4.273554e-11
    outer loop
      vertex   4.005168e+00 -3.360735e+00 1.004381e+01
      vertex   4.168905e+00 -3.498127e+00 9.919880e+00
      vertex   0.000000e+00 0.000000e+00 -8.881784e-15
    endloop
  endfacet
  facet normal 6.427876e-01 7.660444e-01 1.691784e-11
    outer loop
      vertex   0.000000e+00 0.000000e+00 -8.881784e-15
      vertex   4.168905e+00 -3.498127e+00 9.919880e+00
      vertex   4.330395e+00 -3.633633e+00 9.791161e+00
    endloop
  endfacet
  facet normal -6.195429e-01 7.064440e-01 3.422039e-01
    outer loop
      vertex   2.625971e+00 -2.865698e+00 1.067915e+01
      vertex   1.778900e+00 -1.885524e+00 7.122109e+00
      vertex   2.498137e+00 -2.977163e+00 1.067783e+01
    endloop
  endfacet
  facet normal -6.247347e-01 7.020087e-01 3.418924e-01
    outer loop
      vertex   2.498137e+00 -2.977163e+00 1.067783e+01
      vertex   1.778900e+00 -1.885524e+00 7.122109e+00
      vertex   8.894501e-01 -9.427620e-01 3.561055e+00
    endloop
  endfacet
  facet normal -6.247347e-01 7.020087e-01 3.418924e-01
    outer loop
      vertex   2.498137e+00 -2.977163e+00 1.067783e+01
      vertex   8.894501e-01 -9.427620e-01 3.561055e+00
      vertex   0.000000e+00 0.000000e+00 -8.881784e-15
    endloop
  endfacet
  facet normal -6.498656e-01 6.788472e-01 3.418204e-01
    outer loop
      vertex   2.625971e+00 -2.865698e+00 1.067915e+01
      vertex   2.748824e+00 -2.748764e+00 1.068049e+01
      vertex   1.778900e+00 -1.885524e+00 7.122109e+00
    endloop
  endfacet
  facet normal -6.643972e-01 6.643972e-01 3.422758e-01
    outer loop
      vertex   1.778900e+00 -1.885524e+00 7.122109e+00
      vertex   2.748824e+00 -2.748764e+00 1.068049e+01
      vertex   1.885524e+00 -1.778900e+00 7.122109e+00
    endloop
  endfacet
  facet normal -6.644959e-01 6.644959e-01 3.418924e-01
    outer loop
      vertex   1.778900e+00 -1.885524e+00 7.122109e+00
      vertex   1.885524e+00 -1.778900e+00 7.122109e+00
      vertex   9.427620e-01 -8.894501e-01 3.561055e+00
    endloop
  endfacet
  facet normal -7.020087e-01 6.247347e-01 3.418924e-01
    outer loop
      vertex   9.427620e-01 -8.894501e-01 3.561055e+00
      vertex   1.885524e+00 -1.778900e+00 7.122109e+00
      vertex   2.978652e+00 -2.499386e+00 1.068316e+01
    endloop
  endfacet
  facet normal -7.020087e-01 6.247347e-01 3.418924e-01
    outer loop
      vertex   9.427620e-01 -8.894501e-01 3.561055e+00
      vertex   2.978652e+00 -2.499386e+00 1.068316e+01
      vertex   0.000000e+00 0.000000e+00 -8.881784e-15
    endloop
  endfacet
  facet normal -6.788580e-01 6.498543e-01 3.418204e-01
    outer loop
      vertex   2.748824e+00 -2.748764e+00 1.068049e+01
      vertex   2.866460e+00 -2.626583e+00 1.068183e+01
      vertex   1.885524e+00 -1.778900e+00 7.122109e+00
    endloop
  endfacet
  facet normal -7.064520e-01 6.195336e-01 3.422040e-01
    outer loop
      vertex   1.885524e+00 -1.778900e+00 7.122109e+00
      vertex   2.866460e+00 -2.626583e+00 1.068183e+01
      vertex   2.978652e+00 -2.499386e+00 1.068316e+01
    endloop
  endfacet
  facet normal -6.644959e-01 6.644959e-01 3.418924e-01
    outer loop
      vertex   9.427620e-01 -8.894501e-01 3.561055e+00
      vertex   0.000000e+00 0.000000e+00 -8.881784e-15
      vertex   8.894501e-01 -9.427620e-01 3.561055e+00
    endloop
  endfacet
  facet normal -6.644959e-01 6.644959e-01 3.418924e-01
    outer loop
      vertex   9.427620e-01 -8.894501e-01 3.561055e+00
      vertex   8.894501e-01 -9.427620e-01 3.561055e+00
      vertex   1.778900e+00 -1.885524e+00 7.122109e+00
    endloop
  endfacet
  facet normal 6.511560e-01 -5.710385e-01 -4.999109e-01
    outer loop
      vertex   4.166747e+00 -3.817987e+00 9.788586e+00
      vertex   2.778547e+00 -2.546010e+00 6.527441e+00
      vertex   4.330395e+00 -3.633633e+00 9.791161e+00
    endloop
  endfacet
  facet normal 6.511549e-01 -5.710398e-01 -4.999108e-01
    outer loop
      vertex   4.330395e+00 -3.633633e+00 9.791161e+00
      vertex   2.778547e+00 -2.546010e+00 6.527441e+00
      vertex   1.389266e+00 -1.273013e+00 3.263720e+00
    endloop
  endfacet
  facet normal 6.511528e-01 -5.710423e-01 -4.999108e-01
    outer loop
      vertex   4.330395e+00 -3.633633e+00 9.791161e+00
      vertex   1.389266e+00 -1.273013e+00 3.263720e+00
      vertex   0.000000e+00 0.000000e+00 -8.881784e-15
    endloop
  endfacet
  facet normal 6.256349e-01 -5.988909e-01 -4.999107e-01
    outer loop
      vertex   4.166747e+00 -3.817987e+00 9.788586e+00
      vertex   3.995207e+00 -3.995022e+00 9.785992e+00
      vertex   2.778547e+00 -2.546010e+00 6.527441e+00
    endloop
  endfacet
  facet normal 6.256308e-01 -5.988950e-01 -4.999110e-01
    outer loop
      vertex   2.778547e+00 -2.546010e+00 6.527441e+00
      vertex   3.995207e+00 -3.995022e+00 9.785992e+00
      vertex   2.664858e+00 -2.664775e+00 6.527441e+00
    endloop
  endfacet
  facet normal 6.256309e-01 -5.988951e-01 -4.999107e-01
    outer loop
      vertex   2.778547e+00 -2.546010e+00 6.527441e+00
      vertex   2.664858e+00 -2.664775e+00 6.527441e+00
      vertex   1.389266e+00 -1.273013e+00 3.263720e+00
    endloop
  endfacet
  facet normal 6.256267e-01 -5.988992e-01 -4.999109e-01
    outer loop
      vertex   1.389266e+00 -1.273013e+00 3.263720e+00
      vertex   2.664858e+00 -2.664775e+00 6.527441e+00
      vertex   1.332419e+00 -1.332398e+00 3.263720e+00
    endloop
  endfacet
  facet normal 6.256268e-01 -5.988993e-01 -4.999108e-01
    outer loop
      vertex   1.389266e+00 -1.273013e+00 3.263720e+00
      vertex   1.332419e+00 -1.332398e+00 3.263720e+00
      vertex   0.000000e+00 0.000000e+00 -8.881784e-15
    endloop
  endfacet
  facet normal 5.989162e-01 -6.256107e-01 -4.999106e-01
    outer loop
      vertex   3.995207e+00 -3.995022e+00 9.785992e+00
      vertex   3.816109e+00 -4.164407e+00 9.783400e+00
      vertex   2.664858e+00 -2.664775e+00 6.527441e+00
    endloop
  endfacet
  facet normal 5.989119e-01 -6.256146e-01 -4.999109e-01
    outer loop
      vertex   2.664858e+00 -2.664775e+00 6.527441e+00
      vertex   3.816109e+00 -4.164407e+00 9.783400e+00
      vertex   2.546075e+00 -2.778488e+00 6.527441e+00
    endloop
  endfacet
  facet normal 5.989120e-01 -6.256147e-01 -4.999107e-01
    outer loop
      vertex   2.664858e+00 -2.664775e+00 6.527441e+00
      vertex   2.546075e+00 -2.778488e+00 6.527441e+00
      vertex   1.332419e+00 -1.332398e+00 3.263720e+00
    endloop
  endfacet
  facet normal 5.989077e-01 -6.256187e-01 -4.999108e-01
    outer loop
      vertex   1.332419e+00 -1.332398e+00 3.263720e+00
      vertex   2.546075e+00 -2.778488e+00 6.527441e+00
      vertex   1.273029e+00 -1.389252e+00 3.263720e+00
    endloop
  endfacet
  facet normal 5.989077e-01 -6.256187e-01 -4.999107e-01
    outer loop
      vertex   1.332419e+00 -1.332398e+00 3.263720e+00
      vertex   1.273029e+00 -1.389252e+00 3.263720e+00
      vertex   0.000000e+00 0.000000e+00 -8.881784e-15
    endloop
  endfacet
  facet normal 5.710499e-01 -6.511462e-01 -4.999106e-01
    outer loop
      vertex   3.816109e+00 -4.164407e+00 9.783400e+00
      vertex   3.629799e+00 -4.325826e+00 9.780829e+00
      vertex   2.546075e+00 -2.778488e+00 6.527441e+00
    endloop
  endfacet
  facet normal 5.710486e-01 -6.511473e-01 -4.999107e-01
    outer loop
      vertex   2.546075e+00 -2.778488e+00 6.527441e+00
      vertex   3.629799e+00 -4.325826e+00 9.780829e+00
      vertex   1.273029e+00 -1.389252e+00 3.263720e+00
    endloop
  endfacet
  facet normal 5.710461e-01 -6.511495e-01 -4.999107e-01
    outer loop
      vertex   3.629799e+00 -4.325826e+00 9.780829e+00
      vertex   0.000000e+00 0.000000e+00 -8.881784e-15
      vertex   1.273029e+00 -1.389252e+00 3.263720e+00
    endloop
  endfacet
endsolid
