solid ASCII
  facet normal 9.848078e-01 1.736482e-01 -9.073366e-17
    outer loop
      vertex   -9.783119e-01 5.548282e+00 9.758155e+00
      vertex   0.000000e+00 0.000000e+00 0.000000e+00
      vertex   -1.013809e+00 5.749599e+00 9.623553e+00
    endloop
  endfacet
  facet normal 9.848078e-01 1.736482e-01 -2.018334e-16
    outer loop
      vertex   -1.013809e+00 5.749599e+00 9.623553e+00
      vertex   0.000000e+00 0.000000e+00 0.000000e+00
      vertex   -1.048770e+00 5.947871e+00 9.484329e+00
    endloop
  endfacet
  facet normal 9.848078e-01 1.736482e-01 3.030176e-17
    outer loop
      vertex   -1.048770e+00 5.947871e+00 9.484329e+00
      vertex   0.000000e+00 0.000000e+00 0.000000e+00
      vertex   -1.083183e+00 6.143034e+00 9.340551e+00
    endloop
  endfacet
  facet normal 9.848078e-01 1.736482e-01 8.086635e-17
    outer loop
      vertex   -1.083183e+00 6.143034e+00 9.340551e+00
      vertex   0.000000e+00 0.000000e+00 0.000000e+00
      vertex   -1.117036e+00 6.335023e+00 9.192281e+00
    endloop
  endfacet
  facet normal 9.848078e-01 1.736482e-01 3.439034e-16
    outer loop
      vertex   -1.117036e+00 6.335023e+00 9.192281e+00
      vertex   0.000000e+00 0.000000e+00 0.000000e+00
      vertex   -1.150317e+00 6.523773e+00 9.039587e+00
    endloop
  endfacet
  facet normal 9.848078e-01 1.736482e-01 -2.631236e-16
    outer loop
      vertex   -1.150317e+00 6.523773e+00 9.039587e+00
      vertex   0.000000e+00 0.000000e+00 0.000000e+00
      vertex   -1.183016e+00 6.709218e+00 8.882531e+00
    endloop
  endfacet
  facet normal 9.848078e-01 1.736482e-01 4.150964e-16
    outer loop
      vertex   -1.183016e+00 6.709218e+00 8.882531e+00
      vertex   0.000000e+00 0.000000e+00 0.000000e+00
      vertex   -1.215121e+00 6.891294e+00 8.721181e+00
    endloop
  endfacet
  facet normal 9.848078e-01 1.736482e-01 3.747104e-15
    outer loop
      vertex   -1.215121e+00 6.891294e+00 8.721181e+00
      vertex   0.000000e+00 0.000000e+00 0.000000e+00
      vertex   -1.246620e+00 7.069935e+00 8.555600e+00
    endloop
  endfacet
  facet normal -1.741322e-01 5.202185e-01 8.360925e-01
    outer loop
      vertex   -1.997994e+00 5.489444e+00 9.628878e+00
      vertex   -1.927910e+00 5.296890e+00 9.763281e+00
      vertex   -1.862223e+00 5.533908e+00 9.629489e+00
    endloop
  endfacet
  facet normal -1.686029e-01 5.195571e-01 8.376356e-01
    outer loop
      vertex   -1.862223e+00 5.533908e+00 9.629489e+00
      vertex   -1.927910e+00 5.296890e+00 9.763281e+00
      vertex   -1.694807e+00 5.375063e+00 9.761713e+00
    endloop
  endfacet
  facet normal -1.619769e-01 5.248699e-01 8.356285e-01
    outer loop
      vertex   -1.862223e+00 5.533908e+00 9.629489e+00
      vertex   -1.694807e+00 5.375063e+00 9.761713e+00
      vertex   -1.726467e+00 5.575802e+00 9.629489e+00
    endloop
  endfacet
  facet normal -1.493479e-01 5.273730e-01 8.364048e-01
    outer loop
      vertex   -1.726467e+00 5.575802e+00 9.629489e+00
      vertex   -1.694807e+00 5.375063e+00 9.761713e+00
      vertex   -1.590544e+00 5.614295e+00 9.629489e+00
    endloop
  endfacet
  facet normal -1.546488e-01 5.460914e-01 8.233274e-01
    outer loop
      vertex   -1.726467e+00 5.575802e+00 9.629489e+00
      vertex   -1.590544e+00 5.614295e+00 9.629489e+00
      vertex   -1.645448e+00 5.808095e+00 9.490634e+00
    endloop
  endfacet
  facet normal -1.419598e-01 5.496345e-01 8.232553e-01
    outer loop
      vertex   -1.645448e+00 5.808095e+00 9.490634e+00
      vertex   -1.590544e+00 5.614295e+00 9.629489e+00
      vertex   -1.504787e+00 5.844425e+00 9.490634e+00
    endloop
  endfacet
  facet normal -1.465851e-01 5.675424e-01 8.101904e-01
    outer loop
      vertex   -1.645448e+00 5.808095e+00 9.490634e+00
      vertex   -1.504787e+00 5.844425e+00 9.490634e+00
      vertex   -1.554363e+00 6.036971e+00 9.346784e+00
    endloop
  endfacet
  facet normal -1.293869e-01 5.718800e-01 8.100693e-01
    outer loop
      vertex   -1.554363e+00 6.036971e+00 9.346784e+00
      vertex   -1.504787e+00 5.844425e+00 9.490634e+00
      vertex   -1.317662e+00 6.090525e+00 9.346784e+00
    endloop
  endfacet
  facet normal -1.334012e-01 5.896229e-01 7.965858e-01
    outer loop
      vertex   -1.554363e+00 6.036971e+00 9.346784e+00
      vertex   -1.317662e+00 6.090525e+00 9.346784e+00
      vertex   -1.359116e+00 6.282131e+00 9.198017e+00
    endloop
  endfacet
  facet normal -1.118922e-01 5.942044e-01 7.964931e-01
    outer loop
      vertex   -1.359116e+00 6.282131e+00 9.198017e+00
      vertex   -1.317662e+00 6.090525e+00 9.346784e+00
      vertex   -1.083183e+00 6.143034e+00 9.340551e+00
    endloop
  endfacet
  facet normal -1.111609e-01 5.950857e-01 7.959374e-01
    outer loop
      vertex   -1.359116e+00 6.282131e+00 9.198017e+00
      vertex   -1.083183e+00 6.143034e+00 9.340551e+00
      vertex   -1.117036e+00 6.335023e+00 9.192281e+00
    endloop
  endfacet
  facet normal -1.467747e-01 5.267277e-01 8.372664e-01
    outer loop
      vertex   -1.694807e+00 5.375063e+00 9.761713e+00
      vertex   -1.458546e+00 5.443098e+00 9.760329e+00
      vertex   -1.590544e+00 5.614295e+00 9.629489e+00
    endloop
  endfacet
  facet normal -1.374981e-01 5.323597e-01 8.352769e-01
    outer loop
      vertex   -1.590544e+00 5.614295e+00 9.629489e+00
      vertex   -1.458546e+00 5.443098e+00 9.760329e+00
      vertex   -1.454577e+00 5.649412e+00 9.629489e+00
    endloop
  endfacet
  facet normal -1.419598e-01 5.496345e-01 8.232553e-01
    outer loop
      vertex   -1.590544e+00 5.614295e+00 9.629489e+00
      vertex   -1.454577e+00 5.649412e+00 9.629489e+00
      vertex   -1.504787e+00 5.844425e+00 9.490634e+00
    endloop
  endfacet
  facet normal -1.253055e-01 5.538404e-01 8.231399e-01
    outer loop
      vertex   -1.504787e+00 5.844425e+00 9.490634e+00
      vertex   -1.454577e+00 5.649412e+00 9.629489e+00
      vertex   -1.275636e+00 5.896270e+00 9.490634e+00
    endloop
  endfacet
  facet normal -1.293869e-01 5.718800e-01 8.100693e-01
    outer loop
      vertex   -1.504787e+00 5.844425e+00 9.490634e+00
      vertex   -1.275636e+00 5.896270e+00 9.490634e+00
      vertex   -1.317662e+00 6.090525e+00 9.346784e+00
    endloop
  endfacet
  facet normal -1.085761e-01 5.763172e-01 8.099813e-01
    outer loop
      vertex   -1.317662e+00 6.090525e+00 9.346784e+00
      vertex   -1.275636e+00 5.896270e+00 9.490634e+00
      vertex   -1.048770e+00 5.947871e+00 9.484329e+00
    endloop
  endfacet
  facet normal -1.077613e-01 5.772898e-01 8.093973e-01
    outer loop
      vertex   -1.317662e+00 6.090525e+00 9.346784e+00
      vertex   -1.048770e+00 5.947871e+00 9.484329e+00
      vertex   -1.083183e+00 6.143034e+00 9.340551e+00
    endloop
  endfacet
  facet normal -1.247134e-01 5.330900e-01 8.368163e-01
    outer loop
      vertex   -1.458546e+00 5.443098e+00 9.760329e+00
      vertex   -1.219564e+00 5.500873e+00 9.759140e+00
      vertex   -1.454577e+00 5.649412e+00 9.629489e+00
    endloop
  endfacet
  facet normal -1.214269e-01 5.366974e-01 8.349919e-01
    outer loop
      vertex   -1.454577e+00 5.649412e+00 9.629489e+00
      vertex   -1.219564e+00 5.500873e+00 9.759140e+00
      vertex   -1.233072e+00 5.699528e+00 9.629489e+00
    endloop
  endfacet
  facet normal -1.253055e-01 5.538404e-01 8.231399e-01
    outer loop
      vertex   -1.454577e+00 5.649412e+00 9.629489e+00
      vertex   -1.233072e+00 5.699528e+00 9.629489e+00
      vertex   -1.275636e+00 5.896270e+00 9.490634e+00
    endloop
  endfacet
  facet normal -1.051726e-01 5.581371e-01 8.230563e-01
    outer loop
      vertex   -1.275636e+00 5.896270e+00 9.490634e+00
      vertex   -1.233072e+00 5.699528e+00 9.629489e+00
      vertex   -1.013809e+00 5.749599e+00 9.623553e+00
    endloop
  endfacet
  facet normal -1.043213e-01 5.591387e-01 8.224846e-01
    outer loop
      vertex   -1.275636e+00 5.896270e+00 9.490634e+00
      vertex   -1.013809e+00 5.749599e+00 9.623553e+00
      vertex   -1.048770e+00 5.947871e+00 9.484329e+00
    endloop
  endfacet
  facet normal -1.024619e-01 5.387732e-01 8.361967e-01
    outer loop
      vertex   -1.219564e+00 5.500873e+00 9.759140e+00
      vertex   -9.783119e-01 5.548282e+00 9.758155e+00
      vertex   -1.233072e+00 5.699528e+00 9.629489e+00
    endloop
  endfacet
  facet normal -1.008475e-01 5.406360e-01 8.351901e-01
    outer loop
      vertex   -1.233072e+00 5.699528e+00 9.629489e+00
      vertex   -9.783119e-01 5.548282e+00 9.758155e+00
      vertex   -1.013809e+00 5.749599e+00 9.623553e+00
    endloop
  endfacet
  facet normal -1.151251e-01 6.117833e-01 7.826030e-01
    outer loop
      vertex   -1.359116e+00 6.282131e+00 9.198017e+00
      vertex   -1.117036e+00 6.335023e+00 9.192281e+00
      vertex   -1.399962e+00 6.470931e+00 9.044419e+00
    endloop
  endfacet
  facet normal -1.145145e-01 6.125226e-01 7.821141e-01
    outer loop
      vertex   -1.399962e+00 6.470931e+00 9.044419e+00
      vertex   -1.117036e+00 6.335023e+00 9.192281e+00
      vertex   -1.150317e+00 6.523773e+00 9.039587e+00
    endloop
  endfacet
  facet normal -1.173089e-01 6.247927e-01 7.719279e-01
    outer loop
      vertex   -1.399962e+00 6.470931e+00 9.044419e+00
      vertex   -1.150317e+00 6.523773e+00 9.039587e+00
      vertex   -1.420147e+00 6.564229e+00 8.965836e+00
    endloop
  endfacet
  facet normal -1.154361e-01 6.300258e-01 7.679466e-01
    outer loop
      vertex   -1.420147e+00 6.564229e+00 8.965836e+00
      vertex   -1.150317e+00 6.523773e+00 9.039587e+00
      vertex   -1.183016e+00 6.709218e+00 8.882531e+00
    endloop
  endfacet
  facet normal -1.186345e-01 6.333851e-01 7.646889e-01
    outer loop
      vertex   -1.420147e+00 6.564229e+00 8.965836e+00
      vertex   -1.183016e+00 6.709218e+00 8.882531e+00
      vertex   -1.440167e+00 6.656768e+00 8.886081e+00
    endloop
  endfacet
  facet normal -1.204496e-01 6.417886e-01 7.573634e-01
    outer loop
      vertex   -1.440167e+00 6.656768e+00 8.886081e+00
      vertex   -1.183016e+00 6.709218e+00 8.882531e+00
      vertex   -1.460019e+00 6.748528e+00 8.805166e+00
    endloop
  endfacet
  facet normal -1.440691e-01 6.367740e-01 7.574715e-01
    outer loop
      vertex   -1.440167e+00 6.656768e+00 8.886081e+00
      vertex   -1.460019e+00 6.748528e+00 8.805166e+00
      vertex   -1.698874e+00 6.598236e+00 8.886081e+00
    endloop
  endfacet
  facet normal -1.440691e-01 6.367740e-01 7.574715e-01
    outer loop
      vertex   -1.698874e+00 6.598236e+00 8.886081e+00
      vertex   -1.460019e+00 6.748528e+00 8.805166e+00
      vertex   -1.722292e+00 6.689189e+00 8.805166e+00
    endloop
  endfacet
  facet normal -1.632246e-01 6.319668e-01 7.576118e-01
    outer loop
      vertex   -1.698874e+00 6.598236e+00 8.886081e+00
      vertex   -1.722292e+00 6.689189e+00 8.805166e+00
      vertex   -1.857677e+00 6.557220e+00 8.886081e+00
    endloop
  endfacet
  facet normal -1.632246e-01 6.319668e-01 7.576118e-01
    outer loop
      vertex   -1.857677e+00 6.557220e+00 8.886081e+00
      vertex   -1.722292e+00 6.689189e+00 8.805166e+00
      vertex   -1.883284e+00 6.647608e+00 8.805166e+00
    endloop
  endfacet
  facet normal -1.778194e-01 6.279106e-01 7.576995e-01
    outer loop
      vertex   -1.857677e+00 6.557220e+00 8.886081e+00
      vertex   -1.883284e+00 6.647608e+00 8.805166e+00
      vertex   -2.016429e+00 6.512263e+00 8.886081e+00
    endloop
  endfacet
  facet normal -1.778194e-01 6.279106e-01 7.576995e-01
    outer loop
      vertex   -2.016429e+00 6.512263e+00 8.886081e+00
      vertex   -1.883284e+00 6.647608e+00 8.805166e+00
      vertex   -2.044224e+00 6.602031e+00 8.805166e+00
    endloop
  endfacet
  facet normal -1.924081e-01 6.234792e-01 7.577947e-01
    outer loop
      vertex   -2.016429e+00 6.512263e+00 8.886081e+00
      vertex   -2.044224e+00 6.602031e+00 8.805166e+00
      vertex   -2.174984e+00 6.463332e+00 8.886081e+00
    endloop
  endfacet
  facet normal -1.924081e-01 6.234792e-01 7.577947e-01
    outer loop
      vertex   -2.174984e+00 6.463332e+00 8.886081e+00
      vertex   -2.044224e+00 6.602031e+00 8.805166e+00
      vertex   -2.204965e+00 6.552426e+00 8.805166e+00
    endloop
  endfacet
  facet normal -2.071375e-01 6.186159e-01 7.578974e-01
    outer loop
      vertex   -2.174984e+00 6.463332e+00 8.886081e+00
      vertex   -2.204965e+00 6.552426e+00 8.805166e+00
      vertex   -2.331960e+00 6.407009e+00 8.889151e+00
    endloop
  endfacet
  facet normal -2.120084e-01 6.209740e-01 7.546150e-01
    outer loop
      vertex   -2.331960e+00 6.407009e+00 8.889151e+00
      vertex   -2.204965e+00 6.552426e+00 8.805166e+00
      vertex   -2.395309e+00 6.581058e+00 8.728128e+00
    endloop
  endfacet
  facet normal -2.094579e-01 6.268172e-01 7.504849e-01
    outer loop
      vertex   -2.395309e+00 6.581058e+00 8.728128e+00
      vertex   -2.204965e+00 6.552426e+00 8.805166e+00
      vertex   -2.234686e+00 6.640745e+00 8.723105e+00
    endloop
  endfacet
  facet normal -2.126023e-01 6.346474e-01 7.429825e-01
    outer loop
      vertex   -2.395309e+00 6.581058e+00 8.728128e+00
      vertex   -2.234686e+00 6.640745e+00 8.723105e+00
      vertex   -2.264140e+00 6.728273e+00 8.639912e+00
    endloop
  endfacet
  facet normal -1.974021e-01 6.396616e-01 7.428764e-01
    outer loop
      vertex   -2.264140e+00 6.728273e+00 8.639912e+00
      vertex   -2.234686e+00 6.640745e+00 8.723105e+00
      vertex   -2.099085e+00 6.779210e+00 8.639912e+00
    endloop
  endfacet
  facet normal -1.993555e-01 6.459913e-01 7.368532e-01
    outer loop
      vertex   -2.264140e+00 6.728273e+00 8.639912e+00
      vertex   -2.099085e+00 6.779210e+00 8.639912e+00
      vertex   -2.160151e+00 6.850756e+00 8.560667e+00
    endloop
  endfacet
  facet normal -1.852473e-01 6.541396e-01 7.333381e-01
    outer loop
      vertex   -2.160151e+00 6.850756e+00 8.560667e+00
      vertex   -2.099085e+00 6.779210e+00 8.639912e+00
      vertex   -1.933826e+00 6.826010e+00 8.639912e+00
    endloop
  endfacet
  facet normal -1.834692e-01 6.587083e-01 7.296865e-01
    outer loop
      vertex   -2.160151e+00 6.850756e+00 8.560667e+00
      vertex   -1.933826e+00 6.826010e+00 8.639912e+00
      vertex   -1.858873e+00 6.936854e+00 8.558696e+00
    endloop
  endfacet
  facet normal -1.690030e-01 6.543392e-01 7.370741e-01
    outer loop
      vertex   -1.858873e+00 6.936854e+00 8.558696e+00
      vertex   -1.933826e+00 6.826010e+00 8.639912e+00
      vertex   -1.768514e+00 6.868707e+00 8.639912e+00
    endloop
  endfacet
  facet normal -1.554265e-01 6.647580e-01 7.307116e-01
    outer loop
      vertex   -1.858873e+00 6.936854e+00 8.558696e+00
      vertex   -1.768514e+00 6.868707e+00 8.639912e+00
      vertex   -1.554173e+00 7.009957e+00 8.557003e+00
    endloop
  endfacet
  facet normal -1.490926e-01 6.589774e-01 7.372382e-01
    outer loop
      vertex   -1.554173e+00 7.009957e+00 8.557003e+00
      vertex   -1.768514e+00 6.868707e+00 8.639912e+00
      vertex   -1.499202e+00 6.929639e+00 8.639912e+00
    endloop
  endfacet
  facet normal -1.271201e-01 6.689639e-01 7.323441e-01
    outer loop
      vertex   -1.554173e+00 7.009957e+00 8.557003e+00
      vertex   -1.499202e+00 6.929639e+00 8.639912e+00
      vertex   -1.246620e+00 7.069935e+00 8.555600e+00
    endloop
  endfacet
  facet normal -1.217837e-01 6.630938e-01 7.385630e-01
    outer loop
      vertex   -1.246620e+00 7.069935e+00 8.555600e+00
      vertex   -1.499202e+00 6.929639e+00 8.639912e+00
      vertex   -1.215121e+00 6.891294e+00 8.721181e+00
    endloop
  endfacet
  facet normal -1.235186e-01 6.584375e-01 7.424306e-01
    outer loop
      vertex   -1.215121e+00 6.891294e+00 8.721181e+00
      vertex   -1.499202e+00 6.929639e+00 8.639912e+00
      vertex   -1.479698e+00 6.839491e+00 8.723105e+00
    endloop
  endfacet
  facet normal -1.218485e-01 6.501867e-01 7.499402e-01
    outer loop
      vertex   -1.215121e+00 6.891294e+00 8.721181e+00
      vertex   -1.479698e+00 6.839491e+00 8.723105e+00
      vertex   -1.460019e+00 6.748528e+00 8.805166e+00
    endloop
  endfacet
  facet normal -1.459470e-01 6.450743e-01 7.500524e-01
    outer loop
      vertex   -1.460019e+00 6.748528e+00 8.805166e+00
      vertex   -1.479698e+00 6.839491e+00 8.723105e+00
      vertex   -1.722292e+00 6.689189e+00 8.805166e+00
    endloop
  endfacet
  facet normal -1.186462e-01 6.467427e-01 7.534235e-01
    outer loop
      vertex   -1.183016e+00 6.709218e+00 8.882531e+00
      vertex   -1.215121e+00 6.891294e+00 8.721181e+00
      vertex   -1.460019e+00 6.748528e+00 8.805166e+00
    endloop
  endfacet
  facet normal -2.111824e-01 6.510142e-01 7.290970e-01
    outer loop
      vertex   -2.160151e+00 6.850756e+00 8.560667e+00
      vertex   -2.457458e+00 6.751811e+00 8.562901e+00
      vertex   -2.264140e+00 6.728273e+00 8.639912e+00
    endloop
  endfacet
  facet normal -2.171748e-01 6.368140e-01 7.397993e-01
    outer loop
      vertex   -2.264140e+00 6.728273e+00 8.639912e+00
      vertex   -2.457458e+00 6.751811e+00 8.562901e+00
      vertex   -2.395309e+00 6.581058e+00 8.728128e+00
    endloop
  endfacet
  facet normal -2.041041e-01 6.105608e-01 7.652170e-01
    outer loop
      vertex   -2.174984e+00 6.463332e+00 8.886081e+00
      vertex   -2.331960e+00 6.407009e+00 8.889151e+00
      vertex   -2.144749e+00 6.373482e+00 8.965836e+00
    endloop
  endfacet
  facet normal -2.067278e-01 6.047789e-01 7.690944e-01
    outer loop
      vertex   -2.144749e+00 6.373482e+00 8.965836e+00
      vertex   -2.331960e+00 6.407009e+00 8.889151e+00
      vertex   -2.267434e+00 6.229724e+00 9.045904e+00
    endloop
  endfacet
  facet normal -2.015739e-01 6.022455e-01 7.724431e-01
    outer loop
      vertex   -2.144749e+00 6.373482e+00 8.965836e+00
      vertex   -2.267434e+00 6.229724e+00 9.045904e+00
      vertex   -2.114265e+00 6.282895e+00 9.044419e+00
    endloop
  endfacet
  facet normal -1.971560e-01 5.898166e-01 7.831002e-01
    outer loop
      vertex   -2.114265e+00 6.282895e+00 9.044419e+00
      vertex   -2.267434e+00 6.229724e+00 9.045904e+00
      vertex   -2.052578e+00 6.099582e+00 9.198017e+00
    endloop
  endfacet
  facet normal -1.834212e-01 5.943579e-01 7.830040e-01
    outer loop
      vertex   -2.114265e+00 6.282895e+00 9.044419e+00
      vertex   -2.052578e+00 6.099582e+00 9.198017e+00
      vertex   -1.960136e+00 6.330460e+00 9.044419e+00
    endloop
  endfacet
  facet normal -1.834212e-01 5.943579e-01 7.830040e-01
    outer loop
      vertex   -1.960136e+00 6.330460e+00 9.044419e+00
      vertex   -2.052578e+00 6.099582e+00 9.198017e+00
      vertex   -1.902946e+00 6.145759e+00 9.198017e+00
    endloop
  endfacet
  facet normal -1.695158e-01 5.985892e-01 7.829147e-01
    outer loop
      vertex   -1.960136e+00 6.330460e+00 9.044419e+00
      vertex   -1.902946e+00 6.145759e+00 9.198017e+00
      vertex   -1.805816e+00 6.374162e+00 9.044419e+00
    endloop
  endfacet
  facet normal -1.695158e-01 5.985892e-01 7.829147e-01
    outer loop
      vertex   -1.805816e+00 6.374162e+00 9.044419e+00
      vertex   -1.902946e+00 6.145759e+00 9.198017e+00
      vertex   -1.753128e+00 6.188186e+00 9.198017e+00
    endloop
  endfacet
  facet normal -1.556042e-01 6.024624e-01 7.828323e-01
    outer loop
      vertex   -1.805816e+00 6.374162e+00 9.044419e+00
      vertex   -1.753128e+00 6.188186e+00 9.198017e+00
      vertex   -1.651447e+00 6.414033e+00 9.044419e+00
    endloop
  endfacet
  facet normal -1.556042e-01 6.024624e-01 7.828323e-01
    outer loop
      vertex   -1.651447e+00 6.414033e+00 9.044419e+00
      vertex   -1.753128e+00 6.188186e+00 9.198017e+00
      vertex   -1.603263e+00 6.226893e+00 9.198017e+00
    endloop
  endfacet
  facet normal -1.373453e-01 6.070554e-01 7.827005e-01
    outer loop
      vertex   -1.651447e+00 6.414033e+00 9.044419e+00
      vertex   -1.603263e+00 6.226893e+00 9.198017e+00
      vertex   -1.399962e+00 6.470931e+00 9.044419e+00
    endloop
  endfacet
  facet normal -1.373453e-01 6.070554e-01 7.827005e-01
    outer loop
      vertex   -1.399962e+00 6.470931e+00 9.044419e+00
      vertex   -1.603263e+00 6.226893e+00 9.198017e+00
      vertex   -1.359116e+00 6.282131e+00 9.198017e+00
    endloop
  endfacet
  facet normal -1.973107e-01 5.896566e-01 7.831817e-01
    outer loop
      vertex   -2.267434e+00 6.229724e+00 9.045904e+00
      vertex   -2.201752e+00 6.049265e+00 9.198319e+00
      vertex   -2.052578e+00 6.099582e+00 9.198017e+00
    endloop
  endfacet
  facet normal -1.916085e-01 5.728339e-01 7.969614e-01
    outer loop
      vertex   -2.052578e+00 6.099582e+00 9.198017e+00
      vertex   -2.201752e+00 6.049265e+00 9.198319e+00
      vertex   -2.134937e+00 5.865691e+00 9.346330e+00
    endloop
  endfacet
  facet normal -1.915842e-01 5.728306e-01 7.969696e-01
    outer loop
      vertex   -2.052578e+00 6.099582e+00 9.198017e+00
      vertex   -2.134937e+00 5.865691e+00 9.346330e+00
      vertex   -1.989974e+00 5.913543e+00 9.346784e+00
    endloop
  endfacet
  facet normal -1.859435e-01 5.556152e-01 8.103806e-01
    outer loop
      vertex   -1.989974e+00 5.913543e+00 9.346784e+00
      vertex   -2.134937e+00 5.865691e+00 9.346330e+00
      vertex   -2.067010e+00 5.679064e+00 9.489872e+00
    endloop
  endfacet
  facet normal -1.857694e-01 5.555920e-01 8.104364e-01
    outer loop
      vertex   -1.989974e+00 5.913543e+00 9.346784e+00
      vertex   -2.067010e+00 5.679064e+00 9.489872e+00
      vertex   -1.926505e+00 5.724933e+00 9.490634e+00
    endloop
  endfacet
  facet normal -1.801210e-01 5.380739e-01 8.234275e-01
    outer loop
      vertex   -1.926505e+00 5.724933e+00 9.490634e+00
      vertex   -2.067010e+00 5.679064e+00 9.489872e+00
      vertex   -1.997994e+00 5.489444e+00 9.628878e+00
    endloop
  endfacet
  facet normal -1.799144e-01 5.380477e-01 8.234898e-01
    outer loop
      vertex   -1.926505e+00 5.724933e+00 9.490634e+00
      vertex   -1.997994e+00 5.489444e+00 9.628878e+00
      vertex   -1.862223e+00 5.533908e+00 9.629489e+00
    endloop
  endfacet
  facet normal -1.673315e-01 5.422208e-01 8.234056e-01
    outer loop
      vertex   -1.926505e+00 5.724933e+00 9.490634e+00
      vertex   -1.862223e+00 5.533908e+00 9.629489e+00
      vertex   -1.786063e+00 5.768274e+00 9.490634e+00
    endloop
  endfacet
  facet normal -1.673315e-01 5.422208e-01 8.234056e-01
    outer loop
      vertex   -1.786063e+00 5.768274e+00 9.490634e+00
      vertex   -1.862223e+00 5.533908e+00 9.629489e+00
      vertex   -1.726467e+00 5.575802e+00 9.629489e+00
    endloop
  endfacet
  facet normal -1.546488e-01 5.460914e-01 8.233274e-01
    outer loop
      vertex   -1.786063e+00 5.768274e+00 9.490634e+00
      vertex   -1.726467e+00 5.575802e+00 9.629489e+00
      vertex   -1.645448e+00 5.808095e+00 9.490634e+00
    endloop
  endfacet
  facet normal -1.781501e-01 5.772774e-01 7.968772e-01
    outer loop
      vertex   -1.902946e+00 6.145759e+00 9.198017e+00
      vertex   -2.052578e+00 6.099582e+00 9.198017e+00
      vertex   -1.989974e+00 5.913543e+00 9.346784e+00
    endloop
  endfacet
  facet normal -1.727855e-01 5.598939e-01 8.103481e-01
    outer loop
      vertex   -1.989974e+00 5.913543e+00 9.346784e+00
      vertex   -1.926505e+00 5.724933e+00 9.490634e+00
      vertex   -1.844906e+00 5.958312e+00 9.346784e+00
    endloop
  endfacet
  facet normal -1.727855e-01 5.598939e-01 8.103481e-01
    outer loop
      vertex   -1.844906e+00 5.958312e+00 9.346784e+00
      vertex   -1.926505e+00 5.724933e+00 9.490634e+00
      vertex   -1.786063e+00 5.768274e+00 9.490634e+00
    endloop
  endfacet
  facet normal -1.596884e-01 5.638870e-01 8.102660e-01
    outer loop
      vertex   -1.844906e+00 5.958312e+00 9.346784e+00
      vertex   -1.786063e+00 5.768274e+00 9.490634e+00
      vertex   -1.699658e+00 5.999445e+00 9.346784e+00
    endloop
  endfacet
  facet normal -1.596884e-01 5.638870e-01 8.102660e-01
    outer loop
      vertex   -1.699658e+00 5.999445e+00 9.346784e+00
      vertex   -1.786063e+00 5.768274e+00 9.490634e+00
      vertex   -1.645448e+00 5.808095e+00 9.490634e+00
    endloop
  endfacet
  facet normal -1.465851e-01 5.675424e-01 8.101904e-01
    outer loop
      vertex   -1.699658e+00 5.999445e+00 9.346784e+00
      vertex   -1.645448e+00 5.808095e+00 9.490634e+00
      vertex   -1.554363e+00 6.036971e+00 9.346784e+00
    endloop
  endfacet
  facet normal -1.898719e-01 6.152607e-01 7.651163e-01
    outer loop
      vertex   -2.016429e+00 6.512263e+00 8.886081e+00
      vertex   -2.174984e+00 6.463332e+00 8.886081e+00
      vertex   -2.144749e+00 6.373482e+00 8.965836e+00
    endloop
  endfacet
  facet normal -1.873101e-01 6.069594e-01 7.723439e-01
    outer loop
      vertex   -2.144749e+00 6.373482e+00 8.965836e+00
      vertex   -2.114265e+00 6.282895e+00 9.044419e+00
      vertex   -1.988397e+00 6.421733e+00 8.965836e+00
    endloop
  endfacet
  facet normal -1.873101e-01 6.069594e-01 7.723439e-01
    outer loop
      vertex   -1.988397e+00 6.421733e+00 8.965836e+00
      vertex   -2.114265e+00 6.282895e+00 9.044419e+00
      vertex   -1.960136e+00 6.330460e+00 9.044419e+00
    endloop
  endfacet
  facet normal -1.731090e-01 6.112774e-01 7.722520e-01
    outer loop
      vertex   -1.988397e+00 6.421733e+00 8.965836e+00
      vertex   -1.960136e+00 6.330460e+00 9.044419e+00
      vertex   -1.831852e+00 6.466065e+00 8.965836e+00
    endloop
  endfacet
  facet normal -1.731090e-01 6.112774e-01 7.722520e-01
    outer loop
      vertex   -1.831852e+00 6.466065e+00 8.965836e+00
      vertex   -1.960136e+00 6.330460e+00 9.044419e+00
      vertex   -1.805816e+00 6.374162e+00 9.044419e+00
    endloop
  endfacet
  facet normal -1.589018e-01 6.152299e-01 7.721673e-01
    outer loop
      vertex   -1.831852e+00 6.466065e+00 8.965836e+00
      vertex   -1.805816e+00 6.374162e+00 9.044419e+00
      vertex   -1.675257e+00 6.506511e+00 8.965836e+00
    endloop
  endfacet
  facet normal -1.589018e-01 6.152299e-01 7.721673e-01
    outer loop
      vertex   -1.675257e+00 6.506511e+00 8.965836e+00
      vertex   -1.805816e+00 6.374162e+00 9.044419e+00
      vertex   -1.651447e+00 6.414033e+00 9.044419e+00
    endloop
  endfacet
  facet normal -1.402550e-01 6.199158e-01 7.720317e-01
    outer loop
      vertex   -1.675257e+00 6.506511e+00 8.965836e+00
      vertex   -1.651447e+00 6.414033e+00 9.044419e+00
      vertex   -1.420147e+00 6.564229e+00 8.965836e+00
    endloop
  endfacet
  facet normal -1.402550e-01 6.199158e-01 7.720317e-01
    outer loop
      vertex   -1.420147e+00 6.564229e+00 8.965836e+00
      vertex   -1.651447e+00 6.414033e+00 9.044419e+00
      vertex   -1.399962e+00 6.470931e+00 9.044419e+00
    endloop
  endfacet
  facet normal -1.949184e-01 6.316133e-01 7.503809e-01
    outer loop
      vertex   -2.234686e+00 6.640745e+00 8.723105e+00
      vertex   -2.204965e+00 6.552426e+00 8.805166e+00
      vertex   -2.071778e+00 6.691020e+00 8.723105e+00
    endloop
  endfacet
  facet normal -1.949184e-01 6.316133e-01 7.503809e-01
    outer loop
      vertex   -2.071778e+00 6.691020e+00 8.723105e+00
      vertex   -2.204965e+00 6.552426e+00 8.805166e+00
      vertex   -2.044224e+00 6.602031e+00 8.805166e+00
    endloop
  endfacet
  facet normal -1.801387e-01 6.361004e-01 7.502842e-01
    outer loop
      vertex   -2.071778e+00 6.691020e+00 8.723105e+00
      vertex   -2.044224e+00 6.602031e+00 8.805166e+00
      vertex   -1.908669e+00 6.737211e+00 8.723105e+00
    endloop
  endfacet
  facet normal -1.801387e-01 6.361004e-01 7.502842e-01
    outer loop
      vertex   -1.908669e+00 6.737211e+00 8.723105e+00
      vertex   -2.044224e+00 6.602031e+00 8.805166e+00
      vertex   -1.883284e+00 6.647608e+00 8.805166e+00
    endloop
  endfacet
  facet normal -1.653531e-01 6.402076e-01 7.501951e-01
    outer loop
      vertex   -1.908669e+00 6.737211e+00 8.723105e+00
      vertex   -1.883284e+00 6.647608e+00 8.805166e+00
      vertex   -1.745507e+00 6.779352e+00 8.723105e+00
    endloop
  endfacet
  facet normal -1.653531e-01 6.402076e-01 7.501951e-01
    outer loop
      vertex   -1.745507e+00 6.779352e+00 8.723105e+00
      vertex   -1.883284e+00 6.647608e+00 8.805166e+00
      vertex   -1.722292e+00 6.689189e+00 8.805166e+00
    endloop
  endfacet
  facet normal -1.459470e-01 6.450743e-01 7.500524e-01
    outer loop
      vertex   -1.745507e+00 6.779352e+00 8.723105e+00
      vertex   -1.722292e+00 6.689189e+00 8.805166e+00
      vertex   -1.479698e+00 6.839491e+00 8.723105e+00
    endloop
  endfacet
  facet normal -1.646454e-01 5.813909e-01 7.967914e-01
    outer loop
      vertex   -1.753128e+00 6.188186e+00 9.198017e+00
      vertex   -1.902946e+00 6.145759e+00 9.198017e+00
      vertex   -1.844906e+00 5.958312e+00 9.346784e+00
    endloop
  endfacet
  facet normal -1.781501e-01 5.772774e-01 7.968772e-01
    outer loop
      vertex   -1.844906e+00 5.958312e+00 9.346784e+00
      vertex   -1.902946e+00 6.145759e+00 9.198017e+00
      vertex   -1.989974e+00 5.913543e+00 9.346784e+00
    endloop
  endfacet
  facet normal -1.646454e-01 5.813909e-01 7.967914e-01
    outer loop
      vertex   -1.753128e+00 6.188186e+00 9.198017e+00
      vertex   -1.844906e+00 5.958312e+00 9.346784e+00
      vertex   -1.699658e+00 5.999445e+00 9.346784e+00
    endloop
  endfacet
  facet normal -1.754760e-01 6.196358e-01 7.650227e-01
    outer loop
      vertex   -1.857677e+00 6.557220e+00 8.886081e+00
      vertex   -2.016429e+00 6.512263e+00 8.886081e+00
      vertex   -1.988397e+00 6.421733e+00 8.965836e+00
    endloop
  endfacet
  facet normal -1.898719e-01 6.152607e-01 7.651163e-01
    outer loop
      vertex   -1.988397e+00 6.421733e+00 8.965836e+00
      vertex   -2.016429e+00 6.512263e+00 8.886081e+00
      vertex   -2.144749e+00 6.373482e+00 8.965836e+00
    endloop
  endfacet
  facet normal -1.754760e-01 6.196358e-01 7.650227e-01
    outer loop
      vertex   -1.857677e+00 6.557220e+00 8.886081e+00
      vertex   -1.988397e+00 6.421733e+00 8.965836e+00
      vertex   -1.831852e+00 6.466065e+00 8.965836e+00
    endloop
  endfacet
  facet normal -1.824335e-01 6.442038e-01 7.427782e-01
    outer loop
      vertex   -1.933826e+00 6.826010e+00 8.639912e+00
      vertex   -2.099085e+00 6.779210e+00 8.639912e+00
      vertex   -2.071778e+00 6.691020e+00 8.723105e+00
    endloop
  endfacet
  facet normal -1.974021e-01 6.396616e-01 7.428764e-01
    outer loop
      vertex   -2.071778e+00 6.691020e+00 8.723105e+00
      vertex   -2.099085e+00 6.779210e+00 8.639912e+00
      vertex   -2.234686e+00 6.640745e+00 8.723105e+00
    endloop
  endfacet
  facet normal -1.824335e-01 6.442038e-01 7.427782e-01
    outer loop
      vertex   -1.933826e+00 6.826010e+00 8.639912e+00
      vertex   -2.071778e+00 6.691020e+00 8.723105e+00
      vertex   -1.908669e+00 6.737211e+00 8.723105e+00
    endloop
  endfacet
  facet normal -1.674590e-01 6.483613e-01 7.426877e-01
    outer loop
      vertex   -1.933826e+00 6.826010e+00 8.639912e+00
      vertex   -1.908669e+00 6.737211e+00 8.723105e+00
      vertex   -1.768514e+00 6.868707e+00 8.639912e+00
    endloop
  endfacet
  facet normal -1.674590e-01 6.483613e-01 7.426877e-01
    outer loop
      vertex   -1.768514e+00 6.868707e+00 8.639912e+00
      vertex   -1.908669e+00 6.737211e+00 8.723105e+00
      vertex   -1.745507e+00 6.779352e+00 8.723105e+00
    endloop
  endfacet
  facet normal -1.478051e-01 6.532868e-01 7.425429e-01
    outer loop
      vertex   -1.768514e+00 6.868707e+00 8.639912e+00
      vertex   -1.745507e+00 6.779352e+00 8.723105e+00
      vertex   -1.499202e+00 6.929639e+00 8.639912e+00
    endloop
  endfacet
  facet normal -1.478051e-01 6.532868e-01 7.425429e-01
    outer loop
      vertex   -1.499202e+00 6.929639e+00 8.639912e+00
      vertex   -1.745507e+00 6.779352e+00 8.723105e+00
      vertex   -1.479698e+00 6.839491e+00 8.723105e+00
    endloop
  endfacet
  facet normal -1.610741e-01 6.236404e-01 7.649364e-01
    outer loop
      vertex   -1.857677e+00 6.557220e+00 8.886081e+00
      vertex   -1.831852e+00 6.466065e+00 8.965836e+00
      vertex   -1.698874e+00 6.598236e+00 8.886081e+00
    endloop
  endfacet
  facet normal -1.610741e-01 6.236404e-01 7.649364e-01
    outer loop
      vertex   -1.698874e+00 6.598236e+00 8.886081e+00
      vertex   -1.831852e+00 6.466065e+00 8.965836e+00
      vertex   -1.675257e+00 6.506511e+00 8.965836e+00
    endloop
  endfacet
  facet normal -1.421716e-01 6.283873e-01 7.647984e-01
    outer loop
      vertex   -1.698874e+00 6.598236e+00 8.886081e+00
      vertex   -1.675257e+00 6.506511e+00 8.965836e+00
      vertex   -1.440167e+00 6.656768e+00 8.886081e+00
    endloop
  endfacet
  facet normal -1.421716e-01 6.283873e-01 7.647984e-01
    outer loop
      vertex   -1.440167e+00 6.656768e+00 8.886081e+00
      vertex   -1.675257e+00 6.506511e+00 8.965836e+00
      vertex   -1.420147e+00 6.564229e+00 8.965836e+00
    endloop
  endfacet
  facet normal -1.511344e-01 5.851562e-01 7.967123e-01
    outer loop
      vertex   -1.753128e+00 6.188186e+00 9.198017e+00
      vertex   -1.699658e+00 5.999445e+00 9.346784e+00
      vertex   -1.603263e+00 6.226893e+00 9.198017e+00
    endloop
  endfacet
  facet normal -1.511344e-01 5.851562e-01 7.967123e-01
    outer loop
      vertex   -1.603263e+00 6.226893e+00 9.198017e+00
      vertex   -1.699658e+00 5.999445e+00 9.346784e+00
      vertex   -1.554363e+00 6.036971e+00 9.346784e+00
    endloop
  endfacet
  facet normal -1.334012e-01 5.896229e-01 7.965858e-01
    outer loop
      vertex   -1.603263e+00 6.226893e+00 9.198017e+00
      vertex   -1.554363e+00 6.036971e+00 9.346784e+00
      vertex   -1.359116e+00 6.282131e+00 9.198017e+00
    endloop
  endfacet
  facet normal -9.396926e-01 -3.420201e-01 -4.427671e-16
    outer loop
      vertex   -1.927910e+00 5.296890e+00 9.763281e+00
      vertex   -1.997994e+00 5.489444e+00 9.628878e+00
      vertex   0.000000e+00 0.000000e+00 0.000000e+00
    endloop
  endfacet
  facet normal -9.396926e-01 -3.420201e-01 0.000000e+00
    outer loop
      vertex   0.000000e+00 0.000000e+00 0.000000e+00
      vertex   -1.997994e+00 5.489444e+00 9.628878e+00
      vertex   -2.067010e+00 5.679064e+00 9.489872e+00
    endloop
  endfacet
  facet normal -9.396926e-01 -3.420201e-01 6.454240e-16
    outer loop
      vertex   0.000000e+00 0.000000e+00 0.000000e+00
      vertex   -2.067010e+00 5.679064e+00 9.489872e+00
      vertex   -2.134937e+00 5.865691e+00 9.346330e+00
    endloop
  endfacet
  facet normal -9.396926e-01 -3.420201e-01 2.018764e-16
    outer loop
      vertex   -2.134937e+00 5.865691e+00 9.346330e+00
      vertex   -2.201752e+00 6.049265e+00 9.198319e+00
      vertex   0.000000e+00 0.000000e+00 0.000000e+00
    endloop
  endfacet
  facet normal -9.396926e-01 -3.420201e-01 -1.293014e-15
    outer loop
      vertex   0.000000e+00 0.000000e+00 0.000000e+00
      vertex   -2.201752e+00 6.049265e+00 9.198319e+00
      vertex   -2.267434e+00 6.229724e+00 9.045904e+00
    endloop
  endfacet
  facet normal -9.396926e-01 -3.420201e-01 0.000000e+00
    outer loop
      vertex   0.000000e+00 0.000000e+00 0.000000e+00
      vertex   -2.267434e+00 6.229724e+00 9.045904e+00
      vertex   -2.331960e+00 6.407009e+00 8.889151e+00
    endloop
  endfacet
  facet normal -9.396926e-01 -3.420201e-01 -1.618208e-16
    outer loop
      vertex   -2.331960e+00 6.407009e+00 8.889151e+00
      vertex   -2.395309e+00 6.581058e+00 8.728128e+00
      vertex   0.000000e+00 0.000000e+00 0.000000e+00
    endloop
  endfacet
  facet normal -9.396926e-01 -3.420201e-01 2.590234e-15
    outer loop
      vertex   0.000000e+00 0.000000e+00 0.000000e+00
      vertex   -2.395309e+00 6.581058e+00 8.728128e+00
      vertex   -2.457458e+00 6.751811e+00 8.562901e+00
    endloop
  endfacet
  facet normal 1.689670e-01 -8.494348e-01 4.999107e-01
    outer loop
      vertex   -1.219564e+00 5.500873e+00 9.759140e+00
      vertex   -8.133772e-01 3.668807e+00 6.508854e+00
      vertex   -9.783119e-01 5.548282e+00 9.758155e+00
    endloop
  endfacet
  facet normal 1.689661e-01 -8.494350e-01 4.999107e-01
    outer loop
      vertex   -9.783119e-01 5.548282e+00 9.758155e+00
      vertex   -8.133772e-01 3.668807e+00 6.508854e+00
      vertex   -4.066833e-01 1.834405e+00 3.254427e+00
    endloop
  endfacet
  facet normal 1.689645e-01 -8.494353e-01 4.999107e-01
    outer loop
      vertex   -9.783119e-01 5.548282e+00 9.758155e+00
      vertex   -4.066833e-01 1.834405e+00 3.254427e+00
      vertex   0.000000e+00 0.000000e+00 0.000000e+00
    endloop
  endfacet
  facet normal 2.058602e-01 -8.412555e-01 4.999108e-01
    outer loop
      vertex   -8.133772e-01 3.668807e+00 6.508854e+00
      vertex   -1.219564e+00 5.500873e+00 9.759140e+00
      vertex   -9.726433e-01 3.629834e+00 6.508854e+00
    endloop
  endfacet
  facet normal 2.058631e-01 -8.412548e-01 4.999107e-01
    outer loop
      vertex   -9.726433e-01 3.629834e+00 6.508854e+00
      vertex   -1.219564e+00 5.500873e+00 9.759140e+00
      vertex   -1.458546e+00 5.443098e+00 9.760329e+00
    endloop
  endfacet
  facet normal 2.423595e-01 -8.314752e-01 4.999109e-01
    outer loop
      vertex   -9.726433e-01 3.629834e+00 6.508854e+00
      vertex   -1.458546e+00 5.443098e+00 9.760329e+00
      vertex   -1.130042e+00 3.583955e+00 6.508854e+00
    endloop
  endfacet
  facet normal 2.423627e-01 -8.314744e-01 4.999107e-01
    outer loop
      vertex   -1.130042e+00 3.583955e+00 6.508854e+00
      vertex   -1.458546e+00 5.443098e+00 9.760329e+00
      vertex   -1.694807e+00 5.375063e+00 9.761713e+00
    endloop
  endfacet
  facet normal 2.783951e-01 -8.201130e-01 4.999108e-01
    outer loop
      vertex   -1.130042e+00 3.583955e+00 6.508854e+00
      vertex   -1.694807e+00 5.375063e+00 9.761713e+00
      vertex   -1.927910e+00 5.296890e+00 9.763281e+00
    endloop
  endfacet
  facet normal 2.783943e-01 -8.201133e-01 4.999108e-01
    outer loop
      vertex   -1.130042e+00 3.583955e+00 6.508854e+00
      vertex   -1.927910e+00 5.296890e+00 9.763281e+00
      vertex   -5.650152e-01 1.791979e+00 3.254427e+00
    endloop
  endfacet
  facet normal 2.783926e-01 -8.201139e-01 4.999108e-01
    outer loop
      vertex   -5.650152e-01 1.791979e+00 3.254427e+00
      vertex   -1.927910e+00 5.296890e+00 9.763281e+00
      vertex   0.000000e+00 0.000000e+00 0.000000e+00
    endloop
  endfacet
  facet normal 2.423565e-01 -8.314761e-01 4.999108e-01
    outer loop
      vertex   -5.650152e-01 1.791979e+00 3.254427e+00
      vertex   0.000000e+00 0.000000e+00 0.000000e+00
      vertex   -4.863141e-01 1.814919e+00 3.254427e+00
    endloop
  endfacet
  facet normal 2.058572e-01 -8.412562e-01 4.999107e-01
    outer loop
      vertex   -4.863141e-01 1.814919e+00 3.254427e+00
      vertex   0.000000e+00 0.000000e+00 0.000000e+00
      vertex   -4.066833e-01 1.834405e+00 3.254427e+00
    endloop
  endfacet
  facet normal 2.058572e-01 -8.412562e-01 4.999108e-01
    outer loop
      vertex   -4.863141e-01 1.814919e+00 3.254427e+00
      vertex   -4.066833e-01 1.834405e+00 3.254427e+00
      vertex   -8.133772e-01 3.668807e+00 6.508854e+00
    endloop
  endfacet
  facet normal 2.058602e-01 -8.412555e-01 4.999107e-01
    outer loop
      vertex   -4.863141e-01 1.814919e+00 3.254427e+00
      vertex   -8.133772e-01 3.668807e+00 6.508854e+00
      vertex   -9.726433e-01 3.629834e+00 6.508854e+00
    endloop
  endfacet
  facet normal 2.423565e-01 -8.314761e-01 4.999108e-01
    outer loop
      vertex   -5.650152e-01 1.791979e+00 3.254427e+00
      vertex   -4.863141e-01 1.814919e+00 3.254427e+00
      vertex   -9.726433e-01 3.629834e+00 6.508854e+00
    endloop
  endfacet
  facet normal 2.423596e-01 -8.314753e-01 4.999107e-01
    outer loop
      vertex   -5.650152e-01 1.791979e+00 3.254427e+00
      vertex   -9.726433e-01 3.629834e+00 6.508854e+00
      vertex   -1.130042e+00 3.583955e+00 6.508854e+00
    endloop
  endfacet
  facet normal -2.462639e-01 7.254609e-01 -6.426979e-01
    outer loop
      vertex   0.000000e+00 0.000000e+00 0.000000e+00
      vertex   -2.457458e+00 6.751811e+00 8.562901e+00
      vertex   -1.080331e+00 3.426280e+00 4.281450e+00
    endloop
  endfacet
  facet normal -2.462666e-01 7.254599e-01 -6.426980e-01
    outer loop
      vertex   -1.080331e+00 3.426280e+00 4.281450e+00
      vertex   -2.457458e+00 6.751811e+00 8.562901e+00
      vertex   -2.160151e+00 6.850756e+00 8.560667e+00
    endloop
  endfacet
  facet normal -2.143957e-01 7.355094e-01 -6.426978e-01
    outer loop
      vertex   -1.080331e+00 3.426280e+00 4.281450e+00
      vertex   -2.160151e+00 6.850756e+00 8.560667e+00
      vertex   -1.858873e+00 6.936854e+00 8.558696e+00
    endloop
  endfacet
  facet normal -2.143890e-01 7.355111e-01 -6.426980e-01
    outer loop
      vertex   -1.080331e+00 3.426280e+00 4.281450e+00
      vertex   -1.858873e+00 6.936854e+00 8.558696e+00
      vertex   -9.298584e-01 3.470141e+00 4.281450e+00
    endloop
  endfacet
  facet normal -1.821084e-01 7.441614e-01 -6.426977e-01
    outer loop
      vertex   -9.298584e-01 3.470141e+00 4.281450e+00
      vertex   -1.858873e+00 6.936854e+00 8.558696e+00
      vertex   -1.554173e+00 7.009957e+00 8.557003e+00
    endloop
  endfacet
  facet normal -1.821022e-01 7.441627e-01 -6.426979e-01
    outer loop
      vertex   -9.298584e-01 3.470141e+00 4.281450e+00
      vertex   -1.554173e+00 7.009957e+00 8.557003e+00
      vertex   -7.775976e-01 3.507400e+00 4.281450e+00
    endloop
  endfacet
  facet normal -1.494679e-01 7.513980e-01 -6.426977e-01
    outer loop
      vertex   -7.775976e-01 3.507400e+00 4.281450e+00
      vertex   -1.554173e+00 7.009957e+00 8.557003e+00
      vertex   -1.246620e+00 7.069935e+00 8.555600e+00
    endloop
  endfacet
  facet normal -1.494651e-01 7.513985e-01 -6.426978e-01
    outer loop
      vertex   -7.775976e-01 3.507400e+00 4.281450e+00
      vertex   -1.246620e+00 7.069935e+00 8.555600e+00
      vertex   0.000000e+00 0.000000e+00 0.000000e+00
    endloop
  endfacet
  facet normal -1.821022e-01 7.441628e-01 -6.426978e-01
    outer loop
      vertex   -7.775976e-01 3.507400e+00 4.281450e+00
      vertex   0.000000e+00 0.000000e+00 0.000000e+00
      vertex   -9.298584e-01 3.470141e+00 4.281450e+00
    endloop
  endfacet
  facet normal -2.143890e-01 7.355113e-01 -6.426978e-01
    outer loop
      vertex   -9.298584e-01 3.470141e+00 4.281450e+00
      vertex   0.000000e+00 0.000000e+00 0.000000e+00
      vertex   -1.080331e+00 3.426280e+00 4.281450e+00
    endloop
  endfacet
endsolid
