solid ASCII
  facet normal -9.396926e-01 -3.420201e-01 -6.185345e-16
    outer loop
      vertex   -6.774409e-01 1.861253e+00 -1.123313e+01
      vertex   0.000000e+00 0.000000e+00 0.000000e+00
      vertex   -7.604732e-01 2.089383e+00 -1.118268e+01
    endloop
  endfacet
  facet normal -9.396926e-01 -3.420201e-01 -4.321304e-16
    outer loop
      vertex   -7.604732e-01 2.089383e+00 -1.118268e+01
      vertex   0.000000e+00 0.000000e+00 0.000000e+00
      vertex   -8.430838e-01 2.316354e+00 -1.112643e+01
    endloop
  endfacet
  facet normal -9.396926e-01 -3.420201e-01 -9.528338e-16
    outer loop
      vertex   -8.430838e-01 2.316354e+00 -1.112643e+01
      vertex   0.000000e+00 0.000000e+00 0.000000e+00
      vertex   -9.252407e-01 2.542078e+00 -1.106441e+01
    endloop
  endfacet
  facet normal -9.396926e-01 -3.420201e-01 -7.073034e-16
    outer loop
      vertex   -9.252407e-01 2.542078e+00 -1.106441e+01
      vertex   0.000000e+00 0.000000e+00 0.000000e+00
      vertex   -1.006912e+00 2.766468e+00 -1.099665e+01
    endloop
  endfacet
  facet normal -9.396926e-01 -3.420201e-01 -3.732755e-16
    outer loop
      vertex   -1.006912e+00 2.766468e+00 -1.099665e+01
      vertex   0.000000e+00 0.000000e+00 0.000000e+00
      vertex   -1.088065e+00 2.989435e+00 -1.092318e+01
    endloop
  endfacet
  facet normal -9.396926e-01 -3.420201e-01 -1.158898e-15
    outer loop
      vertex   -1.088065e+00 2.989435e+00 -1.092318e+01
      vertex   0.000000e+00 0.000000e+00 0.000000e+00
      vertex   -1.168669e+00 3.210892e+00 -1.084402e+01
    endloop
  endfacet
  facet normal -9.396926e-01 -3.420201e-01 -3.730855e-16
    outer loop
      vertex   -1.168669e+00 3.210892e+00 -1.084402e+01
      vertex   0.000000e+00 0.000000e+00 0.000000e+00
      vertex   -1.248691e+00 3.430751e+00 -1.075920e+01
    endloop
  endfacet
  facet normal -9.396926e-01 -3.420201e-01 -6.084462e-16
    outer loop
      vertex   -1.248691e+00 3.430751e+00 -1.075920e+01
      vertex   0.000000e+00 0.000000e+00 0.000000e+00
      vertex   -1.328100e+00 3.648924e+00 -1.066874e+01
    endloop
  endfacet
  facet normal -3.638283e-02 2.010113e-01 -9.789130e-01
    outer loop
      vertex   -3.861903e-01 2.190194e+00 -1.118161e+01
      vertex   -3.439234e-01 1.950487e+00 -1.123241e+01
      vertex   -4.684641e-01 2.165344e+00 -1.118366e+01
    endloop
  endfacet
  facet normal -4.200238e-02 1.978491e-01 -9.793322e-01
    outer loop
      vertex   -4.684641e-01 2.165344e+00 -1.118366e+01
      vertex   -3.439234e-01 1.950487e+00 -1.123241e+01
      vertex   -5.126286e-01 1.913141e+00 -1.123271e+01
    endloop
  endfacet
  facet normal -4.486685e-02 1.983079e-01 -9.791123e-01
    outer loop
      vertex   -4.684641e-01 2.165344e+00 -1.118366e+01
      vertex   -5.126286e-01 1.913141e+00 -1.123271e+01
      vertex   -5.526176e-01 2.146304e+00 -1.118366e+01
    endloop
  endfacet
  facet normal -5.329050e-02 1.968368e-01 -9.789869e-01
    outer loop
      vertex   -5.526176e-01 2.146304e+00 -1.118366e+01
      vertex   -5.126286e-01 1.913141e+00 -1.123271e+01
      vertex   -6.559131e-01 2.118339e+00 -1.118366e+01
    endloop
  endfacet
  facet normal -5.919874e-02 2.186599e-01 -9.740038e-01
    outer loop
      vertex   -5.526176e-01 2.146304e+00 -1.118366e+01
      vertex   -6.559131e-01 2.118339e+00 -1.118366e+01
      vertex   -7.264995e-01 2.346305e+00 -1.112819e+01
    endloop
  endfacet
  facet normal -6.884534e-02 2.156803e-01 -9.740340e-01
    outer loop
      vertex   -7.264995e-01 2.346305e+00 -1.112819e+01
      vertex   -6.559131e-01 2.118339e+00 -1.118366e+01
      vertex   -7.604732e-01 2.089383e+00 -1.118268e+01
    endloop
  endfacet
  facet normal -7.015491e-02 2.158268e-01 -9.739082e-01
    outer loop
      vertex   -7.264995e-01 2.346305e+00 -1.112819e+01
      vertex   -7.604732e-01 2.089383e+00 -1.118268e+01
      vertex   -8.430838e-01 2.316354e+00 -1.112643e+01
    endloop
  endfacet
  facet normal -5.838655e-02 1.933739e-01 -9.793863e-01
    outer loop
      vertex   -5.126286e-01 1.913141e+00 -1.123271e+01
      vertex   -6.774409e-01 1.861253e+00 -1.123313e+01
      vertex   -6.559131e-01 2.118339e+00 -1.118366e+01
    endloop
  endfacet
  facet normal -6.279957e-02 1.936792e-01 -9.790529e-01
    outer loop
      vertex   -6.559131e-01 2.118339e+00 -1.118366e+01
      vertex   -6.774409e-01 1.861253e+00 -1.123313e+01
      vertex   -7.604732e-01 2.089383e+00 -1.118268e+01
    endloop
  endfacet
  facet normal -7.567579e-02 2.376406e-01 -9.684008e-01
    outer loop
      vertex   -7.264995e-01 2.346305e+00 -1.112819e+01
      vertex   -8.430838e-01 2.316354e+00 -1.112643e+01
      vertex   -7.971711e-01 2.574546e+00 -1.106666e+01
    endloop
  endfacet
  facet normal -7.728894e-02 2.378841e-01 -9.682136e-01
    outer loop
      vertex   -7.971711e-01 2.574546e+00 -1.106666e+01
      vertex   -8.430838e-01 2.316354e+00 -1.112643e+01
      vertex   -9.252407e-01 2.542078e+00 -1.106441e+01
    endloop
  endfacet
  facet normal -8.128051e-02 2.539343e-01 -9.638002e-01
    outer loop
      vertex   -7.971711e-01 2.574546e+00 -1.106666e+01
      vertex   -9.252407e-01 2.542078e+00 -1.106441e+01
      vertex   -8.325208e-01 2.688711e+00 -1.103360e+01
    endloop
  endfacet
  facet normal -8.866208e-02 2.582251e-01 -9.620077e-01
    outer loop
      vertex   -8.325208e-01 2.688711e+00 -1.103360e+01
      vertex   -9.252407e-01 2.542078e+00 -1.106441e+01
      vertex   -1.006912e+00 2.766468e+00 -1.099665e+01
    endloop
  endfacet
  facet normal -8.548924e-02 2.646478e-01 -9.605484e-01
    outer loop
      vertex   -8.325208e-01 2.688711e+00 -1.103360e+01
      vertex   -1.006912e+00 2.766468e+00 -1.099665e+01
      vertex   -8.678701e-01 2.802875e+00 -1.099900e+01
    endloop
  endfacet
  facet normal -8.977236e-02 2.813365e-01 -9.554008e-01
    outer loop
      vertex   -8.678701e-01 2.802875e+00 -1.099900e+01
      vertex   -1.006912e+00 2.766468e+00 -1.099665e+01
      vertex   -9.385374e-01 3.031103e+00 -1.092515e+01
    endloop
  endfacet
  facet normal -7.721564e-02 2.852081e-01 -9.553502e-01
    outer loop
      vertex   -8.678701e-01 2.802875e+00 -1.099900e+01
      vertex   -9.385374e-01 3.031103e+00 -1.092515e+01
      vertex   -7.311948e-01 2.839878e+00 -1.099900e+01
    endloop
  endfacet
  facet normal -7.721564e-02 2.852081e-01 -9.553502e-01
    outer loop
      vertex   -7.311948e-01 2.839878e+00 -1.099900e+01
      vertex   -9.385374e-01 3.031103e+00 -1.092515e+01
      vertex   -7.907332e-01 3.071118e+00 -1.092515e+01
    endloop
  endfacet
  facet normal -6.522426e-02 2.882861e-01 -9.553203e-01
    outer loop
      vertex   -7.311948e-01 2.839878e+00 -1.099900e+01
      vertex   -7.907332e-01 3.071118e+00 -1.092515e+01
      vertex   -6.198473e-01 2.865070e+00 -1.099900e+01
    endloop
  endfacet
  facet normal -6.522426e-02 2.882861e-01 -9.553203e-01
    outer loop
      vertex   -6.198473e-01 2.865070e+00 -1.099900e+01
      vertex   -7.907332e-01 3.071118e+00 -1.092515e+01
      vertex   -6.703191e-01 3.098362e+00 -1.092515e+01
    endloop
  endfacet
  facet normal -5.599306e-02 2.902777e-01 -9.553029e-01
    outer loop
      vertex   -6.198473e-01 2.865070e+00 -1.099900e+01
      vertex   -6.703191e-01 3.098362e+00 -1.092515e+01
      vertex   -5.114297e-01 2.900462e+00 -1.099460e+01
    endloop
  endfacet
  facet normal -5.347755e-02 2.921478e-01 -9.548769e-01
    outer loop
      vertex   -5.114297e-01 2.900462e+00 -1.099460e+01
      vertex   -6.703191e-01 3.098362e+00 -1.092515e+01
      vertex   -5.525940e-01 3.133916e+00 -1.092087e+01
    endloop
  endfacet
  facet normal -5.997597e-02 3.128258e-01 -9.479150e-01
    outer loop
      vertex   -5.525940e-01 3.133916e+00 -1.092087e+01
      vertex   -6.703191e-01 3.098362e+00 -1.092515e+01
      vertex   -7.207249e-01 3.331349e+00 -1.084507e+01
    endloop
  endfacet
  facet normal -5.799547e-02 3.143643e-01 -9.475292e-01
    outer loop
      vertex   -5.525940e-01 3.133916e+00 -1.092087e+01
      vertex   -7.207249e-01 3.331349e+00 -1.084507e+01
      vertex   -5.934417e-01 3.365575e+00 -1.084151e+01
    endloop
  endfacet
  facet normal -6.383927e-02 3.353065e-01 -9.399437e-01
    outer loop
      vertex   -5.934417e-01 3.365575e+00 -1.084151e+01
      vertex   -7.207249e-01 3.331349e+00 -1.084507e+01
      vertex   -7.710206e-01 3.563826e+00 -1.075872e+01
    endloop
  endfacet
  facet normal -6.255259e-02 3.363408e-01 -9.396606e-01
    outer loop
      vertex   -5.934417e-01 3.365575e+00 -1.084151e+01
      vertex   -7.710206e-01 3.563826e+00 -1.075872e+01
      vertex   -6.339574e-01 3.595351e+00 -1.075657e+01
    endloop
  endfacet
  facet normal -6.766070e-02 3.579755e-01 -9.312763e-01
    outer loop
      vertex   -6.339574e-01 3.595351e+00 -1.075657e+01
      vertex   -7.710206e-01 3.563826e+00 -1.075872e+01
      vertex   -6.741258e-01 3.823157e+00 -1.066608e+01
    endloop
  endfacet
  facet normal -6.795102e-02 3.580642e-01 -9.312211e-01
    outer loop
      vertex   -6.741258e-01 3.823157e+00 -1.066608e+01
      vertex   -7.710206e-01 3.563826e+00 -1.075872e+01
      vertex   -8.403040e-01 3.790292e+00 -1.066659e+01
    endloop
  endfacet
  facet normal -8.020018e-02 3.544785e-01 -9.316185e-01
    outer loop
      vertex   -8.403040e-01 3.790292e+00 -1.066659e+01
      vertex   -7.710206e-01 3.563826e+00 -1.075872e+01
      vertex   -9.095244e-01 3.532490e+00 -1.075872e+01
    endloop
  endfacet
  facet normal -8.289184e-02 3.550404e-01 -9.311687e-01
    outer loop
      vertex   -8.403040e-01 3.790292e+00 -1.066659e+01
      vertex   -9.095244e-01 3.532490e+00 -1.075872e+01
      vertex   -1.004900e+00 3.750245e+00 -1.066721e+01
    endloop
  endfacet
  facet normal -9.479270e-02 3.501318e-01 -9.318917e-01
    outer loop
      vertex   -1.004900e+00 3.750245e+00 -1.066721e+01
      vertex   -9.095244e-01 3.532490e+00 -1.075872e+01
      vertex   -1.079533e+00 3.486463e+00 -1.075872e+01
    endloop
  endfacet
  facet normal -9.753491e-02 3.507312e-01 -9.313831e-01
    outer loop
      vertex   -1.004900e+00 3.750245e+00 -1.066721e+01
      vertex   -1.079533e+00 3.486463e+00 -1.075872e+01
      vertex   -1.167600e+00 3.703094e+00 -1.066793e+01
    endloop
  endfacet
  facet normal -1.111556e-01 3.453909e-01 -9.318528e-01
    outer loop
      vertex   -1.167600e+00 3.703094e+00 -1.066793e+01
      vertex   -1.079533e+00 3.486463e+00 -1.075872e+01
      vertex   -1.248691e+00 3.430751e+00 -1.075920e+01
    endloop
  endfacet
  facet normal -1.119092e-01 3.455636e-01 -9.316985e-01
    outer loop
      vertex   -1.167600e+00 3.703094e+00 -1.066793e+01
      vertex   -1.248691e+00 3.430751e+00 -1.075920e+01
      vertex   -1.328100e+00 3.648924e+00 -1.066874e+01
    endloop
  endfacet
  facet normal -9.106494e-02 2.816152e-01 -9.551963e-01
    outer loop
      vertex   -1.006912e+00 2.766468e+00 -1.099665e+01
      vertex   -1.088065e+00 2.989435e+00 -1.092318e+01
      vertex   -9.385374e-01 3.031103e+00 -1.092515e+01
    endloop
  endfacet
  facet normal -9.694449e-02 3.030537e-01 -9.480297e-01
    outer loop
      vertex   -9.385374e-01 3.031103e+00 -1.092515e+01
      vertex   -1.088065e+00 2.989435e+00 -1.092318e+01
      vertex   -1.009112e+00 3.259032e+00 -1.084507e+01
    endloop
  endfacet
  facet normal -8.319422e-02 3.072910e-01 -9.479720e-01
    outer loop
      vertex   -9.385374e-01 3.031103e+00 -1.092515e+01
      vertex   -1.009112e+00 3.259032e+00 -1.084507e+01
      vertex   -7.907332e-01 3.071118e+00 -1.092515e+01
    endloop
  endfacet
  facet normal -8.319422e-02 3.072910e-01 -9.479720e-01
    outer loop
      vertex   -7.907332e-01 3.071118e+00 -1.092515e+01
      vertex   -1.009112e+00 3.259032e+00 -1.084507e+01
      vertex   -8.501937e-01 3.302056e+00 -1.084507e+01
    endloop
  endfacet
  facet normal -7.027403e-02 3.106056e-01 -9.479376e-01
    outer loop
      vertex   -7.907332e-01 3.071118e+00 -1.092515e+01
      vertex   -8.501937e-01 3.302056e+00 -1.084507e+01
      vertex   -6.703191e-01 3.098362e+00 -1.092515e+01
    endloop
  endfacet
  facet normal -7.027403e-02 3.106056e-01 -9.479376e-01
    outer loop
      vertex   -6.703191e-01 3.098362e+00 -1.092515e+01
      vertex   -8.501937e-01 3.302056e+00 -1.084507e+01
      vertex   -7.207249e-01 3.331349e+00 -1.084507e+01
    endloop
  endfacet
  facet normal -9.775196e-02 3.032481e-01 -9.478846e-01
    outer loop
      vertex   -1.088065e+00 2.989435e+00 -1.092318e+01
      vertex   -1.168669e+00 3.210892e+00 -1.084402e+01
      vertex   -1.009112e+00 3.259032e+00 -1.084507e+01
    endloop
  endfacet
  facet normal -1.041614e-01 3.246631e-01 -9.400767e-01
    outer loop
      vertex   -1.009112e+00 3.259032e+00 -1.084507e+01
      vertex   -1.168669e+00 3.210892e+00 -1.084402e+01
      vertex   -1.079533e+00 3.486463e+00 -1.075872e+01
    endloop
  endfacet
  facet normal -8.914925e-02 3.292868e-01 -9.400120e-01
    outer loop
      vertex   -1.009112e+00 3.259032e+00 -1.084507e+01
      vertex   -1.079533e+00 3.486463e+00 -1.075872e+01
      vertex   -8.501937e-01 3.302056e+00 -1.084507e+01
    endloop
  endfacet
  facet normal -8.914925e-02 3.292868e-01 -9.400120e-01
    outer loop
      vertex   -8.501937e-01 3.302056e+00 -1.084507e+01
      vertex   -1.079533e+00 3.486463e+00 -1.075872e+01
      vertex   -9.095244e-01 3.532490e+00 -1.075872e+01
    endloop
  endfacet
  facet normal -7.530383e-02 3.328370e-01 -9.399728e-01
    outer loop
      vertex   -8.501937e-01 3.302056e+00 -1.084507e+01
      vertex   -9.095244e-01 3.532490e+00 -1.075872e+01
      vertex   -7.207249e-01 3.331349e+00 -1.084507e+01
    endloop
  endfacet
  facet normal -7.530383e-02 3.328370e-01 -9.399728e-01
    outer loop
      vertex   -7.207249e-01 3.331349e+00 -1.084507e+01
      vertex   -9.095244e-01 3.532490e+00 -1.075872e+01
      vertex   -7.710206e-01 3.563826e+00 -1.075872e+01
    endloop
  endfacet
  facet normal -1.043197e-01 3.247044e-01 -9.400449e-01
    outer loop
      vertex   -1.168669e+00 3.210892e+00 -1.084402e+01
      vertex   -1.248691e+00 3.430751e+00 -1.075920e+01
      vertex   -1.079533e+00 3.486463e+00 -1.075872e+01
    endloop
  endfacet
  facet normal -5.042479e-02 2.738594e-01 -9.604470e-01
    outer loop
      vertex   -6.198473e-01 2.865070e+00 -1.099900e+01
      vertex   -5.114297e-01 2.900462e+00 -1.099460e+01
      vertex   -5.946003e-01 2.748373e+00 -1.103360e+01
    endloop
  endfacet
  facet normal -4.388580e-02 2.706024e-01 -9.616904e-01
    outer loop
      vertex   -5.946003e-01 2.748373e+00 -1.103360e+01
      vertex   -5.114297e-01 2.900462e+00 -1.099460e+01
      vertex   -4.699641e-01 2.665299e+00 -1.106266e+01
    endloop
  endfacet
  facet normal -4.995034e-02 2.622126e-01 -9.637165e-01
    outer loop
      vertex   -5.946003e-01 2.748373e+00 -1.103360e+01
      vertex   -4.699641e-01 2.665299e+00 -1.106266e+01
      vertex   -5.693529e-01 2.631674e+00 -1.106666e+01
    endloop
  endfacet
  facet normal -4.464087e-02 2.470255e-01 -9.679802e-01
    outer loop
      vertex   -5.693529e-01 2.631674e+00 -1.106666e+01
      vertex   -4.699641e-01 2.665299e+00 -1.106266e+01
      vertex   -4.282125e-01 2.428514e+00 -1.112501e+01
    endloop
  endfacet
  facet normal -4.756210e-02 2.450969e-01 -9.683312e-01
    outer loop
      vertex   -5.693529e-01 2.631674e+00 -1.106666e+01
      vertex   -4.282125e-01 2.428514e+00 -1.112501e+01
      vertex   -5.188781e-01 2.398368e+00 -1.112819e+01
    endloop
  endfacet
  facet normal -4.040174e-02 2.241294e-01 -9.737216e-01
    outer loop
      vertex   -5.188781e-01 2.398368e+00 -1.112819e+01
      vertex   -4.282125e-01 2.428514e+00 -1.112501e+01
      vertex   -3.861903e-01 2.190194e+00 -1.118161e+01
    endloop
  endfacet
  facet normal -4.300644e-02 2.225344e-01 -9.739758e-01
    outer loop
      vertex   -5.188781e-01 2.398368e+00 -1.112819e+01
      vertex   -3.861903e-01 2.190194e+00 -1.118161e+01
      vertex   -4.684641e-01 2.165344e+00 -1.118366e+01
    endloop
  endfacet
  facet normal -5.000598e-02 2.210225e-01 -9.739859e-01
    outer loop
      vertex   -5.188781e-01 2.398368e+00 -1.112819e+01
      vertex   -4.684641e-01 2.165344e+00 -1.118366e+01
      vertex   -6.120878e-01 2.377280e+00 -1.112819e+01
    endloop
  endfacet
  facet normal -5.000598e-02 2.210225e-01 -9.739859e-01
    outer loop
      vertex   -6.120878e-01 2.377280e+00 -1.112819e+01
      vertex   -4.684641e-01 2.165344e+00 -1.118366e+01
      vertex   -5.526176e-01 2.146304e+00 -1.118366e+01
    endloop
  endfacet
  facet normal -5.919874e-02 2.186599e-01 -9.740038e-01
    outer loop
      vertex   -6.120878e-01 2.377280e+00 -1.112819e+01
      vertex   -5.526176e-01 2.146304e+00 -1.118366e+01
      vertex   -7.264995e-01 2.346305e+00 -1.112819e+01
    endloop
  endfacet
  facet normal -5.508521e-02 2.434723e-01 -9.683423e-01
    outer loop
      vertex   -5.693529e-01 2.631674e+00 -1.106666e+01
      vertex   -5.188781e-01 2.398368e+00 -1.112819e+01
      vertex   -6.716297e-01 2.608534e+00 -1.106666e+01
    endloop
  endfacet
  facet normal -5.508521e-02 2.434723e-01 -9.683423e-01
    outer loop
      vertex   -6.716297e-01 2.608534e+00 -1.106666e+01
      vertex   -5.188781e-01 2.398368e+00 -1.112819e+01
      vertex   -6.120878e-01 2.377280e+00 -1.112819e+01
    endloop
  endfacet
  facet normal -6.521195e-02 2.408706e-01 -9.683640e-01
    outer loop
      vertex   -6.716297e-01 2.608534e+00 -1.106666e+01
      vertex   -6.120878e-01 2.377280e+00 -1.112819e+01
      vertex   -7.971711e-01 2.574546e+00 -1.106666e+01
    endloop
  endfacet
  facet normal -6.521195e-02 2.408706e-01 -9.683640e-01
    outer loop
      vertex   -7.971711e-01 2.574546e+00 -1.106666e+01
      vertex   -6.120878e-01 2.377280e+00 -1.112819e+01
      vertex   -7.264995e-01 2.346305e+00 -1.112819e+01
    endloop
  endfacet
  facet normal -6.142403e-02 2.714894e-01 -9.604794e-01
    outer loop
      vertex   -7.311948e-01 2.839878e+00 -1.099900e+01
      vertex   -6.198473e-01 2.865070e+00 -1.099900e+01
      vertex   -5.946003e-01 2.748373e+00 -1.103360e+01
    endloop
  endfacet
  facet normal -5.888882e-02 2.602839e-01 -9.637346e-01
    outer loop
      vertex   -5.946003e-01 2.748373e+00 -1.103360e+01
      vertex   -5.693529e-01 2.631674e+00 -1.106666e+01
      vertex   -7.014125e-01 2.724207e+00 -1.103360e+01
    endloop
  endfacet
  facet normal -5.888882e-02 2.602839e-01 -9.637346e-01
    outer loop
      vertex   -7.014125e-01 2.724207e+00 -1.103360e+01
      vertex   -5.693529e-01 2.631674e+00 -1.106666e+01
      vertex   -6.716297e-01 2.608534e+00 -1.106666e+01
    endloop
  endfacet
  facet normal -6.971503e-02 2.575035e-01 -9.637592e-01
    outer loop
      vertex   -7.014125e-01 2.724207e+00 -1.103360e+01
      vertex   -6.716297e-01 2.608534e+00 -1.106666e+01
      vertex   -8.325208e-01 2.688711e+00 -1.103360e+01
    endloop
  endfacet
  facet normal -6.971503e-02 2.575035e-01 -9.637592e-01
    outer loop
      vertex   -8.325208e-01 2.688711e+00 -1.103360e+01
      vertex   -6.716297e-01 2.608534e+00 -1.106666e+01
      vertex   -7.971711e-01 2.574546e+00 -1.106666e+01
    endloop
  endfacet
  facet normal -7.271649e-02 2.685898e-01 -9.605060e-01
    outer loop
      vertex   -8.325208e-01 2.688711e+00 -1.103360e+01
      vertex   -8.678701e-01 2.802875e+00 -1.099900e+01
      vertex   -7.014125e-01 2.724207e+00 -1.103360e+01
    endloop
  endfacet
  facet normal -7.271649e-02 2.685898e-01 -9.605060e-01
    outer loop
      vertex   -7.014125e-01 2.724207e+00 -1.103360e+01
      vertex   -8.678701e-01 2.802875e+00 -1.099900e+01
      vertex   -7.311948e-01 2.839878e+00 -1.099900e+01
    endloop
  endfacet
  facet normal -6.142403e-02 2.714894e-01 -9.604794e-01
    outer loop
      vertex   -7.014125e-01 2.724207e+00 -1.103360e+01
      vertex   -7.311948e-01 2.839878e+00 -1.099900e+01
      vertex   -5.946003e-01 2.748373e+00 -1.103360e+01
    endloop
  endfacet
  facet normal 9.848078e-01 1.736482e-01 1.877854e-11
    outer loop
      vertex   -3.439234e-01 1.950487e+00 -1.123241e+01
      vertex   -3.861903e-01 2.190194e+00 -1.118161e+01
      vertex   0.000000e+00 0.000000e+00 0.000000e+00
    endloop
  endfacet
  facet normal 9.848078e-01 1.736482e-01 -4.178122e-12
    outer loop
      vertex   0.000000e+00 0.000000e+00 0.000000e+00
      vertex   -3.861903e-01 2.190194e+00 -1.118161e+01
      vertex   -4.282125e-01 2.428514e+00 -1.112501e+01
    endloop
  endfacet
  facet normal 9.848078e-01 1.736482e-01 -5.736074e-12
    outer loop
      vertex   0.000000e+00 0.000000e+00 0.000000e+00
      vertex   -4.282125e-01 2.428514e+00 -1.112501e+01
      vertex   -4.699641e-01 2.665299e+00 -1.106266e+01
    endloop
  endfacet
  facet normal 9.848078e-01 1.736482e-01 -6.695161e-12
    outer loop
      vertex   -4.699641e-01 2.665299e+00 -1.106266e+01
      vertex   -5.114297e-01 2.900462e+00 -1.099460e+01
      vertex   0.000000e+00 0.000000e+00 0.000000e+00
    endloop
  endfacet
  facet normal 9.848078e-01 1.736482e-01 -6.919546e-12
    outer loop
      vertex   0.000000e+00 0.000000e+00 0.000000e+00
      vertex   -5.114297e-01 2.900462e+00 -1.099460e+01
      vertex   -5.525940e-01 3.133916e+00 -1.092087e+01
    endloop
  endfacet
  facet normal 9.848078e-01 1.736482e-01 -6.274191e-12
    outer loop
      vertex   0.000000e+00 0.000000e+00 0.000000e+00
      vertex   -5.525940e-01 3.133916e+00 -1.092087e+01
      vertex   -5.934417e-01 3.365575e+00 -1.084151e+01
    endloop
  endfacet
  facet normal 9.848078e-01 1.736482e-01 -4.626085e-12
    outer loop
      vertex   -5.934417e-01 3.365575e+00 -1.084151e+01
      vertex   -6.339574e-01 3.595351e+00 -1.075657e+01
      vertex   0.000000e+00 0.000000e+00 0.000000e+00
    endloop
  endfacet
  facet normal 9.848078e-01 1.736482e-01 -1.842022e-12
    outer loop
      vertex   0.000000e+00 0.000000e+00 0.000000e+00
      vertex   -6.339574e-01 3.595351e+00 -1.075657e+01
      vertex   -6.741258e-01 3.823157e+00 -1.066608e+01
    endloop
  endfacet
  facet normal -1.833147e-01 9.215705e-01 3.422038e-01
    outer loop
      vertex   -8.403040e-01 3.790292e+00 -1.066659e+01
      vertex   -5.970035e-01 2.518956e+00 -7.112493e+00
      vertex   -6.741258e-01 3.823157e+00 -1.066608e+01
    endloop
  endfacet
  facet normal -1.900318e-01 9.203247e-01 3.418924e-01
    outer loop
      vertex   -6.741258e-01 3.823157e+00 -1.066608e+01
      vertex   -5.970035e-01 2.518956e+00 -7.112493e+00
      vertex   -2.985018e-01 1.259478e+00 -3.556246e+00
    endloop
  endfacet
  facet normal -1.900318e-01 9.203247e-01 3.418924e-01
    outer loop
      vertex   -6.741258e-01 3.823157e+00 -1.066608e+01
      vertex   -2.985018e-01 1.259478e+00 -3.556246e+00
      vertex   0.000000e+00 0.000000e+00 0.000000e+00
    endloop
  endfacet
  facet normal -2.233731e-01 9.128325e-01 3.418204e-01
    outer loop
      vertex   -8.403040e-01 3.790292e+00 -1.066659e+01
      vertex   -1.004900e+00 3.750245e+00 -1.066721e+01
      vertex   -5.970035e-01 2.518956e+00 -7.112493e+00
    endloop
  endfacet
  facet normal -2.431863e-01 9.075835e-01 3.422757e-01
    outer loop
      vertex   -5.970035e-01 2.518956e+00 -7.112493e+00
      vertex   -1.004900e+00 3.750245e+00 -1.066721e+01
      vertex   -7.424577e-01 2.479982e+00 -7.112493e+00
    endloop
  endfacet
  facet normal -2.432224e-01 9.077183e-01 3.418924e-01
    outer loop
      vertex   -5.970035e-01 2.518956e+00 -7.112493e+00
      vertex   -7.424577e-01 2.479982e+00 -7.112493e+00
      vertex   -3.712289e-01 1.239991e+00 -3.556246e+00
    endloop
  endfacet
  facet normal -2.955900e-01 8.920404e-01 3.418924e-01
    outer loop
      vertex   -3.712289e-01 1.239991e+00 -3.556246e+00
      vertex   -7.424577e-01 2.479982e+00 -7.112493e+00
      vertex   -1.328100e+00 3.648924e+00 -1.066874e+01
    endloop
  endfacet
  facet normal -2.955900e-01 8.920404e-01 3.418924e-01
    outer loop
      vertex   -3.712289e-01 1.239991e+00 -3.556246e+00
      vertex   -1.328100e+00 3.648924e+00 -1.066874e+01
      vertex   0.000000e+00 0.000000e+00 0.000000e+00
    endloop
  endfacet
  facet normal -2.629779e-01 9.022203e-01 3.418204e-01
    outer loop
      vertex   -1.004900e+00 3.750245e+00 -1.066721e+01
      vertex   -1.167600e+00 3.703094e+00 -1.066793e+01
      vertex   -7.424577e-01 2.479982e+00 -7.112493e+00
    endloop
  endfacet
  facet normal -3.020361e-01 8.897588e-01 3.422039e-01
    outer loop
      vertex   -7.424577e-01 2.479982e+00 -7.112493e+00
      vertex   -1.167600e+00 3.703094e+00 -1.066793e+01
      vertex   -1.328100e+00 3.648924e+00 -1.066874e+01
    endloop
  endfacet
  facet normal -2.432224e-01 9.077183e-01 3.418924e-01
    outer loop
      vertex   -3.712289e-01 1.239991e+00 -3.556246e+00
      vertex   0.000000e+00 0.000000e+00 0.000000e+00
      vertex   -2.985018e-01 1.259478e+00 -3.556246e+00
    endloop
  endfacet
  facet normal -2.432224e-01 9.077183e-01 3.418924e-01
    outer loop
      vertex   -3.712289e-01 1.239991e+00 -3.556246e+00
      vertex   -2.985018e-01 1.259478e+00 -3.556246e+00
      vertex   -5.970035e-01 2.518956e+00 -7.112493e+00
    endloop
  endfacet
  facet normal 2.961468e-01 -9.392545e-01 -1.734879e-01
    outer loop
      vertex   -5.126286e-01 1.913141e+00 -1.123271e+01
      vertex   -3.417643e-01 1.275475e+00 -7.488756e+00
      vertex   -6.774409e-01 1.861253e+00 -1.123313e+01
    endloop
  endfacet
  facet normal 2.961466e-01 -9.392546e-01 -1.734879e-01
    outer loop
      vertex   -6.774409e-01 1.861253e+00 -1.123313e+01
      vertex   -3.417643e-01 1.275475e+00 -7.488756e+00
      vertex   -1.708818e-01 6.377378e-01 -3.744378e+00
    endloop
  endfacet
  facet normal 2.961462e-01 -9.392547e-01 -1.734879e-01
    outer loop
      vertex   -6.774409e-01 1.861253e+00 -1.123313e+01
      vertex   -1.708818e-01 6.377378e-01 -3.744378e+00
      vertex   0.000000e+00 0.000000e+00 0.000000e+00
    endloop
  endfacet
  facet normal 2.131584e-01 -9.614913e-01 -1.734879e-01
    outer loop
      vertex   -5.126286e-01 1.913141e+00 -1.123271e+01
      vertex   -3.439234e-01 1.950487e+00 -1.123241e+01
      vertex   -3.417643e-01 1.275475e+00 -7.488756e+00
    endloop
  endfacet
  facet normal 2.131582e-01 -9.614913e-01 -1.734879e-01
    outer loop
      vertex   -3.417643e-01 1.275475e+00 -7.488756e+00
      vertex   -3.439234e-01 1.950487e+00 -1.123241e+01
      vertex   -1.708818e-01 6.377378e-01 -3.744378e+00
    endloop
  endfacet
  facet normal 2.131578e-01 -9.614914e-01 -1.734879e-01
    outer loop
      vertex   -3.439234e-01 1.950487e+00 -1.123241e+01
      vertex   0.000000e+00 0.000000e+00 0.000000e+00
      vertex   -1.708818e-01 6.377378e-01 -3.744378e+00
    endloop
  endfacet
endsolid
