solid ASCII
  facet normal -6.427876e-01 7.660444e-01 -2.927790e-16
    outer loop
      vertex   1.517841e+00 1.273620e+00 -1.123708e+01
      vertex   1.329896e+00 1.115915e+00 -1.128102e+01
      vertex   0.000000e+00 0.000000e+00 8.881784e-15
    endloop
  endfacet
  facet normal -6.427876e-01 7.660444e-01 7.808624e-17
    outer loop
      vertex   0.000000e+00 0.000000e+00 8.881784e-15
      vertex   1.329896e+00 1.115915e+00 -1.128102e+01
      vertex   1.141294e+00 9.576598e-01 -1.131914e+01
    endloop
  endfacet
  facet normal -6.427876e-01 7.660444e-01 3.904404e-17
    outer loop
      vertex   0.000000e+00 0.000000e+00 8.881784e-15
      vertex   1.141294e+00 9.576598e-01 -1.131914e+01
      vertex   9.521101e-01 7.989153e-01 -1.135143e+01
    endloop
  endfacet
  facet normal -6.427876e-01 7.660444e-01 1.073599e-16
    outer loop
      vertex   9.521101e-01 7.989153e-01 -1.135143e+01
      vertex   7.624157e-01 6.397428e-01 -1.137788e+01
      vertex   0.000000e+00 0.000000e+00 8.881784e-15
    endloop
  endfacet
  facet normal -6.427876e-01 7.660444e-01 1.561235e-16
    outer loop
      vertex   0.000000e+00 0.000000e+00 8.881784e-15
      vertex   7.624157e-01 6.397428e-01 -1.137788e+01
      vertex   5.722844e-01 4.802036e-01 -1.139847e+01
    endloop
  endfacet
  facet normal -6.427876e-01 7.660444e-01 7.803349e-17
    outer loop
      vertex   0.000000e+00 0.000000e+00 8.881784e-15
      vertex   5.722844e-01 4.802036e-01 -1.139847e+01
      vertex   3.817893e-01 3.203592e-01 -1.141320e+01
    endloop
  endfacet
  facet normal -6.427876e-01 7.660444e-01 4.143490e-17
    outer loop
      vertex   3.817893e-01 3.203592e-01 -1.141320e+01
      vertex   1.910034e-01 1.602709e-01 -1.142205e+01
      vertex   0.000000e+00 0.000000e+00 8.881784e-15
    endloop
  endfacet
  facet normal -6.427876e-01 7.660444e-01 3.815363e-17
    outer loop
      vertex   0.000000e+00 0.000000e+00 8.881784e-15
      vertex   1.910034e-01 1.602709e-01 -1.142205e+01
      vertex   -6.781482e-16 -8.117450e-32 -1.142500e+01
    endloop
  endfacet
  facet normal 1.348040e-01 1.135808e-01 -9.843410e-01
    outer loop
      vertex   1.517841e+00 1.273620e+00 -1.123708e+01
      vertex   1.572003e+00 1.206235e+00 -1.123744e+01
      vertex   1.329896e+00 1.115915e+00 -1.128102e+01
    endloop
  endfacet
  facet normal 1.353203e-01 1.122371e-01 -9.844243e-01
    outer loop
      vertex   1.329896e+00 1.115915e+00 -1.128102e+01
      vertex   1.572003e+00 1.206235e+00 -1.123744e+01
      vertex   1.373115e+00 1.053533e+00 -1.128219e+01
    endloop
  endfacet
  facet normal 1.164658e-01 9.924572e-02 -9.882237e-01
    outer loop
      vertex   1.329896e+00 1.115915e+00 -1.128102e+01
      vertex   1.373115e+00 1.053533e+00 -1.128219e+01
      vertex   1.141294e+00 9.576598e-01 -1.131914e+01
    endloop
  endfacet
  facet normal 1.177900e-01 9.610301e-02 -9.883773e-01
    outer loop
      vertex   1.141294e+00 9.576598e-01 -1.131914e+01
      vertex   1.373115e+00 1.053533e+00 -1.128219e+01
      vertex   1.173494e+00 9.002925e-01 -1.132088e+01
    endloop
  endfacet
  facet normal 9.789816e-02 8.503442e-02 -9.915569e-01
    outer loop
      vertex   1.141294e+00 9.576598e-01 -1.131914e+01
      vertex   1.173494e+00 9.002925e-01 -1.132088e+01
      vertex   9.521101e-01 7.989153e-01 -1.135143e+01
    endloop
  endfacet
  facet normal 1.002364e-01 7.998453e-02 -9.917435e-01
    outer loop
      vertex   9.521101e-01 7.989153e-01 -1.135143e+01
      vertex   1.173494e+00 9.002925e-01 -1.132088e+01
      vertex   9.747837e-01 7.477784e-01 -1.135326e+01
    endloop
  endfacet
  facet normal 7.925943e-02 7.077656e-02 -9.943383e-01
    outer loop
      vertex   9.521101e-01 7.989153e-01 -1.135143e+01
      vertex   9.747837e-01 7.477784e-01 -1.135326e+01
      vertex   7.624157e-01 6.397428e-01 -1.137788e+01
    endloop
  endfacet
  facet normal 8.276537e-02 6.392552e-02 -9.945167e-01
    outer loop
      vertex   7.624157e-01 6.397428e-01 -1.137788e+01
      vertex   9.747837e-01 7.477784e-01 -1.135326e+01
      vertex   7.771370e-01 5.961068e-01 -1.137946e+01
    endloop
  endfacet
  facet normal 6.054040e-02 5.650177e-02 -9.965653e-01
    outer loop
      vertex   7.624157e-01 6.397428e-01 -1.137788e+01
      vertex   7.771370e-01 5.961068e-01 -1.137946e+01
      vertex   5.722844e-01 4.802036e-01 -1.139847e+01
    endloop
  endfacet
  facet normal 6.541065e-02 4.791717e-02 -9.967073e-01
    outer loop
      vertex   5.722844e-01 4.802036e-01 -1.139847e+01
      vertex   7.771370e-01 5.961068e-01 -1.137946e+01
      vertex   5.806997e-01 4.453895e-01 -1.139960e+01
    endloop
  endfacet
  facet normal 4.172980e-02 4.224229e-02 -9.982355e-01
    outer loop
      vertex   5.722844e-01 4.802036e-01 -1.139847e+01
      vertex   5.806997e-01 4.453895e-01 -1.139960e+01
      vertex   3.817893e-01 3.203592e-01 -1.141320e+01
    endloop
  endfacet
  facet normal 4.820645e-02 3.194847e-02 -9.983263e-01
    outer loop
      vertex   3.817893e-01 3.203592e-01 -1.141320e+01
      vertex   5.806997e-01 4.453895e-01 -1.139960e+01
      vertex   3.856108e-01 2.957328e-01 -1.141381e+01
    endloop
  endfacet
  facet normal 2.281427e-02 2.803308e-02 -9.993466e-01
    outer loop
      vertex   3.817893e-01 3.203592e-01 -1.141320e+01
      vertex   3.856108e-01 2.957328e-01 -1.141381e+01
      vertex   1.910034e-01 1.602709e-01 -1.142205e+01
    endloop
  endfacet
  facet normal 3.118745e-02 1.600635e-02 -9.993854e-01
    outer loop
      vertex   1.910034e-01 1.602709e-01 -1.142205e+01
      vertex   3.856108e-01 2.957328e-01 -1.141381e+01
      vertex   1.920026e-01 1.472378e-01 -1.142223e+01
    endloop
  endfacet
  facet normal 3.778354e-03 1.391195e-02 -9.998961e-01
    outer loop
      vertex   1.910034e-01 1.602709e-01 -1.142205e+01
      vertex   1.920026e-01 1.472378e-01 -1.142223e+01
      vertex   -6.781482e-16 -8.117450e-32 -1.142500e+01
    endloop
  endfacet
  facet normal 9.097482e-03 6.976367e-03 -9.999343e-01
    outer loop
      vertex   -6.781482e-16 -8.117450e-32 -1.142500e+01
      vertex   1.920026e-01 1.472378e-01 -1.142223e+01
      vertex   1.984579e-01 1.388198e-01 -1.142223e+01
    endloop
  endfacet
  facet normal 1.392164e-01 1.071689e-01 -9.844458e-01
    outer loop
      vertex   1.572003e+00 1.206235e+00 -1.123744e+01
      vertex   1.623173e+00 1.136552e+00 -1.123779e+01
      vertex   1.373115e+00 1.053533e+00 -1.128219e+01
    endloop
  endfacet
  facet normal 1.393203e-01 1.068657e-01 -9.844641e-01
    outer loop
      vertex   1.373115e+00 1.053533e+00 -1.128219e+01
      vertex   1.623173e+00 1.136552e+00 -1.123779e+01
      vertex   1.419566e+00 9.929758e-01 -1.128219e+01
    endloop
  endfacet
  facet normal 1.205704e-01 9.248359e-02 -9.883874e-01
    outer loop
      vertex   1.373115e+00 1.053533e+00 -1.128219e+01
      vertex   1.419566e+00 9.929758e-01 -1.128219e+01
      vertex   1.173494e+00 9.002925e-01 -1.132088e+01
    endloop
  endfacet
  facet normal 1.205717e-01 9.248042e-02 -9.883875e-01
    outer loop
      vertex   1.173494e+00 9.002925e-01 -1.132088e+01
      vertex   1.419566e+00 9.929758e-01 -1.128219e+01
      vertex   1.213151e+00 8.485901e-01 -1.132088e+01
    endloop
  endfacet
  facet normal 1.017351e-01 7.803247e-02 -9.917464e-01
    outer loop
      vertex   1.173494e+00 9.002925e-01 -1.132088e+01
      vertex   1.213151e+00 8.485901e-01 -1.132088e+01
      vertex   9.747837e-01 7.477784e-01 -1.135326e+01
    endloop
  endfacet
  facet normal 1.017362e-01 7.802986e-02 -9.917465e-01
    outer loop
      vertex   9.747837e-01 7.477784e-01 -1.135326e+01
      vertex   1.213151e+00 8.485901e-01 -1.132088e+01
      vertex   1.007691e+00 7.048729e-01 -1.135326e+01
    endloop
  endfacet
  facet normal 8.298080e-02 6.364479e-02 -9.945167e-01
    outer loop
      vertex   9.747837e-01 7.477784e-01 -1.135326e+01
      vertex   1.007691e+00 7.048729e-01 -1.135326e+01
      vertex   7.771370e-01 5.961068e-01 -1.137946e+01
    endloop
  endfacet
  facet normal 8.298178e-02 6.364272e-02 -9.945168e-01
    outer loop
      vertex   7.771370e-01 5.961068e-01 -1.137946e+01
      vertex   1.007691e+00 7.048729e-01 -1.135326e+01
      vertex   8.033455e-01 5.619343e-01 -1.137946e+01
    endloop
  endfacet
  facet normal 6.432424e-02 4.933335e-02 -9.967089e-01
    outer loop
      vertex   7.771370e-01 5.961068e-01 -1.137946e+01
      vertex   8.033455e-01 5.619343e-01 -1.137946e+01
      vertex   5.806997e-01 4.453895e-01 -1.139960e+01
    endloop
  endfacet
  facet normal 6.432506e-02 4.933179e-02 -9.967089e-01
    outer loop
      vertex   5.806997e-01 4.453895e-01 -1.139960e+01
      vertex   8.033455e-01 5.619343e-01 -1.137946e+01
      vertex   6.002633e-01 4.198799e-01 -1.139960e+01
    endloop
  endfacet
  facet normal 4.578143e-02 3.511042e-02 -9.983343e-01
    outer loop
      vertex   5.806997e-01 4.453895e-01 -1.139960e+01
      vertex   6.002633e-01 4.198799e-01 -1.139960e+01
      vertex   3.856108e-01 2.957328e-01 -1.141381e+01
    endloop
  endfacet
  facet normal 4.578206e-02 3.510934e-02 -9.983343e-01
    outer loop
      vertex   3.856108e-01 2.957328e-01 -1.141381e+01
      vertex   6.002633e-01 4.198799e-01 -1.139960e+01
      vertex   3.985887e-01 2.788099e-01 -1.141381e+01
    endloop
  endfacet
  facet normal 2.736766e-02 2.098771e-02 -9.994051e-01
    outer loop
      vertex   3.856108e-01 2.957328e-01 -1.141381e+01
      vertex   3.985887e-01 2.788099e-01 -1.141381e+01
      vertex   1.920026e-01 1.472378e-01 -1.142223e+01
    endloop
  endfacet
  facet normal 2.736806e-02 2.098709e-02 -9.994051e-01
    outer loop
      vertex   1.920026e-01 1.472378e-01 -1.142223e+01
      vertex   3.985887e-01 2.788099e-01 -1.141381e+01
      vertex   1.984579e-01 1.388198e-01 -1.142223e+01
    endloop
  endfacet
  facet normal 1.436336e-01 1.007566e-01 -9.844885e-01
    outer loop
      vertex   1.623173e+00 1.136552e+00 -1.123779e+01
      vertex   1.671254e+00 1.064702e+00 -1.123813e+01
      vertex   1.419566e+00 9.929758e-01 -1.128219e+01
    endloop
  endfacet
  facet normal 1.437215e-01 1.004589e-01 -9.845060e-01
    outer loop
      vertex   1.419566e+00 9.929758e-01 -1.128219e+01
      vertex   1.671254e+00 1.064702e+00 -1.123813e+01
      vertex   1.462469e+00 9.315965e-01 -1.128219e+01
    endloop
  endfacet
  facet normal 1.244281e-01 8.697314e-02 -9.884095e-01
    outer loop
      vertex   1.419566e+00 9.929758e-01 -1.128219e+01
      vertex   1.462469e+00 9.315965e-01 -1.128219e+01
      vertex   1.213151e+00 8.485901e-01 -1.132088e+01
    endloop
  endfacet
  facet normal 1.244293e-01 8.696955e-02 -9.884097e-01
    outer loop
      vertex   1.213151e+00 8.485901e-01 -1.132088e+01
      vertex   1.462469e+00 9.315965e-01 -1.128219e+01
      vertex   1.249854e+00 7.960775e-01 -1.132088e+01
    endloop
  endfacet
  facet normal 1.049897e-01 7.338225e-02 -9.917622e-01
    outer loop
      vertex   1.213151e+00 8.485901e-01 -1.132088e+01
      vertex   1.249854e+00 7.960775e-01 -1.132088e+01
      vertex   1.007691e+00 7.048729e-01 -1.135326e+01
    endloop
  endfacet
  facet normal 1.049908e-01 7.337929e-02 -9.917623e-01
    outer loop
      vertex   1.007691e+00 7.048729e-01 -1.135326e+01
      vertex   1.249854e+00 7.960775e-01 -1.132088e+01
      vertex   1.038211e+00 6.612055e-01 -1.135326e+01
    endloop
  endfacet
  facet normal 8.563513e-02 5.985140e-02 -9.945272e-01
    outer loop
      vertex   1.007691e+00 7.048729e-01 -1.135326e+01
      vertex   1.038211e+00 6.612055e-01 -1.135326e+01
      vertex   8.033455e-01 5.619343e-01 -1.137946e+01
    endloop
  endfacet
  facet normal 8.563613e-02 5.984904e-02 -9.945273e-01
    outer loop
      vertex   8.033455e-01 5.619343e-01 -1.137946e+01
      vertex   1.038211e+00 6.612055e-01 -1.135326e+01
      vertex   8.277018e-01 5.270836e-01 -1.137946e+01
    endloop
  endfacet
  facet normal 6.638166e-02 4.639255e-02 -9.967152e-01
    outer loop
      vertex   8.033455e-01 5.619343e-01 -1.137946e+01
      vertex   8.277018e-01 5.270836e-01 -1.137946e+01
      vertex   6.002633e-01 4.198799e-01 -1.139960e+01
    endloop
  endfacet
  facet normal 6.638251e-02 4.639077e-02 -9.967152e-01
    outer loop
      vertex   6.002633e-01 4.198799e-01 -1.139960e+01
      vertex   8.277018e-01 5.270836e-01 -1.137946e+01
      vertex   6.184817e-01 3.938104e-01 -1.139960e+01
    endloop
  endfacet
  facet normal 4.724572e-02 3.301721e-02 -9.983375e-01
    outer loop
      vertex   6.002633e-01 4.198799e-01 -1.139960e+01
      vertex   6.184817e-01 3.938104e-01 -1.139960e+01
      vertex   3.985887e-01 2.788099e-01 -1.141381e+01
    endloop
  endfacet
  facet normal 4.724636e-02 3.301597e-02 -9.983375e-01
    outer loop
      vertex   3.985887e-01 2.788099e-01 -1.141381e+01
      vertex   6.184817e-01 3.938104e-01 -1.139960e+01
      vertex   4.106989e-01 2.614801e-01 -1.141381e+01
    endloop
  endfacet
  facet normal 2.824300e-02 1.973634e-02 -9.994062e-01
    outer loop
      vertex   3.985887e-01 2.788099e-01 -1.141381e+01
      vertex   4.106989e-01 2.614801e-01 -1.141381e+01
      vertex   1.984579e-01 1.388198e-01 -1.142223e+01
    endloop
  endfacet
  facet normal 2.824342e-02 1.973562e-02 -9.994062e-01
    outer loop
      vertex   1.984579e-01 1.388198e-01 -1.142223e+01
      vertex   4.106989e-01 2.614801e-01 -1.141381e+01
      vertex   2.044939e-01 1.301818e-01 -1.142223e+01
    endloop
  endfacet
  facet normal 9.388471e-03 6.560370e-03 -9.999344e-01
    outer loop
      vertex   1.984579e-01 1.388198e-01 -1.142223e+01
      vertex   2.044939e-01 1.301818e-01 -1.142223e+01
      vertex   -6.781482e-16 -8.117450e-32 -1.142500e+01
    endloop
  endfacet
  facet normal 1.477613e-01 9.413121e-02 -9.845334e-01
    outer loop
      vertex   1.671254e+00 1.064702e+00 -1.123813e+01
      vertex   1.716152e+00 9.908211e-01 -1.123845e+01
      vertex   1.462469e+00 9.315965e-01 -1.128219e+01
    endloop
  endfacet
  facet normal 1.477705e-01 9.409325e-02 -9.845356e-01
    outer loop
      vertex   1.462469e+00 9.315965e-01 -1.128219e+01
      vertex   1.716152e+00 9.908211e-01 -1.123845e+01
      vertex   1.504113e+00 8.684001e-01 -1.128198e+01
    endloop
  endfacet
  facet normal 1.284937e-01 8.137765e-02 -9.883658e-01
    outer loop
      vertex   1.462469e+00 9.315965e-01 -1.128219e+01
      vertex   1.504113e+00 8.684001e-01 -1.128198e+01
      vertex   1.291205e+00 7.454778e-01 -1.131978e+01
    endloop
  endfacet
  facet normal 1.272730e-01 8.251382e-02 -9.884296e-01
    outer loop
      vertex   1.462469e+00 9.315965e-01 -1.128219e+01
      vertex   1.291205e+00 7.454778e-01 -1.131978e+01
      vertex   1.249854e+00 7.960775e-01 -1.132088e+01
    endloop
  endfacet
  facet normal 1.095138e-01 6.793035e-02 -9.916613e-01
    outer loop
      vertex   1.249854e+00 7.960775e-01 -1.132088e+01
      vertex   1.291205e+00 7.454778e-01 -1.131978e+01
      vertex   1.077509e+00 6.221003e-01 -1.135183e+01
    endloop
  endfacet
  facet normal 1.066346e-01 7.080263e-02 -9.917742e-01
    outer loop
      vertex   1.249854e+00 7.960775e-01 -1.132088e+01
      vertex   1.077509e+00 6.221003e-01 -1.135183e+01
      vertex   1.038211e+00 6.612055e-01 -1.135326e+01
    endloop
  endfacet
  facet normal 9.044663e-02 5.443800e-02 -9.944123e-01
    outer loop
      vertex   1.038211e+00 6.612055e-01 -1.135326e+01
      vertex   1.077509e+00 6.221003e-01 -1.135183e+01
      vertex   8.631047e-01 4.983138e-01 -1.137811e+01
    endloop
  endfacet
  facet normal 8.608588e-02 5.914379e-02 -9.945307e-01
    outer loop
      vertex   1.038211e+00 6.612055e-01 -1.135326e+01
      vertex   8.631047e-01 4.983138e-01 -1.137811e+01
      vertex   8.277018e-01 5.270836e-01 -1.137946e+01
    endloop
  endfacet
  facet normal 7.132026e-02 4.087574e-02 -9.966156e-01
    outer loop
      vertex   8.277018e-01 5.270836e-01 -1.137946e+01
      vertex   8.631047e-01 4.983138e-01 -1.137811e+01
      vertex   6.480716e-01 3.741643e-01 -1.139859e+01
    endloop
  endfacet
  facet normal 6.562883e-02 4.757306e-02 -9.967094e-01
    outer loop
      vertex   8.277018e-01 5.270836e-01 -1.137946e+01
      vertex   6.480716e-01 3.741643e-01 -1.139859e+01
      vertex   6.184817e-01 3.938104e-01 -1.139960e+01
    endloop
  endfacet
  facet normal 5.216533e-02 2.721498e-02 -9.982676e-01
    outer loop
      vertex   6.184817e-01 3.938104e-01 -1.139960e+01
      vertex   6.480716e-01 3.741643e-01 -1.139859e+01
      vertex   4.324897e-01 2.496981e-01 -1.141324e+01
    endloop
  endfacet
  facet normal 4.526384e-02 3.612719e-02 -9.983216e-01
    outer loop
      vertex   6.184817e-01 3.938104e-01 -1.139960e+01
      vertex   4.324897e-01 2.496981e-01 -1.141324e+01
      vertex   4.106989e-01 2.614801e-01 -1.141381e+01
    endloop
  endfacet
  facet normal 3.301506e-02 1.342330e-02 -9.993647e-01
    outer loop
      vertex   4.106989e-01 2.614801e-01 -1.141381e+01
      vertex   4.324897e-01 2.496981e-01 -1.141324e+01
      vertex   2.164391e-01 1.249612e-01 -1.142206e+01
    endloop
  endfacet
  facet normal 2.498971e-02 2.484383e-02 -9.993790e-01
    outer loop
      vertex   4.106989e-01 2.614801e-01 -1.141381e+01
      vertex   2.164391e-01 1.249612e-01 -1.142206e+01
      vertex   2.044939e-01 1.301818e-01 -1.142223e+01
    endloop
  endfacet
  facet normal 1.390534e-02 -5.355402e-04 -9.999032e-01
    outer loop
      vertex   2.044939e-01 1.301818e-01 -1.142223e+01
      vertex   2.164391e-01 1.249612e-01 -1.142206e+01
      vertex   -6.781482e-16 -8.117450e-32 -1.142500e+01
    endloop
  endfacet
  facet normal 5.000000e-01 -8.660254e-01 2.640691e-16
    outer loop
      vertex   1.716152e+00 9.908211e-01 -1.123845e+01
      vertex   0.000000e+00 0.000000e+00 8.881784e-15
      vertex   1.504113e+00 8.684001e-01 -1.128198e+01
    endloop
  endfacet
  facet normal 5.000000e-01 -8.660254e-01 -1.075318e-16
    outer loop
      vertex   1.504113e+00 8.684001e-01 -1.128198e+01
      vertex   0.000000e+00 0.000000e+00 8.881784e-15
      vertex   1.291205e+00 7.454778e-01 -1.131978e+01
    endloop
  endfacet
  facet normal 5.000000e-01 -8.660254e-01 7.815725e-17
    outer loop
      vertex   1.291205e+00 7.454778e-01 -1.131978e+01
      vertex   0.000000e+00 0.000000e+00 8.881784e-15
      vertex   1.077509e+00 6.221003e-01 -1.135183e+01
    endloop
  endfacet
  facet normal 5.000000e-01 -8.660254e-01 0.000000e+00
    outer loop
      vertex   1.077509e+00 6.221003e-01 -1.135183e+01
      vertex   0.000000e+00 0.000000e+00 8.881784e-15
      vertex   8.631047e-01 4.983138e-01 -1.137811e+01
    endloop
  endfacet
  facet normal 5.000000e-01 -8.660254e-01 -3.413871e-17
    outer loop
      vertex   8.631047e-01 4.983138e-01 -1.137811e+01
      vertex   0.000000e+00 0.000000e+00 8.881784e-15
      vertex   6.480716e-01 3.741643e-01 -1.139859e+01
    endloop
  endfacet
  facet normal 5.000000e-01 -8.660254e-01 -9.744107e-18
    outer loop
      vertex   6.480716e-01 3.741643e-01 -1.139859e+01
      vertex   0.000000e+00 0.000000e+00 8.881784e-15
      vertex   4.324897e-01 2.496981e-01 -1.141324e+01
    endloop
  endfacet
  facet normal 5.000000e-01 -8.660254e-01 0.000000e+00
    outer loop
      vertex   4.324897e-01 2.496981e-01 -1.141324e+01
      vertex   0.000000e+00 0.000000e+00 8.881784e-15
      vertex   2.164391e-01 1.249612e-01 -1.142206e+01
    endloop
  endfacet
  facet normal 5.000000e-01 -8.660254e-01 -2.916152e-17
    outer loop
      vertex   2.164391e-01 1.249612e-01 -1.142206e+01
      vertex   0.000000e+00 0.000000e+00 8.881784e-15
      vertex   -6.781482e-16 -8.117450e-32 -1.142500e+01
    endloop
  endfacet
  facet normal 8.306025e-01 5.291516e-01 1.734879e-01
    outer loop
      vertex   0.000000e+00 0.000000e+00 8.881784e-15
      vertex   1.716152e+00 9.908211e-01 -1.123845e+01
      vertex   5.410890e-01 3.788740e-01 -3.746150e+00
    endloop
  endfacet
  facet normal 8.419067e-01 5.108794e-01 1.737684e-01
    outer loop
      vertex   5.410890e-01 3.788740e-01 -3.746150e+00
      vertex   1.716152e+00 9.908211e-01 -1.123845e+01
      vertex   1.671254e+00 1.064702e+00 -1.123813e+01
    endloop
  endfacet
  facet normal 8.188446e-01 5.471323e-01 1.736081e-01
    outer loop
      vertex   5.410890e-01 3.788740e-01 -3.746150e+00
      vertex   1.671254e+00 1.064702e+00 -1.123813e+01
      vertex   1.082179e+00 7.577471e-01 -7.492301e+00
    endloop
  endfacet
  facet normal 8.188448e-01 5.471320e-01 1.736081e-01
    outer loop
      vertex   1.082179e+00 7.577471e-01 -7.492301e+00
      vertex   1.671254e+00 1.064702e+00 -1.123813e+01
      vertex   1.623173e+00 1.136552e+00 -1.123779e+01
    endloop
  endfacet
  facet normal 7.941999e-01 5.823288e-01 1.736081e-01
    outer loop
      vertex   1.082179e+00 7.577471e-01 -7.492301e+00
      vertex   1.623173e+00 1.136552e+00 -1.123779e+01
      vertex   1.572003e+00 1.206235e+00 -1.123744e+01
    endloop
  endfacet
  facet normal 7.679558e-01 6.163450e-01 1.742492e-01
    outer loop
      vertex   1.572003e+00 1.206235e+00 -1.123744e+01
      vertex   1.517841e+00 1.273620e+00 -1.123708e+01
      vertex   1.082179e+00 7.577471e-01 -7.492301e+00
    endloop
  endfacet
  facet normal 7.813235e-01 5.995294e-01 1.734879e-01
    outer loop
      vertex   1.082179e+00 7.577471e-01 -7.492301e+00
      vertex   1.517841e+00 1.273620e+00 -1.123708e+01
      vertex   5.410890e-01 3.788740e-01 -3.746150e+00
    endloop
  endfacet
  facet normal 7.813232e-01 5.995299e-01 1.734879e-01
    outer loop
      vertex   1.517841e+00 1.273620e+00 -1.123708e+01
      vertex   0.000000e+00 0.000000e+00 8.881784e-15
      vertex   5.410890e-01 3.788740e-01 -3.746150e+00
    endloop
  endfacet
endsolid
