solid ASCII
  facet normal -9.396926e-01 -3.420201e-01 5.972399e-11
    outer loop
      vertex   3.309817e+00 -9.093649e+00 5.587168e+00
      vertex   3.296435e+00 -9.056880e+00 5.598121e+00
      vertex   3.255714e+00 -8.945000e+00 5.495838e+00
    endloop
  endfacet
  facet normal -9.396926e-01 -3.420201e-01 1.152587e-10
    outer loop
      vertex   3.255714e+00 -8.945000e+00 5.495838e+00
      vertex   3.296435e+00 -9.056880e+00 5.598121e+00
      vertex   3.282956e+00 -9.019847e+00 5.608231e+00
    endloop
  endfacet
  facet normal -9.396926e-01 -3.420201e-01 1.164246e-10
    outer loop
      vertex   3.255714e+00 -8.945000e+00 5.495838e+00
      vertex   3.282956e+00 -9.019847e+00 5.608231e+00
      vertex   3.269382e+00 -8.982553e+00 5.617484e+00
    endloop
  endfacet
  facet normal -9.396926e-01 -3.420201e-01 -6.966916e-14
    outer loop
      vertex   3.269382e+00 -8.982553e+00 5.617484e+00
      vertex   3.255714e+00 -8.945000e+00 5.625862e+00
      vertex   3.255714e+00 -8.945000e+00 5.495838e+00
    endloop
  endfacet
  facet normal 5.093153e-01 -7.012922e-02 8.577178e-01
    outer loop
      vertex   3.309817e+00 -9.093649e+00 5.587168e+00
      vertex   3.338399e+00 -9.057348e+00 5.573164e+00
      vertex   3.296435e+00 -9.056880e+00 5.598121e+00
    endloop
  endfacet
  facet normal 5.075588e-01 -1.034134e-01 8.553886e-01
    outer loop
      vertex   3.296435e+00 -9.056880e+00 5.598121e+00
      vertex   3.338399e+00 -9.057348e+00 5.573164e+00
      vertex   3.330598e+00 -9.056609e+00 5.577882e+00
    endloop
  endfacet
  facet normal 5.092217e-01 -5.562115e-02 8.588362e-01
    outer loop
      vertex   3.296435e+00 -9.056880e+00 5.598121e+00
      vertex   3.330598e+00 -9.056609e+00 5.577882e+00
      vertex   3.332649e+00 -9.037834e+00 5.577882e+00
    endloop
  endfacet
  facet normal 5.128233e-01 -5.601455e-02 8.566649e-01
    outer loop
      vertex   3.332649e+00 -9.037834e+00 5.577882e+00
      vertex   3.330598e+00 -9.056609e+00 5.577882e+00
      vertex   3.338399e+00 -9.057348e+00 5.573164e+00
    endloop
  endfacet
  facet normal 5.177229e-01 -5.389010e-02 8.538494e-01
    outer loop
      vertex   3.332649e+00 -9.037834e+00 5.577882e+00
      vertex   3.338399e+00 -9.057348e+00 5.573164e+00
      vertex   3.366017e+00 -9.020470e+00 5.558746e+00
    endloop
  endfacet
  facet normal 5.415036e-01 -5.237300e-02 8.390655e-01
    outer loop
      vertex   3.392636e+00 -8.983019e+00 5.543904e+00
      vertex   3.376145e+00 -9.001158e+00 5.553415e+00
      vertex   3.366017e+00 -9.020470e+00 5.558746e+00
    endloop
  endfacet
  facet normal 5.160086e-01 -3.435732e-02 8.558941e-01
    outer loop
      vertex   3.366017e+00 -9.020470e+00 5.558746e+00
      vertex   3.376145e+00 -9.001158e+00 5.553415e+00
      vertex   3.335607e+00 -9.000483e+00 5.577882e+00
    endloop
  endfacet
  facet normal 5.153678e-01 -3.565127e-02 8.562272e-01
    outer loop
      vertex   3.366017e+00 -9.020470e+00 5.558746e+00
      vertex   3.335607e+00 -9.000483e+00 5.577882e+00
      vertex   3.334317e+00 -9.019124e+00 5.577882e+00
    endloop
  endfacet
  facet normal 5.097302e-01 -3.526127e-02 8.596114e-01
    outer loop
      vertex   3.334317e+00 -9.019124e+00 5.577882e+00
      vertex   3.335607e+00 -9.000483e+00 5.577882e+00
      vertex   3.294927e+00 -8.999807e+00 5.602032e+00
    endloop
  endfacet
  facet normal 5.097302e-01 -3.526127e-02 8.596114e-01
    outer loop
      vertex   3.334317e+00 -9.019124e+00 5.577882e+00
      vertex   3.294927e+00 -8.999807e+00 5.602032e+00
      vertex   3.293654e+00 -9.018220e+00 5.602032e+00
    endloop
  endfacet
  facet normal 5.050729e-01 -3.493910e-02 8.623692e-01
    outer loop
      vertex   3.293654e+00 -9.018220e+00 5.602032e+00
      vertex   3.294927e+00 -8.999807e+00 5.602032e+00
      vertex   3.282956e+00 -9.019847e+00 5.608231e+00
    endloop
  endfacet
  facet normal 5.060234e-01 -4.511250e-02 8.613392e-01
    outer loop
      vertex   3.293654e+00 -9.018220e+00 5.602032e+00
      vertex   3.282956e+00 -9.019847e+00 5.608231e+00
      vertex   3.292006e+00 -9.036701e+00 5.602032e+00
    endloop
  endfacet
  facet normal 4.796570e-01 -6.433019e-02 8.750948e-01
    outer loop
      vertex   3.292006e+00 -9.036701e+00 5.602032e+00
      vertex   3.282956e+00 -9.019847e+00 5.608231e+00
      vertex   3.296435e+00 -9.056880e+00 5.598121e+00
    endloop
  endfacet
  facet normal 5.089199e-01 -5.480143e-02 8.590677e-01
    outer loop
      vertex   3.292006e+00 -9.036701e+00 5.602032e+00
      vertex   3.296435e+00 -9.056880e+00 5.598121e+00
      vertex   3.332649e+00 -9.037834e+00 5.577882e+00
    endloop
  endfacet
  facet normal 5.216896e-01 -1.450644e-02 8.530120e-01
    outer loop
      vertex   3.405561e+00 -8.964080e+00 5.536322e+00
      vertex   3.377625e+00 -8.963643e+00 5.553415e+00
      vertex   3.392636e+00 -8.983019e+00 5.543904e+00
    endloop
  endfacet
  facet normal 5.208748e-01 -1.537462e-02 8.534946e-01
    outer loop
      vertex   3.392636e+00 -8.983019e+00 5.543904e+00
      vertex   3.377625e+00 -8.963643e+00 5.553415e+00
      vertex   3.377072e+00 -8.982363e+00 5.553415e+00
    endloop
  endfacet
  facet normal 5.204487e-01 -2.565794e-02 8.535074e-01
    outer loop
      vertex   3.392636e+00 -8.983019e+00 5.543904e+00
      vertex   3.377072e+00 -8.982363e+00 5.553415e+00
      vertex   3.376145e+00 -9.001158e+00 5.553415e+00
    endloop
  endfacet
  facet normal 5.162549e-01 -2.545119e-02 8.560567e-01
    outer loop
      vertex   3.376145e+00 -9.001158e+00 5.553415e+00
      vertex   3.377072e+00 -8.982363e+00 5.553415e+00
      vertex   3.336522e+00 -8.981914e+00 5.577882e+00
    endloop
  endfacet
  facet normal 5.162549e-01 -2.545119e-02 8.560567e-01
    outer loop
      vertex   3.376145e+00 -9.001158e+00 5.553415e+00
      vertex   3.336522e+00 -8.981914e+00 5.577882e+00
      vertex   3.335607e+00 -9.000483e+00 5.577882e+00
    endloop
  endfacet
  facet normal 5.100107e-01 -2.514335e-02 8.598005e-01
    outer loop
      vertex   3.335607e+00 -9.000483e+00 5.577882e+00
      vertex   3.336522e+00 -8.981914e+00 5.577882e+00
      vertex   3.295832e+00 -8.981464e+00 5.602032e+00
    endloop
  endfacet
  facet normal 5.100107e-01 -2.514335e-02 8.598005e-01
    outer loop
      vertex   3.335607e+00 -9.000483e+00 5.577882e+00
      vertex   3.295832e+00 -8.981464e+00 5.602032e+00
      vertex   3.294927e+00 -8.999807e+00 5.602032e+00
    endloop
  endfacet
  facet normal 5.050342e-01 -2.489801e-02 8.627401e-01
    outer loop
      vertex   3.294927e+00 -8.999807e+00 5.602032e+00
      vertex   3.295832e+00 -8.981464e+00 5.602032e+00
      vertex   3.269382e+00 -8.982553e+00 5.617484e+00
    endloop
  endfacet
  facet normal 5.013700e-01 -3.202467e-02 8.646401e-01
    outer loop
      vertex   3.294927e+00 -8.999807e+00 5.602032e+00
      vertex   3.269382e+00 -8.982553e+00 5.617484e+00
      vertex   3.282956e+00 -9.019847e+00 5.608231e+00
    endloop
  endfacet
  facet normal 5.227769e-01 -3.281129e-03 8.524632e-01
    outer loop
      vertex   3.418222e+00 -8.945000e+00 5.528631e+00
      vertex   3.377869e+00 -8.945000e+00 5.553377e+00
      vertex   3.405561e+00 -8.964080e+00 5.536322e+00
    endloop
  endfacet
  facet normal 5.218445e-01 -5.136590e-03 8.530252e-01
    outer loop
      vertex   3.405561e+00 -8.964080e+00 5.536322e+00
      vertex   3.377869e+00 -8.945000e+00 5.553377e+00
      vertex   3.377625e+00 -8.963643e+00 5.553415e+00
    endloop
  endfacet
  facet normal 5.165507e-01 -5.060748e-03 8.562416e-01
    outer loop
      vertex   3.377869e+00 -8.945000e+00 5.553377e+00
      vertex   3.337332e+00 -8.945000e+00 5.577832e+00
      vertex   3.377625e+00 -8.963643e+00 5.553415e+00
    endloop
  endfacet
  facet normal 5.165395e-01 -5.093746e-03 8.562482e-01
    outer loop
      vertex   3.377625e+00 -8.963643e+00 5.553415e+00
      vertex   3.337332e+00 -8.945000e+00 5.577832e+00
      vertex   3.337068e+00 -8.963419e+00 5.577882e+00
    endloop
  endfacet
  facet normal 5.164451e-01 -1.524387e-02 8.561846e-01
    outer loop
      vertex   3.377625e+00 -8.963643e+00 5.553415e+00
      vertex   3.337068e+00 -8.963419e+00 5.577882e+00
      vertex   3.377072e+00 -8.982363e+00 5.553415e+00
    endloop
  endfacet
  facet normal 5.164451e-01 -1.524387e-02 8.561846e-01
    outer loop
      vertex   3.377072e+00 -8.982363e+00 5.553415e+00
      vertex   3.337068e+00 -8.963419e+00 5.577882e+00
      vertex   3.336522e+00 -8.981914e+00 5.577882e+00
    endloop
  endfacet
  facet normal 5.103005e-01 -4.994220e-03 8.599817e-01
    outer loop
      vertex   3.337332e+00 -8.945000e+00 5.577832e+00
      vertex   3.296613e+00 -8.945000e+00 5.601994e+00
      vertex   3.337068e+00 -8.963419e+00 5.577882e+00
    endloop
  endfacet
  facet normal 5.102891e-01 -5.027916e-03 8.599882e-01
    outer loop
      vertex   3.337068e+00 -8.963419e+00 5.577882e+00
      vertex   3.296613e+00 -8.945000e+00 5.601994e+00
      vertex   3.296371e+00 -8.963194e+00 5.602032e+00
    endloop
  endfacet
  facet normal 5.101967e-01 -1.505944e-02 8.599259e-01
    outer loop
      vertex   3.337068e+00 -8.963419e+00 5.577882e+00
      vertex   3.296371e+00 -8.963194e+00 5.602032e+00
      vertex   3.336522e+00 -8.981914e+00 5.577882e+00
    endloop
  endfacet
  facet normal 5.101967e-01 -1.505944e-02 8.599259e-01
    outer loop
      vertex   3.336522e+00 -8.981914e+00 5.577882e+00
      vertex   3.296371e+00 -8.963194e+00 5.602032e+00
      vertex   3.295832e+00 -8.981464e+00 5.602032e+00
    endloop
  endfacet
  facet normal 5.040223e-01 -4.936954e-03 8.636765e-01
    outer loop
      vertex   3.296613e+00 -8.945000e+00 5.601994e+00
      vertex   3.255714e+00 -8.945000e+00 5.625862e+00
      vertex   3.296371e+00 -8.963194e+00 5.602032e+00
    endloop
  endfacet
  facet normal 5.022783e-01 -1.010526e-02 8.646470e-01
    outer loop
      vertex   3.296371e+00 -8.963194e+00 5.602032e+00
      vertex   3.255714e+00 -8.945000e+00 5.625862e+00
      vertex   3.269382e+00 -8.982553e+00 5.617484e+00
    endloop
  endfacet
  facet normal 5.048277e-01 -1.490096e-02 8.630915e-01
    outer loop
      vertex   3.296371e+00 -8.963194e+00 5.602032e+00
      vertex   3.269382e+00 -8.982553e+00 5.617484e+00
      vertex   3.295832e+00 -8.981464e+00 5.602032e+00
    endloop
  endfacet
  facet normal 5.093541e-01 -4.540944e-02 8.593581e-01
    outer loop
      vertex   3.292006e+00 -9.036701e+00 5.602032e+00
      vertex   3.332649e+00 -9.037834e+00 5.577882e+00
      vertex   3.293654e+00 -9.018220e+00 5.602032e+00
    endloop
  endfacet
  facet normal 5.093541e-01 -4.540944e-02 8.593581e-01
    outer loop
      vertex   3.293654e+00 -9.018220e+00 5.602032e+00
      vertex   3.332649e+00 -9.037834e+00 5.577882e+00
      vertex   3.334317e+00 -9.019124e+00 5.577882e+00
    endloop
  endfacet
  facet normal 5.148325e-01 -4.589785e-02 8.560612e-01
    outer loop
      vertex   3.334317e+00 -9.019124e+00 5.577882e+00
      vertex   3.332649e+00 -9.037834e+00 5.577882e+00
      vertex   3.366017e+00 -9.020470e+00 5.558746e+00
    endloop
  endfacet
  facet normal -1.253483e-13 1.000000e+00 -3.479606e-13
    outer loop
      vertex   3.418222e+00 -8.945000e+00 5.528631e+00
      vertex   3.336785e+00 -8.945000e+00 5.512022e+00
      vertex   3.377869e+00 -8.945000e+00 5.553377e+00
    endloop
  endfacet
  facet normal -1.782260e-13 1.000000e+00 -2.954299e-13
    outer loop
      vertex   3.377869e+00 -8.945000e+00 5.553377e+00
      vertex   3.336785e+00 -8.945000e+00 5.512022e+00
      vertex   3.337332e+00 -8.945000e+00 5.577832e+00
    endloop
  endfacet
  facet normal -6.471552e-15 1.000000e+00 -2.968581e-13
    outer loop
      vertex   3.337332e+00 -8.945000e+00 5.577832e+00
      vertex   3.336785e+00 -8.945000e+00 5.512022e+00
      vertex   3.255714e+00 -8.945000e+00 5.495838e+00
    endloop
  endfacet
  facet normal -1.679952e-13 1.000000e+00 -1.360760e-13
    outer loop
      vertex   3.337332e+00 -8.945000e+00 5.577832e+00
      vertex   3.255714e+00 -8.945000e+00 5.495838e+00
      vertex   3.296613e+00 -8.945000e+00 5.601994e+00
    endloop
  endfacet
  facet normal 4.616704e-14 1.000000e+00 -2.185870e-13
    outer loop
      vertex   3.296613e+00 -8.945000e+00 5.601994e+00
      vertex   3.255714e+00 -8.945000e+00 5.495838e+00
      vertex   3.255714e+00 -8.945000e+00 5.625862e+00
    endloop
  endfacet
  facet normal 1.295503e-01 -4.434705e-01 -8.868769e-01
    outer loop
      vertex   3.405561e+00 -8.964080e+00 5.536322e+00
      vertex   3.392636e+00 -8.983019e+00 5.543904e+00
      vertex   3.418222e+00 -8.945000e+00 5.528631e+00
    endloop
  endfacet
  facet normal 1.767025e-01 -4.669879e-01 -8.664286e-01
    outer loop
      vertex   3.418222e+00 -8.945000e+00 5.528631e+00
      vertex   3.392636e+00 -8.983019e+00 5.543904e+00
      vertex   3.336785e+00 -8.945000e+00 5.512022e+00
    endloop
  endfacet
  facet normal 1.757195e-01 -4.680974e-01 -8.660297e-01
    outer loop
      vertex   3.336785e+00 -8.945000e+00 5.512022e+00
      vertex   3.392636e+00 -8.983019e+00 5.543904e+00
      vertex   3.366017e+00 -9.020470e+00 5.558746e+00
    endloop
  endfacet
  facet normal 1.738753e-01 -4.688052e-01 -8.660191e-01
    outer loop
      vertex   3.336785e+00 -8.945000e+00 5.512022e+00
      vertex   3.366017e+00 -9.020470e+00 5.558746e+00
      vertex   3.338399e+00 -9.057348e+00 5.573164e+00
    endloop
  endfacet
  facet normal 1.719675e-01 -4.694976e-01 -8.660250e-01
    outer loop
      vertex   3.309817e+00 -9.093649e+00 5.587168e+00
      vertex   3.255714e+00 -8.945000e+00 5.495838e+00
      vertex   3.338399e+00 -9.057348e+00 5.573164e+00
    endloop
  endfacet
  facet normal 1.729120e-01 -4.688969e-01 -8.661623e-01
    outer loop
      vertex   3.338399e+00 -9.057348e+00 5.573164e+00
      vertex   3.255714e+00 -8.945000e+00 5.495838e+00
      vertex   3.336785e+00 -8.945000e+00 5.512022e+00
    endloop
  endfacet
endsolid
