solid ASCII
  facet normal 1.604563e-01 9.751797e-01 -1.525723e-01
    outer loop
      vertex   1.870653e+00 1.060900e+01 -1.899511e+00
      vertex   1.784637e+00 1.062317e+01 -1.899400e+00
      vertex   1.873313e+00 1.062408e+01 -1.800309e+00
    endloop
  endfacet
  facet normal 1.603320e-01 9.752175e-01 -1.524614e-01
    outer loop
      vertex   1.873313e+00 1.062408e+01 -1.800309e+00
      vertex   1.784637e+00 1.062317e+01 -1.899400e+00
      vertex   1.785458e+00 1.063868e+01 -1.799312e+00
    endloop
  endfacet
  facet normal 1.606207e-01 9.764013e-01 -1.443656e-01
    outer loop
      vertex   1.873313e+00 1.062408e+01 -1.800309e+00
      vertex   1.785458e+00 1.063868e+01 -1.799312e+00
      vertex   1.875829e+00 1.063836e+01 -1.700980e+00
    endloop
  endfacet
  facet normal 1.604985e-01 9.764380e-01 -1.442533e-01
    outer loop
      vertex   1.875829e+00 1.063836e+01 -1.700980e+00
      vertex   1.785458e+00 1.063868e+01 -1.799312e+00
      vertex   1.787872e+00 1.065307e+01 -1.699259e+00
    endloop
  endfacet
  facet normal 1.608420e-01 9.775441e-01 -1.361521e-01
    outer loop
      vertex   1.875829e+00 1.063836e+01 -1.700980e+00
      vertex   1.787872e+00 1.065307e+01 -1.699259e+00
      vertex   1.878203e+00 1.065182e+01 -1.601529e+00
    endloop
  endfacet
  facet normal 1.606689e-01 9.775949e-01 -1.359915e-01
    outer loop
      vertex   1.878203e+00 1.065182e+01 -1.601529e+00
      vertex   1.787872e+00 1.065307e+01 -1.699259e+00
      vertex   1.790142e+00 1.066659e+01 -1.599365e+00
    endloop
  endfacet
  facet normal 1.610392e-01 9.786214e-01 -1.279319e-01
    outer loop
      vertex   1.878203e+00 1.065182e+01 -1.601529e+00
      vertex   1.790142e+00 1.066659e+01 -1.599365e+00
      vertex   1.880433e+00 1.066447e+01 -1.501964e+00
    endloop
  endfacet
  facet normal 1.608405e-01 9.786783e-01 -1.277465e-01
    outer loop
      vertex   1.880433e+00 1.066447e+01 -1.501964e+00
      vertex   1.790142e+00 1.066659e+01 -1.599365e+00
      vertex   1.792268e+00 1.067926e+01 -1.499642e+00
    endloop
  endfacet
  facet normal 1.612125e-01 9.796332e-01 -1.197053e-01
    outer loop
      vertex   1.880433e+00 1.066447e+01 -1.501964e+00
      vertex   1.792268e+00 1.067926e+01 -1.499642e+00
      vertex   1.882520e+00 1.067630e+01 -1.402289e+00
    endloop
  endfacet
  facet normal 1.610132e-01 9.796887e-01 -1.195188e-01
    outer loop
      vertex   1.882520e+00 1.067630e+01 -1.402289e+00
      vertex   1.792268e+00 1.067926e+01 -1.499642e+00
      vertex   1.794251e+00 1.069108e+01 -1.400099e+00
    endloop
  endfacet
  facet normal 1.613620e-01 9.805795e-01 -1.114726e-01
    outer loop
      vertex   1.882520e+00 1.067630e+01 -1.402289e+00
      vertex   1.794251e+00 1.069108e+01 -1.400099e+00
      vertex   1.884464e+00 1.068733e+01 -1.302511e+00
    endloop
  endfacet
  facet normal 1.611872e-01 9.806268e-01 -1.113092e-01
    outer loop
      vertex   1.884464e+00 1.068733e+01 -1.302511e+00
      vertex   1.794251e+00 1.069108e+01 -1.400099e+00
      vertex   1.796093e+00 1.070205e+01 -1.300748e+00
    endloop
  endfacet
  facet normal 1.614872e-01 9.814604e-01 -1.032340e-01
    outer loop
      vertex   1.884464e+00 1.068733e+01 -1.302511e+00
      vertex   1.796093e+00 1.070205e+01 -1.300748e+00
      vertex   1.886264e+00 1.069753e+01 -1.202634e+00
    endloop
  endfacet
  facet normal 1.613631e-01 9.814930e-01 -1.031185e-01
    outer loop
      vertex   1.886264e+00 1.069753e+01 -1.202634e+00
      vertex   1.796093e+00 1.070205e+01 -1.300748e+00
      vertex   1.797794e+00 1.071219e+01 -1.201600e+00
    endloop
  endfacet
  facet normal 1.614569e-01 9.818233e-01 -9.977345e-02
    outer loop
      vertex   1.886264e+00 1.069753e+01 -1.202634e+00
      vertex   1.797794e+00 1.071219e+01 -1.201600e+00
      vertex   1.814702e+00 1.071223e+01 -1.173806e+00
    endloop
  endfacet
  facet normal 1.557377e-01 9.830935e-01 -9.629638e-02
    outer loop
      vertex   1.814702e+00 1.071223e+01 -1.173806e+00
      vertex   1.797794e+00 1.071219e+01 -1.201600e+00
      vertex   1.777225e+00 1.071478e+01 -1.208405e+00
    endloop
  endfacet
  facet normal 1.578640e-01 9.820621e-01 -1.031166e-01
    outer loop
      vertex   1.777225e+00 1.071478e+01 -1.208405e+00
      vertex   1.797794e+00 1.071219e+01 -1.201600e+00
      vertex   1.796093e+00 1.070205e+01 -1.300748e+00
    endloop
  endfacet
  facet normal 1.562931e-01 9.822765e-01 -1.034671e-01
    outer loop
      vertex   1.777225e+00 1.071478e+01 -1.208405e+00
      vertex   1.796093e+00 1.070205e+01 -1.300748e+00
      vertex   1.739180e+00 1.071726e+01 -1.242348e+00
    endloop
  endfacet
  facet normal 1.536031e-01 9.824172e-01 -1.061253e-01
    outer loop
      vertex   1.739180e+00 1.071726e+01 -1.242348e+00
      vertex   1.796093e+00 1.070205e+01 -1.300748e+00
      vertex   1.707802e+00 1.071586e+01 -1.300748e+00
    endloop
  endfacet
  facet normal 1.520803e-01 9.827412e-01 -1.053149e-01
    outer loop
      vertex   1.739180e+00 1.071726e+01 -1.242348e+00
      vertex   1.707802e+00 1.071586e+01 -1.300748e+00
      vertex   1.700576e+00 1.071967e+01 -1.275629e+00
    endloop
  endfacet
  facet normal 1.475417e-01 9.832833e-01 -1.067027e-01
    outer loop
      vertex   1.700576e+00 1.071967e+01 -1.275629e+00
      vertex   1.707802e+00 1.071586e+01 -1.300748e+00
      vertex   1.661423e+00 1.072200e+01 -1.308241e+00
    endloop
  endfacet
  facet normal 1.482037e-01 9.826739e-01 -1.112996e-01
    outer loop
      vertex   1.661423e+00 1.072200e+01 -1.308241e+00
      vertex   1.707802e+00 1.071586e+01 -1.300748e+00
      vertex   1.706051e+00 1.070487e+01 -1.400099e+00
    endloop
  endfacet
  facet normal 1.463515e-01 9.828455e-01 -1.122315e-01
    outer loop
      vertex   1.661423e+00 1.072200e+01 -1.308241e+00
      vertex   1.706051e+00 1.070487e+01 -1.400099e+00
      vertex   1.621730e+00 1.072427e+01 -1.340177e+00
    endloop
  endfacet
  facet normal 1.457470e-01 9.828381e-01 -1.130797e-01
    outer loop
      vertex   1.621730e+00 1.072427e+01 -1.340177e+00
      vertex   1.706051e+00 1.070487e+01 -1.400099e+00
      vertex   1.617971e+00 1.071793e+01 -1.400099e+00
    endloop
  endfacet
  facet normal 1.412643e-01 9.835165e-01 -1.128702e-01
    outer loop
      vertex   1.621730e+00 1.072427e+01 -1.340177e+00
      vertex   1.617971e+00 1.071793e+01 -1.400099e+00
      vertex   1.581505e+00 1.072646e+01 -1.371431e+00
    endloop
  endfacet
  facet normal 1.384480e-01 9.834999e-01 -1.164477e-01
    outer loop
      vertex   1.581505e+00 1.072646e+01 -1.371431e+00
      vertex   1.617971e+00 1.071793e+01 -1.400099e+00
      vertex   1.540757e+00 1.072857e+01 -1.401996e+00
    endloop
  endfacet
  facet normal 1.384721e-01 9.831303e-01 -1.195003e-01
    outer loop
      vertex   1.540757e+00 1.072857e+01 -1.401996e+00
      vertex   1.617971e+00 1.071793e+01 -1.400099e+00
      vertex   1.616182e+00 1.070608e+01 -1.499642e+00
    endloop
  endfacet
  facet normal 1.379098e-01 9.831557e-01 -1.199405e-01
    outer loop
      vertex   1.540757e+00 1.072857e+01 -1.401996e+00
      vertex   1.616182e+00 1.070608e+01 -1.499642e+00
      vertex   1.528329e+00 1.071840e+01 -1.499642e+00
    endloop
  endfacet
  facet normal 1.377748e-01 9.821935e-01 -1.277261e-01
    outer loop
      vertex   1.528329e+00 1.071840e+01 -1.499642e+00
      vertex   1.616182e+00 1.070608e+01 -1.499642e+00
      vertex   1.614265e+00 1.069338e+01 -1.599365e+00
    endloop
  endfacet
  facet normal 1.377748e-01 9.821935e-01 -1.277261e-01
    outer loop
      vertex   1.528329e+00 1.071840e+01 -1.499642e+00
      vertex   1.614265e+00 1.069338e+01 -1.599365e+00
      vertex   1.526516e+00 1.070569e+01 -1.599365e+00
    endloop
  endfacet
  facet normal 1.376225e-01 9.811077e-01 -1.359699e-01
    outer loop
      vertex   1.526516e+00 1.070569e+01 -1.599365e+00
      vertex   1.614265e+00 1.069338e+01 -1.599365e+00
      vertex   1.612219e+00 1.067983e+01 -1.699259e+00
    endloop
  endfacet
  facet normal 1.376225e-01 9.811077e-01 -1.359699e-01
    outer loop
      vertex   1.526516e+00 1.070569e+01 -1.599365e+00
      vertex   1.612219e+00 1.067983e+01 -1.699259e+00
      vertex   1.524581e+00 1.069212e+01 -1.699259e+00
    endloop
  endfacet
  facet normal 1.374601e-01 9.799502e-01 -1.442303e-01
    outer loop
      vertex   1.524581e+00 1.069212e+01 -1.699259e+00
      vertex   1.612219e+00 1.067983e+01 -1.699259e+00
      vertex   1.610042e+00 1.066540e+01 -1.799312e+00
    endloop
  endfacet
  facet normal 1.374601e-01 9.799502e-01 -1.442303e-01
    outer loop
      vertex   1.524581e+00 1.069212e+01 -1.699259e+00
      vertex   1.610042e+00 1.066540e+01 -1.799312e+00
      vertex   1.522522e+00 1.067768e+01 -1.799312e+00
    endloop
  endfacet
  facet normal 1.372923e-01 9.787540e-01 -1.522875e-01
    outer loop
      vertex   1.522522e+00 1.067768e+01 -1.799312e+00
      vertex   1.610042e+00 1.066540e+01 -1.799312e+00
      vertex   1.525990e+00 1.066167e+01 -1.899098e+00
    endloop
  endfacet
  facet normal 1.301498e-01 9.796679e-01 -1.526824e-01
    outer loop
      vertex   1.522522e+00 1.067768e+01 -1.799312e+00
      vertex   1.525990e+00 1.066167e+01 -1.899098e+00
      vertex   1.439589e+00 1.067316e+01 -1.899008e+00
    endloop
  endfacet
  facet normal 1.528910e-01 9.763928e-01 -1.525825e-01
    outer loop
      vertex   1.784637e+00 1.062317e+01 -1.899400e+00
      vertex   1.698518e+00 1.063667e+01 -1.899294e+00
      vertex   1.785458e+00 1.063868e+01 -1.799312e+00
    endloop
  endfacet
  facet normal 1.526712e-01 9.764568e-01 -1.523927e-01
    outer loop
      vertex   1.785458e+00 1.063868e+01 -1.799312e+00
      vertex   1.698518e+00 1.063667e+01 -1.899294e+00
      vertex   1.697690e+00 1.065241e+01 -1.799312e+00
    endloop
  endfacet
  facet normal 1.528600e-01 9.776641e-01 -1.442452e-01
    outer loop
      vertex   1.785458e+00 1.063868e+01 -1.799312e+00
      vertex   1.697690e+00 1.065241e+01 -1.799312e+00
      vertex   1.699985e+00 1.066681e+01 -1.699259e+00
    endloop
  endfacet
  facet normal 1.451540e-01 9.788390e-01 -1.442376e-01
    outer loop
      vertex   1.699985e+00 1.066681e+01 -1.699259e+00
      vertex   1.697690e+00 1.065241e+01 -1.799312e+00
      vertex   1.612219e+00 1.067983e+01 -1.699259e+00
    endloop
  endfacet
  facet normal 1.453254e-01 9.799953e-01 -1.359767e-01
    outer loop
      vertex   1.699985e+00 1.066681e+01 -1.699259e+00
      vertex   1.612219e+00 1.067983e+01 -1.699259e+00
      vertex   1.614265e+00 1.069338e+01 -1.599365e+00
    endloop
  endfacet
  facet normal 1.453174e-01 9.775421e-01 -1.526244e-01
    outer loop
      vertex   1.698518e+00 1.063667e+01 -1.899294e+00
      vertex   1.612301e+00 1.064951e+01 -1.899194e+00
      vertex   1.697690e+00 1.065241e+01 -1.799312e+00
    endloop
  endfacet
  facet normal 1.449759e-01 9.776380e-01 -1.523352e-01
    outer loop
      vertex   1.697690e+00 1.065241e+01 -1.799312e+00
      vertex   1.612301e+00 1.064951e+01 -1.899194e+00
      vertex   1.610042e+00 1.066540e+01 -1.799312e+00
    endloop
  endfacet
  facet normal 1.451540e-01 9.788390e-01 -1.442376e-01
    outer loop
      vertex   1.697690e+00 1.065241e+01 -1.799312e+00
      vertex   1.610042e+00 1.066540e+01 -1.799312e+00
      vertex   1.612219e+00 1.067983e+01 -1.699259e+00
    endloop
  endfacet
  facet normal 1.377369e-01 9.786339e-01 -1.526575e-01
    outer loop
      vertex   1.612301e+00 1.064951e+01 -1.899194e+00
      vertex   1.525990e+00 1.066167e+01 -1.899098e+00
      vertex   1.610042e+00 1.066540e+01 -1.799312e+00
    endloop
  endfacet
  facet normal 1.296213e-01 9.798054e-01 -1.522490e-01
    outer loop
      vertex   1.522522e+00 1.067768e+01 -1.799312e+00
      vertex   1.439589e+00 1.067316e+01 -1.899008e+00
      vertex   1.435140e+00 1.068924e+01 -1.799312e+00
    endloop
  endfacet
  facet normal 1.225561e-01 9.806441e-01 -1.526996e-01
    outer loop
      vertex   1.435140e+00 1.068924e+01 -1.799312e+00
      vertex   1.439589e+00 1.067316e+01 -1.899008e+00
      vertex   1.353102e+00 1.068398e+01 -1.898923e+00
    endloop
  endfacet
  facet normal 1.219635e-01 9.807926e-01 -1.522194e-01
    outer loop
      vertex   1.435140e+00 1.068924e+01 -1.799312e+00
      vertex   1.353102e+00 1.068398e+01 -1.898923e+00
      vertex   1.347903e+00 1.070009e+01 -1.799312e+00
    endloop
  endfacet
  facet normal 1.149564e-01 9.815624e-01 -1.527096e-01
    outer loop
      vertex   1.347903e+00 1.070009e+01 -1.799312e+00
      vertex   1.353102e+00 1.068398e+01 -1.898923e+00
      vertex   1.266533e+00 1.069413e+01 -1.898843e+00
    endloop
  endfacet
  facet normal 1.143196e-01 9.817162e-01 -1.521982e-01
    outer loop
      vertex   1.347903e+00 1.070009e+01 -1.799312e+00
      vertex   1.266533e+00 1.069413e+01 -1.898843e+00
      vertex   1.260820e+00 1.071023e+01 -1.799312e+00
    endloop
  endfacet
  facet normal 1.073507e-01 9.824229e-01 -1.527125e-01
    outer loop
      vertex   1.260820e+00 1.071023e+01 -1.799312e+00
      vertex   1.266533e+00 1.069413e+01 -1.898843e+00
      vertex   1.179886e+00 1.070361e+01 -1.898768e+00
    endloop
  endfacet
  facet normal 1.066903e-01 9.825766e-01 -1.521853e-01
    outer loop
      vertex   1.260820e+00 1.071023e+01 -1.799312e+00
      vertex   1.179886e+00 1.070361e+01 -1.898768e+00
      vertex   1.173897e+00 1.071967e+01 -1.799312e+00
    endloop
  endfacet
  facet normal 9.973943e-02 9.832254e-01 -1.527085e-01
    outer loop
      vertex   1.173897e+00 1.071967e+01 -1.799312e+00
      vertex   1.179886e+00 1.070361e+01 -1.898768e+00
      vertex   1.093165e+00 1.071242e+01 -1.898698e+00
    endloop
  endfacet
  facet normal 9.907614e-02 9.833743e-01 -1.521806e-01
    outer loop
      vertex   1.173897e+00 1.071967e+01 -1.799312e+00
      vertex   1.093165e+00 1.071242e+01 -1.898698e+00
      vertex   1.087144e+00 1.072841e+01 -1.799312e+00
    endloop
  endfacet
  facet normal 9.212279e-02 9.839699e-01 -1.526976e-01
    outer loop
      vertex   1.087144e+00 1.072841e+01 -1.799312e+00
      vertex   1.093165e+00 1.071242e+01 -1.898698e+00
      vertex   1.006375e+00 1.072056e+01 -1.898634e+00
    endloop
  endfacet
  facet normal 9.147786e-02 9.841096e-01 -1.521842e-01
    outer loop
      vertex   1.087144e+00 1.072841e+01 -1.799312e+00
      vertex   1.006375e+00 1.072056e+01 -1.898634e+00
      vertex   1.000568e+00 1.073646e+01 -1.799312e+00
    endloop
  endfacet
  facet normal 8.450108e-02 9.846565e-01 -1.526796e-01
    outer loop
      vertex   1.000568e+00 1.073646e+01 -1.799312e+00
      vertex   1.006375e+00 1.072056e+01 -1.898634e+00
      vertex   9.195186e-01 1.072802e+01 -1.898575e+00
    endloop
  endfacet
  facet normal 8.389607e-02 9.847831e-01 -1.521964e-01
    outer loop
      vertex   1.000568e+00 1.073646e+01 -1.799312e+00
      vertex   9.195186e-01 1.072802e+01 -1.898575e+00
      vertex   9.141763e-01 1.074382e+01 -1.799312e+00
    endloop
  endfacet
  facet normal 7.687485e-02 9.852852e-01 -1.526542e-01
    outer loop
      vertex   9.141763e-01 1.074382e+01 -1.799312e+00
      vertex   9.195186e-01 1.072802e+01 -1.898575e+00
      vertex   8.326077e-01 1.073481e+01 -1.898521e+00
    endloop
  endfacet
  facet normal 7.633138e-02 9.853951e-01 -1.522173e-01
    outer loop
      vertex   9.141763e-01 1.074382e+01 -1.799312e+00
      vertex   8.326077e-01 1.073481e+01 -1.898521e+00
      vertex   8.279764e-01 1.075049e+01 -1.799312e+00
    endloop
  endfacet
  facet normal 7.112003e-02 9.857389e-01 -1.525150e-01
    outer loop
      vertex   8.279764e-01 1.075049e+01 -1.799312e+00
      vertex   8.326077e-01 1.073481e+01 -1.898521e+00
      vertex   7.777719e-01 1.075256e+01 -1.809369e+00
    endloop
  endfacet
  facet normal 7.036325e-02 9.863904e-01 -1.486034e-01
    outer loop
      vertex   8.279764e-01 1.075049e+01 -1.799312e+00
      vertex   7.777719e-01 1.075256e+01 -1.809369e+00
      vertex   8.256891e-01 1.075181e+01 -1.791645e+00
    endloop
  endfacet
  facet normal 6.923295e-02 9.856943e-01 -1.536668e-01
    outer loop
      vertex   8.326077e-01 1.073481e+01 -1.898521e+00
      vertex   7.456517e-01 1.074092e+01 -1.898473e+00
      vertex   7.777719e-01 1.075256e+01 -1.809369e+00
    endloop
  endfacet
  facet normal 6.716483e-02 9.859482e-01 -1.529544e-01
    outer loop
      vertex   7.777719e-01 1.075256e+01 -1.809369e+00
      vertex   7.456517e-01 1.074092e+01 -1.898473e+00
      vertex   7.295648e-01 1.075322e+01 -1.826272e+00
    endloop
  endfacet
  facet normal 6.275226e-02 9.860823e-01 -1.539604e-01
    outer loop
      vertex   7.295648e-01 1.075322e+01 -1.826272e+00
      vertex   7.456517e-01 1.074092e+01 -1.898473e+00
      vertex   6.810786e-01 1.075380e+01 -1.842351e+00
    endloop
  endfacet
  facet normal 6.158423e-02 9.859500e-01 -1.552740e-01
    outer loop
      vertex   6.810786e-01 1.075380e+01 -1.842351e+00
      vertex   7.456517e-01 1.074092e+01 -1.898473e+00
      vertex   6.586545e-01 1.074637e+01 -1.898430e+00
    endloop
  endfacet
  facet normal 5.802040e-02 9.863805e-01 -1.539060e-01
    outer loop
      vertex   6.810786e-01 1.075380e+01 -1.842351e+00
      vertex   6.586545e-01 1.074637e+01 -1.898430e+00
      vertex   6.323238e-01 1.075428e+01 -1.857603e+00
    endloop
  endfacet
  facet normal 5.393998e-02 9.862034e-01 -1.565032e-01
    outer loop
      vertex   6.323238e-01 1.075428e+01 -1.857603e+00
      vertex   6.586545e-01 1.074637e+01 -1.898430e+00
      vertex   5.716203e-01 1.075113e+01 -1.898392e+00
    endloop
  endfacet
  facet normal 5.423991e-02 9.861171e-01 -1.569429e-01
    outer loop
      vertex   6.323238e-01 1.075428e+01 -1.857603e+00
      vertex   5.716203e-01 1.075113e+01 -1.898392e+00
      vertex   5.833109e-01 1.075469e+01 -1.872024e+00
    endloop
  endfacet
  facet normal 4.893302e-02 9.867527e-01 -1.546757e-01
    outer loop
      vertex   5.833109e-01 1.075469e+01 -1.872024e+00
      vertex   5.716203e-01 1.075113e+01 -1.898392e+00
      vertex   5.340505e-01 1.075500e+01 -1.885611e+00
    endloop
  endfacet
  facet normal 4.626052e-02 9.856722e-01 -1.622045e-01
    outer loop
      vertex   5.340505e-01 1.075500e+01 -1.885611e+00
      vertex   5.716203e-01 1.075113e+01 -1.898392e+00
      vertex   4.845532e-01 1.075522e+01 -1.898360e+00
    endloop
  endfacet
  facet normal 7.463151e-02 9.862708e-01 -1.473093e-01
    outer loop
      vertex   8.256891e-01 1.075181e+01 -1.791645e+00
      vertex   8.733061e-01 1.075098e+01 -1.773105e+00
      vertex   8.279764e-01 1.075049e+01 -1.799312e+00
    endloop
  endfacet
  facet normal 7.635429e-02 9.856908e-01 -1.502785e-01
    outer loop
      vertex   8.279764e-01 1.075049e+01 -1.799312e+00
      vertex   8.733061e-01 1.075098e+01 -1.773105e+00
      vertex   9.141763e-01 1.074382e+01 -1.799312e+00
    endloop
  endfacet
  facet normal 7.900479e-02 9.860873e-01 -1.462533e-01
    outer loop
      vertex   8.733061e-01 1.075098e+01 -1.773105e+00
      vertex   9.206122e-01 1.075006e+01 -1.753752e+00
      vertex   9.141763e-01 1.074382e+01 -1.799312e+00
    endloop
  endfacet
  facet normal 8.396426e-02 9.855835e-01 -1.468849e-01
    outer loop
      vertex   9.141763e-01 1.074382e+01 -1.799312e+00
      vertex   9.206122e-01 1.075006e+01 -1.753752e+00
      vertex   1.000568e+00 1.073646e+01 -1.799312e+00
    endloop
  endfacet
  facet normal 8.405264e-02 9.855984e-01 -1.467342e-01
    outer loop
      vertex   9.206122e-01 1.075006e+01 -1.753752e+00
      vertex   9.675969e-01 1.074905e+01 -1.733588e+00
      vertex   1.000568e+00 1.073646e+01 -1.799312e+00
    endloop
  endfacet
  facet normal 8.807063e-02 9.855470e-01 -1.447087e-01
    outer loop
      vertex   1.000568e+00 1.073646e+01 -1.799312e+00
      vertex   9.675969e-01 1.074905e+01 -1.733588e+00
      vertex   1.014250e+00 1.074796e+01 -1.712619e+00
    endloop
  endfacet
  facet normal 9.157493e-02 9.851539e-01 -1.452095e-01
    outer loop
      vertex   1.000568e+00 1.073646e+01 -1.799312e+00
      vertex   1.014250e+00 1.074796e+01 -1.712619e+00
      vertex   1.087144e+00 1.072841e+01 -1.799312e+00
    endloop
  endfacet
  facet normal 9.278419e-02 9.851890e-01 -1.442006e-01
    outer loop
      vertex   1.087144e+00 1.072841e+01 -1.799312e+00
      vertex   1.014250e+00 1.074796e+01 -1.712619e+00
      vertex   1.060558e+00 1.074679e+01 -1.690847e+00
    endloop
  endfacet
  facet normal 9.279995e-02 9.851881e-01 -1.441966e-01
    outer loop
      vertex   1.087144e+00 1.072841e+01 -1.799312e+00
      vertex   1.060558e+00 1.074679e+01 -1.690847e+00
      vertex   1.088614e+00 1.074291e+01 -1.699259e+00
    endloop
  endfacet
  facet normal 9.476613e-02 9.858932e-01 -1.379639e-01
    outer loop
      vertex   1.088614e+00 1.074291e+01 -1.699259e+00
      vertex   1.060558e+00 1.074679e+01 -1.690847e+00
      vertex   1.106472e+00 1.074553e+01 -1.668297e+00
    endloop
  endfacet
  facet normal 9.924961e-02 9.850960e-01 -1.404825e-01
    outer loop
      vertex   1.088614e+00 1.074291e+01 -1.699259e+00
      vertex   1.106472e+00 1.074553e+01 -1.668297e+00
      vertex   1.175485e+00 1.073416e+01 -1.699259e+00
    endloop
  endfacet
  facet normal 1.000857e-01 9.852666e-01 -1.386814e-01
    outer loop
      vertex   1.175485e+00 1.073416e+01 -1.699259e+00
      vertex   1.106472e+00 1.074553e+01 -1.668297e+00
      vertex   1.151960e+00 1.074419e+01 -1.644986e+00
    endloop
  endfacet
  facet normal 1.041783e-01 9.850949e-01 -1.368758e-01
    outer loop
      vertex   1.175485e+00 1.073416e+01 -1.699259e+00
      vertex   1.151960e+00 1.074419e+01 -1.644986e+00
      vertex   1.197015e+00 1.074277e+01 -1.620919e+00
    endloop
  endfacet
  facet normal 1.069210e-01 9.847019e-01 -1.375864e-01
    outer loop
      vertex   1.175485e+00 1.073416e+01 -1.699259e+00
      vertex   1.197015e+00 1.074277e+01 -1.620919e+00
      vertex   1.262524e+00 1.072471e+01 -1.699259e+00
    endloop
  endfacet
  facet normal 1.087959e-01 9.847140e-01 -1.360214e-01
    outer loop
      vertex   1.262524e+00 1.072471e+01 -1.699259e+00
      vertex   1.197015e+00 1.074277e+01 -1.620919e+00
      vertex   1.241626e+00 1.074127e+01 -1.596104e+00
    endloop
  endfacet
  facet normal 1.091335e-01 9.846867e-01 -1.359486e-01
    outer loop
      vertex   1.262524e+00 1.072471e+01 -1.699259e+00
      vertex   1.241626e+00 1.074127e+01 -1.596104e+00
      vertex   1.264127e+00 1.073833e+01 -1.599365e+00
    endloop
  endfacet
  facet normal 1.101788e-01 9.854490e-01 -1.294254e-01
    outer loop
      vertex   1.264127e+00 1.073833e+01 -1.599365e+00
      vertex   1.241626e+00 1.074127e+01 -1.596104e+00
      vertex   1.285786e+00 1.073969e+01 -1.570547e+00
    endloop
  endfacet
  facet normal 1.146437e-01 9.844988e-01 -1.327361e-01
    outer loop
      vertex   1.264127e+00 1.073833e+01 -1.599365e+00
      vertex   1.285786e+00 1.073969e+01 -1.570547e+00
      vertex   1.351439e+00 1.072816e+01 -1.599365e+00
    endloop
  endfacet
  facet normal 1.157677e-01 9.846986e-01 -1.302553e-01
    outer loop
      vertex   1.351439e+00 1.072816e+01 -1.599365e+00
      vertex   1.285786e+00 1.073969e+01 -1.570547e+00
      vertex   1.329484e+00 1.073803e+01 -1.544255e+00
    endloop
  endfacet
  facet normal 1.199240e-01 9.844252e-01 -1.285506e-01
    outer loop
      vertex   1.351439e+00 1.072816e+01 -1.599365e+00
      vertex   1.329484e+00 1.073803e+01 -1.544255e+00
      vertex   1.372713e+00 1.073629e+01 -1.517234e+00
    endloop
  endfacet
  facet normal 1.238086e-01 9.842241e-01 -1.263898e-01
    outer loop
      vertex   1.415464e+00 1.073448e+01 -1.489491e+00
      vertex   1.440614e+00 1.073001e+01 -1.499642e+00
      vertex   1.372713e+00 1.073629e+01 -1.517234e+00
    endloop
  endfacet
  facet normal 1.241326e-01 9.840120e-01 -1.277162e-01
    outer loop
      vertex   1.372713e+00 1.073629e+01 -1.517234e+00
      vertex   1.440614e+00 1.073001e+01 -1.499642e+00
      vertex   1.438905e+00 1.071728e+01 -1.599365e+00
    endloop
  endfacet
  facet normal 1.223681e-01 9.840464e-01 -1.291462e-01
    outer loop
      vertex   1.372713e+00 1.073629e+01 -1.517234e+00
      vertex   1.438905e+00 1.071728e+01 -1.599365e+00
      vertex   1.351439e+00 1.072816e+01 -1.599365e+00
    endloop
  endfacet
  facet normal 1.222557e-01 9.831425e-01 -1.359573e-01
    outer loop
      vertex   1.351439e+00 1.072816e+01 -1.599365e+00
      vertex   1.438905e+00 1.071728e+01 -1.599365e+00
      vertex   1.437081e+00 1.070369e+01 -1.699259e+00
    endloop
  endfacet
  facet normal 1.222557e-01 9.831425e-01 -1.359573e-01
    outer loop
      vertex   1.351439e+00 1.072816e+01 -1.599365e+00
      vertex   1.437081e+00 1.070369e+01 -1.699259e+00
      vertex   1.349726e+00 1.071456e+01 -1.699259e+00
    endloop
  endfacet
  facet normal 1.221115e-01 9.819828e-01 -1.442170e-01
    outer loop
      vertex   1.349726e+00 1.071456e+01 -1.699259e+00
      vertex   1.437081e+00 1.070369e+01 -1.699259e+00
      vertex   1.435140e+00 1.068924e+01 -1.799312e+00
    endloop
  endfacet
  facet normal 1.221115e-01 9.819828e-01 -1.442170e-01
    outer loop
      vertex   1.349726e+00 1.071456e+01 -1.699259e+00
      vertex   1.435140e+00 1.068924e+01 -1.799312e+00
      vertex   1.347903e+00 1.070009e+01 -1.799312e+00
    endloop
  endfacet
  facet normal 1.258603e-01 9.845839e-01 -1.214647e-01
    outer loop
      vertex   1.415464e+00 1.073448e+01 -1.489491e+00
      vertex   1.457728e+00 1.073258e+01 -1.461033e+00
      vertex   1.440614e+00 1.073001e+01 -1.499642e+00
    endloop
  endfacet
  facet normal 1.301493e-01 9.837962e-01 -1.233133e-01
    outer loop
      vertex   1.440614e+00 1.073001e+01 -1.499642e+00
      vertex   1.457728e+00 1.073258e+01 -1.461033e+00
      vertex   1.528329e+00 1.071840e+01 -1.499642e+00
    endloop
  endfacet
  facet normal 1.300762e-01 9.832435e-01 -1.277200e-01
    outer loop
      vertex   1.440614e+00 1.073001e+01 -1.499642e+00
      vertex   1.528329e+00 1.071840e+01 -1.499642e+00
      vertex   1.526516e+00 1.070569e+01 -1.599365e+00
    endloop
  endfacet
  facet normal 1.311764e-01 9.838892e-01 -1.214692e-01
    outer loop
      vertex   1.457728e+00 1.073258e+01 -1.461033e+00
      vertex   1.499495e+00 1.073062e+01 -1.431865e+00
      vertex   1.528329e+00 1.071840e+01 -1.499642e+00
    endloop
  endfacet
  facet normal 1.353082e-01 9.835524e-01 -1.196507e-01
    outer loop
      vertex   1.528329e+00 1.071840e+01 -1.499642e+00
      vertex   1.499495e+00 1.073062e+01 -1.431865e+00
      vertex   1.540757e+00 1.072857e+01 -1.401996e+00
    endloop
  endfacet
  facet normal 1.625033e-01 9.819069e-01 -9.721856e-02
    outer loop
      vertex   1.814702e+00 1.071223e+01 -1.173806e+00
      vertex   1.851604e+00 1.070962e+01 -1.138557e+00
      vertex   1.886264e+00 1.069753e+01 -1.202634e+00
    endloop
  endfacet
  facet normal 1.664605e-01 9.814617e-01 -9.499416e-02
    outer loop
      vertex   1.886264e+00 1.069753e+01 -1.202634e+00
      vertex   1.851604e+00 1.070962e+01 -1.138557e+00
      vertex   1.887921e+00 1.070693e+01 -1.102666e+00
    endloop
  endfacet
  facet normal 1.528600e-01 9.776641e-01 -1.442452e-01
    outer loop
      vertex   1.785458e+00 1.063868e+01 -1.799312e+00
      vertex   1.699985e+00 1.066681e+01 -1.699259e+00
      vertex   1.787872e+00 1.065307e+01 -1.699259e+00
    endloop
  endfacet
  facet normal 1.530406e-01 9.788192e-01 -1.359839e-01
    outer loop
      vertex   1.787872e+00 1.065307e+01 -1.699259e+00
      vertex   1.699985e+00 1.066681e+01 -1.699259e+00
      vertex   1.702143e+00 1.068035e+01 -1.599365e+00
    endloop
  endfacet
  facet normal 1.530406e-01 9.788192e-01 -1.359839e-01
    outer loop
      vertex   1.787872e+00 1.065307e+01 -1.699259e+00
      vertex   1.702143e+00 1.068035e+01 -1.599365e+00
      vertex   1.790142e+00 1.066659e+01 -1.599365e+00
    endloop
  endfacet
  facet normal 1.532100e-01 9.799027e-01 -1.277393e-01
    outer loop
      vertex   1.790142e+00 1.066659e+01 -1.599365e+00
      vertex   1.702143e+00 1.068035e+01 -1.599365e+00
      vertex   1.704165e+00 1.069303e+01 -1.499642e+00
    endloop
  endfacet
  facet normal 1.532100e-01 9.799027e-01 -1.277393e-01
    outer loop
      vertex   1.790142e+00 1.066659e+01 -1.599365e+00
      vertex   1.704165e+00 1.069303e+01 -1.499642e+00
      vertex   1.792268e+00 1.067926e+01 -1.499642e+00
    endloop
  endfacet
  facet normal 1.533683e-01 9.809154e-01 -1.195121e-01
    outer loop
      vertex   1.792268e+00 1.067926e+01 -1.499642e+00
      vertex   1.704165e+00 1.069303e+01 -1.499642e+00
      vertex   1.706051e+00 1.070487e+01 -1.400099e+00
    endloop
  endfacet
  facet normal 1.533683e-01 9.809154e-01 -1.195121e-01
    outer loop
      vertex   1.792268e+00 1.067926e+01 -1.499642e+00
      vertex   1.706051e+00 1.070487e+01 -1.400099e+00
      vertex   1.794251e+00 1.069108e+01 -1.400099e+00
    endloop
  endfacet
  facet normal 1.535156e-01 9.818577e-01 -1.113030e-01
    outer loop
      vertex   1.794251e+00 1.069108e+01 -1.400099e+00
      vertex   1.706051e+00 1.070487e+01 -1.400099e+00
      vertex   1.707802e+00 1.071586e+01 -1.300748e+00
    endloop
  endfacet
  facet normal 1.535156e-01 9.818577e-01 -1.113030e-01
    outer loop
      vertex   1.794251e+00 1.069108e+01 -1.400099e+00
      vertex   1.707802e+00 1.071586e+01 -1.300748e+00
      vertex   1.796093e+00 1.070205e+01 -1.300748e+00
    endloop
  endfacet
  facet normal 1.453254e-01 9.799953e-01 -1.359767e-01
    outer loop
      vertex   1.699985e+00 1.066681e+01 -1.699259e+00
      vertex   1.614265e+00 1.069338e+01 -1.599365e+00
      vertex   1.702143e+00 1.068035e+01 -1.599365e+00
    endloop
  endfacet
  facet normal 1.454863e-01 9.810801e-01 -1.277325e-01
    outer loop
      vertex   1.702143e+00 1.068035e+01 -1.599365e+00
      vertex   1.614265e+00 1.069338e+01 -1.599365e+00
      vertex   1.616182e+00 1.070608e+01 -1.499642e+00
    endloop
  endfacet
  facet normal 1.454863e-01 9.810801e-01 -1.277325e-01
    outer loop
      vertex   1.702143e+00 1.068035e+01 -1.599365e+00
      vertex   1.616182e+00 1.070608e+01 -1.499642e+00
      vertex   1.704165e+00 1.069303e+01 -1.499642e+00
    endloop
  endfacet
  facet normal 1.456366e-01 9.820939e-01 -1.195057e-01
    outer loop
      vertex   1.704165e+00 1.069303e+01 -1.499642e+00
      vertex   1.616182e+00 1.070608e+01 -1.499642e+00
      vertex   1.617971e+00 1.071793e+01 -1.400099e+00
    endloop
  endfacet
  facet normal 1.456366e-01 9.820939e-01 -1.195057e-01
    outer loop
      vertex   1.704165e+00 1.069303e+01 -1.499642e+00
      vertex   1.617971e+00 1.071793e+01 -1.400099e+00
      vertex   1.706051e+00 1.070487e+01 -1.400099e+00
    endloop
  endfacet
  facet normal 1.297791e-01 9.809979e-01 -1.442235e-01
    outer loop
      vertex   1.435140e+00 1.068924e+01 -1.799312e+00
      vertex   1.437081e+00 1.070369e+01 -1.699259e+00
      vertex   1.522522e+00 1.067768e+01 -1.799312e+00
    endloop
  endfacet
  facet normal 1.297791e-01 9.809979e-01 -1.442235e-01
    outer loop
      vertex   1.522522e+00 1.067768e+01 -1.799312e+00
      vertex   1.437081e+00 1.070369e+01 -1.699259e+00
      vertex   1.524581e+00 1.069212e+01 -1.699259e+00
    endloop
  endfacet
  facet normal 1.299324e-01 9.821566e-01 -1.359634e-01
    outer loop
      vertex   1.437081e+00 1.070369e+01 -1.699259e+00
      vertex   1.438905e+00 1.071728e+01 -1.599365e+00
      vertex   1.524581e+00 1.069212e+01 -1.699259e+00
    endloop
  endfacet
  facet normal 1.299324e-01 9.821566e-01 -1.359634e-01
    outer loop
      vertex   1.524581e+00 1.069212e+01 -1.699259e+00
      vertex   1.438905e+00 1.071728e+01 -1.599365e+00
      vertex   1.526516e+00 1.070569e+01 -1.599365e+00
    endloop
  endfacet
  facet normal 1.300762e-01 9.832435e-01 -1.277200e-01
    outer loop
      vertex   1.438905e+00 1.071728e+01 -1.599365e+00
      vertex   1.440614e+00 1.073001e+01 -1.499642e+00
      vertex   1.526516e+00 1.070569e+01 -1.599365e+00
    endloop
  endfacet
  facet normal 1.145932e-01 9.840658e-01 -1.359516e-01
    outer loop
      vertex   1.264127e+00 1.073833e+01 -1.599365e+00
      vertex   1.351439e+00 1.072816e+01 -1.599365e+00
      vertex   1.349726e+00 1.071456e+01 -1.699259e+00
    endloop
  endfacet
  facet normal 1.144581e-01 9.829052e-01 -1.442110e-01
    outer loop
      vertex   1.349726e+00 1.071456e+01 -1.699259e+00
      vertex   1.347903e+00 1.070009e+01 -1.799312e+00
      vertex   1.262524e+00 1.072471e+01 -1.699259e+00
    endloop
  endfacet
  facet normal 1.144581e-01 9.829052e-01 -1.442110e-01
    outer loop
      vertex   1.262524e+00 1.072471e+01 -1.699259e+00
      vertex   1.347903e+00 1.070009e+01 -1.799312e+00
      vertex   1.260820e+00 1.071023e+01 -1.799312e+00
    endloop
  endfacet
  facet normal 1.068194e-01 9.837654e-01 -1.442054e-01
    outer loop
      vertex   1.262524e+00 1.072471e+01 -1.699259e+00
      vertex   1.260820e+00 1.071023e+01 -1.799312e+00
      vertex   1.175485e+00 1.073416e+01 -1.699259e+00
    endloop
  endfacet
  facet normal 1.068194e-01 9.837654e-01 -1.442054e-01
    outer loop
      vertex   1.175485e+00 1.073416e+01 -1.699259e+00
      vertex   1.260820e+00 1.071023e+01 -1.799312e+00
      vertex   1.173897e+00 1.071967e+01 -1.799312e+00
    endloop
  endfacet
  facet normal 9.919602e-02 9.845641e-01 -1.442001e-01
    outer loop
      vertex   1.175485e+00 1.073416e+01 -1.699259e+00
      vertex   1.173897e+00 1.071967e+01 -1.799312e+00
      vertex   1.088614e+00 1.074291e+01 -1.699259e+00
    endloop
  endfacet
  facet normal 9.919602e-02 9.845641e-01 -1.442001e-01
    outer loop
      vertex   1.088614e+00 1.074291e+01 -1.699259e+00
      vertex   1.173897e+00 1.071967e+01 -1.799312e+00
      vertex   1.087144e+00 1.072841e+01 -1.799312e+00
    endloop
  endfacet
  facet normal 1.145932e-01 9.840658e-01 -1.359516e-01
    outer loop
      vertex   1.262524e+00 1.072471e+01 -1.699259e+00
      vertex   1.264127e+00 1.073833e+01 -1.599365e+00
      vertex   1.349726e+00 1.071456e+01 -1.699259e+00
    endloop
  endfacet
  facet normal -2.494351e-01 -2.279843e-03 9.683888e-01
    outer loop
      vertex   4.845532e-01 1.075522e+01 -1.898360e+00
      vertex   5.150550e-01 1.070981e+01 -1.890610e+00
      vertex   5.340505e-01 1.075500e+01 -1.885611e+00
    endloop
  endfacet
  facet normal -2.555834e-01 4.816115e-04 9.667869e-01
    outer loop
      vertex   5.340505e-01 1.075500e+01 -1.885611e+00
      vertex   5.150550e-01 1.070981e+01 -1.890610e+00
      vertex   5.446884e-01 1.066372e+01 -1.882753e+00
    endloop
  endfacet
  facet normal -2.658910e-01 -8.068537e-04 9.640028e-01
    outer loop
      vertex   5.340505e-01 1.075500e+01 -1.885611e+00
      vertex   5.446884e-01 1.066372e+01 -1.882753e+00
      vertex   5.833109e-01 1.075469e+01 -1.872024e+00
    endloop
  endfacet
  facet normal -2.689912e-01 6.109801e-04 9.631424e-01
    outer loop
      vertex   5.833109e-01 1.075469e+01 -1.872024e+00
      vertex   5.446884e-01 1.066372e+01 -1.882753e+00
      vertex   5.913320e-01 1.066341e+01 -1.869726e+00
    endloop
  endfacet
  facet normal -2.822706e-01 -6.518003e-04 9.593346e-01
    outer loop
      vertex   5.833109e-01 1.075469e+01 -1.872024e+00
      vertex   5.913320e-01 1.066341e+01 -1.869726e+00
      vertex   6.323238e-01 1.075428e+01 -1.857603e+00
    endloop
  endfacet
  facet normal -2.845043e-01 4.437813e-04 9.586747e-01
    outer loop
      vertex   6.323238e-01 1.075428e+01 -1.857603e+00
      vertex   5.913320e-01 1.066341e+01 -1.869726e+00
      vertex   6.377618e-01 1.066301e+01 -1.855947e+00
    endloop
  endfacet
  facet normal -2.985652e-01 -4.717056e-04 9.543891e-01
    outer loop
      vertex   6.323238e-01 1.075428e+01 -1.857603e+00
      vertex   6.377618e-01 1.066301e+01 -1.855947e+00
      vertex   6.810786e-01 1.075380e+01 -1.842351e+00
    endloop
  endfacet
  facet normal -2.999454e-01 2.516451e-04 9.539563e-01
    outer loop
      vertex   6.810786e-01 1.075380e+01 -1.842351e+00
      vertex   6.377618e-01 1.066301e+01 -1.855947e+00
      vertex   6.839686e-01 1.066254e+01 -1.841418e+00
    endloop
  endfacet
  facet normal -3.147711e-01 -2.667935e-04 9.491676e-01
    outer loop
      vertex   6.810786e-01 1.075380e+01 -1.842351e+00
      vertex   6.839686e-01 1.066254e+01 -1.841418e+00
      vertex   7.295648e-01 1.075322e+01 -1.826272e+00
    endloop
  endfacet
  facet normal -3.153115e-01 3.485668e-05 9.489882e-01
    outer loop
      vertex   7.295648e-01 1.075322e+01 -1.826272e+00
      vertex   6.839686e-01 1.066254e+01 -1.841418e+00
      vertex   7.299433e-01 1.066198e+01 -1.826143e+00
    endloop
  endfacet
  facet normal -3.305976e-01 -3.593847e-05 9.437718e-01
    outer loop
      vertex   7.295648e-01 1.075322e+01 -1.826272e+00
      vertex   7.299433e-01 1.066198e+01 -1.826143e+00
      vertex   7.756768e-01 1.066135e+01 -1.810123e+00
    endloop
  endfacet
  facet normal -3.308868e-01 -1.989087e-04 9.436704e-01
    outer loop
      vertex   7.295648e-01 1.075322e+01 -1.826272e+00
      vertex   7.756768e-01 1.066135e+01 -1.810123e+00
      vertex   7.777719e-01 1.075256e+01 -1.809369e+00
    endloop
  endfacet
  facet normal -3.457979e-01 1.879054e-04 9.383090e-01
    outer loop
      vertex   7.777719e-01 1.075256e+01 -1.809369e+00
      vertex   7.756768e-01 1.066135e+01 -1.810123e+00
      vertex   8.211598e-01 1.066064e+01 -1.793361e+00
    endloop
  endfacet
  facet normal -3.469112e-01 -4.092016e-04 9.378979e-01
    outer loop
      vertex   7.777719e-01 1.075256e+01 -1.809369e+00
      vertex   8.211598e-01 1.066064e+01 -1.793361e+00
      vertex   8.256891e-01 1.075181e+01 -1.791645e+00
    endloop
  endfacet
  facet normal -3.609128e-01 3.860405e-04 9.325995e-01
    outer loop
      vertex   8.256891e-01 1.075181e+01 -1.791645e+00
      vertex   8.211598e-01 1.066064e+01 -1.793361e+00
      vertex   8.663833e-01 1.065985e+01 -1.775859e+00
    endloop
  endfacet
  facet normal -3.628375e-01 -5.939238e-04 9.318522e-01
    outer loop
      vertex   8.256891e-01 1.075181e+01 -1.791645e+00
      vertex   8.663833e-01 1.065985e+01 -1.775859e+00
      vertex   8.733061e-01 1.075098e+01 -1.773105e+00
    endloop
  endfacet
  facet normal -3.759387e-01 5.586936e-04 9.266444e-01
    outer loop
      vertex   8.733061e-01 1.075098e+01 -1.773105e+00
      vertex   8.663833e-01 1.065985e+01 -1.775859e+00
      vertex   9.113333e-01 1.065898e+01 -1.757622e+00
    endloop
  endfacet
  facet normal -3.786622e-01 -7.538382e-04 9.255347e-01
    outer loop
      vertex   8.733061e-01 1.075098e+01 -1.773105e+00
      vertex   9.113333e-01 1.065898e+01 -1.757622e+00
      vertex   9.206122e-01 1.075006e+01 -1.753752e+00
    endloop
  endfacet
  facet normal -3.908647e-01 7.055340e-04 9.204479e-01
    outer loop
      vertex   9.206122e-01 1.075006e+01 -1.753752e+00
      vertex   9.113333e-01 1.065898e+01 -1.757622e+00
      vertex   9.559598e-01 1.065804e+01 -1.738671e+00
    endloop
  endfacet
  facet normal -3.943815e-01 -8.913971e-04 9.189464e-01
    outer loop
      vertex   9.206122e-01 1.075006e+01 -1.753752e+00
      vertex   9.559598e-01 1.065804e+01 -1.738671e+00
      vertex   9.675969e-01 1.074905e+01 -1.733588e+00
    endloop
  endfacet
  facet normal -4.056805e-01 8.286798e-04 9.140146e-01
    outer loop
      vertex   9.675969e-01 1.074905e+01 -1.733588e+00
      vertex   9.559598e-01 1.065804e+01 -1.738671e+00
      vertex   1.000245e+00 1.065702e+01 -1.719014e+00
    endloop
  endfacet
  facet normal -4.099917e-01 -1.005625e-03 9.120887e-01
    outer loop
      vertex   9.675969e-01 1.074905e+01 -1.733588e+00
      vertex   1.000245e+00 1.065702e+01 -1.719014e+00
      vertex   1.014250e+00 1.074796e+01 -1.712619e+00
    endloop
  endfacet
  facet normal -4.203818e-01 9.277150e-04 9.073468e-01
    outer loop
      vertex   1.014250e+00 1.074796e+01 -1.712619e+00
      vertex   1.000245e+00 1.065702e+01 -1.719014e+00
      vertex   1.044182e+00 1.065592e+01 -1.698657e+00
    endloop
  endfacet
  facet normal -4.254890e-01 -1.094768e-03 9.049629e-01
    outer loop
      vertex   1.014250e+00 1.074796e+01 -1.712619e+00
      vertex   1.044182e+00 1.065592e+01 -1.698657e+00
      vertex   1.060558e+00 1.074679e+01 -1.690847e+00
    endloop
  endfacet
  facet normal -4.349660e-01 1.001375e-03 9.004463e-01
    outer loop
      vertex   1.060558e+00 1.074679e+01 -1.690847e+00
      vertex   1.044182e+00 1.065592e+01 -1.698657e+00
      vertex   1.087762e+00 1.065475e+01 -1.677604e+00
    endloop
  endfacet
  facet normal -4.408622e-01 -1.154606e-03 8.975741e-01
    outer loop
      vertex   1.060558e+00 1.074679e+01 -1.690847e+00
      vertex   1.087762e+00 1.065475e+01 -1.677604e+00
      vertex   1.106472e+00 1.074553e+01 -1.668297e+00
    endloop
  endfacet
  facet normal -4.494305e-01 1.047950e-03 8.933147e-01
    outer loop
      vertex   1.106472e+00 1.074553e+01 -1.668297e+00
      vertex   1.087762e+00 1.065475e+01 -1.677604e+00
      vertex   1.130978e+00 1.065350e+01 -1.655860e+00
    endloop
  endfacet
  facet normal -4.560984e-01 -1.185230e-03 8.899286e-01
    outer loop
      vertex   1.106472e+00 1.074553e+01 -1.668297e+00
      vertex   1.130978e+00 1.065350e+01 -1.655860e+00
      vertex   1.151960e+00 1.074419e+01 -1.644986e+00
    endloop
  endfacet
  facet normal -4.637725e-01 1.067030e-03 8.859537e-01
    outer loop
      vertex   1.151960e+00 1.074419e+01 -1.644986e+00
      vertex   1.130978e+00 1.065350e+01 -1.655860e+00
      vertex   1.173820e+00 1.065218e+01 -1.633432e+00
    endloop
  endfacet
  facet normal -4.711911e-01 -1.188236e-03 8.820303e-01
    outer loop
      vertex   1.151960e+00 1.074419e+01 -1.644986e+00
      vertex   1.173820e+00 1.065218e+01 -1.633432e+00
      vertex   1.197015e+00 1.074277e+01 -1.620919e+00
    endloop
  endfacet
  facet normal -4.779896e-01 1.058816e-03 8.783648e-01
    outer loop
      vertex   1.197015e+00 1.074277e+01 -1.620919e+00
      vertex   1.173820e+00 1.065218e+01 -1.633432e+00
      vertex   1.216283e+00 1.065079e+01 -1.610323e+00
    endloop
  endfacet
  facet normal -4.861372e-01 -1.164405e-03 8.738817e-01
    outer loop
      vertex   1.197015e+00 1.074277e+01 -1.620919e+00
      vertex   1.216283e+00 1.065079e+01 -1.610323e+00
      vertex   1.241626e+00 1.074127e+01 -1.596104e+00
    endloop
  endfacet
  facet normal -4.920792e-01 1.023604e-03 8.705499e-01
    outer loop
      vertex   1.241626e+00 1.074127e+01 -1.596104e+00
      vertex   1.216283e+00 1.065079e+01 -1.610323e+00
      vertex   1.258356e+00 1.064933e+01 -1.586539e+00
    endloop
  endfacet
  facet normal -5.009333e-01 -1.114393e-03 8.654851e-01
    outer loop
      vertex   1.241626e+00 1.074127e+01 -1.596104e+00
      vertex   1.258356e+00 1.064933e+01 -1.586539e+00
      vertex   1.285786e+00 1.073969e+01 -1.570547e+00
    endloop
  endfacet
  facet normal -5.060386e-01 9.617722e-04 8.625103e-01
    outer loop
      vertex   1.285786e+00 1.073969e+01 -1.570547e+00
      vertex   1.258356e+00 1.064933e+01 -1.586539e+00
      vertex   1.300033e+00 1.064779e+01 -1.562085e+00
    endloop
  endfacet
  facet normal -5.155764e-01 -1.038750e-03 8.568430e-01
    outer loop
      vertex   1.285786e+00 1.073969e+01 -1.570547e+00
      vertex   1.300033e+00 1.064779e+01 -1.562085e+00
      vertex   1.329484e+00 1.073803e+01 -1.544255e+00
    endloop
  endfacet
  facet normal -5.198653e-01 8.737576e-04 8.542478e-01
    outer loop
      vertex   1.329484e+00 1.073803e+01 -1.544255e+00
      vertex   1.300033e+00 1.064779e+01 -1.562085e+00
      vertex   1.341306e+00 1.064618e+01 -1.536967e+00
    endloop
  endfacet
  facet normal -5.300634e-01 -9.379290e-04 8.479575e-01
    outer loop
      vertex   1.329484e+00 1.073803e+01 -1.544255e+00
      vertex   1.341306e+00 1.064618e+01 -1.536967e+00
      vertex   1.372713e+00 1.073629e+01 -1.517234e+00
    endloop
  endfacet
  facet normal -5.335569e-01 7.600434e-04 8.457639e-01
    outer loop
      vertex   1.372713e+00 1.073629e+01 -1.517234e+00
      vertex   1.341306e+00 1.064618e+01 -1.536967e+00
      vertex   1.382166e+00 1.064450e+01 -1.511188e+00
    endloop
  endfacet
  facet normal -5.443911e-01 -8.123063e-04 8.388311e-01
    outer loop
      vertex   1.372713e+00 1.073629e+01 -1.517234e+00
      vertex   1.382166e+00 1.064450e+01 -1.511188e+00
      vertex   1.415464e+00 1.073448e+01 -1.489491e+00
    endloop
  endfacet
  facet normal -5.471106e-01 6.211411e-04 8.370601e-01
    outer loop
      vertex   1.415464e+00 1.073448e+01 -1.489491e+00
      vertex   1.382166e+00 1.064450e+01 -1.511188e+00
      vertex   1.422606e+00 1.064275e+01 -1.484755e+00
    endloop
  endfacet
  facet normal -5.585567e-01 -6.621934e-04 8.294661e-01
    outer loop
      vertex   1.415464e+00 1.073448e+01 -1.489491e+00
      vertex   1.422606e+00 1.064275e+01 -1.484755e+00
      vertex   1.457728e+00 1.073258e+01 -1.461033e+00
    endloop
  endfacet
  facet normal -5.605239e-01 4.575731e-04 8.281381e-01
    outer loop
      vertex   1.457728e+00 1.073258e+01 -1.461033e+00
      vertex   1.422606e+00 1.064275e+01 -1.484755e+00
      vertex   1.462618e+00 1.064093e+01 -1.457672e+00
    endloop
  endfacet
  facet normal -5.725571e-01 -4.878540e-04 8.198647e-01
    outer loop
      vertex   1.457728e+00 1.073258e+01 -1.461033e+00
      vertex   1.462618e+00 1.064093e+01 -1.457672e+00
      vertex   1.499495e+00 1.073062e+01 -1.431865e+00
    endloop
  endfacet
  facet normal -5.737944e-01 2.698567e-04 8.189994e-01
    outer loop
      vertex   1.499495e+00 1.073062e+01 -1.431865e+00
      vertex   1.462618e+00 1.064093e+01 -1.457672e+00
      vertex   1.502194e+00 1.063904e+01 -1.429944e+00
    endloop
  endfacet
  facet normal -5.863893e-01 -2.895189e-04 8.100293e-01
    outer loop
      vertex   1.499495e+00 1.073062e+01 -1.431865e+00
      vertex   1.502194e+00 1.063904e+01 -1.429944e+00
      vertex   1.540757e+00 1.072857e+01 -1.401996e+00
    endloop
  endfacet
  facet normal -5.869192e-01 5.848656e-05 8.096455e-01
    outer loop
      vertex   1.540757e+00 1.072857e+01 -1.401996e+00
      vertex   1.502194e+00 1.063904e+01 -1.429944e+00
      vertex   1.541325e+00 1.063708e+01 -1.401578e+00
    endloop
  endfacet
  facet normal -6.000506e-01 -6.740158e-05 7.999621e-01
    outer loop
      vertex   1.540757e+00 1.072857e+01 -1.401996e+00
      vertex   1.541325e+00 1.063708e+01 -1.401578e+00
      vertex   1.581505e+00 1.072646e+01 -1.371431e+00
    endloop
  endfacet
  facet normal -5.998959e-01 -1.760814e-04 8.000781e-01
    outer loop
      vertex   1.581505e+00 1.072646e+01 -1.371431e+00
      vertex   1.541325e+00 1.063708e+01 -1.401578e+00
      vertex   1.580004e+00 1.063505e+01 -1.372576e+00
    endloop
  endfacet
  facet normal -6.127016e-01 1.564276e-04 7.903144e-01
    outer loop
      vertex   1.581505e+00 1.072646e+01 -1.371431e+00
      vertex   1.580004e+00 1.063505e+01 -1.372576e+00
      vertex   1.618224e+00 1.063296e+01 -1.342946e+00
    endloop
  endfacet
  facet normal -6.135568e-01 -3.817239e-04 7.896505e-01
    outer loop
      vertex   1.581505e+00 1.072646e+01 -1.371431e+00
      vertex   1.618224e+00 1.063296e+01 -1.342946e+00
      vertex   1.621730e+00 1.072427e+01 -1.340177e+00
    endloop
  endfacet
  facet normal -6.253569e-01 3.537395e-04 7.803388e-01
    outer loop
      vertex   1.621730e+00 1.072427e+01 -1.340177e+00
      vertex   1.618224e+00 1.063296e+01 -1.342946e+00
      vertex   1.655975e+00 1.063080e+01 -1.312691e+00
    endloop
  endfacet
  facet normal -6.268833e-01 -5.659645e-04 7.791130e-01
    outer loop
      vertex   1.621730e+00 1.072427e+01 -1.340177e+00
      vertex   1.655975e+00 1.063080e+01 -1.312691e+00
      vertex   1.661423e+00 1.072200e+01 -1.308241e+00
    endloop
  endfacet
  facet normal -6.378556e-01 5.265488e-04 7.701558e-01
    outer loop
      vertex   1.661423e+00 1.072200e+01 -1.308241e+00
      vertex   1.655975e+00 1.063080e+01 -1.312691e+00
      vertex   1.693250e+00 1.062857e+01 -1.281818e+00
    endloop
  endfacet
  facet normal -6.400304e-01 -7.251937e-04 7.683492e-01
    outer loop
      vertex   1.661423e+00 1.072200e+01 -1.308241e+00
      vertex   1.693250e+00 1.062857e+01 -1.281818e+00
      vertex   1.700576e+00 1.071967e+01 -1.275629e+00
    endloop
  endfacet
  facet normal -6.501950e-01 6.752463e-04 7.597670e-01
    outer loop
      vertex   1.700576e+00 1.071967e+01 -1.275629e+00
      vertex   1.693250e+00 1.062857e+01 -1.281818e+00
      vertex   1.730042e+00 1.062628e+01 -1.250330e+00
    endloop
  endfacet
  facet normal -6.529953e-01 -8.599394e-04 7.573615e-01
    outer loop
      vertex   1.700576e+00 1.071967e+01 -1.275629e+00
      vertex   1.730042e+00 1.062628e+01 -1.250330e+00
      vertex   1.739180e+00 1.071726e+01 -1.242348e+00
    endloop
  endfacet
  facet normal -6.623724e-01 8.001000e-04 7.491743e-01
    outer loop
      vertex   1.739180e+00 1.071726e+01 -1.242348e+00
      vertex   1.730042e+00 1.062628e+01 -1.250330e+00
      vertex   1.766341e+00 1.062392e+01 -1.218234e+00
    endloop
  endfacet
  facet normal -6.657749e-01 -9.708186e-04 7.461520e-01
    outer loop
      vertex   1.739180e+00 1.071726e+01 -1.242348e+00
      vertex   1.766341e+00 1.062392e+01 -1.218234e+00
      vertex   1.777225e+00 1.071478e+01 -1.208405e+00
    endloop
  endfacet
  facet normal -6.743799e-01 9.001964e-04 7.383840e-01
    outer loop
      vertex   1.777225e+00 1.071478e+01 -1.208405e+00
      vertex   1.766341e+00 1.062392e+01 -1.218234e+00
      vertex   1.802110e+00 1.062150e+01 -1.185563e+00
    endloop
  endfacet
  facet normal -6.783664e-01 -1.059672e-03 7.347231e-01
    outer loop
      vertex   1.777225e+00 1.071478e+01 -1.208405e+00
      vertex   1.802110e+00 1.062150e+01 -1.185563e+00
      vertex   1.814702e+00 1.071223e+01 -1.173806e+00
    endloop
  endfacet
  facet normal -6.862071e-01 9.766917e-04 7.274055e-01
    outer loop
      vertex   1.814702e+00 1.071223e+01 -1.173806e+00
      vertex   1.802110e+00 1.062150e+01 -1.185563e+00
      vertex   1.837322e+00 1.061901e+01 -1.152342e+00
    endloop
  endfacet
  facet normal -6.907665e-01 -1.126274e-03 7.230770e-01
    outer loop
      vertex   1.814702e+00 1.071223e+01 -1.173806e+00
      vertex   1.837322e+00 1.061901e+01 -1.152342e+00
      vertex   1.851604e+00 1.070962e+01 -1.138557e+00
    endloop
  endfacet
  facet normal -6.978487e-01 1.029777e-03 7.162445e-01
    outer loop
      vertex   1.851604e+00 1.070962e+01 -1.138557e+00
      vertex   1.837322e+00 1.061901e+01 -1.152342e+00
      vertex   1.871971e+00 1.061647e+01 -1.118579e+00
    endloop
  endfacet
  facet normal -7.029723e-01 -1.169055e-03 7.112163e-01
    outer loop
      vertex   1.851604e+00 1.070962e+01 -1.138557e+00
      vertex   1.871971e+00 1.061647e+01 -1.118579e+00
      vertex   1.887921e+00 1.070693e+01 -1.102666e+00
    endloop
  endfacet
  facet normal 9.848078e-01 -1.736482e-01 -9.486257e-10
    outer loop
      vertex   1.855260e+00 1.052170e+01 -1.883881e+00
      vertex   1.870653e+00 1.060900e+01 -1.899511e+00
      vertex   1.857814e+00 1.053619e+01 -1.788621e+00
    endloop
  endfacet
  facet normal 9.848078e-01 -1.736482e-01 -2.254850e-09
    outer loop
      vertex   1.857814e+00 1.053619e+01 -1.788621e+00
      vertex   1.870653e+00 1.060900e+01 -1.899511e+00
      vertex   1.860235e+00 1.054992e+01 -1.693236e+00
    endloop
  endfacet
  facet normal 9.848078e-01 -1.736482e-01 3.501387e-10
    outer loop
      vertex   1.860235e+00 1.054992e+01 -1.693236e+00
      vertex   1.870653e+00 1.060900e+01 -1.899511e+00
      vertex   1.873313e+00 1.062408e+01 -1.800309e+00
    endloop
  endfacet
  facet normal 9.848078e-01 -1.736482e-01 -3.759093e-09
    outer loop
      vertex   1.860235e+00 1.054992e+01 -1.693236e+00
      vertex   1.873313e+00 1.062408e+01 -1.800309e+00
      vertex   1.862524e+00 1.056290e+01 -1.597731e+00
    endloop
  endfacet
  facet normal 9.848078e-01 -1.736482e-01 1.196725e-09
    outer loop
      vertex   1.862524e+00 1.056290e+01 -1.597731e+00
      vertex   1.873313e+00 1.062408e+01 -1.800309e+00
      vertex   1.875829e+00 1.063836e+01 -1.700980e+00
    endloop
  endfacet
  facet normal 9.848078e-01 -1.736482e-01 -5.246752e-09
    outer loop
      vertex   1.862524e+00 1.056290e+01 -1.597731e+00
      vertex   1.875829e+00 1.063836e+01 -1.700980e+00
      vertex   1.864680e+00 1.057512e+01 -1.502111e+00
    endloop
  endfacet
  facet normal 9.848078e-01 -1.736481e-01 1.280614e-09
    outer loop
      vertex   1.864680e+00 1.057512e+01 -1.502111e+00
      vertex   1.875829e+00 1.063836e+01 -1.700980e+00
      vertex   1.878203e+00 1.065182e+01 -1.601529e+00
    endloop
  endfacet
  facet normal 9.848078e-01 -1.736482e-01 -6.434448e-09
    outer loop
      vertex   1.864680e+00 1.057512e+01 -1.502111e+00
      vertex   1.878203e+00 1.065182e+01 -1.601529e+00
      vertex   1.866702e+00 1.058659e+01 -1.406380e+00
    endloop
  endfacet
  facet normal 9.848078e-01 -1.736481e-01 8.005149e-10
    outer loop
      vertex   1.866702e+00 1.058659e+01 -1.406380e+00
      vertex   1.878203e+00 1.065182e+01 -1.601529e+00
      vertex   1.880433e+00 1.066447e+01 -1.501964e+00
    endloop
  endfacet
  facet normal 9.848078e-01 -1.736481e-01 -7.086441e-09
    outer loop
      vertex   1.866702e+00 1.058659e+01 -1.406380e+00
      vertex   1.880433e+00 1.066447e+01 -1.501964e+00
      vertex   1.868592e+00 1.059731e+01 -1.310545e+00
    endloop
  endfacet
  facet normal 9.848078e-01 -1.736481e-01 -8.739914e-11
    outer loop
      vertex   1.868592e+00 1.059731e+01 -1.310545e+00
      vertex   1.880433e+00 1.066447e+01 -1.501964e+00
      vertex   1.882520e+00 1.067630e+01 -1.402289e+00
    endloop
  endfacet
  facet normal 9.848078e-01 -1.736481e-01 -7.014534e-09
    outer loop
      vertex   1.868592e+00 1.059731e+01 -1.310545e+00
      vertex   1.882520e+00 1.067630e+01 -1.402289e+00
      vertex   1.870348e+00 1.060727e+01 -1.214609e+00
    endloop
  endfacet
  facet normal 9.848078e-01 -1.736481e-01 -1.269733e-09
    outer loop
      vertex   1.870348e+00 1.060727e+01 -1.214609e+00
      vertex   1.882520e+00 1.067630e+01 -1.402289e+00
      vertex   1.884464e+00 1.068733e+01 -1.302511e+00
    endloop
  endfacet
  facet normal 9.848078e-01 -1.736481e-01 -6.078086e-09
    outer loop
      vertex   1.870348e+00 1.060727e+01 -1.214609e+00
      vertex   1.884464e+00 1.068733e+01 -1.302511e+00
      vertex   1.871971e+00 1.061647e+01 -1.118579e+00
    endloop
  endfacet
  facet normal 9.848078e-01 -1.736481e-01 -2.676035e-09
    outer loop
      vertex   1.871971e+00 1.061647e+01 -1.118579e+00
      vertex   1.884464e+00 1.068733e+01 -1.302511e+00
      vertex   1.886264e+00 1.069753e+01 -1.202634e+00
    endloop
  endfacet
  facet normal 9.848078e-01 -1.736481e-01 -4.290737e-09
    outer loop
      vertex   1.871971e+00 1.061647e+01 -1.118579e+00
      vertex   1.886264e+00 1.069753e+01 -1.202634e+00
      vertex   1.887921e+00 1.070693e+01 -1.102666e+00
    endloop
  endfacet
  facet normal -5.173574e-02 -9.855426e-01 1.613358e-01
    outer loop
      vertex   5.446884e-01 1.066372e+01 -1.882753e+00
      vertex   6.270093e-01 1.065939e+01 -1.882788e+00
      vertex   5.913320e-01 1.066341e+01 -1.869726e+00
    endloop
  endfacet
  facet normal -5.429390e-02 -9.864786e-01 1.546358e-01
    outer loop
      vertex   5.913320e-01 1.066341e+01 -1.869726e+00
      vertex   6.270093e-01 1.065939e+01 -1.882788e+00
      vertex   6.377618e-01 1.066301e+01 -1.855947e+00
    endloop
  endfacet
  facet normal -5.905441e-02 -9.859161e-01 1.564671e-01
    outer loop
      vertex   6.377618e-01 1.066301e+01 -1.855947e+00
      vertex   6.270093e-01 1.065939e+01 -1.882788e+00
      vertex   7.092980e-01 1.065446e+01 -1.882827e+00
    endloop
  endfacet
  facet normal -5.920555e-02 -9.859682e-01 1.560814e-01
    outer loop
      vertex   6.377618e-01 1.066301e+01 -1.855947e+00
      vertex   7.092980e-01 1.065446e+01 -1.882827e+00
      vertex   6.839686e-01 1.066254e+01 -1.841418e+00
    endloop
  endfacet
  facet normal -6.297816e-02 -9.860932e-01 1.537981e-01
    outer loop
      vertex   6.839686e-01 1.066254e+01 -1.841418e+00
      vertex   7.092980e-01 1.065446e+01 -1.882827e+00
      vertex   7.299433e-01 1.066198e+01 -1.826143e+00
    endloop
  endfacet
  facet normal -6.634403e-02 -9.856889e-01 1.549704e-01
    outer loop
      vertex   7.299433e-01 1.066198e+01 -1.826143e+00
      vertex   7.092980e-01 1.065446e+01 -1.882827e+00
      vertex   7.915509e-01 1.064892e+01 -1.882871e+00
    endloop
  endfacet
  facet normal -6.749210e-02 -9.858021e-01 1.537497e-01
    outer loop
      vertex   7.299433e-01 1.066198e+01 -1.826143e+00
      vertex   7.915509e-01 1.064892e+01 -1.882871e+00
      vertex   7.756768e-01 1.066135e+01 -1.810123e+00
    endloop
  endfacet
  facet normal -7.172270e-02 -9.856510e-01 1.528007e-01
    outer loop
      vertex   7.756768e-01 1.066135e+01 -1.810123e+00
      vertex   7.915509e-01 1.064892e+01 -1.882871e+00
      vertex   8.211598e-01 1.066064e+01 -1.793361e+00
    endloop
  endfacet
  facet normal -7.363520e-02 -9.854164e-01 1.534026e-01
    outer loop
      vertex   8.211598e-01 1.066064e+01 -1.793361e+00
      vertex   7.915509e-01 1.064892e+01 -1.882871e+00
      vertex   8.737646e-01 1.064277e+01 -1.882921e+00
    endloop
  endfacet
  facet normal -7.513219e-02 -9.854392e-01 1.525279e-01
    outer loop
      vertex   8.211598e-01 1.066064e+01 -1.793361e+00
      vertex   8.737646e-01 1.064277e+01 -1.882921e+00
      vertex   8.697493e-01 1.065781e+01 -1.787669e+00
    endloop
  endfacet
  facet normal -8.042446e-02 -9.850651e-01 1.522457e-01
    outer loop
      vertex   8.697493e-01 1.065781e+01 -1.787669e+00
      vertex   8.737646e-01 1.064277e+01 -1.882921e+00
      vertex   9.512819e-01 1.065116e+01 -1.787669e+00
    endloop
  endfacet
  facet normal -8.045712e-02 -9.854651e-01 1.496169e-01
    outer loop
      vertex   8.697493e-01 1.065781e+01 -1.787669e+00
      vertex   9.512819e-01 1.065116e+01 -1.787669e+00
      vertex   9.113333e-01 1.065898e+01 -1.757622e+00
    endloop
  endfacet
  facet normal -8.299504e-02 -9.857501e-01 1.463169e-01
    outer loop
      vertex   9.113333e-01 1.065898e+01 -1.757622e+00
      vertex   9.512819e-01 1.065116e+01 -1.787669e+00
      vertex   9.559598e-01 1.065804e+01 -1.738671e+00
    endloop
  endfacet
  facet normal -8.771043e-02 -9.852845e-01 1.467017e-01
    outer loop
      vertex   9.559598e-01 1.065804e+01 -1.738671e+00
      vertex   9.512819e-01 1.065116e+01 -1.787669e+00
      vertex   1.032984e+00 1.064388e+01 -1.787669e+00
    endloop
  endfacet
  facet normal -8.777633e-02 -9.852936e-01 1.466007e-01
    outer loop
      vertex   9.559598e-01 1.065804e+01 -1.738671e+00
      vertex   1.032984e+00 1.064388e+01 -1.787669e+00
      vertex   1.000245e+00 1.065702e+01 -1.719014e+00
    endloop
  endfacet
  facet normal -9.164297e-02 -9.852164e-01 1.447421e-01
    outer loop
      vertex   1.000245e+00 1.065702e+01 -1.719014e+00
      vertex   1.032984e+00 1.064388e+01 -1.787669e+00
      vertex   1.044182e+00 1.065592e+01 -1.698657e+00
    endloop
  endfacet
  facet normal -9.496607e-02 -9.848474e-01 1.451103e-01
    outer loop
      vertex   1.044182e+00 1.065592e+01 -1.698657e+00
      vertex   1.032984e+00 1.064388e+01 -1.787669e+00
      vertex   1.114848e+00 1.063599e+01 -1.787669e+00
    endloop
  endfacet
  facet normal -9.577456e-02 -9.848630e-01 1.444720e-01
    outer loop
      vertex   1.044182e+00 1.065592e+01 -1.698657e+00
      vertex   1.114848e+00 1.063599e+01 -1.787669e+00
      vertex   1.116310e+00 1.064994e+01 -1.691595e+00
    endloop
  endfacet
  facet normal -1.022253e-01 -9.842138e-01 1.444759e-01
    outer loop
      vertex   1.116310e+00 1.064994e+01 -1.691595e+00
      vertex   1.114848e+00 1.063599e+01 -1.787669e+00
      vertex   1.198439e+00 1.064141e+01 -1.691595e+00
    endloop
  endfacet
  facet normal -1.022897e-01 -9.848337e-01 1.401407e-01
    outer loop
      vertex   1.116310e+00 1.064994e+01 -1.691595e+00
      vertex   1.198439e+00 1.064141e+01 -1.691595e+00
      vertex   1.130978e+00 1.065350e+01 -1.655860e+00
    endloop
  endfacet
  facet normal -1.030087e-01 -9.849456e-01 1.388212e-01
    outer loop
      vertex   1.130978e+00 1.065350e+01 -1.655860e+00
      vertex   1.198439e+00 1.064141e+01 -1.691595e+00
      vertex   1.173820e+00 1.065218e+01 -1.633432e+00
    endloop
  endfacet
  facet normal -1.069289e-01 -9.847650e-01 1.371284e-01
    outer loop
      vertex   1.173820e+00 1.065218e+01 -1.633432e+00
      vertex   1.198439e+00 1.064141e+01 -1.691595e+00
      vertex   1.216283e+00 1.065079e+01 -1.610323e+00
    endloop
  endfacet
  facet normal -1.095972e-01 -9.843957e-01 1.376717e-01
    outer loop
      vertex   1.216283e+00 1.065079e+01 -1.610323e+00
      vertex   1.198439e+00 1.064141e+01 -1.691595e+00
      vertex   1.280717e+00 1.063225e+01 -1.691595e+00
    endloop
  endfacet
  facet normal -1.110842e-01 -9.843933e-01 1.364922e-01
    outer loop
      vertex   1.216283e+00 1.065079e+01 -1.610323e+00
      vertex   1.280717e+00 1.063225e+01 -1.691595e+00
      vertex   1.282297e+00 1.064537e+01 -1.595667e+00
    endloop
  endfacet
  facet normal -1.169019e-01 -9.837189e-01 1.364958e-01
    outer loop
      vertex   1.282297e+00 1.064537e+01 -1.595667e+00
      vertex   1.280717e+00 1.063225e+01 -1.691595e+00
      vertex   1.364820e+00 1.063557e+01 -1.595667e+00
    endloop
  endfacet
  facet normal -1.169655e-01 -9.842533e-01 1.325312e-01
    outer loop
      vertex   1.282297e+00 1.064537e+01 -1.595667e+00
      vertex   1.364820e+00 1.063557e+01 -1.595667e+00
      vertex   1.300033e+00 1.064779e+01 -1.562085e+00
    endloop
  endfacet
  facet normal -1.179329e-01 -9.843812e-01 1.307113e-01
    outer loop
      vertex   1.300033e+00 1.064779e+01 -1.562085e+00
      vertex   1.364820e+00 1.063557e+01 -1.595667e+00
      vertex   1.341306e+00 1.064618e+01 -1.536967e+00
    endloop
  endfacet
  facet normal -1.219003e-01 -9.841140e-01 1.290737e-01
    outer loop
      vertex   1.341306e+00 1.064618e+01 -1.536967e+00
      vertex   1.364820e+00 1.063557e+01 -1.595667e+00
      vertex   1.382166e+00 1.064450e+01 -1.511188e+00
    endloop
  endfacet
  facet normal -1.243191e-01 -9.837511e-01 1.295320e-01
    outer loop
      vertex   1.382166e+00 1.064450e+01 -1.511188e+00
      vertex   1.364820e+00 1.063557e+01 -1.595667e+00
      vertex   1.447479e+00 1.062512e+01 -1.595667e+00
    endloop
  endfacet
  facet normal -1.256090e-01 -9.837190e-01 1.285274e-01
    outer loop
      vertex   1.382166e+00 1.064450e+01 -1.511188e+00
      vertex   1.447479e+00 1.062512e+01 -1.595667e+00
      vertex   1.449155e+00 1.063742e+01 -1.499895e+00
    endloop
  endfacet
  facet normal -1.316559e-01 -9.829275e-01 1.285315e-01
    outer loop
      vertex   1.449155e+00 1.063742e+01 -1.499895e+00
      vertex   1.447479e+00 1.062512e+01 -1.595667e+00
      vertex   1.532039e+00 1.062632e+01 -1.499895e+00
    endloop
  endfacet
  facet normal -1.317375e-01 -9.835368e-01 1.236957e-01
    outer loop
      vertex   1.449155e+00 1.063742e+01 -1.499895e+00
      vertex   1.532039e+00 1.062632e+01 -1.499895e+00
      vertex   1.462618e+00 1.064093e+01 -1.457672e+00
    endloop
  endfacet
  facet normal -1.326249e-01 -9.835973e-01 1.222577e-01
    outer loop
      vertex   1.462618e+00 1.064093e+01 -1.457672e+00
      vertex   1.532039e+00 1.062632e+01 -1.499895e+00
      vertex   1.502194e+00 1.063904e+01 -1.429944e+00
    endloop
  endfacet
  facet normal -1.365743e-01 -9.832721e-01 1.205135e-01
    outer loop
      vertex   1.502194e+00 1.063904e+01 -1.429944e+00
      vertex   1.532039e+00 1.062632e+01 -1.499895e+00
      vertex   1.541325e+00 1.063708e+01 -1.401578e+00
    endloop
  endfacet
  facet normal -1.391378e-01 -9.828880e-01 1.207136e-01
    outer loop
      vertex   1.541325e+00 1.063708e+01 -1.401578e+00
      vertex   1.532039e+00 1.062632e+01 -1.499895e+00
      vertex   1.615309e+00 1.061453e+01 -1.499895e+00
    endloop
  endfacet
  facet normal -1.393190e-01 -9.828793e-01 1.205753e-01
    outer loop
      vertex   1.541325e+00 1.063708e+01 -1.401578e+00
      vertex   1.615309e+00 1.061453e+01 -1.499895e+00
      vertex   1.617122e+00 1.062600e+01 -1.404291e+00
    endloop
  endfacet
  facet normal -1.464916e-01 -9.818346e-01 1.205859e-01
    outer loop
      vertex   1.617122e+00 1.062600e+01 -1.404291e+00
      vertex   1.615309e+00 1.061453e+01 -1.499895e+00
      vertex   1.698167e+00 1.060217e+01 -1.499895e+00
    endloop
  endfacet
  facet normal -1.464946e-01 -9.818345e-01 1.205834e-01
    outer loop
      vertex   1.617122e+00 1.062600e+01 -1.404291e+00
      vertex   1.698167e+00 1.060217e+01 -1.499895e+00
      vertex   1.700004e+00 1.061364e+01 -1.404291e+00
    endloop
  endfacet
  facet normal -1.538425e-01 -9.807093e-01 1.205896e-01
    outer loop
      vertex   1.700004e+00 1.061364e+01 -1.404291e+00
      vertex   1.698167e+00 1.060217e+01 -1.499895e+00
      vertex   1.783324e+00 1.060057e+01 -1.404291e+00
    endloop
  endfacet
  facet normal -1.539871e-01 -9.816308e-01 1.126457e-01
    outer loop
      vertex   1.700004e+00 1.061364e+01 -1.404291e+00
      vertex   1.783324e+00 1.060057e+01 -1.404291e+00
      vertex   1.785119e+00 1.061123e+01 -1.308864e+00
    endloop
  endfacet
  facet normal -1.612897e-01 -9.804566e-01 1.126518e-01
    outer loop
      vertex   1.785119e+00 1.061123e+01 -1.308864e+00
      vertex   1.783324e+00 1.060057e+01 -1.404291e+00
      vertex   1.868592e+00 1.059731e+01 -1.310545e+00
    endloop
  endfacet
  facet normal -1.615835e-01 -9.812748e-01 1.048360e-01
    outer loop
      vertex   1.785119e+00 1.061123e+01 -1.308864e+00
      vertex   1.868592e+00 1.059731e+01 -1.310545e+00
      vertex   1.870348e+00 1.060727e+01 -1.214609e+00
    endloop
  endfacet
  facet normal -8.091618e-02 -9.849642e-01 1.526369e-01
    outer loop
      vertex   8.737646e-01 1.064277e+01 -1.882921e+00
      vertex   9.559341e-01 1.063601e+01 -1.882974e+00
      vertex   9.512819e-01 1.065116e+01 -1.787669e+00
    endloop
  endfacet
  facet normal -8.763636e-02 -9.844525e-01 1.522275e-01
    outer loop
      vertex   9.512819e-01 1.065116e+01 -1.787669e+00
      vertex   9.559341e-01 1.063601e+01 -1.882974e+00
      vertex   1.032984e+00 1.064388e+01 -1.787669e+00
    endloop
  endfacet
  facet normal -8.818372e-02 -9.843365e-01 1.526605e-01
    outer loop
      vertex   9.559341e-01 1.063601e+01 -1.882974e+00
      vertex   1.038048e+00 1.062864e+01 -1.883033e+00
      vertex   1.032984e+00 1.064388e+01 -1.787669e+00
    endloop
  endfacet
  facet normal -9.486351e-02 -9.837839e-01 1.522174e-01
    outer loop
      vertex   1.032984e+00 1.064388e+01 -1.787669e+00
      vertex   1.038048e+00 1.062864e+01 -1.883033e+00
      vertex   1.114848e+00 1.063599e+01 -1.787669e+00
    endloop
  endfacet
  facet normal -9.544684e-02 -9.836562e-01 1.526774e-01
    outer loop
      vertex   1.038048e+00 1.062864e+01 -1.883033e+00
      vertex   1.120101e+00 1.062067e+01 -1.883097e+00
      vertex   1.114848e+00 1.063599e+01 -1.787669e+00
    endloop
  endfacet
  facet normal -1.021054e-01 -9.830591e-01 1.522150e-01
    outer loop
      vertex   1.114848e+00 1.063599e+01 -1.787669e+00
      vertex   1.120101e+00 1.062067e+01 -1.883097e+00
      vertex   1.196869e+00 1.062747e+01 -1.787669e+00
    endloop
  endfacet
  facet normal -1.022253e-01 -9.842138e-01 1.444759e-01
    outer loop
      vertex   1.114848e+00 1.063599e+01 -1.787669e+00
      vertex   1.196869e+00 1.062747e+01 -1.787669e+00
      vertex   1.198439e+00 1.064141e+01 -1.691595e+00
    endloop
  endfacet
  facet normal -1.094898e-01 -9.834313e-01 1.444811e-01
    outer loop
      vertex   1.198439e+00 1.064141e+01 -1.691595e+00
      vertex   1.196869e+00 1.062747e+01 -1.787669e+00
      vertex   1.280717e+00 1.063225e+01 -1.691595e+00
    endloop
  endfacet
  facet normal -1.027052e-01 -9.829232e-01 1.526879e-01
    outer loop
      vertex   1.120101e+00 1.062067e+01 -1.883097e+00
      vertex   1.202089e+00 1.061209e+01 -1.883165e+00
      vertex   1.196869e+00 1.062747e+01 -1.787669e+00
    endloop
  endfacet
  facet normal -1.093614e-01 -9.822775e-01 1.522200e-01
    outer loop
      vertex   1.196869e+00 1.062747e+01 -1.787669e+00
      vertex   1.202089e+00 1.061209e+01 -1.883165e+00
      vertex   1.279039e+00 1.061832e+01 -1.787669e+00
    endloop
  endfacet
  facet normal -1.094898e-01 -9.834313e-01 1.444811e-01
    outer loop
      vertex   1.196869e+00 1.062747e+01 -1.787669e+00
      vertex   1.279039e+00 1.061832e+01 -1.787669e+00
      vertex   1.280717e+00 1.063225e+01 -1.691595e+00
    endloop
  endfacet
  facet normal -1.167681e-01 -9.825929e-01 1.444866e-01
    outer loop
      vertex   1.280717e+00 1.063225e+01 -1.691595e+00
      vertex   1.279039e+00 1.061832e+01 -1.787669e+00
      vertex   1.363138e+00 1.062246e+01 -1.691595e+00
    endloop
  endfacet
  facet normal -1.169019e-01 -9.837189e-01 1.364958e-01
    outer loop
      vertex   1.280717e+00 1.063225e+01 -1.691595e+00
      vertex   1.363138e+00 1.062246e+01 -1.691595e+00
      vertex   1.364820e+00 1.063557e+01 -1.595667e+00
    endloop
  endfacet
  facet normal -1.242018e-01 -9.828231e-01 1.365014e-01
    outer loop
      vertex   1.364820e+00 1.063557e+01 -1.595667e+00
      vertex   1.363138e+00 1.062246e+01 -1.691595e+00
      vertex   1.447479e+00 1.062512e+01 -1.595667e+00
    endloop
  endfacet
  facet normal -1.099587e-01 -9.821376e-01 1.526921e-01
    outer loop
      vertex   1.202089e+00 1.061209e+01 -1.883165e+00
      vertex   1.284010e+00 1.060291e+01 -1.883238e+00
      vertex   1.279039e+00 1.061832e+01 -1.787669e+00
    endloop
  endfacet
  facet normal -1.166310e-01 -9.814390e-01 1.522324e-01
    outer loop
      vertex   1.279039e+00 1.061832e+01 -1.787669e+00
      vertex   1.284010e+00 1.060291e+01 -1.883238e+00
      vertex   1.361352e+00 1.060854e+01 -1.787669e+00
    endloop
  endfacet
  facet normal -1.167681e-01 -9.825929e-01 1.444866e-01
    outer loop
      vertex   1.279039e+00 1.061832e+01 -1.787669e+00
      vertex   1.361352e+00 1.060854e+01 -1.787669e+00
      vertex   1.363138e+00 1.062246e+01 -1.691595e+00
    endloop
  endfacet
  facet normal -1.240596e-01 -9.816981e-01 1.444925e-01
    outer loop
      vertex   1.363138e+00 1.062246e+01 -1.691595e+00
      vertex   1.361352e+00 1.060854e+01 -1.787669e+00
      vertex   1.445695e+00 1.061202e+01 -1.691595e+00
    endloop
  endfacet
  facet normal -1.242018e-01 -9.828231e-01 1.365014e-01
    outer loop
      vertex   1.363138e+00 1.062246e+01 -1.691595e+00
      vertex   1.445695e+00 1.061202e+01 -1.691595e+00
      vertex   1.447479e+00 1.062512e+01 -1.595667e+00
    endloop
  endfacet
  facet normal -1.315143e-01 -9.818705e-01 1.365074e-01
    outer loop
      vertex   1.447479e+00 1.062512e+01 -1.595667e+00
      vertex   1.445695e+00 1.061202e+01 -1.691595e+00
      vertex   1.530268e+00 1.061403e+01 -1.595667e+00
    endloop
  endfacet
  facet normal -1.316559e-01 -9.829275e-01 1.285315e-01
    outer loop
      vertex   1.447479e+00 1.062512e+01 -1.595667e+00
      vertex   1.530268e+00 1.061403e+01 -1.595667e+00
      vertex   1.532039e+00 1.062632e+01 -1.499895e+00
    endloop
  endfacet
  facet normal -1.389972e-01 -9.819154e-01 1.285374e-01
    outer loop
      vertex   1.532039e+00 1.062632e+01 -1.499895e+00
      vertex   1.530268e+00 1.061403e+01 -1.595667e+00
      vertex   1.613375e+00 1.060227e+01 -1.595667e+00
    endloop
  endfacet
  facet normal -1.390001e-01 -9.819153e-01 1.285349e-01
    outer loop
      vertex   1.532039e+00 1.062632e+01 -1.499895e+00
      vertex   1.613375e+00 1.060227e+01 -1.595667e+00
      vertex   1.615309e+00 1.061453e+01 -1.499895e+00
    endloop
  endfacet
  facet normal -1.463412e-01 -9.808466e-01 1.285463e-01
    outer loop
      vertex   1.615309e+00 1.061453e+01 -1.499895e+00
      vertex   1.613375e+00 1.060227e+01 -1.595667e+00
      vertex   1.696204e+00 1.058991e+01 -1.595667e+00
    endloop
  endfacet
  facet normal -1.463442e-01 -9.808465e-01 1.285437e-01
    outer loop
      vertex   1.615309e+00 1.061453e+01 -1.499895e+00
      vertex   1.696204e+00 1.058991e+01 -1.595667e+00
      vertex   1.698167e+00 1.060217e+01 -1.499895e+00
    endloop
  endfacet
  facet normal -1.536876e-01 -9.797219e-01 1.285503e-01
    outer loop
      vertex   1.698167e+00 1.060217e+01 -1.499895e+00
      vertex   1.696204e+00 1.058991e+01 -1.595667e+00
      vertex   1.781397e+00 1.058911e+01 -1.499895e+00
    endloop
  endfacet
  facet normal -1.538425e-01 -9.807093e-01 1.205896e-01
    outer loop
      vertex   1.698167e+00 1.060217e+01 -1.499895e+00
      vertex   1.781397e+00 1.058911e+01 -1.499895e+00
      vertex   1.783324e+00 1.060057e+01 -1.404291e+00
    endloop
  endfacet
  facet normal -1.611194e-01 -9.795392e-01 1.205961e-01
    outer loop
      vertex   1.783324e+00 1.060057e+01 -1.404291e+00
      vertex   1.781397e+00 1.058911e+01 -1.499895e+00
      vertex   1.866702e+00 1.058659e+01 -1.406380e+00
    endloop
  endfacet
  facet normal -1.614604e-01 -9.804105e-01 1.128087e-01
    outer loop
      vertex   1.783324e+00 1.060057e+01 -1.404291e+00
      vertex   1.866702e+00 1.058659e+01 -1.406380e+00
      vertex   1.868592e+00 1.059731e+01 -1.310545e+00
    endloop
  endfacet
  facet normal -1.172069e-01 -9.812993e-01 1.526903e-01
    outer loop
      vertex   1.284010e+00 1.060291e+01 -1.883238e+00
      vertex   1.365859e+00 1.059312e+01 -1.883316e+00
      vertex   1.361352e+00 1.060854e+01 -1.787669e+00
    endloop
  endfacet
  facet normal -1.239137e-01 -9.805430e-01 1.522523e-01
    outer loop
      vertex   1.361352e+00 1.060854e+01 -1.787669e+00
      vertex   1.365859e+00 1.059312e+01 -1.883316e+00
      vertex   1.443801e+00 1.059812e+01 -1.787669e+00
    endloop
  endfacet
  facet normal -1.240596e-01 -9.816981e-01 1.444925e-01
    outer loop
      vertex   1.361352e+00 1.060854e+01 -1.787669e+00
      vertex   1.443801e+00 1.059812e+01 -1.787669e+00
      vertex   1.445695e+00 1.061202e+01 -1.691595e+00
    endloop
  endfacet
  facet normal -1.313638e-01 -9.807465e-01 1.444988e-01
    outer loop
      vertex   1.445695e+00 1.061202e+01 -1.691595e+00
      vertex   1.443801e+00 1.059812e+01 -1.787669e+00
      vertex   1.528381e+00 1.060095e+01 -1.691595e+00
    endloop
  endfacet
  facet normal -1.315143e-01 -9.818705e-01 1.365074e-01
    outer loop
      vertex   1.445695e+00 1.061202e+01 -1.691595e+00
      vertex   1.528381e+00 1.060095e+01 -1.691595e+00
      vertex   1.530268e+00 1.061403e+01 -1.595667e+00
    endloop
  endfacet
  facet normal -1.388448e-01 -9.808599e-01 1.365137e-01
    outer loop
      vertex   1.530268e+00 1.061403e+01 -1.595667e+00
      vertex   1.528381e+00 1.060095e+01 -1.691595e+00
      vertex   1.611321e+00 1.058921e+01 -1.691595e+00
    endloop
  endfacet
  facet normal -1.388477e-01 -9.808598e-01 1.365111e-01
    outer loop
      vertex   1.530268e+00 1.061403e+01 -1.595667e+00
      vertex   1.611321e+00 1.058921e+01 -1.691595e+00
      vertex   1.613375e+00 1.060227e+01 -1.595667e+00
    endloop
  endfacet
  facet normal -1.461809e-01 -9.797921e-01 1.365228e-01
    outer loop
      vertex   1.613375e+00 1.060227e+01 -1.595667e+00
      vertex   1.611321e+00 1.058921e+01 -1.691595e+00
      vertex   1.694113e+00 1.057686e+01 -1.691595e+00
    endloop
  endfacet
  facet normal -1.461839e-01 -9.797921e-01 1.365203e-01
    outer loop
      vertex   1.613375e+00 1.060227e+01 -1.595667e+00
      vertex   1.694113e+00 1.057686e+01 -1.691595e+00
      vertex   1.696204e+00 1.058991e+01 -1.595667e+00
    endloop
  endfacet
  facet normal -1.535223e-01 -9.786681e-01 1.365273e-01
    outer loop
      vertex   1.696204e+00 1.058991e+01 -1.595667e+00
      vertex   1.694113e+00 1.057686e+01 -1.691595e+00
      vertex   1.779338e+00 1.057687e+01 -1.595667e+00
    endloop
  endfacet
  facet normal -1.536876e-01 -9.797219e-01 1.285503e-01
    outer loop
      vertex   1.696204e+00 1.058991e+01 -1.595667e+00
      vertex   1.779338e+00 1.057687e+01 -1.595667e+00
      vertex   1.781397e+00 1.058911e+01 -1.499895e+00
    endloop
  endfacet
  facet normal -1.609508e-01 -9.785540e-01 1.285572e-01
    outer loop
      vertex   1.781397e+00 1.058911e+01 -1.499895e+00
      vertex   1.779338e+00 1.057687e+01 -1.595667e+00
      vertex   1.864680e+00 1.057512e+01 -1.502111e+00
    endloop
  endfacet
  facet normal -1.613142e-01 -9.794851e-01 1.207753e-01
    outer loop
      vertex   1.781397e+00 1.058911e+01 -1.499895e+00
      vertex   1.864680e+00 1.057512e+01 -1.502111e+00
      vertex   1.866702e+00 1.058659e+01 -1.406380e+00
    endloop
  endfacet
  facet normal -1.244497e-01 -9.804083e-01 1.526821e-01
    outer loop
      vertex   1.365859e+00 1.059312e+01 -1.883316e+00
      vertex   1.447634e+00 1.058273e+01 -1.883398e+00
      vertex   1.443801e+00 1.059812e+01 -1.787669e+00
    endloop
  endfacet
  facet normal -1.312088e-01 -9.795893e-01 1.522797e-01
    outer loop
      vertex   1.443801e+00 1.059812e+01 -1.787669e+00
      vertex   1.447634e+00 1.058273e+01 -1.883398e+00
      vertex   1.526379e+00 1.058706e+01 -1.787669e+00
    endloop
  endfacet
  facet normal -1.313638e-01 -9.807465e-01 1.444988e-01
    outer loop
      vertex   1.443801e+00 1.059812e+01 -1.787669e+00
      vertex   1.526379e+00 1.058706e+01 -1.787669e+00
      vertex   1.528381e+00 1.060095e+01 -1.691595e+00
    endloop
  endfacet
  facet normal -1.386829e-01 -9.797373e-01 1.445055e-01
    outer loop
      vertex   1.528381e+00 1.060095e+01 -1.691595e+00
      vertex   1.526379e+00 1.058706e+01 -1.787669e+00
      vertex   1.609144e+00 1.057535e+01 -1.787669e+00
    endloop
  endfacet
  facet normal -1.386859e-01 -9.797373e-01 1.445030e-01
    outer loop
      vertex   1.528381e+00 1.060095e+01 -1.691595e+00
      vertex   1.609144e+00 1.057535e+01 -1.787669e+00
      vertex   1.611321e+00 1.058921e+01 -1.691595e+00
    endloop
  endfacet
  facet normal -1.460106e-01 -9.786707e-01 1.445150e-01
    outer loop
      vertex   1.611321e+00 1.058921e+01 -1.691595e+00
      vertex   1.609144e+00 1.057535e+01 -1.787669e+00
      vertex   1.691894e+00 1.056300e+01 -1.787669e+00
    endloop
  endfacet
  facet normal -1.460136e-01 -9.786706e-01 1.445125e-01
    outer loop
      vertex   1.611321e+00 1.058921e+01 -1.691595e+00
      vertex   1.691894e+00 1.056300e+01 -1.787669e+00
      vertex   1.694113e+00 1.057686e+01 -1.691595e+00
    endloop
  endfacet
  facet normal -1.533465e-01 -9.775474e-01 1.445199e-01
    outer loop
      vertex   1.694113e+00 1.057686e+01 -1.691595e+00
      vertex   1.691894e+00 1.056300e+01 -1.787669e+00
      vertex   1.777144e+00 1.056383e+01 -1.691595e+00
    endloop
  endfacet
  facet normal -1.535223e-01 -9.786681e-01 1.365273e-01
    outer loop
      vertex   1.694113e+00 1.057686e+01 -1.691595e+00
      vertex   1.777144e+00 1.056383e+01 -1.691595e+00
      vertex   1.779338e+00 1.057687e+01 -1.595667e+00
    endloop
  endfacet
  facet normal -1.607839e-01 -9.775003e-01 1.365346e-01
    outer loop
      vertex   1.779338e+00 1.057687e+01 -1.595667e+00
      vertex   1.777144e+00 1.056383e+01 -1.691595e+00
      vertex   1.862524e+00 1.056290e+01 -1.597731e+00
    endloop
  endfacet
  facet normal -1.611451e-01 -9.784986e-01 1.287355e-01
    outer loop
      vertex   1.779338e+00 1.057687e+01 -1.595667e+00
      vertex   1.862524e+00 1.056290e+01 -1.597731e+00
      vertex   1.864680e+00 1.057512e+01 -1.502111e+00
    endloop
  endfacet
  facet normal -1.316869e-01 -9.794648e-01 1.526674e-01
    outer loop
      vertex   1.447634e+00 1.058273e+01 -1.883398e+00
      vertex   1.529330e+00 1.057173e+01 -1.883485e+00
      vertex   1.526379e+00 1.058706e+01 -1.787669e+00
    endloop
  endfacet
  facet normal -1.385187e-01 -9.785769e-01 1.523149e-01
    outer loop
      vertex   1.526379e+00 1.058706e+01 -1.787669e+00
      vertex   1.529330e+00 1.057173e+01 -1.883485e+00
      vertex   1.609144e+00 1.057535e+01 -1.787669e+00
    endloop
  endfacet
  facet normal -1.389182e-01 -9.784690e-01 1.526437e-01
    outer loop
      vertex   1.529330e+00 1.057173e+01 -1.883485e+00
      vertex   1.610944e+00 1.056013e+01 -1.883577e+00
      vertex   1.609144e+00 1.057535e+01 -1.787669e+00
    endloop
  endfacet
  facet normal -1.458368e-01 -9.775059e-01 1.523610e-01
    outer loop
      vertex   1.609144e+00 1.057535e+01 -1.787669e+00
      vertex   1.610944e+00 1.056013e+01 -1.883577e+00
      vertex   1.691894e+00 1.056300e+01 -1.787669e+00
    endloop
  endfacet
  facet normal -1.461433e-01 -9.774201e-01 1.526172e-01
    outer loop
      vertex   1.610944e+00 1.056013e+01 -1.883577e+00
      vertex   1.692473e+00 1.054792e+01 -1.883674e+00
      vertex   1.691894e+00 1.056300e+01 -1.787669e+00
    endloop
  endfacet
  facet normal -1.531629e-01 -9.763770e-01 1.524110e-01
    outer loop
      vertex   1.691894e+00 1.056300e+01 -1.787669e+00
      vertex   1.692473e+00 1.054792e+01 -1.883674e+00
      vertex   1.774816e+00 1.054999e+01 -1.787669e+00
    endloop
  endfacet
  facet normal -1.533465e-01 -9.775474e-01 1.445199e-01
    outer loop
      vertex   1.691894e+00 1.056300e+01 -1.787669e+00
      vertex   1.774816e+00 1.054999e+01 -1.787669e+00
      vertex   1.777144e+00 1.056383e+01 -1.691595e+00
    endloop
  endfacet
  facet normal -1.606185e-01 -9.763777e-01 1.445276e-01
    outer loop
      vertex   1.777144e+00 1.056383e+01 -1.691595e+00
      vertex   1.774816e+00 1.054999e+01 -1.787669e+00
      vertex   1.860235e+00 1.054992e+01 -1.693236e+00
    endloop
  endfacet
  facet normal -1.609531e-01 -9.774509e-01 1.366890e-01
    outer loop
      vertex   1.777144e+00 1.056383e+01 -1.691595e+00
      vertex   1.860235e+00 1.054992e+01 -1.693236e+00
      vertex   1.862524e+00 1.056290e+01 -1.597731e+00
    endloop
  endfacet
  facet normal -1.533621e-01 -9.763192e-01 1.525806e-01
    outer loop
      vertex   1.692473e+00 1.054792e+01 -1.883674e+00
      vertex   1.773913e+00 1.053511e+01 -1.883775e+00
      vertex   1.774816e+00 1.054999e+01 -1.787669e+00
    endloop
  endfacet
  facet normal -1.604572e-01 -9.751950e-01 1.524733e-01
    outer loop
      vertex   1.774816e+00 1.054999e+01 -1.787669e+00
      vertex   1.773913e+00 1.053511e+01 -1.883775e+00
      vertex   1.857814e+00 1.053619e+01 -1.788621e+00
    endloop
  endfacet
  facet normal -1.607379e-01 -9.763421e-01 1.446357e-01
    outer loop
      vertex   1.774816e+00 1.054999e+01 -1.787669e+00
      vertex   1.857814e+00 1.053619e+01 -1.788621e+00
      vertex   1.860235e+00 1.054992e+01 -1.693236e+00
    endloop
  endfacet
  facet normal -1.605733e-01 -9.751600e-01 1.525753e-01
    outer loop
      vertex   1.773913e+00 1.053511e+01 -1.883775e+00
      vertex   1.855260e+00 1.052170e+01 -1.883881e+00
      vertex   1.857814e+00 1.053619e+01 -1.788621e+00
    endloop
  endfacet
  facet normal -1.663428e-01 -9.812991e-01 9.686153e-02
    outer loop
      vertex   1.871971e+00 1.061647e+01 -1.118579e+00
      vertex   1.837322e+00 1.061901e+01 -1.152342e+00
      vertex   1.870348e+00 1.060727e+01 -1.214609e+00
    endloop
  endfacet
  facet normal -1.625450e-01 -9.817264e-01 9.895648e-02
    outer loop
      vertex   1.870348e+00 1.060727e+01 -1.214609e+00
      vertex   1.837322e+00 1.061901e+01 -1.152342e+00
      vertex   1.802110e+00 1.062150e+01 -1.185563e+00
    endloop
  endfacet
  facet normal -1.615614e-01 -9.816566e-01 1.012331e-01
    outer loop
      vertex   1.870348e+00 1.060727e+01 -1.214609e+00
      vertex   1.802110e+00 1.062150e+01 -1.185563e+00
      vertex   1.786783e+00 1.062113e+01 -1.213624e+00
    endloop
  endfacet
  facet normal -1.564550e-01 -9.827654e-01 9.845854e-02
    outer loop
      vertex   1.786783e+00 1.062113e+01 -1.213624e+00
      vertex   1.802110e+00 1.062150e+01 -1.185563e+00
      vertex   1.766341e+00 1.062392e+01 -1.218234e+00
    endloop
  endfacet
  facet normal -1.577512e-01 -9.819102e-01 1.047229e-01
    outer loop
      vertex   1.786783e+00 1.062113e+01 -1.213624e+00
      vertex   1.766341e+00 1.062392e+01 -1.218234e+00
      vertex   1.785119e+00 1.061123e+01 -1.308864e+00
    endloop
  endfacet
  facet normal -1.566333e-01 -9.820622e-01 1.049757e-01
    outer loop
      vertex   1.785119e+00 1.061123e+01 -1.308864e+00
      vertex   1.766341e+00 1.062392e+01 -1.218234e+00
      vertex   1.730042e+00 1.062628e+01 -1.250330e+00
    endloop
  endfacet
  facet normal -1.540768e-01 -9.822026e-01 1.074174e-01
    outer loop
      vertex   1.785119e+00 1.061123e+01 -1.308864e+00
      vertex   1.730042e+00 1.062628e+01 -1.250330e+00
      vertex   1.701715e+00 1.062432e+01 -1.308864e+00
    endloop
  endfacet
  facet normal -1.525586e-01 -9.825184e-01 1.066932e-01
    outer loop
      vertex   1.701715e+00 1.062432e+01 -1.308864e+00
      vertex   1.730042e+00 1.062628e+01 -1.250330e+00
      vertex   1.693250e+00 1.062857e+01 -1.281818e+00
    endloop
  endfacet
  facet normal -1.482875e-01 -9.830175e-01 1.081084e-01
    outer loop
      vertex   1.701715e+00 1.062432e+01 -1.308864e+00
      vertex   1.693250e+00 1.062857e+01 -1.281818e+00
      vertex   1.655975e+00 1.063080e+01 -1.312691e+00
    endloop
  endfacet
  facet normal -1.485883e-01 -9.824629e-01 1.126421e-01
    outer loop
      vertex   1.701715e+00 1.062432e+01 -1.308864e+00
      vertex   1.655975e+00 1.063080e+01 -1.312691e+00
      vertex   1.700004e+00 1.061364e+01 -1.404291e+00
    endloop
  endfacet
  facet normal -1.471140e-01 -9.826003e-01 1.133764e-01
    outer loop
      vertex   1.700004e+00 1.061364e+01 -1.404291e+00
      vertex   1.655975e+00 1.063080e+01 -1.312691e+00
      vertex   1.618224e+00 1.063296e+01 -1.342946e+00
    endloop
  endfacet
  facet normal -1.466085e-01 -9.825979e-01 1.140497e-01
    outer loop
      vertex   1.700004e+00 1.061364e+01 -1.404291e+00
      vertex   1.618224e+00 1.063296e+01 -1.342946e+00
      vertex   1.617122e+00 1.062600e+01 -1.404291e+00
    endloop
  endfacet
  facet normal -1.422913e-01 -9.832330e-01 1.140441e-01
    outer loop
      vertex   1.617122e+00 1.062600e+01 -1.404291e+00
      vertex   1.618224e+00 1.063296e+01 -1.342946e+00
      vertex   1.580004e+00 1.063505e+01 -1.372576e+00
    endloop
  endfacet
  facet normal -1.394892e-01 -9.832482e-01 1.173279e-01
    outer loop
      vertex   1.617122e+00 1.062600e+01 -1.404291e+00
      vertex   1.580004e+00 1.063505e+01 -1.372576e+00
      vertex   1.541325e+00 1.063708e+01 -1.401578e+00
    endloop
  endfacet
  facet normal -1.276694e-01 -9.842282e-01 1.224559e-01
    outer loop
      vertex   1.462618e+00 1.064093e+01 -1.457672e+00
      vertex   1.422606e+00 1.064275e+01 -1.484755e+00
      vertex   1.449155e+00 1.063742e+01 -1.499895e+00
    endloop
  endfacet
  facet normal -1.253037e-01 -9.840169e-01 1.265296e-01
    outer loop
      vertex   1.449155e+00 1.063742e+01 -1.499895e+00
      vertex   1.422606e+00 1.064275e+01 -1.484755e+00
      vertex   1.382166e+00 1.064450e+01 -1.511188e+00
    endloop
  endfacet
  facet normal -1.128651e-01 -9.850137e-01 1.304203e-01
    outer loop
      vertex   1.300033e+00 1.064779e+01 -1.562085e+00
      vertex   1.258356e+00 1.064933e+01 -1.586539e+00
      vertex   1.282297e+00 1.064537e+01 -1.595667e+00
    endloop
  endfacet
  facet normal -1.108688e-01 -9.845601e-01 1.354604e-01
    outer loop
      vertex   1.282297e+00 1.064537e+01 -1.595667e+00
      vertex   1.258356e+00 1.064933e+01 -1.586539e+00
      vertex   1.216283e+00 1.065079e+01 -1.610323e+00
    endloop
  endfacet
  facet normal -9.807887e-02 -9.854970e-01 1.384785e-01
    outer loop
      vertex   1.130978e+00 1.065350e+01 -1.655860e+00
      vertex   1.087762e+00 1.065475e+01 -1.677604e+00
      vertex   1.116310e+00 1.064994e+01 -1.691595e+00
    endloop
  endfacet
  facet normal -9.566982e-02 -9.850529e-01 1.432415e-01
    outer loop
      vertex   1.116310e+00 1.064994e+01 -1.691595e+00
      vertex   1.087762e+00 1.065475e+01 -1.677604e+00
      vertex   1.044182e+00 1.065592e+01 -1.698657e+00
    endloop
  endfacet
  facet normal -7.881138e-02 -9.859384e-01 1.473577e-01
    outer loop
      vertex   9.113333e-01 1.065898e+01 -1.757622e+00
      vertex   8.663833e-01 1.065985e+01 -1.775859e+00
      vertex   8.697493e-01 1.065781e+01 -1.787669e+00
    endloop
  endfacet
  facet normal -7.470375e-02 -9.860789e-01 1.485525e-01
    outer loop
      vertex   8.697493e-01 1.065781e+01 -1.787669e+00
      vertex   8.663833e-01 1.065985e+01 -1.775859e+00
      vertex   8.211598e-01 1.066064e+01 -1.793361e+00
    endloop
  endfacet
  facet normal -1.539871e-01 -9.816308e-01 1.126457e-01
    outer loop
      vertex   1.785119e+00 1.061123e+01 -1.308864e+00
      vertex   1.701715e+00 1.062432e+01 -1.308864e+00
      vertex   1.700004e+00 1.061364e+01 -1.404291e+00
    endloop
  endfacet
  facet normal -1.614622e-01 -9.813066e-01 1.047250e-01
    outer loop
      vertex   1.870348e+00 1.060727e+01 -1.214609e+00
      vertex   1.786783e+00 1.062113e+01 -1.213624e+00
      vertex   1.785119e+00 1.061123e+01 -1.308864e+00
    endloop
  endfacet
  facet normal -9.521309e-03 -1.732680e-01 -9.848287e-01
    outer loop
      vertex   6.270093e-01 1.065939e+01 -1.882788e+00
      vertex   5.446884e-01 1.066372e+01 -1.882753e+00
      vertex   5.716203e-01 1.075113e+01 -1.898392e+00
    endloop
  endfacet
  facet normal -8.718573e-03 -1.735090e-01 -9.847937e-01
    outer loop
      vertex   5.716203e-01 1.075113e+01 -1.898392e+00
      vertex   5.446884e-01 1.066372e+01 -1.882753e+00
      vertex   5.150550e-01 1.070981e+01 -1.890610e+00
    endloop
  endfacet
  facet normal -8.532439e-03 -1.737559e-01 -9.847518e-01
    outer loop
      vertex   5.716203e-01 1.075113e+01 -1.898392e+00
      vertex   5.150550e-01 1.070981e+01 -1.890610e+00
      vertex   4.845532e-01 1.075522e+01 -1.898360e+00
    endloop
  endfacet
  facet normal -9.929201e-03 -1.735064e-01 -9.847827e-01
    outer loop
      vertex   5.716203e-01 1.075113e+01 -1.898392e+00
      vertex   6.586545e-01 1.074637e+01 -1.898430e+00
      vertex   6.270093e-01 1.065939e+01 -1.882788e+00
    endloop
  endfacet
  facet normal -1.085800e-02 -1.731771e-01 -9.848308e-01
    outer loop
      vertex   6.270093e-01 1.065939e+01 -1.882788e+00
      vertex   6.586545e-01 1.074637e+01 -1.898430e+00
      vertex   7.092980e-01 1.065446e+01 -1.882827e+00
    endloop
  endfacet
  facet normal -1.133417e-02 -1.734310e-01 -9.847808e-01
    outer loop
      vertex   7.092980e-01 1.065446e+01 -1.882827e+00
      vertex   6.586545e-01 1.074637e+01 -1.898430e+00
      vertex   7.456517e-01 1.074092e+01 -1.898473e+00
    endloop
  endfacet
  facet normal -1.219405e-02 -1.730789e-01 -9.848325e-01
    outer loop
      vertex   7.092980e-01 1.065446e+01 -1.882827e+00
      vertex   7.456517e-01 1.074092e+01 -1.898473e+00
      vertex   7.915509e-01 1.064892e+01 -1.882871e+00
    endloop
  endfacet
  facet normal -1.273838e-02 -1.733414e-01 -9.847794e-01
    outer loop
      vertex   7.915509e-01 1.064892e+01 -1.882871e+00
      vertex   7.456517e-01 1.074092e+01 -1.898473e+00
      vertex   8.326077e-01 1.073481e+01 -1.898521e+00
    endloop
  endfacet
  facet normal -1.352949e-02 -1.729731e-01 -9.848336e-01
    outer loop
      vertex   7.915509e-01 1.064892e+01 -1.882871e+00
      vertex   8.326077e-01 1.073481e+01 -1.898521e+00
      vertex   8.737646e-01 1.064277e+01 -1.882921e+00
    endloop
  endfacet
  facet normal -1.414170e-02 -1.732375e-01 -9.847785e-01
    outer loop
      vertex   8.737646e-01 1.064277e+01 -1.882921e+00
      vertex   8.326077e-01 1.073481e+01 -1.898521e+00
      vertex   9.195186e-01 1.072802e+01 -1.898575e+00
    endloop
  endfacet
  facet normal -1.486430e-02 -1.728600e-01 -9.848342e-01
    outer loop
      vertex   8.737646e-01 1.064277e+01 -1.882921e+00
      vertex   9.195186e-01 1.072802e+01 -1.898575e+00
      vertex   9.559341e-01 1.063601e+01 -1.882974e+00
    endloop
  endfacet
  facet normal -1.554397e-02 -1.731195e-01 -9.847782e-01
    outer loop
      vertex   9.559341e-01 1.063601e+01 -1.882974e+00
      vertex   9.195186e-01 1.072802e+01 -1.898575e+00
      vertex   1.006375e+00 1.072056e+01 -1.898634e+00
    endloop
  endfacet
  facet normal -1.619845e-02 -1.727394e-01 -9.848344e-01
    outer loop
      vertex   9.559341e-01 1.063601e+01 -1.882974e+00
      vertex   1.006375e+00 1.072056e+01 -1.898634e+00
      vertex   1.038048e+00 1.062864e+01 -1.883033e+00
    endloop
  endfacet
  facet normal -1.694491e-02 -1.729871e-01 -9.847783e-01
    outer loop
      vertex   1.038048e+00 1.062864e+01 -1.883033e+00
      vertex   1.006375e+00 1.072056e+01 -1.898634e+00
      vertex   1.093165e+00 1.071242e+01 -1.898698e+00
    endloop
  endfacet
  facet normal -1.753176e-02 -1.726115e-01 -9.848340e-01
    outer loop
      vertex   1.038048e+00 1.062864e+01 -1.883033e+00
      vertex   1.093165e+00 1.071242e+01 -1.898698e+00
      vertex   1.120101e+00 1.062067e+01 -1.883097e+00
    endloop
  endfacet
  facet normal -1.834427e-02 -1.728406e-01 -9.847790e-01
    outer loop
      vertex   1.120101e+00 1.062067e+01 -1.883097e+00
      vertex   1.093165e+00 1.071242e+01 -1.898698e+00
      vertex   1.179886e+00 1.070361e+01 -1.898768e+00
    endloop
  endfacet
  facet normal -1.886422e-02 -1.724761e-01 -9.848331e-01
    outer loop
      vertex   1.120101e+00 1.062067e+01 -1.883097e+00
      vertex   1.179886e+00 1.070361e+01 -1.898768e+00
      vertex   1.202089e+00 1.061209e+01 -1.883165e+00
    endloop
  endfacet
  facet normal -1.974192e-02 -1.726800e-01 -9.847801e-01
    outer loop
      vertex   1.202089e+00 1.061209e+01 -1.883165e+00
      vertex   1.179886e+00 1.070361e+01 -1.898768e+00
      vertex   1.266533e+00 1.069413e+01 -1.898843e+00
    endloop
  endfacet
  facet normal -2.019582e-02 -1.723333e-01 -9.848316e-01
    outer loop
      vertex   1.202089e+00 1.061209e+01 -1.883165e+00
      vertex   1.266533e+00 1.069413e+01 -1.898843e+00
      vertex   1.284010e+00 1.060291e+01 -1.883238e+00
    endloop
  endfacet
  facet normal -2.113772e-02 -1.725052e-01 -9.847818e-01
    outer loop
      vertex   1.284010e+00 1.060291e+01 -1.883238e+00
      vertex   1.266533e+00 1.069413e+01 -1.898843e+00
      vertex   1.353102e+00 1.068398e+01 -1.898923e+00
    endloop
  endfacet
  facet normal -2.152658e-02 -1.721831e-01 -9.848297e-01
    outer loop
      vertex   1.284010e+00 1.060291e+01 -1.883238e+00
      vertex   1.353102e+00 1.068398e+01 -1.898923e+00
      vertex   1.365859e+00 1.059312e+01 -1.883316e+00
    endloop
  endfacet
  facet normal -2.253155e-02 -1.723163e-01 -9.847839e-01
    outer loop
      vertex   1.365859e+00 1.059312e+01 -1.883316e+00
      vertex   1.353102e+00 1.068398e+01 -1.898923e+00
      vertex   1.439589e+00 1.067316e+01 -1.899008e+00
    endloop
  endfacet
  facet normal -2.285651e-02 -1.720255e-01 -9.848273e-01
    outer loop
      vertex   1.365859e+00 1.059312e+01 -1.883316e+00
      vertex   1.439589e+00 1.067316e+01 -1.899008e+00
      vertex   1.447634e+00 1.058273e+01 -1.883398e+00
    endloop
  endfacet
  facet normal -2.392327e-02 -1.721134e-01 -9.847866e-01
    outer loop
      vertex   1.447634e+00 1.058273e+01 -1.883398e+00
      vertex   1.439589e+00 1.067316e+01 -1.899008e+00
      vertex   1.525990e+00 1.066167e+01 -1.899098e+00
    endloop
  endfacet
  facet normal -2.418560e-02 -1.718605e-01 -9.848244e-01
    outer loop
      vertex   1.447634e+00 1.058273e+01 -1.883398e+00
      vertex   1.525990e+00 1.066167e+01 -1.899098e+00
      vertex   1.529330e+00 1.057173e+01 -1.883485e+00
    endloop
  endfacet
  facet normal -2.531276e-02 -1.718963e-01 -9.847898e-01
    outer loop
      vertex   1.529330e+00 1.057173e+01 -1.883485e+00
      vertex   1.525990e+00 1.066167e+01 -1.899098e+00
      vertex   1.612301e+00 1.064951e+01 -1.899194e+00
    endloop
  endfacet
  facet normal -2.551388e-02 -1.716881e-01 -9.848209e-01
    outer loop
      vertex   1.529330e+00 1.057173e+01 -1.883485e+00
      vertex   1.612301e+00 1.064951e+01 -1.899194e+00
      vertex   1.610944e+00 1.056013e+01 -1.883577e+00
    endloop
  endfacet
  facet normal -2.669987e-02 -1.716653e-01 -9.847935e-01
    outer loop
      vertex   1.610944e+00 1.056013e+01 -1.883577e+00
      vertex   1.612301e+00 1.064951e+01 -1.899194e+00
      vertex   1.698518e+00 1.063667e+01 -1.899294e+00
    endloop
  endfacet
  facet normal -2.684133e-02 -1.715083e-01 -9.848170e-01
    outer loop
      vertex   1.610944e+00 1.056013e+01 -1.883577e+00
      vertex   1.698518e+00 1.063667e+01 -1.899294e+00
      vertex   1.692473e+00 1.054792e+01 -1.883674e+00
    endloop
  endfacet
  facet normal -2.808449e-02 -1.714202e-01 -9.847976e-01
    outer loop
      vertex   1.692473e+00 1.054792e+01 -1.883674e+00
      vertex   1.698518e+00 1.063667e+01 -1.899294e+00
      vertex   1.784637e+00 1.062317e+01 -1.899400e+00
    endloop
  endfacet
  facet normal -2.816797e-02 -1.713210e-01 -9.848125e-01
    outer loop
      vertex   1.692473e+00 1.054792e+01 -1.883674e+00
      vertex   1.784637e+00 1.062317e+01 -1.899400e+00
      vertex   1.773913e+00 1.053511e+01 -1.883775e+00
    endloop
  endfacet
  facet normal -2.946671e-02 -1.711610e-01 -9.848023e-01
    outer loop
      vertex   1.773913e+00 1.053511e+01 -1.883775e+00
      vertex   1.784637e+00 1.062317e+01 -1.899400e+00
      vertex   1.870653e+00 1.060900e+01 -1.899511e+00
    endloop
  endfacet
  facet normal -2.949402e-02 -1.711264e-01 -9.848075e-01
    outer loop
      vertex   1.773913e+00 1.053511e+01 -1.883775e+00
      vertex   1.870653e+00 1.060900e+01 -1.899511e+00
      vertex   1.855260e+00 1.052170e+01 -1.883881e+00
    endloop
  endfacet
endsolid
