solid ASCII
  facet normal -3.262570e-01 -9.452696e-01 4.657314e-03
    outer loop
      vertex   3.788851e+00 1.040978e+01 -1.141289e-01
      vertex   3.789033e+00 1.041028e+01 -4.250073e-16
      vertex   3.701655e+00 1.044016e+01 -5.667201e-02
    endloop
  endfacet
  facet normal -3.241026e-01 -9.460215e-01 9.392163e-04
    outer loop
      vertex   3.701655e+00 1.044016e+01 -5.667201e-02
      vertex   3.789033e+00 1.041028e+01 -4.250073e-16
      vertex   3.683377e+00 1.044648e+01 1.819496e-17
    endloop
  endfacet
  facet normal -3.172850e-01 -9.483242e-01 3.394666e-03
    outer loop
      vertex   3.701655e+00 1.044016e+01 -5.667201e-02
      vertex   3.683377e+00 1.044648e+01 1.819496e-17
      vertex   3.614280e+00 1.046939e+01 -5.667201e-02
    endloop
  endfacet
  facet normal -3.148802e-01 -9.491314e-01 1.361884e-04
    outer loop
      vertex   3.614280e+00 1.046939e+01 -5.667201e-02
      vertex   3.683377e+00 1.044648e+01 1.819496e-17
      vertex   3.577375e+00 1.048165e+01 0.000000e+00
    endloop
  endfacet
  facet normal -3.096652e-01 -9.508377e-01 3.901165e-03
    outer loop
      vertex   3.614280e+00 1.046939e+01 -5.667201e-02
      vertex   3.577375e+00 1.048165e+01 0.000000e+00
      vertex   3.526747e+00 1.049790e+01 -5.667201e-02
    endloop
  endfacet
  facet normal -3.072550e-01 -9.516260e-01 1.521892e-03
    outer loop
      vertex   3.526747e+00 1.049790e+01 -5.667201e-02
      vertex   3.577375e+00 1.048165e+01 0.000000e+00
      vertex   3.508373e+00 1.050392e+01 7.340512e-14
    endloop
  endfacet
  facet normal -3.030364e-01 -9.529742e-01 3.032892e-03
    outer loop
      vertex   3.526747e+00 1.049790e+01 -5.667201e-02
      vertex   3.508373e+00 1.050392e+01 7.340512e-14
      vertex   3.459875e+00 1.051918e+01 -5.156251e-02
    endloop
  endfacet
  facet normal -3.023281e-01 -9.532012e-01 2.299502e-03
    outer loop
      vertex   3.459875e+00 1.051918e+01 -5.156251e-02
      vertex   3.508373e+00 1.050392e+01 7.340512e-14
      vertex   3.452700e+00 1.052150e+01 -3.450946e-02
    endloop
  endfacet
  facet normal -3.016035e-01 -9.534329e-01 1.012507e-03
    outer loop
      vertex   3.452700e+00 1.052150e+01 -3.450946e-02
      vertex   3.508373e+00 1.050392e+01 7.340512e-14
      vertex   3.445819e+00 1.052369e+01 -1.732012e-02
    endloop
  endfacet
  facet normal -3.012400e-01 -9.535483e-01 -4.319699e-04
    outer loop
      vertex   3.445819e+00 1.052369e+01 -1.732012e-02
      vertex   3.508373e+00 1.050392e+01 7.340512e-14
      vertex   3.439232e+00 1.052577e+01 1.468183e-13
    endloop
  endfacet
  facet normal -3.029958e-01 -9.529850e-01 3.608818e-03
    outer loop
      vertex   3.459875e+00 1.051918e+01 -5.156251e-02
      vertex   3.467344e+00 1.051674e+01 -6.847381e-02
      vertex   3.526747e+00 1.049790e+01 -5.667201e-02
    endloop
  endfacet
  facet normal -3.032665e-01 -9.528920e-01 5.119698e-03
    outer loop
      vertex   3.526747e+00 1.049790e+01 -5.667201e-02
      vertex   3.467344e+00 1.051674e+01 -6.847381e-02
      vertex   3.475106e+00 1.051418e+01 -8.523787e-02
    endloop
  endfacet
  facet normal -3.039281e-01 -9.526732e-01 6.440492e-03
    outer loop
      vertex   3.526747e+00 1.049790e+01 -5.667201e-02
      vertex   3.475106e+00 1.051418e+01 -8.523787e-02
      vertex   3.483159e+00 1.051150e+01 -1.018492e-01
    endloop
  endfacet
  facet normal -3.043982e-01 -9.525196e-01 6.940293e-03
    outer loop
      vertex   3.526747e+00 1.049790e+01 -5.667201e-02
      vertex   3.483159e+00 1.051150e+01 -1.018492e-01
      vertex   3.526621e+00 1.049753e+01 -1.134563e-01
    endloop
  endfacet
  facet normal -3.041347e-01 -9.525953e-01 8.018244e-03
    outer loop
      vertex   3.526621e+00 1.049753e+01 -1.134563e-01
      vertex   3.483159e+00 1.051150e+01 -1.018492e-01
      vertex   3.491503e+00 1.050870e+01 -1.183023e-01
    endloop
  endfacet
  facet normal -3.043320e-01 -9.525174e-01 9.627976e-03
    outer loop
      vertex   3.526621e+00 1.049753e+01 -1.134563e-01
      vertex   3.491503e+00 1.050870e+01 -1.183023e-01
      vertex   3.500138e+00 1.050578e+01 -1.345918e-01
    endloop
  endfacet
  facet normal -3.052136e-01 -9.522221e-01 1.084789e-02
    outer loop
      vertex   3.500138e+00 1.050578e+01 -1.345918e-01
      vertex   3.509062e+00 1.050273e+01 -1.507121e-01
      vertex   3.526621e+00 1.049753e+01 -1.134563e-01
    endloop
  endfacet
  facet normal -3.066261e-01 -9.517596e-01 1.157820e-02
    outer loop
      vertex   3.526621e+00 1.049753e+01 -1.134563e-01
      vertex   3.509062e+00 1.050273e+01 -1.507121e-01
      vertex   3.526412e+00 1.049690e+01 -1.703512e-01
    endloop
  endfacet
  facet normal -3.096486e-01 -9.507806e-01 1.157860e-02
    outer loop
      vertex   3.526621e+00 1.049753e+01 -1.134563e-01
      vertex   3.526412e+00 1.049690e+01 -1.703512e-01
      vertex   3.614195e+00 1.046901e+01 -1.134563e-01
    endloop
  endfacet
  facet normal -3.096505e-01 -9.507799e-01 1.158177e-02
    outer loop
      vertex   3.614195e+00 1.046901e+01 -1.134563e-01
      vertex   3.526412e+00 1.049690e+01 -1.703512e-01
      vertex   3.614022e+00 1.046837e+01 -1.703512e-01
    endloop
  endfacet
  facet normal -3.172674e-01 -9.482654e-01 1.157669e-02
    outer loop
      vertex   3.614195e+00 1.046901e+01 -1.134563e-01
      vertex   3.614022e+00 1.046837e+01 -1.703512e-01
      vertex   3.701523e+00 1.043979e+01 -1.134563e-01
    endloop
  endfacet
  facet normal -3.172693e-01 -9.482648e-01 1.157986e-02
    outer loop
      vertex   3.701523e+00 1.043979e+01 -1.134563e-01
      vertex   3.614022e+00 1.046837e+01 -1.703512e-01
      vertex   3.701303e+00 1.043917e+01 -1.703512e-01
    endloop
  endfacet
  facet normal -3.248624e-01 -9.456904e-01 1.158114e-02
    outer loop
      vertex   3.701523e+00 1.043979e+01 -1.134563e-01
      vertex   3.701303e+00 1.043917e+01 -1.703512e-01
      vertex   3.788851e+00 1.040978e+01 -1.141289e-01
    endloop
  endfacet
  facet normal -3.262287e-01 -9.451876e-01 1.397167e-02
    outer loop
      vertex   3.788851e+00 1.040978e+01 -1.141289e-01
      vertex   3.701303e+00 1.043917e+01 -1.703512e-01
      vertex   3.788305e+00 1.040828e+01 -2.282480e-01
    endloop
  endfacet
  facet normal -3.248788e-01 -9.456164e-01 1.622905e-02
    outer loop
      vertex   3.788305e+00 1.040828e+01 -2.282480e-01
      vertex   3.701303e+00 1.043917e+01 -1.703512e-01
      vertex   3.700993e+00 1.043830e+01 -2.273550e-01
    endloop
  endfacet
  facet normal -3.248081e-01 -9.455493e-01 2.088586e-02
    outer loop
      vertex   3.788305e+00 1.040828e+01 -2.282480e-01
      vertex   3.700993e+00 1.043830e+01 -2.273550e-01
      vertex   3.700595e+00 1.043717e+01 -2.844659e-01
    endloop
  endfacet
  facet normal -3.172251e-01 -9.481203e-01 2.088355e-02
    outer loop
      vertex   3.700595e+00 1.043717e+01 -2.844659e-01
      vertex   3.700993e+00 1.043830e+01 -2.273550e-01
      vertex   3.613416e+00 1.046634e+01 -2.844659e-01
    endloop
  endfacet
  facet normal -3.172039e-01 -9.480570e-01 2.386724e-02
    outer loop
      vertex   3.700595e+00 1.043717e+01 -2.844659e-01
      vertex   3.613416e+00 1.046634e+01 -2.844659e-01
      vertex   3.613304e+00 1.046597e+01 -3.004590e-01
    endloop
  endfacet
  facet normal -3.129776e-01 -9.494605e-01 2.386949e-02
    outer loop
      vertex   3.613304e+00 1.046597e+01 -3.004590e-01
      vertex   3.613416e+00 1.046634e+01 -2.844659e-01
      vertex   3.601701e+00 1.047015e+01 -2.865297e-01
    endloop
  endfacet
  facet normal -3.127054e-01 -9.495935e-01 2.207874e-02
    outer loop
      vertex   3.601701e+00 1.047015e+01 -2.865297e-01
      vertex   3.613416e+00 1.046634e+01 -2.844659e-01
      vertex   3.590354e+00 1.047422e+01 -2.723531e-01
    endloop
  endfacet
  facet normal -3.132783e-01 -9.494317e-01 2.088266e-02
    outer loop
      vertex   3.590354e+00 1.047422e+01 -2.723531e-01
      vertex   3.613416e+00 1.046634e+01 -2.844659e-01
      vertex   3.613763e+00 1.046748e+01 -2.273550e-01
    endloop
  endfacet
  facet normal -3.123898e-01 -9.497355e-01 2.037497e-02
    outer loop
      vertex   3.590354e+00 1.047422e+01 -2.723531e-01
      vertex   3.613763e+00 1.046748e+01 -2.273550e-01
      vertex   3.579265e+00 1.047817e+01 -2.579348e-01
    endloop
  endfacet
  facet normal -3.114635e-01 -9.500638e-01 1.921513e-02
    outer loop
      vertex   3.579265e+00 1.047817e+01 -2.579348e-01
      vertex   3.613763e+00 1.046748e+01 -2.273550e-01
      vertex   3.568436e+00 1.048202e+01 -2.432804e-01
    endloop
  endfacet
  facet normal -3.109896e-01 -9.502485e-01 1.769780e-02
    outer loop
      vertex   3.568436e+00 1.048202e+01 -2.432804e-01
      vertex   3.613763e+00 1.046748e+01 -2.273550e-01
      vertex   3.557869e+00 1.048575e+01 -2.283952e-01
    endloop
  endfacet
  facet normal -3.109683e-01 -9.502879e-01 1.586366e-02
    outer loop
      vertex   3.557869e+00 1.048575e+01 -2.283952e-01
      vertex   3.613763e+00 1.046748e+01 -2.273550e-01
      vertex   3.547567e+00 1.048938e+01 -2.132848e-01
    endloop
  endfacet
  facet normal -3.108966e-01 -9.503052e-01 1.622796e-02
    outer loop
      vertex   3.547567e+00 1.048938e+01 -2.132848e-01
      vertex   3.613763e+00 1.046748e+01 -2.273550e-01
      vertex   3.614022e+00 1.046837e+01 -1.703512e-01
    endloop
  endfacet
  facet normal -3.100342e-01 -9.506111e-01 1.474341e-02
    outer loop
      vertex   3.547567e+00 1.048938e+01 -2.132848e-01
      vertex   3.614022e+00 1.046837e+01 -1.703512e-01
      vertex   3.537533e+00 1.049289e+01 -1.979547e-01
    endloop
  endfacet
  facet normal -3.095659e-01 -9.507851e-01 1.329113e-02
    outer loop
      vertex   3.537533e+00 1.049289e+01 -1.979547e-01
      vertex   3.614022e+00 1.046837e+01 -1.703512e-01
      vertex   3.527768e+00 1.049628e+01 -1.824105e-01
    endloop
  endfacet
  facet normal -3.096413e-01 -9.507517e-01 1.390767e-02
    outer loop
      vertex   3.527768e+00 1.049628e+01 -1.824105e-01
      vertex   3.614022e+00 1.046837e+01 -1.703512e-01
      vertex   3.526412e+00 1.049690e+01 -1.703512e-01
    endloop
  endfacet
  facet normal -3.051630e-01 -9.521900e-01 1.448500e-02
    outer loop
      vertex   3.527768e+00 1.049628e+01 -1.824105e-01
      vertex   3.526412e+00 1.049690e+01 -1.703512e-01
      vertex   3.518275e+00 1.049957e+01 -1.666577e-01
    endloop
  endfacet
  facet normal -3.061942e-01 -9.518935e-01 1.199949e-02
    outer loop
      vertex   3.518275e+00 1.049957e+01 -1.666577e-01
      vertex   3.526412e+00 1.049690e+01 -1.703512e-01
      vertex   3.509062e+00 1.050273e+01 -1.507121e-01
    endloop
  endfacet
  facet normal -3.169353e-01 -9.481881e-01 2.216511e-02
    outer loop
      vertex   3.613304e+00 1.046597e+01 -3.004590e-01
      vertex   3.625159e+00 1.046169e+01 -3.141355e-01
      vertex   3.700595e+00 1.043717e+01 -2.844659e-01
    endloop
  endfacet
  facet normal -3.174599e-01 -9.479761e-01 2.367426e-02
    outer loop
      vertex   3.700595e+00 1.043717e+01 -2.844659e-01
      vertex   3.625159e+00 1.046169e+01 -3.141355e-01
      vertex   3.637264e+00 1.045730e+01 -3.275537e-01
    endloop
  endfacet
  facet normal -3.185987e-01 -9.475453e-01 2.554932e-02
    outer loop
      vertex   3.700595e+00 1.043717e+01 -2.844659e-01
      vertex   3.637264e+00 1.045730e+01 -3.275537e-01
      vertex   3.700106e+00 1.043579e+01 -3.416822e-01
    endloop
  endfacet
  facet normal -3.188587e-01 -9.474905e-01 2.430958e-02
    outer loop
      vertex   3.700106e+00 1.043579e+01 -3.416822e-01
      vertex   3.637264e+00 1.045730e+01 -3.275537e-01
      vertex   3.649618e+00 1.045281e+01 -3.407082e-01
    endloop
  endfacet
  facet normal -3.188031e-01 -9.474506e-01 2.649550e-02
    outer loop
      vertex   3.700106e+00 1.043579e+01 -3.416822e-01
      vertex   3.649618e+00 1.045281e+01 -3.407082e-01
      vertex   3.662217e+00 1.044821e+01 -3.535933e-01
    endloop
  endfacet
  facet normal -3.192685e-01 -9.472449e-01 2.819043e-02
    outer loop
      vertex   3.662217e+00 1.044821e+01 -3.535933e-01
      vertex   3.675060e+00 1.044350e+01 -3.662036e-01
      vertex   3.700106e+00 1.043579e+01 -3.416822e-01
    endloop
  endfacet
  facet normal -3.202624e-01 -9.468750e-01 2.932187e-02
    outer loop
      vertex   3.700106e+00 1.043579e+01 -3.416822e-01
      vertex   3.675060e+00 1.044350e+01 -3.662036e-01
      vertex   3.688144e+00 1.043870e+01 -3.785335e-01
    endloop
  endfacet
  facet normal -3.217592e-01 -9.463509e-01 2.984906e-02
    outer loop
      vertex   3.700106e+00 1.043579e+01 -3.416822e-01
      vertex   3.688144e+00 1.043870e+01 -3.785335e-01
      vertex   3.701466e+00 1.043379e+01 -3.905776e-01
    endloop
  endfacet
  facet normal -3.237023e-01 -9.456906e-01 2.976795e-02
    outer loop
      vertex   3.701466e+00 1.043379e+01 -3.905776e-01
      vertex   3.715024e+00 1.042878e+01 -4.023303e-01
      vertex   3.700106e+00 1.043579e+01 -3.416822e-01
    endloop
  endfacet
  facet normal -3.247482e-01 -9.453413e-01 2.947029e-02
    outer loop
      vertex   3.700106e+00 1.043579e+01 -3.416822e-01
      vertex   3.715024e+00 1.042878e+01 -4.023303e-01
      vertex   3.787396e+00 1.040579e+01 -3.423490e-01
    endloop
  endfacet
  facet normal -3.248100e-01 -9.454341e-01 2.555152e-02
    outer loop
      vertex   3.700106e+00 1.043579e+01 -3.416822e-01
      vertex   3.787396e+00 1.040579e+01 -3.423490e-01
      vertex   3.700595e+00 1.043717e+01 -2.844659e-01
    endloop
  endfacet
  facet normal -3.261727e-01 -9.450234e-01 2.328527e-02
    outer loop
      vertex   3.700595e+00 1.043717e+01 -2.844659e-01
      vertex   3.787396e+00 1.040579e+01 -3.423490e-01
      vertex   3.788305e+00 1.040828e+01 -2.282480e-01
    endloop
  endfacet
  facet normal -3.252421e-01 -9.451503e-01 3.013949e-02
    outer loop
      vertex   3.715024e+00 1.042878e+01 -4.023303e-01
      vertex   3.728815e+00 1.042367e+01 -4.137861e-01
      vertex   3.787396e+00 1.040579e+01 -3.423490e-01
    endloop
  endfacet
  facet normal -3.263146e-01 -9.447489e-01 3.111940e-02
    outer loop
      vertex   3.787396e+00 1.040579e+01 -3.423490e-01
      vertex   3.728815e+00 1.042367e+01 -4.137861e-01
      vertex   3.742838e+00 1.041846e+01 -4.249393e-01
    endloop
  endfacet
  facet normal -3.275588e-01 -9.442935e-01 3.186052e-02
    outer loop
      vertex   3.787396e+00 1.040579e+01 -3.423490e-01
      vertex   3.742838e+00 1.041846e+01 -4.249393e-01
      vertex   3.757072e+00 1.041315e+01 -4.357710e-01
    endloop
  endfacet
  facet normal -3.289587e-01 -9.437899e-01 3.235463e-02
    outer loop
      vertex   3.757072e+00 1.041315e+01 -4.357710e-01
      vertex   3.771502e+00 1.040776e+01 -4.462672e-01
      vertex   3.787396e+00 1.040579e+01 -3.423490e-01
    endloop
  endfacet
  facet normal -3.304944e-01 -9.432448e-01 3.259989e-02
    outer loop
      vertex   3.787396e+00 1.040579e+01 -3.423490e-01
      vertex   3.771502e+00 1.040776e+01 -4.462672e-01
      vertex   3.786124e+00 1.040229e+01 -4.564236e-01
    endloop
  endfacet
  facet normal -3.249083e-01 -9.457201e-01 6.942283e-03
    outer loop
      vertex   3.701523e+00 1.043979e+01 -1.134563e-01
      vertex   3.788851e+00 1.040978e+01 -1.141289e-01
      vertex   3.701655e+00 1.044016e+01 -5.667201e-02
    endloop
  endfacet
  facet normal -3.172810e-01 -9.483061e-01 6.941509e-03
    outer loop
      vertex   3.614195e+00 1.046901e+01 -1.134563e-01
      vertex   3.701523e+00 1.043979e+01 -1.134563e-01
      vertex   3.701655e+00 1.044016e+01 -5.667201e-02
    endloop
  endfacet
  facet normal -3.172488e-01 -9.482036e-01 1.622408e-02
    outer loop
      vertex   3.614022e+00 1.046837e+01 -1.703512e-01
      vertex   3.613763e+00 1.046748e+01 -2.273550e-01
      vertex   3.701303e+00 1.043917e+01 -1.703512e-01
    endloop
  endfacet
  facet normal -3.172506e-01 -9.482029e-01 1.622724e-02
    outer loop
      vertex   3.701303e+00 1.043917e+01 -1.703512e-01
      vertex   3.613763e+00 1.046748e+01 -2.273550e-01
      vertex   3.700993e+00 1.043830e+01 -2.273550e-01
    endloop
  endfacet
  facet normal -3.172232e-01 -9.481210e-01 2.088040e-02
    outer loop
      vertex   3.613763e+00 1.046748e+01 -2.273550e-01
      vertex   3.613416e+00 1.046634e+01 -2.844659e-01
      vertex   3.700993e+00 1.043830e+01 -2.273550e-01
    endloop
  endfacet
  facet normal -3.096619e-01 -9.508214e-01 6.943930e-03
    outer loop
      vertex   3.526621e+00 1.049753e+01 -1.134563e-01
      vertex   3.614195e+00 1.046901e+01 -1.134563e-01
      vertex   3.614280e+00 1.046939e+01 -5.667201e-02
    endloop
  endfacet
  facet normal -3.172792e-01 -9.483068e-01 6.938331e-03
    outer loop
      vertex   3.614280e+00 1.046939e+01 -5.667201e-02
      vertex   3.614195e+00 1.046901e+01 -1.134563e-01
      vertex   3.701655e+00 1.044016e+01 -5.667201e-02
    endloop
  endfacet
  facet normal -3.096601e-01 -9.508220e-01 6.940754e-03
    outer loop
      vertex   3.526747e+00 1.049790e+01 -5.667201e-02
      vertex   3.526621e+00 1.049753e+01 -1.134563e-01
      vertex   3.614280e+00 1.046939e+01 -5.667201e-02
    endloop
  endfacet
  facet normal -8.599744e-01 3.527012e-01 -3.688439e-01
    outer loop
      vertex   3.620551e+00 1.096787e+01 5.847753e-14
      vertex   3.626841e+00 1.096578e+01 -1.666331e-02
      vertex   3.439232e+00 1.052577e+01 1.468183e-13
    endloop
  endfacet
  facet normal -8.598596e-01 3.526399e-01 -3.691702e-01
    outer loop
      vertex   3.439232e+00 1.052577e+01 1.468183e-13
      vertex   3.626841e+00 1.096578e+01 -1.666331e-02
      vertex   3.445819e+00 1.052369e+01 -1.732012e-02
    endloop
  endfacet
  facet normal -8.537543e-01 3.501639e-01 -3.853425e-01
    outer loop
      vertex   3.445819e+00 1.052369e+01 -1.732012e-02
      vertex   3.626841e+00 1.096578e+01 -1.666331e-02
      vertex   3.633402e+00 1.096357e+01 -3.320649e-02
    endloop
  endfacet
  facet normal -8.533915e-01 3.499741e-01 -3.863173e-01
    outer loop
      vertex   3.445819e+00 1.052369e+01 -1.732012e-02
      vertex   3.633402e+00 1.096357e+01 -3.320649e-02
      vertex   3.452700e+00 1.052150e+01 -3.450946e-02
    endloop
  endfacet
  facet normal -8.472388e-01 3.475046e-01 -4.017798e-01
    outer loop
      vertex   3.452700e+00 1.052150e+01 -3.450946e-02
      vertex   3.633402e+00 1.096357e+01 -3.320649e-02
      vertex   3.640234e+00 1.096124e+01 -4.962467e-02
    endloop
  endfacet
  facet normal -8.466035e-01 3.471781e-01 -4.033979e-01
    outer loop
      vertex   3.452700e+00 1.052150e+01 -3.450946e-02
      vertex   3.640234e+00 1.096124e+01 -4.962467e-02
      vertex   3.459875e+00 1.051918e+01 -5.156251e-02
    endloop
  endfacet
  facet normal -8.404259e-01 3.447223e-01 -4.181517e-01
    outer loop
      vertex   3.459875e+00 1.051918e+01 -5.156251e-02
      vertex   3.640234e+00 1.096124e+01 -4.962467e-02
      vertex   3.647337e+00 1.095880e+01 -6.591297e-02
    endloop
  endfacet
  facet normal -8.394932e-01 3.442510e-01 -4.204074e-01
    outer loop
      vertex   3.459875e+00 1.051918e+01 -5.156251e-02
      vertex   3.647337e+00 1.095880e+01 -6.591297e-02
      vertex   3.467344e+00 1.051674e+01 -6.847381e-02
    endloop
  endfacet
  facet normal -8.333136e-01 3.418162e-01 -4.344538e-01
    outer loop
      vertex   3.467344e+00 1.051674e+01 -6.847381e-02
      vertex   3.647337e+00 1.095880e+01 -6.591297e-02
      vertex   3.654709e+00 1.095624e+01 -8.206651e-02
    endloop
  endfacet
  facet normal -8.320584e-01 3.411918e-01 -4.373409e-01
    outer loop
      vertex   3.467344e+00 1.051674e+01 -6.847381e-02
      vertex   3.654709e+00 1.095624e+01 -8.206651e-02
      vertex   3.475106e+00 1.051418e+01 -8.523787e-02
    endloop
  endfacet
  facet normal -8.259000e-01 3.387854e-01 -4.506812e-01
    outer loop
      vertex   3.475106e+00 1.051418e+01 -8.523787e-02
      vertex   3.654709e+00 1.095624e+01 -8.206651e-02
      vertex   3.662350e+00 1.095357e+01 -9.808042e-02
    endloop
  endfacet
  facet normal -8.242967e-01 3.379995e-01 -4.541931e-01
    outer loop
      vertex   3.475106e+00 1.051418e+01 -8.523787e-02
      vertex   3.662350e+00 1.095357e+01 -9.808042e-02
      vertex   3.483159e+00 1.051150e+01 -1.018492e-01
    endloop
  endfacet
  facet normal -8.181832e-01 3.356291e-01 -4.668291e-01
    outer loop
      vertex   3.483159e+00 1.051150e+01 -1.018492e-01
      vertex   3.662350e+00 1.095357e+01 -9.808042e-02
      vertex   3.670259e+00 1.095077e+01 -1.139498e-01
    endloop
  endfacet
  facet normal -8.162060e-01 3.346733e-01 -4.709581e-01
    outer loop
      vertex   3.483159e+00 1.051150e+01 -1.018492e-01
      vertex   3.670259e+00 1.095077e+01 -1.139498e-01
      vertex   3.491503e+00 1.050870e+01 -1.183023e-01
    endloop
  endfacet
  facet normal -8.101613e-01 3.323465e-01 -4.828918e-01
    outer loop
      vertex   3.491503e+00 1.050870e+01 -1.183023e-01
      vertex   3.670259e+00 1.095077e+01 -1.139498e-01
      vertex   3.678435e+00 1.094787e+01 -1.296698e-01
    endloop
  endfacet
  facet normal -8.077844e-01 3.312122e-01 -4.876299e-01
    outer loop
      vertex   3.491503e+00 1.050870e+01 -1.183023e-01
      vertex   3.678435e+00 1.094787e+01 -1.296698e-01
      vertex   3.500138e+00 1.050578e+01 -1.345918e-01
    endloop
  endfacet
  facet normal -8.018327e-01 3.289369e-01 -4.988636e-01
    outer loop
      vertex   3.500138e+00 1.050578e+01 -1.345918e-01
      vertex   3.678435e+00 1.094787e+01 -1.296698e-01
      vertex   3.686879e+00 1.094484e+01 -1.452353e-01
    endloop
  endfacet
  facet normal -7.990298e-01 3.276154e-01 -5.042020e-01
    outer loop
      vertex   3.500138e+00 1.050578e+01 -1.345918e-01
      vertex   3.686879e+00 1.094484e+01 -1.452353e-01
      vertex   3.509062e+00 1.050273e+01 -1.507121e-01
    endloop
  endfacet
  facet normal -7.931958e-01 3.253995e-01 -5.147384e-01
    outer loop
      vertex   3.509062e+00 1.050273e+01 -1.507121e-01
      vertex   3.686879e+00 1.094484e+01 -1.452353e-01
      vertex   3.695581e+00 1.094170e+01 -1.606298e-01
    endloop
  endfacet
  facet normal -7.899404e-01 3.238823e-01 -5.206673e-01
    outer loop
      vertex   3.509062e+00 1.050273e+01 -1.507121e-01
      vertex   3.695581e+00 1.094170e+01 -1.606298e-01
      vertex   3.518275e+00 1.049957e+01 -1.666577e-01
    endloop
  endfacet
  facet normal -7.842536e-01 3.217358e-01 -5.305020e-01
    outer loop
      vertex   3.518275e+00 1.049957e+01 -1.666577e-01
      vertex   3.695581e+00 1.094170e+01 -1.606298e-01
      vertex   3.704538e+00 1.093845e+01 -1.758419e-01
    endloop
  endfacet
  facet normal -7.805139e-01 3.200123e-01 -5.370198e-01
    outer loop
      vertex   3.518275e+00 1.049957e+01 -1.666577e-01
      vertex   3.704538e+00 1.093845e+01 -1.758419e-01
      vertex   3.527768e+00 1.049628e+01 -1.824105e-01
    endloop
  endfacet
  facet normal -7.750072e-01 3.179464e-01 -5.461446e-01
    outer loop
      vertex   3.527768e+00 1.049628e+01 -1.824105e-01
      vertex   3.704538e+00 1.093845e+01 -1.758419e-01
      vertex   3.713748e+00 1.093509e+01 -1.908667e-01
    endloop
  endfacet
  facet normal -7.707536e-01 3.160068e-01 -5.532437e-01
    outer loop
      vertex   3.527768e+00 1.049628e+01 -1.824105e-01
      vertex   3.713748e+00 1.093509e+01 -1.908667e-01
      vertex   3.537533e+00 1.049289e+01 -1.979547e-01
    endloop
  endfacet
  facet normal -7.654549e-01 3.140302e-01 -5.616617e-01
    outer loop
      vertex   3.537533e+00 1.049289e+01 -1.979547e-01
      vertex   3.713748e+00 1.093509e+01 -1.908667e-01
      vertex   3.723207e+00 1.093162e+01 -2.056992e-01
    endloop
  endfacet
  facet normal -7.606636e-01 3.118673e-01 -5.693239e-01
    outer loop
      vertex   3.537533e+00 1.049289e+01 -1.979547e-01
      vertex   3.723207e+00 1.093162e+01 -2.056992e-01
      vertex   3.547567e+00 1.048938e+01 -2.132848e-01
    endloop
  endfacet
  facet normal -7.555947e-01 3.099866e-01 -5.770485e-01
    outer loop
      vertex   3.547567e+00 1.048938e+01 -2.132848e-01
      vertex   3.723207e+00 1.093162e+01 -2.056992e-01
      vertex   3.732915e+00 1.092804e+01 -2.203343e-01
    endloop
  endfacet
  facet normal -7.502417e-01 3.075930e-01 -5.852555e-01
    outer loop
      vertex   3.547567e+00 1.048938e+01 -2.132848e-01
      vertex   3.732915e+00 1.092804e+01 -2.203343e-01
      vertex   3.557869e+00 1.048575e+01 -2.283952e-01
    endloop
  endfacet
  facet normal -7.454247e-01 3.058149e-01 -5.922999e-01
    outer loop
      vertex   3.557869e+00 1.048575e+01 -2.283952e-01
      vertex   3.732915e+00 1.092804e+01 -2.203343e-01
      vertex   3.742870e+00 1.092435e+01 -2.347672e-01
    endloop
  endfacet
  facet normal -7.394861e-01 3.031831e-01 -6.010327e-01
    outer loop
      vertex   3.557869e+00 1.048575e+01 -2.283952e-01
      vertex   3.742870e+00 1.092435e+01 -2.347672e-01
      vertex   3.568436e+00 1.048202e+01 -2.432804e-01
    endloop
  endfacet
  facet normal -7.349433e-01 3.015144e-01 -6.074104e-01
    outer loop
      vertex   3.568436e+00 1.048202e+01 -2.432804e-01
      vertex   3.742870e+00 1.092435e+01 -2.347672e-01
      vertex   3.753070e+00 1.092056e+01 -2.489929e-01
    endloop
  endfacet
  facet normal -7.283950e-01 2.986371e-01 -6.166496e-01
    outer loop
      vertex   3.568436e+00 1.048202e+01 -2.432804e-01
      vertex   3.753070e+00 1.092056e+01 -2.489929e-01
      vertex   3.579265e+00 1.047817e+01 -2.579348e-01
    endloop
  endfacet
  facet normal -7.241488e-01 2.970845e-01 -6.223740e-01
    outer loop
      vertex   3.579265e+00 1.047817e+01 -2.579348e-01
      vertex   3.753070e+00 1.092056e+01 -2.489929e-01
      vertex   3.763512e+00 1.091665e+01 -2.630063e-01
    endloop
  endfacet
  facet normal -7.169665e-01 2.939541e-01 -6.320998e-01
    outer loop
      vertex   3.579265e+00 1.047817e+01 -2.579348e-01
      vertex   3.763512e+00 1.091665e+01 -2.630063e-01
      vertex   3.590354e+00 1.047422e+01 -2.723531e-01
    endloop
  endfacet
  facet normal -7.130396e-01 2.925246e-01 -6.371844e-01
    outer loop
      vertex   3.590354e+00 1.047422e+01 -2.723531e-01
      vertex   3.763512e+00 1.091665e+01 -2.630063e-01
      vertex   3.774195e+00 1.091264e+01 -2.768025e-01
    endloop
  endfacet
  facet normal -7.051990e-01 2.891335e-01 -6.473764e-01
    outer loop
      vertex   3.590354e+00 1.047422e+01 -2.723531e-01
      vertex   3.774195e+00 1.091264e+01 -2.768025e-01
      vertex   3.601701e+00 1.047015e+01 -2.865297e-01
    endloop
  endfacet
  facet normal -7.016145e-01 2.878342e-01 -6.518348e-01
    outer loop
      vertex   3.601701e+00 1.047015e+01 -2.865297e-01
      vertex   3.774195e+00 1.091264e+01 -2.768025e-01
      vertex   3.785118e+00 1.090853e+01 -2.903765e-01
    endloop
  endfacet
  facet normal -6.930912e-01 2.841747e-01 -6.624721e-01
    outer loop
      vertex   3.601701e+00 1.047015e+01 -2.865297e-01
      vertex   3.785118e+00 1.090853e+01 -2.903765e-01
      vertex   3.613304e+00 1.046597e+01 -3.004590e-01
    endloop
  endfacet
  facet normal -6.898723e-01 2.830126e-01 -6.663183e-01
    outer loop
      vertex   3.613304e+00 1.046597e+01 -3.004590e-01
      vertex   3.785118e+00 1.090853e+01 -2.903765e-01
      vertex   3.796277e+00 1.090431e+01 -3.037233e-01
    endloop
  endfacet
  facet normal -6.806418e-01 2.790772e-01 -6.773792e-01
    outer loop
      vertex   3.613304e+00 1.046597e+01 -3.004590e-01
      vertex   3.796277e+00 1.090431e+01 -3.037233e-01
      vertex   3.625159e+00 1.046169e+01 -3.141355e-01
    endloop
  endfacet
  facet normal -6.778122e-01 2.780596e-01 -6.806273e-01
    outer loop
      vertex   3.625159e+00 1.046169e+01 -3.141355e-01
      vertex   3.796277e+00 1.090431e+01 -3.037233e-01
      vertex   3.807672e+00 1.089998e+01 -3.168379e-01
    endloop
  endfacet
  facet normal -6.678499e-01 2.738404e-01 -6.920895e-01
    outer loop
      vertex   3.625159e+00 1.046169e+01 -3.141355e-01
      vertex   3.807672e+00 1.089998e+01 -3.168379e-01
      vertex   3.637264e+00 1.045730e+01 -3.275537e-01
    endloop
  endfacet
  facet normal -6.654337e-01 2.729748e-01 -6.947538e-01
    outer loop
      vertex   3.637264e+00 1.045730e+01 -3.275537e-01
      vertex   3.807672e+00 1.089998e+01 -3.168379e-01
      vertex   3.819300e+00 1.089555e+01 -3.297154e-01
    endloop
  endfacet
  facet normal -6.547149e-01 2.684641e-01 -7.065942e-01
    outer loop
      vertex   3.637264e+00 1.045730e+01 -3.275537e-01
      vertex   3.819300e+00 1.089555e+01 -3.297154e-01
      vertex   3.649618e+00 1.045281e+01 -3.407082e-01
    endloop
  endfacet
  facet normal -6.527364e-01 2.677579e-01 -7.086896e-01
    outer loop
      vertex   3.649618e+00 1.045281e+01 -3.407082e-01
      vertex   3.819300e+00 1.089555e+01 -3.297154e-01
      vertex   3.831159e+00 1.089102e+01 -3.423508e-01
    endloop
  endfacet
  facet normal -6.412365e-01 2.629480e-01 -7.208842e-01
    outer loop
      vertex   3.649618e+00 1.045281e+01 -3.407082e-01
      vertex   3.831159e+00 1.089102e+01 -3.423508e-01
      vertex   3.662217e+00 1.044821e+01 -3.535933e-01
    endloop
  endfacet
  facet normal -6.397206e-01 2.624088e-01 -7.224259e-01
    outer loop
      vertex   3.662217e+00 1.044821e+01 -3.535933e-01
      vertex   3.831159e+00 1.089102e+01 -3.423508e-01
      vertex   3.843249e+00 1.088639e+01 -3.547391e-01
    endloop
  endfacet
  facet normal -6.274149e-01 2.572920e-01 -7.349499e-01
    outer loop
      vertex   3.662217e+00 1.044821e+01 -3.535933e-01
      vertex   3.843249e+00 1.088639e+01 -3.547391e-01
      vertex   3.675060e+00 1.044350e+01 -3.662036e-01
    endloop
  endfacet
  facet normal -6.263868e-01 2.569276e-01 -7.359537e-01
    outer loop
      vertex   3.675060e+00 1.044350e+01 -3.662036e-01
      vertex   3.843249e+00 1.088639e+01 -3.547391e-01
      vertex   3.855565e+00 1.088165e+01 -3.668753e-01
    endloop
  endfacet
  facet normal -6.132506e-01 2.514961e-01 -7.487813e-01
    outer loop
      vertex   3.675060e+00 1.044350e+01 -3.662036e-01
      vertex   3.855565e+00 1.088165e+01 -3.668753e-01
      vertex   3.688144e+00 1.043870e+01 -3.785335e-01
    endloop
  endfacet
  facet normal -6.127359e-01 2.513143e-01 -7.492636e-01
    outer loop
      vertex   3.688144e+00 1.043870e+01 -3.785335e-01
      vertex   3.855565e+00 1.088165e+01 -3.668753e-01
      vertex   3.868108e+00 1.087681e+01 -3.787544e-01
    endloop
  endfacet
  facet normal -5.987448e-01 2.455606e-01 -7.623678e-01
    outer loop
      vertex   3.688144e+00 1.043870e+01 -3.785335e-01
      vertex   3.868108e+00 1.087681e+01 -3.787544e-01
      vertex   3.701466e+00 1.043379e+01 -3.905776e-01
    endloop
  endfacet
  facet normal -5.987680e-01 2.455688e-01 -7.623469e-01
    outer loop
      vertex   3.701466e+00 1.043379e+01 -3.905776e-01
      vertex   3.868108e+00 1.087681e+01 -3.787544e-01
      vertex   3.880870e+00 1.087188e+01 -3.903672e-01
    endloop
  endfacet
  facet normal -5.844714e-01 2.397203e-01 -7.751950e-01
    outer loop
      vertex   3.701466e+00 1.043379e+01 -3.905776e-01
      vertex   3.880870e+00 1.087188e+01 -3.903672e-01
      vertex   3.893831e+00 1.086686e+01 -4.016931e-01
    endloop
  endfacet
  facet normal -5.839098e-01 2.394579e-01 -7.756993e-01
    outer loop
      vertex   3.701466e+00 1.043379e+01 -3.905776e-01
      vertex   3.893831e+00 1.086686e+01 -4.016931e-01
      vertex   3.715024e+00 1.042878e+01 -4.023303e-01
    endloop
  endfacet
  facet normal -5.698781e-01 2.337483e-01 -7.877821e-01
    outer loop
      vertex   3.715024e+00 1.042878e+01 -4.023303e-01
      vertex   3.893831e+00 1.086686e+01 -4.016931e-01
      vertex   3.906986e+00 1.086174e+01 -4.127265e-01
    endloop
  endfacet
  facet normal -5.687363e-01 2.332185e-01 -7.887637e-01
    outer loop
      vertex   3.715024e+00 1.042878e+01 -4.023303e-01
      vertex   3.906986e+00 1.086174e+01 -4.127265e-01
      vertex   3.728815e+00 1.042367e+01 -4.137861e-01
    endloop
  endfacet
  facet normal -5.549910e-01 2.276555e-01 -8.000988e-01
    outer loop
      vertex   3.728815e+00 1.042367e+01 -4.137861e-01
      vertex   3.906986e+00 1.086174e+01 -4.127265e-01
      vertex   3.920332e+00 1.085654e+01 -4.234633e-01
    endloop
  endfacet
  facet normal -5.532275e-01 2.268429e-01 -8.015495e-01
    outer loop
      vertex   3.728815e+00 1.042367e+01 -4.137861e-01
      vertex   3.920332e+00 1.085654e+01 -4.234633e-01
      vertex   3.742838e+00 1.041846e+01 -4.249393e-01
    endloop
  endfacet
  facet normal -5.398113e-01 2.214429e-01 -8.121372e-01
    outer loop
      vertex   3.742838e+00 1.041846e+01 -4.249393e-01
      vertex   3.920332e+00 1.085654e+01 -4.234633e-01
      vertex   3.933865e+00 1.085126e+01 -4.338994e-01
    endloop
  endfacet
  facet normal -5.373774e-01 2.203290e-01 -8.140520e-01
    outer loop
      vertex   3.742838e+00 1.041846e+01 -4.249393e-01
      vertex   3.933865e+00 1.085126e+01 -4.338994e-01
      vertex   3.757072e+00 1.041315e+01 -4.357710e-01
    endloop
  endfacet
  facet normal -5.243413e-01 2.151105e-01 -8.238894e-01
    outer loop
      vertex   3.757072e+00 1.041315e+01 -4.357710e-01
      vertex   3.933865e+00 1.085126e+01 -4.338994e-01
      vertex   3.947582e+00 1.084589e+01 -4.440307e-01
    endloop
  endfacet
  facet normal -5.212019e-01 2.136834e-01 -8.262493e-01
    outer loop
      vertex   3.757072e+00 1.041315e+01 -4.357710e-01
      vertex   3.947582e+00 1.084589e+01 -4.440307e-01
      vertex   3.771502e+00 1.040776e+01 -4.462672e-01
    endloop
  endfacet
  facet normal -5.138645e-01 2.107617e-01 -8.315785e-01
    outer loop
      vertex   3.771502e+00 1.040776e+01 -4.462672e-01
      vertex   3.947582e+00 1.084589e+01 -4.440307e-01
      vertex   3.907446e+00 1.073562e+01 -4.471775e-01
    endloop
  endfacet
  facet normal -5.092952e-01 2.088580e-01 -8.348633e-01
    outer loop
      vertex   3.771502e+00 1.040776e+01 -4.462672e-01
      vertex   3.907446e+00 1.073562e+01 -4.471775e-01
      vertex   3.867156e+00 1.062492e+01 -4.502920e-01
    endloop
  endfacet
  facet normal -5.062738e-01 2.074868e-01 -8.370401e-01
    outer loop
      vertex   3.867156e+00 1.062492e+01 -4.502920e-01
      vertex   3.826715e+00 1.051381e+01 -4.533741e-01
      vertex   3.771502e+00 1.040776e+01 -4.462672e-01
    endloop
  endfacet
  facet normal -5.048192e-01 2.066569e-01 -8.381232e-01
    outer loop
      vertex   3.771502e+00 1.040776e+01 -4.462672e-01
      vertex   3.826715e+00 1.051381e+01 -4.533741e-01
      vertex   3.786124e+00 1.040229e+01 -4.564236e-01
    endloop
  endfacet
  facet normal 3.170528e-01 9.484076e-01 7.088637e-04
    outer loop
      vertex   3.620551e+00 1.096787e+01 5.847753e-14
      vertex   3.703318e+00 1.094020e+01 1.692910e-14
      vertex   3.626841e+00 1.096578e+01 -1.666331e-02
    endloop
  endfacet
  facet normal 3.173283e-01 9.483155e-01 -6.970524e-04
    outer loop
      vertex   3.626841e+00 1.096578e+01 -1.666331e-02
      vertex   3.703318e+00 1.094020e+01 1.692910e-14
      vertex   3.633402e+00 1.096357e+01 -3.320649e-02
    endloop
  endfacet
  facet normal 3.179889e-01 9.480918e-01 -2.245379e-03
    outer loop
      vertex   3.633402e+00 1.096357e+01 -3.320649e-02
      vertex   3.703318e+00 1.094020e+01 1.692910e-14
      vertex   3.703209e+00 1.094010e+01 -5.514983e-02
    endloop
  endfacet
  facet normal 3.180896e-01 9.480588e-01 -1.889689e-03
    outer loop
      vertex   3.633402e+00 1.096357e+01 -3.320649e-02
      vertex   3.703209e+00 1.094010e+01 -5.514983e-02
      vertex   3.640234e+00 1.096124e+01 -4.962467e-02
    endloop
  endfacet
  facet normal 3.179607e-01 9.480974e-01 -3.506467e-03
    outer loop
      vertex   3.640234e+00 1.096124e+01 -4.962467e-02
      vertex   3.703209e+00 1.094010e+01 -5.514983e-02
      vertex   3.647337e+00 1.095880e+01 -6.591297e-02
    endloop
  endfacet
  facet normal 3.182111e-01 9.480069e-01 -4.963565e-03
    outer loop
      vertex   3.647337e+00 1.095880e+01 -6.591297e-02
      vertex   3.703209e+00 1.094010e+01 -5.514983e-02
      vertex   3.654709e+00 1.095624e+01 -8.206651e-02
    endloop
  endfacet
  facet normal 3.188435e-01 9.477869e-01 -6.234983e-03
    outer loop
      vertex   3.654709e+00 1.095624e+01 -8.206651e-02
      vertex   3.703209e+00 1.094010e+01 -5.514983e-02
      vertex   3.662350e+00 1.095357e+01 -9.808042e-02
    endloop
  endfacet
  facet normal 3.193293e-01 9.476198e-01 -6.749675e-03
    outer loop
      vertex   3.662350e+00 1.095357e+01 -9.808042e-02
      vertex   3.703209e+00 1.094010e+01 -5.514983e-02
      vertex   3.703021e+00 1.093977e+01 -1.104038e-01
    endloop
  endfacet
  facet normal 3.190575e-01 9.477038e-01 -7.740617e-03
    outer loop
      vertex   3.662350e+00 1.095357e+01 -9.808042e-02
      vertex   3.703021e+00 1.093977e+01 -1.104038e-01
      vertex   3.670259e+00 1.095077e+01 -1.139498e-01
    endloop
  endfacet
  facet normal 3.192056e-01 9.476398e-01 -9.307612e-03
    outer loop
      vertex   3.670259e+00 1.095077e+01 -1.139498e-01
      vertex   3.703021e+00 1.093977e+01 -1.104038e-01
      vertex   3.678435e+00 1.094787e+01 -1.296698e-01
    endloop
  endfacet
  facet normal 3.200355e-01 9.473475e-01 -1.048944e-02
    outer loop
      vertex   3.678435e+00 1.094787e+01 -1.296698e-01
      vertex   3.703021e+00 1.093977e+01 -1.104038e-01
      vertex   3.686879e+00 1.094484e+01 -1.452353e-01
    endloop
  endfacet
  facet normal 3.215430e-01 9.468280e-01 -1.126365e-02
    outer loop
      vertex   3.686879e+00 1.094484e+01 -1.452353e-01
      vertex   3.703021e+00 1.093977e+01 -1.104038e-01
      vertex   3.702752e+00 1.093921e+01 -1.657606e-01
    endloop
  endfacet
  facet normal 3.216535e-01 9.467916e-01 -1.116824e-02
    outer loop
      vertex   3.686879e+00 1.094484e+01 -1.452353e-01
      vertex   3.702752e+00 1.093921e+01 -1.657606e-01
      vertex   3.695581e+00 1.094170e+01 -1.606298e-01
    endloop
  endfacet
  facet normal 3.197514e-01 9.473963e-01 -1.412067e-02
    outer loop
      vertex   3.695581e+00 1.094170e+01 -1.606298e-01
      vertex   3.702752e+00 1.093921e+01 -1.657606e-01
      vertex   3.704538e+00 1.093845e+01 -1.758419e-01
    endloop
  endfacet
  facet normal 3.241817e-01 9.459024e-01 -1.322383e-02
    outer loop
      vertex   3.704538e+00 1.093845e+01 -1.758419e-01
      vertex   3.702752e+00 1.093921e+01 -1.657606e-01
      vertex   3.785719e+00 1.091077e+01 -1.657606e-01
    endloop
  endfacet
  facet normal 3.241462e-01 9.459191e-01 -1.289250e-02
    outer loop
      vertex   3.704538e+00 1.093845e+01 -1.758419e-01
      vertex   3.785719e+00 1.091077e+01 -1.657606e-01
      vertex   3.713748e+00 1.093509e+01 -1.908667e-01
    endloop
  endfacet
  facet normal 3.245784e-01 9.457508e-01 -1.429459e-02
    outer loop
      vertex   3.713748e+00 1.093509e+01 -1.908667e-01
      vertex   3.785719e+00 1.091077e+01 -1.657606e-01
      vertex   3.723207e+00 1.093162e+01 -2.056992e-01
    endloop
  endfacet
  facet normal 3.254255e-01 9.454359e-01 -1.578485e-02
    outer loop
      vertex   3.723207e+00 1.093162e+01 -2.056992e-01
      vertex   3.785719e+00 1.091077e+01 -1.657606e-01
      vertex   3.785503e+00 1.090992e+01 -2.212184e-01
    endloop
  endfacet
  facet normal 3.255291e-01 9.454078e-01 -1.532983e-02
    outer loop
      vertex   3.723207e+00 1.093162e+01 -2.056992e-01
      vertex   3.785503e+00 1.090992e+01 -2.212184e-01
      vertex   3.732915e+00 1.092804e+01 -2.203343e-01
    endloop
  endfacet
  facet normal 3.254927e-01 9.453896e-01 -1.711993e-02
    outer loop
      vertex   3.732915e+00 1.092804e+01 -2.203343e-01
      vertex   3.785503e+00 1.090992e+01 -2.212184e-01
      vertex   3.742870e+00 1.092435e+01 -2.347672e-01
    endloop
  endfacet
  facet normal 3.259056e-01 9.452193e-01 -1.860065e-02
    outer loop
      vertex   3.742870e+00 1.092435e+01 -2.347672e-01
      vertex   3.785503e+00 1.090992e+01 -2.212184e-01
      vertex   3.753070e+00 1.092056e+01 -2.489929e-01
    endloop
  endfacet
  facet normal 3.267693e-01 9.448981e-01 -1.973222e-02
    outer loop
      vertex   3.753070e+00 1.092056e+01 -2.489929e-01
      vertex   3.785503e+00 1.090992e+01 -2.212184e-01
      vertex   3.763512e+00 1.091665e+01 -2.630063e-01
    endloop
  endfacet
  facet normal 3.277569e-01 9.445438e-01 -2.030901e-02
    outer loop
      vertex   3.763512e+00 1.091665e+01 -2.630063e-01
      vertex   3.785503e+00 1.090992e+01 -2.212184e-01
      vertex   3.785203e+00 1.090883e+01 -2.767760e-01
    endloop
  endfacet
  facet normal 3.272479e-01 9.447007e-01 -2.119992e-02
    outer loop
      vertex   3.763512e+00 1.091665e+01 -2.630063e-01
      vertex   3.785203e+00 1.090883e+01 -2.767760e-01
      vertex   3.774195e+00 1.091264e+01 -2.768025e-01
    endloop
  endfacet
  facet normal 3.272380e-01 9.446586e-01 -2.313797e-02
    outer loop
      vertex   3.774195e+00 1.091264e+01 -2.768025e-01
      vertex   3.785203e+00 1.090883e+01 -2.767760e-01
      vertex   3.785118e+00 1.090853e+01 -2.903765e-01
    endloop
  endfacet
  facet normal 3.312680e-01 9.432531e-01 -2.313208e-02
    outer loop
      vertex   3.785118e+00 1.090853e+01 -2.903765e-01
      vertex   3.785203e+00 1.090883e+01 -2.767760e-01
      vertex   3.867011e+00 1.088010e+01 -2.767760e-01
    endloop
  endfacet
  facet normal 3.310464e-01 9.433682e-01 -2.155710e-02
    outer loop
      vertex   3.785118e+00 1.090853e+01 -2.903765e-01
      vertex   3.867011e+00 1.088010e+01 -2.767760e-01
      vertex   3.796277e+00 1.090431e+01 -3.037233e-01
    endloop
  endfacet
  facet normal 3.315309e-01 9.431637e-01 -2.301262e-02
    outer loop
      vertex   3.796277e+00 1.090431e+01 -3.037233e-01
      vertex   3.867011e+00 1.088010e+01 -2.767760e-01
      vertex   3.807672e+00 1.089998e+01 -3.168379e-01
    endloop
  endfacet
  facet normal 3.326224e-01 9.427328e-01 -2.484320e-02
    outer loop
      vertex   3.807672e+00 1.089998e+01 -3.168379e-01
      vertex   3.867011e+00 1.088010e+01 -2.767760e-01
      vertex   3.866516e+00 1.087881e+01 -3.324316e-01
    endloop
  endfacet
  facet normal 3.329315e-01 9.426563e-01 -2.357315e-02
    outer loop
      vertex   3.807672e+00 1.089998e+01 -3.168379e-01
      vertex   3.866516e+00 1.087881e+01 -3.324316e-01
      vertex   3.819300e+00 1.089555e+01 -3.297154e-01
    endloop
  endfacet
  facet normal 3.328045e-01 9.426452e-01 -2.571160e-02
    outer loop
      vertex   3.819300e+00 1.089555e+01 -3.297154e-01
      vertex   3.866516e+00 1.087881e+01 -3.324316e-01
      vertex   3.831159e+00 1.089102e+01 -3.423508e-01
    endloop
  endfacet
  facet normal 3.332037e-01 9.424577e-01 -2.736531e-02
    outer loop
      vertex   3.831159e+00 1.089102e+01 -3.423508e-01
      vertex   3.866516e+00 1.087881e+01 -3.324316e-01
      vertex   3.843249e+00 1.088639e+01 -3.547391e-01
    endloop
  endfacet
  facet normal 3.341382e-01 9.420942e-01 -2.846350e-02
    outer loop
      vertex   3.843249e+00 1.088639e+01 -3.547391e-01
      vertex   3.866516e+00 1.087881e+01 -3.324316e-01
      vertex   3.855565e+00 1.088165e+01 -3.668753e-01
    endloop
  endfacet
  facet normal 3.355839e-01 9.415648e-01 -2.896686e-02
    outer loop
      vertex   3.855565e+00 1.088165e+01 -3.668753e-01
      vertex   3.866516e+00 1.087881e+01 -3.324316e-01
      vertex   3.868108e+00 1.087681e+01 -3.787544e-01
    endloop
  endfacet
  facet normal 3.383075e-01 9.405938e-01 -2.883150e-02
    outer loop
      vertex   3.868108e+00 1.087681e+01 -3.787544e-01
      vertex   3.866516e+00 1.087881e+01 -3.324316e-01
      vertex   3.948785e+00 1.084920e+01 -3.330512e-01
    endloop
  endfacet
  facet normal 3.380078e-01 9.407199e-01 -2.822635e-02
    outer loop
      vertex   3.868108e+00 1.087681e+01 -3.787544e-01
      vertex   3.948785e+00 1.084920e+01 -3.330512e-01
      vertex   3.880870e+00 1.087188e+01 -3.903672e-01
    endloop
  endfacet
  facet normal 3.388595e-01 9.403784e-01 -2.937060e-02
    outer loop
      vertex   3.880870e+00 1.087188e+01 -3.903672e-01
      vertex   3.948785e+00 1.084920e+01 -3.330512e-01
      vertex   3.893831e+00 1.086686e+01 -4.016931e-01
    endloop
  endfacet
  facet normal 3.414347e-01 9.393710e-01 -3.169152e-02
    outer loop
      vertex   3.893831e+00 1.086686e+01 -4.016931e-01
      vertex   3.948785e+00 1.084920e+01 -3.330512e-01
      vertex   3.947582e+00 1.084589e+01 -4.440307e-01
    endloop
  endfacet
  facet normal 3.807714e-01 9.243118e-01 2.570663e-02
    outer loop
      vertex   3.893831e+00 1.086686e+01 -4.016931e-01
      vertex   3.947582e+00 1.084589e+01 -4.440307e-01
      vertex   3.906986e+00 1.086174e+01 -4.127265e-01
    endloop
  endfacet
  facet normal 3.806855e-01 9.243508e-01 2.557547e-02
    outer loop
      vertex   3.906986e+00 1.086174e+01 -4.127265e-01
      vertex   3.947582e+00 1.084589e+01 -4.440307e-01
      vertex   3.920332e+00 1.085654e+01 -4.234633e-01
    endloop
  endfacet
  facet normal 3.806012e-01 9.243891e-01 2.544393e-02
    outer loop
      vertex   3.920332e+00 1.085654e+01 -4.234633e-01
      vertex   3.947582e+00 1.084589e+01 -4.440307e-01
      vertex   3.933865e+00 1.085126e+01 -4.338994e-01
    endloop
  endfacet
  facet normal 3.242089e-01 9.459828e-01 -2.254056e-03
    outer loop
      vertex   3.703318e+00 1.094020e+01 1.692910e-14
      vertex   3.785874e+00 1.091190e+01 0.000000e+00
      vertex   3.703209e+00 1.094010e+01 -5.514983e-02
    endloop
  endfacet
  facet normal 3.242090e-01 9.459828e-01 -2.254187e-03
    outer loop
      vertex   3.703209e+00 1.094010e+01 -5.514983e-02
      vertex   3.785874e+00 1.091190e+01 0.000000e+00
      vertex   3.785904e+00 1.091176e+01 -5.514983e-02
    endloop
  endfacet
  facet normal 3.242024e-01 9.459636e-01 -6.756425e-03
    outer loop
      vertex   3.703209e+00 1.094010e+01 -5.514983e-02
      vertex   3.785904e+00 1.091176e+01 -5.514983e-02
      vertex   3.703021e+00 1.093977e+01 -1.104038e-01
    endloop
  endfacet
  facet normal 3.242025e-01 9.459636e-01 -6.756556e-03
    outer loop
      vertex   3.703021e+00 1.093977e+01 -1.104038e-01
      vertex   3.785904e+00 1.091176e+01 -5.514983e-02
      vertex   3.785853e+00 1.091139e+01 -1.104038e-01
    endloop
  endfacet
  facet normal 3.241893e-01 9.459251e-01 -1.126726e-02
    outer loop
      vertex   3.703021e+00 1.093977e+01 -1.104038e-01
      vertex   3.785853e+00 1.091139e+01 -1.104038e-01
      vertex   3.702752e+00 1.093921e+01 -1.657606e-01
    endloop
  endfacet
  facet normal 3.241894e-01 9.459251e-01 -1.126739e-02
    outer loop
      vertex   3.702752e+00 1.093921e+01 -1.657606e-01
      vertex   3.785853e+00 1.091139e+01 -1.104038e-01
      vertex   3.785719e+00 1.091077e+01 -1.657606e-01
    endloop
  endfacet
  facet normal 3.313473e-01 9.435062e-01 -2.243935e-03
    outer loop
      vertex   3.785874e+00 1.091190e+01 0.000000e+00
      vertex   3.868214e+00 1.088299e+01 0.000000e+00
      vertex   3.785904e+00 1.091176e+01 -5.514983e-02
    endloop
  endfacet
  facet normal 3.313490e-01 9.435056e-01 -2.246781e-03
    outer loop
      vertex   3.785904e+00 1.091176e+01 -5.514983e-02
      vertex   3.868214e+00 1.088299e+01 0.000000e+00
      vertex   3.868141e+00 1.088288e+01 -5.514983e-02
    endloop
  endfacet
  facet normal 3.313423e-01 9.434865e-01 -6.746322e-03
    outer loop
      vertex   3.785904e+00 1.091176e+01 -5.514983e-02
      vertex   3.868141e+00 1.088288e+01 -5.514983e-02
      vertex   3.785853e+00 1.091139e+01 -1.104038e-01
    endloop
  endfacet
  facet normal 3.313440e-01 9.434859e-01 -6.749158e-03
    outer loop
      vertex   3.785853e+00 1.091139e+01 -1.104038e-01
      vertex   3.868141e+00 1.088288e+01 -5.514983e-02
      vertex   3.867985e+00 1.088254e+01 -1.104038e-01
    endloop
  endfacet
  facet normal 3.313306e-01 9.434476e-01 -1.125717e-02
    outer loop
      vertex   3.785853e+00 1.091139e+01 -1.104038e-01
      vertex   3.867985e+00 1.088254e+01 -1.104038e-01
      vertex   3.785719e+00 1.091077e+01 -1.657606e-01
    endloop
  endfacet
  facet normal 3.313322e-01 9.434470e-01 -1.126000e-02
    outer loop
      vertex   3.785719e+00 1.091077e+01 -1.657606e-01
      vertex   3.867985e+00 1.088254e+01 -1.104038e-01
      vertex   3.867744e+00 1.088197e+01 -1.657606e-01
    endloop
  endfacet
  facet normal 3.313120e-01 9.433893e-01 -1.577638e-02
    outer loop
      vertex   3.785719e+00 1.091077e+01 -1.657606e-01
      vertex   3.867744e+00 1.088197e+01 -1.657606e-01
      vertex   3.785503e+00 1.090992e+01 -2.212184e-01
    endloop
  endfacet
  facet normal 3.313137e-01 9.433887e-01 -1.577920e-02
    outer loop
      vertex   3.785503e+00 1.090992e+01 -2.212184e-01
      vertex   3.867744e+00 1.088197e+01 -1.657606e-01
      vertex   3.867420e+00 1.088115e+01 -2.212184e-01
    endloop
  endfacet
  facet normal 3.312866e-01 9.433117e-01 -2.030383e-02
    outer loop
      vertex   3.785503e+00 1.090992e+01 -2.212184e-01
      vertex   3.867420e+00 1.088115e+01 -2.212184e-01
      vertex   3.785203e+00 1.090883e+01 -2.767760e-01
    endloop
  endfacet
  facet normal 3.312883e-01 9.433110e-01 -2.030664e-02
    outer loop
      vertex   3.785203e+00 1.090883e+01 -2.767760e-01
      vertex   3.867420e+00 1.088115e+01 -2.212184e-01
      vertex   3.867011e+00 1.088010e+01 -2.767760e-01
    endloop
  endfacet
  facet normal 3.384668e-01 9.409757e-01 -2.251335e-03
    outer loop
      vertex   3.868214e+00 1.088299e+01 0.000000e+00
      vertex   3.950333e+00 1.085345e+01 -1.734723e-17
      vertex   3.868141e+00 1.088288e+01 -5.514983e-02
    endloop
  endfacet
  facet normal 3.398171e-01 9.404807e-01 -4.527900e-03
    outer loop
      vertex   3.868141e+00 1.088288e+01 -5.514983e-02
      vertex   3.950333e+00 1.085345e+01 -1.734723e-17
      vertex   3.950161e+00 1.085298e+01 -1.110286e-01
    endloop
  endfacet
  facet normal 3.384725e-01 9.409520e-01 -6.753711e-03
    outer loop
      vertex   3.868141e+00 1.088288e+01 -5.514983e-02
      vertex   3.950161e+00 1.085298e+01 -1.110286e-01
      vertex   3.867985e+00 1.088254e+01 -1.104038e-01
    endloop
  endfacet
  facet normal 3.384284e-01 9.409247e-01 -1.126452e-02
    outer loop
      vertex   3.867985e+00 1.088254e+01 -1.104038e-01
      vertex   3.950161e+00 1.085298e+01 -1.110286e-01
      vertex   3.867744e+00 1.088197e+01 -1.657606e-01
    endloop
  endfacet
  facet normal 3.397855e-01 9.404049e-01 -1.358340e-02
    outer loop
      vertex   3.950161e+00 1.085298e+01 -1.110286e-01
      vertex   3.949645e+00 1.085156e+01 -2.220481e-01
      vertex   3.867744e+00 1.088197e+01 -1.657606e-01
    endloop
  endfacet
  facet normal 3.384405e-01 9.408554e-01 -1.578373e-02
    outer loop
      vertex   3.867744e+00 1.088197e+01 -1.657606e-01
      vertex   3.949645e+00 1.085156e+01 -2.220481e-01
      vertex   3.867420e+00 1.088115e+01 -2.212184e-01
    endloop
  endfacet
  facet normal 3.383724e-01 9.407931e-01 -2.031114e-02
    outer loop
      vertex   3.867420e+00 1.088115e+01 -2.212184e-01
      vertex   3.949645e+00 1.085156e+01 -2.220481e-01
      vertex   3.867011e+00 1.088010e+01 -2.767760e-01
    endloop
  endfacet
  facet normal 3.397266e-01 9.402518e-01 -2.263806e-02
    outer loop
      vertex   3.867011e+00 1.088010e+01 -2.767760e-01
      vertex   3.949645e+00 1.085156e+01 -2.220481e-01
      vertex   3.948785e+00 1.084920e+01 -3.330512e-01
    endloop
  endfacet
  facet normal 3.383703e-01 9.406849e-01 -2.484673e-02
    outer loop
      vertex   3.867011e+00 1.088010e+01 -2.767760e-01
      vertex   3.948785e+00 1.084920e+01 -3.330512e-01
      vertex   3.866516e+00 1.087881e+01 -3.324316e-01
    endloop
  endfacet
  facet normal 9.396926e-01 -3.420201e-01 4.876764e-14
    outer loop
      vertex   3.950333e+00 1.085345e+01 -1.734723e-17
      vertex   3.789033e+00 1.041028e+01 -4.250073e-16
      vertex   3.950161e+00 1.085298e+01 -1.110286e-01
    endloop
  endfacet
  facet normal 9.396926e-01 -3.420201e-01 5.344659e-08
    outer loop
      vertex   3.950161e+00 1.085298e+01 -1.110286e-01
      vertex   3.789033e+00 1.041028e+01 -4.250073e-16
      vertex   3.788851e+00 1.040978e+01 -1.141289e-01
    endloop
  endfacet
  facet normal 9.396926e-01 -3.420201e-01 -1.757719e-10
    outer loop
      vertex   3.950161e+00 1.085298e+01 -1.110286e-01
      vertex   3.788851e+00 1.040978e+01 -1.141289e-01
      vertex   3.949645e+00 1.085156e+01 -2.220481e-01
    endloop
  endfacet
  facet normal 9.396926e-01 -3.420201e-01 1.171644e-07
    outer loop
      vertex   3.949645e+00 1.085156e+01 -2.220481e-01
      vertex   3.788851e+00 1.040978e+01 -1.141289e-01
      vertex   3.788305e+00 1.040828e+01 -2.282480e-01
    endloop
  endfacet
  facet normal 9.396926e-01 -3.420201e-01 -4.438842e-08
    outer loop
      vertex   3.949645e+00 1.085156e+01 -2.220481e-01
      vertex   3.788305e+00 1.040828e+01 -2.282480e-01
      vertex   3.867156e+00 1.062492e+01 -4.502920e-01
    endloop
  endfacet
  facet normal 9.396927e-01 -3.420200e-01 1.132257e-07
    outer loop
      vertex   3.867156e+00 1.062492e+01 -4.502920e-01
      vertex   3.788305e+00 1.040828e+01 -2.282480e-01
      vertex   3.787396e+00 1.040579e+01 -3.423490e-01
    endloop
  endfacet
  facet normal 9.396926e-01 -3.420201e-01 -2.892004e-07
    outer loop
      vertex   3.867156e+00 1.062492e+01 -4.502920e-01
      vertex   3.787396e+00 1.040579e+01 -3.423490e-01
      vertex   3.826715e+00 1.051381e+01 -4.533741e-01
    endloop
  endfacet
  facet normal 9.396927e-01 -3.420198e-01 4.282511e-08
    outer loop
      vertex   3.826715e+00 1.051381e+01 -4.533741e-01
      vertex   3.787396e+00 1.040579e+01 -3.423490e-01
      vertex   3.786124e+00 1.040229e+01 -4.564236e-01
    endloop
  endfacet
  facet normal 9.396926e-01 -3.420201e-01 -8.953854e-14
    outer loop
      vertex   3.867156e+00 1.062492e+01 -4.502920e-01
      vertex   3.907446e+00 1.073562e+01 -4.471775e-01
      vertex   3.949645e+00 1.085156e+01 -2.220481e-01
    endloop
  endfacet
  facet normal 9.396926e-01 -3.420201e-01 1.188667e-13
    outer loop
      vertex   3.949645e+00 1.085156e+01 -2.220481e-01
      vertex   3.907446e+00 1.073562e+01 -4.471775e-01
      vertex   3.948785e+00 1.084920e+01 -3.330512e-01
    endloop
  endfacet
  facet normal 9.396926e-01 -3.420201e-01 7.471207e-14
    outer loop
      vertex   3.948785e+00 1.084920e+01 -3.330512e-01
      vertex   3.907446e+00 1.073562e+01 -4.471775e-01
      vertex   3.947582e+00 1.084589e+01 -4.440307e-01
    endloop
  endfacet
  facet normal -1.057831e-16 -8.813744e-16 1.000000e+00
    outer loop
      vertex   3.950333e+00 1.085345e+01 -1.734723e-17
      vertex   3.868214e+00 1.088299e+01 0.000000e+00
      vertex   3.789033e+00 1.041028e+01 -4.250073e-16
    endloop
  endfacet
  facet normal 3.675826e-15 -1.514816e-15 1.000000e+00
    outer loop
      vertex   3.789033e+00 1.041028e+01 -4.250073e-16
      vertex   3.868214e+00 1.088299e+01 0.000000e+00
      vertex   3.683377e+00 1.044648e+01 1.819496e-17
    endloop
  endfacet
  facet normal 1.274345e-17 3.628676e-17 1.000000e+00
    outer loop
      vertex   3.683377e+00 1.044648e+01 1.819496e-17
      vertex   3.868214e+00 1.088299e+01 0.000000e+00
      vertex   3.785874e+00 1.091190e+01 0.000000e+00
    endloop
  endfacet
  facet normal -1.478734e-16 7.165809e-17 1.000000e+00
    outer loop
      vertex   3.683377e+00 1.044648e+01 1.819496e-17
      vertex   3.785874e+00 1.091190e+01 0.000000e+00
      vertex   3.577375e+00 1.048165e+01 0.000000e+00
    endloop
  endfacet
  facet normal 1.758556e-13 -8.521799e-14 1.000000e+00
    outer loop
      vertex   3.577375e+00 1.048165e+01 0.000000e+00
      vertex   3.785874e+00 1.091190e+01 0.000000e+00
      vertex   3.703318e+00 1.094020e+01 1.692910e-14
    endloop
  endfacet
  facet normal 9.662142e-13 -3.022931e-13 1.000000e+00
    outer loop
      vertex   3.577375e+00 1.048165e+01 0.000000e+00
      vertex   3.703318e+00 1.094020e+01 1.692910e-14
      vertex   3.508373e+00 1.050392e+01 7.340512e-14
    endloop
  endfacet
  facet normal 4.744021e-13 -8.253137e-14 1.000000e+00
    outer loop
      vertex   3.508373e+00 1.050392e+01 7.340512e-14
      vertex   3.703318e+00 1.094020e+01 1.692910e-14
      vertex   3.620551e+00 1.096787e+01 5.847753e-14
    endloop
  endfacet
  facet normal 9.958881e-13 -2.086228e-13 1.000000e+00
    outer loop
      vertex   3.508373e+00 1.050392e+01 7.340512e-14
      vertex   3.620551e+00 1.096787e+01 5.847753e-14
      vertex   3.439232e+00 1.052577e+01 1.468183e-13
    endloop
  endfacet
endsolid
