solid ASCII
  facet normal 1.308177e-01 -9.425773e-01 -3.073024e-01
    outer loop
      vertex   -1.518875e+00 1.012478e+01 3.726352e+00
      vertex   -1.424539e+00 1.013793e+01 3.726155e+00
      vertex   -1.474575e+00 1.012425e+01 3.746812e+00
    endloop
  endfacet
  facet normal 1.284191e-01 -9.412793e-01 -3.122529e-01
    outer loop
      vertex   -1.474575e+00 1.012425e+01 3.746812e+00
      vertex   -1.424539e+00 1.013793e+01 3.726155e+00
      vertex   -1.429960e+00 1.012380e+01 3.766542e+00
    endloop
  endfacet
  facet normal 1.240782e-01 -9.416274e-01 -3.129575e-01
    outer loop
      vertex   -1.429960e+00 1.012380e+01 3.766542e+00
      vertex   -1.424539e+00 1.013793e+01 3.726155e+00
      vertex   -1.385042e+00 1.012340e+01 3.785539e+00
    endloop
  endfacet
  facet normal 1.222188e-01 -9.422317e-01 -3.118686e-01
    outer loop
      vertex   -1.385042e+00 1.012340e+01 3.785539e+00
      vertex   -1.424539e+00 1.013793e+01 3.726155e+00
      vertex   -1.330090e+00 1.015024e+01 3.725971e+00
    endloop
  endfacet
  facet normal 1.197980e-01 -9.418570e-01 -3.139330e-01
    outer loop
      vertex   -1.385042e+00 1.012340e+01 3.785539e+00
      vertex   -1.330090e+00 1.015024e+01 3.725971e+00
      vertex   -1.322650e+00 1.012731e+01 3.797613e+00
    endloop
  endfacet
  facet normal 1.137555e-01 -9.427225e-01 -3.135825e-01
    outer loop
      vertex   -1.322650e+00 1.012731e+01 3.797613e+00
      vertex   -1.330090e+00 1.015024e+01 3.725971e+00
      vertex   -1.235535e+00 1.016171e+01 3.725799e+00
    endloop
  endfacet
  facet normal 1.132747e-01 -9.426050e-01 -3.141094e-01
    outer loop
      vertex   -1.322650e+00 1.012731e+01 3.797613e+00
      vertex   -1.235535e+00 1.016171e+01 3.725799e+00
      vertex   -1.226566e+00 1.013886e+01 3.797613e+00
    endloop
  endfacet
  facet normal 1.053645e-01 -9.437313e-01 -3.134798e-01
    outer loop
      vertex   -1.226566e+00 1.013886e+01 3.797613e+00
      vertex   -1.235535e+00 1.016171e+01 3.725799e+00
      vertex   -1.140880e+00 1.017233e+01 3.725639e+00
    endloop
  endfacet
  facet normal 1.047380e-01 -9.435769e-01 -3.141538e-01
    outer loop
      vertex   -1.226566e+00 1.013886e+01 3.797613e+00
      vertex   -1.140880e+00 1.017233e+01 3.725639e+00
      vertex   -1.130684e+00 1.014950e+01 3.797613e+00
    endloop
  endfacet
  facet normal 9.696487e-02 -9.446591e-01 -3.133960e-01
    outer loop
      vertex   -1.130684e+00 1.014950e+01 3.797613e+00
      vertex   -1.140880e+00 1.017233e+01 3.725639e+00
      vertex   -1.046130e+00 1.018211e+01 3.725492e+00
    endloop
  endfacet
  facet normal 9.622181e-02 -9.444735e-01 -3.141833e-01
    outer loop
      vertex   -1.130684e+00 1.014950e+01 3.797613e+00
      vertex   -1.046130e+00 1.018211e+01 3.725492e+00
      vertex   -1.035017e+00 1.015925e+01 3.797613e+00
    endloop
  endfacet
  facet normal 8.855724e-02 -9.455063e-01 -3.133296e-01
    outer loop
      vertex   -1.035017e+00 1.015925e+01 3.797613e+00
      vertex   -1.046130e+00 1.018211e+01 3.725492e+00
      vertex   -9.512911e-01 1.019103e+01 3.725358e+00
    endloop
  endfacet
  facet normal 8.772690e-02 -9.452952e-01 -3.141989e-01
    outer loop
      vertex   -1.035017e+00 1.015925e+01 3.797613e+00
      vertex   -9.512911e-01 1.019103e+01 3.725358e+00
      vertex   -9.395767e-01 1.016810e+01 3.797613e+00
    endloop
  endfacet
  facet normal 8.014226e-02 -9.462733e-01 -3.132796e-01
    outer loop
      vertex   -9.395767e-01 1.016810e+01 3.797613e+00
      vertex   -9.512911e-01 1.019103e+01 3.725358e+00
      vertex   -8.563701e-01 1.019911e+01 3.725236e+00
    endloop
  endfacet
  facet normal 7.925403e-02 -9.460423e-01 -3.142018e-01
    outer loop
      vertex   -9.395767e-01 1.016810e+01 3.797613e+00
      vertex   -8.563701e-01 1.019911e+01 3.725236e+00
      vertex   -8.443737e-01 1.017608e+01 3.797613e+00
    endloop
  endfacet
  facet normal 7.172102e-02 -9.469601e-01 -3.132453e-01
    outer loop
      vertex   -8.443737e-01 1.017608e+01 3.797613e+00
      vertex   -8.563701e-01 1.019911e+01 3.725236e+00
      vertex   -7.613833e-01 1.020634e+01 3.725127e+00
    endloop
  endfacet
  facet normal 7.080397e-02 -9.467151e-01 -3.141930e-01
    outer loop
      vertex   -8.443737e-01 1.017608e+01 3.797613e+00
      vertex   -7.613833e-01 1.020634e+01 3.725127e+00
      vertex   -7.494195e-01 1.018318e+01 3.797613e+00
    endloop
  endfacet
  facet normal 6.329472e-02 -9.475671e-01 -3.132258e-01
    outer loop
      vertex   -7.494195e-01 1.018318e+01 3.797613e+00
      vertex   -7.613833e-01 1.020634e+01 3.725127e+00
      vertex   -6.663413e-01 1.021272e+01 3.725031e+00
    endloop
  endfacet
  facet normal 6.237748e-02 -9.473144e-01 -3.141728e-01
    outer loop
      vertex   -7.494195e-01 1.018318e+01 3.797613e+00
      vertex   -6.663413e-01 1.021272e+01 3.725031e+00
      vertex   -6.547249e-01 1.018942e+01 3.797613e+00
    endloop
  endfacet
  facet normal 5.486413e-02 -9.480942e-01 -3.132208e-01
    outer loop
      vertex   -6.547249e-01 1.018942e+01 3.797613e+00
      vertex   -6.663413e-01 1.021272e+01 3.725031e+00
      vertex   -5.712500e-01 1.021825e+01 3.724948e+00
    endloop
  endfacet
  facet normal 5.397531e-02 -9.478407e-01 -3.141412e-01
    outer loop
      vertex   -6.547249e-01 1.018942e+01 3.797613e+00
      vertex   -5.712500e-01 1.021825e+01 3.724948e+00
      vertex   -5.603006e-01 1.019479e+01 3.797613e+00
    endloop
  endfacet
  facet normal 4.642982e-02 -9.485415e-01 -3.132305e-01
    outer loop
      vertex   -5.603006e-01 1.019479e+01 3.797613e+00
      vertex   -5.712500e-01 1.021825e+01 3.724948e+00
      vertex   -4.761154e-01 1.022293e+01 3.724877e+00
    endloop
  endfacet
  facet normal 4.559823e-02 -9.482950e-01 -3.140976e-01
    outer loop
      vertex   -5.603006e-01 1.019479e+01 3.797613e+00
      vertex   -4.761154e-01 1.022293e+01 3.724877e+00
      vertex   -4.661570e-01 1.019932e+01 3.797613e+00
    endloop
  endfacet
  facet normal 3.799234e-02 -9.489086e-01 -3.132555e-01
    outer loop
      vertex   -4.661570e-01 1.019932e+01 3.797613e+00
      vertex   -4.761154e-01 1.022293e+01 3.724877e+00
      vertex   -3.809434e-01 1.022676e+01 3.724819e+00
    endloop
  endfacet
  facet normal 3.724695e-02 -9.486784e-01 -3.140413e-01
    outer loop
      vertex   -4.661570e-01 1.019932e+01 3.797613e+00
      vertex   -3.809434e-01 1.022676e+01 3.724819e+00
      vertex   -3.723044e-01 1.020301e+01 3.797613e+00
    endloop
  endfacet
  facet normal 2.955226e-02 -9.491953e-01 -3.132968e-01
    outer loop
      vertex   -3.723044e-01 1.020301e+01 3.797613e+00
      vertex   -3.809434e-01 1.022676e+01 3.724819e+00
      vertex   -2.857399e-01 1.022974e+01 3.724774e+00
    endloop
  endfacet
  facet normal 2.892219e-02 -9.489920e-01 -3.139709e-01
    outer loop
      vertex   -3.723044e-01 1.020301e+01 3.797613e+00
      vertex   -2.857399e-01 1.022974e+01 3.724774e+00
      vertex   -2.787527e-01 1.020586e+01 3.797613e+00
    endloop
  endfacet
  facet normal 2.111015e-02 -9.494011e-01 -3.133557e-01
    outer loop
      vertex   -2.787527e-01 1.020586e+01 3.797613e+00
      vertex   -2.857399e-01 1.022974e+01 3.724774e+00
      vertex   -1.905109e-01 1.023187e+01 3.724742e+00
    endloop
  endfacet
  facet normal 2.062461e-02 -9.492370e-01 -3.138851e-01
    outer loop
      vertex   -2.787527e-01 1.020586e+01 3.797613e+00
      vertex   -1.905109e-01 1.023187e+01 3.724742e+00
      vertex   -1.855117e-01 1.020788e+01 3.797613e+00
    endloop
  endfacet
  facet normal 1.441824e-02 -9.494672e-01 -3.135351e-01
    outer loop
      vertex   -1.855117e-01 1.020788e+01 3.797613e+00
      vertex   -1.905109e-01 1.023187e+01 3.724742e+00
      vertex   -1.390108e-01 1.020859e+01 3.797613e+00
    endloop
  endfacet
  facet normal 1.438644e-02 -9.473729e-01 -3.198087e-01
    outer loop
      vertex   -1.855117e-01 1.020788e+01 3.797613e+00
      vertex   -1.390108e-01 1.020859e+01 3.797613e+00
      vertex   -1.386760e-01 1.018401e+01 3.870449e+00
    endloop
  endfacet
  facet normal 1.026714e-02 -9.474267e-01 -3.198080e-01
    outer loop
      vertex   -1.386760e-01 1.018401e+01 3.870449e+00
      vertex   -1.390108e-01 1.020859e+01 3.797613e+00
      vertex   -9.236809e-02 1.018451e+01 3.870449e+00
    endloop
  endfacet
  facet normal 1.024442e-02 -9.453303e-01 -3.259534e-01
    outer loop
      vertex   -1.386760e-01 1.018401e+01 3.870449e+00
      vertex   -9.236809e-02 1.018451e+01 3.870449e+00
      vertex   -9.214055e-02 1.015942e+01 3.943217e+00
    endloop
  endfacet
  facet normal 6.141500e-03 -9.453661e-01 -3.259529e-01
    outer loop
      vertex   -9.214055e-02 1.015942e+01 3.943217e+00
      vertex   -9.236809e-02 1.018451e+01 3.870449e+00
      vertex   -4.602870e-02 1.015972e+01 3.943217e+00
    endloop
  endfacet
  facet normal 6.128618e-03 -9.433831e-01 -3.316484e-01
    outer loop
      vertex   -9.214055e-02 1.015942e+01 3.943217e+00
      vertex   -4.602870e-02 1.015972e+01 3.943217e+00
      vertex   -4.865969e-02 1.013726e+01 4.007050e+00
    endloop
  endfacet
  facet normal 2.363037e-03 -9.433497e-01 -3.317919e-01
    outer loop
      vertex   -4.865969e-02 1.013726e+01 4.007050e+00
      vertex   -4.602870e-02 1.015972e+01 3.943217e+00
      vertex   -7.899978e-09 1.013861e+01 4.003560e+00
    endloop
  endfacet
  facet normal -2.847007e-03 -9.445865e-01 -3.282503e-01
    outer loop
      vertex   -7.899978e-09 1.013861e+01 4.003560e+00
      vertex   -4.602870e-02 1.015972e+01 3.943217e+00
      vertex   -3.949990e-09 1.018697e+01 3.864415e+00
    endloop
  endfacet
  facet normal 1.559980e-03 -9.453849e-01 -3.259523e-01
    outer loop
      vertex   -3.949990e-09 1.018697e+01 3.864415e+00
      vertex   -4.602870e-02 1.015972e+01 3.943217e+00
      vertex   -4.614237e-02 1.018481e+01 3.870449e+00
    endloop
  endfacet
  facet normal 2.461381e-03 -9.474793e-01 -3.198075e-01
    outer loop
      vertex   -3.949990e-09 1.018697e+01 3.864415e+00
      vertex   -4.614237e-02 1.018481e+01 3.870449e+00
      vertex   -4.625375e-02 1.020939e+01 3.797613e+00
    endloop
  endfacet
  facet normal 6.155120e-03 -9.474626e-01 -3.198075e-01
    outer loop
      vertex   -4.625375e-02 1.020939e+01 3.797613e+00
      vertex   -4.614237e-02 1.018481e+01 3.870449e+00
      vertex   -9.259105e-02 1.020909e+01 3.797613e+00
    endloop
  endfacet
  facet normal 6.168594e-03 -9.495367e-01 -3.135952e-01
    outer loop
      vertex   -4.625375e-02 1.020939e+01 3.797613e+00
      vertex   -9.259105e-02 1.020909e+01 3.797613e+00
      vertex   -9.526225e-02 1.023315e+01 3.724723e+00
    endloop
  endfacet
  facet normal 1.028917e-02 -9.494595e-01 -3.137208e-01
    outer loop
      vertex   -9.526225e-02 1.023315e+01 3.724723e+00
      vertex   -9.259105e-02 1.020909e+01 3.797613e+00
      vertex   -1.390108e-01 1.020859e+01 3.797613e+00
    endloop
  endfacet
  facet normal 1.267126e-02 -9.498578e-01 -3.124253e-01
    outer loop
      vertex   -9.526225e-02 1.023315e+01 3.724723e+00
      vertex   -1.390108e-01 1.020859e+01 3.797613e+00
      vertex   -1.905109e-01 1.023187e+01 3.724742e+00
    endloop
  endfacet
  facet normal 4.223940e-03 -9.499354e-01 -3.124177e-01
    outer loop
      vertex   -9.526225e-02 1.023315e+01 3.724723e+00
      vertex   -1.472095e-15 1.023357e+01 3.724716e+00
      vertex   -4.625375e-02 1.020939e+01 3.797613e+00
    endloop
  endfacet
  facet normal -2.882360e-03 -9.485942e-01 -3.164818e-01
    outer loop
      vertex   -4.625375e-02 1.020939e+01 3.797613e+00
      vertex   -1.472095e-15 1.023357e+01 3.724716e+00
      vertex   -3.949990e-09 1.018697e+01 3.864415e+00
    endloop
  endfacet
  facet normal 6.651944e-03 -9.432682e-01 -3.319650e-01
    outer loop
      vertex   -4.865969e-02 1.013726e+01 4.007050e+00
      vertex   -9.738469e-02 1.013597e+01 4.009749e+00
      vertex   -9.214055e-02 1.015942e+01 3.943217e+00
    endloop
  endfacet
  facet normal 1.022272e-02 -9.433279e-01 -3.317046e-01
    outer loop
      vertex   -9.214055e-02 1.015942e+01 3.943217e+00
      vertex   -9.738469e-02 1.013597e+01 4.009749e+00
      vertex   -1.383344e-01 1.015892e+01 3.943217e+00
    endloop
  endfacet
  facet normal 1.024442e-02 -9.453303e-01 -3.259534e-01
    outer loop
      vertex   -9.214055e-02 1.015942e+01 3.943217e+00
      vertex   -1.383344e-01 1.015892e+01 3.943217e+00
      vertex   -1.386760e-01 1.018401e+01 3.870449e+00
    endloop
  endfacet
  facet normal 1.435461e-02 -9.452766e-01 -3.259542e-01
    outer loop
      vertex   -1.386760e-01 1.018401e+01 3.870449e+00
      vertex   -1.383344e-01 1.015892e+01 3.943217e+00
      vertex   -1.850650e-01 1.018330e+01 3.870449e+00
    endloop
  endfacet
  facet normal 1.438644e-02 -9.473729e-01 -3.198087e-01
    outer loop
      vertex   -1.386760e-01 1.018401e+01 3.870449e+00
      vertex   -1.850650e-01 1.018330e+01 3.870449e+00
      vertex   -1.855117e-01 1.020788e+01 3.797613e+00
    endloop
  endfacet
  facet normal 2.058163e-02 -9.472587e-01 -3.198082e-01
    outer loop
      vertex   -1.855117e-01 1.020788e+01 3.797613e+00
      vertex   -1.850650e-01 1.018330e+01 3.870449e+00
      vertex   -2.787527e-01 1.020586e+01 3.797613e+00
    endloop
  endfacet
  facet normal 1.094209e-02 -9.431818e-01 -3.320970e-01
    outer loop
      vertex   -9.738469e-02 1.013597e+01 4.009749e+00
      vertex   -1.461654e-01 1.013473e+01 4.011656e+00
      vertex   -1.383344e-01 1.015892e+01 3.943217e+00
    endloop
  endfacet
  facet normal 1.432402e-02 -9.432626e-01 -3.317386e-01
    outer loop
      vertex   -1.383344e-01 1.015892e+01 3.943217e+00
      vertex   -1.461654e-01 1.013473e+01 4.011656e+00
      vertex   -1.846091e-01 1.015822e+01 3.943217e+00
    endloop
  endfacet
  facet normal 1.435461e-02 -9.452766e-01 -3.259542e-01
    outer loop
      vertex   -1.383344e-01 1.015892e+01 3.943217e+00
      vertex   -1.846091e-01 1.015822e+01 3.943217e+00
      vertex   -1.850650e-01 1.018330e+01 3.870449e+00
    endloop
  endfacet
  facet normal 2.053609e-02 -9.451627e-01 -3.259537e-01
    outer loop
      vertex   -1.850650e-01 1.018330e+01 3.870449e+00
      vertex   -1.846091e-01 1.015822e+01 3.943217e+00
      vertex   -2.780814e-01 1.018128e+01 3.870449e+00
    endloop
  endfacet
  facet normal 2.058163e-02 -9.472587e-01 -3.198082e-01
    outer loop
      vertex   -1.850650e-01 1.018330e+01 3.870449e+00
      vertex   -2.780814e-01 1.018128e+01 3.870449e+00
      vertex   -2.787527e-01 1.020586e+01 3.797613e+00
    endloop
  endfacet
  facet normal 2.886274e-02 -9.470416e-01 -3.198113e-01
    outer loop
      vertex   -2.787527e-01 1.020586e+01 3.797613e+00
      vertex   -2.780814e-01 1.018128e+01 3.870449e+00
      vertex   -3.723044e-01 1.020301e+01 3.797613e+00
    endloop
  endfacet
  facet normal 1.523394e-02 -9.430894e-01 -3.321902e-01
    outer loop
      vertex   -1.461654e-01 1.013473e+01 4.011656e+00
      vertex   -1.949923e-01 1.013355e+01 4.012769e+00
      vertex   -1.846091e-01 1.015822e+01 3.943217e+00
    endloop
  endfacet
  facet normal 1.953782e-02 -9.432199e-01 -3.315940e-01
    outer loop
      vertex   -1.846091e-01 1.015822e+01 3.943217e+00
      vertex   -1.949923e-01 1.013355e+01 4.012769e+00
      vertex   -2.438355e-01 1.013243e+01 4.013087e+00
    endloop
  endfacet
  facet normal 2.049898e-02 -9.434551e-01 -3.308661e-01
    outer loop
      vertex   -1.846091e-01 1.015822e+01 3.943217e+00
      vertex   -2.438355e-01 1.013243e+01 4.013087e+00
      vertex   -2.773964e-01 1.015620e+01 3.943217e+00
    endloop
  endfacet
  facet normal 2.382316e-02 -9.428839e-01 -3.322685e-01
    outer loop
      vertex   -2.773964e-01 1.015620e+01 3.943217e+00
      vertex   -2.438355e-01 1.013243e+01 4.013087e+00
      vertex   -2.926587e-01 1.013136e+01 4.012610e+00
    endloop
  endfacet
  facet normal 2.810010e-02 -9.430734e-01 -3.313956e-01
    outer loop
      vertex   -2.773964e-01 1.015620e+01 3.943217e+00
      vertex   -2.926587e-01 1.013136e+01 4.012610e+00
      vertex   -3.414520e-01 1.013035e+01 4.011339e+00
    endloop
  endfacet
  facet normal 2.874702e-02 -9.432446e-01 -3.308523e-01
    outer loop
      vertex   -2.773964e-01 1.015620e+01 3.943217e+00
      vertex   -3.414520e-01 1.013035e+01 4.011339e+00
      vertex   -3.704929e-01 1.015336e+01 3.943217e+00
    endloop
  endfacet
  facet normal 3.240855e-02 -9.426479e-01 -3.322117e-01
    outer loop
      vertex   -3.704929e-01 1.015336e+01 3.943217e+00
      vertex   -3.414520e-01 1.013035e+01 4.011339e+00
      vertex   -3.902058e-01 1.012941e+01 4.009275e+00
    endloop
  endfacet
  facet normal 3.664397e-02 -9.429046e-01 -3.310408e-01
    outer loop
      vertex   -3.704929e-01 1.015336e+01 3.943217e+00
      vertex   -3.902058e-01 1.012941e+01 4.009275e+00
      vertex   -4.389104e-01 1.012852e+01 4.006419e+00
    endloop
  endfacet
  facet normal 3.702474e-02 -9.430187e-01 -3.306735e-01
    outer loop
      vertex   -3.704929e-01 1.015336e+01 3.943217e+00
      vertex   -4.389104e-01 1.012852e+01 4.006419e+00
      vertex   -4.638889e-01 1.014970e+01 3.943217e+00
    endloop
  endfacet
  facet normal 4.099493e-02 -9.423783e-01 -3.320280e-01
    outer loop
      vertex   -4.638889e-01 1.014970e+01 3.943217e+00
      vertex   -4.389104e-01 1.012852e+01 4.006419e+00
      vertex   -4.875562e-01 1.012768e+01 4.002772e+00
    endloop
  endfacet
  facet normal 4.517180e-02 -9.427256e-01 -3.304964e-01
    outer loop
      vertex   -4.638889e-01 1.014970e+01 3.943217e+00
      vertex   -4.875562e-01 1.012768e+01 4.002772e+00
      vertex   -5.361334e-01 1.012691e+01 3.998335e+00
    endloop
  endfacet
  facet normal 4.533321e-02 -9.427836e-01 -3.303089e-01
    outer loop
      vertex   -4.638889e-01 1.014970e+01 3.943217e+00
      vertex   -5.361334e-01 1.012691e+01 3.998335e+00
      vertex   -5.575745e-01 1.014519e+01 3.943217e+00
    endloop
  endfacet
  facet normal 4.959187e-02 -9.420704e-01 -3.317289e-01
    outer loop
      vertex   -5.575745e-01 1.014519e+01 3.943217e+00
      vertex   -5.361334e-01 1.012691e+01 3.998335e+00
      vertex   -5.846326e-01 1.012620e+01 3.993108e+00
    endloop
  endfacet
  facet normal 5.367792e-02 -9.425589e-01 -3.296989e-01
    outer loop
      vertex   -5.575745e-01 1.014519e+01 3.943217e+00
      vertex   -5.846326e-01 1.012620e+01 3.993108e+00
      vertex   -6.330439e-01 1.012555e+01 3.987093e+00
    endloop
  endfacet
  facet normal 5.367445e-02 -9.425573e-01 -3.297041e-01
    outer loop
      vertex   -5.575745e-01 1.014519e+01 3.943217e+00
      vertex   -6.330439e-01 1.012555e+01 3.987093e+00
      vertex   -6.515394e-01 1.013984e+01 3.943217e+00
    endloop
  endfacet
  facet normal 5.821291e-02 -9.417131e-01 -3.313422e-01
    outer loop
      vertex   -6.515394e-01 1.013984e+01 3.943217e+00
      vertex   -6.330439e-01 1.012555e+01 3.987093e+00
      vertex   -6.813577e-01 1.012495e+01 3.980291e+00
    endloop
  endfacet
  facet normal 6.213347e-02 -9.424617e-01 -3.284895e-01
    outer loop
      vertex   -6.515394e-01 1.013984e+01 3.943217e+00
      vertex   -6.813577e-01 1.012495e+01 3.980291e+00
      vertex   -7.295644e-01 1.012442e+01 3.972702e+00
    endloop
  endfacet
  facet normal 6.205416e-02 -9.424042e-01 -3.286694e-01
    outer loop
      vertex   -6.515394e-01 1.013984e+01 3.943217e+00
      vertex   -7.295644e-01 1.012442e+01 3.972702e+00
      vertex   -7.457733e-01 1.013364e+01 3.943217e+00
    endloop
  endfacet
  facet normal 6.688865e-02 -9.412671e-01 -3.309716e-01
    outer loop
      vertex   -7.457733e-01 1.013364e+01 3.943217e+00
      vertex   -7.295644e-01 1.012442e+01 3.972702e+00
      vertex   -7.776543e-01 1.012395e+01 3.964327e+00
    endloop
  endfacet
  facet normal 7.040847e-02 -9.426445e-01 -3.262881e-01
    outer loop
      vertex   -7.457733e-01 1.013364e+01 3.943217e+00
      vertex   -7.776543e-01 1.012395e+01 3.964327e+00
      vertex   -8.256178e-01 1.012354e+01 3.955168e+00
    endloop
  endfacet
  facet normal 7.051307e-02 -9.428255e-01 -3.257423e-01
    outer loop
      vertex   -7.457733e-01 1.013364e+01 3.943217e+00
      vertex   -8.256178e-01 1.012354e+01 3.955168e+00
      vertex   -8.402655e-01 1.012657e+01 3.943217e+00
    endloop
  endfacet
  facet normal 7.585778e-02 -9.403432e-01 -3.316628e-01
    outer loop
      vertex   -8.402655e-01 1.012657e+01 3.943217e+00
      vertex   -8.256178e-01 1.012354e+01 3.955168e+00
      vertex   -8.734451e-01 1.012318e+01 3.945226e+00
    endloop
  endfacet
  facet normal 7.719314e-02 -9.450812e-01 -3.175891e-01
    outer loop
      vertex   -8.402655e-01 1.012657e+01 3.943217e+00
      vertex   -8.734451e-01 1.012318e+01 3.945226e+00
      vertex   -9.211110e-01 1.012289e+01 3.934504e+00
    endloop
  endfacet
  facet normal 8.342279e-02 -9.417439e-01 -3.258206e-01
    outer loop
      vertex   -9.685736e-01 1.012266e+01 3.923013e+00
      vertex   -9.373142e-01 1.014362e+01 3.870449e+00
      vertex   -9.211110e-01 1.012289e+01 3.934504e+00
    endloop
  endfacet
  facet normal 7.895240e-02 -9.424417e-01 -3.249156e-01
    outer loop
      vertex   -9.211110e-01 1.012289e+01 3.934504e+00
      vertex   -9.373142e-01 1.014362e+01 3.870449e+00
      vertex   -8.423405e-01 1.015158e+01 3.870449e+00
    endloop
  endfacet
  facet normal 7.796613e-02 -9.421500e-01 -3.259978e-01
    outer loop
      vertex   -9.211110e-01 1.012289e+01 3.934504e+00
      vertex   -8.423405e-01 1.015158e+01 3.870449e+00
      vertex   -8.402655e-01 1.012657e+01 3.943217e+00
    endloop
  endfacet
  facet normal 7.050675e-02 -9.427410e-01 -3.259882e-01
    outer loop
      vertex   -8.402655e-01 1.012657e+01 3.943217e+00
      vertex   -8.423405e-01 1.015158e+01 3.870449e+00
      vertex   -7.457733e-01 1.013364e+01 3.943217e+00
    endloop
  endfacet
  facet normal 8.729448e-02 -9.421333e-01 -3.236734e-01
    outer loop
      vertex   -9.685736e-01 1.012266e+01 3.923013e+00
      vertex   -1.015823e+00 1.012250e+01 3.910757e+00
      vertex   -9.373142e-01 1.014362e+01 3.870449e+00
    endloop
  endfacet
  facet normal 8.744006e-02 -9.422044e-01 -3.234271e-01
    outer loop
      vertex   -9.373142e-01 1.014362e+01 3.870449e+00
      vertex   -1.015823e+00 1.012250e+01 3.910757e+00
      vertex   -1.032525e+00 1.013478e+01 3.870449e+00
    endloop
  endfacet
  facet normal 8.755197e-02 -9.434102e-01 -3.198622e-01
    outer loop
      vertex   -9.373142e-01 1.014362e+01 3.870449e+00
      vertex   -1.032525e+00 1.013478e+01 3.870449e+00
      vertex   -1.035017e+00 1.015925e+01 3.797613e+00
    endloop
  endfacet
  facet normal 9.602902e-02 -9.425811e-01 -3.198738e-01
    outer loop
      vertex   -1.035017e+00 1.015925e+01 3.797613e+00
      vertex   -1.032525e+00 1.013478e+01 3.870449e+00
      vertex   -1.130684e+00 1.014950e+01 3.797613e+00
    endloop
  endfacet
  facet normal 9.209472e-02 -9.412018e-01 -3.250502e-01
    outer loop
      vertex   -1.015823e+00 1.012250e+01 3.910757e+00
      vertex   -1.062850e+00 1.012239e+01 3.897738e+00
      vertex   -1.032525e+00 1.013478e+01 3.870449e+00
    endloop
  endfacet
  facet normal 9.555679e-02 -9.420462e-01 -3.215864e-01
    outer loop
      vertex   -1.032525e+00 1.013478e+01 3.870449e+00
      vertex   -1.062850e+00 1.012239e+01 3.897738e+00
      vertex   -1.109645e+00 1.012235e+01 3.883960e+00
    endloop
  endfacet
  facet normal 9.604408e-02 -9.427289e-01 -3.194334e-01
    outer loop
      vertex   -1.032525e+00 1.013478e+01 3.870449e+00
      vertex   -1.109645e+00 1.012235e+01 3.883960e+00
      vertex   -1.127961e+00 1.012506e+01 3.870449e+00
    endloop
  endfacet
  facet normal 1.014489e-01 -9.398474e-01 -3.261823e-01
    outer loop
      vertex   -1.127961e+00 1.012506e+01 3.870449e+00
      vertex   -1.109645e+00 1.012235e+01 3.883960e+00
      vertex   -1.156199e+00 1.012237e+01 3.869426e+00
    endloop
  endfacet
  facet normal 1.014272e-01 -9.420119e-01 -3.198845e-01
    outer loop
      vertex   -1.127961e+00 1.012506e+01 3.870449e+00
      vertex   -1.156199e+00 1.012237e+01 3.869426e+00
      vertex   -1.130684e+00 1.014950e+01 3.797613e+00
    endloop
  endfacet
  facet normal 1.036863e-01 -9.420352e-01 -3.190907e-01
    outer loop
      vertex   -1.130684e+00 1.014950e+01 3.797613e+00
      vertex   -1.156199e+00 1.012237e+01 3.869426e+00
      vertex   -1.202504e+00 1.012245e+01 3.854140e+00
    endloop
  endfacet
  facet normal 1.045946e-01 -9.422846e-01 -3.180561e-01
    outer loop
      vertex   -1.130684e+00 1.014950e+01 3.797613e+00
      vertex   -1.202504e+00 1.012245e+01 3.854140e+00
      vertex   -1.226566e+00 1.013886e+01 3.797613e+00
    endloop
  endfacet
  facet normal 1.082830e-01 -9.414213e-01 -3.193755e-01
    outer loop
      vertex   -1.226566e+00 1.013886e+01 3.797613e+00
      vertex   -1.202504e+00 1.012245e+01 3.854140e+00
      vertex   -1.248549e+00 1.012259e+01 3.838105e+00
    endloop
  endfacet
  facet normal 1.121032e-01 -9.416451e-01 -3.173914e-01
    outer loop
      vertex   -1.226566e+00 1.013886e+01 3.797613e+00
      vertex   -1.248549e+00 1.012259e+01 3.838105e+00
      vertex   -1.294327e+00 1.012280e+01 3.821325e+00
    endloop
  endfacet
  facet normal 1.132539e-01 -9.424319e-01 -3.146356e-01
    outer loop
      vertex   -1.226566e+00 1.013886e+01 3.797613e+00
      vertex   -1.294327e+00 1.012280e+01 3.821325e+00
      vertex   -1.322650e+00 1.012731e+01 3.797613e+00
    endloop
  endfacet
  facet normal 1.173452e-01 -9.404151e-01 -3.191389e-01
    outer loop
      vertex   -1.322650e+00 1.012731e+01 3.797613e+00
      vertex   -1.294327e+00 1.012280e+01 3.821325e+00
      vertex   -1.339827e+00 1.012307e+01 3.803802e+00
    endloop
  endfacet
  facet normal 1.197368e-01 -9.419837e-01 -3.135759e-01
    outer loop
      vertex   -1.322650e+00 1.012731e+01 3.797613e+00
      vertex   -1.339827e+00 1.012307e+01 3.803802e+00
      vertex   -1.385042e+00 1.012340e+01 3.785539e+00
    endloop
  endfacet
  facet normal 9.602902e-02 -9.425811e-01 -3.198738e-01
    outer loop
      vertex   -1.032525e+00 1.013478e+01 3.870449e+00
      vertex   -1.127961e+00 1.012506e+01 3.870449e+00
      vertex   -1.130684e+00 1.014950e+01 3.797613e+00
    endloop
  endfacet
  facet normal 7.909637e-02 -9.441603e-01 -3.198516e-01
    outer loop
      vertex   -8.423405e-01 1.015158e+01 3.870449e+00
      vertex   -9.373142e-01 1.014362e+01 3.870449e+00
      vertex   -9.395767e-01 1.016810e+01 3.797613e+00
    endloop
  endfacet
  facet normal 8.755197e-02 -9.434102e-01 -3.198622e-01
    outer loop
      vertex   -9.395767e-01 1.016810e+01 3.797613e+00
      vertex   -9.373142e-01 1.014362e+01 3.870449e+00
      vertex   -1.035017e+00 1.015925e+01 3.797613e+00
    endloop
  endfacet
  facet normal 7.909637e-02 -9.441603e-01 -3.198516e-01
    outer loop
      vertex   -9.395767e-01 1.016810e+01 3.797613e+00
      vertex   -8.443737e-01 1.017608e+01 3.797613e+00
      vertex   -8.423405e-01 1.015158e+01 3.870449e+00
    endloop
  endfacet
  facet normal 7.066314e-02 -9.448321e-01 -3.198422e-01
    outer loop
      vertex   -8.423405e-01 1.015158e+01 3.870449e+00
      vertex   -8.443737e-01 1.017608e+01 3.797613e+00
      vertex   -7.476149e-01 1.015866e+01 3.870449e+00
    endloop
  endfacet
  facet normal 7.050675e-02 -9.427410e-01 -3.259882e-01
    outer loop
      vertex   -8.423405e-01 1.015158e+01 3.870449e+00
      vertex   -7.476149e-01 1.015866e+01 3.870449e+00
      vertex   -7.457733e-01 1.013364e+01 3.943217e+00
    endloop
  endfacet
  facet normal 6.211538e-02 -9.433339e-01 -3.259797e-01
    outer loop
      vertex   -7.457733e-01 1.013364e+01 3.943217e+00
      vertex   -7.476149e-01 1.015866e+01 3.870449e+00
      vertex   -6.515394e-01 1.013984e+01 3.943217e+00
    endloop
  endfacet
  facet normal 7.066314e-02 -9.448321e-01 -3.198422e-01
    outer loop
      vertex   -8.443737e-01 1.017608e+01 3.797613e+00
      vertex   -7.494195e-01 1.018318e+01 3.797613e+00
      vertex   -7.476149e-01 1.015866e+01 3.870449e+00
    endloop
  endfacet
  facet normal 6.225315e-02 -9.454263e-01 -3.198339e-01
    outer loop
      vertex   -7.476149e-01 1.015866e+01 3.870449e+00
      vertex   -7.494195e-01 1.018318e+01 3.797613e+00
      vertex   -6.531483e-01 1.016488e+01 3.870449e+00
    endloop
  endfacet
  facet normal 6.211538e-02 -9.433339e-01 -3.259797e-01
    outer loop
      vertex   -7.476149e-01 1.015866e+01 3.870449e+00
      vertex   -6.531483e-01 1.016488e+01 3.870449e+00
      vertex   -6.515394e-01 1.013984e+01 3.943217e+00
    endloop
  endfacet
  facet normal 5.374807e-02 -9.438502e-01 -3.259724e-01
    outer loop
      vertex   -6.515394e-01 1.013984e+01 3.943217e+00
      vertex   -6.531483e-01 1.016488e+01 3.870449e+00
      vertex   -5.575745e-01 1.014519e+01 3.943217e+00
    endloop
  endfacet
  facet normal 6.225315e-02 -9.454263e-01 -3.198339e-01
    outer loop
      vertex   -7.494195e-01 1.018318e+01 3.797613e+00
      vertex   -6.547249e-01 1.018942e+01 3.797613e+00
      vertex   -6.531483e-01 1.016488e+01 3.870449e+00
    endloop
  endfacet
  facet normal 5.386728e-02 -9.459436e-01 -3.198266e-01
    outer loop
      vertex   -6.531483e-01 1.016488e+01 3.870449e+00
      vertex   -6.547249e-01 1.018942e+01 3.797613e+00
      vertex   -5.589514e-01 1.017025e+01 3.870449e+00
    endloop
  endfacet
  facet normal 5.374807e-02 -9.438502e-01 -3.259724e-01
    outer loop
      vertex   -6.531483e-01 1.016488e+01 3.870449e+00
      vertex   -5.589514e-01 1.017025e+01 3.870449e+00
      vertex   -5.575745e-01 1.014519e+01 3.943217e+00
    endloop
  endfacet
  facet normal 4.540567e-02 -9.442904e-01 -3.259661e-01
    outer loop
      vertex   -5.575745e-01 1.014519e+01 3.943217e+00
      vertex   -5.589514e-01 1.017025e+01 3.870449e+00
      vertex   -4.638889e-01 1.014970e+01 3.943217e+00
    endloop
  endfacet
  facet normal 5.386728e-02 -9.459436e-01 -3.198266e-01
    outer loop
      vertex   -6.547249e-01 1.018942e+01 3.797613e+00
      vertex   -5.603006e-01 1.019479e+01 3.797613e+00
      vertex   -5.589514e-01 1.017025e+01 3.870449e+00
    endloop
  endfacet
  facet normal 4.550637e-02 -9.463847e-01 -3.198205e-01
    outer loop
      vertex   -5.589514e-01 1.017025e+01 3.870449e+00
      vertex   -5.603006e-01 1.019479e+01 3.797613e+00
      vertex   -4.650345e-01 1.017476e+01 3.870449e+00
    endloop
  endfacet
  facet normal 4.540567e-02 -9.442904e-01 -3.259661e-01
    outer loop
      vertex   -5.589514e-01 1.017025e+01 3.870449e+00
      vertex   -4.650345e-01 1.017476e+01 3.870449e+00
      vertex   -4.638889e-01 1.014970e+01 3.943217e+00
    endloop
  endfacet
  facet normal 3.708900e-02 -9.446554e-01 -3.259609e-01
    outer loop
      vertex   -4.638889e-01 1.014970e+01 3.943217e+00
      vertex   -4.650345e-01 1.017476e+01 3.870449e+00
      vertex   -3.704929e-01 1.015336e+01 3.943217e+00
    endloop
  endfacet
  facet normal 4.550637e-02 -9.463847e-01 -3.198205e-01
    outer loop
      vertex   -5.603006e-01 1.019479e+01 3.797613e+00
      vertex   -4.661570e-01 1.019932e+01 3.797613e+00
      vertex   -4.650345e-01 1.017476e+01 3.870449e+00
    endloop
  endfacet
  facet normal 3.717125e-02 -9.467505e-01 -3.198153e-01
    outer loop
      vertex   -4.650345e-01 1.017476e+01 3.870449e+00
      vertex   -4.661570e-01 1.019932e+01 3.797613e+00
      vertex   -3.714079e-01 1.017844e+01 3.870449e+00
    endloop
  endfacet
  facet normal 3.708900e-02 -9.446554e-01 -3.259609e-01
    outer loop
      vertex   -4.650345e-01 1.017476e+01 3.870449e+00
      vertex   -3.714079e-01 1.017844e+01 3.870449e+00
      vertex   -3.704929e-01 1.015336e+01 3.943217e+00
    endloop
  endfacet
  facet normal 2.879888e-02 -9.449459e-01 -3.259567e-01
    outer loop
      vertex   -3.704929e-01 1.015336e+01 3.943217e+00
      vertex   -3.714079e-01 1.017844e+01 3.870449e+00
      vertex   -2.773964e-01 1.015620e+01 3.943217e+00
    endloop
  endfacet
  facet normal 3.717125e-02 -9.467505e-01 -3.198153e-01
    outer loop
      vertex   -4.661570e-01 1.019932e+01 3.797613e+00
      vertex   -3.723044e-01 1.020301e+01 3.797613e+00
      vertex   -3.714079e-01 1.017844e+01 3.870449e+00
    endloop
  endfacet
  facet normal 2.886274e-02 -9.470416e-01 -3.198113e-01
    outer loop
      vertex   -3.714079e-01 1.017844e+01 3.870449e+00
      vertex   -3.723044e-01 1.020301e+01 3.797613e+00
      vertex   -2.780814e-01 1.018128e+01 3.870449e+00
    endloop
  endfacet
  facet normal 2.879888e-02 -9.449459e-01 -3.259567e-01
    outer loop
      vertex   -3.714079e-01 1.017844e+01 3.870449e+00
      vertex   -2.780814e-01 1.018128e+01 3.870449e+00
      vertex   -2.773964e-01 1.015620e+01 3.943217e+00
    endloop
  endfacet
  facet normal 2.053609e-02 -9.451627e-01 -3.259537e-01
    outer loop
      vertex   -2.773964e-01 1.015620e+01 3.943217e+00
      vertex   -2.780814e-01 1.018128e+01 3.870449e+00
      vertex   -1.846091e-01 1.015822e+01 3.943217e+00
    endloop
  endfacet
  facet normal 1.026714e-02 -9.474267e-01 -3.198080e-01
    outer loop
      vertex   -1.390108e-01 1.020859e+01 3.797613e+00
      vertex   -9.259105e-02 1.020909e+01 3.797613e+00
      vertex   -9.236809e-02 1.018451e+01 3.870449e+00
    endloop
  endfacet
  facet normal 6.155120e-03 -9.474626e-01 -3.198075e-01
    outer loop
      vertex   -9.236809e-02 1.018451e+01 3.870449e+00
      vertex   -9.259105e-02 1.020909e+01 3.797613e+00
      vertex   -4.614237e-02 1.018481e+01 3.870449e+00
    endloop
  endfacet
  facet normal 6.141500e-03 -9.453661e-01 -3.259529e-01
    outer loop
      vertex   -9.236809e-02 1.018451e+01 3.870449e+00
      vertex   -4.614237e-02 1.018481e+01 3.870449e+00
      vertex   -4.602870e-02 1.015972e+01 3.943217e+00
    endloop
  endfacet
  facet normal 1.000000e+00 -1.345051e-08 3.695496e-08
    outer loop
      vertex   -1.484640e-15 1.031818e+01 3.755511e+00
      vertex   -5.147978e-09 1.027680e+01 3.879752e+00
      vertex   -1.472095e-15 1.023357e+01 3.724716e+00
    endloop
  endfacet
  facet normal 1.000000e+00 8.050194e-09 3.096081e-08
    outer loop
      vertex   -1.472095e-15 1.023357e+01 3.724716e+00
      vertex   -5.147978e-09 1.027680e+01 3.879752e+00
      vertex   -3.949990e-09 1.018697e+01 3.864415e+00
    endloop
  endfacet
  facet normal 1.000000e+00 5.889850e-09 4.361439e-08
    outer loop
      vertex   -3.949990e-09 1.018697e+01 3.864415e+00
      vertex   -5.147978e-09 1.027680e+01 3.879752e+00
      vertex   -1.029596e-08 1.023404e+01 4.003560e+00
    endloop
  endfacet
  facet normal 1.000000e+00 2.510758e-08 3.711273e-08
    outer loop
      vertex   -3.949990e-09 1.018697e+01 3.864415e+00
      vertex   -1.029596e-08 1.023404e+01 4.003560e+00
      vertex   -7.899978e-09 1.013861e+01 4.003560e+00
    endloop
  endfacet
  facet normal -2.731387e-03 9.487445e-01 3.160323e-01
    outer loop
      vertex   -5.147978e-09 1.027680e+01 3.879752e+00
      vertex   -1.484640e-15 1.031818e+01 3.755511e+00
      vertex   -4.417173e-02 1.027477e+01 3.885458e+00
    endloop
  endfacet
  facet normal -3.999761e-03 9.488696e-01 3.156430e-01
    outer loop
      vertex   -4.417173e-02 1.027477e+01 3.885458e+00
      vertex   -1.484640e-15 1.031818e+01 3.755511e+00
      vertex   -9.102538e-02 1.031780e+01 3.755517e+00
    endloop
  endfacet
  facet normal -5.850039e-03 9.486608e-01 3.162410e-01
    outer loop
      vertex   -4.417173e-02 1.027477e+01 3.885458e+00
      vertex   -9.102538e-02 1.031780e+01 3.755517e+00
      vertex   -8.841925e-02 1.027449e+01 3.885458e+00
    endloop
  endfacet
  facet normal -9.757630e-03 9.486084e-01 3.163019e-01
    outer loop
      vertex   -8.841925e-02 1.027449e+01 3.885458e+00
      vertex   -9.102538e-02 1.031780e+01 3.755517e+00
      vertex   -1.327416e-01 1.027404e+01 3.885458e+00
    endloop
  endfacet
  facet normal -9.720773e-03 9.450252e-01 3.268529e-01
    outer loop
      vertex   -8.841925e-02 1.027449e+01 3.885458e+00
      vertex   -1.327416e-01 1.027404e+01 3.885458e+00
      vertex   -9.273925e-02 1.023154e+01 4.009526e+00
    endloop
  endfacet
  facet normal -1.047206e-02 9.449431e-01 3.270670e-01
    outer loop
      vertex   -9.273925e-02 1.023154e+01 4.009526e+00
      vertex   -1.327416e-01 1.027404e+01 3.885458e+00
      vertex   -1.391768e-01 1.023037e+01 4.011431e+00
    endloop
  endfacet
  facet normal -1.361999e-02 9.449570e-01 3.269110e-01
    outer loop
      vertex   -1.391768e-01 1.023037e+01 4.011431e+00
      vertex   -1.327416e-01 1.027404e+01 3.885458e+00
      vertex   -1.771377e-01 1.027340e+01 3.885458e+00
    endloop
  endfacet
  facet normal -1.448524e-02 9.448648e-01 3.271402e-01
    outer loop
      vertex   -1.391768e-01 1.023037e+01 4.011431e+00
      vertex   -1.771377e-01 1.027340e+01 3.885458e+00
      vertex   -1.856485e-01 1.022924e+01 4.012617e+00
    endloop
  endfacet
  facet normal -1.850427e-02 9.448852e-01 3.268784e-01
    outer loop
      vertex   -1.856485e-01 1.022924e+01 4.012617e+00
      vertex   -1.771377e-01 1.027340e+01 3.885458e+00
      vertex   -2.321461e-01 1.022817e+01 4.013083e+00
    endloop
  endfacet
  facet normal -1.948672e-02 9.449981e-01 3.264949e-01
    outer loop
      vertex   -2.321461e-01 1.022817e+01 4.013083e+00
      vertex   -1.771377e-01 1.027340e+01 3.885458e+00
      vertex   -2.661474e-01 1.027156e+01 3.885458e+00
    endloop
  endfacet
  facet normal -2.251346e-02 9.446883e-01 3.271959e-01
    outer loop
      vertex   -2.321461e-01 1.022817e+01 4.013083e+00
      vertex   -2.661474e-01 1.027156e+01 3.885458e+00
      vertex   -2.786611e-01 1.022715e+01 4.012828e+00
    endloop
  endfacet
  facet normal -2.652500e-02 9.447171e-01 3.268119e-01
    outer loop
      vertex   -2.786611e-01 1.022715e+01 4.012828e+00
      vertex   -2.661474e-01 1.027156e+01 3.885458e+00
      vertex   -3.251852e-01 1.022618e+01 4.011851e+00
    endloop
  endfacet
  facet normal -2.732534e-02 9.448118e-01 3.264720e-01
    outer loop
      vertex   -3.251852e-01 1.022618e+01 4.011851e+00
      vertex   -2.661474e-01 1.027156e+01 3.885458e+00
      vertex   -3.554400e-01 1.026898e+01 3.885458e+00
    endloop
  endfacet
  facet normal -3.054939e-02 9.444844e-01 3.271329e-01
    outer loop
      vertex   -3.251852e-01 1.022618e+01 4.011851e+00
      vertex   -3.554400e-01 1.026898e+01 3.885458e+00
      vertex   -3.716994e-01 1.022527e+01 4.010152e+00
    endloop
  endfacet
  facet normal -3.455081e-02 9.445225e-01 3.266245e-01
    outer loop
      vertex   -3.716994e-01 1.022527e+01 4.010152e+00
      vertex   -3.554400e-01 1.026898e+01 3.885458e+00
      vertex   -4.181652e-01 1.022440e+01 4.007733e+00
    endloop
  endfacet
  facet normal -3.519046e-02 9.446022e-01 3.263254e-01
    outer loop
      vertex   -4.181652e-01 1.022440e+01 4.007733e+00
      vertex   -3.554400e-01 1.026898e+01 3.885458e+00
      vertex   -4.450073e-01 1.026564e+01 3.885458e+00
    endloop
  endfacet
  facet normal -3.859095e-02 9.442521e-01 3.269538e-01
    outer loop
      vertex   -4.181652e-01 1.022440e+01 4.007733e+00
      vertex   -4.450073e-01 1.026564e+01 3.885458e+00
      vertex   -4.645723e-01 1.022359e+01 4.004594e+00
    endloop
  endfacet
  facet normal -4.257217e-02 9.443011e-01 3.263173e-01
    outer loop
      vertex   -4.645723e-01 1.022359e+01 4.004594e+00
      vertex   -4.450073e-01 1.026564e+01 3.885458e+00
      vertex   -5.109126e-01 1.022284e+01 4.000738e+00
    endloop
  endfacet
  facet normal -4.308254e-02 9.443699e-01 3.260511e-01
    outer loop
      vertex   -5.109126e-01 1.022284e+01 4.000738e+00
      vertex   -4.450073e-01 1.026564e+01 3.885458e+00
      vertex   -5.348406e-01 1.026155e+01 3.885458e+00
    endloop
  endfacet
  facet normal -4.663232e-02 9.439906e-01 3.266605e-01
    outer loop
      vertex   -5.109126e-01 1.022284e+01 4.000738e+00
      vertex   -5.348406e-01 1.026155e+01 3.885458e+00
      vertex   -5.571776e-01 1.022213e+01 3.996165e+00
    endloop
  endfacet
  facet normal -5.059080e-02 9.440549e-01 3.258847e-01
    outer loop
      vertex   -5.571776e-01 1.022213e+01 3.996165e+00
      vertex   -5.348406e-01 1.026155e+01 3.885458e+00
      vertex   -6.033591e-01 1.022148e+01 3.990876e+00
    endloop
  endfacet
  facet normal -5.100216e-02 9.441169e-01 3.256409e-01
    outer loop
      vertex   -6.033591e-01 1.022148e+01 3.990876e+00
      vertex   -5.348406e-01 1.026155e+01 3.885458e+00
      vertex   -6.249313e-01 1.025668e+01 3.885458e+00
    endloop
  endfacet
  facet normal -5.468048e-02 9.436992e-01 3.262542e-01
    outer loop
      vertex   -6.033591e-01 1.022148e+01 3.990876e+00
      vertex   -6.249313e-01 1.025668e+01 3.885458e+00
      vertex   -6.494488e-01 1.022089e+01 3.984873e+00
    endloop
  endfacet
  facet normal -5.861118e-02 9.437870e-01 3.253164e-01
    outer loop
      vertex   -6.494488e-01 1.022089e+01 3.984873e+00
      vertex   -6.249313e-01 1.025668e+01 3.885458e+00
      vertex   -6.954384e-01 1.022035e+01 3.978157e+00
    endloop
  endfacet
  facet normal -5.895007e-02 9.438467e-01 3.250820e-01
    outer loop
      vertex   -6.954384e-01 1.022035e+01 3.978157e+00
      vertex   -6.249313e-01 1.025668e+01 3.885458e+00
      vertex   -7.152703e-01 1.025104e+01 3.885458e+00
    endloop
  endfacet
  facet normal -6.274323e-02 9.433760e-01 3.257377e-01
    outer loop
      vertex   -6.954384e-01 1.022035e+01 3.978157e+00
      vertex   -7.152703e-01 1.025104e+01 3.885458e+00
      vertex   -7.413195e-01 1.021986e+01 3.970729e+00
    endloop
  endfacet
  facet normal -6.663544e-02 9.435029e-01 3.245951e-01
    outer loop
      vertex   -7.413195e-01 1.021986e+01 3.970729e+00
      vertex   -7.152703e-01 1.025104e+01 3.885458e+00
      vertex   -7.870839e-01 1.021943e+01 3.962590e+00
    endloop
  endfacet
  facet normal -6.692743e-02 9.435667e-01 3.243494e-01
    outer loop
      vertex   -7.870839e-01 1.021943e+01 3.962590e+00
      vertex   -7.152703e-01 1.025104e+01 3.885458e+00
      vertex   -8.058487e-01 1.024461e+01 3.885458e+00
    endloop
  endfacet
  facet normal -7.083002e-02 9.430167e-01 3.251193e-01
    outer loop
      vertex   -7.870839e-01 1.021943e+01 3.962590e+00
      vertex   -8.058487e-01 1.024461e+01 3.885458e+00
      vertex   -8.327232e-01 1.021905e+01 3.953742e+00
    endloop
  endfacet
  facet normal -7.465997e-02 9.432144e-01 3.236859e-01
    outer loop
      vertex   -8.327232e-01 1.021905e+01 3.953742e+00
      vertex   -8.058487e-01 1.024461e+01 3.885458e+00
      vertex   -8.782292e-01 1.021873e+01 3.944186e+00
    endloop
  endfacet
  facet normal -7.493667e-02 9.432969e-01 3.233812e-01
    outer loop
      vertex   -8.782292e-01 1.021873e+01 3.944186e+00
      vertex   -8.058487e-01 1.024461e+01 3.885458e+00
      vertex   -8.966570e-01 1.023740e+01 3.885458e+00
    endloop
  endfacet
  facet normal -7.895557e-02 9.426107e-01 3.244241e-01
    outer loop
      vertex   -8.782292e-01 1.021873e+01 3.944186e+00
      vertex   -8.966570e-01 1.023740e+01 3.885458e+00
      vertex   -9.235936e-01 1.021846e+01 3.933923e+00
    endloop
  endfacet
  facet normal -8.266318e-02 9.429539e-01 3.224976e-01
    outer loop
      vertex   -9.235936e-01 1.021846e+01 3.933923e+00
      vertex   -8.966570e-01 1.023740e+01 3.885458e+00
      vertex   -9.688079e-01 1.021825e+01 3.922954e+00
    endloop
  endfacet
  facet normal -8.298561e-02 9.431103e-01 3.219570e-01
    outer loop
      vertex   -9.688079e-01 1.021825e+01 3.922954e+00
      vertex   -8.966570e-01 1.023740e+01 3.885458e+00
      vertex   -9.876859e-01 1.022939e+01 3.885458e+00
    endloop
  endfacet
  facet normal -8.716048e-02 9.421149e-01 3.237632e-01
    outer loop
      vertex   -9.688079e-01 1.021825e+01 3.922954e+00
      vertex   -9.876859e-01 1.022939e+01 3.885458e+00
      vertex   -1.013864e+00 1.021809e+01 3.911281e+00
    endloop
  endfacet
  facet normal -9.053505e-02 9.428555e-01 3.206662e-01
    outer loop
      vertex   -1.013864e+00 1.021809e+01 3.911281e+00
      vertex   -9.876859e-01 1.022939e+01 3.885458e+00
      vertex   -1.058742e+00 1.021799e+01 3.898908e+00
    endloop
  endfacet
  facet normal -9.113971e-02 9.436508e-01 3.181457e-01
    outer loop
      vertex   -1.058742e+00 1.021799e+01 3.898908e+00
      vertex   -9.876859e-01 1.022939e+01 3.885458e+00
      vertex   -1.078926e+00 1.022058e+01 3.885458e+00
    endloop
  endfacet
  facet normal -9.596199e-02 9.408844e-01 3.248506e-01
    outer loop
      vertex   -1.058742e+00 1.021799e+01 3.898908e+00
      vertex   -1.078926e+00 1.022058e+01 3.885458e+00
      vertex   -1.103402e+00 1.021795e+01 3.885846e+00
    endloop
  endfacet
  facet normal -9.639923e-02 9.437091e-01 3.164178e-01
    outer loop
      vertex   -1.103402e+00 1.021795e+01 3.885846e+00
      vertex   -1.078926e+00 1.022058e+01 3.885458e+00
      vertex   -1.090349e+00 1.026270e+01 3.756340e+00
    endloop
  endfacet
  facet normal -9.761732e-02 9.436338e-01 3.162690e-01
    outer loop
      vertex   -1.103402e+00 1.021795e+01 3.885846e+00
      vertex   -1.090349e+00 1.026270e+01 3.756340e+00
      vertex   -1.147833e+00 1.021796e+01 3.872099e+00
    endloop
  endfacet
  facet normal -9.984465e-02 9.437551e-01 3.152099e-01
    outer loop
      vertex   -1.147833e+00 1.021796e+01 3.872099e+00
      vertex   -1.090349e+00 1.026270e+01 3.756340e+00
      vertex   -1.180854e+00 1.025308e+01 3.756484e+00
    endloop
  endfacet
  facet normal -1.016007e-01 9.434328e-01 3.156135e-01
    outer loop
      vertex   -1.147833e+00 1.021796e+01 3.872099e+00
      vertex   -1.180854e+00 1.025308e+01 3.756484e+00
      vertex   -1.192029e+00 1.021802e+01 3.857671e+00
    endloop
  endfacet
  facet normal -1.056401e-01 9.431688e-01 3.150759e-01
    outer loop
      vertex   -1.192029e+00 1.021802e+01 3.857671e+00
      vertex   -1.180854e+00 1.025308e+01 3.756484e+00
      vertex   -1.235982e+00 1.021815e+01 3.842565e+00
    endloop
  endfacet
  facet normal -1.078617e-01 9.433650e-01 3.137328e-01
    outer loop
      vertex   -1.235982e+00 1.021815e+01 3.842565e+00
      vertex   -1.180854e+00 1.025308e+01 3.756484e+00
      vertex   -1.271271e+00 1.024269e+01 3.756639e+00
    endloop
  endfacet
  facet normal -1.096310e-01 9.429578e-01 3.143431e-01
    outer loop
      vertex   -1.235982e+00 1.021815e+01 3.842565e+00
      vertex   -1.271271e+00 1.024269e+01 3.756639e+00
      vertex   -1.279683e+00 1.021833e+01 3.826785e+00
    endloop
  endfacet
  facet normal -1.136954e-01 9.426719e-01 3.137564e-01
    outer loop
      vertex   -1.279683e+00 1.021833e+01 3.826785e+00
      vertex   -1.271271e+00 1.024269e+01 3.756639e+00
      vertex   -1.323125e+00 1.021856e+01 3.810333e+00
    endloop
  endfacet
  facet normal -1.158995e-01 9.430529e-01 3.117990e-01
    outer loop
      vertex   -1.323125e+00 1.021856e+01 3.810333e+00
      vertex   -1.271271e+00 1.024269e+01 3.756639e+00
      vertex   -1.361596e+00 1.023153e+01 3.756805e+00
    endloop
  endfacet
  facet normal -1.176957e-01 9.424509e-01 3.129440e-01
    outer loop
      vertex   -1.323125e+00 1.021856e+01 3.810333e+00
      vertex   -1.361596e+00 1.023153e+01 3.756805e+00
      vertex   -1.366301e+00 1.021886e+01 3.793213e+00
    endloop
  endfacet
  facet normal -1.217898e-01 9.421419e-01 3.123073e-01
    outer loop
      vertex   -1.366301e+00 1.021886e+01 3.793213e+00
      vertex   -1.361596e+00 1.023153e+01 3.756805e+00
      vertex   -1.409203e+00 1.021921e+01 3.775428e+00
    endloop
  endfacet
  facet normal -1.240503e-01 9.434597e-01 3.074010e-01
    outer loop
      vertex   -1.409203e+00 1.021921e+01 3.775428e+00
      vertex   -1.361596e+00 1.023153e+01 3.756805e+00
      vertex   -1.451823e+00 1.021961e+01 3.756982e+00
    endloop
  endfacet
  facet normal -1.199880e-02 9.488008e-01 3.156472e-01
    outer loop
      vertex   -9.102538e-02 1.031780e+01 3.755517e+00
      vertex   -1.820387e-01 1.031664e+01 3.755534e+00
      vertex   -1.327416e-01 1.027404e+01 3.885458e+00
    endloop
  endfacet
  facet normal -1.367235e-02 9.485897e-01 3.162130e-01
    outer loop
      vertex   -1.327416e-01 1.027404e+01 3.885458e+00
      vertex   -1.820387e-01 1.031664e+01 3.755534e+00
      vertex   -1.771377e-01 1.027340e+01 3.885458e+00
    endloop
  endfacet
  facet normal -1.955749e-02 9.484303e-01 3.163819e-01
    outer loop
      vertex   -1.771377e-01 1.027340e+01 3.885458e+00
      vertex   -1.820387e-01 1.031664e+01 3.755534e+00
      vertex   -2.661474e-01 1.027156e+01 3.885458e+00
    endloop
  endfacet
  facet normal -1.999320e-02 9.485064e-01 3.161263e-01
    outer loop
      vertex   -2.661474e-01 1.027156e+01 3.885458e+00
      vertex   -1.820387e-01 1.031664e+01 3.755534e+00
      vertex   -2.730348e-01 1.031471e+01 3.755563e+00
    endloop
  endfacet
  facet normal -2.742393e-02 9.482209e-01 3.164254e-01
    outer loop
      vertex   -2.661474e-01 1.027156e+01 3.885458e+00
      vertex   -2.730348e-01 1.031471e+01 3.755563e+00
      vertex   -3.554400e-01 1.026898e+01 3.885458e+00
    endloop
  endfacet
  facet normal -2.798850e-02 9.483130e-01 3.160997e-01
    outer loop
      vertex   -3.554400e-01 1.026898e+01 3.885458e+00
      vertex   -2.730348e-01 1.031471e+01 3.755563e+00
      vertex   -3.640086e-01 1.031201e+01 3.755603e+00
    endloop
  endfacet
  facet normal -3.531509e-02 9.479476e-01 3.164621e-01
    outer loop
      vertex   -3.554400e-01 1.026898e+01 3.885458e+00
      vertex   -3.640086e-01 1.031201e+01 3.755603e+00
      vertex   -4.450073e-01 1.026564e+01 3.885458e+00
    endloop
  endfacet
  facet normal -3.598197e-02 9.480492e-01 3.160824e-01
    outer loop
      vertex   -4.450073e-01 1.026564e+01 3.885458e+00
      vertex   -3.640086e-01 1.031201e+01 3.755603e+00
      vertex   -4.549550e-01 1.030854e+01 3.755655e+00
    endloop
  endfacet
  facet normal -4.323033e-02 9.476094e-01 3.164925e-01
    outer loop
      vertex   -4.450073e-01 1.026564e+01 3.885458e+00
      vertex   -4.549550e-01 1.030854e+01 3.755655e+00
      vertex   -5.348406e-01 1.026155e+01 3.885458e+00
    endloop
  endfacet
  facet normal -4.397318e-02 9.477151e-01 3.160736e-01
    outer loop
      vertex   -5.348406e-01 1.026155e+01 3.885458e+00
      vertex   -4.549550e-01 1.030854e+01 3.755655e+00
      vertex   -5.458690e-01 1.030430e+01 3.755719e+00
    endloop
  endfacet
  facet normal -5.116902e-02 9.472056e-01 3.165174e-01
    outer loop
      vertex   -5.348406e-01 1.026155e+01 3.885458e+00
      vertex   -5.458690e-01 1.030430e+01 3.755719e+00
      vertex   -6.249313e-01 1.025668e+01 3.885458e+00
    endloop
  endfacet
  facet normal -5.196169e-02 9.473109e-01 3.160730e-01
    outer loop
      vertex   -6.249313e-01 1.025668e+01 3.885458e+00
      vertex   -5.458690e-01 1.030430e+01 3.755719e+00
      vertex   -6.367453e-01 1.029929e+01 3.755794e+00
    endloop
  endfacet
  facet normal -5.913049e-02 9.467354e-01 3.165370e-01
    outer loop
      vertex   -6.249313e-01 1.025668e+01 3.885458e+00
      vertex   -6.367453e-01 1.029929e+01 3.755794e+00
      vertex   -7.152703e-01 1.025104e+01 3.885458e+00
    endloop
  endfacet
  facet normal -5.994707e-02 9.468367e-01 3.160802e-01
    outer loop
      vertex   -7.152703e-01 1.025104e+01 3.885458e+00
      vertex   -6.367453e-01 1.029929e+01 3.755794e+00
      vertex   -7.275790e-01 1.029351e+01 3.755880e+00
    endloop
  endfacet
  facet normal -6.711407e-02 9.461981e-01 3.165516e-01
    outer loop
      vertex   -7.152703e-01 1.025104e+01 3.885458e+00
      vertex   -7.275790e-01 1.029351e+01 3.755880e+00
      vertex   -8.058487e-01 1.024461e+01 3.885458e+00
    endloop
  endfacet
  facet normal -6.792887e-02 9.462925e-01 3.160951e-01
    outer loop
      vertex   -8.058487e-01 1.024461e+01 3.885458e+00
      vertex   -7.275790e-01 1.029351e+01 3.755880e+00
      vertex   -8.183649e-01 1.028696e+01 3.755978e+00
    endloop
  endfacet
  facet normal -7.511908e-02 9.455930e-01 3.165613e-01
    outer loop
      vertex   -8.058487e-01 1.024461e+01 3.885458e+00
      vertex   -8.183649e-01 1.028696e+01 3.755978e+00
      vertex   -8.966570e-01 1.023740e+01 3.885458e+00
    endloop
  endfacet
  facet normal -7.590664e-02 9.456784e-01 3.161178e-01
    outer loop
      vertex   -8.966570e-01 1.023740e+01 3.885458e+00
      vertex   -8.183649e-01 1.028696e+01 3.755978e+00
      vertex   -9.090975e-01 1.027965e+01 3.756088e+00
    endloop
  endfacet
  facet normal -8.314480e-02 9.449195e-01 3.165660e-01
    outer loop
      vertex   -8.966570e-01 1.023740e+01 3.885458e+00
      vertex   -9.090975e-01 1.027965e+01 3.756088e+00
      vertex   -9.876859e-01 1.022939e+01 3.885458e+00
    endloop
  endfacet
  facet normal -8.387952e-02 9.449943e-01 3.161488e-01
    outer loop
      vertex   -9.876859e-01 1.022939e+01 3.885458e+00
      vertex   -9.090975e-01 1.027965e+01 3.756088e+00
      vertex   -9.997618e-01 1.027156e+01 3.756208e+00
    endloop
  endfacet
  facet normal -9.119055e-02 9.441773e-01 3.165653e-01
    outer loop
      vertex   -9.876859e-01 1.022939e+01 3.885458e+00
      vertex   -9.997618e-01 1.027156e+01 3.756208e+00
      vertex   -1.078926e+00 1.022058e+01 3.885458e+00
    endloop
  endfacet
  facet normal -9.184650e-02 9.442400e-01 3.161883e-01
    outer loop
      vertex   -1.078926e+00 1.022058e+01 3.885458e+00
      vertex   -9.997618e-01 1.027156e+01 3.756208e+00
      vertex   -1.090349e+00 1.026270e+01 3.756340e+00
    endloop
  endfacet
  facet normal -6.458472e-03 9.450151e-01 3.269630e-01
    outer loop
      vertex   -9.273925e-02 1.023154e+01 4.009526e+00
      vertex   -4.634420e-02 1.023276e+01 4.006902e+00
      vertex   -8.841925e-02 1.027449e+01 3.885458e+00
    endloop
  endfacet
  facet normal -5.827996e-03 9.450863e-01 3.267690e-01
    outer loop
      vertex   -8.841925e-02 1.027449e+01 3.885458e+00
      vertex   -4.634420e-02 1.023276e+01 4.006902e+00
      vertex   -4.417173e-02 1.027477e+01 3.885458e+00
    endloop
  endfacet
  facet normal -2.443767e-03 9.450808e-01 3.268277e-01
    outer loop
      vertex   -4.634420e-02 1.023276e+01 4.006902e+00
      vertex   -1.029596e-08 1.023404e+01 4.003560e+00
      vertex   -4.417173e-02 1.027477e+01 3.885458e+00
    endloop
  endfacet
  facet normal -1.227614e-03 9.452234e-01 3.264220e-01
    outer loop
      vertex   -4.417173e-02 1.027477e+01 3.885458e+00
      vertex   -1.029596e-08 1.023404e+01 4.003560e+00
      vertex   -5.147978e-09 1.027680e+01 3.879752e+00
    endloop
  endfacet
  facet normal -4.108538e-01 7.925591e-04 9.117009e-01
    outer loop
      vertex   -1.485678e+00 1.017250e+01 3.741766e+00
      vertex   -1.474575e+00 1.012425e+01 3.746812e+00
      vertex   -1.451823e+00 1.021961e+01 3.756982e+00
    endloop
  endfacet
  facet normal -4.044611e-01 -1.037036e-03 9.145546e-01
    outer loop
      vertex   -1.451823e+00 1.021961e+01 3.756982e+00
      vertex   -1.474575e+00 1.012425e+01 3.746812e+00
      vertex   -1.429960e+00 1.012380e+01 3.766542e+00
    endloop
  endfacet
  facet normal -3.971922e-01 9.388263e-04 9.177350e-01
    outer loop
      vertex   -1.451823e+00 1.021961e+01 3.756982e+00
      vertex   -1.429960e+00 1.012380e+01 3.766542e+00
      vertex   -1.409203e+00 1.021921e+01 3.775428e+00
    endloop
  endfacet
  facet normal -3.895371e-01 -1.031629e-03 9.210102e-01
    outer loop
      vertex   -1.409203e+00 1.021921e+01 3.775428e+00
      vertex   -1.429960e+00 1.012380e+01 3.766542e+00
      vertex   -1.385042e+00 1.012340e+01 3.785539e+00
    endloop
  endfacet
  facet normal -3.829393e-01 9.238792e-04 9.237730e-01
    outer loop
      vertex   -1.409203e+00 1.021921e+01 3.775428e+00
      vertex   -1.385042e+00 1.012340e+01 3.785539e+00
      vertex   -1.366301e+00 1.021886e+01 3.793213e+00
    endloop
  endfacet
  facet normal -3.745131e-01 -1.007524e-03 9.272211e-01
    outer loop
      vertex   -1.366301e+00 1.021886e+01 3.793213e+00
      vertex   -1.385042e+00 1.012340e+01 3.785539e+00
      vertex   -1.339827e+00 1.012307e+01 3.803802e+00
    endloop
  endfacet
  facet normal -3.685939e-01 8.903243e-04 9.295901e-01
    outer loop
      vertex   -1.366301e+00 1.021886e+01 3.793213e+00
      vertex   -1.339827e+00 1.012307e+01 3.803802e+00
      vertex   -1.323125e+00 1.021856e+01 3.810333e+00
    endloop
  endfacet
  facet normal -3.593923e-01 -9.649378e-04 9.331861e-01
    outer loop
      vertex   -1.323125e+00 1.021856e+01 3.810333e+00
      vertex   -1.339827e+00 1.012307e+01 3.803802e+00
      vertex   -1.294327e+00 1.012280e+01 3.821325e+00
    endloop
  endfacet
  facet normal -3.541583e-01 8.384769e-04 9.351851e-01
    outer loop
      vertex   -1.323125e+00 1.021856e+01 3.810333e+00
      vertex   -1.294327e+00 1.012280e+01 3.821325e+00
      vertex   -1.279683e+00 1.021833e+01 3.826785e+00
    endloop
  endfacet
  facet normal -3.441776e-01 -9.040658e-04 9.389041e-01
    outer loop
      vertex   -1.279683e+00 1.021833e+01 3.826785e+00
      vertex   -1.294327e+00 1.012280e+01 3.821325e+00
      vertex   -1.248549e+00 1.012259e+01 3.838105e+00
    endloop
  endfacet
  facet normal -3.396352e-01 7.686335e-04 9.405569e-01
    outer loop
      vertex   -1.279683e+00 1.021833e+01 3.826785e+00
      vertex   -1.248549e+00 1.012259e+01 3.838105e+00
      vertex   -1.235982e+00 1.021815e+01 3.842565e+00
    endloop
  endfacet
  facet normal -3.288723e-01 -8.250953e-04 9.443741e-01
    outer loop
      vertex   -1.235982e+00 1.021815e+01 3.842565e+00
      vertex   -1.248549e+00 1.012259e+01 3.838105e+00
      vertex   -1.202504e+00 1.012245e+01 3.854140e+00
    endloop
  endfacet
  facet normal -3.250268e-01 6.810614e-04 9.457045e-01
    outer loop
      vertex   -1.235982e+00 1.021815e+01 3.842565e+00
      vertex   -1.202504e+00 1.012245e+01 3.854140e+00
      vertex   -1.192029e+00 1.021802e+01 3.857671e+00
    endloop
  endfacet
  facet normal -3.134792e-01 -7.282142e-04 9.495948e-01
    outer loop
      vertex   -1.192029e+00 1.021802e+01 3.857671e+00
      vertex   -1.202504e+00 1.012245e+01 3.854140e+00
      vertex   -1.156199e+00 1.012237e+01 3.869426e+00
    endloop
  endfacet
  facet normal -3.103359e-01 5.759876e-04 9.506268e-01
    outer loop
      vertex   -1.192029e+00 1.021802e+01 3.857671e+00
      vertex   -1.156199e+00 1.012237e+01 3.869426e+00
      vertex   -1.147833e+00 1.021796e+01 3.872099e+00
    endloop
  endfacet
  facet normal -2.980015e-01 -6.136214e-04 9.545652e-01
    outer loop
      vertex   -1.147833e+00 1.021796e+01 3.872099e+00
      vertex   -1.156199e+00 1.012237e+01 3.869426e+00
      vertex   -1.109645e+00 1.012235e+01 3.883960e+00
    endloop
  endfacet
  facet normal -2.955648e-01 4.535885e-04 9.553226e-01
    outer loop
      vertex   -1.147833e+00 1.021796e+01 3.872099e+00
      vertex   -1.109645e+00 1.012235e+01 3.883960e+00
      vertex   -1.103402e+00 1.021795e+01 3.885846e+00
    endloop
  endfacet
  facet normal -2.824422e-01 -4.815368e-04 9.592842e-01
    outer loop
      vertex   -1.103402e+00 1.021795e+01 3.885846e+00
      vertex   -1.109645e+00 1.012235e+01 3.883960e+00
      vertex   -1.062850e+00 1.012239e+01 3.897738e+00
    endloop
  endfacet
  facet normal -2.807162e-01 3.139788e-04 9.597908e-01
    outer loop
      vertex   -1.103402e+00 1.021795e+01 3.885846e+00
      vertex   -1.062850e+00 1.012239e+01 3.897738e+00
      vertex   -1.058742e+00 1.021799e+01 3.898908e+00
    endloop
  endfacet
  facet normal -2.668044e-01 -3.322116e-04 9.637506e-01
    outer loop
      vertex   -1.058742e+00 1.021799e+01 3.898908e+00
      vertex   -1.062850e+00 1.012239e+01 3.897738e+00
      vertex   -1.015823e+00 1.012250e+01 3.910757e+00
    endloop
  endfacet
  facet normal -2.657930e-01 1.570532e-04 9.640301e-01
    outer loop
      vertex   -1.058742e+00 1.021799e+01 3.898908e+00
      vertex   -1.015823e+00 1.012250e+01 3.910757e+00
      vertex   -1.013864e+00 1.021809e+01 3.911281e+00
    endloop
  endfacet
  facet normal -2.510913e-01 -1.657699e-04 9.679634e-01
    outer loop
      vertex   -1.013864e+00 1.021809e+01 3.911281e+00
      vertex   -1.015823e+00 1.012250e+01 3.910757e+00
      vertex   -9.685736e-01 1.012266e+01 3.923013e+00
    endloop
  endfacet
  facet normal -2.508030e-01 -1.977636e-05 9.680381e-01
    outer loop
      vertex   -1.013864e+00 1.021809e+01 3.911281e+00
      vertex   -9.685736e-01 1.012266e+01 3.923013e+00
      vertex   -9.688079e-01 1.021825e+01 3.922954e+00
    endloop
  endfacet
  facet normal -2.357574e-01 1.942950e-05 9.718119e-01
    outer loop
      vertex   -9.688079e-01 1.021825e+01 3.922954e+00
      vertex   -9.685736e-01 1.012266e+01 3.923013e+00
      vertex   -9.235936e-01 1.021846e+01 3.933923e+00
    endloop
  endfacet
  facet normal -2.353049e-01 -2.055613e-04 9.719216e-01
    outer loop
      vertex   -9.235936e-01 1.021846e+01 3.933923e+00
      vertex   -9.685736e-01 1.012266e+01 3.923013e+00
      vertex   -9.211110e-01 1.012289e+01 3.934504e+00
    endloop
  endfacet
  facet normal -2.206614e-01 1.956694e-04 9.753505e-01
    outer loop
      vertex   -9.235936e-01 1.021846e+01 3.933923e+00
      vertex   -9.211110e-01 1.012289e+01 3.934504e+00
      vertex   -8.782292e-01 1.021873e+01 3.944186e+00
    endloop
  endfacet
  facet normal -2.194482e-01 -3.748400e-04 9.756241e-01
    outer loop
      vertex   -8.782292e-01 1.021873e+01 3.944186e+00
      vertex   -9.211110e-01 1.012289e+01 3.934504e+00
      vertex   -8.734451e-01 1.012318e+01 3.945226e+00
    endloop
  endfacet
  facet normal -2.055171e-01 3.556634e-04 9.786535e-01
    outer loop
      vertex   -8.782292e-01 1.021873e+01 3.944186e+00
      vertex   -8.734451e-01 1.012318e+01 3.945226e+00
      vertex   -8.327232e-01 1.021905e+01 3.953742e+00
    endloop
  endfacet
  facet normal -2.035304e-01 -5.251210e-04 9.790685e-01
    outer loop
      vertex   -8.327232e-01 1.021905e+01 3.953742e+00
      vertex   -8.734451e-01 1.012318e+01 3.945226e+00
      vertex   -8.256178e-01 1.012354e+01 3.955168e+00
    endloop
  endfacet
  facet normal -1.903274e-01 4.966426e-04 9.817206e-01
    outer loop
      vertex   -8.327232e-01 1.021905e+01 3.953742e+00
      vertex   -8.256178e-01 1.012354e+01 3.955168e+00
      vertex   -7.870839e-01 1.021943e+01 3.962590e+00
    endloop
  endfacet
  facet normal -1.875628e-01 -6.554364e-04 9.822524e-01
    outer loop
      vertex   -7.870839e-01 1.021943e+01 3.962590e+00
      vertex   -8.256178e-01 1.012354e+01 3.955168e+00
      vertex   -7.776543e-01 1.012395e+01 3.964327e+00
    endloop
  endfacet
  facet normal -1.750948e-01 6.177029e-04 9.845514e-01
    outer loop
      vertex   -7.870839e-01 1.021943e+01 3.962590e+00
      vertex   -7.776543e-01 1.012395e+01 3.964327e+00
      vertex   -7.413195e-01 1.021986e+01 3.970729e+00
    endloop
  endfacet
  facet normal -1.715513e-01 -7.662611e-04 9.851749e-01
    outer loop
      vertex   -7.413195e-01 1.021986e+01 3.970729e+00
      vertex   -7.776543e-01 1.012395e+01 3.964327e+00
      vertex   -7.295644e-01 1.012442e+01 3.972702e+00
    endloop
  endfacet
  facet normal -1.598220e-01 7.191281e-04 9.871456e-01
    outer loop
      vertex   -7.413195e-01 1.021986e+01 3.970729e+00
      vertex   -7.295644e-01 1.012442e+01 3.972702e+00
      vertex   -6.954384e-01 1.022035e+01 3.978157e+00
    endloop
  endfacet
  facet normal -1.554994e-01 -8.578838e-04 9.878356e-01
    outer loop
      vertex   -6.954384e-01 1.022035e+01 3.978157e+00
      vertex   -7.295644e-01 1.012442e+01 3.972702e+00
      vertex   -6.813577e-01 1.012495e+01 3.980291e+00
    endloop
  endfacet
  facet normal -1.445118e-01 8.012201e-04 9.895028e-01
    outer loop
      vertex   -6.954384e-01 1.022035e+01 3.978157e+00
      vertex   -6.813577e-01 1.012495e+01 3.980291e+00
      vertex   -6.494488e-01 1.022089e+01 3.984873e+00
    endloop
  endfacet
  facet normal -1.394102e-01 -9.305524e-04 9.902343e-01
    outer loop
      vertex   -6.494488e-01 1.022089e+01 3.984873e+00
      vertex   -6.813577e-01 1.012495e+01 3.980291e+00
      vertex   -6.330439e-01 1.012555e+01 3.987093e+00
    endloop
  endfacet
  facet normal -1.291667e-01 8.642895e-04 9.916225e-01
    outer loop
      vertex   -6.494488e-01 1.022089e+01 3.984873e+00
      vertex   -6.330439e-01 1.012555e+01 3.987093e+00
      vertex   -6.033591e-01 1.022148e+01 3.990876e+00
    endloop
  endfacet
  facet normal -1.232870e-01 -9.844823e-04 9.923706e-01
    outer loop
      vertex   -6.033591e-01 1.022148e+01 3.990876e+00
      vertex   -6.330439e-01 1.012555e+01 3.987093e+00
      vertex   -5.846326e-01 1.012620e+01 3.993108e+00
    endloop
  endfacet
  facet normal -1.137895e-01 9.086459e-04 9.935045e-01
    outer loop
      vertex   -6.033591e-01 1.022148e+01 3.990876e+00
      vertex   -5.846326e-01 1.012620e+01 3.993108e+00
      vertex   -5.571776e-01 1.022213e+01 3.996165e+00
    endloop
  endfacet
  facet normal -1.071332e-01 -1.019865e-03 9.942441e-01
    outer loop
      vertex   -5.571776e-01 1.022213e+01 3.996165e+00
      vertex   -5.846326e-01 1.012620e+01 3.993108e+00
      vertex   -5.361334e-01 1.012691e+01 3.998335e+00
    endloop
  endfacet
  facet normal -9.838288e-02 9.345889e-04 9.951482e-01
    outer loop
      vertex   -5.571776e-01 1.022213e+01 3.996165e+00
      vertex   -5.361334e-01 1.012691e+01 3.998335e+00
      vertex   -5.109126e-01 1.022284e+01 4.000738e+00
    endloop
  endfacet
  facet normal -9.095201e-02 -1.036874e-03 9.958547e-01
    outer loop
      vertex   -5.109126e-01 1.022284e+01 4.000738e+00
      vertex   -5.361334e-01 1.012691e+01 3.998335e+00
      vertex   -4.875562e-01 1.012768e+01 4.002772e+00
    endloop
  endfacet
  facet normal -8.294943e-02 9.423990e-04 9.965533e-01
    outer loop
      vertex   -5.109126e-01 1.022284e+01 4.000738e+00
      vertex   -4.875562e-01 1.012768e+01 4.002772e+00
      vertex   -4.645723e-01 1.022359e+01 4.004594e+00
    endloop
  endfacet
  facet normal -7.474659e-02 -1.035679e-03 9.972020e-01
    outer loop
      vertex   -4.645723e-01 1.022359e+01 4.004594e+00
      vertex   -4.875562e-01 1.012768e+01 4.002772e+00
      vertex   -4.389104e-01 1.012852e+01 4.006419e+00
    endloop
  endfacet
  facet normal -6.749190e-02 9.323283e-04 9.977194e-01
    outer loop
      vertex   -4.645723e-01 1.022359e+01 4.004594e+00
      vertex   -4.389104e-01 1.012852e+01 4.006419e+00
      vertex   -4.181652e-01 1.022440e+01 4.007733e+00
    endloop
  endfacet
  facet normal -5.852023e-02 -1.016447e-03 9.982857e-01
    outer loop
      vertex   -4.181652e-01 1.022440e+01 4.007733e+00
      vertex   -4.389104e-01 1.012852e+01 4.006419e+00
      vertex   -3.902058e-01 1.012941e+01 4.009275e+00
    endloop
  endfacet
  facet normal -5.201301e-02 9.045914e-04 9.986460e-01
    outer loop
      vertex   -4.181652e-01 1.022440e+01 4.007733e+00
      vertex   -3.902058e-01 1.012941e+01 4.009275e+00
      vertex   -3.716994e-01 1.022527e+01 4.010152e+00
    endloop
  endfacet
  facet normal -4.227619e-02 -9.793570e-04 9.991055e-01
    outer loop
      vertex   -3.716994e-01 1.022527e+01 4.010152e+00
      vertex   -3.902058e-01 1.012941e+01 4.009275e+00
      vertex   -3.414520e-01 1.013035e+01 4.011339e+00
    endloop
  endfacet
  facet normal -3.651582e-02 8.592540e-04 9.993327e-01
    outer loop
      vertex   -3.716994e-01 1.022527e+01 4.010152e+00
      vertex   -3.414520e-01 1.013035e+01 4.011339e+00
      vertex   -3.251852e-01 1.022618e+01 4.011851e+00
    endloop
  endfacet
  facet normal -2.601771e-02 -9.245584e-04 9.996611e-01
    outer loop
      vertex   -3.251852e-01 1.022618e+01 4.011851e+00
      vertex   -3.414520e-01 1.013035e+01 4.011339e+00
      vertex   -2.926587e-01 1.013136e+01 4.012610e+00
    endloop
  endfacet
  facet normal -2.100861e-02 7.946688e-04 9.997790e-01
    outer loop
      vertex   -3.251852e-01 1.022618e+01 4.011851e+00
      vertex   -2.926587e-01 1.013136e+01 4.012610e+00
      vertex   -2.786611e-01 1.022715e+01 4.012828e+00
    endloop
  endfacet
  facet normal -9.748116e-03 -8.512194e-04 9.999521e-01
    outer loop
      vertex   -2.786611e-01 1.022715e+01 4.012828e+00
      vertex   -2.926587e-01 1.013136e+01 4.012610e+00
      vertex   -2.438355e-01 1.013243e+01 4.013087e+00
    endloop
  endfacet
  facet normal -5.500671e-03 7.104660e-04 9.999846e-01
    outer loop
      vertex   -2.786611e-01 1.022715e+01 4.012828e+00
      vertex   -2.438355e-01 1.013243e+01 4.013087e+00
      vertex   -2.321461e-01 1.022817e+01 4.013083e+00
    endloop
  endfacet
  facet normal 6.529236e-03 -7.582817e-04 9.999784e-01
    outer loop
      vertex   -2.321461e-01 1.022817e+01 4.013083e+00
      vertex   -2.438355e-01 1.013243e+01 4.013087e+00
      vertex   -1.949923e-01 1.013355e+01 4.012769e+00
    endloop
  endfacet
  facet normal 1.000354e-02 6.060464e-04 9.999498e-01
    outer loop
      vertex   -2.321461e-01 1.022817e+01 4.013083e+00
      vertex   -1.949923e-01 1.013355e+01 4.012769e+00
      vertex   -1.856485e-01 1.022924e+01 4.012617e+00
    endloop
  endfacet
  facet normal 2.280633e-02 -6.444072e-04 9.997397e-01
    outer loop
      vertex   -1.856485e-01 1.022924e+01 4.012617e+00
      vertex   -1.949923e-01 1.013355e+01 4.012769e+00
      vertex   -1.461654e-01 1.013473e+01 4.011656e+00
    endloop
  endfacet
  facet normal 2.550125e-02 4.820927e-04 9.996747e-01
    outer loop
      vertex   -1.856485e-01 1.022924e+01 4.012617e+00
      vertex   -1.461654e-01 1.013473e+01 4.011656e+00
      vertex   -1.391768e-01 1.023037e+01 4.011431e+00
    endloop
  endfacet
  facet normal 3.907217e-02 -5.106547e-04 9.992363e-01
    outer loop
      vertex   -1.391768e-01 1.023037e+01 4.011431e+00
      vertex   -1.461654e-01 1.013473e+01 4.011656e+00
      vertex   -9.738469e-02 1.013597e+01 4.009749e+00
    endloop
  endfacet
  facet normal 4.098968e-02 3.396496e-04 9.991595e-01
    outer loop
      vertex   -1.391768e-01 1.023037e+01 4.011431e+00
      vertex   -9.738469e-02 1.013597e+01 4.009749e+00
      vertex   -9.273925e-02 1.023154e+01 4.009526e+00
    endloop
  endfacet
  facet normal 5.532026e-02 -3.585351e-04 9.984686e-01
    outer loop
      vertex   -9.273925e-02 1.023154e+01 4.009526e+00
      vertex   -9.738469e-02 1.013597e+01 4.009749e+00
      vertex   -4.865969e-02 1.013726e+01 4.007050e+00
    endloop
  endfacet
  facet normal 5.646610e-02 1.788873e-04 9.984045e-01
    outer loop
      vertex   -9.273925e-02 1.023154e+01 4.009526e+00
      vertex   -4.865969e-02 1.013726e+01 4.007050e+00
      vertex   -4.634420e-02 1.023276e+01 4.006902e+00
    endloop
  endfacet
  facet normal 7.154727e-02 -1.882622e-04 9.974372e-01
    outer loop
      vertex   -4.634420e-02 1.023276e+01 4.006902e+00
      vertex   -4.865969e-02 1.013726e+01 4.007050e+00
      vertex   -7.899978e-09 1.013861e+01 4.003560e+00
    endloop
  endfacet
  facet normal 7.192777e-02 -2.196031e-09 9.974098e-01
    outer loop
      vertex   -4.634420e-02 1.023276e+01 4.006902e+00
      vertex   -7.899978e-09 1.013861e+01 4.003560e+00
      vertex   -1.029596e-08 1.023404e+01 4.003560e+00
    endloop
  endfacet
  facet normal -4.192869e-01 -1.550678e-03 9.078525e-01
    outer loop
      vertex   -1.485678e+00 1.017250e+01 3.741766e+00
      vertex   -1.518875e+00 1.012478e+01 3.726352e+00
      vertex   -1.474575e+00 1.012425e+01 3.746812e+00
    endloop
  endfacet
  facet normal -4.860082e-02 3.384226e-01 -9.397383e-01
    outer loop
      vertex   -1.485678e+00 1.017250e+01 3.741766e+00
      vertex   -1.451823e+00 1.021961e+01 3.756982e+00
      vertex   -1.424539e+00 1.013793e+01 3.726155e+00
    endloop
  endfacet
  facet normal -4.663865e-02 3.390326e-01 -9.396179e-01
    outer loop
      vertex   -1.424539e+00 1.013793e+01 3.726155e+00
      vertex   -1.451823e+00 1.021961e+01 3.756982e+00
      vertex   -1.361596e+00 1.023153e+01 3.756805e+00
    endloop
  endfacet
  facet normal -4.598131e-02 3.386467e-01 -9.397894e-01
    outer loop
      vertex   -1.424539e+00 1.013793e+01 3.726155e+00
      vertex   -1.361596e+00 1.023153e+01 3.756805e+00
      vertex   -1.330090e+00 1.015024e+01 3.725971e+00
    endloop
  endfacet
  facet normal -4.365332e-02 3.394774e-01 -9.396007e-01
    outer loop
      vertex   -1.330090e+00 1.015024e+01 3.725971e+00
      vertex   -1.361596e+00 1.023153e+01 3.756805e+00
      vertex   -1.271271e+00 1.024269e+01 3.756639e+00
    endloop
  endfacet
  facet normal -4.282331e-02 3.390171e-01 -9.398051e-01
    outer loop
      vertex   -1.330090e+00 1.015024e+01 3.725971e+00
      vertex   -1.271271e+00 1.024269e+01 3.756639e+00
      vertex   -1.235535e+00 1.016171e+01 3.725799e+00
    endloop
  endfacet
  facet normal -4.066271e-02 3.398874e-01 -9.395867e-01
    outer loop
      vertex   -1.235535e+00 1.016171e+01 3.725799e+00
      vertex   -1.271271e+00 1.024269e+01 3.756639e+00
      vertex   -1.180854e+00 1.025308e+01 3.756484e+00
    endloop
  endfacet
  facet normal -3.966317e-02 3.393667e-01 -9.398176e-01
    outer loop
      vertex   -1.235535e+00 1.016171e+01 3.725799e+00
      vertex   -1.180854e+00 1.025308e+01 3.756484e+00
      vertex   -1.140880e+00 1.017233e+01 3.725639e+00
    endloop
  endfacet
  facet normal -3.766722e-02 3.402625e-01 -9.395758e-01
    outer loop
      vertex   -1.140880e+00 1.017233e+01 3.725639e+00
      vertex   -1.180854e+00 1.025308e+01 3.756484e+00
      vertex   -1.090349e+00 1.026270e+01 3.756340e+00
    endloop
  endfacet
  facet normal -3.650087e-02 3.396956e-01 -9.398269e-01
    outer loop
      vertex   -1.140880e+00 1.017233e+01 3.725639e+00
      vertex   -1.090349e+00 1.026270e+01 3.756340e+00
      vertex   -1.046130e+00 1.018211e+01 3.725492e+00
    endloop
  endfacet
  facet normal -3.466723e-02 3.406025e-01 -9.395680e-01
    outer loop
      vertex   -1.046130e+00 1.018211e+01 3.725492e+00
      vertex   -1.090349e+00 1.026270e+01 3.756340e+00
      vertex   -9.997618e-01 1.027156e+01 3.756208e+00
    endloop
  endfacet
  facet normal -3.333636e-02 3.400037e-01 -9.398331e-01
    outer loop
      vertex   -1.046130e+00 1.018211e+01 3.725492e+00
      vertex   -9.997618e-01 1.027156e+01 3.756208e+00
      vertex   -9.512911e-01 1.019103e+01 3.725358e+00
    endloop
  endfacet
  facet normal -3.166311e-02 3.409076e-01 -9.395634e-01
    outer loop
      vertex   -9.512911e-01 1.019103e+01 3.725358e+00
      vertex   -9.997618e-01 1.027156e+01 3.756208e+00
      vertex   -9.090975e-01 1.027965e+01 3.756088e+00
    endloop
  endfacet
  facet normal -3.016962e-02 3.402910e-01 -9.398361e-01
    outer loop
      vertex   -9.512911e-01 1.019103e+01 3.725358e+00
      vertex   -9.090975e-01 1.027965e+01 3.756088e+00
      vertex   -8.563701e-01 1.019911e+01 3.725236e+00
    endloop
  endfacet
  facet normal -2.865530e-02 3.411775e-01 -9.395620e-01
    outer loop
      vertex   -8.563701e-01 1.019911e+01 3.725236e+00
      vertex   -9.090975e-01 1.027965e+01 3.756088e+00
      vertex   -8.183649e-01 1.028696e+01 3.755978e+00
    endloop
  endfacet
  facet normal -2.700082e-02 3.405576e-01 -9.398359e-01
    outer loop
      vertex   -8.563701e-01 1.019911e+01 3.725236e+00
      vertex   -8.183649e-01 1.028696e+01 3.755978e+00
      vertex   -7.613833e-01 1.020634e+01 3.725127e+00
    endloop
  endfacet
  facet normal -2.564448e-02 3.414121e-01 -9.395638e-01
    outer loop
      vertex   -7.613833e-01 1.020634e+01 3.725127e+00
      vertex   -8.183649e-01 1.028696e+01 3.755978e+00
      vertex   -7.275790e-01 1.029351e+01 3.755880e+00
    endloop
  endfacet
  facet normal -2.383037e-02 3.408034e-01 -9.398325e-01
    outer loop
      vertex   -7.613833e-01 1.020634e+01 3.725127e+00
      vertex   -7.275790e-01 1.029351e+01 3.755880e+00
      vertex   -6.663413e-01 1.021272e+01 3.725031e+00
    endloop
  endfacet
  facet normal -2.263138e-02 3.416115e-01 -9.395687e-01
    outer loop
      vertex   -6.663413e-01 1.021272e+01 3.725031e+00
      vertex   -7.275790e-01 1.029351e+01 3.755880e+00
      vertex   -6.367453e-01 1.029929e+01 3.755794e+00
    endloop
  endfacet
  facet normal -2.065835e-02 3.410284e-01 -9.398260e-01
    outer loop
      vertex   -6.663413e-01 1.021272e+01 3.725031e+00
      vertex   -6.367453e-01 1.029929e+01 3.755794e+00
      vertex   -5.712500e-01 1.021825e+01 3.724948e+00
    endloop
  endfacet
  facet normal -1.961640e-02 3.417756e-01 -9.395768e-01
    outer loop
      vertex   -5.712500e-01 1.021825e+01 3.724948e+00
      vertex   -6.367453e-01 1.029929e+01 3.755794e+00
      vertex   -5.458690e-01 1.030430e+01 3.755719e+00
    endloop
  endfacet
  facet normal -1.748475e-02 3.412325e-01 -9.398163e-01
    outer loop
      vertex   -5.712500e-01 1.021825e+01 3.724948e+00
      vertex   -5.458690e-01 1.030430e+01 3.755719e+00
      vertex   -4.761154e-01 1.022293e+01 3.724877e+00
    endloop
  endfacet
  facet normal -1.659993e-02 3.419045e-01 -9.395881e-01
    outer loop
      vertex   -4.761154e-01 1.022293e+01 3.724877e+00
      vertex   -5.458690e-01 1.030430e+01 3.755719e+00
      vertex   -4.549550e-01 1.030854e+01 3.755655e+00
    endloop
  endfacet
  facet normal -1.430952e-02 3.414158e-01 -9.398034e-01
    outer loop
      vertex   -4.761154e-01 1.022293e+01 3.724877e+00
      vertex   -4.549550e-01 1.030854e+01 3.755655e+00
      vertex   -3.809434e-01 1.022676e+01 3.724819e+00
    endloop
  endfacet
  facet normal -1.358235e-02 3.419981e-01 -9.396025e-01
    outer loop
      vertex   -3.809434e-01 1.022676e+01 3.724819e+00
      vertex   -4.549550e-01 1.030854e+01 3.755655e+00
      vertex   -3.640086e-01 1.031201e+01 3.755603e+00
    endloop
  endfacet
  facet normal -1.113263e-02 3.415783e-01 -9.397874e-01
    outer loop
      vertex   -3.809434e-01 1.022676e+01 3.724819e+00
      vertex   -3.640086e-01 1.031201e+01 3.755603e+00
      vertex   -2.857399e-01 1.022974e+01 3.724774e+00
    endloop
  endfacet
  facet normal -1.056405e-02 3.420565e-01 -9.396200e-01
    outer loop
      vertex   -2.857399e-01 1.022974e+01 3.724774e+00
      vertex   -3.640086e-01 1.031201e+01 3.755603e+00
      vertex   -2.730348e-01 1.031471e+01 3.755563e+00
    endloop
  endfacet
  facet normal -7.954048e-03 3.417199e-01 -9.397682e-01
    outer loop
      vertex   -2.857399e-01 1.022974e+01 3.724774e+00
      vertex   -2.730348e-01 1.031471e+01 3.755563e+00
      vertex   -1.905109e-01 1.023187e+01 3.724742e+00
    endloop
  endfacet
  facet normal -7.545428e-03 3.420795e-01 -9.396407e-01
    outer loop
      vertex   -1.905109e-01 1.023187e+01 3.724742e+00
      vertex   -2.730348e-01 1.031471e+01 3.755563e+00
      vertex   -1.820387e-01 1.031664e+01 3.755534e+00
    endloop
  endfacet
  facet normal -4.773739e-03 3.418407e-01 -9.397458e-01
    outer loop
      vertex   -1.905109e-01 1.023187e+01 3.724742e+00
      vertex   -1.820387e-01 1.031664e+01 3.755534e+00
      vertex   -9.526225e-02 1.023315e+01 3.724723e+00
    endloop
  endfacet
  facet normal -4.526859e-03 3.420673e-01 -9.396646e-01
    outer loop
      vertex   -9.526225e-02 1.023315e+01 3.724723e+00
      vertex   -1.820387e-01 1.031664e+01 3.755534e+00
      vertex   -9.102538e-02 1.031780e+01 3.755517e+00
    endloop
  endfacet
  facet normal -1.591631e-03 3.419406e-01 -9.397202e-01
    outer loop
      vertex   -9.526225e-02 1.023315e+01 3.724723e+00
      vertex   -9.102538e-02 1.031780e+01 3.755517e+00
      vertex   -1.472095e-15 1.023357e+01 3.724716e+00
    endloop
  endfacet
  facet normal -1.508706e-03 3.420197e-01 -9.396916e-01
    outer loop
      vertex   -1.472095e-15 1.023357e+01 3.724716e+00
      vertex   -9.102538e-02 1.031780e+01 3.755517e+00
      vertex   -1.484640e-15 1.031818e+01 3.755511e+00
    endloop
  endfacet
  facet normal -4.906181e-02 3.377119e-01 -9.399700e-01
    outer loop
      vertex   -1.424539e+00 1.013793e+01 3.726155e+00
      vertex   -1.518875e+00 1.012478e+01 3.726352e+00
      vertex   -1.485678e+00 1.017250e+01 3.741766e+00
    endloop
  endfacet
endsolid
