solid ASCII
  facet normal -8.660254e-01 5.000000e-01 -6.946759e-15
    outer loop
      vertex   5.775000e+00 1.000259e+01 -1.734723e-17
      vertex   5.774119e+00 1.000107e+01 2.078202e-01
      vertex   7.330773e+00 1.269727e+01 -2.775558e-16
    endloop
  endfacet
  facet normal -8.660254e-01 5.000000e-01 -2.591952e-16
    outer loop
      vertex   7.330773e+00 1.269727e+01 -2.775558e-16
      vertex   5.774119e+00 1.000107e+01 2.078202e-01
      vertex   6.851640e+00 1.186739e+01 1.164621e+00
    endloop
  endfacet
  facet normal -8.660254e-01 5.000000e-01 1.042316e-14
    outer loop
      vertex   7.330773e+00 1.269727e+01 -2.775558e-16
      vertex   6.851640e+00 1.186739e+01 1.164621e+00
      vertex   6.891843e+00 1.193702e+01 1.139152e+00
    endloop
  endfacet
  facet normal -8.660254e-01 5.000000e-01 -9.790879e-13
    outer loop
      vertex   5.771477e+00 9.996491e+00 4.156256e-01
      vertex   6.677810e+00 1.156631e+01 1.264934e+00
      vertex   5.774119e+00 1.000107e+01 2.078202e-01
    endloop
  endfacet
  facet normal -8.660254e-01 5.000000e-01 -4.729053e-15
    outer loop
      vertex   5.774119e+00 1.000107e+01 2.078202e-01
      vertex   6.677810e+00 1.156631e+01 1.264934e+00
      vertex   6.723204e+00 1.164493e+01 1.240100e+00
    endloop
  endfacet
  facet normal -8.660254e-01 5.000000e-01 6.411905e-15
    outer loop
      vertex   5.774119e+00 1.000107e+01 2.078202e-01
      vertex   6.723204e+00 1.164493e+01 1.240100e+00
      vertex   6.767313e+00 1.172133e+01 1.215100e+00
    endloop
  endfacet
  facet normal -8.660254e-01 5.000000e-01 -1.670547e-11
    outer loop
      vertex   5.767073e+00 9.988864e+00 6.232854e-01
      vertex   6.533999e+00 1.131722e+01 1.338395e+00
      vertex   5.771477e+00 9.996491e+00 4.156256e-01
    endloop
  endfacet
  facet normal -8.660254e-01 5.000000e-01 1.614934e-13
    outer loop
      vertex   5.771477e+00 9.996491e+00 4.156256e-01
      vertex   6.533999e+00 1.131722e+01 1.338395e+00
      vertex   6.583198e+00 1.140243e+01 1.314087e+00
    endloop
  endfacet
  facet normal -8.660254e-01 5.000000e-01 1.569658e-13
    outer loop
      vertex   5.771477e+00 9.996491e+00 4.156256e-01
      vertex   6.583198e+00 1.140243e+01 1.314087e+00
      vertex   6.631138e+00 1.148547e+01 1.289598e+00
    endloop
  endfacet
  facet normal -8.660254e-01 5.000000e-01 -3.087768e-11
    outer loop
      vertex   5.760911e+00 9.978191e+00 8.307218e-01
      vertex   6.378945e+00 1.104866e+01 1.410195e+00
      vertex   5.767073e+00 9.988864e+00 6.232854e-01
    endloop
  endfacet
  facet normal -8.660254e-01 5.000000e-01 3.541084e-12
    outer loop
      vertex   5.767073e+00 9.988864e+00 6.232854e-01
      vertex   6.378945e+00 1.104866e+01 1.410195e+00
      vertex   6.431863e+00 1.114031e+01 1.386454e+00
    endloop
  endfacet
  facet normal -8.660254e-01 5.000000e-01 3.529715e-12
    outer loop
      vertex   5.767073e+00 9.988864e+00 6.232854e-01
      vertex   6.431863e+00 1.114031e+01 1.386454e+00
      vertex   6.483551e+00 1.122984e+01 1.362519e+00
    endloop
  endfacet
  facet normal -8.660254e-01 5.000000e-01 -3.637950e-11
    outer loop
      vertex   5.752993e+00 9.964477e+00 1.037887e+00
      vertex   6.212912e+00 1.076108e+01 1.480210e+00
      vertex   5.760911e+00 9.978191e+00 8.307218e-01
    endloop
  endfacet
  facet normal -8.660254e-01 5.000000e-01 1.252589e-11
    outer loop
      vertex   5.760911e+00 9.978191e+00 8.307218e-01
      vertex   6.212912e+00 1.076108e+01 1.480210e+00
      vertex   6.269459e+00 1.085902e+01 1.457077e+00
    endloop
  endfacet
  facet normal -8.660254e-01 5.000000e-01 1.243722e-11
    outer loop
      vertex   5.760911e+00 9.978191e+00 8.307218e-01
      vertex   6.269459e+00 1.085902e+01 1.457077e+00
      vertex   6.324807e+00 1.095489e+01 1.433738e+00
    endloop
  endfacet
  facet normal -8.660254e-01 5.000000e-01 -3.237812e-11
    outer loop
      vertex   5.743321e+00 9.947723e+00 1.244735e+00
      vertex   6.036188e+00 1.045498e+01 1.548319e+00
      vertex   5.752993e+00 9.964477e+00 1.037887e+00
    endloop
  endfacet
  facet normal -8.660254e-01 5.000000e-01 3.015280e-11
    outer loop
      vertex   5.752993e+00 9.964477e+00 1.037887e+00
      vertex   6.036188e+00 1.045498e+01 1.548319e+00
      vertex   6.096266e+00 1.055904e+01 1.525835e+00
    endloop
  endfacet
  facet normal -8.660254e-01 5.000000e-01 2.996806e-11
    outer loop
      vertex   5.752993e+00 9.964477e+00 1.037887e+00
      vertex   6.096266e+00 1.055904e+01 1.525835e+00
      vertex   6.155178e+00 1.066108e+01 1.503131e+00
    endloop
  endfacet
  facet normal -8.660254e-01 5.000000e-01 -1.819121e-11
    outer loop
      vertex   5.731896e+00 9.927935e+00 1.451216e+00
      vertex   5.912581e+00 1.024089e+01 1.592609e+00
      vertex   5.743321e+00 9.947723e+00 1.244735e+00
    endloop
  endfacet
  facet normal -8.660254e-01 5.000000e-01 6.496874e-11
    outer loop
      vertex   5.743321e+00 9.947723e+00 1.244735e+00
      vertex   5.912581e+00 1.024089e+01 1.592609e+00
      vertex   5.974956e+00 1.034893e+01 1.570579e+00
    endloop
  endfacet
  facet normal -8.660254e-01 5.000000e-01 6.458445e-11
    outer loop
      vertex   5.743321e+00 9.947723e+00 1.244735e+00
      vertex   5.974956e+00 1.034893e+01 1.570579e+00
      vertex   6.036188e+00 1.045498e+01 1.548319e+00
    endloop
  endfacet
  facet normal -8.660254e-01 5.000000e-01 2.286448e-11
    outer loop
      vertex   5.718721e+00 9.905116e+00 1.657285e+00
      vertex   5.784452e+00 1.001896e+01 1.635966e+00
      vertex   5.731896e+00 9.927935e+00 1.451216e+00
    endloop
  endfacet
  facet normal -8.660254e-01 5.000000e-01 1.604523e-10
    outer loop
      vertex   5.731896e+00 9.927935e+00 1.451216e+00
      vertex   5.784452e+00 1.001896e+01 1.635966e+00
      vertex   5.849076e+00 1.013090e+01 1.614407e+00
    endloop
  endfacet
  facet normal -8.660254e-01 5.000000e-01 1.595516e-10
    outer loop
      vertex   5.731896e+00 9.927935e+00 1.451216e+00
      vertex   5.849076e+00 1.013090e+01 1.614407e+00
      vertex   5.912581e+00 1.024089e+01 1.592609e+00
    endloop
  endfacet
  facet normal -8.660254e-01 5.000000e-01 2.974435e-11
    outer loop
      vertex   6.155178e+00 1.066108e+01 1.503131e+00
      vertex   6.212912e+00 1.076108e+01 1.480210e+00
      vertex   5.752993e+00 9.964477e+00 1.037887e+00
    endloop
  endfacet
  facet normal -8.660254e-01 5.000000e-01 1.232175e-11
    outer loop
      vertex   6.324807e+00 1.095489e+01 1.433738e+00
      vertex   6.378945e+00 1.104866e+01 1.410195e+00
      vertex   5.760911e+00 9.978191e+00 8.307218e-01
    endloop
  endfacet
  facet normal -8.660254e-01 5.000000e-01 3.488558e-12
    outer loop
      vertex   6.483551e+00 1.122984e+01 1.362519e+00
      vertex   6.533999e+00 1.131722e+01 1.338395e+00
      vertex   5.767073e+00 9.988864e+00 6.232854e-01
    endloop
  endfacet
  facet normal -8.660254e-01 5.000000e-01 1.540178e-13
    outer loop
      vertex   6.631138e+00 1.148547e+01 1.289598e+00
      vertex   6.677810e+00 1.156631e+01 1.264934e+00
      vertex   5.771477e+00 9.996491e+00 4.156256e-01
    endloop
  endfacet
  facet normal -8.660254e-01 5.000000e-01 -2.037361e-16
    outer loop
      vertex   6.767313e+00 1.172133e+01 1.215100e+00
      vertex   6.810128e+00 1.179549e+01 1.189939e+00
      vertex   5.774119e+00 1.000107e+01 2.078202e-01
    endloop
  endfacet
  facet normal -8.660254e-01 5.000000e-01 9.942400e-15
    outer loop
      vertex   5.774119e+00 1.000107e+01 2.078202e-01
      vertex   6.810128e+00 1.179549e+01 1.189939e+00
      vertex   6.851640e+00 1.186739e+01 1.164621e+00
    endloop
  endfacet
  facet normal -8.660254e-01 5.000000e-01 -1.170418e-14
    outer loop
      vertex   6.891843e+00 1.193702e+01 1.139152e+00
      vertex   6.930727e+00 1.200437e+01 1.113537e+00
      vertex   7.330773e+00 1.269727e+01 -2.775558e-16
    endloop
  endfacet
  facet normal -8.660254e-01 5.000000e-01 1.497007e-14
    outer loop
      vertex   7.330773e+00 1.269727e+01 -2.775558e-16
      vertex   6.930727e+00 1.200437e+01 1.113537e+00
      vertex   6.968286e+00 1.206943e+01 1.087780e+00
    endloop
  endfacet
  facet normal -8.660254e-01 5.000000e-01 4.622827e-16
    outer loop
      vertex   7.330773e+00 1.269727e+01 -2.775558e-16
      vertex   6.968286e+00 1.206943e+01 1.087780e+00
      vertex   7.004512e+00 1.213217e+01 1.061886e+00
    endloop
  endfacet
  facet normal -8.660254e-01 5.000000e-01 -1.221090e-14
    outer loop
      vertex   7.004512e+00 1.213217e+01 1.061886e+00
      vertex   7.039399e+00 1.219260e+01 1.035861e+00
      vertex   7.330773e+00 1.269727e+01 -2.775558e-16
    endloop
  endfacet
  facet normal -8.660254e-01 5.000000e-01 5.116540e-16
    outer loop
      vertex   7.330773e+00 1.269727e+01 -2.775558e-16
      vertex   7.039399e+00 1.219260e+01 1.035861e+00
      vertex   7.072940e+00 1.225069e+01 1.009709e+00
    endloop
  endfacet
  facet normal -8.660254e-01 5.000000e-01 6.743000e-15
    outer loop
      vertex   7.330773e+00 1.269727e+01 -2.775558e-16
      vertex   7.072940e+00 1.225069e+01 1.009709e+00
      vertex   7.105128e+00 1.230644e+01 9.834346e-01
    endloop
  endfacet
  facet normal -8.660254e-01 5.000000e-01 -4.948475e-15
    outer loop
      vertex   7.105128e+00 1.230644e+01 9.834346e-01
      vertex   7.135957e+00 1.235984e+01 9.570439e-01
      vertex   7.330773e+00 1.269727e+01 -2.775558e-16
    endloop
  endfacet
  facet normal -8.660254e-01 5.000000e-01 7.229282e-15
    outer loop
      vertex   7.330773e+00 1.269727e+01 -2.775558e-16
      vertex   7.135957e+00 1.235984e+01 9.570439e-01
      vertex   7.165422e+00 1.241087e+01 9.305414e-01
    endloop
  endfacet
  facet normal -8.660254e-01 5.000000e-01 -4.148672e-15
    outer loop
      vertex   7.330773e+00 1.269727e+01 -2.775558e-16
      vertex   7.165422e+00 1.241087e+01 9.305414e-01
      vertex   7.193516e+00 1.245954e+01 9.039323e-01
    endloop
  endfacet
  facet normal -8.660254e-01 5.000000e-01 1.630074e-15
    outer loop
      vertex   7.193516e+00 1.245954e+01 9.039323e-01
      vertex   7.220235e+00 1.250581e+01 8.772217e-01
      vertex   7.330773e+00 1.269727e+01 -2.775558e-16
    endloop
  endfacet
  facet normal -8.660254e-01 5.000000e-01 -3.421906e-15
    outer loop
      vertex   7.330773e+00 1.269727e+01 -2.775558e-16
      vertex   7.220235e+00 1.250581e+01 8.772217e-01
      vertex   7.245573e+00 1.254970e+01 8.504147e-01
    endloop
  endfacet
  facet normal -8.660254e-01 5.000000e-01 4.030252e-15
    outer loop
      vertex   7.330773e+00 1.269727e+01 -2.775558e-16
      vertex   7.245573e+00 1.254970e+01 8.504147e-01
      vertex   7.269526e+00 1.259119e+01 8.235163e-01
    endloop
  endfacet
  facet normal -8.660254e-01 5.000000e-01 -3.497058e-15
    outer loop
      vertex   7.269526e+00 1.259119e+01 8.235163e-01
      vertex   7.292088e+00 1.263027e+01 7.965317e-01
      vertex   7.330773e+00 1.269727e+01 -2.775558e-16
    endloop
  endfacet
  facet normal -8.660254e-01 5.000000e-01 2.310473e-15
    outer loop
      vertex   7.330773e+00 1.269727e+01 -2.775558e-16
      vertex   7.292088e+00 1.263027e+01 7.965317e-01
      vertex   7.313256e+00 1.266693e+01 7.694661e-01
    endloop
  endfacet
  facet normal -8.660254e-01 5.000000e-01 -2.299148e-18
    outer loop
      vertex   7.330773e+00 1.269727e+01 -2.775558e-16
      vertex   7.313256e+00 1.266693e+01 7.694661e-01
      vertex   7.333026e+00 1.270117e+01 7.423247e-01
    endloop
  endfacet
  facet normal -8.660254e-01 5.000000e-01 -5.986768e-17
    outer loop
      vertex   7.330773e+00 1.269727e+01 -2.775558e-16
      vertex   7.333026e+00 1.270117e+01 7.423247e-01
      vertex   7.349305e+00 1.272937e+01 2.720404e-02
    endloop
  endfacet
  facet normal -8.660254e-01 5.000000e-01 1.590526e-15
    outer loop
      vertex   7.349305e+00 1.272937e+01 2.720404e-02
      vertex   7.333026e+00 1.270117e+01 7.423247e-01
      vertex   7.351393e+00 1.273299e+01 7.151126e-01
    endloop
  endfacet
  facet normal -8.660254e-01 5.000000e-01 1.666212e-15
    outer loop
      vertex   7.349305e+00 1.272937e+01 2.720404e-02
      vertex   7.351393e+00 1.273299e+01 7.151126e-01
      vertex   7.366432e+00 1.275903e+01 5.447414e-02
    endloop
  endfacet
  facet normal -8.660254e-01 5.000000e-01 6.939431e-16
    outer loop
      vertex   7.366432e+00 1.275903e+01 5.447414e-02
      vertex   7.351393e+00 1.273299e+01 7.151126e-01
      vertex   7.368354e+00 1.276236e+01 6.878351e-01
    endloop
  endfacet
  facet normal -8.660254e-01 5.000000e-01 8.707483e-16
    outer loop
      vertex   7.366432e+00 1.275903e+01 5.447414e-02
      vertex   7.368354e+00 1.276236e+01 6.878351e-01
      vertex   7.382150e+00 1.278626e+01 8.180508e-02
    endloop
  endfacet
  facet normal -8.660254e-01 5.000000e-01 1.030896e-15
    outer loop
      vertex   7.382150e+00 1.278626e+01 8.180508e-02
      vertex   7.368354e+00 1.276236e+01 6.878351e-01
      vertex   7.383906e+00 1.278930e+01 6.604973e-01
    endloop
  endfacet
  facet normal -8.660254e-01 5.000000e-01 6.573779e-16
    outer loop
      vertex   7.382150e+00 1.278626e+01 8.180508e-02
      vertex   7.383906e+00 1.278930e+01 6.604973e-01
      vertex   7.396457e+00 1.281104e+01 1.091917e-01
    endloop
  endfacet
  facet normal -8.660254e-01 5.000000e-01 -8.229573e-17
    outer loop
      vertex   7.396457e+00 1.281104e+01 1.091917e-01
      vertex   7.383906e+00 1.278930e+01 6.604973e-01
      vertex   7.398047e+00 1.281379e+01 6.331046e-01
    endloop
  endfacet
  facet normal -8.660254e-01 5.000000e-01 8.986964e-17
    outer loop
      vertex   7.396457e+00 1.281104e+01 1.091917e-01
      vertex   7.398047e+00 1.281379e+01 6.331046e-01
      vertex   7.409349e+00 1.283337e+01 1.366286e-01
    endloop
  endfacet
  facet normal -8.660254e-01 5.000000e-01 1.024433e-15
    outer loop
      vertex   7.409349e+00 1.283337e+01 1.366286e-01
      vertex   7.398047e+00 1.281379e+01 6.331046e-01
      vertex   7.410772e+00 1.283583e+01 6.056620e-01
    endloop
  endfacet
  facet normal -8.660254e-01 5.000000e-01 7.945412e-16
    outer loop
      vertex   7.409349e+00 1.283337e+01 1.366286e-01
      vertex   7.410772e+00 1.283583e+01 6.056620e-01
      vertex   7.420824e+00 1.285324e+01 1.641107e-01
    endloop
  endfacet
  facet normal -8.660254e-01 5.000000e-01 -1.396002e-15
    outer loop
      vertex   7.420824e+00 1.285324e+01 1.641107e-01
      vertex   7.410772e+00 1.283583e+01 6.056620e-01
      vertex   7.422081e+00 1.285542e+01 5.781749e-01
    endloop
  endfacet
  facet normal -8.660254e-01 5.000000e-01 -1.192616e-15
    outer loop
      vertex   7.420824e+00 1.285324e+01 1.641107e-01
      vertex   7.422081e+00 1.285542e+01 5.781749e-01
      vertex   7.430880e+00 1.287066e+01 1.916327e-01
    endloop
  endfacet
  facet normal -8.660254e-01 5.000000e-01 -4.887762e-16
    outer loop
      vertex   7.430880e+00 1.287066e+01 1.916327e-01
      vertex   7.422081e+00 1.285542e+01 5.781749e-01
      vertex   7.431970e+00 1.287255e+01 5.506486e-01
    endloop
  endfacet
  facet normal -8.660254e-01 5.000000e-01 -6.301481e-16
    outer loop
      vertex   7.430880e+00 1.287066e+01 1.916327e-01
      vertex   7.431970e+00 1.287255e+01 5.506486e-01
      vertex   7.439515e+00 1.288562e+01 2.191894e-01
    endloop
  endfacet
  facet normal -8.660254e-01 5.000000e-01 1.779931e-15
    outer loop
      vertex   7.439515e+00 1.288562e+01 2.191894e-01
      vertex   7.431970e+00 1.287255e+01 5.506486e-01
      vertex   7.440437e+00 1.288722e+01 5.230882e-01
    endloop
  endfacet
  facet normal -8.660254e-01 5.000000e-01 2.245035e-15
    outer loop
      vertex   7.439515e+00 1.288562e+01 2.191894e-01
      vertex   7.440437e+00 1.288722e+01 5.230882e-01
      vertex   7.446728e+00 1.289811e+01 2.467753e-01
    endloop
  endfacet
  facet normal -8.660254e-01 5.000000e-01 3.219820e-15
    outer loop
      vertex   7.446728e+00 1.289811e+01 2.467753e-01
      vertex   7.440437e+00 1.288722e+01 5.230882e-01
      vertex   7.447482e+00 1.289942e+01 4.954991e-01
    endloop
  endfacet
  facet normal -8.660254e-01 5.000000e-01 3.068757e-15
    outer loop
      vertex   7.446728e+00 1.289811e+01 2.467753e-01
      vertex   7.447482e+00 1.289942e+01 4.954991e-01
      vertex   7.452516e+00 1.290814e+01 2.743854e-01
    endloop
  endfacet
  facet normal -8.660254e-01 5.000000e-01 1.828584e-15
    outer loop
      vertex   7.452516e+00 1.290814e+01 2.743854e-01
      vertex   7.447482e+00 1.289942e+01 4.954991e-01
      vertex   7.453103e+00 1.290915e+01 4.678866e-01
    endloop
  endfacet
  facet normal -8.660254e-01 5.000000e-01 1.439219e-15
    outer loop
      vertex   7.452516e+00 1.290814e+01 2.743854e-01
      vertex   7.453103e+00 1.290915e+01 4.678866e-01
      vertex   7.456879e+00 1.291569e+01 3.020143e-01
    endloop
  endfacet
  facet normal -8.660254e-01 5.000000e-01 -4.709857e-15
    outer loop
      vertex   7.456879e+00 1.291569e+01 3.020143e-01
      vertex   7.453103e+00 1.290915e+01 4.678866e-01
      vertex   7.457299e+00 1.291642e+01 4.402558e-01
    endloop
  endfacet
  facet normal -8.660254e-01 5.000000e-01 -5.184204e-15
    outer loop
      vertex   7.456879e+00 1.291569e+01 3.020143e-01
      vertex   7.457299e+00 1.291642e+01 4.402558e-01
      vertex   7.459817e+00 1.292078e+01 3.296567e-01
    endloop
  endfacet
  facet normal -8.660254e-01 5.000000e-01 -1.697789e-14
    outer loop
      vertex   7.459817e+00 1.292078e+01 3.296567e-01
      vertex   7.457299e+00 1.291642e+01 4.402558e-01
      vertex   7.460068e+00 1.292122e+01 4.126122e-01
    endloop
  endfacet
  facet normal -8.660254e-01 5.000000e-01 -1.982175e-14
    outer loop
      vertex   7.459817e+00 1.292078e+01 3.296567e-01
      vertex   7.460068e+00 1.292122e+01 4.126122e-01
      vertex   7.461327e+00 1.292340e+01 3.573073e-01
    endloop
  endfacet
  facet normal -8.660254e-01 5.000000e-01 -2.313291e-14
    outer loop
      vertex   7.461327e+00 1.292340e+01 3.573073e-01
      vertex   7.460068e+00 1.292122e+01 4.126122e-01
      vertex   7.461411e+00 1.292354e+01 3.849609e-01
    endloop
  endfacet
  facet normal -5.070809e-01 -8.618568e-01 -8.475173e-03
    outer loop
      vertex   5.774119e+00 1.000107e+01 2.078202e-01
      vertex   5.775000e+00 1.000259e+01 -1.734723e-17
      vertex   5.975699e+00 9.883514e+00 1.013321e-01
    endloop
  endfacet
  facet normal -5.038766e-01 -8.636106e-01 -1.688252e-02
    outer loop
      vertex   5.975699e+00 9.883514e+00 1.013321e-01
      vertex   5.775000e+00 1.000259e+01 -1.734723e-17
      vertex   5.866088e+00 9.949448e+00 0.000000e+00
    endloop
  endfacet
  facet normal -5.112340e-01 -8.594192e-01 -6.196709e-03
    outer loop
      vertex   5.975699e+00 9.883514e+00 1.013321e-01
      vertex   5.866088e+00 9.949448e+00 0.000000e+00
      vertex   5.975862e+00 9.883783e+00 5.062210e-02
    endloop
  endfacet
  facet normal -5.118085e-01 -8.590877e-01 -4.520990e-03
    outer loop
      vertex   5.975862e+00 9.883783e+00 5.062210e-02
      vertex   5.866088e+00 9.949448e+00 0.000000e+00
      vertex   5.956686e+00 9.895473e+00 0.000000e+00
    endloop
  endfacet
  facet normal -5.196363e-01 -8.543875e-01 -4.703813e-04
    outer loop
      vertex   5.975862e+00 9.883783e+00 5.062210e-02
      vertex   5.956686e+00 9.895473e+00 0.000000e+00
      vertex   6.046788e+00 9.840674e+00 6.132273e-16
    endloop
  endfacet
  facet normal -5.274131e-01 -8.496033e-01 -3.106508e-03
    outer loop
      vertex   6.136385e+00 9.785054e+00 1.491862e-15
      vertex   6.144539e+00 9.779793e+00 5.437663e-02
      vertex   6.046788e+00 9.840674e+00 6.132273e-16
    endloop
  endfacet
  facet normal -5.245973e-01 -8.512911e-01 -1.005805e-02
    outer loop
      vertex   6.046788e+00 9.840674e+00 6.132273e-16
      vertex   6.144539e+00 9.779793e+00 5.437663e-02
      vertex   5.975862e+00 9.883783e+00 5.062210e-02
    endloop
  endfacet
  facet normal -5.246760e-01 -8.512794e-01 -6.196642e-03
    outer loop
      vertex   5.975862e+00 9.883783e+00 5.062210e-02
      vertex   6.144539e+00 9.779793e+00 5.437663e-02
      vertex   5.975699e+00 9.883514e+00 1.013321e-01
    endloop
  endfacet
  facet normal -5.250232e-01 -8.510508e-01 -7.949943e-03
    outer loop
      vertex   5.975699e+00 9.883514e+00 1.013321e-01
      vertex   6.144539e+00 9.779793e+00 5.437663e-02
      vertex   6.151307e+00 9.775108e+00 1.090249e-01
    endloop
  endfacet
  facet normal -5.249360e-01 -8.510789e-01 -1.033605e-02
    outer loop
      vertex   5.975699e+00 9.883514e+00 1.013321e-01
      vertex   6.151307e+00 9.775108e+00 1.090249e-01
      vertex   5.975427e+00 9.883065e+00 1.521288e-01
    endloop
  endfacet
  facet normal -5.252601e-01 -8.508540e-01 -1.222198e-02
    outer loop
      vertex   5.975427e+00 9.883065e+00 1.521288e-01
      vertex   6.151307e+00 9.775108e+00 1.090249e-01
      vertex   6.156682e+00 9.771001e+00 1.639140e-01
    endloop
  endfacet
  facet normal -5.251378e-01 -8.508939e-01 -1.448249e-02
    outer loop
      vertex   5.975427e+00 9.883065e+00 1.521288e-01
      vertex   6.156682e+00 9.771001e+00 1.639140e-01
      vertex   5.975046e+00 9.882434e+00 2.030112e-01
    endloop
  endfacet
  facet normal -5.254348e-01 -8.506741e-01 -1.648870e-02
    outer loop
      vertex   5.975046e+00 9.882434e+00 2.030112e-01
      vertex   6.156682e+00 9.771001e+00 1.639140e-01
      vertex   6.160658e+00 9.767477e+00 2.190130e-01
    endloop
  endfacet
  facet normal -5.252810e-01 -8.507247e-01 -1.863590e-02
    outer loop
      vertex   5.975046e+00 9.882434e+00 2.030112e-01
      vertex   6.160658e+00 9.767477e+00 2.190130e-01
      vertex   5.974554e+00 9.881621e+00 2.539779e-01
    endloop
  endfacet
  facet normal -5.255476e-01 -8.505111e-01 -2.075213e-02
    outer loop
      vertex   5.974554e+00 9.881621e+00 2.539779e-01
      vertex   6.160658e+00 9.767477e+00 2.190130e-01
      vertex   6.163228e+00 9.764540e+00 2.742911e-01
    endloop
  endfacet
  facet normal -5.253650e-01 -8.505715e-01 -2.279621e-02
    outer loop
      vertex   5.974554e+00 9.881621e+00 2.539779e-01
      vertex   6.163228e+00 9.764540e+00 2.742911e-01
      vertex   5.973952e+00 9.880625e+00 3.050278e-01
    endloop
  endfacet
  facet normal -5.255983e-01 -8.503651e-01 -2.501210e-02
    outer loop
      vertex   5.973952e+00 9.880625e+00 3.050278e-01
      vertex   6.163228e+00 9.764540e+00 2.742911e-01
      vertex   6.164387e+00 9.762195e+00 3.296906e-01
    endloop
  endfacet
  facet normal -5.251626e-01 -8.505059e-01 -2.905215e-02
    outer loop
      vertex   5.973952e+00 9.880625e+00 3.050278e-01
      vertex   6.164387e+00 9.762195e+00 3.296906e-01
      vertex   5.972413e+00 9.878079e+00 4.073723e-01
    endloop
  endfacet
  facet normal -5.258147e-01 -8.500198e-01 -3.138866e-02
    outer loop
      vertex   5.972413e+00 9.878079e+00 4.073723e-01
      vertex   6.164387e+00 9.762195e+00 3.296906e-01
      vertex   6.162463e+00 9.759297e+00 4.403863e-01
    endloop
  endfacet
  facet normal -5.249498e-01 -8.503105e-01 -3.741315e-02
    outer loop
      vertex   5.972413e+00 9.878079e+00 4.073723e-01
      vertex   6.162463e+00 9.759297e+00 4.403863e-01
      vertex   5.970424e+00 9.874790e+00 5.100349e-01
    endloop
  endfacet
  facet normal -5.255592e-01 -8.498206e-01 -3.990561e-02
    outer loop
      vertex   5.970424e+00 9.874790e+00 5.100349e-01
      vertex   6.162463e+00 9.759297e+00 4.403863e-01
      vertex   6.154916e+00 9.758784e+00 5.507031e-01
    endloop
  endfacet
  facet normal -5.244887e-01 -8.501847e-01 -4.580028e-02
    outer loop
      vertex   5.970424e+00 9.874790e+00 5.100349e-01
      vertex   6.154916e+00 9.758784e+00 5.507031e-01
      vertex   5.967981e+00 9.870750e+00 6.130055e-01
    endloop
  endfacet
  facet normal -5.250661e-01 -8.496820e-01 -4.843604e-02
    outer loop
      vertex   5.967981e+00 9.870750e+00 6.130055e-01
      vertex   6.154916e+00 9.758784e+00 5.507031e-01
      vertex   6.141781e+00 9.760648e+00 6.603897e-01
    endloop
  endfacet
  facet normal -5.228182e-01 -8.504387e-01 -5.843923e-02
    outer loop
      vertex   5.967981e+00 9.870750e+00 6.130055e-01
      vertex   6.141781e+00 9.760648e+00 6.603897e-01
      vertex   5.961717e+00 9.860389e+00 8.198294e-01
    endloop
  endfacet
  facet normal -5.231348e-01 -8.502094e-01 -5.894026e-02
    outer loop
      vertex   5.961717e+00 9.860389e+00 8.198294e-01
      vertex   6.141781e+00 9.760648e+00 6.603897e-01
      vertex   6.111685e+00 9.767881e+00 8.231880e-01
    endloop
  endfacet
  facet normal -5.224661e-01 -8.496040e-01 -7.212593e-02
    outer loop
      vertex   5.961717e+00 9.860389e+00 8.198294e-01
      vertex   6.111685e+00 9.767881e+00 8.231880e-01
      vertex   6.069224e+00 9.780412e+00 9.831543e-01
    endloop
  endfacet
  facet normal -3.876144e-01 -9.213098e-01 -3.071456e-02
    outer loop
      vertex   6.069224e+00 9.780412e+00 9.831543e-01
      vertex   6.111685e+00 9.767881e+00 8.231880e-01
      vertex   6.098899e+00 9.771470e+00 8.768667e-01
    endloop
  endfacet
  facet normal -3.875463e-01 -9.213391e-01 -3.069306e-02
    outer loop
      vertex   6.069224e+00 9.780412e+00 9.831543e-01
      vertex   6.098899e+00 9.771470e+00 8.768667e-01
      vertex   6.084744e+00 9.775648e+00 9.301993e-01
    endloop
  endfacet
  facet normal -3.886041e-01 -9.208879e-01 -3.085972e-02
    outer loop
      vertex   6.164387e+00 9.762195e+00 3.296906e-01
      vertex   6.164130e+00 9.760447e+00 3.850701e-01
      vertex   6.162463e+00 9.759297e+00 4.403863e-01
    endloop
  endfacet
  facet normal -3.883904e-01 -9.209783e-01 -3.085195e-02
    outer loop
      vertex   6.162463e+00 9.759297e+00 4.403863e-01
      vertex   6.159390e+00 9.758743e+00 4.956078e-01
      vertex   6.154916e+00 9.758784e+00 5.507031e-01
    endloop
  endfacet
  facet normal -3.881764e-01 -9.210692e-01 -3.083126e-02
    outer loop
      vertex   6.154916e+00 9.758784e+00 5.507031e-01
      vertex   6.149045e+00 9.759419e+00 6.056409e-01
      vertex   6.141781e+00 9.760648e+00 6.603897e-01
    endloop
  endfacet
  facet normal -3.879279e-01 -9.211752e-01 -3.079157e-02
    outer loop
      vertex   6.141781e+00 9.760648e+00 6.603897e-01
      vertex   6.133131e+00 9.762468e+00 7.149181e-01
      vertex   6.111685e+00 9.767881e+00 8.231880e-01
    endloop
  endfacet
  facet normal -3.878577e-01 -9.212053e-01 -3.077616e-02
    outer loop
      vertex   6.111685e+00 9.767881e+00 8.231880e-01
      vertex   6.133131e+00 9.762468e+00 7.149181e-01
      vertex   6.123097e+00 9.764880e+00 7.691947e-01
    endloop
  endfacet
  facet normal -5.189447e-01 -8.514793e-01 -7.536213e-02
    outer loop
      vertex   5.961717e+00 9.860389e+00 8.198294e-01
      vertex   6.069224e+00 9.780412e+00 9.831543e-01
      vertex   5.953586e+00 9.846941e+00 1.027759e+00
    endloop
  endfacet
  facet normal -5.202250e-01 -8.502214e-01 -8.055727e-02
    outer loop
      vertex   5.953586e+00 9.846941e+00 1.027759e+00
      vertex   6.069224e+00 9.780412e+00 9.831543e-01
      vertex   6.052345e+00 9.785761e+00 1.035700e+00
    endloop
  endfacet
  facet normal -5.195237e-01 -8.499758e-01 -8.738593e-02
    outer loop
      vertex   5.953586e+00 9.846941e+00 1.027759e+00
      vertex   6.052345e+00 9.785761e+00 1.035700e+00
      vertex   6.014633e+00 9.798174e+00 1.139162e+00
    endloop
  endfacet
  facet normal -3.869034e-01 -9.216173e-01 -3.045044e-02
    outer loop
      vertex   6.014633e+00 9.798174e+00 1.139162e+00
      vertex   6.052345e+00 9.785761e+00 1.035700e+00
      vertex   6.034137e+00 9.791686e+00 1.087732e+00
    endloop
  endfacet
  facet normal -5.137498e-01 -8.530063e-01 -9.187651e-02
    outer loop
      vertex   6.014633e+00 9.798174e+00 1.139162e+00
      vertex   5.993848e+00 9.805221e+00 1.189964e+00
      vertex   5.953586e+00 9.846941e+00 1.027759e+00
    endloop
  endfacet
  facet normal -5.124791e-01 -8.537166e-01 -9.237460e-02
    outer loop
      vertex   5.953586e+00 9.846941e+00 1.027759e+00
      vertex   5.993848e+00 9.805221e+00 1.189964e+00
      vertex   5.943557e+00 9.830353e+00 1.236707e+00
    endloop
  endfacet
  facet normal -5.068553e-01 -8.570679e-01 -9.237071e-02
    outer loop
      vertex   5.953586e+00 9.846941e+00 1.027759e+00
      vertex   5.943557e+00 9.830353e+00 1.236707e+00
      vertex   5.752993e+00 9.964477e+00 1.037887e+00
    endloop
  endfacet
  facet normal -5.062696e-01 -8.573339e-01 -9.311156e-02
    outer loop
      vertex   5.752993e+00 9.964477e+00 1.037887e+00
      vertex   5.943557e+00 9.830353e+00 1.236707e+00
      vertex   5.743321e+00 9.947723e+00 1.244735e+00
    endloop
  endfacet
  facet normal -5.059890e-01 -8.559391e-01 -1.065051e-01
    outer loop
      vertex   5.743321e+00 9.947723e+00 1.244735e+00
      vertex   5.943557e+00 9.830353e+00 1.236707e+00
      vertex   5.871211e+00 9.848624e+00 1.433566e+00
    endloop
  endfacet
  facet normal -5.022240e-01 -8.577144e-01 -1.099867e-01
    outer loop
      vertex   5.743321e+00 9.947723e+00 1.244735e+00
      vertex   5.871211e+00 9.848624e+00 1.433566e+00
      vertex   5.731896e+00 9.927935e+00 1.451216e+00
    endloop
  endfacet
  facet normal -5.024250e-01 -8.569193e-01 -1.151456e-01
    outer loop
      vertex   5.731896e+00 9.927935e+00 1.451216e+00
      vertex   5.871211e+00 9.848624e+00 1.433566e+00
      vertex   5.843044e+00 9.858899e+00 1.480011e+00
    endloop
  endfacet
  facet normal -5.006733e-01 -8.569864e-01 -1.220682e-01
    outer loop
      vertex   5.731896e+00 9.927935e+00 1.451216e+00
      vertex   5.843044e+00 9.858899e+00 1.480011e+00
      vertex   5.783183e+00 9.880995e+00 1.570405e+00
    endloop
  endfacet
  facet normal -3.843480e-01 -9.227338e-01 -2.896453e-02
    outer loop
      vertex   5.783183e+00 9.880995e+00 1.570405e+00
      vertex   5.843044e+00 9.858899e+00 1.480011e+00
      vertex   5.813696e+00 9.869691e+00 1.525633e+00
    endloop
  endfacet
  facet normal -5.163585e-01 -8.507289e-01 -9.815477e-02
    outer loop
      vertex   5.993848e+00 9.805221e+00 1.189964e+00
      vertex   5.971796e+00 9.812820e+00 1.240109e+00
      vertex   5.943557e+00 9.830353e+00 1.236707e+00
    endloop
  endfacet
  facet normal -5.156909e-01 -8.505735e-01 -1.028961e-01
    outer loop
      vertex   5.943557e+00 9.830353e+00 1.236707e+00
      vertex   5.971796e+00 9.812820e+00 1.240109e+00
      vertex   5.948492e+00 9.820966e+00 1.289569e+00
    endloop
  endfacet
  facet normal -5.092583e-01 -8.542877e-01 -1.041561e-01
    outer loop
      vertex   5.943557e+00 9.830353e+00 1.236707e+00
      vertex   5.948492e+00 9.820966e+00 1.289569e+00
      vertex   5.923950e+00 9.829652e+00 1.338317e+00
    endloop
  endfacet
  facet normal -4.983807e-01 -8.609249e-01 -1.021029e-01
    outer loop
      vertex   5.923950e+00 9.829652e+00 1.338317e+00
      vertex   5.898185e+00 9.838874e+00 1.386325e+00
      vertex   5.943557e+00 9.830353e+00 1.236707e+00
    endloop
  endfacet
  facet normal -4.850920e-01 -8.689979e-01 -9.761339e-02
    outer loop
      vertex   5.943557e+00 9.830353e+00 1.236707e+00
      vertex   5.898185e+00 9.838874e+00 1.386325e+00
      vertex   5.871211e+00 9.848624e+00 1.433566e+00
    endloop
  endfacet
  facet normal -4.949077e-01 -8.598113e-01 -1.256616e-01
    outer loop
      vertex   5.783183e+00 9.880995e+00 1.570405e+00
      vertex   5.751520e+00 9.892805e+00 1.614298e+00
      vertex   5.731896e+00 9.927935e+00 1.451216e+00
    endloop
  endfacet
  facet normal -4.899483e-01 -8.624756e-01 -1.268323e-01
    outer loop
      vertex   5.731896e+00 9.927935e+00 1.451216e+00
      vertex   5.751520e+00 9.892805e+00 1.614298e+00
      vertex   5.718721e+00 9.905116e+00 1.657285e+00
    endloop
  endfacet
  facet normal -5.069403e-01 -8.586050e-01 -7.621672e-02
    outer loop
      vertex   5.752993e+00 9.964477e+00 1.037887e+00
      vertex   5.760911e+00 9.978191e+00 8.307218e-01
      vertex   5.953586e+00 9.846941e+00 1.027759e+00
    endloop
  endfacet
  facet normal -5.076025e-01 -8.582894e-01 -7.535906e-02
    outer loop
      vertex   5.953586e+00 9.846941e+00 1.027759e+00
      vertex   5.760911e+00 9.978191e+00 8.307218e-01
      vertex   5.961717e+00 9.860389e+00 8.198294e-01
    endloop
  endfacet
  facet normal -5.075040e-01 -8.596063e-01 -5.930180e-02
    outer loop
      vertex   5.760911e+00 9.978191e+00 8.307218e-01
      vertex   5.767073e+00 9.988864e+00 6.232854e-01
      vertex   5.961717e+00 9.860389e+00 8.198294e-01
    endloop
  endfacet
  facet normal -5.081595e-01 -8.592781e-01 -5.843805e-02
    outer loop
      vertex   5.961717e+00 9.860389e+00 8.198294e-01
      vertex   5.767073e+00 9.988864e+00 6.232854e-01
      vertex   5.967981e+00 9.870750e+00 6.130055e-01
    endloop
  endfacet
  facet normal -5.080139e-01 -8.601304e-01 -4.579969e-02
    outer loop
      vertex   5.967981e+00 9.870750e+00 6.130055e-01
      vertex   5.767073e+00 9.988864e+00 6.232854e-01
      vertex   5.970424e+00 9.874790e+00 5.100349e-01
    endloop
  endfacet
  facet normal -5.066527e-01 -8.611084e-01 -4.237039e-02
    outer loop
      vertex   5.970424e+00 9.874790e+00 5.100349e-01
      vertex   5.767073e+00 9.988864e+00 6.232854e-01
      vertex   5.771477e+00 9.996491e+00 4.156256e-01
    endloop
  endfacet
  facet normal -5.084849e-01 -8.602577e-01 -3.741290e-02
    outer loop
      vertex   5.970424e+00 9.874790e+00 5.100349e-01
      vertex   5.771477e+00 9.996491e+00 4.156256e-01
      vertex   5.972413e+00 9.878079e+00 4.073723e-01
    endloop
  endfacet
  facet normal -5.083713e-01 -8.606478e-01 -2.905189e-02
    outer loop
      vertex   5.972413e+00 9.878079e+00 4.073723e-01
      vertex   5.771477e+00 9.996491e+00 4.156256e-01
      vertex   5.973952e+00 9.880625e+00 3.050278e-01
    endloop
  endfacet
  facet normal -5.069392e-01 -8.616068e-01 -2.542537e-02
    outer loop
      vertex   5.771477e+00 9.996491e+00 4.156256e-01
      vertex   5.774119e+00 1.000107e+01 2.078202e-01
      vertex   5.973952e+00 9.880625e+00 3.050278e-01
    endloop
  endfacet
  facet normal -5.079159e-01 -8.611050e-01 -2.279588e-02
    outer loop
      vertex   5.973952e+00 9.880625e+00 3.050278e-01
      vertex   5.774119e+00 1.000107e+01 2.078202e-01
      vertex   5.974554e+00 9.881621e+00 2.539779e-01
    endloop
  endfacet
  facet normal -5.078037e-01 -8.614108e-01 -1.033581e-02
    outer loop
      vertex   5.975699e+00 9.883514e+00 1.013321e-01
      vertex   5.975427e+00 9.883065e+00 1.521288e-01
      vertex   5.774119e+00 1.000107e+01 2.078202e-01
    endloop
  endfacet
  facet normal -5.086299e-01 -8.608634e-01 -1.448235e-02
    outer loop
      vertex   5.774119e+00 1.000107e+01 2.078202e-01
      vertex   5.975427e+00 9.883065e+00 1.521288e-01
      vertex   5.975046e+00 9.882434e+00 2.030112e-01
    endloop
  endfacet
  facet normal -5.086687e-01 -8.607606e-01 -1.863578e-02
    outer loop
      vertex   5.774119e+00 1.000107e+01 2.078202e-01
      vertex   5.975046e+00 9.882434e+00 2.030112e-01
      vertex   5.974554e+00 9.881621e+00 2.539779e-01
    endloop
  endfacet
  facet normal 9.112913e-01 -3.737478e-01 -1.728028e-01
    outer loop
      vertex   6.136385e+00 9.785054e+00 1.491862e-15
      vertex   7.330773e+00 1.269727e+01 -2.775558e-16
      vertex   6.144539e+00 9.779793e+00 5.437663e-02
    endloop
  endfacet
  facet normal 9.136026e-01 -3.744219e-01 -1.585511e-01
    outer loop
      vertex   6.144539e+00 9.779793e+00 5.437663e-02
      vertex   7.330773e+00 1.269727e+01 -2.775558e-16
      vertex   6.804703e+00 1.137256e+01 9.701332e-02
    endloop
  endfacet
  facet normal 9.153288e-01 -3.754855e-01 -1.455466e-01
    outer loop
      vertex   6.144539e+00 9.779793e+00 5.437663e-02
      vertex   6.804703e+00 1.137256e+01 9.701332e-02
      vertex   6.151307e+00 9.775108e+00 1.090249e-01
    endloop
  endfacet
  facet normal 9.187739e-01 -3.766887e-01 -1.181533e-01
    outer loop
      vertex   6.151307e+00 9.775108e+00 1.090249e-01
      vertex   6.804703e+00 1.137256e+01 9.701332e-02
      vertex   6.156682e+00 9.771001e+00 1.639140e-01
    endloop
  endfacet
  facet normal 9.193467e-01 -3.767256e-01 -1.134879e-01
    outer loop
      vertex   6.156682e+00 9.771001e+00 1.639140e-01
      vertex   6.804703e+00 1.137256e+01 9.701332e-02
      vertex   6.815026e+00 1.136833e+01 1.946930e-01
    endloop
  endfacet
  facet normal 9.213582e-01 -3.779945e-01 -9.066025e-02
    outer loop
      vertex   6.156682e+00 9.771001e+00 1.639140e-01
      vertex   6.815026e+00 1.136833e+01 1.946930e-01
      vertex   6.160658e+00 9.767477e+00 2.190130e-01
    endloop
  endfacet
  facet normal 9.233805e-01 -3.784241e-01 -6.452574e-02
    outer loop
      vertex   6.160658e+00 9.767477e+00 2.190130e-01
      vertex   6.815026e+00 1.136833e+01 1.946930e-01
      vertex   6.820895e+00 1.136592e+01 2.928029e-01
    endloop
  endfacet
  facet normal 9.234437e-01 -3.785182e-01 -6.305335e-02
    outer loop
      vertex   6.160658e+00 9.767477e+00 2.190130e-01
      vertex   6.820895e+00 1.136592e+01 2.928029e-01
      vertex   6.163228e+00 9.764540e+00 2.742911e-01
    endloop
  endfacet
  facet normal 9.245926e-01 -3.793098e-01 -3.539110e-02
    outer loop
      vertex   6.163228e+00 9.764540e+00 2.742911e-01
      vertex   6.820895e+00 1.136592e+01 2.928029e-01
      vertex   6.164387e+00 9.762195e+00 3.296906e-01
    endloop
  endfacet
  facet normal 9.252239e-01 -3.791086e-01 -1.540763e-02
    outer loop
      vertex   6.164387e+00 9.762195e+00 3.296906e-01
      vertex   6.820895e+00 1.136592e+01 2.928029e-01
      vertex   6.822297e+00 1.136534e+01 3.911060e-01
    endloop
  endfacet
  facet normal 9.252026e-01 -3.793955e-01 -7.688393e-03
    outer loop
      vertex   6.164387e+00 9.762195e+00 3.296906e-01
      vertex   6.822297e+00 1.136534e+01 3.911060e-01
      vertex   6.164130e+00 9.760447e+00 3.850701e-01
    endloop
  endfacet
  facet normal 9.250086e-01 -3.794201e-01 1.998635e-02
    outer loop
      vertex   6.164130e+00 9.760447e+00 3.850701e-01
      vertex   6.822297e+00 1.136534e+01 3.911060e-01
      vertex   6.162463e+00 9.759297e+00 4.403863e-01
    endloop
  endfacet
  facet normal 9.248147e-01 -3.789181e-01 3.374771e-02
    outer loop
      vertex   6.162463e+00 9.759297e+00 4.403863e-01
      vertex   6.822297e+00 1.136534e+01 3.911060e-01
      vertex   6.819227e+00 1.136660e+01 4.893649e-01
    endloop
  endfacet
  facet normal 9.241431e-01 -3.790666e-01 4.762419e-02
    outer loop
      vertex   6.162463e+00 9.759297e+00 4.403863e-01
      vertex   6.819227e+00 1.136660e+01 4.893649e-01
      vertex   6.159390e+00 9.758743e+00 4.956078e-01
    endloop
  endfacet
  facet normal 9.226103e-01 -3.783304e-01 7.520912e-02
    outer loop
      vertex   6.159390e+00 9.758743e+00 4.956078e-01
      vertex   6.819227e+00 1.136660e+01 4.893649e-01
      vertex   6.154916e+00 9.758784e+00 5.507031e-01
    endloop
  endfacet
  facet normal 9.221544e-01 -3.778516e-01 8.282150e-02
    outer loop
      vertex   6.154916e+00 9.758784e+00 5.507031e-01
      vertex   6.819227e+00 1.136660e+01 4.893649e-01
      vertex   6.811693e+00 1.136969e+01 5.873419e-01
    endloop
  endfacet
  facet normal 9.202791e-01 -3.775395e-01 1.027148e-01
    outer loop
      vertex   6.154916e+00 9.758784e+00 5.507031e-01
      vertex   6.811693e+00 1.136969e+01 5.873419e-01
      vertex   6.149045e+00 9.759419e+00 6.056409e-01
    endloop
  endfacet
  facet normal 9.174144e-01 -3.760489e-01 1.301464e-01
    outer loop
      vertex   6.149045e+00 9.759419e+00 6.056409e-01
      vertex   6.811693e+00 1.136969e+01 5.873419e-01
      vertex   6.141781e+00 9.760648e+00 6.603897e-01
    endloop
  endfacet
  facet normal 9.172502e-01 -3.759103e-01 1.316952e-01
    outer loop
      vertex   6.141781e+00 9.760648e+00 6.603897e-01
      vertex   6.811693e+00 1.136969e+01 5.873419e-01
      vertex   6.799714e+00 1.137461e+01 6.848004e-01
    endloop
  endfacet
  facet normal 9.136272e-01 -3.748230e-01 1.574581e-01
    outer loop
      vertex   6.141781e+00 9.760648e+00 6.603897e-01
      vertex   6.799714e+00 1.137461e+01 6.848004e-01
      vertex   6.133131e+00 9.762468e+00 7.149181e-01
    endloop
  endfacet
  facet normal 9.101678e-01 -3.729668e-01 1.802506e-01
    outer loop
      vertex   6.133131e+00 9.762468e+00 7.149181e-01
      vertex   6.799714e+00 1.137461e+01 6.848004e-01
      vertex   6.783318e+00 1.138133e+01 7.815049e-01
    endloop
  endfacet
  facet normal 9.093433e-01 -3.728173e-01 1.846672e-01
    outer loop
      vertex   6.133131e+00 9.762468e+00 7.149181e-01
      vertex   6.783318e+00 1.138133e+01 7.815049e-01
      vertex   6.123097e+00 9.764880e+00 7.691947e-01
    endloop
  endfacet
  facet normal 9.042041e-01 -3.709244e-01 2.117309e-01
    outer loop
      vertex   6.123097e+00 9.764880e+00 7.691947e-01
      vertex   6.783318e+00 1.138133e+01 7.815049e-01
      vertex   6.111685e+00 9.767881e+00 8.231880e-01
    endloop
  endfacet
  facet normal 9.008968e-01 -3.691187e-01 2.283340e-01
    outer loop
      vertex   6.111685e+00 9.767881e+00 8.231880e-01
      vertex   6.783318e+00 1.138133e+01 7.815049e-01
      vertex   6.762580e+00 1.138984e+01 8.770768e-01
    endloop
  endfacet
  facet normal 8.984762e-01 -3.684902e-01 2.386536e-01
    outer loop
      vertex   6.111685e+00 9.767881e+00 8.231880e-01
      vertex   6.762580e+00 1.138984e+01 8.770768e-01
      vertex   6.098899e+00 9.771470e+00 8.768667e-01
    endloop
  endfacet
  facet normal 8.920271e-01 -3.658489e-01 2.654096e-01
    outer loop
      vertex   6.098899e+00 9.771470e+00 8.768667e-01
      vertex   6.762580e+00 1.138984e+01 8.770768e-01
      vertex   6.084744e+00 9.775648e+00 9.301993e-01
    endloop
  endfacet
  facet normal 8.894277e-01 -3.644121e-01 2.759025e-01
    outer loop
      vertex   6.084744e+00 9.775648e+00 9.301993e-01
      vertex   6.762580e+00 1.138984e+01 8.770768e-01
      vertex   6.737445e+00 1.140014e+01 9.717195e-01
    endloop
  endfacet
  facet normal 8.848641e-01 -3.629895e-01 2.919833e-01
    outer loop
      vertex   6.084744e+00 9.775648e+00 9.301993e-01
      vertex   6.737445e+00 1.140014e+01 9.717195e-01
      vertex   6.069224e+00 9.780412e+00 9.831543e-01
    endloop
  endfacet
  facet normal 8.771126e-01 -3.596054e-01 3.183668e-01
    outer loop
      vertex   6.069224e+00 9.780412e+00 9.831543e-01
      vertex   6.737445e+00 1.140014e+01 9.717195e-01
      vertex   6.052345e+00 9.785761e+00 1.035700e+00
    endloop
  endfacet
  facet normal 8.757808e-01 -3.588629e-01 3.228397e-01
    outer loop
      vertex   6.052345e+00 9.785761e+00 1.035700e+00
      vertex   6.737445e+00 1.140014e+01 9.717195e-01
      vertex   6.708079e+00 1.141219e+01 1.064770e+00
    endloop
  endfacet
  facet normal 8.685304e-01 -3.563270e-01 3.445085e-01
    outer loop
      vertex   6.052345e+00 9.785761e+00 1.035700e+00
      vertex   6.708079e+00 1.141219e+01 1.064770e+00
      vertex   6.034137e+00 9.791686e+00 1.087732e+00
    endloop
  endfacet
  facet normal 8.600293e-01 -3.524451e-01 3.689608e-01
    outer loop
      vertex   6.034137e+00 9.791686e+00 1.087732e+00
      vertex   6.708079e+00 1.141219e+01 1.064770e+00
      vertex   6.674518e+00 1.142595e+01 1.156148e+00
    endloop
  endfacet
  facet normal 8.594809e-01 -3.522897e-01 3.703844e-01
    outer loop
      vertex   6.034137e+00 9.791686e+00 1.087732e+00
      vertex   6.674518e+00 1.142595e+01 1.156148e+00
      vertex   6.014633e+00 9.798174e+00 1.139162e+00
    endloop
  endfacet
  facet normal 8.495620e-01 -3.485354e-01 3.959388e-01
    outer loop
      vertex   6.014633e+00 9.798174e+00 1.139162e+00
      vertex   6.674518e+00 1.142595e+01 1.156148e+00
      vertex   5.993848e+00 9.805221e+00 1.189964e+00
    endloop
  endfacet
  facet normal 8.479038e-01 -3.477509e-01 4.001604e-01
    outer loop
      vertex   5.993848e+00 9.805221e+00 1.189964e+00
      vertex   6.674518e+00 1.142595e+01 1.156148e+00
      vertex   6.810128e+00 1.179549e+01 1.189939e+00
    endloop
  endfacet
  facet normal 8.418223e-01 -3.452565e-01 4.148894e-01
    outer loop
      vertex   5.993848e+00 9.805221e+00 1.189964e+00
      vertex   6.810128e+00 1.179549e+01 1.189939e+00
      vertex   6.767313e+00 1.172133e+01 1.215100e+00
    endloop
  endfacet
  facet normal 9.099895e-01 -3.744205e-01 -1.781245e-01
    outer loop
      vertex   7.330773e+00 1.269727e+01 -2.775558e-16
      vertex   7.349305e+00 1.272937e+01 2.720404e-02
      vertex   6.804703e+00 1.137256e+01 9.701332e-02
    endloop
  endfacet
  facet normal 9.122847e-01 -3.746856e-01 -1.653706e-01
    outer loop
      vertex   6.804703e+00 1.137256e+01 9.701332e-02
      vertex   7.349305e+00 1.272937e+01 2.720404e-02
      vertex   7.366432e+00 1.275903e+01 5.447414e-02
    endloop
  endfacet
  facet normal 9.143909e-01 -3.751347e-01 -1.521949e-01
    outer loop
      vertex   6.804703e+00 1.137256e+01 9.701332e-02
      vertex   7.366432e+00 1.275903e+01 5.447414e-02
      vertex   7.382150e+00 1.278626e+01 8.180508e-02
    endloop
  endfacet
  facet normal 9.162831e-01 -3.757620e-01 -1.386654e-01
    outer loop
      vertex   7.382150e+00 1.278626e+01 8.180508e-02
      vertex   7.396457e+00 1.281104e+01 1.091917e-01
      vertex   6.804703e+00 1.137256e+01 9.701332e-02
    endloop
  endfacet
  facet normal 9.179398e-01 -3.765604e-01 -1.248553e-01
    outer loop
      vertex   6.804703e+00 1.137256e+01 9.701332e-02
      vertex   7.396457e+00 1.281104e+01 1.091917e-01
      vertex   7.409349e+00 1.283337e+01 1.366286e-01
    endloop
  endfacet
  facet normal 9.190923e-01 -3.773458e-01 -1.134879e-01
    outer loop
      vertex   6.804703e+00 1.137256e+01 9.701332e-02
      vertex   7.409349e+00 1.283337e+01 1.366286e-01
      vertex   6.815026e+00 1.136833e+01 1.946930e-01
    endloop
  endfacet
  facet normal 9.193906e-01 -3.773671e-01 -1.109730e-01
    outer loop
      vertex   6.815026e+00 1.136833e+01 1.946930e-01
      vertex   7.409349e+00 1.283337e+01 1.366286e-01
      vertex   7.420824e+00 1.285324e+01 1.641107e-01
    endloop
  endfacet
  facet normal 9.208018e-01 -3.776640e-01 -9.743626e-02
    outer loop
      vertex   6.815026e+00 1.136833e+01 1.946930e-01
      vertex   7.420824e+00 1.285324e+01 1.641107e-01
      vertex   7.430880e+00 1.287066e+01 1.916327e-01
    endloop
  endfacet
  facet normal 9.219688e-01 -3.781144e-01 -8.368385e-02
    outer loop
      vertex   7.430880e+00 1.287066e+01 1.916327e-01
      vertex   7.439515e+00 1.288562e+01 2.191894e-01
      vertex   6.815026e+00 1.136833e+01 1.946930e-01
    endloop
  endfacet
  facet normal 9.228790e-01 -3.787134e-01 -6.978904e-02
    outer loop
      vertex   6.815026e+00 1.136833e+01 1.946930e-01
      vertex   7.439515e+00 1.288562e+01 2.191894e-01
      vertex   7.446728e+00 1.289811e+01 2.467753e-01
    endloop
  endfacet
  facet normal 9.231436e-01 -3.790018e-01 -6.452574e-02
    outer loop
      vertex   6.815026e+00 1.136833e+01 1.946930e-01
      vertex   7.446728e+00 1.289811e+01 2.467753e-01
      vertex   6.820895e+00 1.136592e+01 2.928029e-01
    endloop
  endfacet
  facet normal 9.237077e-01 -3.789773e-01 -5.603881e-02
    outer loop
      vertex   6.820895e+00 1.136592e+01 2.928029e-01
      vertex   7.446728e+00 1.289811e+01 2.467753e-01
      vertex   7.452516e+00 1.290814e+01 2.743854e-01
    endloop
  endfacet
  facet normal 9.243917e-01 -3.790932e-01 -4.228924e-02
    outer loop
      vertex   6.820895e+00 1.136592e+01 2.928029e-01
      vertex   7.452516e+00 1.290814e+01 2.743854e-01
      vertex   7.456879e+00 1.291569e+01 3.020143e-01
    endloop
  endfacet
  facet normal 9.248159e-01 -3.793495e-01 -2.845246e-02
    outer loop
      vertex   7.456879e+00 1.291569e+01 3.020143e-01
      vertex   7.459817e+00 1.292078e+01 3.296567e-01
      vertex   6.820895e+00 1.136592e+01 2.928029e-01
    endloop
  endfacet
  facet normal 9.249720e-01 -3.797229e-01 -1.540763e-02
    outer loop
      vertex   6.820895e+00 1.136592e+01 2.928029e-01
      vertex   7.459817e+00 1.292078e+01 3.296567e-01
      vertex   6.822297e+00 1.136534e+01 3.911060e-01
    endloop
  endfacet
  facet normal 9.249942e-01 -3.797003e-01 -1.460624e-02
    outer loop
      vertex   7.459817e+00 1.292078e+01 3.296567e-01
      vertex   7.461327e+00 1.292340e+01 3.573073e-01
      vertex   6.822297e+00 1.136534e+01 3.911060e-01
    endloop
  endfacet
  facet normal 9.251977e-01 -3.794846e-01 -8.129780e-04
    outer loop
      vertex   6.822297e+00 1.136534e+01 3.911060e-01
      vertex   7.461327e+00 1.292340e+01 3.573073e-01
      vertex   7.461411e+00 1.292354e+01 3.849609e-01
    endloop
  endfacet
  facet normal 9.251388e-01 -3.794059e-01 1.301527e-02
    outer loop
      vertex   6.822297e+00 1.136534e+01 3.911060e-01
      vertex   7.461411e+00 1.292354e+01 3.849609e-01
      vertex   7.460068e+00 1.292122e+01 4.126122e-01
    endloop
  endfacet
  facet normal 9.248177e-01 -3.794649e-01 2.680633e-02
    outer loop
      vertex   7.460068e+00 1.292122e+01 4.126122e-01
      vertex   7.457299e+00 1.291642e+01 4.402558e-01
      vertex   6.822297e+00 1.136534e+01 3.911060e-01
    endloop
  endfacet
  facet normal 9.245459e-01 -3.795735e-01 3.374771e-02
    outer loop
      vertex   6.822297e+00 1.136534e+01 3.911060e-01
      vertex   7.457299e+00 1.291642e+01 4.402558e-01
      vertex   6.819227e+00 1.136660e+01 4.893649e-01
    endloop
  endfacet
  facet normal 9.243862e-01 -3.792904e-01 4.060856e-02
    outer loop
      vertex   7.457299e+00 1.291642e+01 4.402558e-01
      vertex   7.453103e+00 1.290915e+01 4.678866e-01
      vertex   6.819227e+00 1.136660e+01 4.893649e-01
    endloop
  endfacet
  facet normal 9.238434e-01 -3.788743e-01 5.447554e-02
    outer loop
      vertex   6.819227e+00 1.136660e+01 4.893649e-01
      vertex   7.453103e+00 1.290915e+01 4.678866e-01
      vertex   7.447482e+00 1.289942e+01 4.954991e-01
    endloop
  endfacet
  facet normal 9.230403e-01 -3.786002e-01 6.825251e-02
    outer loop
      vertex   6.819227e+00 1.136660e+01 4.893649e-01
      vertex   7.447482e+00 1.289942e+01 4.954991e-01
      vertex   7.440437e+00 1.288722e+01 5.230882e-01
    endloop
  endfacet
  facet normal 9.219855e-01 -3.784713e-01 8.186711e-02
    outer loop
      vertex   7.440437e+00 1.288722e+01 5.230882e-01
      vertex   7.431970e+00 1.287255e+01 5.506486e-01
      vertex   6.819227e+00 1.136660e+01 4.893649e-01
    endloop
  endfacet
  facet normal 9.218988e-01 -3.784748e-01 8.282150e-02
    outer loop
      vertex   6.819227e+00 1.136660e+01 4.893649e-01
      vertex   7.431970e+00 1.287255e+01 5.506486e-01
      vertex   6.811693e+00 1.136969e+01 5.873419e-01
    endloop
  endfacet
  facet normal 9.209350e-01 -3.777604e-01 9.579049e-02
    outer loop
      vertex   7.431970e+00 1.287255e+01 5.506486e-01
      vertex   7.422081e+00 1.285542e+01 5.781749e-01
      vertex   6.811693e+00 1.136969e+01 5.873419e-01
    endloop
  endfacet
  facet normal 9.196458e-01 -3.771455e-01 1.096031e-01
    outer loop
      vertex   6.811693e+00 1.136969e+01 5.873419e-01
      vertex   7.422081e+00 1.285542e+01 5.781749e-01
      vertex   7.410772e+00 1.283583e+01 6.056620e-01
    endloop
  endfacet
  facet normal 9.181116e-01 -3.766885e-01 1.231943e-01
    outer loop
      vertex   6.811693e+00 1.136969e+01 5.873419e-01
      vertex   7.410772e+00 1.283583e+01 6.056620e-01
      vertex   7.398047e+00 1.281379e+01 6.331046e-01
    endloop
  endfacet
  facet normal 9.170048e-01 -3.765084e-01 1.316952e-01
    outer loop
      vertex   6.811693e+00 1.136969e+01 5.873419e-01
      vertex   7.398047e+00 1.281379e+01 6.331046e-01
      vertex   6.799714e+00 1.137461e+01 6.848004e-01
    endloop
  endfacet
  facet normal 9.164294e-01 -3.760855e-01 1.368095e-01
    outer loop
      vertex   6.799714e+00 1.137461e+01 6.848004e-01
      vertex   7.398047e+00 1.281379e+01 6.331046e-01
      vertex   7.383906e+00 1.278930e+01 6.604973e-01
    endloop
  endfacet
  facet normal 9.146453e-01 -3.751098e-01 1.507203e-01
    outer loop
      vertex   6.799714e+00 1.137461e+01 6.848004e-01
      vertex   7.383906e+00 1.278930e+01 6.604973e-01
      vertex   7.368354e+00 1.276236e+01 6.878351e-01
    endloop
  endfacet
  facet normal 9.126241e-01 -3.743114e-01 1.643418e-01
    outer loop
      vertex   7.368354e+00 1.276236e+01 6.878351e-01
      vertex   7.351393e+00 1.273299e+01 7.151126e-01
      vertex   6.799714e+00 1.137461e+01 6.848004e-01
    endloop
  endfacet
  facet normal 9.103888e-01 -3.736994e-01 1.775978e-01
    outer loop
      vertex   6.799714e+00 1.137461e+01 6.848004e-01
      vertex   7.351393e+00 1.273299e+01 7.151126e-01
      vertex   7.333026e+00 1.270117e+01 7.423247e-01
    endloop
  endfacet
  facet normal 9.099007e-01 -3.736182e-01 1.802506e-01
    outer loop
      vertex   6.799714e+00 1.137461e+01 6.848004e-01
      vertex   7.333026e+00 1.270117e+01 7.423247e-01
      vertex   6.783318e+00 1.138133e+01 7.815049e-01
    endloop
  endfacet
  facet normal 9.080620e-01 -3.725200e-01 1.914478e-01
    outer loop
      vertex   6.783318e+00 1.138133e+01 7.815049e-01
      vertex   7.333026e+00 1.270117e+01 7.423247e-01
      vertex   7.313256e+00 1.266693e+01 7.694661e-01
    endloop
  endfacet
  facet normal 9.055392e-01 -3.713515e-01 2.051752e-01
    outer loop
      vertex   6.783318e+00 1.138133e+01 7.815049e-01
      vertex   7.313256e+00 1.266693e+01 7.694661e-01
      vertex   7.292088e+00 1.263027e+01 7.965317e-01
    endloop
  endfacet
  facet normal 9.028191e-01 -3.704031e-01 2.184472e-01
    outer loop
      vertex   7.292088e+00 1.263027e+01 7.965317e-01
      vertex   7.269526e+00 1.259119e+01 8.235163e-01
      vertex   6.783318e+00 1.138133e+01 7.815049e-01
    endloop
  endfacet
  facet normal 9.005956e-01 -3.698529e-01 2.283340e-01
    outer loop
      vertex   6.783318e+00 1.138133e+01 7.815049e-01
      vertex   7.269526e+00 1.259119e+01 8.235163e-01
      vertex   6.762580e+00 1.138984e+01 8.770768e-01
    endloop
  endfacet
  facet normal 8.999387e-01 -3.694308e-01 2.315843e-01
    outer loop
      vertex   7.269526e+00 1.259119e+01 8.235163e-01
      vertex   7.245573e+00 1.254970e+01 8.504147e-01
      vertex   6.762580e+00 1.138984e+01 8.770768e-01
    endloop
  endfacet
  facet normal 8.968870e-01 -3.678392e-01 2.455363e-01
    outer loop
      vertex   6.762580e+00 1.138984e+01 8.770768e-01
      vertex   7.245573e+00 1.254970e+01 8.504147e-01
      vertex   7.220235e+00 1.250581e+01 8.772217e-01
    endloop
  endfacet
  facet normal 8.936604e-01 -3.665178e-01 2.589129e-01
    outer loop
      vertex   6.762580e+00 1.138984e+01 8.770768e-01
      vertex   7.220235e+00 1.250581e+01 8.772217e-01
      vertex   7.193516e+00 1.245954e+01 9.039323e-01
    endloop
  endfacet
  facet normal 8.903032e-01 -3.654845e-01 2.716270e-01
    outer loop
      vertex   7.193516e+00 1.245954e+01 9.039323e-01
      vertex   7.165422e+00 1.241087e+01 9.305414e-01
      vertex   6.762580e+00 1.138984e+01 8.770768e-01
    endloop
  endfacet
  facet normal 8.890920e-01 -3.652305e-01 2.759024e-01
    outer loop
      vertex   6.762580e+00 1.138984e+01 8.770768e-01
      vertex   7.165422e+00 1.241087e+01 9.305414e-01
      vertex   6.737445e+00 1.140014e+01 9.717195e-01
    endloop
  endfacet
  facet normal 8.867242e-01 -3.638495e-01 2.851908e-01
    outer loop
      vertex   7.165422e+00 1.241087e+01 9.305414e-01
      vertex   7.135957e+00 1.235984e+01 9.570439e-01
      vertex   6.737445e+00 1.140014e+01 9.717195e-01
    endloop
  endfacet
  facet normal 8.829468e-01 -3.620721e-01 2.988456e-01
    outer loop
      vertex   6.737445e+00 1.140014e+01 9.717195e-01
      vertex   7.135957e+00 1.235984e+01 9.570439e-01
      vertex   7.105128e+00 1.230644e+01 9.834346e-01
    endloop
  endfacet
  facet normal 8.790865e-01 -3.606715e-01 3.116457e-01
    outer loop
      vertex   6.737445e+00 1.140014e+01 9.717195e-01
      vertex   7.105128e+00 1.230644e+01 9.834346e-01
      vertex   7.072940e+00 1.225069e+01 1.009709e+00
    endloop
  endfacet
  facet normal 8.754260e-01 -3.597276e-01 3.228396e-01
    outer loop
      vertex   6.737445e+00 1.140014e+01 9.717195e-01
      vertex   7.072940e+00 1.225069e+01 1.009709e+00
      vertex   6.708079e+00 1.141219e+01 1.064770e+00
    endloop
  endfacet
  facet normal 8.751755e-01 -3.595619e-01 3.237022e-01
    outer loop
      vertex   6.708079e+00 1.141219e+01 1.064770e+00
      vertex   7.072940e+00 1.225069e+01 1.009709e+00
      vertex   7.039399e+00 1.219260e+01 1.035861e+00
    endloop
  endfacet
  facet normal 8.707484e-01 -3.571530e-01 3.379926e-01
    outer loop
      vertex   6.708079e+00 1.141219e+01 1.064770e+00
      vertex   7.039399e+00 1.219260e+01 1.035861e+00
      vertex   7.004512e+00 1.213217e+01 1.061886e+00
    endloop
  endfacet
  facet normal 8.663168e-01 -3.552759e-01 3.511043e-01
    outer loop
      vertex   7.004512e+00 1.213217e+01 1.061886e+00
      vertex   6.968286e+00 1.206943e+01 1.087780e+00
      vertex   6.708079e+00 1.141219e+01 1.064770e+00
    endloop
  endfacet
  facet normal 8.619729e-01 -3.539697e-01 3.629163e-01
    outer loop
      vertex   6.708079e+00 1.141219e+01 1.064770e+00
      vertex   6.968286e+00 1.206943e+01 1.087780e+00
      vertex   6.930727e+00 1.200437e+01 1.113537e+00
    endloop
  endfacet
  facet normal 8.595700e-01 -3.535640e-01 3.689606e-01
    outer loop
      vertex   6.708079e+00 1.141219e+01 1.064770e+00
      vertex   6.930727e+00 1.200437e+01 1.113537e+00
      vertex   6.674518e+00 1.142595e+01 1.156148e+00
    endloop
  endfacet
  facet normal 8.572653e-01 -3.520457e-01 3.757127e-01
    outer loop
      vertex   6.674518e+00 1.142595e+01 1.156148e+00
      vertex   6.930727e+00 1.200437e+01 1.113537e+00
      vertex   6.891843e+00 1.193702e+01 1.139152e+00
    endloop
  endfacet
  facet normal 8.520585e-01 -3.493632e-01 3.897970e-01
    outer loop
      vertex   6.674518e+00 1.142595e+01 1.156148e+00
      vertex   6.891843e+00 1.193702e+01 1.139152e+00
      vertex   6.851640e+00 1.186739e+01 1.164621e+00
    endloop
  endfacet
  facet normal 8.471721e-01 -3.476332e-01 4.018092e-01
    outer loop
      vertex   6.851640e+00 1.186739e+01 1.164621e+00
      vertex   6.810128e+00 1.179549e+01 1.189939e+00
      vertex   6.674518e+00 1.142595e+01 1.156148e+00
    endloop
  endfacet
  facet normal 8.364181e-01 -3.432379e-01 4.273084e-01
    outer loop
      vertex   5.993848e+00 9.805221e+00 1.189964e+00
      vertex   6.767313e+00 1.172133e+01 1.215100e+00
      vertex   6.636842e+00 1.144141e+01 1.245633e+00
    endloop
  endfacet
  facet normal 8.366583e-01 -3.434169e-01 4.266939e-01
    outer loop
      vertex   6.636842e+00 1.144141e+01 1.245633e+00
      vertex   6.767313e+00 1.172133e+01 1.215100e+00
      vertex   6.723204e+00 1.164493e+01 1.240100e+00
    endloop
  endfacet
  facet normal 8.307312e-01 -3.405301e-01 4.403690e-01
    outer loop
      vertex   6.636842e+00 1.144141e+01 1.245633e+00
      vertex   6.723204e+00 1.164493e+01 1.240100e+00
      vertex   6.677810e+00 1.156631e+01 1.264934e+00
    endloop
  endfacet
  facet normal 8.297870e-01 -3.404987e-01 4.421698e-01
    outer loop
      vertex   6.636842e+00 1.144141e+01 1.245633e+00
      vertex   6.677810e+00 1.156631e+01 1.264934e+00
      vertex   5.948492e+00 9.820966e+00 1.289569e+00
    endloop
  endfacet
  facet normal 8.251800e-01 -3.384311e-01 4.522635e-01
    outer loop
      vertex   5.948492e+00 9.820966e+00 1.289569e+00
      vertex   6.677810e+00 1.156631e+01 1.264934e+00
      vertex   6.631138e+00 1.148547e+01 1.289598e+00
    endloop
  endfacet
  facet normal 8.193159e-01 -3.360263e-01 4.645511e-01
    outer loop
      vertex   5.948492e+00 9.820966e+00 1.289569e+00
      vertex   6.631138e+00 1.148547e+01 1.289598e+00
      vertex   6.583198e+00 1.140243e+01 1.314087e+00
    endloop
  endfacet
  facet normal 8.162960e-01 -3.349086e-01 4.706347e-01
    outer loop
      vertex   5.948492e+00 9.820966e+00 1.289569e+00
      vertex   6.583198e+00 1.140243e+01 1.314087e+00
      vertex   5.923950e+00 9.829652e+00 1.338317e+00
    endloop
  endfacet
  facet normal 8.132944e-01 -3.335562e-01 4.767521e-01
    outer loop
      vertex   5.923950e+00 9.829652e+00 1.338317e+00
      vertex   6.583198e+00 1.140243e+01 1.314087e+00
      vertex   6.533999e+00 1.131722e+01 1.338395e+00
    endloop
  endfacet
  facet normal 8.071188e-01 -3.310243e-01 4.888581e-01
    outer loop
      vertex   5.923950e+00 9.829652e+00 1.338317e+00
      vertex   6.533999e+00 1.131722e+01 1.338395e+00
      vertex   6.483551e+00 1.122984e+01 1.362519e+00
    endloop
  endfacet
  facet normal 8.039524e-01 -3.298619e-01 4.948249e-01
    outer loop
      vertex   5.923950e+00 9.829652e+00 1.338317e+00
      vertex   6.483551e+00 1.122984e+01 1.362519e+00
      vertex   5.898185e+00 9.838874e+00 1.386325e+00
    endloop
  endfacet
  facet normal 8.007866e-01 -3.284261e-01 5.008765e-01
    outer loop
      vertex   5.898185e+00 9.838874e+00 1.386325e+00
      vertex   6.483551e+00 1.122984e+01 1.362519e+00
      vertex   6.431863e+00 1.114031e+01 1.386454e+00
    endloop
  endfacet
  facet normal 7.943047e-01 -3.257692e-01 5.127909e-01
    outer loop
      vertex   5.898185e+00 9.838874e+00 1.386325e+00
      vertex   6.431863e+00 1.114031e+01 1.386454e+00
      vertex   6.378945e+00 1.104866e+01 1.410195e+00
    endloop
  endfacet
  facet normal 7.909929e-01 -3.245685e-01 5.186381e-01
    outer loop
      vertex   5.898185e+00 9.838874e+00 1.386325e+00
      vertex   6.378945e+00 1.104866e+01 1.410195e+00
      vertex   5.871211e+00 9.848624e+00 1.433566e+00
    endloop
  endfacet
  facet normal 7.876661e-01 -3.230445e-01 5.246183e-01
    outer loop
      vertex   5.871211e+00 9.848624e+00 1.433566e+00
      vertex   6.378945e+00 1.104866e+01 1.410195e+00
      vertex   6.324807e+00 1.095489e+01 1.433738e+00
    endloop
  endfacet
  facet normal 7.808834e-01 -3.202652e-01 5.363314e-01
    outer loop
      vertex   5.871211e+00 9.848624e+00 1.433566e+00
      vertex   6.324807e+00 1.095489e+01 1.433738e+00
      vertex   6.269459e+00 1.085902e+01 1.457077e+00
    endloop
  endfacet
  facet normal 7.774232e-01 -3.190347e-01 5.420608e-01
    outer loop
      vertex   5.871211e+00 9.848624e+00 1.433566e+00
      vertex   6.269459e+00 1.085902e+01 1.457077e+00
      vertex   5.843044e+00 9.858899e+00 1.480011e+00
    endloop
  endfacet
  facet normal 7.739430e-01 -3.174156e-01 5.479595e-01
    outer loop
      vertex   5.843044e+00 9.858899e+00 1.480011e+00
      vertex   6.269459e+00 1.085902e+01 1.457077e+00
      vertex   6.212912e+00 1.076108e+01 1.480210e+00
    endloop
  endfacet
  facet normal 7.668652e-01 -3.145165e-01 5.594615e-01
    outer loop
      vertex   5.843044e+00 9.858899e+00 1.480011e+00
      vertex   6.212912e+00 1.076108e+01 1.480210e+00
      vertex   6.155178e+00 1.066108e+01 1.503131e+00
    endloop
  endfacet
  facet normal 7.632476e-01 -3.132707e-01 5.650793e-01
    outer loop
      vertex   5.843044e+00 9.858899e+00 1.480011e+00
      vertex   6.155178e+00 1.066108e+01 1.503131e+00
      vertex   5.813696e+00 9.869691e+00 1.525633e+00
    endloop
  endfacet
  facet normal 7.596276e-01 -3.115437e-01 5.708821e-01
    outer loop
      vertex   5.813696e+00 9.869691e+00 1.525633e+00
      vertex   6.155178e+00 1.066108e+01 1.503131e+00
      vertex   6.096266e+00 1.055904e+01 1.525835e+00
    endloop
  endfacet
  facet normal 7.522608e-01 -3.085273e-01 5.821637e-01
    outer loop
      vertex   5.813696e+00 9.869691e+00 1.525633e+00
      vertex   6.096266e+00 1.055904e+01 1.525835e+00
      vertex   6.036188e+00 1.045498e+01 1.548319e+00
    endloop
  endfacet
  facet normal 7.484656e-01 -3.072984e-01 5.876793e-01
    outer loop
      vertex   5.813696e+00 9.869691e+00 1.525633e+00
      vertex   6.036188e+00 1.045498e+01 1.548319e+00
      vertex   5.783183e+00 9.880995e+00 1.570405e+00
    endloop
  endfacet
  facet normal 7.447309e-01 -3.054333e-01 5.933686e-01
    outer loop
      vertex   5.783183e+00 9.880995e+00 1.570405e+00
      vertex   6.036188e+00 1.045498e+01 1.548319e+00
      vertex   5.974956e+00 1.034893e+01 1.570579e+00
    endloop
  endfacet
  facet normal 7.370816e-01 -3.023025e-01 6.044204e-01
    outer loop
      vertex   5.783183e+00 9.880995e+00 1.570405e+00
      vertex   5.974956e+00 1.034893e+01 1.570579e+00
      vertex   5.912581e+00 1.024089e+01 1.592609e+00
    endloop
  endfacet
  facet normal 7.330571e-01 -3.011902e-01 6.098457e-01
    outer loop
      vertex   5.783183e+00 9.880995e+00 1.570405e+00
      vertex   5.912581e+00 1.024089e+01 1.592609e+00
      vertex   5.751520e+00 9.892805e+00 1.614298e+00
    endloop
  endfacet
  facet normal 7.292644e-01 -2.990892e-01 6.154016e-01
    outer loop
      vertex   5.751520e+00 9.892805e+00 1.614298e+00
      vertex   5.912581e+00 1.024089e+01 1.592609e+00
      vertex   5.849076e+00 1.013090e+01 1.614407e+00
    endloop
  endfacet
  facet normal 7.213391e-01 -2.958467e-01 6.262145e-01
    outer loop
      vertex   5.751520e+00 9.892805e+00 1.614298e+00
      vertex   5.849076e+00 1.013090e+01 1.614407e+00
      vertex   5.784452e+00 1.001896e+01 1.635966e+00
    endloop
  endfacet
  facet normal 7.167816e-01 -2.955741e-01 6.315537e-01
    outer loop
      vertex   5.784452e+00 1.001896e+01 1.635966e+00
      vertex   5.718721e+00 9.905116e+00 1.657285e+00
      vertex   5.751520e+00 9.892805e+00 1.614298e+00
    endloop
  endfacet
  facet normal 8.280388e-01 -3.396500e-01 4.460825e-01
    outer loop
      vertex   5.948492e+00 9.820966e+00 1.289569e+00
      vertex   5.971796e+00 9.812820e+00 1.240109e+00
      vertex   6.636842e+00 1.144141e+01 1.245633e+00
    endloop
  endfacet
  facet normal 8.391637e-01 -3.441084e-01 4.211813e-01
    outer loop
      vertex   6.636842e+00 1.144141e+01 1.245633e+00
      vertex   5.971796e+00 9.812820e+00 1.240109e+00
      vertex   5.993848e+00 9.805221e+00 1.189964e+00
    endloop
  endfacet
  facet normal 7.515784e-15 -3.690032e-15 -1.000000e+00
    outer loop
      vertex   6.136385e+00 9.785054e+00 1.491862e-15
      vertex   6.046788e+00 9.840674e+00 6.132273e-16
      vertex   7.330773e+00 1.269727e+01 -2.775558e-16
    endloop
  endfacet
  facet normal 5.195853e-15 -2.647268e-15 -1.000000e+00
    outer loop
      vertex   7.330773e+00 1.269727e+01 -2.775558e-16
      vertex   6.046788e+00 9.840674e+00 6.132273e-16
      vertex   5.956686e+00 9.895473e+00 0.000000e+00
    endloop
  endfacet
  facet normal -4.567316e-17 -7.666393e-17 -1.000000e+00
    outer loop
      vertex   7.330773e+00 1.269727e+01 -2.775558e-16
      vertex   5.956686e+00 9.895473e+00 0.000000e+00
      vertex   5.866088e+00 9.949448e+00 0.000000e+00
    endloop
  endfacet
  facet normal 1.003138e-16 -1.544801e-16 -1.000000e+00
    outer loop
      vertex   5.866088e+00 9.949448e+00 0.000000e+00
      vertex   5.775000e+00 1.000259e+01 -1.734723e-17
      vertex   7.330773e+00 1.269727e+01 -2.775558e-16
    endloop
  endfacet
endsolid
