solid ASCII
  facet normal -0.000000e+00 0.000000e+00 -1.000000e+00
    outer loop
      vertex   1.100167e+01 2.790991e+01 0.000000e+00
      vertex   7.460343e+00 1.301320e+01 0.000000e+00
      vertex   1.026060e+01 2.819078e+01 0.000000e+00
    endloop
  endfacet
  facet normal 0.000000e+00 0.000000e+00 -1.000000e+00
    outer loop
      vertex   1.026060e+01 2.819078e+01 0.000000e+00
      vertex   7.460343e+00 1.301320e+01 0.000000e+00
      vertex   7.009736e+00 1.326136e+01 0.000000e+00
    endloop
  endfacet
  facet normal 0.000000e+00 0.000000e+00 -1.000000e+00
    outer loop
      vertex   1.026060e+01 2.819078e+01 0.000000e+00
      vertex   7.009736e+00 1.326136e+01 0.000000e+00
      vertex   6.550884e+00 1.349392e+01 0.000000e+00
    endloop
  endfacet
  facet normal 0.000000e+00 -0.000000e+00 -1.000000e+00
    outer loop
      vertex   1.100167e+01 2.790991e+01 0.000000e+00
      vertex   1.173507e+01 2.760957e+01 0.000000e+00
      vertex   7.460343e+00 1.301320e+01 0.000000e+00
    endloop
  endfacet
  facet normal 0.000000e+00 0.000000e+00 -1.000000e+00
    outer loop
      vertex   7.460343e+00 1.301320e+01 0.000000e+00
      vertex   1.173507e+01 2.760957e+01 0.000000e+00
      vertex   1.246027e+01 2.728996e+01 0.000000e+00
    endloop
  endfacet
  facet normal 0.000000e+00 0.000000e+00 -1.000000e+00
    outer loop
      vertex   7.460343e+00 1.301320e+01 0.000000e+00
      vertex   1.246027e+01 2.728996e+01 0.000000e+00
      vertex   1.317678e+01 2.695130e+01 0.000000e+00
    endloop
  endfacet
  facet normal 0.000000e+00 0.000000e+00 -1.000000e+00
    outer loop
      vertex   6.550884e+00 1.349392e+01 0.000000e+00
      vertex   6.084327e+00 1.371062e+01 0.000000e+00
      vertex   1.026060e+01 2.819078e+01 0.000000e+00
    endloop
  endfacet
  facet normal 0.000000e+00 0.000000e+00 -1.000000e+00
    outer loop
      vertex   1.026060e+01 2.819078e+01 0.000000e+00
      vertex   6.084327e+00 1.371062e+01 0.000000e+00
      vertex   5.610614e+00 1.391118e+01 0.000000e+00
    endloop
  endfacet
  facet normal 0.000000e+00 0.000000e+00 -1.000000e+00
    outer loop
      vertex   1.026060e+01 2.819078e+01 0.000000e+00
      vertex   5.610614e+00 1.391118e+01 0.000000e+00
      vertex   5.130302e+00 1.409539e+01 0.000000e+00
    endloop
  endfacet
  facet normal 9.145377e-01 -3.759495e-01 -1.492738e-01
    outer loop
      vertex   1.319677e+01 2.694111e+01 1.481341e-01
      vertex   1.176806e+01 2.344229e+01 2.068936e-01
      vertex   1.317678e+01 2.695130e+01 0.000000e+00
    endloop
  endfacet
  facet normal 9.167601e-01 -3.759907e-01 -1.348406e-01
    outer loop
      vertex   1.317678e+01 2.695130e+01 0.000000e+00
      vertex   1.176806e+01 2.344229e+01 2.068936e-01
      vertex   1.033329e+01 1.994396e+01 2.068936e-01
    endloop
  endfacet
  facet normal 9.167601e-01 -3.759907e-01 -1.348406e-01
    outer loop
      vertex   1.317678e+01 2.695130e+01 0.000000e+00
      vertex   1.033329e+01 1.994396e+01 2.068936e-01
      vertex   8.898519e+00 1.644563e+01 2.068936e-01
    endloop
  endfacet
  facet normal 9.247708e-01 -3.792761e-01 -3.080000e-02
    outer loop
      vertex   8.898519e+00 1.644563e+01 2.068936e-01
      vertex   1.033329e+01 1.994396e+01 2.068936e-01
      vertex   8.904469e+00 1.644319e+01 4.155952e-01
    endloop
  endfacet
  facet normal 9.249623e-01 -3.788088e-01 -3.080000e-02
    outer loop
      vertex   8.898519e+00 1.644563e+01 2.068936e-01
      vertex   8.904469e+00 1.644319e+01 4.155952e-01
      vertex   7.487061e+00 1.299536e+01 2.539523e-01
    endloop
  endfacet
  facet normal 9.249888e-01 -3.789331e-01 -2.838061e-02
    outer loop
      vertex   7.487061e+00 1.299536e+01 2.539523e-01
      vertex   8.904469e+00 1.644319e+01 4.155952e-01
      vertex   7.489154e+00 1.299112e+01 3.788126e-01
    endloop
  endfacet
  facet normal 9.245318e-01 -3.794286e-01 3.570522e-02
    outer loop
      vertex   7.489154e+00 1.299112e+01 3.788126e-01
      vertex   8.904469e+00 1.644319e+01 4.155952e-01
      vertex   7.483830e+00 1.298991e+01 5.038578e-01
    endloop
  endfacet
  facet normal 9.229544e-01 -3.778117e-01 7.357631e-02
    outer loop
      vertex   7.483830e+00 1.298991e+01 5.038578e-01
      vertex   8.904469e+00 1.644319e+01 4.155952e-01
      vertex   8.890255e+00 1.644902e+01 6.238298e-01
    endloop
  endfacet
  facet normal 9.205756e-01 -3.777359e-01 9.927843e-02
    outer loop
      vertex   7.483830e+00 1.298991e+01 5.038578e-01
      vertex   8.890255e+00 1.644902e+01 6.238298e-01
      vertex   7.470928e+00 1.299176e+01 6.305477e-01
    endloop
  endfacet
  facet normal 9.130193e-01 -3.745126e-01 1.616668e-01
    outer loop
      vertex   7.470928e+00 1.299176e+01 6.305477e-01
      vertex   8.890255e+00 1.644902e+01 6.238298e-01
      vertex   7.450418e+00 1.299672e+01 7.578659e-01
    endloop
  endfacet
  facet normal 9.107731e-01 -3.729746e-01 1.771507e-01
    outer loop
      vertex   7.450418e+00 1.299672e+01 7.578659e-01
      vertex   8.890255e+00 1.644902e+01 6.238298e-01
      vertex   8.856032e+00 1.646306e+01 8.293279e-01
    endloop
  endfacet
  facet normal 9.016308e-01 -3.702249e-01 2.235965e-01
    outer loop
      vertex   7.450418e+00 1.299672e+01 7.578659e-01
      vertex   8.856032e+00 1.646306e+01 8.293279e-01
      vertex   7.422267e+00 1.300482e+01 8.847958e-01
    endloop
  endfacet
  facet normal 8.887252e-01 -3.639903e-01 2.787089e-01
    outer loop
      vertex   7.422267e+00 1.300482e+01 8.847958e-01
      vertex   8.856032e+00 1.646306e+01 8.293279e-01
      vertex   8.802282e+00 1.648510e+01 1.029514e+00
    endloop
  endfacet
  facet normal 8.867012e-01 -3.634799e-01 2.857329e-01
    outer loop
      vertex   7.422267e+00 1.300482e+01 8.847958e-01
      vertex   8.802282e+00 1.648510e+01 1.029514e+00
      vertex   7.386443e+00 1.301611e+01 1.010321e+00
    endloop
  endfacet
  facet normal 8.671210e-01 -3.558359e-01 3.485426e-01
    outer loop
      vertex   7.386443e+00 1.301611e+01 1.010321e+00
      vertex   8.802282e+00 1.648510e+01 1.029514e+00
      vertex   7.342915e+00 1.303062e+01 1.133425e+00
    endloop
  endfacet
  facet normal 8.570977e-01 -3.507359e-01 3.773167e-01
    outer loop
      vertex   7.342915e+00 1.303062e+01 1.133425e+00
      vertex   8.802282e+00 1.648510e+01 1.029514e+00
      vertex   8.729266e+00 1.651505e+01 1.223210e+00
    endloop
  endfacet
  facet normal 8.431374e-01 -3.460632e-01 4.115331e-01
    outer loop
      vertex   7.342915e+00 1.303062e+01 1.133425e+00
      vertex   8.729266e+00 1.651505e+01 1.223210e+00
      vertex   7.291759e+00 1.304834e+01 1.253141e+00
    endloop
  endfacet
  facet normal 8.162134e-01 -3.343841e-01 4.711507e-01
    outer loop
      vertex   7.291759e+00 1.304834e+01 1.253141e+00
      vertex   8.729266e+00 1.651505e+01 1.223210e+00
      vertex   7.233538e+00 1.306908e+01 1.368718e+00
    endloop
  endfacet
  facet normal 8.158613e-01 -3.342001e-01 4.718905e-01
    outer loop
      vertex   7.233538e+00 1.306908e+01 1.368718e+00
      vertex   8.729266e+00 1.651505e+01 1.223210e+00
      vertex   8.638104e+00 1.655244e+01 1.407300e+00
    endloop
  endfacet
  facet normal 7.862127e-01 -3.228545e-01 5.269104e-01
    outer loop
      vertex   7.233538e+00 1.306908e+01 1.368718e+00
      vertex   8.638104e+00 1.655244e+01 1.407300e+00
      vertex   7.168954e+00 1.309256e+01 1.479471e+00
    endloop
  endfacet
  facet normal 7.659656e-01 -3.135410e-01 5.612386e-01
    outer loop
      vertex   7.168954e+00 1.309256e+01 1.479471e+00
      vertex   8.638104e+00 1.655244e+01 1.407300e+00
      vertex   8.529682e+00 1.659690e+01 1.580115e+00
    endloop
  endfacet
  facet normal 7.539330e-01 -3.093943e-01 5.795344e-01
    outer loop
      vertex   7.168954e+00 1.309256e+01 1.479471e+00
      vertex   8.529682e+00 1.659690e+01 1.580115e+00
      vertex   7.098707e+00 1.311851e+01 1.584711e+00
    endloop
  endfacet
  facet normal 7.187629e-01 -2.948595e-01 6.296330e-01
    outer loop
      vertex   7.098707e+00 1.311851e+01 1.584711e+00
      vertex   8.529682e+00 1.659690e+01 1.580115e+00
      vertex   7.023497e+00 1.314666e+01 1.683751e+00
    endloop
  endfacet
  facet normal 7.076765e-01 -2.895741e-01 6.444695e-01
    outer loop
      vertex   7.023497e+00 1.314666e+01 1.683751e+00
      vertex   8.529682e+00 1.659690e+01 1.580115e+00
      vertex   8.405180e+00 1.664797e+01 1.739770e+00
    endloop
  endfacet
  facet normal 6.801871e-01 -2.792589e-01 6.777610e-01
    outer loop
      vertex   7.023497e+00 1.314666e+01 1.683751e+00
      vertex   8.405180e+00 1.664797e+01 1.739770e+00
      vertex   6.944025e+00 1.317675e+01 1.775905e+00
    endloop
  endfacet
  facet normal 6.416217e-01 -2.625787e-01 7.206761e-01
    outer loop
      vertex   6.944025e+00 1.317675e+01 1.775905e+00
      vertex   8.405180e+00 1.664797e+01 1.739770e+00
      vertex   8.265957e+00 1.670507e+01 1.884525e+00
    endloop
  endfacet
  facet normal 6.381680e-01 -2.613921e-01 7.241656e-01
    outer loop
      vertex   6.944025e+00 1.317675e+01 1.775905e+00
      vertex   8.265957e+00 1.670507e+01 1.884525e+00
      vertex   6.859618e+00 1.320902e+01 1.861938e+00
    endloop
  endfacet
  facet normal 5.938014e-01 -2.438202e-01 7.667800e-01
    outer loop
      vertex   6.859618e+00 1.320902e+01 1.861938e+00
      vertex   8.265957e+00 1.670507e+01 1.884525e+00
      vertex   6.768746e+00 1.324407e+01 1.943455e+00
    endloop
  endfacet
  facet normal 5.686410e-01 -2.325571e-01 7.890276e-01
    outer loop
      vertex   6.768746e+00 1.324407e+01 1.943455e+00
      vertex   8.265957e+00 1.670507e+01 1.884525e+00
      vertex   8.113529e+00 1.676758e+01 2.012804e+00
    endloop
  endfacet
  facet normal 5.479599e-01 -2.249917e-01 8.056790e-01
    outer loop
      vertex   6.768746e+00 1.324407e+01 1.943455e+00
      vertex   8.113529e+00 1.676758e+01 2.012804e+00
      vertex   6.672022e+00 1.328167e+01 2.019737e+00
    endloop
  endfacet
  facet normal 4.999901e-01 -2.050840e-01 8.413979e-01
    outer loop
      vertex   6.672022e+00 1.328167e+01 2.019737e+00
      vertex   8.113529e+00 1.676758e+01 2.012804e+00
      vertex   6.570090e+00 1.332156e+01 2.090032e+00
    endloop
  endfacet
  facet normal 4.893923e-01 -2.001720e-01 8.487794e-01
    outer loop
      vertex   6.570090e+00 1.332156e+01 2.090032e+00
      vertex   8.113529e+00 1.676758e+01 2.012804e+00
      vertex   7.949558e+00 1.683483e+01 2.123206e+00
    endloop
  endfacet
  facet normal 4.490430e-01 -1.845694e-01 8.742394e-01
    outer loop
      vertex   6.570090e+00 1.332156e+01 2.090032e+00
      vertex   7.949558e+00 1.683483e+01 2.123206e+00
      vertex   6.463594e+00 1.336350e+01 2.153588e+00
    endloop
  endfacet
  facet normal 4.048756e-01 -1.654436e-01 8.992798e-01
    outer loop
      vertex   6.463594e+00 1.336350e+01 2.153588e+00
      vertex   7.949558e+00 1.683483e+01 2.123206e+00
      vertex   7.775832e+00 1.690608e+01 2.214530e+00
    endloop
  endfacet
  facet normal 3.950209e-01 -1.618796e-01 9.042972e-01
    outer loop
      vertex   6.463594e+00 1.336350e+01 2.153588e+00
      vertex   7.775832e+00 1.690608e+01 2.214530e+00
      vertex   6.353176e+00 1.340726e+01 2.209654e+00
    endloop
  endfacet
  facet normal 3.371581e-01 -1.383895e-01 9.312211e-01
    outer loop
      vertex   6.353176e+00 1.340726e+01 2.209654e+00
      vertex   7.775832e+00 1.690608e+01 2.214530e+00
      vertex   6.239505e+00 1.345257e+01 2.257544e+00
    endloop
  endfacet
  facet normal 3.159696e-01 -1.288545e-01 9.399786e-01
    outer loop
      vertex   6.239505e+00 1.345257e+01 2.257544e+00
      vertex   7.775832e+00 1.690608e+01 2.214530e+00
      vertex   7.594242e+00 1.698056e+01 2.285780e+00
    endloop
  endfacet
  facet normal 2.787315e-01 -1.146634e-01 9.534994e-01
    outer loop
      vertex   6.239505e+00 1.345257e+01 2.257544e+00
      vertex   7.594242e+00 1.698056e+01 2.285780e+00
      vertex   6.123435e+00 1.349909e+01 2.297069e+00
    endloop
  endfacet
  facet normal 2.234574e-01 -9.125695e-02 9.704324e-01
    outer loop
      vertex   6.123435e+00 1.349909e+01 2.297069e+00
      vertex   7.594242e+00 1.698056e+01 2.285780e+00
      vertex   7.406770e+00 1.705744e+01 2.336179e+00
    endloop
  endfacet
  facet normal 2.213352e-01 -9.049770e-02 9.709896e-01
    outer loop
      vertex   6.123435e+00 1.349909e+01 2.297069e+00
      vertex   7.406770e+00 1.705744e+01 2.336179e+00
      vertex   6.005905e+00 1.354644e+01 2.328272e+00
    endloop
  endfacet
  facet normal 1.637904e-01 -6.756741e-02 9.841785e-01
    outer loop
      vertex   6.005905e+00 1.354644e+01 2.328272e+00
      vertex   7.406770e+00 1.705744e+01 2.336179e+00
      vertex   5.887858e+00 1.359423e+01 2.351199e+00
    endloop
  endfacet
  facet normal 1.287173e-01 -5.215831e-02 9.903087e-01
    outer loop
      vertex   5.887858e+00 1.359423e+01 2.351199e+00
      vertex   7.406770e+00 1.705744e+01 2.336179e+00
      vertex   7.215458e+00 1.713591e+01 2.365177e+00
    endloop
  endfacet
  facet normal 1.062957e-01 -4.376565e-02 9.933709e-01
    outer loop
      vertex   5.887858e+00 1.359423e+01 2.351199e+00
      vertex   7.215458e+00 1.713591e+01 2.365177e+00
      vertex   5.770234e+00 1.364207e+01 2.365893e+00
    endloop
  endfacet
  facet normal 4.787659e-02 -1.959956e-02 9.986609e-01
    outer loop
      vertex   5.770234e+00 1.364207e+01 2.365893e+00
      vertex   7.215458e+00 1.713591e+01 2.365177e+00
      vertex   5.653974e+00 1.368957e+01 2.372399e+00
    endloop
  endfacet
  facet normal 3.251418e-02 -1.263756e-02 9.993914e-01
    outer loop
      vertex   5.653974e+00 1.368957e+01 2.372399e+00
      vertex   7.215458e+00 1.713591e+01 2.365177e+00
      vertex   7.022391e+00 1.721509e+01 2.372460e+00
    endloop
  endfacet
  facet normal -1.202088e-02 4.648529e-03 9.999169e-01
    outer loop
      vertex   5.653974e+00 1.368957e+01 2.372399e+00
      vertex   7.022391e+00 1.721509e+01 2.372460e+00
      vertex   5.538773e+00 1.373685e+01 2.370794e+00
    endloop
  endfacet
  facet normal -6.410664e-02 2.686648e-02 9.975813e-01
    outer loop
      vertex   5.538773e+00 1.373685e+01 2.370794e+00
      vertex   7.022391e+00 1.721509e+01 2.372460e+00
      vertex   6.829674e+00 1.729413e+01 2.357947e+00
    endloop
  endfacet
  facet normal -7.050122e-02 2.918522e-02 9.970847e-01
    outer loop
      vertex   5.538773e+00 1.373685e+01 2.370794e+00
      vertex   6.829674e+00 1.729413e+01 2.357947e+00
      vertex   5.421996e+00 1.378500e+01 2.361127e+00
    endloop
  endfacet
  facet normal -1.286625e-01 5.251037e-02 9.902972e-01
    outer loop
      vertex   5.421996e+00 1.378500e+01 2.361127e+00
      vertex   6.829674e+00 1.729413e+01 2.357947e+00
      vertex   5.304388e+00 1.383372e+01 2.343264e+00
    endloop
  endfacet
  facet normal -1.599310e-01 6.631588e-02 9.848981e-01
    outer loop
      vertex   5.304388e+00 1.383372e+01 2.343264e+00
      vertex   6.829674e+00 1.729413e+01 2.357947e+00
      vertex   6.639407e+00 1.737216e+01 2.321796e+00
    endloop
  endfacet
  facet normal -1.866987e-01 7.638196e-02 9.794434e-01
    outer loop
      vertex   5.304388e+00 1.383372e+01 2.343264e+00
      vertex   6.639407e+00 1.737216e+01 2.321796e+00
      vertex   5.186921e+00 1.388261e+01 2.317061e+00
    endloop
  endfacet
  facet normal -2.452937e-01 1.007921e-01 9.641950e-01
    outer loop
      vertex   5.186921e+00 1.388261e+01 2.317061e+00
      vertex   6.639407e+00 1.737216e+01 2.321796e+00
      vertex   5.070566e+00 1.393126e+01 2.282373e+00
    endloop
  endfacet
  facet normal -2.540966e-01 1.048368e-01 9.614802e-01
    outer loop
      vertex   5.070566e+00 1.393126e+01 2.282373e+00
      vertex   6.639407e+00 1.737216e+01 2.321796e+00
      vertex   6.453664e+00 1.744834e+01 2.264403e+00
    endloop
  endfacet
  facet normal -2.825192e-01 1.159668e-01 9.522261e-01
    outer loop
      vertex   5.070566e+00 1.393126e+01 2.282373e+00
      vertex   6.453664e+00 1.744834e+01 2.264403e+00
      vertex   5.417489e+00 1.488443e+01 2.269222e+00
    endloop
  endfacet
  facet normal -3.041001e-01 1.246739e-01 9.444467e-01
    outer loop
      vertex   5.417489e+00 1.488443e+01 2.269222e+00
      vertex   6.453664e+00 1.744834e+01 2.264403e+00
      vertex   5.761936e+00 1.583079e+01 2.255203e+00
    endloop
  endfacet
  facet normal -3.176213e-01 1.304859e-01 9.391965e-01
    outer loop
      vertex   5.761936e+00 1.583079e+01 2.255203e+00
      vertex   6.453664e+00 1.744834e+01 2.264403e+00
      vertex   6.103749e+00 1.676991e+01 2.240323e+00
    endloop
  endfacet
  facet normal -3.157919e-01 1.295157e-01 9.399474e-01
    outer loop
      vertex   6.103749e+00 1.676991e+01 2.240323e+00
      vertex   6.453664e+00 1.744834e+01 2.264403e+00
      vertex   7.888433e+00 2.094667e+01 2.264403e+00
    endloop
  endfacet
  facet normal -3.337215e-01 1.372190e-01 9.326312e-01
    outer loop
      vertex   6.103749e+00 1.676991e+01 2.240323e+00
      vertex   7.888433e+00 2.094667e+01 2.264403e+00
      vertex   6.442772e+00 1.770137e+01 2.224589e+00
    endloop
  endfacet
  facet normal -3.453854e-01 1.424768e-01 9.275825e-01
    outer loop
      vertex   6.442772e+00 1.770137e+01 2.224589e+00
      vertex   7.888433e+00 2.094667e+01 2.264403e+00
      vertex   7.709239e+00 2.102016e+01 2.186391e+00
    endloop
  endfacet
  facet normal -3.400228e-01 1.404567e-01 9.298690e-01
    outer loop
      vertex   6.442772e+00 1.770137e+01 2.224589e+00
      vertex   7.709239e+00 2.102016e+01 2.186391e+00
      vertex   6.778848e+00 1.862473e+01 2.208007e+00
    endloop
  endfacet
  facet normal -3.748939e-01 1.538594e-01 9.142110e-01
    outer loop
      vertex   6.778848e+00 1.862473e+01 2.208007e+00
      vertex   7.709239e+00 2.102016e+01 2.186391e+00
      vertex   7.111826e+00 1.953958e+01 2.190586e+00
    endloop
  endfacet
  facet normal -3.959203e-01 1.623141e-01 9.038259e-01
    outer loop
      vertex   7.111826e+00 1.953958e+01 2.190586e+00
      vertex   7.709239e+00 2.102016e+01 2.186391e+00
      vertex   7.441551e+00 2.044549e+01 2.172333e+00
    endloop
  endfacet
  facet normal -3.968633e-01 1.627655e-01 9.033310e-01
    outer loop
      vertex   7.441551e+00 2.044549e+01 2.172333e+00
      vertex   7.709239e+00 2.102016e+01 2.186391e+00
      vertex   9.144007e+00 2.451849e+01 2.186391e+00
    endloop
  endfacet
  facet normal -4.103103e-01 1.684106e-01 8.962607e-01
    outer loop
      vertex   7.441551e+00 2.044549e+01 2.172333e+00
      vertex   9.144007e+00 2.451849e+01 2.186391e+00
      vertex   7.767875e+00 2.134206e+01 2.153256e+00
    endloop
  endfacet
  facet normal -4.221389e-01 1.736030e-01 8.897532e-01
    outer loop
      vertex   7.767875e+00 2.134206e+01 2.153256e+00
      vertex   9.144007e+00 2.451849e+01 2.186391e+00
      vertex   8.090646e+00 2.222887e+01 2.133365e+00
    endloop
  endfacet
  facet normal -4.328621e-01 1.786794e-01 8.835746e-01
    outer loop
      vertex   8.090646e+00 2.222887e+01 2.133365e+00
      vertex   9.144007e+00 2.451849e+01 2.186391e+00
      vertex   8.973315e+00 2.458850e+01 2.088612e+00
    endloop
  endfacet
  facet normal -4.114626e-01 1.708961e-01 8.952615e-01
    outer loop
      vertex   8.090646e+00 2.222887e+01 2.133365e+00
      vertex   8.973315e+00 2.458850e+01 2.088612e+00
      vertex   8.409718e+00 2.310551e+01 2.112669e+00
    endloop
  endfacet
  facet normal -4.629444e-01 1.899832e-01 8.657880e-01
    outer loop
      vertex   8.409718e+00 2.310551e+01 2.112669e+00
      vertex   8.973315e+00 2.458850e+01 2.088612e+00
      vertex   8.724944e+00 2.397159e+01 2.091177e+00
    endloop
  endfacet
  facet normal -4.832872e-01 1.981191e-01 8.527499e-01
    outer loop
      vertex   8.724944e+00 2.397159e+01 2.091177e+00
      vertex   8.973315e+00 2.458850e+01 2.088612e+00
      vertex   9.036180e+00 2.482670e+01 2.068898e+00
    endloop
  endfacet
  facet normal -4.822392e-01 1.978959e-01 8.533947e-01
    outer loop
      vertex   9.036180e+00 2.482670e+01 2.068898e+00
      vertex   8.973315e+00 2.458850e+01 2.088612e+00
      vertex   1.035250e+01 2.808185e+01 2.057884e+00
    endloop
  endfacet
  facet normal -4.989079e-01 2.045984e-01 8.421582e-01
    outer loop
      vertex   9.036180e+00 2.482670e+01 2.068898e+00
      vertex   1.035250e+01 2.808185e+01 2.057884e+00
      vertex   9.343285e+00 2.567046e+01 2.045843e+00
    endloop
  endfacet
  facet normal -5.129335e-01 2.105180e-01 8.322148e-01
    outer loop
      vertex   9.343285e+00 2.567046e+01 2.045843e+00
      vertex   1.035250e+01 2.808185e+01 2.057884e+00
      vertex   9.646116e+00 2.650249e+01 2.022023e+00
    endloop
  endfacet
  facet normal -5.220641e-01 2.147559e-01 8.254266e-01
    outer loop
      vertex   9.646116e+00 2.650249e+01 2.022023e+00
      vertex   1.035250e+01 2.808185e+01 2.057884e+00
      vertex   9.944537e+00 2.732239e+01 1.997449e+00
    endloop
  endfacet
  facet normal -5.264377e-01 2.173816e-01 8.219541e-01
    outer loop
      vertex   9.944537e+00 2.732239e+01 1.997449e+00
      vertex   1.035250e+01 2.808185e+01 2.057884e+00
      vertex   1.023841e+01 2.812980e+01 1.972131e+00
    endloop
  endfacet
  facet normal 9.226864e-01 -3.780418e-01 -7.572409e-02
    outer loop
      vertex   1.319677e+01 2.694111e+01 1.481341e-01
      vertex   1.320640e+01 2.693518e+01 2.950757e-01
      vertex   1.176806e+01 2.344229e+01 2.068936e-01
    endloop
  endfacet
  facet normal 9.245045e-01 -3.799246e-01 -3.080000e-02
    outer loop
      vertex   1.176806e+01 2.344229e+01 2.068936e-01
      vertex   1.320640e+01 2.693518e+01 2.950757e-01
      vertex   1.177401e+01 2.343985e+01 4.155952e-01
    endloop
  endfacet
  facet normal 9.247708e-01 -3.792761e-01 -3.080000e-02
    outer loop
      vertex   1.176806e+01 2.344229e+01 2.068936e-01
      vertex   1.177401e+01 2.343985e+01 4.155952e-01
      vertex   1.033924e+01 1.994152e+01 4.155952e-01
    endloop
  endfacet
  facet normal 9.227020e-01 -3.784277e-01 7.357633e-02
    outer loop
      vertex   1.033924e+01 1.994152e+01 4.155952e-01
      vertex   1.177401e+01 2.343985e+01 4.155952e-01
      vertex   1.032502e+01 1.994735e+01 6.238298e-01
    endloop
  endfacet
  facet normal 9.227020e-01 -3.784277e-01 7.357633e-02
    outer loop
      vertex   1.033924e+01 1.994152e+01 4.155952e-01
      vertex   1.032502e+01 1.994735e+01 6.238298e-01
      vertex   8.890255e+00 1.644902e+01 6.238298e-01
    endloop
  endfacet
  facet normal 9.105764e-01 -3.734546e-01 1.771507e-01
    outer loop
      vertex   8.890255e+00 1.644902e+01 6.238298e-01
      vertex   1.032502e+01 1.994735e+01 6.238298e-01
      vertex   8.856032e+00 1.646306e+01 8.293279e-01
    endloop
  endfacet
  facet normal 9.252860e-01 -3.792631e-01 -2.327146e-03
    outer loop
      vertex   1.320640e+01 2.693518e+01 2.950757e-01
      vertex   1.320602e+01 2.693338e+01 4.399540e-01
      vertex   1.177401e+01 2.343985e+01 4.155952e-01
    endloop
  endfacet
  facet normal 9.226816e-01 -3.787162e-01 7.233735e-02
    outer loop
      vertex   1.177401e+01 2.343985e+01 4.155952e-01
      vertex   1.320602e+01 2.693338e+01 4.399540e-01
      vertex   1.319548e+01 2.693573e+01 5.866936e-01
    endloop
  endfacet
  facet normal 9.225763e-01 -3.787340e-01 7.357633e-02
    outer loop
      vertex   1.177401e+01 2.343985e+01 4.155952e-01
      vertex   1.319548e+01 2.693573e+01 5.866936e-01
      vertex   1.175979e+01 2.344568e+01 6.238298e-01
    endloop
  endfacet
  facet normal 9.155313e-01 -3.750723e-01 1.453379e-01
    outer loop
      vertex   1.175979e+01 2.344568e+01 6.238298e-01
      vertex   1.319548e+01 2.693573e+01 5.866936e-01
      vertex   1.317466e+01 2.694228e+01 7.347581e-01
    endloop
  endfacet
  facet normal 9.103574e-01 -3.739880e-01 1.771507e-01
    outer loop
      vertex   1.175979e+01 2.344568e+01 6.238298e-01
      vertex   1.317466e+01 2.694228e+01 7.347581e-01
      vertex   1.172557e+01 2.345971e+01 8.293279e-01
    endloop
  endfacet
  facet normal 9.032470e-01 -3.699345e-01 2.174703e-01
    outer loop
      vertex   1.172557e+01 2.345971e+01 8.293279e-01
      vertex   1.317466e+01 2.694228e+01 7.347581e-01
      vertex   1.314350e+01 2.695307e+01 8.825457e-01
    endloop
  endfacet
  facet normal 8.884269e-01 -3.648494e-01 2.785365e-01
    outer loop
      vertex   1.172557e+01 2.345971e+01 8.293279e-01
      vertex   1.314350e+01 2.695307e+01 8.825457e-01
      vertex   1.167204e+01 2.348167e+01 1.028836e+00
    endloop
  endfacet
  facet normal 8.855288e-01 -3.631478e-01 2.897627e-01
    outer loop
      vertex   1.167204e+01 2.348167e+01 1.028836e+00
      vertex   1.314350e+01 2.695307e+01 8.825457e-01
      vertex   1.310194e+01 2.696815e+01 1.028454e+00
    endloop
  endfacet
  facet normal 8.621095e-01 -3.535349e-01 3.630156e-01
    outer loop
      vertex   1.167204e+01 2.348167e+01 1.028836e+00
      vertex   1.310194e+01 2.696815e+01 1.028454e+00
      vertex   1.304992e+01 2.698756e+01 1.170883e+00
    endloop
  endfacet
  facet normal 8.566656e-01 -3.519681e-01 3.771506e-01
    outer loop
      vertex   1.167204e+01 2.348167e+01 1.028836e+00
      vertex   1.304992e+01 2.698756e+01 1.170883e+00
      vertex   1.159880e+01 2.351170e+01 1.223210e+00
    endloop
  endfacet
  facet normal 8.330871e-01 -3.412485e-01 4.353337e-01
    outer loop
      vertex   1.159880e+01 2.351170e+01 1.223210e+00
      vertex   1.304992e+01 2.698756e+01 1.170883e+00
      vertex   1.298776e+01 2.701121e+01 1.308390e+00
    endloop
  endfacet
  facet normal 8.154727e-01 -3.351471e-01 4.718905e-01
    outer loop
      vertex   1.159880e+01 2.351170e+01 1.223210e+00
      vertex   1.298776e+01 2.701121e+01 1.308390e+00
      vertex   1.150764e+01 2.354909e+01 1.407300e+00
    endloop
  endfacet
  facet normal 8.000702e-01 -3.276877e-01 5.025022e-01
    outer loop
      vertex   1.150764e+01 2.354909e+01 1.407300e+00
      vertex   1.298776e+01 2.701121e+01 1.308390e+00
      vertex   1.291644e+01 2.703868e+01 1.439851e+00
    endloop
  endfacet
  facet normal 7.656398e-01 -3.143356e-01 5.612386e-01
    outer loop
      vertex   1.150764e+01 2.354909e+01 1.407300e+00
      vertex   1.291644e+01 2.703868e+01 1.439851e+00
      vertex   1.139922e+01 2.359356e+01 1.580115e+00
    endloop
  endfacet
  facet normal 7.633523e-01 -3.131754e-01 5.649906e-01
    outer loop
      vertex   1.139922e+01 2.359356e+01 1.580115e+00
      vertex   1.291644e+01 2.703868e+01 1.439851e+00
      vertex   1.283708e+01 2.706955e+01 1.564184e+00
    endloop
  endfacet
  facet normal 7.232117e-01 -2.963014e-01 6.238352e-01
    outer loop
      vertex   1.139922e+01 2.359356e+01 1.580115e+00
      vertex   1.283708e+01 2.706955e+01 1.564184e+00
      vertex   1.275078e+01 2.710338e+01 1.680307e+00
    endloop
  endfacet
  facet normal 7.072040e-01 -2.907261e-01 6.444695e-01
    outer loop
      vertex   1.139922e+01 2.359356e+01 1.580115e+00
      vertex   1.275078e+01 2.710338e+01 1.680307e+00
      vertex   1.127472e+01 2.364462e+01 1.739770e+00
    endloop
  endfacet
  facet normal 6.785787e-01 -2.779004e-01 6.799282e-01
    outer loop
      vertex   1.127472e+01 2.364462e+01 1.739770e+00
      vertex   1.275078e+01 2.710338e+01 1.680307e+00
      vertex   1.265862e+01 2.713974e+01 1.787135e+00
    endloop
  endfacet
  facet normal 6.411839e-01 -2.636460e-01 7.206760e-01
    outer loop
      vertex   1.127472e+01 2.364462e+01 1.739770e+00
      vertex   1.265862e+01 2.713974e+01 1.787135e+00
      vertex   1.113549e+01 2.370172e+01 1.884525e+00
    endloop
  endfacet
  facet normal 6.289433e-01 -2.578615e-01 7.334424e-01
    outer loop
      vertex   1.113549e+01 2.370172e+01 1.884525e+00
      vertex   1.265862e+01 2.713974e+01 1.787135e+00
      vertex   1.255929e+01 2.717914e+01 1.886172e+00
    endloop
  endfacet
  facet normal 5.770176e-01 -2.366239e-01 7.817032e-01
    outer loop
      vertex   1.113549e+01 2.370172e+01 1.884525e+00
      vertex   1.255929e+01 2.717914e+01 1.886172e+00
      vertex   1.245138e+01 2.722215e+01 1.978839e+00
    endloop
  endfacet
  facet normal 5.682385e-01 -2.335386e-01 7.890277e-01
    outer loop
      vertex   1.113549e+01 2.370172e+01 1.884525e+00
      vertex   1.245138e+01 2.722215e+01 1.978839e+00
      vertex   1.098307e+01 2.376424e+01 2.012804e+00
    endloop
  endfacet
  facet normal 5.227392e-01 -2.138629e-01 8.252311e-01
    outer loop
      vertex   1.098307e+01 2.376424e+01 2.012804e+00
      vertex   1.245138e+01 2.722215e+01 1.978839e+00
      vertex   1.233592e+01 2.726835e+01 2.063954e+00
    endloop
  endfacet
  facet normal 4.889815e-01 -2.011735e-01 8.487793e-01
    outer loop
      vertex   1.098307e+01 2.376424e+01 2.012804e+00
      vertex   1.233592e+01 2.726835e+01 2.063954e+00
      vertex   1.081910e+01 2.383149e+01 2.123206e+00
    endloop
  endfacet
  facet normal 4.648618e-01 -1.902541e-01 8.647004e-01
    outer loop
      vertex   1.081910e+01 2.383149e+01 2.123206e+00
      vertex   1.233592e+01 2.726835e+01 2.063954e+00
      vertex   1.221391e+01 2.731736e+01 2.140333e+00
    endloop
  endfacet
  facet normal 4.045311e-01 -1.662838e-01 8.992799e-01
    outer loop
      vertex   1.081910e+01 2.383149e+01 2.123206e+00
      vertex   1.221391e+01 2.731736e+01 2.140333e+00
      vertex   1.064537e+01 2.390274e+01 2.214530e+00
    endloop
  endfacet
  facet normal 4.024744e-01 -1.653151e-01 9.003806e-01
    outer loop
      vertex   1.064537e+01 2.390274e+01 2.214530e+00
      vertex   1.221391e+01 2.731736e+01 2.140333e+00
      vertex   1.208635e+01 2.736878e+01 2.206793e+00
    endloop
  endfacet
  facet normal 3.357077e-01 -1.374872e-01 9.318785e-01
    outer loop
      vertex   1.064537e+01 2.390274e+01 2.214530e+00
      vertex   1.208635e+01 2.736878e+01 2.206793e+00
      vertex   1.195429e+01 2.742219e+01 2.262248e+00
    endloop
  endfacet
  facet normal 3.154708e-01 -1.300707e-01 9.399786e-01
    outer loop
      vertex   1.064537e+01 2.390274e+01 2.214530e+00
      vertex   1.195429e+01 2.742219e+01 2.262248e+00
      vertex   1.046378e+01 2.397721e+01 2.285780e+00
    endloop
  endfacet
  facet normal 2.680381e-01 -1.094310e-01 9.571731e-01
    outer loop
      vertex   1.046378e+01 2.397721e+01 2.285780e+00
      vertex   1.195429e+01 2.742219e+01 2.262248e+00
      vertex   1.181906e+01 2.747706e+01 2.306386e+00
    endloop
  endfacet
  facet normal 2.231075e-01 -9.211011e-02 9.704323e-01
    outer loop
      vertex   1.046378e+01 2.397721e+01 2.285780e+00
      vertex   1.181906e+01 2.747706e+01 2.306386e+00
      vertex   1.027631e+01 2.405410e+01 2.336179e+00
    endloop
  endfacet
  facet normal 2.010888e-01 -8.213657e-02 9.761234e-01
    outer loop
      vertex   1.027631e+01 2.405410e+01 2.336179e+00
      vertex   1.181906e+01 2.747706e+01 2.306386e+00
      vertex   1.168216e+01 2.753276e+01 2.339276e+00
    endloop
  endfacet
  facet normal 1.342028e-01 -5.511735e-02 9.894199e-01
    outer loop
      vertex   1.027631e+01 2.405410e+01 2.336179e+00
      vertex   1.168216e+01 2.753276e+01 2.339276e+00
      vertex   1.154506e+01 2.758869e+01 2.360989e+00
    endloop
  endfacet
  facet normal 1.283611e-01 -5.302670e-02 9.903088e-01
    outer loop
      vertex   1.027631e+01 2.405410e+01 2.336179e+00
      vertex   1.154506e+01 2.758869e+01 2.360989e+00
      vertex   1.008500e+01 2.413256e+01 2.365177e+00
    endloop
  endfacet
  facet normal 6.682171e-02 -2.702041e-02 9.973990e-01
    outer loop
      vertex   1.008500e+01 2.413256e+01 2.365177e+00
      vertex   1.154506e+01 2.758869e+01 2.360989e+00
      vertex   1.140924e+01 2.764425e+01 2.371593e+00
    endloop
  endfacet
  facet normal 3.199941e-02 -1.389270e-02 9.993913e-01
    outer loop
      vertex   1.008500e+01 2.413256e+01 2.365177e+00
      vertex   1.140924e+01 2.764425e+01 2.371593e+00
      vertex   9.891929e+00 2.421174e+01 2.372460e+00
    endloop
  endfacet
  facet normal -2.670212e-03 1.432866e-03 9.999954e-01
    outer loop
      vertex   9.891929e+00 2.421174e+01 2.372460e+00
      vertex   1.140924e+01 2.764425e+01 2.371593e+00
      vertex   1.127520e+01 2.769923e+01 2.371156e+00
    endloop
  endfacet
  facet normal -6.448285e-02 2.594920e-02 9.975814e-01
    outer loop
      vertex   9.891929e+00 2.421174e+01 2.372460e+00
      vertex   1.127520e+01 2.769923e+01 2.371156e+00
      vertex   9.699212e+00 2.429078e+01 2.357947e+00
    endloop
  endfacet
  facet normal -7.212672e-02 2.948596e-02 9.969595e-01
    outer loop
      vertex   9.699212e+00 2.429078e+01 2.357947e+00
      vertex   1.127520e+01 2.769923e+01 2.371156e+00
      vertex   1.113933e+01 2.775510e+01 2.359674e+00
    endloop
  endfacet
  facet normal -1.394335e-01 5.746962e-02 9.885624e-01
    outer loop
      vertex   9.699212e+00 2.429078e+01 2.357947e+00
      vertex   1.113933e+01 2.775510e+01 2.359674e+00
      vertex   1.100240e+01 2.781156e+01 2.337079e+00
    endloop
  endfacet
  facet normal -1.603872e-01 6.520374e-02 9.848982e-01
    outer loop
      vertex   9.699212e+00 2.429078e+01 2.357947e+00
      vertex   1.100240e+01 2.781156e+01 2.337079e+00
      vertex   9.508945e+00 2.436882e+01 2.321796e+00
    endloop
  endfacet
  facet normal -2.060609e-01 8.506165e-02 9.748351e-01
    outer loop
      vertex   9.508945e+00 2.436882e+01 2.321796e+00
      vertex   1.100240e+01 2.781156e+01 2.337079e+00
      vertex   1.086590e+01 2.786800e+01 2.303300e+00
    endloop
  endfacet
  facet normal -2.545276e-01 1.037860e-01 9.614802e-01
    outer loop
      vertex   9.508945e+00 2.436882e+01 2.321796e+00
      vertex   1.086590e+01 2.786800e+01 2.303300e+00
      vertex   9.323202e+00 2.444500e+01 2.264403e+00
    endloop
  endfacet
  facet normal -2.731171e-01 1.122330e-01 9.554113e-01
    outer loop
      vertex   9.323202e+00 2.444500e+01 2.264403e+00
      vertex   1.086590e+01 2.786800e+01 2.303300e+00
      vertex   1.073130e+01 2.792381e+01 2.258267e+00
    endloop
  endfacet
  facet normal -3.410204e-01 1.396724e-01 9.296218e-01
    outer loop
      vertex   9.323202e+00 2.444500e+01 2.264403e+00
      vertex   1.073130e+01 2.792381e+01 2.258267e+00
      vertex   1.060008e+01 2.797838e+01 2.201930e+00
    endloop
  endfacet
  facet normal -3.458366e-01 1.413768e-01 9.275827e-01
    outer loop
      vertex   9.323202e+00 2.444500e+01 2.264403e+00
      vertex   1.060008e+01 2.797838e+01 2.201930e+00
      vertex   9.144007e+00 2.451849e+01 2.186391e+00
    endloop
  endfacet
  facet normal -4.064413e-01 1.670134e-01 8.982828e-01
    outer loop
      vertex   9.144007e+00 2.451849e+01 2.186391e+00
      vertex   1.060008e+01 2.797838e+01 2.201930e+00
      vertex   1.047344e+01 2.803122e+01 2.134807e+00
    endloop
  endfacet
  facet normal -4.335306e-01 1.770496e-01 8.835749e-01
    outer loop
      vertex   9.144007e+00 2.451849e+01 2.186391e+00
      vertex   1.047344e+01 2.803122e+01 2.134807e+00
      vertex   8.973315e+00 2.458850e+01 2.088612e+00
    endloop
  endfacet
  facet normal -4.680580e-01 1.923773e-01 8.625037e-01
    outer loop
      vertex   8.973315e+00 2.458850e+01 2.088612e+00
      vertex   1.047344e+01 2.803122e+01 2.134807e+00
      vertex   1.035250e+01 2.808185e+01 2.057884e+00
    endloop
  endfacet
  facet normal 9.212620e-01 -3.781178e-01 -9.112182e-02
    outer loop
      vertex   7.487061e+00 1.299536e+01 2.539523e-01
      vertex   7.477547e+00 1.300269e+01 1.273300e-01
      vertex   8.898519e+00 1.644563e+01 2.068936e-01
    endloop
  endfacet
  facet normal 9.188883e-01 -3.765217e-01 -1.177951e-01
    outer loop
      vertex   8.898519e+00 1.644563e+01 2.068936e-01
      vertex   7.477547e+00 1.300269e+01 1.273300e-01
      vertex   1.317678e+01 2.695130e+01 0.000000e+00
    endloop
  endfacet
  facet normal 9.141097e-01 -3.749037e-01 -1.544365e-01
    outer loop
      vertex   7.477547e+00 1.300269e+01 1.273300e-01
      vertex   7.460343e+00 1.301320e+01 0.000000e+00
      vertex   1.317678e+01 2.695130e+01 0.000000e+00
    endloop
  endfacet
  facet normal 9.247708e-01 -3.792761e-01 -3.080000e-02
    outer loop
      vertex   8.904469e+00 1.644319e+01 4.155952e-01
      vertex   1.033329e+01 1.994396e+01 2.068936e-01
      vertex   1.033924e+01 1.994152e+01 4.155952e-01
    endloop
  endfacet
  facet normal 9.247708e-01 -3.792761e-01 -3.080000e-02
    outer loop
      vertex   1.033924e+01 1.994152e+01 4.155952e-01
      vertex   1.033329e+01 1.994396e+01 2.068936e-01
      vertex   1.176806e+01 2.344229e+01 2.068936e-01
    endloop
  endfacet
  facet normal 9.227020e-01 -3.784277e-01 7.357633e-02
    outer loop
      vertex   8.890255e+00 1.644902e+01 6.238298e-01
      vertex   8.904469e+00 1.644319e+01 4.155952e-01
      vertex   1.033924e+01 1.994152e+01 4.155952e-01
    endloop
  endfacet
  facet normal 9.227020e-01 -3.784277e-01 7.357633e-02
    outer loop
      vertex   1.177401e+01 2.343985e+01 4.155952e-01
      vertex   1.175979e+01 2.344568e+01 6.238298e-01
      vertex   1.032502e+01 1.994735e+01 6.238298e-01
    endloop
  endfacet
  facet normal 9.105764e-01 -3.734546e-01 1.771507e-01
    outer loop
      vertex   1.032502e+01 1.994735e+01 6.238298e-01
      vertex   1.175979e+01 2.344568e+01 6.238298e-01
      vertex   1.029080e+01 1.996139e+01 8.293279e-01
    endloop
  endfacet
  facet normal 9.105764e-01 -3.734546e-01 1.771507e-01
    outer loop
      vertex   1.032502e+01 1.994735e+01 6.238298e-01
      vertex   1.029080e+01 1.996139e+01 8.293279e-01
      vertex   8.856032e+00 1.646306e+01 8.293279e-01
    endloop
  endfacet
  facet normal 8.885720e-01 -3.644299e-01 2.786227e-01
    outer loop
      vertex   8.856032e+00 1.646306e+01 8.293279e-01
      vertex   1.029080e+01 1.996139e+01 8.293279e-01
      vertex   1.023716e+01 1.998339e+01 1.029175e+00
    endloop
  endfacet
  facet normal 8.885470e-01 -3.644250e-01 2.787089e-01
    outer loop
      vertex   8.856032e+00 1.646306e+01 8.293279e-01
      vertex   1.023716e+01 1.998339e+01 1.029175e+00
      vertex   8.802282e+00 1.648510e+01 1.029514e+00
    endloop
  endfacet
  facet normal 8.568553e-01 -3.514166e-01 3.772337e-01
    outer loop
      vertex   8.802282e+00 1.648510e+01 1.029514e+00
      vertex   1.023716e+01 1.998339e+01 1.029175e+00
      vertex   1.016403e+01 2.001338e+01 1.223210e+00
    endloop
  endfacet
  facet normal 8.568221e-01 -3.514084e-01 3.773168e-01
    outer loop
      vertex   8.802282e+00 1.648510e+01 1.029514e+00
      vertex   1.016403e+01 2.001338e+01 1.223210e+00
      vertex   8.729266e+00 1.651505e+01 1.223210e+00
    endloop
  endfacet
  facet normal 8.157177e-01 -3.345502e-01 4.718906e-01
    outer loop
      vertex   8.729266e+00 1.651505e+01 1.223210e+00
      vertex   1.016403e+01 2.001338e+01 1.223210e+00
      vertex   8.638104e+00 1.655244e+01 1.407300e+00
    endloop
  endfacet
  facet normal 9.105764e-01 -3.734546e-01 1.771507e-01
    outer loop
      vertex   1.175979e+01 2.344568e+01 6.238298e-01
      vertex   1.172557e+01 2.345971e+01 8.293279e-01
      vertex   1.029080e+01 1.996139e+01 8.293279e-01
    endloop
  endfacet
  facet normal 8.885951e-01 -3.644394e-01 2.785366e-01
    outer loop
      vertex   1.029080e+01 1.996139e+01 8.293279e-01
      vertex   1.172557e+01 2.345971e+01 8.293279e-01
      vertex   1.167204e+01 2.348167e+01 1.028836e+00
    endloop
  endfacet
  facet normal 8.885701e-01 -3.644345e-01 2.786227e-01
    outer loop
      vertex   1.029080e+01 1.996139e+01 8.293279e-01
      vertex   1.167204e+01 2.348167e+01 1.028836e+00
      vertex   1.023716e+01 1.998339e+01 1.029175e+00
    endloop
  endfacet
  facet normal 8.568867e-01 -3.514295e-01 3.771506e-01
    outer loop
      vertex   1.023716e+01 1.998339e+01 1.029175e+00
      vertex   1.167204e+01 2.348167e+01 1.028836e+00
      vertex   1.159880e+01 2.351170e+01 1.223210e+00
    endloop
  endfacet
  facet normal 8.568535e-01 -3.514212e-01 3.772337e-01
    outer loop
      vertex   1.023716e+01 1.998339e+01 1.029175e+00
      vertex   1.159880e+01 2.351170e+01 1.223210e+00
      vertex   1.016403e+01 2.001338e+01 1.223210e+00
    endloop
  endfacet
  facet normal 8.157177e-01 -3.345502e-01 4.718906e-01
    outer loop
      vertex   1.016403e+01 2.001338e+01 1.223210e+00
      vertex   1.159880e+01 2.351170e+01 1.223210e+00
      vertex   1.007287e+01 2.005076e+01 1.407300e+00
    endloop
  endfacet
  facet normal 8.157177e-01 -3.345502e-01 4.718906e-01
    outer loop
      vertex   1.016403e+01 2.001338e+01 1.223210e+00
      vertex   1.007287e+01 2.005076e+01 1.407300e+00
      vertex   8.638104e+00 1.655244e+01 1.407300e+00
    endloop
  endfacet
  facet normal 7.657535e-01 -3.140584e-01 5.612387e-01
    outer loop
      vertex   8.638104e+00 1.655244e+01 1.407300e+00
      vertex   1.007287e+01 2.005076e+01 1.407300e+00
      vertex   8.529682e+00 1.659690e+01 1.580115e+00
    endloop
  endfacet
  facet normal 8.157177e-01 -3.345502e-01 4.718906e-01
    outer loop
      vertex   1.159880e+01 2.351170e+01 1.223210e+00
      vertex   1.150764e+01 2.354909e+01 1.407300e+00
      vertex   1.007287e+01 2.005076e+01 1.407300e+00
    endloop
  endfacet
  facet normal 7.657535e-01 -3.140584e-01 5.612387e-01
    outer loop
      vertex   1.007287e+01 2.005076e+01 1.407300e+00
      vertex   1.150764e+01 2.354909e+01 1.407300e+00
      vertex   9.964451e+00 2.009523e+01 1.580115e+00
    endloop
  endfacet
  facet normal 7.657535e-01 -3.140584e-01 5.612387e-01
    outer loop
      vertex   1.007287e+01 2.005076e+01 1.407300e+00
      vertex   9.964451e+00 2.009523e+01 1.580115e+00
      vertex   8.529682e+00 1.659690e+01 1.580115e+00
    endloop
  endfacet
  facet normal 7.074431e-01 -2.901435e-01 6.444696e-01
    outer loop
      vertex   8.529682e+00 1.659690e+01 1.580115e+00
      vertex   9.964451e+00 2.009523e+01 1.580115e+00
      vertex   8.405180e+00 1.664797e+01 1.739770e+00
    endloop
  endfacet
  facet normal 7.657535e-01 -3.140584e-01 5.612387e-01
    outer loop
      vertex   1.150764e+01 2.354909e+01 1.407300e+00
      vertex   1.139922e+01 2.359356e+01 1.580115e+00
      vertex   9.964451e+00 2.009523e+01 1.580115e+00
    endloop
  endfacet
  facet normal 7.074431e-01 -2.901435e-01 6.444696e-01
    outer loop
      vertex   9.964451e+00 2.009523e+01 1.580115e+00
      vertex   1.139922e+01 2.359356e+01 1.580115e+00
      vertex   9.839949e+00 2.014629e+01 1.739770e+00
    endloop
  endfacet
  facet normal 7.074431e-01 -2.901435e-01 6.444696e-01
    outer loop
      vertex   9.964451e+00 2.009523e+01 1.580115e+00
      vertex   9.839949e+00 2.014629e+01 1.739770e+00
      vertex   8.405180e+00 1.664797e+01 1.739770e+00
    endloop
  endfacet
  facet normal 6.414219e-01 -2.630663e-01 7.206762e-01
    outer loop
      vertex   8.405180e+00 1.664797e+01 1.739770e+00
      vertex   9.839949e+00 2.014629e+01 1.739770e+00
      vertex   8.265957e+00 1.670507e+01 1.884525e+00
    endloop
  endfacet
  facet normal 7.074431e-01 -2.901435e-01 6.444696e-01
    outer loop
      vertex   1.139922e+01 2.359356e+01 1.580115e+00
      vertex   1.127472e+01 2.364462e+01 1.739770e+00
      vertex   9.839949e+00 2.014629e+01 1.739770e+00
    endloop
  endfacet
  facet normal 6.414219e-01 -2.630663e-01 7.206762e-01
    outer loop
      vertex   9.839949e+00 2.014629e+01 1.739770e+00
      vertex   1.127472e+01 2.364462e+01 1.739770e+00
      vertex   9.700726e+00 2.020339e+01 1.884525e+00
    endloop
  endfacet
  facet normal 6.414219e-01 -2.630663e-01 7.206762e-01
    outer loop
      vertex   9.839949e+00 2.014629e+01 1.739770e+00
      vertex   9.700726e+00 2.020339e+01 1.884525e+00
      vertex   8.265957e+00 1.670507e+01 1.884525e+00
    endloop
  endfacet
  facet normal 5.684095e-01 -2.331217e-01 7.890278e-01
    outer loop
      vertex   8.265957e+00 1.670507e+01 1.884525e+00
      vertex   9.700726e+00 2.020339e+01 1.884525e+00
      vertex   8.113529e+00 1.676758e+01 2.012804e+00
    endloop
  endfacet
  facet normal 6.414219e-01 -2.630663e-01 7.206762e-01
    outer loop
      vertex   1.127472e+01 2.364462e+01 1.739770e+00
      vertex   1.113549e+01 2.370172e+01 1.884525e+00
      vertex   9.700726e+00 2.020339e+01 1.884525e+00
    endloop
  endfacet
  facet normal 5.684095e-01 -2.331217e-01 7.890278e-01
    outer loop
      vertex   9.700726e+00 2.020339e+01 1.884525e+00
      vertex   1.113549e+01 2.370172e+01 1.884525e+00
      vertex   9.548298e+00 2.026591e+01 2.012804e+00
    endloop
  endfacet
  facet normal 5.684095e-01 -2.331217e-01 7.890278e-01
    outer loop
      vertex   9.700726e+00 2.020339e+01 1.884525e+00
      vertex   9.548298e+00 2.026591e+01 2.012804e+00
      vertex   8.113529e+00 1.676758e+01 2.012804e+00
    endloop
  endfacet
  facet normal 4.892019e-01 -2.006363e-01 8.487795e-01
    outer loop
      vertex   8.113529e+00 1.676758e+01 2.012804e+00
      vertex   9.548298e+00 2.026591e+01 2.012804e+00
      vertex   7.949558e+00 1.683483e+01 2.123206e+00
    endloop
  endfacet
  facet normal 5.684095e-01 -2.331217e-01 7.890278e-01
    outer loop
      vertex   1.113549e+01 2.370172e+01 1.884525e+00
      vertex   1.098307e+01 2.376424e+01 2.012804e+00
      vertex   9.548298e+00 2.026591e+01 2.012804e+00
    endloop
  endfacet
  facet normal 4.892019e-01 -2.006363e-01 8.487795e-01
    outer loop
      vertex   9.548298e+00 2.026591e+01 2.012804e+00
      vertex   1.098307e+01 2.376424e+01 2.012804e+00
      vertex   9.384327e+00 2.033316e+01 2.123206e+00
    endloop
  endfacet
  facet normal 4.892019e-01 -2.006363e-01 8.487795e-01
    outer loop
      vertex   9.548298e+00 2.026591e+01 2.012804e+00
      vertex   9.384327e+00 2.033316e+01 2.123206e+00
      vertex   7.949558e+00 1.683483e+01 2.123206e+00
    endloop
  endfacet
  facet normal 4.046622e-01 -1.659641e-01 8.992799e-01
    outer loop
      vertex   7.949558e+00 1.683483e+01 2.123206e+00
      vertex   9.384327e+00 2.033316e+01 2.123206e+00
      vertex   7.775832e+00 1.690608e+01 2.214530e+00
    endloop
  endfacet
  facet normal 4.892019e-01 -2.006363e-01 8.487795e-01
    outer loop
      vertex   1.098307e+01 2.376424e+01 2.012804e+00
      vertex   1.081910e+01 2.383149e+01 2.123206e+00
      vertex   9.384327e+00 2.033316e+01 2.123206e+00
    endloop
  endfacet
  facet normal 4.046622e-01 -1.659641e-01 8.992799e-01
    outer loop
      vertex   9.384327e+00 2.033316e+01 2.123206e+00
      vertex   1.081910e+01 2.383149e+01 2.123206e+00
      vertex   9.210600e+00 2.040441e+01 2.214530e+00
    endloop
  endfacet
  facet normal 4.046622e-01 -1.659641e-01 8.992799e-01
    outer loop
      vertex   9.384327e+00 2.033316e+01 2.123206e+00
      vertex   9.210600e+00 2.040441e+01 2.214530e+00
      vertex   7.775832e+00 1.690608e+01 2.214530e+00
    endloop
  endfacet
  facet normal 3.157120e-01 -1.294829e-01 9.399788e-01
    outer loop
      vertex   7.775832e+00 1.690608e+01 2.214530e+00
      vertex   9.210600e+00 2.040441e+01 2.214530e+00
      vertex   7.594242e+00 1.698056e+01 2.285780e+00
    endloop
  endfacet
  facet normal 4.046622e-01 -1.659641e-01 8.992799e-01
    outer loop
      vertex   1.081910e+01 2.383149e+01 2.123206e+00
      vertex   1.064537e+01 2.390274e+01 2.214530e+00
      vertex   9.210600e+00 2.040441e+01 2.214530e+00
    endloop
  endfacet
  facet normal 3.157120e-01 -1.294829e-01 9.399788e-01
    outer loop
      vertex   9.210600e+00 2.040441e+01 2.214530e+00
      vertex   1.064537e+01 2.390274e+01 2.214530e+00
      vertex   9.029011e+00 2.047888e+01 2.285780e+00
    endloop
  endfacet
  facet normal 3.157120e-01 -1.294829e-01 9.399788e-01
    outer loop
      vertex   9.210600e+00 2.040441e+01 2.214530e+00
      vertex   9.029011e+00 2.047888e+01 2.285780e+00
      vertex   7.594242e+00 1.698056e+01 2.285780e+00
    endloop
  endfacet
  facet normal 2.233206e-01 -9.159047e-02 9.704324e-01
    outer loop
      vertex   7.594242e+00 1.698056e+01 2.285780e+00
      vertex   9.029011e+00 2.047888e+01 2.285780e+00
      vertex   7.406770e+00 1.705744e+01 2.336179e+00
    endloop
  endfacet
  facet normal 3.157120e-01 -1.294829e-01 9.399788e-01
    outer loop
      vertex   1.064537e+01 2.390274e+01 2.214530e+00
      vertex   1.046378e+01 2.397721e+01 2.285780e+00
      vertex   9.029011e+00 2.047888e+01 2.285780e+00
    endloop
  endfacet
  facet normal 2.233206e-01 -9.159047e-02 9.704324e-01
    outer loop
      vertex   9.029011e+00 2.047888e+01 2.285780e+00
      vertex   1.046378e+01 2.397721e+01 2.285780e+00
      vertex   8.841539e+00 2.055577e+01 2.336179e+00
    endloop
  endfacet
  facet normal 2.233206e-01 -9.159047e-02 9.704324e-01
    outer loop
      vertex   9.029011e+00 2.047888e+01 2.285780e+00
      vertex   8.841539e+00 2.055577e+01 2.336179e+00
      vertex   7.406770e+00 1.705744e+01 2.336179e+00
    endloop
  endfacet
  facet normal 1.284952e-01 -5.269974e-02 9.903089e-01
    outer loop
      vertex   7.406770e+00 1.705744e+01 2.336179e+00
      vertex   8.841539e+00 2.055577e+01 2.336179e+00
      vertex   7.215458e+00 1.713591e+01 2.365177e+00
    endloop
  endfacet
  facet normal 2.233206e-01 -9.159047e-02 9.704324e-01
    outer loop
      vertex   1.046378e+01 2.397721e+01 2.285780e+00
      vertex   1.027631e+01 2.405410e+01 2.336179e+00
      vertex   8.841539e+00 2.055577e+01 2.336179e+00
    endloop
  endfacet
  facet normal 1.284952e-01 -5.269974e-02 9.903089e-01
    outer loop
      vertex   8.841539e+00 2.055577e+01 2.336179e+00
      vertex   1.027631e+01 2.405410e+01 2.336179e+00
      vertex   8.650227e+00 2.063423e+01 2.365177e+00
    endloop
  endfacet
  facet normal 1.284952e-01 -5.269974e-02 9.903089e-01
    outer loop
      vertex   8.841539e+00 2.055577e+01 2.336179e+00
      vertex   8.650227e+00 2.063423e+01 2.365177e+00
      vertex   7.215458e+00 1.713591e+01 2.365177e+00
    endloop
  endfacet
  facet normal 3.226932e-02 -1.323461e-02 9.993916e-01
    outer loop
      vertex   7.215458e+00 1.713591e+01 2.365177e+00
      vertex   8.650227e+00 2.063423e+01 2.365177e+00
      vertex   7.022391e+00 1.721509e+01 2.372460e+00
    endloop
  endfacet
  facet normal 1.284952e-01 -5.269974e-02 9.903089e-01
    outer loop
      vertex   1.027631e+01 2.405410e+01 2.336179e+00
      vertex   1.008500e+01 2.413256e+01 2.365177e+00
      vertex   8.650227e+00 2.063423e+01 2.365177e+00
    endloop
  endfacet
  facet normal 3.226932e-02 -1.323461e-02 9.993916e-01
    outer loop
      vertex   8.650227e+00 2.063423e+01 2.365177e+00
      vertex   1.008500e+01 2.413256e+01 2.365177e+00
      vertex   8.457160e+00 2.071342e+01 2.372460e+00
    endloop
  endfacet
  facet normal 3.226932e-02 -1.323461e-02 9.993916e-01
    outer loop
      vertex   8.650227e+00 2.063423e+01 2.365177e+00
      vertex   8.457160e+00 2.071342e+01 2.372460e+00
      vertex   7.022391e+00 1.721509e+01 2.372460e+00
    endloop
  endfacet
  facet normal -6.430832e-02 2.637476e-02 9.975815e-01
    outer loop
      vertex   7.022391e+00 1.721509e+01 2.372460e+00
      vertex   8.457160e+00 2.071342e+01 2.372460e+00
      vertex   6.829674e+00 1.729413e+01 2.357947e+00
    endloop
  endfacet
  facet normal 3.226932e-02 -1.323461e-02 9.993916e-01
    outer loop
      vertex   1.008500e+01 2.413256e+01 2.365177e+00
      vertex   9.891929e+00 2.421174e+01 2.372460e+00
      vertex   8.457160e+00 2.071342e+01 2.372460e+00
    endloop
  endfacet
  facet normal -6.430832e-02 2.637476e-02 9.975815e-01
    outer loop
      vertex   8.457160e+00 2.071342e+01 2.372460e+00
      vertex   9.891929e+00 2.421174e+01 2.372460e+00
      vertex   8.264443e+00 2.079246e+01 2.357947e+00
    endloop
  endfacet
  facet normal -6.430832e-02 2.637476e-02 9.975815e-01
    outer loop
      vertex   8.457160e+00 2.071342e+01 2.372460e+00
      vertex   8.264443e+00 2.079246e+01 2.357947e+00
      vertex   6.829674e+00 1.729413e+01 2.357947e+00
    endloop
  endfacet
  facet normal -1.601850e-01 6.569667e-02 9.848983e-01
    outer loop
      vertex   6.829674e+00 1.729413e+01 2.357947e+00
      vertex   8.264443e+00 2.079246e+01 2.357947e+00
      vertex   6.639407e+00 1.737216e+01 2.321796e+00
    endloop
  endfacet
  facet normal -6.430832e-02 2.637476e-02 9.975815e-01
    outer loop
      vertex   9.891929e+00 2.421174e+01 2.372460e+00
      vertex   9.699212e+00 2.429078e+01 2.357947e+00
      vertex   8.264443e+00 2.079246e+01 2.357947e+00
    endloop
  endfacet
  facet normal -1.601850e-01 6.569667e-02 9.848983e-01
    outer loop
      vertex   8.264443e+00 2.079246e+01 2.357947e+00
      vertex   9.699212e+00 2.429078e+01 2.357947e+00
      vertex   8.074176e+00 2.087049e+01 2.321796e+00
    endloop
  endfacet
  facet normal -1.601850e-01 6.569667e-02 9.848983e-01
    outer loop
      vertex   8.264443e+00 2.079246e+01 2.357947e+00
      vertex   8.074176e+00 2.087049e+01 2.321796e+00
      vertex   6.639407e+00 1.737216e+01 2.321796e+00
    endloop
  endfacet
  facet normal -2.543158e-01 1.043025e-01 9.614803e-01
    outer loop
      vertex   6.639407e+00 1.737216e+01 2.321796e+00
      vertex   8.074176e+00 2.087049e+01 2.321796e+00
      vertex   6.453664e+00 1.744834e+01 2.264403e+00
    endloop
  endfacet
  facet normal -1.601850e-01 6.569667e-02 9.848983e-01
    outer loop
      vertex   9.699212e+00 2.429078e+01 2.357947e+00
      vertex   9.508945e+00 2.436882e+01 2.321796e+00
      vertex   8.074176e+00 2.087049e+01 2.321796e+00
    endloop
  endfacet
  facet normal -2.543158e-01 1.043025e-01 9.614803e-01
    outer loop
      vertex   8.074176e+00 2.087049e+01 2.321796e+00
      vertex   9.508945e+00 2.436882e+01 2.321796e+00
      vertex   7.888433e+00 2.094667e+01 2.264403e+00
    endloop
  endfacet
  facet normal -2.543158e-01 1.043025e-01 9.614803e-01
    outer loop
      vertex   8.074176e+00 2.087049e+01 2.321796e+00
      vertex   7.888433e+00 2.094667e+01 2.264403e+00
      vertex   6.453664e+00 1.744834e+01 2.264403e+00
    endloop
  endfacet
  facet normal -3.456747e-01 1.417715e-01 9.275828e-01
    outer loop
      vertex   7.709239e+00 2.102016e+01 2.186391e+00
      vertex   7.888433e+00 2.094667e+01 2.264403e+00
      vertex   9.323202e+00 2.444500e+01 2.264403e+00
    endloop
  endfacet
  facet normal -2.543158e-01 1.043025e-01 9.614803e-01
    outer loop
      vertex   9.323202e+00 2.444500e+01 2.264403e+00
      vertex   7.888433e+00 2.094667e+01 2.264403e+00
      vertex   9.508945e+00 2.436882e+01 2.321796e+00
    endloop
  endfacet
  facet normal -3.456747e-01 1.417715e-01 9.275828e-01
    outer loop
      vertex   9.144007e+00 2.451849e+01 2.186391e+00
      vertex   7.709239e+00 2.102016e+01 2.186391e+00
      vertex   9.323202e+00 2.444500e+01 2.264403e+00
    endloop
  endfacet
  facet normal -9.396926e-01 3.420201e-01 6.736067e-15
    outer loop
      vertex   1.023841e+01 2.812980e+01 1.972131e+00
      vertex   1.025074e+01 2.816367e+01 1.315281e+00
      vertex   9.944537e+00 2.732239e+01 1.997449e+00
    endloop
  endfacet
  facet normal -9.396926e-01 3.420201e-01 4.067415e-15
    outer loop
      vertex   9.944537e+00 2.732239e+01 1.997449e+00
      vertex   1.025074e+01 2.816367e+01 1.315281e+00
      vertex   9.646116e+00 2.650249e+01 2.022023e+00
    endloop
  endfacet
  facet normal -9.396926e-01 3.420201e-01 2.663064e-15
    outer loop
      vertex   9.646116e+00 2.650249e+01 2.022023e+00
      vertex   1.025074e+01 2.816367e+01 1.315281e+00
      vertex   9.343285e+00 2.567046e+01 2.045843e+00
    endloop
  endfacet
  facet normal -9.396926e-01 3.420201e-01 1.754518e-14
    outer loop
      vertex   9.343285e+00 2.567046e+01 2.045843e+00
      vertex   1.025074e+01 2.816367e+01 1.315281e+00
      vertex   9.036180e+00 2.482670e+01 2.068898e+00
    endloop
  endfacet
  facet normal -9.396926e-01 3.420201e-01 -1.024810e-14
    outer loop
      vertex   9.036180e+00 2.482670e+01 2.068898e+00
      vertex   1.025074e+01 2.816367e+01 1.315281e+00
      vertex   8.724944e+00 2.397159e+01 2.091177e+00
    endloop
  endfacet
  facet normal -9.396926e-01 3.420201e-01 7.171618e-16
    outer loop
      vertex   8.724944e+00 2.397159e+01 2.091177e+00
      vertex   1.025074e+01 2.816367e+01 1.315281e+00
      vertex   8.409718e+00 2.310551e+01 2.112669e+00
    endloop
  endfacet
  facet normal -9.396926e-01 3.420201e-01 2.457481e-14
    outer loop
      vertex   8.409718e+00 2.310551e+01 2.112669e+00
      vertex   1.025074e+01 2.816367e+01 1.315281e+00
      vertex   8.090646e+00 2.222887e+01 2.133365e+00
    endloop
  endfacet
  facet normal -9.396926e-01 3.420201e-01 2.127072e-15
    outer loop
      vertex   8.090646e+00 2.222887e+01 2.133365e+00
      vertex   1.025074e+01 2.816367e+01 1.315281e+00
      vertex   5.115346e+00 1.405430e+01 1.144523e+00
    endloop
  endfacet
  facet normal -9.396926e-01 3.420201e-01 -4.014456e-15
    outer loop
      vertex   8.090646e+00 2.222887e+01 2.133365e+00
      vertex   5.115346e+00 1.405430e+01 1.144523e+00
      vertex   7.767875e+00 2.134206e+01 2.153256e+00
    endloop
  endfacet
  facet normal -9.396926e-01 3.420201e-01 7.198961e-15
    outer loop
      vertex   7.767875e+00 2.134206e+01 2.153256e+00
      vertex   5.115346e+00 1.405430e+01 1.144523e+00
      vertex   7.441551e+00 2.044549e+01 2.172333e+00
    endloop
  endfacet
  facet normal -9.396926e-01 3.420201e-01 -3.982832e-16
    outer loop
      vertex   7.441551e+00 2.044549e+01 2.172333e+00
      vertex   5.115346e+00 1.405430e+01 1.144523e+00
      vertex   7.111826e+00 1.953958e+01 2.190586e+00
    endloop
  endfacet
  facet normal -9.396926e-01 3.420201e-01 -2.577075e-15
    outer loop
      vertex   7.111826e+00 1.953958e+01 2.190586e+00
      vertex   5.115346e+00 1.405430e+01 1.144523e+00
      vertex   6.778848e+00 1.862473e+01 2.208007e+00
    endloop
  endfacet
  facet normal -9.396926e-01 3.420201e-01 3.137044e-16
    outer loop
      vertex   6.778848e+00 1.862473e+01 2.208007e+00
      vertex   5.115346e+00 1.405430e+01 1.144523e+00
      vertex   5.096672e+00 1.400299e+01 1.714698e+00
    endloop
  endfacet
  facet normal -9.396926e-01 3.420201e-01 2.744723e-15
    outer loop
      vertex   6.778848e+00 1.862473e+01 2.208007e+00
      vertex   5.096672e+00 1.400299e+01 1.714698e+00
      vertex   6.442772e+00 1.770137e+01 2.224589e+00
    endloop
  endfacet
  facet normal -9.396926e-01 3.420201e-01 1.565491e-15
    outer loop
      vertex   6.442772e+00 1.770137e+01 2.224589e+00
      vertex   5.096672e+00 1.400299e+01 1.714698e+00
      vertex   6.103749e+00 1.676991e+01 2.240323e+00
    endloop
  endfacet
  facet normal -9.396926e-01 3.420201e-01 -1.170461e-15
    outer loop
      vertex   6.103749e+00 1.676991e+01 2.240323e+00
      vertex   5.096672e+00 1.400299e+01 1.714698e+00
      vertex   5.761936e+00 1.583079e+01 2.255203e+00
    endloop
  endfacet
  facet normal -9.396926e-01 3.420201e-01 -1.942279e-16
    outer loop
      vertex   5.761936e+00 1.583079e+01 2.255203e+00
      vertex   5.096672e+00 1.400299e+01 1.714698e+00
      vertex   5.417489e+00 1.488443e+01 2.269222e+00
    endloop
  endfacet
  facet normal -9.396926e-01 3.420201e-01 -8.691579e-16
    outer loop
      vertex   5.417489e+00 1.488443e+01 2.269222e+00
      vertex   5.096672e+00 1.400299e+01 1.714698e+00
      vertex   5.070566e+00 1.393126e+01 2.282373e+00
    endloop
  endfacet
  facet normal -9.396926e-01 3.420201e-01 -3.726707e-15
    outer loop
      vertex   1.025074e+01 2.816367e+01 1.315281e+00
      vertex   1.025814e+01 2.818400e+01 6.577987e-01
      vertex   5.115346e+00 1.405430e+01 1.144523e+00
    endloop
  endfacet
  facet normal -9.396926e-01 3.420201e-01 1.387361e-15
    outer loop
      vertex   5.115346e+00 1.405430e+01 1.144523e+00
      vertex   1.025814e+01 2.818400e+01 6.577987e-01
      vertex   5.126562e+00 1.408511e+01 5.726791e-01
    endloop
  endfacet
  facet normal -9.396926e-01 3.420201e-01 0.000000e+00
    outer loop
      vertex   5.126562e+00 1.408511e+01 5.726791e-01
      vertex   1.025814e+01 2.818400e+01 6.577987e-01
      vertex   1.026060e+01 2.819078e+01 0.000000e+00
    endloop
  endfacet
  facet normal -9.396926e-01 3.420201e-01 -1.815867e-15
    outer loop
      vertex   5.126562e+00 1.408511e+01 5.726791e-01
      vertex   1.026060e+01 2.819078e+01 0.000000e+00
      vertex   5.130302e+00 1.409539e+01 0.000000e+00
    endloop
  endfacet
  facet normal -3.792279e-01 -9.249635e-01 -2.507447e-02
    outer loop
      vertex   7.477547e+00 1.300269e+01 1.273300e-01
      vertex   7.483830e+00 1.298991e+01 5.038578e-01
      vertex   7.460343e+00 1.301320e+01 0.000000e+00
    endloop
  endfacet
  facet normal -4.848520e-01 -8.744147e-01 -1.781467e-02
    outer loop
      vertex   7.460343e+00 1.301320e+01 0.000000e+00
      vertex   7.483830e+00 1.298991e+01 5.038578e-01
      vertex   7.032212e+00 1.324088e+01 4.764736e-01
    endloop
  endfacet
  facet normal -4.823535e-01 -8.758502e-01 -1.488365e-02
    outer loop
      vertex   7.460343e+00 1.301320e+01 0.000000e+00
      vertex   7.032212e+00 1.324088e+01 4.764736e-01
      vertex   7.009736e+00 1.326136e+01 0.000000e+00
    endloop
  endfacet
  facet normal -4.535543e-01 -8.910685e-01 -1.689614e-02
    outer loop
      vertex   7.009736e+00 1.326136e+01 0.000000e+00
      vertex   7.032212e+00 1.324088e+01 4.764736e-01
      vertex   6.567433e+00 1.347745e+01 4.764736e-01
    endloop
  endfacet
  facet normal -4.520354e-01 -8.918718e-01 -1.512191e-02
    outer loop
      vertex   7.009736e+00 1.326136e+01 0.000000e+00
      vertex   6.567433e+00 1.347745e+01 4.764736e-01
      vertex   6.550884e+00 1.349392e+01 0.000000e+00
    endloop
  endfacet
  facet normal -4.222898e-01 -9.063079e-01 -1.665400e-02
    outer loop
      vertex   6.550884e+00 1.349392e+01 0.000000e+00
      vertex   6.567433e+00 1.347745e+01 4.764736e-01
      vertex   6.094708e+00 1.369772e+01 4.764736e-01
    endloop
  endfacet
  facet normal -4.211859e-01 -9.068441e-01 -1.536774e-02
    outer loop
      vertex   6.550884e+00 1.349392e+01 0.000000e+00
      vertex   6.094708e+00 1.369772e+01 4.764736e-01
      vertex   6.084327e+00 1.371062e+01 0.000000e+00
    endloop
  endfacet
  facet normal -3.905141e-01 -9.204508e-01 -1.640427e-02
    outer loop
      vertex   6.084327e+00 1.371062e+01 0.000000e+00
      vertex   6.094708e+00 1.369772e+01 4.764736e-01
      vertex   5.614608e+00 1.390141e+01 4.764736e-01
    endloop
  endfacet
  facet normal -3.898411e-01 -9.207496e-01 -1.562114e-02
    outer loop
      vertex   6.084327e+00 1.371062e+01 0.000000e+00
      vertex   5.614608e+00 1.390141e+01 4.764736e-01
      vertex   5.610614e+00 1.391118e+01 0.000000e+00
    endloop
  endfacet
  facet normal -3.580365e-01 -9.335679e-01 -1.615068e-02
    outer loop
      vertex   5.610614e+00 1.391118e+01 0.000000e+00
      vertex   5.614608e+00 1.390141e+01 4.764736e-01
      vertex   5.130302e+00 1.409539e+01 0.000000e+00
    endloop
  endfacet
  facet normal -3.555085e-01 -9.344781e-01 -1.909079e-02
    outer loop
      vertex   5.130302e+00 1.409539e+01 0.000000e+00
      vertex   5.614608e+00 1.390141e+01 4.764736e-01
      vertex   5.126562e+00 1.408511e+01 5.726791e-01
    endloop
  endfacet
  facet normal -3.600893e-01 -9.317011e-01 -4.763196e-02
    outer loop
      vertex   5.126562e+00 1.408511e+01 5.726791e-01
      vertex   5.614608e+00 1.390141e+01 4.764736e-01
      vertex   5.606106e+00 1.388036e+01 9.524663e-01
    endloop
  endfacet
  facet normal -3.533457e-01 -9.337396e-01 -5.724591e-02
    outer loop
      vertex   5.126562e+00 1.408511e+01 5.726791e-01
      vertex   5.606106e+00 1.388036e+01 9.524663e-01
      vertex   5.115346e+00 1.405430e+01 1.144523e+00
    endloop
  endfacet
  facet normal -3.604513e-01 -9.293981e-01 -7.933455e-02
    outer loop
      vertex   5.115346e+00 1.405430e+01 1.144523e+00
      vertex   5.606106e+00 1.388036e+01 9.524663e-01
      vertex   5.591947e+00 1.384530e+01 1.427498e+00
    endloop
  endfacet
  facet normal -3.517621e-01 -9.312239e-01 -9.531784e-02
    outer loop
      vertex   5.115346e+00 1.405430e+01 1.144523e+00
      vertex   5.591947e+00 1.384530e+01 1.427498e+00
      vertex   5.096672e+00 1.400299e+01 1.714698e+00
    endloop
  endfacet
  facet normal -3.593526e-01 -9.265821e-01 -1.109563e-01
    outer loop
      vertex   5.096672e+00 1.400299e+01 1.714698e+00
      vertex   5.591947e+00 1.384530e+01 1.427498e+00
      vertex   5.572144e+00 1.379627e+01 1.901088e+00
    endloop
  endfacet
  facet normal -3.509949e-01 -9.269319e-01 -1.326645e-01
    outer loop
      vertex   5.096672e+00 1.400299e+01 1.714698e+00
      vertex   5.572144e+00 1.379627e+01 1.901088e+00
      vertex   5.186921e+00 1.388261e+01 2.317061e+00
    endloop
  endfacet
  facet normal -3.545482e-01 -9.250433e-01 -1.363471e-01
    outer loop
      vertex   5.186921e+00 1.388261e+01 2.317061e+00
      vertex   5.572144e+00 1.379627e+01 1.901088e+00
      vertex   5.304388e+00 1.383372e+01 2.343264e+00
    endloop
  endfacet
  facet normal -3.606427e-01 -9.220934e-01 -1.402874e-01
    outer loop
      vertex   5.304388e+00 1.383372e+01 2.343264e+00
      vertex   5.572144e+00 1.379627e+01 1.901088e+00
      vertex   5.421996e+00 1.378500e+01 2.361127e+00
    endloop
  endfacet
  facet normal -3.672278e-01 -9.191713e-01 -1.423651e-01
    outer loop
      vertex   5.421996e+00 1.378500e+01 2.361127e+00
      vertex   5.572144e+00 1.379627e+01 1.901088e+00
      vertex   5.538773e+00 1.373685e+01 2.370794e+00
    endloop
  endfacet
  facet normal -3.741497e-01 -9.163545e-01 -1.425005e-01
    outer loop
      vertex   5.538773e+00 1.373685e+01 2.370794e+00
      vertex   5.572144e+00 1.379627e+01 1.901088e+00
      vertex   5.653974e+00 1.368957e+01 2.372399e+00
    endloop
  endfacet
  facet normal -3.811923e-01 -9.137290e-01 -1.406833e-01
    outer loop
      vertex   5.653974e+00 1.368957e+01 2.372399e+00
      vertex   5.572144e+00 1.379627e+01 1.901088e+00
      vertex   5.770234e+00 1.364207e+01 2.365893e+00
    endloop
  endfacet
  facet normal -3.868495e-01 -9.118133e-01 -1.376368e-01
    outer loop
      vertex   5.770234e+00 1.364207e+01 2.365893e+00
      vertex   5.572144e+00 1.379627e+01 1.901088e+00
      vertex   6.048613e+00 1.359412e+01 1.901088e+00
    endloop
  endfacet
  facet normal -3.878846e-01 -9.112712e-01 -1.383127e-01
    outer loop
      vertex   5.770234e+00 1.364207e+01 2.365893e+00
      vertex   6.048613e+00 1.359412e+01 1.901088e+00
      vertex   5.887858e+00 1.359423e+01 2.351199e+00
    endloop
  endfacet
  facet normal -3.948649e-01 -9.078851e-01 -1.408064e-01
    outer loop
      vertex   5.887858e+00 1.359423e+01 2.351199e+00
      vertex   6.048613e+00 1.359412e+01 1.901088e+00
      vertex   6.005905e+00 1.354644e+01 2.328272e+00
    endloop
  endfacet
  facet normal -4.019577e-01 -9.047118e-01 -1.411614e-01
    outer loop
      vertex   6.005905e+00 1.354644e+01 2.328272e+00
      vertex   6.048613e+00 1.359412e+01 1.901088e+00
      vertex   6.123435e+00 1.349909e+01 2.297069e+00
    endloop
  endfacet
  facet normal -4.089014e-01 -9.019035e-01 -1.391754e-01
    outer loop
      vertex   6.123435e+00 1.349909e+01 2.297069e+00
      vertex   6.048613e+00 1.359412e+01 1.901088e+00
      vertex   6.239505e+00 1.345257e+01 2.257544e+00
    endloop
  endfacet
  facet normal -4.186193e-01 -8.984304e-01 -1.325920e-01
    outer loop
      vertex   6.239505e+00 1.345257e+01 2.257544e+00
      vertex   6.048613e+00 1.359412e+01 1.901088e+00
      vertex   6.517763e+00 1.337552e+01 1.901088e+00
    endloop
  endfacet
  facet normal -4.132136e-01 -9.016389e-01 -1.276786e-01
    outer loop
      vertex   6.239505e+00 1.345257e+01 2.257544e+00
      vertex   6.517763e+00 1.337552e+01 1.901088e+00
      vertex   6.353176e+00 1.340726e+01 2.209654e+00
    endloop
  endfacet
  facet normal -4.229241e-01 -8.962909e-01 -1.334082e-01
    outer loop
      vertex   6.353176e+00 1.340726e+01 2.209654e+00
      vertex   6.517763e+00 1.337552e+01 1.901088e+00
      vertex   6.463594e+00 1.336350e+01 2.153588e+00
    endloop
  endfacet
  facet normal -4.318645e-01 -8.917613e-01 -1.351105e-01
    outer loop
      vertex   6.463594e+00 1.336350e+01 2.153588e+00
      vertex   6.517763e+00 1.337552e+01 1.901088e+00
      vertex   6.570090e+00 1.332156e+01 2.090032e+00
    endloop
  endfacet
  facet normal -4.389957e-01 -8.887011e-01 -1.322614e-01
    outer loop
      vertex   6.570090e+00 1.332156e+01 2.090032e+00
      vertex   6.517763e+00 1.337552e+01 1.901088e+00
      vertex   6.672022e+00 1.328167e+01 2.019737e+00
    endloop
  endfacet
  facet normal -4.436400e-01 -8.874158e-01 -1.252065e-01
    outer loop
      vertex   6.672022e+00 1.328167e+01 2.019737e+00
      vertex   6.517763e+00 1.337552e+01 1.901088e+00
      vertex   6.768746e+00 1.324407e+01 1.943455e+00
    endloop
  endfacet
  facet normal -4.463312e-01 -8.879621e-01 -1.109585e-01
    outer loop
      vertex   6.768746e+00 1.324407e+01 1.943455e+00
      vertex   6.517763e+00 1.337552e+01 1.901088e+00
      vertex   6.540927e+00 1.342306e+01 1.427498e+00
    endloop
  endfacet
  facet normal -4.509547e-01 -8.859614e-01 -1.082230e-01
    outer loop
      vertex   6.768746e+00 1.324407e+01 1.943455e+00
      vertex   6.540927e+00 1.342306e+01 1.427498e+00
      vertex   7.003830e+00 1.318744e+01 1.427498e+00
    endloop
  endfacet
  facet normal -4.521894e-01 -8.883870e-01 -7.933022e-02
    outer loop
      vertex   7.003830e+00 1.318744e+01 1.427498e+00
      vertex   6.540927e+00 1.342306e+01 1.427498e+00
      vertex   6.557489e+00 1.345705e+01 9.524663e-01
    endloop
  endfacet
  facet normal -4.521894e-01 -8.883870e-01 -7.933022e-02
    outer loop
      vertex   7.003830e+00 1.318744e+01 1.427498e+00
      vertex   6.557489e+00 1.345705e+01 9.524663e-01
      vertex   7.021564e+00 1.322083e+01 9.524663e-01
    endloop
  endfacet
  facet normal -4.531042e-01 -8.901842e-01 -4.763015e-02
    outer loop
      vertex   7.021564e+00 1.322083e+01 9.524663e-01
      vertex   6.557489e+00 1.345705e+01 9.524663e-01
      vertex   6.567433e+00 1.347745e+01 4.764736e-01
    endloop
  endfacet
  facet normal -4.531042e-01 -8.901842e-01 -4.763015e-02
    outer loop
      vertex   7.021564e+00 1.322083e+01 9.524663e-01
      vertex   6.567433e+00 1.347745e+01 4.764736e-01
      vertex   7.032212e+00 1.324088e+01 4.764736e-01
    endloop
  endfacet
  facet normal -3.792268e-01 -9.249639e-01 -2.507450e-02
    outer loop
      vertex   7.477547e+00 1.300269e+01 1.273300e-01
      vertex   7.487061e+00 1.299536e+01 2.539523e-01
      vertex   7.483830e+00 1.298991e+01 5.038578e-01
    endloop
  endfacet
  facet normal -3.792255e-01 -9.249645e-01 -2.507449e-02
    outer loop
      vertex   7.483830e+00 1.298991e+01 5.038578e-01
      vertex   7.487061e+00 1.299536e+01 2.539523e-01
      vertex   7.489154e+00 1.299112e+01 3.788126e-01
    endloop
  endfacet
  facet normal -3.792306e-01 -9.249624e-01 -2.507496e-02
    outer loop
      vertex   7.470928e+00 1.299176e+01 6.305477e-01
      vertex   7.422267e+00 1.300482e+01 8.847958e-01
      vertex   7.483830e+00 1.298991e+01 5.038578e-01
    endloop
  endfacet
  facet normal -3.792334e-01 -9.249612e-01 -2.507545e-02
    outer loop
      vertex   7.483830e+00 1.298991e+01 5.038578e-01
      vertex   7.422267e+00 1.300482e+01 8.847958e-01
      vertex   7.386443e+00 1.301611e+01 1.010321e+00
    endloop
  endfacet
  facet normal -4.829940e-01 -8.743264e-01 -4.764662e-02
    outer loop
      vertex   7.483830e+00 1.298991e+01 5.038578e-01
      vertex   7.386443e+00 1.301611e+01 1.010321e+00
      vertex   7.032212e+00 1.324088e+01 4.764736e-01
    endloop
  endfacet
  facet normal -4.830120e-01 -8.743173e-01 -4.763087e-02
    outer loop
      vertex   7.032212e+00 1.324088e+01 4.764736e-01
      vertex   7.386443e+00 1.301611e+01 1.010321e+00
      vertex   7.021564e+00 1.322083e+01 9.524663e-01
    endloop
  endfacet
  facet normal -3.792325e-01 -9.249616e-01 -2.507536e-02
    outer loop
      vertex   7.470928e+00 1.299176e+01 6.305477e-01
      vertex   7.450418e+00 1.299672e+01 7.578659e-01
      vertex   7.422267e+00 1.300482e+01 8.847958e-01
    endloop
  endfacet
  facet normal -3.792418e-01 -9.249577e-01 -2.507851e-02
    outer loop
      vertex   7.342915e+00 1.303062e+01 1.133425e+00
      vertex   7.291759e+00 1.304834e+01 1.253141e+00
      vertex   7.386443e+00 1.301611e+01 1.010321e+00
    endloop
  endfacet
  facet normal -3.792461e-01 -9.249559e-01 -2.508044e-02
    outer loop
      vertex   7.386443e+00 1.301611e+01 1.010321e+00
      vertex   7.291759e+00 1.304834e+01 1.253141e+00
      vertex   7.233538e+00 1.306908e+01 1.368718e+00
    endloop
  endfacet
  facet normal -4.788704e-01 -8.746747e-01 -7.501572e-02
    outer loop
      vertex   7.386443e+00 1.301611e+01 1.010321e+00
      vertex   7.233538e+00 1.306908e+01 1.368718e+00
      vertex   7.021564e+00 1.322083e+01 9.524663e-01
    endloop
  endfacet
  facet normal -4.725579e-01 -8.777209e-01 -7.934088e-02
    outer loop
      vertex   7.021564e+00 1.322083e+01 9.524663e-01
      vertex   7.233538e+00 1.306908e+01 1.368718e+00
      vertex   7.003830e+00 1.318744e+01 1.427498e+00
    endloop
  endfacet
  facet normal -4.744455e-01 -8.755619e-01 -9.106477e-02
    outer loop
      vertex   7.233538e+00 1.306908e+01 1.368718e+00
      vertex   7.168954e+00 1.309256e+01 1.479471e+00
      vertex   7.003830e+00 1.318744e+01 1.427498e+00
    endloop
  endfacet
  facet normal -4.721172e-01 -8.759416e-01 -9.915495e-02
    outer loop
      vertex   7.003830e+00 1.318744e+01 1.427498e+00
      vertex   7.168954e+00 1.309256e+01 1.479471e+00
      vertex   7.098707e+00 1.311851e+01 1.584711e+00
    endloop
  endfacet
  facet normal -4.659486e-01 -8.786698e-01 -1.040739e-01
    outer loop
      vertex   7.003830e+00 1.318744e+01 1.427498e+00
      vertex   7.098707e+00 1.311851e+01 1.584711e+00
      vertex   7.023497e+00 1.314666e+01 1.683751e+00
    endloop
  endfacet
  facet normal -4.567601e-01 -8.833098e-01 -1.055176e-01
    outer loop
      vertex   7.023497e+00 1.314666e+01 1.683751e+00
      vertex   6.944025e+00 1.317675e+01 1.775905e+00
      vertex   7.003830e+00 1.318744e+01 1.427498e+00
    endloop
  endfacet
  facet normal -4.457945e-01 -8.890951e-01 -1.038129e-01
    outer loop
      vertex   7.003830e+00 1.318744e+01 1.427498e+00
      vertex   6.944025e+00 1.317675e+01 1.775905e+00
      vertex   6.859618e+00 1.320902e+01 1.861938e+00
    endloop
  endfacet
  facet normal -4.347861e-01 -8.949792e-01 -9.986634e-02
    outer loop
      vertex   7.003830e+00 1.318744e+01 1.427498e+00
      vertex   6.859618e+00 1.320902e+01 1.861938e+00
      vertex   6.768746e+00 1.324407e+01 1.943455e+00
    endloop
  endfacet
  facet normal -3.483045e-01 -9.278618e-01 -1.332534e-01
    outer loop
      vertex   5.186921e+00 1.388261e+01 2.317061e+00
      vertex   5.070566e+00 1.393126e+01 2.282373e+00
      vertex   5.096672e+00 1.400299e+01 1.714698e+00
    endloop
  endfacet
  facet normal -4.197408e-01 -9.008372e-01 -1.109503e-01
    outer loop
      vertex   6.540927e+00 1.342306e+01 1.427498e+00
      vertex   6.517763e+00 1.337552e+01 1.901088e+00
      vertex   6.070109e+00 1.364243e+01 1.427498e+00
    endloop
  endfacet
  facet normal -4.197408e-01 -9.008372e-01 -1.109503e-01
    outer loop
      vertex   6.070109e+00 1.364243e+01 1.427498e+00
      vertex   6.517763e+00 1.337552e+01 1.901088e+00
      vertex   6.048613e+00 1.359412e+01 1.901088e+00
    endloop
  endfacet
  facet normal -3.881553e-01 -9.148910e-01 -1.109503e-01
    outer loop
      vertex   6.070109e+00 1.364243e+01 1.427498e+00
      vertex   6.048613e+00 1.359412e+01 1.901088e+00
      vertex   5.591947e+00 1.384530e+01 1.427498e+00
    endloop
  endfacet
  facet normal -3.881553e-01 -9.148910e-01 -1.109503e-01
    outer loop
      vertex   5.591947e+00 1.384530e+01 1.427498e+00
      vertex   6.048613e+00 1.359412e+01 1.901088e+00
      vertex   5.572144e+00 1.379627e+01 1.901088e+00
    endloop
  endfacet
  facet normal -4.218690e-01 -9.054048e-01 -4.763015e-02
    outer loop
      vertex   6.094708e+00 1.369772e+01 4.764736e-01
      vertex   6.567433e+00 1.347745e+01 4.764736e-01
      vertex   6.557489e+00 1.345705e+01 9.524663e-01
    endloop
  endfacet
  facet normal -4.210173e-01 -9.035769e-01 -7.933022e-02
    outer loop
      vertex   6.557489e+00 1.345705e+01 9.524663e-01
      vertex   6.540927e+00 1.342306e+01 1.427498e+00
      vertex   6.085480e+00 1.367698e+01 9.524663e-01
    endloop
  endfacet
  facet normal -4.210173e-01 -9.035769e-01 -7.933022e-02
    outer loop
      vertex   6.085480e+00 1.367698e+01 9.524663e-01
      vertex   6.540927e+00 1.342306e+01 1.427498e+00
      vertex   6.070109e+00 1.364243e+01 1.427498e+00
    endloop
  endfacet
  facet normal -3.893357e-01 -9.176734e-01 -7.933022e-02
    outer loop
      vertex   6.085480e+00 1.367698e+01 9.524663e-01
      vertex   6.070109e+00 1.364243e+01 1.427498e+00
      vertex   5.606106e+00 1.388036e+01 9.524663e-01
    endloop
  endfacet
  facet normal -3.893357e-01 -9.176734e-01 -7.933022e-02
    outer loop
      vertex   5.606106e+00 1.388036e+01 9.524663e-01
      vertex   6.070109e+00 1.364243e+01 1.427498e+00
      vertex   5.591947e+00 1.384530e+01 1.427498e+00
    endloop
  endfacet
  facet normal -3.901234e-01 -9.195298e-01 -4.763015e-02
    outer loop
      vertex   5.614608e+00 1.390141e+01 4.764736e-01
      vertex   6.094708e+00 1.369772e+01 4.764736e-01
      vertex   6.085480e+00 1.367698e+01 9.524663e-01
    endloop
  endfacet
  facet normal -4.218690e-01 -9.054048e-01 -4.763015e-02
    outer loop
      vertex   6.085480e+00 1.367698e+01 9.524663e-01
      vertex   6.094708e+00 1.369772e+01 4.764736e-01
      vertex   6.557489e+00 1.345705e+01 9.524663e-01
    endloop
  endfacet
  facet normal -3.901234e-01 -9.195298e-01 -4.763015e-02
    outer loop
      vertex   5.614608e+00 1.390141e+01 4.764736e-01
      vertex   6.085480e+00 1.367698e+01 9.524663e-01
      vertex   5.606106e+00 1.388036e+01 9.524663e-01
    endloop
  endfacet
  facet normal 3.515541e-01 9.345628e-01 5.479035e-02
    outer loop
      vertex   1.023841e+01 2.812980e+01 1.972131e+00
      vertex   1.035250e+01 2.808185e+01 2.057884e+00
      vertex   1.025074e+01 2.816367e+01 1.315281e+00
    endloop
  endfacet
  facet normal 3.519993e-01 9.343999e-01 5.471139e-02
    outer loop
      vertex   1.025074e+01 2.816367e+01 1.315281e+00
      vertex   1.035250e+01 2.808185e+01 2.057884e+00
      vertex   1.099459e+01 2.786779e+01 1.582759e+00
    endloop
  endfacet
  facet normal 3.569922e-01 9.332687e-01 3.957486e-02
    outer loop
      vertex   1.025074e+01 2.816367e+01 1.315281e+00
      vertex   1.099459e+01 2.786779e+01 1.582759e+00
      vertex   1.100609e+01 2.789694e+01 7.916552e-01
    endloop
  endfacet
  facet normal 3.790920e-01 9.245124e-01 3.957349e-02
    outer loop
      vertex   1.100609e+01 2.789694e+01 7.916552e-01
      vertex   1.099459e+01 2.786779e+01 1.582759e+00
      vertex   1.174730e+01 2.759301e+01 7.916552e-01
    endloop
  endfacet
  facet normal 3.793547e-01 9.251530e-01 1.348686e-02
    outer loop
      vertex   1.100609e+01 2.789694e+01 7.916552e-01
      vertex   1.174730e+01 2.759301e+01 7.916552e-01
      vertex   1.173507e+01 2.760957e+01 0.000000e+00
    endloop
  endfacet
  facet normal 4.032572e-01 9.149957e-01 1.290503e-02
    outer loop
      vertex   1.173507e+01 2.760957e+01 0.000000e+00
      vertex   1.174730e+01 2.759301e+01 7.916552e-01
      vertex   1.246027e+01 2.728996e+01 0.000000e+00
    endloop
  endfacet
  facet normal 4.038903e-01 9.147065e-01 1.358591e-02
    outer loop
      vertex   1.246027e+01 2.728996e+01 0.000000e+00
      vertex   1.174730e+01 2.759301e+01 7.916552e-01
      vertex   1.247777e+01 2.727047e+01 7.916552e-01
    endloop
  endfacet
  facet normal 4.268781e-01 9.042183e-01 1.281964e-02
    outer loop
      vertex   1.246027e+01 2.728996e+01 0.000000e+00
      vertex   1.247777e+01 2.727047e+01 7.916552e-01
      vertex   1.317466e+01 2.694228e+01 7.347581e-01
    endloop
  endfacet
  facet normal 4.280429e-01 9.031456e-01 3.327451e-02
    outer loop
      vertex   1.317466e+01 2.694228e+01 7.347581e-01
      vertex   1.247777e+01 2.727047e+01 7.916552e-01
      vertex   1.291644e+01 2.703868e+01 1.439851e+00
    endloop
  endfacet
  facet normal 3.794036e-01 9.251475e-01 1.245364e-02
    outer loop
      vertex   1.317466e+01 2.694228e+01 7.347581e-01
      vertex   1.291644e+01 2.703868e+01 1.439851e+00
      vertex   1.298776e+01 2.701121e+01 1.308390e+00
    endloop
  endfacet
  facet normal 3.540122e-01 9.334493e-01 5.785998e-02
    outer loop
      vertex   1.035250e+01 2.808185e+01 2.057884e+00
      vertex   1.047344e+01 2.803122e+01 2.134807e+00
      vertex   1.099459e+01 2.786779e+01 1.582759e+00
    endloop
  endfacet
  facet normal 3.567426e-01 9.322221e-01 6.080087e-02
    outer loop
      vertex   1.099459e+01 2.786779e+01 1.582759e+00
      vertex   1.047344e+01 2.803122e+01 2.134807e+00
      vertex   1.060008e+01 2.797838e+01 2.201930e+00
    endloop
  endfacet
  facet normal 3.600115e-01 9.308091e-01 6.313607e-02
    outer loop
      vertex   1.099459e+01 2.786779e+01 1.582759e+00
      vertex   1.060008e+01 2.797838e+01 2.201930e+00
      vertex   1.073130e+01 2.792381e+01 2.258267e+00
    endloop
  endfacet
  facet normal 3.636563e-01 9.292848e-01 6.468312e-02
    outer loop
      vertex   1.073130e+01 2.792381e+01 2.258267e+00
      vertex   1.086590e+01 2.786800e+01 2.303300e+00
      vertex   1.099459e+01 2.786779e+01 1.582759e+00
    endloop
  endfacet
  facet normal 3.674052e-01 9.277620e-01 6.535313e-02
    outer loop
      vertex   1.099459e+01 2.786779e+01 1.582759e+00
      vertex   1.086590e+01 2.786800e+01 2.303300e+00
      vertex   1.100240e+01 2.781156e+01 2.337079e+00
    endloop
  endfacet
  facet normal 3.711728e-01 9.262717e-01 6.520302e-02
    outer loop
      vertex   1.099459e+01 2.786779e+01 1.582759e+00
      vertex   1.100240e+01 2.781156e+01 2.337079e+00
      vertex   1.113933e+01 2.775510e+01 2.359674e+00
    endloop
  endfacet
  facet normal 3.749018e-01 9.248320e-01 6.429949e-02
    outer loop
      vertex   1.113933e+01 2.775510e+01 2.359674e+00
      vertex   1.127520e+01 2.769923e+01 2.371156e+00
      vertex   1.099459e+01 2.786779e+01 1.582759e+00
    endloop
  endfacet
  facet normal 3.785535e-01 9.234530e-01 6.270495e-02
    outer loop
      vertex   1.099459e+01 2.786779e+01 1.582759e+00
      vertex   1.127520e+01 2.769923e+01 2.371156e+00
      vertex   1.140924e+01 2.764425e+01 2.371593e+00
    endloop
  endfacet
  facet normal 3.786439e-01 9.234197e-01 6.264799e-02
    outer loop
      vertex   1.099459e+01 2.786779e+01 1.582759e+00
      vertex   1.140924e+01 2.764425e+01 2.371593e+00
      vertex   1.173503e+01 2.756418e+01 1.582759e+00
    endloop
  endfacet
  facet normal 3.821174e-01 9.218783e-01 6.423899e-02
    outer loop
      vertex   1.173503e+01 2.756418e+01 1.582759e+00
      vertex   1.140924e+01 2.764425e+01 2.371593e+00
      vertex   1.154506e+01 2.758869e+01 2.360989e+00
    endloop
  endfacet
  facet normal 3.857778e-01 9.202862e-01 6.518265e-02
    outer loop
      vertex   1.173503e+01 2.756418e+01 1.582759e+00
      vertex   1.154506e+01 2.758869e+01 2.360989e+00
      vertex   1.168216e+01 2.753276e+01 2.339276e+00
    endloop
  endfacet
  facet normal 3.895021e-01 9.187023e-01 6.537712e-02
    outer loop
      vertex   1.168216e+01 2.753276e+01 2.339276e+00
      vertex   1.181906e+01 2.747706e+01 2.306386e+00
      vertex   1.173503e+01 2.756418e+01 1.582759e+00
    endloop
  endfacet
  facet normal 3.932383e-01 9.171533e-01 6.475671e-02
    outer loop
      vertex   1.173503e+01 2.756418e+01 1.582759e+00
      vertex   1.181906e+01 2.747706e+01 2.306386e+00
      vertex   1.195429e+01 2.742219e+01 2.262248e+00
    endloop
  endfacet
  facet normal 3.969122e-01 9.156739e-01 6.326206e-02
    outer loop
      vertex   1.173503e+01 2.756418e+01 1.582759e+00
      vertex   1.195429e+01 2.742219e+01 2.262248e+00
      vertex   1.208635e+01 2.736878e+01 2.206793e+00
    endloop
  endfacet
  facet normal 4.031854e-01 9.132169e-01 5.896106e-02
    outer loop
      vertex   1.173503e+01 2.756418e+01 1.582759e+00
      vertex   1.208635e+01 2.736878e+01 2.206793e+00
      vertex   1.246238e+01 2.724306e+01 1.582759e+00
    endloop
  endfacet
  facet normal 3.979352e-01 9.157460e-01 5.528787e-02
    outer loop
      vertex   1.246238e+01 2.724306e+01 1.582759e+00
      vertex   1.208635e+01 2.736878e+01 2.206793e+00
      vertex   1.221391e+01 2.731736e+01 2.140333e+00
    endloop
  endfacet
  facet normal 4.031149e-01 9.133146e-01 5.792011e-02
    outer loop
      vertex   1.246238e+01 2.724306e+01 1.582759e+00
      vertex   1.221391e+01 2.731736e+01 2.140333e+00
      vertex   1.233592e+01 2.726835e+01 2.063954e+00
    endloop
  endfacet
  facet normal 4.083237e-01 9.109015e-01 5.941581e-02
    outer loop
      vertex   1.233592e+01 2.726835e+01 2.063954e+00
      vertex   1.245138e+01 2.722215e+01 1.978839e+00
      vertex   1.246238e+01 2.724306e+01 1.582759e+00
    endloop
  endfacet
  facet normal 4.131977e-01 9.086997e-01 5.943483e-02
    outer loop
      vertex   1.246238e+01 2.724306e+01 1.582759e+00
      vertex   1.245138e+01 2.722215e+01 1.978839e+00
      vertex   1.255929e+01 2.717914e+01 1.886172e+00
    endloop
  endfacet
  facet normal 4.195285e-01 9.059611e-01 5.683586e-02
    outer loop
      vertex   1.246238e+01 2.724306e+01 1.582759e+00
      vertex   1.255929e+01 2.717914e+01 1.886172e+00
      vertex   1.275078e+01 2.710338e+01 1.680307e+00
    endloop
  endfacet
  facet normal 3.794075e-01 9.251458e-01 1.245668e-02
    outer loop
      vertex   1.275078e+01 2.710338e+01 1.680307e+00
      vertex   1.255929e+01 2.717914e+01 1.886172e+00
      vertex   1.265862e+01 2.713974e+01 1.787135e+00
    endloop
  endfacet
  facet normal 4.216841e-01 9.053832e-01 4.963532e-02
    outer loop
      vertex   1.275078e+01 2.710338e+01 1.680307e+00
      vertex   1.283708e+01 2.706955e+01 1.564184e+00
      vertex   1.246238e+01 2.724306e+01 1.582759e+00
    endloop
  endfacet
  facet normal 4.215696e-01 9.057186e-01 4.419113e-02
    outer loop
      vertex   1.246238e+01 2.724306e+01 1.582759e+00
      vertex   1.283708e+01 2.706955e+01 1.564184e+00
      vertex   1.291644e+01 2.703868e+01 1.439851e+00
    endloop
  endfacet
  facet normal 4.204520e-01 9.064505e-01 3.959357e-02
    outer loop
      vertex   1.246238e+01 2.724306e+01 1.582759e+00
      vertex   1.291644e+01 2.703868e+01 1.439851e+00
      vertex   1.247777e+01 2.727047e+01 7.916552e-01
    endloop
  endfacet
  facet normal 3.794031e-01 9.251477e-01 1.245344e-02
    outer loop
      vertex   1.298776e+01 2.701121e+01 1.308390e+00
      vertex   1.304992e+01 2.698756e+01 1.170883e+00
      vertex   1.317466e+01 2.694228e+01 7.347581e-01
    endloop
  endfacet
  facet normal 3.794026e-01 9.251479e-01 1.245330e-02
    outer loop
      vertex   1.317466e+01 2.694228e+01 7.347581e-01
      vertex   1.304992e+01 2.698756e+01 1.170883e+00
      vertex   1.310194e+01 2.696815e+01 1.028454e+00
    endloop
  endfacet
  facet normal 3.794024e-01 9.251480e-01 1.245323e-02
    outer loop
      vertex   1.317466e+01 2.694228e+01 7.347581e-01
      vertex   1.310194e+01 2.696815e+01 1.028454e+00
      vertex   1.314350e+01 2.695307e+01 8.825457e-01
    endloop
  endfacet
  facet normal 4.272889e-01 9.040311e-01 1.233163e-02
    outer loop
      vertex   1.246027e+01 2.728996e+01 0.000000e+00
      vertex   1.317466e+01 2.694228e+01 7.347581e-01
      vertex   1.317678e+01 2.695130e+01 0.000000e+00
    endloop
  endfacet
  facet normal 3.794014e-01 9.251483e-01 1.245304e-02
    outer loop
      vertex   1.317678e+01 2.695130e+01 0.000000e+00
      vertex   1.317466e+01 2.694228e+01 7.347581e-01
      vertex   1.319548e+01 2.693573e+01 5.866936e-01
    endloop
  endfacet
  facet normal 3.794015e-01 9.251483e-01 1.245304e-02
    outer loop
      vertex   1.317678e+01 2.695130e+01 0.000000e+00
      vertex   1.319548e+01 2.693573e+01 5.866936e-01
      vertex   1.319677e+01 2.694111e+01 1.481341e-01
    endloop
  endfacet
  facet normal 3.794013e-01 9.251484e-01 1.245304e-02
    outer loop
      vertex   1.319677e+01 2.694111e+01 1.481341e-01
      vertex   1.319548e+01 2.693573e+01 5.866936e-01
      vertex   1.320640e+01 2.693518e+01 2.950757e-01
    endloop
  endfacet
  facet normal 3.794012e-01 9.251484e-01 1.245304e-02
    outer loop
      vertex   1.320640e+01 2.693518e+01 2.950757e-01
      vertex   1.319548e+01 2.693573e+01 5.866936e-01
      vertex   1.320602e+01 2.693338e+01 4.399540e-01
    endloop
  endfacet
  facet normal 3.789465e-01 9.253266e-01 1.304798e-02
    outer loop
      vertex   1.173507e+01 2.760957e+01 0.000000e+00
      vertex   1.100167e+01 2.790991e+01 0.000000e+00
      vertex   1.100609e+01 2.789694e+01 7.916552e-01
    endloop
  endfacet
  facet normal 3.562017e-01 9.343141e-01 1.332221e-02
    outer loop
      vertex   1.100609e+01 2.789694e+01 7.916552e-01
      vertex   1.100167e+01 2.790991e+01 0.000000e+00
      vertex   1.025814e+01 2.818400e+01 6.577987e-01
    endloop
  endfacet
  facet normal 3.529837e-01 9.350514e-01 3.288431e-02
    outer loop
      vertex   1.100609e+01 2.789694e+01 7.916552e-01
      vertex   1.025814e+01 2.818400e+01 6.577987e-01
      vertex   1.025074e+01 2.816367e+01 1.315281e+00
    endloop
  endfacet
  facet normal 3.543809e-01 9.350369e-01 1.096301e-02
    outer loop
      vertex   1.100167e+01 2.790991e+01 0.000000e+00
      vertex   1.026060e+01 2.819078e+01 0.000000e+00
      vertex   1.025814e+01 2.818400e+01 6.577987e-01
    endloop
  endfacet
  facet normal 3.790920e-01 9.245124e-01 3.957349e-02
    outer loop
      vertex   1.099459e+01 2.786779e+01 1.582759e+00
      vertex   1.173503e+01 2.756418e+01 1.582759e+00
      vertex   1.174730e+01 2.759301e+01 7.916552e-01
    endloop
  endfacet
  facet normal 4.035717e-01 9.140918e-01 3.957354e-02
    outer loop
      vertex   1.174730e+01 2.759301e+01 7.916552e-01
      vertex   1.173503e+01 2.756418e+01 1.582759e+00
      vertex   1.246238e+01 2.724306e+01 1.582759e+00
    endloop
  endfacet
  facet normal 4.036119e-01 9.140759e-01 3.953017e-02
    outer loop
      vertex   1.174730e+01 2.759301e+01 7.916552e-01
      vertex   1.246238e+01 2.724306e+01 1.582759e+00
      vertex   1.247777e+01 2.727047e+01 7.916552e-01
    endloop
  endfacet
endsolid
