solid ASCII
  facet normal 7.660444e-01 -6.427876e-01 1.232251e-14
    outer loop
      vertex   4.632021e+00 5.520228e+00 8.587950e+00
      vertex   7.938674e-15 0.000000e+00 0.000000e+00
      vertex   4.746364e+00 5.656497e+00 8.421111e+00
    endloop
  endfacet
  facet normal 7.660444e-01 -6.427876e-01 2.248830e-14
    outer loop
      vertex   4.746364e+00 5.656497e+00 8.421111e+00
      vertex   7.938674e-15 0.000000e+00 0.000000e+00
      vertex   4.858444e+00 5.790068e+00 8.250235e+00
    endloop
  endfacet
  facet normal 7.660444e-01 -6.427876e-01 -2.034407e-16
    outer loop
      vertex   4.858444e+00 5.790068e+00 8.250235e+00
      vertex   7.938674e-15 0.000000e+00 0.000000e+00
      vertex   4.968140e+00 5.920799e+00 8.075509e+00
    endloop
  endfacet
  facet normal 7.660444e-01 -6.427876e-01 -7.418665e-15
    outer loop
      vertex   4.968140e+00 5.920799e+00 8.075509e+00
      vertex   7.938674e-15 0.000000e+00 0.000000e+00
      vertex   5.075271e+00 6.048473e+00 7.897250e+00
    endloop
  endfacet
  facet normal 7.660444e-01 -6.427876e-01 -1.833335e-14
    outer loop
      vertex   5.075271e+00 6.048473e+00 7.897250e+00
      vertex   7.938674e-15 0.000000e+00 0.000000e+00
      vertex   5.179809e+00 6.173056e+00 7.715545e+00
    endloop
  endfacet
  facet normal 7.660444e-01 -6.427876e-01 -2.780906e-15
    outer loop
      vertex   5.179809e+00 6.173056e+00 7.715545e+00
      vertex   7.938674e-15 0.000000e+00 0.000000e+00
      vertex   5.281730e+00 6.294521e+00 7.530473e+00
    endloop
  endfacet
  facet normal 7.660444e-01 -6.427876e-01 -9.910983e-15
    outer loop
      vertex   5.281730e+00 6.294521e+00 7.530473e+00
      vertex   7.938674e-15 0.000000e+00 0.000000e+00
      vertex   5.381012e+00 6.412840e+00 7.342111e+00
    endloop
  endfacet
  facet normal 7.660444e-01 -6.427876e-01 -1.336862e-14
    outer loop
      vertex   5.381012e+00 6.412840e+00 7.342111e+00
      vertex   7.938674e-15 0.000000e+00 0.000000e+00
      vertex   5.477631e+00 6.527987e+00 7.150540e+00
    endloop
  endfacet
  facet normal 3.370502e-01 5.983963e-01 7.268556e-01
    outer loop
      vertex   3.685671e+00 6.383769e+00 8.407080e+00
      vertex   3.597272e+00 6.230657e+00 8.574123e+00
      vertex   3.818226e+00 6.293478e+00 8.419946e+00
    endloop
  endfacet
  facet normal 3.422939e-01 5.902522e-01 7.310521e-01
    outer loop
      vertex   3.818226e+00 6.293478e+00 8.419946e+00
      vertex   3.597272e+00 6.230657e+00 8.574123e+00
      vertex   3.867264e+00 6.070030e+00 8.577398e+00
    endloop
  endfacet
  facet normal 3.502893e-01 5.896661e-01 7.277302e-01
    outer loop
      vertex   3.818226e+00 6.293478e+00 8.419946e+00
      vertex   3.867264e+00 6.070030e+00 8.577398e+00
      vertex   3.957082e+00 6.210991e+00 8.419946e+00
    endloop
  endfacet
  facet normal 3.627021e-01 5.819250e-01 7.278808e-01
    outer loop
      vertex   3.957082e+00 6.210991e+00 8.419946e+00
      vertex   3.867264e+00 6.070030e+00 8.577398e+00
      vertex   4.092121e+00 6.126824e+00 8.419946e+00
    endloop
  endfacet
  facet normal 3.708538e-01 5.950038e-01 7.130483e-01
    outer loop
      vertex   3.957082e+00 6.210991e+00 8.419946e+00
      vertex   4.092121e+00 6.126824e+00 8.419946e+00
      vertex   4.051180e+00 6.358668e+00 8.247777e+00
    endloop
  endfacet
  facet normal 3.708543e-01 5.950038e-01 7.130481e-01
    outer loop
      vertex   4.051180e+00 6.358668e+00 8.247777e+00
      vertex   4.092121e+00 6.126824e+00 8.419946e+00
      vertex   4.189421e+00 6.272505e+00 8.247777e+00
    endloop
  endfacet
  facet normal 3.790814e-01 6.082034e-01 6.974138e-01
    outer loop
      vertex   4.051180e+00 6.358668e+00 8.247777e+00
      vertex   4.189421e+00 6.272505e+00 8.247777e+00
      vertex   4.143334e+00 6.503291e+00 8.071563e+00
    endloop
  endfacet
  facet normal 3.790819e-01 6.082033e-01 6.974136e-01
    outer loop
      vertex   4.143334e+00 6.503291e+00 8.071563e+00
      vertex   4.189421e+00 6.272505e+00 8.247777e+00
      vertex   4.284711e+00 6.415174e+00 8.071563e+00
    endloop
  endfacet
  facet normal 3.851211e-01 6.178927e-01 6.854854e-01
    outer loop
      vertex   4.143334e+00 6.503291e+00 8.071563e+00
      vertex   4.284711e+00 6.415174e+00 8.071563e+00
      vertex   4.188660e+00 6.574425e+00 7.981978e+00
    endloop
  endfacet
  facet normal 3.851214e-01 6.178928e-01 6.854852e-01
    outer loop
      vertex   4.188660e+00 6.574425e+00 7.981978e+00
      vertex   4.284711e+00 6.415174e+00 8.071563e+00
      vertex   4.331579e+00 6.485346e+00 7.981978e+00
    endloop
  endfacet
  facet normal 3.890841e-01 6.242506e-01 6.774399e-01
    outer loop
      vertex   4.188660e+00 6.574425e+00 7.981978e+00
      vertex   4.331579e+00 6.485346e+00 7.981978e+00
      vertex   4.233475e+00 6.644755e+00 7.891431e+00
    endloop
  endfacet
  facet normal 3.890844e-01 6.242506e-01 6.774396e-01
    outer loop
      vertex   4.233475e+00 6.644755e+00 7.891431e+00
      vertex   4.331579e+00 6.485346e+00 7.981978e+00
      vertex   4.377918e+00 6.554726e+00 7.891431e+00
    endloop
  endfacet
  facet normal 3.929957e-01 6.305258e-01 6.693217e-01
    outer loop
      vertex   4.233475e+00 6.644755e+00 7.891431e+00
      vertex   4.377918e+00 6.554726e+00 7.891431e+00
      vertex   4.277770e+00 6.714270e+00 7.799937e+00
    endloop
  endfacet
  facet normal 3.929960e-01 6.305259e-01 6.693215e-01
    outer loop
      vertex   4.277770e+00 6.714270e+00 7.799937e+00
      vertex   4.377918e+00 6.554726e+00 7.891431e+00
      vertex   4.423720e+00 6.623302e+00 7.799937e+00
    endloop
  endfacet
  facet normal 3.968552e-01 6.367177e-01 6.611328e-01
    outer loop
      vertex   4.277770e+00 6.714270e+00 7.799937e+00
      vertex   4.423720e+00 6.623302e+00 7.799937e+00
      vertex   4.321539e+00 6.782957e+00 7.707513e+00
    endloop
  endfacet
  facet normal 3.968556e-01 6.367177e-01 6.611325e-01
    outer loop
      vertex   4.321539e+00 6.782957e+00 7.707513e+00
      vertex   4.423720e+00 6.623302e+00 7.799937e+00
      vertex   4.468977e+00 6.691062e+00 7.707513e+00
    endloop
  endfacet
  facet normal 4.025455e-01 6.458467e-01 6.487212e-01
    outer loop
      vertex   4.321539e+00 6.782957e+00 7.707513e+00
      vertex   4.468977e+00 6.691062e+00 7.707513e+00
      vertex   4.407463e+00 6.917801e+00 7.519949e+00
    endloop
  endfacet
  facet normal 4.025460e-01 6.458466e-01 6.487210e-01
    outer loop
      vertex   4.407463e+00 6.917801e+00 7.519949e+00
      vertex   4.468977e+00 6.691062e+00 7.707513e+00
      vertex   4.557823e+00 6.824084e+00 7.519949e+00
    endloop
  endfacet
  facet normal 4.099465e-01 6.577200e-01 6.319401e-01
    outer loop
      vertex   4.407463e+00 6.917801e+00 7.519949e+00
      vertex   4.557823e+00 6.824084e+00 7.519949e+00
      vertex   4.491190e+00 7.049195e+00 7.328881e+00
    endloop
  endfacet
  facet normal 4.099471e-01 6.577199e-01 6.319398e-01
    outer loop
      vertex   4.491190e+00 7.049195e+00 7.328881e+00
      vertex   4.557823e+00 6.824084e+00 7.519949e+00
      vertex   4.644396e+00 6.953704e+00 7.328881e+00
    endloop
  endfacet
  facet normal 4.170626e-01 6.691361e-01 6.150738e-01
    outer loop
      vertex   4.491190e+00 7.049195e+00 7.328881e+00
      vertex   4.644396e+00 6.953704e+00 7.328881e+00
      vertex   4.571103e+00 7.174603e+00 7.138263e+00
    endloop
  endfacet
  facet normal 4.170093e-01 6.691430e-01 6.151023e-01
    outer loop
      vertex   4.571103e+00 7.174603e+00 7.138263e+00
      vertex   4.644396e+00 6.953704e+00 7.328881e+00
      vertex   4.727890e+00 7.075086e+00 7.140229e+00
    endloop
  endfacet
  facet normal 4.310928e-01 6.598944e-01 6.153847e-01
    outer loop
      vertex   4.727890e+00 7.075086e+00 7.140229e+00
      vertex   4.644396e+00 6.953704e+00 7.328881e+00
      vertex   4.797204e+00 6.853878e+00 7.328881e+00
    endloop
  endfacet
  facet normal 4.311389e-01 6.598876e-01 6.153597e-01
    outer loop
      vertex   4.727890e+00 7.075086e+00 7.140229e+00
      vertex   4.797204e+00 6.853878e+00 7.328881e+00
      vertex   4.882509e+00 6.972197e+00 7.142233e+00
    endloop
  endfacet
  facet normal 4.450714e-01 6.502985e-01 6.156487e-01
    outer loop
      vertex   4.882509e+00 6.972197e+00 7.142233e+00
      vertex   4.797204e+00 6.853878e+00 7.328881e+00
      vertex   5.034868e+00 6.865993e+00 7.144270e+00
    endloop
  endfacet
  facet normal 4.450936e-01 6.502587e-01 6.156747e-01
    outer loop
      vertex   5.034868e+00 6.865993e+00 7.144270e+00
      vertex   4.797204e+00 6.853878e+00 7.328881e+00
      vertex   4.949351e+00 6.749736e+00 7.328881e+00
    endloop
  endfacet
  facet normal 4.588461e-01 6.404453e-01 6.158653e-01
    outer loop
      vertex   5.034868e+00 6.865993e+00 7.144270e+00
      vertex   4.949351e+00 6.749736e+00 7.328881e+00
      vertex   5.184878e+00 6.756532e+00 7.146335e+00
    endloop
  endfacet
  facet normal 4.589155e-01 6.403141e-01 6.159500e-01
    outer loop
      vertex   5.184878e+00 6.756532e+00 7.146335e+00
      vertex   4.949351e+00 6.749736e+00 7.328881e+00
      vertex   5.097931e+00 6.643248e+00 7.328881e+00
    endloop
  endfacet
  facet normal 4.724006e-01 6.302548e-01 6.161303e-01
    outer loop
      vertex   5.184878e+00 6.756532e+00 7.146335e+00
      vertex   5.097931e+00 6.643248e+00 7.328881e+00
      vertex   5.332484e+00 6.643851e+00 7.148427e+00
    endloop
  endfacet
  facet normal 4.724698e-01 6.301155e-01 6.162197e-01
    outer loop
      vertex   5.332484e+00 6.643851e+00 7.148427e+00
      vertex   5.097931e+00 6.643248e+00 7.328881e+00
      vertex   5.243991e+00 6.533730e+00 7.328881e+00
    endloop
  endfacet
  facet normal 4.857460e-01 6.197530e-01 6.164066e-01
    outer loop
      vertex   5.332484e+00 6.643851e+00 7.148427e+00
      vertex   5.243991e+00 6.533730e+00 7.328881e+00
      vertex   5.477631e+00 6.527987e+00 7.150540e+00
    endloop
  endfacet
  facet normal 4.862482e-01 6.186689e-01 6.170993e-01
    outer loop
      vertex   5.477631e+00 6.527987e+00 7.150540e+00
      vertex   5.243991e+00 6.533730e+00 7.328881e+00
      vertex   5.381012e+00 6.412840e+00 7.342111e+00
    endloop
  endfacet
  facet normal 4.770119e-01 6.099202e-01 6.328167e-01
    outer loop
      vertex   5.381012e+00 6.412840e+00 7.342111e+00
      vertex   5.243991e+00 6.533730e+00 7.328881e+00
      vertex   5.146172e+00 6.411992e+00 7.519949e+00
    endloop
  endfacet
  facet normal 4.778235e-01 6.081780e-01 6.338802e-01
    outer loop
      vertex   5.381012e+00 6.412840e+00 7.342111e+00
      vertex   5.146172e+00 6.411992e+00 7.519949e+00
      vertex   5.281730e+00 6.294521e+00 7.530473e+00
    endloop
  endfacet
  facet normal 4.684776e-01 5.988005e-01 6.495896e-01
    outer loop
      vertex   5.281730e+00 6.294521e+00 7.530473e+00
      vertex   5.146172e+00 6.411992e+00 7.519949e+00
      vertex   5.045788e+00 6.287055e+00 7.707513e+00
    endloop
  endfacet
  facet normal 4.691487e-01 5.973681e-01 6.504236e-01
    outer loop
      vertex   5.281730e+00 6.294521e+00 7.530473e+00
      vertex   5.045788e+00 6.287055e+00 7.707513e+00
      vertex   5.179809e+00 6.173056e+00 7.715545e+00
    endloop
  endfacet
  facet normal 4.622069e-01 5.900224e-01 6.619957e-01
    outer loop
      vertex   5.179809e+00 6.173056e+00 7.715545e+00
      vertex   5.045788e+00 6.287055e+00 7.707513e+00
      vertex   4.994656e+00 6.223413e+00 7.799937e+00
    endloop
  endfacet
  facet normal 4.627888e-01 5.841614e-01 6.667699e-01
    outer loop
      vertex   5.179809e+00 6.173056e+00 7.715545e+00
      vertex   4.994656e+00 6.223413e+00 7.799937e+00
      vertex   5.075271e+00 6.048473e+00 7.897250e+00
    endloop
  endfacet
  facet normal 4.581435e-01 5.839186e-01 6.701818e-01
    outer loop
      vertex   5.075271e+00 6.048473e+00 7.897250e+00
      vertex   4.994656e+00 6.223413e+00 7.799937e+00
      vertex   4.942909e+00 6.159003e+00 7.891431e+00
    endloop
  endfacet
  facet normal 4.531808e-01 5.784028e-01 6.782900e-01
    outer loop
      vertex   5.075271e+00 6.048473e+00 7.897250e+00
      vertex   4.942909e+00 6.159003e+00 7.891431e+00
      vertex   4.890556e+00 6.093837e+00 7.981978e+00
    endloop
  endfacet
  facet normal 4.408945e-01 5.880267e-01 6.781126e-01
    outer loop
      vertex   4.890556e+00 6.093837e+00 7.981978e+00
      vertex   4.942909e+00 6.159003e+00 7.891431e+00
      vertex   4.805405e+00 6.262102e+00 7.891431e+00
    endloop
  endfacet
  facet normal 4.408915e-01 5.880264e-01 6.781148e-01
    outer loop
      vertex   4.890556e+00 6.093837e+00 7.981978e+00
      vertex   4.805405e+00 6.262102e+00 7.891431e+00
      vertex   4.754537e+00 6.195822e+00 7.981978e+00
    endloop
  endfacet
  facet normal 4.282089e-01 5.975226e-01 6.779409e-01
    outer loop
      vertex   4.754537e+00 6.195822e+00 7.981978e+00
      vertex   4.805405e+00 6.262102e+00 7.891431e+00
      vertex   4.664855e+00 6.362826e+00 7.891431e+00
    endloop
  endfacet
  facet normal 4.282019e-01 5.975217e-01 6.779461e-01
    outer loop
      vertex   4.754537e+00 6.195822e+00 7.981978e+00
      vertex   4.664855e+00 6.362826e+00 7.891431e+00
      vertex   4.615393e+00 6.295537e+00 7.981978e+00
    endloop
  endfacet
  facet normal 4.152902e-01 6.067690e-01 6.777650e-01
    outer loop
      vertex   4.615393e+00 6.295537e+00 7.981978e+00
      vertex   4.664855e+00 6.362826e+00 7.891431e+00
      vertex   4.521958e+00 6.460628e+00 7.891431e+00
    endloop
  endfacet
  facet normal 4.152836e-01 6.067680e-01 6.777700e-01
    outer loop
      vertex   4.615393e+00 6.295537e+00 7.981978e+00
      vertex   4.521958e+00 6.460628e+00 7.891431e+00
      vertex   4.474095e+00 6.392244e+00 7.981978e+00
    endloop
  endfacet
  facet normal 4.022165e-01 6.156921e-01 6.776024e-01
    outer loop
      vertex   4.474095e+00 6.392244e+00 7.981978e+00
      vertex   4.521958e+00 6.460628e+00 7.891431e+00
      vertex   4.331579e+00 6.485346e+00 7.981978e+00
    endloop
  endfacet
  facet normal 3.981180e-01 6.094184e-01 6.856466e-01
    outer loop
      vertex   4.474095e+00 6.392244e+00 7.981978e+00
      vertex   4.331579e+00 6.485346e+00 7.981978e+00
      vertex   4.284711e+00 6.415174e+00 8.071563e+00
    endloop
  endfacet
  facet normal 3.670109e-01 5.747213e-01 7.314359e-01
    outer loop
      vertex   3.867264e+00 6.070030e+00 8.577398e+00
      vertex   4.130052e+00 5.897873e+00 8.580811e+00
      vertex   4.092121e+00 6.126824e+00 8.419946e+00
    endloop
  endfacet
  facet normal 3.748223e-01 5.737584e-01 7.282235e-01
    outer loop
      vertex   4.092121e+00 6.126824e+00 8.419946e+00
      vertex   4.130052e+00 5.897873e+00 8.580811e+00
      vertex   4.226758e+00 6.038869e+00 8.419946e+00
    endloop
  endfacet
  facet normal 3.833635e-01 5.868328e-01 7.132038e-01
    outer loop
      vertex   4.092121e+00 6.126824e+00 8.419946e+00
      vertex   4.226758e+00 6.038869e+00 8.419946e+00
      vertex   4.327260e+00 6.182458e+00 8.247777e+00
    endloop
  endfacet
  facet normal 3.957900e-01 5.783271e-01 7.133639e-01
    outer loop
      vertex   4.327260e+00 6.182458e+00 8.247777e+00
      vertex   4.226758e+00 6.038869e+00 8.419946e+00
      vertex   4.359840e+00 5.947792e+00 8.419946e+00
    endloop
  endfacet
  facet normal 3.958001e-01 5.783254e-01 7.133597e-01
    outer loop
      vertex   4.327260e+00 6.182458e+00 8.247777e+00
      vertex   4.359840e+00 5.947792e+00 8.419946e+00
      vertex   4.463672e+00 6.089099e+00 8.247777e+00
    endloop
  endfacet
  facet normal 4.080926e-01 5.695025e-01 7.135316e-01
    outer loop
      vertex   4.463672e+00 6.089099e+00 8.247777e+00
      vertex   4.359840e+00 5.947792e+00 8.419946e+00
      vertex   4.491677e+00 5.853320e+00 8.419946e+00
    endloop
  endfacet
  facet normal 4.081031e-01 5.695005e-01 7.135272e-01
    outer loop
      vertex   4.463672e+00 6.089099e+00 8.247777e+00
      vertex   4.491677e+00 5.853320e+00 8.419946e+00
      vertex   4.598486e+00 5.992492e+00 8.247777e+00
    endloop
  endfacet
  facet normal 4.201882e-01 5.604314e-01 7.136936e-01
    outer loop
      vertex   4.598486e+00 5.992492e+00 8.247777e+00
      vertex   4.491677e+00 5.853320e+00 8.419946e+00
      vertex   4.620040e+00 5.757079e+00 8.419946e+00
    endloop
  endfacet
  facet normal 4.201927e-01 5.604304e-01 7.136917e-01
    outer loop
      vertex   4.598486e+00 5.992492e+00 8.247777e+00
      vertex   4.620040e+00 5.757079e+00 8.419946e+00
      vertex   4.729958e+00 5.893919e+00 8.247777e+00
    endloop
  endfacet
  facet normal 4.318940e-01 5.512442e-01 7.138609e-01
    outer loop
      vertex   4.729958e+00 5.893919e+00 8.247777e+00
      vertex   4.620040e+00 5.757079e+00 8.419946e+00
      vertex   4.858444e+00 5.790068e+00 8.250235e+00
    endloop
  endfacet
  facet normal 4.416852e-01 5.629953e-01 6.985345e-01
    outer loop
      vertex   4.729958e+00 5.893919e+00 8.247777e+00
      vertex   4.858444e+00 5.790068e+00 8.250235e+00
      vertex   4.968140e+00 5.920799e+00 8.075509e+00
    endloop
  endfacet
  facet normal 3.870100e-01 5.654978e-01 7.283100e-01
    outer loop
      vertex   4.226758e+00 6.038869e+00 8.419946e+00
      vertex   4.130052e+00 5.897873e+00 8.580811e+00
      vertex   4.359840e+00 5.947792e+00 8.419946e+00
    endloop
  endfacet
  facet normal 3.910904e-01 5.580863e-01 7.318388e-01
    outer loop
      vertex   4.359840e+00 5.947792e+00 8.419946e+00
      vertex   4.130052e+00 5.897873e+00 8.580811e+00
      vertex   4.385134e+00 5.714495e+00 8.584337e+00
    endloop
  endfacet
  facet normal 3.989173e-01 5.566982e-01 7.286646e-01
    outer loop
      vertex   4.359840e+00 5.947792e+00 8.419946e+00
      vertex   4.385134e+00 5.714495e+00 8.584337e+00
      vertex   4.491677e+00 5.853320e+00 8.419946e+00
    endloop
  endfacet
  facet normal 4.107340e-01 5.478218e-01 7.288271e-01
    outer loop
      vertex   4.491677e+00 5.853320e+00 8.419946e+00
      vertex   4.385134e+00 5.714495e+00 8.584337e+00
      vertex   4.620040e+00 5.757079e+00 8.419946e+00
    endloop
  endfacet
  facet normal 4.144853e-01 5.403711e-01 7.322575e-01
    outer loop
      vertex   4.385134e+00 5.714495e+00 8.584337e+00
      vertex   4.632021e+00 5.520228e+00 8.587950e+00
      vertex   4.620040e+00 5.757079e+00 8.419946e+00
    endloop
  endfacet
  facet normal 4.221137e-01 5.385915e-01 7.292046e-01
    outer loop
      vertex   4.620040e+00 5.757079e+00 8.419946e+00
      vertex   4.632021e+00 5.520228e+00 8.587950e+00
      vertex   4.746364e+00 5.656497e+00 8.421111e+00
    endloop
  endfacet
  facet normal 4.320574e-01 5.509043e-01 7.140244e-01
    outer loop
      vertex   4.620040e+00 5.757079e+00 8.419946e+00
      vertex   4.746364e+00 5.656497e+00 8.421111e+00
      vertex   4.858444e+00 5.790068e+00 8.250235e+00
    endloop
  endfacet
  facet normal 4.538186e-01 5.725502e-01 6.828140e-01
    outer loop
      vertex   5.075271e+00 6.048473e+00 7.897250e+00
      vertex   4.890556e+00 6.093837e+00 7.981978e+00
      vertex   4.968140e+00 5.920799e+00 8.075509e+00
    endloop
  endfacet
  facet normal 4.488815e-01 5.722374e-01 6.863307e-01
    outer loop
      vertex   4.968140e+00 5.920799e+00 8.075509e+00
      vertex   4.890556e+00 6.093837e+00 7.981978e+00
      vertex   4.837607e+00 6.027926e+00 8.071563e+00
    endloop
  endfacet
  facet normal 4.414097e-01 5.635718e-01 6.982437e-01
    outer loop
      vertex   4.968140e+00 5.920799e+00 8.075509e+00
      vertex   4.837607e+00 6.027926e+00 8.071563e+00
      vertex   4.729958e+00 5.893919e+00 8.247777e+00
    endloop
  endfacet
  facet normal 4.295353e-01 5.728839e-01 6.980712e-01
    outer loop
      vertex   4.729958e+00 5.893919e+00 8.247777e+00
      vertex   4.837607e+00 6.027926e+00 8.071563e+00
      vertex   4.703088e+00 6.128786e+00 8.071563e+00
    endloop
  endfacet
  facet normal 4.295307e-01 5.728849e-01 6.980733e-01
    outer loop
      vertex   4.729958e+00 5.893919e+00 8.247777e+00
      vertex   4.703088e+00 6.128786e+00 8.071563e+00
      vertex   4.598486e+00 5.992492e+00 8.247777e+00
    endloop
  endfacet
  facet normal 4.171772e-01 5.821461e-01 6.979033e-01
    outer loop
      vertex   4.598486e+00 5.992492e+00 8.247777e+00
      vertex   4.703088e+00 6.128786e+00 8.071563e+00
      vertex   4.565369e+00 6.227478e+00 8.071563e+00
    endloop
  endfacet
  facet normal 4.171665e-01 5.821482e-01 6.979081e-01
    outer loop
      vertex   4.598486e+00 5.992492e+00 8.247777e+00
      vertex   4.565369e+00 6.227478e+00 8.071563e+00
      vertex   4.463672e+00 6.089099e+00 8.247777e+00
    endloop
  endfacet
  facet normal 4.045965e-01 5.911616e-01 6.977318e-01
    outer loop
      vertex   4.463672e+00 6.089099e+00 8.247777e+00
      vertex   4.565369e+00 6.227478e+00 8.071563e+00
      vertex   4.425684e+00 6.323079e+00 8.071563e+00
    endloop
  endfacet
  facet normal 4.045862e-01 5.911633e-01 6.977363e-01
    outer loop
      vertex   4.463672e+00 6.089099e+00 8.247777e+00
      vertex   4.425684e+00 6.323079e+00 8.071563e+00
      vertex   4.327260e+00 6.182458e+00 8.247777e+00
    endloop
  endfacet
  facet normal 3.918720e-01 5.998572e-01 6.975727e-01
    outer loop
      vertex   4.327260e+00 6.182458e+00 8.247777e+00
      vertex   4.425684e+00 6.323079e+00 8.071563e+00
      vertex   4.189421e+00 6.272505e+00 8.247777e+00
    endloop
  endfacet
  facet normal 3.833635e-01 5.868328e-01 7.132038e-01
    outer loop
      vertex   4.327260e+00 6.182458e+00 8.247777e+00
      vertex   4.189421e+00 6.272505e+00 8.247777e+00
      vertex   4.092121e+00 6.126824e+00 8.419946e+00
    endloop
  endfacet
  facet normal 4.027939e-01 6.779733e-01 6.149059e-01
    outer loop
      vertex   4.491190e+00 7.049195e+00 7.328881e+00
      vertex   4.571103e+00 7.174603e+00 7.138263e+00
      vertex   4.334219e+00 7.142454e+00 7.328881e+00
    endloop
  endfacet
  facet normal 4.027122e-01 6.780953e-01 6.148249e-01
    outer loop
      vertex   4.334219e+00 7.142454e+00 7.328881e+00
      vertex   4.571103e+00 7.174603e+00 7.138263e+00
      vertex   4.412206e+00 7.270716e+00 7.136338e+00
    endloop
  endfacet
  facet normal 3.884867e-01 6.864939e-01 6.146578e-01
    outer loop
      vertex   4.334219e+00 7.142454e+00 7.328881e+00
      vertex   4.412206e+00 7.270716e+00 7.136338e+00
      vertex   4.176560e+00 7.234015e+00 7.326265e+00
    endloop
  endfacet
  facet normal 3.882796e-01 6.867898e-01 6.144580e-01
    outer loop
      vertex   4.176560e+00 7.234015e+00 7.326265e+00
      vertex   4.412206e+00 7.270716e+00 7.136338e+00
      vertex   4.251257e+00 7.363393e+00 7.134456e+00
    endloop
  endfacet
  facet normal 3.816344e-01 6.751696e-01 6.312695e-01
    outer loop
      vertex   4.176560e+00 7.234015e+00 7.326265e+00
      vertex   4.099782e+00 7.101031e+00 7.514913e+00
      vertex   4.334219e+00 7.142454e+00 7.328881e+00
    endloop
  endfacet
  facet normal 3.820013e-01 6.746398e-01 6.316139e-01
    outer loop
      vertex   4.334219e+00 7.142454e+00 7.328881e+00
      vertex   4.099782e+00 7.101031e+00 7.514913e+00
      vertex   4.253316e+00 7.009381e+00 7.519949e+00
    endloop
  endfacet
  facet normal 3.959183e-01 6.664131e-01 6.317771e-01
    outer loop
      vertex   4.334219e+00 7.142454e+00 7.328881e+00
      vertex   4.253316e+00 7.009381e+00 7.519949e+00
      vertex   4.407463e+00 6.917801e+00 7.519949e+00
    endloop
  endfacet
  facet normal 3.887761e-01 6.543913e-01 6.485563e-01
    outer loop
      vertex   4.407463e+00 6.917801e+00 7.519949e+00
      vertex   4.253316e+00 7.009381e+00 7.519949e+00
      vertex   4.321539e+00 6.782957e+00 7.707513e+00
    endloop
  endfacet
  facet normal 3.746738e-01 6.632568e-01 6.478502e-01
    outer loop
      vertex   4.099782e+00 7.101031e+00 7.514913e+00
      vertex   4.020938e+00 6.964469e+00 7.700321e+00
      vertex   4.253316e+00 7.009381e+00 7.519949e+00
    endloop
  endfacet
  facet normal 3.752712e-01 6.623799e-01 6.484015e-01
    outer loop
      vertex   4.253316e+00 7.009381e+00 7.519949e+00
      vertex   4.020938e+00 6.964469e+00 7.700321e+00
      vertex   4.170296e+00 6.872809e+00 7.707513e+00
    endloop
  endfacet
  facet normal 3.887691e-01 6.543920e-01 6.485597e-01
    outer loop
      vertex   4.253316e+00 7.009381e+00 7.519949e+00
      vertex   4.170296e+00 6.872809e+00 7.707513e+00
      vertex   4.321539e+00 6.782957e+00 7.707513e+00
    endloop
  endfacet
  facet normal 3.832780e-01 6.451492e-01 6.609693e-01
    outer loop
      vertex   4.321539e+00 6.782957e+00 7.707513e+00
      vertex   4.170296e+00 6.872809e+00 7.707513e+00
      vertex   4.277770e+00 6.714270e+00 7.799937e+00
    endloop
  endfacet
  facet normal 3.692074e-01 6.534723e-01 6.608024e-01
    outer loop
      vertex   4.170296e+00 6.872809e+00 7.707513e+00
      vertex   4.020938e+00 6.964469e+00 7.700321e+00
      vertex   4.128010e+00 6.803241e+00 7.799937e+00
    endloop
  endfacet
  facet normal 3.647211e-01 6.525749e-01 6.641721e-01
    outer loop
      vertex   4.128010e+00 6.803241e+00 7.799937e+00
      vertex   4.020938e+00 6.964469e+00 7.700321e+00
      vertex   3.940045e+00 6.824357e+00 7.882408e+00
    endloop
  endfacet
  facet normal 3.661913e-01 6.467900e-01 6.690042e-01
    outer loop
      vertex   4.128010e+00 6.803241e+00 7.799937e+00
      vertex   3.940045e+00 6.824357e+00 7.882408e+00
      vertex   4.085216e+00 6.732833e+00 7.891431e+00
    endloop
  endfacet
  facet normal 3.618797e-01 6.407506e-01 6.771128e-01
    outer loop
      vertex   4.085216e+00 6.732833e+00 7.891431e+00
      vertex   3.940045e+00 6.824357e+00 7.882408e+00
      vertex   4.041922e+00 6.661598e+00 7.981978e+00
    endloop
  endfacet
  facet normal 3.757674e-01 6.325251e-01 6.772819e-01
    outer loop
      vertex   4.085216e+00 6.732833e+00 7.891431e+00
      vertex   4.041922e+00 6.661598e+00 7.981978e+00
      vertex   4.188660e+00 6.574425e+00 7.981978e+00
    endloop
  endfacet
  facet normal 3.719435e-01 6.260884e-01 6.853257e-01
    outer loop
      vertex   4.188660e+00 6.574425e+00 7.981978e+00
      vertex   4.041922e+00 6.661598e+00 7.981978e+00
      vertex   4.143334e+00 6.503291e+00 8.071563e+00
    endloop
  endfacet
  facet normal 3.574462e-01 6.399024e-01 6.802626e-01
    outer loop
      vertex   3.940045e+00 6.824357e+00 7.882408e+00
      vertex   3.857120e+00 6.680727e+00 8.061089e+00
      vertex   4.041922e+00 6.661598e+00 7.981978e+00
    endloop
  endfacet
  facet normal 3.589181e-01 6.338090e-01 6.851744e-01
    outer loop
      vertex   4.041922e+00 6.661598e+00 7.981978e+00
      vertex   3.857120e+00 6.680727e+00 8.061089e+00
      vertex   3.998135e+00 6.589549e+00 8.071563e+00
    endloop
  endfacet
  facet normal 3.719395e-01 6.260875e-01 6.853287e-01
    outer loop
      vertex   4.041922e+00 6.661598e+00 7.981978e+00
      vertex   3.998135e+00 6.589549e+00 8.071563e+00
      vertex   4.143334e+00 6.503291e+00 8.071563e+00
    endloop
  endfacet
  facet normal 3.661109e-01 6.162762e-01 6.972563e-01
    outer loop
      vertex   4.143334e+00 6.503291e+00 8.071563e+00
      vertex   3.998135e+00 6.589549e+00 8.071563e+00
      vertex   4.051180e+00 6.358668e+00 8.247777e+00
    endloop
  endfacet
  facet normal 3.526462e-01 6.253644e-01 6.961035e-01
    outer loop
      vertex   3.857120e+00 6.680727e+00 8.061089e+00
      vertex   3.772297e+00 6.533811e+00 8.236047e+00
      vertex   3.998135e+00 6.589549e+00 8.071563e+00
    endloop
  endfacet
  facet normal 3.538281e-01 6.235656e-01 6.971167e-01
    outer loop
      vertex   3.998135e+00 6.589549e+00 8.071563e+00
      vertex   3.772297e+00 6.533811e+00 8.236047e+00
      vertex   3.909117e+00 6.443062e+00 8.247777e+00
    endloop
  endfacet
  facet normal 3.661043e-01 6.162769e-01 6.972592e-01
    outer loop
      vertex   3.998135e+00 6.589549e+00 8.071563e+00
      vertex   3.909117e+00 6.443062e+00 8.247777e+00
      vertex   4.051180e+00 6.358668e+00 8.247777e+00
    endloop
  endfacet
  facet normal 3.581637e-01 6.029101e-01 7.128942e-01
    outer loop
      vertex   4.051180e+00 6.358668e+00 8.247777e+00
      vertex   3.909117e+00 6.443062e+00 8.247777e+00
      vertex   3.957082e+00 6.210991e+00 8.419946e+00
    endloop
  endfacet
  facet normal 3.449399e-01 6.120415e-01 7.116330e-01
    outer loop
      vertex   3.772297e+00 6.533811e+00 8.236047e+00
      vertex   3.685671e+00 6.383769e+00 8.407080e+00
      vertex   3.909117e+00 6.443062e+00 8.247777e+00
    endloop
  endfacet
  facet normal 3.462956e-01 6.099609e-01 7.127602e-01
    outer loop
      vertex   3.909117e+00 6.443062e+00 8.247777e+00
      vertex   3.685671e+00 6.383769e+00 8.407080e+00
      vertex   3.818226e+00 6.293478e+00 8.419946e+00
    endloop
  endfacet
  facet normal 3.581573e-01 6.029108e-01 7.128969e-01
    outer loop
      vertex   3.909117e+00 6.443062e+00 8.247777e+00
      vertex   3.818226e+00 6.293478e+00 8.419946e+00
      vertex   3.957082e+00 6.210991e+00 8.419946e+00
    endloop
  endfacet
  facet normal 3.832739e-01 6.451483e-01 6.609726e-01
    outer loop
      vertex   4.277770e+00 6.714270e+00 7.799937e+00
      vertex   4.170296e+00 6.872809e+00 7.707513e+00
      vertex   4.128010e+00 6.803241e+00 7.799937e+00
    endloop
  endfacet
  facet normal 3.757715e-01 6.325260e-01 6.772788e-01
    outer loop
      vertex   4.188660e+00 6.574425e+00 7.981978e+00
      vertex   4.233475e+00 6.644755e+00 7.891431e+00
      vertex   4.085216e+00 6.732833e+00 7.891431e+00
    endloop
  endfacet
  facet normal 3.795457e-01 6.388790e-01 6.691626e-01
    outer loop
      vertex   4.085216e+00 6.732833e+00 7.891431e+00
      vertex   4.233475e+00 6.644755e+00 7.891431e+00
      vertex   4.128010e+00 6.803241e+00 7.799937e+00
    endloop
  endfacet
  facet normal 3.795499e-01 6.388799e-01 6.691594e-01
    outer loop
      vertex   4.233475e+00 6.644755e+00 7.891431e+00
      vertex   4.277770e+00 6.714270e+00 7.799937e+00
      vertex   4.128010e+00 6.803241e+00 7.799937e+00
    endloop
  endfacet
  facet normal 3.959254e-01 6.664123e-01 6.317735e-01
    outer loop
      vertex   4.491190e+00 7.049195e+00 7.328881e+00
      vertex   4.334219e+00 7.142454e+00 7.328881e+00
      vertex   4.407463e+00 6.917801e+00 7.519949e+00
    endloop
  endfacet
  facet normal 3.981180e-01 6.094184e-01 6.856466e-01
    outer loop
      vertex   4.474095e+00 6.392244e+00 7.981978e+00
      vertex   4.284711e+00 6.415174e+00 8.071563e+00
      vertex   4.425684e+00 6.323079e+00 8.071563e+00
    endloop
  endfacet
  facet normal 3.918720e-01 5.998572e-01 6.975727e-01
    outer loop
      vertex   4.425684e+00 6.323079e+00 8.071563e+00
      vertex   4.284711e+00 6.415174e+00 8.071563e+00
      vertex   4.189421e+00 6.272505e+00 8.247777e+00
    endloop
  endfacet
  facet normal 4.022165e-01 6.156921e-01 6.776024e-01
    outer loop
      vertex   4.331579e+00 6.485346e+00 7.981978e+00
      vertex   4.521958e+00 6.460628e+00 7.891431e+00
      vertex   4.377918e+00 6.554726e+00 7.891431e+00
    endloop
  endfacet
  facet normal 4.062619e-01 6.218845e-01 6.694856e-01
    outer loop
      vertex   4.377918e+00 6.554726e+00 7.891431e+00
      vertex   4.521958e+00 6.460628e+00 7.891431e+00
      vertex   4.569267e+00 6.528220e+00 7.799937e+00
    endloop
  endfacet
  facet normal 4.062619e-01 6.218845e-01 6.694856e-01
    outer loop
      vertex   4.377918e+00 6.554726e+00 7.891431e+00
      vertex   4.569267e+00 6.528220e+00 7.799937e+00
      vertex   4.423720e+00 6.623302e+00 7.799937e+00
    endloop
  endfacet
  facet normal 4.102535e-01 6.279947e-01 6.612978e-01
    outer loop
      vertex   4.423720e+00 6.623302e+00 7.799937e+00
      vertex   4.569267e+00 6.528220e+00 7.799937e+00
      vertex   4.616013e+00 6.595006e+00 7.707513e+00
    endloop
  endfacet
  facet normal 4.102535e-01 6.279947e-01 6.612978e-01
    outer loop
      vertex   4.423720e+00 6.623302e+00 7.799937e+00
      vertex   4.616013e+00 6.595006e+00 7.707513e+00
      vertex   4.468977e+00 6.691062e+00 7.707513e+00
    endloop
  endfacet
  facet normal 4.161386e-01 6.370033e-01 6.488878e-01
    outer loop
      vertex   4.468977e+00 6.691062e+00 7.707513e+00
      vertex   4.616013e+00 6.595006e+00 7.707513e+00
      vertex   4.707783e+00 6.726119e+00 7.519949e+00
    endloop
  endfacet
  facet normal 4.161386e-01 6.370033e-01 6.488878e-01
    outer loop
      vertex   4.468977e+00 6.691062e+00 7.707513e+00
      vertex   4.707783e+00 6.726119e+00 7.519949e+00
      vertex   4.557823e+00 6.824084e+00 7.519949e+00
    endloop
  endfacet
  facet normal 4.237932e-01 6.487206e-01 6.321083e-01
    outer loop
      vertex   4.557823e+00 6.824084e+00 7.519949e+00
      vertex   4.707783e+00 6.726119e+00 7.519949e+00
      vertex   4.797204e+00 6.853878e+00 7.328881e+00
    endloop
  endfacet
  facet normal 4.237932e-01 6.487206e-01 6.321083e-01
    outer loop
      vertex   4.557823e+00 6.824084e+00 7.519949e+00
      vertex   4.797204e+00 6.853878e+00 7.328881e+00
      vertex   4.644396e+00 6.953704e+00 7.328881e+00
    endloop
  endfacet
  facet normal 4.110459e-01 6.005849e-01 6.858127e-01
    outer loop
      vertex   4.474095e+00 6.392244e+00 7.981978e+00
      vertex   4.425684e+00 6.323079e+00 8.071563e+00
      vertex   4.565369e+00 6.227478e+00 8.071563e+00
    endloop
  endfacet
  facet normal 4.110524e-01 6.005859e-01 6.858079e-01
    outer loop
      vertex   4.474095e+00 6.392244e+00 7.981978e+00
      vertex   4.565369e+00 6.227478e+00 8.071563e+00
      vertex   4.615393e+00 6.295537e+00 7.981978e+00
    endloop
  endfacet
  facet normal 4.238303e-01 5.914301e-01 6.859871e-01
    outer loop
      vertex   4.615393e+00 6.295537e+00 7.981978e+00
      vertex   4.565369e+00 6.227478e+00 8.071563e+00
      vertex   4.703088e+00 6.128786e+00 8.071563e+00
    endloop
  endfacet
  facet normal 4.238372e-01 5.914310e-01 6.859821e-01
    outer loop
      vertex   4.615393e+00 6.295537e+00 7.981978e+00
      vertex   4.703088e+00 6.128786e+00 8.071563e+00
      vertex   4.754537e+00 6.195822e+00 7.981978e+00
    endloop
  endfacet
  facet normal 4.363905e-01 5.820269e-01 6.861545e-01
    outer loop
      vertex   4.754537e+00 6.195822e+00 7.981978e+00
      vertex   4.703088e+00 6.128786e+00 8.071563e+00
      vertex   4.837607e+00 6.027926e+00 8.071563e+00
    endloop
  endfacet
  facet normal 4.363935e-01 5.820273e-01 6.861523e-01
    outer loop
      vertex   4.754537e+00 6.195822e+00 7.981978e+00
      vertex   4.837607e+00 6.027926e+00 8.071563e+00
      vertex   4.890556e+00 6.093837e+00 7.981978e+00
    endloop
  endfacet
  facet normal 4.194665e-01 6.128709e-01 6.696545e-01
    outer loop
      vertex   4.569267e+00 6.528220e+00 7.799937e+00
      vertex   4.521958e+00 6.460628e+00 7.891431e+00
      vertex   4.664855e+00 6.362826e+00 7.891431e+00
    endloop
  endfacet
  facet normal 4.235940e-01 6.188928e-01 6.614679e-01
    outer loop
      vertex   4.616013e+00 6.595006e+00 7.707513e+00
      vertex   4.569267e+00 6.528220e+00 7.799937e+00
      vertex   4.713747e+00 6.429332e+00 7.799937e+00
    endloop
  endfacet
  facet normal 4.194731e-01 6.128719e-01 6.696494e-01
    outer loop
      vertex   4.713747e+00 6.429332e+00 7.799937e+00
      vertex   4.569267e+00 6.528220e+00 7.799937e+00
      vertex   4.664855e+00 6.362826e+00 7.891431e+00
    endloop
  endfacet
  facet normal 4.325172e-01 6.035343e-01 6.698322e-01
    outer loop
      vertex   4.713747e+00 6.429332e+00 7.799937e+00
      vertex   4.664855e+00 6.362826e+00 7.891431e+00
      vertex   4.805405e+00 6.262102e+00 7.891431e+00
    endloop
  endfacet
  facet normal 4.296778e-01 6.277727e-01 6.490597e-01
    outer loop
      vertex   4.707783e+00 6.726119e+00 7.519949e+00
      vertex   4.616013e+00 6.595006e+00 7.707513e+00
      vertex   4.762059e+00 6.495045e+00 7.707513e+00
    endloop
  endfacet
  facet normal 4.236007e-01 6.188938e-01 6.614627e-01
    outer loop
      vertex   4.762059e+00 6.495045e+00 7.707513e+00
      vertex   4.616013e+00 6.595006e+00 7.707513e+00
      vertex   4.713747e+00 6.429332e+00 7.799937e+00
    endloop
  endfacet
  facet normal 4.367753e-01 6.094672e-01 6.616472e-01
    outer loop
      vertex   4.762059e+00 6.495045e+00 7.707513e+00
      vertex   4.713747e+00 6.429332e+00 7.799937e+00
      vertex   4.855684e+00 6.327613e+00 7.799937e+00
    endloop
  endfacet
  facet normal 4.325242e-01 6.035352e-01 6.698269e-01
    outer loop
      vertex   4.855684e+00 6.327613e+00 7.799937e+00
      vertex   4.713747e+00 6.429332e+00 7.799937e+00
      vertex   4.805405e+00 6.262102e+00 7.891431e+00
    endloop
  endfacet
  facet normal 4.453344e-01 5.939483e-01 6.700021e-01
    outer loop
      vertex   4.855684e+00 6.327613e+00 7.799937e+00
      vertex   4.805405e+00 6.262102e+00 7.891431e+00
      vertex   4.942909e+00 6.159003e+00 7.891431e+00
    endloop
  endfacet
  facet normal 4.375942e-01 6.393206e-01 6.322820e-01
    outer loop
      vertex   4.797204e+00 6.853878e+00 7.328881e+00
      vertex   4.707783e+00 6.726119e+00 7.519949e+00
      vertex   4.856913e+00 6.624045e+00 7.519949e+00
    endloop
  endfacet
  facet normal 4.296888e-01 6.277708e-01 6.490542e-01
    outer loop
      vertex   4.856913e+00 6.624045e+00 7.519949e+00
      vertex   4.707783e+00 6.726119e+00 7.519949e+00
      vertex   4.762059e+00 6.495045e+00 7.707513e+00
    endloop
  endfacet
  facet normal 4.430519e-01 6.182163e-01 6.492409e-01
    outer loop
      vertex   4.856913e+00 6.624045e+00 7.519949e+00
      vertex   4.762059e+00 6.495045e+00 7.707513e+00
      vertex   4.905364e+00 6.392344e+00 7.707513e+00
    endloop
  endfacet
  facet normal 4.367824e-01 6.094682e-01 6.616417e-01
    outer loop
      vertex   4.905364e+00 6.392344e+00 7.707513e+00
      vertex   4.762059e+00 6.495045e+00 7.707513e+00
      vertex   4.855684e+00 6.327613e+00 7.799937e+00
    endloop
  endfacet
  facet normal 4.497185e-01 5.997917e-01 6.618181e-01
    outer loop
      vertex   4.905364e+00 6.392344e+00 7.707513e+00
      vertex   4.855684e+00 6.327613e+00 7.799937e+00
      vertex   4.994656e+00 6.223413e+00 7.799937e+00
    endloop
  endfacet
  facet normal 4.453374e-01 5.939486e-01 6.699998e-01
    outer loop
      vertex   4.994656e+00 6.223413e+00 7.799937e+00
      vertex   4.855684e+00 6.327613e+00 7.799937e+00
      vertex   4.942909e+00 6.159003e+00 7.891431e+00
    endloop
  endfacet
  facet normal 4.376053e-01 6.393187e-01 6.322762e-01
    outer loop
      vertex   4.797204e+00 6.853878e+00 7.328881e+00
      vertex   4.856913e+00 6.624045e+00 7.519949e+00
      vertex   4.949351e+00 6.749736e+00 7.328881e+00
    endloop
  endfacet
  facet normal 4.512192e-01 6.295941e-01 6.324654e-01
    outer loop
      vertex   4.949351e+00 6.749736e+00 7.328881e+00
      vertex   4.856913e+00 6.624045e+00 7.519949e+00
      vertex   5.002895e+00 6.519422e+00 7.519949e+00
    endloop
  endfacet
  facet normal 4.512308e-01 6.295918e-01 6.324594e-01
    outer loop
      vertex   4.949351e+00 6.749736e+00 7.328881e+00
      vertex   5.002895e+00 6.519422e+00 7.519949e+00
      vertex   5.097931e+00 6.643248e+00 7.328881e+00
    endloop
  endfacet
  facet normal 4.645908e-01 6.196153e-01 6.326391e-01
    outer loop
      vertex   5.097931e+00 6.643248e+00 7.328881e+00
      vertex   5.002895e+00 6.519422e+00 7.519949e+00
      vertex   5.146172e+00 6.411992e+00 7.519949e+00
    endloop
  endfacet
  facet normal 4.645957e-01 6.196142e-01 6.326365e-01
    outer loop
      vertex   5.097931e+00 6.643248e+00 7.328881e+00
      vertex   5.146172e+00 6.411992e+00 7.519949e+00
      vertex   5.243991e+00 6.533730e+00 7.328881e+00
    endloop
  endfacet
  facet normal 4.430633e-01 6.182141e-01 6.492352e-01
    outer loop
      vertex   5.002895e+00 6.519422e+00 7.519949e+00
      vertex   4.856913e+00 6.624045e+00 7.519949e+00
      vertex   4.905364e+00 6.392344e+00 7.707513e+00
    endloop
  endfacet
  facet normal 4.561820e-01 6.084082e-01 6.494131e-01
    outer loop
      vertex   5.002895e+00 6.519422e+00 7.519949e+00
      vertex   4.905364e+00 6.392344e+00 7.707513e+00
      vertex   5.045788e+00 6.287055e+00 7.707513e+00
    endloop
  endfacet
  facet normal 4.497216e-01 5.997920e-01 6.618157e-01
    outer loop
      vertex   5.045788e+00 6.287055e+00 7.707513e+00
      vertex   4.905364e+00 6.392344e+00 7.707513e+00
      vertex   4.994656e+00 6.223413e+00 7.799937e+00
    endloop
  endfacet
  facet normal 4.561868e-01 6.084072e-01 6.494107e-01
    outer loop
      vertex   5.045788e+00 6.287055e+00 7.707513e+00
      vertex   5.146172e+00 6.411992e+00 7.519949e+00
      vertex   5.002895e+00 6.519422e+00 7.519949e+00
    endloop
  endfacet
  facet normal -8.660254e-01 5.000000e-01 9.531422e-11
    outer loop
      vertex   3.597272e+00 6.230657e+00 8.574123e+00
      vertex   3.685671e+00 6.383769e+00 8.407080e+00
      vertex   7.938674e-15 0.000000e+00 0.000000e+00
    endloop
  endfacet
  facet normal -8.660254e-01 5.000000e-01 1.860654e-10
    outer loop
      vertex   7.938674e-15 0.000000e+00 0.000000e+00
      vertex   3.685671e+00 6.383769e+00 8.407080e+00
      vertex   3.772297e+00 6.533811e+00 8.236047e+00
    endloop
  endfacet
  facet normal -8.660254e-01 5.000000e-01 1.183348e-10
    outer loop
      vertex   7.938674e-15 0.000000e+00 0.000000e+00
      vertex   3.772297e+00 6.533811e+00 8.236047e+00
      vertex   3.857120e+00 6.680727e+00 8.061089e+00
    endloop
  endfacet
  facet normal -8.660254e-01 5.000000e-01 -4.086973e-11
    outer loop
      vertex   3.857120e+00 6.680727e+00 8.061089e+00
      vertex   3.940045e+00 6.824357e+00 7.882408e+00
      vertex   7.938674e-15 0.000000e+00 0.000000e+00
    endloop
  endfacet
  facet normal -8.660254e-01 5.000000e-01 -1.157695e-10
    outer loop
      vertex   7.938674e-15 0.000000e+00 0.000000e+00
      vertex   3.940045e+00 6.824357e+00 7.882408e+00
      vertex   4.020938e+00 6.964469e+00 7.700321e+00
    endloop
  endfacet
  facet normal -8.660254e-01 5.000000e-01 -1.432721e-10
    outer loop
      vertex   7.938674e-15 0.000000e+00 0.000000e+00
      vertex   4.020938e+00 6.964469e+00 7.700321e+00
      vertex   4.099782e+00 7.101031e+00 7.514913e+00
    endloop
  endfacet
  facet normal -8.660254e-01 5.000000e-01 -1.229244e-10
    outer loop
      vertex   4.099782e+00 7.101031e+00 7.514913e+00
      vertex   4.176560e+00 7.234015e+00 7.326265e+00
      vertex   7.938674e-15 0.000000e+00 0.000000e+00
    endloop
  endfacet
  facet normal -8.660254e-01 5.000000e-01 -5.264203e-11
    outer loop
      vertex   7.938674e-15 0.000000e+00 0.000000e+00
      vertex   4.176560e+00 7.234015e+00 7.326265e+00
      vertex   4.251257e+00 7.363393e+00 7.134456e+00
    endloop
  endfacet
  facet normal -4.795364e-01 -5.974816e-01 6.426979e-01
    outer loop
      vertex   7.938674e-15 0.000000e+00 0.000000e+00
      vertex   4.632021e+00 5.520228e+00 8.587950e+00
      vertex   2.193451e+00 2.858480e+00 4.293975e+00
    endloop
  endfacet
  facet normal -4.795404e-01 -5.974782e-01 6.426981e-01
    outer loop
      vertex   2.193451e+00 2.858480e+00 4.293975e+00
      vertex   4.632021e+00 5.520228e+00 8.587950e+00
      vertex   4.385134e+00 5.714495e+00 8.584337e+00
    endloop
  endfacet
  facet normal -4.530336e-01 -6.178188e-01 6.426978e-01
    outer loop
      vertex   2.193451e+00 2.858480e+00 4.293975e+00
      vertex   4.385134e+00 5.714495e+00 8.584337e+00
      vertex   4.130052e+00 5.897873e+00 8.580811e+00
    endloop
  endfacet
  facet normal -4.530236e-01 -6.178258e-01 6.426981e-01
    outer loop
      vertex   2.193451e+00 2.858480e+00 4.293975e+00
      vertex   4.130052e+00 5.897873e+00 8.580811e+00
      vertex   2.066691e+00 2.951427e+00 4.293975e+00
    endloop
  endfacet
  facet normal -4.256534e-01 -6.369921e-01 6.426976e-01
    outer loop
      vertex   2.066691e+00 2.951427e+00 4.293975e+00
      vertex   4.130052e+00 5.897873e+00 8.580811e+00
      vertex   3.867264e+00 6.070030e+00 8.577398e+00
    endloop
  endfacet
  facet normal -4.256433e-01 -6.369985e-01 6.426980e-01
    outer loop
      vertex   2.066691e+00 2.951427e+00 4.293975e+00
      vertex   3.867264e+00 6.070030e+00 8.577398e+00
      vertex   1.935970e+00 3.038775e+00 4.293975e+00
    endloop
  endfacet
  facet normal -3.974512e-01 -6.549598e-01 6.426976e-01
    outer loop
      vertex   1.935970e+00 3.038775e+00 4.293975e+00
      vertex   3.867264e+00 6.070030e+00 8.577398e+00
      vertex   3.597272e+00 6.230657e+00 8.574123e+00
    endloop
  endfacet
  facet normal -3.974467e-01 -6.549623e-01 6.426978e-01
    outer loop
      vertex   1.935970e+00 3.038775e+00 4.293975e+00
      vertex   3.597272e+00 6.230657e+00 8.574123e+00
      vertex   7.938674e-15 0.000000e+00 0.000000e+00
    endloop
  endfacet
  facet normal -4.256434e-01 -6.369986e-01 6.426978e-01
    outer loop
      vertex   1.935970e+00 3.038775e+00 4.293975e+00
      vertex   7.938674e-15 0.000000e+00 0.000000e+00
      vertex   2.066691e+00 2.951427e+00 4.293975e+00
    endloop
  endfacet
  facet normal -4.530238e-01 -6.178260e-01 6.426979e-01
    outer loop
      vertex   7.938674e-15 0.000000e+00 0.000000e+00
      vertex   2.193451e+00 2.858480e+00 4.293975e+00
      vertex   2.066691e+00 2.951427e+00 4.293975e+00
    endloop
  endfacet
  facet normal 3.335128e-01 5.496005e-01 -7.659690e-01
    outer loop
      vertex   7.938674e-15 0.000000e+00 0.000000e+00
      vertex   4.251257e+00 7.363393e+00 7.134456e+00
      vertex   2.289415e+00 3.593514e+00 3.575270e+00
    endloop
  endfacet
  facet normal 3.273761e-01 5.529901e-01 -7.661768e-01
    outer loop
      vertex   2.289415e+00 3.593514e+00 3.575270e+00
      vertex   4.251257e+00 7.363393e+00 7.134456e+00
      vertex   4.412206e+00 7.270716e+00 7.136338e+00
    endloop
  endfacet
  facet normal 3.394639e-01 5.458655e-01 -7.660255e-01
    outer loop
      vertex   2.289415e+00 3.593514e+00 3.575270e+00
      vertex   4.412206e+00 7.270716e+00 7.136338e+00
      vertex   4.571103e+00 7.174603e+00 7.138263e+00
    endloop
  endfacet
  facet normal 3.512970e-01 5.383262e-01 -7.660257e-01
    outer loop
      vertex   4.571103e+00 7.174603e+00 7.138263e+00
      vertex   4.727890e+00 7.075086e+00 7.140229e+00
      vertex   2.289415e+00 3.593514e+00 3.575270e+00
    endloop
  endfacet
  facet normal 3.570754e-01 5.343757e-01 -7.661200e-01
    outer loop
      vertex   2.289415e+00 3.593514e+00 3.575270e+00
      vertex   4.727890e+00 7.075086e+00 7.140229e+00
      vertex   2.444006e+00 3.490215e+00 3.575270e+00
    endloop
  endfacet
  facet normal 3.571753e-01 5.345252e-01 -7.659691e-01
    outer loop
      vertex   2.289415e+00 3.593514e+00 3.575270e+00
      vertex   2.444006e+00 3.490215e+00 3.575270e+00
      vertex   7.938674e-15 0.000000e+00 0.000000e+00
    endloop
  endfacet
  facet normal 3.629605e-01 5.305324e-01 -7.660255e-01
    outer loop
      vertex   4.727890e+00 7.075086e+00 7.140229e+00
      vertex   4.882509e+00 6.972197e+00 7.142233e+00
      vertex   2.444006e+00 3.490215e+00 3.575270e+00
    endloop
  endfacet
  facet normal 3.744484e-01 5.224874e-01 -7.660257e-01
    outer loop
      vertex   2.444006e+00 3.490215e+00 3.575270e+00
      vertex   4.882509e+00 6.972197e+00 7.142233e+00
      vertex   5.034868e+00 6.865993e+00 7.144270e+00
    endloop
  endfacet
  facet normal 3.800448e-01 5.182917e-01 -7.661199e-01
    outer loop
      vertex   2.444006e+00 3.490215e+00 3.575270e+00
      vertex   5.034868e+00 6.865993e+00 7.144270e+00
      vertex   2.593900e+00 3.380303e+00 3.575270e+00
    endloop
  endfacet
  facet normal 3.857542e-01 5.141970e-01 -7.660256e-01
    outer loop
      vertex   2.593900e+00 3.380303e+00 3.575270e+00
      vertex   5.034868e+00 6.865993e+00 7.144270e+00
      vertex   5.184878e+00 6.756532e+00 7.146335e+00
    endloop
  endfacet
  facet normal 3.968724e-01 5.056648e-01 -7.660257e-01
    outer loop
      vertex   2.593900e+00 3.380303e+00 3.575270e+00
      vertex   5.184878e+00 6.756532e+00 7.146335e+00
      vertex   5.332484e+00 6.643851e+00 7.148427e+00
    endloop
  endfacet
  facet normal 4.076888e-01 4.967532e-01 -7.661763e-01
    outer loop
      vertex   5.332484e+00 6.643851e+00 7.148427e+00
      vertex   5.477631e+00 6.527987e+00 7.150540e+00
      vertex   2.593900e+00 3.380303e+00 3.575270e+00
    endloop
  endfacet
  facet normal 4.023968e-01 5.013662e-01 -7.659692e-01
    outer loop
      vertex   2.593900e+00 3.380303e+00 3.575270e+00
      vertex   5.477631e+00 6.527987e+00 7.150540e+00
      vertex   7.938674e-15 0.000000e+00 0.000000e+00
    endloop
  endfacet
  facet normal 3.801511e-01 5.184366e-01 -7.659691e-01
    outer loop
      vertex   2.593900e+00 3.380303e+00 3.575270e+00
      vertex   7.938674e-15 0.000000e+00 0.000000e+00
      vertex   2.444006e+00 3.490215e+00 3.575270e+00
    endloop
  endfacet
endsolid
