solid ASCII
  facet normal 1.736482e-01 -9.848078e-01 2.391678e-11
    outer loop
      vertex   -3.833512e+00 -6.759515e-01 -1.069497e+01
      vertex   0.000000e+00 0.000000e+00 8.881784e-15
      vertex   -4.060498e+00 -7.159753e-01 -1.060252e+01
    endloop
  endfacet
  facet normal 1.736482e-01 -9.848078e-01 -1.465544e-12
    outer loop
      vertex   -4.060498e+00 -7.159753e-01 -1.060252e+01
      vertex   0.000000e+00 0.000000e+00 8.881784e-15
      vertex   -4.285422e+00 -7.556355e-01 -1.050479e+01
    endloop
  endfacet
  facet normal 1.736482e-01 -9.848078e-01 -5.227238e-12
    outer loop
      vertex   -4.285422e+00 -7.556355e-01 -1.050479e+01
      vertex   0.000000e+00 0.000000e+00 8.881784e-15
      vertex   -4.507850e+00 -7.948555e-01 -1.040199e+01
    endloop
  endfacet
  facet normal 1.736482e-01 -9.848078e-01 -6.936516e-12
    outer loop
      vertex   -4.507850e+00 -7.948555e-01 -1.040199e+01
      vertex   0.000000e+00 0.000000e+00 8.881784e-15
      vertex   -4.727708e+00 -8.336224e-01 -1.029419e+01
    endloop
  endfacet
  facet normal 1.736482e-01 -9.848078e-01 -7.589185e-12
    outer loop
      vertex   -4.727708e+00 -8.336224e-01 -1.029419e+01
      vertex   0.000000e+00 0.000000e+00 8.881784e-15
      vertex   -4.944928e+00 -8.719241e-01 -1.018143e+01
    endloop
  endfacet
  facet normal 1.736482e-01 -9.848078e-01 -7.073210e-12
    outer loop
      vertex   -4.944928e+00 -8.719241e-01 -1.018143e+01
      vertex   0.000000e+00 0.000000e+00 8.881784e-15
      vertex   -5.159440e+00 -9.097485e-01 -1.006379e+01
    endloop
  endfacet
  facet normal 1.736482e-01 -9.848078e-01 -5.281007e-12
    outer loop
      vertex   -5.159440e+00 -9.097485e-01 -1.006379e+01
      vertex   0.000000e+00 0.000000e+00 8.881784e-15
      vertex   -5.371178e+00 -9.470836e-01 -9.941311e+00
    endloop
  endfacet
  facet normal 1.736482e-01 -9.848078e-01 -2.106311e-12
    outer loop
      vertex   -5.371178e+00 -9.470836e-01 -9.941311e+00
      vertex   0.000000e+00 0.000000e+00 8.881784e-15
      vertex   -5.580072e+00 -9.839173e-01 -9.814066e+00
    endloop
  endfacet
  facet normal -3.718092e-01 -4.124047e-03 -9.283000e-01
    outer loop
      vertex   -4.123362e+00 -3.165558e-11 -1.060363e+01
      vertex   -3.892988e+00 1.937119e-16 -1.069590e+01
      vertex   -4.002741e+00 -1.703820e-01 -1.065118e+01
    endloop
  endfacet
  facet normal -3.661425e-01 -8.357214e-03 -9.305213e-01
    outer loop
      vertex   -4.002741e+00 -1.703820e-01 -1.065118e+01
      vertex   -3.892988e+00 1.937119e-16 -1.069590e+01
      vertex   -3.889262e+00 -1.698051e-01 -1.069584e+01
    endloop
  endfacet
  facet normal -3.659727e-01 -2.461917e-02 -9.302999e-01
    outer loop
      vertex   -4.002741e+00 -1.703820e-01 -1.065118e+01
      vertex   -3.889262e+00 -1.698051e-01 -1.069584e+01
      vertex   -3.991105e+00 -3.433643e-01 -1.065118e+01
    endloop
  endfacet
  facet normal -3.653441e-01 -2.504864e-02 -9.305355e-01
    outer loop
      vertex   -3.991105e+00 -3.433643e-01 -1.065118e+01
      vertex   -3.889262e+00 -1.698051e-01 -1.069584e+01
      vertex   -3.878090e+00 -3.392845e-01 -1.069566e+01
    endloop
  endfacet
  facet normal -3.646378e-01 -4.131261e-02 -9.302325e-01
    outer loop
      vertex   -3.991105e+00 -3.433643e-01 -1.065118e+01
      vertex   -3.878090e+00 -3.392845e-01 -1.069566e+01
      vertex   -3.971264e+00 -5.184854e-01 -1.065118e+01
    endloop
  endfacet
  facet normal -3.640019e-01 -4.170071e-02 -9.304642e-01
    outer loop
      vertex   -3.971264e+00 -5.184854e-01 -1.065118e+01
      vertex   -3.878090e+00 -3.392845e-01 -1.069566e+01
      vertex   -3.859494e+00 -5.081065e-01 -1.069537e+01
    endloop
  endfacet
  facet normal -3.623572e-01 -5.833746e-02 -9.302118e-01
    outer loop
      vertex   -3.971264e+00 -5.184854e-01 -1.065118e+01
      vertex   -3.859494e+00 -5.081065e-01 -1.069537e+01
      vertex   -3.833512e+00 -6.759515e-01 -1.069497e+01
    endloop
  endfacet
  facet normal -3.669212e-01 -6.291101e-02 -9.281223e-01
    outer loop
      vertex   -3.833512e+00 -6.759515e-01 -1.069497e+01
      vertex   -4.060498e+00 -7.159753e-01 -1.060252e+01
      vertex   -3.971264e+00 -5.184854e-01 -1.065118e+01
    endloop
  endfacet
  facet normal -3.723254e-01 -5.998604e-02 -9.261617e-01
    outer loop
      vertex   -3.971264e+00 -5.184854e-01 -1.065118e+01
      vertex   -4.060498e+00 -7.159753e-01 -1.060252e+01
      vertex   -4.083592e+00 -5.331509e-01 -1.060508e+01
    endloop
  endfacet
  facet normal -3.746319e-01 -4.244492e-02 -9.262016e-01
    outer loop
      vertex   -3.971264e+00 -5.184854e-01 -1.065118e+01
      vertex   -4.083592e+00 -5.331509e-01 -1.060508e+01
      vertex   -3.991105e+00 -3.433643e-01 -1.065118e+01
    endloop
  endfacet
  facet normal -3.746319e-01 -4.244492e-02 -9.262016e-01
    outer loop
      vertex   -3.991105e+00 -3.433643e-01 -1.065118e+01
      vertex   -4.083592e+00 -5.331509e-01 -1.060508e+01
      vertex   -4.103994e+00 -3.530764e-01 -1.060508e+01
    endloop
  endfacet
  facet normal -3.761170e-01 -2.530158e-02 -9.262266e-01
    outer loop
      vertex   -3.991105e+00 -3.433643e-01 -1.065118e+01
      vertex   -4.103994e+00 -3.530764e-01 -1.060508e+01
      vertex   -4.002741e+00 -1.703820e-01 -1.065118e+01
    endloop
  endfacet
  facet normal -3.761170e-01 -2.530158e-02 -9.262266e-01
    outer loop
      vertex   -4.002741e+00 -1.703820e-01 -1.065118e+01
      vertex   -4.103994e+00 -3.530764e-01 -1.060508e+01
      vertex   -4.115959e+00 -1.752012e-01 -1.060508e+01
    endloop
  endfacet
  facet normal -3.768471e-01 -8.265946e-03 -9.262386e-01
    outer loop
      vertex   -4.002741e+00 -1.703820e-01 -1.065118e+01
      vertex   -4.115959e+00 -1.752012e-01 -1.060508e+01
      vertex   -4.123362e+00 -3.165558e-11 -1.060363e+01
    endloop
  endfacet
  facet normal -3.872421e-01 -8.740733e-03 -9.219367e-01
    outer loop
      vertex   -4.123362e+00 -3.165558e-11 -1.060363e+01
      vertex   -4.115959e+00 -1.752012e-01 -1.060508e+01
      vertex   -4.228934e+00 -1.800101e-01 -1.055758e+01
    endloop
  endfacet
  facet normal -3.928903e-01 -4.823405e-03 -9.195727e-01
    outer loop
      vertex   -4.123362e+00 -3.165558e-11 -1.060363e+01
      vertex   -4.228934e+00 -1.800101e-01 -1.055758e+01
      vertex   -4.351691e+00 -7.260428e-11 -1.050607e+01
    endloop
  endfacet
  facet normal -3.976283e-01 -8.645804e-03 -9.175058e-01
    outer loop
      vertex   -4.351691e+00 -7.260428e-11 -1.050607e+01
      vertex   -4.228934e+00 -1.800101e-01 -1.055758e+01
      vertex   -4.341641e+00 -1.848077e-01 -1.050869e+01
    endloop
  endfacet
  facet normal -4.079527e-01 -9.271598e-03 -9.129560e-01
    outer loop
      vertex   -4.351691e+00 -7.260428e-11 -1.050607e+01
      vertex   -4.341641e+00 -1.848077e-01 -1.050869e+01
      vertex   -4.454058e+00 -1.895929e-01 -1.045840e+01
    endloop
  endfacet
  facet normal -4.071742e-01 -2.739081e-02 -9.129397e-01
    outer loop
      vertex   -4.454058e+00 -1.895929e-01 -1.045840e+01
      vertex   -4.341641e+00 -1.848077e-01 -1.050869e+01
      vertex   -4.441109e+00 -3.820793e-01 -1.045840e+01
    endloop
  endfacet
  facet normal -4.174582e-01 -2.808262e-02 -9.082621e-01
    outer loop
      vertex   -4.454058e+00 -1.895929e-01 -1.045840e+01
      vertex   -4.441109e+00 -3.820793e-01 -1.045840e+01
      vertex   -4.552886e+00 -3.916957e-01 -1.040673e+01
    endloop
  endfacet
  facet normal -4.158073e-01 -4.710999e-02 -9.082318e-01
    outer loop
      vertex   -4.552886e+00 -3.916957e-01 -1.040673e+01
      vertex   -4.441109e+00 -3.820793e-01 -1.045840e+01
      vertex   -4.530253e+00 -5.914667e-01 -1.040673e+01
    endloop
  endfacet
  facet normal -4.260121e-01 -4.826617e-02 -9.034291e-01
    outer loop
      vertex   -4.552886e+00 -3.916957e-01 -1.040673e+01
      vertex   -4.530253e+00 -5.914667e-01 -1.040673e+01
      vertex   -4.641140e+00 -6.059440e-01 -1.035367e+01
    endloop
  endfacet
  facet normal -4.234557e-01 -6.768412e-02 -9.033848e-01
    outer loop
      vertex   -4.641140e+00 -6.059440e-01 -1.035367e+01
      vertex   -4.530253e+00 -5.914667e-01 -1.040673e+01
      vertex   -4.507850e+00 -7.948555e-01 -1.040199e+01
    endloop
  endfacet
  facet normal -4.288239e-01 -7.221034e-02 -9.004975e-01
    outer loop
      vertex   -4.641140e+00 -6.059440e-01 -1.035367e+01
      vertex   -4.507850e+00 -7.948555e-01 -1.040199e+01
      vertex   -4.727708e+00 -8.336224e-01 -1.029419e+01
    endloop
  endfacet
  facet normal -3.826590e-01 -6.123117e-02 -9.218584e-01
    outer loop
      vertex   -4.083592e+00 -5.331509e-01 -1.060508e+01
      vertex   -4.060498e+00 -7.159753e-01 -1.060252e+01
      vertex   -4.195677e+00 -5.477847e-01 -1.055758e+01
    endloop
  endfacet
  facet normal -3.878078e-01 -6.603386e-02 -9.193719e-01
    outer loop
      vertex   -4.195677e+00 -5.477847e-01 -1.055758e+01
      vertex   -4.060498e+00 -7.159753e-01 -1.060252e+01
      vertex   -4.285422e+00 -7.556355e-01 -1.050479e+01
    endloop
  endfacet
  facet normal -3.928409e-01 -6.336524e-02 -9.174208e-01
    outer loop
      vertex   -4.195677e+00 -5.477847e-01 -1.055758e+01
      vertex   -4.285422e+00 -7.556355e-01 -1.050479e+01
      vertex   -4.307498e+00 -5.623840e-01 -1.050869e+01
    endloop
  endfacet
  facet normal -4.031309e-01 -6.444906e-02 -9.128701e-01
    outer loop
      vertex   -4.307498e+00 -5.623840e-01 -1.050869e+01
      vertex   -4.285422e+00 -7.556355e-01 -1.050479e+01
      vertex   -4.419031e+00 -5.769456e-01 -1.045840e+01
    endloop
  endfacet
  facet normal -4.055646e-01 -4.594952e-02 -9.129107e-01
    outer loop
      vertex   -4.307498e+00 -5.623840e-01 -1.050869e+01
      vertex   -4.419031e+00 -5.769456e-01 -1.045840e+01
      vertex   -4.329019e+00 -3.724359e-01 -1.050869e+01
    endloop
  endfacet
  facet normal -4.055646e-01 -4.594952e-02 -9.129107e-01
    outer loop
      vertex   -4.329019e+00 -3.724359e-01 -1.050869e+01
      vertex   -4.419031e+00 -5.769456e-01 -1.045840e+01
      vertex   -4.441109e+00 -3.820793e-01 -1.045840e+01
    endloop
  endfacet
  facet normal -4.071742e-01 -2.739081e-02 -9.129397e-01
    outer loop
      vertex   -4.329019e+00 -3.724359e-01 -1.050869e+01
      vertex   -4.441109e+00 -3.820793e-01 -1.045840e+01
      vertex   -4.341641e+00 -1.848077e-01 -1.050869e+01
    endloop
  endfacet
  facet normal -4.084499e-01 -6.912989e-02 -9.101592e-01
    outer loop
      vertex   -4.285422e+00 -7.556355e-01 -1.050479e+01
      vertex   -4.507850e+00 -7.948555e-01 -1.040199e+01
      vertex   -4.419031e+00 -5.769456e-01 -1.045840e+01
    endloop
  endfacet
  facet normal -4.132307e-01 -6.666959e-02 -9.081826e-01
    outer loop
      vertex   -4.419031e+00 -5.769456e-01 -1.045840e+01
      vertex   -4.507850e+00 -7.948555e-01 -1.040199e+01
      vertex   -4.530253e+00 -5.914667e-01 -1.040673e+01
    endloop
  endfacet
  facet normal -4.158073e-01 -4.710999e-02 -9.082318e-01
    outer loop
      vertex   -4.419031e+00 -5.769456e-01 -1.045840e+01
      vertex   -4.530253e+00 -5.914667e-01 -1.040673e+01
      vertex   -4.441109e+00 -3.820793e-01 -1.045840e+01
    endloop
  endfacet
  facet normal -4.489211e-01 -7.527378e-02 -8.903952e-01
    outer loop
      vertex   -4.944928e+00 -8.719241e-01 -1.018143e+01
      vertex   -4.861818e+00 -6.347556e-01 -1.024338e+01
      vertex   -4.727708e+00 -8.336224e-01 -1.029419e+01
    endloop
  endfacet
  facet normal -4.436162e-01 -7.092715e-02 -8.934059e-01
    outer loop
      vertex   -4.727708e+00 -8.336224e-01 -1.029419e+01
      vertex   -4.861818e+00 -6.347556e-01 -1.024338e+01
      vertex   -4.751670e+00 -6.203747e-01 -1.029922e+01
    endloop
  endfacet
  facet normal -4.334756e-01 -6.990670e-02 -8.984498e-01
    outer loop
      vertex   -4.727708e+00 -8.336224e-01 -1.029419e+01
      vertex   -4.751670e+00 -6.203747e-01 -1.029922e+01
      vertex   -4.641140e+00 -6.059440e-01 -1.035367e+01
    endloop
  endfacet
  facet normal -4.361768e-01 -4.941781e-02 -8.985030e-01
    outer loop
      vertex   -4.641140e+00 -6.059440e-01 -1.035367e+01
      vertex   -4.751670e+00 -6.203747e-01 -1.029922e+01
      vertex   -4.664328e+00 -4.012833e-01 -1.035367e+01
    endloop
  endfacet
  facet normal -4.260121e-01 -4.826617e-02 -9.034291e-01
    outer loop
      vertex   -4.641140e+00 -6.059440e-01 -1.035367e+01
      vertex   -4.664328e+00 -4.012833e-01 -1.035367e+01
      vertex   -4.552886e+00 -3.916957e-01 -1.040673e+01
    endloop
  endfacet
  facet normal -4.277043e-01 -2.877188e-02 -9.034607e-01
    outer loop
      vertex   -4.552886e+00 -3.916957e-01 -1.040673e+01
      vertex   -4.664328e+00 -4.012833e-01 -1.035367e+01
      vertex   -4.566161e+00 -1.943647e-01 -1.040673e+01
    endloop
  endfacet
  facet normal -4.174582e-01 -2.808262e-02 -9.082621e-01
    outer loop
      vertex   -4.552886e+00 -3.916957e-01 -1.040673e+01
      vertex   -4.566161e+00 -1.943647e-01 -1.040673e+01
      vertex   -4.454058e+00 -1.895929e-01 -1.045840e+01
    endloop
  endfacet
  facet normal -4.182740e-01 -9.066382e-03 -9.082757e-01
    outer loop
      vertex   -4.454058e+00 -1.895929e-01 -1.045840e+01
      vertex   -4.566161e+00 -1.943647e-01 -1.040673e+01
      vertex   -4.577759e+00 -7.117022e-11 -1.040333e+01
    endloop
  endfacet
  facet normal -4.137411e-01 -5.498155e-03 -9.103780e-01
    outer loop
      vertex   -4.454058e+00 -1.895929e-01 -1.045840e+01
      vertex   -4.577759e+00 -7.117022e-11 -1.040333e+01
      vertex   -4.351691e+00 -7.260428e-11 -1.050607e+01
    endloop
  endfacet
  facet normal -4.691911e-01 -7.568493e-02 -8.798475e-01
    outer loop
      vertex   -5.159440e+00 -9.097485e-01 -1.006379e+01
      vertex   -5.189744e+00 -6.775694e-01 -1.006760e+01
      vertex   -4.944928e+00 -8.719241e-01 -1.018143e+01
    endloop
  endfacet
  facet normal -4.686028e-01 -7.471170e-02 -8.802440e-01
    outer loop
      vertex   -4.944928e+00 -8.719241e-01 -1.018143e+01
      vertex   -5.189744e+00 -6.775694e-01 -1.006760e+01
      vertex   -4.971562e+00 -6.490837e-01 -1.018617e+01
    endloop
  endfacet
  facet normal -4.535564e-01 -7.308286e-02 -8.882260e-01
    outer loop
      vertex   -4.944928e+00 -8.719241e-01 -1.018143e+01
      vertex   -4.971562e+00 -6.490837e-01 -1.018617e+01
      vertex   -4.861818e+00 -6.347556e-01 -1.024338e+01
    endloop
  endfacet
  facet normal -4.563769e-01 -5.170644e-02 -8.882829e-01
    outer loop
      vertex   -4.861818e+00 -6.347556e-01 -1.024338e+01
      vertex   -4.971562e+00 -6.490837e-01 -1.018617e+01
      vertex   -4.886108e+00 -4.203636e-01 -1.024338e+01
    endloop
  endfacet
  facet normal -4.462992e-01 -5.056465e-02 -8.934541e-01
    outer loop
      vertex   -4.861818e+00 -6.347556e-01 -1.024338e+01
      vertex   -4.886108e+00 -4.203636e-01 -1.024338e+01
      vertex   -4.775409e+00 -4.108399e-01 -1.029922e+01
    endloop
  endfacet
  facet normal -4.480735e-01 -3.014212e-02 -8.934885e-01
    outer loop
      vertex   -4.775409e+00 -4.108399e-01 -1.029922e+01
      vertex   -4.886108e+00 -4.203636e-01 -1.024338e+01
      vertex   -4.789333e+00 -2.038643e-01 -1.029922e+01
    endloop
  endfacet
  facet normal -4.379101e-01 -2.945843e-02 -8.985360e-01
    outer loop
      vertex   -4.775409e+00 -4.108399e-01 -1.029922e+01
      vertex   -4.789333e+00 -2.038643e-01 -1.029922e+01
      vertex   -4.677927e+00 -1.991222e-01 -1.035367e+01
    endloop
  endfacet
  facet normal -4.387657e-01 -9.531496e-03 -8.985510e-01
    outer loop
      vertex   -4.677927e+00 -1.991222e-01 -1.035367e+01
      vertex   -4.789333e+00 -2.038643e-01 -1.029922e+01
      vertex   -4.801199e+00 -5.800747e-11 -1.029559e+01
    endloop
  endfacet
  facet normal -4.343345e-01 -6.152509e-03 -9.007306e-01
    outer loop
      vertex   -4.677927e+00 -1.991222e-01 -1.035367e+01
      vertex   -4.801199e+00 -5.800747e-11 -1.029559e+01
      vertex   -4.577759e+00 -7.117022e-11 -1.040333e+01
    endloop
  endfacet
  facet normal -4.883219e-01 -7.800655e-02 -8.691701e-01
    outer loop
      vertex   -5.189744e+00 -6.775694e-01 -1.006760e+01
      vertex   -5.159440e+00 -9.097485e-01 -1.006379e+01
      vertex   -5.406028e+00 -7.058072e-01 -9.943550e+00
    endloop
  endfacet
  facet normal -4.887206e-01 -7.865514e-02 -8.688875e-01
    outer loop
      vertex   -5.406028e+00 -7.058072e-01 -9.943550e+00
      vertex   -5.159440e+00 -9.097485e-01 -1.006379e+01
      vertex   -5.371178e+00 -9.470836e-01 -9.941311e+00
    endloop
  endfacet
  facet normal -5.075228e-01 -8.126797e-02 -8.577973e-01
    outer loop
      vertex   -5.406028e+00 -7.058072e-01 -9.943550e+00
      vertex   -5.371178e+00 -9.470836e-01 -9.941311e+00
      vertex   -5.618132e+00 -7.396229e-01 -9.814854e+00
    endloop
  endfacet
  facet normal -5.079017e-01 -8.189199e-02 -8.575136e-01
    outer loop
      vertex   -5.618132e+00 -7.396229e-01 -9.814854e+00
      vertex   -5.371178e+00 -9.470836e-01 -9.941311e+00
      vertex   -5.580072e+00 -9.839173e-01 -9.814066e+00
    endloop
  endfacet
  facet normal -5.110004e-01 -5.862436e-02 -8.575790e-01
    outer loop
      vertex   -5.618132e+00 -7.396229e-01 -9.814854e+00
      vertex   -5.645373e+00 -4.938882e-01 -9.815420e+00
      vertex   -5.406028e+00 -7.058072e-01 -9.943550e+00
    endloop
  endfacet
  facet normal -5.104940e-01 -5.783777e-02 -8.579340e-01
    outer loop
      vertex   -5.406028e+00 -7.058072e-01 -9.943550e+00
      vertex   -5.645373e+00 -4.938882e-01 -9.815420e+00
      vertex   -5.433037e+00 -4.674172e-01 -9.943550e+00
    endloop
  endfacet
  facet normal -4.912716e-01 -5.565993e-02 -8.692262e-01
    outer loop
      vertex   -5.406028e+00 -7.058072e-01 -9.943550e+00
      vertex   -5.433037e+00 -4.674172e-01 -9.943550e+00
      vertex   -5.215673e+00 -4.487168e-01 -1.006760e+01
    endloop
  endfacet
  facet normal -4.932288e-01 -3.317974e-02 -8.692666e-01
    outer loop
      vertex   -5.215673e+00 -4.487168e-01 -1.006760e+01
      vertex   -5.433037e+00 -4.674172e-01 -9.943550e+00
      vertex   -5.230880e+00 -2.226593e-01 -1.006760e+01
    endloop
  endfacet
  facet normal -4.732877e-01 -3.183830e-02 -8.803323e-01
    outer loop
      vertex   -5.215673e+00 -4.487168e-01 -1.006760e+01
      vertex   -5.230880e+00 -2.226593e-01 -1.006760e+01
      vertex   -5.010969e+00 -2.132985e-01 -1.018617e+01
    endloop
  endfacet
  facet normal -4.741899e-01 -1.092800e-02 -8.803548e-01
    outer loop
      vertex   -5.010969e+00 -2.132985e-01 -1.018617e+01
      vertex   -5.230880e+00 -2.226593e-01 -1.006760e+01
      vertex   -5.021931e+00 -3.963684e-11 -1.018291e+01
    endloop
  endfacet
  facet normal -4.590858e-01 -1.002984e-02 -8.883353e-01
    outer loop
      vertex   -5.010969e+00 -2.132985e-01 -1.018617e+01
      vertex   -5.021931e+00 -3.963684e-11 -1.018291e+01
      vertex   -4.900354e+00 -2.085901e-01 -1.024338e+01
    endloop
  endfacet
  facet normal -4.546524e-01 -6.776697e-03 -8.906432e-01
    outer loop
      vertex   -4.900354e+00 -2.085901e-01 -1.024338e+01
      vertex   -5.021931e+00 -3.963684e-11 -1.018291e+01
      vertex   -4.801199e+00 -5.800747e-11 -1.029559e+01
    endloop
  endfacet
  facet normal -4.489315e-01 -1.021307e-02 -8.935078e-01
    outer loop
      vertex   -4.900354e+00 -2.085901e-01 -1.024338e+01
      vertex   -4.801199e+00 -5.800747e-11 -1.029559e+01
      vertex   -4.789333e+00 -2.038643e-01 -1.029922e+01
    endloop
  endfacet
  facet normal -5.131105e-01 -3.522894e-02 -8.575993e-01
    outer loop
      vertex   -5.645373e+00 -4.938882e-01 -9.815420e+00
      vertex   -5.661740e+00 -2.471843e-01 -9.815762e+00
      vertex   -5.433037e+00 -4.674172e-01 -9.943550e+00
    endloop
  endfacet
  facet normal -5.125839e-01 -3.448177e-02 -8.579445e-01
    outer loop
      vertex   -5.433037e+00 -4.674172e-01 -9.943550e+00
      vertex   -5.661740e+00 -2.471843e-01 -9.815762e+00
      vertex   -5.448878e+00 -2.319387e-01 -9.943550e+00
    endloop
  endfacet
  facet normal -4.932288e-01 -3.317974e-02 -8.692666e-01
    outer loop
      vertex   -5.433037e+00 -4.674172e-01 -9.943550e+00
      vertex   -5.448878e+00 -2.319387e-01 -9.943550e+00
      vertex   -5.230880e+00 -2.226593e-01 -1.006760e+01
    endloop
  endfacet
  facet normal -4.941756e-01 -1.124064e-02 -8.692894e-01
    outer loop
      vertex   -5.230880e+00 -2.226593e-01 -1.006760e+01
      vertex   -5.448878e+00 -2.319387e-01 -9.943550e+00
      vertex   -5.239887e+00 -2.073044e-11 -1.006536e+01
    endloop
  endfacet
  facet normal -4.746735e-01 -1.034287e-02 -8.801012e-01
    outer loop
      vertex   -5.230880e+00 -2.226593e-01 -1.006760e+01
      vertex   -5.239887e+00 -2.073044e-11 -1.006536e+01
      vertex   -5.021931e+00 -3.963684e-11 -1.018291e+01
    endloop
  endfacet
  facet normal -5.140523e-01 -1.174977e-02 -8.576784e-01
    outer loop
      vertex   -5.661740e+00 -2.471843e-01 -9.815762e+00
      vertex   -5.667199e+00 2.818836e-16 -9.815876e+00
      vertex   -5.448878e+00 -2.319387e-01 -9.943550e+00
    endloop
  endfacet
  facet normal -5.138552e-01 -1.149734e-02 -8.577999e-01
    outer loop
      vertex   -5.448878e+00 -2.319387e-01 -9.943550e+00
      vertex   -5.667199e+00 2.818836e-16 -9.815876e+00
      vertex   -5.454999e+00 -5.960374e-12 -9.942992e+00
    endloop
  endfacet
  facet normal -4.944137e-01 -1.095691e-02 -8.691577e-01
    outer loop
      vertex   -5.448878e+00 -2.319387e-01 -9.943550e+00
      vertex   -5.454999e+00 -5.960374e-12 -9.942992e+00
      vertex   -5.239887e+00 -2.073044e-11 -1.006536e+01
    endloop
  endfacet
  facet normal -3.968545e-01 -2.669660e-02 -9.174932e-01
    outer loop
      vertex   -4.329019e+00 -3.724359e-01 -1.050869e+01
      vertex   -4.341641e+00 -1.848077e-01 -1.050869e+01
      vertex   -4.228934e+00 -1.800101e-01 -1.055758e+01
    endloop
  endfacet
  facet normal -3.865013e-01 -2.600013e-02 -9.219223e-01
    outer loop
      vertex   -4.228934e+00 -1.800101e-01 -1.055758e+01
      vertex   -4.115959e+00 -1.752012e-01 -1.060508e+01
      vertex   -4.216639e+00 -3.627676e-01 -1.055758e+01
    endloop
  endfacet
  facet normal -3.865013e-01 -2.600013e-02 -9.219223e-01
    outer loop
      vertex   -4.216639e+00 -3.627676e-01 -1.055758e+01
      vertex   -4.115959e+00 -1.752012e-01 -1.060508e+01
      vertex   -4.103994e+00 -3.530764e-01 -1.060508e+01
    endloop
  endfacet
  facet normal -3.849746e-01 -4.361673e-02 -9.218959e-01
    outer loop
      vertex   -4.216639e+00 -3.627676e-01 -1.055758e+01
      vertex   -4.103994e+00 -3.530764e-01 -1.060508e+01
      vertex   -4.195677e+00 -5.477847e-01 -1.055758e+01
    endloop
  endfacet
  facet normal -3.849746e-01 -4.361673e-02 -9.218959e-01
    outer loop
      vertex   -4.195677e+00 -5.477847e-01 -1.055758e+01
      vertex   -4.103994e+00 -3.530764e-01 -1.060508e+01
      vertex   -4.083592e+00 -5.331509e-01 -1.060508e+01
    endloop
  endfacet
  facet normal -4.285220e-01 -9.761856e-03 -9.034786e-01
    outer loop
      vertex   -4.677927e+00 -1.991222e-01 -1.035367e+01
      vertex   -4.577759e+00 -7.117022e-11 -1.040333e+01
      vertex   -4.566161e+00 -1.943647e-01 -1.040673e+01
    endloop
  endfacet
  facet normal -4.379101e-01 -2.945843e-02 -8.985360e-01
    outer loop
      vertex   -4.775409e+00 -4.108399e-01 -1.029922e+01
      vertex   -4.677927e+00 -1.991222e-01 -1.035367e+01
      vertex   -4.664328e+00 -4.012833e-01 -1.035367e+01
    endloop
  endfacet
  facet normal -4.277043e-01 -2.877188e-02 -9.034607e-01
    outer loop
      vertex   -4.664328e+00 -4.012833e-01 -1.035367e+01
      vertex   -4.677927e+00 -1.991222e-01 -1.035367e+01
      vertex   -4.566161e+00 -1.943647e-01 -1.040673e+01
    endloop
  endfacet
  facet normal -4.480735e-01 -3.014212e-02 -8.934885e-01
    outer loop
      vertex   -4.789333e+00 -2.038643e-01 -1.029922e+01
      vertex   -4.886108e+00 -4.203636e-01 -1.024338e+01
      vertex   -4.900354e+00 -2.085901e-01 -1.024338e+01
    endloop
  endfacet
  facet normal -4.581921e-01 -3.082281e-02 -8.883186e-01
    outer loop
      vertex   -4.900354e+00 -2.085901e-01 -1.024338e+01
      vertex   -4.886108e+00 -4.203636e-01 -1.024338e+01
      vertex   -4.996401e+00 -4.298524e-01 -1.018617e+01
    endloop
  endfacet
  facet normal -4.581921e-01 -3.082281e-02 -8.883186e-01
    outer loop
      vertex   -4.900354e+00 -2.085901e-01 -1.024338e+01
      vertex   -4.996401e+00 -4.298524e-01 -1.018617e+01
      vertex   -5.010969e+00 -2.132985e-01 -1.018617e+01
    endloop
  endfacet
  facet normal -4.732877e-01 -3.183830e-02 -8.803323e-01
    outer loop
      vertex   -5.010969e+00 -2.132985e-01 -1.018617e+01
      vertex   -4.996401e+00 -4.298524e-01 -1.018617e+01
      vertex   -5.215673e+00 -4.487168e-01 -1.006760e+01
    endloop
  endfacet
  facet normal -3.952863e-01 -4.478501e-02 -9.174656e-01
    outer loop
      vertex   -4.307498e+00 -5.623840e-01 -1.050869e+01
      vertex   -4.329019e+00 -3.724359e-01 -1.050869e+01
      vertex   -4.216639e+00 -3.627676e-01 -1.055758e+01
    endloop
  endfacet
  facet normal -3.968545e-01 -2.669660e-02 -9.174932e-01
    outer loop
      vertex   -4.216639e+00 -3.627676e-01 -1.055758e+01
      vertex   -4.329019e+00 -3.724359e-01 -1.050869e+01
      vertex   -4.228934e+00 -1.800101e-01 -1.055758e+01
    endloop
  endfacet
  facet normal -3.952863e-01 -4.478501e-02 -9.174656e-01
    outer loop
      vertex   -4.307498e+00 -5.623840e-01 -1.050869e+01
      vertex   -4.216639e+00 -3.627676e-01 -1.055758e+01
      vertex   -4.195677e+00 -5.477847e-01 -1.055758e+01
    endloop
  endfacet
  facet normal -4.462992e-01 -5.056465e-02 -8.934541e-01
    outer loop
      vertex   -4.861818e+00 -6.347556e-01 -1.024338e+01
      vertex   -4.775409e+00 -4.108399e-01 -1.029922e+01
      vertex   -4.751670e+00 -6.203747e-01 -1.029922e+01
    endloop
  endfacet
  facet normal -4.361768e-01 -4.941781e-02 -8.985030e-01
    outer loop
      vertex   -4.751670e+00 -6.203747e-01 -1.029922e+01
      vertex   -4.775409e+00 -4.108399e-01 -1.029922e+01
      vertex   -4.664328e+00 -4.012833e-01 -1.035367e+01
    endloop
  endfacet
  facet normal -4.563769e-01 -5.170644e-02 -8.882829e-01
    outer loop
      vertex   -4.886108e+00 -4.203636e-01 -1.024338e+01
      vertex   -4.971562e+00 -6.490837e-01 -1.018617e+01
      vertex   -4.996401e+00 -4.298524e-01 -1.018617e+01
    endloop
  endfacet
  facet normal -4.714115e-01 -5.340982e-02 -8.802946e-01
    outer loop
      vertex   -4.996401e+00 -4.298524e-01 -1.018617e+01
      vertex   -4.971562e+00 -6.490837e-01 -1.018617e+01
      vertex   -5.189744e+00 -6.775694e-01 -1.006760e+01
    endloop
  endfacet
  facet normal -4.714115e-01 -5.340982e-02 -8.802946e-01
    outer loop
      vertex   -4.996401e+00 -4.298524e-01 -1.018617e+01
      vertex   -5.189744e+00 -6.775694e-01 -1.006760e+01
      vertex   -5.215673e+00 -4.487168e-01 -1.006760e+01
    endloop
  endfacet
  facet normal -4.912716e-01 -5.565993e-02 -8.692262e-01
    outer loop
      vertex   -5.215673e+00 -4.487168e-01 -1.006760e+01
      vertex   -5.189744e+00 -6.775694e-01 -1.006760e+01
      vertex   -5.406028e+00 -7.058072e-01 -9.943550e+00
    endloop
  endfacet
  facet normal -1.199275e-10 1.000000e+00 4.365005e-11
    outer loop
      vertex   -3.892988e+00 1.937119e-16 -1.069590e+01
      vertex   -4.123362e+00 -3.165558e-11 -1.060363e+01
      vertex   0.000000e+00 0.000000e+00 8.881784e-15
    endloop
  endfacet
  facet normal -1.548838e-10 1.000000e+00 5.724329e-11
    outer loop
      vertex   0.000000e+00 0.000000e+00 8.881784e-15
      vertex   -4.123362e+00 -3.165558e-11 -1.060363e+01
      vertex   -4.351691e+00 -7.260428e-11 -1.050607e+01
    endloop
  endfacet
  facet normal 2.695367e-12 1.000000e+00 -8.027136e-12
    outer loop
      vertex   0.000000e+00 0.000000e+00 8.881784e-15
      vertex   -4.351691e+00 -7.260428e-11 -1.050607e+01
      vertex   -4.577759e+00 -7.117022e-11 -1.040333e+01
    endloop
  endfacet
  facet normal 4.587654e-11 1.000000e+00 -2.702807e-11
    outer loop
      vertex   -4.577759e+00 -7.117022e-11 -1.040333e+01
      vertex   -4.801199e+00 -5.800747e-11 -1.029559e+01
      vertex   0.000000e+00 0.000000e+00 8.881784e-15
    endloop
  endfacet
  facet normal 6.490015e-11 1.000000e+00 -3.589946e-11
    outer loop
      vertex   0.000000e+00 0.000000e+00 8.881784e-15
      vertex   -4.801199e+00 -5.800747e-11 -1.029559e+01
      vertex   -5.021931e+00 -3.963684e-11 -1.018291e+01
    endloop
  endfacet
  facet normal 6.686070e-11 1.000000e+00 -3.686635e-11
    outer loop
      vertex   0.000000e+00 0.000000e+00 8.881784e-15
      vertex   -5.021931e+00 -3.963684e-11 -1.018291e+01
      vertex   -5.239887e+00 -2.073044e-11 -1.006536e+01
    endloop
  endfacet
  facet normal 5.207087e-11 1.000000e+00 -2.916696e-11
    outer loop
      vertex   -5.239887e+00 -2.073044e-11 -1.006536e+01
      vertex   -5.454999e+00 -5.960374e-12 -9.942992e+00
      vertex   0.000000e+00 0.000000e+00 8.881784e-15
    endloop
  endfacet
  facet normal 2.087136e-11 1.000000e+00 -1.205006e-11
    outer loop
      vertex   0.000000e+00 0.000000e+00 8.881784e-15
      vertex   -5.454999e+00 -5.960374e-12 -9.942992e+00
      vertex   -5.667199e+00 2.818836e-16 -9.815876e+00
    endloop
  endfacet
  facet normal -8.658708e-01 -1.889230e-02 4.999108e-01
    outer loop
      vertex   -5.661740e+00 -2.471843e-01 -9.815762e+00
      vertex   -3.774537e+00 -1.647942e-01 -6.543918e+00
      vertex   -5.667199e+00 2.818836e-16 -9.815876e+00
    endloop
  endfacet
  facet normal -8.658708e-01 -1.889262e-02 4.999108e-01
    outer loop
      vertex   -5.667199e+00 2.818836e-16 -9.815876e+00
      vertex   -3.774537e+00 -1.647942e-01 -6.543918e+00
      vertex   -1.887268e+00 -8.239851e-02 -3.271959e+00
    endloop
  endfacet
  facet normal -8.658708e-01 -1.889305e-02 4.999108e-01
    outer loop
      vertex   -5.667199e+00 2.818836e-16 -9.815876e+00
      vertex   -1.887268e+00 -8.239851e-02 -3.271959e+00
      vertex   0.000000e+00 0.000000e+00 8.881784e-15
    endloop
  endfacet
  facet normal -8.642227e-01 -5.664192e-02 4.999107e-01
    outer loop
      vertex   -5.661740e+00 -2.471843e-01 -9.815762e+00
      vertex   -5.645373e+00 -4.938882e-01 -9.815420e+00
      vertex   -3.774537e+00 -1.647942e-01 -6.543918e+00
    endloop
  endfacet
  facet normal -8.642227e-01 -5.664259e-02 4.999108e-01
    outer loop
      vertex   -3.774537e+00 -1.647942e-01 -6.543918e+00
      vertex   -5.645373e+00 -4.938882e-01 -9.815420e+00
      vertex   -3.763756e+00 -3.292781e-01 -6.543918e+00
    endloop
  endfacet
  facet normal -8.642227e-01 -5.664259e-02 4.999107e-01
    outer loop
      vertex   -3.774537e+00 -1.647942e-01 -6.543918e+00
      vertex   -3.763756e+00 -3.292781e-01 -6.543918e+00
      vertex   -1.887268e+00 -8.239851e-02 -3.271959e+00
    endloop
  endfacet
  facet normal -8.642226e-01 -5.664337e-02 4.999108e-01
    outer loop
      vertex   -1.887268e+00 -8.239851e-02 -3.271959e+00
      vertex   -3.763756e+00 -3.292781e-01 -6.543918e+00
      vertex   -1.881878e+00 -1.646410e-01 -3.271959e+00
    endloop
  endfacet
  facet normal -8.642226e-01 -5.664337e-02 4.999108e-01
    outer loop
      vertex   -1.887268e+00 -8.239851e-02 -3.271959e+00
      vertex   -1.881878e+00 -1.646410e-01 -3.271959e+00
      vertex   0.000000e+00 0.000000e+00 8.881784e-15
    endloop
  endfacet
  facet normal -8.609296e-01 -9.428424e-02 4.999107e-01
    outer loop
      vertex   -5.645373e+00 -4.938882e-01 -9.815420e+00
      vertex   -5.618132e+00 -7.396229e-01 -9.814854e+00
      vertex   -3.763756e+00 -3.292781e-01 -6.543918e+00
    endloop
  endfacet
  facet normal -8.609294e-01 -9.428527e-02 4.999108e-01
    outer loop
      vertex   -3.763756e+00 -3.292781e-01 -6.543918e+00
      vertex   -5.618132e+00 -7.396229e-01 -9.814854e+00
      vertex   -3.745811e+00 -4.931373e-01 -6.543918e+00
    endloop
  endfacet
  facet normal -8.609295e-01 -9.428527e-02 4.999107e-01
    outer loop
      vertex   -3.763756e+00 -3.292781e-01 -6.543918e+00
      vertex   -3.745811e+00 -4.931373e-01 -6.543918e+00
      vertex   -1.881878e+00 -1.646410e-01 -3.271959e+00
    endloop
  endfacet
  facet normal -8.609293e-01 -9.428618e-02 4.999108e-01
    outer loop
      vertex   -1.881878e+00 -1.646410e-01 -3.271959e+00
      vertex   -3.745811e+00 -4.931373e-01 -6.543918e+00
      vertex   -1.872905e+00 -2.465706e-01 -3.271959e+00
    endloop
  endfacet
  facet normal -8.609294e-01 -9.428618e-02 4.999108e-01
    outer loop
      vertex   -1.881878e+00 -1.646410e-01 -3.271959e+00
      vertex   -1.872905e+00 -2.465706e-01 -3.271959e+00
      vertex   0.000000e+00 0.000000e+00 8.881784e-15
    endloop
  endfacet
  facet normal -8.559973e-01 -1.317493e-01 4.999107e-01
    outer loop
      vertex   -5.618132e+00 -7.396229e-01 -9.814854e+00
      vertex   -5.580072e+00 -9.839173e-01 -9.814066e+00
      vertex   -3.745811e+00 -4.931373e-01 -6.543918e+00
    endloop
  endfacet
  facet normal -8.559973e-01 -1.317495e-01 4.999107e-01
    outer loop
      vertex   -3.745811e+00 -4.931373e-01 -6.543918e+00
      vertex   -5.580072e+00 -9.839173e-01 -9.814066e+00
      vertex   -1.872905e+00 -2.465706e-01 -3.271959e+00
    endloop
  endfacet
  facet normal -8.559972e-01 -1.317501e-01 4.999107e-01
    outer loop
      vertex   -5.580072e+00 -9.839173e-01 -9.814066e+00
      vertex   0.000000e+00 0.000000e+00 8.881784e-15
      vertex   -1.872905e+00 -2.465706e-01 -3.271959e+00
    endloop
  endfacet
  facet normal 9.286901e-01 1.429378e-01 -3.422038e-01
    outer loop
      vertex   -3.859494e+00 -5.081065e-01 -1.069537e+01
      vertex   -2.577777e+00 -3.012989e-01 -7.130599e+00
      vertex   -3.833512e+00 -6.759515e-01 -1.069497e+01
    endloop
  endfacet
  facet normal 9.298170e-01 1.361981e-01 -3.418924e-01
    outer loop
      vertex   -3.833512e+00 -6.759515e-01 -1.069497e+01
      vertex   -2.577777e+00 -3.012989e-01 -7.130599e+00
      vertex   -1.288888e+00 -1.506495e-01 -3.565299e+00
    endloop
  endfacet
  facet normal 9.298170e-01 1.361981e-01 -3.418924e-01
    outer loop
      vertex   -3.833512e+00 -6.759515e-01 -1.069497e+01
      vertex   -1.288888e+00 -1.506495e-01 -3.565299e+00
      vertex   0.000000e+00 0.000000e+00 8.881784e-15
    endloop
  endfacet
  facet normal 9.341797e-01 1.023083e-01 -3.418205e-01
    outer loop
      vertex   -3.859494e+00 -5.081065e-01 -1.069537e+01
      vertex   -3.878090e+00 -3.392845e-01 -1.069566e+01
      vertex   -2.577777e+00 -3.012989e-01 -7.130599e+00
    endloop
  endfacet
  facet normal 9.360241e-01 8.189150e-02 -3.422757e-01
    outer loop
      vertex   -2.577777e+00 -3.012989e-01 -7.130599e+00
      vertex   -3.878090e+00 -3.392845e-01 -1.069566e+01
      vertex   -2.590935e+00 -1.509048e-01 -7.130599e+00
    endloop
  endfacet
  facet normal 9.361631e-01 8.190366e-02 -3.418924e-01
    outer loop
      vertex   -2.577777e+00 -3.012989e-01 -7.130599e+00
      vertex   -2.590935e+00 -1.509048e-01 -7.130599e+00
      vertex   -1.295467e+00 -7.545238e-02 -3.565299e+00
    endloop
  endfacet
  facet normal 9.393416e-01 2.733204e-02 -3.418924e-01
    outer loop
      vertex   -1.295467e+00 -7.545238e-02 -3.565299e+00
      vertex   -2.590935e+00 -1.509048e-01 -7.130599e+00
      vertex   -3.892988e+00 1.937119e-16 -1.069590e+01
    endloop
  endfacet
  facet normal 9.393416e-01 2.733204e-02 -3.418924e-01
    outer loop
      vertex   -1.295467e+00 -7.545238e-02 -3.565299e+00
      vertex   -3.892988e+00 1.937119e-16 -1.069590e+01
      vertex   0.000000e+00 0.000000e+00 8.881784e-15
    endloop
  endfacet
  facet normal 9.377532e-01 6.146282e-02 -3.418205e-01
    outer loop
      vertex   -3.878090e+00 -3.392845e-01 -1.069566e+01
      vertex   -3.889262e+00 -1.698051e-01 -1.069584e+01
      vertex   -2.590935e+00 -1.509048e-01 -7.130599e+00
    endloop
  endfacet
  facet normal 9.394022e-01 2.049722e-02 -3.422038e-01
    outer loop
      vertex   -2.590935e+00 -1.509048e-01 -7.130599e+00
      vertex   -3.889262e+00 -1.698051e-01 -1.069584e+01
      vertex   -3.892988e+00 1.937119e-16 -1.069590e+01
    endloop
  endfacet
  facet normal 9.361631e-01 8.190366e-02 -3.418924e-01
    outer loop
      vertex   -1.295467e+00 -7.545238e-02 -3.565299e+00
      vertex   0.000000e+00 0.000000e+00 8.881784e-15
      vertex   -1.288888e+00 -1.506495e-01 -3.565299e+00
    endloop
  endfacet
  facet normal 9.361631e-01 8.190366e-02 -3.418924e-01
    outer loop
      vertex   -1.295467e+00 -7.545238e-02 -3.565299e+00
      vertex   -1.288888e+00 -1.506495e-01 -3.565299e+00
      vertex   -2.577777e+00 -3.012989e-01 -7.130599e+00
    endloop
  endfacet
endsolid
