solid ASCII
  facet normal 3.420201e-01 9.396926e-01 -5.970354e-16
    outer loop
      vertex   5.321618e+00 -1.936911e+00 -9.808860e+00
      vertex   0.000000e+00 0.000000e+00 0.000000e+00
      vertex   5.517285e+00 -2.008128e+00 -9.676972e+00
    endloop
  endfacet
  facet normal 3.420201e-01 9.396926e-01 -1.872337e-15
    outer loop
      vertex   5.517285e+00 -2.008128e+00 -9.676972e+00
      vertex   0.000000e+00 0.000000e+00 0.000000e+00
      vertex   5.710089e+00 -2.078302e+00 -9.540477e+00
    endloop
  endfacet
  facet normal 3.420201e-01 9.396926e-01 1.594665e-16
    outer loop
      vertex   5.710089e+00 -2.078302e+00 -9.540477e+00
      vertex   0.000000e+00 0.000000e+00 0.000000e+00
      vertex   5.899967e+00 -2.147412e+00 -9.399433e+00
    endloop
  endfacet
  facet normal 3.420201e-01 9.396926e-01 1.097015e-15
    outer loop
      vertex   5.899967e+00 -2.147412e+00 -9.399433e+00
      vertex   0.000000e+00 0.000000e+00 0.000000e+00
      vertex   6.086856e+00 -2.215434e+00 -9.253904e+00
    endloop
  endfacet
  facet normal 3.420201e-01 9.396926e-01 -1.556547e-15
    outer loop
      vertex   6.086856e+00 -2.215434e+00 -9.253904e+00
      vertex   0.000000e+00 0.000000e+00 0.000000e+00
      vertex   6.270692e+00 -2.282345e+00 -9.103948e+00
    endloop
  endfacet
  facet normal 3.420201e-01 9.396926e-01 -1.197802e-16
    outer loop
      vertex   6.270692e+00 -2.282345e+00 -9.103948e+00
      vertex   0.000000e+00 0.000000e+00 0.000000e+00
      vertex   6.451412e+00 -2.348122e+00 -8.949629e+00
    endloop
  endfacet
  facet normal 3.420201e-01 9.396926e-01 2.336330e-15
    outer loop
      vertex   6.451412e+00 -2.348122e+00 -8.949629e+00
      vertex   0.000000e+00 0.000000e+00 0.000000e+00
      vertex   6.628952e+00 -2.412741e+00 -8.791005e+00
    endloop
  endfacet
  facet normal 3.420201e-01 9.396926e-01 -1.062486e-14
    outer loop
      vertex   6.628952e+00 -2.412741e+00 -8.791005e+00
      vertex   0.000000e+00 0.000000e+00 0.000000e+00
      vertex   6.803250e+00 -2.476181e+00 -8.628138e+00
    endloop
  endfacet
  facet normal 4.648015e-01 -2.698087e-01 -8.433047e-01
    outer loop
      vertex   5.080187e+00 -2.933048e+00 -9.668633e+00
      vertex   4.900450e+00 -2.829276e+00 -9.800899e+00
      vertex   5.106022e+00 -2.654243e+00 -9.743595e+00
    endloop
  endfacet
  facet normal 4.615881e-01 -2.649551e-01 -8.466021e-01
    outer loop
      vertex   5.106022e+00 -2.654243e+00 -9.743595e+00
      vertex   4.900450e+00 -2.829276e+00 -9.800899e+00
      vertex   5.020358e+00 -2.613349e+00 -9.803100e+00
    endloop
  endfacet
  facet normal 4.721686e-01 -2.436241e-01 -8.471742e-01
    outer loop
      vertex   5.106022e+00 -2.654243e+00 -9.743595e+00
      vertex   5.020358e+00 -2.613349e+00 -9.803100e+00
      vertex   5.130665e+00 -2.392363e+00 -9.805170e+00
    endloop
  endfacet
  facet normal 4.727632e-01 -2.436034e-01 -8.468484e-01
    outer loop
      vertex   5.106022e+00 -2.654243e+00 -9.743595e+00
      vertex   5.130665e+00 -2.392363e+00 -9.805170e+00
      vertex   5.221661e+00 -2.429820e+00 -9.743595e+00
    endloop
  endfacet
  facet normal 4.821272e-01 -2.219575e-01 -8.475189e-01
    outer loop
      vertex   5.221661e+00 -2.429820e+00 -9.743595e+00
      vertex   5.130665e+00 -2.392363e+00 -9.805170e+00
      vertex   5.231152e+00 -2.166737e+00 -9.807095e+00
    endloop
  endfacet
  facet normal 4.827318e-01 -2.218999e-01 -8.471898e-01
    outer loop
      vertex   5.221661e+00 -2.429820e+00 -9.743595e+00
      vertex   5.231152e+00 -2.166737e+00 -9.807095e+00
      vertex   5.326222e+00 -2.202354e+00 -9.743595e+00
    endloop
  endfacet
  facet normal 4.913267e-01 -1.999085e-01 -8.477232e-01
    outer loop
      vertex   5.326222e+00 -2.202354e+00 -9.743595e+00
      vertex   5.231152e+00 -2.166737e+00 -9.807095e+00
      vertex   5.321618e+00 -1.936911e+00 -9.808860e+00
    endloop
  endfacet
  facet normal 4.968923e-01 -1.990620e-01 -8.446729e-01
    outer loop
      vertex   5.326222e+00 -2.202354e+00 -9.743595e+00
      vertex   5.321618e+00 -1.936911e+00 -9.808860e+00
      vertex   5.517285e+00 -2.008128e+00 -9.676972e+00
    endloop
  endfacet
  facet normal 5.142737e-01 -2.062417e-01 -8.324583e-01
    outer loop
      vertex   5.710089e+00 -2.078302e+00 -9.540477e+00
      vertex   5.517329e+00 -2.281375e+00 -9.609248e+00
      vertex   5.517285e+00 -2.008128e+00 -9.676972e+00
    endloop
  endfacet
  facet normal 5.089999e-01 -2.069980e-01 -8.355064e-01
    outer loop
      vertex   5.517285e+00 -2.008128e+00 -9.676972e+00
      vertex   5.517329e+00 -2.281375e+00 -9.609248e+00
      vertex   5.422048e+00 -2.241977e+00 -9.677056e+00
    endloop
  endfacet
  facet normal 5.002850e-01 -2.034466e-01 -8.416201e-01
    outer loop
      vertex   5.517285e+00 -2.008128e+00 -9.676972e+00
      vertex   5.422048e+00 -2.241977e+00 -9.677056e+00
      vertex   5.326222e+00 -2.202354e+00 -9.743595e+00
    endloop
  endfacet
  facet normal 4.909645e-01 -2.256842e-01 -8.414395e-01
    outer loop
      vertex   5.326222e+00 -2.202354e+00 -9.743595e+00
      vertex   5.422048e+00 -2.241977e+00 -9.677056e+00
      vertex   5.221661e+00 -2.429820e+00 -9.743595e+00
    endloop
  endfacet
  facet normal 5.313624e-01 -2.132932e-01 -8.198537e-01
    outer loop
      vertex   5.899967e+00 -2.147412e+00 -9.399433e+00
      vertex   5.706182e+00 -2.359464e+00 -9.469862e+00
      vertex   5.710089e+00 -2.078302e+00 -9.540477e+00
    endloop
  endfacet
  facet normal 5.262599e-01 -2.140010e-01 -8.229545e-01
    outer loop
      vertex   5.710089e+00 -2.078302e+00 -9.540477e+00
      vertex   5.706182e+00 -2.359464e+00 -9.469862e+00
      vertex   5.612047e+00 -2.320540e+00 -9.540181e+00
    endloop
  endfacet
  facet normal 5.176548e-01 -2.105260e-01 -8.292842e-01
    outer loop
      vertex   5.710089e+00 -2.078302e+00 -9.540477e+00
      vertex   5.612047e+00 -2.320540e+00 -9.540181e+00
      vertex   5.517329e+00 -2.281375e+00 -9.609248e+00
    endloop
  endfacet
  facet normal 5.080085e-01 -2.335189e-01 -8.290937e-01
    outer loop
      vertex   5.517329e+00 -2.281375e+00 -9.609248e+00
      vertex   5.612047e+00 -2.320540e+00 -9.540181e+00
      vertex   5.409017e+00 -2.517003e+00 -9.609248e+00
    endloop
  endfacet
  facet normal 4.995158e-01 -2.296151e-01 -8.353208e-01
    outer loop
      vertex   5.517329e+00 -2.281375e+00 -9.609248e+00
      vertex   5.409017e+00 -2.517003e+00 -9.609248e+00
      vertex   5.315606e+00 -2.473536e+00 -9.677056e+00
    endloop
  endfacet
  facet normal 4.889732e-01 -2.519560e-01 -8.351188e-01
    outer loop
      vertex   5.315606e+00 -2.473536e+00 -9.677056e+00
      vertex   5.409017e+00 -2.517003e+00 -9.609248e+00
      vertex   5.197885e+00 -2.701997e+00 -9.677056e+00
    endloop
  endfacet
  facet normal 4.806062e-01 -2.476447e-01 -8.412430e-01
    outer loop
      vertex   5.315606e+00 -2.473536e+00 -9.677056e+00
      vertex   5.197885e+00 -2.701997e+00 -9.677056e+00
      vertex   5.106022e+00 -2.654243e+00 -9.743595e+00
    endloop
  endfacet
  facet normal 4.690412e-01 -2.695885e-01 -8.410246e-01
    outer loop
      vertex   5.106022e+00 -2.654243e+00 -9.743595e+00
      vertex   5.197885e+00 -2.701997e+00 -9.677056e+00
      vertex   5.080187e+00 -2.933048e+00 -9.668633e+00
    endloop
  endfacet
  facet normal 5.481525e-01 -2.202159e-01 -8.068667e-01
    outer loop
      vertex   6.086856e+00 -2.215434e+00 -9.253904e+00
      vertex   5.892623e+00 -2.436556e+00 -9.325508e+00
      vertex   5.899967e+00 -2.147412e+00 -9.399433e+00
    endloop
  endfacet
  facet normal 5.432730e-01 -2.208872e-01 -8.099773e-01
    outer loop
      vertex   5.899967e+00 -2.147412e+00 -9.399433e+00
      vertex   5.892623e+00 -2.436556e+00 -9.325508e+00
      vertex   5.799713e+00 -2.398139e+00 -9.398301e+00
    endloop
  endfacet
  facet normal 5.347738e-01 -2.175183e-01 -8.165187e-01
    outer loop
      vertex   5.899967e+00 -2.147412e+00 -9.399433e+00
      vertex   5.799713e+00 -2.398139e+00 -9.398301e+00
      vertex   5.706182e+00 -2.359464e+00 -9.469862e+00
    endloop
  endfacet
  facet normal 5.248108e-01 -2.412425e-01 -8.163184e-01
    outer loop
      vertex   5.706182e+00 -2.359464e+00 -9.469862e+00
      vertex   5.799713e+00 -2.398139e+00 -9.398301e+00
      vertex   5.594162e+00 -2.603157e+00 -9.469862e+00
    endloop
  endfacet
  facet normal 5.164407e-01 -2.373950e-01 -8.227591e-01
    outer loop
      vertex   5.706182e+00 -2.359464e+00 -9.469862e+00
      vertex   5.594162e+00 -2.603157e+00 -9.469862e+00
      vertex   5.501875e+00 -2.560213e+00 -9.540181e+00
    endloop
  endfacet
  facet normal 5.055324e-01 -2.604886e-01 -8.225465e-01
    outer loop
      vertex   5.501875e+00 -2.560213e+00 -9.540181e+00
      vertex   5.594162e+00 -2.603157e+00 -9.469862e+00
      vertex   5.380030e+00 -2.796680e+00 -9.540181e+00
    endloop
  endfacet
  facet normal 4.972825e-01 -2.562376e-01 -8.288863e-01
    outer loop
      vertex   5.501875e+00 -2.560213e+00 -9.540181e+00
      vertex   5.380030e+00 -2.796680e+00 -9.540181e+00
      vertex   5.289228e+00 -2.749479e+00 -9.609248e+00
    endloop
  endfacet
  facet normal 4.853249e-01 -2.789046e-01 -8.286567e-01
    outer loop
      vertex   5.289228e+00 -2.749479e+00 -9.609248e+00
      vertex   5.380030e+00 -2.796680e+00 -9.540181e+00
      vertex   5.257303e+00 -3.035305e+00 -9.531744e+00
    endloop
  endfacet
  facet normal 4.811565e-01 -2.790811e-01 -8.310248e-01
    outer loop
      vertex   5.289228e+00 -2.749479e+00 -9.609248e+00
      vertex   5.257303e+00 -3.035305e+00 -9.531744e+00
      vertex   5.080187e+00 -2.933048e+00 -9.668633e+00
    endloop
  endfacet
  facet normal 5.646383e-01 -2.270095e-01 -7.935051e-01
    outer loop
      vertex   6.270692e+00 -2.282345e+00 -9.103948e+00
      vertex   6.076499e+00 -2.512587e+00 -9.176263e+00
      vertex   6.086856e+00 -2.215434e+00 -9.253904e+00
    endloop
  endfacet
  facet normal 5.600247e-01 -2.276532e-01 -7.965842e-01
    outer loop
      vertex   6.086856e+00 -2.215434e+00 -9.253904e+00
      vertex   6.076499e+00 -2.512587e+00 -9.176263e+00
      vertex   5.984891e+00 -2.474708e+00 -9.251491e+00
    endloop
  endfacet
  facet normal 5.516294e-01 -2.244144e-01 -8.033326e-01
    outer loop
      vertex   6.086856e+00 -2.215434e+00 -9.253904e+00
      vertex   5.984891e+00 -2.474708e+00 -9.251491e+00
      vertex   5.892623e+00 -2.436556e+00 -9.325508e+00
    endloop
  endfacet
  facet normal 5.413577e-01 -2.488487e-01 -8.031228e-01
    outer loop
      vertex   5.892623e+00 -2.436556e+00 -9.325508e+00
      vertex   5.984891e+00 -2.474708e+00 -9.251491e+00
      vertex   5.776943e+00 -2.688212e+00 -9.325508e+00
    endloop
  endfacet
  facet normal 5.331170e-01 -2.450607e-01 -8.097725e-01
    outer loop
      vertex   5.892623e+00 -2.436556e+00 -9.325508e+00
      vertex   5.776943e+00 -2.688212e+00 -9.325508e+00
      vertex   5.685857e+00 -2.645827e+00 -9.398301e+00
    endloop
  endfacet
  facet normal 5.218476e-01 -2.688954e-01 -8.095495e-01
    outer loop
      vertex   5.685857e+00 -2.645827e+00 -9.398301e+00
      vertex   5.776943e+00 -2.688212e+00 -9.325508e+00
      vertex   5.559937e+00 -2.890201e+00 -9.398301e+00
    endloop
  endfacet
  facet normal 5.137213e-01 -2.647082e-01 -8.161005e-01
    outer loop
      vertex   5.685857e+00 -2.645827e+00 -9.398301e+00
      vertex   5.559937e+00 -2.890201e+00 -9.398301e+00
      vertex   5.470273e+00 -2.843590e+00 -9.469862e+00
    endloop
  endfacet
  facet normal 5.013839e-01 -2.880732e-01 -8.158603e-01
    outer loop
      vertex   5.470273e+00 -2.843590e+00 -9.469862e+00
      vertex   5.559937e+00 -2.890201e+00 -9.398301e+00
      vertex   5.431736e+00 -3.136014e+00 -9.390292e+00
    endloop
  endfacet
  facet normal 4.972264e-01 -2.882040e-01 -8.183547e-01
    outer loop
      vertex   5.470273e+00 -2.843590e+00 -9.469862e+00
      vertex   5.431736e+00 -3.136014e+00 -9.390292e+00
      vertex   5.257303e+00 -3.035305e+00 -9.531744e+00
    endloop
  endfacet
  facet normal 5.682095e-01 -2.312056e-01 -7.897354e-01
    outer loop
      vertex   6.076499e+00 -2.512587e+00 -9.176263e+00
      vertex   6.270692e+00 -2.282345e+00 -9.103948e+00
      vertex   6.167428e+00 -2.550186e+00 -9.099833e+00
    endloop
  endfacet
  facet normal 5.800734e-01 -2.356260e-01 -7.797405e-01
    outer loop
      vertex   6.167428e+00 -2.550186e+00 -9.099833e+00
      vertex   6.270692e+00 -2.282345e+00 -9.103948e+00
      vertex   6.451412e+00 -2.348122e+00 -8.949629e+00
    endloop
  endfacet
  facet normal 5.803833e-01 -2.364095e-01 -7.792726e-01
    outer loop
      vertex   6.167428e+00 -2.550186e+00 -9.099833e+00
      vertex   6.451412e+00 -2.348122e+00 -8.949629e+00
      vertex   6.347172e+00 -2.624509e+00 -8.943415e+00
    endloop
  endfacet
  facet normal 5.959972e-01 -2.419921e-01 -7.656547e-01
    outer loop
      vertex   6.347172e+00 -2.624509e+00 -8.943415e+00
      vertex   6.451412e+00 -2.348122e+00 -8.949629e+00
      vertex   6.628952e+00 -2.412741e+00 -8.791005e+00
    endloop
  endfacet
  facet normal 5.964300e-01 -2.430525e-01 -7.649815e-01
    outer loop
      vertex   6.347172e+00 -2.624509e+00 -8.943415e+00
      vertex   6.628952e+00 -2.412741e+00 -8.791005e+00
      vertex   6.523979e+00 -2.697617e+00 -8.782337e+00
    endloop
  endfacet
  facet normal 6.116030e-01 -2.482248e-01 -7.512165e-01
    outer loop
      vertex   6.523979e+00 -2.697617e+00 -8.782337e+00
      vertex   6.628952e+00 -2.412741e+00 -8.791005e+00
      vertex   6.803250e+00 -2.476181e+00 -8.628138e+00
    endloop
  endfacet
  facet normal 6.120328e-01 -2.492464e-01 -7.505278e-01
    outer loop
      vertex   6.523979e+00 -2.697617e+00 -8.782337e+00
      vertex   6.803250e+00 -2.476181e+00 -8.628138e+00
      vertex   6.686856e+00 -2.769626e+00 -8.625602e+00
    endloop
  endfacet
  facet normal 6.003283e-01 -2.759561e-01 -7.506358e-01
    outer loop
      vertex   6.523979e+00 -2.697617e+00 -8.782337e+00
      vertex   6.686856e+00 -2.769626e+00 -8.625602e+00
      vertex   6.395905e+00 -2.976236e+00 -8.782337e+00
    endloop
  endfacet
  facet normal 6.006112e-01 -2.767472e-01 -7.501181e-01
    outer loop
      vertex   6.395905e+00 -2.976236e+00 -8.782337e+00
      vertex   6.686856e+00 -2.769626e+00 -8.625602e+00
      vertex   6.557602e+00 -3.057637e+00 -8.622836e+00
    endloop
  endfacet
  facet normal 5.876693e-01 -3.028117e-01 -7.502999e-01
    outer loop
      vertex   6.395905e+00 -2.976236e+00 -8.782337e+00
      vertex   6.557602e+00 -3.057637e+00 -8.622836e+00
      vertex   6.254260e+00 -3.251128e+00 -8.782337e+00
    endloop
  endfacet
  facet normal 5.879109e-01 -3.036139e-01 -7.497863e-01
    outer loop
      vertex   6.254260e+00 -3.251128e+00 -8.782337e+00
      vertex   6.557602e+00 -3.057637e+00 -8.622836e+00
      vertex   6.415754e+00 -3.339654e+00 -8.619862e+00
    endloop
  endfacet
  facet normal 5.739222e-01 -3.292042e-01 -7.498252e-01
    outer loop
      vertex   6.254260e+00 -3.251128e+00 -8.782337e+00
      vertex   6.415754e+00 -3.339654e+00 -8.619862e+00
      vertex   6.101465e+00 -3.522682e+00 -8.780064e+00
    endloop
  endfacet
  facet normal 5.740864e-01 -3.298415e-01 -7.494193e-01
    outer loop
      vertex   6.101465e+00 -3.522682e+00 -8.780064e+00
      vertex   6.415754e+00 -3.339654e+00 -8.619862e+00
      vertex   6.261599e+00 -3.615136e+00 -8.616703e+00
    endloop
  endfacet
  facet normal 5.596371e-01 -3.212845e-01 -7.639257e-01
    outer loop
      vertex   6.101465e+00 -3.522682e+00 -8.780064e+00
      vertex   5.938352e+00 -3.428509e+00 -8.939164e+00
      vertex   6.254260e+00 -3.251128e+00 -8.782337e+00
    endloop
  endfacet
  facet normal 5.595101e-01 -3.207937e-01 -7.642250e-01
    outer loop
      vertex   6.254260e+00 -3.251128e+00 -8.782337e+00
      vertex   5.938352e+00 -3.428509e+00 -8.939164e+00
      vertex   6.084763e+00 -3.163019e+00 -8.943415e+00
    endloop
  endfacet
  facet normal 5.730326e-01 -2.952698e-01 -7.644929e-01
    outer loop
      vertex   6.254260e+00 -3.251128e+00 -8.782337e+00
      vertex   6.084763e+00 -3.163019e+00 -8.943415e+00
      vertex   6.395905e+00 -2.976236e+00 -8.782337e+00
    endloop
  endfacet
  facet normal 5.730326e-01 -2.952698e-01 -7.644929e-01
    outer loop
      vertex   6.395905e+00 -2.976236e+00 -8.782337e+00
      vertex   6.084763e+00 -3.163019e+00 -8.943415e+00
      vertex   6.222569e+00 -2.895577e+00 -8.943415e+00
    endloop
  endfacet
  facet normal 5.854405e-01 -2.691126e-01 -7.647469e-01
    outer loop
      vertex   6.395905e+00 -2.976236e+00 -8.782337e+00
      vertex   6.222569e+00 -2.895577e+00 -8.943415e+00
      vertex   6.523979e+00 -2.697617e+00 -8.782337e+00
    endloop
  endfacet
  facet normal 5.854405e-01 -2.691126e-01 -7.647469e-01
    outer loop
      vertex   6.523979e+00 -2.697617e+00 -8.782337e+00
      vertex   6.222569e+00 -2.895577e+00 -8.943415e+00
      vertex   6.347172e+00 -2.624509e+00 -8.943415e+00
    endloop
  endfacet
  facet normal 5.447135e-01 -3.128556e-01 -7.780801e-01
    outer loop
      vertex   5.938352e+00 -3.428509e+00 -8.939164e+00
      vertex   5.772320e+00 -3.332650e+00 -9.093942e+00
      vertex   6.084763e+00 -3.163019e+00 -8.943415e+00
    endloop
  endfacet
  facet normal 5.445054e-01 -3.120592e-01 -7.785454e-01
    outer loop
      vertex   6.084763e+00 -3.163019e+00 -8.943415e+00
      vertex   5.772320e+00 -3.332650e+00 -9.093942e+00
      vertex   5.912449e+00 -3.073445e+00 -9.099833e+00
    endloop
  endfacet
  facet normal 5.575993e-01 -2.873174e-01 -7.788015e-01
    outer loop
      vertex   6.084763e+00 -3.163019e+00 -8.943415e+00
      vertex   5.912449e+00 -3.073445e+00 -9.099833e+00
      vertex   6.222569e+00 -2.895577e+00 -8.943415e+00
    endloop
  endfacet
  facet normal 5.575993e-01 -2.873174e-01 -7.788015e-01
    outer loop
      vertex   6.222569e+00 -2.895577e+00 -8.943415e+00
      vertex   5.912449e+00 -3.073445e+00 -9.099833e+00
      vertex   6.046353e+00 -2.813578e+00 -9.099833e+00
    endloop
  endfacet
  facet normal 5.696630e-01 -2.618600e-01 -7.790465e-01
    outer loop
      vertex   6.222569e+00 -2.895577e+00 -8.943415e+00
      vertex   6.046353e+00 -2.813578e+00 -9.099833e+00
      vertex   6.347172e+00 -2.624509e+00 -8.943415e+00
    endloop
  endfacet
  facet normal 5.696630e-01 -2.618600e-01 -7.790465e-01
    outer loop
      vertex   6.347172e+00 -2.624509e+00 -8.943415e+00
      vertex   6.046353e+00 -2.813578e+00 -9.099833e+00
      vertex   6.167428e+00 -2.550186e+00 -9.099833e+00
    endloop
  endfacet
  facet normal 5.327685e-01 -3.059521e-01 -7.890190e-01
    outer loop
      vertex   5.912449e+00 -3.073445e+00 -9.099833e+00
      vertex   5.772320e+00 -3.332650e+00 -9.093942e+00
      vertex   5.825280e+00 -3.028133e+00 -9.176263e+00
    endloop
  endfacet
  facet normal 5.284973e-01 -3.059814e-01 -7.918750e-01
    outer loop
      vertex   5.825280e+00 -3.028133e+00 -9.176263e+00
      vertex   5.772320e+00 -3.332650e+00 -9.093942e+00
      vertex   5.603428e+00 -3.235141e+00 -9.244338e+00
    endloop
  endfacet
  facet normal 5.252265e-01 -3.011553e-01 -7.958911e-01
    outer loop
      vertex   5.825280e+00 -3.028133e+00 -9.176263e+00
      vertex   5.603428e+00 -3.235141e+00 -9.244338e+00
      vertex   5.737459e+00 -2.982481e+00 -9.251491e+00
    endloop
  endfacet
  facet normal 5.172032e-01 -2.970903e-01 -8.026445e-01
    outer loop
      vertex   5.737459e+00 -2.982481e+00 -9.251491e+00
      vertex   5.603428e+00 -3.235141e+00 -9.244338e+00
      vertex   5.649006e+00 -2.936501e+00 -9.325508e+00
    endloop
  endfacet
  facet normal 5.299095e-01 -2.730495e-01 -8.028946e-01
    outer loop
      vertex   5.737459e+00 -2.982481e+00 -9.251491e+00
      vertex   5.649006e+00 -2.936501e+00 -9.325508e+00
      vertex   5.867400e+00 -2.730305e+00 -9.251491e+00
    endloop
  endfacet
  facet normal 5.299095e-01 -2.730495e-01 -8.028946e-01
    outer loop
      vertex   5.867400e+00 -2.730305e+00 -9.251491e+00
      vertex   5.649006e+00 -2.936501e+00 -9.325508e+00
      vertex   5.776943e+00 -2.688212e+00 -9.325508e+00
    endloop
  endfacet
  facet normal 5.413577e-01 -2.488487e-01 -8.031228e-01
    outer loop
      vertex   5.867400e+00 -2.730305e+00 -9.251491e+00
      vertex   5.776943e+00 -2.688212e+00 -9.325508e+00
      vertex   5.984891e+00 -2.474708e+00 -9.251491e+00
    endloop
  endfacet
  facet normal 5.130078e-01 -2.971723e-01 -8.053022e-01
    outer loop
      vertex   5.603428e+00 -3.235141e+00 -9.244338e+00
      vertex   5.431736e+00 -3.136014e+00 -9.390292e+00
      vertex   5.649006e+00 -2.936501e+00 -9.325508e+00
    endloop
  endfacet
  facet normal 5.095764e-01 -2.921326e-01 -8.093148e-01
    outer loop
      vertex   5.649006e+00 -2.936501e+00 -9.325508e+00
      vertex   5.431736e+00 -3.136014e+00 -9.390292e+00
      vertex   5.559937e+00 -2.890201e+00 -9.398301e+00
    endloop
  endfacet
  facet normal 5.218476e-01 -2.688954e-01 -8.095495e-01
    outer loop
      vertex   5.649006e+00 -2.936501e+00 -9.325508e+00
      vertex   5.559937e+00 -2.890201e+00 -9.398301e+00
      vertex   5.776943e+00 -2.688212e+00 -9.325508e+00
    endloop
  endfacet
  facet normal 4.775209e-01 -2.736851e-01 -8.349074e-01
    outer loop
      vertex   5.289228e+00 -2.749479e+00 -9.609248e+00
      vertex   5.080187e+00 -2.933048e+00 -9.668633e+00
      vertex   5.197885e+00 -2.701997e+00 -9.677056e+00
    endloop
  endfacet
  facet normal 4.936706e-01 -2.829729e-01 -8.223233e-01
    outer loop
      vertex   5.470273e+00 -2.843590e+00 -9.469862e+00
      vertex   5.257303e+00 -3.035305e+00 -9.531744e+00
      vertex   5.380030e+00 -2.796680e+00 -9.540181e+00
    endloop
  endfacet
  facet normal 4.972825e-01 -2.562376e-01 -8.288863e-01
    outer loop
      vertex   5.501875e+00 -2.560213e+00 -9.540181e+00
      vertex   5.289228e+00 -2.749479e+00 -9.609248e+00
      vertex   5.409017e+00 -2.517003e+00 -9.609248e+00
    endloop
  endfacet
  facet normal 4.889732e-01 -2.519560e-01 -8.351188e-01
    outer loop
      vertex   5.409017e+00 -2.517003e+00 -9.609248e+00
      vertex   5.289228e+00 -2.749479e+00 -9.609248e+00
      vertex   5.197885e+00 -2.701997e+00 -9.677056e+00
    endloop
  endfacet
  facet normal 5.137213e-01 -2.647082e-01 -8.161005e-01
    outer loop
      vertex   5.685857e+00 -2.645827e+00 -9.398301e+00
      vertex   5.470273e+00 -2.843590e+00 -9.469862e+00
      vertex   5.594162e+00 -2.603157e+00 -9.469862e+00
    endloop
  endfacet
  facet normal 5.055324e-01 -2.604886e-01 -8.225465e-01
    outer loop
      vertex   5.594162e+00 -2.603157e+00 -9.469862e+00
      vertex   5.470273e+00 -2.843590e+00 -9.469862e+00
      vertex   5.380030e+00 -2.796680e+00 -9.540181e+00
    endloop
  endfacet
  facet normal 5.458342e-01 -2.812551e-01 -7.892785e-01
    outer loop
      vertex   6.046353e+00 -2.813578e+00 -9.099833e+00
      vertex   5.912449e+00 -3.073445e+00 -9.099833e+00
      vertex   5.825280e+00 -3.028133e+00 -9.176263e+00
    endloop
  endfacet
  facet normal 5.379056e-01 -2.771697e-01 -7.961372e-01
    outer loop
      vertex   5.825280e+00 -3.028133e+00 -9.176263e+00
      vertex   5.737459e+00 -2.982481e+00 -9.251491e+00
      vertex   5.957209e+00 -2.772096e+00 -9.176263e+00
    endloop
  endfacet
  facet normal 5.379056e-01 -2.771697e-01 -7.961372e-01
    outer loop
      vertex   5.957209e+00 -2.772096e+00 -9.176263e+00
      vertex   5.737459e+00 -2.982481e+00 -9.251491e+00
      vertex   5.867400e+00 -2.730305e+00 -9.251491e+00
    endloop
  endfacet
  facet normal 5.495312e-01 -2.526059e-01 -7.963703e-01
    outer loop
      vertex   5.957209e+00 -2.772096e+00 -9.176263e+00
      vertex   5.867400e+00 -2.730305e+00 -9.251491e+00
      vertex   6.076499e+00 -2.512587e+00 -9.176263e+00
    endloop
  endfacet
  facet normal 5.495312e-01 -2.526059e-01 -7.963703e-01
    outer loop
      vertex   6.076499e+00 -2.512587e+00 -9.176263e+00
      vertex   5.867400e+00 -2.730305e+00 -9.251491e+00
      vertex   5.984891e+00 -2.474708e+00 -9.251491e+00
    endloop
  endfacet
  facet normal 4.806062e-01 -2.476447e-01 -8.412430e-01
    outer loop
      vertex   5.106022e+00 -2.654243e+00 -9.743595e+00
      vertex   5.221661e+00 -2.429820e+00 -9.743595e+00
      vertex   5.315606e+00 -2.473536e+00 -9.677056e+00
    endloop
  endfacet
  facet normal 4.909645e-01 -2.256842e-01 -8.414395e-01
    outer loop
      vertex   5.315606e+00 -2.473536e+00 -9.677056e+00
      vertex   5.221661e+00 -2.429820e+00 -9.743595e+00
      vertex   5.422048e+00 -2.241977e+00 -9.677056e+00
    endloop
  endfacet
  facet normal 4.995158e-01 -2.296151e-01 -8.353208e-01
    outer loop
      vertex   5.315606e+00 -2.473536e+00 -9.677056e+00
      vertex   5.422048e+00 -2.241977e+00 -9.677056e+00
      vertex   5.517329e+00 -2.281375e+00 -9.609248e+00
    endloop
  endfacet
  facet normal 5.164407e-01 -2.373950e-01 -8.227591e-01
    outer loop
      vertex   5.706182e+00 -2.359464e+00 -9.469862e+00
      vertex   5.501875e+00 -2.560213e+00 -9.540181e+00
      vertex   5.612047e+00 -2.320540e+00 -9.540181e+00
    endloop
  endfacet
  facet normal 5.080085e-01 -2.335189e-01 -8.290937e-01
    outer loop
      vertex   5.612047e+00 -2.320540e+00 -9.540181e+00
      vertex   5.501875e+00 -2.560213e+00 -9.540181e+00
      vertex   5.409017e+00 -2.517003e+00 -9.609248e+00
    endloop
  endfacet
  facet normal 5.331170e-01 -2.450607e-01 -8.097725e-01
    outer loop
      vertex   5.892623e+00 -2.436556e+00 -9.325508e+00
      vertex   5.685857e+00 -2.645827e+00 -9.398301e+00
      vertex   5.799713e+00 -2.398139e+00 -9.398301e+00
    endloop
  endfacet
  facet normal 5.248108e-01 -2.412425e-01 -8.163184e-01
    outer loop
      vertex   5.799713e+00 -2.398139e+00 -9.398301e+00
      vertex   5.685857e+00 -2.645827e+00 -9.398301e+00
      vertex   5.594162e+00 -2.603157e+00 -9.469862e+00
    endloop
  endfacet
  facet normal 5.576360e-01 -2.563315e-01 -7.895164e-01
    outer loop
      vertex   6.167428e+00 -2.550186e+00 -9.099833e+00
      vertex   6.046353e+00 -2.813578e+00 -9.099833e+00
      vertex   5.957209e+00 -2.772096e+00 -9.176263e+00
    endloop
  endfacet
  facet normal 5.458342e-01 -2.812551e-01 -7.892785e-01
    outer loop
      vertex   5.957209e+00 -2.772096e+00 -9.176263e+00
      vertex   6.046353e+00 -2.813578e+00 -9.099833e+00
      vertex   5.825280e+00 -3.028133e+00 -9.176263e+00
    endloop
  endfacet
  facet normal 5.576360e-01 -2.563315e-01 -7.895164e-01
    outer loop
      vertex   6.167428e+00 -2.550186e+00 -9.099833e+00
      vertex   5.957209e+00 -2.772096e+00 -9.176263e+00
      vertex   6.076499e+00 -2.512587e+00 -9.176263e+00
    endloop
  endfacet
  facet normal -5.000000e-01 -8.660254e-01 -1.316685e-15
    outer loop
      vertex   4.900450e+00 -2.829276e+00 -9.800899e+00
      vertex   5.080187e+00 -2.933048e+00 -9.668633e+00
      vertex   0.000000e+00 0.000000e+00 0.000000e+00
    endloop
  endfacet
  facet normal -5.000000e-01 -8.660254e-01 1.916667e-15
    outer loop
      vertex   0.000000e+00 0.000000e+00 0.000000e+00
      vertex   5.080187e+00 -2.933048e+00 -9.668633e+00
      vertex   5.257303e+00 -3.035305e+00 -9.531744e+00
    endloop
  endfacet
  facet normal -5.000000e-01 -8.660254e-01 0.000000e+00
    outer loop
      vertex   0.000000e+00 0.000000e+00 0.000000e+00
      vertex   5.257303e+00 -3.035305e+00 -9.531744e+00
      vertex   5.431736e+00 -3.136014e+00 -9.390292e+00
    endloop
  endfacet
  facet normal -5.000000e-01 -8.660254e-01 1.199342e-16
    outer loop
      vertex   5.431736e+00 -3.136014e+00 -9.390292e+00
      vertex   5.603428e+00 -3.235141e+00 -9.244338e+00
      vertex   0.000000e+00 0.000000e+00 0.000000e+00
    endloop
  endfacet
  facet normal -5.000000e-01 -8.660254e-01 2.559656e-15
    outer loop
      vertex   0.000000e+00 0.000000e+00 0.000000e+00
      vertex   5.603428e+00 -3.235141e+00 -9.244338e+00
      vertex   5.772320e+00 -3.332650e+00 -9.093942e+00
    endloop
  endfacet
  facet normal -5.000000e-01 -8.660254e-01 1.280207e-15
    outer loop
      vertex   0.000000e+00 0.000000e+00 0.000000e+00
      vertex   5.772320e+00 -3.332650e+00 -9.093942e+00
      vertex   5.938352e+00 -3.428509e+00 -8.939164e+00
    endloop
  endfacet
  facet normal -5.000000e-01 -8.660254e-01 -5.601908e-16
    outer loop
      vertex   5.938352e+00 -3.428509e+00 -8.939164e+00
      vertex   6.101465e+00 -3.522682e+00 -8.780064e+00
      vertex   0.000000e+00 0.000000e+00 0.000000e+00
    endloop
  endfacet
  facet normal -5.000000e-01 -8.660254e-01 -2.561029e-15
    outer loop
      vertex   0.000000e+00 0.000000e+00 0.000000e+00
      vertex   6.101465e+00 -3.522682e+00 -8.780064e+00
      vertex   6.261599e+00 -3.615136e+00 -8.616703e+00
    endloop
  endfacet
  facet normal 6.716797e-01 -3.684914e-01 6.426978e-01
    outer loop
      vertex   0.000000e+00 0.000000e+00 0.000000e+00
      vertex   6.261599e+00 -3.615136e+00 -8.616703e+00
      vertex   3.210939e+00 -1.671465e+00 -4.314069e+00
    endloop
  endfacet
  facet normal 6.716817e-01 -3.684879e-01 6.426977e-01
    outer loop
      vertex   3.210939e+00 -1.671465e+00 -4.314069e+00
      vertex   6.261599e+00 -3.615136e+00 -8.616703e+00
      vertex   6.415754e+00 -3.339654e+00 -8.619862e+00
    endloop
  endfacet
  facet normal 6.871160e-01 -3.388375e-01 6.426980e-01
    outer loop
      vertex   3.210939e+00 -1.671465e+00 -4.314069e+00
      vertex   6.415754e+00 -3.339654e+00 -8.619862e+00
      vertex   3.280795e+00 -1.529804e+00 -4.314069e+00
    endloop
  endfacet
  facet normal 6.871205e-01 -3.388291e-01 6.426977e-01
    outer loop
      vertex   3.280795e+00 -1.529804e+00 -4.314069e+00
      vertex   6.415754e+00 -3.339654e+00 -8.619862e+00
      vertex   6.557602e+00 -3.057637e+00 -8.622836e+00
    endloop
  endfacet
  facet normal 7.012418e-01 -3.085436e-01 6.426981e-01
    outer loop
      vertex   3.280795e+00 -1.529804e+00 -4.314069e+00
      vertex   6.557602e+00 -3.057637e+00 -8.622836e+00
      vertex   3.344397e+00 -1.385254e+00 -4.314069e+00
    endloop
  endfacet
  facet normal 7.012457e-01 -3.085353e-01 6.426978e-01
    outer loop
      vertex   3.344397e+00 -1.385254e+00 -4.314069e+00
      vertex   6.557602e+00 -3.057637e+00 -8.622836e+00
      vertex   6.686856e+00 -2.769626e+00 -8.625602e+00
    endloop
  endfacet
  facet normal 7.140324e-01 -2.776634e-01 6.426980e-01
    outer loop
      vertex   3.344397e+00 -1.385254e+00 -4.314069e+00
      vertex   6.686856e+00 -2.769626e+00 -8.625602e+00
      vertex   6.803250e+00 -2.476181e+00 -8.628138e+00
    endloop
  endfacet
  facet normal 7.140311e-01 -2.776672e-01 6.426979e-01
    outer loop
      vertex   6.803250e+00 -2.476181e+00 -8.628138e+00
      vertex   0.000000e+00 0.000000e+00 0.000000e+00
      vertex   3.344397e+00 -1.385254e+00 -4.314069e+00
    endloop
  endfacet
  facet normal 7.012419e-01 -3.085437e-01 6.426978e-01
    outer loop
      vertex   3.344397e+00 -1.385254e+00 -4.314069e+00
      vertex   0.000000e+00 0.000000e+00 0.000000e+00
      vertex   3.280795e+00 -1.529804e+00 -4.314069e+00
    endloop
  endfacet
  facet normal 6.871161e-01 -3.388376e-01 6.426978e-01
    outer loop
      vertex   3.280795e+00 -1.529804e+00 -4.314069e+00
      vertex   0.000000e+00 0.000000e+00 0.000000e+00
      vertex   3.210939e+00 -1.671465e+00 -4.314069e+00
    endloop
  endfacet
  facet normal -8.071924e-01 3.138941e-01 -4.999109e-01
    outer loop
      vertex   5.231152e+00 -2.166737e+00 -9.807095e+00
      vertex   3.488056e+00 -1.444766e+00 -6.539240e+00
      vertex   5.321618e+00 -1.936911e+00 -9.808860e+00
    endloop
  endfacet
  facet normal -8.071920e-01 3.138953e-01 -4.999108e-01
    outer loop
      vertex   5.321618e+00 -1.936911e+00 -9.808860e+00
      vertex   3.488056e+00 -1.444766e+00 -6.539240e+00
      vertex   1.744025e+00 -7.223903e-01 -3.269620e+00
    endloop
  endfacet
  facet normal -8.071912e-01 3.138975e-01 -4.999108e-01
    outer loop
      vertex   5.321618e+00 -1.936911e+00 -9.808860e+00
      vertex   1.744025e+00 -7.223903e-01 -3.269620e+00
      vertex   0.000000e+00 0.000000e+00 0.000000e+00
    endloop
  endfacet
  facet normal -7.927319e-01 3.488057e-01 -4.999108e-01
    outer loop
      vertex   0.000000e+00 0.000000e+00 0.000000e+00
      vertex   1.744025e+00 -7.223903e-01 -3.269620e+00
      vertex   1.710856e+00 -7.977736e-01 -3.269620e+00
    endloop
  endfacet
  facet normal -7.927353e-01 3.487980e-01 -4.999107e-01
    outer loop
      vertex   5.231152e+00 -2.166737e+00 -9.807095e+00
      vertex   5.130665e+00 -2.392363e+00 -9.805170e+00
      vertex   3.488056e+00 -1.444766e+00 -6.539240e+00
    endloop
  endfacet
  facet normal -7.927335e-01 3.488018e-01 -4.999109e-01
    outer loop
      vertex   3.488056e+00 -1.444766e+00 -6.539240e+00
      vertex   5.130665e+00 -2.392363e+00 -9.805170e+00
      vertex   3.421721e+00 -1.595528e+00 -6.539240e+00
    endloop
  endfacet
  facet normal -7.927336e-01 3.488018e-01 -4.999107e-01
    outer loop
      vertex   3.488056e+00 -1.444766e+00 -6.539240e+00
      vertex   3.421721e+00 -1.595528e+00 -6.539240e+00
      vertex   1.744025e+00 -7.223903e-01 -3.269620e+00
    endloop
  endfacet
  facet normal -7.927318e-01 3.488057e-01 -4.999109e-01
    outer loop
      vertex   1.744025e+00 -7.223903e-01 -3.269620e+00
      vertex   3.421721e+00 -1.595528e+00 -6.539240e+00
      vertex   1.710856e+00 -7.977736e-01 -3.269620e+00
    endloop
  endfacet
  facet normal -7.767666e-01 3.830443e-01 -4.999106e-01
    outer loop
      vertex   5.130665e+00 -2.392363e+00 -9.805170e+00
      vertex   5.020358e+00 -2.613349e+00 -9.803100e+00
      vertex   3.421721e+00 -1.595528e+00 -6.539240e+00
    endloop
  endfacet
  facet normal -7.767646e-01 3.830482e-01 -4.999109e-01
    outer loop
      vertex   3.421721e+00 -1.595528e+00 -6.539240e+00
      vertex   5.020358e+00 -2.613349e+00 -9.803100e+00
      vertex   3.348864e+00 -1.743271e+00 -6.539240e+00
    endloop
  endfacet
  facet normal -7.767647e-01 3.830482e-01 -4.999107e-01
    outer loop
      vertex   3.421721e+00 -1.595528e+00 -6.539240e+00
      vertex   3.348864e+00 -1.743271e+00 -6.539240e+00
      vertex   1.710856e+00 -7.977736e-01 -3.269620e+00
    endloop
  endfacet
  facet normal -7.767627e-01 3.830521e-01 -4.999108e-01
    outer loop
      vertex   1.710856e+00 -7.977736e-01 -3.269620e+00
      vertex   3.348864e+00 -1.743271e+00 -6.539240e+00
      vertex   1.674428e+00 -8.716429e-01 -3.269620e+00
    endloop
  endfacet
  facet normal -7.767627e-01 3.830521e-01 -4.999107e-01
    outer loop
      vertex   1.710856e+00 -7.977736e-01 -3.269620e+00
      vertex   1.674428e+00 -8.716429e-01 -3.269620e+00
      vertex   0.000000e+00 0.000000e+00 0.000000e+00
    endloop
  endfacet
  facet normal -7.593156e-01 4.165684e-01 -4.999106e-01
    outer loop
      vertex   5.020358e+00 -2.613349e+00 -9.803100e+00
      vertex   4.900450e+00 -2.829276e+00 -9.800899e+00
      vertex   3.348864e+00 -1.743271e+00 -6.539240e+00
    endloop
  endfacet
  facet normal -7.593150e-01 4.165694e-01 -4.999107e-01
    outer loop
      vertex   3.348864e+00 -1.743271e+00 -6.539240e+00
      vertex   4.900450e+00 -2.829276e+00 -9.800899e+00
      vertex   1.674428e+00 -8.716429e-01 -3.269620e+00
    endloop
  endfacet
  facet normal -7.593137e-01 4.165716e-01 -4.999107e-01
    outer loop
      vertex   4.900450e+00 -2.829276e+00 -9.800899e+00
      vertex   0.000000e+00 0.000000e+00 0.000000e+00
      vertex   1.674428e+00 -8.716429e-01 -3.269620e+00
    endloop
  endfacet
endsolid
