solid ASCII
  facet normal -1.736482e-01 9.848078e-01 6.348997e-15
    outer loop
      vertex   1.027891e+01 1.812449e+00 -3.798931e+00
      vertex   0.000000e+00 0.000000e+00 0.000000e+00
      vertex   1.035364e+01 1.825627e+00 -3.568965e+00
    endloop
  endfacet
  facet normal -1.736482e-01 9.848078e-01 -1.126143e-15
    outer loop
      vertex   1.035364e+01 1.825627e+00 -3.568965e+00
      vertex   0.000000e+00 0.000000e+00 0.000000e+00
      vertex   1.042364e+01 1.837970e+00 -3.337565e+00
    endloop
  endfacet
  facet normal -1.736482e-01 9.848078e-01 -2.377834e-15
    outer loop
      vertex   1.042364e+01 1.837970e+00 -3.337565e+00
      vertex   0.000000e+00 0.000000e+00 0.000000e+00
      vertex   1.048890e+01 1.849476e+00 -3.104812e+00
    endloop
  endfacet
  facet normal -1.736482e-01 9.848078e-01 3.579042e-15
    outer loop
      vertex   1.048890e+01 1.849476e+00 -3.104812e+00
      vertex   0.000000e+00 0.000000e+00 0.000000e+00
      vertex   1.054939e+01 1.860142e+00 -2.870787e+00
    endloop
  endfacet
  facet normal -1.736482e-01 9.848078e-01 -1.443620e-15
    outer loop
      vertex   1.054939e+01 1.860142e+00 -2.870787e+00
      vertex   0.000000e+00 0.000000e+00 0.000000e+00
      vertex   1.060511e+01 1.869967e+00 -2.635572e+00
    endloop
  endfacet
  facet normal -1.736482e-01 9.848078e-01 1.884036e-15
    outer loop
      vertex   1.060511e+01 1.869967e+00 -2.635572e+00
      vertex   0.000000e+00 0.000000e+00 0.000000e+00
      vertex   1.065604e+01 1.878947e+00 -2.399247e+00
    endloop
  endfacet
  facet normal -1.736482e-01 9.848078e-01 -1.651465e-15
    outer loop
      vertex   1.065604e+01 1.878947e+00 -2.399247e+00
      vertex   0.000000e+00 0.000000e+00 0.000000e+00
      vertex   1.070217e+01 1.887081e+00 -2.161892e+00
    endloop
  endfacet
  facet normal -1.736482e-01 9.848078e-01 1.228106e-14
    outer loop
      vertex   1.070217e+01 1.887081e+00 -2.161892e+00
      vertex   0.000000e+00 0.000000e+00 0.000000e+00
      vertex   1.074348e+01 1.894365e+00 -1.923589e+00
    endloop
  endfacet
  facet normal 9.494971e-01 2.027763e-03 -3.137692e-01
    outer loop
      vertex   1.052005e+01 -3.107859e-15 -3.571222e+00
      vertex   1.044401e+01 -2.907981e-15 -3.801310e+00
      vertex   1.050671e+01 1.110078e-01 -3.610859e+00
    endloop
  endfacet
  facet normal 9.479046e-01 1.082128e-02 -3.183703e-01
    outer loop
      vertex   1.050671e+01 1.110078e-01 -3.610859e+00
      vertex   1.044401e+01 -2.907981e-15 -3.801310e+00
      vertex   1.044143e+01 2.278047e-01 -3.801273e+00
    endloop
  endfacet
  facet normal 9.487515e-01 1.576245e-02 -3.156299e-01
    outer loop
      vertex   1.050671e+01 1.110078e-01 -3.610859e+00
      vertex   1.044143e+01 2.278047e-01 -3.801273e+00
      vertex   1.050486e+01 2.224941e-01 -3.610859e+00
    endloop
  endfacet
  facet normal 9.486287e-01 2.632554e-02 -3.152944e-01
    outer loop
      vertex   1.050486e+01 2.224941e-01 -3.610859e+00
      vertex   1.044143e+01 2.278047e-01 -3.801273e+00
      vertex   1.050175e+01 3.344422e-01 -3.610859e+00
    endloop
  endfacet
  facet normal 9.538445e-01 2.647029e-02 -2.991320e-01
    outer loop
      vertex   1.050486e+01 2.224941e-01 -3.610859e+00
      vertex   1.050175e+01 3.344422e-01 -3.610859e+00
      vertex   1.056153e+01 3.363458e-01 -3.420082e+00
    endloop
  endfacet
  facet normal 9.534904e-01 3.713228e-02 -2.991274e-01
    outer loop
      vertex   1.056153e+01 3.363458e-01 -3.420082e+00
      vertex   1.050175e+01 3.344422e-01 -3.610859e+00
      vertex   1.055713e+01 4.493782e-01 -3.420082e+00
    endloop
  endfacet
  facet normal 9.584528e-01 3.732553e-02 -2.827987e-01
    outer loop
      vertex   1.056153e+01 3.363458e-01 -3.420082e+00
      vertex   1.055713e+01 4.493782e-01 -3.420082e+00
      vertex   1.061339e+01 4.517731e-01 -3.229077e+00
    endloop
  endfacet
  facet normal 9.576926e-01 5.349541e-02 -2.827775e-01
    outer loop
      vertex   1.061339e+01 4.517731e-01 -3.229077e+00
      vertex   1.055713e+01 4.493782e-01 -3.420082e+00
      vertex   1.060063e+01 6.803189e-01 -3.229077e+00
    endloop
  endfacet
  facet normal 9.623489e-01 5.375550e-02 -2.664488e-01
    outer loop
      vertex   1.061339e+01 4.517731e-01 -3.229077e+00
      vertex   1.060063e+01 6.803189e-01 -3.229077e+00
      vertex   1.065336e+01 6.837031e-01 -3.037938e+00
    endloop
  endfacet
  facet normal 9.608899e-01 7.552993e-02 -2.664318e-01
    outer loop
      vertex   1.065336e+01 6.837031e-01 -3.037938e+00
      vertex   1.060063e+01 6.803189e-01 -3.229077e+00
      vertex   1.063518e+01 9.149701e-01 -3.037938e+00
    endloop
  endfacet
  facet normal 9.661965e-01 7.594705e-02 -2.463664e-01
    outer loop
      vertex   1.065336e+01 6.837031e-01 -3.037938e+00
      vertex   1.063518e+01 9.149701e-01 -3.037938e+00
      vertex   1.070589e+01 9.210530e-01 -2.758774e+00
    endloop
  endfacet
  facet normal 9.642168e-01 9.797984e-02 -2.463451e-01
    outer loop
      vertex   1.070589e+01 9.210530e-01 -2.758774e+00
      vertex   1.063518e+01 9.149701e-01 -3.037938e+00
      vertex   1.068208e+01 1.155294e+00 -2.758774e+00
    endloop
  endfacet
  facet normal 9.699275e-01 9.856014e-02 -2.225457e-01
    outer loop
      vertex   1.070589e+01 9.210530e-01 -2.758774e+00
      vertex   1.068208e+01 1.155294e+00 -2.758774e+00
      vertex   1.074539e+01 1.162141e+00 -2.479811e+00
    endloop
  endfacet
  facet normal 9.674093e-01 1.208452e-01 -2.225212e-01
    outer loop
      vertex   1.074539e+01 1.162141e+00 -2.479811e+00
      vertex   1.068208e+01 1.155294e+00 -2.758774e+00
      vertex   1.071580e+01 1.399047e+00 -2.479811e+00
    endloop
  endfacet
  facet normal 9.724866e-01 1.214795e-01 -1.987776e-01
    outer loop
      vertex   1.074539e+01 1.162141e+00 -2.479811e+00
      vertex   1.071580e+01 1.399047e+00 -2.479811e+00
      vertex   1.077181e+01 1.406360e+00 -2.201327e+00
    endloop
  endfacet
  facet normal 9.694153e-01 1.439861e-01 -1.987508e-01
    outer loop
      vertex   1.077181e+01 1.406360e+00 -2.201327e+00
      vertex   1.071580e+01 1.399047e+00 -2.479811e+00
      vertex   1.073627e+01 1.645613e+00 -2.201327e+00
    endloop
  endfacet
  facet normal 9.737877e-01 1.446355e-01 -1.755506e-01
    outer loop
      vertex   1.077181e+01 1.406360e+00 -2.201327e+00
      vertex   1.073627e+01 1.645613e+00 -2.201327e+00
      vertex   1.081912e+01 1.424229e+00 -1.924161e+00
    endloop
  endfacet
  facet normal 9.737833e-01 1.455203e-01 -1.748425e-01
    outer loop
      vertex   1.081912e+01 1.424229e+00 -1.924161e+00
      vertex   1.073627e+01 1.645613e+00 -2.201327e+00
      vertex   1.078398e+01 1.659710e+00 -1.923895e+00
    endloop
  endfacet
  facet normal 9.704698e-01 1.657069e-01 -1.752985e-01
    outer loop
      vertex   1.078398e+01 1.659710e+00 -1.923895e+00
      vertex   1.073627e+01 1.645613e+00 -2.201327e+00
      vertex   1.070217e+01 1.887081e+00 -2.161892e+00
    endloop
  endfacet
  facet normal 9.704695e-01 1.677191e-01 -1.733761e-01
    outer loop
      vertex   1.078398e+01 1.659710e+00 -1.923895e+00
      vertex   1.070217e+01 1.887081e+00 -2.161892e+00
      vertex   1.074348e+01 1.894365e+00 -1.923589e+00
    endloop
  endfacet
  facet normal 9.474193e-01 3.245608e-02 -3.183445e-01
    outer loop
      vertex   1.044143e+01 2.278047e-01 -3.801273e+00
      vertex   1.043367e+01 4.554600e-01 -3.801160e+00
      vertex   1.050175e+01 3.344422e-01 -3.610859e+00
    endloop
  endfacet
  facet normal 9.481220e-01 3.692322e-02 -3.157551e-01
    outer loop
      vertex   1.050175e+01 3.344422e-01 -3.610859e+00
      vertex   1.043367e+01 4.554600e-01 -3.801160e+00
      vertex   1.049738e+01 4.468348e-01 -3.610859e+00
    endloop
  endfacet
  facet normal 9.534904e-01 3.713228e-02 -2.991274e-01
    outer loop
      vertex   1.050175e+01 3.344422e-01 -3.610859e+00
      vertex   1.049738e+01 4.468348e-01 -3.610859e+00
      vertex   1.055713e+01 4.493782e-01 -3.420082e+00
    endloop
  endfacet
  facet normal 9.527349e-01 5.321848e-02 -2.991052e-01
    outer loop
      vertex   1.055713e+01 4.493782e-01 -3.420082e+00
      vertex   1.049738e+01 4.468348e-01 -3.610859e+00
      vertex   1.054443e+01 6.767123e-01 -3.420082e+00
    endloop
  endfacet
  facet normal 9.576926e-01 5.349541e-02 -2.827775e-01
    outer loop
      vertex   1.055713e+01 4.493782e-01 -3.420082e+00
      vertex   1.054443e+01 6.767123e-01 -3.420082e+00
      vertex   1.060063e+01 6.803189e-01 -3.229077e+00
    endloop
  endfacet
  facet normal 9.562412e-01 7.516453e-02 -2.827596e-01
    outer loop
      vertex   1.060063e+01 6.803189e-01 -3.229077e+00
      vertex   1.054443e+01 6.767123e-01 -3.420082e+00
      vertex   1.058254e+01 9.104412e-01 -3.229077e+00
    endloop
  endfacet
  facet normal 9.608899e-01 7.552993e-02 -2.664318e-01
    outer loop
      vertex   1.060063e+01 6.803189e-01 -3.229077e+00
      vertex   1.058254e+01 9.104412e-01 -3.229077e+00
      vertex   1.063518e+01 9.149701e-01 -3.037938e+00
    endloop
  endfacet
  facet normal 9.589220e-01 9.744180e-02 -2.664090e-01
    outer loop
      vertex   1.063518e+01 9.149701e-01 -3.037938e+00
      vertex   1.058254e+01 9.104412e-01 -3.229077e+00
      vertex   1.061154e+01 1.147664e+00 -3.037938e+00
    endloop
  endfacet
  facet normal 9.642168e-01 9.797984e-02 -2.463451e-01
    outer loop
      vertex   1.063518e+01 9.149701e-01 -3.037938e+00
      vertex   1.061154e+01 1.147664e+00 -3.037938e+00
      vertex   1.068208e+01 1.155294e+00 -2.758774e+00
    endloop
  endfacet
  facet normal 9.617147e-01 1.201339e-01 -2.463183e-01
    outer loop
      vertex   1.068208e+01 1.155294e+00 -2.758774e+00
      vertex   1.061154e+01 1.147664e+00 -3.037938e+00
      vertex   1.065266e+01 1.390804e+00 -2.758774e+00
    endloop
  endfacet
  facet normal 9.674093e-01 1.208452e-01 -2.225212e-01
    outer loop
      vertex   1.068208e+01 1.155294e+00 -2.758774e+00
      vertex   1.065266e+01 1.390804e+00 -2.758774e+00
      vertex   1.071580e+01 1.399047e+00 -2.479811e+00
    endloop
  endfacet
  facet normal 9.643554e-01 1.432345e-01 -2.224916e-01
    outer loop
      vertex   1.071580e+01 1.399047e+00 -2.479811e+00
      vertex   1.065266e+01 1.390804e+00 -2.758774e+00
      vertex   1.068045e+01 1.637056e+00 -2.479811e+00
    endloop
  endfacet
  facet normal 9.694153e-01 1.439861e-01 -1.987508e-01
    outer loop
      vertex   1.071580e+01 1.399047e+00 -2.479811e+00
      vertex   1.068045e+01 1.637056e+00 -2.479811e+00
      vertex   1.073627e+01 1.645613e+00 -2.201327e+00
    endloop
  endfacet
  facet normal 9.662850e-01 1.637071e-01 -1.987293e-01
    outer loop
      vertex   1.073627e+01 1.645613e+00 -2.201327e+00
      vertex   1.068045e+01 1.637056e+00 -2.479811e+00
      vertex   1.065604e+01 1.878947e+00 -2.399247e+00
    endloop
  endfacet
  facet normal 9.665623e-01 1.681454e-01 -1.936092e-01
    outer loop
      vertex   1.073627e+01 1.645613e+00 -2.201327e+00
      vertex   1.065604e+01 1.878947e+00 -2.399247e+00
      vertex   1.070217e+01 1.887081e+00 -2.161892e+00
    endloop
  endfacet
  facet normal 9.476564e-01 5.293480e-02 -3.148735e-01
    outer loop
      vertex   1.049738e+01 4.468348e-01 -3.610859e+00
      vertex   1.043367e+01 4.554600e-01 -3.801160e+00
      vertex   1.048475e+01 6.728823e-01 -3.610859e+00
    endloop
  endfacet
  facet normal 9.471846e-01 5.411099e-02 -3.160907e-01
    outer loop
      vertex   1.048475e+01 6.728823e-01 -3.610859e+00
      vertex   1.043367e+01 4.554600e-01 -3.801160e+00
      vertex   1.042074e+01 6.828814e-01 -3.800973e+00
    endloop
  endfacet
  facet normal 9.462672e-01 7.438053e-02 -3.147157e-01
    outer loop
      vertex   1.048475e+01 6.728823e-01 -3.610859e+00
      vertex   1.042074e+01 6.828814e-01 -3.800973e+00
      vertex   1.046686e+01 9.004891e-01 -3.610859e+00
    endloop
  endfacet
  facet normal 9.456999e-01 7.571077e-02 -3.161007e-01
    outer loop
      vertex   1.046686e+01 9.004891e-01 -3.610859e+00
      vertex   1.042074e+01 6.828814e-01 -3.800973e+00
      vertex   1.040264e+01 9.099840e-01 -3.800711e+00
    endloop
  endfacet
  facet normal 9.443508e-01 9.596114e-02 -3.146316e-01
    outer loop
      vertex   1.046686e+01 9.004891e-01 -3.610859e+00
      vertex   1.040264e+01 9.099840e-01 -3.800711e+00
      vertex   1.044359e+01 1.129500e+00 -3.610859e+00
    endloop
  endfacet
  facet normal 9.437543e-01 9.727007e-02 -3.160164e-01
    outer loop
      vertex   1.044359e+01 1.129500e+00 -3.610859e+00
      vertex   1.040264e+01 9.099840e-01 -3.800711e+00
      vertex   1.037940e+01 1.136610e+00 -3.800375e+00
    endloop
  endfacet
  facet normal 9.418967e-01 1.176583e-01 -3.146223e-01
    outer loop
      vertex   1.044359e+01 1.129500e+00 -3.610859e+00
      vertex   1.037940e+01 1.136610e+00 -3.800375e+00
      vertex   1.041483e+01 1.359753e+00 -3.610859e+00
    endloop
  endfacet
  facet normal 9.413505e-01 1.187750e-01 -3.158350e-01
    outer loop
      vertex   1.041483e+01 1.359753e+00 -3.610859e+00
      vertex   1.037940e+01 1.136610e+00 -3.800375e+00
      vertex   1.035102e+01 1.362619e+00 -3.799966e+00
    endloop
  endfacet
  facet normal 9.388937e-01 1.394527e-01 -3.146927e-01
    outer loop
      vertex   1.041483e+01 1.359753e+00 -3.610859e+00
      vertex   1.035102e+01 1.362619e+00 -3.799966e+00
      vertex   1.038047e+01 1.591076e+00 -3.610859e+00
    endloop
  endfacet
  facet normal 9.384916e-01 1.402158e-01 -3.155519e-01
    outer loop
      vertex   1.038047e+01 1.591076e+00 -3.610859e+00
      vertex   1.035102e+01 1.362619e+00 -3.799966e+00
      vertex   1.031752e+01 1.587926e+00 -3.799484e+00
    endloop
  endfacet
  facet normal 9.352864e-01 1.616028e-01 -3.148394e-01
    outer loop
      vertex   1.038047e+01 1.591076e+00 -3.610859e+00
      vertex   1.031752e+01 1.587926e+00 -3.799484e+00
      vertex   1.027891e+01 1.812449e+00 -3.798931e+00
    endloop
  endfacet
  facet normal 9.355426e-01 1.629673e-01 -3.133716e-01
    outer loop
      vertex   1.027891e+01 1.812449e+00 -3.798931e+00
      vertex   1.035364e+01 1.825627e+00 -3.568965e+00
      vertex   1.038047e+01 1.591076e+00 -3.610859e+00
    endloop
  endfacet
  facet normal 9.405932e-01 1.609696e-01 -2.989535e-01
    outer loop
      vertex   1.038047e+01 1.591076e+00 -3.610859e+00
      vertex   1.035364e+01 1.825627e+00 -3.568965e+00
      vertex   1.043955e+01 1.600133e+00 -3.420082e+00
    endloop
  endfacet
  facet normal 9.439009e-01 1.401964e-01 -2.989918e-01
    outer loop
      vertex   1.038047e+01 1.591076e+00 -3.610859e+00
      vertex   1.043955e+01 1.600133e+00 -3.420082e+00
      vertex   1.041483e+01 1.359753e+00 -3.610859e+00
    endloop
  endfacet
  facet normal 9.439009e-01 1.401964e-01 -2.989918e-01
    outer loop
      vertex   1.041483e+01 1.359753e+00 -3.610859e+00
      vertex   1.043955e+01 1.600133e+00 -3.420082e+00
      vertex   1.047411e+01 1.367492e+00 -3.420082e+00
    endloop
  endfacet
  facet normal 9.468847e-01 1.182814e-01 -2.990299e-01
    outer loop
      vertex   1.041483e+01 1.359753e+00 -3.610859e+00
      vertex   1.047411e+01 1.367492e+00 -3.420082e+00
      vertex   1.044359e+01 1.129500e+00 -3.610859e+00
    endloop
  endfacet
  facet normal 9.468847e-01 1.182814e-01 -2.990299e-01
    outer loop
      vertex   1.044359e+01 1.129500e+00 -3.610859e+00
      vertex   1.047411e+01 1.367492e+00 -3.420082e+00
      vertex   1.050303e+01 1.135929e+00 -3.420082e+00
    endloop
  endfacet
  facet normal 9.493451e-01 9.646863e-02 -2.990615e-01
    outer loop
      vertex   1.044359e+01 1.129500e+00 -3.610859e+00
      vertex   1.050303e+01 1.135929e+00 -3.420082e+00
      vertex   1.046686e+01 9.004891e-01 -3.610859e+00
    endloop
  endfacet
  facet normal 9.493451e-01 9.646863e-02 -2.990615e-01
    outer loop
      vertex   1.046686e+01 9.004891e-01 -3.610859e+00
      vertex   1.050303e+01 1.135929e+00 -3.420082e+00
      vertex   1.052644e+01 9.056147e-01 -3.420082e+00
    endloop
  endfacet
  facet normal 9.512917e-01 7.477548e-02 -2.990865e-01
    outer loop
      vertex   1.046686e+01 9.004891e-01 -3.610859e+00
      vertex   1.052644e+01 9.056147e-01 -3.420082e+00
      vertex   1.048475e+01 6.728823e-01 -3.610859e+00
    endloop
  endfacet
  facet normal 9.512917e-01 7.477548e-02 -2.990865e-01
    outer loop
      vertex   1.048475e+01 6.728823e-01 -3.610859e+00
      vertex   1.052644e+01 9.056147e-01 -3.420082e+00
      vertex   1.054443e+01 6.767123e-01 -3.420082e+00
    endloop
  endfacet
  facet normal 9.527349e-01 5.321848e-02 -2.991052e-01
    outer loop
      vertex   1.048475e+01 6.728823e-01 -3.610859e+00
      vertex   1.054443e+01 6.767123e-01 -3.420082e+00
      vertex   1.049738e+01 4.468348e-01 -3.610859e+00
    endloop
  endfacet
  facet normal 9.415939e-01 1.648629e-01 -2.936343e-01
    outer loop
      vertex   1.035364e+01 1.825627e+00 -3.568965e+00
      vertex   1.042364e+01 1.837970e+00 -3.337565e+00
      vertex   1.043955e+01 1.600133e+00 -3.420082e+00
    endloop
  endfacet
  facet normal 9.455664e-01 1.613124e-01 -2.826349e-01
    outer loop
      vertex   1.043955e+01 1.600133e+00 -3.420082e+00
      vertex   1.042364e+01 1.837970e+00 -3.337565e+00
      vertex   1.049519e+01 1.608661e+00 -3.229077e+00
    endloop
  endfacet
  facet normal 9.488088e-01 1.409254e-01 -2.826691e-01
    outer loop
      vertex   1.043955e+01 1.600133e+00 -3.420082e+00
      vertex   1.049519e+01 1.608661e+00 -3.229077e+00
      vertex   1.047411e+01 1.367492e+00 -3.420082e+00
    endloop
  endfacet
  facet normal 9.488088e-01 1.409254e-01 -2.826691e-01
    outer loop
      vertex   1.047411e+01 1.367492e+00 -3.420082e+00
      vertex   1.049519e+01 1.608661e+00 -3.229077e+00
      vertex   1.052993e+01 1.374780e+00 -3.229077e+00
    endloop
  endfacet
  facet normal 9.518094e-01 1.188966e-01 -2.827055e-01
    outer loop
      vertex   1.047411e+01 1.367492e+00 -3.420082e+00
      vertex   1.052993e+01 1.374780e+00 -3.229077e+00
      vertex   1.050303e+01 1.135929e+00 -3.420082e+00
    endloop
  endfacet
  facet normal 9.518094e-01 1.188966e-01 -2.827055e-01
    outer loop
      vertex   1.050303e+01 1.135929e+00 -3.420082e+00
      vertex   1.052993e+01 1.374780e+00 -3.229077e+00
      vertex   1.055901e+01 1.141983e+00 -3.229077e+00
    endloop
  endfacet
  facet normal 9.542836e-01 9.697047e-02 -2.827357e-01
    outer loop
      vertex   1.050303e+01 1.135929e+00 -3.420082e+00
      vertex   1.055901e+01 1.141983e+00 -3.229077e+00
      vertex   1.052644e+01 9.056147e-01 -3.420082e+00
    endloop
  endfacet
  facet normal 9.542836e-01 9.697047e-02 -2.827357e-01
    outer loop
      vertex   1.052644e+01 9.056147e-01 -3.420082e+00
      vertex   1.055901e+01 1.141983e+00 -3.229077e+00
      vertex   1.058254e+01 9.104412e-01 -3.229077e+00
    endloop
  endfacet
  facet normal 9.562412e-01 7.516453e-02 -2.827596e-01
    outer loop
      vertex   1.052644e+01 9.056147e-01 -3.420082e+00
      vertex   1.058254e+01 9.104412e-01 -3.229077e+00
      vertex   1.054443e+01 6.767123e-01 -3.420082e+00
    endloop
  endfacet
  facet normal 9.473447e-01 1.660472e-01 -2.737998e-01
    outer loop
      vertex   1.042364e+01 1.837970e+00 -3.337565e+00
      vertex   1.048890e+01 1.849476e+00 -3.104812e+00
      vertex   1.049519e+01 1.608661e+00 -3.229077e+00
    endloop
  endfacet
  facet normal 9.501319e-01 1.622564e-01 -2.663124e-01
    outer loop
      vertex   1.049519e+01 1.608661e+00 -3.229077e+00
      vertex   1.048890e+01 1.849476e+00 -3.104812e+00
      vertex   1.054740e+01 1.616663e+00 -3.037938e+00
    endloop
  endfacet
  facet normal 9.534184e-01 1.416101e-01 -2.663457e-01
    outer loop
      vertex   1.049519e+01 1.608661e+00 -3.229077e+00
      vertex   1.054740e+01 1.616663e+00 -3.037938e+00
      vertex   1.052993e+01 1.374780e+00 -3.229077e+00
    endloop
  endfacet
  facet normal 9.534184e-01 1.416101e-01 -2.663457e-01
    outer loop
      vertex   1.052993e+01 1.374780e+00 -3.229077e+00
      vertex   1.054740e+01 1.616663e+00 -3.037938e+00
      vertex   1.058231e+01 1.381619e+00 -3.037938e+00
    endloop
  endfacet
  facet normal 9.564347e-01 1.194743e-01 -2.663803e-01
    outer loop
      vertex   1.052993e+01 1.374780e+00 -3.229077e+00
      vertex   1.058231e+01 1.381619e+00 -3.037938e+00
      vertex   1.055901e+01 1.141983e+00 -3.229077e+00
    endloop
  endfacet
  facet normal 9.564347e-01 1.194743e-01 -2.663803e-01
    outer loop
      vertex   1.055901e+01 1.141983e+00 -3.229077e+00
      vertex   1.058231e+01 1.381619e+00 -3.037938e+00
      vertex   1.061154e+01 1.147664e+00 -3.037938e+00
    endloop
  endfacet
  facet normal 9.589220e-01 9.744180e-02 -2.664090e-01
    outer loop
      vertex   1.055901e+01 1.141983e+00 -3.229077e+00
      vertex   1.061154e+01 1.147664e+00 -3.037938e+00
      vertex   1.058254e+01 9.104412e-01 -3.229077e+00
    endloop
  endfacet
  facet normal 9.527990e-01 1.664994e-01 -2.538742e-01
    outer loop
      vertex   1.048890e+01 1.849476e+00 -3.104812e+00
      vertex   1.054939e+01 1.860142e+00 -2.870787e+00
      vertex   1.054740e+01 1.616663e+00 -3.037938e+00
    endloop
  endfacet
  facet normal 9.556952e-01 1.612500e-01 -2.462622e-01
    outer loop
      vertex   1.054740e+01 1.616663e+00 -3.037938e+00
      vertex   1.054939e+01 1.860142e+00 -2.870787e+00
      vertex   1.061752e+01 1.627411e+00 -2.758774e+00
    endloop
  endfacet
  facet normal 9.586803e-01 1.423916e-01 -2.462859e-01
    outer loop
      vertex   1.054740e+01 1.616663e+00 -3.037938e+00
      vertex   1.061752e+01 1.627411e+00 -2.758774e+00
      vertex   1.058231e+01 1.381619e+00 -3.037938e+00
    endloop
  endfacet
  facet normal 9.586803e-01 1.423916e-01 -2.462859e-01
    outer loop
      vertex   1.058231e+01 1.381619e+00 -3.037938e+00
      vertex   1.061752e+01 1.627411e+00 -2.758774e+00
      vertex   1.065266e+01 1.390804e+00 -2.758774e+00
    endloop
  endfacet
  facet normal 9.617147e-01 1.201339e-01 -2.463183e-01
    outer loop
      vertex   1.058231e+01 1.381619e+00 -3.037938e+00
      vertex   1.065266e+01 1.390804e+00 -2.758774e+00
      vertex   1.061154e+01 1.147664e+00 -3.037938e+00
    endloop
  endfacet
  facet normal 9.576802e-01 1.677985e-01 -2.338637e-01
    outer loop
      vertex   1.054939e+01 1.860142e+00 -2.870787e+00
      vertex   1.060511e+01 1.869967e+00 -2.635572e+00
      vertex   1.061752e+01 1.627411e+00 -2.758774e+00
    endloop
  endfacet
  facet normal 9.613525e-01 1.621991e-01 -2.224699e-01
    outer loop
      vertex   1.061752e+01 1.627411e+00 -2.758774e+00
      vertex   1.060511e+01 1.869967e+00 -2.635572e+00
      vertex   1.068045e+01 1.637056e+00 -2.479811e+00
    endloop
  endfacet
  facet normal 9.643554e-01 1.432345e-01 -2.224916e-01
    outer loop
      vertex   1.061752e+01 1.627411e+00 -2.758774e+00
      vertex   1.068045e+01 1.637056e+00 -2.479811e+00
      vertex   1.065266e+01 1.390804e+00 -2.758774e+00
    endloop
  endfacet
  facet normal 9.622742e-01 1.683130e-01 -2.137736e-01
    outer loop
      vertex   1.060511e+01 1.869967e+00 -2.635572e+00
      vertex   1.065604e+01 1.878947e+00 -2.399247e+00
      vertex   1.068045e+01 1.637056e+00 -2.479811e+00
    endloop
  endfacet
  facet normal 9.768731e-01 1.232829e-01 -1.747006e-01
    outer loop
      vertex   1.081912e+01 1.424229e+00 -1.924161e+00
      vertex   1.084889e+01 1.188010e+00 -1.924388e+00
      vertex   1.077181e+01 1.406360e+00 -2.201327e+00
    endloop
  endfacet
  facet normal 9.768541e-01 1.220251e-01 -1.756871e-01
    outer loop
      vertex   1.077181e+01 1.406360e+00 -2.201327e+00
      vertex   1.084889e+01 1.188010e+00 -1.924388e+00
      vertex   1.080156e+01 1.168215e+00 -2.201327e+00
    endloop
  endfacet
  facet normal 9.724866e-01 1.214795e-01 -1.987776e-01
    outer loop
      vertex   1.077181e+01 1.406360e+00 -2.201327e+00
      vertex   1.080156e+01 1.168215e+00 -2.201327e+00
      vertex   1.074539e+01 1.162141e+00 -2.479811e+00
    endloop
  endfacet
  facet normal 9.750191e-01 9.907753e-02 -1.987997e-01
    outer loop
      vertex   1.074539e+01 1.162141e+00 -2.479811e+00
      vertex   1.080156e+01 1.168215e+00 -2.201327e+00
      vertex   1.076934e+01 9.265120e-01 -2.479811e+00
    endloop
  endfacet
  facet normal 9.699275e-01 9.856014e-02 -2.225457e-01
    outer loop
      vertex   1.074539e+01 1.162141e+00 -2.479811e+00
      vertex   1.076934e+01 9.265120e-01 -2.479811e+00
      vertex   1.070589e+01 9.210530e-01 -2.758774e+00
    endloop
  endfacet
  facet normal 9.719199e-01 7.639694e-02 -2.225652e-01
    outer loop
      vertex   1.070589e+01 9.210530e-01 -2.758774e+00
      vertex   1.076934e+01 9.265120e-01 -2.479811e+00
      vertex   1.072418e+01 6.882485e-01 -2.758774e+00
    endloop
  endfacet
  facet normal 9.661965e-01 7.594705e-02 -2.463664e-01
    outer loop
      vertex   1.070589e+01 9.210530e-01 -2.758774e+00
      vertex   1.072418e+01 6.882485e-01 -2.758774e+00
      vertex   1.065336e+01 6.837031e-01 -3.037938e+00
    endloop
  endfacet
  facet normal 9.676642e-01 5.405241e-02 -2.463823e-01
    outer loop
      vertex   1.065336e+01 6.837031e-01 -3.037938e+00
      vertex   1.072418e+01 6.882485e-01 -2.758774e+00
      vertex   1.066619e+01 4.540204e-01 -3.037938e+00
    endloop
  endfacet
  facet normal 9.623489e-01 5.375550e-02 -2.664488e-01
    outer loop
      vertex   1.065336e+01 6.837031e-01 -3.037938e+00
      vertex   1.066619e+01 4.540204e-01 -3.037938e+00
      vertex   1.061339e+01 4.517731e-01 -3.229077e+00
    endloop
  endfacet
  facet normal 9.631135e-01 3.750704e-02 -2.664689e-01
    outer loop
      vertex   1.061339e+01 4.517731e-01 -3.229077e+00
      vertex   1.066619e+01 4.540204e-01 -3.037938e+00
      vertex   1.061782e+01 3.381384e-01 -3.229077e+00
    endloop
  endfacet
  facet normal 9.584528e-01 3.732553e-02 -2.827987e-01
    outer loop
      vertex   1.061339e+01 4.517731e-01 -3.229077e+00
      vertex   1.061782e+01 3.381384e-01 -3.229077e+00
      vertex   1.056153e+01 3.363458e-01 -3.420082e+00
    endloop
  endfacet
  facet normal 9.588089e-01 2.660805e-02 -2.828030e-01
    outer loop
      vertex   1.056153e+01 3.363458e-01 -3.420082e+00
      vertex   1.061782e+01 3.381384e-01 -3.229077e+00
      vertex   1.056466e+01 2.237605e-01 -3.420082e+00
    endloop
  endfacet
  facet normal 9.538445e-01 2.647029e-02 -2.991320e-01
    outer loop
      vertex   1.056153e+01 3.363458e-01 -3.420082e+00
      vertex   1.056466e+01 2.237605e-01 -3.420082e+00
      vertex   1.050486e+01 2.224941e-01 -3.610859e+00
    endloop
  endfacet
  facet normal 9.540791e-01 1.585096e-02 -2.991350e-01
    outer loop
      vertex   1.050486e+01 2.224941e-01 -3.610859e+00
      vertex   1.056466e+01 2.237605e-01 -3.420082e+00
      vertex   1.050671e+01 1.110078e-01 -3.610859e+00
    endloop
  endfacet
  facet normal 9.794444e-01 1.009691e-01 -1.746249e-01
    outer loop
      vertex   1.084889e+01 1.188010e+00 -1.924388e+00
      vertex   1.087328e+01 9.511402e-01 -1.924574e+00
      vertex   1.080156e+01 1.168215e+00 -2.201327e+00
    endloop
  endfacet
  facet normal 9.793920e-01 9.952188e-02 -1.757464e-01
    outer loop
      vertex   1.080156e+01 1.168215e+00 -2.201327e+00
      vertex   1.087328e+01 9.511402e-01 -1.924574e+00
      vertex   1.082563e+01 9.313546e-01 -2.201327e+00
    endloop
  endfacet
  facet normal 9.750191e-01 9.907753e-02 -1.987997e-01
    outer loop
      vertex   1.080156e+01 1.168215e+00 -2.201327e+00
      vertex   1.082563e+01 9.313546e-01 -2.201327e+00
      vertex   1.076934e+01 9.265120e-01 -2.479811e+00
    endloop
  endfacet
  facet normal 9.770229e-01 7.679806e-02 -1.988173e-01
    outer loop
      vertex   1.076934e+01 9.265120e-01 -2.479811e+00
      vertex   1.082563e+01 9.313546e-01 -2.201327e+00
      vertex   1.078775e+01 6.923276e-01 -2.479811e+00
    endloop
  endfacet
  facet normal 9.719199e-01 7.639694e-02 -2.225652e-01
    outer loop
      vertex   1.076934e+01 9.265120e-01 -2.479811e+00
      vertex   1.078775e+01 6.923276e-01 -2.479811e+00
      vertex   1.072418e+01 6.882485e-01 -2.758774e+00
    endloop
  endfacet
  facet normal 9.733971e-01 5.437264e-02 -2.225797e-01
    outer loop
      vertex   1.072418e+01 6.882485e-01 -2.758774e+00
      vertex   1.078775e+01 6.923276e-01 -2.479811e+00
      vertex   1.073710e+01 4.570388e-01 -2.758774e+00
    endloop
  endfacet
  facet normal 9.676642e-01 5.405241e-02 -2.463823e-01
    outer loop
      vertex   1.072418e+01 6.882485e-01 -2.758774e+00
      vertex   1.073710e+01 4.570388e-01 -2.758774e+00
      vertex   1.066619e+01 4.540204e-01 -3.037938e+00
    endloop
  endfacet
  facet normal 9.684338e-01 3.771423e-02 -2.464011e-01
    outer loop
      vertex   1.066619e+01 4.540204e-01 -3.037938e+00
      vertex   1.073710e+01 4.570388e-01 -2.758774e+00
      vertex   1.067064e+01 3.398204e-01 -3.037938e+00
    endloop
  endfacet
  facet normal 9.631135e-01 3.750704e-02 -2.664689e-01
    outer loop
      vertex   1.066619e+01 4.540204e-01 -3.037938e+00
      vertex   1.067064e+01 3.398204e-01 -3.037938e+00
      vertex   1.061782e+01 3.381384e-01 -3.229077e+00
    endloop
  endfacet
  facet normal 9.634714e-01 2.673744e-02 -2.664731e-01
    outer loop
      vertex   1.061782e+01 3.381384e-01 -3.229077e+00
      vertex   1.067064e+01 3.398204e-01 -3.037938e+00
      vertex   1.062096e+01 2.249530e-01 -3.229077e+00
    endloop
  endfacet
  facet normal 9.588089e-01 2.660805e-02 -2.828030e-01
    outer loop
      vertex   1.061782e+01 3.381384e-01 -3.229077e+00
      vertex   1.062096e+01 2.249530e-01 -3.229077e+00
      vertex   1.056466e+01 2.237605e-01 -3.420082e+00
    endloop
  endfacet
  facet normal 9.590448e-01 1.593346e-02 -2.828059e-01
    outer loop
      vertex   1.056466e+01 2.237605e-01 -3.420082e+00
      vertex   1.062096e+01 2.249530e-01 -3.229077e+00
      vertex   1.056652e+01 1.116396e-01 -3.420082e+00
    endloop
  endfacet
  facet normal 9.540791e-01 1.585096e-02 -2.991350e-01
    outer loop
      vertex   1.056466e+01 2.237605e-01 -3.420082e+00
      vertex   1.056652e+01 1.116396e-01 -3.420082e+00
      vertex   1.050671e+01 1.110078e-01 -3.610859e+00
    endloop
  endfacet
  facet normal 9.541775e-01 7.813818e-03 -2.991392e-01
    outer loop
      vertex   1.050671e+01 1.110078e-01 -3.610859e+00
      vertex   1.056652e+01 1.116396e-01 -3.420082e+00
      vertex   1.052005e+01 -3.107859e-15 -3.571222e+00
    endloop
  endfacet
  facet normal 9.814957e-01 7.859230e-02 -1.746123e-01
    outer loop
      vertex   1.087328e+01 9.511402e-01 -1.924574e+00
      vertex   1.089226e+01 7.137691e-01 -1.924718e+00
      vertex   1.082563e+01 9.313546e-01 -2.201327e+00
    endloop
  endfacet
  facet normal 9.814108e-01 7.714297e-02 -1.757320e-01
    outer loop
      vertex   1.082563e+01 9.313546e-01 -2.201327e+00
      vertex   1.089226e+01 7.137691e-01 -1.924718e+00
      vertex   1.084413e+01 6.959463e-01 -2.201327e+00
    endloop
  endfacet
  facet normal 9.770229e-01 7.679806e-02 -1.988173e-01
    outer loop
      vertex   1.082563e+01 9.313546e-01 -2.201327e+00
      vertex   1.084413e+01 6.959463e-01 -2.201327e+00
      vertex   1.078775e+01 6.923276e-01 -2.479811e+00
    endloop
  endfacet
  facet normal 9.785085e-01 5.465816e-02 -1.988304e-01
    outer loop
      vertex   1.078775e+01 6.923276e-01 -2.479811e+00
      vertex   1.084413e+01 6.959463e-01 -2.201327e+00
      vertex   1.080074e+01 4.597476e-01 -2.479811e+00
    endloop
  endfacet
  facet normal 9.733971e-01 5.437264e-02 -2.225797e-01
    outer loop
      vertex   1.078775e+01 6.923276e-01 -2.479811e+00
      vertex   1.080074e+01 4.597476e-01 -2.479811e+00
      vertex   1.073710e+01 4.570388e-01 -2.758774e+00
    endloop
  endfacet
  facet normal 9.741721e-01 3.793770e-02 -2.225969e-01
    outer loop
      vertex   1.073710e+01 4.570388e-01 -2.758774e+00
      vertex   1.080074e+01 4.597476e-01 -2.479811e+00
      vertex   1.074158e+01 3.420796e-01 -2.758774e+00
    endloop
  endfacet
  facet normal 9.684338e-01 3.771423e-02 -2.464011e-01
    outer loop
      vertex   1.073710e+01 4.570388e-01 -2.758774e+00
      vertex   1.074158e+01 3.420796e-01 -2.758774e+00
      vertex   1.067064e+01 3.398204e-01 -3.037938e+00
    endloop
  endfacet
  facet normal 9.687940e-01 2.688515e-02 -2.464050e-01
    outer loop
      vertex   1.067064e+01 3.398204e-01 -3.037938e+00
      vertex   1.074158e+01 3.420796e-01 -2.758774e+00
      vertex   1.067379e+01 2.260721e-01 -3.037938e+00
    endloop
  endfacet
  facet normal 9.634714e-01 2.673744e-02 -2.664731e-01
    outer loop
      vertex   1.067064e+01 3.398204e-01 -3.037938e+00
      vertex   1.067379e+01 2.260721e-01 -3.037938e+00
      vertex   1.062096e+01 2.249530e-01 -3.229077e+00
    endloop
  endfacet
  facet normal 9.637086e-01 1.601095e-02 -2.664758e-01
    outer loop
      vertex   1.062096e+01 2.249530e-01 -3.229077e+00
      vertex   1.067379e+01 2.260721e-01 -3.037938e+00
      vertex   1.062283e+01 1.122346e-01 -3.229077e+00
    endloop
  endfacet
  facet normal 9.590448e-01 1.593346e-02 -2.828059e-01
    outer loop
      vertex   1.062096e+01 2.249530e-01 -3.229077e+00
      vertex   1.062283e+01 1.122346e-01 -3.229077e+00
      vertex   1.056652e+01 1.116396e-01 -3.420082e+00
    endloop
  endfacet
  facet normal 9.591336e-01 8.998892e-03 -2.828105e-01
    outer loop
      vertex   1.056652e+01 1.116396e-01 -3.420082e+00
      vertex   1.062283e+01 1.122346e-01 -3.229077e+00
      vertex   1.059127e+01 -3.130510e-15 -3.339697e+00
    endloop
  endfacet
  facet normal 9.558019e-01 1.952899e-04 -2.940112e-01
    outer loop
      vertex   1.056652e+01 1.116396e-01 -3.420082e+00
      vertex   1.059127e+01 -3.130510e-15 -3.339697e+00
      vertex   1.052005e+01 -3.107859e-15 -3.571222e+00
    endloop
  endfacet
  facet normal 9.830251e-01 5.616974e-02 -1.746615e-01
    outer loop
      vertex   1.089226e+01 7.137691e-01 -1.924718e+00
      vertex   1.090582e+01 4.760628e-01 -1.924822e+00
      vertex   1.084413e+01 6.959463e-01 -2.201327e+00
    endloop
  endfacet
  facet normal 9.829214e-01 5.490466e-02 -1.756444e-01
    outer loop
      vertex   1.084413e+01 6.959463e-01 -2.201327e+00
      vertex   1.090582e+01 4.760628e-01 -1.924822e+00
      vertex   1.085719e+01 4.621506e-01 -2.201327e+00
    endloop
  endfacet
  facet normal 9.785085e-01 5.465816e-02 -1.988304e-01
    outer loop
      vertex   1.084413e+01 6.959463e-01 -2.201327e+00
      vertex   1.085719e+01 4.621506e-01 -2.201327e+00
      vertex   1.080074e+01 4.597476e-01 -2.479811e+00
    endloop
  endfacet
  facet normal 9.792885e-01 3.813695e-02 -1.988459e-01
    outer loop
      vertex   1.080074e+01 4.597476e-01 -2.479811e+00
      vertex   1.085719e+01 4.621506e-01 -2.201327e+00
      vertex   1.080524e+01 3.441070e-01 -2.479811e+00
    endloop
  endfacet
  facet normal 9.741721e-01 3.793770e-02 -2.225969e-01
    outer loop
      vertex   1.080074e+01 4.597476e-01 -2.479811e+00
      vertex   1.080524e+01 3.441070e-01 -2.479811e+00
      vertex   1.074158e+01 3.420796e-01 -2.758774e+00
    endloop
  endfacet
  facet normal 9.745346e-01 2.704446e-02 -2.226005e-01
    outer loop
      vertex   1.074158e+01 3.420796e-01 -2.758774e+00
      vertex   1.080524e+01 3.441070e-01 -2.479811e+00
      vertex   1.074475e+01 2.275750e-01 -2.758774e+00
    endloop
  endfacet
  facet normal 9.687940e-01 2.688515e-02 -2.464050e-01
    outer loop
      vertex   1.074158e+01 3.420796e-01 -2.758774e+00
      vertex   1.074475e+01 2.275750e-01 -2.758774e+00
      vertex   1.067379e+01 2.260721e-01 -3.037938e+00
    endloop
  endfacet
  facet normal 9.690326e-01 1.609940e-02 -2.464076e-01
    outer loop
      vertex   1.067379e+01 2.260721e-01 -3.037938e+00
      vertex   1.074475e+01 2.275750e-01 -2.758774e+00
      vertex   1.067567e+01 1.127929e-01 -3.037938e+00
    endloop
  endfacet
  facet normal 9.637086e-01 1.601095e-02 -2.664758e-01
    outer loop
      vertex   1.067379e+01 2.260721e-01 -3.037938e+00
      vertex   1.067567e+01 1.127929e-01 -3.037938e+00
      vertex   1.062283e+01 1.122346e-01 -3.229077e+00
    endloop
  endfacet
  facet normal 9.638005e-01 8.767030e-03 -2.664801e-01
    outer loop
      vertex   1.062283e+01 1.122346e-01 -3.229077e+00
      vertex   1.067567e+01 1.127929e-01 -3.037938e+00
      vertex   1.065766e+01 -3.154916e-15 -3.106816e+00
    endloop
  endfacet
  facet normal 9.616855e-01 -2.497755e-04 -2.741550e-01
    outer loop
      vertex   1.062283e+01 1.122346e-01 -3.229077e+00
      vertex   1.065766e+01 -3.154916e-15 -3.106816e+00
      vertex   1.059127e+01 -3.130510e-15 -3.339697e+00
    endloop
  endfacet
  facet normal 9.838282e-01 3.831374e-02 -1.749691e-01
    outer loop
      vertex   1.085719e+01 4.621506e-01 -2.201327e+00
      vertex   1.090582e+01 4.760628e-01 -1.924822e+00
      vertex   1.086172e+01 3.459056e-01 -2.201327e+00
    endloop
  endfacet
  facet normal 9.843626e-01 3.372659e-02 -1.728951e-01
    outer loop
      vertex   1.086172e+01 3.459056e-01 -2.201327e+00
      vertex   1.090582e+01 4.760628e-01 -1.924822e+00
      vertex   1.091397e+01 2.381102e-01 -1.924884e+00
    endloop
  endfacet
  facet normal 9.841269e-01 2.731065e-02 -1.753523e-01
    outer loop
      vertex   1.086172e+01 3.459056e-01 -2.201327e+00
      vertex   1.091397e+01 2.381102e-01 -1.924884e+00
      vertex   1.086493e+01 2.301204e-01 -2.201327e+00
    endloop
  endfacet
  facet normal 9.844879e-01 1.268014e-02 -1.749935e-01
    outer loop
      vertex   1.086493e+01 2.301204e-01 -2.201327e+00
      vertex   1.091397e+01 2.381102e-01 -1.924884e+00
      vertex   1.087464e+01 -3.241759e-15 -2.163351e+00
    endloop
  endfacet
  facet normal 9.880480e-01 1.641532e-02 -1.532700e-01
    outer loop
      vertex   1.086493e+01 2.301204e-01 -2.201327e+00
      vertex   1.087464e+01 -3.241759e-15 -2.163351e+00
      vertex   1.086685e+01 1.148127e-01 -2.201327e+00
    endloop
  endfacet
  facet normal 9.810239e-01 2.509181e-03 -1.938706e-01
    outer loop
      vertex   1.086685e+01 1.148127e-01 -2.201327e+00
      vertex   1.087464e+01 -3.241759e-15 -2.163351e+00
      vertex   1.082771e+01 -3.224501e-15 -2.400846e+00
    endloop
  endfacet
  facet normal 9.799611e-01 1.153253e-02 -1.988546e-01
    outer loop
      vertex   1.086685e+01 1.148127e-01 -2.201327e+00
      vertex   1.082771e+01 -3.224501e-15 -2.400846e+00
      vertex   1.081034e+01 1.142157e-01 -2.479811e+00
    endloop
  endfacet
  facet normal 9.768204e-01 5.427155e-04 -2.140596e-01
    outer loop
      vertex   1.081034e+01 1.142157e-01 -2.479811e+00
      vertex   1.082771e+01 -3.224501e-15 -2.400846e+00
      vertex   1.077589e+01 -3.203330e-15 -2.637309e+00
    endloop
  endfacet
  facet normal 9.748228e-01 1.293021e-02 -2.226059e-01
    outer loop
      vertex   1.081034e+01 1.142157e-01 -2.479811e+00
      vertex   1.077589e+01 -3.203330e-15 -2.637309e+00
      vertex   1.074665e+01 1.135428e-01 -2.758774e+00
    endloop
  endfacet
  facet normal 9.721948e-01 -1.212531e-04 -2.341735e-01
    outer loop
      vertex   1.074665e+01 1.135428e-01 -2.758774e+00
      vertex   1.077589e+01 -3.203330e-15 -2.637309e+00
      vertex   1.071920e+01 -3.179662e-15 -2.872659e+00
    endloop
  endfacet
  facet normal 9.690795e-01 1.290619e-02 -2.464109e-01
    outer loop
      vertex   1.074665e+01 1.135428e-01 -2.758774e+00
      vertex   1.071920e+01 -3.179662e-15 -2.872659e+00
      vertex   1.067567e+01 1.127929e-01 -3.037938e+00
    endloop
  endfacet
  facet normal 9.671495e-01 7.374991e-04 -2.542071e-01
    outer loop
      vertex   1.067567e+01 1.127929e-01 -3.037938e+00
      vertex   1.071920e+01 -3.179662e-15 -2.872659e+00
      vertex   1.065766e+01 -3.154916e-15 -3.106816e+00
    endloop
  endfacet
  facet normal 9.847516e-01 1.124360e-02 -1.736026e-01
    outer loop
      vertex   1.091397e+01 2.381102e-01 -1.924884e+00
      vertex   1.091668e+01 -3.012934e-15 -1.924905e+00
      vertex   1.087464e+01 -3.241759e-15 -2.163351e+00
    endloop
  endfacet
  facet normal 9.690326e-01 1.609940e-02 -2.464076e-01
    outer loop
      vertex   1.067567e+01 1.127929e-01 -3.037938e+00
      vertex   1.074475e+01 2.275750e-01 -2.758774e+00
      vertex   1.074665e+01 1.135428e-01 -2.758774e+00
    endloop
  endfacet
  facet normal 9.747747e-01 1.619480e-02 -2.226028e-01
    outer loop
      vertex   1.074665e+01 1.135428e-01 -2.758774e+00
      vertex   1.074475e+01 2.275750e-01 -2.758774e+00
      vertex   1.080844e+01 2.289238e-01 -2.479811e+00
    endloop
  endfacet
  facet normal 9.747747e-01 1.619480e-02 -2.226028e-01
    outer loop
      vertex   1.074665e+01 1.135428e-01 -2.758774e+00
      vertex   1.080844e+01 2.289238e-01 -2.479811e+00
      vertex   1.081034e+01 1.142157e-01 -2.479811e+00
    endloop
  endfacet
  facet normal 9.798945e-01 1.627986e-02 -1.988512e-01
    outer loop
      vertex   1.081034e+01 1.142157e-01 -2.479811e+00
      vertex   1.080844e+01 2.289238e-01 -2.479811e+00
      vertex   1.086493e+01 2.301204e-01 -2.201327e+00
    endloop
  endfacet
  facet normal 9.798945e-01 1.627986e-02 -1.988512e-01
    outer loop
      vertex   1.081034e+01 1.142157e-01 -2.479811e+00
      vertex   1.086493e+01 2.301204e-01 -2.201327e+00
      vertex   1.086685e+01 1.148127e-01 -2.201327e+00
    endloop
  endfacet
  facet normal 9.796530e-01 2.718650e-02 -1.988491e-01
    outer loop
      vertex   1.086493e+01 2.301204e-01 -2.201327e+00
      vertex   1.080844e+01 2.289238e-01 -2.479811e+00
      vertex   1.086172e+01 3.459056e-01 -2.201327e+00
    endloop
  endfacet
  facet normal 9.796530e-01 2.718650e-02 -1.988491e-01
    outer loop
      vertex   1.086172e+01 3.459056e-01 -2.201327e+00
      vertex   1.080844e+01 2.289238e-01 -2.479811e+00
      vertex   1.080524e+01 3.441070e-01 -2.479811e+00
    endloop
  endfacet
  facet normal 9.792885e-01 3.813695e-02 -1.988459e-01
    outer loop
      vertex   1.086172e+01 3.459056e-01 -2.201327e+00
      vertex   1.080524e+01 3.441070e-01 -2.479811e+00
      vertex   1.085719e+01 4.621506e-01 -2.201327e+00
    endloop
  endfacet
  facet normal 9.745346e-01 2.704446e-02 -2.226005e-01
    outer loop
      vertex   1.080844e+01 2.289238e-01 -2.479811e+00
      vertex   1.074475e+01 2.275750e-01 -2.758774e+00
      vertex   1.080524e+01 3.441070e-01 -2.479811e+00
    endloop
  endfacet
  facet normal -5.307763e-16 -1.000000e+00 -6.933016e-16
    outer loop
      vertex   1.044401e+01 -2.907981e-15 -3.801310e+00
      vertex   1.052005e+01 -3.107859e-15 -3.571222e+00
      vertex   0.000000e+00 0.000000e+00 0.000000e+00
    endloop
  endfacet
  facet normal -2.975608e-16 -1.000000e+00 -6.299071e-18
    outer loop
      vertex   0.000000e+00 0.000000e+00 0.000000e+00
      vertex   1.052005e+01 -3.107859e-15 -3.571222e+00
      vertex   1.059127e+01 -3.130510e-15 -3.339697e+00
    endloop
  endfacet
  facet normal -3.015178e-16 -1.000000e+00 -1.884792e-17
    outer loop
      vertex   0.000000e+00 0.000000e+00 0.000000e+00
      vertex   1.059127e+01 -3.130510e-15 -3.339697e+00
      vertex   1.065766e+01 -3.154916e-15 -3.106816e+00
    endloop
  endfacet
  facet normal -3.035707e-16 -1.000000e+00 -2.589020e-17
    outer loop
      vertex   1.065766e+01 -3.154916e-15 -3.106816e+00
      vertex   1.071920e+01 -3.179662e-15 -2.872659e+00
      vertex   0.000000e+00 0.000000e+00 0.000000e+00
    endloop
  endfacet
  facet normal -3.039612e-16 -1.000000e+00 -2.734727e-17
    outer loop
      vertex   0.000000e+00 0.000000e+00 0.000000e+00
      vertex   1.071920e+01 -3.179662e-15 -2.872659e+00
      vertex   1.077589e+01 -3.203330e-15 -2.637309e+00
    endloop
  endfacet
  facet normal -3.029338e-16 -1.000000e+00 -2.314928e-17
    outer loop
      vertex   0.000000e+00 0.000000e+00 0.000000e+00
      vertex   1.077589e+01 -3.203330e-15 -2.637309e+00
      vertex   1.082771e+01 -3.224501e-15 -2.400846e+00
    endloop
  endfacet
  facet normal -3.007355e-16 -1.000000e+00 -1.323520e-17
    outer loop
      vertex   1.082771e+01 -3.224501e-15 -2.400846e+00
      vertex   1.087464e+01 -3.241759e-15 -2.163351e+00
      vertex   0.000000e+00 0.000000e+00 0.000000e+00
    endloop
  endfacet
  facet normal -1.035619e-16 -1.000000e+00 9.779088e-16
    outer loop
      vertex   0.000000e+00 0.000000e+00 0.000000e+00
      vertex   1.087464e+01 -3.241759e-15 -2.163351e+00
      vertex   1.091668e+01 -3.012934e-15 -1.924905e+00
    endloop
  endfacet
  facet normal 1.736474e-01 3.031017e-03 9.848032e-01
    outer loop
      vertex   0.000000e+00 0.000000e+00 0.000000e+00
      vertex   1.091668e+01 -3.012934e-15 -1.924905e+00
      vertex   5.455015e+00 1.904933e-01 -9.624526e-01
    endloop
  endfacet
  facet normal 1.736094e-01 1.893472e-03 9.848128e-01
    outer loop
      vertex   5.455015e+00 1.904933e-01 -9.624526e-01
      vertex   1.091668e+01 -3.012934e-15 -1.924905e+00
      vertex   1.091397e+01 2.381102e-01 -1.924884e+00
    endloop
  endfacet
  facet normal 1.735749e-01 5.681175e-03 9.848043e-01
    outer loop
      vertex   5.455015e+00 1.904933e-01 -9.624526e-01
      vertex   1.091397e+01 2.381102e-01 -1.924884e+00
      vertex   1.090582e+01 4.760628e-01 -1.924822e+00
    endloop
  endfacet
  facet normal 1.733974e-01 9.087373e-03 9.848100e-01
    outer loop
      vertex   5.455015e+00 1.904933e-01 -9.624526e-01
      vertex   1.090582e+01 4.760628e-01 -1.924822e+00
      vertex   5.445044e+00 3.807546e-01 -9.624526e-01
    endloop
  endfacet
  facet normal 1.733904e-01 9.464484e-03 9.848077e-01
    outer loop
      vertex   5.445044e+00 3.807546e-01 -9.624526e-01
      vertex   1.090582e+01 4.760628e-01 -1.924822e+00
      vertex   1.089226e+01 7.137691e-01 -1.924718e+00
    endloop
  endfacet
  facet normal 1.731588e-01 1.324559e-02 9.848049e-01
    outer loop
      vertex   5.445044e+00 3.807546e-01 -9.624526e-01
      vertex   1.089226e+01 7.137691e-01 -1.924718e+00
      vertex   1.087328e+01 9.511402e-01 -1.924574e+00
    endloop
  endfacet
  facet normal 1.729618e-01 1.513220e-02 9.848123e-01
    outer loop
      vertex   5.445044e+00 3.807546e-01 -9.624526e-01
      vertex   1.087328e+01 9.511402e-01 -1.924574e+00
      vertex   5.428439e+00 5.705519e-01 -9.624526e-01
    endloop
  endfacet
  facet normal 1.728286e-01 1.701978e-02 9.848049e-01
    outer loop
      vertex   5.428439e+00 5.705519e-01 -9.624526e-01
      vertex   1.087328e+01 9.511402e-01 -1.924574e+00
      vertex   1.084889e+01 1.188010e+00 -1.924388e+00
    endloop
  endfacet
  facet normal 1.724003e-01 2.078411e-02 9.848077e-01
    outer loop
      vertex   5.428439e+00 5.705519e-01 -9.624526e-01
      vertex   1.084889e+01 1.188010e+00 -1.924388e+00
      vertex   1.081912e+01 1.424229e+00 -1.924161e+00
    endloop
  endfacet
  facet normal 1.723410e-01 2.116082e-02 9.848100e-01
    outer loop
      vertex   5.428439e+00 5.705519e-01 -9.624526e-01
      vertex   1.081912e+01 1.424229e+00 -1.924161e+00
      vertex   5.405220e+00 7.596541e-01 -9.624526e-01
    endloop
  endfacet
  facet normal 1.719248e-01 2.454330e-02 9.848043e-01
    outer loop
      vertex   5.405220e+00 7.596541e-01 -9.624526e-01
      vertex   1.081912e+01 1.424229e+00 -1.924161e+00
      vertex   1.078398e+01 1.659710e+00 -1.923895e+00
    endloop
  endfacet
  facet normal 1.713009e-01 2.828089e-02 9.848128e-01
    outer loop
      vertex   5.405220e+00 7.596541e-01 -9.624526e-01
      vertex   1.078398e+01 1.659710e+00 -1.923895e+00
      vertex   1.074348e+01 1.894365e+00 -1.923589e+00
    endloop
  endfacet
  facet normal 1.715356e-01 2.716858e-02 9.848032e-01
    outer loop
      vertex   1.074348e+01 1.894365e+00 -1.923589e+00
      vertex   0.000000e+00 0.000000e+00 0.000000e+00
      vertex   5.405220e+00 7.596541e-01 -9.624526e-01
    endloop
  endfacet
  facet normal 1.723793e-01 2.116552e-02 9.848032e-01
    outer loop
      vertex   5.405220e+00 7.596541e-01 -9.624526e-01
      vertex   0.000000e+00 0.000000e+00 0.000000e+00
      vertex   5.428439e+00 5.705519e-01 -9.624526e-01
    endloop
  endfacet
  facet normal 1.730130e-01 1.513667e-02 9.848032e-01
    outer loop
      vertex   5.428439e+00 5.705519e-01 -9.624526e-01
      vertex   0.000000e+00 0.000000e+00 0.000000e+00
      vertex   5.445044e+00 3.807546e-01 -9.624526e-01
    endloop
  endfacet
  facet normal 1.734358e-01 9.089386e-03 9.848032e-01
    outer loop
      vertex   5.445044e+00 3.807546e-01 -9.624526e-01
      vertex   0.000000e+00 0.000000e+00 0.000000e+00
      vertex   5.455015e+00 1.904933e-01 -9.624526e-01
    endloop
  endfacet
  facet normal -3.378547e-01 -5.351101e-02 -9.396759e-01
    outer loop
      vertex   0.000000e+00 0.000000e+00 0.000000e+00
      vertex   1.027891e+01 1.812449e+00 -3.798931e+00
      vertex   5.171187e+00 7.267629e-01 -1.900655e+00
    endloop
  endfacet
  facet normal -3.374018e-01 -5.570353e-02 -9.397112e-01
    outer loop
      vertex   5.171187e+00 7.267629e-01 -1.900655e+00
      vertex   1.027891e+01 1.812449e+00 -3.798931e+00
      vertex   1.031752e+01 1.587926e+00 -3.799484e+00
    endloop
  endfacet
  facet normal -3.386223e-01 -4.834065e-02 -9.396798e-01
    outer loop
      vertex   5.171187e+00 7.267629e-01 -1.900655e+00
      vertex   1.031752e+01 1.587926e+00 -3.799484e+00
      vertex   1.035102e+01 1.362619e+00 -3.799966e+00
    endloop
  endfacet
  facet normal -3.394479e-01 -4.167896e-02 -9.397010e-01
    outer loop
      vertex   5.171187e+00 7.267629e-01 -1.900655e+00
      vertex   1.035102e+01 1.362619e+00 -3.799966e+00
      vertex   5.193401e+00 5.458484e-01 -1.900655e+00
    endloop
  endfacet
  facet normal -3.395621e-01 -4.093710e-02 -9.396923e-01
    outer loop
      vertex   5.193401e+00 5.458484e-01 -1.900655e+00
      vertex   1.035102e+01 1.362619e+00 -3.799966e+00
      vertex   1.037940e+01 1.136610e+00 -3.800375e+00
    endloop
  endfacet
  facet normal -3.404029e-01 -3.352257e-02 -9.396819e-01
    outer loop
      vertex   5.193401e+00 5.458484e-01 -1.900655e+00
      vertex   1.037940e+01 1.136610e+00 -3.800375e+00
      vertex   1.040264e+01 9.099840e-01 -3.800711e+00
    endloop
  endfacet
  facet normal -3.406728e-01 -2.980501e-02 -9.397094e-01
    outer loop
      vertex   5.193401e+00 5.458484e-01 -1.900655e+00
      vertex   1.040264e+01 9.099840e-01 -3.800711e+00
      vertex   5.209287e+00 3.642688e-01 -1.900655e+00
    endloop
  endfacet
  facet normal -3.410533e-01 -2.608887e-02 -9.396819e-01
    outer loop
      vertex   5.209287e+00 3.642688e-01 -1.900655e+00
      vertex   1.040264e+01 9.099840e-01 -3.800711e+00
      vertex   1.042074e+01 6.828814e-01 -3.800973e+00
    endloop
  endfacet
  facet normal -3.415124e-01 -1.864170e-02 -9.396924e-01
    outer loop
      vertex   5.209287e+00 3.642688e-01 -1.900655e+00
      vertex   1.042074e+01 6.828814e-01 -3.800973e+00
      vertex   1.043367e+01 4.554600e-01 -3.801160e+00
    endloop
  endfacet
  facet normal -3.415285e-01 -1.789875e-02 -9.397010e-01
    outer loop
      vertex   5.209287e+00 3.642688e-01 -1.900655e+00
      vertex   1.043367e+01 4.554600e-01 -3.801160e+00
      vertex   5.218826e+00 1.822454e-01 -1.900655e+00
    endloop
  endfacet
  facet normal -3.418723e-01 -1.118982e-02 -9.396798e-01
    outer loop
      vertex   5.218826e+00 1.822454e-01 -1.900655e+00
      vertex   1.043367e+01 4.554600e-01 -3.801160e+00
      vertex   1.044143e+01 2.278047e-01 -3.801273e+00
    endloop
  endfacet
  facet normal -3.419488e-01 -3.729458e-03 -9.397112e-01
    outer loop
      vertex   5.218826e+00 1.822454e-01 -1.900655e+00
      vertex   1.044143e+01 2.278047e-01 -3.801273e+00
      vertex   1.044401e+01 -2.907981e-15 -3.801310e+00
    endloop
  endfacet
  facet normal -3.420141e-01 -5.969803e-03 -9.396759e-01
    outer loop
      vertex   1.044401e+01 -2.907981e-15 -3.801310e+00
      vertex   0.000000e+00 0.000000e+00 0.000000e+00
      vertex   5.218826e+00 1.822454e-01 -1.900655e+00
    endloop
  endfacet
  facet normal -3.415974e-01 -1.790236e-02 -9.396759e-01
    outer loop
      vertex   5.218826e+00 1.822454e-01 -1.900655e+00
      vertex   0.000000e+00 0.000000e+00 0.000000e+00
      vertex   5.209287e+00 3.642688e-01 -1.900655e+00
    endloop
  endfacet
  facet normal -3.407645e-01 -2.981303e-02 -9.396759e-01
    outer loop
      vertex   5.209287e+00 3.642688e-01 -1.900655e+00
      vertex   0.000000e+00 0.000000e+00 0.000000e+00
      vertex   5.193401e+00 5.458484e-01 -1.900655e+00
    endloop
  endfacet
  facet normal -3.395164e-01 -4.168738e-02 -9.396759e-01
    outer loop
      vertex   5.193401e+00 5.458484e-01 -1.900655e+00
      vertex   0.000000e+00 0.000000e+00 0.000000e+00
      vertex   5.171187e+00 7.267629e-01 -1.900655e+00
    endloop
  endfacet
endsolid
