solid ASCII
  facet normal 8.660254e-01 5.000000e-01 -5.015138e-14
    outer loop
      vertex   -3.597272e+00 6.230657e+00 8.574123e+00
      vertex   7.938674e-15 0.000000e+00 0.000000e+00
      vertex   -3.685767e+00 6.383937e+00 8.406893e+00
    endloop
  endfacet
  facet normal 8.660254e-01 5.000000e-01 -4.778444e-14
    outer loop
      vertex   -3.685767e+00 6.383937e+00 8.406893e+00
      vertex   7.938674e-15 0.000000e+00 0.000000e+00
      vertex   -3.772500e+00 6.534161e+00 8.235639e+00
    endloop
  endfacet
  facet normal 8.660254e-01 5.000000e-01 1.147768e-14
    outer loop
      vertex   -3.772500e+00 6.534161e+00 8.235639e+00
      vertex   7.938674e-15 0.000000e+00 0.000000e+00
      vertex   -3.857345e+00 6.681118e+00 8.060614e+00
    endloop
  endfacet
  facet normal 8.660254e-01 5.000000e-01 2.013425e-14
    outer loop
      vertex   -3.857345e+00 6.681118e+00 8.060614e+00
      vertex   7.938674e-15 0.000000e+00 0.000000e+00
      vertex   -3.940193e+00 6.824615e+00 7.882081e+00
    endloop
  endfacet
  facet normal 8.660254e-01 5.000000e-01 2.594987e-14
    outer loop
      vertex   -3.940193e+00 6.824615e+00 7.882081e+00
      vertex   7.938674e-15 0.000000e+00 0.000000e+00
      vertex   -4.021026e+00 6.964622e+00 7.700119e+00
    endloop
  endfacet
  facet normal 8.660254e-01 5.000000e-01 2.981053e-14
    outer loop
      vertex   -4.021026e+00 6.964622e+00 7.700119e+00
      vertex   7.938674e-15 0.000000e+00 0.000000e+00
      vertex   -4.099826e+00 7.101107e+00 7.514808e+00
    endloop
  endfacet
  facet normal 8.660254e-01 5.000000e-01 2.105459e-14
    outer loop
      vertex   -4.099826e+00 7.101107e+00 7.514808e+00
      vertex   7.938674e-15 0.000000e+00 0.000000e+00
      vertex   -4.176575e+00 7.234041e+00 7.326228e+00
    endloop
  endfacet
  facet normal 8.660254e-01 5.000000e-01 8.606179e-15
    outer loop
      vertex   -4.176575e+00 7.234041e+00 7.326228e+00
      vertex   7.938674e-15 0.000000e+00 0.000000e+00
      vertex   -4.251257e+00 7.363393e+00 7.134456e+00
    endloop
  endfacet
  facet normal -4.221137e-01 5.385915e-01 7.292046e-01
    outer loop
      vertex   -4.746364e+00 5.656497e+00 8.421111e+00
      vertex   -4.632021e+00 5.520228e+00 8.587950e+00
      vertex   -4.620040e+00 5.757079e+00 8.419946e+00
    endloop
  endfacet
  facet normal -4.144853e-01 5.403711e-01 7.322575e-01
    outer loop
      vertex   -4.620040e+00 5.757079e+00 8.419946e+00
      vertex   -4.632021e+00 5.520228e+00 8.587950e+00
      vertex   -4.385134e+00 5.714495e+00 8.584337e+00
    endloop
  endfacet
  facet normal -4.107340e-01 5.478218e-01 7.288271e-01
    outer loop
      vertex   -4.620040e+00 5.757079e+00 8.419946e+00
      vertex   -4.385134e+00 5.714495e+00 8.584337e+00
      vertex   -4.491677e+00 5.853320e+00 8.419946e+00
    endloop
  endfacet
  facet normal -3.989173e-01 5.566982e-01 7.286646e-01
    outer loop
      vertex   -4.491677e+00 5.853320e+00 8.419946e+00
      vertex   -4.385134e+00 5.714495e+00 8.584337e+00
      vertex   -4.359840e+00 5.947792e+00 8.419946e+00
    endloop
  endfacet
  facet normal -4.080926e-01 5.695025e-01 7.135316e-01
    outer loop
      vertex   -4.491677e+00 5.853320e+00 8.419946e+00
      vertex   -4.359840e+00 5.947792e+00 8.419946e+00
      vertex   -4.463672e+00 6.089099e+00 8.247777e+00
    endloop
  endfacet
  facet normal -3.958001e-01 5.783254e-01 7.133597e-01
    outer loop
      vertex   -4.463672e+00 6.089099e+00 8.247777e+00
      vertex   -4.359840e+00 5.947792e+00 8.419946e+00
      vertex   -4.327260e+00 6.182458e+00 8.247777e+00
    endloop
  endfacet
  facet normal -4.045862e-01 5.911633e-01 6.977363e-01
    outer loop
      vertex   -4.463672e+00 6.089099e+00 8.247777e+00
      vertex   -4.327260e+00 6.182458e+00 8.247777e+00
      vertex   -4.425684e+00 6.323079e+00 8.071563e+00
    endloop
  endfacet
  facet normal -3.918720e-01 5.998572e-01 6.975727e-01
    outer loop
      vertex   -4.425684e+00 6.323079e+00 8.071563e+00
      vertex   -4.327260e+00 6.182458e+00 8.247777e+00
      vertex   -4.284711e+00 6.415174e+00 8.071563e+00
    endloop
  endfacet
  facet normal -4.001738e-01 6.125652e-01 6.816339e-01
    outer loop
      vertex   -4.425684e+00 6.323079e+00 8.071563e+00
      vertex   -4.284711e+00 6.415174e+00 8.071563e+00
      vertex   -4.377918e+00 6.554726e+00 7.891431e+00
    endloop
  endfacet
  facet normal -3.871093e-01 6.210818e-01 6.814718e-01
    outer loop
      vertex   -4.377918e+00 6.554726e+00 7.891431e+00
      vertex   -4.284711e+00 6.415174e+00 8.071563e+00
      vertex   -4.233475e+00 6.644755e+00 7.891431e+00
    endloop
  endfacet
  facet normal -3.949316e-01 6.336319e-01 6.652366e-01
    outer loop
      vertex   -4.377918e+00 6.554726e+00 7.891431e+00
      vertex   -4.233475e+00 6.644755e+00 7.891431e+00
      vertex   -4.321539e+00 6.782957e+00 7.707513e+00
    endloop
  endfacet
  facet normal -3.814213e-01 6.420239e-01 6.650737e-01
    outer loop
      vertex   -4.321539e+00 6.782957e+00 7.707513e+00
      vertex   -4.233475e+00 6.644755e+00 7.891431e+00
      vertex   -4.170296e+00 6.872809e+00 7.707513e+00
    endloop
  endfacet
  facet normal -3.887691e-01 6.543920e-01 6.485597e-01
    outer loop
      vertex   -4.321539e+00 6.782957e+00 7.707513e+00
      vertex   -4.170296e+00 6.872809e+00 7.707513e+00
      vertex   -4.253316e+00 7.009381e+00 7.519949e+00
    endloop
  endfacet
  facet normal -3.752886e-01 6.623697e-01 6.484018e-01
    outer loop
      vertex   -4.253316e+00 7.009381e+00 7.519949e+00
      vertex   -4.170296e+00 6.872809e+00 7.707513e+00
      vertex   -4.021026e+00 6.964622e+00 7.700119e+00
    endloop
  endfacet
  facet normal -3.746758e-01 6.632703e-01 6.478353e-01
    outer loop
      vertex   -4.253316e+00 7.009381e+00 7.519949e+00
      vertex   -4.021026e+00 6.964622e+00 7.700119e+00
      vertex   -4.099826e+00 7.101107e+00 7.514808e+00
    endloop
  endfacet
  facet normal -3.910904e-01 5.580863e-01 7.318388e-01
    outer loop
      vertex   -4.385134e+00 5.714495e+00 8.584337e+00
      vertex   -4.130052e+00 5.897873e+00 8.580811e+00
      vertex   -4.359840e+00 5.947792e+00 8.419946e+00
    endloop
  endfacet
  facet normal -3.870100e-01 5.654978e-01 7.283100e-01
    outer loop
      vertex   -4.359840e+00 5.947792e+00 8.419946e+00
      vertex   -4.130052e+00 5.897873e+00 8.580811e+00
      vertex   -4.226758e+00 6.038869e+00 8.419946e+00
    endloop
  endfacet
  facet normal -3.957900e-01 5.783271e-01 7.133639e-01
    outer loop
      vertex   -4.359840e+00 5.947792e+00 8.419946e+00
      vertex   -4.226758e+00 6.038869e+00 8.419946e+00
      vertex   -4.327260e+00 6.182458e+00 8.247777e+00
    endloop
  endfacet
  facet normal -3.833635e-01 5.868328e-01 7.132038e-01
    outer loop
      vertex   -4.327260e+00 6.182458e+00 8.247777e+00
      vertex   -4.226758e+00 6.038869e+00 8.419946e+00
      vertex   -4.189421e+00 6.272505e+00 8.247777e+00
    endloop
  endfacet
  facet normal -3.918720e-01 5.998572e-01 6.975727e-01
    outer loop
      vertex   -4.327260e+00 6.182458e+00 8.247777e+00
      vertex   -4.189421e+00 6.272505e+00 8.247777e+00
      vertex   -4.284711e+00 6.415174e+00 8.071563e+00
    endloop
  endfacet
  facet normal -3.790819e-01 6.082033e-01 6.974136e-01
    outer loop
      vertex   -4.284711e+00 6.415174e+00 8.071563e+00
      vertex   -4.189421e+00 6.272505e+00 8.247777e+00
      vertex   -4.143334e+00 6.503291e+00 8.071563e+00
    endloop
  endfacet
  facet normal -3.871088e-01 6.210818e-01 6.814720e-01
    outer loop
      vertex   -4.284711e+00 6.415174e+00 8.071563e+00
      vertex   -4.143334e+00 6.503291e+00 8.071563e+00
      vertex   -4.233475e+00 6.644755e+00 7.891431e+00
    endloop
  endfacet
  facet normal -3.738649e-01 6.293167e-01 6.813117e-01
    outer loop
      vertex   -4.233475e+00 6.644755e+00 7.891431e+00
      vertex   -4.143334e+00 6.503291e+00 8.071563e+00
      vertex   -4.085216e+00 6.732833e+00 7.891431e+00
    endloop
  endfacet
  facet normal -3.814145e-01 6.420247e-01 6.650769e-01
    outer loop
      vertex   -4.233475e+00 6.644755e+00 7.891431e+00
      vertex   -4.085216e+00 6.732833e+00 7.891431e+00
      vertex   -4.170296e+00 6.872809e+00 7.707513e+00
    endloop
  endfacet
  facet normal -3.683553e-01 6.497616e-01 6.649242e-01
    outer loop
      vertex   -4.170296e+00 6.872809e+00 7.707513e+00
      vertex   -4.085216e+00 6.732833e+00 7.891431e+00
      vertex   -3.940193e+00 6.824615e+00 7.882081e+00
    endloop
  endfacet
  facet normal -3.675196e-01 6.510083e-01 6.641668e-01
    outer loop
      vertex   -4.170296e+00 6.872809e+00 7.707513e+00
      vertex   -3.940193e+00 6.824615e+00 7.882081e+00
      vertex   -4.021026e+00 6.964622e+00 7.700119e+00
    endloop
  endfacet
  facet normal -3.748223e-01 5.737584e-01 7.282235e-01
    outer loop
      vertex   -4.226758e+00 6.038869e+00 8.419946e+00
      vertex   -4.130052e+00 5.897873e+00 8.580811e+00
      vertex   -4.092121e+00 6.126824e+00 8.419946e+00
    endloop
  endfacet
  facet normal -3.670109e-01 5.747213e-01 7.314359e-01
    outer loop
      vertex   -4.092121e+00 6.126824e+00 8.419946e+00
      vertex   -4.130052e+00 5.897873e+00 8.580811e+00
      vertex   -3.867264e+00 6.070030e+00 8.577398e+00
    endloop
  endfacet
  facet normal -3.627021e-01 5.819250e-01 7.278808e-01
    outer loop
      vertex   -4.092121e+00 6.126824e+00 8.419946e+00
      vertex   -3.867264e+00 6.070030e+00 8.577398e+00
      vertex   -3.957082e+00 6.210991e+00 8.419946e+00
    endloop
  endfacet
  facet normal -3.502893e-01 5.896661e-01 7.277302e-01
    outer loop
      vertex   -3.957082e+00 6.210991e+00 8.419946e+00
      vertex   -3.867264e+00 6.070030e+00 8.577398e+00
      vertex   -3.818226e+00 6.293478e+00 8.419946e+00
    endloop
  endfacet
  facet normal -3.581573e-01 6.029108e-01 7.128969e-01
    outer loop
      vertex   -3.957082e+00 6.210991e+00 8.419946e+00
      vertex   -3.818226e+00 6.293478e+00 8.419946e+00
      vertex   -3.909117e+00 6.443062e+00 8.247777e+00
    endloop
  endfacet
  facet normal -3.463093e-01 6.099529e-01 7.127604e-01
    outer loop
      vertex   -3.909117e+00 6.443062e+00 8.247777e+00
      vertex   -3.818226e+00 6.293478e+00 8.419946e+00
      vertex   -3.685767e+00 6.383937e+00 8.406893e+00
    endloop
  endfacet
  facet normal -3.449234e-01 6.120820e-01 7.116063e-01
    outer loop
      vertex   -3.909117e+00 6.443062e+00 8.247777e+00
      vertex   -3.685767e+00 6.383937e+00 8.406893e+00
      vertex   -3.772500e+00 6.534161e+00 8.235639e+00
    endloop
  endfacet
  facet normal -3.422939e-01 5.902522e-01 7.310521e-01
    outer loop
      vertex   -3.867264e+00 6.070030e+00 8.577398e+00
      vertex   -3.597272e+00 6.230657e+00 8.574123e+00
      vertex   -3.818226e+00 6.293478e+00 8.419946e+00
    endloop
  endfacet
  facet normal -3.370398e-01 5.984123e-01 7.268472e-01
    outer loop
      vertex   -3.818226e+00 6.293478e+00 8.419946e+00
      vertex   -3.597272e+00 6.230657e+00 8.574123e+00
      vertex   -3.685767e+00 6.383937e+00 8.406893e+00
    endloop
  endfacet
  facet normal -3.538569e-01 6.235486e-01 6.971172e-01
    outer loop
      vertex   -3.909117e+00 6.443062e+00 8.247777e+00
      vertex   -3.772500e+00 6.534161e+00 8.235639e+00
      vertex   -3.998135e+00 6.589549e+00 8.071563e+00
    endloop
  endfacet
  facet normal -3.526341e-01 6.254138e-01 6.960652e-01
    outer loop
      vertex   -3.998135e+00 6.589549e+00 8.071563e+00
      vertex   -3.772500e+00 6.534161e+00 8.235639e+00
      vertex   -3.857345e+00 6.681118e+00 8.060614e+00
    endloop
  endfacet
  facet normal -3.612104e-01 6.368188e-01 6.811673e-01
    outer loop
      vertex   -3.998135e+00 6.589549e+00 8.071563e+00
      vertex   -3.857345e+00 6.681118e+00 8.060614e+00
      vertex   -4.085216e+00 6.732833e+00 7.891431e+00
    endloop
  endfacet
  facet normal -3.601704e-01 6.383898e-01 6.802468e-01
    outer loop
      vertex   -4.085216e+00 6.732833e+00 7.891431e+00
      vertex   -3.857345e+00 6.681118e+00 8.060614e+00
      vertex   -3.940193e+00 6.824615e+00 7.882081e+00
    endloop
  endfacet
  facet normal -3.801326e-01 6.717287e-01 6.358300e-01
    outer loop
      vertex   -4.253316e+00 7.009381e+00 7.519949e+00
      vertex   -4.099826e+00 7.101107e+00 7.514808e+00
      vertex   -4.294035e+00 7.076360e+00 7.424844e+00
    endloop
  endfacet
  facet normal -3.786624e-01 6.768655e-01 6.312431e-01
    outer loop
      vertex   -4.294035e+00 7.076360e+00 7.424844e+00
      vertex   -4.099826e+00 7.101107e+00 7.514808e+00
      vertex   -4.176575e+00 7.234041e+00 7.326228e+00
    endloop
  endfacet
  facet normal -3.832688e-01 6.778740e-01 6.273690e-01
    outer loop
      vertex   -4.294035e+00 7.076360e+00 7.424844e+00
      vertex   -4.176575e+00 7.234041e+00 7.326228e+00
      vertex   -4.334219e+00 7.142454e+00 7.328881e+00
    endloop
  endfacet
  facet normal -3.859108e-01 6.822366e-01 6.209880e-01
    outer loop
      vertex   -4.334219e+00 7.142454e+00 7.328881e+00
      vertex   -4.176575e+00 7.234041e+00 7.326228e+00
      vertex   -4.354107e+00 7.175165e+00 7.280583e+00
    endloop
  endfacet
  facet normal -4.002836e-01 6.737480e-01 6.211575e-01
    outer loop
      vertex   -4.334219e+00 7.142454e+00 7.328881e+00
      vertex   -4.354107e+00 7.175165e+00 7.280583e+00
      vertex   -4.491190e+00 7.049195e+00 7.328881e+00
    endloop
  endfacet
  facet normal -4.002866e-01 6.737498e-01 6.211537e-01
    outer loop
      vertex   -4.491190e+00 7.049195e+00 7.328881e+00
      vertex   -4.354107e+00 7.175165e+00 7.280583e+00
      vertex   -4.511772e+00 7.081494e+00 7.280583e+00
    endloop
  endfacet
  facet normal -4.144636e-01 6.649662e-01 6.213211e-01
    outer loop
      vertex   -4.491190e+00 7.049195e+00 7.328881e+00
      vertex   -4.511772e+00 7.081494e+00 7.280583e+00
      vertex   -4.644396e+00 6.953704e+00 7.328881e+00
    endloop
  endfacet
  facet normal -4.144638e-01 6.649663e-01 6.213208e-01
    outer loop
      vertex   -4.644396e+00 6.953704e+00 7.328881e+00
      vertex   -4.511772e+00 7.081494e+00 7.280583e+00
      vertex   -4.665677e+00 6.985567e+00 7.280583e+00
    endloop
  endfacet
  facet normal -4.284649e-01 6.558718e-01 6.214902e-01
    outer loop
      vertex   -4.644396e+00 6.953704e+00 7.328881e+00
      vertex   -4.665677e+00 6.985567e+00 7.280583e+00
      vertex   -4.797204e+00 6.853878e+00 7.328881e+00
    endloop
  endfacet
  facet normal -4.284649e-01 6.558718e-01 6.214902e-01
    outer loop
      vertex   -4.797204e+00 6.853878e+00 7.328881e+00
      vertex   -4.665677e+00 6.985567e+00 7.280583e+00
      vertex   -4.819186e+00 6.885284e+00 7.280583e+00
    endloop
  endfacet
  facet normal -4.424293e-01 6.463662e-01 6.216648e-01
    outer loop
      vertex   -4.797204e+00 6.853878e+00 7.328881e+00
      vertex   -4.819186e+00 6.885284e+00 7.280583e+00
      vertex   -4.949351e+00 6.749736e+00 7.328881e+00
    endloop
  endfacet
  facet normal -4.424341e-01 6.463687e-01 6.216587e-01
    outer loop
      vertex   -4.949351e+00 6.749736e+00 7.328881e+00
      vertex   -4.819186e+00 6.885284e+00 7.280583e+00
      vertex   -4.972076e+00 6.780631e+00 7.280583e+00
    endloop
  endfacet
  facet normal -4.562076e-01 6.365359e-01 6.218494e-01
    outer loop
      vertex   -4.949351e+00 6.749736e+00 7.328881e+00
      vertex   -4.972076e+00 6.780631e+00 7.280583e+00
      vertex   -5.097931e+00 6.643248e+00 7.328881e+00
    endloop
  endfacet
  facet normal -4.562128e-01 6.365384e-01 6.218431e-01
    outer loop
      vertex   -5.097931e+00 6.643248e+00 7.328881e+00
      vertex   -4.972076e+00 6.780631e+00 7.280583e+00
      vertex   -5.121293e+00 6.673686e+00 7.280583e+00
    endloop
  endfacet
  facet normal -4.697247e-01 6.264545e-01 6.220237e-01
    outer loop
      vertex   -5.097931e+00 6.643248e+00 7.328881e+00
      vertex   -5.121293e+00 6.673686e+00 7.280583e+00
      vertex   -5.243991e+00 6.533730e+00 7.328881e+00
    endloop
  endfacet
  facet normal -4.697269e-01 6.264555e-01 6.220210e-01
    outer loop
      vertex   -5.243991e+00 6.533730e+00 7.328881e+00
      vertex   -5.121293e+00 6.673686e+00 7.280583e+00
      vertex   -5.268038e+00 6.563654e+00 7.280583e+00
    endloop
  endfacet
  facet normal -4.832829e-01 6.158672e-01 6.222099e-01
    outer loop
      vertex   -5.243991e+00 6.533730e+00 7.328881e+00
      vertex   -5.268038e+00 6.563654e+00 7.280583e+00
      vertex   -5.381012e+00 6.412840e+00 7.342111e+00
    endloop
  endfacet
  facet normal -4.872041e-01 6.170663e-01 6.179493e-01
    outer loop
      vertex   -5.381012e+00 6.412840e+00 7.342111e+00
      vertex   -5.268038e+00 6.563654e+00 7.280583e+00
      vertex   -5.291920e+00 6.593373e+00 7.232078e+00
    endloop
  endfacet
  facet normal -4.882231e-01 6.170740e-01 6.171368e-01
    outer loop
      vertex   -5.381012e+00 6.412840e+00 7.342111e+00
      vertex   -5.291920e+00 6.593373e+00 7.232078e+00
      vertex   -5.477631e+00 6.527987e+00 7.150540e+00
    endloop
  endfacet
  facet normal -4.879806e-01 6.207280e-01 6.136544e-01
    outer loop
      vertex   -5.477631e+00 6.527987e+00 7.150540e+00
      vertex   -5.291920e+00 6.593373e+00 7.232078e+00
      vertex   -5.315635e+00 6.622884e+00 7.183369e+00
    endloop
  endfacet
  facet normal -4.889252e-01 6.236182e-01 6.099611e-01
    outer loop
      vertex   -5.477631e+00 6.527987e+00 7.150540e+00
      vertex   -5.315635e+00 6.622884e+00 7.183369e+00
      vertex   -5.332484e+00 6.643851e+00 7.148427e+00
    endloop
  endfacet
  facet normal -4.754732e-01 6.341152e-01 6.097731e-01
    outer loop
      vertex   -5.332484e+00 6.643851e+00 7.148427e+00
      vertex   -5.315635e+00 6.622884e+00 7.183369e+00
      vertex   -5.167534e+00 6.733934e+00 7.183369e+00
    endloop
  endfacet
  facet normal -4.754930e-01 6.341861e-01 6.096839e-01
    outer loop
      vertex   -5.332484e+00 6.643851e+00 7.148427e+00
      vertex   -5.167534e+00 6.733934e+00 7.183369e+00
      vertex   -5.184878e+00 6.756532e+00 7.146335e+00
    endloop
  endfacet
  facet normal -4.618342e-01 6.443723e-01 6.095026e-01
    outer loop
      vertex   -5.184878e+00 6.756532e+00 7.146335e+00
      vertex   -5.167534e+00 6.733934e+00 7.183369e+00
      vertex   -5.017058e+00 6.841783e+00 7.183369e+00
    endloop
  endfacet
  facet normal -4.618503e-01 6.444408e-01 6.094181e-01
    outer loop
      vertex   -5.184878e+00 6.756532e+00 7.146335e+00
      vertex   -5.017058e+00 6.841783e+00 7.183369e+00
      vertex   -5.034868e+00 6.865993e+00 7.144270e+00
    endloop
  endfacet
  facet normal -4.479745e-01 6.543401e-01 6.092272e-01
    outer loop
      vertex   -5.034868e+00 6.865993e+00 7.144270e+00
      vertex   -5.017058e+00 6.841783e+00 7.183369e+00
      vertex   -4.882509e+00 6.972197e+00 7.142233e+00
    endloop
  endfacet
  facet normal -4.478431e-01 6.542616e-01 6.094082e-01
    outer loop
      vertex   -4.882509e+00 6.972197e+00 7.142233e+00
      vertex   -5.017058e+00 6.841783e+00 7.183369e+00
      vertex   -4.862694e+00 6.947445e+00 7.183369e+00
    endloop
  endfacet
  facet normal -4.340517e-01 6.641353e-01 6.087063e-01
    outer loop
      vertex   -4.882509e+00 6.972197e+00 7.142233e+00
      vertex   -4.862694e+00 6.947445e+00 7.183369e+00
      vertex   -4.727890e+00 7.075086e+00 7.140229e+00
    endloop
  endfacet
  facet normal -4.337432e-01 6.639516e-01 6.091265e-01
    outer loop
      vertex   -4.727890e+00 7.075086e+00 7.140229e+00
      vertex   -4.862694e+00 6.947445e+00 7.183369e+00
      vertex   -4.707800e+00 7.048634e+00 7.183369e+00
    endloop
  endfacet
  facet normal -4.198211e-01 6.734418e-01 6.084623e-01
    outer loop
      vertex   -4.727890e+00 7.075086e+00 7.140229e+00
      vertex   -4.707800e+00 7.048634e+00 7.183369e+00
      vertex   -4.571103e+00 7.174603e+00 7.138263e+00
    endloop
  endfacet
  facet normal -4.197022e-01 6.733704e-01 6.086233e-01
    outer loop
      vertex   -4.571103e+00 7.174603e+00 7.138263e+00
      vertex   -4.707800e+00 7.048634e+00 7.183369e+00
      vertex   -4.552509e+00 7.145424e+00 7.183369e+00
    endloop
  endfacet
  facet normal -4.053458e-01 6.822588e-01 6.084552e-01
    outer loop
      vertex   -4.571103e+00 7.174603e+00 7.138263e+00
      vertex   -4.552509e+00 7.145424e+00 7.183369e+00
      vertex   -4.393475e+00 7.239910e+00 7.183369e+00
    endloop
  endfacet
  facet normal -4.037174e-01 6.795180e-01 6.125909e-01
    outer loop
      vertex   -4.393475e+00 7.239910e+00 7.183369e+00
      vertex   -4.552509e+00 7.145424e+00 7.183369e+00
      vertex   -4.532212e+00 7.113571e+00 7.232078e+00
    endloop
  endfacet
  facet normal -4.037144e-01 6.795162e-01 6.125948e-01
    outer loop
      vertex   -4.393475e+00 7.239910e+00 7.183369e+00
      vertex   -4.532212e+00 7.113571e+00 7.232078e+00
      vertex   -4.373860e+00 7.207651e+00 7.232078e+00
    endloop
  endfacet
  facet normal -4.020086e-01 6.766450e-01 6.168798e-01
    outer loop
      vertex   -4.373860e+00 7.207651e+00 7.232078e+00
      vertex   -4.532212e+00 7.113571e+00 7.232078e+00
      vertex   -4.511772e+00 7.081494e+00 7.280583e+00
    endloop
  endfacet
  facet normal -4.020056e-01 6.766433e-01 6.168836e-01
    outer loop
      vertex   -4.373860e+00 7.207651e+00 7.232078e+00
      vertex   -4.511772e+00 7.081494e+00 7.280583e+00
      vertex   -4.354107e+00 7.175165e+00 7.280583e+00
    endloop
  endfacet
  facet normal -3.860661e-01 6.860401e-01 6.166862e-01
    outer loop
      vertex   -4.354107e+00 7.175165e+00 7.280583e+00
      vertex   -4.176575e+00 7.234041e+00 7.326228e+00
      vertex   -4.373860e+00 7.207651e+00 7.232078e+00
    endloop
  endfacet
  facet normal -3.853185e-01 6.884739e-01 6.144374e-01
    outer loop
      vertex   -4.373860e+00 7.207651e+00 7.232078e+00
      vertex   -4.176575e+00 7.234041e+00 7.326228e+00
      vertex   -4.251257e+00 7.363393e+00 7.134456e+00
    endloop
  endfacet
  facet normal -3.876167e-01 6.890031e-01 6.123953e-01
    outer loop
      vertex   -4.373860e+00 7.207651e+00 7.232078e+00
      vertex   -4.251257e+00 7.363393e+00 7.134456e+00
      vertex   -4.393475e+00 7.239910e+00 7.183369e+00
    endloop
  endfacet
  facet normal -3.907462e-01 6.909466e-01 6.082025e-01
    outer loop
      vertex   -4.393475e+00 7.239910e+00 7.183369e+00
      vertex   -4.251257e+00 7.363393e+00 7.134456e+00
      vertex   -4.412206e+00 7.270716e+00 7.136338e+00
    endloop
  endfacet
  facet normal -4.053507e-01 6.823282e-01 6.083741e-01
    outer loop
      vertex   -4.393475e+00 7.239910e+00 7.183369e+00
      vertex   -4.412206e+00 7.270716e+00 7.136338e+00
      vertex   -4.571103e+00 7.174603e+00 7.138263e+00
    endloop
  endfacet
  facet normal -4.795328e-01 6.123144e-01 6.285852e-01
    outer loop
      vertex   -5.243991e+00 6.533730e+00 7.328881e+00
      vertex   -5.381012e+00 6.412840e+00 7.342111e+00
      vertex   -5.195406e+00 6.473266e+00 7.424844e+00
    endloop
  endfacet
  facet normal -4.799936e-01 6.064233e-01 6.339218e-01
    outer loop
      vertex   -5.195406e+00 6.473266e+00 7.424844e+00
      vertex   -5.381012e+00 6.412840e+00 7.342111e+00
      vertex   -5.281730e+00 6.294521e+00 7.530473e+00
    endloop
  endfacet
  facet normal -4.759718e-01 6.063244e-01 6.370412e-01
    outer loop
      vertex   -5.195406e+00 6.473266e+00 7.424844e+00
      vertex   -5.281730e+00 6.294521e+00 7.530473e+00
      vertex   -5.146172e+00 6.411992e+00 7.519949e+00
    endloop
  endfacet
  facet normal -4.684776e-01 5.988005e-01 6.495896e-01
    outer loop
      vertex   -5.146172e+00 6.411992e+00 7.519949e+00
      vertex   -5.281730e+00 6.294521e+00 7.530473e+00
      vertex   -5.045788e+00 6.287055e+00 7.707513e+00
    endloop
  endfacet
  facet normal -4.561868e-01 6.084072e-01 6.494107e-01
    outer loop
      vertex   -5.146172e+00 6.411992e+00 7.519949e+00
      vertex   -5.045788e+00 6.287055e+00 7.707513e+00
      vertex   -5.002895e+00 6.519422e+00 7.519949e+00
    endloop
  endfacet
  facet normal -4.561820e-01 6.084082e-01 6.494131e-01
    outer loop
      vertex   -5.002895e+00 6.519422e+00 7.519949e+00
      vertex   -5.045788e+00 6.287055e+00 7.707513e+00
      vertex   -4.905364e+00 6.392344e+00 7.707513e+00
    endloop
  endfacet
  facet normal -4.430633e-01 6.182141e-01 6.492352e-01
    outer loop
      vertex   -5.002895e+00 6.519422e+00 7.519949e+00
      vertex   -4.905364e+00 6.392344e+00 7.707513e+00
      vertex   -4.856913e+00 6.624045e+00 7.519949e+00
    endloop
  endfacet
  facet normal -4.430519e-01 6.182163e-01 6.492409e-01
    outer loop
      vertex   -4.856913e+00 6.624045e+00 7.519949e+00
      vertex   -4.905364e+00 6.392344e+00 7.707513e+00
      vertex   -4.762059e+00 6.495045e+00 7.707513e+00
    endloop
  endfacet
  facet normal -4.296888e-01 6.277708e-01 6.490542e-01
    outer loop
      vertex   -4.856913e+00 6.624045e+00 7.519949e+00
      vertex   -4.762059e+00 6.495045e+00 7.707513e+00
      vertex   -4.707783e+00 6.726119e+00 7.519949e+00
    endloop
  endfacet
  facet normal -4.296778e-01 6.277727e-01 6.490597e-01
    outer loop
      vertex   -4.707783e+00 6.726119e+00 7.519949e+00
      vertex   -4.762059e+00 6.495045e+00 7.707513e+00
      vertex   -4.616013e+00 6.595006e+00 7.707513e+00
    endloop
  endfacet
  facet normal -4.161386e-01 6.370033e-01 6.488878e-01
    outer loop
      vertex   -4.707783e+00 6.726119e+00 7.519949e+00
      vertex   -4.616013e+00 6.595006e+00 7.707513e+00
      vertex   -4.557823e+00 6.824084e+00 7.519949e+00
    endloop
  endfacet
  facet normal -4.161386e-01 6.370033e-01 6.488878e-01
    outer loop
      vertex   -4.557823e+00 6.824084e+00 7.519949e+00
      vertex   -4.616013e+00 6.595006e+00 7.707513e+00
      vertex   -4.468977e+00 6.691062e+00 7.707513e+00
    endloop
  endfacet
  facet normal -4.025460e-01 6.458466e-01 6.487210e-01
    outer loop
      vertex   -4.557823e+00 6.824084e+00 7.519949e+00
      vertex   -4.468977e+00 6.691062e+00 7.707513e+00
      vertex   -4.407463e+00 6.917801e+00 7.519949e+00
    endloop
  endfacet
  facet normal -4.025455e-01 6.458467e-01 6.487212e-01
    outer loop
      vertex   -4.407463e+00 6.917801e+00 7.519949e+00
      vertex   -4.468977e+00 6.691062e+00 7.707513e+00
      vertex   -4.321539e+00 6.782957e+00 7.707513e+00
    endloop
  endfacet
  facet normal -3.887761e-01 6.543913e-01 6.485563e-01
    outer loop
      vertex   -4.407463e+00 6.917801e+00 7.519949e+00
      vertex   -4.321539e+00 6.782957e+00 7.707513e+00
      vertex   -4.253316e+00 7.009381e+00 7.519949e+00
    endloop
  endfacet
  facet normal -4.691487e-01 5.973681e-01 6.504236e-01
    outer loop
      vertex   -5.281730e+00 6.294521e+00 7.530473e+00
      vertex   -5.179809e+00 6.173056e+00 7.715545e+00
      vertex   -5.045788e+00 6.287055e+00 7.707513e+00
    endloop
  endfacet
  facet normal -4.596990e-01 5.873629e-01 6.660944e-01
    outer loop
      vertex   -5.045788e+00 6.287055e+00 7.707513e+00
      vertex   -5.179809e+00 6.173056e+00 7.715545e+00
      vertex   -4.942909e+00 6.159003e+00 7.891431e+00
    endloop
  endfacet
  facet normal -4.475374e-01 5.968791e-01 6.659171e-01
    outer loop
      vertex   -5.045788e+00 6.287055e+00 7.707513e+00
      vertex   -4.942909e+00 6.159003e+00 7.891431e+00
      vertex   -4.905364e+00 6.392344e+00 7.707513e+00
    endloop
  endfacet
  facet normal -4.475326e-01 5.968801e-01 6.659194e-01
    outer loop
      vertex   -4.905364e+00 6.392344e+00 7.707513e+00
      vertex   -4.942909e+00 6.159003e+00 7.891431e+00
      vertex   -4.805405e+00 6.262102e+00 7.891431e+00
    endloop
  endfacet
  facet normal -4.346622e-01 6.065098e-01 6.657437e-01
    outer loop
      vertex   -4.905364e+00 6.392344e+00 7.707513e+00
      vertex   -4.805405e+00 6.262102e+00 7.891431e+00
      vertex   -4.762059e+00 6.495045e+00 7.707513e+00
    endloop
  endfacet
  facet normal -4.346510e-01 6.065119e-01 6.657491e-01
    outer loop
      vertex   -4.762059e+00 6.495045e+00 7.707513e+00
      vertex   -4.805405e+00 6.262102e+00 7.891431e+00
      vertex   -4.664855e+00 6.362826e+00 7.891431e+00
    endloop
  endfacet
  facet normal -4.215456e-01 6.158912e-01 6.655654e-01
    outer loop
      vertex   -4.762059e+00 6.495045e+00 7.707513e+00
      vertex   -4.664855e+00 6.362826e+00 7.891431e+00
      vertex   -4.616013e+00 6.595006e+00 7.707513e+00
    endloop
  endfacet
  facet normal -4.215349e-01 6.158930e-01 6.655706e-01
    outer loop
      vertex   -4.616013e+00 6.595006e+00 7.707513e+00
      vertex   -4.664855e+00 6.362826e+00 7.891431e+00
      vertex   -4.521958e+00 6.460628e+00 7.891431e+00
    endloop
  endfacet
  facet normal -4.082641e-01 6.249495e-01 6.654010e-01
    outer loop
      vertex   -4.616013e+00 6.595006e+00 7.707513e+00
      vertex   -4.521958e+00 6.460628e+00 7.891431e+00
      vertex   -4.468977e+00 6.691062e+00 7.707513e+00
    endloop
  endfacet
  facet normal -4.082641e-01 6.249495e-01 6.654010e-01
    outer loop
      vertex   -4.468977e+00 6.691062e+00 7.707513e+00
      vertex   -4.521958e+00 6.460628e+00 7.891431e+00
      vertex   -4.377918e+00 6.554726e+00 7.891431e+00
    endloop
  endfacet
  facet normal -3.949321e-01 6.336318e-01 6.652363e-01
    outer loop
      vertex   -4.468977e+00 6.691062e+00 7.707513e+00
      vertex   -4.377918e+00 6.554726e+00 7.891431e+00
      vertex   -4.321539e+00 6.782957e+00 7.707513e+00
    endloop
  endfacet
  facet normal -4.602304e-01 5.862356e-01 6.667202e-01
    outer loop
      vertex   -5.179809e+00 6.173056e+00 7.715545e+00
      vertex   -5.075271e+00 6.048473e+00 7.897250e+00
      vertex   -4.942909e+00 6.159003e+00 7.891431e+00
    endloop
  endfacet
  facet normal -4.506768e-01 5.756161e-01 6.823170e-01
    outer loop
      vertex   -4.942909e+00 6.159003e+00 7.891431e+00
      vertex   -5.075271e+00 6.048473e+00 7.897250e+00
      vertex   -4.837607e+00 6.027926e+00 8.071563e+00
    endloop
  endfacet
  facet normal -4.386519e-01 5.850358e-01 6.821419e-01
    outer loop
      vertex   -4.942909e+00 6.159003e+00 7.891431e+00
      vertex   -4.837607e+00 6.027926e+00 8.071563e+00
      vertex   -4.805405e+00 6.262102e+00 7.891431e+00
    endloop
  endfacet
  facet normal -4.386472e-01 5.850368e-01 6.821441e-01
    outer loop
      vertex   -4.805405e+00 6.262102e+00 7.891431e+00
      vertex   -4.837607e+00 6.027926e+00 8.071563e+00
      vertex   -4.703088e+00 6.128786e+00 8.071563e+00
    endloop
  endfacet
  facet normal -4.260320e-01 5.944849e-01 6.819710e-01
    outer loop
      vertex   -4.805405e+00 6.262102e+00 7.891431e+00
      vertex   -4.703088e+00 6.128786e+00 8.071563e+00
      vertex   -4.664855e+00 6.362826e+00 7.891431e+00
    endloop
  endfacet
  facet normal -4.260210e-01 5.944870e-01 6.819760e-01
    outer loop
      vertex   -4.664855e+00 6.362826e+00 7.891431e+00
      vertex   -4.703088e+00 6.128786e+00 8.071563e+00
      vertex   -4.565369e+00 6.227478e+00 8.071563e+00
    endloop
  endfacet
  facet normal -4.131800e-01 6.036859e-01 6.817959e-01
    outer loop
      vertex   -4.664855e+00 6.362826e+00 7.891431e+00
      vertex   -4.565369e+00 6.227478e+00 8.071563e+00
      vertex   -4.521958e+00 6.460628e+00 7.891431e+00
    endloop
  endfacet
  facet normal -4.131695e-01 6.036877e-01 6.818007e-01
    outer loop
      vertex   -4.521958e+00 6.460628e+00 7.891431e+00
      vertex   -4.565369e+00 6.227478e+00 8.071563e+00
      vertex   -4.425684e+00 6.323079e+00 8.071563e+00
    endloop
  endfacet
  facet normal -4.001738e-01 6.125652e-01 6.816339e-01
    outer loop
      vertex   -4.521958e+00 6.460628e+00 7.891431e+00
      vertex   -4.425684e+00 6.323079e+00 8.071563e+00
      vertex   -4.377918e+00 6.554726e+00 7.891431e+00
    endloop
  endfacet
  facet normal -4.510746e-01 5.747780e-01 6.827605e-01
    outer loop
      vertex   -5.075271e+00 6.048473e+00 7.897250e+00
      vertex   -4.968140e+00 5.920799e+00 8.075509e+00
      vertex   -4.837607e+00 6.027926e+00 8.071563e+00
    endloop
  endfacet
  facet normal -4.414097e-01 5.635718e-01 6.982437e-01
    outer loop
      vertex   -4.837607e+00 6.027926e+00 8.071563e+00
      vertex   -4.968140e+00 5.920799e+00 8.075509e+00
      vertex   -4.729958e+00 5.893919e+00 8.247777e+00
    endloop
  endfacet
  facet normal -4.295353e-01 5.728839e-01 6.980712e-01
    outer loop
      vertex   -4.837607e+00 6.027926e+00 8.071563e+00
      vertex   -4.729958e+00 5.893919e+00 8.247777e+00
      vertex   -4.703088e+00 6.128786e+00 8.071563e+00
    endloop
  endfacet
  facet normal -4.295307e-01 5.728849e-01 6.980733e-01
    outer loop
      vertex   -4.703088e+00 6.128786e+00 8.071563e+00
      vertex   -4.729958e+00 5.893919e+00 8.247777e+00
      vertex   -4.598486e+00 5.992492e+00 8.247777e+00
    endloop
  endfacet
  facet normal -4.171772e-01 5.821461e-01 6.979033e-01
    outer loop
      vertex   -4.703088e+00 6.128786e+00 8.071563e+00
      vertex   -4.598486e+00 5.992492e+00 8.247777e+00
      vertex   -4.565369e+00 6.227478e+00 8.071563e+00
    endloop
  endfacet
  facet normal -4.171665e-01 5.821482e-01 6.979081e-01
    outer loop
      vertex   -4.565369e+00 6.227478e+00 8.071563e+00
      vertex   -4.598486e+00 5.992492e+00 8.247777e+00
      vertex   -4.463672e+00 6.089099e+00 8.247777e+00
    endloop
  endfacet
  facet normal -4.045965e-01 5.911616e-01 6.977318e-01
    outer loop
      vertex   -4.565369e+00 6.227478e+00 8.071563e+00
      vertex   -4.463672e+00 6.089099e+00 8.247777e+00
      vertex   -4.425684e+00 6.323079e+00 8.071563e+00
    endloop
  endfacet
  facet normal -4.416852e-01 5.629953e-01 6.985345e-01
    outer loop
      vertex   -4.968140e+00 5.920799e+00 8.075509e+00
      vertex   -4.858444e+00 5.790068e+00 8.250235e+00
      vertex   -4.729958e+00 5.893919e+00 8.247777e+00
    endloop
  endfacet
  facet normal -4.318940e-01 5.512442e-01 7.138609e-01
    outer loop
      vertex   -4.729958e+00 5.893919e+00 8.247777e+00
      vertex   -4.858444e+00 5.790068e+00 8.250235e+00
      vertex   -4.620040e+00 5.757079e+00 8.419946e+00
    endloop
  endfacet
  facet normal -4.201927e-01 5.604304e-01 7.136917e-01
    outer loop
      vertex   -4.729958e+00 5.893919e+00 8.247777e+00
      vertex   -4.620040e+00 5.757079e+00 8.419946e+00
      vertex   -4.598486e+00 5.992492e+00 8.247777e+00
    endloop
  endfacet
  facet normal -4.201882e-01 5.604314e-01 7.136936e-01
    outer loop
      vertex   -4.598486e+00 5.992492e+00 8.247777e+00
      vertex   -4.620040e+00 5.757079e+00 8.419946e+00
      vertex   -4.491677e+00 5.853320e+00 8.419946e+00
    endloop
  endfacet
  facet normal -4.081031e-01 5.695005e-01 7.135272e-01
    outer loop
      vertex   -4.598486e+00 5.992492e+00 8.247777e+00
      vertex   -4.491677e+00 5.853320e+00 8.419946e+00
      vertex   -4.463672e+00 6.089099e+00 8.247777e+00
    endloop
  endfacet
  facet normal -4.320574e-01 5.509043e-01 7.140244e-01
    outer loop
      vertex   -4.858444e+00 5.790068e+00 8.250235e+00
      vertex   -4.746364e+00 5.656497e+00 8.421111e+00
      vertex   -4.620040e+00 5.757079e+00 8.419946e+00
    endloop
  endfacet
  facet normal -4.666597e-01 6.223668e-01 6.284014e-01
    outer loop
      vertex   -5.097931e+00 6.643248e+00 7.328881e+00
      vertex   -5.243991e+00 6.533730e+00 7.328881e+00
      vertex   -5.195406e+00 6.473266e+00 7.424844e+00
    endloop
  endfacet
  facet normal -4.625160e-01 6.168444e-01 6.368531e-01
    outer loop
      vertex   -5.195406e+00 6.473266e+00 7.424844e+00
      vertex   -5.146172e+00 6.411992e+00 7.519949e+00
      vertex   -5.050729e+00 6.581746e+00 7.424844e+00
    endloop
  endfacet
  facet normal -4.625129e-01 6.168441e-01 6.368557e-01
    outer loop
      vertex   -5.050729e+00 6.581746e+00 7.424844e+00
      vertex   -5.146172e+00 6.411992e+00 7.519949e+00
      vertex   -5.002895e+00 6.519422e+00 7.519949e+00
    endloop
  endfacet
  facet normal -4.492095e-01 6.267807e-01 6.366763e-01
    outer loop
      vertex   -5.050729e+00 6.581746e+00 7.424844e+00
      vertex   -5.002895e+00 6.519422e+00 7.519949e+00
      vertex   -4.903438e+00 6.687309e+00 7.424844e+00
    endloop
  endfacet
  facet normal -4.492022e-01 6.267798e-01 6.366823e-01
    outer loop
      vertex   -4.903438e+00 6.687309e+00 7.424844e+00
      vertex   -5.002895e+00 6.519422e+00 7.519949e+00
      vertex   -4.856913e+00 6.624045e+00 7.519949e+00
    endloop
  endfacet
  facet normal -4.356461e-01 6.364654e-01 6.364937e-01
    outer loop
      vertex   -4.903438e+00 6.687309e+00 7.424844e+00
      vertex   -4.856913e+00 6.624045e+00 7.519949e+00
      vertex   -4.752791e+00 6.790423e+00 7.424844e+00
    endloop
  endfacet
  facet normal -4.356393e-01 6.364644e-01 6.364994e-01
    outer loop
      vertex   -4.752791e+00 6.790423e+00 7.424844e+00
      vertex   -4.856913e+00 6.624045e+00 7.519949e+00
      vertex   -4.707783e+00 6.726119e+00 7.519949e+00
    endloop
  endfacet
  facet normal -4.219009e-01 6.458240e-01 6.363261e-01
    outer loop
      vertex   -4.752791e+00 6.790423e+00 7.424844e+00
      vertex   -4.707783e+00 6.726119e+00 7.519949e+00
      vertex   -4.601397e+00 6.889325e+00 7.424844e+00
    endloop
  endfacet
  facet normal -4.219009e-01 6.458240e-01 6.363261e-01
    outer loop
      vertex   -4.601397e+00 6.889325e+00 7.424844e+00
      vertex   -4.707783e+00 6.726119e+00 7.519949e+00
      vertex   -4.557823e+00 6.824084e+00 7.519949e+00
    endloop
  endfacet
  facet normal -4.081174e-01 6.547849e-01 6.361580e-01
    outer loop
      vertex   -4.601397e+00 6.889325e+00 7.424844e+00
      vertex   -4.557823e+00 6.824084e+00 7.519949e+00
      vertex   -4.449605e+00 6.983935e+00 7.424844e+00
    endloop
  endfacet
  facet normal -4.081171e-01 6.547848e-01 6.361582e-01
    outer loop
      vertex   -4.449605e+00 6.983935e+00 7.424844e+00
      vertex   -4.557823e+00 6.824084e+00 7.519949e+00
      vertex   -4.407463e+00 6.917801e+00 7.519949e+00
    endloop
  endfacet
  facet normal -3.941566e-01 6.634416e-01 6.359920e-01
    outer loop
      vertex   -4.449605e+00 6.983935e+00 7.424844e+00
      vertex   -4.407463e+00 6.917801e+00 7.519949e+00
      vertex   -4.294035e+00 7.076360e+00 7.424844e+00
    endloop
  endfacet
  facet normal -3.941524e-01 6.634407e-01 6.359956e-01
    outer loop
      vertex   -4.294035e+00 7.076360e+00 7.424844e+00
      vertex   -4.407463e+00 6.917801e+00 7.519949e+00
      vertex   -4.253316e+00 7.009381e+00 7.519949e+00
    endloop
  endfacet
  facet normal -4.737628e-01 6.318342e-01 6.134609e-01
    outer loop
      vertex   -5.167534e+00 6.733934e+00 7.183369e+00
      vertex   -5.315635e+00 6.622884e+00 7.183369e+00
      vertex   -5.291920e+00 6.593373e+00 7.232078e+00
    endloop
  endfacet
  facet normal -4.717526e-01 6.291552e-01 6.177485e-01
    outer loop
      vertex   -5.291920e+00 6.593373e+00 7.232078e+00
      vertex   -5.268038e+00 6.563654e+00 7.280583e+00
      vertex   -5.144494e+00 6.703915e+00 7.232078e+00
    endloop
  endfacet
  facet normal -4.717504e-01 6.291542e-01 6.177512e-01
    outer loop
      vertex   -5.144494e+00 6.703915e+00 7.232078e+00
      vertex   -5.268038e+00 6.563654e+00 7.280583e+00
      vertex   -5.121293e+00 6.673686e+00 7.280583e+00
    endloop
  endfacet
  facet normal -4.581803e-01 6.392790e-01 6.175703e-01
    outer loop
      vertex   -5.144494e+00 6.703915e+00 7.232078e+00
      vertex   -5.121293e+00 6.673686e+00 7.280583e+00
      vertex   -4.994645e+00 6.811314e+00 7.232078e+00
    endloop
  endfacet
  facet normal -4.581752e-01 6.392765e-01 6.175767e-01
    outer loop
      vertex   -4.994645e+00 6.811314e+00 7.232078e+00
      vertex   -5.121293e+00 6.673686e+00 7.280583e+00
      vertex   -4.972076e+00 6.780631e+00 7.280583e+00
    endloop
  endfacet
  facet normal -4.443412e-01 6.491502e-01 6.173856e-01
    outer loop
      vertex   -4.994645e+00 6.811314e+00 7.232078e+00
      vertex   -4.972076e+00 6.780631e+00 7.280583e+00
      vertex   -4.841016e+00 6.916473e+00 7.232078e+00
    endloop
  endfacet
  facet normal -4.443363e-01 6.491477e-01 6.173917e-01
    outer loop
      vertex   -4.841016e+00 6.916473e+00 7.232078e+00
      vertex   -4.972076e+00 6.780631e+00 7.280583e+00
      vertex   -4.819186e+00 6.885284e+00 7.280583e+00
    endloop
  endfacet
  facet normal -4.303086e-01 6.586941e-01 6.172168e-01
    outer loop
      vertex   -4.841016e+00 6.916473e+00 7.232078e+00
      vertex   -4.819186e+00 6.885284e+00 7.280583e+00
      vertex   -4.686812e+00 7.017211e+00 7.232078e+00
    endloop
  endfacet
  facet normal -4.303086e-01 6.586941e-01 6.172168e-01
    outer loop
      vertex   -4.686812e+00 7.017211e+00 7.232078e+00
      vertex   -4.819186e+00 6.885284e+00 7.280583e+00
      vertex   -4.665677e+00 6.985567e+00 7.280583e+00
    endloop
  endfacet
  facet normal -4.162464e-01 6.678261e-01 6.170471e-01
    outer loop
      vertex   -4.686812e+00 7.017211e+00 7.232078e+00
      vertex   -4.665677e+00 6.985567e+00 7.280583e+00
      vertex   -4.532212e+00 7.113571e+00 7.232078e+00
    endloop
  endfacet
  facet normal -4.162462e-01 6.678260e-01 6.170474e-01
    outer loop
      vertex   -4.532212e+00 7.113571e+00 7.232078e+00
      vertex   -4.665677e+00 6.985567e+00 7.280583e+00
      vertex   -4.511772e+00 7.081494e+00 7.280583e+00
    endloop
  endfacet
  facet normal -4.601329e-01 6.419986e-01 6.132826e-01
    outer loop
      vertex   -5.167534e+00 6.733934e+00 7.183369e+00
      vertex   -5.144494e+00 6.703915e+00 7.232078e+00
      vertex   -5.017058e+00 6.841783e+00 7.183369e+00
    endloop
  endfacet
  facet normal -4.601277e-01 6.419961e-01 6.132890e-01
    outer loop
      vertex   -5.017058e+00 6.841783e+00 7.183369e+00
      vertex   -5.144494e+00 6.703915e+00 7.232078e+00
      vertex   -4.994645e+00 6.811314e+00 7.232078e+00
    endloop
  endfacet
  facet normal -4.462336e-01 6.519103e-01 6.130974e-01
    outer loop
      vertex   -5.017058e+00 6.841783e+00 7.183369e+00
      vertex   -4.994645e+00 6.811314e+00 7.232078e+00
      vertex   -4.862694e+00 6.947445e+00 7.183369e+00
    endloop
  endfacet
  facet normal -4.462288e-01 6.519078e-01 6.131036e-01
    outer loop
      vertex   -4.862694e+00 6.947445e+00 7.183369e+00
      vertex   -4.994645e+00 6.811314e+00 7.232078e+00
      vertex   -4.841016e+00 6.916473e+00 7.232078e+00
    endloop
  endfacet
  facet normal -4.321382e-01 6.614947e-01 6.129285e-01
    outer loop
      vertex   -4.862694e+00 6.947445e+00 7.183369e+00
      vertex   -4.841016e+00 6.916473e+00 7.232078e+00
      vertex   -4.707800e+00 7.048634e+00 7.183369e+00
    endloop
  endfacet
  facet normal -4.321382e-01 6.614947e-01 6.129285e-01
    outer loop
      vertex   -4.707800e+00 7.048634e+00 7.183369e+00
      vertex   -4.841016e+00 6.916473e+00 7.232078e+00
      vertex   -4.686812e+00 7.017211e+00 7.232078e+00
    endloop
  endfacet
  facet normal -4.180153e-01 6.706640e-01 6.127585e-01
    outer loop
      vertex   -4.707800e+00 7.048634e+00 7.183369e+00
      vertex   -4.686812e+00 7.017211e+00 7.232078e+00
      vertex   -4.552509e+00 7.145424e+00 7.183369e+00
    endloop
  endfacet
  facet normal -4.180151e-01 6.706638e-01 6.127588e-01
    outer loop
      vertex   -4.552509e+00 7.145424e+00 7.183369e+00
      vertex   -4.686812e+00 7.017211e+00 7.232078e+00
      vertex   -4.532212e+00 7.113571e+00 7.232078e+00
    endloop
  endfacet
  facet normal -4.737606e-01 6.318332e-01 6.134637e-01
    outer loop
      vertex   -5.144494e+00 6.703915e+00 7.232078e+00
      vertex   -5.167534e+00 6.733934e+00 7.183369e+00
      vertex   -5.291920e+00 6.593373e+00 7.232078e+00
    endloop
  endfacet
  facet normal -4.532342e-01 6.323872e-01 6.282239e-01
    outer loop
      vertex   -5.097931e+00 6.643248e+00 7.328881e+00
      vertex   -5.050729e+00 6.581746e+00 7.424844e+00
      vertex   -4.949351e+00 6.749736e+00 7.328881e+00
    endloop
  endfacet
  facet normal -4.532269e-01 6.323863e-01 6.282300e-01
    outer loop
      vertex   -4.949351e+00 6.749736e+00 7.328881e+00
      vertex   -5.050729e+00 6.581746e+00 7.424844e+00
      vertex   -4.903438e+00 6.687309e+00 7.424844e+00
    endloop
  endfacet
  facet normal -4.395472e-01 6.421556e-01 6.280402e-01
    outer loop
      vertex   -4.949351e+00 6.749736e+00 7.328881e+00
      vertex   -4.903438e+00 6.687309e+00 7.424844e+00
      vertex   -4.797204e+00 6.853878e+00 7.328881e+00
    endloop
  endfacet
  facet normal -4.395402e-01 6.421546e-01 6.280461e-01
    outer loop
      vertex   -4.797204e+00 6.853878e+00 7.328881e+00
      vertex   -4.903438e+00 6.687309e+00 7.424844e+00
      vertex   -4.752791e+00 6.790423e+00 7.424844e+00
    endloop
  endfacet
  facet normal -4.256727e-01 6.515976e-01 6.278721e-01
    outer loop
      vertex   -4.797204e+00 6.853878e+00 7.328881e+00
      vertex   -4.752791e+00 6.790423e+00 7.424844e+00
      vertex   -4.644396e+00 6.953704e+00 7.328881e+00
    endloop
  endfacet
  facet normal -4.256727e-01 6.515976e-01 6.278721e-01
    outer loop
      vertex   -4.644396e+00 6.953704e+00 7.328881e+00
      vertex   -4.752791e+00 6.790423e+00 7.424844e+00
      vertex   -4.601397e+00 6.889325e+00 7.424844e+00
    endloop
  endfacet
  facet normal -4.117642e-01 6.606353e-01 6.277031e-01
    outer loop
      vertex   -4.644396e+00 6.953704e+00 7.328881e+00
      vertex   -4.601397e+00 6.889325e+00 7.424844e+00
      vertex   -4.491190e+00 7.049195e+00 7.328881e+00
    endloop
  endfacet
  facet normal -4.117639e-01 6.606353e-01 6.277034e-01
    outer loop
      vertex   -4.491190e+00 7.049195e+00 7.328881e+00
      vertex   -4.601397e+00 6.889325e+00 7.424844e+00
      vertex   -4.449605e+00 6.983935e+00 7.424844e+00
    endloop
  endfacet
  facet normal -3.976794e-01 6.693647e-01 6.275365e-01
    outer loop
      vertex   -4.491190e+00 7.049195e+00 7.328881e+00
      vertex   -4.449605e+00 6.983935e+00 7.424844e+00
      vertex   -4.334219e+00 7.142454e+00 7.328881e+00
    endloop
  endfacet
  facet normal -3.976751e-01 6.693638e-01 6.275402e-01
    outer loop
      vertex   -4.334219e+00 7.142454e+00 7.328881e+00
      vertex   -4.449605e+00 6.983935e+00 7.424844e+00
      vertex   -4.294035e+00 7.076360e+00 7.424844e+00
    endloop
  endfacet
  facet normal -4.666565e-01 6.223665e-01 6.284040e-01
    outer loop
      vertex   -5.050729e+00 6.581746e+00 7.424844e+00
      vertex   -5.097931e+00 6.643248e+00 7.328881e+00
      vertex   -5.195406e+00 6.473266e+00 7.424844e+00
    endloop
  endfacet
  facet normal -3.738582e-01 6.293173e-01 6.813147e-01
    outer loop
      vertex   -3.998135e+00 6.589549e+00 8.071563e+00
      vertex   -4.085216e+00 6.732833e+00 7.891431e+00
      vertex   -4.143334e+00 6.503291e+00 8.071563e+00
    endloop
  endfacet
  facet normal -3.661043e-01 6.162769e-01 6.972592e-01
    outer loop
      vertex   -3.909117e+00 6.443062e+00 8.247777e+00
      vertex   -3.998135e+00 6.589549e+00 8.071563e+00
      vertex   -4.051180e+00 6.358668e+00 8.247777e+00
    endloop
  endfacet
  facet normal -3.661109e-01 6.162762e-01 6.972563e-01
    outer loop
      vertex   -4.051180e+00 6.358668e+00 8.247777e+00
      vertex   -3.998135e+00 6.589549e+00 8.071563e+00
      vertex   -4.143334e+00 6.503291e+00 8.071563e+00
    endloop
  endfacet
  facet normal -3.790814e-01 6.082034e-01 6.974138e-01
    outer loop
      vertex   -4.051180e+00 6.358668e+00 8.247777e+00
      vertex   -4.143334e+00 6.503291e+00 8.071563e+00
      vertex   -4.189421e+00 6.272505e+00 8.247777e+00
    endloop
  endfacet
  facet normal -3.708538e-01 5.950038e-01 7.130483e-01
    outer loop
      vertex   -4.092121e+00 6.126824e+00 8.419946e+00
      vertex   -3.957082e+00 6.210991e+00 8.419946e+00
      vertex   -4.051180e+00 6.358668e+00 8.247777e+00
    endloop
  endfacet
  facet normal -3.581637e-01 6.029101e-01 7.128942e-01
    outer loop
      vertex   -4.051180e+00 6.358668e+00 8.247777e+00
      vertex   -3.957082e+00 6.210991e+00 8.419946e+00
      vertex   -3.909117e+00 6.443062e+00 8.247777e+00
    endloop
  endfacet
  facet normal -3.708543e-01 5.950038e-01 7.130481e-01
    outer loop
      vertex   -4.092121e+00 6.126824e+00 8.419946e+00
      vertex   -4.051180e+00 6.358668e+00 8.247777e+00
      vertex   -4.189421e+00 6.272505e+00 8.247777e+00
    endloop
  endfacet
  facet normal -3.833635e-01 5.868328e-01 7.132038e-01
    outer loop
      vertex   -4.226758e+00 6.038869e+00 8.419946e+00
      vertex   -4.092121e+00 6.126824e+00 8.419946e+00
      vertex   -4.189421e+00 6.272505e+00 8.247777e+00
    endloop
  endfacet
  facet normal -7.660444e-01 -6.427876e-01 -1.641702e-10
    outer loop
      vertex   -4.632021e+00 5.520228e+00 8.587950e+00
      vertex   -4.746364e+00 5.656497e+00 8.421111e+00
      vertex   7.938674e-15 0.000000e+00 0.000000e+00
    endloop
  endfacet
  facet normal -7.660444e-01 -6.427876e-01 -2.050542e-10
    outer loop
      vertex   7.938674e-15 0.000000e+00 0.000000e+00
      vertex   -4.746364e+00 5.656497e+00 8.421111e+00
      vertex   -4.858444e+00 5.790068e+00 8.250235e+00
    endloop
  endfacet
  facet normal -7.660444e-01 -6.427876e-01 2.189868e-11
    outer loop
      vertex   7.938674e-15 0.000000e+00 0.000000e+00
      vertex   -4.858444e+00 5.790068e+00 8.250235e+00
      vertex   -4.968140e+00 5.920799e+00 8.075509e+00
    endloop
  endfacet
  facet normal -7.660444e-01 -6.427876e-01 8.016886e-11
    outer loop
      vertex   -4.968140e+00 5.920799e+00 8.075509e+00
      vertex   -5.075271e+00 6.048473e+00 7.897250e+00
      vertex   7.938674e-15 0.000000e+00 0.000000e+00
    endloop
  endfacet
  facet normal -7.660444e-01 -6.427876e-01 1.076789e-10
    outer loop
      vertex   7.938674e-15 0.000000e+00 0.000000e+00
      vertex   -5.075271e+00 6.048473e+00 7.897250e+00
      vertex   -5.179809e+00 6.173056e+00 7.715545e+00
    endloop
  endfacet
  facet normal -7.660444e-01 -6.427876e-01 1.101082e-10
    outer loop
      vertex   7.938674e-15 0.000000e+00 0.000000e+00
      vertex   -5.179809e+00 6.173056e+00 7.715545e+00
      vertex   -5.281730e+00 6.294521e+00 7.530473e+00
    endloop
  endfacet
  facet normal -7.660444e-01 -6.427876e-01 8.630759e-11
    outer loop
      vertex   -5.281730e+00 6.294521e+00 7.530473e+00
      vertex   -5.381012e+00 6.412840e+00 7.342111e+00
      vertex   7.938674e-15 0.000000e+00 0.000000e+00
    endloop
  endfacet
  facet normal -7.660444e-01 -6.427876e-01 3.517900e-11
    outer loop
      vertex   7.938674e-15 0.000000e+00 0.000000e+00
      vertex   -5.381012e+00 6.412840e+00 7.342111e+00
      vertex   -5.477631e+00 6.527987e+00 7.150540e+00
    endloop
  endfacet
  facet normal 3.974468e-01 -6.549623e-01 6.426978e-01
    outer loop
      vertex   7.938674e-15 0.000000e+00 0.000000e+00
      vertex   -3.597272e+00 6.230657e+00 8.574123e+00
      vertex   -1.935970e+00 3.038775e+00 4.293975e+00
    endloop
  endfacet
  facet normal 3.974513e-01 -6.549597e-01 6.426976e-01
    outer loop
      vertex   -1.935970e+00 3.038775e+00 4.293975e+00
      vertex   -3.597272e+00 6.230657e+00 8.574123e+00
      vertex   -3.867264e+00 6.070030e+00 8.577398e+00
    endloop
  endfacet
  facet normal 4.256433e-01 -6.369985e-01 6.426980e-01
    outer loop
      vertex   -1.935970e+00 3.038775e+00 4.293975e+00
      vertex   -3.867264e+00 6.070030e+00 8.577398e+00
      vertex   -2.066691e+00 2.951427e+00 4.293975e+00
    endloop
  endfacet
  facet normal 4.256534e-01 -6.369921e-01 6.426976e-01
    outer loop
      vertex   -2.066691e+00 2.951427e+00 4.293975e+00
      vertex   -3.867264e+00 6.070030e+00 8.577398e+00
      vertex   -4.130052e+00 5.897873e+00 8.580811e+00
    endloop
  endfacet
  facet normal 4.530236e-01 -6.178258e-01 6.426981e-01
    outer loop
      vertex   -2.066691e+00 2.951427e+00 4.293975e+00
      vertex   -4.130052e+00 5.897873e+00 8.580811e+00
      vertex   -2.193451e+00 2.858480e+00 4.293975e+00
    endloop
  endfacet
  facet normal 4.530336e-01 -6.178188e-01 6.426978e-01
    outer loop
      vertex   -2.193451e+00 2.858480e+00 4.293975e+00
      vertex   -4.130052e+00 5.897873e+00 8.580811e+00
      vertex   -4.385134e+00 5.714495e+00 8.584337e+00
    endloop
  endfacet
  facet normal 4.795404e-01 -5.974782e-01 6.426981e-01
    outer loop
      vertex   -2.193451e+00 2.858480e+00 4.293975e+00
      vertex   -4.385134e+00 5.714495e+00 8.584337e+00
      vertex   -4.632021e+00 5.520228e+00 8.587950e+00
    endloop
  endfacet
  facet normal 4.795364e-01 -5.974816e-01 6.426979e-01
    outer loop
      vertex   -4.632021e+00 5.520228e+00 8.587950e+00
      vertex   7.938674e-15 0.000000e+00 0.000000e+00
      vertex   -2.193451e+00 2.858480e+00 4.293975e+00
    endloop
  endfacet
  facet normal 4.530238e-01 -6.178260e-01 6.426979e-01
    outer loop
      vertex   -2.193451e+00 2.858480e+00 4.293975e+00
      vertex   7.938674e-15 0.000000e+00 0.000000e+00
      vertex   -2.066691e+00 2.951427e+00 4.293975e+00
    endloop
  endfacet
  facet normal 4.256434e-01 -6.369986e-01 6.426978e-01
    outer loop
      vertex   -2.066691e+00 2.951427e+00 4.293975e+00
      vertex   7.938674e-15 0.000000e+00 0.000000e+00
      vertex   -1.935970e+00 3.038775e+00 4.293975e+00
    endloop
  endfacet
  facet normal -4.023968e-01 5.013662e-01 -7.659692e-01
    outer loop
      vertex   7.938674e-15 0.000000e+00 0.000000e+00
      vertex   -5.477631e+00 6.527987e+00 7.150540e+00
      vertex   -2.593900e+00 3.380303e+00 3.575270e+00
    endloop
  endfacet
  facet normal -4.076888e-01 4.967532e-01 -7.661763e-01
    outer loop
      vertex   -2.593900e+00 3.380303e+00 3.575270e+00
      vertex   -5.477631e+00 6.527987e+00 7.150540e+00
      vertex   -5.332484e+00 6.643851e+00 7.148427e+00
    endloop
  endfacet
  facet normal -3.968724e-01 5.056648e-01 -7.660257e-01
    outer loop
      vertex   -2.593900e+00 3.380303e+00 3.575270e+00
      vertex   -5.332484e+00 6.643851e+00 7.148427e+00
      vertex   -5.184878e+00 6.756532e+00 7.146335e+00
    endloop
  endfacet
  facet normal -3.857542e-01 5.141970e-01 -7.660256e-01
    outer loop
      vertex   -5.184878e+00 6.756532e+00 7.146335e+00
      vertex   -5.034868e+00 6.865993e+00 7.144270e+00
      vertex   -2.593900e+00 3.380303e+00 3.575270e+00
    endloop
  endfacet
  facet normal -3.800448e-01 5.182917e-01 -7.661199e-01
    outer loop
      vertex   -2.593900e+00 3.380303e+00 3.575270e+00
      vertex   -5.034868e+00 6.865993e+00 7.144270e+00
      vertex   -2.444006e+00 3.490215e+00 3.575270e+00
    endloop
  endfacet
  facet normal -3.801511e-01 5.184366e-01 -7.659691e-01
    outer loop
      vertex   -2.593900e+00 3.380303e+00 3.575270e+00
      vertex   -2.444006e+00 3.490215e+00 3.575270e+00
      vertex   7.938674e-15 0.000000e+00 0.000000e+00
    endloop
  endfacet
  facet normal -3.744484e-01 5.224874e-01 -7.660257e-01
    outer loop
      vertex   -5.034868e+00 6.865993e+00 7.144270e+00
      vertex   -4.882509e+00 6.972197e+00 7.142233e+00
      vertex   -2.444006e+00 3.490215e+00 3.575270e+00
    endloop
  endfacet
  facet normal -3.629605e-01 5.305324e-01 -7.660255e-01
    outer loop
      vertex   -2.444006e+00 3.490215e+00 3.575270e+00
      vertex   -4.882509e+00 6.972197e+00 7.142233e+00
      vertex   -4.727890e+00 7.075086e+00 7.140229e+00
    endloop
  endfacet
  facet normal -3.570754e-01 5.343757e-01 -7.661200e-01
    outer loop
      vertex   -2.444006e+00 3.490215e+00 3.575270e+00
      vertex   -4.727890e+00 7.075086e+00 7.140229e+00
      vertex   -2.289415e+00 3.593514e+00 3.575270e+00
    endloop
  endfacet
  facet normal -3.512970e-01 5.383262e-01 -7.660257e-01
    outer loop
      vertex   -2.289415e+00 3.593514e+00 3.575270e+00
      vertex   -4.727890e+00 7.075086e+00 7.140229e+00
      vertex   -4.571103e+00 7.174603e+00 7.138263e+00
    endloop
  endfacet
  facet normal -3.394639e-01 5.458655e-01 -7.660255e-01
    outer loop
      vertex   -2.289415e+00 3.593514e+00 3.575270e+00
      vertex   -4.571103e+00 7.174603e+00 7.138263e+00
      vertex   -4.412206e+00 7.270716e+00 7.136338e+00
    endloop
  endfacet
  facet normal -3.273761e-01 5.529901e-01 -7.661768e-01
    outer loop
      vertex   -4.412206e+00 7.270716e+00 7.136338e+00
      vertex   -4.251257e+00 7.363393e+00 7.134456e+00
      vertex   -2.289415e+00 3.593514e+00 3.575270e+00
    endloop
  endfacet
  facet normal -3.335128e-01 5.496005e-01 -7.659690e-01
    outer loop
      vertex   -2.289415e+00 3.593514e+00 3.575270e+00
      vertex   -4.251257e+00 7.363393e+00 7.134456e+00
      vertex   7.938674e-15 0.000000e+00 0.000000e+00
    endloop
  endfacet
  facet normal -3.571753e-01 5.345252e-01 -7.659691e-01
    outer loop
      vertex   -2.289415e+00 3.593514e+00 3.575270e+00
      vertex   7.938674e-15 0.000000e+00 0.000000e+00
      vertex   -2.444006e+00 3.490215e+00 3.575270e+00
    endloop
  endfacet
endsolid
