solid ASCII
  facet normal 5.000000e-01 -8.660254e-01 1.046802e-14
    outer loop
      vertex   -3.368997e+00 -1.945091e+00 -1.068819e+01
      vertex   0.000000e+00 0.000000e+00 8.881784e-15
      vertex   -3.568204e+00 -2.060104e+00 -1.059498e+01
    endloop
  endfacet
  facet normal 5.000000e-01 -8.660254e-01 -1.102552e-15
    outer loop
      vertex   -3.568204e+00 -2.060104e+00 -1.059498e+01
      vertex   0.000000e+00 0.000000e+00 8.881784e-15
      vertex   -3.765501e+00 -2.174013e+00 -1.049650e+01
    endloop
  endfacet
  facet normal 5.000000e-01 -8.660254e-01 -2.149734e-15
    outer loop
      vertex   -3.765501e+00 -2.174013e+00 -1.049650e+01
      vertex   0.000000e+00 0.000000e+00 8.881784e-15
      vertex   -3.960572e+00 -2.286637e+00 -1.039293e+01
    endloop
  endfacet
  facet normal 5.000000e-01 -8.660254e-01 -4.938359e-15
    outer loop
      vertex   -3.960572e+00 -2.286637e+00 -1.039293e+01
      vertex   0.000000e+00 0.000000e+00 8.881784e-15
      vertex   -4.153357e+00 -2.397942e+00 -1.028433e+01
    endloop
  endfacet
  facet normal 5.000000e-01 -8.660254e-01 -3.382688e-15
    outer loop
      vertex   -4.153357e+00 -2.397942e+00 -1.028433e+01
      vertex   0.000000e+00 0.000000e+00 8.881784e-15
      vertex   -4.343797e+00 -2.507892e+00 -1.017077e+01
    endloop
  endfacet
  facet normal 5.000000e-01 -8.660254e-01 -2.376899e-15
    outer loop
      vertex   -4.343797e+00 -2.507892e+00 -1.017077e+01
      vertex   0.000000e+00 0.000000e+00 8.881784e-15
      vertex   -4.531832e+00 -2.616454e+00 -1.005230e+01
    endloop
  endfacet
  facet normal 5.000000e-01 -8.660254e-01 -4.124756e-15
    outer loop
      vertex   -4.531832e+00 -2.616454e+00 -1.005230e+01
      vertex   0.000000e+00 0.000000e+00 8.881784e-15
      vertex   -4.717403e+00 -2.723594e+00 -9.928992e+00
    endloop
  endfacet
  facet normal 5.000000e-01 -8.660254e-01 3.255574e-15
    outer loop
      vertex   -4.717403e+00 -2.723594e+00 -9.928992e+00
      vertex   0.000000e+00 0.000000e+00 8.881784e-15
      vertex   -4.900450e+00 -2.829276e+00 -9.800899e+00
    endloop
  endfacet
  facet normal -3.476750e-01 -1.369363e-01 -9.275616e-01
    outer loop
      vertex   -3.873208e+00 -1.409732e+00 -1.059962e+01
      vertex   -3.656978e+00 -1.331031e+00 -1.069229e+01
      vertex   -3.699252e+00 -1.529614e+00 -1.064713e+01
    endloop
  endfacet
  facet normal -3.412071e-01 -1.387960e-01 -9.296845e-01
    outer loop
      vertex   -3.699252e+00 -1.529614e+00 -1.064713e+01
      vertex   -3.656978e+00 -1.331031e+00 -1.069229e+01
      vertex   -3.595142e+00 -1.489132e+00 -1.069138e+01
    endloop
  endfacet
  facet normal -3.351768e-01 -1.540725e-01 -9.294720e-01
    outer loop
      vertex   -3.699252e+00 -1.529614e+00 -1.064713e+01
      vertex   -3.595142e+00 -1.489132e+00 -1.069138e+01
      vertex   -3.626631e+00 -1.687597e+00 -1.064713e+01
    endloop
  endfacet
  facet normal -3.348891e-01 -1.541388e-01 -9.295647e-01
    outer loop
      vertex   -3.626631e+00 -1.687597e+00 -1.064713e+01
      vertex   -3.595142e+00 -1.489132e+00 -1.069138e+01
      vertex   -3.526441e+00 -1.644373e+00 -1.069039e+01
    endloop
  endfacet
  facet normal -3.282951e-01 -1.691625e-01 -9.293043e-01
    outer loop
      vertex   -3.626631e+00 -1.687597e+00 -1.064713e+01
      vertex   -3.526441e+00 -1.644373e+00 -1.069039e+01
      vertex   -3.546315e+00 -1.843467e+00 -1.064713e+01
    endloop
  endfacet
  facet normal -3.280180e-01 -1.692095e-01 -9.293935e-01
    outer loop
      vertex   -3.546315e+00 -1.843467e+00 -1.064713e+01
      vertex   -3.526441e+00 -1.644373e+00 -1.069039e+01
      vertex   -3.451011e+00 -1.796455e+00 -1.068932e+01
    endloop
  endfacet
  facet normal -3.206210e-01 -1.839993e-01 -9.291644e-01
    outer loop
      vertex   -3.546315e+00 -1.843467e+00 -1.064713e+01
      vertex   -3.451011e+00 -1.796455e+00 -1.068932e+01
      vertex   -3.368997e+00 -1.945091e+00 -1.068819e+01
    endloop
  endfacet
  facet normal -3.237319e-01 -1.903841e-01 -9.267964e-01
    outer loop
      vertex   -3.368997e+00 -1.945091e+00 -1.068819e+01
      vertex   -3.568204e+00 -2.060104e+00 -1.059498e+01
      vertex   -3.546315e+00 -1.843467e+00 -1.064713e+01
    endloop
  endfacet
  facet normal -3.291003e-01 -1.894330e-01 -9.250990e-01
    outer loop
      vertex   -3.546315e+00 -1.843467e+00 -1.064713e+01
      vertex   -3.568204e+00 -2.060104e+00 -1.059498e+01
      vertex   -3.647082e+00 -1.895849e+00 -1.060055e+01
    endloop
  endfacet
  facet normal -3.372856e-01 -1.737951e-01 -9.252209e-01
    outer loop
      vertex   -3.546315e+00 -1.843467e+00 -1.064713e+01
      vertex   -3.647082e+00 -1.895849e+00 -1.060055e+01
      vertex   -3.626631e+00 -1.687597e+00 -1.064713e+01
    endloop
  endfacet
  facet normal -3.372856e-01 -1.737951e-01 -9.252209e-01
    outer loop
      vertex   -3.626631e+00 -1.687597e+00 -1.064713e+01
      vertex   -3.647082e+00 -1.895849e+00 -1.060055e+01
      vertex   -3.729681e+00 -1.735550e+00 -1.060055e+01
    endloop
  endfacet
  facet normal -3.445141e-01 -1.583646e-01 -9.253273e-01
    outer loop
      vertex   -3.626631e+00 -1.687597e+00 -1.064713e+01
      vertex   -3.729681e+00 -1.735550e+00 -1.060055e+01
      vertex   -3.699252e+00 -1.529614e+00 -1.064713e+01
    endloop
  endfacet
  facet normal -3.445141e-01 -1.583646e-01 -9.253273e-01
    outer loop
      vertex   -3.699252e+00 -1.529614e+00 -1.064713e+01
      vertex   -3.729681e+00 -1.735550e+00 -1.060055e+01
      vertex   -3.804365e+00 -1.573077e+00 -1.060055e+01
    endloop
  endfacet
  facet normal -3.510454e-01 -1.426737e-01 -9.254249e-01
    outer loop
      vertex   -3.699252e+00 -1.529614e+00 -1.064713e+01
      vertex   -3.804365e+00 -1.573077e+00 -1.060055e+01
      vertex   -3.873208e+00 -1.409732e+00 -1.059962e+01
    endloop
  endfacet
  facet normal -3.607116e-01 -1.467724e-01 -9.210565e-01
    outer loop
      vertex   -3.873208e+00 -1.409732e+00 -1.059962e+01
      vertex   -3.804365e+00 -1.573077e+00 -1.060055e+01
      vertex   -3.909248e+00 -1.616445e+00 -1.055257e+01
    endloop
  endfacet
  facet normal -3.671946e-01 -1.451180e-01 -9.187540e-01
    outer loop
      vertex   -3.873208e+00 -1.409732e+00 -1.059962e+01
      vertex   -3.909248e+00 -1.616445e+00 -1.055257e+01
      vertex   -4.087504e+00 -1.487730e+00 -1.050165e+01
    endloop
  endfacet
  facet normal -3.704804e-01 -1.505362e-01 -9.165605e-01
    outer loop
      vertex   -4.087504e+00 -1.487730e+00 -1.050165e+01
      vertex   -3.909248e+00 -1.616445e+00 -1.055257e+01
      vertex   -4.013879e+00 -1.659709e+00 -1.050317e+01
    endloop
  endfacet
  facet normal -3.800562e-01 -1.546763e-01 -9.119389e-01
    outer loop
      vertex   -4.087504e+00 -1.487730e+00 -1.050165e+01
      vertex   -4.013879e+00 -1.659709e+00 -1.050317e+01
      vertex   -4.118235e+00 -1.702860e+00 -1.045236e+01
    endloop
  endfacet
  facet normal -3.730517e-01 -1.714827e-01 -9.118257e-01
    outer loop
      vertex   -4.118235e+00 -1.702860e+00 -1.045236e+01
      vertex   -4.013879e+00 -1.659709e+00 -1.050317e+01
      vertex   -4.037389e+00 -1.878737e+00 -1.045236e+01
    endloop
  endfacet
  facet normal -3.824987e-01 -1.758252e-01 -9.070723e-01
    outer loop
      vertex   -4.118235e+00 -1.702860e+00 -1.045236e+01
      vertex   -4.037389e+00 -1.878737e+00 -1.045236e+01
      vertex   -4.139407e+00 -1.926209e+00 -1.040014e+01
    endloop
  endfacet
  facet normal -3.744633e-01 -1.929518e-01 -9.069437e-01
    outer loop
      vertex   -4.139407e+00 -1.926209e+00 -1.040014e+01
      vertex   -4.037389e+00 -1.878737e+00 -1.045236e+01
      vertex   -4.047735e+00 -2.104118e+00 -1.040014e+01
    endloop
  endfacet
  facet normal -3.836735e-01 -1.976977e-01 -9.020589e-01
    outer loop
      vertex   -4.139407e+00 -1.926209e+00 -1.040014e+01
      vertex   -4.047735e+00 -2.104118e+00 -1.040014e+01
      vertex   -4.147188e+00 -2.155817e+00 -1.034651e+01
    endloop
  endfacet
  facet normal -3.748140e-01 -2.145981e-01 -9.019213e-01
    outer loop
      vertex   -4.147188e+00 -2.155817e+00 -1.034651e+01
      vertex   -4.047735e+00 -2.104118e+00 -1.040014e+01
      vertex   -3.960572e+00 -2.286637e+00 -1.039293e+01
    endloop
  endfacet
  facet normal -3.786039e-01 -2.211279e-01 -8.987556e-01
    outer loop
      vertex   -4.147188e+00 -2.155817e+00 -1.034651e+01
      vertex   -3.960572e+00 -2.286637e+00 -1.039293e+01
      vertex   -4.153357e+00 -2.397942e+00 -1.028433e+01
    endloop
  endfacet
  facet normal -3.386404e-01 -1.938660e-01 -9.207273e-01
    outer loop
      vertex   -3.647082e+00 -1.895849e+00 -1.060055e+01
      vertex   -3.568204e+00 -2.060104e+00 -1.059498e+01
      vertex   -3.747629e+00 -1.948115e+00 -1.055257e+01
    endloop
  endfacet
  facet normal -3.422653e-01 -2.007411e-01 -9.179093e-01
    outer loop
      vertex   -3.747629e+00 -1.948115e+00 -1.055257e+01
      vertex   -3.568204e+00 -2.060104e+00 -1.059498e+01
      vertex   -3.765501e+00 -2.174013e+00 -1.049650e+01
    endloop
  endfacet
  facet normal -3.472870e-01 -1.999197e-01 -9.162008e-01
    outer loop
      vertex   -3.747629e+00 -1.948115e+00 -1.055257e+01
      vertex   -3.765501e+00 -2.174013e+00 -1.049650e+01
      vertex   -3.847934e+00 -2.000257e+00 -1.050317e+01
    endloop
  endfacet
  facet normal -3.568008e-01 -2.042558e-01 -9.115771e-01
    outer loop
      vertex   -3.847934e+00 -2.000257e+00 -1.050317e+01
      vertex   -3.765501e+00 -2.174013e+00 -1.049650e+01
      vertex   -3.947976e+00 -2.052261e+00 -1.045236e+01
    endloop
  endfacet
  facet normal -3.652173e-01 -1.881876e-01 -9.117027e-01
    outer loop
      vertex   -3.847934e+00 -2.000257e+00 -1.050317e+01
      vertex   -3.947976e+00 -2.052261e+00 -1.045236e+01
      vertex   -3.935081e+00 -1.831130e+00 -1.050317e+01
    endloop
  endfacet
  facet normal -3.652173e-01 -1.881876e-01 -9.117027e-01
    outer loop
      vertex   -3.935081e+00 -1.831130e+00 -1.050317e+01
      vertex   -3.947976e+00 -2.052261e+00 -1.045236e+01
      vertex   -4.037389e+00 -1.878737e+00 -1.045236e+01
    endloop
  endfacet
  facet normal -3.730517e-01 -1.714827e-01 -9.118257e-01
    outer loop
      vertex   -3.935081e+00 -1.831130e+00 -1.050317e+01
      vertex   -4.037389e+00 -1.878737e+00 -1.045236e+01
      vertex   -4.013879e+00 -1.659709e+00 -1.050317e+01
    endloop
  endfacet
  facet normal -3.605631e-01 -2.109890e-01 -9.085581e-01
    outer loop
      vertex   -3.765501e+00 -2.174013e+00 -1.049650e+01
      vertex   -3.960572e+00 -2.286637e+00 -1.039293e+01
      vertex   -3.947976e+00 -2.052261e+00 -1.045236e+01
    endloop
  endfacet
  facet normal -3.653768e-01 -2.102838e-01 -9.067969e-01
    outer loop
      vertex   -3.947976e+00 -2.052261e+00 -1.045236e+01
      vertex   -3.960572e+00 -2.286637e+00 -1.039293e+01
      vertex   -4.047735e+00 -2.104118e+00 -1.040014e+01
    endloop
  endfacet
  facet normal -3.744633e-01 -1.929518e-01 -9.069437e-01
    outer loop
      vertex   -3.947976e+00 -2.052261e+00 -1.045236e+01
      vertex   -4.047735e+00 -2.104118e+00 -1.040014e+01
      vertex   -4.037389e+00 -1.878737e+00 -1.045236e+01
    endloop
  endfacet
  facet normal -3.963815e-01 -2.311509e-01 -8.885105e-01
    outer loop
      vertex   -4.343797e+00 -2.507892e+00 -1.017077e+01
      vertex   -4.345096e+00 -2.258694e+00 -1.023502e+01
      vertex   -4.153357e+00 -2.397942e+00 -1.028433e+01
    endloop
  endfacet
  facet normal -3.926649e-01 -2.248811e-01 -8.917638e-01
    outer loop
      vertex   -4.153357e+00 -2.397942e+00 -1.028433e+01
      vertex   -4.345096e+00 -2.258694e+00 -1.023502e+01
      vertex   -4.246316e+00 -2.207346e+00 -1.029147e+01
    endloop
  endfacet
  facet normal -3.833469e-01 -2.205282e-01 -8.968905e-01
    outer loop
      vertex   -4.153357e+00 -2.397942e+00 -1.028433e+01
      vertex   -4.246316e+00 -2.207346e+00 -1.029147e+01
      vertex   -4.147188e+00 -2.155817e+00 -1.034651e+01
    endloop
  endfacet
  facet normal -3.928459e-01 -2.024240e-01 -8.970489e-01
    outer loop
      vertex   -4.147188e+00 -2.155817e+00 -1.034651e+01
      vertex   -4.246316e+00 -2.207346e+00 -1.029147e+01
      vertex   -4.241113e+00 -1.973537e+00 -1.034651e+01
    endloop
  endfacet
  facet normal -3.836735e-01 -1.976977e-01 -9.020589e-01
    outer loop
      vertex   -4.147188e+00 -2.155817e+00 -1.034651e+01
      vertex   -4.241113e+00 -1.973537e+00 -1.034651e+01
      vertex   -4.139407e+00 -1.926209e+00 -1.040014e+01
    endloop
  endfacet
  facet normal -3.919094e-01 -1.801510e-01 -9.021932e-01
    outer loop
      vertex   -4.139407e+00 -1.926209e+00 -1.040014e+01
      vertex   -4.241113e+00 -1.973537e+00 -1.034651e+01
      vertex   -4.222296e+00 -1.745888e+00 -1.040014e+01
    endloop
  endfacet
  facet normal -3.824987e-01 -1.758252e-01 -9.070723e-01
    outer loop
      vertex   -4.139407e+00 -1.926209e+00 -1.040014e+01
      vertex   -4.222296e+00 -1.745888e+00 -1.040014e+01
      vertex   -4.118235e+00 -1.702860e+00 -1.045236e+01
    endloop
  endfacet
  facet normal -3.897695e-01 -1.583844e-01 -9.071902e-01
    outer loop
      vertex   -4.118235e+00 -1.702860e+00 -1.045236e+01
      vertex   -4.222296e+00 -1.745888e+00 -1.040014e+01
      vertex   -4.299639e+00 -1.564941e+00 -1.039850e+01
    endloop
  endfacet
  facet normal -3.865008e-01 -1.531917e-01 -9.094776e-01
    outer loop
      vertex   -4.118235e+00 -1.702860e+00 -1.045236e+01
      vertex   -4.299639e+00 -1.564941e+00 -1.039850e+01
      vertex   -4.087504e+00 -1.487730e+00 -1.050165e+01
    endloop
  endfacet
  facet normal -4.151903e-01 -2.388015e-01 -8.778331e-01
    outer loop
      vertex   -4.531832e+00 -2.616454e+00 -1.005230e+01
      vertex   -4.639140e+00 -2.411546e+00 -1.005729e+01
      vertex   -4.343797e+00 -2.507892e+00 -1.017077e+01
    endloop
  endfacet
  facet normal -4.149092e-01 -2.373060e-01 -8.783713e-01
    outer loop
      vertex   -4.343797e+00 -2.507892e+00 -1.017077e+01
      vertex   -4.639140e+00 -2.411546e+00 -1.005729e+01
      vertex   -4.443508e+00 -2.309851e+00 -1.017718e+01
    endloop
  endfacet
  facet normal -4.011758e-01 -2.306538e-01 -8.864856e-01
    outer loop
      vertex   -4.343797e+00 -2.507892e+00 -1.017077e+01
      vertex   -4.443508e+00 -2.309851e+00 -1.017718e+01
      vertex   -4.345096e+00 -2.258694e+00 -1.023502e+01
    endloop
  endfacet
  facet normal -4.110689e-01 -2.118139e-01 -8.866551e-01
    outer loop
      vertex   -4.345096e+00 -2.258694e+00 -1.023502e+01
      vertex   -4.443508e+00 -2.309851e+00 -1.017718e+01
      vertex   -4.443503e+00 -2.067716e+00 -1.023502e+01
    endloop
  endfacet
  facet normal -4.019784e-01 -2.071297e-01 -8.919140e-01
    outer loop
      vertex   -4.345096e+00 -2.258694e+00 -1.023502e+01
      vertex   -4.443503e+00 -2.067716e+00 -1.023502e+01
      vertex   -4.342485e+00 -2.020709e+00 -1.029147e+01
    endloop
  endfacet
  facet normal -4.106132e-01 -1.887487e-01 -8.920598e-01
    outer loop
      vertex   -4.342485e+00 -2.020709e+00 -1.029147e+01
      vertex   -4.443503e+00 -2.067716e+00 -1.023502e+01
      vertex   -4.429441e+00 -1.831541e+00 -1.029147e+01
    endloop
  endfacet
  facet normal -4.012815e-01 -1.844592e-01 -8.971889e-01
    outer loop
      vertex   -4.342485e+00 -2.020709e+00 -1.029147e+01
      vertex   -4.429441e+00 -1.831541e+00 -1.029147e+01
      vertex   -4.326039e+00 -1.788785e+00 -1.034651e+01
    endloop
  endfacet
  facet normal -4.088951e-01 -1.662118e-01 -8.973174e-01
    outer loop
      vertex   -4.326039e+00 -1.788785e+00 -1.034651e+01
      vertex   -4.429441e+00 -1.831541e+00 -1.029147e+01
      vertex   -4.509283e+00 -1.641245e+00 -1.029033e+01
    endloop
  endfacet
  facet normal -4.055667e-01 -1.611528e-01 -8.997474e-01
    outer loop
      vertex   -4.326039e+00 -1.788785e+00 -1.034651e+01
      vertex   -4.509283e+00 -1.641245e+00 -1.029033e+01
      vertex   -4.299639e+00 -1.564941e+00 -1.039850e+01
    endloop
  endfacet
  facet normal -4.322952e-01 -2.474979e-01 -8.671019e-01
    outer loop
      vertex   -4.639140e+00 -2.411546e+00 -1.005729e+01
      vertex   -4.531832e+00 -2.616454e+00 -1.005230e+01
      vertex   -4.833043e+00 -2.512342e+00 -9.931851e+00
    endloop
  endfacet
  facet normal -4.324832e-01 -2.484729e-01 -8.667292e-01
    outer loop
      vertex   -4.833043e+00 -2.512342e+00 -9.931851e+00
      vertex   -4.531832e+00 -2.616454e+00 -1.005230e+01
      vertex   -4.717403e+00 -2.723594e+00 -9.928992e+00
    endloop
  endfacet
  facet normal -4.492064e-01 -2.574756e-01 -8.555232e-01
    outer loop
      vertex   -4.833043e+00 -2.512342e+00 -9.931851e+00
      vertex   -4.717403e+00 -2.723594e+00 -9.928992e+00
      vertex   -5.020358e+00 -2.613349e+00 -9.803100e+00
    endloop
  endfacet
  facet normal -4.493584e-01 -2.582514e-01 -8.552095e-01
    outer loop
      vertex   -5.020358e+00 -2.613349e+00 -9.803100e+00
      vertex   -4.717403e+00 -2.723594e+00 -9.928992e+00
      vertex   -4.900450e+00 -2.829276e+00 -9.800899e+00
    endloop
  endfacet
  facet normal -4.599502e-01 -2.376038e-01 -8.555643e-01
    outer loop
      vertex   -5.020358e+00 -2.613349e+00 -9.803100e+00
      vertex   -5.130665e+00 -2.392363e+00 -9.805170e+00
      vertex   -4.833043e+00 -2.512342e+00 -9.931851e+00
    endloop
  endfacet
  facet normal -4.597914e-01 -2.369194e-01 -8.558394e-01
    outer loop
      vertex   -4.833043e+00 -2.512342e+00 -9.931851e+00
      vertex   -5.130665e+00 -2.392363e+00 -9.805170e+00
      vertex   -4.942500e+00 -2.299917e+00 -9.931851e+00
    endloop
  endfacet
  facet normal -4.425311e-01 -2.280256e-01 -8.672776e-01
    outer loop
      vertex   -4.833043e+00 -2.512342e+00 -9.931851e+00
      vertex   -4.942500e+00 -2.299917e+00 -9.931851e+00
      vertex   -4.744206e+00 -2.207644e+00 -1.005729e+01
    endloop
  endfacet
  facet normal -4.520527e-01 -2.077974e-01 -8.674495e-01
    outer loop
      vertex   -4.744206e+00 -2.207644e+00 -1.005729e+01
      vertex   -4.942500e+00 -2.299917e+00 -9.931851e+00
      vertex   -4.839206e+00 -2.000976e+00 -1.005729e+01
    endloop
  endfacet
  facet normal -4.337569e-01 -1.993873e-01 -8.786920e-01
    outer loop
      vertex   -4.744206e+00 -2.207644e+00 -1.005729e+01
      vertex   -4.839206e+00 -2.000976e+00 -1.005729e+01
      vertex   -4.635137e+00 -1.916595e+00 -1.017718e+01
    endloop
  endfacet
  facet normal -4.418915e-01 -1.799242e-01 -8.788397e-01
    outer loop
      vertex   -4.635137e+00 -1.916595e+00 -1.017718e+01
      vertex   -4.839206e+00 -2.000976e+00 -1.005729e+01
      vertex   -4.920826e+00 -1.791034e+00 -1.005923e+01
    endloop
  endfacet
  facet normal -4.418178e-01 -1.796736e-01 -8.789280e-01
    outer loop
      vertex   -4.635137e+00 -1.916595e+00 -1.017718e+01
      vertex   -4.920826e+00 -1.791034e+00 -1.005923e+01
      vertex   -4.716367e+00 -1.716617e+00 -1.017722e+01
    endloop
  endfacet
  facet normal -4.697883e-01 -2.165328e-01 -8.558110e-01
    outer loop
      vertex   -5.130665e+00 -2.392363e+00 -9.805170e+00
      vertex   -5.231152e+00 -2.166737e+00 -9.807095e+00
      vertex   -4.942500e+00 -2.299917e+00 -9.931851e+00
    endloop
  endfacet
  facet normal -4.695974e-01 -2.158623e-01 -8.560851e-01
    outer loop
      vertex   -4.942500e+00 -2.299917e+00 -9.931851e+00
      vertex   -5.231152e+00 -2.166737e+00 -9.807095e+00
      vertex   -5.041471e+00 -2.084611e+00 -9.931851e+00
    endloop
  endfacet
  facet normal -4.520527e-01 -2.077974e-01 -8.674495e-01
    outer loop
      vertex   -4.942500e+00 -2.299917e+00 -9.931851e+00
      vertex   -5.041471e+00 -2.084611e+00 -9.931851e+00
      vertex   -4.839206e+00 -2.000976e+00 -1.005729e+01
    endloop
  endfacet
  facet normal -4.604547e-01 -1.877162e-01 -8.676083e-01
    outer loop
      vertex   -4.839206e+00 -2.000976e+00 -1.005729e+01
      vertex   -5.041471e+00 -2.084611e+00 -9.931851e+00
      vertex   -5.122598e+00 -1.864473e+00 -9.936425e+00
    endloop
  endfacet
  facet normal -4.602095e-01 -1.869446e-01 -8.679049e-01
    outer loop
      vertex   -4.839206e+00 -2.000976e+00 -1.005729e+01
      vertex   -5.122598e+00 -1.864473e+00 -9.936425e+00
      vertex   -4.920826e+00 -1.791034e+00 -1.005923e+01
    endloop
  endfacet
  facet normal -4.786408e-01 -1.949792e-01 -8.560877e-01
    outer loop
      vertex   -5.231152e+00 -2.166737e+00 -9.807095e+00
      vertex   -5.321618e+00 -1.936911e+00 -9.808860e+00
      vertex   -5.041471e+00 -2.084611e+00 -9.931851e+00
    endloop
  endfacet
  facet normal -4.783294e-01 -1.940720e-01 -8.564678e-01
    outer loop
      vertex   -5.041471e+00 -2.084611e+00 -9.931851e+00
      vertex   -5.321618e+00 -1.936911e+00 -9.808860e+00
      vertex   -5.122598e+00 -1.864473e+00 -9.936425e+00
    endloop
  endfacet
  facet normal -4.278447e-01 -1.739998e-01 -8.869459e-01
    outer loop
      vertex   -4.635137e+00 -1.916595e+00 -1.017718e+01
      vertex   -4.716367e+00 -1.716617e+00 -1.017722e+01
      vertex   -4.532481e+00 -1.874148e+00 -1.023502e+01
    endloop
  endfacet
  facet normal -4.243783e-01 -1.689884e-01 -8.895763e-01
    outer loop
      vertex   -4.532481e+00 -1.874148e+00 -1.023502e+01
      vertex   -4.716367e+00 -1.716617e+00 -1.017722e+01
      vertex   -4.509283e+00 -1.641245e+00 -1.029033e+01
    endloop
  endfacet
  facet normal -4.183521e-01 -1.702102e-01 -8.921939e-01
    outer loop
      vertex   -4.532481e+00 -1.874148e+00 -1.023502e+01
      vertex   -4.509283e+00 -1.641245e+00 -1.029033e+01
      vertex   -4.429441e+00 -1.831541e+00 -1.029147e+01
    endloop
  endfacet
  facet normal -3.635706e-01 -1.671244e-01 -9.164529e-01
    outer loop
      vertex   -3.935081e+00 -1.831130e+00 -1.050317e+01
      vertex   -4.013879e+00 -1.659709e+00 -1.050317e+01
      vertex   -3.909248e+00 -1.616445e+00 -1.055257e+01
    endloop
  endfacet
  facet normal -3.540573e-01 -1.627514e-01 -9.209535e-01
    outer loop
      vertex   -3.909248e+00 -1.616445e+00 -1.055257e+01
      vertex   -3.804365e+00 -1.573077e+00 -1.060055e+01
      vertex   -3.832504e+00 -1.783397e+00 -1.055257e+01
    endloop
  endfacet
  facet normal -3.540573e-01 -1.627514e-01 -9.209535e-01
    outer loop
      vertex   -3.832504e+00 -1.783397e+00 -1.055257e+01
      vertex   -3.804365e+00 -1.573077e+00 -1.060055e+01
      vertex   -3.729681e+00 -1.735550e+00 -1.060055e+01
    endloop
  endfacet
  facet normal -3.466264e-01 -1.786082e-01 -9.208416e-01
    outer loop
      vertex   -3.832504e+00 -1.783397e+00 -1.055257e+01
      vertex   -3.729681e+00 -1.735550e+00 -1.060055e+01
      vertex   -3.747629e+00 -1.948115e+00 -1.055257e+01
    endloop
  endfacet
  facet normal -3.466264e-01 -1.786082e-01 -9.208416e-01
    outer loop
      vertex   -3.747629e+00 -1.948115e+00 -1.055257e+01
      vertex   -3.729681e+00 -1.735550e+00 -1.060055e+01
      vertex   -3.647082e+00 -1.895849e+00 -1.060055e+01
    endloop
  endfacet
  facet normal -3.992753e-01 -1.624916e-01 -9.023169e-01
    outer loop
      vertex   -4.326039e+00 -1.788785e+00 -1.034651e+01
      vertex   -4.299639e+00 -1.564941e+00 -1.039850e+01
      vertex   -4.222296e+00 -1.745888e+00 -1.040014e+01
    endloop
  endfacet
  facet normal -4.012815e-01 -1.844592e-01 -8.971889e-01
    outer loop
      vertex   -4.342485e+00 -2.020709e+00 -1.029147e+01
      vertex   -4.326039e+00 -1.788785e+00 -1.034651e+01
      vertex   -4.241113e+00 -1.973537e+00 -1.034651e+01
    endloop
  endfacet
  facet normal -3.919094e-01 -1.801510e-01 -9.021932e-01
    outer loop
      vertex   -4.241113e+00 -1.973537e+00 -1.034651e+01
      vertex   -4.326039e+00 -1.788785e+00 -1.034651e+01
      vertex   -4.222296e+00 -1.745888e+00 -1.040014e+01
    endloop
  endfacet
  facet normal -4.106132e-01 -1.887487e-01 -8.920598e-01
    outer loop
      vertex   -4.429441e+00 -1.831541e+00 -1.029147e+01
      vertex   -4.443503e+00 -2.067716e+00 -1.023502e+01
      vertex   -4.532481e+00 -1.874148e+00 -1.023502e+01
    endloop
  endfacet
  facet normal -4.199021e-01 -1.930186e-01 -8.868067e-01
    outer loop
      vertex   -4.532481e+00 -1.874148e+00 -1.023502e+01
      vertex   -4.443503e+00 -2.067716e+00 -1.023502e+01
      vertex   -4.544143e+00 -2.114547e+00 -1.017718e+01
    endloop
  endfacet
  facet normal -4.199021e-01 -1.930186e-01 -8.868067e-01
    outer loop
      vertex   -4.532481e+00 -1.874148e+00 -1.023502e+01
      vertex   -4.544143e+00 -2.114547e+00 -1.017718e+01
      vertex   -4.635137e+00 -1.916595e+00 -1.017718e+01
    endloop
  endfacet
  facet normal -4.337569e-01 -1.993873e-01 -8.786920e-01
    outer loop
      vertex   -4.635137e+00 -1.916595e+00 -1.017718e+01
      vertex   -4.544143e+00 -2.114547e+00 -1.017718e+01
      vertex   -4.744206e+00 -2.207644e+00 -1.005729e+01
    endloop
  endfacet
  facet normal -3.559376e-01 -1.834060e-01 -9.163354e-01
    outer loop
      vertex   -3.847934e+00 -2.000257e+00 -1.050317e+01
      vertex   -3.935081e+00 -1.831130e+00 -1.050317e+01
      vertex   -3.832504e+00 -1.783397e+00 -1.055257e+01
    endloop
  endfacet
  facet normal -3.635706e-01 -1.671244e-01 -9.164529e-01
    outer loop
      vertex   -3.832504e+00 -1.783397e+00 -1.055257e+01
      vertex   -3.935081e+00 -1.831130e+00 -1.050317e+01
      vertex   -3.909248e+00 -1.616445e+00 -1.055257e+01
    endloop
  endfacet
  facet normal -3.559376e-01 -1.834060e-01 -9.163354e-01
    outer loop
      vertex   -3.847934e+00 -2.000257e+00 -1.050317e+01
      vertex   -3.832504e+00 -1.783397e+00 -1.055257e+01
      vertex   -3.747629e+00 -1.948115e+00 -1.055257e+01
    endloop
  endfacet
  facet normal -4.019784e-01 -2.071297e-01 -8.919140e-01
    outer loop
      vertex   -4.345096e+00 -2.258694e+00 -1.023502e+01
      vertex   -4.342485e+00 -2.020709e+00 -1.029147e+01
      vertex   -4.246316e+00 -2.207346e+00 -1.029147e+01
    endloop
  endfacet
  facet normal -3.928459e-01 -2.024240e-01 -8.970489e-01
    outer loop
      vertex   -4.246316e+00 -2.207346e+00 -1.029147e+01
      vertex   -4.342485e+00 -2.020709e+00 -1.029147e+01
      vertex   -4.241113e+00 -1.973537e+00 -1.034651e+01
    endloop
  endfacet
  facet normal -4.110689e-01 -2.118139e-01 -8.866551e-01
    outer loop
      vertex   -4.443503e+00 -2.067716e+00 -1.023502e+01
      vertex   -4.443508e+00 -2.309851e+00 -1.017718e+01
      vertex   -4.544143e+00 -2.114547e+00 -1.017718e+01
    endloop
  endfacet
  facet normal -4.246274e-01 -2.188002e-01 -8.785318e-01
    outer loop
      vertex   -4.544143e+00 -2.114547e+00 -1.017718e+01
      vertex   -4.443508e+00 -2.309851e+00 -1.017718e+01
      vertex   -4.639140e+00 -2.411546e+00 -1.005729e+01
    endloop
  endfacet
  facet normal -4.246274e-01 -2.188002e-01 -8.785318e-01
    outer loop
      vertex   -4.544143e+00 -2.114547e+00 -1.017718e+01
      vertex   -4.639140e+00 -2.411546e+00 -1.005729e+01
      vertex   -4.744206e+00 -2.207644e+00 -1.005729e+01
    endloop
  endfacet
  facet normal -4.425311e-01 -2.280256e-01 -8.672776e-01
    outer loop
      vertex   -4.744206e+00 -2.207644e+00 -1.005729e+01
      vertex   -4.639140e+00 -2.411546e+00 -1.005729e+01
      vertex   -4.833043e+00 -2.512342e+00 -9.931851e+00
    endloop
  endfacet
  facet normal -3.420201e-01 9.396926e-01 4.096421e-11
    outer loop
      vertex   -3.656978e+00 -1.331031e+00 -1.069229e+01
      vertex   -3.873208e+00 -1.409732e+00 -1.059962e+01
      vertex   0.000000e+00 0.000000e+00 8.881784e-15
    endloop
  endfacet
  facet normal -3.420201e-01 9.396926e-01 5.040851e-11
    outer loop
      vertex   0.000000e+00 0.000000e+00 8.881784e-15
      vertex   -3.873208e+00 -1.409732e+00 -1.059962e+01
      vertex   -4.087504e+00 -1.487730e+00 -1.050165e+01
    endloop
  endfacet
  facet normal -3.420201e-01 9.396926e-01 -9.378992e-12
    outer loop
      vertex   0.000000e+00 0.000000e+00 8.881784e-15
      vertex   -4.087504e+00 -1.487730e+00 -1.050165e+01
      vertex   -4.299639e+00 -1.564941e+00 -1.039850e+01
    endloop
  endfacet
  facet normal -3.420201e-01 9.396926e-01 -2.448221e-11
    outer loop
      vertex   -4.299639e+00 -1.564941e+00 -1.039850e+01
      vertex   -4.509283e+00 -1.641245e+00 -1.029033e+01
      vertex   0.000000e+00 0.000000e+00 8.881784e-15
    endloop
  endfacet
  facet normal -3.420201e-01 9.396926e-01 -3.192179e-11
    outer loop
      vertex   0.000000e+00 0.000000e+00 8.881784e-15
      vertex   -4.509283e+00 -1.641245e+00 -1.029033e+01
      vertex   -4.716367e+00 -1.716617e+00 -1.017722e+01
    endloop
  endfacet
  facet normal -3.420201e-01 9.396926e-01 -3.251861e-11
    outer loop
      vertex   0.000000e+00 0.000000e+00 8.881784e-15
      vertex   -4.716367e+00 -1.716617e+00 -1.017722e+01
      vertex   -4.920826e+00 -1.791034e+00 -1.005923e+01
    endloop
  endfacet
  facet normal -3.420201e-01 9.396926e-01 -2.561203e-11
    outer loop
      vertex   -4.920826e+00 -1.791034e+00 -1.005923e+01
      vertex   -5.122598e+00 -1.864473e+00 -9.936425e+00
      vertex   0.000000e+00 0.000000e+00 8.881784e-15
    endloop
  endfacet
  facet normal -3.420201e-01 9.396926e-01 -1.055457e-11
    outer loop
      vertex   0.000000e+00 0.000000e+00 8.881784e-15
      vertex   -5.122598e+00 -1.864473e+00 -9.936425e+00
      vertex   -5.321618e+00 -1.936911e+00 -9.808860e+00
    endloop
  endfacet
  facet normal -8.071924e-01 -3.138941e-01 4.999109e-01
    outer loop
      vertex   -5.231152e+00 -2.166737e+00 -9.807095e+00
      vertex   -3.488056e+00 -1.444766e+00 -6.539240e+00
      vertex   -5.321618e+00 -1.936911e+00 -9.808860e+00
    endloop
  endfacet
  facet normal -8.071920e-01 -3.138953e-01 4.999108e-01
    outer loop
      vertex   -5.321618e+00 -1.936911e+00 -9.808860e+00
      vertex   -3.488056e+00 -1.444766e+00 -6.539240e+00
      vertex   -1.744025e+00 -7.223903e-01 -3.269620e+00
    endloop
  endfacet
  facet normal -8.071912e-01 -3.138975e-01 4.999108e-01
    outer loop
      vertex   -5.321618e+00 -1.936911e+00 -9.808860e+00
      vertex   -1.744025e+00 -7.223903e-01 -3.269620e+00
      vertex   0.000000e+00 0.000000e+00 8.881784e-15
    endloop
  endfacet
  facet normal -7.927353e-01 -3.487980e-01 4.999107e-01
    outer loop
      vertex   -5.231152e+00 -2.166737e+00 -9.807095e+00
      vertex   -5.130665e+00 -2.392363e+00 -9.805170e+00
      vertex   -3.488056e+00 -1.444766e+00 -6.539240e+00
    endloop
  endfacet
  facet normal -7.927335e-01 -3.488018e-01 4.999109e-01
    outer loop
      vertex   -3.488056e+00 -1.444766e+00 -6.539240e+00
      vertex   -5.130665e+00 -2.392363e+00 -9.805170e+00
      vertex   -3.421721e+00 -1.595528e+00 -6.539240e+00
    endloop
  endfacet
  facet normal -7.927336e-01 -3.488018e-01 4.999107e-01
    outer loop
      vertex   -3.488056e+00 -1.444766e+00 -6.539240e+00
      vertex   -3.421721e+00 -1.595528e+00 -6.539240e+00
      vertex   -1.744025e+00 -7.223903e-01 -3.269620e+00
    endloop
  endfacet
  facet normal -7.927318e-01 -3.488057e-01 4.999109e-01
    outer loop
      vertex   -1.744025e+00 -7.223903e-01 -3.269620e+00
      vertex   -3.421721e+00 -1.595528e+00 -6.539240e+00
      vertex   -1.710856e+00 -7.977736e-01 -3.269620e+00
    endloop
  endfacet
  facet normal -7.927319e-01 -3.488057e-01 4.999108e-01
    outer loop
      vertex   -1.744025e+00 -7.223903e-01 -3.269620e+00
      vertex   -1.710856e+00 -7.977736e-01 -3.269620e+00
      vertex   0.000000e+00 0.000000e+00 8.881784e-15
    endloop
  endfacet
  facet normal -7.767666e-01 -3.830443e-01 4.999106e-01
    outer loop
      vertex   -5.130665e+00 -2.392363e+00 -9.805170e+00
      vertex   -5.020358e+00 -2.613349e+00 -9.803100e+00
      vertex   -3.421721e+00 -1.595528e+00 -6.539240e+00
    endloop
  endfacet
  facet normal -7.767646e-01 -3.830482e-01 4.999109e-01
    outer loop
      vertex   -3.421721e+00 -1.595528e+00 -6.539240e+00
      vertex   -5.020358e+00 -2.613349e+00 -9.803100e+00
      vertex   -3.348864e+00 -1.743271e+00 -6.539240e+00
    endloop
  endfacet
  facet normal -7.767647e-01 -3.830482e-01 4.999107e-01
    outer loop
      vertex   -3.421721e+00 -1.595528e+00 -6.539240e+00
      vertex   -3.348864e+00 -1.743271e+00 -6.539240e+00
      vertex   -1.710856e+00 -7.977736e-01 -3.269620e+00
    endloop
  endfacet
  facet normal -7.767627e-01 -3.830521e-01 4.999108e-01
    outer loop
      vertex   -1.710856e+00 -7.977736e-01 -3.269620e+00
      vertex   -3.348864e+00 -1.743271e+00 -6.539240e+00
      vertex   -1.674428e+00 -8.716429e-01 -3.269620e+00
    endloop
  endfacet
  facet normal -7.767627e-01 -3.830521e-01 4.999107e-01
    outer loop
      vertex   -1.710856e+00 -7.977736e-01 -3.269620e+00
      vertex   -1.674428e+00 -8.716429e-01 -3.269620e+00
      vertex   0.000000e+00 0.000000e+00 8.881784e-15
    endloop
  endfacet
  facet normal -7.593156e-01 -4.165684e-01 4.999106e-01
    outer loop
      vertex   -5.020358e+00 -2.613349e+00 -9.803100e+00
      vertex   -4.900450e+00 -2.829276e+00 -9.800899e+00
      vertex   -3.348864e+00 -1.743271e+00 -6.539240e+00
    endloop
  endfacet
  facet normal -7.593150e-01 -4.165694e-01 4.999107e-01
    outer loop
      vertex   -3.348864e+00 -1.743271e+00 -6.539240e+00
      vertex   -4.900450e+00 -2.829276e+00 -9.800899e+00
      vertex   -1.674428e+00 -8.716429e-01 -3.269620e+00
    endloop
  endfacet
  facet normal -7.593137e-01 -4.165716e-01 4.999107e-01
    outer loop
      vertex   -4.900450e+00 -2.829276e+00 -9.800899e+00
      vertex   0.000000e+00 0.000000e+00 8.881784e-15
      vertex   -1.674428e+00 -8.716429e-01 -3.269620e+00
    endloop
  endfacet
  facet normal 8.237973e-01 4.519452e-01 -3.422038e-01
    outer loop
      vertex   -3.451011e+00 -1.796455e+00 -1.068932e+01
      vertex   -2.318485e+00 -1.164387e+00 -7.128192e+00
      vertex   -3.368997e+00 -1.945091e+00 -1.068819e+01
    endloop
  endfacet
  facet normal 8.271597e-01 4.460005e-01 -3.418924e-01
    outer loop
      vertex   -3.368997e+00 -1.945091e+00 -1.068819e+01
      vertex   -2.318485e+00 -1.164387e+00 -7.128192e+00
      vertex   -1.159242e+00 -5.821935e-01 -3.564096e+00
    endloop
  endfacet
  facet normal 8.271597e-01 4.460005e-01 -3.418924e-01
    outer loop
      vertex   -3.368997e+00 -1.945091e+00 -1.068819e+01
      vertex   -1.159242e+00 -5.821935e-01 -3.564096e+00
      vertex   0.000000e+00 0.000000e+00 8.881784e-15
    endloop
  endfacet
  facet normal 8.428524e-01 4.156425e-01 -3.418204e-01
    outer loop
      vertex   -3.451011e+00 -1.796455e+00 -1.068932e+01
      vertex   -3.526441e+00 -1.644373e+00 -1.069039e+01
      vertex   -2.318485e+00 -1.164387e+00 -7.128192e+00
    endloop
  endfacet
  facet normal 8.515664e-01 3.970919e-01 -3.422758e-01
    outer loop
      vertex   -2.318485e+00 -1.164387e+00 -7.128192e+00
      vertex   -3.526441e+00 -1.644373e+00 -1.069039e+01
      vertex   -2.382266e+00 -1.027609e+00 -7.128192e+00
    endloop
  endfacet
  facet normal 8.516929e-01 3.971509e-01 -3.418924e-01
    outer loop
      vertex   -2.318485e+00 -1.164387e+00 -7.128192e+00
      vertex   -2.382266e+00 -1.027609e+00 -7.128192e+00
      vertex   -1.191133e+00 -5.138045e-01 -3.564096e+00
    endloop
  endfacet
  facet normal 8.733442e-01 3.469575e-01 -3.418924e-01
    outer loop
      vertex   -1.191133e+00 -5.138045e-01 -3.564096e+00
      vertex   -2.382266e+00 -1.027609e+00 -7.128192e+00
      vertex   -3.656978e+00 -1.331031e+00 -1.069229e+01
    endloop
  endfacet
  facet normal 8.733442e-01 3.469575e-01 -3.418924e-01
    outer loop
      vertex   -1.191133e+00 -5.138045e-01 -3.564096e+00
      vertex   -3.656978e+00 -1.331031e+00 -1.069229e+01
      vertex   0.000000e+00 0.000000e+00 8.881784e-15
    endloop
  endfacet
  facet normal 8.601802e-01 3.784823e-01 -3.418204e-01
    outer loop
      vertex   -3.526441e+00 -1.644373e+00 -1.069039e+01
      vertex   -3.595142e+00 -1.489132e+00 -1.069138e+01
      vertex   -2.382266e+00 -1.027609e+00 -7.128192e+00
    endloop
  endfacet
  facet normal 8.757401e-01 3.405520e-01 -3.422040e-01
    outer loop
      vertex   -2.382266e+00 -1.027609e+00 -7.128192e+00
      vertex   -3.595142e+00 -1.489132e+00 -1.069138e+01
      vertex   -3.656978e+00 -1.331031e+00 -1.069229e+01
    endloop
  endfacet
  facet normal 8.516929e-01 3.971509e-01 -3.418924e-01
    outer loop
      vertex   -1.191133e+00 -5.138045e-01 -3.564096e+00
      vertex   0.000000e+00 0.000000e+00 8.881784e-15
      vertex   -1.159242e+00 -5.821935e-01 -3.564096e+00
    endloop
  endfacet
  facet normal 8.516929e-01 3.971509e-01 -3.418924e-01
    outer loop
      vertex   -1.191133e+00 -5.138045e-01 -3.564096e+00
      vertex   -1.159242e+00 -5.821935e-01 -3.564096e+00
      vertex   -2.318485e+00 -1.164387e+00 -7.128192e+00
    endloop
  endfacet
endsolid
