solid ASCII
  facet normal 5.000000e-01 -8.660254e-01 8.233211e-15
    outer loop
      vertex   -8.998168e+00 -5.195095e+00 -3.781720e+00
      vertex   0.000000e+00 0.000000e+00 0.000000e+00
      vertex   -9.062973e+00 -5.232510e+00 -3.552634e+00
    endloop
  endfacet
  facet normal 5.000000e-01 -8.660254e-01 4.005150e-15
    outer loop
      vertex   -9.062973e+00 -5.232510e+00 -3.552634e+00
      vertex   0.000000e+00 0.000000e+00 0.000000e+00
      vertex   -9.123668e+00 -5.267552e+00 -3.322141e+00
    endloop
  endfacet
  facet normal 5.000000e-01 -8.660254e-01 3.548639e-16
    outer loop
      vertex   -9.123668e+00 -5.267552e+00 -3.322141e+00
      vertex   0.000000e+00 0.000000e+00 0.000000e+00
      vertex   -9.180244e+00 -5.300216e+00 -3.090318e+00
    endloop
  endfacet
  facet normal 5.000000e-01 -8.660254e-01 -3.487991e-15
    outer loop
      vertex   -9.180244e+00 -5.300216e+00 -3.090318e+00
      vertex   0.000000e+00 0.000000e+00 0.000000e+00
      vertex   -9.232688e+00 -5.330495e+00 -2.857247e+00
    endloop
  endfacet
  facet normal 5.000000e-01 -8.660254e-01 -3.259724e-15
    outer loop
      vertex   -9.232688e+00 -5.330495e+00 -2.857247e+00
      vertex   0.000000e+00 0.000000e+00 0.000000e+00
      vertex   -9.280990e+00 -5.358382e+00 -2.623008e+00
    endloop
  endfacet
  facet normal 5.000000e-01 -8.660254e-01 2.299312e-15
    outer loop
      vertex   -9.280990e+00 -5.358382e+00 -2.623008e+00
      vertex   0.000000e+00 0.000000e+00 0.000000e+00
      vertex   -9.325137e+00 -5.383871e+00 -2.387679e+00
    endloop
  endfacet
  facet normal 5.000000e-01 -8.660254e-01 2.906170e-15
    outer loop
      vertex   -9.325137e+00 -5.383871e+00 -2.387679e+00
      vertex   0.000000e+00 0.000000e+00 0.000000e+00
      vertex   -9.365120e+00 -5.406955e+00 -2.151341e+00
    endloop
  endfacet
  facet normal 5.000000e-01 -8.660254e-01 -1.363349e-14
    outer loop
      vertex   -9.365120e+00 -5.406955e+00 -2.151341e+00
      vertex   0.000000e+00 0.000000e+00 0.000000e+00
      vertex   -9.400927e+00 -5.427628e+00 -1.914074e+00
    endloop
  endfacet
  facet normal -8.839435e-01 -3.481651e-01 -3.121299e-01
    outer loop
      vertex   -9.790399e+00 -3.563414e+00 -3.792106e+00
      vertex   -9.707538e+00 -3.774797e+00 -3.790980e+00
      vertex   -9.861364e+00 -3.589243e+00 -3.562325e+00
    endloop
  endfacet
  facet normal -8.831990e-01 -3.561530e-01 -3.051468e-01
    outer loop
      vertex   -9.861364e+00 -3.589243e+00 -3.562325e+00
      vertex   -9.707538e+00 -3.774797e+00 -3.790980e+00
      vertex   -9.863368e+00 -3.710102e+00 -3.415464e+00
    endloop
  endfacet
  facet normal -8.935420e-01 -3.406213e-01 -2.925060e-01
    outer loop
      vertex   -9.861364e+00 -3.589243e+00 -3.562325e+00
      vertex   -9.863368e+00 -3.710102e+00 -3.415464e+00
      vertex   -9.927815e+00 -3.613429e+00 -3.331166e+00
    endloop
  endfacet
  facet normal -8.931916e-01 -3.567944e-01 -2.736907e-01
    outer loop
      vertex   -9.927815e+00 -3.613429e+00 -3.331166e+00
      vertex   -9.863368e+00 -3.710102e+00 -3.415464e+00
      vertex   -9.963937e+00 -3.747932e+00 -3.037938e+00
    endloop
  endfacet
  facet normal -8.945480e-01 -3.541775e-01 -2.726575e-01
    outer loop
      vertex   -9.927815e+00 -3.613429e+00 -3.331166e+00
      vertex   -9.963937e+00 -3.747932e+00 -3.037938e+00
      vertex   -9.989743e+00 -3.635969e+00 -3.098711e+00
    endloop
  endfacet
  facet normal -9.036950e-01 -3.455394e-01 -2.528593e-01
    outer loop
      vertex   -9.989743e+00 -3.635969e+00 -3.098711e+00
      vertex   -9.963937e+00 -3.747932e+00 -3.037938e+00
      vertex   -1.004714e+01 -3.656859e+00 -2.865040e+00
    endloop
  endfacet
  facet normal -9.012194e-01 -3.570436e-01 -2.456083e-01
    outer loop
      vertex   -1.004714e+01 -3.656859e+00 -2.865040e+00
      vertex   -9.963937e+00 -3.747932e+00 -3.037938e+00
      vertex   -1.003072e+01 -3.773051e+00 -2.756380e+00
    endloop
  endfacet
  facet normal -9.087696e-01 -3.462453e-01 -2.329206e-01
    outer loop
      vertex   -1.004714e+01 -3.656859e+00 -2.865040e+00
      vertex   -1.003072e+01 -3.773051e+00 -2.756380e+00
      vertex   -1.009999e+01 -3.676096e+00 -2.630234e+00
    endloop
  endfacet
  facet normal -9.065199e-01 -3.592892e-01 -2.216596e-01
    outer loop
      vertex   -1.009999e+01 -3.676096e+00 -2.630234e+00
      vertex   -1.003072e+01 -3.773051e+00 -2.756380e+00
      vertex   -1.009059e+01 -3.795571e+00 -2.475028e+00
    endloop
  endfacet
  facet normal -9.128431e-01 -3.484107e-01 -2.129025e-01
    outer loop
      vertex   -1.009999e+01 -3.676096e+00 -2.630234e+00
      vertex   -1.009059e+01 -3.795571e+00 -2.475028e+00
      vertex   -1.014829e+01 -3.693676e+00 -2.394374e+00
    endloop
  endfacet
  facet normal -9.118241e-01 -3.598091e-01 -1.977729e-01
    outer loop
      vertex   -1.014829e+01 -3.693676e+00 -2.394374e+00
      vertex   -1.009059e+01 -3.795571e+00 -2.475028e+00
      vertex   -1.014363e+01 -3.815524e+00 -2.194168e+00
    endloop
  endfacet
  facet normal -9.159957e-01 -3.518173e-01 -1.928120e-01
    outer loop
      vertex   -1.014829e+01 -3.693676e+00 -2.394374e+00
      vertex   -1.014363e+01 -3.815524e+00 -2.194168e+00
      vertex   -1.019203e+01 -3.709595e+00 -2.157541e+00
    endloop
  endfacet
  facet normal -9.178472e-01 -3.672798e-01 -1.505394e-01
    outer loop
      vertex   -1.019203e+01 -3.709595e+00 -2.157541e+00
      vertex   -1.014363e+01 -3.815524e+00 -2.194168e+00
      vertex   -1.010039e+01 -3.923599e+00 -2.194168e+00
    endloop
  endfacet
  facet normal -9.156599e-01 -3.623205e-01 -1.740428e-01
    outer loop
      vertex   -1.019203e+01 -3.709595e+00 -2.157541e+00
      vertex   -1.010039e+01 -3.923599e+00 -2.194168e+00
      vertex   -1.014433e+01 -3.944620e+00 -1.919192e+00
    endloop
  endfacet
  facet normal -9.101086e-01 -3.759746e-01 -1.741994e-01
    outer loop
      vertex   -1.014433e+01 -3.944620e+00 -1.919192e+00
      vertex   -1.010039e+01 -3.923599e+00 -2.194168e+00
      vertex   -1.005583e+01 -4.031448e+00 -2.194168e+00
    endloop
  endfacet
  facet normal -9.081992e-01 -3.816572e-01 -1.717905e-01
    outer loop
      vertex   -1.014433e+01 -3.944620e+00 -1.919192e+00
      vertex   -1.005583e+01 -4.031448e+00 -2.194168e+00
      vertex   -1.005254e+01 -4.163349e+00 -1.918540e+00
    endloop
  endfacet
  facet normal -9.059055e-01 -3.861059e-01 -1.739468e-01
    outer loop
      vertex   -1.005254e+01 -4.163349e+00 -1.918540e+00
      vertex   -1.005583e+01 -4.031448e+00 -2.194168e+00
      vertex   -1.000997e+01 -4.139049e+00 -2.194168e+00
    endloop
  endfacet
  facet normal -8.992605e-01 -4.012068e-01 -1.742519e-01
    outer loop
      vertex   -1.005254e+01 -4.163349e+00 -1.918540e+00
      vertex   -1.000997e+01 -4.139049e+00 -2.194168e+00
      vertex   -9.914328e+00 -4.353423e+00 -2.194168e+00
    endloop
  endfacet
  facet normal -8.952203e-01 -3.994042e-01 -1.976280e-01
    outer loop
      vertex   -9.914328e+00 -4.353423e+00 -2.194168e+00
      vertex   -1.000997e+01 -4.139049e+00 -2.194168e+00
      vertex   -9.957626e+00 -4.117405e+00 -2.475028e+00
    endloop
  endfacet
  facet normal -8.952203e-01 -3.994042e-01 -1.976280e-01
    outer loop
      vertex   -9.914328e+00 -4.353423e+00 -2.194168e+00
      vertex   -9.957626e+00 -4.117405e+00 -2.475028e+00
      vertex   -9.862483e+00 -4.330658e+00 -2.475028e+00
    endloop
  endfacet
  facet normal -8.905467e-01 -3.973191e-01 -2.215042e-01
    outer loop
      vertex   -9.862483e+00 -4.330658e+00 -2.475028e+00
      vertex   -9.957626e+00 -4.117405e+00 -2.475028e+00
      vertex   -9.898545e+00 -4.092975e+00 -2.756380e+00
    endloop
  endfacet
  facet normal -8.905467e-01 -3.973191e-01 -2.215042e-01
    outer loop
      vertex   -9.862483e+00 -4.330658e+00 -2.475028e+00
      vertex   -9.898545e+00 -4.092975e+00 -2.756380e+00
      vertex   -9.803967e+00 -4.304963e+00 -2.756380e+00
    endloop
  endfacet
  facet normal -8.852984e-01 -3.949775e-01 -2.454375e-01
    outer loop
      vertex   -9.803967e+00 -4.304963e+00 -2.756380e+00
      vertex   -9.898545e+00 -4.092975e+00 -2.756380e+00
      vertex   -9.832644e+00 -4.065726e+00 -3.037938e+00
    endloop
  endfacet
  facet normal -8.852984e-01 -3.949775e-01 -2.454375e-01
    outer loop
      vertex   -9.803967e+00 -4.304963e+00 -2.756380e+00
      vertex   -9.832644e+00 -4.065726e+00 -3.037938e+00
      vertex   -9.738695e+00 -4.276302e+00 -3.037938e+00
    endloop
  endfacet
  facet normal -8.784078e-01 -3.919033e-01 -2.735169e-01
    outer loop
      vertex   -9.738695e+00 -4.276302e+00 -3.037938e+00
      vertex   -9.832644e+00 -4.065726e+00 -3.037938e+00
      vertex   -9.733400e+00 -4.024689e+00 -3.415464e+00
    endloop
  endfacet
  facet normal -8.784078e-01 -3.919033e-01 -2.735169e-01
    outer loop
      vertex   -9.738695e+00 -4.276302e+00 -3.037938e+00
      vertex   -9.733400e+00 -4.024689e+00 -3.415464e+00
      vertex   -9.640399e+00 -4.233140e+00 -3.415464e+00
    endloop
  endfacet
  facet normal -8.695905e-01 -3.879694e-01 -3.054376e-01
    outer loop
      vertex   -9.640399e+00 -4.233140e+00 -3.415464e+00
      vertex   -9.733400e+00 -4.024689e+00 -3.415464e+00
      vertex   -9.619964e+00 -3.984239e+00 -3.789800e+00
    endloop
  endfacet
  facet normal -8.692909e-01 -3.884183e-01 -3.057197e-01
    outer loop
      vertex   -9.640399e+00 -4.233140e+00 -3.415464e+00
      vertex   -9.619964e+00 -3.984239e+00 -3.789800e+00
      vertex   -9.527715e+00 -4.191664e+00 -3.788568e+00
    endloop
  endfacet
  facet normal -8.773680e-01 -3.685855e-01 -3.071973e-01
    outer loop
      vertex   -9.619964e+00 -3.984239e+00 -3.789800e+00
      vertex   -9.777994e+00 -3.920060e+00 -3.415464e+00
      vertex   -9.707538e+00 -3.774797e+00 -3.790980e+00
    endloop
  endfacet
  facet normal -8.799848e-01 -3.635302e-01 -3.057327e-01
    outer loop
      vertex   -9.707538e+00 -3.774797e+00 -3.790980e+00
      vertex   -9.777994e+00 -3.920060e+00 -3.415464e+00
      vertex   -9.821316e+00 -3.815191e+00 -3.415464e+00
    endloop
  endfacet
  facet normal -8.839306e-01 -3.537079e-01 -3.058716e-01
    outer loop
      vertex   -9.707538e+00 -3.774797e+00 -3.790980e+00
      vertex   -9.821316e+00 -3.815191e+00 -3.415464e+00
      vertex   -9.863368e+00 -3.710102e+00 -3.415464e+00
    endloop
  endfacet
  facet normal -8.929789e-01 -3.573287e-01 -2.736876e-01
    outer loop
      vertex   -9.863368e+00 -3.710102e+00 -3.415464e+00
      vertex   -9.821316e+00 -3.815191e+00 -3.415464e+00
      vertex   -9.921457e+00 -3.854092e+00 -3.037938e+00
    endloop
  endfacet
  facet normal -8.929789e-01 -3.573287e-01 -2.736876e-01
    outer loop
      vertex   -9.863368e+00 -3.710102e+00 -3.415464e+00
      vertex   -9.921457e+00 -3.854092e+00 -3.037938e+00
      vertex   -9.963937e+00 -3.747932e+00 -3.037938e+00
    endloop
  endfacet
  facet normal -8.999926e-01 -3.601352e-01 -2.455931e-01
    outer loop
      vertex   -9.963937e+00 -3.747932e+00 -3.037938e+00
      vertex   -9.921457e+00 -3.854092e+00 -3.037938e+00
      vertex   -9.987953e+00 -3.879923e+00 -2.756380e+00
    endloop
  endfacet
  facet normal -8.999926e-01 -3.601352e-01 -2.455931e-01
    outer loop
      vertex   -9.963937e+00 -3.747932e+00 -3.037938e+00
      vertex   -9.987953e+00 -3.879923e+00 -2.756380e+00
      vertex   -1.003072e+01 -3.773051e+00 -2.756380e+00
    endloop
  endfacet
  facet normal -9.053349e-01 -3.622729e-01 -2.216463e-01
    outer loop
      vertex   -1.003072e+01 -3.773051e+00 -2.756380e+00
      vertex   -9.987953e+00 -3.879923e+00 -2.756380e+00
      vertex   -1.004757e+01 -3.903081e+00 -2.475028e+00
    endloop
  endfacet
  facet normal -9.053349e-01 -3.622729e-01 -2.216463e-01
    outer loop
      vertex   -1.003072e+01 -3.773051e+00 -2.756380e+00
      vertex   -1.004757e+01 -3.903081e+00 -2.475028e+00
      vertex   -1.009059e+01 -3.795571e+00 -2.475028e+00
    endloop
  endfacet
  facet normal -9.100923e-01 -3.641766e-01 -1.977561e-01
    outer loop
      vertex   -1.009059e+01 -3.795571e+00 -2.475028e+00
      vertex   -1.004757e+01 -3.903081e+00 -2.475028e+00
      vertex   -1.010039e+01 -3.923599e+00 -2.194168e+00
    endloop
  endfacet
  facet normal -9.100923e-01 -3.641766e-01 -1.977561e-01
    outer loop
      vertex   -1.009059e+01 -3.795571e+00 -2.475028e+00
      vertex   -1.010039e+01 -3.923599e+00 -2.194168e+00
      vertex   -1.014363e+01 -3.815524e+00 -2.194168e+00
    endloop
  endfacet
  facet normal -8.607413e-01 -4.073701e-01 -3.052443e-01
    outer loop
      vertex   -9.640399e+00 -4.233140e+00 -3.415464e+00
      vertex   -9.527715e+00 -4.191664e+00 -3.788568e+00
      vertex   -9.542320e+00 -4.440372e+00 -3.415464e+00
    endloop
  endfacet
  facet normal -8.603861e-01 -4.078772e-01 -3.055684e-01
    outer loop
      vertex   -9.542320e+00 -4.440372e+00 -3.415464e+00
      vertex   -9.527715e+00 -4.191664e+00 -3.788568e+00
      vertex   -9.430828e+00 -4.396999e+00 -3.787287e+00
    endloop
  endfacet
  facet normal -8.514242e-01 -4.266266e-01 -3.050682e-01
    outer loop
      vertex   -9.542320e+00 -4.440372e+00 -3.415464e+00
      vertex   -9.430828e+00 -4.396999e+00 -3.787287e+00
      vertex   -9.439178e+00 -4.646215e+00 -3.415464e+00
    endloop
  endfacet
  facet normal -8.510653e-01 -4.271143e-01 -3.053871e-01
    outer loop
      vertex   -9.439178e+00 -4.646215e+00 -3.415464e+00
      vertex   -9.430828e+00 -4.396999e+00 -3.787287e+00
      vertex   -9.329371e+00 -4.600111e+00 -3.785959e+00
    endloop
  endfacet
  facet normal -8.416423e-01 -4.457221e-01 -3.049098e-01
    outer loop
      vertex   -9.439178e+00 -4.646215e+00 -3.415464e+00
      vertex   -9.329371e+00 -4.600111e+00 -3.785959e+00
      vertex   -9.330994e+00 -4.850494e+00 -3.415464e+00
    endloop
  endfacet
  facet normal -8.413360e-01 -4.461180e-01 -3.051761e-01
    outer loop
      vertex   -9.330994e+00 -4.850494e+00 -3.415464e+00
      vertex   -9.329371e+00 -4.600111e+00 -3.785959e+00
      vertex   -9.223412e+00 -4.800878e+00 -3.784586e+00
    endloop
  endfacet
  facet normal -8.313998e-01 -4.646394e-01 -3.047697e-01
    outer loop
      vertex   -9.330994e+00 -4.850494e+00 -3.415464e+00
      vertex   -9.223412e+00 -4.800878e+00 -3.784586e+00
      vertex   -9.217800e+00 -5.053039e+00 -3.415464e+00
    endloop
  endfacet
  facet normal -8.312046e-01 -4.648792e-01 -3.049365e-01
    outer loop
      vertex   -9.217800e+00 -5.053039e+00 -3.415464e+00
      vertex   -9.223412e+00 -4.800878e+00 -3.784586e+00
      vertex   -9.112996e+00 -4.999229e+00 -3.783172e+00
    endloop
  endfacet
  facet normal -8.238922e-01 -4.778387e-01 -3.047488e-01
    outer loop
      vertex   -9.217800e+00 -5.053039e+00 -3.415464e+00
      vertex   -9.112996e+00 -4.999229e+00 -3.783172e+00
      vertex   -9.062973e+00 -5.232510e+00 -3.552634e+00
    endloop
  endfacet
  facet normal -8.190335e-01 -4.824720e-01 -3.104914e-01
    outer loop
      vertex   -9.062973e+00 -5.232510e+00 -3.552634e+00
      vertex   -9.112996e+00 -4.999229e+00 -3.783172e+00
      vertex   -8.998168e+00 -5.195095e+00 -3.781720e+00
    endloop
  endfacet
  facet normal -8.230972e-01 -4.877389e-01 -2.908983e-01
    outer loop
      vertex   -9.062973e+00 -5.232510e+00 -3.552634e+00
      vertex   -9.123668e+00 -5.267552e+00 -3.322141e+00
      vertex   -9.217800e+00 -5.053039e+00 -3.415464e+00
    endloop
  endfacet
  facet normal -8.315667e-01 -4.836834e-01 -2.730335e-01
    outer loop
      vertex   -9.217800e+00 -5.053039e+00 -3.415464e+00
      vertex   -9.123668e+00 -5.267552e+00 -3.322141e+00
      vertex   -9.311787e+00 -5.104561e+00 -3.037938e+00
    endloop
  endfacet
  facet normal -8.397430e-01 -4.693022e-01 -2.731064e-01
    outer loop
      vertex   -9.217800e+00 -5.053039e+00 -3.415464e+00
      vertex   -9.311787e+00 -5.104561e+00 -3.037938e+00
      vertex   -9.330994e+00 -4.850494e+00 -3.415464e+00
    endloop
  endfacet
  facet normal -8.397430e-01 -4.693022e-01 -2.731064e-01
    outer loop
      vertex   -9.330994e+00 -4.850494e+00 -3.415464e+00
      vertex   -9.311787e+00 -5.104561e+00 -3.037938e+00
      vertex   -9.426136e+00 -4.899952e+00 -3.037938e+00
    endloop
  endfacet
  facet normal -8.501013e-01 -4.502018e-01 -2.732146e-01
    outer loop
      vertex   -9.330994e+00 -4.850494e+00 -3.415464e+00
      vertex   -9.426136e+00 -4.899952e+00 -3.037938e+00
      vertex   -9.439178e+00 -4.646215e+00 -3.415464e+00
    endloop
  endfacet
  facet normal -8.501013e-01 -4.502018e-01 -2.732146e-01
    outer loop
      vertex   -9.439178e+00 -4.646215e+00 -3.415464e+00
      vertex   -9.426136e+00 -4.899952e+00 -3.037938e+00
      vertex   -9.535423e+00 -4.693589e+00 -3.037938e+00
    endloop
  endfacet
  facet normal -8.600006e-01 -4.309241e-01 -2.733192e-01
    outer loop
      vertex   -9.439178e+00 -4.646215e+00 -3.415464e+00
      vertex   -9.535423e+00 -4.693589e+00 -3.037938e+00
      vertex   -9.542320e+00 -4.440372e+00 -3.415464e+00
    endloop
  endfacet
  facet normal -8.600006e-01 -4.309241e-01 -2.733192e-01
    outer loop
      vertex   -9.542320e+00 -4.440372e+00 -3.415464e+00
      vertex   -9.535423e+00 -4.693589e+00 -3.037938e+00
      vertex   -9.639617e+00 -4.485648e+00 -3.037938e+00
    endloop
  endfacet
  facet normal -8.694372e-01 -4.114857e-01 -2.734200e-01
    outer loop
      vertex   -9.542320e+00 -4.440372e+00 -3.415464e+00
      vertex   -9.639617e+00 -4.485648e+00 -3.037938e+00
      vertex   -9.640399e+00 -4.233140e+00 -3.415464e+00
    endloop
  endfacet
  facet normal -8.694372e-01 -4.114857e-01 -2.734200e-01
    outer loop
      vertex   -9.640399e+00 -4.233140e+00 -3.415464e+00
      vertex   -9.639617e+00 -4.485648e+00 -3.037938e+00
      vertex   -9.738695e+00 -4.276302e+00 -3.037938e+00
    endloop
  endfacet
  facet normal -8.308247e-01 -4.859659e-01 -2.712334e-01
    outer loop
      vertex   -9.123668e+00 -5.267552e+00 -3.322141e+00
      vertex   -9.180244e+00 -5.300216e+00 -3.090318e+00
      vertex   -9.311787e+00 -5.104561e+00 -3.037938e+00
    endloop
  endfacet
  facet normal -8.330445e-01 -4.927518e-01 -2.514607e-01
    outer loop
      vertex   -9.311787e+00 -5.104561e+00 -3.037938e+00
      vertex   -9.180244e+00 -5.300216e+00 -3.090318e+00
      vertex   -9.232688e+00 -5.330495e+00 -2.857247e+00
    endloop
  endfacet
  facet normal -8.371651e-01 -4.890160e-01 -2.449857e-01
    outer loop
      vertex   -9.311787e+00 -5.104561e+00 -3.037938e+00
      vertex   -9.232688e+00 -5.330495e+00 -2.857247e+00
      vertex   -9.374197e+00 -5.138773e+00 -2.756380e+00
    endloop
  endfacet
  facet normal -8.369336e-01 -4.958791e-01 -2.316162e-01
    outer loop
      vertex   -9.374197e+00 -5.138773e+00 -2.756380e+00
      vertex   -9.232688e+00 -5.330495e+00 -2.857247e+00
      vertex   -9.280990e+00 -5.358382e+00 -2.623008e+00
    endloop
  endfacet
  facet normal -8.422121e-01 -4.917283e-01 -2.210928e-01
    outer loop
      vertex   -9.374197e+00 -5.138773e+00 -2.756380e+00
      vertex   -9.280990e+00 -5.358382e+00 -2.623008e+00
      vertex   -9.430148e+00 -5.169445e+00 -2.475028e+00
    endloop
  endfacet
  facet normal -8.409069e-01 -4.980552e-01 -2.116993e-01
    outer loop
      vertex   -9.430148e+00 -5.169445e+00 -2.475028e+00
      vertex   -9.280990e+00 -5.358382e+00 -2.623008e+00
      vertex   -9.325137e+00 -5.383871e+00 -2.387679e+00
    endloop
  endfacet
  facet normal -8.463131e-01 -4.948182e-01 -1.972539e-01
    outer loop
      vertex   -9.430148e+00 -5.169445e+00 -2.475028e+00
      vertex   -9.325137e+00 -5.383871e+00 -2.387679e+00
      vertex   -9.479721e+00 -5.196620e+00 -2.194168e+00
    endloop
  endfacet
  facet normal -8.449051e-01 -4.993806e-01 -1.917143e-01
    outer loop
      vertex   -9.479721e+00 -5.196620e+00 -2.194168e+00
      vertex   -9.325137e+00 -5.383871e+00 -2.387679e+00
      vertex   -9.365120e+00 -5.406955e+00 -2.151341e+00
    endloop
  endfacet
  facet normal -8.494986e-01 -4.982013e-01 -1.736306e-01
    outer loop
      vertex   -9.479721e+00 -5.196620e+00 -2.194168e+00
      vertex   -9.365120e+00 -5.406955e+00 -2.151341e+00
      vertex   -9.521243e+00 -5.223156e+00 -1.914877e+00
    endloop
  endfacet
  facet normal -8.487737e-01 -5.001143e-01 -1.716651e-01
    outer loop
      vertex   -9.521243e+00 -5.223156e+00 -1.914877e+00
      vertex   -9.365120e+00 -5.406955e+00 -2.151341e+00
      vertex   -9.400927e+00 -5.427628e+00 -1.914074e+00
    endloop
  endfacet
  facet normal -8.594689e-01 -4.808566e-01 -1.734649e-01
    outer loop
      vertex   -9.521243e+00 -5.223156e+00 -1.914877e+00
      vertex   -9.636944e+00 -5.016075e+00 -1.915658e+00
      vertex   -9.479721e+00 -5.196620e+00 -2.194168e+00
    endloop
  endfacet
  facet normal -8.596367e-01 -4.804200e-01 -1.738426e-01
    outer loop
      vertex   -9.479721e+00 -5.196620e+00 -2.194168e+00
      vertex   -9.636944e+00 -5.016075e+00 -1.915658e+00
      vertex   -9.596132e+00 -4.988320e+00 -2.194168e+00
    endloop
  endfacet
  facet normal -8.557659e-01 -4.782568e-01 -1.973199e-01
    outer loop
      vertex   -9.479721e+00 -5.196620e+00 -2.194168e+00
      vertex   -9.596132e+00 -4.988320e+00 -2.194168e+00
      vertex   -9.545951e+00 -4.962234e+00 -2.475028e+00
    endloop
  endfacet
  facet normal -8.663350e-01 -4.587989e-01 -1.974011e-01
    outer loop
      vertex   -9.545951e+00 -4.962234e+00 -2.475028e+00
      vertex   -9.596132e+00 -4.988320e+00 -2.194168e+00
      vertex   -9.656626e+00 -4.753249e+00 -2.475028e+00
    endloop
  endfacet
  facet normal -8.618225e-01 -4.564092e-01 -2.212526e-01
    outer loop
      vertex   -9.545951e+00 -4.962234e+00 -2.475028e+00
      vertex   -9.656626e+00 -4.753249e+00 -2.475028e+00
      vertex   -9.599332e+00 -4.725047e+00 -2.756380e+00
    endloop
  endfacet
  facet normal -8.718676e-01 -4.368703e-01 -2.213397e-01
    outer loop
      vertex   -9.599332e+00 -4.725047e+00 -2.756380e+00
      vertex   -9.656626e+00 -4.753249e+00 -2.475028e+00
      vertex   -9.704224e+00 -4.515712e+00 -2.756380e+00
    endloop
  endfacet
  facet normal -8.667369e-01 -4.342994e-01 -2.452573e-01
    outer loop
      vertex   -9.599332e+00 -4.725047e+00 -2.756380e+00
      vertex   -9.704224e+00 -4.515712e+00 -2.756380e+00
      vertex   -9.639617e+00 -4.485648e+00 -3.037938e+00
    endloop
  endfacet
  facet normal -8.762525e-01 -4.147112e-01 -2.453492e-01
    outer loop
      vertex   -9.639617e+00 -4.485648e+00 -3.037938e+00
      vertex   -9.704224e+00 -4.515712e+00 -2.756380e+00
      vertex   -9.738695e+00 -4.276302e+00 -3.037938e+00
    endloop
  endfacet
  facet normal -8.700197e-01 -4.614881e-01 -1.734775e-01
    outer loop
      vertex   -9.636944e+00 -5.016075e+00 -1.915658e+00
      vertex   -9.747981e+00 -4.806457e+00 -1.916417e+00
      vertex   -9.596132e+00 -4.988320e+00 -2.194168e+00
    endloop
  endfacet
  facet normal -8.702428e-01 -4.608684e-01 -1.740051e-01
    outer loop
      vertex   -9.596132e+00 -4.988320e+00 -2.194168e+00
      vertex   -9.747981e+00 -4.806457e+00 -1.916417e+00
      vertex   -9.707390e+00 -4.778236e+00 -2.194168e+00
    endloop
  endfacet
  facet normal -8.663350e-01 -4.587989e-01 -1.974011e-01
    outer loop
      vertex   -9.596132e+00 -4.988320e+00 -2.194168e+00
      vertex   -9.707390e+00 -4.778236e+00 -2.194168e+00
      vertex   -9.656626e+00 -4.753249e+00 -2.475028e+00
    endloop
  endfacet
  facet normal -8.764363e-01 -4.391596e-01 -1.974796e-01
    outer loop
      vertex   -9.656626e+00 -4.753249e+00 -2.475028e+00
      vertex   -9.707390e+00 -4.778236e+00 -2.194168e+00
      vertex   -9.762145e+00 -4.542664e+00 -2.475028e+00
    endloop
  endfacet
  facet normal -8.718676e-01 -4.368703e-01 -2.213397e-01
    outer loop
      vertex   -9.656626e+00 -4.753249e+00 -2.475028e+00
      vertex   -9.762145e+00 -4.542664e+00 -2.475028e+00
      vertex   -9.704224e+00 -4.515712e+00 -2.756380e+00
    endloop
  endfacet
  facet normal -8.814434e-01 -4.171679e-01 -2.214236e-01
    outer loop
      vertex   -9.704224e+00 -4.515712e+00 -2.756380e+00
      vertex   -9.762145e+00 -4.542664e+00 -2.475028e+00
      vertex   -9.803967e+00 -4.304963e+00 -2.756380e+00
    endloop
  endfacet
  facet normal -8.762525e-01 -4.147112e-01 -2.453492e-01
    outer loop
      vertex   -9.704224e+00 -4.515712e+00 -2.756380e+00
      vertex   -9.803967e+00 -4.304963e+00 -2.756380e+00
      vertex   -9.738695e+00 -4.276302e+00 -3.037938e+00
    endloop
  endfacet
  facet normal -8.801425e-01 -4.418596e-01 -1.735205e-01
    outer loop
      vertex   -9.747981e+00 -4.806457e+00 -1.916417e+00
      vertex   -9.854307e+00 -4.594376e+00 -1.917151e+00
      vertex   -9.707390e+00 -4.778236e+00 -2.194168e+00
    endloop
  endfacet
  facet normal -8.803845e-01 -4.411379e-01 -1.741278e-01
    outer loop
      vertex   -9.707390e+00 -4.778236e+00 -2.194168e+00
      vertex   -9.854307e+00 -4.594376e+00 -1.917151e+00
      vertex   -9.813463e+00 -4.566544e+00 -2.194168e+00
    endloop
  endfacet
  facet normal -8.764363e-01 -4.391596e-01 -1.974796e-01
    outer loop
      vertex   -9.707390e+00 -4.778236e+00 -2.194168e+00
      vertex   -9.813463e+00 -4.566544e+00 -2.194168e+00
      vertex   -9.762145e+00 -4.542664e+00 -2.475028e+00
    endloop
  endfacet
  facet normal -8.860659e-01 -4.193556e-01 -1.975553e-01
    outer loop
      vertex   -9.762145e+00 -4.542664e+00 -2.475028e+00
      vertex   -9.813463e+00 -4.566544e+00 -2.194168e+00
      vertex   -9.862483e+00 -4.330658e+00 -2.475028e+00
    endloop
  endfacet
  facet normal -8.814434e-01 -4.171679e-01 -2.214236e-01
    outer loop
      vertex   -9.762145e+00 -4.542664e+00 -2.475028e+00
      vertex   -9.862483e+00 -4.330658e+00 -2.475028e+00
      vertex   -9.803967e+00 -4.304963e+00 -2.756380e+00
    endloop
  endfacet
  facet normal -8.898296e-01 -4.219809e-01 -1.735957e-01
    outer loop
      vertex   -9.854307e+00 -4.594376e+00 -1.917151e+00
      vertex   -9.955851e+00 -4.379961e+00 -1.917859e+00
      vertex   -9.813463e+00 -4.566544e+00 -2.194168e+00
    endloop
  endfacet
  facet normal -8.900581e-01 -4.212451e-01 -1.742104e-01
    outer loop
      vertex   -9.813463e+00 -4.566544e+00 -2.194168e+00
      vertex   -9.955851e+00 -4.379961e+00 -1.917859e+00
      vertex   -9.914328e+00 -4.353423e+00 -2.194168e+00
    endloop
  endfacet
  facet normal -8.860659e-01 -4.193556e-01 -1.975553e-01
    outer loop
      vertex   -9.813463e+00 -4.566544e+00 -2.194168e+00
      vertex   -9.914328e+00 -4.353423e+00 -2.194168e+00
      vertex   -9.862483e+00 -4.330658e+00 -2.475028e+00
    endloop
  endfacet
  facet normal -8.990726e-01 -4.018651e-01 -1.737037e-01
    outer loop
      vertex   -9.955851e+00 -4.379961e+00 -1.917859e+00
      vertex   -1.005254e+01 -4.163349e+00 -1.918540e+00
      vertex   -9.914328e+00 -4.353423e+00 -2.194168e+00
    endloop
  endfacet
  facet normal -9.164286e-01 -3.610484e-01 -1.726345e-01
    outer loop
      vertex   -1.014433e+01 -3.944620e+00 -1.919192e+00
      vertex   -1.023119e+01 -3.723850e+00 -1.919815e+00
      vertex   -1.019203e+01 -3.709595e+00 -2.157541e+00
    endloop
  endfacet
  facet normal -8.758739e-01 -3.733061e-01 -3.057572e-01
    outer loop
      vertex   -9.619964e+00 -3.984239e+00 -3.789800e+00
      vertex   -9.733400e+00 -4.024689e+00 -3.415464e+00
      vertex   -9.777994e+00 -3.920060e+00 -3.415464e+00
    endloop
  endfacet
  facet normal -8.848290e-01 -3.771229e-01 -2.735982e-01
    outer loop
      vertex   -9.777994e+00 -3.920060e+00 -3.415464e+00
      vertex   -9.733400e+00 -4.024689e+00 -3.415464e+00
      vertex   -9.832644e+00 -4.065726e+00 -3.037938e+00
    endloop
  endfacet
  facet normal -8.848290e-01 -3.771229e-01 -2.735982e-01
    outer loop
      vertex   -9.777994e+00 -3.920060e+00 -3.415464e+00
      vertex   -9.832644e+00 -4.065726e+00 -3.037938e+00
      vertex   -9.877693e+00 -3.960030e+00 -3.037938e+00
    endloop
  endfacet
  facet normal -8.917741e-01 -3.800830e-01 -2.455117e-01
    outer loop
      vertex   -9.877693e+00 -3.960030e+00 -3.037938e+00
      vertex   -9.832644e+00 -4.065726e+00 -3.037938e+00
      vertex   -9.898545e+00 -4.092975e+00 -2.756380e+00
    endloop
  endfacet
  facet normal -8.917741e-01 -3.800830e-01 -2.455117e-01
    outer loop
      vertex   -9.877693e+00 -3.960030e+00 -3.037938e+00
      vertex   -9.898545e+00 -4.092975e+00 -2.756380e+00
      vertex   -9.943896e+00 -3.986571e+00 -2.756380e+00
    endloop
  endfacet
  facet normal -8.970640e-01 -3.823376e-01 -2.215719e-01
    outer loop
      vertex   -9.943896e+00 -3.986571e+00 -2.756380e+00
      vertex   -9.898545e+00 -4.092975e+00 -2.756380e+00
      vertex   -9.957626e+00 -4.117405e+00 -2.475028e+00
    endloop
  endfacet
  facet normal -8.970640e-01 -3.823376e-01 -2.215719e-01
    outer loop
      vertex   -9.943896e+00 -3.986571e+00 -2.756380e+00
      vertex   -9.957626e+00 -4.117405e+00 -2.475028e+00
      vertex   -1.000325e+01 -4.010366e+00 -2.475028e+00
    endloop
  endfacet
  facet normal -9.017748e-01 -3.843453e-01 -1.976890e-01
    outer loop
      vertex   -1.000325e+01 -4.010366e+00 -2.475028e+00
      vertex   -9.957626e+00 -4.117405e+00 -2.475028e+00
      vertex   -1.000997e+01 -4.139049e+00 -2.194168e+00
    endloop
  endfacet
  facet normal -9.017748e-01 -3.843453e-01 -1.976890e-01
    outer loop
      vertex   -1.000325e+01 -4.010366e+00 -2.475028e+00
      vertex   -1.000997e+01 -4.139049e+00 -2.194168e+00
      vertex   -1.005583e+01 -4.031448e+00 -2.194168e+00
    endloop
  endfacet
  facet normal -9.059935e-01 -3.742746e-01 -1.977230e-01
    outer loop
      vertex   -1.000325e+01 -4.010366e+00 -2.475028e+00
      vertex   -1.005583e+01 -4.031448e+00 -2.194168e+00
      vertex   -1.004757e+01 -3.903081e+00 -2.475028e+00
    endloop
  endfacet
  facet normal -9.059935e-01 -3.742746e-01 -1.977230e-01
    outer loop
      vertex   -1.004757e+01 -3.903081e+00 -2.475028e+00
      vertex   -1.005583e+01 -4.031448e+00 -2.194168e+00
      vertex   -1.010039e+01 -3.923599e+00 -2.194168e+00
    endloop
  endfacet
  facet normal -9.012591e-01 -3.723188e-01 -2.216096e-01
    outer loop
      vertex   -9.943896e+00 -3.986571e+00 -2.756380e+00
      vertex   -1.000325e+01 -4.010366e+00 -2.475028e+00
      vertex   -9.987953e+00 -3.879923e+00 -2.756380e+00
    endloop
  endfacet
  facet normal -9.012591e-01 -3.723188e-01 -2.216096e-01
    outer loop
      vertex   -9.987953e+00 -3.879923e+00 -2.756380e+00
      vertex   -1.000325e+01 -4.010366e+00 -2.475028e+00
      vertex   -1.004757e+01 -3.903081e+00 -2.475028e+00
    endloop
  endfacet
  facet normal -8.959426e-01 -3.701225e-01 -2.455529e-01
    outer loop
      vertex   -9.877693e+00 -3.960030e+00 -3.037938e+00
      vertex   -9.943896e+00 -3.986571e+00 -2.756380e+00
      vertex   -9.921457e+00 -3.854092e+00 -3.037938e+00
    endloop
  endfacet
  facet normal -8.959426e-01 -3.701225e-01 -2.455529e-01
    outer loop
      vertex   -9.921457e+00 -3.854092e+00 -3.037938e+00
      vertex   -9.943896e+00 -3.986571e+00 -2.756380e+00
      vertex   -9.987953e+00 -3.879923e+00 -2.756380e+00
    endloop
  endfacet
  facet normal -8.889627e-01 -3.672390e-01 -2.736435e-01
    outer loop
      vertex   -9.777994e+00 -3.920060e+00 -3.415464e+00
      vertex   -9.877693e+00 -3.960030e+00 -3.037938e+00
      vertex   -9.821316e+00 -3.815191e+00 -3.415464e+00
    endloop
  endfacet
  facet normal -8.889627e-01 -3.672390e-01 -2.736435e-01
    outer loop
      vertex   -9.821316e+00 -3.815191e+00 -3.415464e+00
      vertex   -9.877693e+00 -3.960030e+00 -3.037938e+00
      vertex   -9.921457e+00 -3.854092e+00 -3.037938e+00
    endloop
  endfacet
  facet normal -8.667369e-01 -4.342994e-01 -2.452573e-01
    outer loop
      vertex   -9.599332e+00 -4.725047e+00 -2.756380e+00
      vertex   -9.639617e+00 -4.485648e+00 -3.037938e+00
      vertex   -9.535423e+00 -4.693589e+00 -3.037938e+00
    endloop
  endfacet
  facet normal -8.567548e-01 -4.537254e-01 -2.451620e-01
    outer loop
      vertex   -9.599332e+00 -4.725047e+00 -2.756380e+00
      vertex   -9.535423e+00 -4.693589e+00 -3.037938e+00
      vertex   -9.489312e+00 -4.932792e+00 -2.756380e+00
    endloop
  endfacet
  facet normal -8.567548e-01 -4.537254e-01 -2.451620e-01
    outer loop
      vertex   -9.489312e+00 -4.932792e+00 -2.756380e+00
      vertex   -9.535423e+00 -4.693589e+00 -3.037938e+00
      vertex   -9.426136e+00 -4.899952e+00 -3.037938e+00
    endloop
  endfacet
  facet normal -8.463103e-01 -4.729724e-01 -2.450634e-01
    outer loop
      vertex   -9.489312e+00 -4.932792e+00 -2.756380e+00
      vertex   -9.426136e+00 -4.899952e+00 -3.037938e+00
      vertex   -9.374197e+00 -5.138773e+00 -2.756380e+00
    endloop
  endfacet
  facet normal -8.463103e-01 -4.729724e-01 -2.450634e-01
    outer loop
      vertex   -9.374197e+00 -5.138773e+00 -2.756380e+00
      vertex   -9.426136e+00 -4.899952e+00 -3.037938e+00
      vertex   -9.311787e+00 -5.104561e+00 -3.037938e+00
    endloop
  endfacet
  facet normal -8.618225e-01 -4.564092e-01 -2.212526e-01
    outer loop
      vertex   -9.599332e+00 -4.725047e+00 -2.756380e+00
      vertex   -9.489312e+00 -4.932792e+00 -2.756380e+00
      vertex   -9.545951e+00 -4.962234e+00 -2.475028e+00
    endloop
  endfacet
  facet normal -8.513121e-01 -4.757677e-01 -2.211625e-01
    outer loop
      vertex   -9.545951e+00 -4.962234e+00 -2.475028e+00
      vertex   -9.489312e+00 -4.932792e+00 -2.756380e+00
      vertex   -9.430148e+00 -5.169445e+00 -2.475028e+00
    endloop
  endfacet
  facet normal -8.557659e-01 -4.782568e-01 -1.973199e-01
    outer loop
      vertex   -9.545951e+00 -4.962234e+00 -2.475028e+00
      vertex   -9.430148e+00 -5.169445e+00 -2.475028e+00
      vertex   -9.479721e+00 -5.196620e+00 -2.194168e+00
    endloop
  endfacet
  facet normal -8.513121e-01 -4.757677e-01 -2.211625e-01
    outer loop
      vertex   -9.430148e+00 -5.169445e+00 -2.475028e+00
      vertex   -9.489312e+00 -4.932792e+00 -2.756380e+00
      vertex   -9.374197e+00 -5.138773e+00 -2.756380e+00
    endloop
  endfacet
  facet normal -3.420201e-01 9.396926e-01 1.636089e-15
    outer loop
      vertex   -9.790399e+00 -3.563414e+00 -3.792106e+00
      vertex   -9.861364e+00 -3.589243e+00 -3.562325e+00
      vertex   0.000000e+00 0.000000e+00 0.000000e+00
    endloop
  endfacet
  facet normal -3.420201e-01 9.396926e-01 5.307019e-15
    outer loop
      vertex   0.000000e+00 0.000000e+00 0.000000e+00
      vertex   -9.861364e+00 -3.589243e+00 -3.562325e+00
      vertex   -9.927815e+00 -3.613429e+00 -3.331166e+00
    endloop
  endfacet
  facet normal -3.420201e-01 9.396926e-01 -2.655828e-15
    outer loop
      vertex   0.000000e+00 0.000000e+00 0.000000e+00
      vertex   -9.927815e+00 -3.613429e+00 -3.331166e+00
      vertex   -9.989743e+00 -3.635969e+00 -3.098711e+00
    endloop
  endfacet
  facet normal -3.420201e-01 9.396926e-01 -2.491723e-16
    outer loop
      vertex   -9.989743e+00 -3.635969e+00 -3.098711e+00
      vertex   -1.004714e+01 -3.656859e+00 -2.865040e+00
      vertex   0.000000e+00 0.000000e+00 0.000000e+00
    endloop
  endfacet
  facet normal -3.420201e-01 9.396926e-01 2.659544e-15
    outer loop
      vertex   0.000000e+00 0.000000e+00 0.000000e+00
      vertex   -1.004714e+01 -3.656859e+00 -2.865040e+00
      vertex   -1.009999e+01 -3.676096e+00 -2.630234e+00
    endloop
  endfacet
  facet normal -3.420201e-01 9.396926e-01 -2.660949e-15
    outer loop
      vertex   0.000000e+00 0.000000e+00 0.000000e+00
      vertex   -1.009999e+01 -3.676096e+00 -2.630234e+00
      vertex   -1.014829e+01 -3.693676e+00 -2.394374e+00
    endloop
  endfacet
  facet normal -3.420201e-01 9.396926e-01 2.079732e-15
    outer loop
      vertex   -1.014829e+01 -3.693676e+00 -2.394374e+00
      vertex   -1.019203e+01 -3.709595e+00 -2.157541e+00
      vertex   0.000000e+00 0.000000e+00 0.000000e+00
    endloop
  endfacet
  facet normal -3.420201e-01 9.396926e-01 5.325736e-15
    outer loop
      vertex   0.000000e+00 0.000000e+00 0.000000e+00
      vertex   -1.019203e+01 -3.709595e+00 -2.157541e+00
      vertex   -1.023119e+01 -3.723850e+00 -1.919815e+00
    endloop
  endfacet
  facet normal -1.621385e-01 -6.223912e-02 9.848032e-01
    outer loop
      vertex   0.000000e+00 0.000000e+00 0.000000e+00
      vertex   -1.023119e+01 -3.723850e+00 -1.919815e+00
      vertex   -5.047500e+00 -2.039323e+00 -9.599073e-01
    endloop
  endfacet
  facet normal -1.624926e-01 -6.115481e-02 9.848128e-01
    outer loop
      vertex   -5.047500e+00 -2.039323e+00 -9.599073e-01
      vertex   -1.023119e+01 -3.723850e+00 -1.919815e+00
      vertex   -1.014433e+01 -3.944620e+00 -1.919192e+00
    endloop
  endfacet
  facet normal -1.611658e-01 -6.469995e-02 9.848043e-01
    outer loop
      vertex   -5.047500e+00 -2.039323e+00 -9.599073e-01
      vertex   -1.014433e+01 -3.944620e+00 -1.919192e+00
      vertex   -1.005254e+01 -4.163349e+00 -1.918540e+00
    endloop
  endfacet
  facet normal -1.598323e-01 -6.784478e-02 9.848100e-01
    outer loop
      vertex   -5.047500e+00 -2.039323e+00 -9.599073e-01
      vertex   -1.005254e+01 -4.163349e+00 -1.918540e+00
      vertex   -4.973254e+00 -2.214235e+00 -9.599073e-01
    endloop
  endfacet
  facet normal -1.596995e-01 -6.818975e-02 9.848077e-01
    outer loop
      vertex   -4.973254e+00 -2.214235e+00 -9.599073e-01
      vertex   -1.005254e+01 -4.163349e+00 -1.918540e+00
      vertex   -9.955851e+00 -4.379961e+00 -1.917859e+00
    endloop
  endfacet
  facet normal -1.581893e-01 -7.166299e-02 9.848048e-01
    outer loop
      vertex   -4.973254e+00 -2.214235e+00 -9.599073e-01
      vertex   -9.955851e+00 -4.379961e+00 -1.917859e+00
      vertex   -9.854307e+00 -4.594376e+00 -1.917151e+00
    endloop
  endfacet
  facet normal -1.573554e-01 -7.337602e-02 9.848123e-01
    outer loop
      vertex   -4.973254e+00 -2.214235e+00 -9.599073e-01
      vertex   -9.854307e+00 -4.594376e+00 -1.917151e+00
      vertex   -4.892949e+00 -2.386451e+00 -9.599073e-01
    endloop
  endfacet
  facet normal -1.565882e-01 -7.509677e-02 9.848049e-01
    outer loop
      vertex   -4.892949e+00 -2.386451e+00 -9.599073e-01
      vertex   -9.854307e+00 -4.594376e+00 -1.917151e+00
      vertex   -9.747981e+00 -4.806457e+00 -1.916417e+00
    endloop
  endfacet
  facet normal -1.548981e-01 -7.848856e-02 9.848077e-01
    outer loop
      vertex   -4.892949e+00 -2.386451e+00 -9.599073e-01
      vertex   -9.747981e+00 -4.806457e+00 -1.916417e+00
      vertex   -9.636944e+00 -5.016075e+00 -1.915658e+00
    endloop
  endfacet
  facet normal -1.547100e-01 -7.882870e-02 9.848101e-01
    outer loop
      vertex   -4.892949e+00 -2.386451e+00 -9.599073e-01
      vertex   -9.636944e+00 -5.016075e+00 -1.915658e+00
      vertex   -4.806682e+00 -2.555758e+00 -9.599073e-01
    endloop
  endfacet
  facet normal -1.531646e-01 -8.186060e-02 9.848043e-01
    outer loop
      vertex   -4.806682e+00 -2.555758e+00 -9.599073e-01
      vertex   -9.636944e+00 -5.016075e+00 -1.915658e+00
      vertex   -9.521243e+00 -5.223156e+00 -1.914877e+00
    endloop
  endfacet
  facet normal -1.512986e-01 -8.516164e-02 9.848128e-01
    outer loop
      vertex   -4.806682e+00 -2.555758e+00 -9.599073e-01
      vertex   -9.521243e+00 -5.223156e+00 -1.914877e+00
      vertex   -9.400927e+00 -5.427628e+00 -1.914074e+00
    endloop
  endfacet
  facet normal -1.518985e-01 -8.419876e-02 9.848032e-01
    outer loop
      vertex   -9.400927e+00 -5.427628e+00 -1.914074e+00
      vertex   0.000000e+00 0.000000e+00 0.000000e+00
      vertex   -4.806682e+00 -2.555758e+00 -9.599073e-01
    endloop
  endfacet
  facet normal -1.547445e-01 -7.884627e-02 9.848032e-01
    outer loop
      vertex   -4.806682e+00 -2.555758e+00 -9.599073e-01
      vertex   0.000000e+00 0.000000e+00 0.000000e+00
      vertex   -4.892949e+00 -2.386451e+00 -9.599073e-01
    endloop
  endfacet
  facet normal -1.574019e-01 -7.339773e-02 9.848032e-01
    outer loop
      vertex   -4.892949e+00 -2.386451e+00 -9.599073e-01
      vertex   0.000000e+00 0.000000e+00 0.000000e+00
      vertex   -4.973254e+00 -2.214235e+00 -9.599073e-01
    endloop
  endfacet
  facet normal -1.598676e-01 -6.785977e-02 9.848032e-01
    outer loop
      vertex   -4.973254e+00 -2.214235e+00 -9.599073e-01
      vertex   0.000000e+00 0.000000e+00 0.000000e+00
      vertex   -5.047500e+00 -2.039323e+00 -9.599073e-01
    endloop
  endfacet
  facet normal 2.991777e-01 1.658371e-01 -9.396759e-01
    outer loop
      vertex   0.000000e+00 0.000000e+00 0.000000e+00
      vertex   -8.998168e+00 -5.195095e+00 -3.781720e+00
      vertex   -4.599594e+00 -2.445648e+00 -1.896053e+00
    endloop
  endfacet
  facet normal 2.980042e-01 1.677387e-01 -9.397112e-01
    outer loop
      vertex   -4.599594e+00 -2.445648e+00 -1.896053e+00
      vertex   -8.998168e+00 -5.195095e+00 -3.781720e+00
      vertex   -9.112996e+00 -4.999229e+00 -3.783172e+00
    endloop
  endfacet
  facet normal 3.016717e-01 1.612332e-01 -9.396797e-01
    outer loop
      vertex   -4.599594e+00 -2.445648e+00 -1.896053e+00
      vertex   -9.112996e+00 -4.999229e+00 -3.783172e+00
      vertex   -9.223412e+00 -4.800878e+00 -3.784586e+00
    endloop
  endfacet
  facet normal 3.047213e-01 1.552633e-01 -9.397011e-01
    outer loop
      vertex   -4.599594e+00 -2.445648e+00 -1.896053e+00
      vertex   -9.223412e+00 -4.800878e+00 -3.784586e+00
      vertex   -4.682144e+00 -2.283634e+00 -1.896053e+00
    endloop
  endfacet
  facet normal 3.050888e-01 1.545937e-01 -9.396923e-01
    outer loop
      vertex   -4.682144e+00 -2.283634e+00 -1.896053e+00
      vertex   -9.223412e+00 -4.800878e+00 -3.784586e+00
      vertex   -9.329371e+00 -4.600111e+00 -3.785959e+00
    endloop
  endfacet
  facet normal 3.084151e-01 1.479121e-01 -9.396819e-01
    outer loop
      vertex   -4.682144e+00 -2.283634e+00 -1.896053e+00
      vertex   -9.329371e+00 -4.600111e+00 -3.785959e+00
      vertex   -9.430828e+00 -4.396999e+00 -3.787287e+00
    endloop
  endfacet
  facet normal 3.099337e-01 1.445245e-01 -9.397094e-01
    outer loop
      vertex   -4.682144e+00 -2.283634e+00 -1.896053e+00
      vertex   -9.430828e+00 -4.396999e+00 -3.787287e+00
      vertex   -4.758990e+00 -2.118839e+00 -1.896053e+00
    endloop
  endfacet
  facet normal 3.115686e-01 1.411489e-01 -9.396818e-01
    outer loop
      vertex   -4.758990e+00 -2.118839e+00 -1.896053e+00
      vertex   -9.430828e+00 -4.396999e+00 -3.787287e+00
      vertex   -9.527715e+00 -4.191664e+00 -3.788568e+00
    endloop
  endfacet
  facet normal 3.145459e-01 1.343090e-01 -9.396925e-01
    outer loop
      vertex   -4.758990e+00 -2.118839e+00 -1.896053e+00
      vertex   -9.527715e+00 -4.191664e+00 -3.788568e+00
      vertex   -9.619964e+00 -3.984239e+00 -3.789800e+00
    endloop
  endfacet
  facet normal 3.148102e-01 1.336290e-01 -9.397009e-01
    outer loop
      vertex   -4.758990e+00 -2.118839e+00 -1.896053e+00
      vertex   -9.619964e+00 -3.984239e+00 -3.789800e+00
      vertex   -4.830037e+00 -1.951462e+00 -1.896053e+00
    endloop
  endfacet
  facet normal 3.174311e-01 1.274337e-01 -9.396798e-01
    outer loop
      vertex   -4.830037e+00 -1.951462e+00 -1.896053e+00
      vertex   -9.619964e+00 -3.984239e+00 -3.789800e+00
      vertex   -9.707538e+00 -3.774797e+00 -3.790980e+00
    endloop
  endfacet
  facet normal 3.200526e-01 1.204537e-01 -9.397113e-01
    outer loop
      vertex   -4.830037e+00 -1.951462e+00 -1.896053e+00
      vertex   -9.707538e+00 -3.774797e+00 -3.790980e+00
      vertex   -9.790399e+00 -3.563414e+00 -3.792106e+00
    endloop
  endfacet
  facet normal 3.193463e-01 1.225855e-01 -9.396759e-01
    outer loop
      vertex   -9.790399e+00 -3.563414e+00 -3.792106e+00
      vertex   0.000000e+00 0.000000e+00 0.000000e+00
      vertex   -4.830037e+00 -1.951462e+00 -1.896053e+00
    endloop
  endfacet
  facet normal 3.148735e-01 1.336559e-01 -9.396759e-01
    outer loop
      vertex   -4.830037e+00 -1.951462e+00 -1.896053e+00
      vertex   0.000000e+00 0.000000e+00 0.000000e+00
      vertex   -4.758990e+00 -2.118839e+00 -1.896053e+00
    endloop
  endfacet
  facet normal 3.100172e-01 1.445634e-01 -9.396759e-01
    outer loop
      vertex   -4.758990e+00 -2.118839e+00 -1.896053e+00
      vertex   0.000000e+00 0.000000e+00 0.000000e+00
      vertex   -4.682144e+00 -2.283634e+00 -1.896053e+00
    endloop
  endfacet
  facet normal 3.047832e-01 1.552948e-01 -9.396759e-01
    outer loop
      vertex   -4.682144e+00 -2.283634e+00 -1.896053e+00
      vertex   0.000000e+00 0.000000e+00 0.000000e+00
      vertex   -4.599594e+00 -2.445648e+00 -1.896053e+00
    endloop
  endfacet
endsolid
