solid ASCII
  facet normal -9.396926e-01 3.420201e-01 3.817978e-16
    outer loop
      vertex   -6.774409e-01 -1.861253e+00 1.123313e+01
      vertex   0.000000e+00 0.000000e+00 0.000000e+00
      vertex   -7.607129e-01 -2.090041e+00 1.118252e+01
    endloop
  endfacet
  facet normal -9.396926e-01 3.420201e-01 -9.799082e-18
    outer loop
      vertex   -7.607129e-01 -2.090041e+00 1.118252e+01
      vertex   0.000000e+00 0.000000e+00 0.000000e+00
      vertex   -8.435079e-01 -2.317519e+00 1.112613e+01
    endloop
  endfacet
  facet normal -9.396926e-01 3.420201e-01 4.022004e-16
    outer loop
      vertex   -8.435079e-01 -2.317519e+00 1.112613e+01
      vertex   0.000000e+00 0.000000e+00 0.000000e+00
      vertex   -9.257733e-01 -2.543541e+00 1.106399e+01
    endloop
  endfacet
  facet normal -9.396926e-01 3.420201e-01 3.338503e-16
    outer loop
      vertex   -9.257733e-01 -2.543541e+00 1.106399e+01
      vertex   0.000000e+00 0.000000e+00 0.000000e+00
      vertex   -1.007479e+00 -2.768025e+00 1.099616e+01
    endloop
  endfacet
  facet normal -9.396926e-01 3.420201e-01 7.861747e-17
    outer loop
      vertex   -1.007479e+00 -2.768025e+00 1.099616e+01
      vertex   0.000000e+00 0.000000e+00 0.000000e+00
      vertex   -1.088594e+00 -2.990889e+00 1.092268e+01
    endloop
  endfacet
  facet normal -9.396926e-01 3.420201e-01 2.655169e-16
    outer loop
      vertex   -1.088594e+00 -2.990889e+00 1.092268e+01
      vertex   0.000000e+00 0.000000e+00 0.000000e+00
      vertex   -1.169090e+00 -3.212048e+00 1.084359e+01
    endloop
  endfacet
  facet normal -9.396926e-01 3.420201e-01 -7.871574e-17
    outer loop
      vertex   -1.169090e+00 -3.212048e+00 1.084359e+01
      vertex   0.000000e+00 0.000000e+00 0.000000e+00
      vertex   -1.248935e+00 -3.431421e+00 1.075893e+01
    endloop
  endfacet
  facet normal -9.396926e-01 3.420201e-01 1.102497e-15
    outer loop
      vertex   -1.248935e+00 -3.431421e+00 1.075893e+01
      vertex   0.000000e+00 0.000000e+00 0.000000e+00
      vertex   -1.328100e+00 -3.648924e+00 1.066874e+01
    endloop
  endfacet
  facet normal -3.693552e-02 -2.009137e-01 9.789124e-01
    outer loop
      vertex   -3.861903e-01 -2.190194e+00 1.118161e+01
      vertex   -3.439234e-01 -1.950487e+00 1.123241e+01
      vertex   -4.779818e-01 -2.163356e+00 1.118366e+01
    endloop
  endfacet
  facet normal -4.199675e-02 -1.978237e-01 9.793376e-01
    outer loop
      vertex   -4.779818e-01 -2.163356e+00 1.118366e+01
      vertex   -3.439234e-01 -1.950487e+00 1.123241e+01
      vertex   -5.126286e-01 -1.913141e+00 1.123271e+01
    endloop
  endfacet
  facet normal -4.620510e-02 -1.983485e-01 9.790419e-01
    outer loop
      vertex   -4.779818e-01 -2.163356e+00 1.118366e+01
      vertex   -5.126286e-01 -1.913141e+00 1.123271e+01
      vertex   -5.716912e-01 -2.141526e+00 1.118366e+01
    endloop
  endfacet
  facet normal -5.447555e-02 -1.962108e-01 9.790474e-01
    outer loop
      vertex   -5.716912e-01 -2.141526e+00 1.118366e+01
      vertex   -5.126286e-01 -1.913141e+00 1.123271e+01
      vertex   -6.654418e-01 -2.115497e+00 1.118366e+01
    endloop
  endfacet
  facet normal -6.059431e-02 -2.182494e-01 9.740100e-01
    outer loop
      vertex   -5.716912e-01 -2.141526e+00 1.118366e+01
      vertex   -6.654418e-01 -2.115497e+00 1.118366e+01
      vertex   -7.370537e-01 -2.343158e+00 1.112819e+01
    endloop
  endfacet
  facet normal -6.917926e-02 -2.155558e-01 9.740379e-01
    outer loop
      vertex   -7.370537e-01 -2.343158e+00 1.112819e+01
      vertex   -6.654418e-01 -2.115497e+00 1.118366e+01
      vertex   -7.607129e-01 -2.090041e+00 1.118252e+01
    endloop
  endfacet
  facet normal -7.083242e-02 -2.156790e-01 9.738919e-01
    outer loop
      vertex   -7.370537e-01 -2.343158e+00 1.112819e+01
      vertex   -7.607129e-01 -2.090041e+00 1.118252e+01
      vertex   -8.435079e-01 -2.317519e+00 1.112613e+01
    endloop
  endfacet
  facet normal -5.837815e-02 -1.933473e-01 9.793921e-01
    outer loop
      vertex   -5.126286e-01 -1.913141e+00 1.123271e+01
      vertex   -6.774409e-01 -1.861253e+00 1.123313e+01
      vertex   -6.654418e-01 -2.115497e+00 1.118366e+01
    endloop
  endfacet
  facet normal -6.334973e-02 -1.935153e-01 9.790499e-01
    outer loop
      vertex   -6.654418e-01 -2.115497e+00 1.118366e+01
      vertex   -6.774409e-01 -1.861253e+00 1.123313e+01
      vertex   -7.607129e-01 -2.090041e+00 1.118252e+01
    endloop
  endfacet
  facet normal -7.598687e-02 -2.375223e-01 9.684055e-01
    outer loop
      vertex   -7.370537e-01 -2.343158e+00 1.112819e+01
      vertex   -8.435079e-01 -2.317519e+00 1.112613e+01
      vertex   -8.087519e-01 -2.571093e+00 1.106666e+01
    endloop
  endfacet
  facet normal -7.804335e-02 -2.377525e-01 9.681854e-01
    outer loop
      vertex   -8.087519e-01 -2.571093e+00 1.106666e+01
      vertex   -8.435079e-01 -2.317519e+00 1.112613e+01
      vertex   -9.257733e-01 -2.543541e+00 1.106399e+01
    endloop
  endfacet
  facet normal -8.300378e-02 -2.594010e-01 9.621962e-01
    outer loop
      vertex   -8.087519e-01 -2.571093e+00 1.106666e+01
      vertex   -9.257733e-01 -2.543541e+00 1.106399e+01
      vertex   -8.804780e-01 -2.799116e+00 1.099900e+01
    endloop
  endfacet
  facet normal -8.504548e-02 -2.596971e-01 9.619380e-01
    outer loop
      vertex   -8.804780e-01 -2.799116e+00 1.099900e+01
      vertex   -9.257733e-01 -2.543541e+00 1.106399e+01
      vertex   -1.007479e+00 -2.768025e+00 1.099616e+01
    endloop
  endfacet
  facet normal -8.882973e-02 -2.755905e-01 9.571620e-01
    outer loop
      vertex   -8.804780e-01 -2.799116e+00 1.099900e+01
      vertex   -1.007479e+00 -2.768025e+00 1.099616e+01
      vertex   -9.163328e-01 -2.913102e+00 1.096285e+01
    endloop
  endfacet
  facet normal -9.635697e-02 -2.798670e-01 9.551910e-01
    outer loop
      vertex   -9.163328e-01 -2.913102e+00 1.096285e+01
      vertex   -1.007479e+00 -2.768025e+00 1.099616e+01
      vertex   -1.088594e+00 -2.990889e+00 1.092268e+01
    endloop
  endfacet
  facet normal -9.310906e-02 -2.862487e-01 9.536207e-01
    outer loop
      vertex   -9.163328e-01 -2.913102e+00 1.096285e+01
      vertex   -1.088594e+00 -2.990889e+00 1.092268e+01
      vertex   -9.521719e-01 -3.027037e+00 1.092515e+01
    endloop
  endfacet
  facet normal -9.597933e-02 -2.973325e-01 9.499376e-01
    outer loop
      vertex   -9.521719e-01 -3.027037e+00 1.092515e+01
      vertex   -1.088594e+00 -2.990889e+00 1.092268e+01
      vertex   -9.879876e-01 -3.140899e+00 1.088589e+01
    endloop
  endfacet
  facet normal -8.362483e-02 -3.012011e-01 9.498867e-01
    outer loop
      vertex   -9.521719e-01 -3.027037e+00 1.092515e+01
      vertex   -9.879876e-01 -3.140899e+00 1.088589e+01
      vertex   -8.180254e-01 -3.064282e+00 1.092515e+01
    endloop
  endfacet
  facet normal -8.362483e-02 -3.012011e-01 9.498867e-01
    outer loop
      vertex   -8.180254e-01 -3.064282e+00 1.092515e+01
      vertex   -9.879876e-01 -3.140899e+00 1.088589e+01
      vertex   -8.487952e-01 -3.179544e+00 1.088589e+01
    endloop
  endfacet
  facet normal -7.094938e-02 -3.045702e-01 9.498438e-01
    outer loop
      vertex   -8.180254e-01 -3.064282e+00 1.092515e+01
      vertex   -8.487952e-01 -3.179544e+00 1.088589e+01
      vertex   -6.839379e-01 -3.095517e+00 1.092515e+01
    endloop
  endfacet
  facet normal -7.094938e-02 -3.045702e-01 9.498438e-01
    outer loop
      vertex   -6.839379e-01 -3.095517e+00 1.092515e+01
      vertex   -8.487952e-01 -3.179544e+00 1.088589e+01
      vertex   -7.096640e-01 -3.211954e+00 1.088589e+01
    endloop
  endfacet
  facet normal -5.883651e-02 -3.072361e-01 9.498128e-01
    outer loop
      vertex   -6.839379e-01 -3.095517e+00 1.092515e+01
      vertex   -7.096640e-01 -3.211954e+00 1.088589e+01
      vertex   -5.525940e-01 -3.133916e+00 1.092087e+01
    endloop
  endfacet
  facet normal -5.447854e-02 -3.149853e-01 9.475317e-01
    outer loop
      vertex   -5.525940e-01 -3.133916e+00 1.092087e+01
      vertex   -7.096640e-01 -3.211954e+00 1.088589e+01
      vertex   -5.934417e-01 -3.365575e+00 1.084151e+01
    endloop
  endfacet
  facet normal -5.995971e-02 -3.186792e-01 9.459643e-01
    outer loop
      vertex   -5.934417e-01 -3.365575e+00 1.084151e+01
      vertex   -7.096640e-01 -3.211954e+00 1.088589e+01
      vertex   -7.353677e-01 -3.328290e+00 1.084507e+01
    endloop
  endfacet
  facet normal -6.295241e-02 -3.296907e-01 9.419878e-01
    outer loop
      vertex   -5.934417e-01 -3.365575e+00 1.084151e+01
      vertex   -7.353677e-01 -3.328290e+00 1.084507e+01
      vertex   -7.610434e-01 -3.444499e+00 1.080268e+01
    endloop
  endfacet
  facet normal -7.612627e-02 -3.267935e-01 9.420248e-01
    outer loop
      vertex   -7.610434e-01 -3.444499e+00 1.080268e+01
      vertex   -7.353677e-01 -3.328290e+00 1.084507e+01
      vertex   -9.102477e-01 -3.409742e+00 1.080268e+01
    endloop
  endfacet
  facet normal -7.870587e-02 -3.378672e-01 9.378972e-01
    outer loop
      vertex   -7.610434e-01 -3.444499e+00 1.080268e+01
      vertex   -9.102477e-01 -3.409742e+00 1.080268e+01
      vertex   -9.409167e-01 -3.524626e+00 1.075872e+01
    endloop
  endfacet
  facet normal -9.276802e-02 -3.341332e-01 9.379494e-01
    outer loop
      vertex   -9.409167e-01 -3.524626e+00 1.075872e+01
      vertex   -9.102477e-01 -3.409742e+00 1.080268e+01
      vertex   -1.095216e+00 -3.481787e+00 1.075872e+01
    endloop
  endfacet
  facet normal -9.580087e-02 -3.450569e-01 9.336798e-01
    outer loop
      vertex   -9.409167e-01 -3.524626e+00 1.075872e+01
      vertex   -1.095216e+00 -3.481787e+00 1.075872e+01
      vertex   -1.130859e+00 -3.595100e+00 1.071319e+01
    endloop
  endfacet
  facet normal -1.103310e-01 -3.405123e-01 9.337443e-01
    outer loop
      vertex   -1.130859e+00 -3.595100e+00 1.071319e+01
      vertex   -1.095216e+00 -3.481787e+00 1.075872e+01
      vertex   -1.248935e+00 -3.431421e+00 1.075893e+01
    endloop
  endfacet
  facet normal -1.160836e-01 -3.440993e-01 9.317297e-01
    outer loop
      vertex   -1.130859e+00 -3.595100e+00 1.071319e+01
      vertex   -1.248935e+00 -3.431421e+00 1.075893e+01
      vertex   -1.328100e+00 -3.648924e+00 1.066874e+01
    endloop
  endfacet
  facet normal -1.029608e-01 -3.015118e-01 9.478870e-01
    outer loop
      vertex   -1.088594e+00 -2.990889e+00 1.092268e+01
      vertex   -1.169090e+00 -3.212048e+00 1.084359e+01
      vertex   -9.879876e-01 -3.140899e+00 1.088589e+01
    endloop
  endfacet
  facet normal -9.998121e-02 -3.080373e-01 9.461061e-01
    outer loop
      vertex   -9.879876e-01 -3.140899e+00 1.088589e+01
      vertex   -1.169090e+00 -3.212048e+00 1.084359e+01
      vertex   -1.023772e+00 -3.254661e+00 1.084507e+01
    endloop
  endfacet
  facet normal -8.667922e-02 -3.122025e-01 9.460530e-01
    outer loop
      vertex   -9.879876e-01 -3.140899e+00 1.088589e+01
      vertex   -1.023772e+00 -3.254661e+00 1.084507e+01
      vertex   -8.487952e-01 -3.179544e+00 1.088589e+01
    endloop
  endfacet
  facet normal -8.667922e-02 -3.122025e-01 9.460530e-01
    outer loop
      vertex   -8.487952e-01 -3.179544e+00 1.088589e+01
      vertex   -1.023772e+00 -3.254661e+00 1.084507e+01
      vertex   -8.795382e-01 -3.294706e+00 1.084507e+01
    endloop
  endfacet
  facet normal -7.354056e-02 -3.156936e-01 9.460070e-01
    outer loop
      vertex   -8.487952e-01 -3.179544e+00 1.088589e+01
      vertex   -8.795382e-01 -3.294706e+00 1.084507e+01
      vertex   -7.096640e-01 -3.211954e+00 1.088589e+01
    endloop
  endfacet
  facet normal -7.354056e-02 -3.156936e-01 9.460070e-01
    outer loop
      vertex   -7.096640e-01 -3.211954e+00 1.088589e+01
      vertex   -8.795382e-01 -3.294706e+00 1.084507e+01
      vertex   -7.353677e-01 -3.328290e+00 1.084507e+01
    endloop
  endfacet
  facet normal -1.031495e-01 -3.189802e-01 9.421315e-01
    outer loop
      vertex   -1.023772e+00 -3.254661e+00 1.084507e+01
      vertex   -1.169090e+00 -3.212048e+00 1.084359e+01
      vertex   -1.059518e+00 -3.368299e+00 1.080268e+01
    endloop
  endfacet
  facet normal -1.095443e-01 -3.229234e-01 9.400641e-01
    outer loop
      vertex   -1.059518e+00 -3.368299e+00 1.080268e+01
      vertex   -1.169090e+00 -3.212048e+00 1.084359e+01
      vertex   -1.248935e+00 -3.431421e+00 1.075893e+01
    endloop
  endfacet
  facet normal -1.067970e-01 -3.297439e-01 9.380103e-01
    outer loop
      vertex   -1.059518e+00 -3.368299e+00 1.080268e+01
      vertex   -1.248935e+00 -3.431421e+00 1.075893e+01
      vertex   -1.095216e+00 -3.481787e+00 1.075872e+01
    endloop
  endfacet
  facet normal -1.137214e-01 -3.508997e-01 9.294820e-01
    outer loop
      vertex   -1.328100e+00 -3.648924e+00 1.066874e+01
      vertex   -1.167600e+00 -3.703094e+00 1.066793e+01
      vertex   -1.130859e+00 -3.595100e+00 1.071319e+01
    endloop
  endfacet
  facet normal -9.901953e-02 -3.558222e-01 9.292931e-01
    outer loop
      vertex   -1.130859e+00 -3.595100e+00 1.071319e+01
      vertex   -1.167600e+00 -3.703094e+00 1.066793e+01
      vertex   -1.004900e+00 -3.750245e+00 1.066721e+01
    endloop
  endfacet
  facet normal -9.873418e-02 -3.556222e-01 9.294000e-01
    outer loop
      vertex   -1.130859e+00 -3.595100e+00 1.071319e+01
      vertex   -1.004900e+00 -3.750245e+00 1.066721e+01
      vertex   -9.715385e-01 -3.639334e+00 1.071319e+01
    endloop
  endfacet
  facet normal -8.409030e-02 -3.599357e-01 9.291798e-01
    outer loop
      vertex   -9.715385e-01 -3.639334e+00 1.071319e+01
      vertex   -1.004900e+00 -3.750245e+00 1.066721e+01
      vertex   -8.403040e-01 -3.790292e+00 1.066659e+01
    endloop
  endfacet
  facet normal -8.379501e-02 -3.597137e-01 9.292924e-01
    outer loop
      vertex   -9.715385e-01 -3.639334e+00 1.071319e+01
      vertex   -8.403040e-01 -3.790292e+00 1.066659e+01
      vertex   -8.122877e-01 -3.676431e+00 1.071319e+01
    endloop
  endfacet
  facet normal -6.899020e-02 -3.632859e-01 9.291198e-01
    outer loop
      vertex   -8.122877e-01 -3.676431e+00 1.071319e+01
      vertex   -8.403040e-01 -3.790292e+00 1.066659e+01
      vertex   -6.741258e-01 -3.823157e+00 1.066608e+01
    endloop
  endfacet
  facet normal -6.341166e-02 -3.587284e-01 9.312856e-01
    outer loop
      vertex   -8.122877e-01 -3.676431e+00 1.071319e+01
      vertex   -6.741258e-01 -3.823157e+00 1.066608e+01
      vertex   -6.339574e-01 -3.595351e+00 1.075657e+01
    endloop
  endfacet
  facet normal -5.898595e-02 -3.369714e-01 9.396653e-01
    outer loop
      vertex   -5.934417e-01 -3.365575e+00 1.084151e+01
      vertex   -7.610434e-01 -3.444499e+00 1.080268e+01
      vertex   -6.339574e-01 -3.595351e+00 1.075657e+01
    endloop
  endfacet
  facet normal -6.443073e-02 -3.410038e-01 9.378513e-01
    outer loop
      vertex   -6.339574e-01 -3.595351e+00 1.075657e+01
      vertex   -7.610434e-01 -3.444499e+00 1.080268e+01
      vertex   -7.866853e-01 -3.560554e+00 1.075872e+01
    endloop
  endfacet
  facet normal -6.700730e-02 -3.520477e-01 9.335805e-01
    outer loop
      vertex   -6.339574e-01 -3.595351e+00 1.075657e+01
      vertex   -7.866853e-01 -3.560554e+00 1.075872e+01
      vertex   -8.122877e-01 -3.676431e+00 1.071319e+01
    endloop
  endfacet
  facet normal -8.127869e-02 -3.489117e-01 9.336243e-01
    outer loop
      vertex   -8.122877e-01 -3.676431e+00 1.071319e+01
      vertex   -7.866853e-01 -3.560554e+00 1.075872e+01
      vertex   -9.715385e-01 -3.639334e+00 1.071319e+01
    endloop
  endfacet
  facet normal -5.550519e-02 -2.962523e-01 9.534955e-01
    outer loop
      vertex   -6.839379e-01 -3.095517e+00 1.092515e+01
      vertex   -5.525940e-01 -3.133916e+00 1.092087e+01
      vertex   -6.581949e-01 -2.979004e+00 1.096285e+01
    endloop
  endfacet
  facet normal -4.986849e-02 -2.927843e-01 9.548772e-01
    outer loop
      vertex   -6.581949e-01 -2.979004e+00 1.096285e+01
      vertex   -5.525940e-01 -3.133916e+00 1.092087e+01
      vertex   -5.114297e-01 -2.900462e+00 1.099460e+01
    endloop
  endfacet
  facet normal -5.466210e-02 -2.847071e-01 9.570548e-01
    outer loop
      vertex   -6.581949e-01 -2.979004e+00 1.096285e+01
      vertex   -5.114297e-01 -2.900462e+00 1.099460e+01
      vertex   -6.324407e-01 -2.862440e+00 1.099900e+01
    endloop
  endfacet
  facet normal -4.973785e-02 -2.695718e-01 9.616950e-01
    outer loop
      vertex   -6.324407e-01 -2.862440e+00 1.099900e+01
      vertex   -5.114297e-01 -2.900462e+00 1.099460e+01
      vertex   -4.699641e-01 -2.665299e+00 1.106266e+01
    endloop
  endfacet
  facet normal -5.226742e-02 -2.676198e-01 9.621059e-01
    outer loop
      vertex   -6.324407e-01 -2.862440e+00 1.099900e+01
      vertex   -4.699641e-01 -2.665299e+00 1.106266e+01
      vertex   -5.809204e-01 -2.629258e+00 1.106666e+01
    endloop
  endfacet
  facet normal -4.532702e-02 -2.469043e-01 9.679792e-01
    outer loop
      vertex   -5.809204e-01 -2.629258e+00 1.106666e+01
      vertex   -4.699641e-01 -2.665299e+00 1.106266e+01
      vertex   -4.282125e-01 -2.428514e+00 1.112501e+01
    endloop
  endfacet
  facet normal -4.792044e-02 -2.450333e-01 9.683296e-01
    outer loop
      vertex   -5.809204e-01 -2.629258e+00 1.106666e+01
      vertex   -4.282125e-01 -2.428514e+00 1.112501e+01
      vertex   -5.294201e-01 -2.396166e+00 1.112819e+01
    endloop
  endfacet
  facet normal -4.103431e-02 -2.240177e-01 9.737208e-01
    outer loop
      vertex   -5.294201e-01 -2.396166e+00 1.112819e+01
      vertex   -4.282125e-01 -2.428514e+00 1.112501e+01
      vertex   -3.861903e-01 -2.190194e+00 1.118161e+01
    endloop
  endfacet
  facet normal -4.334929e-02 -2.224737e-01 9.739745e-01
    outer loop
      vertex   -5.294201e-01 -2.396166e+00 1.112819e+01
      vertex   -3.861903e-01 -2.190194e+00 1.118161e+01
      vertex   -4.779818e-01 -2.163356e+00 1.118366e+01
    endloop
  endfacet
  facet normal -5.141082e-02 -2.206955e-01 9.739869e-01
    outer loop
      vertex   -5.294201e-01 -2.396166e+00 1.112819e+01
      vertex   -4.779818e-01 -2.163356e+00 1.118366e+01
      vertex   -6.332141e-01 -2.371988e+00 1.112819e+01
    endloop
  endfacet
  facet normal -5.141082e-02 -2.206955e-01 9.739869e-01
    outer loop
      vertex   -6.332141e-01 -2.371988e+00 1.112819e+01
      vertex   -4.779818e-01 -2.163356e+00 1.118366e+01
      vertex   -5.716912e-01 -2.141526e+00 1.118366e+01
    endloop
  endfacet
  facet normal -6.059431e-02 -2.182494e-01 9.740100e-01
    outer loop
      vertex   -6.332141e-01 -2.371988e+00 1.112819e+01
      vertex   -5.716912e-01 -2.141526e+00 1.118366e+01
      vertex   -7.370537e-01 -2.343158e+00 1.112819e+01
    endloop
  endfacet
  facet normal -5.663275e-02 -2.431121e-01 9.683436e-01
    outer loop
      vertex   -5.809204e-01 -2.629258e+00 1.106666e+01
      vertex   -5.294201e-01 -2.396166e+00 1.112819e+01
      vertex   -6.948111e-01 -2.602727e+00 1.106666e+01
    endloop
  endfacet
  facet normal -5.663275e-02 -2.431121e-01 9.683436e-01
    outer loop
      vertex   -6.948111e-01 -2.602727e+00 1.106666e+01
      vertex   -5.294201e-01 -2.396166e+00 1.112819e+01
      vertex   -6.332141e-01 -2.371988e+00 1.112819e+01
    endloop
  endfacet
  facet normal -6.674937e-02 -2.404188e-01 9.683715e-01
    outer loop
      vertex   -6.948111e-01 -2.602727e+00 1.106666e+01
      vertex   -6.332141e-01 -2.371988e+00 1.112819e+01
      vertex   -8.087519e-01 -2.571093e+00 1.106666e+01
    endloop
  endfacet
  facet normal -6.674937e-02 -2.404188e-01 9.683715e-01
    outer loop
      vertex   -8.087519e-01 -2.571093e+00 1.106666e+01
      vertex   -6.332141e-01 -2.371988e+00 1.112819e+01
      vertex   -7.370537e-01 -2.343158e+00 1.112819e+01
    endloop
  endfacet
  facet normal -6.184975e-02 -2.655075e-01 9.621228e-01
    outer loop
      vertex   -6.324407e-01 -2.862440e+00 1.099900e+01
      vertex   -5.809204e-01 -2.629258e+00 1.106666e+01
      vertex   -7.564321e-01 -2.833556e+00 1.099900e+01
    endloop
  endfacet
  facet normal -6.184975e-02 -2.655075e-01 9.621228e-01
    outer loop
      vertex   -7.564321e-01 -2.833556e+00 1.099900e+01
      vertex   -5.809204e-01 -2.629258e+00 1.106666e+01
      vertex   -6.948111e-01 -2.602727e+00 1.106666e+01
    endloop
  endfacet
  facet normal -7.289871e-02 -2.625676e-01 9.621559e-01
    outer loop
      vertex   -7.564321e-01 -2.833556e+00 1.099900e+01
      vertex   -6.948111e-01 -2.602727e+00 1.106666e+01
      vertex   -8.804780e-01 -2.799116e+00 1.099900e+01
    endloop
  endfacet
  facet normal -7.289871e-02 -2.625676e-01 9.621559e-01
    outer loop
      vertex   -8.804780e-01 -2.799116e+00 1.099900e+01
      vertex   -6.948111e-01 -2.602727e+00 1.106666e+01
      vertex   -8.087519e-01 -2.571093e+00 1.106666e+01
    endloop
  endfacet
  facet normal -6.835340e-02 -2.934263e-01 9.535349e-01
    outer loop
      vertex   -8.180254e-01 -3.064282e+00 1.092515e+01
      vertex   -6.839379e-01 -3.095517e+00 1.092515e+01
      vertex   -6.581949e-01 -2.979004e+00 1.096285e+01
    endloop
  endfacet
  facet normal -6.575328e-02 -2.822645e-01 9.570806e-01
    outer loop
      vertex   -6.581949e-01 -2.979004e+00 1.096285e+01
      vertex   -6.324407e-01 -2.862440e+00 1.099900e+01
      vertex   -7.872355e-01 -2.948944e+00 1.096285e+01
    endloop
  endfacet
  facet normal -6.575328e-02 -2.822645e-01 9.570806e-01
    outer loop
      vertex   -7.872355e-01 -2.948944e+00 1.096285e+01
      vertex   -6.324407e-01 -2.862440e+00 1.099900e+01
      vertex   -7.564321e-01 -2.833556e+00 1.099900e+01
    endloop
  endfacet
  facet normal -7.749993e-02 -2.791404e-01 9.571178e-01
    outer loop
      vertex   -7.872355e-01 -2.948944e+00 1.096285e+01
      vertex   -7.564321e-01 -2.833556e+00 1.099900e+01
      vertex   -9.163328e-01 -2.913102e+00 1.096285e+01
    endloop
  endfacet
  facet normal -7.749993e-02 -2.791404e-01 9.571178e-01
    outer loop
      vertex   -9.163328e-01 -2.913102e+00 1.096285e+01
      vertex   -7.564321e-01 -2.833556e+00 1.099900e+01
      vertex   -8.804780e-01 -2.799116e+00 1.099900e+01
    endloop
  endfacet
  facet normal -7.612627e-02 -3.267935e-01 9.420248e-01
    outer loop
      vertex   -9.102477e-01 -3.409742e+00 1.080268e+01
      vertex   -7.353677e-01 -3.328290e+00 1.084507e+01
      vertex   -8.795382e-01 -3.294706e+00 1.084507e+01
    endloop
  endfacet
  facet normal -8.127869e-02 -3.489117e-01 9.336243e-01
    outer loop
      vertex   -9.715385e-01 -3.639334e+00 1.071319e+01
      vertex   -7.866853e-01 -3.560554e+00 1.075872e+01
      vertex   -9.409167e-01 -3.524626e+00 1.075872e+01
    endloop
  endfacet
  facet normal -7.870587e-02 -3.378672e-01 9.378972e-01
    outer loop
      vertex   -9.409167e-01 -3.524626e+00 1.075872e+01
      vertex   -7.866853e-01 -3.560554e+00 1.075872e+01
      vertex   -7.610434e-01 -3.444499e+00 1.080268e+01
    endloop
  endfacet
  facet normal -8.056481e-02 -2.901795e-01 9.535749e-01
    outer loop
      vertex   -9.163328e-01 -2.913102e+00 1.096285e+01
      vertex   -9.521719e-01 -3.027037e+00 1.092515e+01
      vertex   -7.872355e-01 -2.948944e+00 1.096285e+01
    endloop
  endfacet
  facet normal -8.056481e-02 -2.901795e-01 9.535749e-01
    outer loop
      vertex   -7.872355e-01 -2.948944e+00 1.096285e+01
      vertex   -9.521719e-01 -3.027037e+00 1.092515e+01
      vertex   -8.180254e-01 -3.064282e+00 1.092515e+01
    endloop
  endfacet
  facet normal -6.835340e-02 -2.934263e-01 9.535349e-01
    outer loop
      vertex   -7.872355e-01 -2.948944e+00 1.096285e+01
      vertex   -8.180254e-01 -3.064282e+00 1.092515e+01
      vertex   -6.581949e-01 -2.979004e+00 1.096285e+01
    endloop
  endfacet
  facet normal -8.972721e-02 -3.231808e-01 9.420739e-01
    outer loop
      vertex   -9.102477e-01 -3.409742e+00 1.080268e+01
      vertex   -8.795382e-01 -3.294706e+00 1.084507e+01
      vertex   -1.059518e+00 -3.368299e+00 1.080268e+01
    endloop
  endfacet
  facet normal -8.972721e-02 -3.231808e-01 9.420739e-01
    outer loop
      vertex   -1.059518e+00 -3.368299e+00 1.080268e+01
      vertex   -8.795382e-01 -3.294706e+00 1.084507e+01
      vertex   -1.023772e+00 -3.254661e+00 1.084507e+01
    endloop
  endfacet
  facet normal -9.276802e-02 -3.341332e-01 9.379494e-01
    outer loop
      vertex   -1.059518e+00 -3.368299e+00 1.080268e+01
      vertex   -1.095216e+00 -3.481787e+00 1.075872e+01
      vertex   -9.102477e-01 -3.409742e+00 1.080268e+01
    endloop
  endfacet
  facet normal -9.580087e-02 -3.450569e-01 9.336798e-01
    outer loop
      vertex   -9.715385e-01 -3.639334e+00 1.071319e+01
      vertex   -9.409167e-01 -3.524626e+00 1.075872e+01
      vertex   -1.130859e+00 -3.595100e+00 1.071319e+01
    endloop
  endfacet
  facet normal 9.848078e-01 -1.736482e-01 -3.755789e-11
    outer loop
      vertex   -3.439234e-01 -1.950487e+00 1.123241e+01
      vertex   -3.861903e-01 -2.190194e+00 1.118161e+01
      vertex   0.000000e+00 0.000000e+00 0.000000e+00
    endloop
  endfacet
  facet normal 9.848078e-01 -1.736482e-01 8.355852e-12
    outer loop
      vertex   0.000000e+00 0.000000e+00 0.000000e+00
      vertex   -3.861903e-01 -2.190194e+00 1.118161e+01
      vertex   -4.282125e-01 -2.428514e+00 1.112501e+01
    endloop
  endfacet
  facet normal 9.848078e-01 -1.736482e-01 1.147176e-11
    outer loop
      vertex   0.000000e+00 0.000000e+00 0.000000e+00
      vertex   -4.282125e-01 -2.428514e+00 1.112501e+01
      vertex   -4.699641e-01 -2.665299e+00 1.106266e+01
    endloop
  endfacet
  facet normal 9.848078e-01 -1.736482e-01 1.338982e-11
    outer loop
      vertex   -4.699641e-01 -2.665299e+00 1.106266e+01
      vertex   -5.114297e-01 -2.900462e+00 1.099460e+01
      vertex   0.000000e+00 0.000000e+00 0.000000e+00
    endloop
  endfacet
  facet normal 9.848078e-01 -1.736482e-01 1.383831e-11
    outer loop
      vertex   0.000000e+00 0.000000e+00 0.000000e+00
      vertex   -5.114297e-01 -2.900462e+00 1.099460e+01
      vertex   -5.525940e-01 -3.133916e+00 1.092087e+01
    endloop
  endfacet
  facet normal 9.848078e-01 -1.736482e-01 1.254799e-11
    outer loop
      vertex   0.000000e+00 0.000000e+00 0.000000e+00
      vertex   -5.525940e-01 -3.133916e+00 1.092087e+01
      vertex   -5.934417e-01 -3.365575e+00 1.084151e+01
    endloop
  endfacet
  facet normal 9.848078e-01 -1.736482e-01 9.252132e-12
    outer loop
      vertex   -5.934417e-01 -3.365575e+00 1.084151e+01
      vertex   -6.339574e-01 -3.595351e+00 1.075657e+01
      vertex   0.000000e+00 0.000000e+00 0.000000e+00
    endloop
  endfacet
  facet normal 9.848078e-01 -1.736482e-01 3.684359e-12
    outer loop
      vertex   0.000000e+00 0.000000e+00 0.000000e+00
      vertex   -6.339574e-01 -3.595351e+00 1.075657e+01
      vertex   -6.741258e-01 -3.823157e+00 1.066608e+01
    endloop
  endfacet
  facet normal 2.961468e-01 9.392545e-01 1.734879e-01
    outer loop
      vertex   -5.126286e-01 -1.913141e+00 1.123271e+01
      vertex   -3.417643e-01 -1.275475e+00 7.488756e+00
      vertex   -6.774409e-01 -1.861253e+00 1.123313e+01
    endloop
  endfacet
  facet normal 2.961466e-01 9.392546e-01 1.734879e-01
    outer loop
      vertex   -6.774409e-01 -1.861253e+00 1.123313e+01
      vertex   -3.417643e-01 -1.275475e+00 7.488756e+00
      vertex   -1.708818e-01 -6.377378e-01 3.744378e+00
    endloop
  endfacet
  facet normal 2.961462e-01 9.392547e-01 1.734879e-01
    outer loop
      vertex   -6.774409e-01 -1.861253e+00 1.123313e+01
      vertex   -1.708818e-01 -6.377378e-01 3.744378e+00
      vertex   0.000000e+00 0.000000e+00 0.000000e+00
    endloop
  endfacet
  facet normal 2.131584e-01 9.614913e-01 1.734879e-01
    outer loop
      vertex   -5.126286e-01 -1.913141e+00 1.123271e+01
      vertex   -3.439234e-01 -1.950487e+00 1.123241e+01
      vertex   -3.417643e-01 -1.275475e+00 7.488756e+00
    endloop
  endfacet
  facet normal 2.131582e-01 9.614913e-01 1.734879e-01
    outer loop
      vertex   -3.417643e-01 -1.275475e+00 7.488756e+00
      vertex   -3.439234e-01 -1.950487e+00 1.123241e+01
      vertex   -1.708818e-01 -6.377378e-01 3.744378e+00
    endloop
  endfacet
  facet normal 2.131578e-01 9.614914e-01 1.734879e-01
    outer loop
      vertex   -3.439234e-01 -1.950487e+00 1.123241e+01
      vertex   0.000000e+00 0.000000e+00 0.000000e+00
      vertex   -1.708818e-01 -6.377378e-01 3.744378e+00
    endloop
  endfacet
  facet normal -1.833147e-01 -9.215705e-01 -3.422038e-01
    outer loop
      vertex   -8.403040e-01 -3.790292e+00 1.066659e+01
      vertex   -5.970035e-01 -2.518956e+00 7.112493e+00
      vertex   -6.741258e-01 -3.823157e+00 1.066608e+01
    endloop
  endfacet
  facet normal -1.900318e-01 -9.203247e-01 -3.418924e-01
    outer loop
      vertex   -6.741258e-01 -3.823157e+00 1.066608e+01
      vertex   -5.970035e-01 -2.518956e+00 7.112493e+00
      vertex   -2.985018e-01 -1.259478e+00 3.556246e+00
    endloop
  endfacet
  facet normal -1.900318e-01 -9.203247e-01 -3.418924e-01
    outer loop
      vertex   -6.741258e-01 -3.823157e+00 1.066608e+01
      vertex   -2.985018e-01 -1.259478e+00 3.556246e+00
      vertex   0.000000e+00 0.000000e+00 0.000000e+00
    endloop
  endfacet
  facet normal -2.233731e-01 -9.128325e-01 -3.418204e-01
    outer loop
      vertex   -8.403040e-01 -3.790292e+00 1.066659e+01
      vertex   -1.004900e+00 -3.750245e+00 1.066721e+01
      vertex   -5.970035e-01 -2.518956e+00 7.112493e+00
    endloop
  endfacet
  facet normal -2.431863e-01 -9.075835e-01 -3.422757e-01
    outer loop
      vertex   -5.970035e-01 -2.518956e+00 7.112493e+00
      vertex   -1.004900e+00 -3.750245e+00 1.066721e+01
      vertex   -7.424577e-01 -2.479982e+00 7.112493e+00
    endloop
  endfacet
  facet normal -2.432224e-01 -9.077183e-01 -3.418924e-01
    outer loop
      vertex   -5.970035e-01 -2.518956e+00 7.112493e+00
      vertex   -7.424577e-01 -2.479982e+00 7.112493e+00
      vertex   -3.712289e-01 -1.239991e+00 3.556246e+00
    endloop
  endfacet
  facet normal -2.955900e-01 -8.920404e-01 -3.418924e-01
    outer loop
      vertex   -3.712289e-01 -1.239991e+00 3.556246e+00
      vertex   -7.424577e-01 -2.479982e+00 7.112493e+00
      vertex   -1.328100e+00 -3.648924e+00 1.066874e+01
    endloop
  endfacet
  facet normal -2.955900e-01 -8.920404e-01 -3.418924e-01
    outer loop
      vertex   -3.712289e-01 -1.239991e+00 3.556246e+00
      vertex   -1.328100e+00 -3.648924e+00 1.066874e+01
      vertex   0.000000e+00 0.000000e+00 0.000000e+00
    endloop
  endfacet
  facet normal -2.629779e-01 -9.022203e-01 -3.418204e-01
    outer loop
      vertex   -1.004900e+00 -3.750245e+00 1.066721e+01
      vertex   -1.167600e+00 -3.703094e+00 1.066793e+01
      vertex   -7.424577e-01 -2.479982e+00 7.112493e+00
    endloop
  endfacet
  facet normal -3.020361e-01 -8.897588e-01 -3.422039e-01
    outer loop
      vertex   -7.424577e-01 -2.479982e+00 7.112493e+00
      vertex   -1.167600e+00 -3.703094e+00 1.066793e+01
      vertex   -1.328100e+00 -3.648924e+00 1.066874e+01
    endloop
  endfacet
  facet normal -2.432224e-01 -9.077183e-01 -3.418924e-01
    outer loop
      vertex   -3.712289e-01 -1.239991e+00 3.556246e+00
      vertex   0.000000e+00 0.000000e+00 0.000000e+00
      vertex   -2.985018e-01 -1.259478e+00 3.556246e+00
    endloop
  endfacet
  facet normal -2.432224e-01 -9.077183e-01 -3.418924e-01
    outer loop
      vertex   -3.712289e-01 -1.239991e+00 3.556246e+00
      vertex   -2.985018e-01 -1.259478e+00 3.556246e+00
      vertex   -5.970035e-01 -2.518956e+00 7.112493e+00
    endloop
  endfacet
endsolid
