solid ASCII
  facet normal 3.420201e-01 9.396926e-01 -4.195489e-16
    outer loop
      vertex   1.862320e+00 -6.778290e-01 -1.123957e+01
      vertex   1.631671e+00 -5.938797e-01 -1.128293e+01
      vertex   0.000000e+00 0.000000e+00 8.881784e-15
    endloop
  endfacet
  facet normal 3.420201e-01 9.396926e-01 -3.903462e-17
    outer loop
      vertex   0.000000e+00 0.000000e+00 8.881784e-15
      vertex   1.631671e+00 -5.938797e-01 -1.128293e+01
      vertex   1.400233e+00 -5.096432e-01 -1.132055e+01
    endloop
  endfacet
  facet normal 3.420201e-01 9.396926e-01 7.807296e-17
    outer loop
      vertex   0.000000e+00 0.000000e+00 8.881784e-15
      vertex   1.400233e+00 -5.096432e-01 -1.132055e+01
      vertex   1.168095e+00 -4.251519e-01 -1.135241e+01
    endloop
  endfacet
  facet normal 3.420201e-01 9.396926e-01 6.342930e-17
    outer loop
      vertex   1.168095e+00 -4.251519e-01 -1.135241e+01
      vertex   9.353455e-01 -3.404379e-01 -1.137851e+01
      vertex   0.000000e+00 0.000000e+00 8.881784e-15
    endloop
  endfacet
  facet normal 3.420201e-01 9.396926e-01 1.073199e-16
    outer loop
      vertex   0.000000e+00 0.000000e+00 8.881784e-15
      vertex   9.353455e-01 -3.404379e-01 -1.137851e+01
      vertex   7.020725e-01 -2.555335e-01 -1.139883e+01
    endloop
  endfacet
  facet normal 3.420201e-01 9.396926e-01 6.827175e-17
    outer loop
      vertex   0.000000e+00 0.000000e+00 8.881784e-15
      vertex   7.020725e-01 -2.555335e-01 -1.139883e+01
      vertex   4.683649e-01 -1.704709e-01 -1.141336e+01
    endloop
  endfacet
  facet normal 3.420201e-01 9.396926e-01 2.924584e-17
    outer loop
      vertex   4.683649e-01 -1.704709e-01 -1.141336e+01
      vertex   2.343111e-01 -8.528227e-02 -1.142209e+01
      vertex   0.000000e+00 0.000000e+00 8.881784e-15
    endloop
  endfacet
  facet normal 3.420201e-01 9.396926e-01 -2.030112e-17
    outer loop
      vertex   0.000000e+00 0.000000e+00 8.881784e-15
      vertex   2.343111e-01 -8.528227e-02 -1.142209e+01
      vertex   -6.781482e-16 -8.117450e-32 -1.142500e+01
    endloop
  endfacet
  facet normal 1.611678e-01 -6.579658e-02 -9.847313e-01
    outer loop
      vertex   1.862320e+00 -6.778290e-01 -1.123957e+01
      vertex   1.830942e+00 -7.583977e-01 -1.123932e+01
      vertex   1.631671e+00 -5.938797e-01 -1.128293e+01
    endloop
  endfacet
  facet normal 1.611333e-01 -6.583905e-02 -9.847341e-01
    outer loop
      vertex   1.631671e+00 -5.938797e-01 -1.128293e+01
      vertex   1.830942e+00 -7.583977e-01 -1.123932e+01
      vertex   1.601867e+00 -6.623602e-01 -1.128323e+01
    endloop
  endfacet
  facet normal 1.400559e-01 -5.664929e-02 -9.885217e-01
    outer loop
      vertex   1.631671e+00 -5.938797e-01 -1.128293e+01
      vertex   1.601867e+00 -6.623602e-01 -1.128323e+01
      vertex   1.400233e+00 -5.096432e-01 -1.132055e+01
    endloop
  endfacet
  facet normal 1.390070e-01 -5.805048e-02 -9.885885e-01
    outer loop
      vertex   1.400233e+00 -5.096432e-01 -1.132055e+01
      vertex   1.601867e+00 -6.623602e-01 -1.128323e+01
      vertex   1.368951e+00 -5.660509e-01 -1.132163e+01
    endloop
  endfacet
  facet normal 1.190579e-01 -4.692562e-02 -9.917778e-01
    outer loop
      vertex   1.400233e+00 -5.096432e-01 -1.132055e+01
      vertex   1.368951e+00 -5.660509e-01 -1.132163e+01
      vertex   1.168095e+00 -4.251519e-01 -1.135241e+01
    endloop
  endfacet
  facet normal 1.167866e-01 -5.018754e-02 -9.918881e-01
    outer loop
      vertex   1.168095e+00 -4.251519e-01 -1.135241e+01
      vertex   1.368951e+00 -5.660509e-01 -1.132163e+01
      vertex   1.137112e+00 -4.701876e-01 -1.135378e+01
    endloop
  endfacet
  facet normal 9.798553e-02 -3.717393e-02 -9.944933e-01
    outer loop
      vertex   1.168095e+00 -4.251519e-01 -1.135241e+01
      vertex   1.137112e+00 -4.701876e-01 -1.135378e+01
      vertex   9.353455e-01 -3.404379e-01 -1.137851e+01
    endloop
  endfacet
  facet normal 9.466375e-02 -4.236124e-02 -9.946076e-01
    outer loop
      vertex   9.353455e-01 -3.404379e-01 -1.137851e+01
      vertex   1.137112e+00 -4.701876e-01 -1.135378e+01
      vertex   9.065293e-01 -3.748432e-01 -1.137979e+01
    endloop
  endfacet
  facet normal 7.685879e-02 -2.737226e-02 -9.966662e-01
    outer loop
      vertex   9.353455e-01 -3.404379e-01 -1.137851e+01
      vertex   9.065293e-01 -3.748432e-01 -1.137979e+01
      vertex   7.020725e-01 -2.555335e-01 -1.139883e+01
    endloop
  endfacet
  facet normal 7.264654e-02 -3.460517e-02 -9.967572e-01
    outer loop
      vertex   7.020725e-01 -2.555335e-01 -1.139883e+01
      vertex   9.065293e-01 -3.748432e-01 -1.137979e+01
      vertex   6.773698e-01 -2.800874e-01 -1.139978e+01
    endloop
  endfacet
  facet normal 5.569901e-02 -1.749557e-02 -9.982943e-01
    outer loop
      vertex   7.020725e-01 -2.555335e-01 -1.139883e+01
      vertex   6.773698e-01 -2.800874e-01 -1.139978e+01
      vertex   4.683649e-01 -1.704709e-01 -1.141336e+01
    endloop
  endfacet
  facet normal 5.074150e-02 -2.695468e-02 -9.983480e-01
    outer loop
      vertex   4.683649e-01 -1.704709e-01 -1.141336e+01
      vertex   6.773698e-01 -2.800874e-01 -1.139978e+01
      vertex   4.497945e-01 -1.859867e-01 -1.141389e+01
    endloop
  endfacet
  facet normal 3.452882e-02 -7.515575e-03 -9.993754e-01
    outer loop
      vertex   4.683649e-01 -1.704709e-01 -1.141336e+01
      vertex   4.497945e-01 -1.859867e-01 -1.141389e+01
      vertex   2.343111e-01 -8.528227e-02 -1.142209e+01
    endloop
  endfacet
  facet normal 2.895355e-02 -1.944664e-02 -9.993916e-01
    outer loop
      vertex   2.343111e-01 -8.528227e-02 -1.142209e+01
      vertex   4.497945e-01 -1.859867e-01 -1.141389e+01
      vertex   2.239564e-01 -9.260431e-02 -1.142225e+01
    endloop
  endfacet
  facet normal 1.337226e-02 2.599343e-03 -9.999072e-01
    outer loop
      vertex   2.343111e-01 -8.528227e-02 -1.142209e+01
      vertex   2.239564e-01 -9.260431e-02 -1.142225e+01
      vertex   -6.781482e-16 -8.117450e-32 -1.142500e+01
    endloop
  endfacet
  facet normal 1.582379e-01 -7.273807e-02 -9.847182e-01
    outer loop
      vertex   1.601867e+00 -6.623602e-01 -1.128323e+01
      vertex   1.830942e+00 -7.583977e-01 -1.123932e+01
      vertex   1.570420e+00 -7.307710e-01 -1.128323e+01
    endloop
  endfacet
  facet normal 1.581987e-01 -7.307771e-02 -9.846993e-01
    outer loop
      vertex   1.570420e+00 -7.307710e-01 -1.128323e+01
      vertex   1.830942e+00 -7.583977e-01 -1.123932e+01
      vertex   1.796075e+00 -8.375198e-01 -1.123905e+01
    endloop
  endfacet
  facet normal 1.549867e-01 -7.986091e-02 -9.846834e-01
    outer loop
      vertex   1.570420e+00 -7.307710e-01 -1.128323e+01
      vertex   1.796075e+00 -8.375198e-01 -1.123905e+01
      vertex   1.535641e+00 -7.982665e-01 -1.128323e+01
    endloop
  endfacet
  facet normal 1.549304e-01 -8.021233e-02 -9.846637e-01
    outer loop
      vertex   1.535641e+00 -7.982665e-01 -1.128323e+01
      vertex   1.796075e+00 -8.375198e-01 -1.123905e+01
      vertex   1.757788e+00 -9.150430e-01 -1.123876e+01
    endloop
  endfacet
  facet normal 1.519574e-01 -8.586290e-02 -9.846504e-01
    outer loop
      vertex   1.535641e+00 -7.982665e-01 -1.128323e+01
      vertex   1.757788e+00 -9.150430e-01 -1.123876e+01
      vertex   1.504113e+00 -8.684001e-01 -1.128198e+01
    endloop
  endfacet
  facet normal 1.516691e-01 -8.735077e-02 -9.845640e-01
    outer loop
      vertex   1.504113e+00 -8.684001e-01 -1.128198e+01
      vertex   1.757788e+00 -9.150430e-01 -1.123876e+01
      vertex   1.716152e+00 -9.908211e-01 -1.123845e+01
    endloop
  endfacet
  facet normal 1.312449e-01 -7.661820e-02 -9.883848e-01
    outer loop
      vertex   1.504113e+00 -8.684001e-01 -1.128198e+01
      vertex   1.291205e+00 -7.454778e-01 -1.131978e+01
      vertex   1.535641e+00 -7.982665e-01 -1.128323e+01
    endloop
  endfacet
  facet normal 1.320253e-01 -7.311628e-02 -9.885461e-01
    outer loop
      vertex   1.535641e+00 -7.982665e-01 -1.128323e+01
      vertex   1.291205e+00 -7.454778e-01 -1.131978e+01
      vertex   1.312354e+00 -6.821961e-01 -1.132163e+01
    endloop
  endfacet
  facet normal 1.341120e-01 -6.910467e-02 -9.885537e-01
    outer loop
      vertex   1.535641e+00 -7.982665e-01 -1.128323e+01
      vertex   1.312354e+00 -6.821961e-01 -1.132163e+01
      vertex   1.570420e+00 -7.307710e-01 -1.128323e+01
    endloop
  endfacet
  facet normal 1.341120e-01 -6.910467e-02 -9.885537e-01
    outer loop
      vertex   1.570420e+00 -7.307710e-01 -1.128323e+01
      vertex   1.312354e+00 -6.821961e-01 -1.132163e+01
      vertex   1.342076e+00 -6.245146e-01 -1.132163e+01
    endloop
  endfacet
  facet normal 1.369729e-01 -6.296307e-02 -9.885717e-01
    outer loop
      vertex   1.570420e+00 -7.307710e-01 -1.128323e+01
      vertex   1.342076e+00 -6.245146e-01 -1.132163e+01
      vertex   1.601867e+00 -6.623602e-01 -1.128323e+01
    endloop
  endfacet
  facet normal 1.369729e-01 -6.296307e-02 -9.885717e-01
    outer loop
      vertex   1.601867e+00 -6.623602e-01 -1.128323e+01
      vertex   1.342076e+00 -6.245146e-01 -1.132163e+01
      vertex   1.368951e+00 -5.660509e-01 -1.132163e+01
    endloop
  endfacet
  facet normal 1.106016e-01 -6.604797e-02 -9.916678e-01
    outer loop
      vertex   1.291205e+00 -7.454778e-01 -1.131978e+01
      vertex   1.077509e+00 -6.221003e-01 -1.135183e+01
      vertex   1.312354e+00 -6.821961e-01 -1.132163e+01
    endloop
  endfacet
  facet normal 1.120748e-01 -6.038914e-02 -9.918631e-01
    outer loop
      vertex   1.312354e+00 -6.821961e-01 -1.132163e+01
      vertex   1.077509e+00 -6.221003e-01 -1.135183e+01
      vertex   1.090101e+00 -5.666630e-01 -1.135378e+01
    endloop
  endfacet
  facet normal 1.131573e-01 -5.830719e-02 -9.918648e-01
    outer loop
      vertex   1.312354e+00 -6.821961e-01 -1.132163e+01
      vertex   1.090101e+00 -5.666630e-01 -1.135378e+01
      vertex   1.342076e+00 -6.245146e-01 -1.132163e+01
    endloop
  endfacet
  facet normal 1.131573e-01 -5.830719e-02 -9.918648e-01
    outer loop
      vertex   1.342076e+00 -6.245146e-01 -1.132163e+01
      vertex   1.090101e+00 -5.666630e-01 -1.135378e+01
      vertex   1.114789e+00 -5.187502e-01 -1.135378e+01
    endloop
  endfacet
  facet normal 1.155706e-01 -5.312493e-02 -9.918776e-01
    outer loop
      vertex   1.342076e+00 -6.245146e-01 -1.132163e+01
      vertex   1.114789e+00 -5.187502e-01 -1.135378e+01
      vertex   1.368951e+00 -5.660509e-01 -1.132163e+01
    endloop
  endfacet
  facet normal 1.155706e-01 -5.312493e-02 -9.918776e-01
    outer loop
      vertex   1.368951e+00 -5.660509e-01 -1.132163e+01
      vertex   1.114789e+00 -5.187502e-01 -1.135378e+01
      vertex   1.137112e+00 -4.701876e-01 -1.135378e+01
    endloop
  endfacet
  facet normal 8.987042e-02 -5.543541e-02 -9.944095e-01
    outer loop
      vertex   1.077509e+00 -6.221003e-01 -1.135183e+01
      vertex   8.631047e-01 -4.983138e-01 -1.137811e+01
      vertex   1.090101e+00 -5.666630e-01 -1.135378e+01
    endloop
  endfacet
  facet normal 9.221814e-02 -4.770455e-02 -9.945954e-01
    outer loop
      vertex   1.090101e+00 -5.666630e-01 -1.135378e+01
      vertex   8.631047e-01 -4.983138e-01 -1.137811e+01
      vertex   8.690509e-01 -4.517554e-01 -1.137979e+01
    endloop
  endfacet
  facet normal 9.229471e-02 -4.755723e-02 -9.945954e-01
    outer loop
      vertex   1.090101e+00 -5.666630e-01 -1.135378e+01
      vertex   8.690509e-01 -4.517554e-01 -1.137979e+01
      vertex   1.114789e+00 -5.187502e-01 -1.135378e+01
    endloop
  endfacet
  facet normal 9.229471e-02 -4.755723e-02 -9.945954e-01
    outer loop
      vertex   1.114789e+00 -5.187502e-01 -1.135378e+01
      vertex   8.690509e-01 -4.517554e-01 -1.137979e+01
      vertex   8.887330e-01 -4.135583e-01 -1.137979e+01
    endloop
  endfacet
  facet normal 9.426267e-02 -4.333022e-02 -9.946040e-01
    outer loop
      vertex   1.114789e+00 -5.187502e-01 -1.135378e+01
      vertex   8.887330e-01 -4.135583e-01 -1.137979e+01
      vertex   1.137112e+00 -4.701876e-01 -1.135378e+01
    endloop
  endfacet
  facet normal 9.426267e-02 -4.333022e-02 -9.946040e-01
    outer loop
      vertex   1.137112e+00 -4.701876e-01 -1.135378e+01
      vertex   8.887330e-01 -4.135583e-01 -1.137979e+01
      vertex   9.065293e-01 -3.748432e-01 -1.137979e+01
    endloop
  endfacet
  facet normal 6.904364e-02 -4.481746e-02 -9.966064e-01
    outer loop
      vertex   8.631047e-01 -4.983138e-01 -1.137811e+01
      vertex   6.480716e-01 -3.741643e-01 -1.139859e+01
      vertex   8.690509e-01 -4.517554e-01 -1.137979e+01
    endloop
  endfacet
  facet normal 7.248663e-02 -3.504742e-02 -9.967534e-01
    outer loop
      vertex   8.690509e-01 -4.517554e-01 -1.137979e+01
      vertex   6.480716e-01 -3.741643e-01 -1.139859e+01
      vertex   6.493654e-01 -3.375571e-01 -1.139978e+01
    endloop
  endfacet
  facet normal 7.154251e-02 -3.686412e-02 -9.967561e-01
    outer loop
      vertex   8.690509e-01 -4.517554e-01 -1.137979e+01
      vertex   6.493654e-01 -3.375571e-01 -1.139978e+01
      vertex   8.887330e-01 -4.135583e-01 -1.137979e+01
    endloop
  endfacet
  facet normal 7.154251e-02 -3.686412e-02 -9.967561e-01
    outer loop
      vertex   8.887330e-01 -4.135583e-01 -1.137979e+01
      vertex   6.493654e-01 -3.375571e-01 -1.139978e+01
      vertex   6.640721e-01 -3.090158e-01 -1.139978e+01
    endloop
  endfacet
  facet normal 7.306772e-02 -3.358743e-02 -9.967613e-01
    outer loop
      vertex   8.887330e-01 -4.135583e-01 -1.137979e+01
      vertex   6.640721e-01 -3.090158e-01 -1.139978e+01
      vertex   9.065293e-01 -3.748432e-01 -1.137979e+01
    endloop
  endfacet
  facet normal 7.306772e-02 -3.358743e-02 -9.967613e-01
    outer loop
      vertex   9.065293e-01 -3.748432e-01 -1.137979e+01
      vertex   6.640721e-01 -3.090158e-01 -1.139978e+01
      vertex   6.773698e-01 -2.800874e-01 -1.139978e+01
    endloop
  endfacet
  facet normal 4.811158e-02 -3.423482e-02 -9.982551e-01
    outer loop
      vertex   6.480716e-01 -3.741643e-01 -1.139859e+01
      vertex   4.324897e-01 -2.496981e-01 -1.141324e+01
      vertex   6.493654e-01 -3.375571e-01 -1.139978e+01
    endloop
  endfacet
  facet normal 5.291143e-02 -2.240086e-02 -9.983479e-01
    outer loop
      vertex   6.493654e-01 -3.375571e-01 -1.139978e+01
      vertex   4.324897e-01 -2.496981e-01 -1.141324e+01
      vertex   4.311988e-01 -2.241484e-01 -1.141389e+01
    endloop
  endfacet
  facet normal 5.091804e-02 -2.623683e-02 -9.983581e-01
    outer loop
      vertex   6.493654e-01 -3.375571e-01 -1.139978e+01
      vertex   4.311988e-01 -2.241484e-01 -1.141389e+01
      vertex   6.640721e-01 -3.090158e-01 -1.139978e+01
    endloop
  endfacet
  facet normal 5.091804e-02 -2.623683e-02 -9.983581e-01
    outer loop
      vertex   6.640721e-01 -3.090158e-01 -1.139978e+01
      vertex   4.311988e-01 -2.241484e-01 -1.141389e+01
      vertex   4.409645e-01 -2.051961e-01 -1.141389e+01
    endloop
  endfacet
  facet normal 5.200344e-02 -2.390469e-02 -9.983608e-01
    outer loop
      vertex   6.640721e-01 -3.090158e-01 -1.139978e+01
      vertex   4.409645e-01 -2.051961e-01 -1.141389e+01
      vertex   6.773698e-01 -2.800874e-01 -1.139978e+01
    endloop
  endfacet
  facet normal 5.200344e-02 -2.390469e-02 -9.983608e-01
    outer loop
      vertex   6.773698e-01 -2.800874e-01 -1.139978e+01
      vertex   4.409645e-01 -2.051961e-01 -1.141389e+01
      vertex   4.497945e-01 -1.859867e-01 -1.141389e+01
    endloop
  endfacet
  facet normal 2.706274e-02 -2.373211e-02 -9.993520e-01
    outer loop
      vertex   4.324897e-01 -2.496981e-01 -1.141324e+01
      vertex   2.164391e-01 -1.249612e-01 -1.142206e+01
      vertex   4.311988e-01 -2.241484e-01 -1.141389e+01
    endloop
  endfacet
  facet normal 3.352357e-02 -9.746325e-03 -9.993904e-01
    outer loop
      vertex   4.311988e-01 -2.241484e-01 -1.141389e+01
      vertex   2.164391e-01 -1.249612e-01 -1.142206e+01
      vertex   2.146974e-01 -1.116053e-01 -1.142225e+01
    endloop
  endfacet
  facet normal 3.043794e-02 -1.568393e-02 -9.994136e-01
    outer loop
      vertex   4.311988e-01 -2.241484e-01 -1.141389e+01
      vertex   2.146974e-01 -1.116053e-01 -1.142225e+01
      vertex   4.409645e-01 -2.051961e-01 -1.141389e+01
    endloop
  endfacet
  facet normal 3.043794e-02 -1.568393e-02 -9.994136e-01
    outer loop
      vertex   4.409645e-01 -2.051961e-01 -1.141389e+01
      vertex   2.146974e-01 -1.116053e-01 -1.142225e+01
      vertex   2.195598e-01 -1.021688e-01 -1.142225e+01
    endloop
  endfacet
  facet normal 3.108672e-02 -1.428980e-02 -9.994145e-01
    outer loop
      vertex   4.409645e-01 -2.051961e-01 -1.141389e+01
      vertex   2.195598e-01 -1.021688e-01 -1.142225e+01
      vertex   4.497945e-01 -1.859867e-01 -1.141389e+01
    endloop
  endfacet
  facet normal 3.108672e-02 -1.428980e-02 -9.994145e-01
    outer loop
      vertex   4.497945e-01 -1.859867e-01 -1.141389e+01
      vertex   2.195598e-01 -1.021688e-01 -1.142225e+01
      vertex   2.239564e-01 -9.260431e-02 -1.142225e+01
    endloop
  endfacet
  facet normal 5.883818e-03 -1.335791e-02 -9.998935e-01
    outer loop
      vertex   2.164391e-01 -1.249612e-01 -1.142206e+01
      vertex   -6.781482e-16 -8.117450e-32 -1.142500e+01
      vertex   2.146974e-01 -1.116053e-01 -1.142225e+01
    endloop
  endfacet
  facet normal 1.011800e-02 -5.213560e-03 -9.999352e-01
    outer loop
      vertex   2.146974e-01 -1.116053e-01 -1.142225e+01
      vertex   -6.781482e-16 -8.117450e-32 -1.142500e+01
      vertex   2.195598e-01 -1.021688e-01 -1.142225e+01
    endloop
  endfacet
  facet normal 1.033365e-02 -4.750125e-03 -9.999353e-01
    outer loop
      vertex   2.195598e-01 -1.021688e-01 -1.142225e+01
      vertex   -6.781482e-16 -8.117450e-32 -1.142500e+01
      vertex   2.239564e-01 -9.260431e-02 -1.142225e+01
    endloop
  endfacet
  facet normal -5.000000e-01 -8.660254e-01 -5.379186e-16
    outer loop
      vertex   1.716152e+00 -9.908211e-01 -1.123845e+01
      vertex   0.000000e+00 0.000000e+00 8.881784e-15
      vertex   1.504113e+00 -8.684001e-01 -1.128198e+01
    endloop
  endfacet
  facet normal -5.000000e-01 -8.660254e-01 6.842936e-17
    outer loop
      vertex   1.504113e+00 -8.684001e-01 -1.128198e+01
      vertex   0.000000e+00 0.000000e+00 8.881784e-15
      vertex   1.291205e+00 -7.454778e-01 -1.131978e+01
    endloop
  endfacet
  facet normal -5.000000e-01 -8.660254e-01 3.907863e-17
    outer loop
      vertex   1.291205e+00 -7.454778e-01 -1.131978e+01
      vertex   0.000000e+00 0.000000e+00 8.881784e-15
      vertex   1.077509e+00 -6.221003e-01 -1.135183e+01
    endloop
  endfacet
  facet normal -5.000000e-01 -8.660254e-01 -1.659613e-16
    outer loop
      vertex   1.077509e+00 -6.221003e-01 -1.135183e+01
      vertex   0.000000e+00 0.000000e+00 8.881784e-15
      vertex   8.631047e-01 -4.983138e-01 -1.137811e+01
    endloop
  endfacet
  facet normal -5.000000e-01 -8.660254e-01 -6.827742e-17
    outer loop
      vertex   8.631047e-01 -4.983138e-01 -1.137811e+01
      vertex   0.000000e+00 0.000000e+00 8.881784e-15
      vertex   6.480716e-01 -3.741643e-01 -1.139859e+01
    endloop
  endfacet
  facet normal -5.000000e-01 -8.660254e-01 -4.384848e-17
    outer loop
      vertex   6.480716e-01 -3.741643e-01 -1.139859e+01
      vertex   0.000000e+00 0.000000e+00 8.881784e-15
      vertex   4.324897e-01 -2.496981e-01 -1.141324e+01
    endloop
  endfacet
  facet normal -5.000000e-01 -8.660254e-01 -3.406541e-17
    outer loop
      vertex   4.324897e-01 -2.496981e-01 -1.141324e+01
      vertex   0.000000e+00 0.000000e+00 8.881784e-15
      vertex   2.164391e-01 -1.249612e-01 -1.142206e+01
    endloop
  endfacet
  facet normal -5.000000e-01 -8.660254e-01 2.916152e-17
    outer loop
      vertex   2.164391e-01 -1.249612e-01 -1.142206e+01
      vertex   0.000000e+00 0.000000e+00 8.881784e-15
      vertex   -6.781482e-16 -8.117450e-32 -1.142500e+01
    endloop
  endfacet
  facet normal 8.633156e-01 -4.736279e-01 1.742491e-01
    outer loop
      vertex   1.757788e+00 -9.150430e-01 -1.123876e+01
      vertex   1.197438e+00 -5.583729e-01 -7.493046e+00
      vertex   1.716152e+00 -9.908211e-01 -1.123845e+01
    endloop
  endfacet
  facet normal 8.735605e-01 -4.547462e-01 1.734879e-01
    outer loop
      vertex   1.716152e+00 -9.908211e-01 -1.123845e+01
      vertex   1.197438e+00 -5.583729e-01 -7.493046e+00
      vertex   5.987190e-01 -2.791868e-01 -3.746523e+00
    endloop
  endfacet
  facet normal 8.735603e-01 -4.547465e-01 1.734879e-01
    outer loop
      vertex   1.716152e+00 -9.908211e-01 -1.123845e+01
      vertex   5.987190e-01 -2.791868e-01 -3.746523e+00
      vertex   0.000000e+00 0.000000e+00 8.881784e-15
    endloop
  endfacet
  facet normal 8.832543e-01 -4.355710e-01 1.736081e-01
    outer loop
      vertex   1.757788e+00 -9.150430e-01 -1.123876e+01
      vertex   1.796075e+00 -8.375198e-01 -1.123905e+01
      vertex   1.197438e+00 -5.583729e-01 -7.493046e+00
    endloop
  endfacet
  facet normal 9.014129e-01 -3.966295e-01 1.736081e-01
    outer loop
      vertex   1.197438e+00 -5.583729e-01 -7.493046e+00
      vertex   1.796075e+00 -8.375198e-01 -1.123905e+01
      vertex   1.830942e+00 -7.583977e-01 -1.123932e+01
    endloop
  endfacet
  facet normal 9.177506e-01 -3.568909e-01 1.742491e-01
    outer loop
      vertex   1.197438e+00 -5.583729e-01 -7.493046e+00
      vertex   1.830942e+00 -7.583977e-01 -1.123932e+01
      vertex   1.862320e+00 -6.778290e-01 -1.123957e+01
    endloop
  endfacet
  facet normal 9.098701e-01 -3.768798e-01 1.734879e-01
    outer loop
      vertex   1.197438e+00 -5.583729e-01 -7.493046e+00
      vertex   1.862320e+00 -6.778290e-01 -1.123957e+01
      vertex   5.987190e-01 -2.791868e-01 -3.746523e+00
    endloop
  endfacet
  facet normal 9.098699e-01 -3.768802e-01 1.734879e-01
    outer loop
      vertex   5.987190e-01 -2.791868e-01 -3.746523e+00
      vertex   1.862320e+00 -6.778290e-01 -1.123957e+01
      vertex   0.000000e+00 0.000000e+00 8.881784e-15
    endloop
  endfacet
endsolid
