solid ASCII
  facet normal -8.660254e-01 5.000000e-01 5.594074e-16
    outer loop
      vertex   9.904507e-01 1.715511e+00 -1.123425e+01
      vertex   0.000000e+00 0.000000e+00 0.000000e+00
      vertex   1.111897e+00 1.925862e+00 -1.118407e+01
    endloop
  endfacet
  facet normal -8.660254e-01 5.000000e-01 3.239648e-16
    outer loop
      vertex   1.111897e+00 1.925862e+00 -1.118407e+01
      vertex   0.000000e+00 0.000000e+00 0.000000e+00
      vertex   1.232732e+00 2.135154e+00 -1.112812e+01
    endloop
  endfacet
  facet normal -8.660254e-01 5.000000e-01 1.571011e-16
    outer loop
      vertex   1.232732e+00 2.135154e+00 -1.112812e+01
      vertex   0.000000e+00 0.000000e+00 0.000000e+00
      vertex   1.352909e+00 2.343307e+00 -1.106644e+01
    endloop
  endfacet
  facet normal -8.660254e-01 5.000000e-01 2.553011e-16
    outer loop
      vertex   1.352909e+00 2.343307e+00 -1.106644e+01
      vertex   0.000000e+00 0.000000e+00 0.000000e+00
      vertex   1.472381e+00 2.550239e+00 -1.099904e+01
    endloop
  endfacet
  facet normal -8.660254e-01 5.000000e-01 3.141915e-16
    outer loop
      vertex   1.472381e+00 2.550239e+00 -1.099904e+01
      vertex   0.000000e+00 0.000000e+00 0.000000e+00
      vertex   1.591103e+00 2.755871e+00 -1.092595e+01
    endloop
  endfacet
  facet normal -8.660254e-01 5.000000e-01 9.423791e-16
    outer loop
      vertex   1.591103e+00 2.755871e+00 -1.092595e+01
      vertex   0.000000e+00 0.000000e+00 0.000000e+00
      vertex   1.709026e+00 2.960120e+00 -1.084720e+01
    endloop
  endfacet
  facet normal -8.660254e-01 5.000000e-01 3.925265e-16
    outer loop
      vertex   1.709026e+00 2.960120e+00 -1.084720e+01
      vertex   0.000000e+00 0.000000e+00 0.000000e+00
      vertex   1.826106e+00 3.162908e+00 -1.076281e+01
    endloop
  endfacet
  facet normal -8.660254e-01 5.000000e-01 1.569379e-16
    outer loop
      vertex   1.826106e+00 3.162908e+00 -1.076281e+01
      vertex   0.000000e+00 0.000000e+00 0.000000e+00
      vertex   1.942294e+00 3.364152e+00 -1.067282e+01
    endloop
  endfacet
  facet normal 1.227701e-01 1.592617e-01 -9.795730e-01
    outer loop
      vertex   1.430098e+00 1.704325e+00 -1.118564e+01
      vertex   1.273454e+00 1.517644e+00 -1.123562e+01
      vertex   1.350280e+00 1.760099e+00 -1.118657e+01
    endloop
  endfacet
  facet normal 1.181459e-01 1.607915e-01 -9.798917e-01
    outer loop
      vertex   1.350280e+00 1.760099e+00 -1.118657e+01
      vertex   1.273454e+00 1.517644e+00 -1.123562e+01
      vertex   1.136270e+00 1.622752e+00 -1.123491e+01
    endloop
  endfacet
  facet normal 1.154644e-01 1.648451e-01 -9.795377e-01
    outer loop
      vertex   1.350280e+00 1.760099e+00 -1.118657e+01
      vertex   1.136270e+00 1.622752e+00 -1.123491e+01
      vertex   1.271220e+00 1.815475e+00 -1.118657e+01
    endloop
  endfacet
  facet normal 1.083774e-01 1.697985e-01 -9.795013e-01
    outer loop
      vertex   1.271220e+00 1.815475e+00 -1.118657e+01
      vertex   1.136270e+00 1.622752e+00 -1.123491e+01
      vertex   1.189458e+00 1.867662e+00 -1.118657e+01
    endloop
  endfacet
  facet normal 1.205811e-01 1.889184e-01 -9.745614e-01
    outer loop
      vertex   1.271220e+00 1.815475e+00 -1.118657e+01
      vertex   1.189458e+00 1.867662e+00 -1.118657e+01
      vertex   1.317996e+00 2.069392e+00 -1.113156e+01
    endloop
  endfacet
  facet normal 1.136326e-01 1.933373e-01 -9.745298e-01
    outer loop
      vertex   1.317996e+00 2.069392e+00 -1.113156e+01
      vertex   1.189458e+00 1.867662e+00 -1.118657e+01
      vertex   1.111897e+00 1.925862e+00 -1.118407e+01
    endloop
  endfacet
  facet normal 1.117833e-01 1.958848e-01 -9.742349e-01
    outer loop
      vertex   1.317996e+00 2.069392e+00 -1.113156e+01
      vertex   1.111897e+00 1.925862e+00 -1.118407e+01
      vertex   1.232732e+00 2.135154e+00 -1.112812e+01
    endloop
  endfacet
  facet normal 1.041727e-01 1.707684e-01 -9.797889e-01
    outer loop
      vertex   1.136270e+00 1.622752e+00 -1.123491e+01
      vertex   9.904507e-01 1.715511e+00 -1.123425e+01
      vertex   1.189458e+00 1.867662e+00 -1.118657e+01
    endloop
  endfacet
  facet normal 1.002663e-01 1.757305e-01 -9.793189e-01
    outer loop
      vertex   1.189458e+00 1.867662e+00 -1.118657e+01
      vertex   9.904507e-01 1.715511e+00 -1.123425e+01
      vertex   1.111897e+00 1.925862e+00 -1.118407e+01
    endloop
  endfacet
  facet normal 1.252357e-01 2.130520e-01 -9.689814e-01
    outer loop
      vertex   1.317996e+00 2.069392e+00 -1.113156e+01
      vertex   1.232732e+00 2.135154e+00 -1.112812e+01
      vertex   1.446704e+00 2.271369e+00 -1.107052e+01
    endloop
  endfacet
  facet normal 1.233756e-01 2.158161e-01 -9.686082e-01
    outer loop
      vertex   1.446704e+00 2.271369e+00 -1.107052e+01
      vertex   1.232732e+00 2.135154e+00 -1.112812e+01
      vertex   1.352909e+00 2.343307e+00 -1.106644e+01
    endloop
  endfacet
  facet normal 1.366857e-01 2.328443e-01 -9.628606e-01
    outer loop
      vertex   1.446704e+00 2.271369e+00 -1.107052e+01
      vertex   1.352909e+00 2.343307e+00 -1.106644e+01
      vertex   1.575477e+00 2.473429e+00 -1.100338e+01
    endloop
  endfacet
  facet normal 1.349906e-01 2.355416e-01 -9.624436e-01
    outer loop
      vertex   1.575477e+00 2.473429e+00 -1.100338e+01
      vertex   1.352909e+00 2.343307e+00 -1.106644e+01
      vertex   1.472381e+00 2.550239e+00 -1.099904e+01
    endloop
  endfacet
  facet normal 1.445437e-01 2.481067e-01 -9.578884e-01
    outer loop
      vertex   1.575477e+00 2.473429e+00 -1.100338e+01
      vertex   1.472381e+00 2.550239e+00 -1.099904e+01
      vertex   1.639854e+00 2.574438e+00 -1.096750e+01
    endloop
  endfacet
  facet normal 1.428178e-01 2.572439e-01 -9.557346e-01
    outer loop
      vertex   1.639854e+00 2.574438e+00 -1.096750e+01
      vertex   1.472381e+00 2.550239e+00 -1.099904e+01
      vertex   1.591103e+00 2.755871e+00 -1.092595e+01
    endloop
  endfacet
  facet normal 1.491895e-01 2.586463e-01 -9.543818e-01
    outer loop
      vertex   1.639854e+00 2.574438e+00 -1.096750e+01
      vertex   1.591103e+00 2.755871e+00 -1.092595e+01
      vertex   1.704208e+00 2.675404e+00 -1.093008e+01
    endloop
  endfacet
  facet normal 1.592361e-01 2.724863e-01 -9.488915e-01
    outer loop
      vertex   1.704208e+00 2.675404e+00 -1.093008e+01
      vertex   1.591103e+00 2.755871e+00 -1.092595e+01
      vertex   1.832787e+00 2.877121e+00 -1.085057e+01
    endloop
  endfacet
  facet normal 1.696980e-01 2.658455e-01 -9.489620e-01
    outer loop
      vertex   1.704208e+00 2.675404e+00 -1.093008e+01
      vertex   1.832787e+00 2.877121e+00 -1.085057e+01
      vertex   1.821114e+00 2.600778e+00 -1.093008e+01
    endloop
  endfacet
  facet normal 1.697019e-01 2.658451e-01 -9.489613e-01
    outer loop
      vertex   1.821114e+00 2.600778e+00 -1.093008e+01
      vertex   1.832787e+00 2.877121e+00 -1.085057e+01
      vertex   1.958450e+00 2.796904e+00 -1.085057e+01
    endloop
  endfacet
  facet normal 1.808022e-01 2.581072e-01 -9.490475e-01
    outer loop
      vertex   1.821114e+00 2.600778e+00 -1.093008e+01
      vertex   1.958450e+00 2.796904e+00 -1.085057e+01
      vertex   1.934528e+00 2.521333e+00 -1.093008e+01
    endloop
  endfacet
  facet normal 1.808051e-01 2.581068e-01 -9.490471e-01
    outer loop
      vertex   1.934528e+00 2.521333e+00 -1.093008e+01
      vertex   1.958450e+00 2.796904e+00 -1.085057e+01
      vertex   2.080457e+00 2.711437e+00 -1.085057e+01
    endloop
  endfacet
  facet normal 1.913194e-01 2.500732e-01 -9.491366e-01
    outer loop
      vertex   1.934528e+00 2.521333e+00 -1.093008e+01
      vertex   2.080457e+00 2.711437e+00 -1.085057e+01
      vertex   2.047151e+00 2.439699e+00 -1.092888e+01
    endloop
  endfacet
  facet normal 1.916604e-01 2.500159e-01 -9.490829e-01
    outer loop
      vertex   2.047151e+00 2.439699e+00 -1.092888e+01
      vertex   2.080457e+00 2.711437e+00 -1.085057e+01
      vertex   2.198698e+00 2.620306e+00 -1.085070e+01
    endloop
  endfacet
  facet normal 2.052069e-01 2.675813e-01 -9.414300e-01
    outer loop
      vertex   2.198698e+00 2.620306e+00 -1.085070e+01
      vertex   2.080457e+00 2.711437e+00 -1.085057e+01
      vertex   2.349045e+00 2.799483e+00 -1.076700e+01
    endloop
  endfacet
  facet normal 2.050009e-01 2.681095e-01 -9.413245e-01
    outer loop
      vertex   2.349045e+00 2.799483e+00 -1.076700e+01
      vertex   2.080457e+00 2.711437e+00 -1.085057e+01
      vertex   2.226083e+00 2.901134e+00 -1.076483e+01
    endloop
  endfacet
  facet normal 2.188921e-01 2.847409e-01 -9.332786e-01
    outer loop
      vertex   2.349045e+00 2.799483e+00 -1.076700e+01
      vertex   2.226083e+00 2.901134e+00 -1.076483e+01
      vertex   2.498137e+00 2.977163e+00 -1.067783e+01
    endloop
  endfacet
  facet normal 2.186229e-01 2.855079e-01 -9.331073e-01
    outer loop
      vertex   2.498137e+00 2.977163e+00 -1.067783e+01
      vertex   2.226083e+00 2.901134e+00 -1.076483e+01
      vertex   2.365632e+00 3.082901e+00 -1.067652e+01
    endloop
  endfacet
  facet normal 2.064896e-01 2.947671e-01 -9.329922e-01
    outer loop
      vertex   2.365632e+00 3.082901e+00 -1.067652e+01
      vertex   2.226083e+00 2.901134e+00 -1.076483e+01
      vertex   2.095494e+00 2.992614e+00 -1.076483e+01
    endloop
  endfacet
  facet normal 2.063851e-01 2.950231e-01 -9.329344e-01
    outer loop
      vertex   2.365632e+00 3.082901e+00 -1.067652e+01
      vertex   2.095494e+00 2.992614e+00 -1.076483e+01
      vertex   2.228648e+00 3.182767e+00 -1.067524e+01
    endloop
  endfacet
  facet normal 1.938861e-01 3.037234e-01 -9.328238e-01
    outer loop
      vertex   2.228648e+00 3.182767e+00 -1.067524e+01
      vertex   2.095494e+00 2.992614e+00 -1.076483e+01
      vertex   1.961102e+00 3.078405e+00 -1.076483e+01
    endloop
  endfacet
  facet normal 1.937724e-01 3.039670e-01 -9.327681e-01
    outer loop
      vertex   2.228648e+00 3.182767e+00 -1.067524e+01
      vertex   1.961102e+00 3.078405e+00 -1.076483e+01
      vertex   2.087445e+00 3.276576e+00 -1.067400e+01
    endloop
  endfacet
  facet normal 1.812917e-01 3.118773e-01 -9.326660e-01
    outer loop
      vertex   2.087445e+00 3.276576e+00 -1.067400e+01
      vertex   1.961102e+00 3.078405e+00 -1.076483e+01
      vertex   1.826106e+00 3.162908e+00 -1.076281e+01
    endloop
  endfacet
  facet normal 1.809457e-01 3.125493e-01 -9.325082e-01
    outer loop
      vertex   2.087445e+00 3.276576e+00 -1.067400e+01
      vertex   1.826106e+00 3.162908e+00 -1.076281e+01
      vertex   1.942294e+00 3.364152e+00 -1.067282e+01
    endloop
  endfacet
  facet normal 1.581626e-01 2.743956e-01 -9.485208e-01
    outer loop
      vertex   1.591103e+00 2.755871e+00 -1.092595e+01
      vertex   1.709026e+00 2.960120e+00 -1.084720e+01
      vertex   1.832787e+00 2.877121e+00 -1.085057e+01
    endloop
  endfacet
  facet normal 1.703546e-01 2.922710e-01 -9.410404e-01
    outer loop
      vertex   1.832787e+00 2.877121e+00 -1.085057e+01
      vertex   1.709026e+00 2.960120e+00 -1.084720e+01
      vertex   1.961102e+00 3.078405e+00 -1.076483e+01
    endloop
  endfacet
  facet normal 1.818969e-01 2.849492e-01 -9.411256e-01
    outer loop
      vertex   1.832787e+00 2.877121e+00 -1.085057e+01
      vertex   1.961102e+00 3.078405e+00 -1.076483e+01
      vertex   1.958450e+00 2.796904e+00 -1.085057e+01
    endloop
  endfacet
  facet normal 1.819012e-01 2.849490e-01 -9.411249e-01
    outer loop
      vertex   1.958450e+00 2.796904e+00 -1.085057e+01
      vertex   1.961102e+00 3.078405e+00 -1.076483e+01
      vertex   2.095494e+00 2.992614e+00 -1.076483e+01
    endloop
  endfacet
  facet normal 1.938011e-01 2.766591e-01 -9.412231e-01
    outer loop
      vertex   1.958450e+00 2.796904e+00 -1.085057e+01
      vertex   2.095494e+00 2.992614e+00 -1.076483e+01
      vertex   2.080457e+00 2.711437e+00 -1.085057e+01
    endloop
  endfacet
  facet normal 1.938044e-01 2.766588e-01 -9.412225e-01
    outer loop
      vertex   2.080457e+00 2.711437e+00 -1.085057e+01
      vertex   2.095494e+00 2.992614e+00 -1.076483e+01
      vertex   2.226083e+00 2.901134e+00 -1.076483e+01
    endloop
  endfacet
  facet normal 1.696805e-01 2.935214e-01 -9.407729e-01
    outer loop
      vertex   1.709026e+00 2.960120e+00 -1.084720e+01
      vertex   1.826106e+00 3.162908e+00 -1.076281e+01
      vertex   1.961102e+00 3.078405e+00 -1.076483e+01
    endloop
  endfacet
  facet normal 1.813495e-01 2.362383e-01 -9.546223e-01
    outer loop
      vertex   1.934528e+00 2.521333e+00 -1.093008e+01
      vertex   2.047151e+00 2.439699e+00 -1.092888e+01
      vertex   1.861489e+00 2.426180e+00 -1.096750e+01
    endloop
  endfacet
  facet normal 1.822409e-01 2.287303e-01 -9.562796e-01
    outer loop
      vertex   1.861489e+00 2.426180e+00 -1.096750e+01
      vertex   2.047151e+00 2.439699e+00 -1.092888e+01
      vertex   1.894461e+00 2.257731e+00 -1.100151e+01
    endloop
  endfacet
  facet normal 1.740565e-01 2.274952e-01 -9.580972e-01
    outer loop
      vertex   1.861489e+00 2.426180e+00 -1.096750e+01
      vertex   1.894461e+00 2.257731e+00 -1.100151e+01
      vertex   1.788422e+00 2.330987e+00 -1.100338e+01
    endloop
  endfacet
  facet normal 1.647541e-01 2.139084e-01 -9.628599e-01
    outer loop
      vertex   1.788422e+00 2.330987e+00 -1.100338e+01
      vertex   1.894461e+00 2.257731e+00 -1.100151e+01
      vertex   1.740685e+00 2.074467e+00 -1.106853e+01
    endloop
  endfacet
  facet normal 1.633041e-01 2.142232e-01 -9.630370e-01
    outer loop
      vertex   1.788422e+00 2.330987e+00 -1.100338e+01
      vertex   1.740685e+00 2.074467e+00 -1.106853e+01
      vertex   1.642265e+00 2.140561e+00 -1.107052e+01
    endloop
  endfacet
  facet normal 1.509995e-01 1.957223e-01 -9.689644e-01
    outer loop
      vertex   1.642265e+00 2.140561e+00 -1.107052e+01
      vertex   1.740685e+00 2.074467e+00 -1.106853e+01
      vertex   1.585878e+00 1.889976e+00 -1.112992e+01
    endloop
  endfacet
  facet normal 1.494275e-01 1.961149e-01 -9.691287e-01
    outer loop
      vertex   1.642265e+00 2.140561e+00 -1.107052e+01
      vertex   1.585878e+00 1.889976e+00 -1.112992e+01
      vertex   1.496178e+00 1.950213e+00 -1.113156e+01
    endloop
  endfacet
  facet normal 1.370184e-01 1.774888e-01 -9.745377e-01
    outer loop
      vertex   1.496178e+00 1.950213e+00 -1.113156e+01
      vertex   1.585878e+00 1.889976e+00 -1.112992e+01
      vertex   1.430098e+00 1.704325e+00 -1.118564e+01
    endloop
  endfacet
  facet normal 1.357116e-01 1.778651e-01 -9.746519e-01
    outer loop
      vertex   1.496178e+00 1.950213e+00 -1.113156e+01
      vertex   1.430098e+00 1.704325e+00 -1.118564e+01
      vertex   1.350280e+00 1.760099e+00 -1.118657e+01
    endloop
  endfacet
  facet normal 1.284699e-01 1.834092e-01 -9.746058e-01
    outer loop
      vertex   1.496178e+00 1.950213e+00 -1.113156e+01
      vertex   1.350280e+00 1.760099e+00 -1.118657e+01
      vertex   1.408548e+00 2.011594e+00 -1.113156e+01
    endloop
  endfacet
  facet normal 1.284679e-01 1.834097e-01 -9.746060e-01
    outer loop
      vertex   1.408548e+00 2.011594e+00 -1.113156e+01
      vertex   1.350280e+00 1.760099e+00 -1.118657e+01
      vertex   1.271220e+00 1.815475e+00 -1.118657e+01
    endloop
  endfacet
  facet normal 1.205837e-01 1.889179e-01 -9.745612e-01
    outer loop
      vertex   1.408548e+00 2.011594e+00 -1.113156e+01
      vertex   1.271220e+00 1.815475e+00 -1.118657e+01
      vertex   1.317996e+00 2.069392e+00 -1.113156e+01
    endloop
  endfacet
  facet normal 1.415789e-01 2.021207e-01 -9.690731e-01
    outer loop
      vertex   1.642265e+00 2.140561e+00 -1.107052e+01
      vertex   1.496178e+00 1.950213e+00 -1.113156e+01
      vertex   1.546048e+00 2.207958e+00 -1.107052e+01
    endloop
  endfacet
  facet normal 1.415767e-01 2.021212e-01 -9.690733e-01
    outer loop
      vertex   1.546048e+00 2.207958e+00 -1.107052e+01
      vertex   1.496178e+00 1.950213e+00 -1.113156e+01
      vertex   1.408548e+00 2.011594e+00 -1.113156e+01
    endloop
  endfacet
  facet normal 1.328874e-01 2.081889e-01 -9.690193e-01
    outer loop
      vertex   1.546048e+00 2.207958e+00 -1.107052e+01
      vertex   1.408548e+00 2.011594e+00 -1.113156e+01
      vertex   1.446704e+00 2.271369e+00 -1.107052e+01
    endloop
  endfacet
  facet normal 1.328845e-01 2.081894e-01 -9.690195e-01
    outer loop
      vertex   1.446704e+00 2.271369e+00 -1.107052e+01
      vertex   1.408548e+00 2.011594e+00 -1.113156e+01
      vertex   1.317996e+00 2.069392e+00 -1.113156e+01
    endloop
  endfacet
  facet normal 1.546796e-01 2.208195e-01 -9.629709e-01
    outer loop
      vertex   1.788422e+00 2.330987e+00 -1.100338e+01
      vertex   1.642265e+00 2.140561e+00 -1.107052e+01
      vertex   1.683608e+00 2.404407e+00 -1.100338e+01
    endloop
  endfacet
  facet normal 1.546771e-01 2.208199e-01 -9.629712e-01
    outer loop
      vertex   1.683608e+00 2.404407e+00 -1.100338e+01
      vertex   1.642265e+00 2.140561e+00 -1.107052e+01
      vertex   1.546048e+00 2.207958e+00 -1.107052e+01
    endloop
  endfacet
  facet normal 1.451829e-01 2.274462e-01 -9.629071e-01
    outer loop
      vertex   1.683608e+00 2.404407e+00 -1.100338e+01
      vertex   1.546048e+00 2.207958e+00 -1.107052e+01
      vertex   1.575477e+00 2.473429e+00 -1.100338e+01
    endloop
  endfacet
  facet normal 1.451797e-01 2.274467e-01 -9.629075e-01
    outer loop
      vertex   1.575477e+00 2.473429e+00 -1.100338e+01
      vertex   1.546048e+00 2.207958e+00 -1.107052e+01
      vertex   1.446704e+00 2.271369e+00 -1.107052e+01
    endloop
  endfacet
  facet normal 1.710168e-01 2.441379e-01 -9.545417e-01
    outer loop
      vertex   1.821114e+00 2.600778e+00 -1.093008e+01
      vertex   1.934528e+00 2.521333e+00 -1.093008e+01
      vertex   1.861489e+00 2.426180e+00 -1.096750e+01
    endloop
  endfacet
  facet normal 1.644843e-01 2.348144e-01 -9.580225e-01
    outer loop
      vertex   1.861489e+00 2.426180e+00 -1.096750e+01
      vertex   1.788422e+00 2.330987e+00 -1.100338e+01
      vertex   1.752375e+00 2.502613e+00 -1.096750e+01
    endloop
  endfacet
  facet normal 1.644826e-01 2.348141e-01 -9.580229e-01
    outer loop
      vertex   1.752375e+00 2.502613e+00 -1.096750e+01
      vertex   1.788422e+00 2.330987e+00 -1.100338e+01
      vertex   1.683608e+00 2.404407e+00 -1.100338e+01
    endloop
  endfacet
  facet normal 1.543846e-01 2.418588e-01 -9.579508e-01
    outer loop
      vertex   1.752375e+00 2.502613e+00 -1.096750e+01
      vertex   1.683608e+00 2.404407e+00 -1.100338e+01
      vertex   1.639854e+00 2.574438e+00 -1.096750e+01
    endloop
  endfacet
  facet normal 1.543824e-01 2.418583e-01 -9.579513e-01
    outer loop
      vertex   1.639854e+00 2.574438e+00 -1.096750e+01
      vertex   1.683608e+00 2.404407e+00 -1.100338e+01
      vertex   1.575477e+00 2.473429e+00 -1.100338e+01
    endloop
  endfacet
  facet normal 1.605131e-01 2.514597e-01 -9.544651e-01
    outer loop
      vertex   1.639854e+00 2.574438e+00 -1.096750e+01
      vertex   1.704208e+00 2.675404e+00 -1.093008e+01
      vertex   1.752375e+00 2.502613e+00 -1.096750e+01
    endloop
  endfacet
  facet normal 1.605154e-01 2.514603e-01 -9.544645e-01
    outer loop
      vertex   1.752375e+00 2.502613e+00 -1.096750e+01
      vertex   1.704208e+00 2.675404e+00 -1.093008e+01
      vertex   1.821114e+00 2.600778e+00 -1.093008e+01
    endloop
  endfacet
  facet normal 1.710150e-01 2.441376e-01 -9.545421e-01
    outer loop
      vertex   1.752375e+00 2.502613e+00 -1.096750e+01
      vertex   1.821114e+00 2.600778e+00 -1.093008e+01
      vertex   1.861489e+00 2.426180e+00 -1.096750e+01
    endloop
  endfacet
  facet normal 7.660444e-01 -6.427876e-01 -6.838400e-15
    outer loop
      vertex   1.273454e+00 1.517644e+00 -1.123562e+01
      vertex   1.430098e+00 1.704325e+00 -1.118564e+01
      vertex   0.000000e+00 0.000000e+00 0.000000e+00
    endloop
  endfacet
  facet normal 7.660444e-01 -6.427876e-01 1.879873e-15
    outer loop
      vertex   0.000000e+00 0.000000e+00 0.000000e+00
      vertex   1.430098e+00 1.704325e+00 -1.118564e+01
      vertex   1.585878e+00 1.889976e+00 -1.112992e+01
    endloop
  endfacet
  facet normal 7.660444e-01 -6.427876e-01 1.724955e-15
    outer loop
      vertex   0.000000e+00 0.000000e+00 0.000000e+00
      vertex   1.585878e+00 1.889976e+00 -1.112992e+01
      vertex   1.740685e+00 2.074467e+00 -1.106853e+01
    endloop
  endfacet
  facet normal 7.660444e-01 -6.427876e-01 2.491602e-15
    outer loop
      vertex   1.740685e+00 2.074467e+00 -1.106853e+01
      vertex   1.894461e+00 2.257731e+00 -1.100151e+01
      vertex   0.000000e+00 0.000000e+00 0.000000e+00
    endloop
  endfacet
  facet normal 7.660444e-01 -6.427876e-01 2.513087e-15
    outer loop
      vertex   0.000000e+00 0.000000e+00 0.000000e+00
      vertex   1.894461e+00 2.257731e+00 -1.100151e+01
      vertex   2.047151e+00 2.439699e+00 -1.092888e+01
    endloop
  endfacet
  facet normal 7.660444e-01 -6.427876e-01 2.200299e-15
    outer loop
      vertex   0.000000e+00 0.000000e+00 0.000000e+00
      vertex   2.047151e+00 2.439699e+00 -1.092888e+01
      vertex   2.198698e+00 2.620306e+00 -1.085070e+01
    endloop
  endfacet
  facet normal 7.660444e-01 -6.427876e-01 1.120338e-15
    outer loop
      vertex   2.198698e+00 2.620306e+00 -1.085070e+01
      vertex   2.349045e+00 2.799483e+00 -1.076700e+01
      vertex   0.000000e+00 0.000000e+00 0.000000e+00
    endloop
  endfacet
  facet normal 7.660444e-01 -6.427876e-01 1.887562e-15
    outer loop
      vertex   0.000000e+00 0.000000e+00 0.000000e+00
      vertex   2.349045e+00 2.799483e+00 -1.076700e+01
      vertex   2.498137e+00 2.977163e+00 -1.067783e+01
    endloop
  endfacet
  facet normal 5.881384e-01 7.327957e-01 3.422040e-01
    outer loop
      vertex   2.365632e+00 3.082901e+00 -1.067652e+01
      vertex   1.547202e+00 2.078254e+00 -7.118551e+00
      vertex   2.498137e+00 2.977163e+00 -1.067783e+01
    endloop
  endfacet
  facet normal 5.828596e-01 7.371461e-01 3.418924e-01
    outer loop
      vertex   2.498137e+00 2.977163e+00 -1.067783e+01
      vertex   1.547202e+00 2.078254e+00 -7.118551e+00
      vertex   7.736012e-01 1.039127e+00 -3.559275e+00
    endloop
  endfacet
  facet normal 5.828596e-01 7.371461e-01 3.418924e-01
    outer loop
      vertex   2.498137e+00 2.977163e+00 -1.067783e+01
      vertex   7.736012e-01 1.039127e+00 -3.559275e+00
      vertex   0.000000e+00 0.000000e+00 0.000000e+00
    endloop
  endfacet
  facet normal 5.556984e-01 7.578641e-01 3.418204e-01
    outer loop
      vertex   2.365632e+00 3.082901e+00 -1.067652e+01
      vertex   2.228648e+00 3.182767e+00 -1.067524e+01
      vertex   1.547202e+00 2.078254e+00 -7.118551e+00
    endloop
  endfacet
  facet normal 5.389321e-01 7.696749e-01 3.422758e-01
    outer loop
      vertex   1.547202e+00 2.078254e+00 -7.118551e+00
      vertex   2.228648e+00 3.182767e+00 -1.067524e+01
      vertex   1.423745e+00 2.164699e+00 -7.118551e+00
    endloop
  endfacet
  facet normal 5.390122e-01 7.697892e-01 3.418924e-01
    outer loop
      vertex   1.547202e+00 2.078254e+00 -7.118551e+00
      vertex   1.423745e+00 2.164699e+00 -7.118551e+00
      vertex   7.118725e-01 1.082350e+00 -3.559275e+00
    endloop
  endfacet
  facet normal 4.933410e-01 7.998276e-01 3.418924e-01
    outer loop
      vertex   7.118725e-01 1.082350e+00 -3.559275e+00
      vertex   1.423745e+00 2.164699e+00 -7.118551e+00
      vertex   1.942294e+00 3.364152e+00 -1.067282e+01
    endloop
  endfacet
  facet normal 4.933410e-01 7.998276e-01 3.418924e-01
    outer loop
      vertex   7.118725e-01 1.082350e+00 -3.559275e+00
      vertex   1.942294e+00 3.364152e+00 -1.067282e+01
      vertex   0.000000e+00 0.000000e+00 0.000000e+00
    endloop
  endfacet
  facet normal 5.221119e-01 7.813821e-01 3.418204e-01
    outer loop
      vertex   2.228648e+00 3.182767e+00 -1.067524e+01
      vertex   2.087445e+00 3.276576e+00 -1.067400e+01
      vertex   1.423745e+00 2.164699e+00 -7.118551e+00
    endloop
  endfacet
  facet normal 4.874576e-01 8.032942e-01 3.422039e-01
    outer loop
      vertex   1.423745e+00 2.164699e+00 -7.118551e+00
      vertex   2.087445e+00 3.276576e+00 -1.067400e+01
      vertex   1.942294e+00 3.364152e+00 -1.067282e+01
    endloop
  endfacet
  facet normal 5.390122e-01 7.697892e-01 3.418924e-01
    outer loop
      vertex   7.118725e-01 1.082350e+00 -3.559275e+00
      vertex   0.000000e+00 0.000000e+00 0.000000e+00
      vertex   7.736012e-01 1.039127e+00 -3.559275e+00
    endloop
  endfacet
  facet normal 5.390122e-01 7.697892e-01 3.418924e-01
    outer loop
      vertex   7.118725e-01 1.082350e+00 -3.559275e+00
      vertex   7.736012e-01 1.039127e+00 -3.559275e+00
      vertex   1.547202e+00 2.078254e+00 -7.118551e+00
    endloop
  endfacet
  facet normal -5.291529e-01 -8.306017e-01 -1.734879e-01
    outer loop
      vertex   1.136270e+00 1.622752e+00 -1.123491e+01
      vertex   7.575600e-01 1.081904e+00 -7.490414e+00
      vertex   9.904507e-01 1.715511e+00 -1.123425e+01
    endloop
  endfacet
  facet normal -5.291527e-01 -8.306018e-01 -1.734879e-01
    outer loop
      vertex   9.904507e-01 1.715511e+00 -1.123425e+01
      vertex   7.575600e-01 1.081904e+00 -7.490414e+00
      vertex   3.787795e-01 5.409521e-01 -3.745207e+00
    endloop
  endfacet
  facet normal -5.291522e-01 -8.306022e-01 -1.734879e-01
    outer loop
      vertex   9.904507e-01 1.715511e+00 -1.123425e+01
      vertex   3.787795e-01 5.409521e-01 -3.745207e+00
      vertex   0.000000e+00 0.000000e+00 0.000000e+00
    endloop
  endfacet
  facet normal -5.995313e-01 -7.813221e-01 -1.734879e-01
    outer loop
      vertex   1.136270e+00 1.622752e+00 -1.123491e+01
      vertex   1.273454e+00 1.517644e+00 -1.123562e+01
      vertex   7.575600e-01 1.081904e+00 -7.490414e+00
    endloop
  endfacet
  facet normal -5.995310e-01 -7.813223e-01 -1.734879e-01
    outer loop
      vertex   7.575600e-01 1.081904e+00 -7.490414e+00
      vertex   1.273454e+00 1.517644e+00 -1.123562e+01
      vertex   3.787795e-01 5.409521e-01 -3.745207e+00
    endloop
  endfacet
  facet normal -5.995305e-01 -7.813227e-01 -1.734879e-01
    outer loop
      vertex   1.273454e+00 1.517644e+00 -1.123562e+01
      vertex   0.000000e+00 0.000000e+00 0.000000e+00
      vertex   3.787795e-01 5.409521e-01 -3.745207e+00
    endloop
  endfacet
endsolid
