solid ASCII
  facet normal 4.363326e-13 -1.000000e+00 -1.586686e-13
    outer loop
      vertex   -3.892988e+00 -1.535002e-15 -1.069590e+01
      vertex   0.000000e+00 0.000000e+00 8.881784e-15
      vertex   -4.123539e+00 -1.167840e-13 -1.060355e+01
    endloop
  endfacet
  facet normal 9.484486e-15 -1.000000e+00 7.325316e-15
    outer loop
      vertex   -4.123539e+00 -1.167840e-13 -1.060355e+01
      vertex   0.000000e+00 0.000000e+00 8.881784e-15
      vertex   -4.352012e+00 -1.182359e-13 -1.050593e+01
    endloop
  endfacet
  facet normal -5.772051e-14 -1.000000e+00 3.516453e-14
    outer loop
      vertex   -4.352012e+00 -1.182359e-13 -1.050593e+01
      vertex   0.000000e+00 0.000000e+00 8.881784e-15
      vertex   -4.577955e+00 -1.015832e-13 -1.040324e+01
    endloop
  endfacet
  facet normal -8.443776e-14 -1.000000e+00 4.692148e-14
    outer loop
      vertex   -4.577955e+00 -1.015832e-13 -1.040324e+01
      vertex   0.000000e+00 0.000000e+00 8.881784e-15
      vertex   -4.801293e+00 -7.767165e-14 -1.029554e+01
    endloop
  endfacet
  facet normal -9.418006e-14 -1.000000e+00 5.146477e-14
    outer loop
      vertex   -4.801293e+00 -7.767165e-14 -1.029554e+01
      vertex   0.000000e+00 0.000000e+00 8.881784e-15
      vertex   -5.021956e+00 -5.109234e-14 -1.018290e+01
    endloop
  endfacet
  facet normal -8.723394e-14 -1.000000e+00 4.803912e-14
    outer loop
      vertex   -5.021956e+00 -5.109234e-14 -1.018290e+01
      vertex   0.000000e+00 0.000000e+00 8.881784e-15
      vertex   -5.239875e+00 -2.643631e-14 -1.006536e+01
    endloop
  endfacet
  facet normal -6.391723e-14 -1.000000e+00 3.590080e-14
    outer loop
      vertex   -5.239875e+00 -2.643631e-14 -1.006536e+01
      vertex   0.000000e+00 0.000000e+00 8.881784e-15
      vertex   -5.454979e+00 -8.294635e-15 -9.943004e+00
    endloop
  endfacet
  facet normal -2.111608e-14 -1.000000e+00 1.241902e-14
    outer loop
      vertex   -5.454979e+00 -8.294635e-15 -9.943004e+00
      vertex   0.000000e+00 0.000000e+00 8.881784e-15
      vertex   -5.667199e+00 -2.234572e-15 -9.815876e+00
    endloop
  endfacet
  facet normal -3.669139e-01 6.290369e-02 -9.281257e-01
    outer loop
      vertex   -4.060318e+00 7.159435e-01 -1.060259e+01
      vertex   -3.833512e+00 6.759515e-01 -1.069497e+01
      vertex   -3.971264e+00 5.184854e-01 -1.065118e+01
    endloop
  endfacet
  facet normal -3.623572e-01 5.833746e-02 -9.302118e-01
    outer loop
      vertex   -3.971264e+00 5.184854e-01 -1.065118e+01
      vertex   -3.833512e+00 6.759515e-01 -1.069497e+01
      vertex   -3.859494e+00 5.081065e-01 -1.069537e+01
    endloop
  endfacet
  facet normal -3.640019e-01 4.170071e-02 -9.304642e-01
    outer loop
      vertex   -3.971264e+00 5.184854e-01 -1.065118e+01
      vertex   -3.859494e+00 5.081065e-01 -1.069537e+01
      vertex   -3.878090e+00 3.392845e-01 -1.069566e+01
    endloop
  endfacet
  facet normal -3.646378e-01 4.131261e-02 -9.302325e-01
    outer loop
      vertex   -3.971264e+00 5.184854e-01 -1.065118e+01
      vertex   -3.878090e+00 3.392845e-01 -1.069566e+01
      vertex   -3.991105e+00 3.433643e-01 -1.065118e+01
    endloop
  endfacet
  facet normal -3.653441e-01 2.504864e-02 -9.305355e-01
    outer loop
      vertex   -3.991105e+00 3.433643e-01 -1.065118e+01
      vertex   -3.878090e+00 3.392845e-01 -1.069566e+01
      vertex   -3.889262e+00 1.698051e-01 -1.069584e+01
    endloop
  endfacet
  facet normal -3.659727e-01 2.461917e-02 -9.302999e-01
    outer loop
      vertex   -3.991105e+00 3.433643e-01 -1.065118e+01
      vertex   -3.889262e+00 1.698051e-01 -1.069584e+01
      vertex   -4.002741e+00 1.703820e-01 -1.065118e+01
    endloop
  endfacet
  facet normal -3.661425e-01 8.357214e-03 -9.305213e-01
    outer loop
      vertex   -4.002741e+00 1.703820e-01 -1.065118e+01
      vertex   -3.889262e+00 1.698051e-01 -1.069584e+01
      vertex   -3.892988e+00 -1.535002e-15 -1.069590e+01
    endloop
  endfacet
  facet normal -3.718174e-01 4.117919e-03 -9.282968e-01
    outer loop
      vertex   -4.002741e+00 1.703820e-01 -1.065118e+01
      vertex   -3.892988e+00 -1.535002e-15 -1.069590e+01
      vertex   -4.123539e+00 -1.167840e-13 -1.060355e+01
    endloop
  endfacet
  facet normal -3.929118e-01 4.820649e-03 -9.195635e-01
    outer loop
      vertex   -4.352012e+00 -1.182359e-13 -1.050593e+01
      vertex   -4.228934e+00 1.800101e-01 -1.055758e+01
      vertex   -4.123539e+00 -1.167840e-13 -1.060355e+01
    endloop
  endfacet
  facet normal -3.872418e-01 8.746509e-03 -9.219367e-01
    outer loop
      vertex   -4.123539e+00 -1.167840e-13 -1.060355e+01
      vertex   -4.228934e+00 1.800101e-01 -1.055758e+01
      vertex   -4.115959e+00 1.752012e-01 -1.060508e+01
    endloop
  endfacet
  facet normal -3.768473e-01 8.259427e-03 -9.262386e-01
    outer loop
      vertex   -4.123539e+00 -1.167840e-13 -1.060355e+01
      vertex   -4.115959e+00 1.752012e-01 -1.060508e+01
      vertex   -4.002741e+00 1.703820e-01 -1.065118e+01
    endloop
  endfacet
  facet normal -3.761170e-01 2.530158e-02 -9.262266e-01
    outer loop
      vertex   -4.002741e+00 1.703820e-01 -1.065118e+01
      vertex   -4.115959e+00 1.752012e-01 -1.060508e+01
      vertex   -3.991105e+00 3.433643e-01 -1.065118e+01
    endloop
  endfacet
  facet normal -4.137625e-01 5.507257e-03 -9.103682e-01
    outer loop
      vertex   -4.577955e+00 -1.015832e-13 -1.040324e+01
      vertex   -4.454058e+00 1.895929e-01 -1.045840e+01
      vertex   -4.352012e+00 -1.182359e-13 -1.050593e+01
    endloop
  endfacet
  facet normal -4.079523e-01 9.283231e-03 -9.129561e-01
    outer loop
      vertex   -4.352012e+00 -1.182359e-13 -1.050593e+01
      vertex   -4.454058e+00 1.895929e-01 -1.045840e+01
      vertex   -4.341641e+00 1.848077e-01 -1.050869e+01
    endloop
  endfacet
  facet normal -3.976287e-01 8.636087e-03 -9.175058e-01
    outer loop
      vertex   -4.352012e+00 -1.182359e-13 -1.050593e+01
      vertex   -4.341641e+00 1.848077e-01 -1.050869e+01
      vertex   -4.228934e+00 1.800101e-01 -1.055758e+01
    endloop
  endfacet
  facet normal -3.968545e-01 2.669660e-02 -9.174932e-01
    outer loop
      vertex   -4.228934e+00 1.800101e-01 -1.055758e+01
      vertex   -4.341641e+00 1.848077e-01 -1.050869e+01
      vertex   -4.216639e+00 3.627676e-01 -1.055758e+01
    endloop
  endfacet
  facet normal -3.865013e-01 2.600013e-02 -9.219223e-01
    outer loop
      vertex   -4.228934e+00 1.800101e-01 -1.055758e+01
      vertex   -4.216639e+00 3.627676e-01 -1.055758e+01
      vertex   -4.103994e+00 3.530764e-01 -1.060508e+01
    endloop
  endfacet
  facet normal -3.849746e-01 4.361673e-02 -9.218959e-01
    outer loop
      vertex   -4.103994e+00 3.530764e-01 -1.060508e+01
      vertex   -4.216639e+00 3.627676e-01 -1.055758e+01
      vertex   -4.083592e+00 5.331509e-01 -1.060508e+01
    endloop
  endfacet
  facet normal -3.746319e-01 4.244492e-02 -9.262016e-01
    outer loop
      vertex   -4.103994e+00 3.530764e-01 -1.060508e+01
      vertex   -4.083592e+00 5.331509e-01 -1.060508e+01
      vertex   -3.971264e+00 5.184854e-01 -1.065118e+01
    endloop
  endfacet
  facet normal -3.723263e-01 5.997943e-02 -9.261618e-01
    outer loop
      vertex   -3.971264e+00 5.184854e-01 -1.065118e+01
      vertex   -4.083592e+00 5.331509e-01 -1.060508e+01
      vertex   -4.060318e+00 7.159435e-01 -1.060259e+01
    endloop
  endfacet
  facet normal -4.343477e-01 6.161607e-03 -9.007242e-01
    outer loop
      vertex   -4.801293e+00 -7.767165e-14 -1.029554e+01
      vertex   -4.677927e+00 1.991222e-01 -1.035367e+01
      vertex   -4.577955e+00 -1.015832e-13 -1.040324e+01
    endloop
  endfacet
  facet normal -4.285216e-01 9.772402e-03 -9.034787e-01
    outer loop
      vertex   -4.577955e+00 -1.015832e-13 -1.040324e+01
      vertex   -4.677927e+00 1.991222e-01 -1.035367e+01
      vertex   -4.566161e+00 1.943647e-01 -1.040673e+01
    endloop
  endfacet
  facet normal -4.182740e-01 9.064390e-03 -9.082757e-01
    outer loop
      vertex   -4.577955e+00 -1.015832e-13 -1.040324e+01
      vertex   -4.566161e+00 1.943647e-01 -1.040673e+01
      vertex   -4.454058e+00 1.895929e-01 -1.045840e+01
    endloop
  endfacet
  facet normal -4.174582e-01 2.808262e-02 -9.082621e-01
    outer loop
      vertex   -4.454058e+00 1.895929e-01 -1.045840e+01
      vertex   -4.566161e+00 1.943647e-01 -1.040673e+01
      vertex   -4.441109e+00 3.820793e-01 -1.045840e+01
    endloop
  endfacet
  facet normal -4.071742e-01 2.739081e-02 -9.129397e-01
    outer loop
      vertex   -4.454058e+00 1.895929e-01 -1.045840e+01
      vertex   -4.441109e+00 3.820793e-01 -1.045840e+01
      vertex   -4.329019e+00 3.724359e-01 -1.050869e+01
    endloop
  endfacet
  facet normal -4.055646e-01 4.594952e-02 -9.129107e-01
    outer loop
      vertex   -4.329019e+00 3.724359e-01 -1.050869e+01
      vertex   -4.441109e+00 3.820793e-01 -1.045840e+01
      vertex   -4.307498e+00 5.623840e-01 -1.050869e+01
    endloop
  endfacet
  facet normal -3.952863e-01 4.478501e-02 -9.174656e-01
    outer loop
      vertex   -4.329019e+00 3.724359e-01 -1.050869e+01
      vertex   -4.307498e+00 5.623840e-01 -1.050869e+01
      vertex   -4.195677e+00 5.477847e-01 -1.055758e+01
    endloop
  endfacet
  facet normal -3.928422e-01 6.335576e-02 -9.174209e-01
    outer loop
      vertex   -4.195677e+00 5.477847e-01 -1.055758e+01
      vertex   -4.307498e+00 5.623840e-01 -1.050869e+01
      vertex   -4.285106e+00 7.555798e-01 -1.050493e+01
    endloop
  endfacet
  facet normal -3.877869e-01 6.602799e-02 -9.193811e-01
    outer loop
      vertex   -4.195677e+00 5.477847e-01 -1.055758e+01
      vertex   -4.285106e+00 7.555798e-01 -1.050493e+01
      vertex   -4.060318e+00 7.159435e-01 -1.060259e+01
    endloop
  endfacet
  facet normal -4.546588e-01 6.783314e-03 -8.906399e-01
    outer loop
      vertex   -5.021956e+00 -5.109234e-14 -1.018290e+01
      vertex   -4.900354e+00 2.085901e-01 -1.024338e+01
      vertex   -4.801293e+00 -7.767165e-14 -1.029554e+01
    endloop
  endfacet
  facet normal -4.489312e-01 1.022051e-02 -8.935079e-01
    outer loop
      vertex   -4.801293e+00 -7.767165e-14 -1.029554e+01
      vertex   -4.900354e+00 2.085901e-01 -1.024338e+01
      vertex   -4.789333e+00 2.038643e-01 -1.029922e+01
    endloop
  endfacet
  facet normal -4.387656e-01 9.533131e-03 -8.985510e-01
    outer loop
      vertex   -4.801293e+00 -7.767165e-14 -1.029554e+01
      vertex   -4.789333e+00 2.038643e-01 -1.029922e+01
      vertex   -4.677927e+00 1.991222e-01 -1.035367e+01
    endloop
  endfacet
  facet normal -4.379101e-01 2.945843e-02 -8.985360e-01
    outer loop
      vertex   -4.677927e+00 1.991222e-01 -1.035367e+01
      vertex   -4.789333e+00 2.038643e-01 -1.029922e+01
      vertex   -4.664328e+00 4.012833e-01 -1.035367e+01
    endloop
  endfacet
  facet normal -4.277043e-01 2.877188e-02 -9.034607e-01
    outer loop
      vertex   -4.677927e+00 1.991222e-01 -1.035367e+01
      vertex   -4.664328e+00 4.012833e-01 -1.035367e+01
      vertex   -4.552886e+00 3.916957e-01 -1.040673e+01
    endloop
  endfacet
  facet normal -4.260121e-01 4.826617e-02 -9.034291e-01
    outer loop
      vertex   -4.552886e+00 3.916957e-01 -1.040673e+01
      vertex   -4.664328e+00 4.012833e-01 -1.035367e+01
      vertex   -4.530253e+00 5.914667e-01 -1.040673e+01
    endloop
  endfacet
  facet normal -4.158073e-01 4.710999e-02 -9.082318e-01
    outer loop
      vertex   -4.552886e+00 3.916957e-01 -1.040673e+01
      vertex   -4.530253e+00 5.914667e-01 -1.040673e+01
      vertex   -4.419031e+00 5.769456e-01 -1.045840e+01
    endloop
  endfacet
  facet normal -4.132310e-01 6.666770e-02 -9.081826e-01
    outer loop
      vertex   -4.419031e+00 5.769456e-01 -1.045840e+01
      vertex   -4.530253e+00 5.914667e-01 -1.040673e+01
      vertex   -4.507659e+00 7.948220e-01 -1.040208e+01
    endloop
  endfacet
  facet normal -4.084274e-01 6.913516e-02 -9.101689e-01
    outer loop
      vertex   -4.419031e+00 5.769456e-01 -1.045840e+01
      vertex   -4.507659e+00 7.948220e-01 -1.040208e+01
      vertex   -4.285106e+00 7.555798e-01 -1.050493e+01
    endloop
  endfacet
  facet normal -4.746753e-01 1.034531e-02 -8.801002e-01
    outer loop
      vertex   -5.239875e+00 -2.643631e-14 -1.006536e+01
      vertex   -5.230880e+00 2.226593e-01 -1.006760e+01
      vertex   -5.021956e+00 -5.109234e-14 -1.018290e+01
    endloop
  endfacet
  facet normal -4.741897e-01 1.093276e-02 -8.803548e-01
    outer loop
      vertex   -5.021956e+00 -5.109234e-14 -1.018290e+01
      vertex   -5.230880e+00 2.226593e-01 -1.006760e+01
      vertex   -5.010969e+00 2.132985e-01 -1.018617e+01
    endloop
  endfacet
  facet normal -4.590857e-01 1.003237e-02 -8.883353e-01
    outer loop
      vertex   -5.021956e+00 -5.109234e-14 -1.018290e+01
      vertex   -5.010969e+00 2.132985e-01 -1.018617e+01
      vertex   -4.900354e+00 2.085901e-01 -1.024338e+01
    endloop
  endfacet
  facet normal -4.581921e-01 3.082281e-02 -8.883186e-01
    outer loop
      vertex   -4.900354e+00 2.085901e-01 -1.024338e+01
      vertex   -5.010969e+00 2.132985e-01 -1.018617e+01
      vertex   -4.886108e+00 4.203636e-01 -1.024338e+01
    endloop
  endfacet
  facet normal -4.480735e-01 3.014212e-02 -8.934885e-01
    outer loop
      vertex   -4.900354e+00 2.085901e-01 -1.024338e+01
      vertex   -4.886108e+00 4.203636e-01 -1.024338e+01
      vertex   -4.775409e+00 4.108399e-01 -1.029922e+01
    endloop
  endfacet
  facet normal -4.462992e-01 5.056465e-02 -8.934541e-01
    outer loop
      vertex   -4.775409e+00 4.108399e-01 -1.029922e+01
      vertex   -4.886108e+00 4.203636e-01 -1.024338e+01
      vertex   -4.751670e+00 6.203747e-01 -1.029922e+01
    endloop
  endfacet
  facet normal -4.361768e-01 4.941781e-02 -8.985030e-01
    outer loop
      vertex   -4.775409e+00 4.108399e-01 -1.029922e+01
      vertex   -4.751670e+00 6.203747e-01 -1.029922e+01
      vertex   -4.641140e+00 6.059440e-01 -1.035367e+01
    endloop
  endfacet
  facet normal -4.334753e-01 6.990834e-02 -8.984498e-01
    outer loop
      vertex   -4.641140e+00 6.059440e-01 -1.035367e+01
      vertex   -4.751670e+00 6.203747e-01 -1.029922e+01
      vertex   -4.727618e+00 8.336066e-01 -1.029423e+01
    endloop
  endfacet
  facet normal -4.288096e-01 7.221690e-02 -9.005038e-01
    outer loop
      vertex   -4.641140e+00 6.059440e-01 -1.035367e+01
      vertex   -4.727618e+00 8.336066e-01 -1.029423e+01
      vertex   -4.507659e+00 7.948220e-01 -1.040208e+01
    endloop
  endfacet
  facet normal -4.941756e-01 1.124155e-02 -8.692894e-01
    outer loop
      vertex   -5.230880e+00 2.226593e-01 -1.006760e+01
      vertex   -5.239875e+00 -2.643631e-14 -1.006536e+01
      vertex   -5.448878e+00 2.319387e-01 -9.943550e+00
    endloop
  endfacet
  facet normal -4.944131e-01 1.095845e-02 -8.691580e-01
    outer loop
      vertex   -5.448878e+00 2.319387e-01 -9.943550e+00
      vertex   -5.239875e+00 -2.643631e-14 -1.006536e+01
      vertex   -5.454979e+00 -8.294635e-15 -9.943004e+00
    endloop
  endfacet
  facet normal -5.138546e-01 1.149659e-02 -8.578003e-01
    outer loop
      vertex   -5.448878e+00 2.319387e-01 -9.943550e+00
      vertex   -5.454979e+00 -8.294635e-15 -9.943004e+00
      vertex   -5.667199e+00 -2.234572e-15 -9.815876e+00
    endloop
  endfacet
  facet normal -5.140523e-01 1.174977e-02 -8.576784e-01
    outer loop
      vertex   -5.667199e+00 -2.234572e-15 -9.815876e+00
      vertex   -5.661740e+00 2.471843e-01 -9.815762e+00
      vertex   -5.448878e+00 2.319387e-01 -9.943550e+00
    endloop
  endfacet
  facet normal -5.125839e-01 3.448177e-02 -8.579445e-01
    outer loop
      vertex   -5.448878e+00 2.319387e-01 -9.943550e+00
      vertex   -5.661740e+00 2.471843e-01 -9.815762e+00
      vertex   -5.433037e+00 4.674172e-01 -9.943550e+00
    endloop
  endfacet
  facet normal -4.932288e-01 3.317974e-02 -8.692666e-01
    outer loop
      vertex   -5.448878e+00 2.319387e-01 -9.943550e+00
      vertex   -5.433037e+00 4.674172e-01 -9.943550e+00
      vertex   -5.215673e+00 4.487168e-01 -1.006760e+01
    endloop
  endfacet
  facet normal -4.912716e-01 5.565993e-02 -8.692262e-01
    outer loop
      vertex   -5.215673e+00 4.487168e-01 -1.006760e+01
      vertex   -5.433037e+00 4.674172e-01 -9.943550e+00
      vertex   -5.189744e+00 6.775694e-01 -1.006760e+01
    endloop
  endfacet
  facet normal -4.714115e-01 5.340982e-02 -8.802946e-01
    outer loop
      vertex   -5.215673e+00 4.487168e-01 -1.006760e+01
      vertex   -5.189744e+00 6.775694e-01 -1.006760e+01
      vertex   -4.971562e+00 6.490837e-01 -1.018617e+01
    endloop
  endfacet
  facet normal -4.686022e-01 7.471609e-02 -8.802440e-01
    outer loop
      vertex   -4.971562e+00 6.490837e-01 -1.018617e+01
      vertex   -5.189744e+00 6.775694e-01 -1.006760e+01
      vertex   -4.944906e+00 8.719203e-01 -1.018144e+01
    endloop
  endfacet
  facet normal -4.535560e-01 7.308538e-02 -8.882260e-01
    outer loop
      vertex   -4.971562e+00 6.490837e-01 -1.018617e+01
      vertex   -4.944906e+00 8.719203e-01 -1.018144e+01
      vertex   -4.861818e+00 6.347556e-01 -1.024338e+01
    endloop
  endfacet
  facet normal -4.489139e-01 7.527907e-02 -8.903984e-01
    outer loop
      vertex   -4.861818e+00 6.347556e-01 -1.024338e+01
      vertex   -4.944906e+00 8.719203e-01 -1.018144e+01
      vertex   -4.727618e+00 8.336066e-01 -1.029423e+01
    endloop
  endfacet
  facet normal -4.436152e-01 7.093410e-02 -8.934058e-01
    outer loop
      vertex   -4.861818e+00 6.347556e-01 -1.024338e+01
      vertex   -4.727618e+00 8.336066e-01 -1.029423e+01
      vertex   -4.751670e+00 6.203747e-01 -1.029922e+01
    endloop
  endfacet
  facet normal -5.131105e-01 3.522894e-02 -8.575993e-01
    outer loop
      vertex   -5.661740e+00 2.471843e-01 -9.815762e+00
      vertex   -5.645373e+00 4.938882e-01 -9.815420e+00
      vertex   -5.433037e+00 4.674172e-01 -9.943550e+00
    endloop
  endfacet
  facet normal -5.104940e-01 5.783777e-02 -8.579340e-01
    outer loop
      vertex   -5.433037e+00 4.674172e-01 -9.943550e+00
      vertex   -5.645373e+00 4.938882e-01 -9.815420e+00
      vertex   -5.406028e+00 7.058072e-01 -9.943550e+00
    endloop
  endfacet
  facet normal -4.912716e-01 5.565993e-02 -8.692262e-01
    outer loop
      vertex   -5.433037e+00 4.674172e-01 -9.943550e+00
      vertex   -5.406028e+00 7.058072e-01 -9.943550e+00
      vertex   -5.189744e+00 6.775694e-01 -1.006760e+01
    endloop
  endfacet
  facet normal -4.883218e-01 7.800735e-02 -8.691701e-01
    outer loop
      vertex   -5.189744e+00 6.775694e-01 -1.006760e+01
      vertex   -5.406028e+00 7.058072e-01 -9.943550e+00
      vertex   -5.159455e+00 9.097511e-01 -1.006378e+01
    endloop
  endfacet
  facet normal -4.691891e-01 7.568711e-02 -8.798483e-01
    outer loop
      vertex   -5.189744e+00 6.775694e-01 -1.006760e+01
      vertex   -5.159455e+00 9.097511e-01 -1.006378e+01
      vertex   -4.944906e+00 8.719203e-01 -1.018144e+01
    endloop
  endfacet
  facet normal -5.110004e-01 5.862436e-02 -8.575790e-01
    outer loop
      vertex   -5.645373e+00 4.938882e-01 -9.815420e+00
      vertex   -5.618132e+00 7.396229e-01 -9.814854e+00
      vertex   -5.406028e+00 7.058072e-01 -9.943550e+00
    endloop
  endfacet
  facet normal -5.075229e-01 8.126728e-02 -8.577973e-01
    outer loop
      vertex   -5.406028e+00 7.058072e-01 -9.943550e+00
      vertex   -5.618132e+00 7.396229e-01 -9.814854e+00
      vertex   -5.371199e+00 9.470874e-01 -9.941298e+00
    endloop
  endfacet
  facet normal -4.887210e-01 7.865678e-02 -8.688872e-01
    outer loop
      vertex   -5.406028e+00 7.058072e-01 -9.943550e+00
      vertex   -5.371199e+00 9.470874e-01 -9.941298e+00
      vertex   -5.159455e+00 9.097511e-01 -1.006378e+01
    endloop
  endfacet
  facet normal -5.079023e-01 8.189208e-02 -8.575132e-01
    outer loop
      vertex   -5.618132e+00 7.396229e-01 -9.814854e+00
      vertex   -5.580072e+00 9.839173e-01 -9.814066e+00
      vertex   -5.371199e+00 9.470874e-01 -9.941298e+00
    endloop
  endfacet
  facet normal -3.826583e-01 6.123653e-02 -9.218583e-01
    outer loop
      vertex   -4.195677e+00 5.477847e-01 -1.055758e+01
      vertex   -4.060318e+00 7.159435e-01 -1.060259e+01
      vertex   -4.083592e+00 5.331509e-01 -1.060508e+01
    endloop
  endfacet
  facet normal -4.031295e-01 6.445971e-02 -9.128700e-01
    outer loop
      vertex   -4.419031e+00 5.769456e-01 -1.045840e+01
      vertex   -4.285106e+00 7.555798e-01 -1.050493e+01
      vertex   -4.307498e+00 5.623840e-01 -1.050869e+01
    endloop
  endfacet
  facet normal -3.952863e-01 4.478501e-02 -9.174656e-01
    outer loop
      vertex   -4.329019e+00 3.724359e-01 -1.050869e+01
      vertex   -4.195677e+00 5.477847e-01 -1.055758e+01
      vertex   -4.216639e+00 3.627676e-01 -1.055758e+01
    endloop
  endfacet
  facet normal -3.849746e-01 4.361673e-02 -9.218959e-01
    outer loop
      vertex   -4.216639e+00 3.627676e-01 -1.055758e+01
      vertex   -4.195677e+00 5.477847e-01 -1.055758e+01
      vertex   -4.083592e+00 5.331509e-01 -1.060508e+01
    endloop
  endfacet
  facet normal -4.234544e-01 6.769390e-02 -9.033847e-01
    outer loop
      vertex   -4.641140e+00 6.059440e-01 -1.035367e+01
      vertex   -4.507659e+00 7.948220e-01 -1.040208e+01
      vertex   -4.530253e+00 5.914667e-01 -1.040673e+01
    endloop
  endfacet
  facet normal -4.158073e-01 4.710999e-02 -9.082318e-01
    outer loop
      vertex   -4.552886e+00 3.916957e-01 -1.040673e+01
      vertex   -4.419031e+00 5.769456e-01 -1.045840e+01
      vertex   -4.441109e+00 3.820793e-01 -1.045840e+01
    endloop
  endfacet
  facet normal -4.055646e-01 4.594952e-02 -9.129107e-01
    outer loop
      vertex   -4.441109e+00 3.820793e-01 -1.045840e+01
      vertex   -4.419031e+00 5.769456e-01 -1.045840e+01
      vertex   -4.307498e+00 5.623840e-01 -1.050869e+01
    endloop
  endfacet
  facet normal -4.361768e-01 4.941781e-02 -8.985030e-01
    outer loop
      vertex   -4.775409e+00 4.108399e-01 -1.029922e+01
      vertex   -4.641140e+00 6.059440e-01 -1.035367e+01
      vertex   -4.664328e+00 4.012833e-01 -1.035367e+01
    endloop
  endfacet
  facet normal -4.260121e-01 4.826617e-02 -9.034291e-01
    outer loop
      vertex   -4.664328e+00 4.012833e-01 -1.035367e+01
      vertex   -4.641140e+00 6.059440e-01 -1.035367e+01
      vertex   -4.530253e+00 5.914667e-01 -1.040673e+01
    endloop
  endfacet
  facet normal -4.462992e-01 5.056465e-02 -8.934541e-01
    outer loop
      vertex   -4.751670e+00 6.203747e-01 -1.029922e+01
      vertex   -4.886108e+00 4.203636e-01 -1.024338e+01
      vertex   -4.861818e+00 6.347556e-01 -1.024338e+01
    endloop
  endfacet
  facet normal -4.563769e-01 5.170644e-02 -8.882829e-01
    outer loop
      vertex   -4.861818e+00 6.347556e-01 -1.024338e+01
      vertex   -4.886108e+00 4.203636e-01 -1.024338e+01
      vertex   -4.996401e+00 4.298524e-01 -1.018617e+01
    endloop
  endfacet
  facet normal -4.563769e-01 5.170644e-02 -8.882829e-01
    outer loop
      vertex   -4.861818e+00 6.347556e-01 -1.024338e+01
      vertex   -4.996401e+00 4.298524e-01 -1.018617e+01
      vertex   -4.971562e+00 6.490837e-01 -1.018617e+01
    endloop
  endfacet
  facet normal -4.714115e-01 5.340982e-02 -8.802946e-01
    outer loop
      vertex   -4.971562e+00 6.490837e-01 -1.018617e+01
      vertex   -4.996401e+00 4.298524e-01 -1.018617e+01
      vertex   -5.215673e+00 4.487168e-01 -1.006760e+01
    endloop
  endfacet
  facet normal -3.746319e-01 4.244492e-02 -9.262016e-01
    outer loop
      vertex   -3.971264e+00 5.184854e-01 -1.065118e+01
      vertex   -3.991105e+00 3.433643e-01 -1.065118e+01
      vertex   -4.103994e+00 3.530764e-01 -1.060508e+01
    endloop
  endfacet
  facet normal -3.761170e-01 2.530158e-02 -9.262266e-01
    outer loop
      vertex   -4.103994e+00 3.530764e-01 -1.060508e+01
      vertex   -3.991105e+00 3.433643e-01 -1.065118e+01
      vertex   -4.115959e+00 1.752012e-01 -1.060508e+01
    endloop
  endfacet
  facet normal -3.865013e-01 2.600013e-02 -9.219223e-01
    outer loop
      vertex   -4.103994e+00 3.530764e-01 -1.060508e+01
      vertex   -4.115959e+00 1.752012e-01 -1.060508e+01
      vertex   -4.228934e+00 1.800101e-01 -1.055758e+01
    endloop
  endfacet
  facet normal -4.071742e-01 2.739081e-02 -9.129397e-01
    outer loop
      vertex   -4.454058e+00 1.895929e-01 -1.045840e+01
      vertex   -4.329019e+00 3.724359e-01 -1.050869e+01
      vertex   -4.341641e+00 1.848077e-01 -1.050869e+01
    endloop
  endfacet
  facet normal -3.968545e-01 2.669660e-02 -9.174932e-01
    outer loop
      vertex   -4.341641e+00 1.848077e-01 -1.050869e+01
      vertex   -4.329019e+00 3.724359e-01 -1.050869e+01
      vertex   -4.216639e+00 3.627676e-01 -1.055758e+01
    endloop
  endfacet
  facet normal -4.277043e-01 2.877188e-02 -9.034607e-01
    outer loop
      vertex   -4.677927e+00 1.991222e-01 -1.035367e+01
      vertex   -4.552886e+00 3.916957e-01 -1.040673e+01
      vertex   -4.566161e+00 1.943647e-01 -1.040673e+01
    endloop
  endfacet
  facet normal -4.174582e-01 2.808262e-02 -9.082621e-01
    outer loop
      vertex   -4.566161e+00 1.943647e-01 -1.040673e+01
      vertex   -4.552886e+00 3.916957e-01 -1.040673e+01
      vertex   -4.441109e+00 3.820793e-01 -1.045840e+01
    endloop
  endfacet
  facet normal -4.480735e-01 3.014212e-02 -8.934885e-01
    outer loop
      vertex   -4.900354e+00 2.085901e-01 -1.024338e+01
      vertex   -4.775409e+00 4.108399e-01 -1.029922e+01
      vertex   -4.789333e+00 2.038643e-01 -1.029922e+01
    endloop
  endfacet
  facet normal -4.379101e-01 2.945843e-02 -8.985360e-01
    outer loop
      vertex   -4.789333e+00 2.038643e-01 -1.029922e+01
      vertex   -4.775409e+00 4.108399e-01 -1.029922e+01
      vertex   -4.664328e+00 4.012833e-01 -1.035367e+01
    endloop
  endfacet
  facet normal -4.581921e-01 3.082281e-02 -8.883186e-01
    outer loop
      vertex   -4.886108e+00 4.203636e-01 -1.024338e+01
      vertex   -5.010969e+00 2.132985e-01 -1.018617e+01
      vertex   -4.996401e+00 4.298524e-01 -1.018617e+01
    endloop
  endfacet
  facet normal -4.732877e-01 3.183830e-02 -8.803323e-01
    outer loop
      vertex   -4.996401e+00 4.298524e-01 -1.018617e+01
      vertex   -5.010969e+00 2.132985e-01 -1.018617e+01
      vertex   -5.230880e+00 2.226593e-01 -1.006760e+01
    endloop
  endfacet
  facet normal -4.732877e-01 3.183830e-02 -8.803323e-01
    outer loop
      vertex   -4.996401e+00 4.298524e-01 -1.018617e+01
      vertex   -5.230880e+00 2.226593e-01 -1.006760e+01
      vertex   -5.215673e+00 4.487168e-01 -1.006760e+01
    endloop
  endfacet
  facet normal -4.932288e-01 3.317974e-02 -8.692666e-01
    outer loop
      vertex   -5.215673e+00 4.487168e-01 -1.006760e+01
      vertex   -5.230880e+00 2.226593e-01 -1.006760e+01
      vertex   -5.448878e+00 2.319387e-01 -9.943550e+00
    endloop
  endfacet
  facet normal 1.736482e-01 9.848078e-01 1.887732e-11
    outer loop
      vertex   -3.833512e+00 6.759515e-01 -1.069497e+01
      vertex   -4.060318e+00 7.159435e-01 -1.060259e+01
      vertex   0.000000e+00 0.000000e+00 8.881784e-15
    endloop
  endfacet
  facet normal 1.736482e-01 9.848078e-01 2.438943e-11
    outer loop
      vertex   0.000000e+00 0.000000e+00 8.881784e-15
      vertex   -4.060318e+00 7.159435e-01 -1.060259e+01
      vertex   -4.285106e+00 7.555798e-01 -1.050493e+01
    endloop
  endfacet
  facet normal 1.736482e-01 9.848078e-01 -3.704766e-12
    outer loop
      vertex   0.000000e+00 0.000000e+00 8.881784e-15
      vertex   -4.285106e+00 7.555798e-01 -1.050493e+01
      vertex   -4.507659e+00 7.948220e-01 -1.040208e+01
    endloop
  endfacet
  facet normal 1.736482e-01 9.848078e-01 -1.158912e-11
    outer loop
      vertex   -4.507659e+00 7.948220e-01 -1.040208e+01
      vertex   -4.727618e+00 8.336066e-01 -1.029423e+01
      vertex   0.000000e+00 0.000000e+00 8.881784e-15
    endloop
  endfacet
  facet normal 1.736482e-01 9.848078e-01 -1.532007e-11
    outer loop
      vertex   0.000000e+00 0.000000e+00 8.881784e-15
      vertex   -4.727618e+00 8.336066e-01 -1.029423e+01
      vertex   -4.944906e+00 8.719203e-01 -1.018144e+01
    endloop
  endfacet
  facet normal 1.736482e-01 9.848078e-01 -1.570108e-11
    outer loop
      vertex   0.000000e+00 0.000000e+00 8.881784e-15
      vertex   -4.944906e+00 8.719203e-01 -1.018144e+01
      vertex   -5.159455e+00 9.097511e-01 -1.006378e+01
    endloop
  endfacet
  facet normal 1.736482e-01 9.848078e-01 -1.240832e-11
    outer loop
      vertex   -5.159455e+00 9.097511e-01 -1.006378e+01
      vertex   -5.371199e+00 9.470874e-01 -9.941298e+00
      vertex   0.000000e+00 0.000000e+00 8.881784e-15
    endloop
  endfacet
  facet normal 1.736482e-01 9.848078e-01 -5.121929e-12
    outer loop
      vertex   0.000000e+00 0.000000e+00 8.881784e-15
      vertex   -5.371199e+00 9.470874e-01 -9.941298e+00
      vertex   -5.580072e+00 9.839173e-01 -9.814066e+00
    endloop
  endfacet
  facet normal -8.559973e-01 1.317493e-01 4.999107e-01
    outer loop
      vertex   -5.618132e+00 7.396229e-01 -9.814854e+00
      vertex   -3.745811e+00 4.931373e-01 -6.543918e+00
      vertex   -5.580072e+00 9.839173e-01 -9.814066e+00
    endloop
  endfacet
  facet normal -8.559973e-01 1.317495e-01 4.999107e-01
    outer loop
      vertex   -5.580072e+00 9.839173e-01 -9.814066e+00
      vertex   -3.745811e+00 4.931373e-01 -6.543918e+00
      vertex   -1.872905e+00 2.465706e-01 -3.271959e+00
    endloop
  endfacet
  facet normal -8.559972e-01 1.317501e-01 4.999107e-01
    outer loop
      vertex   -5.580072e+00 9.839173e-01 -9.814066e+00
      vertex   -1.872905e+00 2.465706e-01 -3.271959e+00
      vertex   0.000000e+00 0.000000e+00 8.881784e-15
    endloop
  endfacet
  facet normal -8.609294e-01 9.428527e-02 4.999108e-01
    outer loop
      vertex   -3.745811e+00 4.931373e-01 -6.543918e+00
      vertex   -5.618132e+00 7.396229e-01 -9.814854e+00
      vertex   -3.763756e+00 3.292781e-01 -6.543918e+00
    endloop
  endfacet
  facet normal -8.609296e-01 9.428424e-02 4.999107e-01
    outer loop
      vertex   -3.763756e+00 3.292781e-01 -6.543918e+00
      vertex   -5.618132e+00 7.396229e-01 -9.814854e+00
      vertex   -5.645373e+00 4.938882e-01 -9.815420e+00
    endloop
  endfacet
  facet normal -8.642227e-01 5.664259e-02 4.999108e-01
    outer loop
      vertex   -3.763756e+00 3.292781e-01 -6.543918e+00
      vertex   -5.645373e+00 4.938882e-01 -9.815420e+00
      vertex   -3.774537e+00 1.647942e-01 -6.543918e+00
    endloop
  endfacet
  facet normal -8.642227e-01 5.664192e-02 4.999107e-01
    outer loop
      vertex   -3.774537e+00 1.647942e-01 -6.543918e+00
      vertex   -5.645373e+00 4.938882e-01 -9.815420e+00
      vertex   -5.661740e+00 2.471843e-01 -9.815762e+00
    endloop
  endfacet
  facet normal -8.658708e-01 1.889230e-02 4.999108e-01
    outer loop
      vertex   -3.774537e+00 1.647942e-01 -6.543918e+00
      vertex   -5.661740e+00 2.471843e-01 -9.815762e+00
      vertex   -5.667199e+00 -2.234572e-15 -9.815876e+00
    endloop
  endfacet
  facet normal -8.658708e-01 1.889262e-02 4.999108e-01
    outer loop
      vertex   -3.774537e+00 1.647942e-01 -6.543918e+00
      vertex   -5.667199e+00 -2.234572e-15 -9.815876e+00
      vertex   -1.887268e+00 8.239851e-02 -3.271959e+00
    endloop
  endfacet
  facet normal -8.658708e-01 1.889305e-02 4.999108e-01
    outer loop
      vertex   -1.887268e+00 8.239851e-02 -3.271959e+00
      vertex   -5.667199e+00 -2.234572e-15 -9.815876e+00
      vertex   0.000000e+00 0.000000e+00 8.881784e-15
    endloop
  endfacet
  facet normal -8.642226e-01 5.664337e-02 4.999108e-01
    outer loop
      vertex   -1.887268e+00 8.239851e-02 -3.271959e+00
      vertex   0.000000e+00 0.000000e+00 8.881784e-15
      vertex   -1.881878e+00 1.646410e-01 -3.271959e+00
    endloop
  endfacet
  facet normal -8.609294e-01 9.428618e-02 4.999108e-01
    outer loop
      vertex   -1.881878e+00 1.646410e-01 -3.271959e+00
      vertex   0.000000e+00 0.000000e+00 8.881784e-15
      vertex   -1.872905e+00 2.465706e-01 -3.271959e+00
    endloop
  endfacet
  facet normal -8.609293e-01 9.428618e-02 4.999108e-01
    outer loop
      vertex   -1.881878e+00 1.646410e-01 -3.271959e+00
      vertex   -1.872905e+00 2.465706e-01 -3.271959e+00
      vertex   -3.745811e+00 4.931373e-01 -6.543918e+00
    endloop
  endfacet
  facet normal -8.609295e-01 9.428527e-02 4.999107e-01
    outer loop
      vertex   -1.881878e+00 1.646410e-01 -3.271959e+00
      vertex   -3.745811e+00 4.931373e-01 -6.543918e+00
      vertex   -3.763756e+00 3.292781e-01 -6.543918e+00
    endloop
  endfacet
  facet normal -8.642226e-01 5.664337e-02 4.999108e-01
    outer loop
      vertex   -1.887268e+00 8.239851e-02 -3.271959e+00
      vertex   -1.881878e+00 1.646410e-01 -3.271959e+00
      vertex   -3.763756e+00 3.292781e-01 -6.543918e+00
    endloop
  endfacet
  facet normal -8.642227e-01 5.664259e-02 4.999107e-01
    outer loop
      vertex   -1.887268e+00 8.239851e-02 -3.271959e+00
      vertex   -3.763756e+00 3.292781e-01 -6.543918e+00
      vertex   -3.774537e+00 1.647942e-01 -6.543918e+00
    endloop
  endfacet
  facet normal 9.394022e-01 -2.049723e-02 -3.422038e-01
    outer loop
      vertex   -3.889262e+00 1.698051e-01 -1.069584e+01
      vertex   -2.590935e+00 1.509048e-01 -7.130599e+00
      vertex   -3.892988e+00 -1.535002e-15 -1.069590e+01
    endloop
  endfacet
  facet normal 9.393416e-01 -2.733205e-02 -3.418924e-01
    outer loop
      vertex   -3.892988e+00 -1.535002e-15 -1.069590e+01
      vertex   -2.590935e+00 1.509048e-01 -7.130599e+00
      vertex   -1.295467e+00 7.545238e-02 -3.565299e+00
    endloop
  endfacet
  facet normal 9.393416e-01 -2.733205e-02 -3.418924e-01
    outer loop
      vertex   -3.892988e+00 -1.535002e-15 -1.069590e+01
      vertex   -1.295467e+00 7.545238e-02 -3.565299e+00
      vertex   0.000000e+00 0.000000e+00 8.881784e-15
    endloop
  endfacet
  facet normal 9.377532e-01 -6.146282e-02 -3.418205e-01
    outer loop
      vertex   -3.889262e+00 1.698051e-01 -1.069584e+01
      vertex   -3.878090e+00 3.392845e-01 -1.069566e+01
      vertex   -2.590935e+00 1.509048e-01 -7.130599e+00
    endloop
  endfacet
  facet normal 9.360241e-01 -8.189150e-02 -3.422757e-01
    outer loop
      vertex   -2.590935e+00 1.509048e-01 -7.130599e+00
      vertex   -3.878090e+00 3.392845e-01 -1.069566e+01
      vertex   -2.577777e+00 3.012989e-01 -7.130599e+00
    endloop
  endfacet
  facet normal 9.361631e-01 -8.190366e-02 -3.418924e-01
    outer loop
      vertex   -2.590935e+00 1.509048e-01 -7.130599e+00
      vertex   -2.577777e+00 3.012989e-01 -7.130599e+00
      vertex   -1.288888e+00 1.506495e-01 -3.565299e+00
    endloop
  endfacet
  facet normal 9.298170e-01 -1.361981e-01 -3.418924e-01
    outer loop
      vertex   -1.288888e+00 1.506495e-01 -3.565299e+00
      vertex   -2.577777e+00 3.012989e-01 -7.130599e+00
      vertex   -3.833512e+00 6.759515e-01 -1.069497e+01
    endloop
  endfacet
  facet normal 9.298170e-01 -1.361981e-01 -3.418924e-01
    outer loop
      vertex   -1.288888e+00 1.506495e-01 -3.565299e+00
      vertex   -3.833512e+00 6.759515e-01 -1.069497e+01
      vertex   0.000000e+00 0.000000e+00 8.881784e-15
    endloop
  endfacet
  facet normal 9.341797e-01 -1.023083e-01 -3.418205e-01
    outer loop
      vertex   -3.878090e+00 3.392845e-01 -1.069566e+01
      vertex   -3.859494e+00 5.081065e-01 -1.069537e+01
      vertex   -2.577777e+00 3.012989e-01 -7.130599e+00
    endloop
  endfacet
  facet normal 9.286901e-01 -1.429378e-01 -3.422038e-01
    outer loop
      vertex   -2.577777e+00 3.012989e-01 -7.130599e+00
      vertex   -3.859494e+00 5.081065e-01 -1.069537e+01
      vertex   -3.833512e+00 6.759515e-01 -1.069497e+01
    endloop
  endfacet
  facet normal 9.361631e-01 -8.190366e-02 -3.418924e-01
    outer loop
      vertex   -1.288888e+00 1.506495e-01 -3.565299e+00
      vertex   0.000000e+00 0.000000e+00 8.881784e-15
      vertex   -1.295467e+00 7.545238e-02 -3.565299e+00
    endloop
  endfacet
  facet normal 9.361631e-01 -8.190366e-02 -3.418924e-01
    outer loop
      vertex   -1.288888e+00 1.506495e-01 -3.565299e+00
      vertex   -1.295467e+00 7.545238e-02 -3.565299e+00
      vertex   -2.590935e+00 1.509048e-01 -7.130599e+00
    endloop
  endfacet
endsolid
