solid ASCII
  facet normal 1.736482e-01 -9.848078e-01 7.950286e-16
    outer loop
      vertex   5.580072e+00 9.839173e-01 9.814066e+00
      vertex   0.000000e+00 0.000000e+00 0.000000e+00
      vertex   5.785508e+00 1.020141e+00 9.682470e+00
    endloop
  endfacet
  facet normal 1.736482e-01 -9.848078e-01 -1.591388e-16
    outer loop
      vertex   5.785508e+00 1.020141e+00 9.682470e+00
      vertex   0.000000e+00 0.000000e+00 0.000000e+00
      vertex   5.987953e+00 1.055838e+00 9.546264e+00
    endloop
  endfacet
  facet normal 1.736482e-01 -9.848078e-01 6.569154e-16
    outer loop
      vertex   5.987953e+00 1.055838e+00 9.546264e+00
      vertex   0.000000e+00 0.000000e+00 0.000000e+00
      vertex   6.187340e+00 1.090995e+00 9.405511e+00
    endloop
  endfacet
  facet normal 1.736482e-01 -9.848078e-01 -2.987743e-17
    outer loop
      vertex   6.187340e+00 1.090995e+00 9.405511e+00
      vertex   0.000000e+00 0.000000e+00 0.000000e+00
      vertex   6.383602e+00 1.125601e+00 9.260269e+00
    endloop
  endfacet
  facet normal 1.736482e-01 -9.848078e-01 2.989148e-17
    outer loop
      vertex   6.383602e+00 1.125601e+00 9.260269e+00
      vertex   0.000000e+00 0.000000e+00 0.000000e+00
      vertex   6.576672e+00 1.159645e+00 9.110599e+00
    endloop
  endfacet
  facet normal 1.736482e-01 -9.848078e-01 3.289216e-16
    outer loop
      vertex   6.576672e+00 1.159645e+00 9.110599e+00
      vertex   0.000000e+00 0.000000e+00 0.000000e+00
      vertex   6.766484e+00 1.193114e+00 8.956562e+00
    endloop
  endfacet
  facet normal 1.736482e-01 -9.848078e-01 -1.495446e-15
    outer loop
      vertex   6.766484e+00 1.193114e+00 8.956562e+00
      vertex   0.000000e+00 0.000000e+00 0.000000e+00
      vertex   6.952971e+00 1.225996e+00 8.798218e+00
    endloop
  endfacet
  facet normal 1.736482e-01 -9.848078e-01 -1.555442e-15
    outer loop
      vertex   6.952971e+00 1.225996e+00 8.798218e+00
      vertex   0.000000e+00 0.000000e+00 0.000000e+00
      vertex   7.136066e+00 1.258281e+00 8.635627e+00
    endloop
  endfacet
  facet normal 5.018885e-01 1.855583e-01 8.447935e-01
    outer loop
      vertex   5.517285e+00 2.008128e+00 9.676972e+00
      vertex   5.321618e+00 1.936911e+00 9.808860e+00
      vertex   5.553772e+00 1.882294e+00 9.682935e+00
    endloop
  endfacet
  facet normal 5.012081e-01 1.779817e-01 8.468252e-01
    outer loop
      vertex   5.553772e+00 1.882294e+00 9.682935e+00
      vertex   5.321618e+00 1.936911e+00 9.808860e+00
      vertex   5.401931e+00 1.703171e+00 9.810452e+00
    endloop
  endfacet
  facet normal 5.057838e-01 1.729126e-01 8.451532e-01
    outer loop
      vertex   5.553772e+00 1.882294e+00 9.682935e+00
      vertex   5.401931e+00 1.703171e+00 9.810452e+00
      vertex   5.595827e+00 1.759280e+00 9.682935e+00
    endloop
  endfacet
  facet normal 5.093130e-01 1.611732e-01 8.453540e-01
    outer loop
      vertex   5.595827e+00 1.759280e+00 9.682935e+00
      vertex   5.401931e+00 1.703171e+00 9.810452e+00
      vertex   5.634825e+00 1.636044e+00 9.682935e+00
    endloop
  endfacet
  facet normal 5.270486e-01 1.667856e-01 8.333081e-01
    outer loop
      vertex   5.595827e+00 1.759280e+00 9.682935e+00
      vertex   5.634825e+00 1.636044e+00 9.682935e+00
      vertex   5.832004e+00 1.693294e+00 9.546765e+00
    endloop
  endfacet
  facet normal 5.306119e-01 1.546857e-01 8.333807e-01
    outer loop
      vertex   5.832004e+00 1.693294e+00 9.546765e+00
      vertex   5.634825e+00 1.636044e+00 9.682935e+00
      vertex   5.869223e+00 1.565621e+00 9.546765e+00
    endloop
  endfacet
  facet normal 5.483781e-01 1.598650e-01 8.208074e-01
    outer loop
      vertex   5.832004e+00 1.693294e+00 9.546765e+00
      vertex   5.869223e+00 1.565621e+00 9.546765e+00
      vertex   6.065241e+00 1.617909e+00 9.405623e+00
    endloop
  endfacet
  facet normal 5.534126e-01 1.411388e-01 8.208620e-01
    outer loop
      vertex   6.065241e+00 1.617909e+00 9.405623e+00
      vertex   5.869223e+00 1.565621e+00 9.546765e+00
      vertex   6.132528e+00 1.354073e+00 9.405623e+00
    endloop
  endfacet
  facet normal 5.666860e-01 1.445239e-01 8.111595e-01
    outer loop
      vertex   6.065241e+00 1.617909e+00 9.405623e+00
      vertex   6.132528e+00 1.354073e+00 9.405623e+00
      vertex   6.230656e+00 1.375739e+00 9.333209e+00
    endloop
  endfacet
  facet normal 5.724310e-01 1.189197e-01 8.112835e-01
    outer loop
      vertex   6.230656e+00 1.375739e+00 9.333209e+00
      vertex   6.132528e+00 1.354073e+00 9.405623e+00
      vertex   6.187340e+00 1.090995e+00 9.405511e+00
    endloop
  endfacet
  facet normal 5.772994e-01 1.173592e-01 8.080546e-01
    outer loop
      vertex   6.230656e+00 1.375739e+00 9.333209e+00
      vertex   6.187340e+00 1.090995e+00 9.405511e+00
      vertex   6.383602e+00 1.125601e+00 9.260269e+00
    endloop
  endfacet
  facet normal 5.084536e-01 1.550289e-01 8.470189e-01
    outer loop
      vertex   5.401931e+00 1.703171e+00 9.810452e+00
      vertex   5.471868e+00 1.466120e+00 9.811857e+00
      vertex   5.634825e+00 1.636044e+00 9.682935e+00
    endloop
  endfacet
  facet normal 5.128763e-01 1.495154e-01 8.453420e-01
    outer loop
      vertex   5.634825e+00 1.636044e+00 9.682935e+00
      vertex   5.471868e+00 1.466120e+00 9.811857e+00
      vertex   5.670787e+00 1.512688e+00 9.682935e+00
    endloop
  endfacet
  facet normal 5.306119e-01 1.546857e-01 8.333807e-01
    outer loop
      vertex   5.634825e+00 1.636044e+00 9.682935e+00
      vertex   5.670787e+00 1.512688e+00 9.682935e+00
      vertex   5.869223e+00 1.565621e+00 9.546765e+00
    endloop
  endfacet
  facet normal 5.354810e-01 1.365656e-01 8.334326e-01
    outer loop
      vertex   5.869223e+00 1.565621e+00 9.546765e+00
      vertex   5.670787e+00 1.512688e+00 9.682935e+00
      vertex   5.934336e+00 1.310311e+00 9.546765e+00
    endloop
  endfacet
  facet normal 5.534126e-01 1.411388e-01 8.208620e-01
    outer loop
      vertex   5.869223e+00 1.565621e+00 9.546765e+00
      vertex   5.934336e+00 1.310311e+00 9.546765e+00
      vertex   6.132528e+00 1.354073e+00 9.405623e+00
    endloop
  endfacet
  facet normal 5.590117e-01 1.161672e-01 8.209818e-01
    outer loop
      vertex   6.132528e+00 1.354073e+00 9.405623e+00
      vertex   5.934336e+00 1.310311e+00 9.546765e+00
      vertex   5.987953e+00 1.055838e+00 9.546264e+00
    endloop
  endfacet
  facet normal 5.590610e-01 1.161299e-01 8.209535e-01
    outer loop
      vertex   6.132528e+00 1.354073e+00 9.405623e+00
      vertex   5.987953e+00 1.055838e+00 9.546264e+00
      vertex   6.187340e+00 1.090995e+00 9.405511e+00
    endloop
  endfacet
  facet normal 5.170914e-01 1.323314e-01 8.456388e-01
    outer loop
      vertex   5.471868e+00 1.466120e+00 9.811857e+00
      vertex   5.531288e+00 1.226212e+00 9.813065e+00
      vertex   5.670787e+00 1.512688e+00 9.682935e+00
    endloop
  endfacet
  facet normal 5.175617e-01 1.319956e-01 8.454035e-01
    outer loop
      vertex   5.670787e+00 1.512688e+00 9.682935e+00
      vertex   5.531288e+00 1.226212e+00 9.813065e+00
      vertex   5.733698e+00 1.266010e+00 9.682935e+00
    endloop
  endfacet
  facet normal 5.354810e-01 1.365656e-01 8.334326e-01
    outer loop
      vertex   5.670787e+00 1.512688e+00 9.682935e+00
      vertex   5.733698e+00 1.266010e+00 9.682935e+00
      vertex   5.934336e+00 1.310311e+00 9.546765e+00
    endloop
  endfacet
  facet normal 5.408934e-01 1.124032e-01 8.335465e-01
    outer loop
      vertex   5.934336e+00 1.310311e+00 9.546765e+00
      vertex   5.733698e+00 1.266010e+00 9.682935e+00
      vertex   5.785508e+00 1.020141e+00 9.682470e+00
    endloop
  endfacet
  facet normal 5.409733e-01 1.123419e-01 8.335030e-01
    outer loop
      vertex   5.934336e+00 1.310311e+00 9.546765e+00
      vertex   5.785508e+00 1.020141e+00 9.682470e+00
      vertex   5.987953e+00 1.055838e+00 9.546264e+00
    endloop
  endfacet
  facet normal 5.223777e-01 1.086715e-01 8.457612e-01
    outer loop
      vertex   5.531288e+00 1.226212e+00 9.813065e+00
      vertex   5.580072e+00 9.839173e-01 9.814066e+00
      vertex   5.733698e+00 1.266010e+00 9.682935e+00
    endloop
  endfacet
  facet normal 5.225715e-01 1.085194e-01 8.456610e-01
    outer loop
      vertex   5.733698e+00 1.266010e+00 9.682935e+00
      vertex   5.580072e+00 9.839173e-01 9.814066e+00
      vertex   5.785508e+00 1.020141e+00 9.682470e+00
    endloop
  endfacet
  facet normal 5.947458e-01 1.210656e-01 7.947456e-01
    outer loop
      vertex   6.576672e+00 1.159645e+00 9.110599e+00
      vertex   6.424874e+00 1.418623e+00 9.184746e+00
      vertex   6.383602e+00 1.125601e+00 9.260269e+00
    endloop
  endfacet
  facet normal 5.900815e-01 1.225580e-01 7.979870e-01
    outer loop
      vertex   6.383602e+00 1.125601e+00 9.260269e+00
      vertex   6.424874e+00 1.418623e+00 9.184746e+00
      vertex   6.328111e+00 1.397258e+00 9.259580e+00
    endloop
  endfacet
  facet normal 5.812848e-01 1.207781e-01 8.046867e-01
    outer loop
      vertex   6.383602e+00 1.125601e+00 9.260269e+00
      vertex   6.328111e+00 1.397258e+00 9.259580e+00
      vertex   6.230656e+00 1.375739e+00 9.333209e+00
    endloop
  endfacet
  facet normal 5.754521e-01 1.467596e-01 8.045598e-01
    outer loop
      vertex   6.230656e+00 1.375739e+00 9.333209e+00
      vertex   6.328111e+00 1.397258e+00 9.259580e+00
      vertex   6.162292e+00 1.643797e+00 9.333209e+00
    endloop
  endfacet
  facet normal 5.666860e-01 1.445239e-01 8.111595e-01
    outer loop
      vertex   6.230656e+00 1.375739e+00 9.333209e+00
      vertex   6.162292e+00 1.643797e+00 9.333209e+00
      vertex   6.065241e+00 1.617909e+00 9.405623e+00
    endloop
  endfacet
  facet normal 5.615289e-01 1.636987e-01 8.111029e-01
    outer loop
      vertex   6.065241e+00 1.617909e+00 9.405623e+00
      vertex   6.162292e+00 1.643797e+00 9.333209e+00
      vertex   6.026778e+00 1.749846e+00 9.405623e+00
    endloop
  endfacet
  facet normal 5.483781e-01 1.598650e-01 8.208074e-01
    outer loop
      vertex   6.065241e+00 1.617909e+00 9.405623e+00
      vertex   6.026778e+00 1.749846e+00 9.405623e+00
      vertex   5.832004e+00 1.693294e+00 9.546765e+00
    endloop
  endfacet
  facet normal 5.446922e-01 1.723690e-01 8.207310e-01
    outer loop
      vertex   5.832004e+00 1.693294e+00 9.546765e+00
      vertex   6.026778e+00 1.749846e+00 9.405623e+00
      vertex   5.791641e+00 1.820842e+00 9.546765e+00
    endloop
  endfacet
  facet normal 5.270486e-01 1.667856e-01 8.333081e-01
    outer loop
      vertex   5.832004e+00 1.693294e+00 9.546765e+00
      vertex   5.791641e+00 1.820842e+00 9.546765e+00
      vertex   5.595827e+00 1.759280e+00 9.682935e+00
    endloop
  endfacet
  facet normal 5.231966e-01 1.788655e-01 8.332302e-01
    outer loop
      vertex   5.595827e+00 1.759280e+00 9.682935e+00
      vertex   5.791641e+00 1.820842e+00 9.546765e+00
      vertex   5.553772e+00 1.882294e+00 9.682935e+00
    endloop
  endfacet
  facet normal 6.118682e-01 1.247000e-01 7.810680e-01
    outer loop
      vertex   6.766484e+00 1.193114e+00 8.956562e+00
      vertex   6.616244e+00 1.460878e+00 9.031507e+00
      vertex   6.576672e+00 1.159645e+00 9.110599e+00
    endloop
  endfacet
  facet normal 6.074440e-01 1.261261e-01 7.842857e-01
    outer loop
      vertex   6.576672e+00 1.159645e+00 9.110599e+00
      vertex   6.616244e+00 1.460878e+00 9.031507e+00
      vertex   6.520925e+00 1.439831e+00 9.108718e+00
    endloop
  endfacet
  facet normal 5.987786e-01 1.244483e-01 7.911869e-01
    outer loop
      vertex   6.576672e+00 1.159645e+00 9.110599e+00
      vertex   6.520925e+00 1.439831e+00 9.108718e+00
      vertex   6.424874e+00 1.418623e+00 9.184746e+00
    endloop
  endfacet
  facet normal 5.927720e-01 1.511767e-01 7.910543e-01
    outer loop
      vertex   6.424874e+00 1.418623e+00 9.184746e+00
      vertex   6.520925e+00 1.439831e+00 9.108718e+00
      vertex   6.354379e+00 1.695037e+00 9.184746e+00
    endloop
  endfacet
  facet normal 5.841480e-01 1.489773e-01 7.978577e-01
    outer loop
      vertex   6.424874e+00 1.418623e+00 9.184746e+00
      vertex   6.354379e+00 1.695037e+00 9.184746e+00
      vertex   6.258678e+00 1.669508e+00 9.259580e+00
    endloop
  endfacet
  facet normal 5.788295e-01 1.687423e-01 7.977985e-01
    outer loop
      vertex   6.258678e+00 1.669508e+00 9.259580e+00
      vertex   6.354379e+00 1.695037e+00 9.184746e+00
      vertex   6.218989e+00 1.805653e+00 9.259580e+00
    endloop
  endfacet
  facet normal 5.702140e-01 1.662307e-01 8.045019e-01
    outer loop
      vertex   6.258678e+00 1.669508e+00 9.259580e+00
      vertex   6.218989e+00 1.805653e+00 9.259580e+00
      vertex   6.123214e+00 1.777845e+00 9.333209e+00
    endloop
  endfacet
  facet normal 5.663771e-01 1.792312e-01 8.044210e-01
    outer loop
      vertex   6.123214e+00 1.777845e+00 9.333209e+00
      vertex   6.218989e+00 1.805653e+00 9.259580e+00
      vertex   6.080836e+00 1.911763e+00 9.333209e+00
    endloop
  endfacet
  facet normal 5.577522e-01 1.765018e-01 8.110238e-01
    outer loop
      vertex   6.123214e+00 1.777845e+00 9.333209e+00
      vertex   6.080836e+00 1.911763e+00 9.333209e+00
      vertex   5.985067e+00 1.881654e+00 9.405623e+00
    endloop
  endfacet
  facet normal 5.536696e-01 1.892833e-01 8.109389e-01
    outer loop
      vertex   5.985067e+00 1.881654e+00 9.405623e+00
      vertex   6.080836e+00 1.911763e+00 9.333209e+00
      vertex   5.940087e+00 2.013225e+00 9.405623e+00
    endloop
  endfacet
  facet normal 5.407078e-01 1.848521e-01 8.206490e-01
    outer loop
      vertex   5.985067e+00 1.881654e+00 9.405623e+00
      vertex   5.940087e+00 2.013225e+00 9.405623e+00
      vertex   5.748114e+00 1.948161e+00 9.546765e+00
    endloop
  endfacet
  facet normal 5.367132e-01 1.964709e-01 8.205718e-01
    outer loop
      vertex   5.748114e+00 1.948161e+00 9.546765e+00
      vertex   5.940087e+00 2.013225e+00 9.405623e+00
      vertex   5.710089e+00 2.078302e+00 9.540477e+00
    endloop
  endfacet
  facet normal 5.195376e-01 1.920331e-01 8.325887e-01
    outer loop
      vertex   5.748114e+00 1.948161e+00 9.546765e+00
      vertex   5.710089e+00 2.078302e+00 9.540477e+00
      vertex   5.517285e+00 2.008128e+00 9.676972e+00
    endloop
  endfacet
  facet normal 6.286617e-01 1.282627e-01 7.670288e-01
    outer loop
      vertex   6.952971e+00 1.225996e+00 8.798218e+00
      vertex   6.804609e+00 1.502469e+00 8.873584e+00
      vertex   6.766484e+00 1.193114e+00 8.956562e+00
    endloop
  endfacet
  facet normal 6.268740e-01 1.288488e-01 7.683925e-01
    outer loop
      vertex   6.766484e+00 1.193114e+00 8.956562e+00
      vertex   6.804609e+00 1.502469e+00 8.873584e+00
      vertex   6.757808e+00 1.492135e+00 8.913499e+00
    endloop
  endfacet
  facet normal 6.223789e-01 1.292341e-01 7.719735e-01
    outer loop
      vertex   6.766484e+00 1.193114e+00 8.956562e+00
      vertex   6.757808e+00 1.492135e+00 8.913499e+00
      vertex   6.710812e+00 1.481759e+00 8.953125e+00
    endloop
  endfacet
  facet normal 6.161028e-01 1.571269e-01 7.718345e-01
    outer loop
      vertex   6.710812e+00 1.481759e+00 8.953125e+00
      vertex   6.757808e+00 1.492135e+00 8.913499e+00
      vertex   6.637180e+00 1.770474e+00 8.953125e+00
    endloop
  endfacet
  facet normal 6.097974e-01 1.555188e-01 7.771493e-01
    outer loop
      vertex   6.710812e+00 1.481759e+00 8.953125e+00
      vertex   6.637180e+00 1.770474e+00 8.953125e+00
      vertex   6.543649e+00 1.745524e+00 9.031507e+00
    endloop
  endfacet
  facet normal 6.042413e-01 1.761504e-01 7.770866e-01
    outer loop
      vertex   6.543649e+00 1.745524e+00 9.031507e+00
      vertex   6.637180e+00 1.770474e+00 8.953125e+00
      vertex   6.502153e+00 1.887868e+00 9.031507e+00
    endloop
  endfacet
  facet normal 5.958448e-01 1.737026e-01 7.840896e-01
    outer loop
      vertex   6.543649e+00 1.745524e+00 9.031507e+00
      vertex   6.502153e+00 1.887868e+00 9.031507e+00
      vertex   6.408478e+00 1.860670e+00 9.108718e+00
    endloop
  endfacet
  facet normal 5.918299e-01 1.872858e-01 7.840034e-01
    outer loop
      vertex   6.408478e+00 1.860670e+00 9.108718e+00
      vertex   6.502153e+00 1.887868e+00 9.031507e+00
      vertex   6.364125e+00 2.000826e+00 9.108718e+00
    endloop
  endfacet
  facet normal 5.834177e-01 1.846237e-01 7.909095e-01
    outer loop
      vertex   6.408478e+00 1.860670e+00 9.108718e+00
      vertex   6.364125e+00 2.000826e+00 9.108718e+00
      vertex   6.270384e+00 1.971355e+00 9.184746e+00
    endloop
  endfacet
  facet normal 5.791415e-01 1.979914e-01 7.908189e-01
    outer loop
      vertex   6.270384e+00 1.971355e+00 9.184746e+00
      vertex   6.364125e+00 2.000826e+00 9.108718e+00
      vertex   6.223259e+00 2.109198e+00 9.184746e+00
    endloop
  endfacet
  facet normal 5.707208e-01 1.951126e-01 7.976270e-01
    outer loop
      vertex   6.270384e+00 1.971355e+00 9.184746e+00
      vertex   6.223259e+00 2.109198e+00 9.184746e+00
      vertex   6.129533e+00 2.077432e+00 9.259580e+00
    endloop
  endfacet
  facet normal 5.663032e-01 2.079334e-01 7.975365e-01
    outer loop
      vertex   6.129533e+00 2.077432e+00 9.259580e+00
      vertex   6.223259e+00 2.109198e+00 9.184746e+00
      vertex   6.086856e+00 2.215434e+00 9.253904e+00
    endloop
  endfacet
  facet normal 5.576390e-01 2.055297e-01 8.042365e-01
    outer loop
      vertex   6.129533e+00 2.077432e+00 9.259580e+00
      vertex   6.086856e+00 2.215434e+00 9.253904e+00
      vertex   6.035136e+00 2.045439e+00 9.333209e+00
    endloop
  endfacet
  facet normal 5.525717e-01 2.083609e-01 8.070008e-01
    outer loop
      vertex   6.035136e+00 2.045439e+00 9.333209e+00
      vertex   6.086856e+00 2.215434e+00 9.253904e+00
      vertex   5.899967e+00 2.147412e+00 9.399433e+00
    endloop
  endfacet
  facet normal 5.494076e-01 2.016652e-01 8.108529e-01
    outer loop
      vertex   6.035136e+00 2.045439e+00 9.333209e+00
      vertex   5.899967e+00 2.147412e+00 9.399433e+00
      vertex   5.940087e+00 2.013225e+00 9.405623e+00
    endloop
  endfacet
  facet normal 5.369058e-01 1.983490e-01 8.199938e-01
    outer loop
      vertex   5.940087e+00 2.013225e+00 9.405623e+00
      vertex   5.899967e+00 2.147412e+00 9.399433e+00
      vertex   5.710089e+00 2.078302e+00 9.540477e+00
    endloop
  endfacet
  facet normal 6.451212e-01 1.317533e-01 7.526351e-01
    outer loop
      vertex   7.136066e+00 1.258281e+00 8.635627e+00
      vertex   6.989818e+00 1.543364e+00 8.711077e+00
      vertex   6.952971e+00 1.225996e+00 8.798218e+00
    endloop
  endfacet
  facet normal 6.412499e-01 1.330470e-01 7.557097e-01
    outer loop
      vertex   6.952971e+00 1.225996e+00 8.798218e+00
      vertex   6.989818e+00 1.543364e+00 8.711077e+00
      vertex   6.897618e+00 1.523006e+00 8.792897e+00
    endloop
  endfacet
  facet normal 6.328593e-01 1.316138e-01 7.629986e-01
    outer loop
      vertex   6.952971e+00 1.225996e+00 8.798218e+00
      vertex   6.897618e+00 1.523006e+00 8.792897e+00
      vertex   6.804609e+00 1.502469e+00 8.873584e+00
    endloop
  endfacet
  facet normal 6.265153e-01 1.597824e-01 7.628553e-01
    outer loop
      vertex   6.804609e+00 1.502469e+00 8.873584e+00
      vertex   6.897618e+00 1.523006e+00 8.792897e+00
      vertex   6.729948e+00 1.795220e+00 8.873584e+00
    endloop
  endfacet
  facet normal 6.202825e-01 1.581928e-01 7.682608e-01
    outer loop
      vertex   6.804609e+00 1.502469e+00 8.873584e+00
      vertex   6.729948e+00 1.795220e+00 8.873584e+00
      vertex   6.683660e+00 1.782872e+00 8.913499e+00
    endloop
  endfacet
  facet normal 6.146291e-01 1.791787e-01 7.681966e-01
    outer loop
      vertex   6.683660e+00 1.782872e+00 8.913499e+00
      vertex   6.729948e+00 1.795220e+00 8.873584e+00
      vertex   6.641276e+00 1.928262e+00 8.913499e+00
    endloop
  endfacet
  facet normal 6.104883e-01 1.779715e-01 7.717708e-01
    outer loop
      vertex   6.683660e+00 1.782872e+00 8.913499e+00
      vertex   6.641276e+00 1.928262e+00 8.913499e+00
      vertex   6.595090e+00 1.914852e+00 8.953125e+00
    endloop
  endfacet
  facet normal 6.063715e-01 1.918875e-01 7.716818e-01
    outer loop
      vertex   6.595090e+00 1.914852e+00 8.953125e+00
      vertex   6.641276e+00 1.928262e+00 8.913499e+00
      vertex   6.549446e+00 2.059090e+00 8.953125e+00
    endloop
  endfacet
  facet normal 6.001680e-01 1.899244e-01 7.769988e-01
    outer loop
      vertex   6.595090e+00 1.914852e+00 8.953125e+00
      vertex   6.549446e+00 2.059090e+00 8.953125e+00
      vertex   6.457152e+00 2.030073e+00 9.031507e+00
    endloop
  endfacet
  facet normal 5.957651e-01 2.036745e-01 7.769045e-01
    outer loop
      vertex   6.457152e+00 2.030073e+00 9.031507e+00
      vertex   6.549446e+00 2.059090e+00 8.953125e+00
      vertex   6.408624e+00 2.172022e+00 9.031507e+00
    endloop
  endfacet
  facet normal 5.874901e-01 2.008455e-01 7.839110e-01
    outer loop
      vertex   6.457152e+00 2.030073e+00 9.031507e+00
      vertex   6.408624e+00 2.172022e+00 9.031507e+00
      vertex   6.316296e+00 2.140730e+00 9.108718e+00
    endloop
  endfacet
  facet normal 5.829136e-01 2.141139e-01 7.838157e-01
    outer loop
      vertex   6.316296e+00 2.140730e+00 9.108718e+00
      vertex   6.408624e+00 2.172022e+00 9.031507e+00
      vertex   6.270692e+00 2.282345e+00 9.103948e+00
    endloop
  endfacet
  facet normal 5.744410e-01 2.116179e-01 7.907183e-01
    outer loop
      vertex   6.316296e+00 2.140730e+00 9.108718e+00
      vertex   6.270692e+00 2.282345e+00 9.103948e+00
      vertex   6.223259e+00 2.109198e+00 9.184746e+00
    endloop
  endfacet
  facet normal 5.693527e-01 2.143795e-01 7.936491e-01
    outer loop
      vertex   6.223259e+00 2.109198e+00 9.184746e+00
      vertex   6.270692e+00 2.282345e+00 9.103948e+00
      vertex   6.086856e+00 2.215434e+00 9.253904e+00
    endloop
  endfacet
  facet normal 6.496629e-01 1.352866e-01 7.480880e-01
    outer loop
      vertex   7.136066e+00 1.258281e+00 8.635627e+00
      vertex   7.073228e+00 1.568002e+00 8.634186e+00
      vertex   6.989818e+00 1.543364e+00 8.711077e+00
    endloop
  endfacet
  facet normal 6.420616e-01 1.637472e-01 7.489618e-01
    outer loop
      vertex   6.989818e+00 1.543364e+00 8.711077e+00
      vertex   7.073228e+00 1.568002e+00 8.634186e+00
      vertex   6.913125e+00 1.844082e+00 8.711077e+00
    endloop
  endfacet
  facet normal 6.347550e-01 1.618838e-01 7.555658e-01
    outer loop
      vertex   6.989818e+00 1.543364e+00 8.711077e+00
      vertex   6.913125e+00 1.844082e+00 8.711077e+00
      vertex   6.821936e+00 1.819758e+00 8.792897e+00
    endloop
  endfacet
  facet normal 6.289673e-01 1.833586e-01 7.554997e-01
    outer loop
      vertex   6.821936e+00 1.819758e+00 8.792897e+00
      vertex   6.913125e+00 1.844082e+00 8.711077e+00
      vertex   6.778675e+00 1.968155e+00 8.792897e+00
    endloop
  endfacet
  facet normal 6.208041e-01 1.809788e-01 7.627902e-01
    outer loop
      vertex   6.821936e+00 1.819758e+00 8.792897e+00
      vertex   6.778675e+00 1.968155e+00 8.792897e+00
      vertex   6.687270e+00 1.941616e+00 8.873584e+00
    endloop
  endfacet
  facet normal 6.166153e-01 1.951292e-01 7.626993e-01
    outer loop
      vertex   6.687270e+00 1.941616e+00 8.873584e+00
      vertex   6.778675e+00 1.968155e+00 8.792897e+00
      vertex   6.640988e+00 2.087870e+00 8.873584e+00
    endloop
  endfacet
  facet normal 6.104834e-01 1.931887e-01 7.681068e-01
    outer loop
      vertex   6.687270e+00 1.941616e+00 8.873584e+00
      vertex   6.640988e+00 2.087870e+00 8.873584e+00
      vertex   6.595312e+00 2.073510e+00 8.913499e+00
    endloop
  endfacet
  facet normal 6.060023e-01 2.071743e-01 7.680105e-01
    outer loop
      vertex   6.595312e+00 2.073510e+00 8.913499e+00
      vertex   6.640988e+00 2.087870e+00 8.873584e+00
      vertex   6.545745e+00 2.218496e+00 8.913499e+00
    endloop
  endfacet
  facet normal 6.019215e-01 2.057792e-01 7.715863e-01
    outer loop
      vertex   6.595312e+00 2.073510e+00 8.913499e+00
      vertex   6.545745e+00 2.218496e+00 8.913499e+00
      vertex   6.500224e+00 2.203068e+00 8.953125e+00
    endloop
  endfacet
  facet normal 5.971669e-01 2.195490e-01 7.714855e-01
    outer loop
      vertex   6.500224e+00 2.203068e+00 8.953125e+00
      vertex   6.545745e+00 2.218496e+00 8.913499e+00
      vertex   6.451412e+00 2.348122e+00 8.949629e+00
    endloop
  endfacet
  facet normal 5.909609e-01 2.175888e-01 7.768013e-01
    outer loop
      vertex   6.500224e+00 2.203068e+00 8.953125e+00
      vertex   6.451412e+00 2.348122e+00 8.949629e+00
      vertex   6.408624e+00 2.172022e+00 9.031507e+00
    endloop
  endfacet
  facet normal 5.858156e-01 2.202937e-01 7.799300e-01
    outer loop
      vertex   6.408624e+00 2.172022e+00 9.031507e+00
      vertex   6.451412e+00 2.348122e+00 8.949629e+00
      vertex   6.270692e+00 2.282345e+00 9.103948e+00
    endloop
  endfacet
  facet normal 6.432397e-01 1.647751e-01 7.477245e-01
    outer loop
      vertex   7.073228e+00 1.568002e+00 8.634186e+00
      vertex   6.996702e+00 1.874628e+00 8.632448e+00
      vertex   6.913125e+00 1.844082e+00 8.711077e+00
    endloop
  endfacet
  facet normal 6.364955e-01 1.855533e-01 7.486277e-01
    outer loop
      vertex   6.913125e+00 1.844082e+00 8.711077e+00
      vertex   6.996702e+00 1.874628e+00 8.632448e+00
      vertex   6.869285e+00 1.994463e+00 8.711077e+00
    endloop
  endfacet
  facet normal 6.289673e-01 1.833586e-01 7.554997e-01
    outer loop
      vertex   6.913125e+00 1.844082e+00 8.711077e+00
      vertex   6.869285e+00 1.994463e+00 8.711077e+00
      vertex   6.778675e+00 1.968155e+00 8.792897e+00
    endloop
  endfacet
  facet normal 6.247214e-01 1.976944e-01 7.554072e-01
    outer loop
      vertex   6.778675e+00 1.968155e+00 8.792897e+00
      vertex   6.869285e+00 1.994463e+00 8.711077e+00
      vertex   6.731760e+00 2.116408e+00 8.792897e+00
    endloop
  endfacet
  facet normal 6.166153e-01 1.951292e-01 7.626993e-01
    outer loop
      vertex   6.778675e+00 1.968155e+00 8.792897e+00
      vertex   6.731760e+00 2.116408e+00 8.792897e+00
      vertex   6.640988e+00 2.087870e+00 8.873584e+00
    endloop
  endfacet
  facet normal 6.120876e-01 2.092547e-01 7.626016e-01
    outer loop
      vertex   6.640988e+00 2.087870e+00 8.873584e+00
      vertex   6.731760e+00 2.116408e+00 8.792897e+00
      vertex   6.591078e+00 2.233860e+00 8.873584e+00
    endloop
  endfacet
  facet normal 6.060023e-01 2.071743e-01 7.680105e-01
    outer loop
      vertex   6.640988e+00 2.087870e+00 8.873584e+00
      vertex   6.591078e+00 2.233860e+00 8.873584e+00
      vertex   6.545745e+00 2.218496e+00 8.913499e+00
    endloop
  endfacet
  facet normal 6.005254e-01 2.229978e-01 7.678810e-01
    outer loop
      vertex   6.545745e+00 2.218496e+00 8.913499e+00
      vertex   6.591078e+00 2.233860e+00 8.873584e+00
      vertex   6.451412e+00 2.348122e+00 8.949629e+00
    endloop
  endfacet
  facet normal 6.416959e-01 1.957154e-01 7.415671e-01
    outer loop
      vertex   6.996702e+00 1.874628e+00 8.632448e+00
      vertex   6.906647e+00 2.177549e+00 8.630427e+00
      vertex   6.869285e+00 1.994463e+00 8.711077e+00
    endloop
  endfacet
  facet normal 6.329093e-01 2.002855e-01 7.478713e-01
    outer loop
      vertex   6.869285e+00 1.994463e+00 8.711077e+00
      vertex   6.906647e+00 2.177549e+00 8.630427e+00
      vertex   6.821743e+00 2.144698e+00 8.711077e+00
    endloop
  endfacet
  facet normal 6.247214e-01 1.976944e-01 7.554072e-01
    outer loop
      vertex   6.869285e+00 1.994463e+00 8.711077e+00
      vertex   6.821743e+00 2.144698e+00 8.711077e+00
      vertex   6.731760e+00 2.116408e+00 8.792897e+00
    endloop
  endfacet
  facet normal 6.201321e-01 2.120049e-01 7.553080e-01
    outer loop
      vertex   6.731760e+00 2.116408e+00 8.792897e+00
      vertex   6.821743e+00 2.144698e+00 8.711077e+00
      vertex   6.681168e+00 2.264393e+00 8.792897e+00
    endloop
  endfacet
  facet normal 6.120876e-01 2.092547e-01 7.626016e-01
    outer loop
      vertex   6.731760e+00 2.116408e+00 8.792897e+00
      vertex   6.681168e+00 2.264393e+00 8.792897e+00
      vertex   6.591078e+00 2.233860e+00 8.873584e+00
    endloop
  endfacet
  facet normal 6.071842e-01 2.234435e-01 7.624961e-01
    outer loop
      vertex   6.591078e+00 2.233860e+00 8.873584e+00
      vertex   6.681168e+00 2.264393e+00 8.792897e+00
      vertex   6.628952e+00 2.412741e+00 8.791005e+00
    endloop
  endfacet
  facet normal 6.019569e-01 2.260989e-01 7.658506e-01
    outer loop
      vertex   6.591078e+00 2.233860e+00 8.873584e+00
      vertex   6.628952e+00 2.412741e+00 8.791005e+00
      vertex   6.451412e+00 2.348122e+00 8.949629e+00
    endloop
  endfacet
  facet normal 6.277369e-01 2.146047e-01 7.482588e-01
    outer loop
      vertex   6.821743e+00 2.144698e+00 8.711077e+00
      vertex   6.906647e+00 2.177549e+00 8.630427e+00
      vertex   6.770475e+00 2.294662e+00 8.711077e+00
    endloop
  endfacet
  facet normal 6.323058e-01 2.246100e-01 7.414444e-01
    outer loop
      vertex   6.770475e+00 2.294662e+00 8.711077e+00
      vertex   6.906647e+00 2.177549e+00 8.630427e+00
      vertex   6.803250e+00 2.476181e+00 8.628138e+00
    endloop
  endfacet
  facet normal 6.177728e-01 2.317913e-01 7.514183e-01
    outer loop
      vertex   6.770475e+00 2.294662e+00 8.711077e+00
      vertex   6.803250e+00 2.476181e+00 8.628138e+00
      vertex   6.628952e+00 2.412741e+00 8.791005e+00
    endloop
  endfacet
  facet normal 5.193482e-01 1.900696e-01 8.331573e-01
    outer loop
      vertex   5.748114e+00 1.948161e+00 9.546765e+00
      vertex   5.517285e+00 2.008128e+00 9.676972e+00
      vertex   5.553772e+00 1.882294e+00 9.682935e+00
    endloop
  endfacet
  facet normal 5.407078e-01 1.848521e-01 8.206490e-01
    outer loop
      vertex   5.985067e+00 1.881654e+00 9.405623e+00
      vertex   5.748114e+00 1.948161e+00 9.546765e+00
      vertex   5.791641e+00 1.820842e+00 9.546765e+00
    endloop
  endfacet
  facet normal 5.231966e-01 1.788655e-01 8.332302e-01
    outer loop
      vertex   5.791641e+00 1.820842e+00 9.546765e+00
      vertex   5.748114e+00 1.948161e+00 9.546765e+00
      vertex   5.553772e+00 1.882294e+00 9.682935e+00
    endloop
  endfacet
  facet normal 5.536696e-01 1.892833e-01 8.109389e-01
    outer loop
      vertex   5.940087e+00 2.013225e+00 9.405623e+00
      vertex   6.080836e+00 1.911763e+00 9.333209e+00
      vertex   6.035136e+00 2.045439e+00 9.333209e+00
    endloop
  endfacet
  facet normal 5.622296e-01 1.922097e-01 8.043341e-01
    outer loop
      vertex   6.035136e+00 2.045439e+00 9.333209e+00
      vertex   6.080836e+00 1.911763e+00 9.333209e+00
      vertex   6.175948e+00 1.941665e+00 9.259580e+00
    endloop
  endfacet
  facet normal 5.622296e-01 1.922097e-01 8.043341e-01
    outer loop
      vertex   6.035136e+00 2.045439e+00 9.333209e+00
      vertex   6.175948e+00 1.941665e+00 9.259580e+00
      vertex   6.129533e+00 2.077432e+00 9.259580e+00
    endloop
  endfacet
  facet normal 5.707208e-01 1.951126e-01 7.976270e-01
    outer loop
      vertex   6.129533e+00 2.077432e+00 9.259580e+00
      vertex   6.175948e+00 1.941665e+00 9.259580e+00
      vertex   6.270384e+00 1.971355e+00 9.184746e+00
    endloop
  endfacet
  facet normal 5.874901e-01 2.008455e-01 7.839110e-01
    outer loop
      vertex   6.457152e+00 2.030073e+00 9.031507e+00
      vertex   6.316296e+00 2.140730e+00 9.108718e+00
      vertex   6.364125e+00 2.000826e+00 9.108718e+00
    endloop
  endfacet
  facet normal 5.791415e-01 1.979914e-01 7.908189e-01
    outer loop
      vertex   6.364125e+00 2.000826e+00 9.108718e+00
      vertex   6.316296e+00 2.140730e+00 9.108718e+00
      vertex   6.223259e+00 2.109198e+00 9.184746e+00
    endloop
  endfacet
  facet normal 6.019215e-01 2.057792e-01 7.715863e-01
    outer loop
      vertex   6.595312e+00 2.073510e+00 8.913499e+00
      vertex   6.500224e+00 2.203068e+00 8.953125e+00
      vertex   6.549446e+00 2.059090e+00 8.953125e+00
    endloop
  endfacet
  facet normal 5.957651e-01 2.036745e-01 7.769045e-01
    outer loop
      vertex   6.549446e+00 2.059090e+00 8.953125e+00
      vertex   6.500224e+00 2.203068e+00 8.953125e+00
      vertex   6.408624e+00 2.172022e+00 9.031507e+00
    endloop
  endfacet
  facet normal 6.152310e-01 2.261828e-01 7.552034e-01
    outer loop
      vertex   6.770475e+00 2.294662e+00 8.711077e+00
      vertex   6.628952e+00 2.412741e+00 8.791005e+00
      vertex   6.681168e+00 2.264393e+00 8.792897e+00
    endloop
  endfacet
  facet normal 6.201321e-01 2.120049e-01 7.553080e-01
    outer loop
      vertex   6.821743e+00 2.144698e+00 8.711077e+00
      vertex   6.770475e+00 2.294662e+00 8.711077e+00
      vertex   6.681168e+00 2.264393e+00 8.792897e+00
    endloop
  endfacet
  facet normal 5.577522e-01 1.765018e-01 8.110238e-01
    outer loop
      vertex   6.123214e+00 1.777845e+00 9.333209e+00
      vertex   5.985067e+00 1.881654e+00 9.405623e+00
      vertex   6.026778e+00 1.749846e+00 9.405623e+00
    endloop
  endfacet
  facet normal 5.446922e-01 1.723690e-01 8.207310e-01
    outer loop
      vertex   6.026778e+00 1.749846e+00 9.405623e+00
      vertex   5.985067e+00 1.881654e+00 9.405623e+00
      vertex   5.791641e+00 1.820842e+00 9.546765e+00
    endloop
  endfacet
  facet normal 5.663771e-01 1.792312e-01 8.044210e-01
    outer loop
      vertex   6.080836e+00 1.911763e+00 9.333209e+00
      vertex   6.218989e+00 1.805653e+00 9.259580e+00
      vertex   6.175948e+00 1.941665e+00 9.259580e+00
    endloop
  endfacet
  facet normal 5.749329e-01 1.819387e-01 7.977158e-01
    outer loop
      vertex   6.175948e+00 1.941665e+00 9.259580e+00
      vertex   6.218989e+00 1.805653e+00 9.259580e+00
      vertex   6.314083e+00 1.833263e+00 9.184746e+00
    endloop
  endfacet
  facet normal 5.749329e-01 1.819387e-01 7.977158e-01
    outer loop
      vertex   6.175948e+00 1.941665e+00 9.259580e+00
      vertex   6.314083e+00 1.833263e+00 9.184746e+00
      vertex   6.270384e+00 1.971355e+00 9.184746e+00
    endloop
  endfacet
  facet normal 5.834177e-01 1.846237e-01 7.909095e-01
    outer loop
      vertex   6.270384e+00 1.971355e+00 9.184746e+00
      vertex   6.314083e+00 1.833263e+00 9.184746e+00
      vertex   6.408478e+00 1.860670e+00 9.108718e+00
    endloop
  endfacet
  facet normal 6.001680e-01 1.899244e-01 7.769988e-01
    outer loop
      vertex   6.595090e+00 1.914852e+00 8.953125e+00
      vertex   6.457152e+00 2.030073e+00 9.031507e+00
      vertex   6.502153e+00 1.887868e+00 9.031507e+00
    endloop
  endfacet
  facet normal 5.918299e-01 1.872858e-01 7.840034e-01
    outer loop
      vertex   6.502153e+00 1.887868e+00 9.031507e+00
      vertex   6.457152e+00 2.030073e+00 9.031507e+00
      vertex   6.364125e+00 2.000826e+00 9.108718e+00
    endloop
  endfacet
  facet normal 6.104834e-01 1.931887e-01 7.681068e-01
    outer loop
      vertex   6.687270e+00 1.941616e+00 8.873584e+00
      vertex   6.595312e+00 2.073510e+00 8.913499e+00
      vertex   6.641276e+00 1.928262e+00 8.913499e+00
    endloop
  endfacet
  facet normal 6.063715e-01 1.918875e-01 7.716818e-01
    outer loop
      vertex   6.641276e+00 1.928262e+00 8.913499e+00
      vertex   6.595312e+00 2.073510e+00 8.913499e+00
      vertex   6.549446e+00 2.059090e+00 8.953125e+00
    endloop
  endfacet
  facet normal 5.615289e-01 1.636987e-01 8.111029e-01
    outer loop
      vertex   6.123214e+00 1.777845e+00 9.333209e+00
      vertex   6.026778e+00 1.749846e+00 9.405623e+00
      vertex   6.162292e+00 1.643797e+00 9.333209e+00
    endloop
  endfacet
  facet normal 5.702140e-01 1.662307e-01 8.045019e-01
    outer loop
      vertex   6.123214e+00 1.777845e+00 9.333209e+00
      vertex   6.162292e+00 1.643797e+00 9.333209e+00
      vertex   6.258678e+00 1.669508e+00 9.259580e+00
    endloop
  endfacet
  facet normal 5.754521e-01 1.467596e-01 8.045598e-01
    outer loop
      vertex   6.258678e+00 1.669508e+00 9.259580e+00
      vertex   6.162292e+00 1.643797e+00 9.333209e+00
      vertex   6.328111e+00 1.397258e+00 9.259580e+00
    endloop
  endfacet
  facet normal 5.841480e-01 1.489773e-01 7.978577e-01
    outer loop
      vertex   6.258678e+00 1.669508e+00 9.259580e+00
      vertex   6.328111e+00 1.397258e+00 9.259580e+00
      vertex   6.424874e+00 1.418623e+00 9.184746e+00
    endloop
  endfacet
  facet normal 5.788295e-01 1.687423e-01 7.977985e-01
    outer loop
      vertex   6.314083e+00 1.833263e+00 9.184746e+00
      vertex   6.218989e+00 1.805653e+00 9.259580e+00
      vertex   6.354379e+00 1.695037e+00 9.184746e+00
    endloop
  endfacet
  facet normal 5.873736e-01 1.712331e-01 7.909940e-01
    outer loop
      vertex   6.408478e+00 1.860670e+00 9.108718e+00
      vertex   6.314083e+00 1.833263e+00 9.184746e+00
      vertex   6.449376e+00 1.720377e+00 9.108718e+00
    endloop
  endfacet
  facet normal 5.873736e-01 1.712331e-01 7.909940e-01
    outer loop
      vertex   6.449376e+00 1.720377e+00 9.108718e+00
      vertex   6.314083e+00 1.833263e+00 9.184746e+00
      vertex   6.354379e+00 1.695037e+00 9.184746e+00
    endloop
  endfacet
  facet normal 5.927720e-01 1.511767e-01 7.910543e-01
    outer loop
      vertex   6.449376e+00 1.720377e+00 9.108718e+00
      vertex   6.354379e+00 1.695037e+00 9.184746e+00
      vertex   6.520925e+00 1.439831e+00 9.108718e+00
    endloop
  endfacet
  facet normal 5.958448e-01 1.737026e-01 7.840896e-01
    outer loop
      vertex   6.408478e+00 1.860670e+00 9.108718e+00
      vertex   6.449376e+00 1.720377e+00 9.108718e+00
      vertex   6.543649e+00 1.745524e+00 9.031507e+00
    endloop
  endfacet
  facet normal 6.013223e-01 1.533574e-01 7.841511e-01
    outer loop
      vertex   6.543649e+00 1.745524e+00 9.031507e+00
      vertex   6.449376e+00 1.720377e+00 9.108718e+00
      vertex   6.616244e+00 1.460878e+00 9.031507e+00
    endloop
  endfacet
  facet normal 6.097974e-01 1.555188e-01 7.771493e-01
    outer loop
      vertex   6.543649e+00 1.745524e+00 9.031507e+00
      vertex   6.616244e+00 1.460878e+00 9.031507e+00
      vertex   6.710812e+00 1.481759e+00 8.953125e+00
    endloop
  endfacet
  facet normal 6.159743e-01 1.280621e-01 7.772874e-01
    outer loop
      vertex   6.710812e+00 1.481759e+00 8.953125e+00
      vertex   6.616244e+00 1.460878e+00 9.031507e+00
      vertex   6.766484e+00 1.193114e+00 8.956562e+00
    endloop
  endfacet
  facet normal 6.013223e-01 1.533574e-01 7.841511e-01
    outer loop
      vertex   6.616244e+00 1.460878e+00 9.031507e+00
      vertex   6.449376e+00 1.720377e+00 9.108718e+00
      vertex   6.520925e+00 1.439831e+00 9.108718e+00
    endloop
  endfacet
  facet normal 6.042413e-01 1.761504e-01 7.770866e-01
    outer loop
      vertex   6.595090e+00 1.914852e+00 8.953125e+00
      vertex   6.502153e+00 1.887868e+00 9.031507e+00
      vertex   6.637180e+00 1.770474e+00 8.953125e+00
    endloop
  endfacet
  facet normal 6.104883e-01 1.779715e-01 7.717708e-01
    outer loop
      vertex   6.595090e+00 1.914852e+00 8.953125e+00
      vertex   6.637180e+00 1.770474e+00 8.953125e+00
      vertex   6.683660e+00 1.782872e+00 8.913499e+00
    endloop
  endfacet
  facet normal 6.161028e-01 1.571269e-01 7.718345e-01
    outer loop
      vertex   6.683660e+00 1.782872e+00 8.913499e+00
      vertex   6.637180e+00 1.770474e+00 8.953125e+00
      vertex   6.757808e+00 1.492135e+00 8.913499e+00
    endloop
  endfacet
  facet normal 6.202825e-01 1.581928e-01 7.682608e-01
    outer loop
      vertex   6.683660e+00 1.782872e+00 8.913499e+00
      vertex   6.757808e+00 1.492135e+00 8.913499e+00
      vertex   6.804609e+00 1.502469e+00 8.873584e+00
    endloop
  endfacet
  facet normal 6.146291e-01 1.791787e-01 7.681966e-01
    outer loop
      vertex   6.687270e+00 1.941616e+00 8.873584e+00
      vertex   6.641276e+00 1.928262e+00 8.913499e+00
      vertex   6.729948e+00 1.795220e+00 8.873584e+00
    endloop
  endfacet
  facet normal 6.208041e-01 1.809788e-01 7.627902e-01
    outer loop
      vertex   6.687270e+00 1.941616e+00 8.873584e+00
      vertex   6.729948e+00 1.795220e+00 8.873584e+00
      vertex   6.821936e+00 1.819758e+00 8.792897e+00
    endloop
  endfacet
  facet normal 6.265153e-01 1.597824e-01 7.628553e-01
    outer loop
      vertex   6.821936e+00 1.819758e+00 8.792897e+00
      vertex   6.729948e+00 1.795220e+00 8.873584e+00
      vertex   6.897618e+00 1.523006e+00 8.792897e+00
    endloop
  endfacet
  facet normal 6.347550e-01 1.618838e-01 7.555658e-01
    outer loop
      vertex   6.821936e+00 1.819758e+00 8.792897e+00
      vertex   6.897618e+00 1.523006e+00 8.792897e+00
      vertex   6.989818e+00 1.543364e+00 8.711077e+00
    endloop
  endfacet
  facet normal -3.420201e-01 9.396926e-01 -1.393083e-16
    outer loop
      vertex   5.321618e+00 1.936911e+00 9.808860e+00
      vertex   5.517285e+00 2.008128e+00 9.676972e+00
      vertex   0.000000e+00 0.000000e+00 0.000000e+00
    endloop
  endfacet
  facet normal -3.420201e-01 9.396926e-01 -1.274782e-15
    outer loop
      vertex   0.000000e+00 0.000000e+00 0.000000e+00
      vertex   5.517285e+00 2.008128e+00 9.676972e+00
      vertex   5.710089e+00 2.078302e+00 9.540477e+00
    endloop
  endfacet
  facet normal -3.420201e-01 9.396926e-01 3.189330e-15
    outer loop
      vertex   0.000000e+00 0.000000e+00 0.000000e+00
      vertex   5.710089e+00 2.078302e+00 9.540477e+00
      vertex   5.899967e+00 2.147412e+00 9.399433e+00
    endloop
  endfacet
  facet normal -3.420201e-01 9.396926e-01 7.778831e-16
    outer loop
      vertex   5.899967e+00 2.147412e+00 9.399433e+00
      vertex   6.086856e+00 2.215434e+00 9.253904e+00
      vertex   0.000000e+00 0.000000e+00 0.000000e+00
    endloop
  endfacet
  facet normal -3.420201e-01 9.396926e-01 6.385833e-16
    outer loop
      vertex   0.000000e+00 0.000000e+00 0.000000e+00
      vertex   6.086856e+00 2.215434e+00 9.253904e+00
      vertex   6.270692e+00 2.282345e+00 9.103948e+00
    endloop
  endfacet
  facet normal -3.420201e-01 9.396926e-01 6.388275e-16
    outer loop
      vertex   0.000000e+00 0.000000e+00 0.000000e+00
      vertex   6.270692e+00 2.282345e+00 9.103948e+00
      vertex   6.451412e+00 2.348122e+00 8.949629e+00
    endloop
  endfacet
  facet normal -3.420201e-01 9.396926e-01 4.592784e-16
    outer loop
      vertex   6.451412e+00 2.348122e+00 8.949629e+00
      vertex   6.628952e+00 2.412741e+00 8.791005e+00
      vertex   0.000000e+00 0.000000e+00 0.000000e+00
    endloop
  endfacet
  facet normal -3.420201e-01 9.396926e-01 -2.556358e-15
    outer loop
      vertex   0.000000e+00 0.000000e+00 0.000000e+00
      vertex   6.628952e+00 2.412741e+00 8.791005e+00
      vertex   6.803250e+00 2.476181e+00 8.628138e+00
    endloop
  endfacet
  facet normal -8.494361e-01 -1.689598e-01 4.999108e-01
    outer loop
      vertex   5.531288e+00 1.226212e+00 9.813065e+00
      vertex   3.687900e+00 8.175676e-01 6.542711e+00
      vertex   5.580072e+00 9.839173e-01 9.814066e+00
    endloop
  endfacet
  facet normal -8.494360e-01 -1.689606e-01 4.999108e-01
    outer loop
      vertex   5.580072e+00 9.839173e-01 9.814066e+00
      vertex   3.687900e+00 8.175676e-01 6.542711e+00
      vertex   1.843949e+00 4.087886e-01 3.271355e+00
    endloop
  endfacet
  facet normal -8.494357e-01 -1.689621e-01 4.999108e-01
    outer loop
      vertex   5.580072e+00 9.839173e-01 9.814066e+00
      vertex   1.843949e+00 4.087886e-01 3.271355e+00
      vertex   0.000000e+00 0.000000e+00 0.000000e+00
    endloop
  endfacet
  facet normal -8.412576e-01 -2.058517e-01 4.999108e-01
    outer loop
      vertex   0.000000e+00 0.000000e+00 0.000000e+00
      vertex   1.843949e+00 4.087886e-01 3.271355e+00
      vertex   1.824363e+00 4.888297e-01 3.271355e+00
    endloop
  endfacet
  facet normal -8.412588e-01 -2.058466e-01 4.999107e-01
    outer loop
      vertex   5.531288e+00 1.226212e+00 9.813065e+00
      vertex   5.471868e+00 1.466120e+00 9.811857e+00
      vertex   3.687900e+00 8.175676e-01 6.542711e+00
    endloop
  endfacet
  facet normal -8.412582e-01 -2.058491e-01 4.999108e-01
    outer loop
      vertex   3.687900e+00 8.175676e-01 6.542711e+00
      vertex   5.471868e+00 1.466120e+00 9.811857e+00
      vertex   3.648730e+00 9.776465e-01 6.542711e+00
    endloop
  endfacet
  facet normal -8.412582e-01 -2.058491e-01 4.999107e-01
    outer loop
      vertex   3.687900e+00 8.175676e-01 6.542711e+00
      vertex   3.648730e+00 9.776465e-01 6.542711e+00
      vertex   1.843949e+00 4.087886e-01 3.271355e+00
    endloop
  endfacet
  facet normal -8.412576e-01 -2.058517e-01 4.999108e-01
    outer loop
      vertex   1.843949e+00 4.087886e-01 3.271355e+00
      vertex   3.648730e+00 9.776465e-01 6.542711e+00
      vertex   1.824363e+00 4.888297e-01 3.271355e+00
    endloop
  endfacet
  facet normal -8.314794e-01 -2.423453e-01 4.999107e-01
    outer loop
      vertex   5.471868e+00 1.466120e+00 9.811857e+00
      vertex   5.401931e+00 1.703171e+00 9.810452e+00
      vertex   3.648730e+00 9.776465e-01 6.542711e+00
    endloop
  endfacet
  facet normal -8.314785e-01 -2.423481e-01 4.999108e-01
    outer loop
      vertex   3.648730e+00 9.776465e-01 6.542711e+00
      vertex   5.401931e+00 1.703171e+00 9.810452e+00
      vertex   3.602611e+00 1.135876e+00 6.542711e+00
    endloop
  endfacet
  facet normal -8.314786e-01 -2.423481e-01 4.999107e-01
    outer loop
      vertex   3.648730e+00 9.776465e-01 6.542711e+00
      vertex   3.602611e+00 1.135876e+00 6.542711e+00
      vertex   1.824363e+00 4.888297e-01 3.271355e+00
    endloop
  endfacet
  facet normal -8.314778e-01 -2.423508e-01 4.999108e-01
    outer loop
      vertex   1.824363e+00 4.888297e-01 3.271355e+00
      vertex   3.602611e+00 1.135876e+00 6.542711e+00
      vertex   1.801304e+00 5.679432e-01 3.271355e+00
    endloop
  endfacet
  facet normal -8.314778e-01 -2.423508e-01 4.999107e-01
    outer loop
      vertex   1.824363e+00 4.888297e-01 3.271355e+00
      vertex   1.801304e+00 5.679432e-01 3.271355e+00
      vertex   0.000000e+00 0.000000e+00 0.000000e+00
    endloop
  endfacet
  facet normal -8.201156e-01 -2.783879e-01 4.999107e-01
    outer loop
      vertex   5.401931e+00 1.703171e+00 9.810452e+00
      vertex   5.321618e+00 1.936911e+00 9.808860e+00
      vertex   3.602611e+00 1.135876e+00 6.542711e+00
    endloop
  endfacet
  facet normal -8.201153e-01 -2.783885e-01 4.999107e-01
    outer loop
      vertex   3.602611e+00 1.135876e+00 6.542711e+00
      vertex   5.321618e+00 1.936911e+00 9.808860e+00
      vertex   1.801304e+00 5.679432e-01 3.271355e+00
    endloop
  endfacet
  facet normal -8.201147e-01 -2.783901e-01 4.999107e-01
    outer loop
      vertex   5.321618e+00 1.936911e+00 9.808860e+00
      vertex   0.000000e+00 0.000000e+00 0.000000e+00
      vertex   1.801304e+00 5.679432e-01 3.271355e+00
    endloop
  endfacet
  facet normal 7.254628e-01 2.462586e-01 -6.426978e-01
    outer loop
      vertex   0.000000e+00 0.000000e+00 0.000000e+00
      vertex   6.803250e+00 2.476181e+00 8.628138e+00
      vertex   3.455396e+00 1.089455e+00 4.317813e+00
    endloop
  endfacet
  facet normal 7.254637e-01 2.462562e-01 -6.426977e-01
    outer loop
      vertex   3.455396e+00 1.089455e+00 4.317813e+00
      vertex   6.803250e+00 2.476181e+00 8.628138e+00
      vertex   6.906647e+00 2.177549e+00 8.630427e+00
    endloop
  endfacet
  facet normal 7.355148e-01 2.143766e-01 -6.426979e-01
    outer loop
      vertex   3.455396e+00 1.089455e+00 4.317813e+00
      vertex   6.906647e+00 2.177549e+00 8.630427e+00
      vertex   3.499631e+00 9.376899e-01 4.317813e+00
    endloop
  endfacet
  facet normal 7.355167e-01 2.143707e-01 -6.426977e-01
    outer loop
      vertex   3.499631e+00 9.376899e-01 4.317813e+00
      vertex   6.906647e+00 2.177549e+00 8.630427e+00
      vertex   6.996702e+00 1.874628e+00 8.632448e+00
    endloop
  endfacet
  facet normal 7.441656e-01 1.820901e-01 -6.426980e-01
    outer loop
      vertex   3.499631e+00 9.376899e-01 4.317813e+00
      vertex   6.996702e+00 1.874628e+00 8.632448e+00
      vertex   3.537199e+00 7.841543e-01 4.317813e+00
    endloop
  endfacet
  facet normal 7.441671e-01 1.820846e-01 -6.426978e-01
    outer loop
      vertex   3.537199e+00 7.841543e-01 4.317813e+00
      vertex   6.996702e+00 1.874628e+00 8.632448e+00
      vertex   7.073228e+00 1.568002e+00 8.634186e+00
    endloop
  endfacet
  facet normal 7.513999e-01 1.494575e-01 -6.426979e-01
    outer loop
      vertex   3.537199e+00 7.841543e-01 4.317813e+00
      vertex   7.073228e+00 1.568002e+00 8.634186e+00
      vertex   7.136066e+00 1.258281e+00 8.635627e+00
    endloop
  endfacet
  facet normal 7.513995e-01 1.494601e-01 -6.426979e-01
    outer loop
      vertex   7.136066e+00 1.258281e+00 8.635627e+00
      vertex   0.000000e+00 0.000000e+00 0.000000e+00
      vertex   3.537199e+00 7.841543e-01 4.317813e+00
    endloop
  endfacet
  facet normal 7.441657e-01 1.820902e-01 -6.426978e-01
    outer loop
      vertex   3.537199e+00 7.841543e-01 4.317813e+00
      vertex   0.000000e+00 0.000000e+00 0.000000e+00
      vertex   3.499631e+00 9.376899e-01 4.317813e+00
    endloop
  endfacet
  facet normal 7.355149e-01 2.143767e-01 -6.426978e-01
    outer loop
      vertex   3.499631e+00 9.376899e-01 4.317813e+00
      vertex   0.000000e+00 0.000000e+00 0.000000e+00
      vertex   3.455396e+00 1.089455e+00 4.317813e+00
    endloop
  endfacet
endsolid
