solid ASCII
  facet normal -3.420201e-01 9.396926e-01 6.551869e-16
    outer loop
      vertex   -1.862320e+00 -6.778290e-01 1.123957e+01
      vertex   -1.632190e+00 -5.940686e-01 1.128284e+01
      vertex   0.000000e+00 0.000000e+00 -8.881784e-15
    endloop
  endfacet
  facet normal -3.420201e-01 9.396926e-01 0.000000e+00
    outer loop
      vertex   0.000000e+00 0.000000e+00 -8.881784e-15
      vertex   -1.632190e+00 -5.940686e-01 1.128284e+01
      vertex   -1.401127e+00 -5.099687e-01 1.132041e+01
    endloop
  endfacet
  facet normal -3.420201e-01 9.396926e-01 -2.735219e-16
    outer loop
      vertex   0.000000e+00 0.000000e+00 -8.881784e-15
      vertex   -1.401127e+00 -5.099687e-01 1.132041e+01
      vertex   -1.169219e+00 -4.255607e-01 1.135227e+01
    endloop
  endfacet
  facet normal -3.420201e-01 9.396926e-01 -3.562995e-16
    outer loop
      vertex   -1.169219e+00 -4.255607e-01 1.135227e+01
      vertex   -9.365496e-01 -3.408762e-01 1.137839e+01
      vertex   0.000000e+00 0.000000e+00 -8.881784e-15
    endloop
  endfacet
  facet normal -3.420201e-01 9.396926e-01 -3.901339e-16
    outer loop
      vertex   0.000000e+00 0.000000e+00 -8.881784e-15
      vertex   -9.365496e-01 -3.408762e-01 1.137839e+01
      vertex   -7.032069e-01 -2.559464e-01 1.139875e+01
    endloop
  endfacet
  facet normal -3.420201e-01 9.396926e-01 -2.679539e-16
    outer loop
      vertex   0.000000e+00 0.000000e+00 -8.881784e-15
      vertex   -7.032069e-01 -2.559464e-01 1.139875e+01
      vertex   -4.692768e-01 -1.708028e-01 1.141332e+01
    endloop
  endfacet
  facet normal -3.420201e-01 9.396926e-01 -1.849251e-16
    outer loop
      vertex   -4.692768e-01 -1.708028e-01 1.141332e+01
      vertex   -2.348456e-01 -8.547682e-02 1.142208e+01
      vertex   0.000000e+00 0.000000e+00 -8.881784e-15
    endloop
  endfacet
  facet normal -3.420201e-01 9.396926e-01 -2.030112e-17
    outer loop
      vertex   0.000000e+00 0.000000e+00 -8.881784e-15
      vertex   -2.348456e-01 -8.547682e-02 1.142208e+01
      vertex   -6.781482e-16 -8.117450e-32 1.142500e+01
    endloop
  endfacet
  facet normal -1.611926e-01 -6.580625e-02 9.847266e-01
    outer loop
      vertex   -1.862320e+00 -6.778290e-01 1.123957e+01
      vertex   -1.830942e+00 -7.583977e-01 1.123932e+01
      vertex   -1.632190e+00 -5.940686e-01 1.128284e+01
    endloop
  endfacet
  facet normal -1.610986e-01 -6.592206e-02 9.847342e-01
    outer loop
      vertex   -1.632190e+00 -5.940686e-01 1.128284e+01
      vertex   -1.830942e+00 -7.583977e-01 1.123932e+01
      vertex   -1.601867e+00 -6.623602e-01 1.128323e+01
    endloop
  endfacet
  facet normal -1.401510e-01 -5.659940e-02 9.885111e-01
    outer loop
      vertex   -1.632190e+00 -5.940686e-01 1.128284e+01
      vertex   -1.601867e+00 -6.623602e-01 1.128323e+01
      vertex   -1.401127e+00 -5.099687e-01 1.132041e+01
    endloop
  endfacet
  facet normal -1.389391e-01 -5.821464e-02 9.885884e-01
    outer loop
      vertex   -1.401127e+00 -5.099687e-01 1.132041e+01
      vertex   -1.601867e+00 -6.623602e-01 1.128323e+01
      vertex   -1.368951e+00 -5.660509e-01 1.132163e+01
    endloop
  endfacet
  facet normal -1.192043e-01 -4.682280e-02 9.917651e-01
    outer loop
      vertex   -1.401127e+00 -5.099687e-01 1.132041e+01
      vertex   -1.368951e+00 -5.660509e-01 1.132163e+01
      vertex   -1.169219e+00 -4.255607e-01 1.135227e+01
    endloop
  endfacet
  facet normal -1.166870e-01 -5.042838e-02 9.918877e-01
    outer loop
      vertex   -1.169219e+00 -4.255607e-01 1.135227e+01
      vertex   -1.368951e+00 -5.660509e-01 1.132163e+01
      vertex   -1.137112e+00 -4.701876e-01 1.135378e+01
    endloop
  endfacet
  facet normal -9.816707e-02 -3.701691e-02 9.944813e-01
    outer loop
      vertex   -1.169219e+00 -4.255607e-01 1.135227e+01
      vertex   -1.137112e+00 -4.701876e-01 1.135378e+01
      vertex   -9.365496e-01 -3.408762e-01 1.137839e+01
    endloop
  endfacet
  facet normal -9.453292e-02 -4.267734e-02 9.946065e-01
    outer loop
      vertex   -9.365496e-01 -3.408762e-01 1.137839e+01
      vertex   -1.137112e+00 -4.701876e-01 1.135378e+01
      vertex   -9.065293e-01 -3.748432e-01 1.137979e+01
    endloop
  endfacet
  facet normal -7.706225e-02 -2.715243e-02 9.966565e-01
    outer loop
      vertex   -9.365496e-01 -3.408762e-01 1.137839e+01
      vertex   -9.065293e-01 -3.748432e-01 1.137979e+01
      vertex   -7.032069e-01 -2.559464e-01 1.139875e+01
    endloop
  endfacet
  facet normal -7.248475e-02 -3.499606e-02 9.967554e-01
    outer loop
      vertex   -7.032069e-01 -2.559464e-01 1.139875e+01
      vertex   -9.065293e-01 -3.748432e-01 1.137979e+01
      vertex   -6.773698e-01 -2.800874e-01 1.139978e+01
    endloop
  endfacet
  facet normal -5.591448e-02 -1.719614e-02 9.982875e-01
    outer loop
      vertex   -7.032069e-01 -2.559464e-01 1.139875e+01
      vertex   -6.773698e-01 -2.800874e-01 1.139978e+01
      vertex   -4.692768e-01 -1.708028e-01 1.141332e+01
    endloop
  endfacet
  facet normal -5.054880e-02 -2.742026e-02 9.983451e-01
    outer loop
      vertex   -4.692768e-01 -1.708028e-01 1.141332e+01
      vertex   -6.773698e-01 -2.800874e-01 1.139978e+01
      vertex   -4.497945e-01 -1.859867e-01 1.141389e+01
    endloop
  endfacet
  facet normal -3.475019e-02 -7.110829e-03 9.993707e-01
    outer loop
      vertex   -4.692768e-01 -1.708028e-01 1.141332e+01
      vertex   -4.497945e-01 -1.859867e-01 1.141389e+01
      vertex   -2.348456e-01 -8.547682e-02 1.142208e+01
    endloop
  endfacet
  facet normal -2.873009e-02 -1.998669e-02 9.993874e-01
    outer loop
      vertex   -2.348456e-01 -8.547682e-02 1.142208e+01
      vertex   -4.497945e-01 -1.859867e-01 1.141389e+01
      vertex   -2.239564e-01 -9.260431e-02 1.142225e+01
    endloop
  endfacet
  facet normal -1.359769e-02 3.144676e-03 9.999026e-01
    outer loop
      vertex   -2.348456e-01 -8.547682e-02 1.142208e+01
      vertex   -2.239564e-01 -9.260431e-02 1.142225e+01
      vertex   -6.781482e-16 -8.117450e-32 1.142500e+01
    endloop
  endfacet
  facet normal -1.582379e-01 -7.273807e-02 9.847182e-01
    outer loop
      vertex   -1.601867e+00 -6.623602e-01 1.128323e+01
      vertex   -1.830942e+00 -7.583977e-01 1.123932e+01
      vertex   -1.570420e+00 -7.307710e-01 1.128323e+01
    endloop
  endfacet
  facet normal -1.581987e-01 -7.307771e-02 9.846993e-01
    outer loop
      vertex   -1.570420e+00 -7.307710e-01 1.128323e+01
      vertex   -1.830942e+00 -7.583977e-01 1.123932e+01
      vertex   -1.796075e+00 -8.375198e-01 1.123905e+01
    endloop
  endfacet
  facet normal -1.549867e-01 -7.986091e-02 9.846834e-01
    outer loop
      vertex   -1.570420e+00 -7.307710e-01 1.128323e+01
      vertex   -1.796075e+00 -8.375198e-01 1.123905e+01
      vertex   -1.535641e+00 -7.982665e-01 1.128323e+01
    endloop
  endfacet
  facet normal -1.549304e-01 -8.021233e-02 9.846637e-01
    outer loop
      vertex   -1.535641e+00 -7.982665e-01 1.128323e+01
      vertex   -1.796075e+00 -8.375198e-01 1.123905e+01
      vertex   -1.757788e+00 -9.150430e-01 1.123876e+01
    endloop
  endfacet
  facet normal -1.519172e-01 -8.593936e-02 9.846500e-01
    outer loop
      vertex   -1.535641e+00 -7.982665e-01 1.128323e+01
      vertex   -1.757788e+00 -9.150430e-01 1.123876e+01
      vertex   -1.503627e+00 -8.681193e-01 1.128207e+01
    endloop
  endfacet
  facet normal -1.516452e-01 -8.733764e-02 9.845689e-01
    outer loop
      vertex   -1.503627e+00 -8.681193e-01 1.128207e+01
      vertex   -1.757788e+00 -9.150430e-01 1.123876e+01
      vertex   -1.716152e+00 -9.908211e-01 1.123845e+01
    endloop
  endfacet
  facet normal -1.312190e-01 -7.651511e-02 9.883962e-01
    outer loop
      vertex   -1.503627e+00 -8.681193e-01 1.128207e+01
      vertex   -1.290367e+00 -7.449940e-01 1.131991e+01
      vertex   -1.535641e+00 -7.982665e-01 1.128323e+01
    endloop
  endfacet
  facet normal -1.319468e-01 -7.326716e-02 9.885454e-01
    outer loop
      vertex   -1.535641e+00 -7.982665e-01 1.128323e+01
      vertex   -1.290367e+00 -7.449940e-01 1.131991e+01
      vertex   -1.312354e+00 -6.821961e-01 1.132163e+01
    endloop
  endfacet
  facet normal -1.341120e-01 -6.910467e-02 9.885537e-01
    outer loop
      vertex   -1.535641e+00 -7.982665e-01 1.128323e+01
      vertex   -1.312354e+00 -6.821961e-01 1.132163e+01
      vertex   -1.570420e+00 -7.307710e-01 1.128323e+01
    endloop
  endfacet
  facet normal -1.341120e-01 -6.910467e-02 9.885537e-01
    outer loop
      vertex   -1.570420e+00 -7.307710e-01 1.128323e+01
      vertex   -1.312354e+00 -6.821961e-01 1.132163e+01
      vertex   -1.342076e+00 -6.245146e-01 1.132163e+01
    endloop
  endfacet
  facet normal -1.369729e-01 -6.296307e-02 9.885717e-01
    outer loop
      vertex   -1.570420e+00 -7.307710e-01 1.128323e+01
      vertex   -1.342076e+00 -6.245146e-01 1.132163e+01
      vertex   -1.601867e+00 -6.623602e-01 1.128323e+01
    endloop
  endfacet
  facet normal -1.369729e-01 -6.296307e-02 9.885717e-01
    outer loop
      vertex   -1.601867e+00 -6.623602e-01 1.128323e+01
      vertex   -1.342076e+00 -6.245146e-01 1.132163e+01
      vertex   -1.368951e+00 -5.660509e-01 1.132163e+01
    endloop
  endfacet
  facet normal -1.105818e-01 -6.587270e-02 9.916816e-01
    outer loop
      vertex   -1.290367e+00 -7.449940e-01 1.131991e+01
      vertex   -1.076456e+00 -6.214924e-01 1.135197e+01
      vertex   -1.312354e+00 -6.821961e-01 1.132163e+01
    endloop
  endfacet
  facet normal -1.119589e-01 -6.061200e-02 9.918626e-01
    outer loop
      vertex   -1.312354e+00 -6.821961e-01 1.132163e+01
      vertex   -1.076456e+00 -6.214924e-01 1.135197e+01
      vertex   -1.090101e+00 -5.666630e-01 1.135378e+01
    endloop
  endfacet
  facet normal -1.131573e-01 -5.830719e-02 9.918648e-01
    outer loop
      vertex   -1.312354e+00 -6.821961e-01 1.132163e+01
      vertex   -1.090101e+00 -5.666630e-01 1.135378e+01
      vertex   -1.342076e+00 -6.245146e-01 1.132163e+01
    endloop
  endfacet
  facet normal -1.131573e-01 -5.830719e-02 9.918648e-01
    outer loop
      vertex   -1.342076e+00 -6.245146e-01 1.132163e+01
      vertex   -1.090101e+00 -5.666630e-01 1.135378e+01
      vertex   -1.114789e+00 -5.187502e-01 1.135378e+01
    endloop
  endfacet
  facet normal -1.155706e-01 -5.312493e-02 9.918776e-01
    outer loop
      vertex   -1.342076e+00 -6.245146e-01 1.132163e+01
      vertex   -1.114789e+00 -5.187502e-01 1.135378e+01
      vertex   -1.368951e+00 -5.660509e-01 1.132163e+01
    endloop
  endfacet
  facet normal -1.155706e-01 -5.312493e-02 9.918776e-01
    outer loop
      vertex   -1.368951e+00 -5.660509e-01 1.132163e+01
      vertex   -1.114789e+00 -5.187502e-01 1.135378e+01
      vertex   -1.137112e+00 -4.701876e-01 1.135378e+01
    endloop
  endfacet
  facet normal -8.986873e-02 -5.519923e-02 9.944228e-01
    outer loop
      vertex   -1.076456e+00 -6.214924e-01 1.135197e+01
      vertex   -8.619759e-01 -4.976620e-01 1.137823e+01
      vertex   -1.090101e+00 -5.666630e-01 1.135378e+01
    endloop
  endfacet
  facet normal -9.206510e-02 -4.799896e-02 9.945955e-01
    outer loop
      vertex   -1.090101e+00 -5.666630e-01 1.135378e+01
      vertex   -8.619759e-01 -4.976620e-01 1.137823e+01
      vertex   -8.690509e-01 -4.517554e-01 1.137979e+01
    endloop
  endfacet
  facet normal -9.229471e-02 -4.755723e-02 9.945954e-01
    outer loop
      vertex   -1.090101e+00 -5.666630e-01 1.135378e+01
      vertex   -8.690509e-01 -4.517554e-01 1.137979e+01
      vertex   -1.114789e+00 -5.187502e-01 1.135378e+01
    endloop
  endfacet
  facet normal -9.229471e-02 -4.755723e-02 9.945954e-01
    outer loop
      vertex   -1.114789e+00 -5.187502e-01 1.135378e+01
      vertex   -8.690509e-01 -4.517554e-01 1.137979e+01
      vertex   -8.887330e-01 -4.135583e-01 1.137979e+01
    endloop
  endfacet
  facet normal -9.426267e-02 -4.333022e-02 9.946040e-01
    outer loop
      vertex   -1.114789e+00 -5.187502e-01 1.135378e+01
      vertex   -8.887330e-01 -4.135583e-01 1.137979e+01
      vertex   -1.137112e+00 -4.701876e-01 1.135378e+01
    endloop
  endfacet
  facet normal -9.426267e-02 -4.333022e-02 9.946040e-01
    outer loop
      vertex   -1.137112e+00 -4.701876e-01 1.135378e+01
      vertex   -8.887330e-01 -4.135583e-01 1.137979e+01
      vertex   -9.065293e-01 -3.748432e-01 1.137979e+01
    endloop
  endfacet
  facet normal -6.907573e-02 -4.452461e-02 9.966173e-01
    outer loop
      vertex   -8.619759e-01 -4.976620e-01 1.137823e+01
      vertex   -6.470079e-01 -3.735502e-01 1.139867e+01
      vertex   -8.690509e-01 -4.517554e-01 1.137979e+01
    endloop
  endfacet
  facet normal -7.229631e-02 -3.541369e-02 9.967543e-01
    outer loop
      vertex   -8.690509e-01 -4.517554e-01 1.137979e+01
      vertex   -6.470079e-01 -3.735502e-01 1.139867e+01
      vertex   -6.493654e-01 -3.375571e-01 1.139978e+01
    endloop
  endfacet
  facet normal -7.154251e-02 -3.686412e-02 9.967561e-01
    outer loop
      vertex   -8.690509e-01 -4.517554e-01 1.137979e+01
      vertex   -6.493654e-01 -3.375571e-01 1.139978e+01
      vertex   -8.887330e-01 -4.135583e-01 1.137979e+01
    endloop
  endfacet
  facet normal -7.154251e-02 -3.686412e-02 9.967561e-01
    outer loop
      vertex   -8.887330e-01 -4.135583e-01 1.137979e+01
      vertex   -6.493654e-01 -3.375571e-01 1.139978e+01
      vertex   -6.640721e-01 -3.090158e-01 1.139978e+01
    endloop
  endfacet
  facet normal -7.306772e-02 -3.358743e-02 9.967613e-01
    outer loop
      vertex   -8.887330e-01 -4.135583e-01 1.137979e+01
      vertex   -6.640721e-01 -3.090158e-01 1.139978e+01
      vertex   -9.065293e-01 -3.748432e-01 1.137979e+01
    endloop
  endfacet
  facet normal -7.306772e-02 -3.358743e-02 9.967613e-01
    outer loop
      vertex   -9.065293e-01 -3.748432e-01 1.137979e+01
      vertex   -6.640721e-01 -3.090158e-01 1.139978e+01
      vertex   -6.773698e-01 -2.800874e-01 1.139978e+01
    endloop
  endfacet
  facet normal -4.819736e-02 -3.388164e-02 9.982630e-01
    outer loop
      vertex   -6.470079e-01 -3.735502e-01 1.139867e+01
      vertex   -4.316345e-01 -2.492043e-01 1.141329e+01
      vertex   -6.493654e-01 -3.375571e-01 1.139978e+01
    endloop
  endfacet
  facet normal -5.268353e-02 -2.283953e-02 9.983500e-01
    outer loop
      vertex   -6.493654e-01 -3.375571e-01 1.139978e+01
      vertex   -4.316345e-01 -2.492043e-01 1.141329e+01
      vertex   -4.311988e-01 -2.241484e-01 1.141389e+01
    endloop
  endfacet
  facet normal -5.091804e-02 -2.623683e-02 9.983581e-01
    outer loop
      vertex   -6.493654e-01 -3.375571e-01 1.139978e+01
      vertex   -4.311988e-01 -2.241484e-01 1.141389e+01
      vertex   -6.640721e-01 -3.090158e-01 1.139978e+01
    endloop
  endfacet
  facet normal -5.091804e-02 -2.623683e-02 9.983581e-01
    outer loop
      vertex   -6.640721e-01 -3.090158e-01 1.139978e+01
      vertex   -4.311988e-01 -2.241484e-01 1.141389e+01
      vertex   -4.409645e-01 -2.051961e-01 1.141389e+01
    endloop
  endfacet
  facet normal -5.200344e-02 -2.390469e-02 9.983608e-01
    outer loop
      vertex   -6.640721e-01 -3.090158e-01 1.139978e+01
      vertex   -4.409645e-01 -2.051961e-01 1.141389e+01
      vertex   -6.773698e-01 -2.800874e-01 1.139978e+01
    endloop
  endfacet
  facet normal -5.200344e-02 -2.390469e-02 9.983608e-01
    outer loop
      vertex   -6.773698e-01 -2.800874e-01 1.139978e+01
      vertex   -4.409645e-01 -2.051961e-01 1.141389e+01
      vertex   -4.497945e-01 -1.859867e-01 1.141389e+01
    endloop
  endfacet
  facet normal -2.722651e-02 -2.330620e-02 9.993576e-01
    outer loop
      vertex   -4.316345e-01 -2.492043e-01 1.141329e+01
      vertex   -2.159378e-01 -1.246718e-01 1.142207e+01
      vertex   -4.311988e-01 -2.241484e-01 1.141389e+01
    endloop
  endfacet
  facet normal -3.325792e-02 -1.025763e-02 9.993942e-01
    outer loop
      vertex   -4.311988e-01 -2.241484e-01 1.141389e+01
      vertex   -2.159378e-01 -1.246718e-01 1.142207e+01
      vertex   -2.146974e-01 -1.116053e-01 1.142225e+01
    endloop
  endfacet
  facet normal -3.043794e-02 -1.568393e-02 9.994136e-01
    outer loop
      vertex   -4.311988e-01 -2.241484e-01 1.141389e+01
      vertex   -2.146974e-01 -1.116053e-01 1.142225e+01
      vertex   -4.409645e-01 -2.051961e-01 1.141389e+01
    endloop
  endfacet
  facet normal -3.043794e-02 -1.568393e-02 9.994136e-01
    outer loop
      vertex   -4.409645e-01 -2.051961e-01 1.141389e+01
      vertex   -2.146974e-01 -1.116053e-01 1.142225e+01
      vertex   -2.195598e-01 -1.021688e-01 1.142225e+01
    endloop
  endfacet
  facet normal -3.108672e-02 -1.428980e-02 9.994145e-01
    outer loop
      vertex   -4.409645e-01 -2.051961e-01 1.141389e+01
      vertex   -2.195598e-01 -1.021688e-01 1.142225e+01
      vertex   -4.497945e-01 -1.859867e-01 1.141389e+01
    endloop
  endfacet
  facet normal -3.108672e-02 -1.428980e-02 9.994145e-01
    outer loop
      vertex   -4.497945e-01 -1.859867e-01 1.141389e+01
      vertex   -2.195598e-01 -1.021688e-01 1.142225e+01
      vertex   -2.239564e-01 -9.260431e-02 1.142225e+01
    endloop
  endfacet
  facet normal -6.154493e-03 -1.283733e-02 9.998987e-01
    outer loop
      vertex   -2.159378e-01 -1.246718e-01 1.142207e+01
      vertex   -6.781482e-16 -8.117450e-32 1.142500e+01
      vertex   -2.146974e-01 -1.116053e-01 1.142225e+01
    endloop
  endfacet
  facet normal -1.011800e-02 -5.213560e-03 9.999352e-01
    outer loop
      vertex   -2.146974e-01 -1.116053e-01 1.142225e+01
      vertex   -6.781482e-16 -8.117450e-32 1.142500e+01
      vertex   -2.195598e-01 -1.021688e-01 1.142225e+01
    endloop
  endfacet
  facet normal -1.033365e-02 -4.750125e-03 9.999353e-01
    outer loop
      vertex   -2.195598e-01 -1.021688e-01 1.142225e+01
      vertex   -6.781482e-16 -8.117450e-32 1.142500e+01
      vertex   -2.239564e-01 -9.260431e-02 1.142225e+01
    endloop
  endfacet
  facet normal 5.000000e-01 -8.660254e-01 -3.220141e-16
    outer loop
      vertex   -1.716152e+00 -9.908211e-01 1.123845e+01
      vertex   0.000000e+00 0.000000e+00 -8.881784e-15
      vertex   -1.503627e+00 -8.681193e-01 1.128207e+01
    endloop
  endfacet
  facet normal 5.000000e-01 -8.660254e-01 2.049518e-16
    outer loop
      vertex   -1.503627e+00 -8.681193e-01 1.128207e+01
      vertex   0.000000e+00 0.000000e+00 -8.881784e-15
      vertex   -1.290367e+00 -7.449940e-01 1.131991e+01
    endloop
  endfacet
  facet normal 5.000000e-01 -8.660254e-01 -1.171196e-16
    outer loop
      vertex   -1.290367e+00 -7.449940e-01 1.131991e+01
      vertex   0.000000e+00 0.000000e+00 -8.881784e-15
      vertex   -1.076456e+00 -6.214924e-01 1.135197e+01
    endloop
  endfacet
  facet normal 5.000000e-01 -8.660254e-01 -3.903635e-17
    outer loop
      vertex   -1.076456e+00 -6.214924e-01 1.135197e+01
      vertex   0.000000e+00 0.000000e+00 -8.881784e-15
      vertex   -8.619759e-01 -4.976620e-01 1.137823e+01
    endloop
  endfacet
  facet normal 5.000000e-01 -8.660254e-01 -9.756965e-18
    outer loop
      vertex   -8.619759e-01 -4.976620e-01 1.137823e+01
      vertex   0.000000e+00 0.000000e+00 -8.881784e-15
      vertex   -6.470079e-01 -3.735502e-01 1.139867e+01
    endloop
  endfacet
  facet normal 5.000000e-01 -8.660254e-01 -2.438398e-17
    outer loop
      vertex   -6.470079e-01 -3.735502e-01 1.139867e+01
      vertex   0.000000e+00 0.000000e+00 -8.881784e-15
      vertex   -4.316345e-01 -2.492043e-01 1.141329e+01
    endloop
  endfacet
  facet normal 5.000000e-01 -8.660254e-01 -1.462345e-17
    outer loop
      vertex   -4.316345e-01 -2.492043e-01 1.141329e+01
      vertex   0.000000e+00 0.000000e+00 -8.881784e-15
      vertex   -2.159378e-01 -1.246718e-01 1.142207e+01
    endloop
  endfacet
  facet normal 5.000000e-01 -8.660254e-01 2.922922e-17
    outer loop
      vertex   -2.159378e-01 -1.246718e-01 1.142207e+01
      vertex   0.000000e+00 0.000000e+00 -8.881784e-15
      vertex   -6.781482e-16 -8.117450e-32 1.142500e+01
    endloop
  endfacet
  facet normal -8.633157e-01 -4.736277e-01 -1.742491e-01
    outer loop
      vertex   -1.757788e+00 -9.150430e-01 1.123876e+01
      vertex   -1.197438e+00 -5.583729e-01 7.493046e+00
      vertex   -1.716152e+00 -9.908211e-01 1.123845e+01
    endloop
  endfacet
  facet normal -8.735605e-01 -4.547461e-01 -1.734879e-01
    outer loop
      vertex   -1.716152e+00 -9.908211e-01 1.123845e+01
      vertex   -1.197438e+00 -5.583729e-01 7.493046e+00
      vertex   -5.987190e-01 -2.791868e-01 3.746523e+00
    endloop
  endfacet
  facet normal -8.735603e-01 -4.547464e-01 -1.734879e-01
    outer loop
      vertex   -1.716152e+00 -9.908211e-01 1.123845e+01
      vertex   -5.987190e-01 -2.791868e-01 3.746523e+00
      vertex   0.000000e+00 0.000000e+00 -8.881784e-15
    endloop
  endfacet
  facet normal -8.832543e-01 -4.355710e-01 -1.736081e-01
    outer loop
      vertex   -1.757788e+00 -9.150430e-01 1.123876e+01
      vertex   -1.796075e+00 -8.375198e-01 1.123905e+01
      vertex   -1.197438e+00 -5.583729e-01 7.493046e+00
    endloop
  endfacet
  facet normal -9.014129e-01 -3.966295e-01 -1.736081e-01
    outer loop
      vertex   -1.197438e+00 -5.583729e-01 7.493046e+00
      vertex   -1.796075e+00 -8.375198e-01 1.123905e+01
      vertex   -1.830942e+00 -7.583977e-01 1.123932e+01
    endloop
  endfacet
  facet normal -9.177507e-01 -3.568907e-01 -1.742491e-01
    outer loop
      vertex   -1.197438e+00 -5.583729e-01 7.493046e+00
      vertex   -1.830942e+00 -7.583977e-01 1.123932e+01
      vertex   -1.862320e+00 -6.778290e-01 1.123957e+01
    endloop
  endfacet
  facet normal -9.098701e-01 -3.768797e-01 -1.734879e-01
    outer loop
      vertex   -1.197438e+00 -5.583729e-01 7.493046e+00
      vertex   -1.862320e+00 -6.778290e-01 1.123957e+01
      vertex   -5.987190e-01 -2.791868e-01 3.746523e+00
    endloop
  endfacet
  facet normal -9.098700e-01 -3.768801e-01 -1.734879e-01
    outer loop
      vertex   -5.987190e-01 -2.791868e-01 3.746523e+00
      vertex   -1.862320e+00 -6.778290e-01 1.123957e+01
      vertex   0.000000e+00 0.000000e+00 -8.881784e-15
    endloop
  endfacet
endsolid
