solid ASCII
  facet normal -7.660444e-01 -6.427876e-01 -3.700280e-15
    outer loop
      vertex   6.632906e+00 -7.904789e+00 3.755798e+00
      vertex   0.000000e+00 0.000000e+00 0.000000e+00
      vertex   6.679995e+00 -7.960907e+00 3.528043e+00
    endloop
  endfacet
  facet normal -7.660444e-01 -6.427876e-01 -6.052304e-15
    outer loop
      vertex   6.679995e+00 -7.960907e+00 3.528043e+00
      vertex   0.000000e+00 0.000000e+00 0.000000e+00
      vertex   6.724093e+00 -8.013462e+00 3.298918e+00
    endloop
  endfacet
  facet normal -7.660444e-01 -6.427876e-01 5.018936e-15
    outer loop
      vertex   6.724093e+00 -8.013462e+00 3.298918e+00
      vertex   0.000000e+00 0.000000e+00 0.000000e+00
      vertex   6.765194e+00 -8.062445e+00 3.068500e+00
    endloop
  endfacet
  facet normal -7.660444e-01 -6.427876e-01 -3.263202e-15
    outer loop
      vertex   6.765194e+00 -8.062445e+00 3.068500e+00
      vertex   0.000000e+00 0.000000e+00 0.000000e+00
      vertex   6.803290e+00 -8.107846e+00 2.836869e+00
    endloop
  endfacet
  facet normal -7.660444e-01 -6.427876e-01 2.204795e-15
    outer loop
      vertex   6.803290e+00 -8.107846e+00 2.836869e+00
      vertex   0.000000e+00 0.000000e+00 0.000000e+00
      vertex   6.838373e+00 -8.149656e+00 2.604101e+00
    endloop
  endfacet
  facet normal -7.660444e-01 -6.427876e-01 -9.183045e-15
    outer loop
      vertex   6.838373e+00 -8.149656e+00 2.604101e+00
      vertex   0.000000e+00 0.000000e+00 0.000000e+00
      vertex   6.870435e+00 -8.187866e+00 2.370276e+00
    endloop
  endfacet
  facet normal -7.660444e-01 -6.427876e-01 8.093008e-15
    outer loop
      vertex   6.870435e+00 -8.187866e+00 2.370276e+00
      vertex   0.000000e+00 0.000000e+00 0.000000e+00
      vertex   6.899469e+00 -8.222467e+00 2.135472e+00
    endloop
  endfacet
  facet normal -7.660444e-01 -6.427876e-01 -6.006548e-14
    outer loop
      vertex   6.899469e+00 -8.222467e+00 2.135472e+00
      vertex   0.000000e+00 0.000000e+00 0.000000e+00
      vertex   6.925467e+00 -8.253450e+00 1.899767e+00
    endloop
  endfacet
  facet normal 7.085642e-01 -6.347551e-01 3.082576e-01
    outer loop
      vertex   7.989510e+00 -6.703995e+00 3.540657e+00
      vertex   7.932776e+00 -6.656389e+00 3.769095e+00
      vertex   7.858998e+00 -6.852074e+00 3.535732e+00
    endloop
  endfacet
  facet normal 7.076955e-01 -6.353485e-01 3.090298e-01
    outer loop
      vertex   7.858998e+00 -6.852074e+00 3.535732e+00
      vertex   7.932776e+00 -6.656389e+00 3.769095e+00
      vertex   7.782480e+00 -6.824604e+00 3.767439e+00
    endloop
  endfacet
  facet normal 6.968423e-01 -6.482127e-01 3.069708e-01
    outer loop
      vertex   7.858998e+00 -6.852074e+00 3.535732e+00
      vertex   7.782480e+00 -6.824604e+00 3.767439e+00
      vertex   7.724399e+00 -6.996770e+00 3.535732e+00
    endloop
  endfacet
  facet normal 6.934838e-01 -6.505750e-01 3.095680e-01
    outer loop
      vertex   7.724399e+00 -6.996770e+00 3.535732e+00
      vertex   7.782480e+00 -6.824604e+00 3.767439e+00
      vertex   7.628558e+00 -6.989470e+00 3.765775e+00
    endloop
  endfacet
  facet normal 6.845602e-01 -6.615288e-01 3.061978e-01
    outer loop
      vertex   7.724399e+00 -6.996770e+00 3.535732e+00
      vertex   7.628558e+00 -6.989470e+00 3.765775e+00
      vertex   7.586962e+00 -7.138992e+00 3.535732e+00
    endloop
  endfacet
  facet normal 6.790417e-01 -6.655290e-01 3.097957e-01
    outer loop
      vertex   7.586962e+00 -7.138992e+00 3.535732e+00
      vertex   7.628558e+00 -6.989470e+00 3.765775e+00
      vertex   7.471070e+00 -7.150933e+00 3.764106e+00
    endloop
  endfacet
  facet normal 6.719612e-01 -6.745341e-01 3.057318e-01
    outer loop
      vertex   7.586962e+00 -7.138992e+00 3.535732e+00
      vertex   7.471070e+00 -7.150933e+00 3.764106e+00
      vertex   7.446759e+00 -7.278661e+00 3.535732e+00
    endloop
  endfacet
  facet normal 6.643714e-01 -6.802112e-01 3.097149e-01
    outer loop
      vertex   7.446759e+00 -7.278661e+00 3.535732e+00
      vertex   7.471070e+00 -7.150933e+00 3.764106e+00
      vertex   7.310075e+00 -7.308939e+00 3.762435e+00
    endloop
  endfacet
  facet normal 6.574041e-01 -6.893669e-01 3.042913e-01
    outer loop
      vertex   7.446759e+00 -7.278661e+00 3.535732e+00
      vertex   7.310075e+00 -7.308939e+00 3.762435e+00
      vertex   7.261028e+00 -7.455780e+00 3.535732e+00
    endloop
  endfacet
  facet normal 6.494592e-01 -6.946030e-01 3.094018e-01
    outer loop
      vertex   7.261028e+00 -7.455780e+00 3.535732e+00
      vertex   7.310075e+00 -7.308939e+00 3.762435e+00
      vertex   7.145674e+00 -7.463399e+00 3.760765e+00
    endloop
  endfacet
  facet normal 6.402420e-01 -7.053249e-01 3.043140e-01
    outer loop
      vertex   7.261028e+00 -7.455780e+00 3.535732e+00
      vertex   7.145674e+00 -7.463399e+00 3.760765e+00
      vertex   7.070947e+00 -7.628322e+00 3.535732e+00
    endloop
  endfacet
  facet normal 6.343314e-01 -7.087220e-01 3.087664e-01
    outer loop
      vertex   7.070947e+00 -7.628322e+00 3.535732e+00
      vertex   7.145674e+00 -7.463399e+00 3.760765e+00
      vertex   6.977969e+00 -7.614226e+00 3.759101e+00
    endloop
  endfacet
  facet normal 6.226521e-01 -7.207525e-01 3.046641e-01
    outer loop
      vertex   7.070947e+00 -7.628322e+00 3.535732e+00
      vertex   6.977969e+00 -7.614226e+00 3.759101e+00
      vertex   6.876695e+00 -7.796134e+00 3.535732e+00
    endloop
  endfacet
  facet normal 6.189926e-01 -7.225689e-01 3.078025e-01
    outer loop
      vertex   6.876695e+00 -7.796134e+00 3.535732e+00
      vertex   6.977969e+00 -7.614226e+00 3.759101e+00
      vertex   6.807025e+00 -7.761372e+00 3.757444e+00
    endloop
  endfacet
  facet normal 6.044491e-01 -7.358174e-01 3.053096e-01
    outer loop
      vertex   6.876695e+00 -7.796134e+00 3.535732e+00
      vertex   6.807025e+00 -7.761372e+00 3.757444e+00
      vertex   6.679995e+00 -7.960907e+00 3.528043e+00
    endloop
  endfacet
  facet normal 6.035122e-01 -7.362239e-01 3.061820e-01
    outer loop
      vertex   6.679995e+00 -7.960907e+00 3.528043e+00
      vertex   6.807025e+00 -7.761372e+00 3.757444e+00
      vertex   6.632906e+00 -7.904789e+00 3.755798e+00
    endloop
  endfacet
  facet normal 6.084576e-01 -7.397614e-01 2.872845e-01
    outer loop
      vertex   6.876695e+00 -7.796134e+00 3.535732e+00
      vertex   6.679995e+00 -7.960907e+00 3.528043e+00
      vertex   6.923108e+00 -7.848753e+00 3.301939e+00
    endloop
  endfacet
  facet normal 6.082087e-01 -7.401433e-01 2.868275e-01
    outer loop
      vertex   6.923108e+00 -7.848753e+00 3.301939e+00
      vertex   6.679995e+00 -7.960907e+00 3.528043e+00
      vertex   6.724093e+00 -8.013462e+00 3.298918e+00
    endloop
  endfacet
  facet normal 6.119401e-01 -7.442972e-01 2.674900e-01
    outer loop
      vertex   6.923108e+00 -7.848753e+00 3.301939e+00
      vertex   6.724093e+00 -8.013462e+00 3.298918e+00
      vertex   6.966113e+00 -7.897508e+00 3.067892e+00
    endloop
  endfacet
  facet normal 6.118821e-01 -7.443820e-01 2.673867e-01
    outer loop
      vertex   6.966113e+00 -7.897508e+00 3.067892e+00
      vertex   6.724093e+00 -8.013462e+00 3.298918e+00
      vertex   6.765194e+00 -8.062445e+00 3.068500e+00
    endloop
  endfacet
  facet normal 6.151492e-01 -7.484338e-01 2.478676e-01
    outer loop
      vertex   6.966113e+00 -7.897508e+00 3.067892e+00
      vertex   6.765194e+00 -8.062445e+00 3.068500e+00
      vertex   6.803290e+00 -8.107846e+00 2.836869e+00
    endloop
  endfacet
  facet normal 6.152882e-01 -7.483709e-01 2.477124e-01
    outer loop
      vertex   6.966113e+00 -7.897508e+00 3.067892e+00
      vertex   6.803290e+00 -8.107846e+00 2.836869e+00
      vertex   7.005736e+00 -7.942428e+00 2.833764e+00
    endloop
  endfacet
  facet normal 6.181236e-01 -7.522057e-01 2.282758e-01
    outer loop
      vertex   7.005736e+00 -7.942428e+00 2.833764e+00
      vertex   6.803290e+00 -8.107846e+00 2.836869e+00
      vertex   6.838373e+00 -8.149656e+00 2.604101e+00
    endloop
  endfacet
  facet normal 6.183950e-01 -7.520776e-01 2.279624e-01
    outer loop
      vertex   7.005736e+00 -7.942428e+00 2.833764e+00
      vertex   6.838373e+00 -8.149656e+00 2.604101e+00
      vertex   7.042005e+00 -7.983546e+00 2.599725e+00
    endloop
  endfacet
  facet normal 6.208816e-01 -7.556356e-01 2.086163e-01
    outer loop
      vertex   7.042005e+00 -7.983546e+00 2.599725e+00
      vertex   6.838373e+00 -8.149656e+00 2.604101e+00
      vertex   6.870435e+00 -8.187866e+00 2.370276e+00
    endloop
  endfacet
  facet normal 6.211890e-01 -7.554837e-01 2.082513e-01
    outer loop
      vertex   7.042005e+00 -7.983546e+00 2.599725e+00
      vertex   6.870435e+00 -8.187866e+00 2.370276e+00
      vertex   7.074952e+00 -8.020899e+00 2.365939e+00
    endloop
  endfacet
  facet normal 6.234237e-01 -7.587239e-01 1.888940e-01
    outer loop
      vertex   7.074952e+00 -8.020899e+00 2.365939e+00
      vertex   6.870435e+00 -8.187866e+00 2.370276e+00
      vertex   6.899469e+00 -8.222467e+00 2.135472e+00
    endloop
  endfacet
  facet normal 6.236734e-01 -7.585942e-01 1.885905e-01
    outer loop
      vertex   7.074952e+00 -8.020899e+00 2.365939e+00
      vertex   6.899469e+00 -8.222467e+00 2.135472e+00
      vertex   7.104616e+00 -8.054529e+00 2.132567e+00
    endloop
  endfacet
  facet normal 6.256212e-01 -7.612881e-01 1.704070e-01
    outer loop
      vertex   7.104616e+00 -8.054529e+00 2.132567e+00
      vertex   6.899469e+00 -8.222467e+00 2.135472e+00
      vertex   7.107572e+00 -8.104006e+00 1.900675e+00
    endloop
  endfacet
  facet normal 6.412632e-01 -7.487207e-01 1.679251e-01
    outer loop
      vertex   7.104616e+00 -8.054529e+00 2.132567e+00
      vertex   7.107572e+00 -8.104006e+00 1.900675e+00
      vertex   7.286371e+00 -7.950664e+00 1.901589e+00
    endloop
  endfacet
  facet normal 6.247365e-01 -7.623030e-01 1.691109e-01
    outer loop
      vertex   6.899469e+00 -8.222467e+00 2.135472e+00
      vertex   6.925467e+00 -8.253450e+00 1.899767e+00
      vertex   7.107572e+00 -8.104006e+00 1.900675e+00
    endloop
  endfacet
  facet normal 6.440388e-01 -7.455088e-01 1.715535e-01
    outer loop
      vertex   7.104616e+00 -8.054529e+00 2.132567e+00
      vertex   7.286371e+00 -7.950664e+00 1.901589e+00
      vertex   7.305306e+00 -7.881154e+00 2.132567e+00
    endloop
  endfacet
  facet normal 6.574631e-01 -7.347015e-01 1.672007e-01
    outer loop
      vertex   7.305306e+00 -7.881154e+00 2.132567e+00
      vertex   7.286371e+00 -7.950664e+00 1.901589e+00
      vertex   7.461795e+00 -7.793473e+00 1.902507e+00
    endloop
  endfacet
  facet normal 6.620601e-01 -7.293609e-01 1.723631e-01
    outer loop
      vertex   7.305306e+00 -7.881154e+00 2.132567e+00
      vertex   7.461795e+00 -7.793473e+00 1.902507e+00
      vertex   7.501687e+00 -7.702894e+00 2.132567e+00
    endloop
  endfacet
  facet normal 6.733390e-01 -7.202663e-01 1.668267e-01
    outer loop
      vertex   7.501687e+00 -7.702894e+00 2.132567e+00
      vertex   7.461795e+00 -7.793473e+00 1.902507e+00
      vertex   7.633777e+00 -7.632483e+00 1.903428e+00
    endloop
  endfacet
  facet normal 6.797471e-01 -7.127962e-01 1.728162e-01
    outer loop
      vertex   7.501687e+00 -7.702894e+00 2.132567e+00
      vertex   7.633777e+00 -7.632483e+00 1.903428e+00
      vertex   7.693574e+00 -7.519904e+00 2.132567e+00
    endloop
  endfacet
  facet normal 6.888786e-01 -7.054223e-01 1.668103e-01
    outer loop
      vertex   7.693574e+00 -7.519904e+00 2.132567e+00
      vertex   7.633777e+00 -7.632483e+00 1.903428e+00
      vertex   7.802209e+00 -7.467783e+00 1.904350e+00
    endloop
  endfacet
  facet normal 6.952896e-01 -6.979518e-01 1.715681e-01
    outer loop
      vertex   7.693574e+00 -7.519904e+00 2.132567e+00
      vertex   7.802209e+00 -7.467783e+00 1.904350e+00
      vertex   7.838424e+00 -7.375607e+00 2.132567e+00
    endloop
  endfacet
  facet normal 7.040826e-01 -6.901925e-01 1.670388e-01
    outer loop
      vertex   7.838424e+00 -7.375607e+00 2.132567e+00
      vertex   7.802209e+00 -7.467783e+00 1.904350e+00
      vertex   7.966985e+00 -7.299467e+00 1.905271e+00
    endloop
  endfacet
  facet normal 7.084609e-01 -6.846254e-01 1.713801e-01
    outer loop
      vertex   7.838424e+00 -7.375607e+00 2.132567e+00
      vertex   7.966985e+00 -7.299467e+00 1.905271e+00
      vertex   7.980416e+00 -7.228671e+00 2.132567e+00
    endloop
  endfacet
  facet normal 7.189254e-01 -6.745713e-01 1.676302e-01
    outer loop
      vertex   7.980416e+00 -7.228671e+00 2.132567e+00
      vertex   7.966985e+00 -7.299467e+00 1.905271e+00
      vertex   8.128044e+00 -7.127591e+00 1.906189e+00
    endloop
  endfacet
  facet normal 7.214317e-01 -6.710861e-01 1.708207e-01
    outer loop
      vertex   7.980416e+00 -7.228671e+00 2.132567e+00
      vertex   8.128044e+00 -7.127591e+00 1.906189e+00
      vertex   8.119476e+00 -7.079179e+00 2.132567e+00
    endloop
  endfacet
  facet normal 7.333956e-01 -6.585640e-01 1.685956e-01
    outer loop
      vertex   8.119476e+00 -7.079179e+00 2.132567e+00
      vertex   8.128044e+00 -7.127591e+00 1.906189e+00
      vertex   8.285320e+00 -6.952209e+00 1.907103e+00
    endloop
  endfacet
  facet normal 7.344918e-01 -6.568900e-01 1.703447e-01
    outer loop
      vertex   8.119476e+00 -7.079179e+00 2.132567e+00
      vertex   8.285320e+00 -6.952209e+00 1.907103e+00
      vertex   8.253985e+00 -6.925916e+00 2.143609e+00
    endloop
  endfacet
  facet normal 7.312159e-01 -6.553753e-01 1.892261e-01
    outer loop
      vertex   8.119476e+00 -7.079179e+00 2.132567e+00
      vertex   8.253985e+00 -6.925916e+00 2.143609e+00
      vertex   8.085575e+00 -7.049621e+00 2.365939e+00
    endloop
  endfacet
  facet normal 7.318428e-01 -6.543764e-01 1.902567e-01
    outer loop
      vertex   8.085575e+00 -7.049621e+00 2.365939e+00
      vertex   8.253985e+00 -6.925916e+00 2.143609e+00
      vertex   8.218993e+00 -6.896554e+00 2.379200e+00
    endloop
  endfacet
  facet normal 7.281581e-01 -6.527840e-01 2.089468e-01
    outer loop
      vertex   8.085575e+00 -7.049621e+00 2.365939e+00
      vertex   8.218993e+00 -6.896554e+00 2.379200e+00
      vertex   8.047921e+00 -7.016791e+00 2.599725e+00
    endloop
  endfacet
  facet normal 7.288494e-01 -6.516391e-01 2.101073e-01
    outer loop
      vertex   8.047921e+00 -7.016791e+00 2.599725e+00
      vertex   8.218993e+00 -6.896554e+00 2.379200e+00
      vertex   8.180353e+00 -6.864131e+00 2.613797e+00
    endloop
  endfacet
  facet normal 7.248230e-01 -6.498617e-01 2.287167e-01
    outer loop
      vertex   8.047921e+00 -7.016791e+00 2.599725e+00
      vertex   8.180353e+00 -6.864131e+00 2.613797e+00
      vertex   8.006471e+00 -6.980653e+00 2.833764e+00
    endloop
  endfacet
  facet normal 7.255139e-01 -6.486751e-01 2.298914e-01
    outer loop
      vertex   8.006471e+00 -6.980653e+00 2.833764e+00
      vertex   8.180353e+00 -6.864131e+00 2.613797e+00
      vertex   8.138075e+00 -6.828656e+00 2.847320e+00
    endloop
  endfacet
  facet normal 7.212048e-01 -6.466060e-01 2.485243e-01
    outer loop
      vertex   8.006471e+00 -6.980653e+00 2.833764e+00
      vertex   8.138075e+00 -6.828656e+00 2.847320e+00
      vertex   7.961189e+00 -6.941172e+00 3.067892e+00
    endloop
  endfacet
  facet normal 7.218373e-01 -6.454834e-01 2.496041e-01
    outer loop
      vertex   7.961189e+00 -6.941172e+00 3.067892e+00
      vertex   8.138075e+00 -6.828656e+00 2.847320e+00
      vertex   8.092169e+00 -6.790136e+00 3.079691e+00
    endloop
  endfacet
  facet normal 7.172994e-01 -6.430131e-01 2.683574e-01
    outer loop
      vertex   7.961189e+00 -6.941172e+00 3.067892e+00
      vertex   8.092169e+00 -6.790136e+00 3.079691e+00
      vertex   7.912040e+00 -6.898320e+00 3.301939e+00
    endloop
  endfacet
  facet normal 7.178185e-01 -6.420641e-01 2.692401e-01
    outer loop
      vertex   7.912040e+00 -6.898320e+00 3.301939e+00
      vertex   8.092169e+00 -6.790136e+00 3.079691e+00
      vertex   8.042644e+00 -6.748580e+00 3.310829e+00
    endloop
  endfacet
  facet normal 7.131043e-01 -6.390782e-01 2.882037e-01
    outer loop
      vertex   7.912040e+00 -6.898320e+00 3.301939e+00
      vertex   8.042644e+00 -6.748580e+00 3.310829e+00
      vertex   7.858998e+00 -6.852074e+00 3.535732e+00
    endloop
  endfacet
  facet normal 7.134558e-01 -6.384191e-01 2.887940e-01
    outer loop
      vertex   7.858998e+00 -6.852074e+00 3.535732e+00
      vertex   8.042644e+00 -6.748580e+00 3.310829e+00
      vertex   7.989510e+00 -6.703995e+00 3.540657e+00
    endloop
  endfacet
  facet normal 7.011505e-01 -6.522203e-01 2.880913e-01
    outer loop
      vertex   7.912040e+00 -6.898320e+00 3.301939e+00
      vertex   7.858998e+00 -6.852074e+00 3.535732e+00
      vertex   7.776533e+00 -7.043994e+00 3.301939e+00
    endloop
  endfacet
  facet normal 7.011505e-01 -6.522203e-01 2.880913e-01
    outer loop
      vertex   7.776533e+00 -7.043994e+00 3.301939e+00
      vertex   7.858998e+00 -6.852074e+00 3.535732e+00
      vertex   7.724399e+00 -6.996770e+00 3.535732e+00
    endloop
  endfacet
  facet normal 6.886371e-01 -6.654685e-01 2.879768e-01
    outer loop
      vertex   7.776533e+00 -7.043994e+00 3.301939e+00
      vertex   7.724399e+00 -6.996770e+00 3.535732e+00
      vertex   7.638169e+00 -7.187175e+00 3.301939e+00
    endloop
  endfacet
  facet normal 6.886371e-01 -6.654685e-01 2.879768e-01
    outer loop
      vertex   7.638169e+00 -7.187175e+00 3.301939e+00
      vertex   7.724399e+00 -6.996770e+00 3.535732e+00
      vertex   7.586962e+00 -7.138992e+00 3.535732e+00
    endloop
  endfacet
  facet normal 6.758810e-01 -6.784690e-01 2.878622e-01
    outer loop
      vertex   7.638169e+00 -7.187175e+00 3.301939e+00
      vertex   7.586962e+00 -7.138992e+00 3.535732e+00
      vertex   7.497019e+00 -7.327786e+00 3.301939e+00
    endloop
  endfacet
  facet normal 6.758810e-01 -6.784690e-01 2.878622e-01
    outer loop
      vertex   7.497019e+00 -7.327786e+00 3.301939e+00
      vertex   7.586962e+00 -7.138992e+00 3.535732e+00
      vertex   7.446759e+00 -7.278661e+00 3.535732e+00
    endloop
  endfacet
  facet normal 6.609477e-01 -6.930828e-01 2.877226e-01
    outer loop
      vertex   7.497019e+00 -7.327786e+00 3.301939e+00
      vertex   7.446759e+00 -7.278661e+00 3.535732e+00
      vertex   7.310035e+00 -7.506101e+00 3.301939e+00
    endloop
  endfacet
  facet normal 6.609477e-01 -6.930828e-01 2.877226e-01
    outer loop
      vertex   7.310035e+00 -7.506101e+00 3.301939e+00
      vertex   7.446759e+00 -7.278661e+00 3.535732e+00
      vertex   7.261028e+00 -7.455780e+00 3.535732e+00
    endloop
  endfacet
  facet normal 6.437279e-01 -7.091652e-01 2.875746e-01
    outer loop
      vertex   7.310035e+00 -7.506101e+00 3.301939e+00
      vertex   7.261028e+00 -7.455780e+00 3.535732e+00
      vertex   7.118671e+00 -7.679807e+00 3.301939e+00
    endloop
  endfacet
  facet normal 6.437279e-01 -7.091652e-01 2.875746e-01
    outer loop
      vertex   7.118671e+00 -7.679807e+00 3.301939e+00
      vertex   7.261028e+00 -7.455780e+00 3.535732e+00
      vertex   7.070947e+00 -7.628322e+00 3.535732e+00
    endloop
  endfacet
  facet normal 6.261447e-01 -7.247954e-01 2.874275e-01
    outer loop
      vertex   7.118671e+00 -7.679807e+00 3.301939e+00
      vertex   7.070947e+00 -7.628322e+00 3.535732e+00
      vertex   6.923108e+00 -7.848753e+00 3.301939e+00
    endloop
  endfacet
  facet normal 6.261447e-01 -7.247954e-01 2.874275e-01
    outer loop
      vertex   6.923108e+00 -7.848753e+00 3.301939e+00
      vertex   7.070947e+00 -7.628322e+00 3.535732e+00
      vertex   6.876695e+00 -7.796134e+00 3.535732e+00
    endloop
  endfacet
  facet normal 7.053576e-01 -6.561338e-01 2.682520e-01
    outer loop
      vertex   7.961189e+00 -6.941172e+00 3.067892e+00
      vertex   7.912040e+00 -6.898320e+00 3.301939e+00
      vertex   7.824840e+00 -7.087750e+00 3.067892e+00
    endloop
  endfacet
  facet normal 7.053576e-01 -6.561338e-01 2.682520e-01
    outer loop
      vertex   7.824840e+00 -7.087750e+00 3.067892e+00
      vertex   7.912040e+00 -6.898320e+00 3.301939e+00
      vertex   7.776533e+00 -7.043994e+00 3.301939e+00
    endloop
  endfacet
  facet normal 6.927657e-01 -6.694583e-01 2.681441e-01
    outer loop
      vertex   7.824840e+00 -7.087750e+00 3.067892e+00
      vertex   7.776533e+00 -7.043994e+00 3.301939e+00
      vertex   7.685616e+00 -7.231821e+00 3.067892e+00
    endloop
  endfacet
  facet normal 6.927657e-01 -6.694583e-01 2.681441e-01
    outer loop
      vertex   7.685616e+00 -7.231821e+00 3.067892e+00
      vertex   7.776533e+00 -7.043994e+00 3.301939e+00
      vertex   7.638169e+00 -7.187175e+00 3.301939e+00
    endloop
  endfacet
  facet normal 6.799300e-01 -6.825334e-01 2.680361e-01
    outer loop
      vertex   7.685616e+00 -7.231821e+00 3.067892e+00
      vertex   7.638169e+00 -7.187175e+00 3.301939e+00
      vertex   7.543590e+00 -7.373306e+00 3.067892e+00
    endloop
  endfacet
  facet normal 6.799300e-01 -6.825334e-01 2.680361e-01
    outer loop
      vertex   7.543590e+00 -7.373306e+00 3.067892e+00
      vertex   7.638169e+00 -7.187175e+00 3.301939e+00
      vertex   7.497019e+00 -7.327786e+00 3.301939e+00
    endloop
  endfacet
  facet normal 6.649034e-01 -6.972307e-01 2.679046e-01
    outer loop
      vertex   7.543590e+00 -7.373306e+00 3.067892e+00
      vertex   7.497019e+00 -7.327786e+00 3.301939e+00
      vertex   7.355444e+00 -7.552728e+00 3.067892e+00
    endloop
  endfacet
  facet normal 6.649034e-01 -6.972307e-01 2.679046e-01
    outer loop
      vertex   7.355444e+00 -7.552728e+00 3.067892e+00
      vertex   7.497019e+00 -7.327786e+00 3.301939e+00
      vertex   7.310035e+00 -7.506101e+00 3.301939e+00
    endloop
  endfacet
  facet normal 6.475764e-01 -7.134049e-01 2.677651e-01
    outer loop
      vertex   7.355444e+00 -7.552728e+00 3.067892e+00
      vertex   7.310035e+00 -7.506101e+00 3.301939e+00
      vertex   7.162891e+00 -7.727513e+00 3.067892e+00
    endloop
  endfacet
  facet normal 6.475764e-01 -7.134049e-01 2.677651e-01
    outer loop
      vertex   7.162891e+00 -7.727513e+00 3.067892e+00
      vertex   7.310035e+00 -7.506101e+00 3.301939e+00
      vertex   7.118671e+00 -7.679807e+00 3.301939e+00
    endloop
  endfacet
  facet normal 6.298842e-01 -7.291241e-01 2.676264e-01
    outer loop
      vertex   7.162891e+00 -7.727513e+00 3.067892e+00
      vertex   7.118671e+00 -7.679807e+00 3.301939e+00
      vertex   6.966113e+00 -7.897508e+00 3.067892e+00
    endloop
  endfacet
  facet normal 6.298842e-01 -7.291241e-01 2.676264e-01
    outer loop
      vertex   6.966113e+00 -7.897508e+00 3.067892e+00
      vertex   7.118671e+00 -7.679807e+00 3.301939e+00
      vertex   6.923108e+00 -7.848753e+00 3.301939e+00
    endloop
  endfacet
  facet normal 7.092398e-01 -6.597451e-01 2.484258e-01
    outer loop
      vertex   8.006471e+00 -6.980653e+00 2.833764e+00
      vertex   7.961189e+00 -6.941172e+00 3.067892e+00
      vertex   7.869347e+00 -7.128064e+00 2.833764e+00
    endloop
  endfacet
  facet normal 7.092398e-01 -6.597451e-01 2.484258e-01
    outer loop
      vertex   7.869347e+00 -7.128064e+00 2.833764e+00
      vertex   7.961189e+00 -6.941172e+00 3.067892e+00
      vertex   7.824840e+00 -7.087750e+00 3.067892e+00
    endloop
  endfacet
  facet normal 6.965755e-01 -6.731399e-01 2.483248e-01
    outer loop
      vertex   7.869347e+00 -7.128064e+00 2.833764e+00
      vertex   7.824840e+00 -7.087750e+00 3.067892e+00
      vertex   7.729331e+00 -7.272955e+00 2.833764e+00
    endloop
  endfacet
  facet normal 6.965755e-01 -6.731399e-01 2.483248e-01
    outer loop
      vertex   7.729331e+00 -7.272955e+00 2.833764e+00
      vertex   7.824840e+00 -7.087750e+00 3.067892e+00
      vertex   7.685616e+00 -7.231821e+00 3.067892e+00
    endloop
  endfacet
  facet normal 6.836661e-01 -6.862839e-01 2.482237e-01
    outer loop
      vertex   7.729331e+00 -7.272955e+00 2.833764e+00
      vertex   7.685616e+00 -7.231821e+00 3.067892e+00
      vertex   7.586497e+00 -7.415244e+00 2.833764e+00
    endloop
  endfacet
  facet normal 6.836661e-01 -6.862839e-01 2.482237e-01
    outer loop
      vertex   7.586497e+00 -7.415244e+00 2.833764e+00
      vertex   7.685616e+00 -7.231821e+00 3.067892e+00
      vertex   7.543590e+00 -7.373306e+00 3.067892e+00
    endloop
  endfacet
  facet normal 6.685533e-01 -7.010582e-01 2.481005e-01
    outer loop
      vertex   7.586497e+00 -7.415244e+00 2.833764e+00
      vertex   7.543590e+00 -7.373306e+00 3.067892e+00
      vertex   7.397281e+00 -7.595687e+00 2.833764e+00
    endloop
  endfacet
  facet normal 6.685533e-01 -7.010582e-01 2.481005e-01
    outer loop
      vertex   7.397281e+00 -7.595687e+00 2.833764e+00
      vertex   7.543590e+00 -7.373306e+00 3.067892e+00
      vertex   7.355444e+00 -7.552728e+00 3.067892e+00
    endloop
  endfacet
  facet normal 6.511276e-01 -7.173171e-01 2.479699e-01
    outer loop
      vertex   7.397281e+00 -7.595687e+00 2.833764e+00
      vertex   7.355444e+00 -7.552728e+00 3.067892e+00
      vertex   7.203633e+00 -7.771467e+00 2.833764e+00
    endloop
  endfacet
  facet normal 6.511276e-01 -7.173171e-01 2.479699e-01
    outer loop
      vertex   7.203633e+00 -7.771467e+00 2.833764e+00
      vertex   7.355444e+00 -7.552728e+00 3.067892e+00
      vertex   7.162891e+00 -7.727513e+00 3.067892e+00
    endloop
  endfacet
  facet normal 6.333347e-01 -7.331183e-01 2.478401e-01
    outer loop
      vertex   7.203633e+00 -7.771467e+00 2.833764e+00
      vertex   7.162891e+00 -7.727513e+00 3.067892e+00
      vertex   7.005736e+00 -7.942428e+00 2.833764e+00
    endloop
  endfacet
  facet normal 6.333347e-01 -7.331183e-01 2.478401e-01
    outer loop
      vertex   7.005736e+00 -7.942428e+00 2.833764e+00
      vertex   7.162891e+00 -7.727513e+00 3.067892e+00
      vertex   6.966113e+00 -7.897508e+00 3.067892e+00
    endloop
  endfacet
  facet normal 7.128009e-01 -6.630576e-01 2.286252e-01
    outer loop
      vertex   8.047921e+00 -7.016791e+00 2.599725e+00
      vertex   8.006471e+00 -6.980653e+00 2.833764e+00
      vertex   7.910087e+00 -7.164966e+00 2.599725e+00
    endloop
  endfacet
  facet normal 7.128009e-01 -6.630576e-01 2.286252e-01
    outer loop
      vertex   7.910087e+00 -7.164966e+00 2.599725e+00
      vertex   8.006471e+00 -6.980653e+00 2.833764e+00
      vertex   7.869347e+00 -7.128064e+00 2.833764e+00
    endloop
  endfacet
  facet normal 7.000702e-01 -6.765170e-01 2.285313e-01
    outer loop
      vertex   7.910087e+00 -7.164966e+00 2.599725e+00
      vertex   7.869347e+00 -7.128064e+00 2.833764e+00
      vertex   7.769346e+00 -7.310607e+00 2.599725e+00
    endloop
  endfacet
  facet normal 7.000702e-01 -6.765170e-01 2.285313e-01
    outer loop
      vertex   7.769346e+00 -7.310607e+00 2.599725e+00
      vertex   7.869347e+00 -7.128064e+00 2.833764e+00
      vertex   7.729331e+00 -7.272955e+00 2.833764e+00
    endloop
  endfacet
  facet normal 6.870932e-01 -6.897241e-01 2.284373e-01
    outer loop
      vertex   7.769346e+00 -7.310607e+00 2.599725e+00
      vertex   7.729331e+00 -7.272955e+00 2.833764e+00
      vertex   7.625772e+00 -7.453633e+00 2.599725e+00
    endloop
  endfacet
  facet normal 6.870932e-01 -6.897241e-01 2.284373e-01
    outer loop
      vertex   7.625772e+00 -7.453633e+00 2.599725e+00
      vertex   7.729331e+00 -7.272955e+00 2.833764e+00
      vertex   7.586497e+00 -7.415244e+00 2.833764e+00
    endloop
  endfacet
  facet normal 6.719013e-01 -7.045689e-01 2.283228e-01
    outer loop
      vertex   7.625772e+00 -7.453633e+00 2.599725e+00
      vertex   7.586497e+00 -7.415244e+00 2.833764e+00
      vertex   7.435576e+00 -7.635010e+00 2.599725e+00
    endloop
  endfacet
  facet normal 6.719013e-01 -7.045689e-01 2.283228e-01
    outer loop
      vertex   7.435576e+00 -7.635010e+00 2.599725e+00
      vertex   7.586497e+00 -7.415244e+00 2.833764e+00
      vertex   7.397281e+00 -7.595687e+00 2.833764e+00
    endloop
  endfacet
  facet normal 6.543848e-01 -7.209054e-01 2.282015e-01
    outer loop
      vertex   7.435576e+00 -7.635010e+00 2.599725e+00
      vertex   7.397281e+00 -7.595687e+00 2.833764e+00
      vertex   7.240926e+00 -7.811700e+00 2.599725e+00
    endloop
  endfacet
  facet normal 6.543848e-01 -7.209054e-01 2.282015e-01
    outer loop
      vertex   7.240926e+00 -7.811700e+00 2.599725e+00
      vertex   7.397281e+00 -7.595687e+00 2.833764e+00
      vertex   7.203633e+00 -7.771467e+00 2.833764e+00
    endloop
  endfacet
  facet normal 6.364996e-01 -7.367818e-01 2.280808e-01
    outer loop
      vertex   7.240926e+00 -7.811700e+00 2.599725e+00
      vertex   7.203633e+00 -7.771467e+00 2.833764e+00
      vertex   7.042005e+00 -7.983546e+00 2.599725e+00
    endloop
  endfacet
  facet normal 6.364996e-01 -7.367818e-01 2.280808e-01
    outer loop
      vertex   7.042005e+00 -7.983546e+00 2.599725e+00
      vertex   7.203633e+00 -7.771467e+00 2.833764e+00
      vertex   7.005736e+00 -7.942428e+00 2.833764e+00
    endloop
  endfacet
  facet normal 7.189762e-01 -6.688020e-01 1.891487e-01
    outer loop
      vertex   7.980416e+00 -7.228671e+00 2.132567e+00
      vertex   8.119476e+00 -7.079179e+00 2.132567e+00
      vertex   8.085575e+00 -7.049621e+00 2.365939e+00
    endloop
  endfacet
  facet normal 7.160449e-01 -6.660753e-01 2.088622e-01
    outer loop
      vertex   8.085575e+00 -7.049621e+00 2.365939e+00
      vertex   8.047921e+00 -7.016791e+00 2.599725e+00
      vertex   7.947096e+00 -7.198489e+00 2.365939e+00
    endloop
  endfacet
  facet normal 7.160449e-01 -6.660753e-01 2.088622e-01
    outer loop
      vertex   7.947096e+00 -7.198489e+00 2.365939e+00
      vertex   8.047921e+00 -7.016791e+00 2.599725e+00
      vertex   7.910087e+00 -7.164966e+00 2.599725e+00
    endloop
  endfacet
  facet normal 7.032536e-01 -6.795933e-01 2.087757e-01
    outer loop
      vertex   7.947096e+00 -7.198489e+00 2.365939e+00
      vertex   7.910087e+00 -7.164966e+00 2.599725e+00
      vertex   7.805696e+00 -7.344812e+00 2.365939e+00
    endloop
  endfacet
  facet normal 7.032536e-01 -6.795933e-01 2.087757e-01
    outer loop
      vertex   7.805696e+00 -7.344812e+00 2.365939e+00
      vertex   7.910087e+00 -7.164966e+00 2.599725e+00
      vertex   7.769346e+00 -7.310607e+00 2.599725e+00
    endloop
  endfacet
  facet normal 6.902151e-01 -6.928579e-01 2.086891e-01
    outer loop
      vertex   7.805696e+00 -7.344812e+00 2.365939e+00
      vertex   7.769346e+00 -7.310607e+00 2.599725e+00
      vertex   7.661451e+00 -7.488507e+00 2.365939e+00
    endloop
  endfacet
  facet normal 6.902151e-01 -6.928579e-01 2.086891e-01
    outer loop
      vertex   7.661451e+00 -7.488507e+00 2.365939e+00
      vertex   7.769346e+00 -7.310607e+00 2.599725e+00
      vertex   7.625772e+00 -7.453633e+00 2.599725e+00
    endloop
  endfacet
  facet normal 6.749510e-01 -7.077669e-01 2.085835e-01
    outer loop
      vertex   7.661451e+00 -7.488507e+00 2.365939e+00
      vertex   7.625772e+00 -7.453633e+00 2.599725e+00
      vertex   7.470365e+00 -7.670733e+00 2.365939e+00
    endloop
  endfacet
  facet normal 6.749510e-01 -7.077669e-01 2.085835e-01
    outer loop
      vertex   7.470365e+00 -7.670733e+00 2.365939e+00
      vertex   7.625772e+00 -7.453633e+00 2.599725e+00
      vertex   7.435576e+00 -7.635010e+00 2.599725e+00
    endloop
  endfacet
  facet normal 6.573519e-01 -7.241741e-01 2.084716e-01
    outer loop
      vertex   7.470365e+00 -7.670733e+00 2.365939e+00
      vertex   7.435576e+00 -7.635010e+00 2.599725e+00
      vertex   7.274804e+00 -7.848248e+00 2.365939e+00
    endloop
  endfacet
  facet normal 6.573519e-01 -7.241741e-01 2.084716e-01
    outer loop
      vertex   7.274804e+00 -7.848248e+00 2.365939e+00
      vertex   7.435576e+00 -7.635010e+00 2.599725e+00
      vertex   7.240926e+00 -7.811700e+00 2.599725e+00
    endloop
  endfacet
  facet normal 6.393825e-01 -7.401189e-01 2.083604e-01
    outer loop
      vertex   7.274804e+00 -7.848248e+00 2.365939e+00
      vertex   7.240926e+00 -7.811700e+00 2.599725e+00
      vertex   7.074952e+00 -8.020899e+00 2.365939e+00
    endloop
  endfacet
  facet normal 6.393825e-01 -7.401189e-01 2.083604e-01
    outer loop
      vertex   7.074952e+00 -8.020899e+00 2.365939e+00
      vertex   7.240926e+00 -7.811700e+00 2.599725e+00
      vertex   7.042005e+00 -7.983546e+00 2.599725e+00
    endloop
  endfacet
  facet normal 7.061301e-01 -6.823730e-01 1.890697e-01
    outer loop
      vertex   7.838424e+00 -7.375607e+00 2.132567e+00
      vertex   7.980416e+00 -7.228671e+00 2.132567e+00
      vertex   7.947096e+00 -7.198489e+00 2.365939e+00
    endloop
  endfacet
  facet normal 7.189762e-01 -6.688020e-01 1.891487e-01
    outer loop
      vertex   7.947096e+00 -7.198489e+00 2.365939e+00
      vertex   7.980416e+00 -7.228671e+00 2.132567e+00
      vertex   8.085575e+00 -7.049621e+00 2.365939e+00
    endloop
  endfacet
  facet normal 7.061301e-01 -6.823730e-01 1.890697e-01
    outer loop
      vertex   7.838424e+00 -7.375607e+00 2.132567e+00
      vertex   7.947096e+00 -7.198489e+00 2.365939e+00
      vertex   7.805696e+00 -7.344812e+00 2.365939e+00
    endloop
  endfacet
  facet normal 6.930359e-01 -6.956895e-01 1.889906e-01
    outer loop
      vertex   7.693574e+00 -7.519904e+00 2.132567e+00
      vertex   7.838424e+00 -7.375607e+00 2.132567e+00
      vertex   7.805696e+00 -7.344812e+00 2.365939e+00
    endloop
  endfacet
  facet normal 6.930359e-01 -6.956895e-01 1.889906e-01
    outer loop
      vertex   7.693574e+00 -7.519904e+00 2.132567e+00
      vertex   7.805696e+00 -7.344812e+00 2.365939e+00
      vertex   7.661451e+00 -7.488507e+00 2.365939e+00
    endloop
  endfacet
  facet normal 6.777067e-01 -7.106565e-01 1.888942e-01
    outer loop
      vertex   7.501687e+00 -7.702894e+00 2.132567e+00
      vertex   7.693574e+00 -7.519904e+00 2.132567e+00
      vertex   7.661451e+00 -7.488507e+00 2.365939e+00
    endloop
  endfacet
  facet normal 6.777067e-01 -7.106565e-01 1.888942e-01
    outer loop
      vertex   7.501687e+00 -7.702894e+00 2.132567e+00
      vertex   7.661451e+00 -7.488507e+00 2.365939e+00
      vertex   7.470365e+00 -7.670733e+00 2.365939e+00
    endloop
  endfacet
  facet normal 6.600327e-01 -7.271275e-01 1.887920e-01
    outer loop
      vertex   7.305306e+00 -7.881154e+00 2.132567e+00
      vertex   7.501687e+00 -7.702894e+00 2.132567e+00
      vertex   7.470365e+00 -7.670733e+00 2.365939e+00
    endloop
  endfacet
  facet normal 6.600327e-01 -7.271275e-01 1.887920e-01
    outer loop
      vertex   7.305306e+00 -7.881154e+00 2.132567e+00
      vertex   7.470365e+00 -7.670733e+00 2.365939e+00
      vertex   7.274804e+00 -7.848248e+00 2.365939e+00
    endloop
  endfacet
  facet normal 6.419873e-01 -7.431340e-01 1.886905e-01
    outer loop
      vertex   7.104616e+00 -8.054529e+00 2.132567e+00
      vertex   7.305306e+00 -7.881154e+00 2.132567e+00
      vertex   7.274804e+00 -7.848248e+00 2.365939e+00
    endloop
  endfacet
  facet normal 6.419873e-01 -7.431340e-01 1.886905e-01
    outer loop
      vertex   7.104616e+00 -8.054529e+00 2.132567e+00
      vertex   7.274804e+00 -7.848248e+00 2.365939e+00
      vertex   7.074952e+00 -8.020899e+00 2.365939e+00
    endloop
  endfacet
  facet normal 6.427876e-01 7.660444e-01 -4.149594e-14
    outer loop
      vertex   7.932776e+00 -6.656389e+00 3.769095e+00
      vertex   7.989510e+00 -6.703995e+00 3.540657e+00
      vertex   0.000000e+00 0.000000e+00 0.000000e+00
    endloop
  endfacet
  facet normal 6.427876e-01 7.660444e-01 0.000000e+00
    outer loop
      vertex   0.000000e+00 0.000000e+00 0.000000e+00
      vertex   7.989510e+00 -6.703995e+00 3.540657e+00
      vertex   8.042644e+00 -6.748580e+00 3.310829e+00
    endloop
  endfacet
  facet normal 6.427876e-01 7.660444e-01 2.690681e-15
    outer loop
      vertex   0.000000e+00 0.000000e+00 0.000000e+00
      vertex   8.042644e+00 -6.748580e+00 3.310829e+00
      vertex   8.092169e+00 -6.790136e+00 3.079691e+00
    endloop
  endfacet
  facet normal 6.427876e-01 7.660444e-01 5.111064e-15
    outer loop
      vertex   8.092169e+00 -6.790136e+00 3.079691e+00
      vertex   8.138075e+00 -6.828656e+00 2.847320e+00
      vertex   0.000000e+00 0.000000e+00 0.000000e+00
    endloop
  endfacet
  facet normal 6.427876e-01 7.660444e-01 0.000000e+00
    outer loop
      vertex   0.000000e+00 0.000000e+00 0.000000e+00
      vertex   8.138075e+00 -6.828656e+00 2.847320e+00
      vertex   8.180353e+00 -6.864131e+00 2.613797e+00
    endloop
  endfacet
  facet normal 6.427876e-01 7.660444e-01 0.000000e+00
    outer loop
      vertex   0.000000e+00 0.000000e+00 0.000000e+00
      vertex   8.180353e+00 -6.864131e+00 2.613797e+00
      vertex   8.218993e+00 -6.896554e+00 2.379200e+00
    endloop
  endfacet
  facet normal 6.427876e-01 7.660444e-01 -2.158231e-15
    outer loop
      vertex   8.218993e+00 -6.896554e+00 2.379200e+00
      vertex   8.253985e+00 -6.925916e+00 2.143609e+00
      vertex   0.000000e+00 0.000000e+00 0.000000e+00
    endloop
  endfacet
  facet normal 6.427876e-01 7.660444e-01 8.086610e-15
    outer loop
      vertex   0.000000e+00 0.000000e+00 0.000000e+00
      vertex   8.253985e+00 -6.925916e+00 2.143609e+00
      vertex   8.285320e+00 -6.952209e+00 1.907103e+00
    endloop
  endfacet
  facet normal -2.244156e-01 2.581606e-01 9.396759e-01
    outer loop
      vertex   0.000000e+00 0.000000e+00 0.000000e+00
      vertex   6.632906e+00 -7.904789e+00 3.755798e+00
      vertex   3.464592e+00 -3.847819e+00 1.884547e+00
    endloop
  endfacet
  facet normal -2.226636e-01 2.595451e-01 9.397113e-01
    outer loop
      vertex   3.464592e+00 -3.847819e+00 1.884547e+00
      vertex   6.632906e+00 -7.904789e+00 3.755798e+00
      vertex   6.807025e+00 -7.761372e+00 3.757444e+00
    endloop
  endfacet
  facet normal -2.283364e-01 2.546851e-01 9.396797e-01
    outer loop
      vertex   3.464592e+00 -3.847819e+00 1.884547e+00
      vertex   6.807025e+00 -7.761372e+00 3.757444e+00
      vertex   6.977969e+00 -7.614226e+00 3.759101e+00
    endloop
  endfacet
  facet normal -2.332412e-01 2.501205e-01 9.397012e-01
    outer loop
      vertex   3.464592e+00 -3.847819e+00 1.884547e+00
      vertex   6.977969e+00 -7.614226e+00 3.759101e+00
      vertex   3.596768e+00 -3.724563e+00 1.884547e+00
    endloop
  endfacet
  facet normal -2.338195e-01 2.496135e-01 9.396923e-01
    outer loop
      vertex   3.596768e+00 -3.724563e+00 1.884547e+00
      vertex   6.977969e+00 -7.614226e+00 3.759101e+00
      vertex   7.145674e+00 -7.463399e+00 3.760765e+00
    endloop
  endfacet
  facet normal -2.392309e-01 2.444718e-01 9.396819e-01
    outer loop
      vertex   3.596768e+00 -3.724563e+00 1.884547e+00
      vertex   7.145674e+00 -7.463399e+00 3.760765e+00
      vertex   7.310075e+00 -7.308939e+00 3.762435e+00
    endloop
  endfacet
  facet normal -2.418121e-01 2.418121e-01 9.397094e-01
    outer loop
      vertex   3.596768e+00 -3.724563e+00 1.884547e+00
      vertex   7.310075e+00 -7.308939e+00 3.762435e+00
      vertex   3.724563e+00 -3.596768e+00 1.884547e+00
    endloop
  endfacet
  facet normal -2.445076e-01 2.391947e-01 9.396818e-01
    outer loop
      vertex   3.724563e+00 -3.596768e+00 1.884547e+00
      vertex   7.310075e+00 -7.308939e+00 3.762435e+00
      vertex   7.471070e+00 -7.150933e+00 3.764106e+00
    endloop
  endfacet
  facet normal -2.496442e-01 2.337858e-01 9.396925e-01
    outer loop
      vertex   3.724563e+00 -3.596768e+00 1.884547e+00
      vertex   7.471070e+00 -7.150933e+00 3.764106e+00
      vertex   7.628558e+00 -6.989470e+00 3.765775e+00
    endloop
  endfacet
  facet normal -2.501211e-01 2.332417e-01 9.397009e-01
    outer loop
      vertex   3.724563e+00 -3.596768e+00 1.884547e+00
      vertex   7.628558e+00 -6.989470e+00 3.765775e+00
      vertex   3.847819e+00 -3.464592e+00 1.884547e+00
    endloop
  endfacet
  facet normal -2.547054e-01 2.283133e-01 9.396798e-01
    outer loop
      vertex   3.847819e+00 -3.464592e+00 1.884547e+00
      vertex   7.628558e+00 -6.989470e+00 3.765775e+00
      vertex   7.782480e+00 -6.824604e+00 3.767439e+00
    endloop
  endfacet
  facet normal -2.595547e-01 2.226523e-01 9.397113e-01
    outer loop
      vertex   3.847819e+00 -3.464592e+00 1.884547e+00
      vertex   7.782480e+00 -6.824604e+00 3.767439e+00
      vertex   7.932776e+00 -6.656389e+00 3.769095e+00
    endloop
  endfacet
  facet normal -2.581606e-01 2.244156e-01 9.396759e-01
    outer loop
      vertex   7.932776e+00 -6.656389e+00 3.769095e+00
      vertex   0.000000e+00 0.000000e+00 0.000000e+00
      vertex   3.847819e+00 -3.464592e+00 1.884547e+00
    endloop
  endfacet
  facet normal -2.501713e-01 2.332886e-01 9.396759e-01
    outer loop
      vertex   3.847819e+00 -3.464592e+00 1.884547e+00
      vertex   0.000000e+00 0.000000e+00 0.000000e+00
      vertex   3.724563e+00 -3.596768e+00 1.884547e+00
    endloop
  endfacet
  facet normal -2.418773e-01 2.418773e-01 9.396759e-01
    outer loop
      vertex   3.724563e+00 -3.596768e+00 1.884547e+00
      vertex   0.000000e+00 0.000000e+00 0.000000e+00
      vertex   3.596768e+00 -3.724563e+00 1.884547e+00
    endloop
  endfacet
  facet normal -2.332886e-01 2.501713e-01 9.396759e-01
    outer loop
      vertex   3.596768e+00 -3.724563e+00 1.884547e+00
      vertex   0.000000e+00 0.000000e+00 0.000000e+00
      vertex   3.464592e+00 -3.847819e+00 1.884547e+00
    endloop
  endfacet
  facet normal 1.310733e-01 -1.139403e-01 -9.848032e-01
    outer loop
      vertex   0.000000e+00 0.000000e+00 0.000000e+00
      vertex   8.285320e+00 -6.952209e+00 1.907103e+00
      vertex   4.018822e+00 -3.618564e+00 9.535514e-01
    endloop
  endfacet
  facet normal 1.317777e-01 -1.130416e-01 -9.848128e-01
    outer loop
      vertex   4.018822e+00 -3.618564e+00 9.535514e-01
      vertex   8.285320e+00 -6.952209e+00 1.907103e+00
      vertex   8.128044e+00 -7.127591e+00 1.906189e+00
    endloop
  endfacet
  facet normal 1.293191e-01 -1.159183e-01 -9.848043e-01
    outer loop
      vertex   4.018822e+00 -3.618564e+00 9.535514e-01
      vertex   8.128044e+00 -7.127591e+00 1.906189e+00
      vertex   7.966985e+00 -7.299467e+00 1.905271e+00
    endloop
  endfacet
  facet normal 1.269890e-01 -1.184191e-01 -9.848100e-01
    outer loop
      vertex   4.018822e+00 -3.618564e+00 9.535514e-01
      vertex   7.966985e+00 -7.299467e+00 1.905271e+00
      vertex   3.890088e+00 -3.756614e+00 9.535514e-01
    endloop
  endfacet
  facet normal 1.267484e-01 -1.186954e-01 -9.848077e-01
    outer loop
      vertex   3.890088e+00 -3.756614e+00 9.535514e-01
      vertex   7.966985e+00 -7.299467e+00 1.905271e+00
      vertex   7.802209e+00 -7.467783e+00 1.904350e+00
    endloop
  endfacet
  facet normal 1.241416e-01 -1.214425e-01 -9.848048e-01
    outer loop
      vertex   3.890088e+00 -3.756614e+00 9.535514e-01
      vertex   7.802209e+00 -7.467783e+00 1.904350e+00
      vertex   7.633777e+00 -7.632483e+00 1.903428e+00
    endloop
  endfacet
  facet normal 1.227696e-01 -1.227696e-01 -9.848123e-01
    outer loop
      vertex   3.890088e+00 -3.756614e+00 9.535514e-01
      vertex   7.633777e+00 -7.632483e+00 1.903428e+00
      vertex   3.756614e+00 -3.890088e+00 9.535514e-01
    endloop
  endfacet
  facet normal 1.214626e-01 -1.241218e-01 -9.848049e-01
    outer loop
      vertex   3.756614e+00 -3.890088e+00 9.535514e-01
      vertex   7.633777e+00 -7.632483e+00 1.903428e+00
      vertex   7.461795e+00 -7.793473e+00 1.902507e+00
    endloop
  endfacet
  facet normal 1.187141e-01 -1.267314e-01 -9.848077e-01
    outer loop
      vertex   3.756614e+00 -3.890088e+00 9.535514e-01
      vertex   7.461795e+00 -7.793473e+00 1.902507e+00
      vertex   7.286371e+00 -7.950664e+00 1.901589e+00
    endloop
  endfacet
  facet normal 1.184188e-01 -1.269886e-01 -9.848101e-01
    outer loop
      vertex   3.756614e+00 -3.890088e+00 9.535514e-01
      vertex   7.286371e+00 -7.950664e+00 1.901589e+00
      vertex   3.618564e+00 -4.018822e+00 9.535514e-01
    endloop
  endfacet
  facet normal 1.159311e-01 -1.293079e-01 -9.848043e-01
    outer loop
      vertex   3.618564e+00 -4.018822e+00 9.535514e-01
      vertex   7.286371e+00 -7.950664e+00 1.901589e+00
      vertex   7.107572e+00 -8.104006e+00 1.900675e+00
    endloop
  endfacet
  facet normal 1.130478e-01 -1.317724e-01 -9.848128e-01
    outer loop
      vertex   3.618564e+00 -4.018822e+00 9.535514e-01
      vertex   7.107572e+00 -8.104006e+00 1.900675e+00
      vertex   6.925467e+00 -8.253450e+00 1.899767e+00
    endloop
  endfacet
  facet normal 1.139403e-01 -1.310733e-01 -9.848032e-01
    outer loop
      vertex   6.925467e+00 -8.253450e+00 1.899767e+00
      vertex   0.000000e+00 0.000000e+00 0.000000e+00
      vertex   3.618564e+00 -4.018822e+00 9.535514e-01
    endloop
  endfacet
  facet normal 1.184453e-01 -1.270170e-01 -9.848032e-01
    outer loop
      vertex   3.618564e+00 -4.018822e+00 9.535514e-01
      vertex   0.000000e+00 0.000000e+00 0.000000e+00
      vertex   3.756614e+00 -3.890088e+00 9.535514e-01
    endloop
  endfacet
  facet normal 1.228059e-01 -1.228059e-01 -9.848032e-01
    outer loop
      vertex   3.756614e+00 -3.890088e+00 9.535514e-01
      vertex   0.000000e+00 0.000000e+00 0.000000e+00
      vertex   3.890088e+00 -3.756614e+00 9.535514e-01
    endloop
  endfacet
  facet normal 1.270170e-01 -1.184453e-01 -9.848032e-01
    outer loop
      vertex   3.890088e+00 -3.756614e+00 9.535514e-01
      vertex   0.000000e+00 0.000000e+00 0.000000e+00
      vertex   4.018822e+00 -3.618564e+00 9.535514e-01
    endloop
  endfacet
endsolid
