solid ASCII
  facet normal 5.000000e-01 8.660254e-01 -1.661869e-16
    outer loop
      vertex   1.716152e+00 -9.908211e-01 -1.123845e+01
      vertex   0.000000e+00 0.000000e+00 0.000000e+00
      vertex   1.927418e+00 -1.112795e+00 -1.118918e+01
    endloop
  endfacet
  facet normal 5.000000e-01 8.660254e-01 -2.641086e-16
    outer loop
      vertex   1.927418e+00 -1.112795e+00 -1.118918e+01
      vertex   0.000000e+00 0.000000e+00 0.000000e+00
      vertex   2.137571e+00 -1.234127e+00 -1.113425e+01
    endloop
  endfacet
  facet normal 5.000000e-01 8.660254e-01 3.916306e-17
    outer loop
      vertex   2.137571e+00 -1.234127e+00 -1.113425e+01
      vertex   0.000000e+00 0.000000e+00 0.000000e+00
      vertex   2.346446e+00 -1.354721e+00 -1.107371e+01
    endloop
  endfacet
  facet normal 5.000000e-01 8.660254e-01 -5.683099e-16
    outer loop
      vertex   2.346446e+00 -1.354721e+00 -1.107371e+01
      vertex   0.000000e+00 0.000000e+00 0.000000e+00
      vertex   2.553966e+00 -1.474533e+00 -1.100760e+01
    endloop
  endfacet
  facet normal 5.000000e-01 8.660254e-01 -3.529750e-16
    outer loop
      vertex   2.553966e+00 -1.474533e+00 -1.100760e+01
      vertex   0.000000e+00 0.000000e+00 0.000000e+00
      vertex   2.760057e+00 -1.593520e+00 -1.093595e+01
    endloop
  endfacet
  facet normal 5.000000e-01 8.660254e-01 1.962005e-16
    outer loop
      vertex   2.760057e+00 -1.593520e+00 -1.093595e+01
      vertex   0.000000e+00 0.000000e+00 0.000000e+00
      vertex   2.964643e+00 -1.711637e+00 -1.085881e+01
    endloop
  endfacet
  facet normal 5.000000e-01 8.660254e-01 -3.729302e-16
    outer loop
      vertex   2.964643e+00 -1.711637e+00 -1.085881e+01
      vertex   0.000000e+00 0.000000e+00 0.000000e+00
      vertex   3.167648e+00 -1.828842e+00 -1.077621e+01
    endloop
  endfacet
  facet normal 5.000000e-01 8.660254e-01 1.668830e-15
    outer loop
      vertex   3.167648e+00 -1.828842e+00 -1.077621e+01
      vertex   0.000000e+00 0.000000e+00 0.000000e+00
      vertex   3.368997e+00 -1.945091e+00 -1.068819e+01
    endloop
  endfacet
  facet normal 1.517813e-01 -1.293277e-01 -9.799167e-01
    outer loop
      vertex   1.704622e+00 -1.430348e+00 -1.118746e+01
      vertex   1.517841e+00 -1.273620e+00 -1.123708e+01
      vertex   1.757895e+00 -1.348043e+00 -1.119007e+01
    endloop
  endfacet
  facet normal 1.537666e-01 -1.232254e-01 -9.803935e-01
    outer loop
      vertex   1.757895e+00 -1.348043e+00 -1.119007e+01
      vertex   1.517841e+00 -1.273620e+00 -1.123708e+01
      vertex   1.623173e+00 -1.136552e+00 -1.123779e+01
    endloop
  endfacet
  facet normal 1.575028e-01 -1.207802e-01 -9.801046e-01
    outer loop
      vertex   1.757895e+00 -1.348043e+00 -1.119007e+01
      vertex   1.623173e+00 -1.136552e+00 -1.123779e+01
      vertex   1.816995e+00 -1.270975e+00 -1.119007e+01
    endloop
  endfacet
  facet normal 1.625189e-01 -1.135630e-01 -9.801485e-01
    outer loop
      vertex   1.816995e+00 -1.270975e+00 -1.119007e+01
      vertex   1.623173e+00 -1.136552e+00 -1.123779e+01
      vertex   1.872259e+00 -1.191887e+00 -1.119007e+01
    endloop
  endfacet
  facet normal 1.808811e-01 -1.263939e-01 -9.753495e-01
    outer loop
      vertex   1.816995e+00 -1.270975e+00 -1.119007e+01
      vertex   1.872259e+00 -1.191887e+00 -1.119007e+01
      vertex   2.074702e+00 -1.320899e+00 -1.113581e+01
    endloop
  endfacet
  facet normal 1.858589e-01 -1.186009e-01 -9.753924e-01
    outer loop
      vertex   2.074702e+00 -1.320899e+00 -1.113581e+01
      vertex   1.872259e+00 -1.191887e+00 -1.119007e+01
      vertex   1.927418e+00 -1.112795e+00 -1.118918e+01
    endloop
  endfacet
  facet normal 1.869099e-01 -1.178295e-01 -9.752850e-01
    outer loop
      vertex   2.074702e+00 -1.320899e+00 -1.113581e+01
      vertex   1.927418e+00 -1.112795e+00 -1.118918e+01
      vertex   2.137571e+00 -1.234127e+00 -1.113425e+01
    endloop
  endfacet
  facet normal 1.636292e-01 -1.088654e-01 -9.804967e-01
    outer loop
      vertex   1.623173e+00 -1.136552e+00 -1.123779e+01
      vertex   1.716152e+00 -9.908211e-01 -1.123845e+01
      vertex   1.872259e+00 -1.191887e+00 -1.119007e+01
    endloop
  endfacet
  facet normal 1.675274e-01 -1.057621e-01 -9.801780e-01
    outer loop
      vertex   1.872259e+00 -1.191887e+00 -1.119007e+01
      vertex   1.716152e+00 -9.908211e-01 -1.123845e+01
      vertex   1.927418e+00 -1.112795e+00 -1.118918e+01
    endloop
  endfacet
  facet normal 2.047757e-01 -1.308691e-01 -9.700207e-01
    outer loop
      vertex   2.074702e+00 -1.320899e+00 -1.113581e+01
      vertex   2.137571e+00 -1.234127e+00 -1.113425e+01
      vertex   2.277396e+00 -1.450097e+00 -1.107559e+01
    endloop
  endfacet
  facet normal 2.060554e-01 -1.299988e-01 -9.698667e-01
    outer loop
      vertex   2.277396e+00 -1.450097e+00 -1.107559e+01
      vertex   2.137571e+00 -1.234127e+00 -1.113425e+01
      vertex   2.346446e+00 -1.354721e+00 -1.107371e+01
    endloop
  endfacet
  facet normal 2.237985e-01 -1.429585e-01 -9.640939e-01
    outer loop
      vertex   2.277396e+00 -1.450097e+00 -1.107559e+01
      vertex   2.346446e+00 -1.354721e+00 -1.107371e+01
      vertex   2.480180e+00 -1.579379e+00 -1.100935e+01
    endloop
  endfacet
  facet normal 2.249831e-01 -1.422063e-01 -9.639294e-01
    outer loop
      vertex   2.480180e+00 -1.579379e+00 -1.100935e+01
      vertex   2.346446e+00 -1.354721e+00 -1.107371e+01
      vertex   2.553966e+00 -1.474533e+00 -1.100760e+01
    endloop
  endfacet
  facet normal 2.428789e-01 -1.549066e-01 -9.576084e-01
    outer loop
      vertex   2.480180e+00 -1.579379e+00 -1.100935e+01
      vertex   2.553966e+00 -1.474533e+00 -1.100760e+01
      vertex   2.682885e+00 -1.708637e+00 -1.093703e+01
    endloop
  endfacet
  facet normal 2.437029e-01 -1.544137e-01 -9.574786e-01
    outer loop
      vertex   2.682885e+00 -1.708637e+00 -1.093703e+01
      vertex   2.553966e+00 -1.474533e+00 -1.100760e+01
      vertex   2.760057e+00 -1.593520e+00 -1.093595e+01
    endloop
  endfacet
  facet normal 2.619803e-01 -1.667313e-01 -9.505614e-01
    outer loop
      vertex   2.682885e+00 -1.708637e+00 -1.093703e+01
      vertex   2.760057e+00 -1.593520e+00 -1.093595e+01
      vertex   2.885342e+00 -1.837765e+00 -1.085858e+01
    endloop
  endfacet
  facet normal 2.622168e-01 -1.665968e-01 -9.505198e-01
    outer loop
      vertex   2.885342e+00 -1.837765e+00 -1.085858e+01
      vertex   2.760057e+00 -1.593520e+00 -1.093595e+01
      vertex   2.964643e+00 -1.711637e+00 -1.085881e+01
    endloop
  endfacet
  facet normal 2.807987e-01 -1.782663e-01 -9.430658e-01
    outer loop
      vertex   2.885342e+00 -1.837765e+00 -1.085858e+01
      vertex   2.964643e+00 -1.711637e+00 -1.085881e+01
      vertex   3.167648e+00 -1.828842e+00 -1.077621e+01
    endloop
  endfacet
  facet normal 2.807851e-01 -1.788908e-01 -9.429516e-01
    outer loop
      vertex   2.885342e+00 -1.837765e+00 -1.085858e+01
      vertex   3.167648e+00 -1.828842e+00 -1.077621e+01
      vertex   3.087377e+00 -1.966650e+00 -1.077397e+01
    endloop
  endfacet
  facet normal 2.993486e-01 -1.895763e-01 -9.351210e-01
    outer loop
      vertex   3.087377e+00 -1.966650e+00 -1.077397e+01
      vertex   3.167648e+00 -1.828842e+00 -1.077621e+01
      vertex   3.368997e+00 -1.945091e+00 -1.068819e+01
    endloop
  endfacet
  facet normal 2.993595e-01 -1.903939e-01 -9.349514e-01
    outer loop
      vertex   3.087377e+00 -1.966650e+00 -1.077397e+01
      vertex   3.368997e+00 -1.945091e+00 -1.068819e+01
      vertex   3.280596e+00 -2.089936e+00 -1.068700e+01
    endloop
  endfacet
  facet normal 2.910081e-01 -2.034089e-01 -9.348471e-01
    outer loop
      vertex   3.087377e+00 -1.966650e+00 -1.077397e+01
      vertex   3.280596e+00 -2.089936e+00 -1.068700e+01
      vertex   2.996797e+00 -2.096238e+00 -1.077397e+01
    endloop
  endfacet
  facet normal 2.909927e-01 -2.037885e-01 -9.347692e-01
    outer loop
      vertex   2.996797e+00 -2.096238e+00 -1.077397e+01
      vertex   3.280596e+00 -2.089936e+00 -1.068700e+01
      vertex   3.185948e+00 -2.230777e+00 -1.068576e+01
    endloop
  endfacet
  facet normal 2.820350e-01 -2.163339e-01 -9.346956e-01
    outer loop
      vertex   2.996797e+00 -2.096238e+00 -1.077397e+01
      vertex   3.185948e+00 -2.230777e+00 -1.068576e+01
      vertex   2.898749e+00 -2.224063e+00 -1.077397e+01
    endloop
  endfacet
  facet normal 2.820012e-01 -2.167247e-01 -9.346153e-01
    outer loop
      vertex   2.898749e+00 -2.224063e+00 -1.077397e+01
      vertex   3.185948e+00 -2.230777e+00 -1.068576e+01
      vertex   3.085235e+00 -2.367347e+00 -1.068447e+01
    endloop
  endfacet
  facet normal 2.728368e-01 -2.285863e-01 -9.345097e-01
    outer loop
      vertex   2.898749e+00 -2.224063e+00 -1.077397e+01
      vertex   3.085235e+00 -2.367347e+00 -1.068447e+01
      vertex   2.800753e+00 -2.350111e+00 -1.077175e+01
    endloop
  endfacet
  facet normal 2.727322e-01 -2.294259e-01 -9.343345e-01
    outer loop
      vertex   2.800753e+00 -2.350111e+00 -1.077175e+01
      vertex   3.085235e+00 -2.367347e+00 -1.068447e+01
      vertex   2.978652e+00 -2.499386e+00 -1.068316e+01
    endloop
  endfacet
  facet normal 2.558810e-01 -2.155426e-01 -9.423727e-01
    outer loop
      vertex   2.800753e+00 -2.350111e+00 -1.077175e+01
      vertex   2.621375e+00 -2.199595e+00 -1.085488e+01
      vertex   2.898749e+00 -2.224063e+00 -1.077397e+01
    endloop
  endfacet
  facet normal 2.561037e-01 -2.139889e-01 -9.426663e-01
    outer loop
      vertex   2.898749e+00 -2.224063e+00 -1.077397e+01
      vertex   2.621375e+00 -2.199595e+00 -1.085488e+01
      vertex   2.709064e+00 -2.078348e+00 -1.085858e+01
    endloop
  endfacet
  facet normal 2.646094e-01 -2.029677e-01 -9.427544e-01
    outer loop
      vertex   2.898749e+00 -2.224063e+00 -1.077397e+01
      vertex   2.709064e+00 -2.078348e+00 -1.085858e+01
      vertex   2.996797e+00 -2.096238e+00 -1.077397e+01
    endloop
  endfacet
  facet normal 2.646104e-01 -2.029596e-01 -9.427559e-01
    outer loop
      vertex   2.996797e+00 -2.096238e+00 -1.077397e+01
      vertex   2.709064e+00 -2.078348e+00 -1.085858e+01
      vertex   2.800604e+00 -1.959002e+00 -1.085858e+01
    endloop
  endfacet
  facet normal 2.730970e-01 -1.908894e-01 -9.428570e-01
    outer loop
      vertex   2.996797e+00 -2.096238e+00 -1.077397e+01
      vertex   2.800604e+00 -1.959002e+00 -1.085858e+01
      vertex   3.087377e+00 -1.966650e+00 -1.077397e+01
    endloop
  endfacet
  facet normal 2.730977e-01 -1.908802e-01 -9.428586e-01
    outer loop
      vertex   3.087377e+00 -1.966650e+00 -1.077397e+01
      vertex   2.800604e+00 -1.959002e+00 -1.085858e+01
      vertex   2.885342e+00 -1.837765e+00 -1.085858e+01
    endloop
  endfacet
  facet normal 2.387490e-01 -2.016586e-01 -9.499119e-01
    outer loop
      vertex   2.621375e+00 -2.199595e+00 -1.085488e+01
      vertex   2.440583e+00 -2.047892e+00 -1.093253e+01
      vertex   2.709064e+00 -2.078348e+00 -1.085858e+01
    endloop
  endfacet
  facet normal 2.391284e-01 -1.992938e-01 -9.503155e-01
    outer loop
      vertex   2.709064e+00 -2.078348e+00 -1.085858e+01
      vertex   2.440583e+00 -2.047892e+00 -1.093253e+01
      vertex   2.518982e+00 -1.932352e+00 -1.093703e+01
    endloop
  endfacet
  facet normal 2.468223e-01 -1.893158e-01 -9.503885e-01
    outer loop
      vertex   2.709064e+00 -2.078348e+00 -1.085858e+01
      vertex   2.518982e+00 -1.932352e+00 -1.093703e+01
      vertex   2.800604e+00 -1.959002e+00 -1.085858e+01
    endloop
  endfacet
  facet normal 2.468233e-01 -1.893084e-01 -9.503897e-01
    outer loop
      vertex   2.800604e+00 -1.959002e+00 -1.085858e+01
      vertex   2.518982e+00 -1.932352e+00 -1.093703e+01
      vertex   2.604013e+00 -1.821488e+00 -1.093703e+01
    endloop
  endfacet
  facet normal 2.547362e-01 -1.780465e-01 -9.504782e-01
    outer loop
      vertex   2.800604e+00 -1.959002e+00 -1.085858e+01
      vertex   2.604013e+00 -1.821488e+00 -1.093703e+01
      vertex   2.885342e+00 -1.837765e+00 -1.085858e+01
    endloop
  endfacet
  facet normal 2.547371e-01 -1.780381e-01 -9.504796e-01
    outer loop
      vertex   2.885342e+00 -1.837765e+00 -1.085858e+01
      vertex   2.604013e+00 -1.821488e+00 -1.093703e+01
      vertex   2.682885e+00 -1.708637e+00 -1.093703e+01
    endloop
  endfacet
  facet normal 2.215020e-01 -1.875919e-01 -9.569462e-01
    outer loop
      vertex   2.440583e+00 -2.047892e+00 -1.093253e+01
      vertex   2.258445e+00 -1.895060e+00 -1.100464e+01
      vertex   2.518982e+00 -1.932352e+00 -1.093703e+01
    endloop
  endfacet
  facet normal 2.220450e-01 -1.846189e-01 -9.573985e-01
    outer loop
      vertex   2.518982e+00 -1.932352e+00 -1.093703e+01
      vertex   2.258445e+00 -1.895060e+00 -1.100464e+01
      vertex   2.328666e+00 -1.786203e+00 -1.100935e+01
    endloop
  endfacet
  facet normal 2.289775e-01 -1.756210e-01 -9.574584e-01
    outer loop
      vertex   2.518982e+00 -1.932352e+00 -1.093703e+01
      vertex   2.328666e+00 -1.786203e+00 -1.100935e+01
      vertex   2.604013e+00 -1.821488e+00 -1.093703e+01
    endloop
  endfacet
  facet normal 2.289786e-01 -1.756141e-01 -9.574594e-01
    outer loop
      vertex   2.604013e+00 -1.821488e+00 -1.093703e+01
      vertex   2.328666e+00 -1.786203e+00 -1.100935e+01
      vertex   2.407193e+00 -1.683814e+00 -1.100935e+01
    endloop
  endfacet
  facet normal 2.363166e-01 -1.651639e-01 -9.575361e-01
    outer loop
      vertex   2.604013e+00 -1.821488e+00 -1.093703e+01
      vertex   2.407193e+00 -1.683814e+00 -1.100935e+01
      vertex   2.682885e+00 -1.708637e+00 -1.093703e+01
    endloop
  endfacet
  facet normal 2.363176e-01 -1.651563e-01 -9.575371e-01
    outer loop
      vertex   2.682885e+00 -1.708637e+00 -1.093703e+01
      vertex   2.407193e+00 -1.683814e+00 -1.100935e+01
      vertex   2.480180e+00 -1.579379e+00 -1.100935e+01
    endloop
  endfacet
  facet normal 2.041546e-01 -1.733407e-01 -9.634697e-01
    outer loop
      vertex   2.258445e+00 -1.895060e+00 -1.100464e+01
      vertex   2.075027e+00 -1.741154e+00 -1.107120e+01
      vertex   2.328666e+00 -1.786203e+00 -1.100935e+01
    endloop
  endfacet
  facet normal 2.048582e-01 -1.699934e-01 -9.639167e-01
    outer loop
      vertex   2.328666e+00 -1.786203e+00 -1.100935e+01
      vertex   2.075027e+00 -1.741154e+00 -1.107120e+01
      vertex   2.138276e+00 -1.640022e+00 -1.107559e+01
    endloop
  endfacet
  facet normal 2.110922e-01 -1.618962e-01 -9.639656e-01
    outer loop
      vertex   2.328666e+00 -1.786203e+00 -1.100935e+01
      vertex   2.138276e+00 -1.640022e+00 -1.107559e+01
      vertex   2.407193e+00 -1.683814e+00 -1.100935e+01
    endloop
  endfacet
  facet normal 2.110934e-01 -1.618900e-01 -9.639664e-01
    outer loop
      vertex   2.407193e+00 -1.683814e+00 -1.100935e+01
      vertex   2.138276e+00 -1.640022e+00 -1.107559e+01
      vertex   2.210309e+00 -1.546095e+00 -1.107559e+01
    endloop
  endfacet
  facet normal 2.178559e-01 -1.522538e-01 -9.640319e-01
    outer loop
      vertex   2.407193e+00 -1.683814e+00 -1.100935e+01
      vertex   2.210309e+00 -1.546095e+00 -1.107559e+01
      vertex   2.480180e+00 -1.579379e+00 -1.100935e+01
    endloop
  endfacet
  facet normal 2.178569e-01 -1.522469e-01 -9.640328e-01
    outer loop
      vertex   2.480180e+00 -1.579379e+00 -1.100935e+01
      vertex   2.210309e+00 -1.546095e+00 -1.107559e+01
      vertex   2.277396e+00 -1.450097e+00 -1.107559e+01
    endloop
  endfacet
  facet normal 1.867278e-01 -1.588962e-01 -9.694765e-01
    outer loop
      vertex   2.075027e+00 -1.741154e+00 -1.107120e+01
      vertex   1.890397e+00 -1.586232e+00 -1.113215e+01
      vertex   2.138276e+00 -1.640022e+00 -1.107559e+01
    endloop
  endfacet
  facet normal 1.875644e-01 -1.554573e-01 -9.698725e-01
    outer loop
      vertex   2.138276e+00 -1.640022e+00 -1.107559e+01
      vertex   1.890397e+00 -1.586232e+00 -1.113215e+01
      vertex   1.947968e+00 -1.493930e+00 -1.113581e+01
    endloop
  endfacet
  facet normal 1.931832e-01 -1.481545e-01 -9.699126e-01
    outer loop
      vertex   2.138276e+00 -1.640022e+00 -1.107559e+01
      vertex   1.947968e+00 -1.493930e+00 -1.113581e+01
      vertex   2.210309e+00 -1.546095e+00 -1.107559e+01
    endloop
  endfacet
  facet normal 1.931844e-01 -1.481490e-01 -9.699132e-01
    outer loop
      vertex   2.210309e+00 -1.546095e+00 -1.107559e+01
      vertex   1.947968e+00 -1.493930e+00 -1.113581e+01
      vertex   2.013524e+00 -1.408445e+00 -1.113581e+01
    endloop
  endfacet
  facet normal 1.993713e-01 -1.393284e-01 -9.699684e-01
    outer loop
      vertex   2.210309e+00 -1.546095e+00 -1.107559e+01
      vertex   2.013524e+00 -1.408445e+00 -1.113581e+01
      vertex   2.277396e+00 -1.450097e+00 -1.107559e+01
    endloop
  endfacet
  facet normal 1.993724e-01 -1.393221e-01 -9.699691e-01
    outer loop
      vertex   2.277396e+00 -1.450097e+00 -1.107559e+01
      vertex   2.013524e+00 -1.408445e+00 -1.113581e+01
      vertex   2.074702e+00 -1.320899e+00 -1.113581e+01
    endloop
  endfacet
  facet normal 1.692529e-01 -1.442378e-01 -9.749610e-01
    outer loop
      vertex   1.890397e+00 -1.586232e+00 -1.113215e+01
      vertex   1.704622e+00 -1.430348e+00 -1.118746e+01
      vertex   1.947968e+00 -1.493930e+00 -1.113581e+01
    endloop
  endfacet
  facet normal 1.701467e-01 -1.410675e-01 -9.752692e-01
    outer loop
      vertex   1.947968e+00 -1.493930e+00 -1.113581e+01
      vertex   1.704622e+00 -1.430348e+00 -1.118746e+01
      vertex   1.757895e+00 -1.348043e+00 -1.119007e+01
    endloop
  endfacet
  facet normal 1.752672e-01 -1.344086e-01 -9.753029e-01
    outer loop
      vertex   1.947968e+00 -1.493930e+00 -1.113581e+01
      vertex   1.757895e+00 -1.348043e+00 -1.119007e+01
      vertex   2.013524e+00 -1.408445e+00 -1.113581e+01
    endloop
  endfacet
  facet normal 1.752685e-01 -1.344037e-01 -9.753033e-01
    outer loop
      vertex   2.013524e+00 -1.408445e+00 -1.113581e+01
      vertex   1.757895e+00 -1.348043e+00 -1.119007e+01
      vertex   1.816995e+00 -1.270975e+00 -1.119007e+01
    endloop
  endfacet
  facet normal 1.808799e-01 -1.263995e-01 -9.753490e-01
    outer loop
      vertex   2.013524e+00 -1.408445e+00 -1.113581e+01
      vertex   1.816995e+00 -1.270975e+00 -1.119007e+01
      vertex   2.074702e+00 -1.320899e+00 -1.113581e+01
    endloop
  endfacet
  facet normal -6.427876e-01 -7.660444e-01 -8.416971e-11
    outer loop
      vertex   1.517841e+00 -1.273620e+00 -1.123708e+01
      vertex   1.704622e+00 -1.430348e+00 -1.118746e+01
      vertex   0.000000e+00 0.000000e+00 0.000000e+00
    endloop
  endfacet
  facet normal -6.427876e-01 -7.660444e-01 1.772644e-11
    outer loop
      vertex   0.000000e+00 0.000000e+00 0.000000e+00
      vertex   1.704622e+00 -1.430348e+00 -1.118746e+01
      vertex   1.890397e+00 -1.586232e+00 -1.113215e+01
    endloop
  endfacet
  facet normal -6.427876e-01 -7.660444e-01 2.539257e-11
    outer loop
      vertex   0.000000e+00 0.000000e+00 0.000000e+00
      vertex   1.890397e+00 -1.586232e+00 -1.113215e+01
      vertex   2.075027e+00 -1.741154e+00 -1.107120e+01
    endloop
  endfacet
  facet normal -6.427876e-01 -7.660444e-01 3.023437e-11
    outer loop
      vertex   2.075027e+00 -1.741154e+00 -1.107120e+01
      vertex   2.258445e+00 -1.895060e+00 -1.100464e+01
      vertex   0.000000e+00 0.000000e+00 0.000000e+00
    endloop
  endfacet
  facet normal -6.427876e-01 -7.660444e-01 3.160997e-11
    outer loop
      vertex   0.000000e+00 0.000000e+00 0.000000e+00
      vertex   2.258445e+00 -1.895060e+00 -1.100464e+01
      vertex   2.440583e+00 -2.047892e+00 -1.093253e+01
    endloop
  endfacet
  facet normal -6.427876e-01 -7.660444e-01 2.887596e-11
    outer loop
      vertex   0.000000e+00 0.000000e+00 0.000000e+00
      vertex   2.440583e+00 -2.047892e+00 -1.093253e+01
      vertex   2.621375e+00 -2.199595e+00 -1.085488e+01
    endloop
  endfacet
  facet normal -6.427876e-01 -7.660444e-01 2.140055e-11
    outer loop
      vertex   2.621375e+00 -2.199595e+00 -1.085488e+01
      vertex   2.800753e+00 -2.350111e+00 -1.077175e+01
      vertex   0.000000e+00 0.000000e+00 0.000000e+00
    endloop
  endfacet
  facet normal -6.427876e-01 -7.660444e-01 8.554885e-12
    outer loop
      vertex   0.000000e+00 0.000000e+00 0.000000e+00
      vertex   2.800753e+00 -2.350111e+00 -1.077175e+01
      vertex   2.978652e+00 -2.499386e+00 -1.068316e+01
    endloop
  endfacet
  facet normal 7.328032e-01 -5.881293e-01 3.422039e-01
    outer loop
      vertex   3.085235e+00 -2.367347e+00 -1.068447e+01
      vertex   2.080270e+00 -1.548704e+00 -7.125458e+00
      vertex   2.978652e+00 -2.499386e+00 -1.068316e+01
    endloop
  endfacet
  facet normal 7.371461e-01 -5.828596e-01 3.418924e-01
    outer loop
      vertex   2.978652e+00 -2.499386e+00 -1.068316e+01
      vertex   2.080270e+00 -1.548704e+00 -7.125458e+00
      vertex   1.040135e+00 -7.743519e-01 -3.562729e+00
    endloop
  endfacet
  facet normal 7.371461e-01 -5.828596e-01 3.418924e-01
    outer loop
      vertex   2.978652e+00 -2.499386e+00 -1.068316e+01
      vertex   1.040135e+00 -7.743519e-01 -3.562729e+00
      vertex   0.000000e+00 0.000000e+00 0.000000e+00
    endloop
  endfacet
  facet normal 7.578729e-01 -5.556865e-01 3.418204e-01
    outer loop
      vertex   3.085235e+00 -2.367347e+00 -1.068447e+01
      vertex   3.185948e+00 -2.230777e+00 -1.068576e+01
      vertex   2.080270e+00 -1.548704e+00 -7.125458e+00
    endloop
  endfacet
  facet normal 7.696749e-01 -5.389321e-01 3.422758e-01
    outer loop
      vertex   2.080270e+00 -1.548704e+00 -7.125458e+00
      vertex   3.185948e+00 -2.230777e+00 -1.068576e+01
      vertex   2.166800e+00 -1.425127e+00 -7.125458e+00
    endloop
  endfacet
  facet normal 7.697892e-01 -5.390122e-01 3.418924e-01
    outer loop
      vertex   2.080270e+00 -1.548704e+00 -7.125458e+00
      vertex   2.166800e+00 -1.425127e+00 -7.125458e+00
      vertex   1.083400e+00 -7.125633e-01 -3.562729e+00
    endloop
  endfacet
  facet normal 7.998276e-01 -4.933410e-01 3.418924e-01
    outer loop
      vertex   1.083400e+00 -7.125633e-01 -3.562729e+00
      vertex   2.166800e+00 -1.425127e+00 -7.125458e+00
      vertex   3.368997e+00 -1.945091e+00 -1.068819e+01
    endloop
  endfacet
  facet normal 7.998276e-01 -4.933410e-01 3.418924e-01
    outer loop
      vertex   1.083400e+00 -7.125633e-01 -3.562729e+00
      vertex   3.368997e+00 -1.945091e+00 -1.068819e+01
      vertex   0.000000e+00 0.000000e+00 0.000000e+00
    endloop
  endfacet
  facet normal 7.813902e-01 -5.220997e-01 3.418204e-01
    outer loop
      vertex   3.185948e+00 -2.230777e+00 -1.068576e+01
      vertex   3.280596e+00 -2.089936e+00 -1.068700e+01
      vertex   2.166800e+00 -1.425127e+00 -7.125458e+00
    endloop
  endfacet
  facet normal 8.033000e-01 -4.874479e-01 3.422040e-01
    outer loop
      vertex   2.166800e+00 -1.425127e+00 -7.125458e+00
      vertex   3.280596e+00 -2.089936e+00 -1.068700e+01
      vertex   3.368997e+00 -1.945091e+00 -1.068819e+01
    endloop
  endfacet
  facet normal 7.697892e-01 -5.390122e-01 3.418924e-01
    outer loop
      vertex   1.083400e+00 -7.125633e-01 -3.562729e+00
      vertex   0.000000e+00 0.000000e+00 0.000000e+00
      vertex   1.040135e+00 -7.743519e-01 -3.562729e+00
    endloop
  endfacet
  facet normal 7.697892e-01 -5.390122e-01 3.418924e-01
    outer loop
      vertex   1.083400e+00 -7.125633e-01 -3.562729e+00
      vertex   1.040135e+00 -7.743519e-01 -3.562729e+00
      vertex   2.080270e+00 -1.548704e+00 -7.125458e+00
    endloop
  endfacet
  facet normal -8.306029e-01 5.291510e-01 -1.734879e-01
    outer loop
      vertex   1.623173e+00 -1.136552e+00 -1.123779e+01
      vertex   1.082179e+00 -7.577471e-01 -7.492301e+00
      vertex   1.716152e+00 -9.908211e-01 -1.123845e+01
    endloop
  endfacet
  facet normal -8.306028e-01 5.291512e-01 -1.734879e-01
    outer loop
      vertex   1.716152e+00 -9.908211e-01 -1.123845e+01
      vertex   1.082179e+00 -7.577471e-01 -7.492301e+00
      vertex   5.410890e-01 -3.788740e-01 -3.746150e+00
    endloop
  endfacet
  facet normal -8.306025e-01 5.291517e-01 -1.734879e-01
    outer loop
      vertex   1.716152e+00 -9.908211e-01 -1.123845e+01
      vertex   5.410890e-01 -3.788740e-01 -3.746150e+00
      vertex   0.000000e+00 0.000000e+00 0.000000e+00
    endloop
  endfacet
  facet normal -7.813237e-01 5.995292e-01 -1.734879e-01
    outer loop
      vertex   1.623173e+00 -1.136552e+00 -1.123779e+01
      vertex   1.517841e+00 -1.273620e+00 -1.123708e+01
      vertex   1.082179e+00 -7.577471e-01 -7.492301e+00
    endloop
  endfacet
  facet normal -7.813235e-01 5.995294e-01 -1.734879e-01
    outer loop
      vertex   1.082179e+00 -7.577471e-01 -7.492301e+00
      vertex   1.517841e+00 -1.273620e+00 -1.123708e+01
      vertex   5.410890e-01 -3.788740e-01 -3.746150e+00
    endloop
  endfacet
  facet normal -7.813232e-01 5.995299e-01 -1.734879e-01
    outer loop
      vertex   1.517841e+00 -1.273620e+00 -1.123708e+01
      vertex   0.000000e+00 0.000000e+00 0.000000e+00
      vertex   5.410890e-01 -3.788740e-01 -3.746150e+00
    endloop
  endfacet
endsolid
