solid ASCII
  facet normal -5.000000e-01 8.660254e-01 2.743915e-16
    outer loop
      vertex   -1.716152e+00 -9.908211e-01 1.123845e+01
      vertex   0.000000e+00 0.000000e+00 0.000000e+00
      vertex   -1.926902e+00 -1.112497e+00 1.118931e+01
    endloop
  endfacet
  facet normal -5.000000e-01 8.660254e-01 -8.821751e-17
    outer loop
      vertex   -1.926902e+00 -1.112497e+00 1.118931e+01
      vertex   0.000000e+00 0.000000e+00 0.000000e+00
      vertex   -2.136627e+00 -1.233582e+00 1.113451e+01
    endloop
  endfacet
  facet normal -5.000000e-01 8.660254e-01 1.764535e-16
    outer loop
      vertex   -2.136627e+00 -1.233582e+00 1.113451e+01
      vertex   0.000000e+00 0.000000e+00 0.000000e+00
      vertex   -2.345247e+00 -1.354029e+00 1.107407e+01
    endloop
  endfacet
  facet normal -5.000000e-01 8.660254e-01 3.136889e-16
    outer loop
      vertex   -2.345247e+00 -1.354029e+00 1.107407e+01
      vertex   0.000000e+00 0.000000e+00 0.000000e+00
      vertex   -2.552683e+00 -1.473792e+00 1.100802e+01
    endloop
  endfacet
  facet normal -5.000000e-01 8.660254e-01 -3.332463e-16
    outer loop
      vertex   -2.552683e+00 -1.473792e+00 1.100802e+01
      vertex   0.000000e+00 0.000000e+00 0.000000e+00
      vertex   -2.758856e+00 -1.592826e+00 1.093639e+01
    endloop
  endfacet
  facet normal -5.000000e-01 8.660254e-01 2.155718e-16
    outer loop
      vertex   -2.758856e+00 -1.592826e+00 1.093639e+01
      vertex   0.000000e+00 0.000000e+00 0.000000e+00
      vertex   -2.963685e+00 -1.711084e+00 1.085918e+01
    endloop
  endfacet
  facet normal -5.000000e-01 8.660254e-01 4.505631e-16
    outer loop
      vertex   -2.963685e+00 -1.711084e+00 1.085918e+01
      vertex   0.000000e+00 0.000000e+00 0.000000e+00
      vertex   -3.167092e+00 -1.828521e+00 1.077644e+01
    endloop
  endfacet
  facet normal -5.000000e-01 8.660254e-01 -2.936922e-16
    outer loop
      vertex   -3.167092e+00 -1.828521e+00 1.077644e+01
      vertex   0.000000e+00 0.000000e+00 0.000000e+00
      vertex   -3.368997e+00 -1.945091e+00 1.068819e+01
    endloop
  endfacet
  facet normal -1.518055e-01 -1.292536e-01 9.799228e-01
    outer loop
      vertex   -1.704144e+00 -1.429947e+00 1.118760e+01
      vertex   -1.517841e+00 -1.273620e+00 1.123708e+01
      vertex   -1.757895e+00 -1.348043e+00 1.119007e+01
    endloop
  endfacet
  facet normal -1.537666e-01 -1.232254e-01 9.803935e-01
    outer loop
      vertex   -1.757895e+00 -1.348043e+00 1.119007e+01
      vertex   -1.517841e+00 -1.273620e+00 1.123708e+01
      vertex   -1.623173e+00 -1.136552e+00 1.123779e+01
    endloop
  endfacet
  facet normal -1.575028e-01 -1.207802e-01 9.801046e-01
    outer loop
      vertex   -1.757895e+00 -1.348043e+00 1.119007e+01
      vertex   -1.623173e+00 -1.136552e+00 1.123779e+01
      vertex   -1.816995e+00 -1.270975e+00 1.119007e+01
    endloop
  endfacet
  facet normal -1.625189e-01 -1.135630e-01 9.801485e-01
    outer loop
      vertex   -1.816995e+00 -1.270975e+00 1.119007e+01
      vertex   -1.623173e+00 -1.136552e+00 1.123779e+01
      vertex   -1.872259e+00 -1.191886e+00 1.119007e+01
    endloop
  endfacet
  facet normal -1.808811e-01 -1.263939e-01 9.753495e-01
    outer loop
      vertex   -1.816995e+00 -1.270975e+00 1.119007e+01
      vertex   -1.872259e+00 -1.191886e+00 1.119007e+01
      vertex   -2.074702e+00 -1.320899e+00 1.113581e+01
    endloop
  endfacet
  facet normal -1.858974e-01 -1.185405e-01 9.753924e-01
    outer loop
      vertex   -2.074702e+00 -1.320899e+00 1.113581e+01
      vertex   -1.872259e+00 -1.191886e+00 1.119007e+01
      vertex   -1.926902e+00 -1.112497e+00 1.118931e+01
    endloop
  endfacet
  facet normal -1.867868e-01 -1.178865e-01 9.753017e-01
    outer loop
      vertex   -2.074702e+00 -1.320899e+00 1.113581e+01
      vertex   -1.926902e+00 -1.112497e+00 1.118931e+01
      vertex   -2.136627e+00 -1.233582e+00 1.113451e+01
    endloop
  endfacet
  facet normal -1.636292e-01 -1.088654e-01 9.804967e-01
    outer loop
      vertex   -1.623173e+00 -1.136552e+00 1.123779e+01
      vertex   -1.716152e+00 -9.908211e-01 1.123845e+01
      vertex   -1.872259e+00 -1.191886e+00 1.119007e+01
    endloop
  endfacet
  facet normal -1.674680e-01 -1.058095e-01 9.801831e-01
    outer loop
      vertex   -1.872259e+00 -1.191886e+00 1.119007e+01
      vertex   -1.716152e+00 -9.908211e-01 1.123845e+01
      vertex   -1.926902e+00 -1.112497e+00 1.118931e+01
    endloop
  endfacet
  facet normal -2.048398e-01 -1.307686e-01 9.700207e-01
    outer loop
      vertex   -2.074702e+00 -1.320899e+00 1.113581e+01
      vertex   -2.136627e+00 -1.233582e+00 1.113451e+01
      vertex   -2.277396e+00 -1.450097e+00 1.107559e+01
    endloop
  endfacet
  facet normal -2.058935e-01 -1.300492e-01 9.698944e-01
    outer loop
      vertex   -2.277396e+00 -1.450097e+00 1.107559e+01
      vertex   -2.136627e+00 -1.233582e+00 1.113451e+01
      vertex   -2.345247e+00 -1.354029e+00 1.107407e+01
    endloop
  endfacet
  facet normal -2.238740e-01 -1.428403e-01 9.640939e-01
    outer loop
      vertex   -2.277396e+00 -1.450097e+00 1.107559e+01
      vertex   -2.345247e+00 -1.354029e+00 1.107407e+01
      vertex   -2.480180e+00 -1.579379e+00 1.100935e+01
    endloop
  endfacet
  facet normal -2.248058e-01 -1.422453e-01 9.639651e-01
    outer loop
      vertex   -2.480180e+00 -1.579379e+00 1.100935e+01
      vertex   -2.345247e+00 -1.354029e+00 1.107407e+01
      vertex   -2.552683e+00 -1.473792e+00 1.100802e+01
    endloop
  endfacet
  facet normal -2.383147e-01 -1.515804e-01 9.592859e-01
    outer loop
      vertex   -2.480180e+00 -1.579379e+00 1.100935e+01
      vertex   -2.552683e+00 -1.473792e+00 1.100802e+01
      vertex   -2.581553e+00 -1.644018e+00 1.097395e+01
    endloop
  endfacet
  facet normal -2.461671e-01 -1.499042e-01 9.575649e-01
    outer loop
      vertex   -2.581553e+00 -1.644018e+00 1.097395e+01
      vertex   -2.552683e+00 -1.473792e+00 1.100802e+01
      vertex   -2.758856e+00 -1.592826e+00 1.093639e+01
    endloop
  endfacet
  facet normal -2.479673e-01 -1.573591e-01 9.559029e-01
    outer loop
      vertex   -2.581553e+00 -1.644018e+00 1.097395e+01
      vertex   -2.758856e+00 -1.592826e+00 1.093639e+01
      vertex   -2.682885e+00 -1.708637e+00 1.093703e+01
    endloop
  endfacet
  facet normal -2.573512e-01 -1.635343e-01 9.523796e-01
    outer loop
      vertex   -2.682885e+00 -1.708637e+00 1.093703e+01
      vertex   -2.758856e+00 -1.592826e+00 1.093639e+01
      vertex   -2.784155e+00 -1.773224e+00 1.089857e+01
    endloop
  endfacet
  facet normal -2.501263e-01 -1.748156e-01 9.523006e-01
    outer loop
      vertex   -2.682885e+00 -1.708637e+00 1.093703e+01
      vertex   -2.784155e+00 -1.773224e+00 1.089857e+01
      vertex   -2.604013e+00 -1.821488e+00 1.093703e+01
    endloop
  endfacet
  facet normal -2.501274e-01 -1.748208e-01 9.522993e-01
    outer loop
      vertex   -2.604013e+00 -1.821488e+00 1.093703e+01
      vertex   -2.784155e+00 -1.773224e+00 1.089857e+01
      vertex   -2.702347e+00 -1.890272e+00 1.089857e+01
    endloop
  endfacet
  facet normal -2.423565e-01 -1.858824e-01 9.522138e-01
    outer loop
      vertex   -2.604013e+00 -1.821488e+00 1.093703e+01
      vertex   -2.702347e+00 -1.890272e+00 1.089857e+01
      vertex   -2.518982e+00 -1.932352e+00 1.093703e+01
    endloop
  endfacet
  facet normal -2.423573e-01 -1.858871e-01 9.522126e-01
    outer loop
      vertex   -2.518982e+00 -1.932352e+00 1.093703e+01
      vertex   -2.702347e+00 -1.890272e+00 1.089857e+01
      vertex   -2.614062e+00 -2.005377e+00 1.089857e+01
    endloop
  endfacet
  facet normal -2.343924e-01 -1.962164e-01 9.521341e-01
    outer loop
      vertex   -2.518982e+00 -1.932352e+00 1.093703e+01
      vertex   -2.614062e+00 -2.005377e+00 1.089857e+01
      vertex   -2.439488e+00 -2.046974e+00 1.093298e+01
    endloop
  endfacet
  facet normal -2.359928e-01 -2.047480e-01 9.499398e-01
    outer loop
      vertex   -2.439488e+00 -2.046974e+00 1.093298e+01
      vertex   -2.614062e+00 -2.005377e+00 1.089857e+01
      vertex   -2.620503e+00 -2.198863e+00 1.085527e+01
    endloop
  endfacet
  facet normal -2.424133e-01 -2.041987e-01 9.484401e-01
    outer loop
      vertex   -2.620503e+00 -2.198863e+00 1.085527e+01
      vertex   -2.614062e+00 -2.005377e+00 1.089857e+01
      vertex   -2.709064e+00 -2.078348e+00 1.085858e+01
    endloop
  endfacet
  facet normal -2.515012e-01 -2.107723e-01 9.446281e-01
    outer loop
      vertex   -2.620503e+00 -2.198863e+00 1.085527e+01
      vertex   -2.709064e+00 -2.078348e+00 1.085858e+01
      vertex   -2.803967e+00 -2.151248e+00 1.081705e+01
    endloop
  endfacet
  facet normal -2.601610e-01 -1.995512e-01 9.447198e-01
    outer loop
      vertex   -2.803967e+00 -2.151248e+00 1.081705e+01
      vertex   -2.709064e+00 -2.078348e+00 1.085858e+01
      vertex   -2.898761e+00 -2.027662e+00 1.081705e+01
    endloop
  endfacet
  facet normal -2.690363e-01 -2.063588e-01 9.407633e-01
    outer loop
      vertex   -2.803967e+00 -2.151248e+00 1.081705e+01
      vertex   -2.898761e+00 -2.027662e+00 1.081705e+01
      vertex   -2.996797e+00 -2.096238e+00 1.077397e+01
    endloop
  endfacet
  facet normal -2.776680e-01 -1.940844e-01 9.408676e-01
    outer loop
      vertex   -2.996797e+00 -2.096238e+00 1.077397e+01
      vertex   -2.898761e+00 -2.027662e+00 1.081705e+01
      vertex   -3.087377e+00 -1.966650e+00 1.077397e+01
    endloop
  endfacet
  facet normal -2.868089e-01 -2.004737e-01 9.367769e-01
    outer loop
      vertex   -2.996797e+00 -2.096238e+00 1.077397e+01
      vertex   -3.087377e+00 -1.966650e+00 1.077397e+01
      vertex   -3.188181e+00 -2.030966e+00 1.072934e+01
    endloop
  endfacet
  facet normal -2.953105e-01 -1.872193e-01 9.368781e-01
    outer loop
      vertex   -3.188181e+00 -2.030966e+00 1.072934e+01
      vertex   -3.087377e+00 -1.966650e+00 1.077397e+01
      vertex   -3.167092e+00 -1.828521e+00 1.077644e+01
    endloop
  endfacet
  facet normal -3.012821e-01 -1.862017e-01 9.351781e-01
    outer loop
      vertex   -3.188181e+00 -2.030966e+00 1.072934e+01
      vertex   -3.167092e+00 -1.828521e+00 1.077644e+01
      vertex   -3.368997e+00 -1.945091e+00 1.068819e+01
    endloop
  endfacet
  facet normal -2.646762e-01 -1.621360e-01 9.506095e-01
    outer loop
      vertex   -2.758856e+00 -1.592826e+00 1.093639e+01
      vertex   -2.963685e+00 -1.711084e+00 1.085918e+01
      vertex   -2.784155e+00 -1.773224e+00 1.089857e+01
    endloop
  endfacet
  facet normal -2.668236e-01 -1.695404e-01 9.487156e-01
    outer loop
      vertex   -2.784155e+00 -1.773224e+00 1.089857e+01
      vertex   -2.963685e+00 -1.711084e+00 1.085918e+01
      vertex   -2.885342e+00 -1.837765e+00 1.085858e+01
    endloop
  endfacet
  facet normal -2.593229e-01 -1.812478e-01 9.486311e-01
    outer loop
      vertex   -2.784155e+00 -1.773224e+00 1.089857e+01
      vertex   -2.885342e+00 -1.837765e+00 1.085858e+01
      vertex   -2.702347e+00 -1.890272e+00 1.089857e+01
    endloop
  endfacet
  facet normal -2.593241e-01 -1.812532e-01 9.486297e-01
    outer loop
      vertex   -2.702347e+00 -1.890272e+00 1.089857e+01
      vertex   -2.885342e+00 -1.837765e+00 1.085858e+01
      vertex   -2.800604e+00 -1.959002e+00 1.085858e+01
    endloop
  endfacet
  facet normal -2.512659e-01 -1.927200e-01 9.485381e-01
    outer loop
      vertex   -2.702347e+00 -1.890272e+00 1.089857e+01
      vertex   -2.800604e+00 -1.959002e+00 1.085858e+01
      vertex   -2.614062e+00 -2.005377e+00 1.089857e+01
    endloop
  endfacet
  facet normal -2.512669e-01 -1.927249e-01 9.485368e-01
    outer loop
      vertex   -2.614062e+00 -2.005377e+00 1.089857e+01
      vertex   -2.800604e+00 -1.959002e+00 1.085858e+01
      vertex   -2.709064e+00 -2.078348e+00 1.085858e+01
    endloop
  endfacet
  facet normal -2.763560e-01 -1.754174e-01 9.449106e-01
    outer loop
      vertex   -2.885342e+00 -1.837765e+00 1.085858e+01
      vertex   -2.963685e+00 -1.711084e+00 1.085918e+01
      vertex   -2.986423e+00 -1.902244e+00 1.081705e+01
    endloop
  endfacet
  facet normal -2.830538e-01 -1.742317e-01 9.431457e-01
    outer loop
      vertex   -2.986423e+00 -1.902244e+00 1.081705e+01
      vertex   -2.963685e+00 -1.711084e+00 1.085918e+01
      vertex   -3.167092e+00 -1.828521e+00 1.077644e+01
    endloop
  endfacet
  facet normal -2.856085e-01 -1.816934e-01 9.409651e-01
    outer loop
      vertex   -2.986423e+00 -1.902244e+00 1.081705e+01
      vertex   -3.167092e+00 -1.828521e+00 1.077644e+01
      vertex   -3.087377e+00 -1.966650e+00 1.077397e+01
    endloop
  endfacet
  facet normal -3.041052e-01 -1.932727e-01 9.328267e-01
    outer loop
      vertex   -3.368997e+00 -1.945091e+00 1.068819e+01
      vertex   -3.280596e+00 -2.089936e+00 1.068700e+01
      vertex   -3.188181e+00 -2.030966e+00 1.072934e+01
    endloop
  endfacet
  facet normal -2.955563e-01 -2.065932e-01 9.327195e-01
    outer loop
      vertex   -3.188181e+00 -2.030966e+00 1.072934e+01
      vertex   -3.280596e+00 -2.089936e+00 1.068700e+01
      vertex   -3.094691e+00 -2.164714e+00 1.072934e+01
    endloop
  endfacet
  facet normal -2.868106e-01 -2.004800e-01 9.367750e-01
    outer loop
      vertex   -3.188181e+00 -2.030966e+00 1.072934e+01
      vertex   -3.094691e+00 -2.164714e+00 1.072934e+01
      vertex   -2.996797e+00 -2.096238e+00 1.077397e+01
    endloop
  endfacet
  facet normal -2.778928e-01 -2.131567e-01 9.366642e-01
    outer loop
      vertex   -2.996797e+00 -2.096238e+00 1.077397e+01
      vertex   -3.094691e+00 -2.164714e+00 1.072934e+01
      vertex   -2.898749e+00 -2.224063e+00 1.077397e+01
    endloop
  endfacet
  facet normal -2.690375e-01 -2.063642e-01 9.407617e-01
    outer loop
      vertex   -2.996797e+00 -2.096238e+00 1.077397e+01
      vertex   -2.898749e+00 -2.224063e+00 1.077397e+01
      vertex   -2.803967e+00 -2.151248e+00 1.081705e+01
    endloop
  endfacet
  facet normal -2.597048e-01 -2.184498e-01 9.406557e-01
    outer loop
      vertex   -2.803967e+00 -2.151248e+00 1.081705e+01
      vertex   -2.898749e+00 -2.224063e+00 1.077397e+01
      vertex   -2.800248e+00 -2.349687e+00 1.077199e+01
    endloop
  endfacet
  facet normal -2.530981e-01 -2.187203e-01 9.423921e-01
    outer loop
      vertex   -2.803967e+00 -2.151248e+00 1.081705e+01
      vertex   -2.800248e+00 -2.349687e+00 1.077199e+01
      vertex   -2.620503e+00 -2.198863e+00 1.085527e+01
    endloop
  endfacet
  facet normal -2.956586e-01 -2.069052e-01 9.326179e-01
    outer loop
      vertex   -3.280596e+00 -2.089936e+00 1.068700e+01
      vertex   -3.185948e+00 -2.230777e+00 1.068576e+01
      vertex   -3.094691e+00 -2.164714e+00 1.072934e+01
    endloop
  endfacet
  facet normal -2.863940e-01 -2.196823e-01 9.325868e-01
    outer loop
      vertex   -3.094691e+00 -2.164714e+00 1.072934e+01
      vertex   -3.185948e+00 -2.230777e+00 1.068576e+01
      vertex   -2.993391e+00 -2.296777e+00 1.072934e+01
    endloop
  endfacet
  facet normal -2.778942e-01 -2.131624e-01 9.366625e-01
    outer loop
      vertex   -3.094691e+00 -2.164714e+00 1.072934e+01
      vertex   -2.993391e+00 -2.296777e+00 1.072934e+01
      vertex   -2.898749e+00 -2.224063e+00 1.077397e+01
    endloop
  endfacet
  facet normal -2.685205e-01 -2.252977e-01 9.365563e-01
    outer loop
      vertex   -2.898749e+00 -2.224063e+00 1.077397e+01
      vertex   -2.993391e+00 -2.296777e+00 1.072934e+01
      vertex   -2.800248e+00 -2.349687e+00 1.077199e+01
    endloop
  endfacet
  facet normal -2.864825e-01 -2.200095e-01 9.324825e-01
    outer loop
      vertex   -3.185948e+00 -2.230777e+00 1.068576e+01
      vertex   -3.085235e+00 -2.367347e+00 1.068447e+01
      vertex   -2.993391e+00 -2.296777e+00 1.072934e+01
    endloop
  endfacet
  facet normal -2.767272e-01 -2.326311e-01 9.323652e-01
    outer loop
      vertex   -2.993391e+00 -2.296777e+00 1.072934e+01
      vertex   -3.085235e+00 -2.367347e+00 1.068447e+01
      vertex   -2.978652e+00 -2.499386e+00 1.068316e+01
    endloop
  endfacet
  facet normal -2.700289e-01 -2.325931e-01 9.343366e-01
    outer loop
      vertex   -2.993391e+00 -2.296777e+00 1.072934e+01
      vertex   -2.978652e+00 -2.499386e+00 1.068316e+01
      vertex   -2.800248e+00 -2.349687e+00 1.077199e+01
    endloop
  endfacet
  facet normal -2.250757e-01 -1.898796e-01 9.556603e-01
    outer loop
      vertex   -2.518982e+00 -1.932352e+00 1.093703e+01
      vertex   -2.439488e+00 -2.046974e+00 1.093298e+01
      vertex   -2.423843e+00 -1.859289e+00 1.097395e+01
    endloop
  endfacet
  facet normal -2.187088e-01 -1.906973e-01 9.569749e-01
    outer loop
      vertex   -2.423843e+00 -1.859289e+00 1.097395e+01
      vertex   -2.439488e+00 -2.046974e+00 1.093298e+01
      vertex   -2.257274e+00 -1.894078e+00 1.100509e+01
    endloop
  endfacet
  facet normal -2.172106e-01 -1.816442e-01 9.590751e-01
    outer loop
      vertex   -2.423843e+00 -1.859289e+00 1.097395e+01
      vertex   -2.257274e+00 -1.894078e+00 1.100509e+01
      vertex   -2.328666e+00 -1.786203e+00 1.100935e+01
    endloop
  endfacet
  facet normal -2.041254e-01 -1.731596e-01 9.635085e-01
    outer loop
      vertex   -2.328666e+00 -1.786203e+00 1.100935e+01
      vertex   -2.257274e+00 -1.894078e+00 1.100509e+01
      vertex   -2.073932e+00 -1.740235e+00 1.107158e+01
    endloop
  endfacet
  facet normal -2.047773e-01 -1.700982e-01 9.639154e-01
    outer loop
      vertex   -2.328666e+00 -1.786203e+00 1.100935e+01
      vertex   -2.073932e+00 -1.740235e+00 1.107158e+01
      vertex   -2.138275e+00 -1.640022e+00 1.107559e+01
    endloop
  endfacet
  facet normal -1.867154e-01 -1.587253e-01 9.695069e-01
    outer loop
      vertex   -2.138275e+00 -1.640022e+00 1.107559e+01
      vertex   -2.073932e+00 -1.740235e+00 1.107158e+01
      vertex   -1.889532e+00 -1.585505e+00 1.113242e+01
    endloop
  endfacet
  facet normal -1.874953e-01 -1.555469e-01 9.698715e-01
    outer loop
      vertex   -2.138275e+00 -1.640022e+00 1.107559e+01
      vertex   -1.889532e+00 -1.585505e+00 1.113242e+01
      vertex   -1.947968e+00 -1.493930e+00 1.113581e+01
    endloop
  endfacet
  facet normal -1.692616e-01 -1.441007e-01 9.749797e-01
    outer loop
      vertex   -1.947968e+00 -1.493930e+00 1.113581e+01
      vertex   -1.889532e+00 -1.585505e+00 1.113242e+01
      vertex   -1.704144e+00 -1.429947e+00 1.118760e+01
    endloop
  endfacet
  facet normal -1.701047e-01 -1.411220e-01 9.752687e-01
    outer loop
      vertex   -1.947968e+00 -1.493930e+00 1.113581e+01
      vertex   -1.704144e+00 -1.429947e+00 1.118760e+01
      vertex   -1.757895e+00 -1.348043e+00 1.119007e+01
    endloop
  endfacet
  facet normal -1.752672e-01 -1.344086e-01 9.753029e-01
    outer loop
      vertex   -1.947968e+00 -1.493930e+00 1.113581e+01
      vertex   -1.757895e+00 -1.348043e+00 1.119007e+01
      vertex   -2.013524e+00 -1.408445e+00 1.113581e+01
    endloop
  endfacet
  facet normal -1.752684e-01 -1.344037e-01 9.753033e-01
    outer loop
      vertex   -2.013524e+00 -1.408445e+00 1.113581e+01
      vertex   -1.757895e+00 -1.348043e+00 1.119007e+01
      vertex   -1.816995e+00 -1.270975e+00 1.119007e+01
    endloop
  endfacet
  facet normal -1.808799e-01 -1.263995e-01 9.753490e-01
    outer loop
      vertex   -2.013524e+00 -1.408445e+00 1.113581e+01
      vertex   -1.816995e+00 -1.270975e+00 1.119007e+01
      vertex   -2.074702e+00 -1.320899e+00 1.113581e+01
    endloop
  endfacet
  facet normal -1.931832e-01 -1.481545e-01 9.699126e-01
    outer loop
      vertex   -2.138275e+00 -1.640022e+00 1.107559e+01
      vertex   -1.947968e+00 -1.493930e+00 1.113581e+01
      vertex   -2.210309e+00 -1.546095e+00 1.107559e+01
    endloop
  endfacet
  facet normal -1.931844e-01 -1.481490e-01 9.699132e-01
    outer loop
      vertex   -2.210309e+00 -1.546095e+00 1.107559e+01
      vertex   -1.947968e+00 -1.493930e+00 1.113581e+01
      vertex   -2.013524e+00 -1.408445e+00 1.113581e+01
    endloop
  endfacet
  facet normal -1.993713e-01 -1.393284e-01 9.699684e-01
    outer loop
      vertex   -2.210309e+00 -1.546095e+00 1.107559e+01
      vertex   -2.013524e+00 -1.408445e+00 1.113581e+01
      vertex   -2.277396e+00 -1.450097e+00 1.107559e+01
    endloop
  endfacet
  facet normal -1.993724e-01 -1.393221e-01 9.699691e-01
    outer loop
      vertex   -2.277396e+00 -1.450097e+00 1.107559e+01
      vertex   -2.013524e+00 -1.408445e+00 1.113581e+01
      vertex   -2.074702e+00 -1.320899e+00 1.113581e+01
    endloop
  endfacet
  facet normal -2.110922e-01 -1.618962e-01 9.639656e-01
    outer loop
      vertex   -2.328666e+00 -1.786203e+00 1.100935e+01
      vertex   -2.138275e+00 -1.640022e+00 1.107559e+01
      vertex   -2.407193e+00 -1.683814e+00 1.100935e+01
    endloop
  endfacet
  facet normal -2.110934e-01 -1.618900e-01 9.639664e-01
    outer loop
      vertex   -2.407193e+00 -1.683814e+00 1.100935e+01
      vertex   -2.138275e+00 -1.640022e+00 1.107559e+01
      vertex   -2.210309e+00 -1.546095e+00 1.107559e+01
    endloop
  endfacet
  facet normal -2.178559e-01 -1.522538e-01 9.640319e-01
    outer loop
      vertex   -2.407193e+00 -1.683814e+00 1.100935e+01
      vertex   -2.210309e+00 -1.546095e+00 1.107559e+01
      vertex   -2.480180e+00 -1.579379e+00 1.100935e+01
    endloop
  endfacet
  facet normal -2.178569e-01 -1.522469e-01 9.640328e-01
    outer loop
      vertex   -2.480180e+00 -1.579379e+00 1.100935e+01
      vertex   -2.210309e+00 -1.546095e+00 1.107559e+01
      vertex   -2.277396e+00 -1.450097e+00 1.107559e+01
    endloop
  endfacet
  facet normal -2.334344e-01 -1.790393e-01 9.557475e-01
    outer loop
      vertex   -2.604013e+00 -1.821488e+00 1.093703e+01
      vertex   -2.518982e+00 -1.932352e+00 1.093703e+01
      vertex   -2.423843e+00 -1.859289e+00 1.097395e+01
    endloop
  endfacet
  facet normal -2.245003e-01 -1.721833e-01 9.591416e-01
    outer loop
      vertex   -2.423843e+00 -1.859289e+00 1.097395e+01
      vertex   -2.328666e+00 -1.786203e+00 1.100935e+01
      vertex   -2.505621e+00 -1.752664e+00 1.097395e+01
    endloop
  endfacet
  facet normal -2.244997e-01 -1.721790e-01 9.591425e-01
    outer loop
      vertex   -2.505621e+00 -1.752664e+00 1.097395e+01
      vertex   -2.328666e+00 -1.786203e+00 1.100935e+01
      vertex   -2.407193e+00 -1.683814e+00 1.100935e+01
    endloop
  endfacet
  facet normal -2.316954e-01 -1.619300e-01 9.592163e-01
    outer loop
      vertex   -2.505621e+00 -1.752664e+00 1.097395e+01
      vertex   -2.407193e+00 -1.683814e+00 1.100935e+01
      vertex   -2.581553e+00 -1.644018e+00 1.097395e+01
    endloop
  endfacet
  facet normal -2.316945e-01 -1.619253e-01 9.592173e-01
    outer loop
      vertex   -2.581553e+00 -1.644018e+00 1.097395e+01
      vertex   -2.407193e+00 -1.683814e+00 1.100935e+01
      vertex   -2.480180e+00 -1.579379e+00 1.100935e+01
    endloop
  endfacet
  facet normal -2.601599e-01 -1.995460e-01 9.447212e-01
    outer loop
      vertex   -2.898761e+00 -2.027662e+00 1.081705e+01
      vertex   -2.709064e+00 -2.078348e+00 1.085858e+01
      vertex   -2.800604e+00 -1.959002e+00 1.085858e+01
    endloop
  endfacet
  facet normal -2.409171e-01 -1.683792e-01 9.558281e-01
    outer loop
      vertex   -2.682885e+00 -1.708637e+00 1.093703e+01
      vertex   -2.604013e+00 -1.821488e+00 1.093703e+01
      vertex   -2.505621e+00 -1.752664e+00 1.097395e+01
    endloop
  endfacet
  facet normal -2.334337e-01 -1.790348e-01 9.557485e-01
    outer loop
      vertex   -2.505621e+00 -1.752664e+00 1.097395e+01
      vertex   -2.604013e+00 -1.821488e+00 1.093703e+01
      vertex   -2.423843e+00 -1.859289e+00 1.097395e+01
    endloop
  endfacet
  facet normal -2.409161e-01 -1.683743e-01 9.558292e-01
    outer loop
      vertex   -2.682885e+00 -1.708637e+00 1.093703e+01
      vertex   -2.505621e+00 -1.752664e+00 1.097395e+01
      vertex   -2.581553e+00 -1.644018e+00 1.097395e+01
    endloop
  endfacet
  facet normal -2.685037e-01 -1.876692e-01 9.448206e-01
    outer loop
      vertex   -2.885342e+00 -1.837765e+00 1.085858e+01
      vertex   -2.986423e+00 -1.902244e+00 1.081705e+01
      vertex   -2.800604e+00 -1.959002e+00 1.085858e+01
    endloop
  endfacet
  facet normal -2.685051e-01 -1.876750e-01 9.448191e-01
    outer loop
      vertex   -2.800604e+00 -1.959002e+00 1.085858e+01
      vertex   -2.986423e+00 -1.902244e+00 1.081705e+01
      vertex   -2.898761e+00 -2.027662e+00 1.081705e+01
    endloop
  endfacet
  facet normal -2.776664e-01 -1.940784e-01 9.408692e-01
    outer loop
      vertex   -2.986423e+00 -1.902244e+00 1.081705e+01
      vertex   -3.087377e+00 -1.966650e+00 1.077397e+01
      vertex   -2.898761e+00 -2.027662e+00 1.081705e+01
    endloop
  endfacet
  facet normal 6.427876e-01 -7.660444e-01 -9.314202e-16
    outer loop
      vertex   -1.517841e+00 -1.273620e+00 1.123708e+01
      vertex   -1.704144e+00 -1.429947e+00 1.118760e+01
      vertex   0.000000e+00 0.000000e+00 0.000000e+00
    endloop
  endfacet
  facet normal 6.427876e-01 -7.660444e-01 7.845520e-16
    outer loop
      vertex   0.000000e+00 0.000000e+00 0.000000e+00
      vertex   -1.704144e+00 -1.429947e+00 1.118760e+01
      vertex   -1.889532e+00 -1.585505e+00 1.113242e+01
    endloop
  endfacet
  facet normal 6.427876e-01 -7.660444e-01 1.569303e-16
    outer loop
      vertex   0.000000e+00 0.000000e+00 0.000000e+00
      vertex   -1.889532e+00 -1.585505e+00 1.113242e+01
      vertex   -2.073932e+00 -1.740235e+00 1.107158e+01
    endloop
  endfacet
  facet normal 6.427876e-01 -7.660444e-01 3.138612e-16
    outer loop
      vertex   -2.073932e+00 -1.740235e+00 1.107158e+01
      vertex   -2.257274e+00 -1.894078e+00 1.100509e+01
      vertex   0.000000e+00 0.000000e+00 0.000000e+00
    endloop
  endfacet
  facet normal 6.427876e-01 -7.660444e-01 6.276448e-16
    outer loop
      vertex   0.000000e+00 0.000000e+00 0.000000e+00
      vertex   -2.257274e+00 -1.894078e+00 1.100509e+01
      vertex   -2.439488e+00 -2.046974e+00 1.093298e+01
    endloop
  endfacet
  facet normal 6.427876e-01 -7.660444e-01 3.137442e-16
    outer loop
      vertex   0.000000e+00 0.000000e+00 0.000000e+00
      vertex   -2.439488e+00 -2.046974e+00 1.093298e+01
      vertex   -2.620503e+00 -2.198863e+00 1.085527e+01
    endloop
  endfacet
  facet normal 6.427876e-01 -7.660444e-01 1.097692e-15
    outer loop
      vertex   -2.620503e+00 -2.198863e+00 1.085527e+01
      vertex   -2.800248e+00 -2.349687e+00 1.077199e+01
      vertex   0.000000e+00 0.000000e+00 0.000000e+00
    endloop
  endfacet
  facet normal 6.427876e-01 -7.660444e-01 -6.269373e-16
    outer loop
      vertex   0.000000e+00 0.000000e+00 0.000000e+00
      vertex   -2.800248e+00 -2.349687e+00 1.077199e+01
      vertex   -2.978652e+00 -2.499386e+00 1.068316e+01
    endloop
  endfacet
  facet normal 8.306030e-01 5.291509e-01 1.734879e-01
    outer loop
      vertex   -1.623173e+00 -1.136552e+00 1.123779e+01
      vertex   -1.082179e+00 -7.577471e-01 7.492301e+00
      vertex   -1.716152e+00 -9.908211e-01 1.123845e+01
    endloop
  endfacet
  facet normal 8.306028e-01 5.291511e-01 1.734879e-01
    outer loop
      vertex   -1.716152e+00 -9.908211e-01 1.123845e+01
      vertex   -1.082179e+00 -7.577471e-01 7.492301e+00
      vertex   -5.410890e-01 -3.788740e-01 3.746150e+00
    endloop
  endfacet
  facet normal 8.306025e-01 5.291516e-01 1.734879e-01
    outer loop
      vertex   -1.716152e+00 -9.908211e-01 1.123845e+01
      vertex   -5.410890e-01 -3.788740e-01 3.746150e+00
      vertex   0.000000e+00 0.000000e+00 0.000000e+00
    endloop
  endfacet
  facet normal 7.813236e-01 5.995294e-01 1.734879e-01
    outer loop
      vertex   -1.623173e+00 -1.136552e+00 1.123779e+01
      vertex   -1.517841e+00 -1.273620e+00 1.123708e+01
      vertex   -1.082179e+00 -7.577471e-01 7.492301e+00
    endloop
  endfacet
  facet normal 7.813234e-01 5.995296e-01 1.734879e-01
    outer loop
      vertex   -1.082179e+00 -7.577471e-01 7.492301e+00
      vertex   -1.517841e+00 -1.273620e+00 1.123708e+01
      vertex   -5.410890e-01 -3.788740e-01 3.746150e+00
    endloop
  endfacet
  facet normal 7.813231e-01 5.995300e-01 1.734879e-01
    outer loop
      vertex   -1.517841e+00 -1.273620e+00 1.123708e+01
      vertex   0.000000e+00 0.000000e+00 0.000000e+00
      vertex   -5.410890e-01 -3.788740e-01 3.746150e+00
    endloop
  endfacet
  facet normal -7.328032e-01 -5.881293e-01 -3.422039e-01
    outer loop
      vertex   -3.085235e+00 -2.367347e+00 1.068447e+01
      vertex   -2.080270e+00 -1.548704e+00 7.125458e+00
      vertex   -2.978652e+00 -2.499386e+00 1.068316e+01
    endloop
  endfacet
  facet normal -7.371461e-01 -5.828596e-01 -3.418924e-01
    outer loop
      vertex   -2.978652e+00 -2.499386e+00 1.068316e+01
      vertex   -2.080270e+00 -1.548704e+00 7.125458e+00
      vertex   -1.040135e+00 -7.743519e-01 3.562729e+00
    endloop
  endfacet
  facet normal -7.371461e-01 -5.828596e-01 -3.418924e-01
    outer loop
      vertex   -2.978652e+00 -2.499386e+00 1.068316e+01
      vertex   -1.040135e+00 -7.743519e-01 3.562729e+00
      vertex   0.000000e+00 0.000000e+00 0.000000e+00
    endloop
  endfacet
  facet normal -7.578729e-01 -5.556865e-01 -3.418204e-01
    outer loop
      vertex   -3.085235e+00 -2.367347e+00 1.068447e+01
      vertex   -3.185948e+00 -2.230777e+00 1.068576e+01
      vertex   -2.080270e+00 -1.548704e+00 7.125458e+00
    endloop
  endfacet
  facet normal -7.696749e-01 -5.389321e-01 -3.422758e-01
    outer loop
      vertex   -2.080270e+00 -1.548704e+00 7.125458e+00
      vertex   -3.185948e+00 -2.230777e+00 1.068576e+01
      vertex   -2.166800e+00 -1.425127e+00 7.125458e+00
    endloop
  endfacet
  facet normal -7.697892e-01 -5.390122e-01 -3.418924e-01
    outer loop
      vertex   -2.080270e+00 -1.548704e+00 7.125458e+00
      vertex   -2.166800e+00 -1.425127e+00 7.125458e+00
      vertex   -1.083400e+00 -7.125633e-01 3.562729e+00
    endloop
  endfacet
  facet normal -7.998276e-01 -4.933410e-01 -3.418924e-01
    outer loop
      vertex   -1.083400e+00 -7.125633e-01 3.562729e+00
      vertex   -2.166800e+00 -1.425127e+00 7.125458e+00
      vertex   -3.368997e+00 -1.945091e+00 1.068819e+01
    endloop
  endfacet
  facet normal -7.998276e-01 -4.933410e-01 -3.418924e-01
    outer loop
      vertex   -1.083400e+00 -7.125633e-01 3.562729e+00
      vertex   -3.368997e+00 -1.945091e+00 1.068819e+01
      vertex   0.000000e+00 0.000000e+00 0.000000e+00
    endloop
  endfacet
  facet normal -7.813902e-01 -5.220997e-01 -3.418204e-01
    outer loop
      vertex   -3.185948e+00 -2.230777e+00 1.068576e+01
      vertex   -3.280596e+00 -2.089936e+00 1.068700e+01
      vertex   -2.166800e+00 -1.425127e+00 7.125458e+00
    endloop
  endfacet
  facet normal -8.033000e-01 -4.874479e-01 -3.422040e-01
    outer loop
      vertex   -2.166800e+00 -1.425127e+00 7.125458e+00
      vertex   -3.280596e+00 -2.089936e+00 1.068700e+01
      vertex   -3.368997e+00 -1.945091e+00 1.068819e+01
    endloop
  endfacet
  facet normal -7.697892e-01 -5.390122e-01 -3.418924e-01
    outer loop
      vertex   -1.083400e+00 -7.125633e-01 3.562729e+00
      vertex   0.000000e+00 0.000000e+00 0.000000e+00
      vertex   -1.040135e+00 -7.743519e-01 3.562729e+00
    endloop
  endfacet
  facet normal -7.697892e-01 -5.390122e-01 -3.418924e-01
    outer loop
      vertex   -1.083400e+00 -7.125633e-01 3.562729e+00
      vertex   -1.040135e+00 -7.743519e-01 3.562729e+00
      vertex   -2.080270e+00 -1.548704e+00 7.125458e+00
    endloop
  endfacet
endsolid
