solid ASCII
  facet normal -1.702216e-16 -1.000000e+00 6.038779e-17
    outer loop
      vertex   -1.982013e+00 -3.414109e-16 -1.124055e+01
      vertex   -1.737064e+00 -3.857057e-16 -1.128359e+01
      vertex   0.000000e+00 0.000000e+00 8.881784e-15
    endloop
  endfacet
  facet normal 2.220436e-16 -1.000000e+00 1.573213e-22
    outer loop
      vertex   0.000000e+00 0.000000e+00 8.881784e-15
      vertex   -1.737064e+00 -3.857057e-16 -1.128359e+01
      vertex   -1.491131e+00 -3.310979e-16 -1.132097e+01
    endloop
  endfacet
  facet normal 2.220432e-16 -1.000000e+00 2.101233e-22
    outer loop
      vertex   0.000000e+00 0.000000e+00 8.881784e-15
      vertex   -1.491131e+00 -3.310979e-16 -1.132097e+01
      vertex   -1.244306e+00 -2.762921e-16 -1.135266e+01
    endloop
  endfacet
  facet normal 2.220430e-16 -1.000000e+00 2.319406e-22
    outer loop
      vertex   -1.244306e+00 -2.762921e-16 -1.135266e+01
      vertex   -9.966801e-01 -2.213085e-16 -1.137864e+01
      vertex   0.000000e+00 0.000000e+00 8.881784e-15
    endloop
  endfacet
  facet normal 2.220430e-16 -1.000000e+00 2.316377e-22
    outer loop
      vertex   0.000000e+00 0.000000e+00 8.881784e-15
      vertex   -9.966801e-01 -2.213085e-16 -1.137864e+01
      vertex   -7.483451e-01 -1.661675e-16 -1.139889e+01
    endloop
  endfacet
  facet normal 2.220432e-16 -1.000000e+00 2.180948e-22
    outer loop
      vertex   0.000000e+00 0.000000e+00 8.881784e-15
      vertex   -7.483451e-01 -1.661675e-16 -1.139889e+01
      vertex   -4.993924e-01 -1.108892e-16 -1.141338e+01
    endloop
  endfacet
  facet normal 2.220437e-16 -1.000000e+00 2.001960e-22
    outer loop
      vertex   -4.993924e-01 -1.108892e-16 -1.141338e+01
      vertex   -2.499134e-01 -5.549398e-17 -1.142209e+01
      vertex   0.000000e+00 0.000000e+00 8.881784e-15
    endloop
  endfacet
  facet normal 2.220528e-16 -1.000000e+00 -6.075291e-33
    outer loop
      vertex   0.000000e+00 0.000000e+00 8.881784e-15
      vertex   -2.499134e-01 -5.549398e-17 -1.142209e+01
      vertex   -6.781482e-16 -8.117450e-32 -1.142500e+01
    endloop
  endfacet
  facet normal -1.730642e-01 3.964292e-03 -9.849026e-01
    outer loop
      vertex   -1.982013e+00 -3.414109e-16 -1.124055e+01
      vertex   -1.980124e+00 8.645383e-02 -1.124054e+01
      vertex   -1.737064e+00 -3.857057e-16 -1.128359e+01
    endloop
  endfacet
  facet normal -1.727569e-01 4.853132e-03 -9.849525e-01
    outer loop
      vertex   -1.737064e+00 -3.857057e-16 -1.128359e+01
      vertex   -1.980124e+00 8.645383e-02 -1.124054e+01
      vertex   -1.729109e+00 7.360181e-02 -1.128463e+01
    endloop
  endfacet
  facet normal -1.502568e-01 2.369591e-03 -9.886442e-01
    outer loop
      vertex   -1.737064e+00 -3.857057e-16 -1.128359e+01
      vertex   -1.729109e+00 7.360181e-02 -1.128463e+01
      vertex   -1.491131e+00 -3.310979e-16 -1.132097e+01
    endloop
  endfacet
  facet normal -1.493106e-01 5.493690e-03 -9.887751e-01
    outer loop
      vertex   -1.491131e+00 -3.310979e-16 -1.132097e+01
      vertex   -1.729109e+00 7.360181e-02 -1.128463e+01
      vertex   -1.477700e+00 6.290027e-02 -1.132265e+01
    endloop
  endfacet
  facet normal -1.273464e-01 7.215939e-04 -9.918580e-01
    outer loop
      vertex   -1.491131e+00 -3.310979e-16 -1.132097e+01
      vertex   -1.477700e+00 6.290027e-02 -1.132265e+01
      vertex   -1.244306e+00 -2.762921e-16 -1.135266e+01
    endloop
  endfacet
  facet normal -1.259149e-01 6.111590e-03 -9.920222e-01
    outer loop
      vertex   -1.244306e+00 -2.762921e-16 -1.135266e+01
      vertex   -1.477700e+00 6.290027e-02 -1.132265e+01
      vertex   -1.227456e+00 5.224828e-02 -1.135448e+01
    endloop
  endfacet
  facet normal -1.043439e-01 -9.325900e-04 -9.945408e-01
    outer loop
      vertex   -1.244306e+00 -2.762921e-16 -1.135266e+01
      vertex   -1.227456e+00 5.224828e-02 -1.135448e+01
      vertex   -9.966801e-01 -2.213085e-16 -1.137864e+01
    endloop
  endfacet
  facet normal -1.026235e-01 6.738558e-03 -9.946974e-01
    outer loop
      vertex   -9.966801e-01 -2.213085e-16 -1.137864e+01
      vertex   -1.227456e+00 5.224828e-02 -1.135448e+01
      vertex   -9.785642e-01 4.165388e-02 -1.138023e+01
    endloop
  endfacet
  facet normal -8.126024e-02 -2.628525e-03 -9.966895e-01
    outer loop
      vertex   -9.966801e-01 -2.213085e-16 -1.137864e+01
      vertex   -9.785642e-01 4.165388e-02 -1.138023e+01
      vertex   -7.483451e-01 -1.661675e-16 -1.139889e+01
    endloop
  endfacet
  facet normal -7.945484e-02 7.404267e-03 -9.968110e-01
    outer loop
      vertex   -7.483451e-01 -1.661675e-16 -1.139889e+01
      vertex   -9.785642e-01 4.165388e-02 -1.138023e+01
      vertex   -7.312053e-01 3.112472e-02 -1.140002e+01
    endloop
  endfacet
  facet normal -5.810692e-02 -4.405988e-03 -9.983006e-01
    outer loop
      vertex   -7.483451e-01 -1.661675e-16 -1.139889e+01
      vertex   -7.312053e-01 3.112472e-02 -1.140002e+01
      vertex   -4.993924e-01 -1.108892e-16 -1.141338e+01
    endloop
  endfacet
  facet normal -5.642662e-02 8.139968e-03 -9.983736e-01
    outer loop
      vertex   -4.993924e-01 -1.108892e-16 -1.141338e+01
      vertex   -7.312053e-01 3.112472e-02 -1.140002e+01
      vertex   -4.855509e-01 2.066812e-02 -1.141399e+01
    endloop
  endfacet
  facet normal -3.489559e-02 -6.309069e-03 -9.993710e-01
    outer loop
      vertex   -4.993924e-01 -1.108892e-16 -1.141338e+01
      vertex   -4.855509e-01 2.066812e-02 -1.141399e+01
      vertex   -2.499134e-01 -5.549398e-17 -1.142209e+01
    endloop
  endfacet
  facet normal -3.355559e-02 8.978315e-03 -9.993965e-01
    outer loop
      vertex   -2.499134e-01 -5.549398e-17 -1.142209e+01
      vertex   -4.855509e-01 2.066812e-02 -1.141399e+01
      vertex   -2.417643e-01 1.029102e-02 -1.142227e+01
    endloop
  endfacet
  facet normal -1.163831e-02 -8.386170e-03 -9.998971e-01
    outer loop
      vertex   -2.499134e-01 -5.549398e-17 -1.142209e+01
      vertex   -2.417643e-01 1.029102e-02 -1.142227e+01
      vertex   -6.781482e-16 -8.117450e-32 -1.142500e+01
    endloop
  endfacet
  facet normal -1.724122e-01 1.159826e-02 -9.849566e-01
    outer loop
      vertex   -1.729109e+00 7.360181e-02 -1.128463e+01
      vertex   -1.980124e+00 8.645383e-02 -1.124054e+01
      vertex   -1.724082e+00 1.483269e-01 -1.128463e+01
    endloop
  endfacet
  facet normal -1.724750e-01 1.186801e-02 -9.849424e-01
    outer loop
      vertex   -1.724082e+00 1.483269e-01 -1.128463e+01
      vertex   -1.980124e+00 8.645383e-02 -1.124054e+01
      vertex   -1.974459e+00 1.727432e-01 -1.124049e+01
    endloop
  endfacet
  facet normal -1.717364e-01 1.945733e-02 -9.849508e-01
    outer loop
      vertex   -1.724082e+00 1.483269e-01 -1.128463e+01
      vertex   -1.974459e+00 1.727432e-01 -1.124049e+01
      vertex   -1.715511e+00 2.239760e-01 -1.128463e+01
    endloop
  endfacet
  facet normal -1.717921e-01 1.975230e-02 -9.849352e-01
    outer loop
      vertex   -1.715511e+00 2.239760e-01 -1.128463e+01
      vertex   -1.974459e+00 1.727432e-01 -1.124049e+01
      vertex   -1.965031e+00 2.587008e-01 -1.124041e+01
    endloop
  endfacet
  facet normal -1.708722e-01 2.636833e-02 -9.849403e-01
    outer loop
      vertex   -1.715511e+00 2.239760e-01 -1.128463e+01
      vertex   -1.965031e+00 2.587008e-01 -1.124041e+01
      vertex   -1.710104e+00 3.015376e-01 -1.128349e+01
    endloop
  endfacet
  facet normal -1.710743e-01 2.764130e-02 -9.848703e-01
    outer loop
      vertex   -1.710104e+00 3.015376e-01 -1.128349e+01
      vertex   -1.965031e+00 2.587008e-01 -1.124041e+01
      vertex   -1.951858e+00 3.441651e-01 -1.124030e+01
    endloop
  endfacet
  facet normal -1.483309e-01 2.485104e-02 -9.886255e-01
    outer loop
      vertex   -1.710104e+00 3.015376e-01 -1.128349e+01
      vertex   -1.467530e+00 2.587651e-01 -1.132096e+01
      vertex   -1.715511e+00 2.239760e-01 -1.128463e+01
    endloop
  endfacet
  facet normal -1.479019e-01 2.164772e-02 -9.887651e-01
    outer loop
      vertex   -1.715511e+00 2.239760e-01 -1.128463e+01
      vertex   -1.467530e+00 2.587651e-01 -1.132096e+01
      vertex   -1.466080e+00 1.914104e-01 -1.132265e+01
    endloop
  endfacet
  facet normal -1.485311e-01 1.682822e-02 -9.887645e-01
    outer loop
      vertex   -1.715511e+00 2.239760e-01 -1.128463e+01
      vertex   -1.466080e+00 1.914104e-01 -1.132265e+01
      vertex   -1.724082e+00 1.483269e-01 -1.128463e+01
    endloop
  endfacet
  facet normal -1.485311e-01 1.682822e-02 -9.887645e-01
    outer loop
      vertex   -1.724082e+00 1.483269e-01 -1.128463e+01
      vertex   -1.466080e+00 1.914104e-01 -1.132265e+01
      vertex   -1.473404e+00 1.267605e-01 -1.132265e+01
    endloop
  endfacet
  facet normal -1.491165e-01 1.003114e-02 -9.887688e-01
    outer loop
      vertex   -1.724082e+00 1.483269e-01 -1.128463e+01
      vertex   -1.473404e+00 1.267605e-01 -1.132265e+01
      vertex   -1.729109e+00 7.360181e-02 -1.128463e+01
    endloop
  endfacet
  facet normal -1.491165e-01 1.003114e-02 -9.887688e-01
    outer loop
      vertex   -1.729109e+00 7.360181e-02 -1.128463e+01
      vertex   -1.473404e+00 1.267605e-01 -1.132265e+01
      vertex   -1.477700e+00 6.290027e-02 -1.132265e+01
    endloop
  endfacet
  facet normal -1.254719e-01 2.220796e-02 -9.918486e-01
    outer loop
      vertex   -1.467530e+00 2.587651e-01 -1.132096e+01
      vertex   -1.224225e+00 2.158639e-01 -1.135270e+01
      vertex   -1.466080e+00 1.914104e-01 -1.132265e+01
    endloop
  endfacet
  facet normal -1.249613e-01 1.695153e-02 -9.920168e-01
    outer loop
      vertex   -1.466080e+00 1.914104e-01 -1.132265e+01
      vertex   -1.224225e+00 2.158639e-01 -1.135270e+01
      vertex   -1.217803e+00 1.589955e-01 -1.135448e+01
    endloop
  endfacet
  facet normal -1.253204e-01 1.419851e-02 -9.920147e-01
    outer loop
      vertex   -1.466080e+00 1.914104e-01 -1.132265e+01
      vertex   -1.217803e+00 1.589955e-01 -1.135448e+01
      vertex   -1.473404e+00 1.267605e-01 -1.132265e+01
    endloop
  endfacet
  facet normal -1.253204e-01 1.419851e-02 -9.920147e-01
    outer loop
      vertex   -1.473404e+00 1.267605e-01 -1.132265e+01
      vertex   -1.217803e+00 1.589955e-01 -1.135448e+01
      vertex   -1.223888e+00 1.052940e-01 -1.135448e+01
    endloop
  endfacet
  facet normal -1.258142e-01 8.463584e-03 -9.920177e-01
    outer loop
      vertex   -1.473404e+00 1.267605e-01 -1.132265e+01
      vertex   -1.223888e+00 1.052940e-01 -1.135448e+01
      vertex   -1.477700e+00 6.290027e-02 -1.132265e+01
    endloop
  endfacet
  facet normal -1.258142e-01 8.463584e-03 -9.920177e-01
    outer loop
      vertex   -1.477700e+00 6.290027e-02 -1.132265e+01
      vertex   -1.223888e+00 1.052940e-01 -1.135448e+01
      vertex   -1.227456e+00 5.224828e-02 -1.135448e+01
    endloop
  endfacet
  facet normal -1.025346e-01 1.956302e-02 -9.945370e-01
    outer loop
      vertex   -1.224225e+00 2.158639e-01 -1.135270e+01
      vertex   -9.802841e-01 1.728505e-01 -1.137869e+01
      vertex   -1.217803e+00 1.589955e-01 -1.135448e+01
    endloop
  endfacet
  facet normal -1.021250e-01 1.226196e-02 -9.946960e-01
    outer loop
      vertex   -1.217803e+00 1.589955e-01 -1.135448e+01
      vertex   -9.802841e-01 1.728505e-01 -1.137869e+01
      vertex   -9.708688e-01 1.267560e-01 -1.138023e+01
    endloop
  endfacet
  facet normal -1.022138e-01 1.158059e-02 -9.946950e-01
    outer loop
      vertex   -1.217803e+00 1.589955e-01 -1.135448e+01
      vertex   -9.708688e-01 1.267560e-01 -1.138023e+01
      vertex   -1.223888e+00 1.052940e-01 -1.135448e+01
    endloop
  endfacet
  facet normal -1.022138e-01 1.158059e-02 -9.946950e-01
    outer loop
      vertex   -1.223888e+00 1.052940e-01 -1.135448e+01
      vertex   -9.708688e-01 1.267560e-01 -1.138023e+01
      vertex   -9.757194e-01 8.394348e-02 -1.138023e+01
    endloop
  endfacet
  facet normal -1.026164e-01 6.903058e-03 -9.946970e-01
    outer loop
      vertex   -1.223888e+00 1.052940e-01 -1.135448e+01
      vertex   -9.757194e-01 8.394348e-02 -1.138023e+01
      vertex   -1.227456e+00 5.224828e-02 -1.135448e+01
    endloop
  endfacet
  facet normal -1.026164e-01 6.903058e-03 -9.946970e-01
    outer loop
      vertex   -1.227456e+00 5.224828e-02 -1.135448e+01
      vertex   -9.757194e-01 8.394348e-02 -1.138023e+01
      vertex   -9.785642e-01 4.165388e-02 -1.138023e+01
    endloop
  endfacet
  facet normal -7.952537e-02 1.694450e-02 -9.966888e-01
    outer loop
      vertex   -9.802841e-01 1.728505e-01 -1.137869e+01
      vertex   -7.357985e-01 1.297411e-01 -1.139893e+01
      vertex   -9.708688e-01 1.267560e-01 -1.138023e+01
    endloop
  endfacet
  facet normal -7.941601e-02 7.555484e-03 -9.968129e-01
    outer loop
      vertex   -9.708688e-01 1.267560e-01 -1.138023e+01
      vertex   -7.357985e-01 1.297411e-01 -1.139893e+01
      vertex   -7.254551e-01 9.471492e-02 -1.140002e+01
    endloop
  endfacet
  facet normal -7.923070e-02 8.976653e-03 -9.968159e-01
    outer loop
      vertex   -9.708688e-01 1.267560e-01 -1.138023e+01
      vertex   -7.254551e-01 9.471492e-02 -1.140002e+01
      vertex   -9.757194e-01 8.394348e-02 -1.138023e+01
    endloop
  endfacet
  facet normal -7.923070e-02 8.976653e-03 -9.968159e-01
    outer loop
      vertex   -9.757194e-01 8.394348e-02 -1.138023e+01
      vertex   -7.254551e-01 9.471492e-02 -1.140002e+01
      vertex   -7.290796e-01 6.272446e-02 -1.140002e+01
    endloop
  endfacet
  facet normal -7.954273e-02 5.350879e-03 -9.968171e-01
    outer loop
      vertex   -9.757194e-01 8.394348e-02 -1.138023e+01
      vertex   -7.290796e-01 6.272446e-02 -1.140002e+01
      vertex   -9.785642e-01 4.165388e-02 -1.138023e+01
    endloop
  endfacet
  facet normal -7.954273e-02 5.350879e-03 -9.968171e-01
    outer loop
      vertex   -9.785642e-01 4.165388e-02 -1.138023e+01
      vertex   -7.290796e-01 6.272446e-02 -1.140002e+01
      vertex   -7.312053e-01 3.112472e-02 -1.140002e+01
    endloop
  endfacet
  facet normal -5.644978e-02 1.438382e-02 -9.983018e-01
    outer loop
      vertex   -7.357985e-01 1.297411e-01 -1.139893e+01
      vertex   -4.908610e-01 8.655203e-02 -1.141341e+01
      vertex   -7.254551e-01 9.471492e-02 -1.140002e+01
    endloop
  endfacet
  facet normal -5.685699e-02 2.806355e-03 -9.983784e-01
    outer loop
      vertex   -7.254551e-01 9.471492e-02 -1.140002e+01
      vertex   -4.908610e-01 8.655203e-02 -1.141341e+01
      vertex   -4.817325e-01 6.289467e-02 -1.141399e+01
    endloop
  endfacet
  facet normal -5.638984e-02 6.388837e-03 -9.983884e-01
    outer loop
      vertex   -7.254551e-01 9.471492e-02 -1.140002e+01
      vertex   -4.817325e-01 6.289467e-02 -1.141399e+01
      vertex   -7.290796e-01 6.272446e-02 -1.140002e+01
    endloop
  endfacet
  facet normal -5.638984e-02 6.388837e-03 -9.983884e-01
    outer loop
      vertex   -7.290796e-01 6.272446e-02 -1.140002e+01
      vertex   -4.817325e-01 6.289467e-02 -1.141399e+01
      vertex   -4.841393e-01 4.165167e-02 -1.141399e+01
    endloop
  endfacet
  facet normal -5.661188e-02 3.808309e-03 -9.983890e-01
    outer loop
      vertex   -7.290796e-01 6.272446e-02 -1.140002e+01
      vertex   -4.841393e-01 4.165167e-02 -1.141399e+01
      vertex   -7.312053e-01 3.112472e-02 -1.140002e+01
    endloop
  endfacet
  facet normal -5.661188e-02 3.808309e-03 -9.983890e-01
    outer loop
      vertex   -7.312053e-01 3.112472e-02 -1.140002e+01
      vertex   -4.841393e-01 4.165167e-02 -1.141399e+01
      vertex   -4.855509e-01 2.066812e-02 -1.141399e+01
    endloop
  endfacet
  facet normal -3.331314e-02 1.191563e-02 -9.993739e-01
    outer loop
      vertex   -4.908610e-01 8.655203e-02 -1.141341e+01
      vertex   -2.455639e-01 4.329954e-02 -1.142210e+01
      vertex   -4.817325e-01 6.289467e-02 -1.141399e+01
    endloop
  endfacet
  facet normal -3.446985e-02 -2.013181e-03 -9.994037e-01
    outer loop
      vertex   -4.817325e-01 6.289467e-02 -1.141399e+01
      vertex   -2.455639e-01 4.329954e-02 -1.142210e+01
      vertex   -2.398630e-01 3.131635e-02 -1.142227e+01
    endloop
  endfacet
  facet normal -3.370909e-02 3.819161e-03 -9.994244e-01
    outer loop
      vertex   -4.817325e-01 6.289467e-02 -1.141399e+01
      vertex   -2.398630e-01 3.131635e-02 -1.142227e+01
      vertex   -4.841393e-01 4.165167e-02 -1.141399e+01
    endloop
  endfacet
  facet normal -3.370909e-02 3.819161e-03 -9.994244e-01
    outer loop
      vertex   -4.841393e-01 4.165167e-02 -1.141399e+01
      vertex   -2.398630e-01 3.131635e-02 -1.142227e+01
      vertex   -2.410614e-01 2.073909e-02 -1.142227e+01
    endloop
  endfacet
  facet normal -3.384181e-02 2.276555e-03 -9.994246e-01
    outer loop
      vertex   -4.841393e-01 4.165167e-02 -1.141399e+01
      vertex   -2.410614e-01 2.073909e-02 -1.142227e+01
      vertex   -4.855509e-01 2.066812e-02 -1.141399e+01
    endloop
  endfacet
  facet normal -3.384181e-02 2.276555e-03 -9.994246e-01
    outer loop
      vertex   -4.855509e-01 2.066812e-02 -1.141399e+01
      vertex   -2.410614e-01 2.073909e-02 -1.142227e+01
      vertex   -2.417643e-01 1.029102e-02 -1.142227e+01
    endloop
  endfacet
  facet normal -1.012033e-02 9.578008e-03 -9.999029e-01
    outer loop
      vertex   -2.455639e-01 4.329954e-02 -1.142210e+01
      vertex   -6.781482e-16 -8.117450e-32 -1.142500e+01
      vertex   -2.398630e-01 3.131635e-02 -1.142227e+01
    endloop
  endfacet
  facet normal -1.120546e-02 1.269552e-03 -9.999364e-01
    outer loop
      vertex   -2.398630e-01 3.131635e-02 -1.142227e+01
      vertex   -6.781482e-16 -8.117450e-32 -1.142500e+01
      vertex   -2.410614e-01 2.073909e-02 -1.142227e+01
    endloop
  endfacet
  facet normal -1.124958e-02 7.567645e-04 -9.999364e-01
    outer loop
      vertex   -2.410614e-01 2.073909e-02 -1.142227e+01
      vertex   -6.781482e-16 -8.117450e-32 -1.142500e+01
      vertex   -2.417643e-01 1.029102e-02 -1.142227e+01
    endloop
  endfacet
  facet normal 1.736482e-01 9.848078e-01 -1.951253e-16
    outer loop
      vertex   -1.951858e+00 3.441651e-01 -1.124030e+01
      vertex   0.000000e+00 0.000000e+00 8.881784e-15
      vertex   -1.710104e+00 3.015376e-01 -1.128349e+01
    endloop
  endfacet
  facet normal 1.736482e-01 9.848078e-01 9.758033e-18
    outer loop
      vertex   -1.710104e+00 3.015376e-01 -1.128349e+01
      vertex   0.000000e+00 0.000000e+00 8.881784e-15
      vertex   -1.467530e+00 2.587651e-01 -1.132096e+01
    endloop
  endfacet
  facet normal 1.736482e-01 9.848078e-01 1.951714e-17
    outer loop
      vertex   -1.467530e+00 2.587651e-01 -1.132096e+01
      vertex   0.000000e+00 0.000000e+00 8.881784e-15
      vertex   -1.224225e+00 2.158639e-01 -1.135270e+01
    endloop
  endfacet
  facet normal 1.736482e-01 9.848078e-01 -4.878937e-18
    outer loop
      vertex   -1.224225e+00 2.158639e-01 -1.135270e+01
      vertex   0.000000e+00 0.000000e+00 8.881784e-15
      vertex   -9.802841e-01 1.728505e-01 -1.137869e+01
    endloop
  endfacet
  facet normal 1.736482e-01 9.848078e-01 -7.316962e-18
    outer loop
      vertex   -9.802841e-01 1.728505e-01 -1.137869e+01
      vertex   0.000000e+00 0.000000e+00 8.881784e-15
      vertex   -7.357985e-01 1.297411e-01 -1.139893e+01
    endloop
  endfacet
  facet normal 1.736482e-01 9.848078e-01 2.438197e-18
    outer loop
      vertex   -7.357985e-01 1.297411e-01 -1.139893e+01
      vertex   0.000000e+00 0.000000e+00 8.881784e-15
      vertex   -4.908610e-01 8.655203e-02 -1.141341e+01
    endloop
  endfacet
  facet normal 1.736482e-01 9.848078e-01 -1.218548e-18
    outer loop
      vertex   -4.908610e-01 8.655203e-02 -1.141341e+01
      vertex   0.000000e+00 0.000000e+00 8.881784e-15
      vertex   -2.455639e-01 4.329954e-02 -1.142210e+01
    endloop
  endfacet
  facet normal 1.736482e-01 9.848078e-01 -9.742736e-18
    outer loop
      vertex   -2.455639e-01 4.329954e-02 -1.142210e+01
      vertex   0.000000e+00 0.000000e+00 8.881784e-15
      vertex   -6.781482e-16 -8.117450e-32 -1.142500e+01
    endloop
  endfacet
  facet normal -9.764106e-01 1.285469e-01 1.734879e-01
    outer loop
      vertex   0.000000e+00 0.000000e+00 8.881784e-15
      vertex   -1.951858e+00 3.441651e-01 -1.124030e+01
      vertex   -6.581569e-01 5.758131e-02 -3.746851e+00
    endloop
  endfacet
  facet normal -9.733252e-01 1.498088e-01 1.737684e-01
    outer loop
      vertex   -6.581569e-01 5.758131e-02 -3.746851e+00
      vertex   -1.951858e+00 3.441651e-01 -1.124030e+01
      vertex   -1.965031e+00 2.587008e-01 -1.124041e+01
    endloop
  endfacet
  facet normal -9.789614e-01 1.072137e-01 1.736081e-01
    outer loop
      vertex   -6.581569e-01 5.758131e-02 -3.746851e+00
      vertex   -1.965031e+00 2.587008e-01 -1.124041e+01
      vertex   -1.316314e+00 1.151627e-01 -7.493702e+00
    endloop
  endfacet
  facet normal -9.789614e-01 1.072137e-01 1.736081e-01
    outer loop
      vertex   -1.316314e+00 1.151627e-01 -7.493702e+00
      vertex   -1.965031e+00 2.587008e-01 -1.124041e+01
      vertex   -1.974459e+00 1.727432e-01 -1.124049e+01
    endloop
  endfacet
  facet normal -9.827063e-01 6.441003e-02 1.736081e-01
    outer loop
      vertex   -1.316314e+00 1.151627e-01 -7.493702e+00
      vertex   -1.974459e+00 1.727432e-01 -1.124049e+01
      vertex   -1.980124e+00 8.645383e-02 -1.124054e+01
    endloop
  endfacet
  facet normal -9.844673e-01 2.148082e-02 1.742490e-01
    outer loop
      vertex   -1.980124e+00 8.645383e-02 -1.124054e+01
      vertex   -1.982013e+00 -3.414109e-16 -1.124055e+01
      vertex   -1.316314e+00 1.151627e-01 -7.493702e+00
    endloop
  endfacet
  facet normal -9.838987e-01 4.295795e-02 1.734879e-01
    outer loop
      vertex   -1.316314e+00 1.151627e-01 -7.493702e+00
      vertex   -1.982013e+00 -3.414109e-16 -1.124055e+01
      vertex   -6.581569e-01 5.758131e-02 -3.746851e+00
    endloop
  endfacet
  facet normal -9.838987e-01 4.295791e-02 1.734879e-01
    outer loop
      vertex   -1.982013e+00 -3.414109e-16 -1.124055e+01
      vertex   0.000000e+00 0.000000e+00 8.881784e-15
      vertex   -6.581569e-01 5.758131e-02 -3.746851e+00
    endloop
  endfacet
endsolid
