solid ASCII
  facet normal -1.736482e-01 9.848078e-01 -3.933225e-16
    outer loop
      vertex   -3.833512e+00 -6.759515e-01 1.069497e+01
      vertex   0.000000e+00 0.000000e+00 -8.881784e-15
      vertex   -4.060318e+00 -7.159435e-01 1.060259e+01
    endloop
  endfacet
  facet normal -1.736482e-01 9.848078e-01 3.736463e-16
    outer loop
      vertex   -4.060318e+00 -7.159435e-01 1.060259e+01
      vertex   0.000000e+00 0.000000e+00 -8.881784e-15
      vertex   -4.285106e+00 -7.555798e-01 1.050493e+01
    endloop
  endfacet
  facet normal -1.736482e-01 9.848078e-01 1.672323e-16
    outer loop
      vertex   -4.285106e+00 -7.555798e-01 1.050493e+01
      vertex   0.000000e+00 0.000000e+00 -8.881784e-15
      vertex   -4.507659e+00 -7.948220e-01 1.040208e+01
    endloop
  endfacet
  facet normal -1.736482e-01 9.848078e-01 -5.024994e-16
    outer loop
      vertex   -4.507659e+00 -7.948220e-01 1.040208e+01
      vertex   0.000000e+00 0.000000e+00 -8.881784e-15
      vertex   -4.727618e+00 -8.336066e-01 1.029423e+01
    endloop
  endfacet
  facet normal -1.736482e-01 9.848078e-01 -2.664284e-16
    outer loop
      vertex   -4.727618e+00 -8.336066e-01 1.029423e+01
      vertex   0.000000e+00 0.000000e+00 -8.881784e-15
      vertex   -4.944906e+00 -8.719203e-01 1.018144e+01
    endloop
  endfacet
  facet normal -1.736482e-01 9.848078e-01 -1.976232e-17
    outer loop
      vertex   -4.944906e+00 -8.719203e-01 1.018144e+01
      vertex   0.000000e+00 0.000000e+00 -8.881784e-15
      vertex   -5.159455e+00 -9.097511e-01 1.006378e+01
    endloop
  endfacet
  facet normal -1.736482e-01 9.848078e-01 -5.144505e-16
    outer loop
      vertex   -5.159455e+00 -9.097511e-01 1.006378e+01
      vertex   0.000000e+00 0.000000e+00 -8.881784e-15
      vertex   -5.371199e+00 -9.470874e-01 9.941298e+00
    endloop
  endfacet
  facet normal -1.736482e-01 9.848078e-01 1.218205e-15
    outer loop
      vertex   -5.371199e+00 -9.470874e-01 9.941298e+00
      vertex   0.000000e+00 0.000000e+00 -8.881784e-15
      vertex   -5.580072e+00 -9.839173e-01 9.814066e+00
    endloop
  endfacet
  facet normal -3.518496e-01 -1.255425e-01 9.275995e-01
    outer loop
      vertex   -3.873393e+00 -1.409800e+00 1.059954e+01
      vertex   -3.656978e+00 -1.331031e+00 1.069229e+01
      vertex   -3.925023e+00 -1.233994e+00 1.060375e+01
    endloop
  endfacet
  facet normal -3.516347e-01 -1.247809e-01 9.277838e-01
    outer loop
      vertex   -3.925023e+00 -1.233994e+00 1.060375e+01
      vertex   -3.656978e+00 -1.331031e+00 1.069229e+01
      vertex   -3.711845e+00 -1.170324e+00 1.069311e+01
    endloop
  endfacet
  facet normal -3.565263e-01 -1.086336e-01 9.279481e-01
    outer loop
      vertex   -3.925023e+00 -1.233994e+00 1.060375e+01
      vertex   -3.711845e+00 -1.170324e+00 1.069311e+01
      vertex   -3.759616e+00 -1.007367e+00 1.069383e+01
    endloop
  endfacet
  facet normal -3.567496e-01 -1.084453e-01 9.278843e-01
    outer loop
      vertex   -3.925023e+00 -1.233994e+00 1.060375e+01
      vertex   -3.759616e+00 -1.007367e+00 1.069383e+01
      vertex   -3.977601e+00 -1.061029e+00 1.060375e+01
    endloop
  endfacet
  facet normal -3.608006e-01 -9.229297e-02 9.280652e-01
    outer loop
      vertex   -3.977601e+00 -1.061029e+00 1.060375e+01
      vertex   -3.759616e+00 -1.007367e+00 1.069383e+01
      vertex   -3.800198e+00 -8.424693e-01 1.069445e+01
    endloop
  endfacet
  facet normal -3.610332e-01 -9.207557e-02 9.279963e-01
    outer loop
      vertex   -3.977601e+00 -1.061029e+00 1.060375e+01
      vertex   -3.800198e+00 -8.424693e-01 1.069445e+01
      vertex   -4.021728e+00 -8.880043e-01 1.060375e+01
    endloop
  endfacet
  facet normal -3.644406e-01 -7.578080e-02 9.281381e-01
    outer loop
      vertex   -4.021728e+00 -8.880043e-01 1.060375e+01
      vertex   -3.800198e+00 -8.424693e-01 1.069445e+01
      vertex   -3.833512e+00 -6.759515e-01 1.069497e+01
    endloop
  endfacet
  facet normal -3.646602e-01 -7.555666e-02 9.280701e-01
    outer loop
      vertex   -4.021728e+00 -8.880043e-01 1.060375e+01
      vertex   -3.833512e+00 -6.759515e-01 1.069497e+01
      vertex   -4.060318e+00 -7.159435e-01 1.060259e+01
    endloop
  endfacet
  facet normal -3.849190e-01 -8.015805e-02 9.194629e-01
    outer loop
      vertex   -4.021728e+00 -8.880043e-01 1.060375e+01
      vertex   -4.060318e+00 -7.159435e-01 1.060259e+01
      vertex   -4.242847e+00 -9.368278e-01 1.050692e+01
    endloop
  endfacet
  facet normal -3.853419e-01 -7.974737e-02 9.193215e-01
    outer loop
      vertex   -4.242847e+00 -9.368278e-01 1.050692e+01
      vertex   -4.060318e+00 -7.159435e-01 1.060259e+01
      vertex   -4.285106e+00 -7.555798e-01 1.050493e+01
    endloop
  endfacet
  facet normal -4.052285e-01 -8.448303e-02 9.103035e-01
    outer loop
      vertex   -4.242847e+00 -9.368278e-01 1.050692e+01
      vertex   -4.285106e+00 -7.555798e-01 1.050493e+01
      vertex   -4.462821e+00 -9.853984e-01 1.040449e+01
    endloop
  endfacet
  facet normal -4.057822e-01 -8.396786e-02 9.101045e-01
    outer loop
      vertex   -4.462821e+00 -9.853984e-01 1.040449e+01
      vertex   -4.285106e+00 -7.555798e-01 1.050493e+01
      vertex   -4.507659e+00 -7.948220e-01 1.040208e+01
    endloop
  endfacet
  facet normal -4.204033e-01 -8.749629e-02 9.031088e-01
    outer loop
      vertex   -4.462821e+00 -9.853984e-01 1.040449e+01
      vertex   -4.507659e+00 -7.948220e-01 1.040208e+01
      vertex   -4.572321e+00 -1.009576e+00 1.035118e+01
    endloop
  endfacet
  facet normal -4.265331e-01 -8.502436e-02 9.004667e-01
    outer loop
      vertex   -4.572321e+00 -1.009576e+00 1.035118e+01
      vertex   -4.507659e+00 -7.948220e-01 1.040208e+01
      vertex   -4.727618e+00 -8.336066e-01 1.029423e+01
    endloop
  endfacet
  facet normal -4.305201e-01 -8.929160e-02 8.981534e-01
    outer loop
      vertex   -4.572321e+00 -1.009576e+00 1.035118e+01
      vertex   -4.727618e+00 -8.336066e-01 1.029423e+01
      vertex   -4.681465e+00 -1.033675e+00 1.029646e+01
    endloop
  endfacet
  facet normal -4.404711e-01 -9.164379e-02 8.930771e-01
    outer loop
      vertex   -4.681465e+00 -1.033675e+00 1.029646e+01
      vertex   -4.727618e+00 -8.336066e-01 1.029423e+01
      vertex   -4.790231e+00 -1.057691e+00 1.024036e+01
    endloop
  endfacet
  facet normal -4.361062e-01 -1.112217e-01 8.929956e-01
    outer loop
      vertex   -4.681465e+00 -1.033675e+00 1.029646e+01
      vertex   -4.790231e+00 -1.057691e+00 1.024036e+01
      vertex   -4.630099e+00 -1.235083e+00 1.029646e+01
    endloop
  endfacet
  facet normal -4.361062e-01 -1.112217e-01 8.929956e-01
    outer loop
      vertex   -4.630099e+00 -1.235083e+00 1.029646e+01
      vertex   -4.790231e+00 -1.057691e+00 1.024036e+01
      vertex   -4.737671e+00 -1.263778e+00 1.024036e+01
    endloop
  endfacet
  facet normal -4.307926e-01 -1.309530e-01 8.928992e-01
    outer loop
      vertex   -4.630099e+00 -1.235083e+00 1.029646e+01
      vertex   -4.737671e+00 -1.263778e+00 1.024036e+01
      vertex   -4.568896e+00 -1.436422e+00 1.029646e+01
    endloop
  endfacet
  facet normal -4.307926e-01 -1.309530e-01 8.928992e-01
    outer loop
      vertex   -4.568896e+00 -1.436422e+00 1.029646e+01
      vertex   -4.737671e+00 -1.263778e+00 1.024036e+01
      vertex   -4.675046e+00 -1.469795e+00 1.024036e+01
    endloop
  endfacet
  facet normal -4.246487e-01 -1.503159e-01 8.927926e-01
    outer loop
      vertex   -4.568896e+00 -1.436422e+00 1.029646e+01
      vertex   -4.675046e+00 -1.469795e+00 1.024036e+01
      vertex   -4.509360e+00 -1.641273e+00 1.029029e+01
    endloop
  endfacet
  facet normal -4.292685e-01 -1.556930e-01 8.896562e-01
    outer loop
      vertex   -4.509360e+00 -1.641273e+00 1.029029e+01
      vertex   -4.675046e+00 -1.469795e+00 1.024036e+01
      vertex   -4.716380e+00 -1.716622e+00 1.017722e+01
    endloop
  endfacet
  facet normal -4.340411e-01 -1.543602e-01 8.875704e-01
    outer loop
      vertex   -4.716380e+00 -1.716622e+00 1.017722e+01
      vertex   -4.675046e+00 -1.469795e+00 1.024036e+01
      vertex   -4.780804e+00 -1.503044e+00 1.018286e+01
    endloop
  endfacet
  facet normal -4.437851e-01 -1.571588e-01 8.822448e-01
    outer loop
      vertex   -4.716380e+00 -1.716622e+00 1.017722e+01
      vertex   -4.780804e+00 -1.503044e+00 1.018286e+01
      vertex   -4.886147e+00 -1.536163e+00 1.012397e+01
    endloop
  endfacet
  facet normal -4.502311e-01 -1.368620e-01 8.823609e-01
    outer loop
      vertex   -4.886147e+00 -1.536163e+00 1.012397e+01
      vertex   -4.780804e+00 -1.503044e+00 1.018286e+01
      vertex   -4.951600e+00 -1.320844e+00 1.012397e+01
    endloop
  endfacet
  facet normal -4.598792e-01 -1.397948e-01 8.769085e-01
    outer loop
      vertex   -4.886147e+00 -1.536163e+00 1.012397e+01
      vertex   -4.951600e+00 -1.320844e+00 1.012397e+01
      vertex   -5.057910e+00 -1.349202e+00 1.006369e+01
    endloop
  endfacet
  facet normal -4.655586e-01 -1.187331e-01 8.770163e-01
    outer loop
      vertex   -5.057910e+00 -1.349202e+00 1.006369e+01
      vertex   -4.951600e+00 -1.320844e+00 1.012397e+01
      vertex   -5.114022e+00 -1.129185e+00 1.006369e+01
    endloop
  endfacet
  facet normal -4.752774e-01 -1.212117e-01 8.714466e-01
    outer loop
      vertex   -5.057910e+00 -1.349202e+00 1.006369e+01
      vertex   -5.114022e+00 -1.129185e+00 1.006369e+01
      vertex   -5.221039e+00 -1.152814e+00 1.000204e+01
    endloop
  endfacet
  facet normal -4.800747e-01 -9.972940e-02 8.715402e-01
    outer loop
      vertex   -5.221039e+00 -1.152814e+00 1.000204e+01
      vertex   -5.114022e+00 -1.129185e+00 1.006369e+01
      vertex   -5.159455e+00 -9.097511e-01 1.006378e+01
    endloop
  endfacet
  facet normal -4.853389e-01 -9.771203e-02 8.688489e-01
    outer loop
      vertex   -5.221039e+00 -1.152814e+00 1.000204e+01
      vertex   -5.159455e+00 -9.097511e-01 1.006378e+01
      vertex   -5.371199e+00 -9.470874e-01 9.941298e+00
    endloop
  endfacet
  facet normal -4.464147e-01 -8.932892e-02 8.903563e-01
    outer loop
      vertex   -4.727618e+00 -8.336066e-01 1.029423e+01
      vertex   -4.944906e+00 -8.719203e-01 1.018144e+01
      vertex   -4.790231e+00 -1.057691e+00 1.024036e+01
    endloop
  endfacet
  facet normal -4.504830e-01 -9.350311e-02 8.878751e-01
    outer loop
      vertex   -4.790231e+00 -1.057691e+00 1.024036e+01
      vertex   -4.944906e+00 -8.719203e-01 1.018144e+01
      vertex   -4.898594e+00 -1.081618e+00 1.018286e+01
    endloop
  endfacet
  facet normal -4.459708e-01 -1.137375e-01 8.877915e-01
    outer loop
      vertex   -4.790231e+00 -1.057691e+00 1.024036e+01
      vertex   -4.898594e+00 -1.081618e+00 1.018286e+01
      vertex   -4.737671e+00 -1.263778e+00 1.024036e+01
    endloop
  endfacet
  facet normal -4.459708e-01 -1.137375e-01 8.877915e-01
    outer loop
      vertex   -4.737671e+00 -1.263778e+00 1.024036e+01
      vertex   -4.898594e+00 -1.081618e+00 1.018286e+01
      vertex   -4.844846e+00 -1.292367e+00 1.018286e+01
    endloop
  endfacet
  facet normal -4.405349e-01 -1.339145e-01 8.876914e-01
    outer loop
      vertex   -4.737671e+00 -1.263778e+00 1.024036e+01
      vertex   -4.844846e+00 -1.292367e+00 1.018286e+01
      vertex   -4.675046e+00 -1.469795e+00 1.024036e+01
    endloop
  endfacet
  facet normal -4.405349e-01 -1.339145e-01 8.876914e-01
    outer loop
      vertex   -4.675046e+00 -1.469795e+00 1.024036e+01
      vertex   -4.844846e+00 -1.292367e+00 1.018286e+01
      vertex   -4.780804e+00 -1.503044e+00 1.018286e+01
    endloop
  endfacet
  facet normal -4.603676e-01 -9.572200e-02 8.825525e-01
    outer loop
      vertex   -4.898594e+00 -1.081618e+00 1.018286e+01
      vertex   -4.944906e+00 -8.719203e-01 1.018144e+01
      vertex   -5.006532e+00 -1.105451e+00 1.012397e+01
    endloop
  endfacet
  facet normal -4.660195e-01 -9.355658e-02 8.798142e-01
    outer loop
      vertex   -5.006532e+00 -1.105451e+00 1.012397e+01
      vertex   -4.944906e+00 -8.719203e-01 1.018144e+01
      vertex   -5.159455e+00 -9.097511e-01 1.006378e+01
    endloop
  endfacet
  facet normal -4.702539e-01 -9.769813e-02 8.771068e-01
    outer loop
      vertex   -5.006532e+00 -1.105451e+00 1.012397e+01
      vertex   -5.159455e+00 -9.097511e-01 1.006378e+01
      vertex   -5.114022e+00 -1.129185e+00 1.006369e+01
    endloop
  endfacet
  facet normal -5.043647e-01 -1.018016e-01 8.574688e-01
    outer loop
      vertex   -5.580072e+00 -9.839173e-01 9.814066e+00
      vertex   -5.433566e+00 -1.199741e+00 9.874618e+00
      vertex   -5.371199e+00 -9.470874e-01 9.941298e+00
    endloop
  endfacet
  facet normal -4.995743e-01 -1.036643e-01 8.600461e-01
    outer loop
      vertex   -5.371199e+00 -9.470874e-01 9.941298e+00
      vertex   -5.433566e+00 -1.199741e+00 9.874618e+00
      vertex   -5.327562e+00 -1.176335e+00 9.939014e+00
    endloop
  endfacet
  facet normal -4.898170e-01 -1.018649e-01 8.658538e-01
    outer loop
      vertex   -5.371199e+00 -9.470874e-01 9.941298e+00
      vertex   -5.327562e+00 -1.176335e+00 9.939014e+00
      vertex   -5.221039e+00 -1.152814e+00 1.000204e+01
    endloop
  endfacet
  facet normal -4.849432e-01 -1.236768e-01 8.657564e-01
    outer loop
      vertex   -5.221039e+00 -1.152814e+00 1.000204e+01
      vertex   -5.327562e+00 -1.176335e+00 9.939014e+00
      vertex   -5.163753e+00 -1.377436e+00 1.000204e+01
    endloop
  endfacet
  facet normal -4.752774e-01 -1.212117e-01 8.714466e-01
    outer loop
      vertex   -5.221039e+00 -1.152814e+00 1.000204e+01
      vertex   -5.163753e+00 -1.377436e+00 1.000204e+01
      vertex   -5.057910e+00 -1.349202e+00 1.006369e+01
    endloop
  endfacet
  facet normal -4.694770e-01 -1.427124e-01 8.713349e-01
    outer loop
      vertex   -5.057910e+00 -1.349202e+00 1.006369e+01
      vertex   -5.163753e+00 -1.377436e+00 1.000204e+01
      vertex   -4.991051e+00 -1.569144e+00 1.006369e+01
    endloop
  endfacet
  facet normal -4.598792e-01 -1.397948e-01 8.769085e-01
    outer loop
      vertex   -5.057910e+00 -1.349202e+00 1.006369e+01
      vertex   -4.991051e+00 -1.569144e+00 1.006369e+01
      vertex   -4.886147e+00 -1.536163e+00 1.012397e+01
    endloop
  endfacet
  facet normal -4.531287e-01 -1.610318e-01 8.767800e-01
    outer loop
      vertex   -4.886147e+00 -1.536163e+00 1.012397e+01
      vertex   -4.991051e+00 -1.569144e+00 1.006369e+01
      vertex   -4.920806e+00 -1.791027e+00 1.005925e+01
    endloop
  endfacet
  facet normal -4.482298e-01 -1.622784e-01 8.790653e-01
    outer loop
      vertex   -4.886147e+00 -1.536163e+00 1.012397e+01
      vertex   -4.920806e+00 -1.791027e+00 1.005925e+01
      vertex   -4.716380e+00 -1.716622e+00 1.017722e+01
    endloop
  endfacet
  facet normal -5.092314e-01 -1.060590e-01 8.540696e-01
    outer loop
      vertex   -5.580072e+00 -9.839173e-01 9.814066e+00
      vertex   -5.531288e+00 -1.226212e+00 9.813065e+00
      vertex   -5.433566e+00 -1.199741e+00 9.874618e+00
    endloop
  endfacet
  facet normal -5.034215e-01 -1.283894e-01 8.544490e-01
    outer loop
      vertex   -5.433566e+00 -1.199741e+00 9.874618e+00
      vertex   -5.531288e+00 -1.226212e+00 9.813065e+00
      vertex   -5.373948e+00 -1.433506e+00 9.874618e+00
    endloop
  endfacet
  facet normal -4.945539e-01 -1.261278e-01 8.599466e-01
    outer loop
      vertex   -5.433566e+00 -1.199741e+00 9.874618e+00
      vertex   -5.373948e+00 -1.433506e+00 9.874618e+00
      vertex   -5.269107e+00 -1.405539e+00 9.939014e+00
    endloop
  endfacet
  facet normal -4.885131e-01 -1.484990e-01 8.598273e-01
    outer loop
      vertex   -5.269107e+00 -1.405539e+00 9.939014e+00
      vertex   -5.373948e+00 -1.433506e+00 9.874618e+00
      vertex   -5.199457e+00 -1.634665e+00 9.939014e+00
    endloop
  endfacet
  facet normal -4.790223e-01 -1.456140e-01 8.656409e-01
    outer loop
      vertex   -5.269107e+00 -1.405539e+00 9.939014e+00
      vertex   -5.199457e+00 -1.634665e+00 9.939014e+00
      vertex   -5.095496e+00 -1.601980e+00 1.000204e+01
    endloop
  endfacet
  facet normal -4.720227e-01 -1.676164e-01 8.655052e-01
    outer loop
      vertex   -5.095496e+00 -1.601980e+00 1.000204e+01
      vertex   -5.199457e+00 -1.634665e+00 9.939014e+00
      vertex   -5.122574e+00 -1.864464e+00 9.936440e+00
    endloop
  endfacet
  facet normal -4.669075e-01 -1.687801e-01 8.680499e-01
    outer loop
      vertex   -5.095496e+00 -1.601980e+00 1.000204e+01
      vertex   -5.122574e+00 -1.864464e+00 9.936440e+00
      vertex   -4.920806e+00 -1.791027e+00 1.005925e+01
    endloop
  endfacet
  facet normal -5.042398e-01 -1.291897e-01 8.538456e-01
    outer loop
      vertex   -5.531288e+00 -1.226212e+00 9.813065e+00
      vertex   -5.471868e+00 -1.466120e+00 9.811857e+00
      vertex   -5.373948e+00 -1.433506e+00 9.874618e+00
    endloop
  endfacet
  facet normal -4.972433e-01 -1.511528e-01 8.543430e-01
    outer loop
      vertex   -5.373948e+00 -1.433506e+00 9.874618e+00
      vertex   -5.471868e+00 -1.466120e+00 9.811857e+00
      vertex   -5.302913e+00 -1.667190e+00 9.874618e+00
    endloop
  endfacet
  facet normal -4.885131e-01 -1.484990e-01 8.598273e-01
    outer loop
      vertex   -5.373948e+00 -1.433506e+00 9.874618e+00
      vertex   -5.302913e+00 -1.667190e+00 9.874618e+00
      vertex   -5.199457e+00 -1.634665e+00 9.939014e+00
    endloop
  endfacet
  facet normal -4.814471e-01 -1.707044e-01 8.596910e-01
    outer loop
      vertex   -5.199457e+00 -1.634665e+00 9.939014e+00
      vertex   -5.302913e+00 -1.667190e+00 9.874618e+00
      vertex   -5.122574e+00 -1.864464e+00 9.936440e+00
    endloop
  endfacet
  facet normal -4.980165e-01 -1.519896e-01 8.537439e-01
    outer loop
      vertex   -5.471868e+00 -1.466120e+00 9.811857e+00
      vertex   -5.401931e+00 -1.703171e+00 9.810452e+00
      vertex   -5.302913e+00 -1.667190e+00 9.874618e+00
    endloop
  endfacet
  facet normal -4.901377e-01 -1.742271e-01 8.540550e-01
    outer loop
      vertex   -5.302913e+00 -1.667190e+00 9.874618e+00
      vertex   -5.401931e+00 -1.703171e+00 9.810452e+00
      vertex   -5.321618e+00 -1.936911e+00 9.808860e+00
    endloop
  endfacet
  facet normal -4.852981e-01 -1.751877e-01 8.566184e-01
    outer loop
      vertex   -5.302913e+00 -1.667190e+00 9.874618e+00
      vertex   -5.321618e+00 -1.936911e+00 9.808860e+00
      vertex   -5.122574e+00 -1.864464e+00 9.936440e+00
    endloop
  endfacet
  facet normal -4.147794e-01 -1.476005e-01 8.978709e-01
    outer loop
      vertex   -4.568896e+00 -1.436422e+00 1.029646e+01
      vertex   -4.509360e+00 -1.641273e+00 1.029029e+01
      vertex   -4.462376e+00 -1.402933e+00 1.035118e+01
    endloop
  endfacet
  facet normal -4.100283e-01 -1.490336e-01 8.998143e-01
    outer loop
      vertex   -4.462376e+00 -1.402933e+00 1.035118e+01
      vertex   -4.509360e+00 -1.641273e+00 1.029029e+01
      vertex   -4.299812e+00 -1.565004e+00 1.039841e+01
    endloop
  endfacet
  facet normal -4.053305e-01 -1.434376e-01 9.028471e-01
    outer loop
      vertex   -4.462376e+00 -1.402933e+00 1.035118e+01
      vertex   -4.299812e+00 -1.565004e+00 1.039841e+01
      vertex   -4.355510e+00 -1.369335e+00 1.040449e+01
    endloop
  endfacet
  facet normal -3.914632e-01 -1.396979e-01 9.095279e-01
    outer loop
      vertex   -4.355510e+00 -1.369335e+00 1.040449e+01
      vertex   -4.299812e+00 -1.565004e+00 1.039841e+01
      vertex   -4.087801e+00 -1.487838e+00 1.050151e+01
    endloop
  endfacet
  facet normal -3.908587e-01 -1.378941e-01 9.100630e-01
    outer loop
      vertex   -4.355510e+00 -1.369335e+00 1.040449e+01
      vertex   -4.087801e+00 -1.487838e+00 1.050151e+01
      vertex   -4.140825e+00 -1.301840e+00 1.050692e+01
    endloop
  endfacet
  facet normal -3.717595e-01 -1.327033e-01 9.187952e-01
    outer loop
      vertex   -4.140825e+00 -1.301840e+00 1.050692e+01
      vertex   -4.087801e+00 -1.487838e+00 1.050151e+01
      vertex   -3.873393e+00 -1.409800e+00 1.059954e+01
    endloop
  endfacet
  facet normal -3.712422e-01 -1.310375e-01 9.192434e-01
    outer loop
      vertex   -4.140825e+00 -1.301840e+00 1.050692e+01
      vertex   -3.873393e+00 -1.409800e+00 1.059954e+01
      vertex   -3.925023e+00 -1.233994e+00 1.060375e+01
    endloop
  endfacet
  facet normal -3.764937e-01 -1.144472e-01 9.193227e-01
    outer loop
      vertex   -4.140825e+00 -1.301840e+00 1.050692e+01
      vertex   -3.925023e+00 -1.233994e+00 1.060375e+01
      vertex   -4.196294e+00 -1.119365e+00 1.050692e+01
    endloop
  endfacet
  facet normal -3.764937e-01 -1.144472e-01 9.193227e-01
    outer loop
      vertex   -4.196294e+00 -1.119365e+00 1.050692e+01
      vertex   -3.925023e+00 -1.233994e+00 1.060375e+01
      vertex   -3.977601e+00 -1.061029e+00 1.060375e+01
    endloop
  endfacet
  facet normal -3.811279e-01 -9.720039e-02 9.193985e-01
    outer loop
      vertex   -4.196294e+00 -1.119365e+00 1.050692e+01
      vertex   -3.977601e+00 -1.061029e+00 1.060375e+01
      vertex   -4.242847e+00 -9.368278e-01 1.050692e+01
    endloop
  endfacet
  facet normal -3.811279e-01 -9.720039e-02 9.193985e-01
    outer loop
      vertex   -4.242847e+00 -9.368278e-01 1.050692e+01
      vertex   -3.977601e+00 -1.061029e+00 1.060375e+01
      vertex   -4.021728e+00 -8.880043e-01 1.060375e+01
    endloop
  endfacet
  facet normal -3.963716e-01 -1.204897e-01 9.101493e-01
    outer loop
      vertex   -4.355510e+00 -1.369335e+00 1.040449e+01
      vertex   -4.140825e+00 -1.301840e+00 1.050692e+01
      vertex   -4.413854e+00 -1.177400e+00 1.040449e+01
    endloop
  endfacet
  facet normal -3.963716e-01 -1.204897e-01 9.101493e-01
    outer loop
      vertex   -4.413854e+00 -1.177400e+00 1.040449e+01
      vertex   -4.140825e+00 -1.301840e+00 1.050692e+01
      vertex   -4.196294e+00 -1.119365e+00 1.050692e+01
    endloop
  endfacet
  facet normal -4.012540e-01 -1.023332e-01 9.102325e-01
    outer loop
      vertex   -4.413854e+00 -1.177400e+00 1.040449e+01
      vertex   -4.196294e+00 -1.119365e+00 1.050692e+01
      vertex   -4.462821e+00 -9.853984e-01 1.040449e+01
    endloop
  endfacet
  facet normal -4.012540e-01 -1.023332e-01 9.102325e-01
    outer loop
      vertex   -4.462821e+00 -9.853984e-01 1.040449e+01
      vertex   -4.196294e+00 -1.119365e+00 1.050692e+01
      vertex   -4.242847e+00 -9.368278e-01 1.050692e+01
    endloop
  endfacet
  facet normal -4.210065e-01 -1.279782e-01 8.979839e-01
    outer loop
      vertex   -4.630099e+00 -1.235083e+00 1.029646e+01
      vertex   -4.568896e+00 -1.436422e+00 1.029646e+01
      vertex   -4.462376e+00 -1.402933e+00 1.035118e+01
    endloop
  endfacet
  facet normal -4.111788e-01 -1.249908e-01 9.029448e-01
    outer loop
      vertex   -4.462376e+00 -1.402933e+00 1.035118e+01
      vertex   -4.355510e+00 -1.369335e+00 1.040449e+01
      vertex   -4.522153e+00 -1.206288e+00 1.035118e+01
    endloop
  endfacet
  facet normal -4.111788e-01 -1.249908e-01 9.029448e-01
    outer loop
      vertex   -4.522153e+00 -1.206288e+00 1.035118e+01
      vertex   -4.355510e+00 -1.369335e+00 1.040449e+01
      vertex   -4.413854e+00 -1.177400e+00 1.040449e+01
    endloop
  endfacet
  facet normal -4.162464e-01 -1.061568e-01 9.030336e-01
    outer loop
      vertex   -4.522153e+00 -1.206288e+00 1.035118e+01
      vertex   -4.413854e+00 -1.177400e+00 1.040449e+01
      vertex   -4.572321e+00 -1.009576e+00 1.035118e+01
    endloop
  endfacet
  facet normal -4.162464e-01 -1.061568e-01 9.030336e-01
    outer loop
      vertex   -4.572321e+00 -1.009576e+00 1.035118e+01
      vertex   -4.413854e+00 -1.177400e+00 1.040449e+01
      vertex   -4.462821e+00 -9.853984e-01 1.040449e+01
    endloop
  endfacet
  facet normal -4.502311e-01 -1.368620e-01 8.823609e-01
    outer loop
      vertex   -4.951600e+00 -1.320844e+00 1.012397e+01
      vertex   -4.780804e+00 -1.503044e+00 1.018286e+01
      vertex   -4.844846e+00 -1.292367e+00 1.018286e+01
    endloop
  endfacet
  facet normal -4.627233e-01 -1.639577e-01 8.712089e-01
    outer loop
      vertex   -5.095496e+00 -1.601980e+00 1.000204e+01
      vertex   -4.920806e+00 -1.791027e+00 1.005925e+01
      vertex   -4.991051e+00 -1.569144e+00 1.006369e+01
    endloop
  endfacet
  facet normal -4.790223e-01 -1.456140e-01 8.656409e-01
    outer loop
      vertex   -5.269107e+00 -1.405539e+00 9.939014e+00
      vertex   -5.095496e+00 -1.601980e+00 1.000204e+01
      vertex   -5.163753e+00 -1.377436e+00 1.000204e+01
    endloop
  endfacet
  facet normal -4.694770e-01 -1.427124e-01 8.713349e-01
    outer loop
      vertex   -5.163753e+00 -1.377436e+00 1.000204e+01
      vertex   -5.095496e+00 -1.601980e+00 1.000204e+01
      vertex   -4.991051e+00 -1.569144e+00 1.006369e+01
    endloop
  endfacet
  facet normal -4.261973e-01 -1.086946e-01 8.980765e-01
    outer loop
      vertex   -4.681465e+00 -1.033675e+00 1.029646e+01
      vertex   -4.630099e+00 -1.235083e+00 1.029646e+01
      vertex   -4.522153e+00 -1.206288e+00 1.035118e+01
    endloop
  endfacet
  facet normal -4.210065e-01 -1.279782e-01 8.979839e-01
    outer loop
      vertex   -4.522153e+00 -1.206288e+00 1.035118e+01
      vertex   -4.630099e+00 -1.235083e+00 1.029646e+01
      vertex   -4.462376e+00 -1.402933e+00 1.035118e+01
    endloop
  endfacet
  facet normal -4.261973e-01 -1.086946e-01 8.980765e-01
    outer loop
      vertex   -4.681465e+00 -1.033675e+00 1.029646e+01
      vertex   -4.522153e+00 -1.206288e+00 1.035118e+01
      vertex   -4.572321e+00 -1.009576e+00 1.035118e+01
    endloop
  endfacet
  facet normal -4.557890e-01 -1.162415e-01 8.824649e-01
    outer loop
      vertex   -4.898594e+00 -1.081618e+00 1.018286e+01
      vertex   -5.006532e+00 -1.105451e+00 1.012397e+01
      vertex   -4.844846e+00 -1.292367e+00 1.018286e+01
    endloop
  endfacet
  facet normal -4.557890e-01 -1.162415e-01 8.824649e-01
    outer loop
      vertex   -4.844846e+00 -1.292367e+00 1.018286e+01
      vertex   -5.006532e+00 -1.105451e+00 1.012397e+01
      vertex   -4.951600e+00 -1.320844e+00 1.012397e+01
    endloop
  endfacet
  facet normal -4.655586e-01 -1.187331e-01 8.770163e-01
    outer loop
      vertex   -5.006532e+00 -1.105451e+00 1.012397e+01
      vertex   -5.114022e+00 -1.129185e+00 1.006369e+01
      vertex   -4.951600e+00 -1.320844e+00 1.012397e+01
    endloop
  endfacet
  facet normal -4.945539e-01 -1.261278e-01 8.599466e-01
    outer loop
      vertex   -5.433566e+00 -1.199741e+00 9.874618e+00
      vertex   -5.269107e+00 -1.405539e+00 9.939014e+00
      vertex   -5.327562e+00 -1.176335e+00 9.939014e+00
    endloop
  endfacet
  facet normal -4.849432e-01 -1.236768e-01 8.657564e-01
    outer loop
      vertex   -5.327562e+00 -1.176335e+00 9.939014e+00
      vertex   -5.269107e+00 -1.405539e+00 9.939014e+00
      vertex   -5.163753e+00 -1.377436e+00 1.000204e+01
    endloop
  endfacet
  facet normal 3.420201e-01 -9.396926e-01 1.027673e-10
    outer loop
      vertex   -3.656978e+00 -1.331031e+00 1.069229e+01
      vertex   -3.873393e+00 -1.409800e+00 1.059954e+01
      vertex   0.000000e+00 0.000000e+00 -8.881784e-15
    endloop
  endfacet
  facet normal 3.420201e-01 -9.396926e-01 -9.843030e-12
    outer loop
      vertex   0.000000e+00 0.000000e+00 -8.881784e-15
      vertex   -3.873393e+00 -1.409800e+00 1.059954e+01
      vertex   -4.087801e+00 -1.487838e+00 1.050151e+01
    endloop
  endfacet
  facet normal 3.420201e-01 -9.396926e-01 -2.211404e-11
    outer loop
      vertex   0.000000e+00 0.000000e+00 -8.881784e-15
      vertex   -4.087801e+00 -1.487838e+00 1.050151e+01
      vertex   -4.299812e+00 -1.565004e+00 1.039841e+01
    endloop
  endfacet
  facet normal 3.420201e-01 -9.396926e-01 -2.892825e-11
    outer loop
      vertex   -4.299812e+00 -1.565004e+00 1.039841e+01
      vertex   -4.509360e+00 -1.641273e+00 1.029029e+01
      vertex   0.000000e+00 0.000000e+00 -8.881784e-15
    endloop
  endfacet
  facet normal 3.420201e-01 -9.396926e-01 -3.143395e-11
    outer loop
      vertex   0.000000e+00 0.000000e+00 -8.881784e-15
      vertex   -4.509360e+00 -1.641273e+00 1.029029e+01
      vertex   -4.716380e+00 -1.716622e+00 1.017722e+01
    endloop
  endfacet
  facet normal 3.420201e-01 -9.396926e-01 -2.918397e-11
    outer loop
      vertex   0.000000e+00 0.000000e+00 -8.881784e-15
      vertex   -4.716380e+00 -1.716622e+00 1.017722e+01
      vertex   -4.920806e+00 -1.791027e+00 1.005925e+01
    endloop
  endfacet
  facet normal 3.420201e-01 -9.396926e-01 -2.173382e-11
    outer loop
      vertex   -4.920806e+00 -1.791027e+00 1.005925e+01
      vertex   -5.122574e+00 -1.864464e+00 9.936440e+00
      vertex   0.000000e+00 0.000000e+00 -8.881784e-15
    endloop
  endfacet
  facet normal 3.420201e-01 -9.396926e-01 -8.650850e-12
    outer loop
      vertex   0.000000e+00 0.000000e+00 -8.881784e-15
      vertex   -5.122574e+00 -1.864464e+00 9.936440e+00
      vertex   -5.321618e+00 -1.936911e+00 9.808860e+00
    endloop
  endfacet
  facet normal 9.215716e-01 1.833093e-01 3.422039e-01
    outer loop
      vertex   -3.800198e+00 -8.424693e-01 1.069445e+01
      vertex   -2.525148e+00 -5.984712e-01 7.129978e+00
      vertex   -3.833512e+00 -6.759515e-01 1.069497e+01
    endloop
  endfacet
  facet normal 9.203247e-01 1.900318e-01 3.418924e-01
    outer loop
      vertex   -3.833512e+00 -6.759515e-01 1.069497e+01
      vertex   -2.525148e+00 -5.984712e-01 7.129978e+00
      vertex   -1.262574e+00 -2.992356e-01 3.564989e+00
    endloop
  endfacet
  facet normal 9.203247e-01 1.900318e-01 3.418924e-01
    outer loop
      vertex   -3.833512e+00 -6.759515e-01 1.069497e+01
      vertex   -1.262574e+00 -2.992356e-01 3.564989e+00
      vertex   0.000000e+00 0.000000e+00 -8.881784e-15
    endloop
  endfacet
  facet normal 9.128343e-01 2.233657e-01 3.418204e-01
    outer loop
      vertex   -3.800198e+00 -8.424693e-01 1.069445e+01
      vertex   -3.759616e+00 -1.007367e+00 1.069383e+01
      vertex   -2.525148e+00 -5.984712e-01 7.129978e+00
    endloop
  endfacet
  facet normal 9.075835e-01 2.431863e-01 3.422757e-01
    outer loop
      vertex   -2.525148e+00 -5.984712e-01 7.129978e+00
      vertex   -3.759616e+00 -1.007367e+00 1.069383e+01
      vertex   -2.486078e+00 -7.442830e-01 7.129978e+00
    endloop
  endfacet
  facet normal 9.077183e-01 2.432224e-01 3.418924e-01
    outer loop
      vertex   -2.525148e+00 -5.984712e-01 7.129978e+00
      vertex   -2.486078e+00 -7.442830e-01 7.129978e+00
      vertex   -1.243039e+00 -3.721415e-01 3.564989e+00
    endloop
  endfacet
  facet normal 8.920404e-01 2.955900e-01 3.418924e-01
    outer loop
      vertex   -1.243039e+00 -3.721415e-01 3.564989e+00
      vertex   -2.486078e+00 -7.442830e-01 7.129978e+00
      vertex   -3.656978e+00 -1.331031e+00 1.069229e+01
    endloop
  endfacet
  facet normal 8.920404e-01 2.955900e-01 3.418924e-01
    outer loop
      vertex   -1.243039e+00 -3.721415e-01 3.564989e+00
      vertex   -3.656978e+00 -1.331031e+00 1.069229e+01
      vertex   0.000000e+00 0.000000e+00 -8.881784e-15
    endloop
  endfacet
  facet normal 9.022225e-01 2.629702e-01 3.418204e-01
    outer loop
      vertex   -3.759616e+00 -1.007367e+00 1.069383e+01
      vertex   -3.711845e+00 -1.170324e+00 1.069311e+01
      vertex   -2.486078e+00 -7.442830e-01 7.129978e+00
    endloop
  endfacet
  facet normal 8.897610e-01 3.020297e-01 3.422038e-01
    outer loop
      vertex   -2.486078e+00 -7.442830e-01 7.129978e+00
      vertex   -3.711845e+00 -1.170324e+00 1.069311e+01
      vertex   -3.656978e+00 -1.331031e+00 1.069229e+01
    endloop
  endfacet
  facet normal 9.077183e-01 2.432224e-01 3.418924e-01
    outer loop
      vertex   -1.243039e+00 -3.721415e-01 3.564989e+00
      vertex   0.000000e+00 0.000000e+00 -8.881784e-15
      vertex   -1.262574e+00 -2.992356e-01 3.564989e+00
    endloop
  endfacet
  facet normal 9.077183e-01 2.432224e-01 3.418924e-01
    outer loop
      vertex   -1.243039e+00 -3.721415e-01 3.564989e+00
      vertex   -1.262574e+00 -2.992356e-01 3.564989e+00
      vertex   -2.525148e+00 -5.984712e-01 7.129978e+00
    endloop
  endfacet
  facet normal -8.201156e-01 -2.783879e-01 -4.999107e-01
    outer loop
      vertex   -5.401931e+00 -1.703171e+00 9.810452e+00
      vertex   -3.602611e+00 -1.135876e+00 6.542711e+00
      vertex   -5.321618e+00 -1.936911e+00 9.808860e+00
    endloop
  endfacet
  facet normal -8.201153e-01 -2.783885e-01 -4.999107e-01
    outer loop
      vertex   -5.321618e+00 -1.936911e+00 9.808860e+00
      vertex   -3.602611e+00 -1.135876e+00 6.542711e+00
      vertex   -1.801304e+00 -5.679432e-01 3.271355e+00
    endloop
  endfacet
  facet normal -8.201147e-01 -2.783901e-01 -4.999107e-01
    outer loop
      vertex   -5.321618e+00 -1.936911e+00 9.808860e+00
      vertex   -1.801304e+00 -5.679432e-01 3.271355e+00
      vertex   0.000000e+00 0.000000e+00 -8.881784e-15
    endloop
  endfacet
  facet normal -8.314785e-01 -2.423481e-01 -4.999108e-01
    outer loop
      vertex   -3.602611e+00 -1.135876e+00 6.542711e+00
      vertex   -5.401931e+00 -1.703171e+00 9.810452e+00
      vertex   -3.648730e+00 -9.776465e-01 6.542711e+00
    endloop
  endfacet
  facet normal -8.314794e-01 -2.423453e-01 -4.999107e-01
    outer loop
      vertex   -3.648730e+00 -9.776465e-01 6.542711e+00
      vertex   -5.401931e+00 -1.703171e+00 9.810452e+00
      vertex   -5.471868e+00 -1.466120e+00 9.811857e+00
    endloop
  endfacet
  facet normal -8.412582e-01 -2.058491e-01 -4.999108e-01
    outer loop
      vertex   -3.648730e+00 -9.776465e-01 6.542711e+00
      vertex   -5.471868e+00 -1.466120e+00 9.811857e+00
      vertex   -3.687900e+00 -8.175676e-01 6.542711e+00
    endloop
  endfacet
  facet normal -8.412588e-01 -2.058466e-01 -4.999107e-01
    outer loop
      vertex   -3.687900e+00 -8.175676e-01 6.542711e+00
      vertex   -5.471868e+00 -1.466120e+00 9.811857e+00
      vertex   -5.531288e+00 -1.226212e+00 9.813065e+00
    endloop
  endfacet
  facet normal -8.494361e-01 -1.689598e-01 -4.999108e-01
    outer loop
      vertex   -3.687900e+00 -8.175676e-01 6.542711e+00
      vertex   -5.531288e+00 -1.226212e+00 9.813065e+00
      vertex   -5.580072e+00 -9.839173e-01 9.814066e+00
    endloop
  endfacet
  facet normal -8.494360e-01 -1.689606e-01 -4.999108e-01
    outer loop
      vertex   -3.687900e+00 -8.175676e-01 6.542711e+00
      vertex   -5.580072e+00 -9.839173e-01 9.814066e+00
      vertex   -1.843949e+00 -4.087886e-01 3.271355e+00
    endloop
  endfacet
  facet normal -8.494357e-01 -1.689621e-01 -4.999108e-01
    outer loop
      vertex   -1.843949e+00 -4.087886e-01 3.271355e+00
      vertex   -5.580072e+00 -9.839173e-01 9.814066e+00
      vertex   0.000000e+00 0.000000e+00 -8.881784e-15
    endloop
  endfacet
  facet normal -8.412576e-01 -2.058517e-01 -4.999108e-01
    outer loop
      vertex   -1.843949e+00 -4.087886e-01 3.271355e+00
      vertex   0.000000e+00 0.000000e+00 -8.881784e-15
      vertex   -1.824363e+00 -4.888297e-01 3.271355e+00
    endloop
  endfacet
  facet normal -8.314778e-01 -2.423508e-01 -4.999107e-01
    outer loop
      vertex   -1.824363e+00 -4.888297e-01 3.271355e+00
      vertex   0.000000e+00 0.000000e+00 -8.881784e-15
      vertex   -1.801304e+00 -5.679432e-01 3.271355e+00
    endloop
  endfacet
  facet normal -8.314778e-01 -2.423508e-01 -4.999108e-01
    outer loop
      vertex   -1.824363e+00 -4.888297e-01 3.271355e+00
      vertex   -1.801304e+00 -5.679432e-01 3.271355e+00
      vertex   -3.602611e+00 -1.135876e+00 6.542711e+00
    endloop
  endfacet
  facet normal -8.314786e-01 -2.423481e-01 -4.999107e-01
    outer loop
      vertex   -1.824363e+00 -4.888297e-01 3.271355e+00
      vertex   -3.602611e+00 -1.135876e+00 6.542711e+00
      vertex   -3.648730e+00 -9.776465e-01 6.542711e+00
    endloop
  endfacet
  facet normal -8.412576e-01 -2.058517e-01 -4.999108e-01
    outer loop
      vertex   -1.843949e+00 -4.087886e-01 3.271355e+00
      vertex   -1.824363e+00 -4.888297e-01 3.271355e+00
      vertex   -3.648730e+00 -9.776465e-01 6.542711e+00
    endloop
  endfacet
  facet normal -8.412582e-01 -2.058491e-01 -4.999107e-01
    outer loop
      vertex   -1.843949e+00 -4.087886e-01 3.271355e+00
      vertex   -3.648730e+00 -9.776465e-01 6.542711e+00
      vertex   -3.687900e+00 -8.175676e-01 6.542711e+00
    endloop
  endfacet
endsolid
