solid ASCII
  facet normal 9.396926e-01 -3.420201e-01 2.013734e-17
    outer loop
      vertex   1.927910e+00 5.296890e+00 9.763281e+00
      vertex   0.000000e+00 0.000000e+00 0.000000e+00
      vertex   1.997954e+00 5.489334e+00 9.628956e+00
    endloop
  endfacet
  facet normal 9.396926e-01 -3.420201e-01 6.450260e-16
    outer loop
      vertex   1.997954e+00 5.489334e+00 9.628956e+00
      vertex   0.000000e+00 0.000000e+00 0.000000e+00
      vertex   2.066943e+00 5.678879e+00 9.490010e+00
    endloop
  endfacet
  facet normal 9.396926e-01 -3.420201e-01 -2.824405e-16
    outer loop
      vertex   2.066943e+00 5.678879e+00 9.490010e+00
      vertex   0.000000e+00 0.000000e+00 0.000000e+00
      vertex   2.134855e+00 5.865465e+00 9.346508e+00
    endloop
  endfacet
  facet normal 9.396926e-01 -3.420201e-01 -2.220807e-16
    outer loop
      vertex   2.134855e+00 5.865465e+00 9.346508e+00
      vertex   0.000000e+00 0.000000e+00 0.000000e+00
      vertex   2.201666e+00 6.049029e+00 9.198513e+00
    endloop
  endfacet
  facet normal 9.396926e-01 -3.420201e-01 -1.050483e-15
    outer loop
      vertex   2.201666e+00 6.049029e+00 9.198513e+00
      vertex   0.000000e+00 0.000000e+00 0.000000e+00
      vertex   2.267355e+00 6.229507e+00 9.046090e+00
    endloop
  endfacet
  facet normal 9.396926e-01 -3.420201e-01 -2.021168e-17
    outer loop
      vertex   2.267355e+00 6.229507e+00 9.046090e+00
      vertex   0.000000e+00 0.000000e+00 0.000000e+00
      vertex   2.331899e+00 6.406839e+00 8.889305e+00
    endloop
  endfacet
  facet normal 9.396926e-01 -3.420201e-01 8.087770e-17
    outer loop
      vertex   2.331899e+00 6.406839e+00 8.889305e+00
      vertex   0.000000e+00 0.000000e+00 0.000000e+00
      vertex   2.395274e+00 6.580961e+00 8.728220e+00
    endloop
  endfacet
  facet normal 9.396926e-01 -3.420201e-01 3.397774e-15
    outer loop
      vertex   2.395274e+00 6.580961e+00 8.728220e+00
      vertex   0.000000e+00 0.000000e+00 0.000000e+00
      vertex   2.457458e+00 6.751811e+00 8.562901e+00
    endloop
  endfacet
  facet normal 1.020335e-01 5.404281e-01 8.351806e-01
    outer loop
      vertex   1.013830e+00 5.749716e+00 9.623472e+00
      vertex   9.783119e-01 5.548282e+00 9.758155e+00
      vertex   1.258124e+00 5.694294e+00 9.629489e+00
    endloop
  endfacet
  facet normal 1.026366e-01 5.396503e-01 8.356095e-01
    outer loop
      vertex   1.258124e+00 5.694294e+00 9.629489e+00
      vertex   9.783119e-01 5.548282e+00 9.758155e+00
      vertex   1.219564e+00 5.500873e+00 9.759140e+00
    endloop
  endfacet
  facet normal 1.246691e-01 5.351775e-01 8.354895e-01
    outer loop
      vertex   1.258124e+00 5.694294e+00 9.629489e+00
      vertex   1.219564e+00 5.500873e+00 9.759140e+00
      vertex   1.504782e+00 5.636836e+00 9.629489e+00
    endloop
  endfacet
  facet normal 1.250837e-01 5.346008e-01 8.357967e-01
    outer loop
      vertex   1.504782e+00 5.636836e+00 9.629489e+00
      vertex   1.219564e+00 5.500873e+00 9.759140e+00
      vertex   1.458546e+00 5.443098e+00 9.760329e+00
    endloop
  endfacet
  facet normal 1.469458e-01 5.292713e-01 8.356308e-01
    outer loop
      vertex   1.504782e+00 5.636836e+00 9.629489e+00
      vertex   1.458546e+00 5.443098e+00 9.760329e+00
      vertex   1.751548e+00 5.568324e+00 9.629489e+00
    endloop
  endfacet
  facet normal 1.473417e-01 5.286698e-01 8.359418e-01
    outer loop
      vertex   1.751548e+00 5.568324e+00 9.629489e+00
      vertex   1.458546e+00 5.443098e+00 9.760329e+00
      vertex   1.694807e+00 5.375063e+00 9.761713e+00
    endloop
  endfacet
  facet normal 1.692093e-01 5.221994e-01 8.358684e-01
    outer loop
      vertex   1.751548e+00 5.568324e+00 9.629489e+00
      vertex   1.694807e+00 5.375063e+00 9.761713e+00
      vertex   1.997954e+00 5.489334e+00 9.628956e+00
    endloop
  endfacet
  facet normal 1.693954e-01 5.218879e-01 8.360252e-01
    outer loop
      vertex   1.997954e+00 5.489334e+00 9.628956e+00
      vertex   1.694807e+00 5.375063e+00 9.761713e+00
      vertex   1.927910e+00 5.296890e+00 9.763281e+00
    endloop
  endfacet
  facet normal 1.748369e-01 5.398386e-01 8.234114e-01
    outer loop
      vertex   1.751548e+00 5.568324e+00 9.629489e+00
      vertex   1.997954e+00 5.489334e+00 9.628956e+00
      vertex   1.812010e+00 5.760537e+00 9.490634e+00
    endloop
  endfacet
  facet normal 1.749447e-01 5.398852e-01 8.233579e-01
    outer loop
      vertex   1.812010e+00 5.760537e+00 9.490634e+00
      vertex   1.997954e+00 5.489334e+00 9.628956e+00
      vertex   2.066943e+00 5.678879e+00 9.490010e+00
    endloop
  endfacet
  facet normal 1.805342e-01 5.574347e-01 8.103542e-01
    outer loop
      vertex   1.812010e+00 5.760537e+00 9.490634e+00
      vertex   2.066943e+00 5.678879e+00 9.490010e+00
      vertex   1.871707e+00 5.950320e+00 9.346784e+00
    endloop
  endfacet
  facet normal 1.806145e-01 5.574702e-01 8.103119e-01
    outer loop
      vertex   1.871707e+00 5.950320e+00 9.346784e+00
      vertex   2.066943e+00 5.678879e+00 9.490010e+00
      vertex   2.134855e+00 5.865465e+00 9.346508e+00
    endloop
  endfacet
  facet normal 1.847826e-01 5.704285e-01 8.002916e-01
    outer loop
      vertex   1.871707e+00 5.950320e+00 9.346784e+00
      vertex   2.134855e+00 5.865465e+00 9.346508e+00
      vertex   1.901254e+00 6.044251e+00 9.273010e+00
    endloop
  endfacet
  facet normal 1.884998e-01 5.739045e-01 7.969325e-01
    outer loop
      vertex   1.901254e+00 6.044251e+00 9.273010e+00
      vertex   2.134855e+00 5.865465e+00 9.346508e+00
      vertex   2.201666e+00 6.049029e+00 9.198513e+00
    endloop
  endfacet
  facet normal 1.875562e-01 5.790097e-01 7.934547e-01
    outer loop
      vertex   1.901254e+00 6.044251e+00 9.273010e+00
      vertex   2.201666e+00 6.049029e+00 9.198513e+00
      vertex   1.930591e+00 6.137516e+00 9.198017e+00
    endloop
  endfacet
  facet normal 1.903414e-01 5.875031e-01 7.865178e-01
    outer loop
      vertex   1.930591e+00 6.137516e+00 9.198017e+00
      vertex   2.201666e+00 6.049029e+00 9.198513e+00
      vertex   1.959712e+00 6.230095e+00 9.121816e+00
    endloop
  endfacet
  facet normal 1.652660e-01 5.952574e-01 7.863560e-01
    outer loop
      vertex   1.930591e+00 6.137516e+00 9.198017e+00
      vertex   1.959712e+00 6.230095e+00 9.121816e+00
      vertex   1.658600e+00 6.213031e+00 9.198017e+00
    endloop
  endfacet
  facet normal 1.652660e-01 5.952574e-01 7.863560e-01
    outer loop
      vertex   1.658600e+00 6.213031e+00 9.198017e+00
      vertex   1.959712e+00 6.230095e+00 9.121816e+00
      vertex   1.683618e+00 6.306749e+00 9.121816e+00
    endloop
  endfacet
  facet normal 1.401974e-01 6.018367e-01 7.862171e-01
    outer loop
      vertex   1.658600e+00 6.213031e+00 9.198017e+00
      vertex   1.683618e+00 6.306749e+00 9.121816e+00
      vertex   1.386729e+00 6.276363e+00 9.198017e+00
    endloop
  endfacet
  facet normal 1.401974e-01 6.018367e-01 7.862171e-01
    outer loop
      vertex   1.386729e+00 6.276363e+00 9.198017e+00
      vertex   1.683618e+00 6.306749e+00 9.121816e+00
      vertex   1.407646e+00 6.371037e+00 9.121816e+00
    endloop
  endfacet
  facet normal 1.153657e-01 6.072322e-01 7.861042e-01
    outer loop
      vertex   1.386729e+00 6.276363e+00 9.198017e+00
      vertex   1.407646e+00 6.371037e+00 9.121816e+00
      vertex   1.117080e+00 6.335275e+00 9.192083e+00
    endloop
  endfacet
  facet normal 1.137259e-01 6.126878e-01 7.820998e-01
    outer loop
      vertex   1.117080e+00 6.335275e+00 9.192083e+00
      vertex   1.407646e+00 6.371037e+00 9.121816e+00
      vertex   1.150358e+00 6.524004e+00 9.039396e+00
    endloop
  endfacet
  facet normal 1.166721e-01 6.160032e-01 7.790556e-01
    outer loop
      vertex   1.150358e+00 6.524004e+00 9.039396e+00
      vertex   1.407646e+00 6.371037e+00 9.121816e+00
      vertex   1.428405e+00 6.464989e+00 9.044419e+00
    endloop
  endfacet
  facet normal 1.186162e-01 6.245554e-01 7.719202e-01
    outer loop
      vertex   1.150358e+00 6.524004e+00 9.039396e+00
      vertex   1.428405e+00 6.464989e+00 9.044419e+00
      vertex   1.449000e+00 6.558202e+00 8.965836e+00
    endloop
  endfacet
  facet normal 1.441962e-01 6.190030e-01 7.720380e-01
    outer loop
      vertex   1.449000e+00 6.558202e+00 8.965836e+00
      vertex   1.428405e+00 6.464989e+00 9.044419e+00
      vertex   1.733079e+00 6.492026e+00 8.965836e+00
    endloop
  endfacet
  facet normal 1.456759e-01 6.253547e-01 7.666225e-01
    outer loop
      vertex   1.449000e+00 6.558202e+00 8.965836e+00
      vertex   1.733079e+00 6.492026e+00 8.965836e+00
      vertex   1.745320e+00 6.537882e+00 8.926104e+00
    endloop
  endfacet
  facet normal 1.717265e-01 6.185271e-01 7.667687e-01
    outer loop
      vertex   1.745320e+00 6.537882e+00 8.926104e+00
      vertex   1.733079e+00 6.492026e+00 8.965836e+00
      vertex   2.031532e+00 6.458418e+00 8.926104e+00
    endloop
  endfacet
  facet normal 1.728827e-01 6.226913e-01 7.631298e-01
    outer loop
      vertex   1.745320e+00 6.537882e+00 8.926104e+00
      vertex   2.031532e+00 6.458418e+00 8.926104e+00
      vertex   2.045722e+00 6.503529e+00 8.886081e+00
    endloop
  endfacet
  facet normal 1.990594e-01 6.146100e-01 7.633020e-01
    outer loop
      vertex   2.045722e+00 6.503529e+00 8.886081e+00
      vertex   2.031532e+00 6.458418e+00 8.926104e+00
      vertex   2.331899e+00 6.406839e+00 8.889305e+00
    endloop
  endfacet
  facet normal 2.004734e-01 6.186730e-01 7.596408e-01
    outer loop
      vertex   2.045722e+00 6.503529e+00 8.886081e+00
      vertex   2.331899e+00 6.406839e+00 8.889305e+00
      vertex   2.059852e+00 6.548449e+00 8.845768e+00
    endloop
  endfacet
  facet normal 2.029846e-01 6.223628e-01 7.559510e-01
    outer loop
      vertex   2.059852e+00 6.548449e+00 8.845768e+00
      vertex   2.331899e+00 6.406839e+00 8.889305e+00
      vertex   2.073921e+00 6.593176e+00 8.805166e+00
    endloop
  endfacet
  facet normal 1.751774e-01 6.309565e-01 7.557822e-01
    outer loop
      vertex   2.059852e+00 6.548449e+00 8.845768e+00
      vertex   2.073921e+00 6.593176e+00 8.805166e+00
      vertex   1.769650e+00 6.629020e+00 8.845768e+00
    endloop
  endfacet
  facet normal 1.751774e-01 6.309565e-01 7.557822e-01
    outer loop
      vertex   1.769650e+00 6.629020e+00 8.845768e+00
      vertex   2.073921e+00 6.593176e+00 8.805166e+00
      vertex   1.781737e+00 6.674298e+00 8.805166e+00
    endloop
  endfacet
  facet normal 1.486021e-01 6.379164e-01 7.556322e-01
    outer loop
      vertex   1.769650e+00 6.629020e+00 8.845768e+00
      vertex   1.781737e+00 6.674298e+00 8.805166e+00
      vertex   1.479576e+00 6.696592e+00 8.845768e+00
    endloop
  endfacet
  facet normal 1.486021e-01 6.379164e-01 7.556322e-01
    outer loop
      vertex   1.479576e+00 6.696592e+00 8.845768e+00
      vertex   1.781737e+00 6.674298e+00 8.805166e+00
      vertex   1.489682e+00 6.742332e+00 8.805166e+00
    endloop
  endfacet
  facet normal 1.210761e-01 6.438733e-01 7.554917e-01
    outer loop
      vertex   1.479576e+00 6.696592e+00 8.845768e+00
      vertex   1.489682e+00 6.742332e+00 8.805166e+00
      vertex   1.183048e+00 6.709399e+00 8.882375e+00
    endloop
  endfacet
  facet normal 1.202724e-01 6.464640e-01 7.534048e-01
    outer loop
      vertex   1.183048e+00 6.709399e+00 8.882375e+00
      vertex   1.489682e+00 6.742332e+00 8.805166e+00
      vertex   1.215139e+00 6.891398e+00 8.721087e+00
    endloop
  endfacet
  facet normal 1.216574e-01 6.480970e-01 7.517777e-01
    outer loop
      vertex   1.215139e+00 6.891398e+00 8.721087e+00
      vertex   1.489682e+00 6.742332e+00 8.805166e+00
      vertex   1.499744e+00 6.787872e+00 8.764278e+00
    endloop
  endfacet
  facet normal 1.236435e-01 6.520074e-01 7.480633e-01
    outer loop
      vertex   1.215139e+00 6.891398e+00 8.721087e+00
      vertex   1.499744e+00 6.787872e+00 8.764278e+00
      vertex   1.509761e+00 6.833211e+00 8.723105e+00
    endloop
  endfacet
  facet normal 1.505278e-01 6.461829e-01 7.481905e-01
    outer loop
      vertex   1.509761e+00 6.833211e+00 8.723105e+00
      vertex   1.499744e+00 6.787872e+00 8.764278e+00
      vertex   1.805753e+00 6.764260e+00 8.723105e+00
    endloop
  endfacet
  facet normal 1.514829e-01 6.502833e-01 7.444357e-01
    outer loop
      vertex   1.509761e+00 6.833211e+00 8.723105e+00
      vertex   1.805753e+00 6.764260e+00 8.723105e+00
      vertex   1.817681e+00 6.808940e+00 8.681649e+00
    endloop
  endfacet
  facet normal 1.785749e-01 6.431934e-01 7.445893e-01
    outer loop
      vertex   1.817681e+00 6.808940e+00 8.681649e+00
      vertex   1.805753e+00 6.764260e+00 8.723105e+00
      vertex   2.115759e+00 6.726182e+00 8.681649e+00
    endloop
  endfacet
  facet normal 1.796952e-01 6.472288e-01 7.408134e-01
    outer loop
      vertex   1.817681e+00 6.808940e+00 8.681649e+00
      vertex   2.115759e+00 6.726182e+00 8.681649e+00
      vertex   2.129579e+00 6.770118e+00 8.639912e+00
    endloop
  endfacet
  facet normal 2.082320e-01 6.384177e-01 7.409874e-01
    outer loop
      vertex   2.129579e+00 6.770118e+00 8.639912e+00
      vertex   2.115759e+00 6.726182e+00 8.681649e+00
      vertex   2.395274e+00 6.580961e+00 8.728220e+00
    endloop
  endfacet
  facet normal 2.094445e-01 6.395179e-01 7.396958e-01
    outer loop
      vertex   2.129579e+00 6.770118e+00 8.639912e+00
      vertex   2.395274e+00 6.580961e+00 8.728220e+00
      vertex   2.457458e+00 6.751811e+00 8.562901e+00
    endloop
  endfacet
  facet normal 1.939000e-01 5.908311e-01 7.831484e-01
    outer loop
      vertex   2.201666e+00 6.049029e+00 9.198513e+00
      vertex   2.267355e+00 6.229507e+00 9.046090e+00
      vertex   1.959712e+00 6.230095e+00 9.121816e+00
    endloop
  endfacet
  facet normal 1.930075e-01 5.959484e-01 7.794829e-01
    outer loop
      vertex   1.959712e+00 6.230095e+00 9.121816e+00
      vertex   2.267355e+00 6.229507e+00 9.046090e+00
      vertex   1.988612e+00 6.321969e+00 9.044419e+00
    endloop
  endfacet
  facet normal 1.676350e-01 6.037902e-01 7.793176e-01
    outer loop
      vertex   1.959712e+00 6.230095e+00 9.121816e+00
      vertex   1.988612e+00 6.321969e+00 9.044419e+00
      vertex   1.683618e+00 6.306749e+00 9.121816e+00
    endloop
  endfacet
  facet normal 1.676350e-01 6.037902e-01 7.793176e-01
    outer loop
      vertex   1.683618e+00 6.306749e+00 9.121816e+00
      vertex   1.988612e+00 6.321969e+00 9.044419e+00
      vertex   1.708447e+00 6.399754e+00 9.044419e+00
    endloop
  endfacet
  facet normal 1.422063e-01 6.104606e-01 7.791760e-01
    outer loop
      vertex   1.683618e+00 6.306749e+00 9.121816e+00
      vertex   1.708447e+00 6.399754e+00 9.044419e+00
      vertex   1.407646e+00 6.371037e+00 9.121816e+00
    endloop
  endfacet
  facet normal 1.422063e-01 6.104606e-01 7.791760e-01
    outer loop
      vertex   1.407646e+00 6.371037e+00 9.121816e+00
      vertex   1.708447e+00 6.399754e+00 9.044419e+00
      vertex   1.428405e+00 6.464989e+00 9.044419e+00
    endloop
  endfacet
  facet normal 1.958084e-01 6.042632e-01 7.723503e-01
    outer loop
      vertex   1.988612e+00 6.321969e+00 9.044419e+00
      vertex   2.267355e+00 6.229507e+00 9.046090e+00
      vertex   2.017284e+00 6.413120e+00 8.965836e+00
    endloop
  endfacet
  facet normal 1.991921e-01 6.074111e-01 7.690086e-01
    outer loop
      vertex   2.017284e+00 6.413120e+00 8.965836e+00
      vertex   2.267355e+00 6.229507e+00 9.046090e+00
      vertex   2.331899e+00 6.406839e+00 8.889305e+00
    endloop
  endfacet
  facet normal 1.987428e-01 6.101744e-01 7.669345e-01
    outer loop
      vertex   2.017284e+00 6.413120e+00 8.965836e+00
      vertex   2.331899e+00 6.406839e+00 8.889305e+00
      vertex   2.031532e+00 6.458418e+00 8.926104e+00
    endloop
  endfacet
  facet normal 2.043741e-01 6.236412e-01 7.545216e-01
    outer loop
      vertex   2.331899e+00 6.406839e+00 8.889305e+00
      vertex   2.395274e+00 6.580961e+00 8.728220e+00
      vertex   2.073921e+00 6.593176e+00 8.805166e+00
    endloop
  endfacet
  facet normal 2.039389e-01 6.265261e-01 7.522460e-01
    outer loop
      vertex   2.073921e+00 6.593176e+00 8.805166e+00
      vertex   2.395274e+00 6.580961e+00 8.728220e+00
      vertex   2.087930e+00 6.637709e+00 8.764278e+00
    endloop
  endfacet
  facet normal 1.763159e-01 6.350571e-01 7.520739e-01
    outer loop
      vertex   2.073921e+00 6.593176e+00 8.805166e+00
      vertex   2.087930e+00 6.637709e+00 8.764278e+00
      vertex   1.781737e+00 6.674298e+00 8.805166e+00
    endloop
  endfacet
  facet normal 1.763159e-01 6.350571e-01 7.520739e-01
    outer loop
      vertex   1.781737e+00 6.674298e+00 8.805166e+00
      vertex   2.087930e+00 6.637709e+00 8.764278e+00
      vertex   1.793772e+00 6.719379e+00 8.764278e+00
    endloop
  endfacet
  facet normal 1.495675e-01 6.420606e-01 7.519227e-01
    outer loop
      vertex   1.781737e+00 6.674298e+00 8.805166e+00
      vertex   1.793772e+00 6.719379e+00 8.764278e+00
      vertex   1.489682e+00 6.742332e+00 8.805166e+00
    endloop
  endfacet
  facet normal 1.495675e-01 6.420606e-01 7.519227e-01
    outer loop
      vertex   1.489682e+00 6.742332e+00 8.805166e+00
      vertex   1.793772e+00 6.719379e+00 8.764278e+00
      vertex   1.499744e+00 6.787872e+00 8.764278e+00
    endloop
  endfacet
  facet normal 2.090253e-01 6.425376e-01 7.371932e-01
    outer loop
      vertex   2.129579e+00 6.770118e+00 8.639912e+00
      vertex   2.457458e+00 6.751811e+00 8.562901e+00
      vertex   2.143335e+00 6.813850e+00 8.597895e+00
    endloop
  endfacet
  facet normal 2.093148e-01 6.455245e-01 7.344967e-01
    outer loop
      vertex   2.143335e+00 6.813850e+00 8.597895e+00
      vertex   2.457458e+00 6.751811e+00 8.562901e+00
      vertex   2.160151e+00 6.850756e+00 8.560667e+00
    endloop
  endfacet
  facet normal 1.826040e-01 6.557468e-01 7.325653e-01
    outer loop
      vertex   2.143335e+00 6.813850e+00 8.597895e+00
      vertex   2.160151e+00 6.850756e+00 8.560667e+00
      vertex   1.858873e+00 6.936854e+00 8.558696e+00
    endloop
  endfacet
  facet normal 1.815525e-01 6.539184e-01 7.344586e-01
    outer loop
      vertex   2.143335e+00 6.813850e+00 8.597895e+00
      vertex   1.858873e+00 6.936854e+00 8.558696e+00
      vertex   1.841372e+00 6.897686e+00 8.597895e+00
    endloop
  endfacet
  facet normal 1.550811e-01 6.633493e-01 7.320639e-01
    outer loop
      vertex   1.841372e+00 6.897686e+00 8.597895e+00
      vertex   1.858873e+00 6.936854e+00 8.558696e+00
      vertex   1.554173e+00 7.009957e+00 8.557003e+00
    endloop
  endfacet
  facet normal 1.541001e-01 6.615180e-01 7.339258e-01
    outer loop
      vertex   1.841372e+00 6.897686e+00 8.597895e+00
      vertex   1.554173e+00 7.009957e+00 8.557003e+00
      vertex   1.539542e+00 6.967997e+00 8.597895e+00
    endloop
  endfacet
  facet normal 1.271621e-01 6.691748e-01 7.321440e-01
    outer loop
      vertex   1.539542e+00 6.967997e+00 8.597895e+00
      vertex   1.554173e+00 7.009957e+00 8.557003e+00
      vertex   1.246620e+00 7.069935e+00 8.555600e+00
    endloop
  endfacet
  facet normal 1.249003e-01 6.645711e-01 7.367124e-01
    outer loop
      vertex   1.539542e+00 6.967997e+00 8.597895e+00
      vertex   1.246620e+00 7.069935e+00 8.555600e+00
      vertex   1.529661e+00 6.923276e+00 8.639912e+00
    endloop
  endfacet
  facet normal 1.234355e-01 6.628012e-01 7.385514e-01
    outer loop
      vertex   1.529661e+00 6.923276e+00 8.639912e+00
      vertex   1.246620e+00 7.069935e+00 8.555600e+00
      vertex   1.215139e+00 6.891398e+00 8.721087e+00
    endloop
  endfacet
  facet normal 1.241782e-01 6.604693e-01 7.405134e-01
    outer loop
      vertex   1.529661e+00 6.923276e+00 8.639912e+00
      vertex   1.215139e+00 6.891398e+00 8.721087e+00
      vertex   1.519734e+00 6.878347e+00 8.681649e+00
    endloop
  endfacet
  facet normal 1.244837e-01 6.561317e-01 7.443084e-01
    outer loop
      vertex   1.519734e+00 6.878347e+00 8.681649e+00
      vertex   1.215139e+00 6.891398e+00 8.721087e+00
      vertex   1.509761e+00 6.833211e+00 8.723105e+00
    endloop
  endfacet
  facet normal 1.514829e-01 6.502833e-01 7.444357e-01
    outer loop
      vertex   1.519734e+00 6.878347e+00 8.681649e+00
      vertex   1.509761e+00 6.833211e+00 8.723105e+00
      vertex   1.817681e+00 6.808940e+00 8.681649e+00
    endloop
  endfacet
  facet normal 1.170361e-01 6.297584e-01 7.679238e-01
    outer loop
      vertex   1.150358e+00 6.524004e+00 9.039396e+00
      vertex   1.449000e+00 6.558202e+00 8.965836e+00
      vertex   1.183048e+00 6.709399e+00 8.882375e+00
    endloop
  endfacet
  facet normal 1.183487e-01 6.312703e-01 7.664799e-01
    outer loop
      vertex   1.183048e+00 6.709399e+00 8.882375e+00
      vertex   1.449000e+00 6.558202e+00 8.965836e+00
      vertex   1.459234e+00 6.604525e+00 8.926104e+00
    endloop
  endfacet
  facet normal 1.204332e-01 6.352499e-01 7.628587e-01
    outer loop
      vertex   1.183048e+00 6.709399e+00 8.882375e+00
      vertex   1.459234e+00 6.604525e+00 8.926104e+00
      vertex   1.469427e+00 6.650656e+00 8.886081e+00
    endloop
  endfacet
  facet normal 1.466562e-01 6.295633e-01 7.629823e-01
    outer loop
      vertex   1.469427e+00 6.650656e+00 8.886081e+00
      vertex   1.459234e+00 6.604525e+00 8.926104e+00
      vertex   1.757511e+00 6.583547e+00 8.886081e+00
    endloop
  endfacet
  facet normal 1.476317e-01 6.337506e-01 7.593188e-01
    outer loop
      vertex   1.469427e+00 6.650656e+00 8.886081e+00
      vertex   1.757511e+00 6.583547e+00 8.886081e+00
      vertex   1.769650e+00 6.629020e+00 8.845768e+00
    endloop
  endfacet
  facet normal 1.740330e-01 6.268345e-01 7.594676e-01
    outer loop
      vertex   1.769650e+00 6.629020e+00 8.845768e+00
      vertex   1.757511e+00 6.583547e+00 8.886081e+00
      vertex   2.059852e+00 6.548449e+00 8.845768e+00
    endloop
  endfacet
  facet normal 1.133124e-01 5.985334e-01 7.930436e-01
    outer loop
      vertex   1.386729e+00 6.276363e+00 9.198017e+00
      vertex   1.117080e+00 6.335275e+00 9.192083e+00
      vertex   1.365656e+00 6.180989e+00 9.273010e+00
    endloop
  endfacet
  facet normal 1.103408e-01 5.952564e-01 7.959238e-01
    outer loop
      vertex   1.365656e+00 6.180989e+00 9.273010e+00
      vertex   1.117080e+00 6.335275e+00 9.192083e+00
      vertex   1.083225e+00 6.143276e+00 9.340369e+00
    endloop
  endfacet
  facet normal 1.120449e-01 5.895878e-01 7.998951e-01
    outer loop
      vertex   1.365656e+00 6.180989e+00 9.273010e+00
      vertex   1.083225e+00 6.143276e+00 9.340369e+00
      vertex   1.344433e+00 6.084933e+00 9.346784e+00
    endloop
  endfacet
  facet normal 1.090191e-01 5.770834e-01 8.093761e-01
    outer loop
      vertex   1.344433e+00 6.084933e+00 9.346784e+00
      vertex   1.083225e+00 6.143276e+00 9.340369e+00
      vertex   1.048805e+00 5.948068e+00 9.484188e+00
    endloop
  endfacet
  facet normal 1.097503e-01 5.761046e-01 8.099743e-01
    outer loop
      vertex   1.344433e+00 6.084933e+00 9.346784e+00
      vertex   1.048805e+00 5.948068e+00 9.484188e+00
      vertex   1.301553e+00 5.890856e+00 9.490634e+00
    endloop
  endfacet
  facet normal 1.055447e-01 5.589328e-01 8.224685e-01
    outer loop
      vertex   1.301553e+00 5.890856e+00 9.490634e+00
      vertex   1.048805e+00 5.948068e+00 9.484188e+00
      vertex   1.013830e+00 5.749716e+00 9.623472e+00
    endloop
  endfacet
  facet normal 1.063035e-01 5.579327e-01 8.230496e-01
    outer loop
      vertex   1.301553e+00 5.890856e+00 9.490634e+00
      vertex   1.013830e+00 5.749716e+00 9.623472e+00
      vertex   1.258124e+00 5.694294e+00 9.629489e+00
    endloop
  endfacet
  facet normal 1.288265e-01 5.530240e-01 8.231453e-01
    outer loop
      vertex   1.301553e+00 5.890856e+00 9.490634e+00
      vertex   1.258124e+00 5.694294e+00 9.629489e+00
      vertex   1.556725e+00 5.831414e+00 9.490634e+00
    endloop
  endfacet
  facet normal 1.288265e-01 5.530240e-01 8.231453e-01
    outer loop
      vertex   1.556725e+00 5.831414e+00 9.490634e+00
      vertex   1.258124e+00 5.694294e+00 9.629489e+00
      vertex   1.504782e+00 5.636836e+00 9.629489e+00
    endloop
  endfacet
  facet normal 1.518577e-01 5.469633e-01 8.232681e-01
    outer loop
      vertex   1.556725e+00 5.831414e+00 9.490634e+00
      vertex   1.504782e+00 5.636836e+00 9.629489e+00
      vertex   1.812010e+00 5.760537e+00 9.490634e+00
    endloop
  endfacet
  facet normal 1.518577e-01 5.469633e-01 8.232681e-01
    outer loop
      vertex   1.812010e+00 5.760537e+00 9.490634e+00
      vertex   1.504782e+00 5.636836e+00 9.629489e+00
      vertex   1.751548e+00 5.568324e+00 9.629489e+00
    endloop
  endfacet
  facet normal 1.330226e-01 5.710372e-01 8.100750e-01
    outer loop
      vertex   1.344433e+00 6.084933e+00 9.346784e+00
      vertex   1.301553e+00 5.890856e+00 9.490634e+00
      vertex   1.608012e+00 6.023532e+00 9.346784e+00
    endloop
  endfacet
  facet normal 1.330226e-01 5.710372e-01 8.100750e-01
    outer loop
      vertex   1.608012e+00 6.023532e+00 9.346784e+00
      vertex   1.301553e+00 5.890856e+00 9.490634e+00
      vertex   1.556725e+00 5.831414e+00 9.490634e+00
    endloop
  endfacet
  facet normal 1.568056e-01 5.647847e-01 8.102038e-01
    outer loop
      vertex   1.608012e+00 6.023532e+00 9.346784e+00
      vertex   1.556725e+00 5.831414e+00 9.490634e+00
      vertex   1.871707e+00 5.950320e+00 9.346784e+00
    endloop
  endfacet
  facet normal 1.568056e-01 5.647847e-01 8.102038e-01
    outer loop
      vertex   1.871707e+00 5.950320e+00 9.346784e+00
      vertex   1.556725e+00 5.831414e+00 9.490634e+00
      vertex   1.812010e+00 5.760537e+00 9.490634e+00
    endloop
  endfacet
  facet normal 1.381698e-01 5.931328e-01 7.931599e-01
    outer loop
      vertex   1.658600e+00 6.213031e+00 9.198017e+00
      vertex   1.386729e+00 6.276363e+00 9.198017e+00
      vertex   1.365656e+00 6.180989e+00 9.273010e+00
    endloop
  endfacet
  facet normal 1.361239e-01 5.843505e-01 8.000030e-01
    outer loop
      vertex   1.365656e+00 6.180989e+00 9.273010e+00
      vertex   1.344433e+00 6.084933e+00 9.346784e+00
      vertex   1.633396e+00 6.118619e+00 9.273010e+00
    endloop
  endfacet
  facet normal 1.361239e-01 5.843505e-01 8.000030e-01
    outer loop
      vertex   1.633396e+00 6.118619e+00 9.273010e+00
      vertex   1.344433e+00 6.084933e+00 9.346784e+00
      vertex   1.608012e+00 6.023532e+00 9.346784e+00
    endloop
  endfacet
  facet normal 1.604626e-01 5.779565e-01 8.001363e-01
    outer loop
      vertex   1.633396e+00 6.118619e+00 9.273010e+00
      vertex   1.608012e+00 6.023532e+00 9.346784e+00
      vertex   1.901254e+00 6.044251e+00 9.273010e+00
    endloop
  endfacet
  facet normal 1.604626e-01 5.779565e-01 8.001363e-01
    outer loop
      vertex   1.901254e+00 6.044251e+00 9.273010e+00
      vertex   1.608012e+00 6.023532e+00 9.346784e+00
      vertex   1.871707e+00 5.950320e+00 9.346784e+00
    endloop
  endfacet
  facet normal 1.441962e-01 6.190030e-01 7.720380e-01
    outer loop
      vertex   1.733079e+00 6.492026e+00 8.965836e+00
      vertex   1.428405e+00 6.464989e+00 9.044419e+00
      vertex   1.708447e+00 6.399754e+00 9.044419e+00
    endloop
  endfacet
  facet normal 1.213424e-01 6.394511e-01 7.591958e-01
    outer loop
      vertex   1.479576e+00 6.696592e+00 8.845768e+00
      vertex   1.183048e+00 6.709399e+00 8.882375e+00
      vertex   1.469427e+00 6.650656e+00 8.886081e+00
    endloop
  endfacet
  facet normal 1.466562e-01 6.295633e-01 7.629823e-01
    outer loop
      vertex   1.757511e+00 6.583547e+00 8.886081e+00
      vertex   1.459234e+00 6.604525e+00 8.926104e+00
      vertex   1.745320e+00 6.537882e+00 8.926104e+00
    endloop
  endfacet
  facet normal 1.456759e-01 6.253547e-01 7.666225e-01
    outer loop
      vertex   1.745320e+00 6.537882e+00 8.926104e+00
      vertex   1.459234e+00 6.604525e+00 8.926104e+00
      vertex   1.449000e+00 6.558202e+00 8.965836e+00
    endloop
  endfacet
  facet normal 1.476317e-01 6.337506e-01 7.593188e-01
    outer loop
      vertex   1.769650e+00 6.629020e+00 8.845768e+00
      vertex   1.479576e+00 6.696592e+00 8.845768e+00
      vertex   1.469427e+00 6.650656e+00 8.886081e+00
    endloop
  endfacet
  facet normal 1.505278e-01 6.461829e-01 7.481905e-01
    outer loop
      vertex   1.805753e+00 6.764260e+00 8.723105e+00
      vertex   1.499744e+00 6.787872e+00 8.764278e+00
      vertex   1.793772e+00 6.719379e+00 8.764278e+00
    endloop
  endfacet
  facet normal 1.533778e-01 6.584173e-01 7.368595e-01
    outer loop
      vertex   1.841372e+00 6.897686e+00 8.597895e+00
      vertex   1.539542e+00 6.967997e+00 8.597895e+00
      vertex   1.529661e+00 6.923276e+00 8.639912e+00
    endloop
  endfacet
  facet normal 1.524330e-01 6.543615e-01 7.406587e-01
    outer loop
      vertex   1.529661e+00 6.923276e+00 8.639912e+00
      vertex   1.519734e+00 6.878347e+00 8.681649e+00
      vertex   1.829554e+00 6.853416e+00 8.639912e+00
    endloop
  endfacet
  facet normal 1.524330e-01 6.543615e-01 7.406587e-01
    outer loop
      vertex   1.829554e+00 6.853416e+00 8.639912e+00
      vertex   1.519734e+00 6.878347e+00 8.681649e+00
      vertex   1.817681e+00 6.808940e+00 8.681649e+00
    endloop
  endfacet
  facet normal 1.796952e-01 6.472288e-01 7.408134e-01
    outer loop
      vertex   1.829554e+00 6.853416e+00 8.639912e+00
      vertex   1.817681e+00 6.808940e+00 8.681649e+00
      vertex   2.129579e+00 6.770118e+00 8.639912e+00
    endloop
  endfacet
  facet normal 1.628750e-01 5.866457e-01 7.932960e-01
    outer loop
      vertex   1.930591e+00 6.137516e+00 9.198017e+00
      vertex   1.658600e+00 6.213031e+00 9.198017e+00
      vertex   1.633396e+00 6.118619e+00 9.273010e+00
    endloop
  endfacet
  facet normal 1.381698e-01 5.931328e-01 7.931599e-01
    outer loop
      vertex   1.633396e+00 6.118619e+00 9.273010e+00
      vertex   1.658600e+00 6.213031e+00 9.198017e+00
      vertex   1.365656e+00 6.180989e+00 9.273010e+00
    endloop
  endfacet
  facet normal 1.628750e-01 5.866457e-01 7.932960e-01
    outer loop
      vertex   1.930591e+00 6.137516e+00 9.198017e+00
      vertex   1.633396e+00 6.118619e+00 9.273010e+00
      vertex   1.901254e+00 6.044251e+00 9.273010e+00
    endloop
  endfacet
  facet normal 1.699817e-01 6.122423e-01 7.721823e-01
    outer loop
      vertex   1.988612e+00 6.321969e+00 9.044419e+00
      vertex   2.017284e+00 6.413120e+00 8.965836e+00
      vertex   1.708447e+00 6.399754e+00 9.044419e+00
    endloop
  endfacet
  facet normal 1.699817e-01 6.122423e-01 7.721823e-01
    outer loop
      vertex   1.708447e+00 6.399754e+00 9.044419e+00
      vertex   2.017284e+00 6.413120e+00 8.965836e+00
      vertex   1.733079e+00 6.492026e+00 8.965836e+00
    endloop
  endfacet
  facet normal 1.717265e-01 6.185271e-01 7.667687e-01
    outer loop
      vertex   2.017284e+00 6.413120e+00 8.965836e+00
      vertex   2.031532e+00 6.458418e+00 8.926104e+00
      vertex   1.733079e+00 6.492026e+00 8.965836e+00
    endloop
  endfacet
  facet normal 1.740330e-01 6.268345e-01 7.594676e-01
    outer loop
      vertex   2.059852e+00 6.548449e+00 8.845768e+00
      vertex   1.757511e+00 6.583547e+00 8.886081e+00
      vertex   2.045722e+00 6.503529e+00 8.886081e+00
    endloop
  endfacet
  facet normal 1.728827e-01 6.226913e-01 7.631298e-01
    outer loop
      vertex   2.045722e+00 6.503529e+00 8.886081e+00
      vertex   1.757511e+00 6.583547e+00 8.886081e+00
      vertex   1.745320e+00 6.537882e+00 8.926104e+00
    endloop
  endfacet
  facet normal 1.774484e-01 6.391361e-01 7.483429e-01
    outer loop
      vertex   1.805753e+00 6.764260e+00 8.723105e+00
      vertex   1.793772e+00 6.719379e+00 8.764278e+00
      vertex   2.101876e+00 6.682046e+00 8.723105e+00
    endloop
  endfacet
  facet normal 1.774484e-01 6.391361e-01 7.483429e-01
    outer loop
      vertex   2.101876e+00 6.682046e+00 8.723105e+00
      vertex   1.793772e+00 6.719379e+00 8.764278e+00
      vertex   2.087930e+00 6.637709e+00 8.764278e+00
    endloop
  endfacet
  facet normal 2.043011e-01 6.308547e-01 7.485208e-01
    outer loop
      vertex   2.101876e+00 6.682046e+00 8.723105e+00
      vertex   2.087930e+00 6.637709e+00 8.764278e+00
      vertex   2.395274e+00 6.580961e+00 8.728220e+00
    endloop
  endfacet
  facet normal 1.808095e-01 6.512422e-01 7.370153e-01
    outer loop
      vertex   2.143335e+00 6.813850e+00 8.597895e+00
      vertex   1.841372e+00 6.897686e+00 8.597895e+00
      vertex   1.829554e+00 6.853416e+00 8.639912e+00
    endloop
  endfacet
  facet normal 1.533778e-01 6.584173e-01 7.368595e-01
    outer loop
      vertex   1.829554e+00 6.853416e+00 8.639912e+00
      vertex   1.841372e+00 6.897686e+00 8.597895e+00
      vertex   1.529661e+00 6.923276e+00 8.639912e+00
    endloop
  endfacet
  facet normal 1.808095e-01 6.512422e-01 7.370153e-01
    outer loop
      vertex   2.143335e+00 6.813850e+00 8.597895e+00
      vertex   1.829554e+00 6.853416e+00 8.639912e+00
      vertex   2.129579e+00 6.770118e+00 8.639912e+00
    endloop
  endfacet
  facet normal 2.057323e-01 6.348188e-01 7.447680e-01
    outer loop
      vertex   2.395274e+00 6.580961e+00 8.728220e+00
      vertex   2.115759e+00 6.726182e+00 8.681649e+00
      vertex   2.101876e+00 6.682046e+00 8.723105e+00
    endloop
  endfacet
  facet normal 1.785749e-01 6.431934e-01 7.445893e-01
    outer loop
      vertex   2.101876e+00 6.682046e+00 8.723105e+00
      vertex   2.115759e+00 6.726182e+00 8.681649e+00
      vertex   1.805753e+00 6.764260e+00 8.723105e+00
    endloop
  endfacet
  facet normal -9.848078e-01 1.736482e-01 2.085651e-15
    outer loop
      vertex   9.783119e-01 5.548282e+00 9.758155e+00
      vertex   1.013830e+00 5.749716e+00 9.623472e+00
      vertex   0.000000e+00 0.000000e+00 0.000000e+00
    endloop
  endfacet
  facet normal -9.848078e-01 1.736482e-01 -1.614000e-15
    outer loop
      vertex   0.000000e+00 0.000000e+00 0.000000e+00
      vertex   1.013830e+00 5.749716e+00 9.623472e+00
      vertex   1.048805e+00 5.948068e+00 9.484188e+00
    endloop
  endfacet
  facet normal -9.848078e-01 1.736482e-01 -1.292560e-15
    outer loop
      vertex   0.000000e+00 0.000000e+00 0.000000e+00
      vertex   1.048805e+00 5.948068e+00 9.484188e+00
      vertex   1.083225e+00 6.143276e+00 9.340369e+00
    endloop
  endfacet
  facet normal -9.848078e-01 1.736482e-01 -2.072042e-15
    outer loop
      vertex   1.083225e+00 6.143276e+00 9.340369e+00
      vertex   1.117080e+00 6.335275e+00 9.192083e+00
      vertex   0.000000e+00 0.000000e+00 0.000000e+00
    endloop
  endfacet
  facet normal -9.848078e-01 1.736482e-01 -3.884428e-15
    outer loop
      vertex   0.000000e+00 0.000000e+00 0.000000e+00
      vertex   1.117080e+00 6.335275e+00 9.192083e+00
      vertex   1.150358e+00 6.524004e+00 9.039396e+00
    endloop
  endfacet
  facet normal -9.848078e-01 1.736482e-01 -9.717771e-16
    outer loop
      vertex   0.000000e+00 0.000000e+00 0.000000e+00
      vertex   1.150358e+00 6.524004e+00 9.039396e+00
      vertex   1.183048e+00 6.709399e+00 8.882375e+00
    endloop
  endfacet
  facet normal -9.848078e-01 1.736482e-01 -2.461220e-15
    outer loop
      vertex   1.183048e+00 6.709399e+00 8.882375e+00
      vertex   1.215139e+00 6.891398e+00 8.721087e+00
      vertex   0.000000e+00 0.000000e+00 0.000000e+00
    endloop
  endfacet
  facet normal -9.848078e-01 1.736482e-01 1.167334e-14
    outer loop
      vertex   0.000000e+00 0.000000e+00 0.000000e+00
      vertex   1.215139e+00 6.891398e+00 8.721087e+00
      vertex   1.246620e+00 7.069935e+00 8.555600e+00
    endloop
  endfacet
  facet normal -2.783951e-01 -8.201130e-01 4.999108e-01
    outer loop
      vertex   1.694807e+00 5.375063e+00 9.761713e+00
      vertex   1.130042e+00 3.583955e+00 6.508854e+00
      vertex   1.927910e+00 5.296890e+00 9.763281e+00
    endloop
  endfacet
  facet normal -2.783943e-01 -8.201133e-01 4.999108e-01
    outer loop
      vertex   1.927910e+00 5.296890e+00 9.763281e+00
      vertex   1.130042e+00 3.583955e+00 6.508854e+00
      vertex   5.650152e-01 1.791979e+00 3.254427e+00
    endloop
  endfacet
  facet normal -2.783926e-01 -8.201139e-01 4.999108e-01
    outer loop
      vertex   1.927910e+00 5.296890e+00 9.763281e+00
      vertex   5.650152e-01 1.791979e+00 3.254427e+00
      vertex   0.000000e+00 0.000000e+00 0.000000e+00
    endloop
  endfacet
  facet normal -2.423565e-01 -8.314761e-01 4.999108e-01
    outer loop
      vertex   0.000000e+00 0.000000e+00 0.000000e+00
      vertex   5.650152e-01 1.791979e+00 3.254427e+00
      vertex   4.863141e-01 1.814919e+00 3.254427e+00
    endloop
  endfacet
  facet normal -2.423627e-01 -8.314744e-01 4.999107e-01
    outer loop
      vertex   1.694807e+00 5.375063e+00 9.761713e+00
      vertex   1.458546e+00 5.443098e+00 9.760329e+00
      vertex   1.130042e+00 3.583955e+00 6.508854e+00
    endloop
  endfacet
  facet normal -2.423595e-01 -8.314752e-01 4.999109e-01
    outer loop
      vertex   1.130042e+00 3.583955e+00 6.508854e+00
      vertex   1.458546e+00 5.443098e+00 9.760329e+00
      vertex   9.726433e-01 3.629834e+00 6.508854e+00
    endloop
  endfacet
  facet normal -2.423596e-01 -8.314753e-01 4.999107e-01
    outer loop
      vertex   1.130042e+00 3.583955e+00 6.508854e+00
      vertex   9.726433e-01 3.629834e+00 6.508854e+00
      vertex   5.650152e-01 1.791979e+00 3.254427e+00
    endloop
  endfacet
  facet normal -2.423565e-01 -8.314761e-01 4.999108e-01
    outer loop
      vertex   5.650152e-01 1.791979e+00 3.254427e+00
      vertex   9.726433e-01 3.629834e+00 6.508854e+00
      vertex   4.863141e-01 1.814919e+00 3.254427e+00
    endloop
  endfacet
  facet normal -2.058631e-01 -8.412548e-01 4.999107e-01
    outer loop
      vertex   1.458546e+00 5.443098e+00 9.760329e+00
      vertex   1.219564e+00 5.500873e+00 9.759140e+00
      vertex   9.726433e-01 3.629834e+00 6.508854e+00
    endloop
  endfacet
  facet normal -2.058602e-01 -8.412555e-01 4.999108e-01
    outer loop
      vertex   9.726433e-01 3.629834e+00 6.508854e+00
      vertex   1.219564e+00 5.500873e+00 9.759140e+00
      vertex   8.133772e-01 3.668807e+00 6.508854e+00
    endloop
  endfacet
  facet normal -2.058602e-01 -8.412555e-01 4.999107e-01
    outer loop
      vertex   9.726433e-01 3.629834e+00 6.508854e+00
      vertex   8.133772e-01 3.668807e+00 6.508854e+00
      vertex   4.863141e-01 1.814919e+00 3.254427e+00
    endloop
  endfacet
  facet normal -2.058572e-01 -8.412562e-01 4.999108e-01
    outer loop
      vertex   4.863141e-01 1.814919e+00 3.254427e+00
      vertex   8.133772e-01 3.668807e+00 6.508854e+00
      vertex   4.066833e-01 1.834405e+00 3.254427e+00
    endloop
  endfacet
  facet normal -2.058572e-01 -8.412562e-01 4.999107e-01
    outer loop
      vertex   4.863141e-01 1.814919e+00 3.254427e+00
      vertex   4.066833e-01 1.834405e+00 3.254427e+00
      vertex   0.000000e+00 0.000000e+00 0.000000e+00
    endloop
  endfacet
  facet normal -1.689670e-01 -8.494348e-01 4.999107e-01
    outer loop
      vertex   1.219564e+00 5.500873e+00 9.759140e+00
      vertex   9.783119e-01 5.548282e+00 9.758155e+00
      vertex   8.133772e-01 3.668807e+00 6.508854e+00
    endloop
  endfacet
  facet normal -1.689661e-01 -8.494350e-01 4.999107e-01
    outer loop
      vertex   8.133772e-01 3.668807e+00 6.508854e+00
      vertex   9.783119e-01 5.548282e+00 9.758155e+00
      vertex   4.066833e-01 1.834405e+00 3.254427e+00
    endloop
  endfacet
  facet normal -1.689645e-01 -8.494353e-01 4.999107e-01
    outer loop
      vertex   9.783119e-01 5.548282e+00 9.758155e+00
      vertex   0.000000e+00 0.000000e+00 0.000000e+00
      vertex   4.066833e-01 1.834405e+00 3.254427e+00
    endloop
  endfacet
  facet normal 1.494652e-01 7.513985e-01 -6.426978e-01
    outer loop
      vertex   0.000000e+00 0.000000e+00 0.000000e+00
      vertex   1.246620e+00 7.069935e+00 8.555600e+00
      vertex   7.775976e-01 3.507400e+00 4.281450e+00
    endloop
  endfacet
  facet normal 1.494680e-01 7.513980e-01 -6.426977e-01
    outer loop
      vertex   7.775976e-01 3.507400e+00 4.281450e+00
      vertex   1.246620e+00 7.069935e+00 8.555600e+00
      vertex   1.554173e+00 7.009957e+00 8.557003e+00
    endloop
  endfacet
  facet normal 1.821022e-01 7.441627e-01 -6.426979e-01
    outer loop
      vertex   7.775976e-01 3.507400e+00 4.281450e+00
      vertex   1.554173e+00 7.009957e+00 8.557003e+00
      vertex   9.298584e-01 3.470141e+00 4.281450e+00
    endloop
  endfacet
  facet normal 1.821084e-01 7.441614e-01 -6.426977e-01
    outer loop
      vertex   9.298584e-01 3.470141e+00 4.281450e+00
      vertex   1.554173e+00 7.009957e+00 8.557003e+00
      vertex   1.858873e+00 6.936854e+00 8.558696e+00
    endloop
  endfacet
  facet normal 2.143890e-01 7.355111e-01 -6.426980e-01
    outer loop
      vertex   9.298584e-01 3.470141e+00 4.281450e+00
      vertex   1.858873e+00 6.936854e+00 8.558696e+00
      vertex   1.080331e+00 3.426280e+00 4.281450e+00
    endloop
  endfacet
  facet normal 2.143957e-01 7.355094e-01 -6.426978e-01
    outer loop
      vertex   1.080331e+00 3.426280e+00 4.281450e+00
      vertex   1.858873e+00 6.936854e+00 8.558696e+00
      vertex   2.160151e+00 6.850756e+00 8.560667e+00
    endloop
  endfacet
  facet normal 2.462666e-01 7.254599e-01 -6.426980e-01
    outer loop
      vertex   1.080331e+00 3.426280e+00 4.281450e+00
      vertex   2.160151e+00 6.850756e+00 8.560667e+00
      vertex   2.457458e+00 6.751811e+00 8.562901e+00
    endloop
  endfacet
  facet normal 2.462640e-01 7.254609e-01 -6.426979e-01
    outer loop
      vertex   2.457458e+00 6.751811e+00 8.562901e+00
      vertex   0.000000e+00 0.000000e+00 0.000000e+00
      vertex   1.080331e+00 3.426280e+00 4.281450e+00
    endloop
  endfacet
  facet normal 2.143890e-01 7.355113e-01 -6.426978e-01
    outer loop
      vertex   1.080331e+00 3.426280e+00 4.281450e+00
      vertex   0.000000e+00 0.000000e+00 0.000000e+00
      vertex   9.298584e-01 3.470141e+00 4.281450e+00
    endloop
  endfacet
  facet normal 1.821022e-01 7.441628e-01 -6.426978e-01
    outer loop
      vertex   9.298584e-01 3.470141e+00 4.281450e+00
      vertex   0.000000e+00 0.000000e+00 0.000000e+00
      vertex   7.775976e-01 3.507400e+00 4.281450e+00
    endloop
  endfacet
endsolid
