solid ASCII
  facet normal -3.986132e-03 1.736468e-01 9.847999e-01
    outer loop
      vertex   5.702188e-17 -4.983502e+00 8.787258e-01
      vertex   2.267094e-01 -4.986210e+00 8.801210e-01
      vertex   0.000000e+00 0.000000e+00 0.000000e+00
    endloop
  endfacet
  facet normal -1.177283e-02 1.732928e-01 9.848000e-01
    outer loop
      vertex   2.267094e-01 -4.986210e+00 8.801210e-01
      vertex   4.501735e-01 -4.994212e+00 8.842006e-01
      vertex   0.000000e+00 0.000000e+00 0.000000e+00
    endloop
  endfacet
  facet normal -1.928626e-02 1.726156e-01 9.848004e-01
    outer loop
      vertex   4.501735e-01 -4.994212e+00 8.842006e-01
      vertex   6.700780e-01 -5.007326e+00 8.908058e-01
      vertex   0.000000e+00 0.000000e+00 0.000000e+00
    endloop
  endfacet
  facet normal -2.656474e-02 1.716417e-01 9.848012e-01
    outer loop
      vertex   6.700780e-01 -5.007326e+00 8.908058e-01
      vertex   8.861083e-01 -5.025370e+00 8.997779e-01
      vertex   0.000000e+00 0.000000e+00 0.000000e+00
    endloop
  endfacet
  facet normal 7.936930e-16 -8.283020e-17 -1.000000e+00
    outer loop
      vertex   8.787258e-01 -4.983502e+00 1.110223e-15
      vertex   6.619102e-01 -4.966754e+00 9.367507e-16
      vertex   0.000000e+00 0.000000e+00 0.000000e+00
    endloop
  endfacet
  facet normal 1.745269e-15 4.398455e-17 -1.000000e+00
    outer loop
      vertex   0.000000e+00 0.000000e+00 0.000000e+00
      vertex   6.619102e-01 -4.966754e+00 9.367507e-16
      vertex   4.429360e-01 -4.954711e+00 5.551115e-16
    endloop
  endfacet
  facet normal 1.730150e-15 4.263300e-17 -1.000000e+00
    outer loop
      vertex   0.000000e+00 0.000000e+00 0.000000e+00
      vertex   4.429360e-01 -4.954711e+00 5.551115e-16
      vertex   2.221752e-01 -4.947438e+00 1.734723e-16
    endloop
  endfacet
  facet normal -1.566202e-16 -4.209642e-17 -1.000000e+00
    outer loop
      vertex   2.221752e-01 -4.947438e+00 1.734723e-16
      vertex   -1.863926e-16 -4.945000e+00 2.081668e-16
      vertex   0.000000e+00 0.000000e+00 0.000000e+00
    endloop
  endfacet
  facet normal 9.848078e-01 1.736482e-01 3.396666e-15
    outer loop
      vertex   8.861083e-01 -5.025370e+00 8.997779e-01
      vertex   8.828868e-01 -5.007100e+00 6.771245e-01
      vertex   0.000000e+00 0.000000e+00 0.000000e+00
    endloop
  endfacet
  facet normal 9.848078e-01 1.736482e-01 1.568656e-15
    outer loop
      vertex   0.000000e+00 0.000000e+00 0.000000e+00
      vertex   8.828868e-01 -5.007100e+00 6.771245e-01
      vertex   8.805788e-01 -4.994011e+00 4.526301e-01
    endloop
  endfacet
  facet normal 9.848078e-01 1.736482e-01 0.000000e+00
    outer loop
      vertex   0.000000e+00 0.000000e+00 0.000000e+00
      vertex   8.805788e-01 -4.994011e+00 4.526301e-01
      vertex   8.791900e-01 -4.986134e+00 2.267651e-01
    endloop
  endfacet
  facet normal 9.848078e-01 1.736482e-01 -3.488668e-15
    outer loop
      vertex   8.791900e-01 -4.986134e+00 2.267651e-01
      vertex   8.787258e-01 -4.983502e+00 1.110223e-15
      vertex   0.000000e+00 0.000000e+00 0.000000e+00
    endloop
  endfacet
  facet normal -9.027776e-02 -9.926862e-01 -8.015039e-02
    outer loop
      vertex   8.828868e-01 -5.007100e+00 6.771245e-01
      vertex   8.861083e-01 -5.025370e+00 8.997779e-01
      vertex   7.770342e-01 -5.006194e+00 7.851311e-01
    endloop
  endfacet
  facet normal -7.914555e-02 -9.927239e-01 -9.074781e-02
    outer loop
      vertex   7.770342e-01 -5.006194e+00 7.851311e-01
      vertex   8.861083e-01 -5.025370e+00 8.997779e-01
      vertex   6.700780e-01 -5.007326e+00 8.908058e-01
    endloop
  endfacet
  facet normal -7.279424e-02 -9.937753e-01 -8.433075e-02
    outer loop
      vertex   7.770342e-01 -5.006194e+00 7.851311e-01
      vertex   6.700780e-01 -5.007326e+00 8.908058e-01
      vertex   6.639689e-01 -4.997912e+00 7.851311e-01
    endloop
  endfacet
  facet normal -6.120178e-02 -9.944940e-01 -8.506495e-02
    outer loop
      vertex   6.639689e-01 -4.997912e+00 7.851311e-01
      vertex   6.700780e-01 -5.007326e+00 8.908058e-01
      vertex   5.514176e-01 -4.990985e+00 7.851311e-01
    endloop
  endfacet
  facet normal -6.125954e-02 -9.954325e-01 -7.322155e-02
    outer loop
      vertex   6.639689e-01 -4.997912e+00 7.851311e-01
      vertex   5.514176e-01 -4.990985e+00 7.851311e-01
      vertex   5.537485e-01 -4.982725e+00 6.708909e-01
    endloop
  endfacet
  facet normal -4.981778e-02 -9.960844e-01 -7.303523e-02
    outer loop
      vertex   5.537485e-01 -4.982725e+00 6.708909e-01
      vertex   5.514176e-01 -4.990985e+00 7.851311e-01
      vertex   4.413470e-01 -4.977104e+00 6.708909e-01
    endloop
  endfacet
  facet normal -4.985690e-02 -9.968666e-01 -6.141110e-02
    outer loop
      vertex   5.537485e-01 -4.982725e+00 6.708909e-01
      vertex   4.413470e-01 -4.977104e+00 6.708909e-01
      vertex   4.429007e-01 -4.970176e+00 5.571709e-01
    endloop
  endfacet
  facet normal -3.300694e-02 -9.975781e-01 -6.122422e-02
    outer loop
      vertex   4.429007e-01 -4.970176e+00 5.571709e-01
      vertex   4.413470e-01 -4.977104e+00 6.708909e-01
      vertex   2.199142e-01 -4.962798e+00 5.571709e-01
    endloop
  endfacet
  facet normal -3.302794e-02 -9.982129e-01 -4.980117e-02
    outer loop
      vertex   4.429007e-01 -4.970176e+00 5.571709e-01
      vertex   2.199142e-01 -4.962798e+00 5.571709e-01
      vertex   2.206483e-01 -4.957180e+00 4.440799e-01
    endloop
  endfacet
  facet normal -1.084427e-02 -9.987062e-01 -4.968167e-02
    outer loop
      vertex   2.206483e-01 -4.957180e+00 4.440799e-01
      vertex   2.199142e-01 -4.962798e+00 5.571709e-01
      vertex   -1.551602e-16 -4.954593e+00 4.402330e-01
    endloop
  endfacet
  facet normal -1.114542e-02 -9.993974e-01 -3.287387e-02
    outer loop
      vertex   2.206483e-01 -4.957180e+00 4.440799e-01
      vertex   -1.551602e-16 -4.954593e+00 4.402330e-01
      vertex   2.216870e-01 -4.949827e+00 2.201942e-01
    endloop
  endfacet
  facet normal -1.096011e-02 -9.994055e-01 -3.268735e-02
    outer loop
      vertex   2.216870e-01 -4.949827e+00 2.201942e-01
      vertex   -1.551602e-16 -4.954593e+00 4.402330e-01
      vertex   1.424059e-16 -4.947394e+00 2.201375e-01
    endloop
  endfacet
  facet normal -1.097091e-02 -9.998807e-01 -1.087407e-02
    outer loop
      vertex   2.216870e-01 -4.949827e+00 2.201942e-01
      vertex   1.424059e-16 -4.947394e+00 2.201375e-01
      vertex   -1.863926e-16 -4.945000e+00 2.081668e-16
    endloop
  endfacet
  facet normal -5.658660e-02 -9.943130e-01 -9.021928e-02
    outer loop
      vertex   6.700780e-01 -5.007326e+00 8.908058e-01
      vertex   4.501735e-01 -4.994212e+00 8.842006e-01
      vertex   5.514176e-01 -4.990985e+00 7.851311e-01
    endloop
  endfacet
  facet normal -4.977761e-02 -9.952812e-01 -8.329237e-02
    outer loop
      vertex   5.514176e-01 -4.990985e+00 7.851311e-01
      vertex   4.501735e-01 -4.994212e+00 8.842006e-01
      vertex   4.394892e-01 -4.985387e+00 7.851311e-01
    endloop
  endfacet
  facet normal -4.981778e-02 -9.960844e-01 -7.303523e-02
    outer loop
      vertex   5.514176e-01 -4.990985e+00 7.851311e-01
      vertex   4.394892e-01 -4.985387e+00 7.851311e-01
      vertex   4.413470e-01 -4.977104e+00 6.708909e-01
    endloop
  endfacet
  facet normal -3.297569e-02 -9.968003e-01 -7.281326e-02
    outer loop
      vertex   4.413470e-01 -4.977104e+00 6.708909e-01
      vertex   4.394892e-01 -4.985387e+00 7.851311e-01
      vertex   2.190328e-01 -4.969749e+00 6.708909e-01
    endloop
  endfacet
  facet normal -3.300141e-02 -9.975777e-01 -6.123493e-02
    outer loop
      vertex   4.413470e-01 -4.977104e+00 6.708909e-01
      vertex   2.190328e-01 -4.969749e+00 6.708909e-01
      vertex   2.199142e-01 -4.962798e+00 5.571709e-01
    endloop
  endfacet
  facet normal -1.118917e-02 -9.980692e-01 -6.109592e-02
    outer loop
      vertex   2.199142e-01 -4.962798e+00 5.571709e-01
      vertex   2.190328e-01 -4.969749e+00 6.708909e-01
      vertex   -4.533177e-16 -4.966620e+00 6.598935e-01
    endloop
  endfacet
  facet normal -8.181724e-03 -9.984708e-01 -5.467236e-02
    outer loop
      vertex   2.199142e-01 -4.962798e+00 5.571709e-01
      vertex   -4.533177e-16 -4.966620e+00 6.598935e-01
      vertex   -1.551602e-16 -4.954593e+00 4.402330e-01
    endloop
  endfacet
  facet normal -3.410772e-02 -9.957946e-01 -8.502805e-02
    outer loop
      vertex   4.501735e-01 -4.994212e+00 8.842006e-01
      vertex   2.267094e-01 -4.986210e+00 8.801210e-01
      vertex   4.394892e-01 -4.985387e+00 7.851311e-01
    endloop
  endfacet
  facet normal -3.294545e-02 -9.960524e-01 -8.242677e-02
    outer loop
      vertex   4.394892e-01 -4.985387e+00 7.851311e-01
      vertex   2.267094e-01 -4.986210e+00 8.801210e-01
      vertex   2.180014e-01 -4.978061e+00 7.851311e-01
    endloop
  endfacet
  facet normal -3.297016e-02 -9.967997e-01 -7.282385e-02
    outer loop
      vertex   4.394892e-01 -4.985387e+00 7.851311e-01
      vertex   2.180014e-01 -4.978061e+00 7.851311e-01
      vertex   2.190328e-01 -4.969749e+00 6.708909e-01
    endloop
  endfacet
  facet normal -1.059765e-02 -9.973006e-01 -7.265830e-02
    outer loop
      vertex   2.190328e-01 -4.969749e+00 6.708909e-01
      vertex   2.180014e-01 -4.978061e+00 7.851311e-01
      vertex   -4.533177e-16 -4.966620e+00 6.598935e-01
    endloop
  endfacet
  facet normal -1.138197e-02 -9.963644e-01 -8.443031e-02
    outer loop
      vertex   2.267094e-01 -4.986210e+00 8.801210e-01
      vertex   5.702188e-17 -4.983502e+00 8.787258e-01
      vertex   2.180014e-01 -4.978061e+00 7.851311e-01
    endloop
  endfacet
  facet normal -8.138277e-03 -9.970046e-01 -7.691230e-02
    outer loop
      vertex   2.180014e-01 -4.978061e+00 7.851311e-01
      vertex   5.702188e-17 -4.983502e+00 8.787258e-01
      vertex   -4.533177e-16 -4.966620e+00 6.598935e-01
    endloop
  endfacet
  facet normal -1.097408e-02 -9.998807e-01 -1.087088e-02
    outer loop
      vertex   -1.863926e-16 -4.945000e+00 2.081668e-16
      vertex   2.221752e-01 -4.947438e+00 1.734723e-16
      vertex   2.216870e-01 -4.949827e+00 2.201942e-01
    endloop
  endfacet
  facet normal -3.292349e-02 -9.993983e-01 -1.091431e-02
    outer loop
      vertex   2.216870e-01 -4.949827e+00 2.201942e-01
      vertex   2.221752e-01 -4.947438e+00 1.734723e-16
      vertex   4.429360e-01 -4.954711e+00 5.551115e-16
    endloop
  endfacet
  facet normal -3.308349e-02 -9.993912e-01 -1.107523e-02
    outer loop
      vertex   2.216870e-01 -4.949827e+00 2.201942e-01
      vertex   4.429360e-01 -4.954711e+00 5.551115e-16
      vertex   4.458005e-01 -4.957246e+00 2.201942e-01
    endloop
  endfacet
  facet normal -4.994824e-02 -9.986929e-01 -1.084779e-02
    outer loop
      vertex   4.458005e-01 -4.957246e+00 2.201942e-01
      vertex   4.429360e-01 -4.954711e+00 5.551115e-16
      vertex   5.593363e-01 -4.962924e+00 2.201942e-01
    endloop
  endfacet
  facet normal -4.992390e-02 -9.982061e-01 -3.304928e-02
    outer loop
      vertex   4.458005e-01 -4.957246e+00 2.201942e-01
      vertex   5.593363e-01 -4.962924e+00 2.201942e-01
      vertex   5.572736e-01 -4.970234e+00 4.440799e-01
    endloop
  endfacet
  facet normal -6.139069e-02 -9.975637e-01 -3.313395e-02
    outer loop
      vertex   5.572736e-01 -4.970234e+00 4.440799e-01
      vertex   5.593363e-01 -4.962924e+00 2.201942e-01
      vertex   6.710201e-01 -4.977234e+00 4.440799e-01
    endloop
  endfacet
  facet normal -6.134737e-02 -9.968598e-01 -5.007024e-02
    outer loop
      vertex   5.572736e-01 -4.970234e+00 4.440799e-01
      vertex   6.710201e-01 -4.977234e+00 4.440799e-01
      vertex   6.691229e-01 -4.982797e+00 5.571709e-01
    endloop
  endfacet
  facet normal -7.296227e-02 -9.960692e-01 -5.022620e-02
    outer loop
      vertex   6.691229e-01 -4.982797e+00 5.571709e-01
      vertex   6.710201e-01 -4.977234e+00 4.440799e-01
      vertex   7.830658e-01 -4.991144e+00 5.571709e-01
    endloop
  endfacet
  facet normal -7.291501e-02 -9.954241e-01 -6.175953e-02
    outer loop
      vertex   6.691229e-01 -4.982797e+00 5.571709e-01
      vertex   7.830658e-01 -4.991144e+00 5.571709e-01
      vertex   7.803187e-01 -4.997998e+00 6.708909e-01
    endloop
  endfacet
  facet normal -8.448060e-02 -9.944954e-01 -6.198294e-02
    outer loop
      vertex   7.803187e-01 -4.997998e+00 6.708909e-01
      vertex   7.830658e-01 -4.991144e+00 5.571709e-01
      vertex   8.828868e-01 -5.007100e+00 6.771245e-01
    endloop
  endfacet
  facet normal -8.370350e-02 -9.937617e-01 -7.369823e-02
    outer loop
      vertex   7.803187e-01 -4.997998e+00 6.708909e-01
      vertex   8.828868e-01 -5.007100e+00 6.771245e-01
      vertex   7.770342e-01 -5.006194e+00 7.851311e-01
    endloop
  endfacet
  facet normal -5.491043e-02 -9.984575e-01 -8.215875e-03
    outer loop
      vertex   4.429360e-01 -4.954711e+00 5.551115e-16
      vertex   6.619102e-01 -4.966754e+00 9.367507e-16
      vertex   5.593363e-01 -4.962924e+00 2.201942e-01
    endloop
  endfacet
  facet normal -6.142053e-02 -9.980485e-01 -1.125561e-02
    outer loop
      vertex   5.593363e-01 -4.962924e+00 2.201942e-01
      vertex   6.619102e-01 -4.966754e+00 9.367507e-16
      vertex   6.735038e-01 -4.969950e+00 2.201942e-01
    endloop
  endfacet
  facet normal -6.139069e-02 -9.975637e-01 -3.313395e-02
    outer loop
      vertex   5.593363e-01 -4.962924e+00 2.201942e-01
      vertex   6.735038e-01 -4.969950e+00 2.201942e-01
      vertex   6.710201e-01 -4.977234e+00 4.440799e-01
    endloop
  endfacet
  facet normal -7.301411e-02 -9.967769e-01 -3.323730e-02
    outer loop
      vertex   6.710201e-01 -4.977234e+00 4.440799e-01
      vertex   6.735038e-01 -4.969950e+00 2.201942e-01
      vertex   7.852861e-01 -4.985604e+00 4.440799e-01
    endloop
  endfacet
  facet normal -7.296227e-02 -9.960692e-01 -5.022620e-02
    outer loop
      vertex   6.710201e-01 -4.977234e+00 4.440799e-01
      vertex   7.852861e-01 -4.985604e+00 4.440799e-01
      vertex   7.830658e-01 -4.991144e+00 5.571709e-01
    endloop
  endfacet
  facet normal -8.328089e-02 -9.952514e-01 -5.038872e-02
    outer loop
      vertex   7.830658e-01 -4.991144e+00 5.571709e-01
      vertex   7.852861e-01 -4.985604e+00 4.440799e-01
      vertex   8.805788e-01 -4.994011e+00 4.526301e-01
    endloop
  endfacet
  facet normal -9.038371e-02 -9.942722e-01 -5.704089e-02
    outer loop
      vertex   7.830658e-01 -4.991144e+00 5.571709e-01
      vertex   8.805788e-01 -4.994011e+00 4.526301e-01
      vertex   8.828868e-01 -5.007100e+00 6.771245e-01
    endloop
  endfacet
  facet normal -7.305034e-02 -9.972716e-01 -1.063200e-02
    outer loop
      vertex   6.735038e-01 -4.969950e+00 2.201942e-01
      vertex   6.619102e-01 -4.966754e+00 9.367507e-16
      vertex   7.881928e-01 -4.978351e+00 2.201942e-01
    endloop
  endfacet
  facet normal -7.701469e-02 -9.969950e-01 -8.343859e-03
    outer loop
      vertex   7.881928e-01 -4.978351e+00 2.201942e-01
      vertex   6.619102e-01 -4.966754e+00 9.367507e-16
      vertex   8.787258e-01 -4.983502e+00 1.110223e-15
    endloop
  endfacet
  facet normal -8.439650e-02 -9.963671e-01 -1.139359e-02
    outer loop
      vertex   7.881928e-01 -4.978351e+00 2.201942e-01
      vertex   8.787258e-01 -4.983502e+00 1.110223e-15
      vertex   8.791900e-01 -4.986134e+00 2.267651e-01
    endloop
  endfacet
  facet normal -8.278126e-02 -9.960099e-01 -3.333926e-02
    outer loop
      vertex   7.881928e-01 -4.978351e+00 2.201942e-01
      vertex   8.791900e-01 -4.986134e+00 2.267651e-01
      vertex   7.852861e-01 -4.985604e+00 4.440799e-01
    endloop
  endfacet
  facet normal -8.478251e-02 -9.958122e-01 -3.420450e-02
    outer loop
      vertex   7.852861e-01 -4.985604e+00 4.440799e-01
      vertex   8.791900e-01 -4.986134e+00 2.267651e-01
      vertex   8.805788e-01 -4.994011e+00 4.526301e-01
    endloop
  endfacet
  facet normal -7.285715e-02 -9.946341e-01 -7.344897e-02
    outer loop
      vertex   7.803187e-01 -4.997998e+00 6.708909e-01
      vertex   7.770342e-01 -5.006194e+00 7.851311e-01
      vertex   6.667755e-01 -4.989681e+00 6.708909e-01
    endloop
  endfacet
  facet normal -7.285715e-02 -9.946341e-01 -7.344897e-02
    outer loop
      vertex   6.667755e-01 -4.989681e+00 6.708909e-01
      vertex   7.770342e-01 -5.006194e+00 7.851311e-01
      vertex   6.639689e-01 -4.997912e+00 7.851311e-01
    endloop
  endfacet
  facet normal -6.125954e-02 -9.954325e-01 -7.322155e-02
    outer loop
      vertex   6.667755e-01 -4.989681e+00 6.708909e-01
      vertex   6.639689e-01 -4.997912e+00 7.851311e-01
      vertex   5.537485e-01 -4.982725e+00 6.708909e-01
    endloop
  endfacet
  facet normal -7.301411e-02 -9.967769e-01 -3.323730e-02
    outer loop
      vertex   6.735038e-01 -4.969950e+00 2.201942e-01
      vertex   7.881928e-01 -4.978351e+00 2.201942e-01
      vertex   7.852861e-01 -4.985604e+00 4.440799e-01
    endloop
  endfacet
  facet normal -7.291501e-02 -9.954241e-01 -6.175953e-02
    outer loop
      vertex   7.803187e-01 -4.997998e+00 6.708909e-01
      vertex   6.667755e-01 -4.989681e+00 6.708909e-01
      vertex   6.691229e-01 -4.982797e+00 5.571709e-01
    endloop
  endfacet
  facet normal -6.130789e-02 -9.962182e-01 -6.156801e-02
    outer loop
      vertex   6.691229e-01 -4.982797e+00 5.571709e-01
      vertex   6.667755e-01 -4.989681e+00 6.708909e-01
      vertex   5.556979e-01 -4.975817e+00 5.571709e-01
    endloop
  endfacet
  facet normal -6.134737e-02 -9.968598e-01 -5.007024e-02
    outer loop
      vertex   6.691229e-01 -4.982797e+00 5.571709e-01
      vertex   5.556979e-01 -4.975817e+00 5.571709e-01
      vertex   5.572736e-01 -4.970234e+00 4.440799e-01
    endloop
  endfacet
  facet normal -4.988885e-02 -9.975053e-01 -4.994247e-02
    outer loop
      vertex   5.572736e-01 -4.970234e+00 4.440799e-01
      vertex   5.556979e-01 -4.975817e+00 5.571709e-01
      vertex   4.441565e-01 -4.964576e+00 4.440799e-01
    endloop
  endfacet
  facet normal -4.992390e-02 -9.982061e-01 -3.304928e-02
    outer loop
      vertex   5.572736e-01 -4.970234e+00 4.440799e-01
      vertex   4.441565e-01 -4.964576e+00 4.440799e-01
      vertex   4.458005e-01 -4.957246e+00 2.201942e-01
    endloop
  endfacet
  facet normal -3.306756e-02 -9.989099e-01 -3.294855e-02
    outer loop
      vertex   4.458005e-01 -4.957246e+00 2.201942e-01
      vertex   4.441565e-01 -4.964576e+00 4.440799e-01
      vertex   2.216870e-01 -4.949827e+00 2.201942e-01
    endloop
  endfacet
  facet normal -6.130789e-02 -9.962182e-01 -6.156801e-02
    outer loop
      vertex   5.556979e-01 -4.975817e+00 5.571709e-01
      vertex   6.667755e-01 -4.989681e+00 6.708909e-01
      vertex   5.537485e-01 -4.982725e+00 6.708909e-01
    endloop
  endfacet
  facet normal -4.988885e-02 -9.975053e-01 -4.994247e-02
    outer loop
      vertex   4.441565e-01 -4.964576e+00 4.440799e-01
      vertex   5.556979e-01 -4.975817e+00 5.571709e-01
      vertex   4.429007e-01 -4.970176e+00 5.571709e-01
    endloop
  endfacet
  facet normal -4.985690e-02 -9.968666e-01 -6.141110e-02
    outer loop
      vertex   4.429007e-01 -4.970176e+00 5.571709e-01
      vertex   5.556979e-01 -4.975817e+00 5.571709e-01
      vertex   5.537485e-01 -4.982725e+00 6.708909e-01
    endloop
  endfacet
  facet normal -3.305652e-02 -9.989099e-01 -3.295952e-02
    outer loop
      vertex   2.216870e-01 -4.949827e+00 2.201942e-01
      vertex   4.441565e-01 -4.964576e+00 4.440799e-01
      vertex   2.206483e-01 -4.957180e+00 4.440799e-01
    endloop
  endfacet
  facet normal -3.303347e-02 -9.982133e-01 -4.979035e-02
    outer loop
      vertex   2.206483e-01 -4.957180e+00 4.440799e-01
      vertex   4.441565e-01 -4.964576e+00 4.440799e-01
      vertex   4.429007e-01 -4.970176e+00 5.571709e-01
    endloop
  endfacet
  facet normal -1.000000e+00 4.052834e-16 2.363368e-15
    outer loop
      vertex   5.702188e-17 -4.983502e+00 8.787258e-01
      vertex   0.000000e+00 0.000000e+00 0.000000e+00
      vertex   -4.533177e-16 -4.966620e+00 6.598935e-01
    endloop
  endfacet
  facet normal -1.000000e+00 -8.972599e-17 -1.362269e-15
    outer loop
      vertex   -4.533177e-16 -4.966620e+00 6.598935e-01
      vertex   0.000000e+00 0.000000e+00 0.000000e+00
      vertex   -1.551602e-16 -4.954593e+00 4.402330e-01
    endloop
  endfacet
  facet normal -1.000000e+00 -8.907116e-17 -1.354900e-15
    outer loop
      vertex   -1.551602e-16 -4.954593e+00 4.402330e-01
      vertex   0.000000e+00 0.000000e+00 0.000000e+00
      vertex   1.424059e-16 -4.947394e+00 2.201375e-01
    endloop
  endfacet
  facet normal -1.000000e+00 3.769315e-17 1.494015e-15
    outer loop
      vertex   1.424059e-16 -4.947394e+00 2.201375e-01
      vertex   0.000000e+00 0.000000e+00 0.000000e+00
      vertex   -1.863926e-16 -4.945000e+00 2.081668e-16
    endloop
  endfacet
  facet normal -1.551199e-01 9.878417e-01 -1.032465e-02
    outer loop
      vertex   1.555150e+00 -8.819693e+00 1.987191e-01
      vertex   1.555506e+00 -8.821714e+00 1.084202e-16
      vertex   1.426632e+00 -8.839981e+00 1.884855e-01
    endloop
  endfacet
  facet normal -1.509668e-01 9.885110e-01 -7.420125e-03
    outer loop
      vertex   1.426632e+00 -8.839981e+00 1.884855e-01
      vertex   1.555506e+00 -8.821714e+00 1.084202e-16
      vertex   1.368355e+00 -8.850296e+00 1.037615e-16
    endloop
  endfacet
  facet normal -1.356409e-01 9.906820e-01 -1.227751e-02
    outer loop
      vertex   1.426632e+00 -8.839981e+00 1.884855e-01
      vertex   1.368355e+00 -8.850296e+00 1.037615e-16
      vertex   1.219959e+00 -8.868278e+00 1.884855e-01
    endloop
  endfacet
  facet normal -1.300729e-01 9.914736e-01 -7.818241e-03
    outer loop
      vertex   1.219959e+00 -8.868278e+00 1.884855e-01
      vertex   1.368355e+00 -8.850296e+00 1.037615e-16
      vertex   1.178590e+00 -8.875191e+00 9.147956e-17
    endloop
  endfacet
  facet normal -1.132328e-01 9.935009e-01 -1.158864e-02
    outer loop
      vertex   1.219959e+00 -8.868278e+00 1.884855e-01
      vertex   1.178590e+00 -8.875191e+00 9.147956e-17
      vertex   1.013075e+00 -8.891857e+00 1.884855e-01
    endloop
  endfacet
  facet normal -1.095325e-01 9.939486e-01 -8.299657e-03
    outer loop
      vertex   1.013075e+00 -8.891857e+00 1.884855e-01
      vertex   1.178590e+00 -8.875191e+00 9.147956e-17
      vertex   9.864777e-01 -8.896362e+00 7.411538e-17
    endloop
  endfacet
  facet normal -9.148183e-02 9.957472e-01 -1.088979e-02
    outer loop
      vertex   1.013075e+00 -8.891857e+00 1.884855e-01
      vertex   9.864777e-01 -8.896362e+00 7.411538e-17
      vertex   8.067271e-01 -8.910815e+00 1.884855e-01
    endloop
  endfacet
  facet normal -8.927790e-02 9.959681e-01 -8.771054e-03
    outer loop
      vertex   8.067271e-01 -8.910815e+00 1.884855e-01
      vertex   9.864777e-01 -8.896362e+00 7.411538e-17
      vertex   7.922835e-01 -8.913769e+00 5.421011e-17
    endloop
  endfacet
  facet normal -7.031980e-02 9.974719e-01 -1.024738e-02
    outer loop
      vertex   8.067271e-01 -8.910815e+00 1.884855e-01
      vertex   7.922835e-01 -8.913769e+00 5.421011e-17
      vertex   6.016175e-01 -8.925275e+00 1.884855e-01
    endloop
  endfacet
  facet normal -6.924448e-02 9.975577e-01 -9.154381e-03
    outer loop
      vertex   6.016175e-01 -8.925275e+00 1.884855e-01
      vertex   7.922835e-01 -8.913769e+00 5.421011e-17
      vertex   5.962729e-01 -8.927375e+00 3.430483e-17
    endloop
  endfacet
  facet normal -4.968302e-02 9.987177e-01 -9.721978e-03
    outer loop
      vertex   6.016175e-01 -8.925275e+00 1.884855e-01
      vertex   5.962729e-01 -8.927375e+00 3.430483e-17
      vertex   3.983664e-01 -8.935386e+00 1.884855e-01
    endloop
  endfacet
  facet normal -4.937015e-02 9.987364e-01 -9.392674e-03
    outer loop
      vertex   3.983664e-01 -8.935386e+00 1.884855e-01
      vertex   5.962729e-01 -8.927375e+00 3.430483e-17
      vertex   3.987117e-01 -8.937141e+00 1.694066e-17
    endloop
  endfacet
  facet normal -2.959507e-02 9.995181e-01 -9.363727e-03
    outer loop
      vertex   3.983664e-01 -8.935386e+00 1.884855e-01
      vertex   3.987117e-01 -8.937141e+00 1.694066e-17
      vertex   1.998655e-01 -8.943029e+00 4.658681e-18
    endloop
  endfacet
  facet normal -2.951836e-02 9.995196e-01 -9.444574e-03
    outer loop
      vertex   3.983664e-01 -8.935386e+00 1.884855e-01
      vertex   1.998655e-01 -8.943029e+00 4.658681e-18
      vertex   1.976789e-01 -8.941312e+00 1.884855e-01
    endloop
  endfacet
  facet normal -9.861184e-03 9.999089e-01 -9.220073e-03
    outer loop
      vertex   1.976789e-01 -8.941312e+00 1.884855e-01
      vertex   1.998655e-01 -8.943029e+00 4.658681e-18
      vertex   2.079833e-11 -8.945000e+00 -1.110223e-15
    endloop
  endfacet
  facet normal -9.351601e-03 9.999087e-01 -9.754507e-03
    outer loop
      vertex   1.976789e-01 -8.941312e+00 1.884855e-01
      vertex   2.079833e-11 -8.945000e+00 -1.110223e-15
      vertex   1.813172e-11 -8.943073e+00 1.974968e-01
    endloop
  endfacet
  facet normal -1.018529e-02 9.995529e-01 -2.811257e-02
    outer loop
      vertex   1.976789e-01 -8.941312e+00 1.884855e-01
      vertex   1.813172e-11 -8.943073e+00 1.974968e-01
      vertex   1.971467e-01 -8.935938e+00 3.797596e-01
    endloop
  endfacet
  facet normal -9.074863e-03 9.995291e-01 -2.931274e-02
    outer loop
      vertex   1.971467e-01 -8.935938e+00 3.797596e-01
      vertex   1.813172e-11 -8.943073e+00 1.974968e-01
      vertex   1.194922e-11 -8.937281e+00 3.949923e-01
    endloop
  endfacet
  facet normal -1.045928e-02 9.988263e-01 -4.729227e-02
    outer loop
      vertex   1.971467e-01 -8.935938e+00 3.797596e-01
      vertex   1.194922e-11 -8.937281e+00 3.949923e-01
      vertex   1.962400e-01 -8.926782e+00 5.733512e-01
    endloop
  endfacet
  facet normal -8.905509e-03 9.987592e-01 -4.899785e-02
    outer loop
      vertex   1.962400e-01 -8.926782e+00 5.733512e-01
      vertex   1.194922e-11 -8.937281e+00 3.949923e-01
      vertex   4.976835e-12 -8.927607e+00 5.922027e-01
    endloop
  endfacet
  facet normal -1.062024e-02 9.977036e-01 -6.689406e-02
    outer loop
      vertex   1.962400e-01 -8.926782e+00 5.733512e-01
      vertex   4.976835e-12 -8.927607e+00 5.922027e-01
      vertex   1.949441e-01 -8.913695e+00 7.687440e-01
    endloop
  endfacet
  facet normal -8.821162e-03 9.975865e-01 -6.887145e-02
    outer loop
      vertex   1.949441e-01 -8.913695e+00 7.687440e-01
      vertex   4.976835e-12 -8.927607e+00 5.922027e-01
      vertex   -5.943081e-14 -8.914031e+00 7.888441e-01
    endloop
  endfacet
  facet normal -1.068436e-02 9.961540e-01 -8.696589e-02
    outer loop
      vertex   1.949441e-01 -8.913695e+00 7.687440e-01
      vertex   -5.943081e-14 -8.914031e+00 7.888441e-01
      vertex   1.932461e-01 -8.896546e+00 9.653780e-01
    endloop
  endfacet
  facet normal -8.821251e-03 9.959935e-01 -8.898948e-02
    outer loop
      vertex   1.932461e-01 -8.896546e+00 9.653780e-01
      vertex   -5.943081e-14 -8.914031e+00 7.888441e-01
      vertex   -9.767805e-13 -8.896549e+00 9.845006e-01
    endloop
  endfacet
  facet normal -1.065888e-02 9.941414e-01 -1.075602e-01
    outer loop
      vertex   1.932461e-01 -8.896546e+00 9.653780e-01
      vertex   -9.767805e-13 -8.896549e+00 9.845006e-01
      vertex   1.911348e-01 -8.875225e+00 1.162653e+00
    endloop
  endfacet
  facet normal -8.957117e-03 9.939614e-01 -1.093644e-01
    outer loop
      vertex   1.911348e-01 -8.875225e+00 1.162653e+00
      vertex   -9.767805e-13 -8.896549e+00 9.845006e-01
      vertex   -6.382770e-13 -8.875282e+00 1.177789e+00
    endloop
  endfacet
  facet normal -1.006440e-02 9.923117e-01 -1.233536e-01
    outer loop
      vertex   1.911348e-01 -8.875225e+00 1.162653e+00
      vertex   -6.382770e-13 -8.875282e+00 1.177789e+00
      vertex   1.899213e-01 -8.862971e+00 1.261333e+00
    endloop
  endfacet
  facet normal -7.086538e-03 9.914884e-01 -1.300018e-01
    outer loop
      vertex   1.899213e-01 -8.862971e+00 1.261333e+00
      vertex   -6.382770e-13 -8.875282e+00 1.177789e+00
      vertex   -2.113243e-13 -8.850315e+00 1.368207e+00
    endloop
  endfacet
  facet normal -9.424381e-03 9.909244e-01 -1.340895e-01
    outer loop
      vertex   1.899213e-01 -8.862971e+00 1.261333e+00
      vertex   -2.113243e-13 -8.850315e+00 1.368207e+00
      vertex   1.886014e-01 -8.849641e+00 1.359932e+00
    endloop
  endfacet
  facet normal -9.897697e-03 9.893816e-01 -1.450035e-01
    outer loop
      vertex   1.886014e-01 -8.849641e+00 1.359932e+00
      vertex   -2.113243e-13 -8.850315e+00 1.368207e+00
      vertex   1.871743e-01 -8.835229e+00 1.458365e+00
    endloop
  endfacet
  facet normal -2.920818e-02 9.889678e-01 -1.452228e-01
    outer loop
      vertex   1.886014e-01 -8.849641e+00 1.359932e+00
      vertex   1.871743e-01 -8.835229e+00 1.458365e+00
      vertex   3.801012e-01 -8.843985e+00 1.359932e+00
    endloop
  endfacet
  facet normal -2.920830e-02 9.889677e-01 -1.452231e-01
    outer loop
      vertex   3.801012e-01 -8.843985e+00 1.359932e+00
      vertex   1.871743e-01 -8.835229e+00 1.458365e+00
      vertex   3.772274e-01 -8.829616e+00 1.458365e+00
    endloop
  endfacet
  facet normal -4.915676e-02 9.881098e-01 -1.456802e-01
    outer loop
      vertex   3.801012e-01 -8.843985e+00 1.359932e+00
      vertex   3.772274e-01 -8.829616e+00 1.458365e+00
      vertex   5.739909e-01 -8.834340e+00 1.359932e+00
    endloop
  endfacet
  facet normal -4.915688e-02 9.881097e-01 -1.456805e-01
    outer loop
      vertex   5.739909e-01 -8.834340e+00 1.359932e+00
      vertex   3.772274e-01 -8.829616e+00 1.458365e+00
      vertex   5.696476e-01 -8.820043e+00 1.458365e+00
    endloop
  endfacet
  facet normal -6.956592e-02 9.867782e-01 -1.463876e-01
    outer loop
      vertex   5.739909e-01 -8.834340e+00 1.359932e+00
      vertex   5.696476e-01 -8.820043e+00 1.458365e+00
      vertex   7.696819e-01 -8.820544e+00 1.359932e+00
    endloop
  endfacet
  facet normal -6.956592e-02 9.867782e-01 -1.463876e-01
    outer loop
      vertex   7.696819e-01 -8.820544e+00 1.359932e+00
      vertex   5.696476e-01 -8.820043e+00 1.458365e+00
      vertex   7.638578e-01 -8.806352e+00 1.458365e+00
    endloop
  endfacet
  facet normal -9.048848e-02 9.849350e-01 -1.473598e-01
    outer loop
      vertex   7.696819e-01 -8.820544e+00 1.359932e+00
      vertex   7.638578e-01 -8.806352e+00 1.458365e+00
      vertex   9.665542e-01 -8.802457e+00 1.359932e+00
    endloop
  endfacet
  facet normal -9.048848e-02 9.849350e-01 -1.473598e-01
    outer loop
      vertex   9.665542e-01 -8.802457e+00 1.359932e+00
      vertex   7.638578e-01 -8.806352e+00 1.458365e+00
      vertex   9.592405e-01 -8.788402e+00 1.458365e+00
    endloop
  endfacet
  facet normal -1.119829e-01 9.825343e-01 -1.486141e-01
    outer loop
      vertex   9.665542e-01 -8.802457e+00 1.359932e+00
      vertex   9.592405e-01 -8.788402e+00 1.458365e+00
      vertex   1.163938e+00 -8.779960e+00 1.359932e+00
    endloop
  endfacet
  facet normal -1.119829e-01 9.825343e-01 -1.486141e-01
    outer loop
      vertex   1.163938e+00 -8.779960e+00 1.359932e+00
      vertex   9.592405e-01 -8.788402e+00 1.458365e+00
      vertex   1.155130e+00 -8.766075e+00 1.458365e+00
    endloop
  endfacet
  facet normal -1.341129e-01 9.795218e-01 -1.501692e-01
    outer loop
      vertex   1.163938e+00 -8.779960e+00 1.359932e+00
      vertex   1.155130e+00 -8.766075e+00 1.458365e+00
      vertex   1.361121e+00 -8.752962e+00 1.359932e+00
    endloop
  endfacet
  facet normal -1.341129e-01 9.795218e-01 -1.501692e-01
    outer loop
      vertex   1.361121e+00 -8.752962e+00 1.359932e+00
      vertex   1.155130e+00 -8.766075e+00 1.458365e+00
      vertex   1.350821e+00 -8.739282e+00 1.458365e+00
    endloop
  endfacet
  facet normal -1.556129e-01 9.760632e-01 -1.519381e-01
    outer loop
      vertex   1.361121e+00 -8.752962e+00 1.359932e+00
      vertex   1.350821e+00 -8.739282e+00 1.458365e+00
      vertex   1.538176e+00 -8.723428e+00 1.368325e+00
    endloop
  endfacet
  facet normal -1.590366e-01 9.743250e-01 -1.593682e-01
    outer loop
      vertex   1.538176e+00 -8.723428e+00 1.368325e+00
      vertex   1.350821e+00 -8.739282e+00 1.458365e+00
      vertex   1.532899e+00 -8.693502e+00 1.556547e+00
    endloop
  endfacet
  facet normal -1.572847e-01 9.740907e-01 -1.625079e-01
    outer loop
      vertex   1.532899e+00 -8.693502e+00 1.556547e+00
      vertex   1.350821e+00 -8.739282e+00 1.458365e+00
      vertex   1.349623e+00 -8.723116e+00 1.556428e+00
    endloop
  endfacet
  facet normal -1.354592e-01 9.773206e-01 -1.627736e-01
    outer loop
      vertex   1.349623e+00 -8.723116e+00 1.556428e+00
      vertex   1.350821e+00 -8.739282e+00 1.458365e+00
      vertex   1.163388e+00 -8.748954e+00 1.556275e+00
    endloop
  endfacet
  facet normal -1.339093e-01 9.780351e-01 -1.597362e-01
    outer loop
      vertex   1.163388e+00 -8.748954e+00 1.556275e+00
      vertex   1.350821e+00 -8.739282e+00 1.458365e+00
      vertex   1.155130e+00 -8.766075e+00 1.458365e+00
    endloop
  endfacet
  facet normal -1.140591e-01 9.802113e-01 -1.617909e-01
    outer loop
      vertex   1.163388e+00 -8.748954e+00 1.556275e+00
      vertex   1.155130e+00 -8.766075e+00 1.458365e+00
      vertex   9.744829e-01 -8.770963e+00 1.556104e+00
    endloop
  endfacet
  facet normal -1.118250e-01 9.811487e-01 -1.576148e-01
    outer loop
      vertex   9.744829e-01 -8.770963e+00 1.556104e+00
      vertex   1.155130e+00 -8.766075e+00 1.458365e+00
      vertex   9.592405e-01 -8.788402e+00 1.458365e+00
    endloop
  endfacet
  facet normal -9.297104e-02 9.825963e-01 -1.608134e-01
    outer loop
      vertex   9.744829e-01 -8.770963e+00 1.556104e+00
      vertex   9.592405e-01 -8.788402e+00 1.458365e+00
      vertex   7.831960e-01 -8.789091e+00 1.555930e+00
    endloop
  endfacet
  facet normal -9.036566e-02 9.835981e-01 -1.561052e-01
    outer loop
      vertex   7.831960e-01 -8.789091e+00 1.555930e+00
      vertex   9.592405e-01 -8.788402e+00 1.458365e+00
      vertex   7.638578e-01 -8.806352e+00 1.458365e+00
    endloop
  endfacet
  facet normal -7.211895e-02 9.844983e-01 -1.598811e-01
    outer loop
      vertex   7.831960e-01 -8.789091e+00 1.555930e+00
      vertex   7.638578e-01 -8.806352e+00 1.458365e+00
      vertex   5.898157e-01 -8.803283e+00 1.555767e+00
    endloop
  endfacet
  facet normal -6.947161e-02 9.854404e-01 -1.551804e-01
    outer loop
      vertex   5.898157e-01 -8.803283e+00 1.555767e+00
      vertex   7.638578e-01 -8.806352e+00 1.458365e+00
      vertex   5.696476e-01 -8.820043e+00 1.458365e+00
    endloop
  endfacet
  facet normal -5.143127e-02 9.859378e-01 -1.590014e-01
    outer loop
      vertex   5.898157e-01 -8.803283e+00 1.555767e+00
      vertex   5.696476e-01 -8.820043e+00 1.458365e+00
      vertex   3.946306e-01 -8.813487e+00 1.555633e+00
    endloop
  endfacet
  facet normal -4.908773e-02 9.867197e-01 -1.548373e-01
    outer loop
      vertex   3.946306e-01 -8.813487e+00 1.555633e+00
      vertex   5.696476e-01 -8.820043e+00 1.458365e+00
      vertex   3.772274e-01 -8.829616e+00 1.458365e+00
    endloop
  endfacet
  facet normal -3.083989e-02 9.869353e-01 -1.581380e-01
    outer loop
      vertex   3.946306e-01 -8.813487e+00 1.555633e+00
      vertex   3.772274e-01 -8.829616e+00 1.458365e+00
      vertex   1.979292e-01 -8.819648e+00 1.555540e+00
    endloop
  endfacet
  facet normal -2.916401e-02 9.874681e-01 -1.551004e-01
    outer loop
      vertex   1.979292e-01 -8.819648e+00 1.555540e+00
      vertex   3.772274e-01 -8.829616e+00 1.458365e+00
      vertex   1.871743e-01 -8.835229e+00 1.458365e+00
    endloop
  endfacet
  facet normal -1.027889e-02 9.875136e-01 -1.571979e-01
    outer loop
      vertex   1.979292e-01 -8.819648e+00 1.555540e+00
      vertex   1.871743e-01 -8.835229e+00 1.458365e+00
      vertex   -1.289289e-15 -8.821714e+00 1.555506e+00
    endloop
  endfacet
  facet normal -6.963766e-03 9.885169e-01 -1.509498e-01
    outer loop
      vertex   -1.289289e-15 -8.821714e+00 1.555506e+00
      vertex   1.871743e-01 -8.835229e+00 1.458365e+00
      vertex   -2.113243e-13 -8.850315e+00 1.368207e+00
    endloop
  endfacet
  facet normal -1.564144e-01 9.776373e-01 -1.405697e-01
    outer loop
      vertex   1.361121e+00 -8.752962e+00 1.359932e+00
      vertex   1.538176e+00 -8.723428e+00 1.368325e+00
      vertex   1.370646e+00 -8.765615e+00 1.261333e+00
    endloop
  endfacet
  facet normal -1.586823e-01 9.777687e-01 -1.370704e-01
    outer loop
      vertex   1.370646e+00 -8.765615e+00 1.261333e+00
      vertex   1.538176e+00 -8.723428e+00 1.368325e+00
      vertex   1.542758e+00 -8.749413e+00 1.177663e+00
    endloop
  endfacet
  facet normal -1.550185e-01 9.794250e-01 -1.292129e-01
    outer loop
      vertex   1.370646e+00 -8.765615e+00 1.261333e+00
      vertex   1.542758e+00 -8.749413e+00 1.177663e+00
      vertex   1.379404e+00 -8.777248e+00 1.162653e+00
    endloop
  endfacet
  facet normal -1.565579e-01 9.809230e-01 -1.152376e-01
    outer loop
      vertex   1.379404e+00 -8.777248e+00 1.162653e+00
      vertex   1.542758e+00 -8.749413e+00 1.177663e+00
      vertex   1.546642e+00 -8.771442e+00 9.848739e-01
    endloop
  endfacet
  facet normal -1.537689e-01 9.816714e-01 -1.125895e-01
    outer loop
      vertex   1.379404e+00 -8.777248e+00 1.162653e+00
      vertex   1.546642e+00 -8.771442e+00 9.848739e-01
      vertex   1.394641e+00 -8.797487e+00 9.653780e-01
    endloop
  endfacet
  facet normal -1.564454e-01 9.832230e-01 -9.379458e-02
    outer loop
      vertex   1.394641e+00 -8.797487e+00 9.653780e-01
      vertex   1.546642e+00 -8.771442e+00 9.848739e-01
      vertex   1.549826e+00 -8.789499e+00 7.902710e-01
    endloop
  endfacet
  facet normal -1.533446e-01 9.839726e-01 -9.101239e-02
    outer loop
      vertex   1.394641e+00 -8.797487e+00 9.653780e-01
      vertex   1.549826e+00 -8.789499e+00 7.902710e-01
      vertex   1.406896e+00 -8.813765e+00 7.687440e-01
    endloop
  endfacet
  facet normal -1.562895e-01 9.850353e-01 -7.265763e-02
    outer loop
      vertex   1.406896e+00 -8.813765e+00 7.687440e-01
      vertex   1.549826e+00 -8.789499e+00 7.902710e-01
      vertex   1.552307e+00 -8.803570e+00 5.941684e-01
    endloop
  endfacet
  facet normal -1.531471e-01 9.857210e-01 -7.000015e-02
    outer loop
      vertex   1.406896e+00 -8.813765e+00 7.687440e-01
      vertex   1.552307e+00 -8.803570e+00 5.941684e-01
      vertex   1.416248e+00 -8.826187e+00 5.733512e-01
    endloop
  endfacet
  facet normal -1.560510e-01 9.863924e-01 -5.174986e-02
    outer loop
      vertex   1.416248e+00 -8.826187e+00 5.733512e-01
      vertex   1.552307e+00 -8.803570e+00 5.941684e-01
      vertex   1.554083e+00 -8.813640e+00 3.968799e-01
    endloop
  endfacet
  facet normal -1.532099e-01 9.869536e-01 -4.949087e-02
    outer loop
      vertex   1.416248e+00 -8.826187e+00 5.733512e-01
      vertex   1.554083e+00 -8.813640e+00 3.968799e-01
      vertex   1.422792e+00 -8.834879e+00 3.797596e-01
    endloop
  endfacet
  facet normal -1.556810e-01 9.873209e-01 -3.099655e-02
    outer loop
      vertex   1.422792e+00 -8.834879e+00 3.797596e-01
      vertex   1.554083e+00 -8.813640e+00 3.968799e-01
      vertex   1.555150e+00 -8.819693e+00 1.987191e-01
    endloop
  endfacet
  facet normal -1.535763e-01 9.876985e-01 -2.942617e-02
    outer loop
      vertex   1.422792e+00 -8.834879e+00 3.797596e-01
      vertex   1.555150e+00 -8.819693e+00 1.987191e-01
      vertex   1.426632e+00 -8.839981e+00 1.884855e-01
    endloop
  endfacet
  facet normal -1.355936e-01 9.903361e-01 -2.913544e-02
    outer loop
      vertex   1.422792e+00 -8.834879e+00 3.797596e-01
      vertex   1.426632e+00 -8.839981e+00 1.884855e-01
      vertex   1.216674e+00 -8.863100e+00 3.797596e-01
    endloop
  endfacet
  facet normal -1.355936e-01 9.903361e-01 -2.913544e-02
    outer loop
      vertex   1.216674e+00 -8.863100e+00 3.797596e-01
      vertex   1.426632e+00 -8.839981e+00 1.884855e-01
      vertex   1.219959e+00 -8.868278e+00 1.884855e-01
    endloop
  endfacet
  facet normal -1.131934e-01 9.931547e-01 -2.882713e-02
    outer loop
      vertex   1.216674e+00 -8.863100e+00 3.797596e-01
      vertex   1.219959e+00 -8.868278e+00 1.884855e-01
      vertex   1.010348e+00 -8.886616e+00 3.797596e-01
    endloop
  endfacet
  facet normal -1.131934e-01 9.931547e-01 -2.882713e-02
    outer loop
      vertex   1.010348e+00 -8.886616e+00 3.797596e-01
      vertex   1.219959e+00 -8.868278e+00 1.884855e-01
      vertex   1.013075e+00 -8.891857e+00 1.884855e-01
    endloop
  endfacet
  facet normal -9.144988e-02 9.953995e-01 -2.857861e-02
    outer loop
      vertex   1.010348e+00 -8.886616e+00 3.797596e-01
      vertex   1.013075e+00 -8.891857e+00 1.884855e-01
      vertex   8.045554e-01 -8.905523e+00 3.797596e-01
    endloop
  endfacet
  facet normal -9.144988e-02 9.953995e-01 -2.857861e-02
    outer loop
      vertex   8.045554e-01 -8.905523e+00 3.797596e-01
      vertex   1.013075e+00 -8.891857e+00 1.884855e-01
      vertex   8.067271e-01 -8.910815e+00 1.884855e-01
    endloop
  endfacet
  facet normal -7.029516e-02 9.971223e-01 -2.838608e-02
    outer loop
      vertex   8.045554e-01 -8.905523e+00 3.797596e-01
      vertex   8.067271e-01 -8.910815e+00 1.884855e-01
      vertex   5.999979e-01 -8.919944e+00 3.797596e-01
    endloop
  endfacet
  facet normal -7.029516e-02 9.971223e-01 -2.838608e-02
    outer loop
      vertex   5.999979e-01 -8.919944e+00 3.797596e-01
      vertex   8.067271e-01 -8.910815e+00 1.884855e-01
      vertex   6.016175e-01 -8.925275e+00 1.884855e-01
    endloop
  endfacet
  facet normal -4.966579e-02 9.983664e-01 -2.824608e-02
    outer loop
      vertex   5.999979e-01 -8.919944e+00 3.797596e-01
      vertex   6.016175e-01 -8.925275e+00 1.884855e-01
      vertex   3.972989e-01 -8.930027e+00 3.797596e-01
    endloop
  endfacet
  facet normal -4.966554e-02 9.983664e-01 -2.824582e-02
    outer loop
      vertex   3.972989e-01 -8.930027e+00 3.797596e-01
      vertex   6.016175e-01 -8.925275e+00 1.884855e-01
      vertex   3.983664e-01 -8.935386e+00 1.884855e-01
    endloop
  endfacet
  facet normal -2.950821e-02 9.991679e-01 -2.815577e-02
    outer loop
      vertex   3.972989e-01 -8.930027e+00 3.797596e-01
      vertex   3.983664e-01 -8.935386e+00 1.884855e-01
      vertex   1.971467e-01 -8.935938e+00 3.797596e-01
    endloop
  endfacet
  facet normal -2.950797e-02 9.991679e-01 -2.815551e-02
    outer loop
      vertex   1.971467e-01 -8.935938e+00 3.797596e-01
      vertex   3.983664e-01 -8.935386e+00 1.884855e-01
      vertex   1.976789e-01 -8.941312e+00 1.884855e-01
    endloop
  endfacet
  facet normal -1.354881e-01 9.895661e-01 -4.900915e-02
    outer loop
      vertex   1.416248e+00 -8.826187e+00 5.733512e-01
      vertex   1.422792e+00 -8.834879e+00 3.797596e-01
      vertex   1.211079e+00 -8.854279e+00 5.733512e-01
    endloop
  endfacet
  facet normal -1.354881e-01 9.895661e-01 -4.900915e-02
    outer loop
      vertex   1.211079e+00 -8.854279e+00 5.733512e-01
      vertex   1.422792e+00 -8.834879e+00 3.797596e-01
      vertex   1.216674e+00 -8.863100e+00 3.797596e-01
    endloop
  endfacet
  facet normal -1.131072e-01 9.923988e-01 -4.849132e-02
    outer loop
      vertex   1.211079e+00 -8.854279e+00 5.733512e-01
      vertex   1.216674e+00 -8.863100e+00 3.797596e-01
      vertex   1.005701e+00 -8.877686e+00 5.733512e-01
    endloop
  endfacet
  facet normal -1.131072e-01 9.923988e-01 -4.849132e-02
    outer loop
      vertex   1.005701e+00 -8.877686e+00 5.733512e-01
      vertex   1.216674e+00 -8.863100e+00 3.797596e-01
      vertex   1.010348e+00 -8.886616e+00 3.797596e-01
    endloop
  endfacet
  facet normal -9.138147e-02 9.946549e-01 -4.807390e-02
    outer loop
      vertex   1.005701e+00 -8.877686e+00 5.733512e-01
      vertex   1.010348e+00 -8.886616e+00 3.797596e-01
      vertex   8.008551e-01 -8.896506e+00 5.733512e-01
    endloop
  endfacet
  facet normal -9.138147e-02 9.946549e-01 -4.807390e-02
    outer loop
      vertex   8.008551e-01 -8.896506e+00 5.733512e-01
      vertex   1.010348e+00 -8.886616e+00 3.797596e-01
      vertex   8.045554e-01 -8.905523e+00 3.797596e-01
    endloop
  endfacet
  facet normal -7.024328e-02 9.963864e-01 -4.775052e-02
    outer loop
      vertex   8.008551e-01 -8.896506e+00 5.733512e-01
      vertex   8.045554e-01 -8.905523e+00 3.797596e-01
      vertex   5.972384e-01 -8.910860e+00 5.733512e-01
    endloop
  endfacet
  facet normal -7.024328e-02 9.963864e-01 -4.775052e-02
    outer loop
      vertex   5.972384e-01 -8.910860e+00 5.733512e-01
      vertex   8.045554e-01 -8.905523e+00 3.797596e-01
      vertex   5.999979e-01 -8.919944e+00 3.797596e-01
    endloop
  endfacet
  facet normal -4.962974e-02 9.976368e-01 -4.751536e-02
    outer loop
      vertex   5.972384e-01 -8.910860e+00 5.733512e-01
      vertex   5.999979e-01 -8.919944e+00 3.797596e-01
      vertex   3.954765e-01 -8.920898e+00 5.733512e-01
    endloop
  endfacet
  facet normal -4.962949e-02 9.976368e-01 -4.751510e-02
    outer loop
      vertex   3.954765e-01 -8.920898e+00 5.733512e-01
      vertex   5.999979e-01 -8.919944e+00 3.797596e-01
      vertex   3.972989e-01 -8.930027e+00 3.797596e-01
    endloop
  endfacet
  facet normal -2.948703e-02 9.984424e-01 -4.736348e-02
    outer loop
      vertex   3.954765e-01 -8.920898e+00 5.733512e-01
      vertex   3.972989e-01 -8.930027e+00 3.797596e-01
      vertex   1.962400e-01 -8.926782e+00 5.733512e-01
    endloop
  endfacet
  facet normal -2.948679e-02 9.984424e-01 -4.736323e-02
    outer loop
      vertex   1.962400e-01 -8.926782e+00 5.733512e-01
      vertex   3.972989e-01 -8.930027e+00 3.797596e-01
      vertex   1.971467e-01 -8.935938e+00 3.797596e-01
    endloop
  endfacet
  facet normal -1.353249e-01 9.883737e-01 -6.931575e-02
    outer loop
      vertex   1.406896e+00 -8.813765e+00 7.687440e-01
      vertex   1.416248e+00 -8.826187e+00 5.733512e-01
      vertex   1.203081e+00 -8.841670e+00 7.687440e-01
    endloop
  endfacet
  facet normal -1.353249e-01 9.883737e-01 -6.931575e-02
    outer loop
      vertex   1.203081e+00 -8.841670e+00 7.687440e-01
      vertex   1.416248e+00 -8.826187e+00 5.733512e-01
      vertex   1.211079e+00 -8.854279e+00 5.733512e-01
    endloop
  endfacet
  facet normal -1.129738e-01 9.912280e-01 -6.858510e-02
    outer loop
      vertex   1.203081e+00 -8.841670e+00 7.687440e-01
      vertex   1.211079e+00 -8.854279e+00 5.733512e-01
      vertex   9.990598e-01 -8.864923e+00 7.687440e-01
    endloop
  endfacet
  facet normal -1.129738e-01 9.912280e-01 -6.858510e-02
    outer loop
      vertex   9.990598e-01 -8.864923e+00 7.687440e-01
      vertex   1.211079e+00 -8.854279e+00 5.733512e-01
      vertex   1.005701e+00 -8.877686e+00 5.733512e-01
    endloop
  endfacet
  facet normal -9.127551e-02 9.935015e-01 -6.799609e-02
    outer loop
      vertex   9.990598e-01 -8.864923e+00 7.687440e-01
      vertex   1.005701e+00 -8.877686e+00 5.733512e-01
      vertex   7.955666e-01 -8.883619e+00 7.687440e-01
    endloop
  endfacet
  facet normal -9.127551e-02 9.935015e-01 -6.799609e-02
    outer loop
      vertex   7.955666e-01 -8.883619e+00 7.687440e-01
      vertex   1.005701e+00 -8.877686e+00 5.733512e-01
      vertex   8.008551e-01 -8.896506e+00 5.733512e-01
    endloop
  endfacet
  facet normal -7.016292e-02 9.952465e-01 -6.753974e-02
    outer loop
      vertex   7.955666e-01 -8.883619e+00 7.687440e-01
      vertex   8.008551e-01 -8.896506e+00 5.733512e-01
      vertex   5.932944e-01 -8.897879e+00 7.687440e-01
    endloop
  endfacet
  facet normal -7.016292e-02 9.952465e-01 -6.753974e-02
    outer loop
      vertex   5.932944e-01 -8.897879e+00 7.687440e-01
      vertex   8.008551e-01 -8.896506e+00 5.733512e-01
      vertex   5.972384e-01 -8.910860e+00 5.733512e-01
    endloop
  endfacet
  facet normal -4.957376e-02 9.965067e-01 -6.720788e-02
    outer loop
      vertex   5.932944e-01 -8.897879e+00 7.687440e-01
      vertex   5.972384e-01 -8.910860e+00 5.733512e-01
      vertex   3.928697e-01 -8.907849e+00 7.687440e-01
    endloop
  endfacet
  facet normal -4.957352e-02 9.965067e-01 -6.720763e-02
    outer loop
      vertex   3.928697e-01 -8.907849e+00 7.687440e-01
      vertex   5.972384e-01 -8.910860e+00 5.733512e-01
      vertex   3.954765e-01 -8.920898e+00 5.733512e-01
    endloop
  endfacet
  facet normal -2.945408e-02 9.973186e-01 -6.699343e-02
    outer loop
      vertex   3.928697e-01 -8.907849e+00 7.687440e-01
      vertex   3.954765e-01 -8.920898e+00 5.733512e-01
      vertex   1.949441e-01 -8.913695e+00 7.687440e-01
    endloop
  endfacet
  facet normal -2.945384e-02 9.973186e-01 -6.699318e-02
    outer loop
      vertex   1.949441e-01 -8.913695e+00 7.687440e-01
      vertex   3.954765e-01 -8.920898e+00 5.733512e-01
      vertex   1.962400e-01 -8.926782e+00 5.733512e-01
    endloop
  endfacet
  facet normal -1.350994e-01 9.867267e-01 -9.010328e-02
    outer loop
      vertex   1.394641e+00 -8.797487e+00 9.653780e-01
      vertex   1.406896e+00 -8.813765e+00 7.687440e-01
      vertex   1.192602e+00 -8.825150e+00 9.653780e-01
    endloop
  endfacet
  facet normal -1.350994e-01 9.867267e-01 -9.010328e-02
    outer loop
      vertex   1.192602e+00 -8.825150e+00 9.653780e-01
      vertex   1.406896e+00 -8.813765e+00 7.687440e-01
      vertex   1.203081e+00 -8.841670e+00 7.687440e-01
    endloop
  endfacet
  facet normal -1.127895e-01 9.896108e-01 -8.915662e-02
    outer loop
      vertex   1.192602e+00 -8.825150e+00 9.653780e-01
      vertex   1.203081e+00 -8.841670e+00 7.687440e-01
      vertex   9.903575e-01 -8.848200e+00 9.653780e-01
    endloop
  endfacet
  facet normal -1.127895e-01 9.896108e-01 -8.915662e-02
    outer loop
      vertex   9.903575e-01 -8.848200e+00 9.653780e-01
      vertex   1.203081e+00 -8.841670e+00 7.687440e-01
      vertex   9.990598e-01 -8.864923e+00 7.687440e-01
    endloop
  endfacet
  facet normal -9.112914e-02 9.919083e-01 -8.839341e-02
    outer loop
      vertex   9.903575e-01 -8.848200e+00 9.653780e-01
      vertex   9.990598e-01 -8.864923e+00 7.687440e-01
      vertex   7.886368e-01 -8.866733e+00 9.653780e-01
    endloop
  endfacet
  facet normal -9.112914e-02 9.919083e-01 -8.839341e-02
    outer loop
      vertex   7.886368e-01 -8.866733e+00 9.653780e-01
      vertex   9.990598e-01 -8.864923e+00 7.687440e-01
      vertex   7.955666e-01 -8.883619e+00 7.687440e-01
    endloop
  endfacet
  facet normal -7.005190e-02 9.936717e-01 -8.780205e-02
    outer loop
      vertex   7.886368e-01 -8.866733e+00 9.653780e-01
      vertex   7.955666e-01 -8.883619e+00 7.687440e-01
      vertex   5.881266e-01 -8.880868e+00 9.653780e-01
    endloop
  endfacet
  facet normal -7.005190e-02 9.936717e-01 -8.780205e-02
    outer loop
      vertex   5.881266e-01 -8.880868e+00 9.653780e-01
      vertex   7.955666e-01 -8.883619e+00 7.687440e-01
      vertex   5.932944e-01 -8.897879e+00 7.687440e-01
    endloop
  endfacet
  facet normal -4.949633e-02 9.949453e-01 -8.737199e-02
    outer loop
      vertex   5.881266e-01 -8.880868e+00 9.653780e-01
      vertex   5.932944e-01 -8.897879e+00 7.687440e-01
      vertex   3.894524e-01 -8.890752e+00 9.653780e-01
    endloop
  endfacet
  facet normal -4.949609e-02 9.949454e-01 -8.737174e-02
    outer loop
      vertex   3.894524e-01 -8.890752e+00 9.653780e-01
      vertex   5.932944e-01 -8.897879e+00 7.687440e-01
      vertex   3.928697e-01 -8.907849e+00 7.687440e-01
    endloop
  endfacet
  facet normal -2.940847e-02 9.957659e-01 -8.709399e-02
    outer loop
      vertex   3.894524e-01 -8.890752e+00 9.653780e-01
      vertex   3.928697e-01 -8.907849e+00 7.687440e-01
      vertex   1.932461e-01 -8.896546e+00 9.653780e-01
    endloop
  endfacet
  facet normal -2.940823e-02 9.957660e-01 -8.709374e-02
    outer loop
      vertex   1.932461e-01 -8.896546e+00 9.653780e-01
      vertex   3.928697e-01 -8.907849e+00 7.687440e-01
      vertex   1.949441e-01 -8.913695e+00 7.687440e-01
    endloop
  endfacet
  facet normal -1.348064e-01 9.845872e-01 -1.114241e-01
    outer loop
      vertex   1.379404e+00 -8.777248e+00 1.162653e+00
      vertex   1.394641e+00 -8.797487e+00 9.653780e-01
      vertex   1.179572e+00 -8.804608e+00 1.162653e+00
    endloop
  endfacet
  facet normal -1.348064e-01 9.845872e-01 -1.114241e-01
    outer loop
      vertex   1.179572e+00 -8.804608e+00 1.162653e+00
      vertex   1.394641e+00 -8.797487e+00 9.653780e-01
      vertex   1.192602e+00 -8.825150e+00 9.653780e-01
    endloop
  endfacet
  facet normal -1.125500e-01 9.875098e-01 -1.102584e-01
    outer loop
      vertex   1.179572e+00 -8.804608e+00 1.162653e+00
      vertex   1.192602e+00 -8.825150e+00 9.653780e-01
      vertex   9.795375e-01 -8.827407e+00 1.162653e+00
    endloop
  endfacet
  facet normal -1.125500e-01 9.875098e-01 -1.102584e-01
    outer loop
      vertex   9.795375e-01 -8.827407e+00 1.162653e+00
      vertex   1.192602e+00 -8.825150e+00 9.653780e-01
      vertex   9.903575e-01 -8.848200e+00 9.653780e-01
    endloop
  endfacet
  facet normal -9.093895e-02 9.898382e-01 -1.093185e-01
    outer loop
      vertex   9.795375e-01 -8.827407e+00 1.162653e+00
      vertex   9.903575e-01 -8.848200e+00 9.653780e-01
      vertex   7.800207e-01 -8.845737e+00 1.162653e+00
    endloop
  endfacet
  facet normal -9.093895e-02 9.898382e-01 -1.093185e-01
    outer loop
      vertex   7.800207e-01 -8.845737e+00 1.162653e+00
      vertex   9.903575e-01 -8.848200e+00 9.653780e-01
      vertex   7.886368e-01 -8.866733e+00 9.653780e-01
    endloop
  endfacet
  facet normal -6.990764e-02 9.916255e-01 -1.085902e-01
    outer loop
      vertex   7.800207e-01 -8.845737e+00 1.162653e+00
      vertex   7.886368e-01 -8.866733e+00 9.653780e-01
      vertex   5.817011e-01 -8.859718e+00 1.162653e+00
    endloop
  endfacet
  facet normal -6.990764e-02 9.916255e-01 -1.085902e-01
    outer loop
      vertex   5.817011e-01 -8.859718e+00 1.162653e+00
      vertex   7.886368e-01 -8.866733e+00 9.653780e-01
      vertex   5.881266e-01 -8.880868e+00 9.653780e-01
    endloop
  endfacet
  facet normal -4.939564e-02 9.929164e-01 -1.080605e-01
    outer loop
      vertex   5.817011e-01 -8.859718e+00 1.162653e+00
      vertex   5.881266e-01 -8.880868e+00 9.653780e-01
      vertex   3.852022e-01 -8.869494e+00 1.162653e+00
    endloop
  endfacet
  facet normal -4.939540e-02 9.929165e-01 -1.080602e-01
    outer loop
      vertex   3.852022e-01 -8.869494e+00 1.162653e+00
      vertex   5.881266e-01 -8.880868e+00 9.653780e-01
      vertex   3.894524e-01 -8.890752e+00 9.653780e-01
    endloop
  endfacet
  facet normal -2.934912e-02 9.937482e-01 -1.077180e-01
    outer loop
      vertex   3.852022e-01 -8.869494e+00 1.162653e+00
      vertex   3.894524e-01 -8.890752e+00 9.653780e-01
      vertex   1.911348e-01 -8.875225e+00 1.162653e+00
    endloop
  endfacet
  facet normal -2.934888e-02 9.937482e-01 -1.077177e-01
    outer loop
      vertex   1.911348e-01 -8.875225e+00 1.162653e+00
      vertex   3.894524e-01 -8.890752e+00 9.653780e-01
      vertex   1.932461e-01 -8.896546e+00 9.653780e-01
    endloop
  endfacet
  facet normal -1.343364e-01 9.811543e-01 -1.388881e-01
    outer loop
      vertex   1.163938e+00 -8.779960e+00 1.359932e+00
      vertex   1.361121e+00 -8.752962e+00 1.359932e+00
      vertex   1.370646e+00 -8.765615e+00 1.261333e+00
    endloop
  endfacet
  facet normal -1.345393e-01 9.826357e-01 -1.277740e-01
    outer loop
      vertex   1.370646e+00 -8.765615e+00 1.261333e+00
      vertex   1.379404e+00 -8.777248e+00 1.162653e+00
      vertex   1.172083e+00 -8.792802e+00 1.261333e+00
    endloop
  endfacet
  facet normal -1.345393e-01 9.826357e-01 -1.277740e-01
    outer loop
      vertex   1.172083e+00 -8.792802e+00 1.261333e+00
      vertex   1.379404e+00 -8.777248e+00 1.162653e+00
      vertex   1.179572e+00 -8.804608e+00 1.162653e+00
    endloop
  endfacet
  facet normal -1.123316e-01 9.855932e-01 -1.264425e-01
    outer loop
      vertex   1.172083e+00 -8.792802e+00 1.261333e+00
      vertex   1.179572e+00 -8.804608e+00 1.162653e+00
      vertex   9.733187e-01 -8.815456e+00 1.261333e+00
    endloop
  endfacet
  facet normal -1.123316e-01 9.855932e-01 -1.264425e-01
    outer loop
      vertex   9.733187e-01 -8.815456e+00 1.261333e+00
      vertex   1.179572e+00 -8.804608e+00 1.162653e+00
      vertex   9.795375e-01 -8.827407e+00 1.162653e+00
    endloop
  endfacet
  facet normal -9.076544e-02 9.879496e-01 -1.253687e-01
    outer loop
      vertex   9.733187e-01 -8.815456e+00 1.261333e+00
      vertex   9.795375e-01 -8.827407e+00 1.162653e+00
      vertex   7.750685e-01 -8.833670e+00 1.261333e+00
    endloop
  endfacet
  facet normal -9.076544e-02 9.879496e-01 -1.253687e-01
    outer loop
      vertex   7.750685e-01 -8.833670e+00 1.261333e+00
      vertex   9.795375e-01 -8.827407e+00 1.162653e+00
      vertex   7.800207e-01 -8.845737e+00 1.162653e+00
    endloop
  endfacet
  facet normal -6.977603e-02 9.897585e-01 -1.245366e-01
    outer loop
      vertex   7.750685e-01 -8.833670e+00 1.261333e+00
      vertex   7.800207e-01 -8.845737e+00 1.162653e+00
      vertex   5.780080e-01 -8.847562e+00 1.261333e+00
    endloop
  endfacet
  facet normal -6.977603e-02 9.897585e-01 -1.245366e-01
    outer loop
      vertex   5.780080e-01 -8.847562e+00 1.261333e+00
      vertex   7.800207e-01 -8.845737e+00 1.162653e+00
      vertex   5.817011e-01 -8.859718e+00 1.162653e+00
    endloop
  endfacet
  facet normal -4.930367e-02 9.910652e-01 -1.239314e-01
    outer loop
      vertex   5.780080e-01 -8.847562e+00 1.261333e+00
      vertex   5.817011e-01 -8.859718e+00 1.162653e+00
      vertex   3.827590e-01 -8.857275e+00 1.261333e+00
    endloop
  endfacet
  facet normal -4.930355e-02 9.910652e-01 -1.239312e-01
    outer loop
      vertex   3.827590e-01 -8.857275e+00 1.261333e+00
      vertex   5.817011e-01 -8.859718e+00 1.162653e+00
      vertex   3.852022e-01 -8.869494e+00 1.162653e+00
    endloop
  endfacet
  facet normal -2.929487e-02 9.919071e-01 -1.235400e-01
    outer loop
      vertex   3.827590e-01 -8.857275e+00 1.261333e+00
      vertex   3.852022e-01 -8.869494e+00 1.162653e+00
      vertex   1.899213e-01 -8.862971e+00 1.261333e+00
    endloop
  endfacet
  facet normal -2.929475e-02 9.919071e-01 -1.235398e-01
    outer loop
      vertex   1.899213e-01 -8.862971e+00 1.261333e+00
      vertex   3.852022e-01 -8.869494e+00 1.162653e+00
      vertex   1.911348e-01 -8.875225e+00 1.162653e+00
    endloop
  endfacet
  facet normal -1.121657e-01 9.841381e-01 -1.374451e-01
    outer loop
      vertex   9.665542e-01 -8.802457e+00 1.359932e+00
      vertex   1.163938e+00 -8.779960e+00 1.359932e+00
      vertex   1.172083e+00 -8.792802e+00 1.261333e+00
    endloop
  endfacet
  facet normal -1.343364e-01 9.811543e-01 -1.388881e-01
    outer loop
      vertex   1.172083e+00 -8.792802e+00 1.261333e+00
      vertex   1.163938e+00 -8.779960e+00 1.359932e+00
      vertex   1.370646e+00 -8.765615e+00 1.261333e+00
    endloop
  endfacet
  facet normal -1.121657e-01 9.841381e-01 -1.374451e-01
    outer loop
      vertex   9.665542e-01 -8.802457e+00 1.359932e+00
      vertex   1.172083e+00 -8.792802e+00 1.261333e+00
      vertex   9.733187e-01 -8.815456e+00 1.261333e+00
    endloop
  endfacet
  facet normal -9.063369e-02 9.865156e-01 -1.362813e-01
    outer loop
      vertex   7.696819e-01 -8.820544e+00 1.359932e+00
      vertex   9.665542e-01 -8.802457e+00 1.359932e+00
      vertex   9.733187e-01 -8.815456e+00 1.261333e+00
    endloop
  endfacet
  facet normal -9.063369e-02 9.865156e-01 -1.362813e-01
    outer loop
      vertex   7.696819e-01 -8.820544e+00 1.359932e+00
      vertex   9.733187e-01 -8.815456e+00 1.261333e+00
      vertex   7.750685e-01 -8.833670e+00 1.261333e+00
    endloop
  endfacet
  facet normal -6.967608e-02 9.883409e-01 -1.353793e-01
    outer loop
      vertex   5.739909e-01 -8.834340e+00 1.359932e+00
      vertex   7.696819e-01 -8.820544e+00 1.359932e+00
      vertex   7.750685e-01 -8.833670e+00 1.261333e+00
    endloop
  endfacet
  facet normal -6.967608e-02 9.883409e-01 -1.353793e-01
    outer loop
      vertex   5.739909e-01 -8.834340e+00 1.359932e+00
      vertex   7.750685e-01 -8.833670e+00 1.261333e+00
      vertex   5.780080e-01 -8.847562e+00 1.261333e+00
    endloop
  endfacet
  facet normal -4.923385e-02 9.896594e-01 -1.347233e-01
    outer loop
      vertex   3.801012e-01 -8.843985e+00 1.359932e+00
      vertex   5.739909e-01 -8.834340e+00 1.359932e+00
      vertex   5.780080e-01 -8.847562e+00 1.261333e+00
    endloop
  endfacet
  facet normal -4.923373e-02 9.896594e-01 -1.347231e-01
    outer loop
      vertex   3.801012e-01 -8.843985e+00 1.359932e+00
      vertex   5.780080e-01 -8.847562e+00 1.261333e+00
      vertex   3.827590e-01 -8.857275e+00 1.261333e+00
    endloop
  endfacet
  facet normal -2.925370e-02 9.905090e-01 -1.342990e-01
    outer loop
      vertex   1.886014e-01 -8.849641e+00 1.359932e+00
      vertex   3.801012e-01 -8.843985e+00 1.359932e+00
      vertex   3.827590e-01 -8.857275e+00 1.261333e+00
    endloop
  endfacet
  facet normal -2.925358e-02 9.905090e-01 -1.342988e-01
    outer loop
      vertex   1.886014e-01 -8.849641e+00 1.359932e+00
      vertex   3.827590e-01 -8.857275e+00 1.261333e+00
      vertex   1.899213e-01 -8.862971e+00 1.261333e+00
    endloop
  endfacet
  facet normal -1.000000e+00 1.910153e-13 1.092217e-12
    outer loop
      vertex   -1.289289e-15 -8.821714e+00 1.555506e+00
      vertex   -2.113243e-13 -8.850315e+00 1.368207e+00
      vertex   -1.095447e-15 -8.945000e+00 1.577245e+00
    endloop
  endfacet
  facet normal -1.000000e+00 2.117015e-12 1.964609e-12
    outer loop
      vertex   -1.095447e-15 -8.945000e+00 1.577245e+00
      vertex   -2.113243e-13 -8.850315e+00 1.368207e+00
      vertex   -6.382770e-13 -8.875282e+00 1.177789e+00
    endloop
  endfacet
  facet normal -1.000000e+00 5.488079e-13 1.690907e-12
    outer loop
      vertex   -1.095447e-15 -8.945000e+00 1.577245e+00
      vertex   -6.382770e-13 -8.875282e+00 1.177789e+00
      vertex   -9.767805e-13 -8.896549e+00 9.845006e-01
    endloop
  endfacet
  facet normal -1.000000e+00 -3.702576e-11 -1.380416e-12
    outer loop
      vertex   -9.767805e-13 -8.896549e+00 9.845006e-01
      vertex   -5.943081e-14 -8.914031e+00 7.888441e-01
      vertex   -1.095447e-15 -8.945000e+00 1.577245e+00
    endloop
  endfacet
  facet normal -1.000000e+00 -2.371273e-10 -9.240602e-12
    outer loop
      vertex   -1.095447e-15 -8.945000e+00 1.577245e+00
      vertex   -5.943081e-14 -8.914031e+00 7.888441e-01
      vertex   4.976835e-12 -8.927607e+00 5.922027e-01
    endloop
  endfacet
  facet normal -1.000000e+00 -4.541851e-10 -1.307331e-11
    outer loop
      vertex   -1.095447e-15 -8.945000e+00 1.577245e+00
      vertex   4.976835e-12 -8.927607e+00 5.922027e-01
      vertex   1.194922e-11 -8.937281e+00 3.949923e-01
    endloop
  endfacet
  facet normal -1.000000e+00 -5.911669e-10 -1.396761e-11
    outer loop
      vertex   1.194922e-11 -8.937281e+00 3.949923e-01
      vertex   1.813172e-11 -8.943073e+00 1.974968e-01
      vertex   -1.095447e-15 -8.945000e+00 1.577245e+00
    endloop
  endfacet
  facet normal -1.000000e+00 -3.227582e-11 -1.318719e-11
    outer loop
      vertex   -1.095447e-15 -8.945000e+00 1.577245e+00
      vertex   1.813172e-11 -8.943073e+00 1.974968e-01
      vertex   2.079833e-11 -8.945000e+00 -1.110223e-15
    endloop
  endfacet
  facet normal 9.848078e-01 1.736482e-01 1.991971e-15
    outer loop
      vertex   1.555506e+00 -8.821714e+00 1.084202e-16
      vertex   1.555150e+00 -8.819693e+00 1.987191e-01
      vertex   1.577245e+00 -8.945000e+00 0.000000e+00
    endloop
  endfacet
  facet normal 9.848078e-01 1.736482e-01 5.061159e-16
    outer loop
      vertex   1.577245e+00 -8.945000e+00 0.000000e+00
      vertex   1.555150e+00 -8.819693e+00 1.987191e-01
      vertex   1.554083e+00 -8.813640e+00 3.968799e-01
    endloop
  endfacet
  facet normal 9.848078e-01 1.736482e-01 -1.422379e-15
    outer loop
      vertex   1.577245e+00 -8.945000e+00 0.000000e+00
      vertex   1.554083e+00 -8.813640e+00 3.968799e-01
      vertex   1.552307e+00 -8.803570e+00 5.941684e-01
    endloop
  endfacet
  facet normal 9.848078e-01 1.736482e-01 2.242538e-16
    outer loop
      vertex   1.577245e+00 -8.945000e+00 0.000000e+00
      vertex   1.552307e+00 -8.803570e+00 5.941684e-01
      vertex   1.577245e+00 -8.945000e+00 1.601576e+00
    endloop
  endfacet
  facet normal 9.848078e-01 1.736482e-01 5.706775e-16
    outer loop
      vertex   1.577245e+00 -8.945000e+00 1.601576e+00
      vertex   1.552307e+00 -8.803570e+00 5.941684e-01
      vertex   1.549826e+00 -8.789499e+00 7.902710e-01
    endloop
  endfacet
  facet normal 9.848078e-01 1.736482e-01 -1.901946e-17
    outer loop
      vertex   1.577245e+00 -8.945000e+00 1.601576e+00
      vertex   1.549826e+00 -8.789499e+00 7.902710e-01
      vertex   1.546642e+00 -8.771442e+00 9.848739e-01
    endloop
  endfacet
  facet normal 9.848078e-01 1.736482e-01 -3.676712e-16
    outer loop
      vertex   1.546642e+00 -8.771442e+00 9.848739e-01
      vertex   1.542758e+00 -8.749413e+00 1.177663e+00
      vertex   1.577245e+00 -8.945000e+00 1.601576e+00
    endloop
  endfacet
  facet normal 9.848078e-01 1.736482e-01 1.768266e-17
    outer loop
      vertex   1.577245e+00 -8.945000e+00 1.601576e+00
      vertex   1.542758e+00 -8.749413e+00 1.177663e+00
      vertex   1.538176e+00 -8.723428e+00 1.368325e+00
    endloop
  endfacet
  facet normal 9.848078e-01 1.736482e-01 -4.702124e-15
    outer loop
      vertex   1.577245e+00 -8.945000e+00 1.601576e+00
      vertex   1.538176e+00 -8.723428e+00 1.368325e+00
      vertex   1.532899e+00 -8.693502e+00 1.556547e+00
    endloop
  endfacet
  facet normal 1.126240e-15 -1.000000e+00 -3.923558e-15
    outer loop
      vertex   1.577245e+00 -8.945000e+00 0.000000e+00
      vertex   7.840865e-01 -8.945000e+00 1.583293e+00
      vertex   2.079833e-11 -8.945000e+00 -1.110223e-15
    endloop
  endfacet
  facet normal 4.589704e-15 -1.000000e+00 -5.638752e-15
    outer loop
      vertex   2.079833e-11 -8.945000e+00 -1.110223e-15
      vertex   7.840865e-01 -8.945000e+00 1.583293e+00
      vertex   3.914803e-01 -8.945000e+00 1.578755e+00
    endloop
  endfacet
  facet normal -4.524507e-15 -1.000000e+00 -3.378721e-15
    outer loop
      vertex   2.079833e-11 -8.945000e+00 -1.110223e-15
      vertex   3.914803e-01 -8.945000e+00 1.578755e+00
      vertex   -1.095447e-15 -8.945000e+00 1.577245e+00
    endloop
  endfacet
  facet normal 4.579049e-15 -1.000000e+00 -4.436521e-15
    outer loop
      vertex   1.577245e+00 -8.945000e+00 1.601576e+00
      vertex   1.178955e+00 -8.945000e+00 1.590885e+00
      vertex   1.577245e+00 -8.945000e+00 0.000000e+00
    endloop
  endfacet
  facet normal -4.370215e-15 -1.000000e+00 -6.677034e-15
    outer loop
      vertex   1.577245e+00 -8.945000e+00 0.000000e+00
      vertex   1.178955e+00 -8.945000e+00 1.590885e+00
      vertex   7.840865e-01 -8.945000e+00 1.583293e+00
    endloop
  endfacet
  facet normal 7.039002e-16 4.942424e-13 -1.000000e+00
    outer loop
      vertex   2.079833e-11 -8.945000e+00 -1.110223e-15
      vertex   1.998655e-01 -8.943029e+00 4.658681e-18
      vertex   1.577245e+00 -8.945000e+00 0.000000e+00
    endloop
  endfacet
  facet normal -3.787603e-19 2.098831e-15 -1.000000e+00
    outer loop
      vertex   1.577245e+00 -8.945000e+00 0.000000e+00
      vertex   1.998655e-01 -8.943029e+00 4.658681e-18
      vertex   3.987117e-01 -8.937141e+00 1.694066e-17
    endloop
  endfacet
  facet normal -2.218664e-18 1.822912e-15 -1.000000e+00
    outer loop
      vertex   1.577245e+00 -8.945000e+00 0.000000e+00
      vertex   3.987117e-01 -8.937141e+00 1.694066e-17
      vertex   5.962729e-01 -8.927375e+00 3.430483e-17
    endloop
  endfacet
  facet normal -6.899436e-18 1.562386e-15 -1.000000e+00
    outer loop
      vertex   5.962729e-01 -8.927375e+00 3.430483e-17
      vertex   7.922835e-01 -8.913769e+00 5.421011e-17
      vertex   1.577245e+00 -8.945000e+00 0.000000e+00
    endloop
  endfacet
  facet normal -1.632141e-17 1.325571e-15 -1.000000e+00
    outer loop
      vertex   1.577245e+00 -8.945000e+00 0.000000e+00
      vertex   7.922835e-01 -8.913769e+00 5.421011e-17
      vertex   9.864777e-01 -8.896362e+00 7.411538e-17
    endloop
  endfacet
  facet normal -3.315703e-17 1.121083e-15 -1.000000e+00
    outer loop
      vertex   1.577245e+00 -8.945000e+00 0.000000e+00
      vertex   9.864777e-01 -8.896362e+00 7.411538e-17
      vertex   1.178590e+00 -8.875191e+00 9.147956e-17
    endloop
  endfacet
  facet normal -6.128277e-17 9.604656e-16 -1.000000e+00
    outer loop
      vertex   1.178590e+00 -8.875191e+00 9.147956e-17
      vertex   1.368355e+00 -8.850296e+00 1.037615e-16
      vertex   1.577245e+00 -8.945000e+00 0.000000e+00
    endloop
  endfacet
  facet normal -1.065443e-16 8.606318e-16 -1.000000e+00
    outer loop
      vertex   1.577245e+00 -8.945000e+00 0.000000e+00
      vertex   1.368355e+00 -8.850296e+00 1.037615e-16
      vertex   1.555506e+00 -8.821714e+00 1.084202e-16
    endloop
  endfacet
  facet normal -1.982323e-03 1.736481e-01 9.848058e-01
    outer loop
      vertex   -1.289289e-15 -8.821714e+00 1.555506e+00
      vertex   -1.095447e-15 -8.945000e+00 1.577245e+00
      vertex   1.979292e-01 -8.819648e+00 1.555540e+00
    endloop
  endfacet
  facet normal -3.796129e-03 1.764257e-01 9.843066e-01
    outer loop
      vertex   1.979292e-01 -8.819648e+00 1.555540e+00
      vertex   -1.095447e-15 -8.945000e+00 1.577245e+00
      vertex   3.914803e-01 -8.945000e+00 1.578755e+00
    endloop
  endfacet
  facet normal -5.889818e-03 1.732940e-01 9.848525e-01
    outer loop
      vertex   1.979292e-01 -8.819648e+00 1.555540e+00
      vertex   3.914803e-01 -8.945000e+00 1.578755e+00
      vertex   3.946306e-01 -8.813487e+00 1.555633e+00
    endloop
  endfacet
  facet normal -9.744445e-03 1.733783e-01 9.848071e-01
    outer loop
      vertex   3.946306e-01 -8.813487e+00 1.555633e+00
      vertex   3.914803e-01 -8.945000e+00 1.578755e+00
      vertex   5.898157e-01 -8.803283e+00 1.555767e+00
    endloop
  endfacet
  facet normal -1.137854e-02 1.755986e-01 9.843961e-01
    outer loop
      vertex   5.898157e-01 -8.803283e+00 1.555767e+00
      vertex   3.914803e-01 -8.945000e+00 1.578755e+00
      vertex   7.840865e-01 -8.945000e+00 1.583293e+00
    endloop
  endfacet
  facet normal -1.350677e-02 1.727730e-01 9.848691e-01
    outer loop
      vertex   5.898157e-01 -8.803283e+00 1.555767e+00
      vertex   7.840865e-01 -8.945000e+00 1.583293e+00
      vertex   7.831960e-01 -8.789091e+00 1.555930e+00
    endloop
  endfacet
  facet normal -1.726819e-02 1.727422e-01 9.848157e-01
    outer loop
      vertex   7.831960e-01 -8.789091e+00 1.555930e+00
      vertex   7.840865e-01 -8.945000e+00 1.583293e+00
      vertex   9.744829e-01 -8.770963e+00 1.556104e+00
    endloop
  endfacet
  facet normal -1.892954e-02 1.745063e-01 9.844741e-01
    outer loop
      vertex   9.744829e-01 -8.770963e+00 1.556104e+00
      vertex   7.840865e-01 -8.945000e+00 1.583293e+00
      vertex   1.178955e+00 -8.945000e+00 1.590885e+00
    endloop
  endfacet
  facet normal -2.095540e-02 1.721991e-01 9.848392e-01
    outer loop
      vertex   9.744829e-01 -8.770963e+00 1.556104e+00
      vertex   1.178955e+00 -8.945000e+00 1.590885e+00
      vertex   1.163388e+00 -8.748954e+00 1.556275e+00
    endloop
  endfacet
  facet normal -2.465583e-02 1.718994e-01 9.848059e-01
    outer loop
      vertex   1.163388e+00 -8.748954e+00 1.556275e+00
      vertex   1.178955e+00 -8.945000e+00 1.590885e+00
      vertex   1.349623e+00 -8.723116e+00 1.556428e+00
    endloop
  endfacet
  facet normal -2.642719e-02 1.732189e-01 9.845287e-01
    outer loop
      vertex   1.349623e+00 -8.723116e+00 1.556428e+00
      vertex   1.178955e+00 -8.945000e+00 1.590885e+00
      vertex   1.577245e+00 -8.945000e+00 1.601576e+00
    endloop
  endfacet
  facet normal -2.832068e-02 1.713328e-01 9.848061e-01
    outer loop
      vertex   1.349623e+00 -8.723116e+00 1.556428e+00
      vertex   1.577245e+00 -8.945000e+00 1.601576e+00
      vertex   1.532899e+00 -8.693502e+00 1.556547e+00
    endloop
  endfacet
endsolid
