solid ASCII
  facet normal -8.660254e-01 5.000000e-01 -2.691074e-15
    outer loop
      vertex   -9.904507e-01 -1.715511e+00 1.123425e+01
      vertex   -8.681372e-01 -1.503658e+00 1.127874e+01
      vertex   0.000000e+00 0.000000e+00 -8.881784e-15
    endloop
  endfacet
  facet normal -8.660254e-01 5.000000e-01 0.000000e+00
    outer loop
      vertex   0.000000e+00 0.000000e+00 -8.881784e-15
      vertex   -8.681372e-01 -1.503658e+00 1.127874e+01
      vertex   -7.453032e-01 -1.290903e+00 1.131739e+01
    endloop
  endfacet
  facet normal -8.660254e-01 5.000000e-01 7.818789e-17
    outer loop
      vertex   0.000000e+00 0.000000e+00 -8.881784e-15
      vertex   -7.453032e-01 -1.290903e+00 1.131739e+01
      vertex   -6.219958e-01 -1.077328e+00 1.135016e+01
    endloop
  endfacet
  facet normal -8.660254e-01 5.000000e-01 1.367160e-16
    outer loop
      vertex   -6.219958e-01 -1.077328e+00 1.135016e+01
      vertex   -4.982619e-01 -8.630149e-01 1.137703e+01
      vertex   0.000000e+00 0.000000e+00 -8.881784e-15
    endloop
  endfacet
  facet normal -8.660254e-01 5.000000e-01 1.560968e-16
    outer loop
      vertex   0.000000e+00 0.000000e+00 -8.881784e-15
      vertex   -4.982619e-01 -8.630149e-01 1.137703e+01
      vertex   -3.741484e-01 -6.480441e-01 1.139798e+01
    endloop
  endfacet
  facet normal -8.660254e-01 5.000000e-01 9.745333e-17
    outer loop
      vertex   0.000000e+00 0.000000e+00 -8.881784e-15
      vertex   -3.741484e-01 -6.480441e-01 1.139798e+01
      vertex   -2.497023e-01 -4.324970e-01 1.141297e+01
    endloop
  endfacet
  facet normal -8.660254e-01 5.000000e-01 5.109956e-17
    outer loop
      vertex   -2.497023e-01 -4.324970e-01 1.141297e+01
      vertex   -1.249704e-01 -2.164552e-01 1.142199e+01
      vertex   0.000000e+00 0.000000e+00 -8.881784e-15
    endloop
  endfacet
  facet normal -8.660254e-01 5.000000e-01 -5.140425e-17
    outer loop
      vertex   0.000000e+00 0.000000e+00 -8.881784e-15
      vertex   -1.249704e-01 -2.164552e-01 1.142199e+01
      vertex   -6.781482e-16 -8.117450e-32 1.142500e+01
    endloop
  endfacet
  facet normal -8.613063e-02 -1.568893e-01 9.838533e-01
    outer loop
      vertex   -8.681372e-01 -1.503658e+00 1.127874e+01
      vertex   -9.904507e-01 -1.715511e+00 1.123425e+01
      vertex   -8.144976e-01 -1.669499e+00 1.125699e+01
    endloop
  endfacet
  facet normal -8.471473e-02 -1.619585e-01 9.831545e-01
    outer loop
      vertex   -8.144976e-01 -1.669499e+00 1.125699e+01
      vertex   -9.904507e-01 -1.715511e+00 1.123425e+01
      vertex   -9.146565e-01 -1.757031e+00 1.123394e+01
    endloop
  endfacet
  facet normal -7.913622e-02 -1.681886e-01 9.825732e-01
    outer loop
      vertex   -8.144976e-01 -1.669499e+00 1.125699e+01
      vertex   -9.146565e-01 -1.757031e+00 1.123394e+01
      vertex   -8.371250e-01 -1.795209e+00 1.123365e+01
    endloop
  endfacet
  facet normal -7.219444e-02 -1.694957e-01 9.828831e-01
    outer loop
      vertex   -8.144976e-01 -1.669499e+00 1.125699e+01
      vertex   -8.371250e-01 -1.795209e+00 1.123365e+01
      vertex   -6.965515e-01 -1.719737e+00 1.125699e+01
    endloop
  endfacet
  facet normal -7.159058e-02 -1.705763e-01 9.827403e-01
    outer loop
      vertex   -6.965515e-01 -1.719737e+00 1.125699e+01
      vertex   -8.371250e-01 -1.795209e+00 1.123365e+01
      vertex   -7.580027e-01 -1.829971e+00 1.123338e+01
    endloop
  endfacet
  facet normal -6.469451e-02 -1.743799e-01 9.825509e-01
    outer loop
      vertex   -6.965515e-01 -1.719737e+00 1.125699e+01
      vertex   -7.580027e-01 -1.829971e+00 1.123338e+01
      vertex   -6.774409e-01 -1.861253e+00 1.123313e+01
    endloop
  endfacet
  facet normal -5.148736e-02 -1.727758e-01 9.836146e-01
    outer loop
      vertex   -6.774409e-01 -1.861253e+00 1.123313e+01
      vertex   -5.937930e-01 -1.631433e+00 1.127788e+01
      vertex   -6.965515e-01 -1.719737e+00 1.125699e+01
    endloop
  endfacet
  facet normal -6.049003e-02 -1.625888e-01 9.848380e-01
    outer loop
      vertex   -6.965515e-01 -1.719737e+00 1.125699e+01
      vertex   -5.937930e-01 -1.631433e+00 1.127788e+01
      vertex   -6.492083e-01 -1.602849e+00 1.127920e+01
    endloop
  endfacet
  facet normal -6.796380e-02 -1.595631e-01 9.848454e-01
    outer loop
      vertex   -6.965515e-01 -1.719737e+00 1.125699e+01
      vertex   -6.492083e-01 -1.602849e+00 1.127920e+01
      vertex   -8.144976e-01 -1.669499e+00 1.125699e+01
    endloop
  endfacet
  facet normal -6.796380e-02 -1.595631e-01 9.848454e-01
    outer loop
      vertex   -8.144976e-01 -1.669499e+00 1.125699e+01
      vertex   -6.492083e-01 -1.602849e+00 1.127920e+01
      vertex   -7.591378e-01 -1.556026e+00 1.127920e+01
    endloop
  endfacet
  facet normal -7.834432e-02 -1.545057e-01 9.848808e-01
    outer loop
      vertex   -8.144976e-01 -1.669499e+00 1.125699e+01
      vertex   -7.591378e-01 -1.556026e+00 1.127920e+01
      vertex   -8.681372e-01 -1.503658e+00 1.127874e+01
    endloop
  endfacet
  facet normal -7.309185e-02 -1.435554e-01 9.869394e-01
    outer loop
      vertex   -8.681372e-01 -1.503658e+00 1.127874e+01
      vertex   -7.591378e-01 -1.556026e+00 1.127920e+01
      vertex   -7.038833e-01 -1.442770e+00 1.129976e+01
    endloop
  endfacet
  facet normal -7.622227e-02 -1.354254e-01 9.878513e-01
    outer loop
      vertex   -8.681372e-01 -1.503658e+00 1.127874e+01
      vertex   -7.038833e-01 -1.442770e+00 1.129976e+01
      vertex   -7.453032e-01 -1.290903e+00 1.131739e+01
    endloop
  endfacet
  facet normal -6.701208e-02 -1.330287e-01 9.888442e-01
    outer loop
      vertex   -7.453032e-01 -1.290903e+00 1.131739e+01
      vertex   -7.038833e-01 -1.442770e+00 1.129976e+01
      vertex   -6.487454e-01 -1.329752e+00 1.131870e+01
    endloop
  endfacet
  facet normal -6.063508e-02 -1.170967e-01 9.912678e-01
    outer loop
      vertex   -7.453032e-01 -1.290903e+00 1.131739e+01
      vertex   -6.487454e-01 -1.329752e+00 1.131870e+01
      vertex   -6.219958e-01 -1.077328e+00 1.135016e+01
    endloop
  endfacet
  facet normal -5.762477e-02 -1.174331e-01 9.914075e-01
    outer loop
      vertex   -6.219958e-01 -1.077328e+00 1.135016e+01
      vertex   -6.487454e-01 -1.329752e+00 1.131870e+01
      vertex   -5.388640e-01 -1.104525e+00 1.135177e+01
    endloop
  endfacet
  facet normal -5.050190e-02 -9.549822e-02 9.941477e-01
    outer loop
      vertex   -6.219958e-01 -1.077328e+00 1.135016e+01
      vertex   -5.388640e-01 -1.104525e+00 1.135177e+01
      vertex   -4.982619e-01 -8.630149e-01 1.137703e+01
    endloop
  endfacet
  facet normal -4.602090e-02 -9.626656e-02 9.942911e-01
    outer loop
      vertex   -4.982619e-01 -8.630149e-01 1.137703e+01
      vertex   -5.388640e-01 -1.104525e+00 1.135177e+01
      vertex   -4.295795e-01 -8.805213e-01 1.137851e+01
    endloop
  endfacet
  facet normal -4.034226e-02 -7.380409e-02 9.964565e-01
    outer loop
      vertex   -4.982619e-01 -8.630149e-01 1.137703e+01
      vertex   -4.295795e-01 -8.805213e-01 1.137851e+01
      vertex   -3.741484e-01 -6.480441e-01 1.139798e+01
    endloop
  endfacet
  facet normal -3.445812e-02 -7.521673e-02 9.965717e-01
    outer loop
      vertex   -3.741484e-01 -6.480441e-01 1.139798e+01
      vertex   -4.295795e-01 -8.805213e-01 1.137851e+01
      vertex   -3.209743e-01 -6.579103e-01 1.139907e+01
    endloop
  endfacet
  facet normal -3.018602e-02 -5.201284e-02 9.981901e-01
    outer loop
      vertex   -3.741484e-01 -6.480441e-01 1.139798e+01
      vertex   -3.209743e-01 -6.579103e-01 1.139907e+01
      vertex   -2.497023e-01 -4.324970e-01 1.141297e+01
    endloop
  endfacet
  facet normal -2.292863e-02 -5.431187e-02 9.982607e-01
    outer loop
      vertex   -2.497023e-01 -4.324970e-01 1.141297e+01
      vertex   -3.209743e-01 -6.579103e-01 1.139907e+01
      vertex   -2.131271e-01 -4.368526e-01 1.141358e+01
    endloop
  endfacet
  facet normal -2.006583e-02 -3.012190e-02 9.993448e-01
    outer loop
      vertex   -2.497023e-01 -4.324970e-01 1.141297e+01
      vertex   -2.131271e-01 -4.368526e-01 1.141358e+01
      vertex   -1.249704e-01 -2.164552e-01 1.142199e+01
    endloop
  endfacet
  facet normal -1.142340e-02 -3.357977e-02 9.993708e-01
    outer loop
      vertex   -1.249704e-01 -2.164552e-01 1.142199e+01
      vertex   -2.131271e-01 -4.368526e-01 1.141358e+01
      vertex   -1.061121e-01 -2.175010e-01 1.142217e+01
    endloop
  endfacet
  facet normal -1.001710e-02 -8.127620e-03 9.999168e-01
    outer loop
      vertex   -1.249704e-01 -2.164552e-01 1.142199e+01
      vertex   -1.061121e-01 -2.175010e-01 1.142217e+01
      vertex   -6.781482e-16 -8.117450e-32 1.142500e+01
    endloop
  endfacet
  facet normal -5.485272e-02 -1.517543e-01 9.868950e-01
    outer loop
      vertex   -6.492083e-01 -1.602849e+00 1.127920e+01
      vertex   -5.937930e-01 -1.631433e+00 1.127788e+01
      vertex   -6.019551e-01 -1.486185e+00 1.129976e+01
    endloop
  endfacet
  facet normal -4.174095e-02 -1.511286e-01 9.876324e-01
    outer loop
      vertex   -6.019551e-01 -1.486185e+00 1.129976e+01
      vertex   -5.937930e-01 -1.631433e+00 1.127788e+01
      vertex   -5.097857e-01 -1.400625e+00 1.131675e+01
    endloop
  endfacet
  facet normal -5.274032e-02 -1.395142e-01 9.888146e-01
    outer loop
      vertex   -6.019551e-01 -1.486185e+00 1.129976e+01
      vertex   -5.097857e-01 -1.400625e+00 1.131675e+01
      vertex   -5.548017e-01 -1.369766e+00 1.131870e+01
    endloop
  endfacet
  facet normal -4.294669e-02 -1.253772e-01 9.911792e-01
    outer loop
      vertex   -5.548017e-01 -1.369766e+00 1.131870e+01
      vertex   -5.097857e-01 -1.400625e+00 1.131675e+01
      vertex   -4.254513e-01 -1.168918e+00 1.134971e+01
    endloop
  endfacet
  facet normal -4.927494e-02 -1.213339e-01 9.913880e-01
    outer loop
      vertex   -5.548017e-01 -1.369766e+00 1.131870e+01
      vertex   -4.254513e-01 -1.168918e+00 1.134971e+01
      vertex   -4.608319e-01 -1.137762e+00 1.135177e+01
    endloop
  endfacet
  facet normal -3.334927e-02 -1.034262e-01 9.940779e-01
    outer loop
      vertex   -4.608319e-01 -1.137762e+00 1.135177e+01
      vertex   -4.254513e-01 -1.168918e+00 1.134971e+01
      vertex   -3.408218e-01 -9.364003e-01 1.137674e+01
    endloop
  endfacet
  facet normal -4.230110e-02 -9.811552e-02 9.942756e-01
    outer loop
      vertex   -4.608319e-01 -1.137762e+00 1.135177e+01
      vertex   -3.408218e-01 -9.364003e-01 1.137674e+01
      vertex   -3.673728e-01 -9.070174e-01 1.137851e+01
    endloop
  endfacet
  facet normal -2.366429e-02 -8.140293e-02 9.964003e-01
    outer loop
      vertex   -3.673728e-01 -9.070174e-01 1.137851e+01
      vertex   -3.408218e-01 -9.364003e-01 1.137674e+01
      vertex   -2.559298e-01 -7.031612e-01 1.139782e+01
    endloop
  endfacet
  facet normal -3.541562e-02 -7.499342e-02 9.965549e-01
    outer loop
      vertex   -3.673728e-01 -9.070174e-01 1.137851e+01
      vertex   -2.559298e-01 -7.031612e-01 1.139782e+01
      vertex   -2.744946e-01 -6.777077e-01 1.139907e+01
    endloop
  endfacet
  facet normal -1.384526e-02 -5.933907e-02 9.981419e-01
    outer loop
      vertex   -2.744946e-01 -6.777077e-01 1.139907e+01
      vertex   -2.559298e-01 -7.031612e-01 1.139782e+01
      vertex   -1.708072e-01 -4.692890e-01 1.141290e+01
    endloop
  endfacet
  facet normal -2.866223e-02 -5.197401e-02 9.982370e-01
    outer loop
      vertex   -2.744946e-01 -6.777077e-01 1.139907e+01
      vertex   -1.708072e-01 -4.692890e-01 1.141290e+01
      vertex   -1.822645e-01 -4.499981e-01 1.141358e+01
    endloop
  endfacet
  facet normal -3.840318e-03 -3.726889e-02 9.992979e-01
    outer loop
      vertex   -1.822645e-01 -4.499981e-01 1.141358e+01
      vertex   -1.708072e-01 -4.692890e-01 1.141290e+01
      vertex   -8.548652e-02 -2.348723e-01 1.142197e+01
    endloop
  endfacet
  facet normal -2.208593e-02 -2.906219e-02 9.993336e-01
    outer loop
      vertex   -1.822645e-01 -4.499981e-01 1.141358e+01
      vertex   -8.548652e-02 -2.348723e-01 1.142197e+01
      vertex   -9.074618e-02 -2.240459e-01 1.142217e+01
    endloop
  endfacet
  facet normal 6.407713e-03 -1.522913e-02 9.998635e-01
    outer loop
      vertex   -9.074618e-02 -2.240459e-01 1.142217e+01
      vertex   -8.548652e-02 -2.348723e-01 1.142197e+01
      vertex   -6.781482e-16 -8.117450e-32 1.142500e+01
    endloop
  endfacet
  facet normal -4.589746e-03 -1.077565e-02 9.999314e-01
    outer loop
      vertex   -9.074618e-02 -2.240459e-01 1.142217e+01
      vertex   -6.781482e-16 -8.117450e-32 1.142500e+01
      vertex   -1.061121e-01 -2.175010e-01 1.142217e+01
    endloop
  endfacet
  facet normal -6.319896e-02 -1.483764e-01 9.869095e-01
    outer loop
      vertex   -6.492083e-01 -1.602849e+00 1.127920e+01
      vertex   -6.019551e-01 -1.486185e+00 1.129976e+01
      vertex   -7.591378e-01 -1.556026e+00 1.127920e+01
    endloop
  endfacet
  facet normal -6.319896e-02 -1.483764e-01 9.869095e-01
    outer loop
      vertex   -7.591378e-01 -1.556026e+00 1.127920e+01
      vertex   -6.019551e-01 -1.486185e+00 1.129976e+01
      vertex   -7.038833e-01 -1.442770e+00 1.129976e+01
    endloop
  endfacet
  facet normal -5.844096e-02 -1.372057e-01 9.888171e-01
    outer loop
      vertex   -6.019551e-01 -1.486185e+00 1.129976e+01
      vertex   -5.548017e-01 -1.369766e+00 1.131870e+01
      vertex   -7.038833e-01 -1.442770e+00 1.129976e+01
    endloop
  endfacet
  facet normal -5.844096e-02 -1.372057e-01 9.888171e-01
    outer loop
      vertex   -7.038833e-01 -1.442770e+00 1.129976e+01
      vertex   -5.548017e-01 -1.369766e+00 1.131870e+01
      vertex   -6.487454e-01 -1.329752e+00 1.131870e+01
    endloop
  endfacet
  facet normal -5.132648e-02 -1.205026e-01 9.913853e-01
    outer loop
      vertex   -5.548017e-01 -1.369766e+00 1.131870e+01
      vertex   -4.608319e-01 -1.137762e+00 1.135177e+01
      vertex   -6.487454e-01 -1.329752e+00 1.131870e+01
    endloop
  endfacet
  facet normal -5.132648e-02 -1.205026e-01 9.913853e-01
    outer loop
      vertex   -6.487454e-01 -1.329752e+00 1.131870e+01
      vertex   -4.608319e-01 -1.137762e+00 1.135177e+01
      vertex   -5.388640e-01 -1.104525e+00 1.135177e+01
    endloop
  endfacet
  facet normal -4.186610e-02 -9.829182e-02 9.942766e-01
    outer loop
      vertex   -4.608319e-01 -1.137762e+00 1.135177e+01
      vertex   -3.673728e-01 -9.070174e-01 1.137851e+01
      vertex   -5.388640e-01 -1.104525e+00 1.135177e+01
    endloop
  endfacet
  facet normal -4.186610e-02 -9.829182e-02 9.942766e-01
    outer loop
      vertex   -5.388640e-01 -1.104525e+00 1.135177e+01
      vertex   -3.673728e-01 -9.070174e-01 1.137851e+01
      vertex   -4.295795e-01 -8.805213e-01 1.137851e+01
    endloop
  endfacet
  facet normal -3.245380e-02 -7.619394e-02 9.965647e-01
    outer loop
      vertex   -3.673728e-01 -9.070174e-01 1.137851e+01
      vertex   -2.744946e-01 -6.777077e-01 1.139907e+01
      vertex   -4.295795e-01 -8.805213e-01 1.137851e+01
    endloop
  endfacet
  facet normal -3.245380e-02 -7.619394e-02 9.965647e-01
    outer loop
      vertex   -4.295795e-01 -8.805213e-01 1.137851e+01
      vertex   -2.744946e-01 -6.777077e-01 1.139907e+01
      vertex   -3.209743e-01 -6.579103e-01 1.139907e+01
    endloop
  endfacet
  facet normal -1.380757e-02 -3.241694e-02 9.993791e-01
    outer loop
      vertex   -9.074618e-02 -2.240459e-01 1.142217e+01
      vertex   -1.061121e-01 -2.175010e-01 1.142217e+01
      vertex   -2.131271e-01 -4.368526e-01 1.141358e+01
    endloop
  endfacet
  facet normal -2.309820e-02 -5.422918e-02 9.982613e-01
    outer loop
      vertex   -2.744946e-01 -6.777077e-01 1.139907e+01
      vertex   -1.822645e-01 -4.499981e-01 1.141358e+01
      vertex   -3.209743e-01 -6.579103e-01 1.139907e+01
    endloop
  endfacet
  facet normal -2.309820e-02 -5.422918e-02 9.982613e-01
    outer loop
      vertex   -3.209743e-01 -6.579103e-01 1.139907e+01
      vertex   -1.822645e-01 -4.499981e-01 1.141358e+01
      vertex   -2.131271e-01 -4.368526e-01 1.141358e+01
    endloop
  endfacet
  facet normal -1.380757e-02 -3.241694e-02 9.993791e-01
    outer loop
      vertex   -1.822645e-01 -4.499981e-01 1.141358e+01
      vertex   -9.074618e-02 -2.240459e-01 1.142217e+01
      vertex   -2.131271e-01 -4.368526e-01 1.141358e+01
    endloop
  endfacet
  facet normal 9.396926e-01 -3.420201e-01 1.468074e-16
    outer loop
      vertex   -6.774409e-01 -1.861253e+00 1.123313e+01
      vertex   0.000000e+00 0.000000e+00 -8.881784e-15
      vertex   -5.937930e-01 -1.631433e+00 1.127788e+01
    endloop
  endfacet
  facet normal 9.396926e-01 -3.420201e-01 0.000000e+00
    outer loop
      vertex   -5.937930e-01 -1.631433e+00 1.127788e+01
      vertex   0.000000e+00 0.000000e+00 -8.881784e-15
      vertex   -5.097857e-01 -1.400625e+00 1.131675e+01
    endloop
  endfacet
  facet normal 9.396926e-01 -3.420201e-01 8.308330e-17
    outer loop
      vertex   -5.097857e-01 -1.400625e+00 1.131675e+01
      vertex   0.000000e+00 0.000000e+00 -8.881784e-15
      vertex   -4.254513e-01 -1.168918e+00 1.134971e+01
    endloop
  endfacet
  facet normal 9.396926e-01 -3.420201e-01 2.929868e-17
    outer loop
      vertex   -4.254513e-01 -1.168918e+00 1.134971e+01
      vertex   0.000000e+00 0.000000e+00 -8.881784e-15
      vertex   -3.408218e-01 -9.364003e-01 1.137674e+01
    endloop
  endfacet
  facet normal 9.396926e-01 -3.420201e-01 5.366139e-17
    outer loop
      vertex   -3.408218e-01 -9.364003e-01 1.137674e+01
      vertex   0.000000e+00 0.000000e+00 -8.881784e-15
      vertex   -2.559298e-01 -7.031612e-01 1.139782e+01
    endloop
  endfacet
  facet normal 9.396926e-01 -3.420201e-01 3.167339e-17
    outer loop
      vertex   -2.559298e-01 -7.031612e-01 1.139782e+01
      vertex   0.000000e+00 0.000000e+00 -8.881784e-15
      vertex   -1.708072e-01 -4.692890e-01 1.141290e+01
    endloop
  endfacet
  facet normal 9.396926e-01 -3.420201e-01 5.353327e-17
    outer loop
      vertex   -1.708072e-01 -4.692890e-01 1.141290e+01
      vertex   0.000000e+00 0.000000e+00 -8.881784e-15
      vertex   -8.548652e-02 -2.348723e-01 1.142197e+01
    endloop
  endfacet
  facet normal 9.396926e-01 -3.420201e-01 5.588766e-17
    outer loop
      vertex   -8.548652e-02 -2.348723e-01 1.142197e+01
      vertex   0.000000e+00 0.000000e+00 -8.881784e-15
      vertex   -6.781482e-16 -8.117450e-32 1.142500e+01
    endloop
  endfacet
  facet normal -3.568959e-01 -9.177486e-01 -1.742492e-01
    outer loop
      vertex   -7.580027e-01 -1.829971e+00 1.123338e+01
      vertex   -5.581121e-01 -1.196870e+00 7.489500e+00
      vertex   -6.774409e-01 -1.861253e+00 1.123313e+01
    endloop
  endfacet
  facet normal -3.768813e-01 -9.098695e-01 -1.734879e-01
    outer loop
      vertex   -6.774409e-01 -1.861253e+00 1.123313e+01
      vertex   -5.581121e-01 -1.196870e+00 7.489500e+00
      vertex   -2.790555e-01 -5.984352e-01 3.744750e+00
    endloop
  endfacet
  facet normal -3.768808e-01 -9.098697e-01 -1.734879e-01
    outer loop
      vertex   -6.774409e-01 -1.861253e+00 1.123313e+01
      vertex   -2.790555e-01 -5.984352e-01 3.744750e+00
      vertex   0.000000e+00 0.000000e+00 -8.881784e-15
    endloop
  endfacet
  facet normal -3.966328e-01 -9.014115e-01 -1.736081e-01
    outer loop
      vertex   -7.580027e-01 -1.829971e+00 1.123338e+01
      vertex   -8.371250e-01 -1.795209e+00 1.123365e+01
      vertex   -5.581121e-01 -1.196870e+00 7.489500e+00
    endloop
  endfacet
  facet normal -4.355744e-01 -8.832526e-01 -1.736081e-01
    outer loop
      vertex   -5.581121e-01 -1.196870e+00 7.489500e+00
      vertex   -8.371250e-01 -1.795209e+00 1.123365e+01
      vertex   -9.146565e-01 -1.757031e+00 1.123394e+01
    endloop
  endfacet
  facet normal -4.736337e-01 -8.633124e-01 -1.742491e-01
    outer loop
      vertex   -5.581121e-01 -1.196870e+00 7.489500e+00
      vertex   -9.146565e-01 -1.757031e+00 1.123394e+01
      vertex   -9.904507e-01 -1.715511e+00 1.123425e+01
    endloop
  endfacet
  facet normal -4.547477e-01 -8.735596e-01 -1.734879e-01
    outer loop
      vertex   -5.581121e-01 -1.196870e+00 7.489500e+00
      vertex   -9.904507e-01 -1.715511e+00 1.123425e+01
      vertex   -2.790555e-01 -5.984352e-01 3.744750e+00
    endloop
  endfacet
  facet normal -4.547473e-01 -8.735599e-01 -1.734879e-01
    outer loop
      vertex   -2.790555e-01 -5.984352e-01 3.744750e+00
      vertex   -9.904507e-01 -1.715511e+00 1.123425e+01
      vertex   0.000000e+00 0.000000e+00 -8.881784e-15
    endloop
  endfacet
endsolid
