solid ASCII
  facet normal 9.396926e-01 -3.420201e-01 -8.017671e-15
    outer loop
      vertex   3.508284e+00 9.638930e+00 3.733438e+00
      vertex   0.000000e+00 0.000000e+00 0.000000e+00
      vertex   3.532881e+00 9.706512e+00 3.506835e+00
    endloop
  endfacet
  facet normal 9.396926e-01 -3.420201e-01 -7.360248e-15
    outer loop
      vertex   3.532881e+00 9.706512e+00 3.506835e+00
      vertex   0.000000e+00 0.000000e+00 0.000000e+00
      vertex   3.555915e+00 9.769797e+00 3.278894e+00
    endloop
  endfacet
  facet normal 9.396926e-01 -3.420201e-01 6.046931e-15
    outer loop
      vertex   3.555915e+00 9.769797e+00 3.278894e+00
      vertex   0.000000e+00 0.000000e+00 0.000000e+00
      vertex   3.577382e+00 9.828776e+00 3.049690e+00
    endloop
  endfacet
  facet normal 9.396926e-01 -3.420201e-01 -1.501951e-15
    outer loop
      vertex   3.577382e+00 9.828776e+00 3.049690e+00
      vertex   0.000000e+00 0.000000e+00 0.000000e+00
      vertex   3.597277e+00 9.883436e+00 2.819302e+00
    endloop
  endfacet
  facet normal 9.396926e-01 -3.420201e-01 1.610065e-15
    outer loop
      vertex   3.597277e+00 9.883436e+00 2.819302e+00
      vertex   0.000000e+00 0.000000e+00 0.000000e+00
      vertex   3.615596e+00 9.933769e+00 2.587807e+00
    endloop
  endfacet
  facet normal 9.396926e-01 -3.420201e-01 1.943604e-15
    outer loop
      vertex   3.615596e+00 9.933769e+00 2.587807e+00
      vertex   0.000000e+00 0.000000e+00 0.000000e+00
      vertex   3.632337e+00 9.979764e+00 2.355281e+00
    endloop
  endfacet
  facet normal 9.396926e-01 -3.420201e-01 -5.456616e-15
    outer loop
      vertex   3.632337e+00 9.979764e+00 2.355281e+00
      vertex   0.000000e+00 0.000000e+00 0.000000e+00
      vertex   3.647495e+00 1.002141e+01 2.121802e+00
    endloop
  endfacet
  facet normal 9.396926e-01 -3.420201e-01 -3.577567e-15
    outer loop
      vertex   3.647495e+00 1.002141e+01 2.121802e+00
      vertex   0.000000e+00 0.000000e+00 0.000000e+00
      vertex   3.661067e+00 1.005870e+01 1.887447e+00
    endloop
  endfacet
  facet normal 1.679281e-01 9.385821e-01 3.014363e-01
    outer loop
      vertex   1.790542e+00 1.015467e+01 3.500523e+00
      vertex   1.778111e+00 1.008417e+01 3.726958e+00
      vertex   2.007597e+00 1.011521e+01 3.502469e+00
    endloop
  endfacet
  facet normal 1.682256e-01 9.384375e-01 3.017205e-01
    outer loop
      vertex   2.007597e+00 1.011521e+01 3.502469e+00
      vertex   1.778111e+00 1.008417e+01 3.726958e+00
      vertex   1.998161e+00 1.004453e+01 3.727548e+00
    endloop
  endfacet
  facet normal 1.872874e-01 9.349185e-01 3.014147e-01
    outer loop
      vertex   2.007597e+00 1.011521e+01 3.502469e+00
      vertex   1.998161e+00 1.004453e+01 3.727548e+00
      vertex   2.225267e+00 1.007160e+01 3.502469e+00
    endloop
  endfacet
  facet normal 1.878156e-01 9.346509e-01 3.019154e-01
    outer loop
      vertex   2.225267e+00 1.007160e+01 3.502469e+00
      vertex   1.998161e+00 1.004453e+01 3.727548e+00
      vertex   2.217307e+00 1.000029e+01 3.728202e+00
    endloop
  endfacet
  facet normal 2.066084e-01 9.308515e-01 3.013777e-01
    outer loop
      vertex   2.225267e+00 1.007160e+01 3.502469e+00
      vertex   2.217307e+00 1.000029e+01 3.728202e+00
      vertex   2.443297e+00 1.002321e+01 3.502469e+00
    endloop
  endfacet
  facet normal 2.073345e-01 9.304670e-01 3.020655e-01
    outer loop
      vertex   2.443297e+00 1.002321e+01 3.502469e+00
      vertex   2.217307e+00 1.000029e+01 3.728202e+00
      vertex   2.435474e+00 9.951438e+00 3.728922e+00
    endloop
  endfacet
  facet normal 2.259626e-01 9.263363e-01 3.013999e-01
    outer loop
      vertex   2.443297e+00 1.002321e+01 3.502469e+00
      vertex   2.435474e+00 9.951438e+00 3.728922e+00
      vertex   2.661535e+00 9.969975e+00 3.502469e+00
    endloop
  endfacet
  facet normal 2.267772e-01 9.258843e-01 3.021760e-01
    outer loop
      vertex   2.661535e+00 9.969975e+00 3.502469e+00
      vertex   2.435474e+00 9.951438e+00 3.728922e+00
      vertex   2.652587e+00 9.898005e+00 3.729704e+00
    endloop
  endfacet
  facet normal 2.453364e-01 9.213695e-01 3.014769e-01
    outer loop
      vertex   2.661535e+00 9.969975e+00 3.502469e+00
      vertex   2.652587e+00 9.898005e+00 3.729704e+00
      vertex   2.879822e+00 9.911851e+00 3.502469e+00
    endloop
  endfacet
  facet normal 2.461363e-01 9.209033e-01 3.022484e-01
    outer loop
      vertex   2.879822e+00 9.911851e+00 3.502469e+00
      vertex   2.652587e+00 9.898005e+00 3.729704e+00
      vertex   2.868523e+00 9.840013e+00 3.730549e+00
    endloop
  endfacet
  facet normal 2.647159e-01 9.159467e-01 3.016076e-01
    outer loop
      vertex   2.879822e+00 9.911851e+00 3.502469e+00
      vertex   2.868523e+00 9.840013e+00 3.730549e+00
      vertex   3.097996e+00 9.848797e+00 3.502469e+00
    endloop
  endfacet
  facet normal 2.654033e-01 9.155250e-01 3.022831e-01
    outer loop
      vertex   3.097996e+00 9.848797e+00 3.502469e+00
      vertex   2.868523e+00 9.840013e+00 3.730549e+00
      vertex   3.083167e+00 9.777491e+00 3.731454e+00
    endloop
  endfacet
  facet normal 2.840865e-01 9.100639e-01 3.017923e-01
    outer loop
      vertex   3.097996e+00 9.848797e+00 3.502469e+00
      vertex   3.083167e+00 9.777491e+00 3.731454e+00
      vertex   3.315891e+00 9.780779e+00 3.502469e+00
    endloop
  endfacet
  facet normal 2.845714e-01 9.097502e-01 3.022807e-01
    outer loop
      vertex   3.315891e+00 9.780779e+00 3.502469e+00
      vertex   3.083167e+00 9.777491e+00 3.731454e+00
      vertex   3.296446e+00 9.710457e+00 3.732417e+00
    endloop
  endfacet
  facet normal 3.032476e-01 9.037790e-01 3.020339e-01
    outer loop
      vertex   3.315891e+00 9.780779e+00 3.502469e+00
      vertex   3.296446e+00 9.710457e+00 3.732417e+00
      vertex   3.532881e+00 9.706512e+00 3.506835e+00
    endloop
  endfacet
  facet normal 3.036160e-01 9.035246e-01 3.024245e-01
    outer loop
      vertex   3.532881e+00 9.706512e+00 3.506835e+00
      vertex   3.296446e+00 9.710457e+00 3.732417e+00
      vertex   3.508284e+00 9.638930e+00 3.733438e+00
    endloop
  endfacet
  facet normal 3.054463e-01 9.090998e-01 2.832668e-01
    outer loop
      vertex   3.532881e+00 9.706512e+00 3.506835e+00
      vertex   3.555915e+00 9.769797e+00 3.278894e+00
      vertex   3.315891e+00 9.780779e+00 3.502469e+00
    endloop
  endfacet
  facet normal 3.049825e-01 9.094153e-01 2.827533e-01
    outer loop
      vertex   3.315891e+00 9.780779e+00 3.502469e+00
      vertex   3.555915e+00 9.769797e+00 3.278894e+00
      vertex   3.337789e+00 9.845371e+00 3.271103e+00
    endloop
  endfacet
  facet normal 2.858270e-01 9.156397e-01 2.826780e-01
    outer loop
      vertex   3.315891e+00 9.780779e+00 3.502469e+00
      vertex   3.337789e+00 9.845371e+00 3.271103e+00
      vertex   3.097996e+00 9.848797e+00 3.502469e+00
    endloop
  endfacet
  facet normal 2.858270e-01 9.156397e-01 2.826780e-01
    outer loop
      vertex   3.097996e+00 9.848797e+00 3.502469e+00
      vertex   3.337789e+00 9.845371e+00 3.271103e+00
      vertex   3.118455e+00 9.913838e+00 3.271103e+00
    endloop
  endfacet
  facet normal 2.663272e-01 9.215221e-01 2.826073e-01
    outer loop
      vertex   3.097996e+00 9.848797e+00 3.502469e+00
      vertex   3.118455e+00 9.913838e+00 3.271103e+00
      vertex   2.879822e+00 9.911851e+00 3.502469e+00
    endloop
  endfacet
  facet normal 2.663272e-01 9.215221e-01 2.826073e-01
    outer loop
      vertex   2.879822e+00 9.911851e+00 3.502469e+00
      vertex   3.118455e+00 9.913838e+00 3.271103e+00
      vertex   2.898840e+00 9.977309e+00 3.271103e+00
    endloop
  endfacet
  facet normal 2.468241e-01 9.269564e-01 2.825416e-01
    outer loop
      vertex   2.879822e+00 9.911851e+00 3.502469e+00
      vertex   2.898840e+00 9.977309e+00 3.271103e+00
      vertex   2.661535e+00 9.969975e+00 3.502469e+00
    endloop
  endfacet
  facet normal 2.468241e-01 9.269564e-01 2.825416e-01
    outer loop
      vertex   2.661535e+00 9.969975e+00 3.502469e+00
      vertex   2.898840e+00 9.977309e+00 3.271103e+00
      vertex   2.679112e+00 1.003582e+01 3.271103e+00
    endloop
  endfacet
  facet normal 2.273312e-01 9.319469e-01 2.824810e-01
    outer loop
      vertex   2.661535e+00 9.969975e+00 3.502469e+00
      vertex   2.679112e+00 1.003582e+01 3.271103e+00
      vertex   2.443297e+00 1.002321e+01 3.502469e+00
    endloop
  endfacet
  facet normal 2.273312e-01 9.319469e-01 2.824810e-01
    outer loop
      vertex   2.443297e+00 1.002321e+01 3.502469e+00
      vertex   2.679112e+00 1.003582e+01 3.271103e+00
      vertex   2.459433e+00 1.008940e+01 3.271103e+00
    endloop
  endfacet
  facet normal 2.078618e-01 9.364985e-01 2.824254e-01
    outer loop
      vertex   2.443297e+00 1.002321e+01 3.502469e+00
      vertex   2.459433e+00 1.008940e+01 3.271103e+00
      vertex   2.225267e+00 1.007160e+01 3.502469e+00
    endloop
  endfacet
  facet normal 2.078618e-01 9.364985e-01 2.824254e-01
    outer loop
      vertex   2.225267e+00 1.007160e+01 3.502469e+00
      vertex   2.459433e+00 1.008940e+01 3.271103e+00
      vertex   2.239962e+00 1.013812e+01 3.271103e+00
    endloop
  endfacet
  facet normal 1.884289e-01 9.406163e-01 2.823748e-01
    outer loop
      vertex   2.225267e+00 1.007160e+01 3.502469e+00
      vertex   2.239962e+00 1.013812e+01 3.271103e+00
      vertex   2.007597e+00 1.011521e+01 3.502469e+00
    endloop
  endfacet
  facet normal 1.884289e-01 9.406163e-01 2.823748e-01
    outer loop
      vertex   2.007597e+00 1.011521e+01 3.502469e+00
      vertex   2.239962e+00 1.013812e+01 3.271103e+00
      vertex   2.020855e+00 1.018201e+01 3.271103e+00
    endloop
  endfacet
  facet normal 1.691370e-01 9.442894e-01 2.823299e-01
    outer loop
      vertex   2.007597e+00 1.011521e+01 3.502469e+00
      vertex   2.020855e+00 1.018201e+01 3.271103e+00
      vertex   1.790542e+00 1.015467e+01 3.500523e+00
    endloop
  endfacet
  facet normal 1.691266e-01 9.442942e-01 2.823200e-01
    outer loop
      vertex   1.790542e+00 1.015467e+01 3.500523e+00
      vertex   2.020855e+00 1.018201e+01 3.271103e+00
      vertex   1.802179e+00 1.022067e+01 3.272805e+00
    endloop
  endfacet
  facet normal 1.699287e-01 9.496764e-01 2.631329e-01
    outer loop
      vertex   1.802179e+00 1.022067e+01 3.272805e+00
      vertex   2.020855e+00 1.018201e+01 3.271103e+00
      vertex   1.813021e+00 1.028215e+01 3.043882e+00
    endloop
  endfacet
  facet normal 1.702163e-01 9.496955e-01 2.628782e-01
    outer loop
      vertex   1.813021e+00 1.028215e+01 3.043882e+00
      vertex   2.020855e+00 1.018201e+01 3.271103e+00
      vertex   2.033141e+00 1.024391e+01 3.039512e+00
    endloop
  endfacet
  facet normal 1.707023e-01 9.546640e-01 2.438798e-01
    outer loop
      vertex   1.813021e+00 1.028215e+01 3.043882e+00
      vertex   2.033141e+00 1.024391e+01 3.039512e+00
      vertex   1.823067e+00 1.033913e+01 2.813831e+00
    endloop
  endfacet
  facet normal 1.711781e-01 9.546891e-01 2.434476e-01
    outer loop
      vertex   1.823067e+00 1.033913e+01 2.813831e+00
      vertex   2.033141e+00 1.024391e+01 3.039512e+00
      vertex   2.044463e+00 1.030095e+01 2.807861e+00
    endloop
  endfacet
  facet normal 1.714565e-01 9.592564e-01 2.245658e-01
    outer loop
      vertex   1.823067e+00 1.033913e+01 2.813831e+00
      vertex   2.044463e+00 1.030095e+01 2.807861e+00
      vertex   1.832315e+00 1.039158e+01 2.582728e+00
    endloop
  endfacet
  facet normal 1.720135e-01 9.592775e-01 2.240494e-01
    outer loop
      vertex   1.832315e+00 1.039158e+01 2.582728e+00
      vertex   2.044463e+00 1.030095e+01 2.807861e+00
      vertex   2.054827e+00 1.035317e+01 2.576315e+00
    endloop
  endfacet
  facet normal 1.721910e-01 9.634547e-01 2.051955e-01
    outer loop
      vertex   1.832315e+00 1.039158e+01 2.582728e+00
      vertex   2.054827e+00 1.035317e+01 2.576315e+00
      vertex   1.840764e+00 1.043949e+01 2.350651e+00
    endloop
  endfacet
  facet normal 1.727236e-01 9.634660e-01 2.046946e-01
    outer loop
      vertex   1.840764e+00 1.043949e+01 2.350651e+00
      vertex   2.054827e+00 1.035317e+01 2.576315e+00
      vertex   2.064244e+00 1.040062e+01 2.345033e+00
    endloop
  endfacet
  facet normal 1.729078e-01 9.672596e-01 1.857734e-01
    outer loop
      vertex   1.840764e+00 1.043949e+01 2.350651e+00
      vertex   2.064244e+00 1.040062e+01 2.345033e+00
      vertex   1.848413e+00 1.048287e+01 2.117676e+00
    endloop
  endfacet
  facet normal 1.733078e-01 9.672608e-01 1.853940e-01
    outer loop
      vertex   1.848413e+00 1.048287e+01 2.117676e+00
      vertex   2.064244e+00 1.040062e+01 2.345033e+00
      vertex   2.072725e+00 1.044335e+01 2.114171e+00
    endloop
  endfacet
  facet normal 1.736104e-01 9.706712e-01 1.663037e-01
    outer loop
      vertex   1.848413e+00 1.048287e+01 2.117676e+00
      vertex   2.072725e+00 1.044335e+01 2.114171e+00
      vertex   1.855260e+00 1.052170e+01 1.883881e+00
    endloop
  endfacet
  facet normal 1.739615e-01 9.706654e-01 1.659702e-01
    outer loop
      vertex   1.855260e+00 1.052170e+01 1.883881e+00
      vertex   2.072725e+00 1.044335e+01 2.114171e+00
      vertex   2.084901e+00 1.048049e+01 1.884205e+00
    endloop
  endfacet
  facet normal 1.936840e-01 9.668496e-01 1.663982e-01
    outer loop
      vertex   2.084901e+00 1.048049e+01 1.884205e+00
      vertex   2.072725e+00 1.044335e+01 2.114171e+00
      vertex   2.297456e+00 1.039833e+01 2.114171e+00
    endloop
  endfacet
  facet normal 1.942370e-01 9.668278e-01 1.658793e-01
    outer loop
      vertex   2.084901e+00 1.048049e+01 1.884205e+00
      vertex   2.297456e+00 1.039833e+01 2.114171e+00
      vertex   2.313607e+00 1.043448e+01 1.884565e+00
    endloop
  endfacet
  facet normal 2.136557e-01 9.626019e-01 1.665798e-01
    outer loop
      vertex   2.313607e+00 1.043448e+01 1.884565e+00
      vertex   2.297456e+00 1.039833e+01 2.114171e+00
      vertex   2.522560e+00 1.034837e+01 2.114171e+00
    endloop
  endfacet
  facet normal 2.144364e-01 9.625541e-01 1.658514e-01
    outer loop
      vertex   2.313607e+00 1.043448e+01 1.884565e+00
      vertex   2.522560e+00 1.034837e+01 2.114171e+00
      vertex   2.541298e+00 1.038369e+01 1.884961e+00
    endloop
  endfacet
  facet normal 2.336665e-01 9.579186e-01 1.667092e-01
    outer loop
      vertex   2.541298e+00 1.038369e+01 1.884961e+00
      vertex   2.522560e+00 1.034837e+01 2.114171e+00
      vertex   2.747877e+00 1.029341e+01 2.114171e+00
    endloop
  endfacet
  facet normal 2.345531e-01 9.578456e-01 1.658813e-01
    outer loop
      vertex   2.541298e+00 1.038369e+01 1.884961e+00
      vertex   2.747877e+00 1.029341e+01 2.114171e+00
      vertex   2.767895e+00 1.032813e+01 1.885392e+00
    endloop
  endfacet
  facet normal 2.537038e-01 9.527935e-01 1.667903e-01
    outer loop
      vertex   2.767895e+00 1.032813e+01 1.885392e+00
      vertex   2.747877e+00 1.029341e+01 2.114171e+00
      vertex   2.973245e+00 1.023340e+01 2.114171e+00
    endloop
  endfacet
  facet normal 2.545786e-01 9.527037e-01 1.659678e-01
    outer loop
      vertex   2.767895e+00 1.032813e+01 1.885392e+00
      vertex   2.973245e+00 1.023340e+01 2.114171e+00
      vertex   2.993273e+00 1.026782e+01 1.885857e+00
    endloop
  endfacet
  facet normal 2.737545e-01 9.472214e-01 1.668234e-01
    outer loop
      vertex   2.993273e+00 1.026782e+01 1.885857e+00
      vertex   2.973245e+00 1.023340e+01 2.114171e+00
      vertex   3.198497e+00 1.016830e+01 2.114171e+00
    endloop
  endfacet
  facet normal 2.745025e-01 9.471301e-01 1.661113e-01
    outer loop
      vertex   2.993273e+00 1.026782e+01 1.885857e+00
      vertex   3.198497e+00 1.016830e+01 2.114171e+00
      vertex   3.217313e+00 1.020280e+01 1.886355e+00
    endloop
  endfacet
  facet normal 2.938053e-01 9.411981e-01 1.668071e-01
    outer loop
      vertex   3.217313e+00 1.020280e+01 1.886355e+00
      vertex   3.198497e+00 1.016830e+01 2.114171e+00
      vertex   3.423461e+00 1.009807e+01 2.114171e+00
    endloop
  endfacet
  facet normal 2.943163e-01 9.411261e-01 1.663117e-01
    outer loop
      vertex   3.217313e+00 1.020280e+01 1.886355e+00
      vertex   3.423461e+00 1.009807e+01 2.114171e+00
      vertex   3.439937e+00 1.013309e+01 1.886885e+00
    endloop
  endfacet
  facet normal 3.140035e-01 9.346649e-01 1.667435e-01
    outer loop
      vertex   3.439937e+00 1.013309e+01 1.886885e+00
      vertex   3.423461e+00 1.009807e+01 2.114171e+00
      vertex   3.661067e+00 1.005870e+01 1.887447e+00
    endloop
  endfacet
  facet normal 3.141324e-01 9.345953e-01 1.668906e-01
    outer loop
      vertex   3.661067e+00 1.005870e+01 1.887447e+00
      vertex   3.423461e+00 1.009807e+01 2.114171e+00
      vertex   3.647495e+00 1.002141e+01 2.121802e+00
    endloop
  endfacet
  facet normal 3.124683e-01 9.316031e-01 1.856857e-01
    outer loop
      vertex   3.647495e+00 1.002141e+01 2.121802e+00
      vertex   3.423461e+00 1.009807e+01 2.114171e+00
      vertex   3.409453e+00 1.005676e+01 2.345033e+00
    endloop
  endfacet
  facet normal 3.131165e-01 9.312358e-01 1.864350e-01
    outer loop
      vertex   3.647495e+00 1.002141e+01 2.121802e+00
      vertex   3.409453e+00 1.005676e+01 2.345033e+00
      vertex   3.632337e+00 9.979764e+00 2.355281e+00
    endloop
  endfacet
  facet normal 3.111403e-01 9.279877e-01 2.050137e-01
    outer loop
      vertex   3.632337e+00 9.979764e+00 2.355281e+00
      vertex   3.409453e+00 1.005676e+01 2.345033e+00
      vertex   3.393899e+00 1.001088e+01 2.576315e+00
    endloop
  endfacet
  facet normal 3.119252e-01 9.275221e-01 2.059259e-01
    outer loop
      vertex   3.632337e+00 9.979764e+00 2.355281e+00
      vertex   3.393899e+00 1.001088e+01 2.576315e+00
      vertex   3.615596e+00 9.933769e+00 2.587807e+00
    endloop
  endfacet
  facet normal 3.097310e-01 9.239661e-01 2.243954e-01
    outer loop
      vertex   3.615596e+00 9.933769e+00 2.587807e+00
      vertex   3.393899e+00 1.001088e+01 2.576315e+00
      vertex   3.376780e+00 9.960383e+00 2.807861e+00
    endloop
  endfacet
  facet normal 3.105618e-01 9.234526e-01 2.253591e-01
    outer loop
      vertex   3.615596e+00 9.933769e+00 2.587807e+00
      vertex   3.376780e+00 9.960383e+00 2.807861e+00
      vertex   3.597277e+00 9.883436e+00 2.819302e+00
    endloop
  endfacet
  facet normal 3.082363e-01 9.195337e-01 2.438200e-01
    outer loop
      vertex   3.597277e+00 9.883436e+00 2.819302e+00
      vertex   3.376780e+00 9.960383e+00 2.807861e+00
      vertex   3.358081e+00 9.905227e+00 3.039512e+00
    endloop
  endfacet
  facet normal 3.090278e-01 9.190261e-01 2.447300e-01
    outer loop
      vertex   3.597277e+00 9.883436e+00 2.819302e+00
      vertex   3.358081e+00 9.905227e+00 3.039512e+00
      vertex   3.577382e+00 9.828776e+00 3.049690e+00
    endloop
  endfacet
  facet normal 3.066537e-01 9.146852e-01 2.632764e-01
    outer loop
      vertex   3.577382e+00 9.828776e+00 3.049690e+00
      vertex   3.358081e+00 9.905227e+00 3.039512e+00
      vertex   3.337789e+00 9.845371e+00 3.271103e+00
    endloop
  endfacet
  facet normal 3.073233e-01 9.142420e-01 2.640342e-01
    outer loop
      vertex   3.577382e+00 9.828776e+00 3.049690e+00
      vertex   3.337789e+00 9.845371e+00 3.271103e+00
      vertex   3.555915e+00 9.769797e+00 3.278894e+00
    endloop
  endfacet
  facet normal 1.895118e-01 9.460224e-01 2.629200e-01
    outer loop
      vertex   2.033141e+00 1.024391e+01 3.039512e+00
      vertex   2.020855e+00 1.018201e+01 3.271103e+00
      vertex   2.253580e+00 1.019975e+01 3.039512e+00
    endloop
  endfacet
  facet normal 1.895118e-01 9.460224e-01 2.629200e-01
    outer loop
      vertex   2.253580e+00 1.019975e+01 3.039512e+00
      vertex   2.020855e+00 1.018201e+01 3.271103e+00
      vertex   2.239962e+00 1.013812e+01 3.271103e+00
    endloop
  endfacet
  facet normal 2.090569e-01 9.418828e-01 2.629676e-01
    outer loop
      vertex   2.253580e+00 1.019975e+01 3.039512e+00
      vertex   2.239962e+00 1.013812e+01 3.271103e+00
      vertex   2.474385e+00 1.015074e+01 3.039512e+00
    endloop
  endfacet
  facet normal 2.090569e-01 9.418828e-01 2.629676e-01
    outer loop
      vertex   2.474385e+00 1.015074e+01 3.039512e+00
      vertex   2.239962e+00 1.013812e+01 3.271103e+00
      vertex   2.459433e+00 1.008940e+01 3.271103e+00
    endloop
  endfacet
  facet normal 2.286387e-01 9.373072e-01 2.630200e-01
    outer loop
      vertex   2.474385e+00 1.015074e+01 3.039512e+00
      vertex   2.459433e+00 1.008940e+01 3.271103e+00
      vertex   2.695400e+00 1.009683e+01 3.039512e+00
    endloop
  endfacet
  facet normal 2.286387e-01 9.373072e-01 2.630200e-01
    outer loop
      vertex   2.695400e+00 1.009683e+01 3.039512e+00
      vertex   2.459433e+00 1.008940e+01 3.271103e+00
      vertex   2.679112e+00 1.003582e+01 3.271103e+00
    endloop
  endfacet
  facet normal 2.482443e-01 9.322903e-01 2.630771e-01
    outer loop
      vertex   2.695400e+00 1.009683e+01 3.039512e+00
      vertex   2.679112e+00 1.003582e+01 3.271103e+00
      vertex   2.916464e+00 1.003797e+01 3.039512e+00
    endloop
  endfacet
  facet normal 2.482443e-01 9.322903e-01 2.630771e-01
    outer loop
      vertex   2.916464e+00 1.003797e+01 3.039512e+00
      vertex   2.679112e+00 1.003582e+01 3.271103e+00
      vertex   2.898840e+00 9.977309e+00 3.271103e+00
    endloop
  endfacet
  facet normal 2.678604e-01 9.268272e-01 2.631390e-01
    outer loop
      vertex   2.916464e+00 1.003797e+01 3.039512e+00
      vertex   2.898840e+00 9.977309e+00 3.271103e+00
      vertex   3.137414e+00 9.974111e+00 3.039512e+00
    endloop
  endfacet
  facet normal 2.678604e-01 9.268272e-01 2.631390e-01
    outer loop
      vertex   3.137414e+00 9.974111e+00 3.039512e+00
      vertex   2.898840e+00 9.977309e+00 3.271103e+00
      vertex   3.118455e+00 9.913838e+00 3.271103e+00
    endloop
  endfacet
  facet normal 2.874733e-01 9.209136e-01 2.632056e-01
    outer loop
      vertex   3.137414e+00 9.974111e+00 3.039512e+00
      vertex   3.118455e+00 9.913838e+00 3.271103e+00
      vertex   3.358081e+00 9.905227e+00 3.039512e+00
    endloop
  endfacet
  facet normal 2.874733e-01 9.209136e-01 2.632056e-01
    outer loop
      vertex   3.358081e+00 9.905227e+00 3.039512e+00
      vertex   3.118455e+00 9.913838e+00 3.271103e+00
      vertex   3.337789e+00 9.845371e+00 3.271103e+00
    endloop
  endfacet
  facet normal 1.905110e-01 9.510099e-01 2.434864e-01
    outer loop
      vertex   2.044463e+00 1.030095e+01 2.807861e+00
      vertex   2.033141e+00 1.024391e+01 3.039512e+00
      vertex   2.266129e+00 1.025655e+01 2.807861e+00
    endloop
  endfacet
  facet normal 1.905110e-01 9.510099e-01 2.434864e-01
    outer loop
      vertex   2.266129e+00 1.025655e+01 2.807861e+00
      vertex   2.033141e+00 1.024391e+01 3.039512e+00
      vertex   2.253580e+00 1.019975e+01 3.039512e+00
    endloop
  endfacet
  facet normal 2.101595e-01 9.468504e-01 2.435310e-01
    outer loop
      vertex   2.266129e+00 1.025655e+01 2.807861e+00
      vertex   2.253580e+00 1.019975e+01 3.039512e+00
      vertex   2.488163e+00 1.020727e+01 2.807861e+00
    endloop
  endfacet
  facet normal 2.101595e-01 9.468504e-01 2.435310e-01
    outer loop
      vertex   2.488163e+00 1.020727e+01 2.807861e+00
      vertex   2.253580e+00 1.019975e+01 3.039512e+00
      vertex   2.474385e+00 1.015074e+01 3.039512e+00
    endloop
  endfacet
  facet normal 2.298451e-01 9.422526e-01 2.435800e-01
    outer loop
      vertex   2.488163e+00 1.020727e+01 2.807861e+00
      vertex   2.474385e+00 1.015074e+01 3.039512e+00
      vertex   2.710409e+00 1.015305e+01 2.807861e+00
    endloop
  endfacet
  facet normal 2.298451e-01 9.422526e-01 2.435800e-01
    outer loop
      vertex   2.710409e+00 1.015305e+01 2.807861e+00
      vertex   2.474385e+00 1.015074e+01 3.039512e+00
      vertex   2.695400e+00 1.009683e+01 3.039512e+00
    endloop
  endfacet
  facet normal 2.495547e-01 9.372114e-01 2.436335e-01
    outer loop
      vertex   2.710409e+00 1.015305e+01 2.807861e+00
      vertex   2.695400e+00 1.009683e+01 3.039512e+00
      vertex   2.932704e+00 1.009386e+01 2.807861e+00
    endloop
  endfacet
  facet normal 2.495547e-01 9.372114e-01 2.436335e-01
    outer loop
      vertex   2.932704e+00 1.009386e+01 2.807861e+00
      vertex   2.695400e+00 1.009683e+01 3.039512e+00
      vertex   2.916464e+00 1.003797e+01 3.039512e+00
    endloop
  endfacet
  facet normal 2.692750e-01 9.317218e-01 2.436914e-01
    outer loop
      vertex   2.932704e+00 1.009386e+01 2.807861e+00
      vertex   2.916464e+00 1.003797e+01 3.039512e+00
      vertex   3.154884e+00 1.002965e+01 2.807861e+00
    endloop
  endfacet
  facet normal 2.692750e-01 9.317218e-01 2.436914e-01
    outer loop
      vertex   3.154884e+00 1.002965e+01 2.807861e+00
      vertex   2.916464e+00 1.003797e+01 3.039512e+00
      vertex   3.137414e+00 9.974111e+00 3.039512e+00
    endloop
  endfacet
  facet normal 2.889923e-01 9.257795e-01 2.437537e-01
    outer loop
      vertex   3.154884e+00 1.002965e+01 2.807861e+00
      vertex   3.137414e+00 9.974111e+00 3.039512e+00
      vertex   3.376780e+00 9.960383e+00 2.807861e+00
    endloop
  endfacet
  facet normal 2.889923e-01 9.257795e-01 2.437537e-01
    outer loop
      vertex   3.376780e+00 9.960383e+00 2.807861e+00
      vertex   3.137414e+00 9.974111e+00 3.039512e+00
      vertex   3.358081e+00 9.905227e+00 3.039512e+00
    endloop
  endfacet
  facet normal 1.914273e-01 9.555843e-01 2.240854e-01
    outer loop
      vertex   2.054827e+00 1.035317e+01 2.576315e+00
      vertex   2.044463e+00 1.030095e+01 2.807861e+00
      vertex   2.277617e+00 1.030854e+01 2.576315e+00
    endloop
  endfacet
  facet normal 1.914273e-01 9.555843e-01 2.240854e-01
    outer loop
      vertex   2.277617e+00 1.030854e+01 2.576315e+00
      vertex   2.044463e+00 1.030095e+01 2.807861e+00
      vertex   2.266129e+00 1.025655e+01 2.807861e+00
    endloop
  endfacet
  facet normal 2.111707e-01 9.514064e-01 2.241268e-01
    outer loop
      vertex   2.277617e+00 1.030854e+01 2.576315e+00
      vertex   2.266129e+00 1.025655e+01 2.807861e+00
      vertex   2.500777e+00 1.025901e+01 2.576315e+00
    endloop
  endfacet
  facet normal 2.111707e-01 9.514064e-01 2.241268e-01
    outer loop
      vertex   2.500777e+00 1.025901e+01 2.576315e+00
      vertex   2.266129e+00 1.025655e+01 2.807861e+00
      vertex   2.488163e+00 1.020727e+01 2.807861e+00
    endloop
  endfacet
  facet normal 2.309515e-01 9.467883e-01 2.241724e-01
    outer loop
      vertex   2.500777e+00 1.025901e+01 2.576315e+00
      vertex   2.488163e+00 1.020727e+01 2.807861e+00
      vertex   2.724149e+00 1.020452e+01 2.576315e+00
    endloop
  endfacet
  facet normal 2.309515e-01 9.467883e-01 2.241724e-01
    outer loop
      vertex   2.724149e+00 1.020452e+01 2.576315e+00
      vertex   2.488163e+00 1.020727e+01 2.807861e+00
      vertex   2.710409e+00 1.015305e+01 2.807861e+00
    endloop
  endfacet
  facet normal 2.507565e-01 9.417248e-01 2.242221e-01
    outer loop
      vertex   2.724149e+00 1.020452e+01 2.576315e+00
      vertex   2.710409e+00 1.015305e+01 2.807861e+00
      vertex   2.947571e+00 1.014503e+01 2.576315e+00
    endloop
  endfacet
  facet normal 2.507565e-01 9.417248e-01 2.242221e-01
    outer loop
      vertex   2.947571e+00 1.014503e+01 2.576315e+00
      vertex   2.710409e+00 1.015305e+01 2.807861e+00
      vertex   2.932704e+00 1.009386e+01 2.807861e+00
    endloop
  endfacet
  facet normal 2.705724e-01 9.362109e-01 2.242759e-01
    outer loop
      vertex   2.947571e+00 1.014503e+01 2.576315e+00
      vertex   2.932704e+00 1.009386e+01 2.807861e+00
      vertex   3.170878e+00 1.008050e+01 2.576315e+00
    endloop
  endfacet
  facet normal 2.705724e-01 9.362109e-01 2.242759e-01
    outer loop
      vertex   3.170878e+00 1.008050e+01 2.576315e+00
      vertex   2.932704e+00 1.009386e+01 2.807861e+00
      vertex   3.154884e+00 1.002965e+01 2.807861e+00
    endloop
  endfacet
  facet normal 2.903854e-01 9.302423e-01 2.243338e-01
    outer loop
      vertex   3.170878e+00 1.008050e+01 2.576315e+00
      vertex   3.154884e+00 1.002965e+01 2.807861e+00
      vertex   3.393899e+00 1.001088e+01 2.576315e+00
    endloop
  endfacet
  facet normal 2.903854e-01 9.302423e-01 2.243338e-01
    outer loop
      vertex   3.393899e+00 1.001088e+01 2.576315e+00
      vertex   3.154884e+00 1.002965e+01 2.807861e+00
      vertex   3.376780e+00 9.960383e+00 2.807861e+00
    endloop
  endfacet
  facet normal 1.930162e-01 9.635156e-01 1.854248e-01
    outer loop
      vertex   2.297456e+00 1.039833e+01 2.114171e+00
      vertex   2.072725e+00 1.044335e+01 2.114171e+00
      vertex   2.064244e+00 1.040062e+01 2.345033e+00
    endloop
  endfacet
  facet normal 1.922620e-01 9.597509e-01 2.047280e-01
    outer loop
      vertex   2.064244e+00 1.040062e+01 2.345033e+00
      vertex   2.054827e+00 1.035317e+01 2.576315e+00
      vertex   2.288056e+00 1.035579e+01 2.345033e+00
    endloop
  endfacet
  facet normal 1.922620e-01 9.597509e-01 2.047280e-01
    outer loop
      vertex   2.288056e+00 1.035579e+01 2.345033e+00
      vertex   2.054827e+00 1.035317e+01 2.576315e+00
      vertex   2.277617e+00 1.030854e+01 2.576315e+00
    endloop
  endfacet
  facet normal 2.120918e-01 9.555563e-01 2.047662e-01
    outer loop
      vertex   2.288056e+00 1.035579e+01 2.345033e+00
      vertex   2.277617e+00 1.030854e+01 2.576315e+00
      vertex   2.512239e+00 1.030603e+01 2.345033e+00
    endloop
  endfacet
  facet normal 2.120918e-01 9.555563e-01 2.047662e-01
    outer loop
      vertex   2.512239e+00 1.030603e+01 2.345033e+00
      vertex   2.277617e+00 1.030854e+01 2.576315e+00
      vertex   2.500777e+00 1.025901e+01 2.576315e+00
    endloop
  endfacet
  facet normal 2.319593e-01 9.509198e-01 2.048081e-01
    outer loop
      vertex   2.512239e+00 1.030603e+01 2.345033e+00
      vertex   2.500777e+00 1.025901e+01 2.576315e+00
      vertex   2.736634e+00 1.025129e+01 2.345033e+00
    endloop
  endfacet
  facet normal 2.319593e-01 9.509198e-01 2.048081e-01
    outer loop
      vertex   2.736634e+00 1.025129e+01 2.345033e+00
      vertex   2.500777e+00 1.025901e+01 2.576315e+00
      vertex   2.724149e+00 1.020452e+01 2.576315e+00
    endloop
  endfacet
  facet normal 2.518512e-01 9.458360e-01 2.048539e-01
    outer loop
      vertex   2.736634e+00 1.025129e+01 2.345033e+00
      vertex   2.724149e+00 1.020452e+01 2.576315e+00
      vertex   2.961080e+00 1.019153e+01 2.345033e+00
    endloop
  endfacet
  facet normal 2.518512e-01 9.458360e-01 2.048539e-01
    outer loop
      vertex   2.961080e+00 1.019153e+01 2.345033e+00
      vertex   2.724149e+00 1.020452e+01 2.576315e+00
      vertex   2.947571e+00 1.014503e+01 2.576315e+00
    endloop
  endfacet
  facet normal 2.717542e-01 9.403001e-01 2.049035e-01
    outer loop
      vertex   2.961080e+00 1.019153e+01 2.345033e+00
      vertex   2.947571e+00 1.014503e+01 2.576315e+00
      vertex   3.185410e+00 1.012670e+01 2.345033e+00
    endloop
  endfacet
  facet normal 2.717542e-01 9.403001e-01 2.049035e-01
    outer loop
      vertex   3.185410e+00 1.012670e+01 2.345033e+00
      vertex   2.947571e+00 1.014503e+01 2.576315e+00
      vertex   3.170878e+00 1.008050e+01 2.576315e+00
    endloop
  endfacet
  facet normal 2.916544e-01 9.343074e-01 2.049569e-01
    outer loop
      vertex   3.185410e+00 1.012670e+01 2.345033e+00
      vertex   3.170878e+00 1.008050e+01 2.576315e+00
      vertex   3.409453e+00 1.005676e+01 2.345033e+00
    endloop
  endfacet
  facet normal 2.916544e-01 9.343074e-01 2.049569e-01
    outer loop
      vertex   3.409453e+00 1.005676e+01 2.345033e+00
      vertex   3.170878e+00 1.008050e+01 2.576315e+00
      vertex   3.393899e+00 1.001088e+01 2.576315e+00
    endloop
  endfacet
  facet normal 2.129241e-01 9.593060e-01 1.854596e-01
    outer loop
      vertex   2.522560e+00 1.034837e+01 2.114171e+00
      vertex   2.297456e+00 1.039833e+01 2.114171e+00
      vertex   2.288056e+00 1.035579e+01 2.345033e+00
    endloop
  endfacet
  facet normal 1.930162e-01 9.635156e-01 1.854248e-01
    outer loop
      vertex   2.288056e+00 1.035579e+01 2.345033e+00
      vertex   2.297456e+00 1.039833e+01 2.114171e+00
      vertex   2.064244e+00 1.040062e+01 2.345033e+00
    endloop
  endfacet
  facet normal 2.129241e-01 9.593060e-01 1.854596e-01
    outer loop
      vertex   2.522560e+00 1.034837e+01 2.114171e+00
      vertex   2.288056e+00 1.035579e+01 2.345033e+00
      vertex   2.512239e+00 1.030603e+01 2.345033e+00
    endloop
  endfacet
  facet normal 2.328699e-01 9.546529e-01 1.854980e-01
    outer loop
      vertex   2.747877e+00 1.029341e+01 2.114171e+00
      vertex   2.522560e+00 1.034837e+01 2.114171e+00
      vertex   2.512239e+00 1.030603e+01 2.345033e+00
    endloop
  endfacet
  facet normal 2.328699e-01 9.546529e-01 1.854980e-01
    outer loop
      vertex   2.747877e+00 1.029341e+01 2.114171e+00
      vertex   2.512239e+00 1.030603e+01 2.345033e+00
      vertex   2.736634e+00 1.025129e+01 2.345033e+00
    endloop
  endfacet
  facet normal 2.528404e-01 9.495508e-01 1.855398e-01
    outer loop
      vertex   2.973245e+00 1.023340e+01 2.114171e+00
      vertex   2.747877e+00 1.029341e+01 2.114171e+00
      vertex   2.736634e+00 1.025129e+01 2.345033e+00
    endloop
  endfacet
  facet normal 2.528404e-01 9.495508e-01 1.855398e-01
    outer loop
      vertex   2.973245e+00 1.023340e+01 2.114171e+00
      vertex   2.736634e+00 1.025129e+01 2.345033e+00
      vertex   2.961080e+00 1.019153e+01 2.345033e+00
    endloop
  endfacet
  facet normal 2.728220e-01 9.439949e-01 1.855850e-01
    outer loop
      vertex   3.198497e+00 1.016830e+01 2.114171e+00
      vertex   2.973245e+00 1.023340e+01 2.114171e+00
      vertex   2.961080e+00 1.019153e+01 2.345033e+00
    endloop
  endfacet
  facet normal 2.728220e-01 9.439949e-01 1.855850e-01
    outer loop
      vertex   3.198497e+00 1.016830e+01 2.114171e+00
      vertex   2.961080e+00 1.019153e+01 2.345033e+00
      vertex   3.185410e+00 1.012670e+01 2.345033e+00
    endloop
  endfacet
  facet normal 2.928010e-01 9.379806e-01 1.856337e-01
    outer loop
      vertex   3.423461e+00 1.009807e+01 2.114171e+00
      vertex   3.198497e+00 1.016830e+01 2.114171e+00
      vertex   3.185410e+00 1.012670e+01 2.345033e+00
    endloop
  endfacet
  facet normal 2.928010e-01 9.379806e-01 1.856337e-01
    outer loop
      vertex   3.423461e+00 1.009807e+01 2.114171e+00
      vertex   3.185410e+00 1.012670e+01 2.345033e+00
      vertex   3.409453e+00 1.005676e+01 2.345033e+00
    endloop
  endfacet
  facet normal -9.848078e-01 1.736482e-01 -7.729448e-16
    outer loop
      vertex   1.778111e+00 1.008417e+01 3.726958e+00
      vertex   1.790542e+00 1.015467e+01 3.500523e+00
      vertex   0.000000e+00 0.000000e+00 0.000000e+00
    endloop
  endfacet
  facet normal -9.848078e-01 1.736482e-01 -1.375602e-15
    outer loop
      vertex   0.000000e+00 0.000000e+00 0.000000e+00
      vertex   1.790542e+00 1.015467e+01 3.500523e+00
      vertex   1.802179e+00 1.022067e+01 3.272805e+00
    endloop
  endfacet
  facet normal -9.848078e-01 1.736482e-01 0.000000e+00
    outer loop
      vertex   0.000000e+00 0.000000e+00 0.000000e+00
      vertex   1.802179e+00 1.022067e+01 3.272805e+00
      vertex   1.813021e+00 1.028215e+01 3.043882e+00
    endloop
  endfacet
  facet normal -9.848078e-01 1.736482e-01 -3.660540e-16
    outer loop
      vertex   1.813021e+00 1.028215e+01 3.043882e+00
      vertex   1.823067e+00 1.033913e+01 2.813831e+00
      vertex   0.000000e+00 0.000000e+00 0.000000e+00
    endloop
  endfacet
  facet normal -9.848078e-01 1.736482e-01 0.000000e+00
    outer loop
      vertex   0.000000e+00 0.000000e+00 0.000000e+00
      vertex   1.823067e+00 1.033913e+01 2.813831e+00
      vertex   1.832315e+00 1.039158e+01 2.582728e+00
    endloop
  endfacet
  facet normal -9.848078e-01 1.736482e-01 1.379953e-15
    outer loop
      vertex   0.000000e+00 0.000000e+00 0.000000e+00
      vertex   1.832315e+00 1.039158e+01 2.582728e+00
      vertex   1.840764e+00 1.043949e+01 2.350651e+00
    endloop
  endfacet
  facet normal -9.848078e-01 1.736482e-01 -8.521261e-16
    outer loop
      vertex   1.840764e+00 1.043949e+01 2.350651e+00
      vertex   1.848413e+00 1.048287e+01 2.117676e+00
      vertex   0.000000e+00 0.000000e+00 0.000000e+00
    endloop
  endfacet
  facet normal -9.848078e-01 1.736482e-01 -1.519340e-14
    outer loop
      vertex   0.000000e+00 0.000000e+00 0.000000e+00
      vertex   1.848413e+00 1.048287e+01 2.117676e+00
      vertex   1.855260e+00 1.052170e+01 1.883881e+00
    endloop
  endfacet
  facet normal -1.113658e-01 -3.234299e-01 9.396759e-01
    outer loop
      vertex   0.000000e+00 0.000000e+00 0.000000e+00
      vertex   3.508284e+00 9.638930e+00 3.733438e+00
      vertex   1.584876e+00 4.877748e+00 1.866719e+00
    endloop
  endfacet
  facet normal -1.134517e-01 -3.226011e-01 9.397112e-01
    outer loop
      vertex   1.584876e+00 4.877748e+00 1.866719e+00
      vertex   3.508284e+00 9.638930e+00 3.733438e+00
      vertex   3.296446e+00 9.710457e+00 3.732417e+00
    endloop
  endfacet
  facet normal -1.064180e-01 -3.250801e-01 9.396798e-01
    outer loop
      vertex   1.584876e+00 4.877748e+00 1.866719e+00
      vertex   3.296446e+00 9.710457e+00 3.732417e+00
      vertex   3.083167e+00 9.777491e+00 3.731454e+00
    endloop
  endfacet
  facet normal -9.999033e-02 -3.270536e-01 9.397009e-01
    outer loop
      vertex   1.584876e+00 4.877748e+00 1.866719e+00
      vertex   3.083167e+00 9.777491e+00 3.731454e+00
      vertex   1.413680e+00 4.930088e+00 1.866719e+00
    endloop
  endfacet
  facet normal -9.929522e-02 -3.272898e-01 9.396924e-01
    outer loop
      vertex   1.413680e+00 4.930088e+00 1.866719e+00
      vertex   3.083167e+00 9.777491e+00 3.731454e+00
      vertex   2.868523e+00 9.840013e+00 3.730549e+00
    endloop
  endfacet
  facet normal -9.214077e-02 -3.294057e-01 9.396819e-01
    outer loop
      vertex   1.413680e+00 4.930088e+00 1.866719e+00
      vertex   2.868523e+00 9.840013e+00 3.730549e+00
      vertex   2.652587e+00 9.898005e+00 3.729704e+00
    endloop
  endfacet
  facet normal -8.850940e-02 -3.303216e-01 9.397094e-01
    outer loop
      vertex   1.413680e+00 4.930088e+00 1.866719e+00
      vertex   2.652587e+00 9.898005e+00 3.729704e+00
      vertex   1.240761e+00 4.976421e+00 1.866719e+00
    endloop
  endfacet
  facet normal -8.493195e-02 -3.313374e-01 9.396819e-01
    outer loop
      vertex   1.240761e+00 4.976421e+00 1.866719e+00
      vertex   2.652587e+00 9.898005e+00 3.729704e+00
      vertex   2.435474e+00 9.951438e+00 3.728922e+00
    endloop
  endfacet
  facet normal -7.767551e-02 -3.330839e-01 9.396923e-01
    outer loop
      vertex   1.240761e+00 4.976421e+00 1.866719e+00
      vertex   2.435474e+00 9.951438e+00 3.728922e+00
      vertex   2.217307e+00 1.000029e+01 3.728202e+00
    endloop
  endfacet
  facet normal -7.693257e-02 -3.332316e-01 9.397011e-01
    outer loop
      vertex   1.240761e+00 4.976421e+00 1.866719e+00
      vertex   2.217307e+00 1.000029e+01 3.728202e+00
      vertex   1.066331e+00 5.016692e+00 1.866719e+00
    endloop
  endfacet
  facet normal -7.039477e-02 -3.347335e-01 9.396798e-01
    outer loop
      vertex   1.066331e+00 5.016692e+00 1.866719e+00
      vertex   2.217307e+00 1.000029e+01 3.728202e+00
      vertex   1.998161e+00 1.004453e+01 3.727548e+00
    endloop
  endfacet
  facet normal -6.305570e-02 -3.361053e-01 9.397112e-01
    outer loop
      vertex   1.066331e+00 5.016692e+00 1.866719e+00
      vertex   1.998161e+00 1.004453e+01 3.727548e+00
      vertex   1.778111e+00 1.008417e+01 3.726958e+00
    endloop
  endfacet
  facet normal -6.526917e-02 -3.357815e-01 9.396759e-01
    outer loop
      vertex   1.778111e+00 1.008417e+01 3.726958e+00
      vertex   0.000000e+00 0.000000e+00 0.000000e+00
      vertex   1.066331e+00 5.016692e+00 1.866719e+00
    endloop
  endfacet
  facet normal -7.694814e-02 -3.332990e-01 9.396759e-01
    outer loop
      vertex   1.066331e+00 5.016692e+00 1.866719e+00
      vertex   0.000000e+00 0.000000e+00 0.000000e+00
      vertex   1.240761e+00 4.976421e+00 1.866719e+00
    endloop
  endfacet
  facet normal -8.853323e-02 -3.304105e-01 9.396759e-01
    outer loop
      vertex   1.240761e+00 4.976421e+00 1.866719e+00
      vertex   0.000000e+00 0.000000e+00 0.000000e+00
      vertex   1.413680e+00 4.930088e+00 1.866719e+00
    endloop
  endfacet
  facet normal -1.000105e-01 -3.271195e-01 9.396759e-01
    outer loop
      vertex   1.413680e+00 4.930088e+00 1.866719e+00
      vertex   0.000000e+00 0.000000e+00 0.000000e+00
      vertex   1.584876e+00 4.877748e+00 1.866719e+00
    endloop
  endfacet
  facet normal 3.313841e-02 1.704830e-01 -9.848032e-01
    outer loop
      vertex   0.000000e+00 0.000000e+00 0.000000e+00
      vertex   1.855260e+00 1.052170e+01 1.883881e+00
      vertex   1.112769e+00 5.235165e+00 9.437234e-01
    endloop
  endfacet
  facet normal 3.201381e-02 1.706426e-01 -9.848128e-01
    outer loop
      vertex   1.112769e+00 5.235165e+00 9.437234e-01
      vertex   1.855260e+00 1.052170e+01 1.883881e+00
      vertex   2.084901e+00 1.048049e+01 1.884205e+00
    endloop
  endfacet
  facet normal 3.574105e-02 1.699503e-01 -9.848043e-01
    outer loop
      vertex   1.112769e+00 5.235165e+00 9.437234e-01
      vertex   2.084901e+00 1.048049e+01 1.884205e+00
      vertex   2.313607e+00 1.043448e+01 1.884565e+00
    endloop
  endfacet
  facet normal 3.905942e-02 1.691850e-01 -9.848100e-01
    outer loop
      vertex   1.112769e+00 5.235165e+00 9.437234e-01
      vertex   2.313607e+00 1.043448e+01 1.884565e+00
      vertex   1.294795e+00 5.193140e+00 9.437234e-01
    endloop
  endfacet
  facet normal 3.943739e-02 1.691111e-01 -9.848077e-01
    outer loop
      vertex   1.294795e+00 5.193140e+00 9.437234e-01
      vertex   2.313607e+00 1.043448e+01 1.884565e+00
      vertex   2.541298e+00 1.038369e+01 1.884961e+00
    endloop
  endfacet
  facet normal 4.312200e-02 1.682257e-01 -9.848049e-01
    outer loop
      vertex   1.294795e+00 5.193140e+00 9.437234e-01
      vertex   2.541298e+00 1.038369e+01 1.884961e+00
      vertex   2.767895e+00 1.032813e+01 1.885392e+00
    endloop
  endfacet
  facet normal 4.493680e-02 1.677064e-01 -9.848123e-01
    outer loop
      vertex   1.294795e+00 5.193140e+00 9.437234e-01
      vertex   2.767895e+00 1.032813e+01 1.885392e+00
      vertex   1.475245e+00 5.144789e+00 9.437234e-01
    endloop
  endfacet
  facet normal 4.678207e-02 1.672449e-01 -9.848048e-01
    outer loop
      vertex   1.475245e+00 5.144789e+00 9.437234e-01
      vertex   2.767895e+00 1.032813e+01 1.885392e+00
      vertex   2.993273e+00 1.026782e+01 1.885857e+00
    endloop
  endfacet
  facet normal 5.041403e-02 1.661692e-01 -9.848077e-01
    outer loop
      vertex   1.475245e+00 5.144789e+00 9.437234e-01
      vertex   2.993273e+00 1.026782e+01 1.885857e+00
      vertex   3.217313e+00 1.020280e+01 1.886355e+00
    endloop
  endfacet
  facet normal 5.076609e-02 1.660484e-01 -9.848100e-01
    outer loop
      vertex   1.475245e+00 5.144789e+00 9.437234e-01
      vertex   3.217313e+00 1.020280e+01 1.886355e+00
      vertex   1.653896e+00 5.090170e+00 9.437234e-01
    endloop
  endfacet
  facet normal 5.403073e-02 1.650490e-01 -9.848043e-01
    outer loop
      vertex   1.653896e+00 5.090170e+00 9.437234e-01
      vertex   3.217313e+00 1.020280e+01 1.886355e+00
      vertex   3.439937e+00 1.013309e+01 1.886885e+00
    endloop
  endfacet
  facet normal 5.760034e-02 1.637864e-01 -9.848128e-01
    outer loop
      vertex   1.653896e+00 5.090170e+00 9.437234e-01
      vertex   3.439937e+00 1.013309e+01 1.886885e+00
      vertex   3.661067e+00 1.005870e+01 1.887447e+00
    endloop
  endfacet
  facet normal 5.654273e-02 1.642118e-01 -9.848032e-01
    outer loop
      vertex   3.661067e+00 1.005870e+01 1.887447e+00
      vertex   0.000000e+00 0.000000e+00 0.000000e+00
      vertex   1.653896e+00 5.090170e+00 9.437234e-01
    endloop
  endfacet
  facet normal 5.077731e-02 1.660851e-01 -9.848032e-01
    outer loop
      vertex   1.653896e+00 5.090170e+00 9.437234e-01
      vertex   0.000000e+00 0.000000e+00 0.000000e+00
      vertex   1.475245e+00 5.144789e+00 9.437234e-01
    endloop
  endfacet
  facet normal 4.495010e-02 1.677560e-01 -9.848032e-01
    outer loop
      vertex   1.475245e+00 5.144789e+00 9.437234e-01
      vertex   0.000000e+00 0.000000e+00 0.000000e+00
      vertex   1.294795e+00 5.193140e+00 9.437234e-01
    endloop
  endfacet
  facet normal 3.906811e-02 1.692226e-01 -9.848032e-01
    outer loop
      vertex   1.294795e+00 5.193140e+00 9.437234e-01
      vertex   0.000000e+00 0.000000e+00 0.000000e+00
      vertex   1.112769e+00 5.235165e+00 9.437234e-01
    endloop
  endfacet
endsolid
