solid ASCII
  facet normal -7.660444e-01 -6.427876e-01 6.746015e-11
    outer loop
      vertex   6.925467e+00 -8.253450e+00 1.899767e+00
      vertex   0.000000e+00 0.000000e+00 0.000000e+00
      vertex   6.948327e+00 -8.280694e+00 1.664274e+00
    endloop
  endfacet
  facet normal -7.660444e-01 -6.427876e-01 1.706301e-10
    outer loop
      vertex   6.948327e+00 -8.280694e+00 1.664274e+00
      vertex   0.000000e+00 0.000000e+00 0.000000e+00
      vertex   6.968163e+00 -8.304334e+00 1.428044e+00
    endloop
  endfacet
  facet normal -7.660444e-01 -6.427876e-01 2.260888e-10
    outer loop
      vertex   6.968163e+00 -8.304334e+00 1.428044e+00
      vertex   0.000000e+00 0.000000e+00 0.000000e+00
      vertex   6.984967e+00 -8.324360e+00 1.191153e+00
    endloop
  endfacet
  facet normal -7.660444e-01 -6.427876e-01 2.334797e-10
    outer loop
      vertex   6.984967e+00 -8.324360e+00 1.191153e+00
      vertex   0.000000e+00 0.000000e+00 0.000000e+00
      vertex   6.998731e+00 -8.340763e+00 9.536800e-01
    endloop
  endfacet
  facet normal -7.660444e-01 -6.427876e-01 1.926445e-10
    outer loop
      vertex   6.998731e+00 -8.340763e+00 9.536800e-01
      vertex   0.000000e+00 0.000000e+00 0.000000e+00
      vertex   7.009448e+00 -8.353535e+00 7.157014e-01
    endloop
  endfacet
  facet normal -7.660444e-01 -6.427876e-01 1.035034e-10
    outer loop
      vertex   7.009448e+00 -8.353535e+00 7.157014e-01
      vertex   0.000000e+00 0.000000e+00 0.000000e+00
      vertex   7.017111e+00 -8.362667e+00 4.772950e-01
    endloop
  endfacet
  facet normal -7.660444e-01 -6.427876e-01 -3.659498e-10
    outer loop
      vertex   7.017111e+00 -8.362667e+00 4.772950e-01
      vertex   0.000000e+00 0.000000e+00 0.000000e+00
      vertex   7.021710e+00 -8.368148e+00 2.386213e-01
    endloop
  endfacet
  facet normal -7.660444e-01 -6.427876e-01 -6.379427e-10
    outer loop
      vertex   7.021710e+00 -8.368148e+00 2.386213e-01
      vertex   0.000000e+00 0.000000e+00 0.000000e+00
      vertex   7.023242e+00 -8.369974e+00 -3.191891e-15
    endloop
  endfacet
  facet normal 7.363324e-01 -6.596896e-01 1.504136e-01
    outer loop
      vertex   8.312883e+00 -6.975337e+00 1.670737e+00
      vertex   8.285320e+00 -6.952209e+00 1.907103e+00
      vertex   8.176569e+00 -7.128957e+00 1.664298e+00
    endloop
  endfacet
  facet normal 7.355291e-01 -6.603870e-01 1.512810e-01
    outer loop
      vertex   8.176569e+00 -7.128957e+00 1.664298e+00
      vertex   8.285320e+00 -6.952209e+00 1.907103e+00
      vertex   8.128044e+00 -7.127591e+00 1.906189e+00
    endloop
  endfacet
  facet normal 7.240151e-01 -6.734892e-01 1.490452e-01
    outer loop
      vertex   8.176569e+00 -7.128957e+00 1.664298e+00
      vertex   8.128044e+00 -7.127591e+00 1.906189e+00
      vertex   8.036531e+00 -7.279500e+00 1.664298e+00
    endloop
  endfacet
  facet normal 7.208142e-01 -6.762577e-01 1.519947e-01
    outer loop
      vertex   8.036531e+00 -7.279500e+00 1.664298e+00
      vertex   8.128044e+00 -7.127591e+00 1.906189e+00
      vertex   7.966985e+00 -7.299467e+00 1.905271e+00
    endloop
  endfacet
  facet normal 7.111489e-01 -6.872229e-01 1.482966e-01
    outer loop
      vertex   8.036531e+00 -7.279500e+00 1.664298e+00
      vertex   7.966985e+00 -7.299467e+00 1.905271e+00
      vertex   7.893541e+00 -7.427469e+00 1.664298e+00
    endloop
  endfacet
  facet normal 7.058198e-01 -6.918129e-01 1.523590e-01
    outer loop
      vertex   7.893541e+00 -7.427469e+00 1.664298e+00
      vertex   7.966985e+00 -7.299467e+00 1.905271e+00
      vertex   7.802209e+00 -7.467783e+00 1.904350e+00
    endloop
  endfacet
  facet normal 6.979932e-01 -7.006659e-01 1.478945e-01
    outer loop
      vertex   7.893541e+00 -7.427469e+00 1.664298e+00
      vertex   7.802209e+00 -7.467783e+00 1.904350e+00
      vertex   7.747672e+00 -7.572781e+00 1.664298e+00
    endloop
  endfacet
  facet normal 6.905503e-01 -7.070510e-01 1.523783e-01
    outer loop
      vertex   7.747672e+00 -7.572781e+00 1.664298e+00
      vertex   7.802209e+00 -7.467783e+00 1.904350e+00
      vertex   7.633777e+00 -7.632483e+00 1.903428e+00
    endloop
  endfacet
  facet normal 6.826919e-01 -7.158841e-01 1.464301e-01
    outer loop
      vertex   7.747672e+00 -7.572781e+00 1.664298e+00
      vertex   7.633777e+00 -7.632483e+00 1.903428e+00
      vertex   7.554436e+00 -7.757058e+00 1.664298e+00
    endloop
  endfacet
  facet normal 6.750017e-01 -7.219586e-01 1.521461e-01
    outer loop
      vertex   7.554436e+00 -7.757058e+00 1.664298e+00
      vertex   7.633777e+00 -7.632483e+00 1.903428e+00
      vertex   7.461795e+00 -7.793473e+00 1.902507e+00
    endloop
  endfacet
  facet normal 6.648579e-01 -7.324431e-01 1.465984e-01
    outer loop
      vertex   7.554436e+00 -7.757058e+00 1.664298e+00
      vertex   7.461795e+00 -7.793473e+00 1.902507e+00
      vertex   7.356674e+00 -7.936571e+00 1.664298e+00
    endloop
  endfacet
  facet normal 6.591937e-01 -7.365414e-01 1.515600e-01
    outer loop
      vertex   7.356674e+00 -7.936571e+00 1.664298e+00
      vertex   7.461795e+00 -7.793473e+00 1.902507e+00
      vertex   7.286371e+00 -7.950664e+00 1.901589e+00
    endloop
  endfacet
  facet normal 6.466167e-01 -7.484928e-01 1.471240e-01
    outer loop
      vertex   7.356674e+00 -7.936571e+00 1.664298e+00
      vertex   7.286371e+00 -7.950664e+00 1.901589e+00
      vertex   7.154573e+00 -8.111165e+00 1.664298e+00
    endloop
  endfacet
  facet normal 6.431320e-01 -7.507966e-01 1.506177e-01
    outer loop
      vertex   7.154573e+00 -8.111165e+00 1.664298e+00
      vertex   7.286371e+00 -7.950664e+00 1.901589e+00
      vertex   7.107572e+00 -8.104006e+00 1.900675e+00
    endloop
  endfacet
  facet normal 6.279885e-01 -7.640186e-01 1.480071e-01
    outer loop
      vertex   7.154573e+00 -8.111165e+00 1.664298e+00
      vertex   7.107572e+00 -8.104006e+00 1.900675e+00
      vertex   6.948327e+00 -8.280694e+00 1.664274e+00
    endloop
  endfacet
  facet normal 6.268204e-01 -7.647221e-01 1.493198e-01
    outer loop
      vertex   6.948327e+00 -8.280694e+00 1.664274e+00
      vertex   7.107572e+00 -8.104006e+00 1.900675e+00
      vertex   6.925467e+00 -8.253450e+00 1.899767e+00
    endloop
  endfacet
  facet normal 6.296343e-01 -7.660183e-01 1.295248e-01
    outer loop
      vertex   6.948327e+00 -8.280694e+00 1.664274e+00
      vertex   6.968163e+00 -8.304334e+00 1.428044e+00
      vertex   7.154573e+00 -8.111165e+00 1.664298e+00
    endloop
  endfacet
  facet normal 6.298153e-01 -7.659087e-01 1.292925e-01
    outer loop
      vertex   7.154573e+00 -8.111165e+00 1.664298e+00
      vertex   6.968163e+00 -8.304334e+00 1.428044e+00
      vertex   7.175445e+00 -8.134828e+00 1.422447e+00
    endloop
  endfacet
  facet normal 6.482375e-01 -7.503690e-01 1.293619e-01
    outer loop
      vertex   7.154573e+00 -8.111165e+00 1.664298e+00
      vertex   7.175445e+00 -8.134828e+00 1.422447e+00
      vertex   7.356674e+00 -7.936571e+00 1.664298e+00
    endloop
  endfacet
  facet normal 6.482375e-01 -7.503690e-01 1.293619e-01
    outer loop
      vertex   7.356674e+00 -7.936571e+00 1.664298e+00
      vertex   7.175445e+00 -8.134828e+00 1.422447e+00
      vertex   7.378136e+00 -7.959725e+00 1.422447e+00
    endloop
  endfacet
  facet normal 6.664657e-01 -7.342143e-01 1.294329e-01
    outer loop
      vertex   7.356674e+00 -7.936571e+00 1.664298e+00
      vertex   7.378136e+00 -7.959725e+00 1.422447e+00
      vertex   7.554436e+00 -7.757058e+00 1.664298e+00
    endloop
  endfacet
  facet normal 6.664657e-01 -7.342143e-01 1.294329e-01
    outer loop
      vertex   7.554436e+00 -7.757058e+00 1.664298e+00
      vertex   7.378136e+00 -7.959725e+00 1.422447e+00
      vertex   7.576475e+00 -7.779688e+00 1.422447e+00
    endloop
  endfacet
  facet normal 6.843191e-01 -7.175904e-01 1.295043e-01
    outer loop
      vertex   7.554436e+00 -7.757058e+00 1.664298e+00
      vertex   7.576475e+00 -7.779688e+00 1.422447e+00
      vertex   7.747672e+00 -7.572781e+00 1.664298e+00
    endloop
  endfacet
  facet normal 6.843191e-01 -7.175904e-01 1.295043e-01
    outer loop
      vertex   7.747672e+00 -7.572781e+00 1.664298e+00
      vertex   7.576475e+00 -7.779688e+00 1.422447e+00
      vertex   7.770275e+00 -7.594874e+00 1.422447e+00
    endloop
  endfacet
  facet normal 6.998049e-01 -7.024844e-01 1.295717e-01
    outer loop
      vertex   7.747672e+00 -7.572781e+00 1.664298e+00
      vertex   7.770275e+00 -7.594874e+00 1.422447e+00
      vertex   7.893541e+00 -7.427469e+00 1.664298e+00
    endloop
  endfacet
  facet normal 6.998049e-01 -7.024844e-01 1.295717e-01
    outer loop
      vertex   7.893541e+00 -7.427469e+00 1.664298e+00
      vertex   7.770275e+00 -7.594874e+00 1.422447e+00
      vertex   7.916569e+00 -7.449138e+00 1.422447e+00
    endloop
  endfacet
  facet normal 7.130329e-01 -6.890435e-01 1.296270e-01
    outer loop
      vertex   7.893541e+00 -7.427469e+00 1.664298e+00
      vertex   7.916569e+00 -7.449138e+00 1.422447e+00
      vertex   8.036531e+00 -7.279500e+00 1.664298e+00
    endloop
  endfacet
  facet normal 7.130329e-01 -6.890435e-01 1.296270e-01
    outer loop
      vertex   8.036531e+00 -7.279500e+00 1.664298e+00
      vertex   7.916569e+00 -7.449138e+00 1.422447e+00
      vertex   8.059977e+00 -7.300737e+00 1.422447e+00
    endloop
  endfacet
  facet normal 7.260104e-01 -6.753454e-01 1.296822e-01
    outer loop
      vertex   8.036531e+00 -7.279500e+00 1.664298e+00
      vertex   8.059977e+00 -7.300737e+00 1.422447e+00
      vertex   8.176569e+00 -7.128957e+00 1.664298e+00
    endloop
  endfacet
  facet normal 7.260104e-01 -6.753454e-01 1.296822e-01
    outer loop
      vertex   8.176569e+00 -7.128957e+00 1.664298e+00
      vertex   8.059977e+00 -7.300737e+00 1.422447e+00
      vertex   8.200423e+00 -7.149754e+00 1.422447e+00
    endloop
  endfacet
  facet normal 7.383734e-01 -6.617954e-01 1.297364e-01
    outer loop
      vertex   8.176569e+00 -7.128957e+00 1.664298e+00
      vertex   8.200423e+00 -7.149754e+00 1.422447e+00
      vertex   8.336800e+00 -6.995406e+00 1.433620e+00
    endloop
  endfacet
  facet normal 7.408142e-01 -6.625593e-01 1.104967e-01
    outer loop
      vertex   8.336800e+00 -6.995406e+00 1.433620e+00
      vertex   8.200423e+00 -7.149754e+00 1.422447e+00
      vertex   8.357062e+00 -7.012408e+00 1.195830e+00
    endloop
  endfacet
  facet normal 7.401130e-01 -6.635192e-01 1.094302e-01
    outer loop
      vertex   8.357062e+00 -7.012408e+00 1.195830e+00
      vertex   8.200423e+00 -7.149754e+00 1.422447e+00
      vertex   8.220401e+00 -7.167173e+00 1.181713e+00
    endloop
  endfacet
  facet normal 7.424054e-01 -6.638141e-01 9.047138e-02
    outer loop
      vertex   8.357062e+00 -7.012408e+00 1.195830e+00
      vertex   8.220401e+00 -7.167173e+00 1.181713e+00
      vertex   8.373660e+00 -7.026335e+00 9.574463e-01
    endloop
  endfacet
  facet normal 7.415892e-01 -6.648928e-01 8.923617e-02
    outer loop
      vertex   8.373660e+00 -7.026335e+00 9.574463e-01
      vertex   8.220401e+00 -7.167173e+00 1.181713e+00
      vertex   8.236574e+00 -7.181273e+00 9.422499e-01
    endloop
  endfacet
  facet normal 7.436410e-01 -6.648615e-01 7.040835e-02
    outer loop
      vertex   8.373660e+00 -7.026335e+00 9.574463e-01
      vertex   8.236574e+00 -7.181273e+00 9.422499e-01
      vertex   8.386583e+00 -7.037179e+00 7.185458e-01
    endloop
  endfacet
  facet normal 7.428068e-01 -6.659236e-01 6.916484e-02
    outer loop
      vertex   8.386583e+00 -7.037179e+00 7.185458e-01
      vertex   8.236574e+00 -7.181273e+00 9.422499e-01
      vertex   8.249014e+00 -7.192120e+00 7.042080e-01
    endloop
  endfacet
  facet normal 7.445207e-01 -6.657008e-01 5.031223e-02
    outer loop
      vertex   8.386583e+00 -7.037179e+00 7.185458e-01
      vertex   8.249014e+00 -7.192120e+00 7.042080e-01
      vertex   8.395824e+00 -7.044933e+00 4.792072e-01
    endloop
  endfacet
  facet normal 7.437739e-01 -6.666162e-01 4.922612e-02
    outer loop
      vertex   8.395824e+00 -7.044933e+00 4.792072e-01
      vertex   8.249014e+00 -7.192120e+00 7.042080e-01
      vertex   8.257800e+00 -7.199780e+00 4.677296e-01
    endloop
  endfacet
  facet normal 7.450412e-01 -6.663349e-01 3.019073e-02
    outer loop
      vertex   8.395824e+00 -7.044933e+00 4.792072e-01
      vertex   8.257800e+00 -7.199780e+00 4.677296e-01
      vertex   8.401371e+00 -7.049588e+00 2.395788e-01
    endloop
  endfacet
  facet normal 7.444998e-01 -6.669737e-01 2.942950e-02
    outer loop
      vertex   8.401371e+00 -7.049588e+00 2.395788e-01
      vertex   8.257800e+00 -7.199780e+00 4.677296e-01
      vertex   8.263011e+00 -7.204323e+00 2.329506e-01
    endloop
  endfacet
  facet normal 7.451975e-01 -6.667679e-01 1.006245e-02
    outer loop
      vertex   8.401371e+00 -7.049588e+00 2.395788e-01
      vertex   8.263011e+00 -7.204323e+00 2.329506e-01
      vertex   8.403219e+00 -7.051138e+00 -4.440892e-15
    endloop
  endfacet
  facet normal 7.440421e-01 -6.680785e-01 8.505246e-03
    outer loop
      vertex   8.403219e+00 -7.051138e+00 -4.440892e-15
      vertex   8.263011e+00 -7.204323e+00 2.329506e-01
      vertex   8.243599e+00 -7.228907e+00 -2.035009e-16
    endloop
  endfacet
  facet normal 7.321501e-01 -6.810566e-01 1.086582e-02
    outer loop
      vertex   8.243599e+00 -7.228907e+00 -2.035009e-16
      vertex   8.263011e+00 -7.204323e+00 2.329506e-01
      vertex   8.121492e+00 -7.356458e+00 2.329506e-01
    endloop
  endfacet
  facet normal 7.292448e-01 -6.842105e-01 7.616060e-03
    outer loop
      vertex   8.243599e+00 -7.228907e+00 -2.035009e-16
      vertex   8.121492e+00 -7.356458e+00 2.329506e-01
      vertex   8.080146e+00 -7.403119e+00 -6.510576e-16
    endloop
  endfacet
  facet normal 7.190520e-01 -6.948601e-01 1.155840e-02
    outer loop
      vertex   8.080146e+00 -7.403119e+00 -6.510576e-16
      vertex   8.121492e+00 -7.356458e+00 2.329506e-01
      vertex   7.976990e+00 -7.505991e+00 2.329506e-01
    endloop
  endfacet
  facet normal 7.141191e-01 -6.999881e-01 7.109498e-03
    outer loop
      vertex   8.080146e+00 -7.403119e+00 -6.510576e-16
      vertex   7.976990e+00 -7.505991e+00 2.329506e-01
      vertex   7.912923e+00 -7.573718e+00 -1.098252e-15
    endloop
  endfacet
  facet normal 7.057046e-01 -7.084067e-01 1.187128e-02
    outer loop
      vertex   7.912923e+00 -7.573718e+00 -1.098252e-15
      vertex   7.976990e+00 -7.505991e+00 2.329506e-01
      vertex   7.829580e+00 -7.652840e+00 2.329506e-01
    endloop
  endfacet
  facet normal 6.986726e-01 -7.154075e-01 6.977596e-03
    outer loop
      vertex   7.912923e+00 -7.573718e+00 -1.098252e-15
      vertex   7.829580e+00 -7.652840e+00 2.329506e-01
      vertex   7.741996e+00 -7.740646e+00 -1.300664e-15
    endloop
  endfacet
  facet normal 6.900697e-01 -7.236206e-01 1.330785e-02
    outer loop
      vertex   7.741996e+00 -7.740646e+00 -1.300664e-15
      vertex   7.829580e+00 -7.652840e+00 2.329506e-01
      vertex   7.634301e+00 -7.839065e+00 2.329506e-01
    endloop
  endfacet
  facet normal 6.829147e-01 -7.304635e-01 7.109027e-03
    outer loop
      vertex   7.741996e+00 -7.740646e+00 -1.300664e-15
      vertex   7.634301e+00 -7.839065e+00 2.329506e-01
      vertex   7.567472e+00 -7.903810e+00 -1.096622e-15
    endloop
  endfacet
  facet normal 6.720628e-01 -7.403804e-01 1.297852e-02
    outer loop
      vertex   7.567472e+00 -7.903810e+00 -1.096622e-15
      vertex   7.634301e+00 -7.839065e+00 2.329506e-01
      vertex   7.434448e+00 -8.020476e+00 2.329506e-01
    endloop
  endfacet
  facet normal 6.668557e-01 -7.451479e-01 7.617438e-03
    outer loop
      vertex   7.567472e+00 -7.903810e+00 -1.096622e-15
      vertex   7.434448e+00 -8.020476e+00 2.329506e-01
      vertex   7.389459e+00 -8.063120e+00 -6.496094e-16
    endloop
  endfacet
  facet normal 6.536813e-01 -7.566705e-01 1.227111e-02
    outer loop
      vertex   7.389459e+00 -8.063120e+00 -6.496094e-16
      vertex   7.434448e+00 -8.020476e+00 2.329506e-01
      vertex   7.230210e+00 -8.196915e+00 2.329506e-01
    endloop
  endfacet
  facet normal 6.505043e-01 -7.594550e-01 8.499905e-03
    outer loop
      vertex   7.389459e+00 -8.063120e+00 -6.496094e-16
      vertex   7.230210e+00 -8.196915e+00 2.329506e-01
      vertex   7.208026e+00 -8.218524e+00 -2.029578e-16
    endloop
  endfacet
  facet normal 6.348043e-01 -7.725916e-01 1.121362e-02
    outer loop
      vertex   7.208026e+00 -8.218524e+00 -2.029578e-16
      vertex   7.230210e+00 -8.196915e+00 2.329506e-01
      vertex   7.021710e+00 -8.368148e+00 2.386213e-01
    endloop
  endfacet
  facet normal 6.338655e-01 -7.733788e-01 9.986965e-03
    outer loop
      vertex   7.208026e+00 -8.218524e+00 -2.029578e-16
      vertex   7.021710e+00 -8.368148e+00 2.386213e-01
      vertex   7.023242e+00 -8.369974e+00 -3.191891e-15
    endloop
  endfacet
  facet normal 6.309927e-01 -7.679960e-01 1.096832e-01
    outer loop
      vertex   6.968163e+00 -8.304334e+00 1.428044e+00
      vertex   6.984967e+00 -8.324360e+00 1.191153e+00
      vertex   7.175445e+00 -8.134828e+00 1.422447e+00
    endloop
  endfacet
  facet normal 6.314616e-01 -7.677001e-01 1.090546e-01
    outer loop
      vertex   7.175445e+00 -8.134828e+00 1.422447e+00
      vertex   6.984967e+00 -8.324360e+00 1.191153e+00
      vertex   7.192926e+00 -8.154647e+00 1.181713e+00
    endloop
  endfacet
  facet normal 6.498273e-01 -7.522093e-01 1.091130e-01
    outer loop
      vertex   7.175445e+00 -8.134828e+00 1.422447e+00
      vertex   7.192926e+00 -8.154647e+00 1.181713e+00
      vertex   7.378136e+00 -7.959725e+00 1.422447e+00
    endloop
  endfacet
  facet normal 6.498273e-01 -7.522093e-01 1.091130e-01
    outer loop
      vertex   7.378136e+00 -7.959725e+00 1.422447e+00
      vertex   7.192926e+00 -8.154647e+00 1.181713e+00
      vertex   7.396111e+00 -7.979117e+00 1.181713e+00
    endloop
  endfacet
  facet normal 6.681020e-01 -7.360170e-01 1.091731e-01
    outer loop
      vertex   7.378136e+00 -7.959725e+00 1.422447e+00
      vertex   7.396111e+00 -7.979117e+00 1.181713e+00
      vertex   7.576475e+00 -7.779688e+00 1.422447e+00
    endloop
  endfacet
  facet normal 6.681020e-01 -7.360170e-01 1.091731e-01
    outer loop
      vertex   7.576475e+00 -7.779688e+00 1.422447e+00
      vertex   7.396111e+00 -7.979117e+00 1.181713e+00
      vertex   7.594933e+00 -7.798641e+00 1.181713e+00
    endloop
  endfacet
  facet normal 6.860011e-01 -7.193542e-01 1.092337e-01
    outer loop
      vertex   7.576475e+00 -7.779688e+00 1.422447e+00
      vertex   7.594933e+00 -7.798641e+00 1.181713e+00
      vertex   7.770275e+00 -7.594874e+00 1.422447e+00
    endloop
  endfacet
  facet normal 6.860011e-01 -7.193542e-01 1.092337e-01
    outer loop
      vertex   7.770275e+00 -7.594874e+00 1.422447e+00
      vertex   7.594933e+00 -7.798641e+00 1.181713e+00
      vertex   7.789205e+00 -7.613376e+00 1.181713e+00
    endloop
  endfacet
  facet normal 7.015267e-01 -7.042129e-01 1.092908e-01
    outer loop
      vertex   7.770275e+00 -7.594874e+00 1.422447e+00
      vertex   7.789205e+00 -7.613376e+00 1.181713e+00
      vertex   7.916569e+00 -7.449138e+00 1.422447e+00
    endloop
  endfacet
  facet normal 7.015267e-01 -7.042129e-01 1.092908e-01
    outer loop
      vertex   7.916569e+00 -7.449138e+00 1.422447e+00
      vertex   7.789205e+00 -7.613376e+00 1.181713e+00
      vertex   7.935855e+00 -7.467285e+00 1.181713e+00
    endloop
  endfacet
  facet normal 7.147888e-01 -6.907404e-01 1.093376e-01
    outer loop
      vertex   7.916569e+00 -7.449138e+00 1.422447e+00
      vertex   7.935855e+00 -7.467285e+00 1.181713e+00
      vertex   8.059977e+00 -7.300737e+00 1.422447e+00
    endloop
  endfacet
  facet normal 7.147888e-01 -6.907404e-01 1.093376e-01
    outer loop
      vertex   8.059977e+00 -7.300737e+00 1.422447e+00
      vertex   7.935855e+00 -7.467285e+00 1.181713e+00
      vertex   8.079613e+00 -7.318523e+00 1.181713e+00
    endloop
  endfacet
  facet normal 7.277999e-01 -6.770099e-01 1.093845e-01
    outer loop
      vertex   8.059977e+00 -7.300737e+00 1.422447e+00
      vertex   8.079613e+00 -7.318523e+00 1.181713e+00
      vertex   8.200423e+00 -7.149754e+00 1.422447e+00
    endloop
  endfacet
  facet normal 7.277999e-01 -6.770099e-01 1.093845e-01
    outer loop
      vertex   8.200423e+00 -7.149754e+00 1.422447e+00
      vertex   8.079613e+00 -7.318523e+00 1.181713e+00
      vertex   8.220401e+00 -7.167173e+00 1.181713e+00
    endloop
  endfacet
  facet normal 6.321549e-01 -7.696206e-01 8.980182e-02
    outer loop
      vertex   6.984967e+00 -8.324360e+00 1.191153e+00
      vertex   6.998731e+00 -8.340763e+00 9.536800e-01
      vertex   7.192926e+00 -8.154647e+00 1.181713e+00
    endloop
  endfacet
  facet normal 6.327826e-01 -7.692060e-01 8.892890e-02
    outer loop
      vertex   7.192926e+00 -8.154647e+00 1.181713e+00
      vertex   6.998731e+00 -8.340763e+00 9.536800e-01
      vertex   7.207077e+00 -8.170690e+00 9.422499e-01
    endloop
  endfacet
  facet normal 6.511376e-01 -7.537260e-01 8.897650e-02
    outer loop
      vertex   7.192926e+00 -8.154647e+00 1.181713e+00
      vertex   7.207077e+00 -8.170690e+00 9.422499e-01
      vertex   7.396111e+00 -7.979117e+00 1.181713e+00
    endloop
  endfacet
  facet normal 6.511376e-01 -7.537260e-01 8.897650e-02
    outer loop
      vertex   7.396111e+00 -7.979117e+00 1.181713e+00
      vertex   7.207077e+00 -8.170690e+00 9.422499e-01
      vertex   7.410662e+00 -7.994815e+00 9.422499e-01
    endloop
  endfacet
  facet normal 6.694506e-01 -7.375027e-01 8.902577e-02
    outer loop
      vertex   7.396111e+00 -7.979117e+00 1.181713e+00
      vertex   7.410662e+00 -7.994815e+00 9.422499e-01
      vertex   7.594933e+00 -7.798641e+00 1.181713e+00
    endloop
  endfacet
  facet normal 6.694506e-01 -7.375027e-01 8.902577e-02
    outer loop
      vertex   7.594933e+00 -7.798641e+00 1.181713e+00
      vertex   7.410662e+00 -7.994815e+00 9.422499e-01
      vertex   7.609875e+00 -7.813984e+00 9.422499e-01
    endloop
  endfacet
  facet normal 6.873874e-01 -7.208080e-01 8.907533e-02
    outer loop
      vertex   7.594933e+00 -7.798641e+00 1.181713e+00
      vertex   7.609875e+00 -7.813984e+00 9.422499e-01
      vertex   7.789205e+00 -7.613376e+00 1.181713e+00
    endloop
  endfacet
  facet normal 6.873874e-01 -7.208080e-01 8.907533e-02
    outer loop
      vertex   7.789205e+00 -7.613376e+00 1.181713e+00
      vertex   7.609875e+00 -7.813984e+00 9.422499e-01
      vertex   7.804529e+00 -7.628355e+00 9.422499e-01
    endloop
  endfacet
  facet normal 7.029459e-01 -7.056375e-01 8.912207e-02
    outer loop
      vertex   7.789205e+00 -7.613376e+00 1.181713e+00
      vertex   7.804529e+00 -7.628355e+00 9.422499e-01
      vertex   7.935855e+00 -7.467285e+00 1.181713e+00
    endloop
  endfacet
  facet normal 7.029459e-01 -7.056375e-01 8.912207e-02
    outer loop
      vertex   7.935855e+00 -7.467285e+00 1.181713e+00
      vertex   7.804529e+00 -7.628355e+00 9.422499e-01
      vertex   7.951468e+00 -7.481976e+00 9.422499e-01
    endloop
  endfacet
  facet normal 7.162361e-01 -6.921389e-01 8.916045e-02
    outer loop
      vertex   7.935855e+00 -7.467285e+00 1.181713e+00
      vertex   7.951468e+00 -7.481976e+00 9.422499e-01
      vertex   8.079613e+00 -7.318523e+00 1.181713e+00
    endloop
  endfacet
  facet normal 7.162361e-01 -6.921389e-01 8.916045e-02
    outer loop
      vertex   8.079613e+00 -7.318523e+00 1.181713e+00
      vertex   7.951468e+00 -7.481976e+00 9.422499e-01
      vertex   8.095508e+00 -7.332922e+00 9.422499e-01
    endloop
  endfacet
  facet normal 7.292747e-01 -6.783819e-01 8.919878e-02
    outer loop
      vertex   8.079613e+00 -7.318523e+00 1.181713e+00
      vertex   8.095508e+00 -7.332922e+00 9.422499e-01
      vertex   8.220401e+00 -7.167173e+00 1.181713e+00
    endloop
  endfacet
  facet normal 7.292747e-01 -6.783819e-01 8.919878e-02
    outer loop
      vertex   8.220401e+00 -7.167173e+00 1.181713e+00
      vertex   8.095508e+00 -7.332922e+00 9.422499e-01
      vertex   8.236574e+00 -7.181273e+00 9.422499e-01
    endloop
  endfacet
  facet normal 6.331167e-01 -7.708952e-01 6.988482e-02
    outer loop
      vertex   6.998731e+00 -8.340763e+00 9.536800e-01
      vertex   7.009448e+00 -8.353535e+00 7.157014e-01
      vertex   7.207077e+00 -8.170690e+00 9.422499e-01
    endloop
  endfacet
  facet normal 6.337865e-01 -7.704310e-01 6.892587e-02
    outer loop
      vertex   7.207077e+00 -8.170690e+00 9.422499e-01
      vertex   7.009448e+00 -8.353535e+00 7.157014e-01
      vertex   7.217963e+00 -8.183031e+00 7.042080e-01
    endloop
  endfacet
  facet normal 6.521741e-01 -7.549258e-01 6.896288e-02
    outer loop
      vertex   7.207077e+00 -8.170690e+00 9.422499e-01
      vertex   7.217963e+00 -8.183031e+00 7.042080e-01
      vertex   7.410662e+00 -7.994815e+00 9.422499e-01
    endloop
  endfacet
  facet normal 6.521741e-01 -7.549258e-01 6.896288e-02
    outer loop
      vertex   7.410662e+00 -7.994815e+00 9.422499e-01
      vertex   7.217963e+00 -8.183031e+00 7.042080e-01
      vertex   7.421855e+00 -8.006890e+00 7.042080e-01
    endloop
  endfacet
  facet normal 6.705175e-01 -7.386780e-01 6.900119e-02
    outer loop
      vertex   7.410662e+00 -7.994815e+00 9.422499e-01
      vertex   7.421855e+00 -8.006890e+00 7.042080e-01
      vertex   7.609875e+00 -7.813984e+00 9.422499e-01
    endloop
  endfacet
  facet normal 6.705175e-01 -7.386780e-01 6.900119e-02
    outer loop
      vertex   7.609875e+00 -7.813984e+00 9.422499e-01
      vertex   7.421855e+00 -8.006890e+00 7.042080e-01
      vertex   7.621369e+00 -7.825786e+00 7.042080e-01
    endloop
  endfacet
  facet normal 6.884841e-01 -7.219579e-01 6.903972e-02
    outer loop
      vertex   7.609875e+00 -7.813984e+00 9.422499e-01
      vertex   7.621369e+00 -7.825786e+00 7.042080e-01
      vertex   7.804529e+00 -7.628355e+00 9.422499e-01
    endloop
  endfacet
  facet normal 6.884841e-01 -7.219579e-01 6.903972e-02
    outer loop
      vertex   7.804529e+00 -7.628355e+00 9.422499e-01
      vertex   7.621369e+00 -7.825786e+00 7.042080e-01
      vertex   7.816317e+00 -7.639877e+00 7.042080e-01
    endloop
  endfacet
  facet normal 7.040686e-01 -7.067644e-01 6.907607e-02
    outer loop
      vertex   7.804529e+00 -7.628355e+00 9.422499e-01
      vertex   7.816317e+00 -7.639877e+00 7.042080e-01
      vertex   7.951468e+00 -7.481976e+00 9.422499e-01
    endloop
  endfacet
  facet normal 7.040686e-01 -7.067644e-01 6.907607e-02
    outer loop
      vertex   7.951468e+00 -7.481976e+00 9.422499e-01
      vertex   7.816317e+00 -7.639877e+00 7.042080e-01
      vertex   7.963478e+00 -7.493277e+00 7.042080e-01
    endloop
  endfacet
  facet normal 7.173809e-01 -6.932453e-01 6.910591e-02
    outer loop
      vertex   7.951468e+00 -7.481976e+00 9.422499e-01
      vertex   7.963478e+00 -7.493277e+00 7.042080e-01
      vertex   8.095508e+00 -7.332922e+00 9.422499e-01
    endloop
  endfacet
  facet normal 7.173809e-01 -6.932453e-01 6.910591e-02
    outer loop
      vertex   8.095508e+00 -7.332922e+00 9.422499e-01
      vertex   7.963478e+00 -7.493277e+00 7.042080e-01
      vertex   8.107736e+00 -7.343997e+00 7.042080e-01
    endloop
  endfacet
  facet normal 7.304414e-01 -6.794671e-01 6.913572e-02
    outer loop
      vertex   8.095508e+00 -7.332922e+00 9.422499e-01
      vertex   8.107736e+00 -7.343997e+00 7.042080e-01
      vertex   8.236574e+00 -7.181273e+00 9.422499e-01
    endloop
  endfacet
  facet normal 7.304414e-01 -6.794671e-01 6.913572e-02
    outer loop
      vertex   8.236574e+00 -7.181273e+00 9.422499e-01
      vertex   8.107736e+00 -7.343997e+00 7.042080e-01
      vertex   8.249014e+00 -7.192120e+00 7.042080e-01
    endloop
  endfacet
  facet normal 6.338762e-01 -7.718208e-01 4.993647e-02
    outer loop
      vertex   7.009448e+00 -8.353535e+00 7.157014e-01
      vertex   7.017111e+00 -8.362667e+00 4.772950e-01
      vertex   7.217963e+00 -8.183031e+00 7.042080e-01
    endloop
  endfacet
  facet normal 6.344790e-01 -7.713818e-01 4.905543e-02
    outer loop
      vertex   7.217963e+00 -8.183031e+00 7.042080e-01
      vertex   7.017111e+00 -8.362667e+00 4.772950e-01
      vertex   7.225651e+00 -8.191746e+00 4.677296e-01
    endloop
  endfacet
  facet normal 6.529426e-01 -7.558154e-01 4.908196e-02
    outer loop
      vertex   7.217963e+00 -8.183031e+00 7.042080e-01
      vertex   7.225651e+00 -8.191746e+00 4.677296e-01
      vertex   7.421855e+00 -8.006890e+00 7.042080e-01
    endloop
  endfacet
  facet normal 6.529426e-01 -7.558154e-01 4.908196e-02
    outer loop
      vertex   7.421855e+00 -8.006890e+00 7.042080e-01
      vertex   7.225651e+00 -8.191746e+00 4.677296e-01
      vertex   7.429760e+00 -8.015418e+00 4.677296e-01
    endloop
  endfacet
  facet normal 6.713084e-01 -7.395494e-01 4.910929e-02
    outer loop
      vertex   7.421855e+00 -8.006890e+00 7.042080e-01
      vertex   7.429760e+00 -8.015418e+00 4.677296e-01
      vertex   7.621369e+00 -7.825786e+00 7.042080e-01
    endloop
  endfacet
  facet normal 6.713084e-01 -7.395494e-01 4.910929e-02
    outer loop
      vertex   7.621369e+00 -7.825786e+00 7.042080e-01
      vertex   7.429760e+00 -8.015418e+00 4.677296e-01
      vertex   7.629486e+00 -7.834121e+00 4.677296e-01
    endloop
  endfacet
  facet normal 6.892971e-01 -7.228105e-01 4.913678e-02
    outer loop
      vertex   7.621369e+00 -7.825786e+00 7.042080e-01
      vertex   7.629486e+00 -7.834121e+00 4.677296e-01
      vertex   7.816317e+00 -7.639877e+00 7.042080e-01
    endloop
  endfacet
  facet normal 6.892971e-01 -7.228105e-01 4.913678e-02
    outer loop
      vertex   7.816317e+00 -7.639877e+00 7.042080e-01
      vertex   7.629486e+00 -7.834121e+00 4.677296e-01
      vertex   7.824642e+00 -7.648014e+00 4.677296e-01
    endloop
  endfacet
  facet normal 7.049009e-01 -7.076000e-01 4.916271e-02
    outer loop
      vertex   7.816317e+00 -7.639877e+00 7.042080e-01
      vertex   7.824642e+00 -7.648014e+00 4.677296e-01
      vertex   7.963478e+00 -7.493277e+00 7.042080e-01
    endloop
  endfacet
  facet normal 7.049009e-01 -7.076000e-01 4.916271e-02
    outer loop
      vertex   7.963478e+00 -7.493277e+00 7.042080e-01
      vertex   7.824642e+00 -7.648014e+00 4.677296e-01
      vertex   7.971960e+00 -7.501258e+00 4.677296e-01
    endloop
  endfacet
  facet normal 7.182297e-01 -6.940655e-01 4.918400e-02
    outer loop
      vertex   7.963478e+00 -7.493277e+00 7.042080e-01
      vertex   7.971960e+00 -7.501258e+00 4.677296e-01
      vertex   8.107736e+00 -7.343997e+00 7.042080e-01
    endloop
  endfacet
  facet normal 7.182297e-01 -6.940655e-01 4.918400e-02
    outer loop
      vertex   8.107736e+00 -7.343997e+00 7.042080e-01
      vertex   7.971960e+00 -7.501258e+00 4.677296e-01
      vertex   8.116371e+00 -7.351819e+00 4.677296e-01
    endloop
  endfacet
  facet normal 7.313065e-01 -6.802718e-01 4.920526e-02
    outer loop
      vertex   8.107736e+00 -7.343997e+00 7.042080e-01
      vertex   8.116371e+00 -7.351819e+00 4.677296e-01
      vertex   8.249014e+00 -7.192120e+00 7.042080e-01
    endloop
  endfacet
  facet normal 7.313065e-01 -6.802718e-01 4.920526e-02
    outer loop
      vertex   8.249014e+00 -7.192120e+00 7.042080e-01
      vertex   8.116371e+00 -7.351819e+00 4.677296e-01
      vertex   8.257800e+00 -7.199780e+00 4.677296e-01
    endloop
  endfacet
  facet normal 6.344344e-01 -7.723957e-01 2.996458e-02
    outer loop
      vertex   7.017111e+00 -8.362667e+00 4.772950e-01
      vertex   7.021710e+00 -8.368148e+00 2.386213e-01
      vertex   7.225651e+00 -8.191746e+00 4.677296e-01
    endloop
  endfacet
  facet normal 6.348653e-01 -7.720660e-01 2.932707e-02
    outer loop
      vertex   7.225651e+00 -8.191746e+00 4.677296e-01
      vertex   7.021710e+00 -8.368148e+00 2.386213e-01
      vertex   7.230210e+00 -8.196915e+00 2.329506e-01
    endloop
  endfacet
  facet normal 6.534490e-01 -7.564016e-01 2.934309e-02
    outer loop
      vertex   7.225651e+00 -8.191746e+00 4.677296e-01
      vertex   7.230210e+00 -8.196915e+00 2.329506e-01
      vertex   7.429760e+00 -8.015418e+00 4.677296e-01
    endloop
  endfacet
  facet normal 6.534490e-01 -7.564016e-01 2.934309e-02
    outer loop
      vertex   7.429760e+00 -8.015418e+00 4.677296e-01
      vertex   7.230210e+00 -8.196915e+00 2.329506e-01
      vertex   7.434448e+00 -8.020476e+00 2.329506e-01
    endloop
  endfacet
  facet normal 6.718297e-01 -7.401236e-01 2.935945e-02
    outer loop
      vertex   7.429760e+00 -8.015418e+00 4.677296e-01
      vertex   7.434448e+00 -8.020476e+00 2.329506e-01
      vertex   7.629486e+00 -7.834121e+00 4.677296e-01
    endloop
  endfacet
  facet normal 6.718297e-01 -7.401236e-01 2.935945e-02
    outer loop
      vertex   7.629486e+00 -7.834121e+00 4.677296e-01
      vertex   7.434448e+00 -8.020476e+00 2.329506e-01
      vertex   7.634301e+00 -7.839065e+00 2.329506e-01
    endloop
  endfacet
  facet normal 6.898329e-01 -7.233724e-01 2.937591e-02
    outer loop
      vertex   7.629486e+00 -7.834121e+00 4.677296e-01
      vertex   7.634301e+00 -7.839065e+00 2.329506e-01
      vertex   7.824642e+00 -7.648014e+00 4.677296e-01
    endloop
  endfacet
  facet normal 6.898329e-01 -7.233724e-01 2.937591e-02
    outer loop
      vertex   7.824642e+00 -7.648014e+00 4.677296e-01
      vertex   7.634301e+00 -7.839065e+00 2.329506e-01
      vertex   7.829580e+00 -7.652840e+00 2.329506e-01
    endloop
  endfacet
  facet normal 7.054494e-01 -7.081506e-01 2.939144e-02
    outer loop
      vertex   7.824642e+00 -7.648014e+00 4.677296e-01
      vertex   7.829580e+00 -7.652840e+00 2.329506e-01
      vertex   7.971960e+00 -7.501258e+00 4.677296e-01
    endloop
  endfacet
  facet normal 7.054494e-01 -7.081506e-01 2.939144e-02
    outer loop
      vertex   7.971960e+00 -7.501258e+00 4.677296e-01
      vertex   7.829580e+00 -7.652840e+00 2.329506e-01
      vertex   7.976990e+00 -7.505991e+00 2.329506e-01
    endloop
  endfacet
  facet normal 7.187891e-01 -6.946061e-01 2.940419e-02
    outer loop
      vertex   7.971960e+00 -7.501258e+00 4.677296e-01
      vertex   7.976990e+00 -7.505991e+00 2.329506e-01
      vertex   8.116371e+00 -7.351819e+00 4.677296e-01
    endloop
  endfacet
  facet normal 7.187891e-01 -6.946061e-01 2.940419e-02
    outer loop
      vertex   8.116371e+00 -7.351819e+00 4.677296e-01
      vertex   7.976990e+00 -7.505991e+00 2.329506e-01
      vertex   8.121492e+00 -7.356458e+00 2.329506e-01
    endloop
  endfacet
  facet normal 7.318765e-01 -6.808021e-01 2.941692e-02
    outer loop
      vertex   8.116371e+00 -7.351819e+00 4.677296e-01
      vertex   8.121492e+00 -7.356458e+00 2.329506e-01
      vertex   8.257800e+00 -7.199780e+00 4.677296e-01
    endloop
  endfacet
  facet normal 7.318765e-01 -6.808021e-01 2.941692e-02
    outer loop
      vertex   8.257800e+00 -7.199780e+00 4.677296e-01
      vertex   8.121492e+00 -7.356458e+00 2.329506e-01
      vertex   8.263011e+00 -7.204323e+00 2.329506e-01
    endloop
  endfacet
  facet normal 7.388644e-01 -6.611009e-01 1.304795e-01
    outer loop
      vertex   8.336800e+00 -6.995406e+00 1.433620e+00
      vertex   8.312883e+00 -6.975337e+00 1.670737e+00
      vertex   8.176569e+00 -7.128957e+00 1.664298e+00
    endloop
  endfacet
  facet normal 6.427876e-01 7.660444e-01 -8.808578e-11
    outer loop
      vertex   8.285320e+00 -6.952209e+00 1.907103e+00
      vertex   8.312883e+00 -6.975337e+00 1.670737e+00
      vertex   0.000000e+00 0.000000e+00 0.000000e+00
    endloop
  endfacet
  facet normal 6.427876e-01 7.660444e-01 -2.235546e-10
    outer loop
      vertex   0.000000e+00 0.000000e+00 0.000000e+00
      vertex   8.312883e+00 -6.975337e+00 1.670737e+00
      vertex   8.336800e+00 -6.995406e+00 1.433620e+00
    endloop
  endfacet
  facet normal 6.427876e-01 7.660444e-01 -2.973506e-10
    outer loop
      vertex   0.000000e+00 0.000000e+00 0.000000e+00
      vertex   8.336800e+00 -6.995406e+00 1.433620e+00
      vertex   8.357062e+00 -7.012408e+00 1.195830e+00
    endloop
  endfacet
  facet normal 6.427876e-01 7.660444e-01 -3.091081e-10
    outer loop
      vertex   8.357062e+00 -7.012408e+00 1.195830e+00
      vertex   8.373660e+00 -7.026335e+00 9.574463e-01
      vertex   0.000000e+00 0.000000e+00 0.000000e+00
    endloop
  endfacet
  facet normal 6.427876e-01 7.660444e-01 -2.586646e-10
    outer loop
      vertex   0.000000e+00 0.000000e+00 0.000000e+00
      vertex   8.373660e+00 -7.026335e+00 9.574463e-01
      vertex   8.386583e+00 -7.037179e+00 7.185458e-01
    endloop
  endfacet
  facet normal 6.427876e-01 7.660444e-01 -1.458506e-10
    outer loop
      vertex   0.000000e+00 0.000000e+00 0.000000e+00
      vertex   8.386583e+00 -7.037179e+00 7.185458e-01
      vertex   8.395824e+00 -7.044933e+00 4.792072e-01
    endloop
  endfacet
  facet normal 6.427876e-01 7.660444e-01 4.339368e-10
    outer loop
      vertex   8.395824e+00 -7.044933e+00 4.792072e-01
      vertex   8.401371e+00 -7.049588e+00 2.395788e-01
      vertex   0.000000e+00 0.000000e+00 0.000000e+00
    endloop
  endfacet
  facet normal 6.427876e-01 7.660444e-01 9.020369e-10
    outer loop
      vertex   0.000000e+00 0.000000e+00 0.000000e+00
      vertex   8.401371e+00 -7.049588e+00 2.395788e-01
      vertex   8.403219e+00 -7.051138e+00 -4.440892e-15
    endloop
  endfacet
  facet normal -1.139403e-01 1.310733e-01 9.848032e-01
    outer loop
      vertex   0.000000e+00 0.000000e+00 0.000000e+00
      vertex   6.925467e+00 -8.253450e+00 1.899767e+00
      vertex   3.618564e+00 -4.018822e+00 9.535514e-01
    endloop
  endfacet
  facet normal -1.130478e-01 1.317724e-01 9.848128e-01
    outer loop
      vertex   3.618564e+00 -4.018822e+00 9.535514e-01
      vertex   6.925467e+00 -8.253450e+00 1.899767e+00
      vertex   7.107572e+00 -8.104006e+00 1.900675e+00
    endloop
  endfacet
  facet normal -1.159311e-01 1.293079e-01 9.848043e-01
    outer loop
      vertex   3.618564e+00 -4.018822e+00 9.535514e-01
      vertex   7.107572e+00 -8.104006e+00 1.900675e+00
      vertex   7.286371e+00 -7.950664e+00 1.901589e+00
    endloop
  endfacet
  facet normal -1.184188e-01 1.269886e-01 9.848101e-01
    outer loop
      vertex   3.618564e+00 -4.018822e+00 9.535514e-01
      vertex   7.286371e+00 -7.950664e+00 1.901589e+00
      vertex   3.756614e+00 -3.890088e+00 9.535514e-01
    endloop
  endfacet
  facet normal -1.187141e-01 1.267314e-01 9.848077e-01
    outer loop
      vertex   3.756614e+00 -3.890088e+00 9.535514e-01
      vertex   7.286371e+00 -7.950664e+00 1.901589e+00
      vertex   7.461795e+00 -7.793473e+00 1.902507e+00
    endloop
  endfacet
  facet normal -1.214626e-01 1.241218e-01 9.848049e-01
    outer loop
      vertex   3.756614e+00 -3.890088e+00 9.535514e-01
      vertex   7.461795e+00 -7.793473e+00 1.902507e+00
      vertex   7.633777e+00 -7.632483e+00 1.903428e+00
    endloop
  endfacet
  facet normal -1.227696e-01 1.227696e-01 9.848123e-01
    outer loop
      vertex   3.756614e+00 -3.890088e+00 9.535514e-01
      vertex   7.633777e+00 -7.632483e+00 1.903428e+00
      vertex   3.890088e+00 -3.756614e+00 9.535514e-01
    endloop
  endfacet
  facet normal -1.241416e-01 1.214425e-01 9.848048e-01
    outer loop
      vertex   3.890088e+00 -3.756614e+00 9.535514e-01
      vertex   7.633777e+00 -7.632483e+00 1.903428e+00
      vertex   7.802209e+00 -7.467783e+00 1.904350e+00
    endloop
  endfacet
  facet normal -1.267484e-01 1.186954e-01 9.848077e-01
    outer loop
      vertex   3.890088e+00 -3.756614e+00 9.535514e-01
      vertex   7.802209e+00 -7.467783e+00 1.904350e+00
      vertex   7.966985e+00 -7.299467e+00 1.905271e+00
    endloop
  endfacet
  facet normal -1.269890e-01 1.184191e-01 9.848100e-01
    outer loop
      vertex   3.890088e+00 -3.756614e+00 9.535514e-01
      vertex   7.966985e+00 -7.299467e+00 1.905271e+00
      vertex   4.018822e+00 -3.618564e+00 9.535514e-01
    endloop
  endfacet
  facet normal -1.293191e-01 1.159183e-01 9.848043e-01
    outer loop
      vertex   4.018822e+00 -3.618564e+00 9.535514e-01
      vertex   7.966985e+00 -7.299467e+00 1.905271e+00
      vertex   8.128044e+00 -7.127591e+00 1.906189e+00
    endloop
  endfacet
  facet normal -1.317777e-01 1.130416e-01 9.848128e-01
    outer loop
      vertex   4.018822e+00 -3.618564e+00 9.535514e-01
      vertex   8.128044e+00 -7.127591e+00 1.906189e+00
      vertex   8.285320e+00 -6.952209e+00 1.907103e+00
    endloop
  endfacet
  facet normal -1.310733e-01 1.139403e-01 9.848032e-01
    outer loop
      vertex   8.285320e+00 -6.952209e+00 1.907103e+00
      vertex   0.000000e+00 0.000000e+00 0.000000e+00
      vertex   4.018822e+00 -3.618564e+00 9.535514e-01
    endloop
  endfacet
  facet normal -1.270170e-01 1.184453e-01 9.848032e-01
    outer loop
      vertex   4.018822e+00 -3.618564e+00 9.535514e-01
      vertex   0.000000e+00 0.000000e+00 0.000000e+00
      vertex   3.890088e+00 -3.756614e+00 9.535514e-01
    endloop
  endfacet
  facet normal -1.228059e-01 1.228059e-01 9.848032e-01
    outer loop
      vertex   3.890088e+00 -3.756614e+00 9.535514e-01
      vertex   0.000000e+00 0.000000e+00 0.000000e+00
      vertex   3.756614e+00 -3.890088e+00 9.535514e-01
    endloop
  endfacet
  facet normal -1.184453e-01 1.270170e-01 9.848032e-01
    outer loop
      vertex   3.756614e+00 -3.890088e+00 9.535514e-01
      vertex   0.000000e+00 0.000000e+00 0.000000e+00
      vertex   3.618564e+00 -4.018822e+00 9.535514e-01
    endloop
  endfacet
  facet normal -1.170827e-14 -1.332355e-14 -1.000000e+00
    outer loop
      vertex   8.403219e+00 -7.051138e+00 -4.440892e-15
      vertex   8.243599e+00 -7.228907e+00 -2.035009e-16
      vertex   0.000000e+00 0.000000e+00 0.000000e+00
    endloop
  endfacet
  facet normal 1.222395e-15 1.422128e-15 -1.000000e+00
    outer loop
      vertex   0.000000e+00 0.000000e+00 0.000000e+00
      vertex   8.243599e+00 -7.228907e+00 -2.035009e-16
      vertex   8.080146e+00 -7.403119e+00 -6.510576e-16
    endloop
  endfacet
  facet normal 1.222873e-15 1.422650e-15 -1.000000e+00
    outer loop
      vertex   0.000000e+00 0.000000e+00 0.000000e+00
      vertex   8.080146e+00 -7.403119e+00 -6.510576e-16
      vertex   7.912923e+00 -7.573718e+00 -1.098252e-15
    endloop
  endfacet
  facet normal 5.160441e-16 6.841645e-16 -1.000000e+00
    outer loop
      vertex   7.912923e+00 -7.573718e+00 -1.098252e-15
      vertex   7.741996e+00 -7.740646e+00 -1.300664e-15
      vertex   0.000000e+00 0.000000e+00 0.000000e+00
    endloop
  endfacet
  facet normal -6.853612e-16 -5.174503e-16 -1.000000e+00
    outer loop
      vertex   0.000000e+00 0.000000e+00 0.000000e+00
      vertex   7.741996e+00 -7.740646e+00 -1.300664e-15
      vertex   7.567472e+00 -7.903810e+00 -1.096622e-15
    endloop
  endfacet
  facet normal -1.419227e-15 -1.220088e-15 -1.000000e+00
    outer loop
      vertex   0.000000e+00 0.000000e+00 0.000000e+00
      vertex   7.567472e+00 -7.903810e+00 -1.096622e-15
      vertex   7.389459e+00 -8.063120e+00 -6.496094e-16
    endloop
  endfacet
  facet normal -1.417837e-15 -1.218813e-15 -1.000000e+00
    outer loop
      vertex   7.389459e+00 -8.063120e+00 -6.496094e-16
      vertex   7.208026e+00 -8.218524e+00 -2.029578e-16
      vertex   0.000000e+00 0.000000e+00 0.000000e+00
    endloop
  endfacet
  facet normal 9.398877e-15 8.267944e-15 -1.000000e+00
    outer loop
      vertex   0.000000e+00 0.000000e+00 0.000000e+00
      vertex   7.208026e+00 -8.218524e+00 -2.029578e-16
      vertex   7.023242e+00 -8.369974e+00 -3.191891e-15
    endloop
  endfacet
endsolid
