solid ASCII
  facet normal 9.396926e-01 3.420201e-01 1.671399e-15
    outer loop
      vertex   1.927910e+00 -5.296890e+00 -9.763281e+00
      vertex   0.000000e+00 0.000000e+00 0.000000e+00
      vertex   1.997954e+00 -5.489334e+00 -9.628956e+00
    endloop
  endfacet
  facet normal 9.396926e-01 3.420201e-01 -8.062825e-16
    outer loop
      vertex   1.997954e+00 -5.489334e+00 -9.628956e+00
      vertex   0.000000e+00 0.000000e+00 0.000000e+00
      vertex   2.066943e+00 -5.678879e+00 -9.490010e+00
    endloop
  endfacet
  facet normal 9.396926e-01 3.420201e-01 -8.876701e-16
    outer loop
      vertex   2.066943e+00 -5.678879e+00 -9.490010e+00
      vertex   0.000000e+00 0.000000e+00 0.000000e+00
      vertex   2.134855e+00 -5.865465e+00 -9.346508e+00
    endloop
  endfacet
  facet normal 9.396926e-01 3.420201e-01 1.615132e-15
    outer loop
      vertex   2.134855e+00 -5.865465e+00 -9.346508e+00
      vertex   0.000000e+00 0.000000e+00 0.000000e+00
      vertex   2.201666e+00 -6.049029e+00 -9.198513e+00
    endloop
  endfacet
  facet normal 9.396926e-01 3.420201e-01 -1.616128e-15
    outer loop
      vertex   2.201666e+00 -6.049029e+00 -9.198513e+00
      vertex   0.000000e+00 0.000000e+00 0.000000e+00
      vertex   2.267355e+00 -6.229507e+00 -9.046090e+00
    endloop
  endfacet
  facet normal 9.396926e-01 3.420201e-01 -1.819051e-16
    outer loop
      vertex   2.267355e+00 -6.229507e+00 -9.046090e+00
      vertex   0.000000e+00 0.000000e+00 0.000000e+00
      vertex   2.331899e+00 -6.406839e+00 -8.889305e+00
    endloop
  endfacet
  facet normal 9.396926e-01 3.420201e-01 1.031191e-15
    outer loop
      vertex   2.331899e+00 -6.406839e+00 -8.889305e+00
      vertex   0.000000e+00 0.000000e+00 0.000000e+00
      vertex   2.395274e+00 -6.580961e+00 -8.728220e+00
    endloop
  endfacet
  facet normal 9.396926e-01 3.420201e-01 2.346082e-15
    outer loop
      vertex   2.395274e+00 -6.580961e+00 -8.728220e+00
      vertex   0.000000e+00 0.000000e+00 0.000000e+00
      vertex   2.457458e+00 -6.751811e+00 -8.562901e+00
    endloop
  endfacet
  facet normal 9.972564e-02 -5.408369e-01 -8.351947e-01
    outer loop
      vertex   1.013809e+00 -5.749599e+00 -9.623553e+00
      vertex   9.783119e-01 -5.548282e+00 -9.758155e+00
      vertex   1.236215e+00 -5.595133e+00 -9.697022e+00
    endloop
  endfacet
  facet normal 1.016762e-01 -5.348299e-01 -8.388200e-01
    outer loop
      vertex   1.236215e+00 -5.595133e+00 -9.697022e+00
      vertex   9.783119e-01 -5.548282e+00 -9.758155e+00
      vertex   1.219564e+00 -5.500873e+00 -9.759140e+00
    endloop
  endfacet
  facet normal 1.236322e-01 -5.307260e-01 -8.384778e-01
    outer loop
      vertex   1.236215e+00 -5.595133e+00 -9.697022e+00
      vertex   1.219564e+00 -5.500873e+00 -9.759140e+00
      vertex   1.478577e+00 -5.538675e+00 -9.697022e+00
    endloop
  endfacet
  facet normal 1.239030e-01 -5.297835e-01 -8.390337e-01
    outer loop
      vertex   1.478577e+00 -5.538675e+00 -9.697022e+00
      vertex   1.219564e+00 -5.500873e+00 -9.759140e+00
      vertex   1.458546e+00 -5.443098e+00 -9.760329e+00
    endloop
  endfacet
  facet normal 1.457355e-01 -5.249121e-01 -8.385872e-01
    outer loop
      vertex   1.478577e+00 -5.538675e+00 -9.697022e+00
      vertex   1.458546e+00 -5.443098e+00 -9.760329e+00
      vertex   1.721046e+00 -5.471356e+00 -9.697022e+00
    endloop
  endfacet
  facet normal 1.459694e-01 -5.239691e-01 -8.391361e-01
    outer loop
      vertex   1.721046e+00 -5.471356e+00 -9.697022e+00
      vertex   1.458546e+00 -5.443098e+00 -9.760329e+00
      vertex   1.694807e+00 -5.375063e+00 -9.761713e+00
    endloop
  endfacet
  facet normal 1.679983e-01 -5.177790e-01 -8.388572e-01
    outer loop
      vertex   1.721046e+00 -5.471356e+00 -9.697022e+00
      vertex   1.694807e+00 -5.375063e+00 -9.761713e+00
      vertex   1.927910e+00 -5.296890e+00 -9.763281e+00
    endloop
  endfacet
  facet normal 1.716795e-01 -5.210822e-01 -8.360619e-01
    outer loop
      vertex   1.927910e+00 -5.296890e+00 -9.763281e+00
      vertex   1.997954e+00 -5.489334e+00 -9.628956e+00
      vertex   1.721046e+00 -5.471356e+00 -9.697022e+00
    endloop
  endfacet
  facet normal 1.705618e-01 -5.264383e-01 -8.329294e-01
    outer loop
      vertex   1.721046e+00 -5.471356e+00 -9.697022e+00
      vertex   1.997954e+00 -5.489334e+00 -9.628956e+00
      vertex   1.751548e+00 -5.568324e+00 -9.629489e+00
    endloop
  endfacet
  facet normal 1.480947e-01 -5.334096e-01 -8.327918e-01
    outer loop
      vertex   1.721046e+00 -5.471356e+00 -9.697022e+00
      vertex   1.751548e+00 -5.568324e+00 -9.629489e+00
      vertex   1.478577e+00 -5.538675e+00 -9.697022e+00
    endloop
  endfacet
  facet normal 1.480947e-01 -5.334096e-01 -8.327918e-01
    outer loop
      vertex   1.478577e+00 -5.538675e+00 -9.697022e+00
      vertex   1.751548e+00 -5.568324e+00 -9.629489e+00
      vertex   1.504782e+00 -5.636836e+00 -9.629489e+00
    endloop
  endfacet
  facet normal 1.256351e-01 -5.393240e-01 -8.326737e-01
    outer loop
      vertex   1.478577e+00 -5.538675e+00 -9.697022e+00
      vertex   1.504782e+00 -5.636836e+00 -9.629489e+00
      vertex   1.236215e+00 -5.595133e+00 -9.697022e+00
    endloop
  endfacet
  facet normal 1.256351e-01 -5.393240e-01 -8.326737e-01
    outer loop
      vertex   1.236215e+00 -5.595133e+00 -9.697022e+00
      vertex   1.504782e+00 -5.636836e+00 -9.629489e+00
      vertex   1.258124e+00 -5.694294e+00 -9.629489e+00
    endloop
  endfacet
  facet normal 1.029710e-01 -5.442621e-01 -8.325718e-01
    outer loop
      vertex   1.236215e+00 -5.595133e+00 -9.697022e+00
      vertex   1.258124e+00 -5.694294e+00 -9.629489e+00
      vertex   1.013809e+00 -5.749599e+00 -9.623553e+00
    endloop
  endfacet
  facet normal 1.051911e-01 -5.533916e-01 -8.262521e-01
    outer loop
      vertex   1.013809e+00 -5.749599e+00 -9.623553e+00
      vertex   1.258124e+00 -5.694294e+00 -9.629489e+00
      vertex   1.279905e+00 -5.792876e+00 -9.560690e+00
    endloop
  endfacet
  facet normal 1.033387e-01 -5.593149e-01 -8.224888e-01
    outer loop
      vertex   1.013809e+00 -5.749599e+00 -9.623553e+00
      vertex   1.279905e+00 -5.792876e+00 -9.560690e+00
      vertex   1.048770e+00 -5.947871e+00 -9.484329e+00
    endloop
  endfacet
  facet normal 1.046003e-01 -5.606646e-01 -8.214098e-01
    outer loop
      vertex   1.048770e+00 -5.947871e+00 -9.484329e+00
      vertex   1.279905e+00 -5.792876e+00 -9.560690e+00
      vertex   1.290746e+00 -5.841942e+00 -9.525819e+00
    endloop
  endfacet
  facet normal 1.070072e-01 -5.649018e-01 -8.181903e-01
    outer loop
      vertex   1.048770e+00 -5.947871e+00 -9.484329e+00
      vertex   1.290746e+00 -5.841942e+00 -9.525819e+00
      vertex   1.301553e+00 -5.890856e+00 -9.490634e+00
    endloop
  endfacet
  facet normal 1.304068e-01 -5.598081e-01 -8.182964e-01
    outer loop
      vertex   1.301553e+00 -5.890856e+00 -9.490634e+00
      vertex   1.290746e+00 -5.841942e+00 -9.525819e+00
      vertex   1.556725e+00 -5.831414e+00 -9.490634e+00
    endloop
  endfacet
  facet normal 1.314559e-01 -5.643117e-01 -8.150286e-01
    outer loop
      vertex   1.301553e+00 -5.890856e+00 -9.490634e+00
      vertex   1.556725e+00 -5.831414e+00 -9.490634e+00
      vertex   1.569610e+00 -5.879680e+00 -9.455137e+00
    endloop
  endfacet
  facet normal 1.549582e-01 -5.581308e-01 -8.151552e-01
    outer loop
      vertex   1.569610e+00 -5.879680e+00 -9.455137e+00
      vertex   1.556725e+00 -5.831414e+00 -9.490634e+00
      vertex   1.827008e+00 -5.808217e+00 -9.455137e+00
    endloop
  endfacet
  facet normal 1.561903e-01 -5.625684e-01 -8.118629e-01
    outer loop
      vertex   1.569610e+00 -5.879680e+00 -9.455137e+00
      vertex   1.827008e+00 -5.808217e+00 -9.455137e+00
      vertex   1.841957e+00 -5.855742e+00 -9.419329e+00
    endloop
  endfacet
  facet normal 1.810715e-01 -5.548501e-01 -8.120065e-01
    outer loop
      vertex   1.841957e+00 -5.855742e+00 -9.419329e+00
      vertex   1.827008e+00 -5.808217e+00 -9.455137e+00
      vertex   2.066943e+00 -5.678879e+00 -9.490010e+00
    endloop
  endfacet
  facet normal 1.829943e-01 -5.566350e-01 -8.103521e-01
    outer loop
      vertex   1.841957e+00 -5.855742e+00 -9.419329e+00
      vertex   2.066943e+00 -5.678879e+00 -9.490010e+00
      vertex   2.134855e+00 -5.865465e+00 -9.346508e+00
    endloop
  endfacet
  facet normal 1.734165e-01 -5.353861e-01 -8.266126e-01
    outer loop
      vertex   1.751548e+00 -5.568324e+00 -9.629489e+00
      vertex   1.997954e+00 -5.489334e+00 -9.628956e+00
      vertex   1.781872e+00 -5.664724e+00 -9.560690e+00
    endloop
  endfacet
  facet normal 1.773865e-01 -5.390261e-01 -8.233983e-01
    outer loop
      vertex   1.781872e+00 -5.664724e+00 -9.560690e+00
      vertex   1.997954e+00 -5.489334e+00 -9.628956e+00
      vertex   2.066943e+00 -5.678879e+00 -9.490010e+00
    endloop
  endfacet
  facet normal 1.768607e-01 -5.416327e-01 -8.217994e-01
    outer loop
      vertex   1.781872e+00 -5.664724e+00 -9.560690e+00
      vertex   2.066943e+00 -5.678879e+00 -9.490010e+00
      vertex   1.796964e+00 -5.712706e+00 -9.525819e+00
    endloop
  endfacet
  facet normal 1.770354e-01 -5.464487e-01 -8.185672e-01
    outer loop
      vertex   1.796964e+00 -5.712706e+00 -9.525819e+00
      vertex   2.066943e+00 -5.678879e+00 -9.490010e+00
      vertex   1.812010e+00 -5.760537e+00 -9.490634e+00
    endloop
  endfacet
  facet normal 1.537212e-01 -5.536751e-01 -8.184214e-01
    outer loop
      vertex   1.796964e+00 -5.712706e+00 -9.525819e+00
      vertex   1.812010e+00 -5.760537e+00 -9.490634e+00
      vertex   1.543799e+00 -5.782994e+00 -9.525819e+00
    endloop
  endfacet
  facet normal 1.537212e-01 -5.536751e-01 -8.184214e-01
    outer loop
      vertex   1.543799e+00 -5.782994e+00 -9.525819e+00
      vertex   1.812010e+00 -5.760537e+00 -9.490634e+00
      vertex   1.556725e+00 -5.831414e+00 -9.490634e+00
    endloop
  endfacet
  facet normal 1.304068e-01 -5.598081e-01 -8.182964e-01
    outer loop
      vertex   1.543799e+00 -5.782994e+00 -9.525819e+00
      vertex   1.556725e+00 -5.831414e+00 -9.490634e+00
      vertex   1.290746e+00 -5.841942e+00 -9.525819e+00
    endloop
  endfacet
  facet normal 1.884998e-01 -5.739045e-01 -7.969325e-01
    outer loop
      vertex   2.201666e+00 -6.049029e+00 -9.198513e+00
      vertex   1.901254e+00 -6.044251e+00 -9.273010e+00
      vertex   2.134855e+00 -5.865465e+00 -9.346508e+00
    endloop
  endfacet
  facet normal 1.847826e-01 -5.704285e-01 -8.002916e-01
    outer loop
      vertex   2.134855e+00 -5.865465e+00 -9.346508e+00
      vertex   1.901254e+00 -6.044251e+00 -9.273010e+00
      vertex   1.871707e+00 -5.950320e+00 -9.346784e+00
    endloop
  endfacet
  facet normal 1.819972e-01 -5.617688e-01 -8.070271e-01
    outer loop
      vertex   2.134855e+00 -5.865465e+00 -9.346508e+00
      vertex   1.871707e+00 -5.950320e+00 -9.346784e+00
      vertex   1.841957e+00 -5.855742e+00 -9.419329e+00
    endloop
  endfacet
  facet normal 1.580291e-01 -5.691916e-01 -8.068753e-01
    outer loop
      vertex   1.841957e+00 -5.855742e+00 -9.419329e+00
      vertex   1.871707e+00 -5.950320e+00 -9.346784e+00
      vertex   1.582454e+00 -5.927791e+00 -9.419329e+00
    endloop
  endfacet
  facet normal 1.561903e-01 -5.625684e-01 -8.118629e-01
    outer loop
      vertex   1.841957e+00 -5.855742e+00 -9.419329e+00
      vertex   1.582454e+00 -5.927791e+00 -9.419329e+00
      vertex   1.569610e+00 -5.879680e+00 -9.455137e+00
    endloop
  endfacet
  facet normal 1.325008e-01 -5.687971e-01 -8.117348e-01
    outer loop
      vertex   1.569610e+00 -5.879680e+00 -9.455137e+00
      vertex   1.582454e+00 -5.927791e+00 -9.419329e+00
      vertex   1.312326e+00 -5.939615e+00 -9.455137e+00
    endloop
  endfacet
  facet normal 1.314559e-01 -5.643117e-01 -8.150286e-01
    outer loop
      vertex   1.569610e+00 -5.879680e+00 -9.455137e+00
      vertex   1.312326e+00 -5.939615e+00 -9.455137e+00
      vertex   1.301553e+00 -5.890856e+00 -9.490634e+00
    endloop
  endfacet
  facet normal 1.081023e-01 -5.693959e-01 -8.149247e-01
    outer loop
      vertex   1.301553e+00 -5.890856e+00 -9.490634e+00
      vertex   1.312326e+00 -5.939615e+00 -9.455137e+00
      vertex   1.048770e+00 -5.947871e+00 -9.484329e+00
    endloop
  endfacet
  facet normal 1.939000e-01 -5.908311e-01 -7.831484e-01
    outer loop
      vertex   2.267355e+00 -6.229507e+00 -9.046090e+00
      vertex   1.959712e+00 -6.230095e+00 -9.121816e+00
      vertex   2.201666e+00 -6.049029e+00 -9.198513e+00
    endloop
  endfacet
  facet normal 1.903414e-01 -5.875031e-01 -7.865178e-01
    outer loop
      vertex   2.201666e+00 -6.049029e+00 -9.198513e+00
      vertex   1.959712e+00 -6.230095e+00 -9.121816e+00
      vertex   1.930591e+00 -6.137516e+00 -9.198017e+00
    endloop
  endfacet
  facet normal 1.875562e-01 -5.790097e-01 -7.934547e-01
    outer loop
      vertex   2.201666e+00 -6.049029e+00 -9.198513e+00
      vertex   1.930591e+00 -6.137516e+00 -9.198017e+00
      vertex   1.901254e+00 -6.044251e+00 -9.273010e+00
    endloop
  endfacet
  facet normal 1.628750e-01 -5.866457e-01 -7.932960e-01
    outer loop
      vertex   1.901254e+00 -6.044251e+00 -9.273010e+00
      vertex   1.930591e+00 -6.137516e+00 -9.198017e+00
      vertex   1.633396e+00 -6.118619e+00 -9.273010e+00
    endloop
  endfacet
  facet normal 1.604626e-01 -5.779565e-01 -8.001363e-01
    outer loop
      vertex   1.901254e+00 -6.044251e+00 -9.273010e+00
      vertex   1.633396e+00 -6.118619e+00 -9.273010e+00
      vertex   1.608012e+00 -6.023532e+00 -9.346784e+00
    endloop
  endfacet
  facet normal 1.361239e-01 -5.843505e-01 -8.000030e-01
    outer loop
      vertex   1.608012e+00 -6.023532e+00 -9.346784e+00
      vertex   1.633396e+00 -6.118619e+00 -9.273010e+00
      vertex   1.344433e+00 -6.084933e+00 -9.346784e+00
    endloop
  endfacet
  facet normal 1.340603e-01 -5.754915e-01 -8.067449e-01
    outer loop
      vertex   1.608012e+00 -6.023532e+00 -9.346784e+00
      vertex   1.344433e+00 -6.084933e+00 -9.346784e+00
      vertex   1.323064e+00 -5.988215e+00 -9.419329e+00
    endloop
  endfacet
  facet normal 1.099096e-01 -5.807435e-01 -8.066330e-01
    outer loop
      vertex   1.323064e+00 -5.988215e+00 -9.419329e+00
      vertex   1.344433e+00 -6.084933e+00 -9.346784e+00
      vertex   1.083183e+00 -6.143034e+00 -9.340551e+00
    endloop
  endfacet
  facet normal 1.068744e-01 -5.774492e-01 -8.094012e-01
    outer loop
      vertex   1.323064e+00 -5.988215e+00 -9.419329e+00
      vertex   1.083183e+00 -6.143034e+00 -9.340551e+00
      vertex   1.048770e+00 -5.947871e+00 -9.484329e+00
    endloop
  endfacet
  facet normal 1.930075e-01 -5.959484e-01 -7.794829e-01
    outer loop
      vertex   1.959712e+00 -6.230095e+00 -9.121816e+00
      vertex   2.267355e+00 -6.229507e+00 -9.046090e+00
      vertex   1.988612e+00 -6.321969e+00 -9.044419e+00
    endloop
  endfacet
  facet normal 1.971131e-01 -6.081354e-01 -7.689719e-01
    outer loop
      vertex   1.988612e+00 -6.321969e+00 -9.044419e+00
      vertex   2.267355e+00 -6.229507e+00 -9.046090e+00
      vertex   2.331899e+00 -6.406839e+00 -8.889305e+00
    endloop
  endfacet
  facet normal 1.969267e-01 -6.084793e-01 -7.687476e-01
    outer loop
      vertex   1.988612e+00 -6.321969e+00 -9.044419e+00
      vertex   2.331899e+00 -6.406839e+00 -8.889305e+00
      vertex   2.045722e+00 -6.503529e+00 -8.886081e+00
    endloop
  endfacet
  facet normal 2.024374e-01 -6.243142e-01 -7.544872e-01
    outer loop
      vertex   2.045722e+00 -6.503529e+00 -8.886081e+00
      vertex   2.331899e+00 -6.406839e+00 -8.889305e+00
      vertex   2.395274e+00 -6.580961e+00 -8.728220e+00
    endloop
  endfacet
  facet normal 2.021420e-01 -6.248704e-01 -7.541058e-01
    outer loop
      vertex   2.045722e+00 -6.503529e+00 -8.886081e+00
      vertex   2.395274e+00 -6.580961e+00 -8.728220e+00
      vertex   2.101876e+00 -6.682046e+00 -8.723105e+00
    endloop
  endfacet
  facet normal 2.076541e-01 -6.401385e-01 -7.396637e-01
    outer loop
      vertex   2.101876e+00 -6.682046e+00 -8.723105e+00
      vertex   2.395274e+00 -6.580961e+00 -8.728220e+00
      vertex   2.457458e+00 -6.751811e+00 -8.562901e+00
    endloop
  endfacet
  facet normal 2.075507e-01 -6.403372e-01 -7.395208e-01
    outer loop
      vertex   2.101876e+00 -6.682046e+00 -8.723105e+00
      vertex   2.457458e+00 -6.751811e+00 -8.562901e+00
      vertex   2.160151e+00 -6.850756e+00 -8.560667e+00
    endloop
  endfacet
  facet normal 1.806576e-01 -6.490822e-01 -7.389554e-01
    outer loop
      vertex   2.160151e+00 -6.850756e+00 -8.560667e+00
      vertex   1.858873e+00 -6.936854e+00 -8.558696e+00
      vertex   2.101876e+00 -6.682046e+00 -8.723105e+00
    endloop
  endfacet
  facet normal 1.801362e-01 -6.488172e-01 -7.393154e-01
    outer loop
      vertex   2.101876e+00 -6.682046e+00 -8.723105e+00
      vertex   1.858873e+00 -6.936854e+00 -8.558696e+00
      vertex   1.805753e+00 -6.764260e+00 -8.723105e+00
    endloop
  endfacet
  facet normal 1.757480e-01 -6.330115e-01 -7.539291e-01
    outer loop
      vertex   2.101876e+00 -6.682046e+00 -8.723105e+00
      vertex   1.805753e+00 -6.764260e+00 -8.723105e+00
      vertex   1.757511e+00 -6.583547e+00 -8.886081e+00
    endloop
  endfacet
  facet normal 1.490859e-01 -6.399933e-01 -7.537785e-01
    outer loop
      vertex   1.757511e+00 -6.583547e+00 -8.886081e+00
      vertex   1.805753e+00 -6.764260e+00 -8.723105e+00
      vertex   1.469427e+00 -6.650656e+00 -8.886081e+00
    endloop
  endfacet
  facet normal 1.451844e-01 -6.232451e-01 -7.684315e-01
    outer loop
      vertex   1.757511e+00 -6.583547e+00 -8.886081e+00
      vertex   1.469427e+00 -6.650656e+00 -8.886081e+00
      vertex   1.428405e+00 -6.464989e+00 -9.044419e+00
    endloop
  endfacet
  facet normal 1.195700e-01 -6.288049e-01 -7.683147e-01
    outer loop
      vertex   1.428405e+00 -6.464989e+00 -9.044419e+00
      vertex   1.469427e+00 -6.650656e+00 -8.886081e+00
      vertex   1.150317e+00 -6.523773e+00 -9.039587e+00
    endloop
  endfacet
  facet normal 1.166770e-01 -6.160022e-01 -7.790557e-01
    outer loop
      vertex   1.428405e+00 -6.464989e+00 -9.044419e+00
      vertex   1.150317e+00 -6.523773e+00 -9.039587e+00
      vertex   1.407646e+00 -6.371037e+00 -9.121816e+00
    endloop
  endfacet
  facet normal 1.137184e-01 -6.126661e-01 -7.821179e-01
    outer loop
      vertex   1.407646e+00 -6.371037e+00 -9.121816e+00
      vertex   1.150317e+00 -6.523773e+00 -9.039587e+00
      vertex   1.117036e+00 -6.335023e+00 -9.192281e+00
    endloop
  endfacet
  facet normal 1.153581e-01 -6.072338e-01 -7.861041e-01
    outer loop
      vertex   1.407646e+00 -6.371037e+00 -9.121816e+00
      vertex   1.117036e+00 -6.335023e+00 -9.192281e+00
      vertex   1.386729e+00 -6.276363e+00 -9.198017e+00
    endloop
  endfacet
  facet normal 1.133178e-01 -5.985322e-01 -7.930436e-01
    outer loop
      vertex   1.386729e+00 -6.276363e+00 -9.198017e+00
      vertex   1.117036e+00 -6.335023e+00 -9.192281e+00
      vertex   1.365656e+00 -6.180989e+00 -9.273010e+00
    endloop
  endfacet
  facet normal 1.381698e-01 -5.931328e-01 -7.931599e-01
    outer loop
      vertex   1.386729e+00 -6.276363e+00 -9.198017e+00
      vertex   1.365656e+00 -6.180989e+00 -9.273010e+00
      vertex   1.658600e+00 -6.213031e+00 -9.198017e+00
    endloop
  endfacet
  facet normal 1.381698e-01 -5.931328e-01 -7.931599e-01
    outer loop
      vertex   1.658600e+00 -6.213031e+00 -9.198017e+00
      vertex   1.365656e+00 -6.180989e+00 -9.273010e+00
      vertex   1.633396e+00 -6.118619e+00 -9.273010e+00
    endloop
  endfacet
  facet normal 1.628750e-01 -5.866457e-01 -7.932960e-01
    outer loop
      vertex   1.658600e+00 -6.213031e+00 -9.198017e+00
      vertex   1.633396e+00 -6.118619e+00 -9.273010e+00
      vertex   1.930591e+00 -6.137516e+00 -9.198017e+00
    endloop
  endfacet
  facet normal 1.533804e-01 -6.564131e-01 -7.386449e-01
    outer loop
      vertex   1.858873e+00 -6.936854e+00 -8.558696e+00
      vertex   1.554173e+00 -7.009957e+00 -8.557003e+00
      vertex   1.805753e+00 -6.764260e+00 -8.723105e+00
    endloop
  endfacet
  facet normal 1.528416e-01 -6.561156e-01 -7.390209e-01
    outer loop
      vertex   1.805753e+00 -6.764260e+00 -8.723105e+00
      vertex   1.554173e+00 -7.009957e+00 -8.557003e+00
      vertex   1.509761e+00 -6.833211e+00 -8.723105e+00
    endloop
  endfacet
  facet normal 1.490859e-01 -6.399933e-01 -7.537785e-01
    outer loop
      vertex   1.805753e+00 -6.764260e+00 -8.723105e+00
      vertex   1.509761e+00 -6.833211e+00 -8.723105e+00
      vertex   1.469427e+00 -6.650656e+00 -8.886081e+00
    endloop
  endfacet
  facet normal 1.226891e-01 -6.457164e-01 -7.536563e-01
    outer loop
      vertex   1.469427e+00 -6.650656e+00 -8.886081e+00
      vertex   1.509761e+00 -6.833211e+00 -8.723105e+00
      vertex   1.183016e+00 -6.709218e+00 -8.882531e+00
    endloop
  endfacet
  facet normal 1.191664e-01 -6.293529e-01 -7.679286e-01
    outer loop
      vertex   1.469427e+00 -6.650656e+00 -8.886081e+00
      vertex   1.183016e+00 -6.709218e+00 -8.882531e+00
      vertex   1.150317e+00 -6.523773e+00 -9.039587e+00
    endloop
  endfacet
  facet normal 1.258050e-01 -6.623657e-01 -7.385424e-01
    outer loop
      vertex   1.246620e+00 -7.069935e+00 -8.555600e+00
      vertex   1.215121e+00 -6.891294e+00 -8.721181e+00
      vertex   1.554173e+00 -7.009957e+00 -8.557003e+00
    endloop
  endfacet
  facet normal 1.257610e-01 -6.624264e-01 -7.384954e-01
    outer loop
      vertex   1.554173e+00 -7.009957e+00 -8.557003e+00
      vertex   1.215121e+00 -6.891294e+00 -8.721181e+00
      vertex   1.509761e+00 -6.833211e+00 -8.723105e+00
    endloop
  endfacet
  facet normal 1.224368e-01 -6.460577e-01 -7.534047e-01
    outer loop
      vertex   1.215121e+00 -6.891294e+00 -8.721181e+00
      vertex   1.183016e+00 -6.709218e+00 -8.882531e+00
      vertex   1.509761e+00 -6.833211e+00 -8.723105e+00
    endloop
  endfacet
  facet normal 1.103338e-01 -5.952345e-01 -7.959412e-01
    outer loop
      vertex   1.117036e+00 -6.335023e+00 -9.192281e+00
      vertex   1.083183e+00 -6.143034e+00 -9.340551e+00
      vertex   1.365656e+00 -6.180989e+00 -9.273010e+00
    endloop
  endfacet
  facet normal 1.120377e-01 -5.895893e-01 -7.998950e-01
    outer loop
      vertex   1.365656e+00 -6.180989e+00 -9.273010e+00
      vertex   1.083183e+00 -6.143034e+00 -9.340551e+00
      vertex   1.344433e+00 -6.084933e+00 -9.346784e+00
    endloop
  endfacet
  facet normal 1.361239e-01 -5.843505e-01 -8.000030e-01
    outer loop
      vertex   1.365656e+00 -6.180989e+00 -9.273010e+00
      vertex   1.344433e+00 -6.084933e+00 -9.346784e+00
      vertex   1.633396e+00 -6.118619e+00 -9.273010e+00
    endloop
  endfacet
  facet normal 1.293535e-01 -5.552866e-01 -8.215379e-01
    outer loop
      vertex   1.543799e+00 -5.782994e+00 -9.525819e+00
      vertex   1.290746e+00 -5.841942e+00 -9.525819e+00
      vertex   1.279905e+00 -5.792876e+00 -9.560690e+00
    endloop
  endfacet
  facet normal 1.277661e-01 -5.484721e-01 -8.263499e-01
    outer loop
      vertex   1.279905e+00 -5.792876e+00 -9.560690e+00
      vertex   1.258124e+00 -5.694294e+00 -9.629489e+00
      vertex   1.530833e+00 -5.734422e+00 -9.560690e+00
    endloop
  endfacet
  facet normal 1.277661e-01 -5.484721e-01 -8.263499e-01
    outer loop
      vertex   1.530833e+00 -5.734422e+00 -9.560690e+00
      vertex   1.258124e+00 -5.694294e+00 -9.629489e+00
      vertex   1.504782e+00 -5.636836e+00 -9.629489e+00
    endloop
  endfacet
  facet normal 1.506074e-01 -5.424599e-01 -8.264712e-01
    outer loop
      vertex   1.530833e+00 -5.734422e+00 -9.560690e+00
      vertex   1.504782e+00 -5.636836e+00 -9.629489e+00
      vertex   1.781872e+00 -5.664724e+00 -9.560690e+00
    endloop
  endfacet
  facet normal 1.506074e-01 -5.424599e-01 -8.264712e-01
    outer loop
      vertex   1.781872e+00 -5.664724e+00 -9.560690e+00
      vertex   1.504782e+00 -5.636836e+00 -9.629489e+00
      vertex   1.751548e+00 -5.568324e+00 -9.629489e+00
    endloop
  endfacet
  facet normal 1.078844e-01 -5.741467e-01 -8.116135e-01
    outer loop
      vertex   1.323064e+00 -5.988215e+00 -9.419329e+00
      vertex   1.048770e+00 -5.947871e+00 -9.484329e+00
      vertex   1.312326e+00 -5.939615e+00 -9.455137e+00
    endloop
  endfacet
  facet normal 1.340603e-01 -5.754915e-01 -8.067449e-01
    outer loop
      vertex   1.608012e+00 -6.023532e+00 -9.346784e+00
      vertex   1.323064e+00 -5.988215e+00 -9.419329e+00
      vertex   1.582454e+00 -5.927791e+00 -9.419329e+00
    endloop
  endfacet
  facet normal 1.325008e-01 -5.687971e-01 -8.117348e-01
    outer loop
      vertex   1.582454e+00 -5.927791e+00 -9.419329e+00
      vertex   1.323064e+00 -5.988215e+00 -9.419329e+00
      vertex   1.312326e+00 -5.939615e+00 -9.455137e+00
    endloop
  endfacet
  facet normal 1.401974e-01 -6.018367e-01 -7.862171e-01
    outer loop
      vertex   1.407646e+00 -6.371037e+00 -9.121816e+00
      vertex   1.386729e+00 -6.276363e+00 -9.198017e+00
      vertex   1.683618e+00 -6.306749e+00 -9.121816e+00
    endloop
  endfacet
  facet normal 1.401974e-01 -6.018367e-01 -7.862171e-01
    outer loop
      vertex   1.683618e+00 -6.306749e+00 -9.121816e+00
      vertex   1.386729e+00 -6.276363e+00 -9.198017e+00
      vertex   1.658600e+00 -6.213031e+00 -9.198017e+00
    endloop
  endfacet
  facet normal 1.652660e-01 -5.952574e-01 -7.863560e-01
    outer loop
      vertex   1.683618e+00 -6.306749e+00 -9.121816e+00
      vertex   1.658600e+00 -6.213031e+00 -9.198017e+00
      vertex   1.959712e+00 -6.230095e+00 -9.121816e+00
    endloop
  endfacet
  facet normal 1.652660e-01 -5.952574e-01 -7.863560e-01
    outer loop
      vertex   1.959712e+00 -6.230095e+00 -9.121816e+00
      vertex   1.658600e+00 -6.213031e+00 -9.198017e+00
      vertex   1.930591e+00 -6.137516e+00 -9.198017e+00
    endloop
  endfacet
  facet normal 1.422063e-01 -6.104606e-01 -7.791760e-01
    outer loop
      vertex   1.428405e+00 -6.464989e+00 -9.044419e+00
      vertex   1.407646e+00 -6.371037e+00 -9.121816e+00
      vertex   1.708447e+00 -6.399754e+00 -9.044419e+00
    endloop
  endfacet
  facet normal 1.422063e-01 -6.104606e-01 -7.791760e-01
    outer loop
      vertex   1.708447e+00 -6.399754e+00 -9.044419e+00
      vertex   1.407646e+00 -6.371037e+00 -9.121816e+00
      vertex   1.683618e+00 -6.306749e+00 -9.121816e+00
    endloop
  endfacet
  facet normal 1.676350e-01 -6.037902e-01 -7.793176e-01
    outer loop
      vertex   1.708447e+00 -6.399754e+00 -9.044419e+00
      vertex   1.683618e+00 -6.306749e+00 -9.121816e+00
      vertex   1.988612e+00 -6.321969e+00 -9.044419e+00
    endloop
  endfacet
  facet normal 1.676350e-01 -6.037902e-01 -7.793176e-01
    outer loop
      vertex   1.988612e+00 -6.321969e+00 -9.044419e+00
      vertex   1.683618e+00 -6.306749e+00 -9.121816e+00
      vertex   1.959712e+00 -6.230095e+00 -9.121816e+00
    endloop
  endfacet
  facet normal 1.524792e-01 -5.492018e-01 -8.216614e-01
    outer loop
      vertex   1.796964e+00 -5.712706e+00 -9.525819e+00
      vertex   1.543799e+00 -5.782994e+00 -9.525819e+00
      vertex   1.530833e+00 -5.734422e+00 -9.560690e+00
    endloop
  endfacet
  facet normal 1.293535e-01 -5.552866e-01 -8.215379e-01
    outer loop
      vertex   1.530833e+00 -5.734422e+00 -9.560690e+00
      vertex   1.543799e+00 -5.782994e+00 -9.525819e+00
      vertex   1.279905e+00 -5.792876e+00 -9.560690e+00
    endloop
  endfacet
  facet normal 1.524792e-01 -5.492018e-01 -8.216614e-01
    outer loop
      vertex   1.796964e+00 -5.712706e+00 -9.525819e+00
      vertex   1.530833e+00 -5.734422e+00 -9.560690e+00
      vertex   1.781872e+00 -5.664724e+00 -9.560690e+00
    endloop
  endfacet
  facet normal 1.549582e-01 -5.581308e-01 -8.151552e-01
    outer loop
      vertex   1.827008e+00 -5.808217e+00 -9.455137e+00
      vertex   1.556725e+00 -5.831414e+00 -9.490634e+00
      vertex   1.812010e+00 -5.760537e+00 -9.490634e+00
    endloop
  endfacet
  facet normal 1.604626e-01 -5.779565e-01 -8.001363e-01
    outer loop
      vertex   1.901254e+00 -6.044251e+00 -9.273010e+00
      vertex   1.608012e+00 -6.023532e+00 -9.346784e+00
      vertex   1.871707e+00 -5.950320e+00 -9.346784e+00
    endloop
  endfacet
  facet normal 1.580291e-01 -5.691916e-01 -8.068753e-01
    outer loop
      vertex   1.871707e+00 -5.950320e+00 -9.346784e+00
      vertex   1.608012e+00 -6.023532e+00 -9.346784e+00
      vertex   1.582454e+00 -5.927791e+00 -9.419329e+00
    endloop
  endfacet
  facet normal 1.451844e-01 -6.232451e-01 -7.684315e-01
    outer loop
      vertex   1.428405e+00 -6.464989e+00 -9.044419e+00
      vertex   1.708447e+00 -6.399754e+00 -9.044419e+00
      vertex   1.757511e+00 -6.583547e+00 -8.886081e+00
    endloop
  endfacet
  facet normal 1.711470e-01 -6.164397e-01 -7.685771e-01
    outer loop
      vertex   1.757511e+00 -6.583547e+00 -8.886081e+00
      vertex   1.708447e+00 -6.399754e+00 -9.044419e+00
      vertex   2.045722e+00 -6.503529e+00 -8.886081e+00
    endloop
  endfacet
  facet normal 1.757480e-01 -6.330115e-01 -7.539291e-01
    outer loop
      vertex   1.757511e+00 -6.583547e+00 -8.886081e+00
      vertex   2.045722e+00 -6.503529e+00 -8.886081e+00
      vertex   2.101876e+00 -6.682046e+00 -8.723105e+00
    endloop
  endfacet
  facet normal 1.711470e-01 -6.164397e-01 -7.685771e-01
    outer loop
      vertex   2.045722e+00 -6.503529e+00 -8.886081e+00
      vertex   1.708447e+00 -6.399754e+00 -9.044419e+00
      vertex   1.988612e+00 -6.321969e+00 -9.044419e+00
    endloop
  endfacet
  facet normal 1.784387e-01 -5.508548e-01 -8.153028e-01
    outer loop
      vertex   2.066943e+00 -5.678879e+00 -9.490010e+00
      vertex   1.827008e+00 -5.808217e+00 -9.455137e+00
      vertex   1.812010e+00 -5.760537e+00 -9.490634e+00
    endloop
  endfacet
  facet normal -9.848078e-01 -1.736482e-01 1.945733e-15
    outer loop
      vertex   9.783119e-01 -5.548282e+00 -9.758155e+00
      vertex   1.013809e+00 -5.749599e+00 -9.623553e+00
      vertex   0.000000e+00 0.000000e+00 0.000000e+00
    endloop
  endfacet
  facet normal -9.848078e-01 -1.736482e-01 -3.229334e-16
    outer loop
      vertex   0.000000e+00 0.000000e+00 0.000000e+00
      vertex   1.013809e+00 -5.749599e+00 -9.623553e+00
      vertex   1.048770e+00 -5.947871e+00 -9.484329e+00
    endloop
  endfacet
  facet normal -9.848078e-01 -1.736482e-01 -6.464376e-16
    outer loop
      vertex   0.000000e+00 0.000000e+00 0.000000e+00
      vertex   1.048770e+00 -5.947871e+00 -9.484329e+00
      vertex   1.083183e+00 -6.143034e+00 -9.340551e+00
    endloop
  endfacet
  facet normal -9.848078e-01 -1.736482e-01 0.000000e+00
    outer loop
      vertex   1.083183e+00 -6.143034e+00 -9.340551e+00
      vertex   1.117036e+00 -6.335023e+00 -9.192281e+00
      vertex   0.000000e+00 0.000000e+00 0.000000e+00
    endloop
  endfacet
  facet normal -9.848078e-01 -1.736482e-01 3.236738e-16
    outer loop
      vertex   0.000000e+00 0.000000e+00 0.000000e+00
      vertex   1.117036e+00 -6.335023e+00 -9.192281e+00
      vertex   1.150317e+00 -6.523773e+00 -9.039587e+00
    endloop
  endfacet
  facet normal -9.848078e-01 -1.736482e-01 3.238444e-16
    outer loop
      vertex   0.000000e+00 0.000000e+00 0.000000e+00
      vertex   1.150317e+00 -6.523773e+00 -9.039587e+00
      vertex   1.183016e+00 -6.709218e+00 -8.882531e+00
    endloop
  endfacet
  facet normal -9.848078e-01 -1.736482e-01 -1.316159e-16
    outer loop
      vertex   1.183016e+00 -6.709218e+00 -8.882531e+00
      vertex   1.215121e+00 -6.891294e+00 -8.721181e+00
      vertex   0.000000e+00 0.000000e+00 0.000000e+00
    endloop
  endfacet
  facet normal -9.848078e-01 -1.736482e-01 -3.888886e-15
    outer loop
      vertex   0.000000e+00 0.000000e+00 0.000000e+00
      vertex   1.215121e+00 -6.891294e+00 -8.721181e+00
      vertex   1.246620e+00 -7.069935e+00 -8.555600e+00
    endloop
  endfacet
  facet normal 1.494651e-01 -7.513985e-01 6.426978e-01
    outer loop
      vertex   0.000000e+00 0.000000e+00 0.000000e+00
      vertex   1.246620e+00 -7.069935e+00 -8.555600e+00
      vertex   7.775976e-01 -3.507400e+00 -4.281450e+00
    endloop
  endfacet
  facet normal 1.494679e-01 -7.513980e-01 6.426977e-01
    outer loop
      vertex   7.775976e-01 -3.507400e+00 -4.281450e+00
      vertex   1.246620e+00 -7.069935e+00 -8.555600e+00
      vertex   1.554173e+00 -7.009957e+00 -8.557003e+00
    endloop
  endfacet
  facet normal 1.821022e-01 -7.441627e-01 6.426979e-01
    outer loop
      vertex   7.775976e-01 -3.507400e+00 -4.281450e+00
      vertex   1.554173e+00 -7.009957e+00 -8.557003e+00
      vertex   9.298584e-01 -3.470141e+00 -4.281450e+00
    endloop
  endfacet
  facet normal 1.821084e-01 -7.441614e-01 6.426977e-01
    outer loop
      vertex   9.298584e-01 -3.470141e+00 -4.281450e+00
      vertex   1.554173e+00 -7.009957e+00 -8.557003e+00
      vertex   1.858873e+00 -6.936854e+00 -8.558696e+00
    endloop
  endfacet
  facet normal 2.143890e-01 -7.355111e-01 6.426980e-01
    outer loop
      vertex   9.298584e-01 -3.470141e+00 -4.281450e+00
      vertex   1.858873e+00 -6.936854e+00 -8.558696e+00
      vertex   1.080331e+00 -3.426280e+00 -4.281450e+00
    endloop
  endfacet
  facet normal 2.143957e-01 -7.355094e-01 6.426978e-01
    outer loop
      vertex   1.080331e+00 -3.426280e+00 -4.281450e+00
      vertex   1.858873e+00 -6.936854e+00 -8.558696e+00
      vertex   2.160151e+00 -6.850756e+00 -8.560667e+00
    endloop
  endfacet
  facet normal 2.462666e-01 -7.254599e-01 6.426980e-01
    outer loop
      vertex   1.080331e+00 -3.426280e+00 -4.281450e+00
      vertex   2.160151e+00 -6.850756e+00 -8.560667e+00
      vertex   2.457458e+00 -6.751811e+00 -8.562901e+00
    endloop
  endfacet
  facet normal 2.462640e-01 -7.254609e-01 6.426979e-01
    outer loop
      vertex   2.457458e+00 -6.751811e+00 -8.562901e+00
      vertex   0.000000e+00 0.000000e+00 0.000000e+00
      vertex   1.080331e+00 -3.426280e+00 -4.281450e+00
    endloop
  endfacet
  facet normal 2.143890e-01 -7.355113e-01 6.426978e-01
    outer loop
      vertex   1.080331e+00 -3.426280e+00 -4.281450e+00
      vertex   0.000000e+00 0.000000e+00 0.000000e+00
      vertex   9.298584e-01 -3.470141e+00 -4.281450e+00
    endloop
  endfacet
  facet normal 1.821022e-01 -7.441628e-01 6.426978e-01
    outer loop
      vertex   9.298584e-01 -3.470141e+00 -4.281450e+00
      vertex   0.000000e+00 0.000000e+00 0.000000e+00
      vertex   7.775976e-01 -3.507400e+00 -4.281450e+00
    endloop
  endfacet
  facet normal -2.783951e-01 8.201130e-01 -4.999108e-01
    outer loop
      vertex   1.694807e+00 -5.375063e+00 -9.761713e+00
      vertex   1.130042e+00 -3.583955e+00 -6.508854e+00
      vertex   1.927910e+00 -5.296890e+00 -9.763281e+00
    endloop
  endfacet
  facet normal -2.783943e-01 8.201133e-01 -4.999108e-01
    outer loop
      vertex   1.927910e+00 -5.296890e+00 -9.763281e+00
      vertex   1.130042e+00 -3.583955e+00 -6.508854e+00
      vertex   5.650152e-01 -1.791979e+00 -3.254427e+00
    endloop
  endfacet
  facet normal -2.783926e-01 8.201139e-01 -4.999108e-01
    outer loop
      vertex   1.927910e+00 -5.296890e+00 -9.763281e+00
      vertex   5.650152e-01 -1.791979e+00 -3.254427e+00
      vertex   0.000000e+00 0.000000e+00 0.000000e+00
    endloop
  endfacet
  facet normal -2.423565e-01 8.314761e-01 -4.999108e-01
    outer loop
      vertex   0.000000e+00 0.000000e+00 0.000000e+00
      vertex   5.650152e-01 -1.791979e+00 -3.254427e+00
      vertex   4.863141e-01 -1.814919e+00 -3.254427e+00
    endloop
  endfacet
  facet normal -2.423627e-01 8.314744e-01 -4.999107e-01
    outer loop
      vertex   1.694807e+00 -5.375063e+00 -9.761713e+00
      vertex   1.458546e+00 -5.443098e+00 -9.760329e+00
      vertex   1.130042e+00 -3.583955e+00 -6.508854e+00
    endloop
  endfacet
  facet normal -2.423595e-01 8.314752e-01 -4.999109e-01
    outer loop
      vertex   1.130042e+00 -3.583955e+00 -6.508854e+00
      vertex   1.458546e+00 -5.443098e+00 -9.760329e+00
      vertex   9.726433e-01 -3.629834e+00 -6.508854e+00
    endloop
  endfacet
  facet normal -2.423596e-01 8.314753e-01 -4.999107e-01
    outer loop
      vertex   1.130042e+00 -3.583955e+00 -6.508854e+00
      vertex   9.726433e-01 -3.629834e+00 -6.508854e+00
      vertex   5.650152e-01 -1.791979e+00 -3.254427e+00
    endloop
  endfacet
  facet normal -2.423565e-01 8.314761e-01 -4.999108e-01
    outer loop
      vertex   5.650152e-01 -1.791979e+00 -3.254427e+00
      vertex   9.726433e-01 -3.629834e+00 -6.508854e+00
      vertex   4.863141e-01 -1.814919e+00 -3.254427e+00
    endloop
  endfacet
  facet normal -2.058631e-01 8.412548e-01 -4.999107e-01
    outer loop
      vertex   1.458546e+00 -5.443098e+00 -9.760329e+00
      vertex   1.219564e+00 -5.500873e+00 -9.759140e+00
      vertex   9.726433e-01 -3.629834e+00 -6.508854e+00
    endloop
  endfacet
  facet normal -2.058602e-01 8.412555e-01 -4.999108e-01
    outer loop
      vertex   9.726433e-01 -3.629834e+00 -6.508854e+00
      vertex   1.219564e+00 -5.500873e+00 -9.759140e+00
      vertex   8.133772e-01 -3.668807e+00 -6.508854e+00
    endloop
  endfacet
  facet normal -2.058602e-01 8.412555e-01 -4.999107e-01
    outer loop
      vertex   9.726433e-01 -3.629834e+00 -6.508854e+00
      vertex   8.133772e-01 -3.668807e+00 -6.508854e+00
      vertex   4.863141e-01 -1.814919e+00 -3.254427e+00
    endloop
  endfacet
  facet normal -2.058572e-01 8.412562e-01 -4.999108e-01
    outer loop
      vertex   4.863141e-01 -1.814919e+00 -3.254427e+00
      vertex   8.133772e-01 -3.668807e+00 -6.508854e+00
      vertex   4.066833e-01 -1.834405e+00 -3.254427e+00
    endloop
  endfacet
  facet normal -2.058572e-01 8.412562e-01 -4.999107e-01
    outer loop
      vertex   4.863141e-01 -1.814919e+00 -3.254427e+00
      vertex   4.066833e-01 -1.834405e+00 -3.254427e+00
      vertex   0.000000e+00 0.000000e+00 0.000000e+00
    endloop
  endfacet
  facet normal -1.689670e-01 8.494348e-01 -4.999107e-01
    outer loop
      vertex   1.219564e+00 -5.500873e+00 -9.759140e+00
      vertex   9.783119e-01 -5.548282e+00 -9.758155e+00
      vertex   8.133772e-01 -3.668807e+00 -6.508854e+00
    endloop
  endfacet
  facet normal -1.689661e-01 8.494350e-01 -4.999107e-01
    outer loop
      vertex   8.133772e-01 -3.668807e+00 -6.508854e+00
      vertex   9.783119e-01 -5.548282e+00 -9.758155e+00
      vertex   4.066833e-01 -1.834405e+00 -3.254427e+00
    endloop
  endfacet
  facet normal -1.689645e-01 8.494353e-01 -4.999107e-01
    outer loop
      vertex   9.783119e-01 -5.548282e+00 -9.758155e+00
      vertex   0.000000e+00 0.000000e+00 0.000000e+00
      vertex   4.066833e-01 -1.834405e+00 -3.254427e+00
    endloop
  endfacet
endsolid
