solid ASCII
  facet normal 9.396926e-01 3.420201e-01 -1.366826e-16
    outer loop
      vertex   -6.774409e-01 1.861253e+00 1.123313e+01
      vertex   -5.935859e-01 1.630864e+00 1.127798e+01
      vertex   0.000000e+00 0.000000e+00 -8.881784e-15
    endloop
  endfacet
  facet normal 9.396926e-01 3.420201e-01 -3.905667e-17
    outer loop
      vertex   0.000000e+00 0.000000e+00 -8.881784e-15
      vertex   -5.935859e-01 1.630864e+00 1.127798e+01
      vertex   -5.094287e-01 1.399644e+00 1.131690e+01
    endloop
  endfacet
  facet normal 9.396926e-01 3.420201e-01 -1.171682e-16
    outer loop
      vertex   0.000000e+00 0.000000e+00 -8.881784e-15
      vertex   -5.094287e-01 1.399644e+00 1.131690e+01
      vertex   -4.250024e-01 1.167685e+00 1.134987e+01
    endloop
  endfacet
  facet normal 9.396926e-01 3.420201e-01 -8.298201e-17
    outer loop
      vertex   -4.250024e-01 1.167685e+00 1.134987e+01
      vertex   -3.403403e-01 9.350774e-01 1.137688e+01
      vertex   0.000000e+00 0.000000e+00 -8.881784e-15
    endloop
  endfacet
  facet normal 9.396926e-01 3.420201e-01 -7.807907e-17
    outer loop
      vertex   0.000000e+00 0.000000e+00 -8.881784e-15
      vertex   -3.403403e-01 9.350774e-01 1.137688e+01
      vertex   -2.554758e-01 7.019139e-01 1.139791e+01
    endloop
  endfacet
  facet normal 9.396926e-01 3.420201e-01 -8.780301e-17
    outer loop
      vertex   0.000000e+00 0.000000e+00 -8.881784e-15
      vertex   -2.554758e-01 7.019139e-01 1.139791e+01
      vertex   -1.704420e-01 4.682856e-01 1.141295e+01
    endloop
  endfacet
  facet normal 9.396926e-01 3.420201e-01 -7.556716e-17
    outer loop
      vertex   -1.704420e-01 4.682856e-01 1.141295e+01
      vertex   -8.527230e-02 2.342837e-01 1.142199e+01
      vertex   0.000000e+00 0.000000e+00 -8.881784e-15
    endloop
  endfacet
  facet normal 9.396926e-01 3.420201e-01 5.577688e-17
    outer loop
      vertex   0.000000e+00 0.000000e+00 -8.881784e-15
      vertex   -8.527230e-02 2.342837e-01 1.142199e+01
      vertex   -6.781482e-16 -8.117450e-32 1.142500e+01
    endloop
  endfacet
  facet normal -6.189121e-02 1.689676e-01 9.836765e-01
    outer loop
      vertex   -5.935859e-01 1.630864e+00 1.127798e+01
      vertex   -6.774409e-01 1.861253e+00 1.123313e+01
      vertex   -7.847565e-01 1.683053e+00 1.125699e+01
    endloop
  endfacet
  facet normal -6.279314e-02 1.694910e-01 9.835293e-01
    outer loop
      vertex   -7.847565e-01 1.683053e+00 1.125699e+01
      vertex   -6.774409e-01 1.861253e+00 1.123313e+01
      vertex   -7.580027e-01 1.829971e+00 1.123338e+01
    endloop
  endfacet
  facet normal -7.177068e-02 1.709855e-01 9.826561e-01
    outer loop
      vertex   -7.847565e-01 1.683053e+00 1.125699e+01
      vertex   -7.580027e-01 1.829971e+00 1.123338e+01
      vertex   -8.371250e-01 1.795209e+00 1.123365e+01
    endloop
  endfacet
  facet normal -7.888091e-02 1.676710e-01 9.826822e-01
    outer loop
      vertex   -8.371250e-01 1.795209e+00 1.123365e+01
      vertex   -9.146565e-01 1.757031e+00 1.123394e+01
      vertex   -7.847565e-01 1.683053e+00 1.125699e+01
    endloop
  endfacet
  facet normal -7.894258e-02 1.675667e-01 9.826950e-01
    outer loop
      vertex   -7.847565e-01 1.683053e+00 1.125699e+01
      vertex   -9.146565e-01 1.757031e+00 1.123394e+01
      vertex   -8.581071e-01 1.648497e+00 1.125699e+01
    endloop
  endfacet
  facet normal -7.384405e-02 1.567444e-01 9.848747e-01
    outer loop
      vertex   -7.847565e-01 1.683053e+00 1.125699e+01
      vertex   -8.581071e-01 1.648497e+00 1.125699e+01
      vertex   -7.997452e-01 1.536470e+00 1.127920e+01
    endloop
  endfacet
  facet normal -8.017563e-02 1.534505e-01 9.848984e-01
    outer loop
      vertex   -7.997452e-01 1.536470e+00 1.127920e+01
      vertex   -8.581071e-01 1.648497e+00 1.125699e+01
      vertex   -8.681372e-01 1.503658e+00 1.127874e+01
    endloop
  endfacet
  facet normal -7.493275e-02 1.424942e-01 9.869552e-01
    outer loop
      vertex   -7.997452e-01 1.536470e+00 1.127920e+01
      vertex   -8.681372e-01 1.503658e+00 1.127874e+01
      vertex   -7.414998e-01 1.424655e+00 1.129976e+01
    endloop
  endfacet
  facet normal -8.133106e-02 1.324745e-01 9.878440e-01
    outer loop
      vertex   -7.414998e-01 1.424655e+00 1.129976e+01
      vertex   -8.681372e-01 1.503658e+00 1.127874e+01
      vertex   -7.453032e-01 1.290903e+00 1.131739e+01
    endloop
  endfacet
  facet normal -6.838085e-02 1.322397e-01 9.888563e-01
    outer loop
      vertex   -7.414998e-01 1.424655e+00 1.129976e+01
      vertex   -7.453032e-01 1.290903e+00 1.131739e+01
      vertex   -6.833828e-01 1.313072e+00 1.131870e+01
    endloop
  endfacet
  facet normal -6.260433e-02 1.159614e-01 9.912788e-01
    outer loop
      vertex   -6.833828e-01 1.313072e+00 1.131870e+01
      vertex   -7.453032e-01 1.290903e+00 1.131739e+01
      vertex   -6.219958e-01 1.077328e+00 1.135016e+01
    endloop
  endfacet
  facet normal -5.812316e-02 1.171461e-01 9.914124e-01
    outer loop
      vertex   -6.833828e-01 1.313072e+00 1.131870e+01
      vertex   -6.219958e-01 1.077328e+00 1.135016e+01
      vertex   -5.675807e-01 1.090697e+00 1.135177e+01
    endloop
  endfacet
  facet normal -5.258993e-02 9.429354e-02 9.941544e-01
    outer loop
      vertex   -5.675807e-01 1.090697e+00 1.135177e+01
      vertex   -6.219958e-01 1.077328e+00 1.135016e+01
      vertex   -4.982619e-01 8.630149e-01 1.137703e+01
    endloop
  endfacet
  facet normal -4.586833e-02 9.635496e-02 9.942896e-01
    outer loop
      vertex   -5.675807e-01 1.090697e+00 1.135177e+01
      vertex   -4.982619e-01 8.630149e-01 1.137703e+01
      vertex   -4.524292e-01 8.695192e-01 1.137851e+01
    endloop
  endfacet
  facet normal -4.255684e-02 7.252568e-02 9.964582e-01
    outer loop
      vertex   -4.524292e-01 8.695192e-01 1.137851e+01
      vertex   -4.982619e-01 8.630149e-01 1.137703e+01
      vertex   -3.741484e-01 6.480441e-01 1.139798e+01
    endloop
  endfacet
  facet normal -3.365104e-02 7.568274e-02 9.965640e-01
    outer loop
      vertex   -4.524292e-01 8.695192e-01 1.137851e+01
      vertex   -3.741484e-01 6.480441e-01 1.139798e+01
      vertex   -3.380151e-01 6.497057e-01 1.139907e+01
    endloop
  endfacet
  facet normal -3.254890e-02 5.064835e-02 9.981860e-01
    outer loop
      vertex   -3.380151e-01 6.497057e-01 1.139907e+01
      vertex   -3.741484e-01 6.480441e-01 1.139798e+01
      vertex   -2.497023e-01 4.324970e-01 1.141297e+01
    endloop
  endfacet
  facet normal -2.145381e-02 5.516329e-02 9.982468e-01
    outer loop
      vertex   -3.380151e-01 6.497057e-01 1.139907e+01
      vertex   -2.497023e-01 4.324970e-01 1.141297e+01
      vertex   -2.244208e-01 4.314154e-01 1.141358e+01
    endloop
  endfacet
  facet normal -2.261408e-02 2.865021e-02 9.993337e-01
    outer loop
      vertex   -2.244208e-01 4.314154e-01 1.141358e+01
      vertex   -2.497023e-01 4.324970e-01 1.141297e+01
      vertex   -1.249704e-01 2.164552e-01 1.142199e+01
    endloop
  endfacet
  facet normal -9.257550e-03 3.483020e-02 9.993504e-01
    outer loop
      vertex   -2.244208e-01 4.314154e-01 1.141358e+01
      vertex   -1.249704e-01 2.164552e-01 1.142199e+01
      vertex   -1.117244e-01 2.147992e-01 1.142217e+01
    endloop
  endfacet
  facet normal -1.280447e-02 6.518051e-03 9.998968e-01
    outer loop
      vertex   -1.117244e-01 2.147992e-01 1.142217e+01
      vertex   -1.249704e-01 2.164552e-01 1.142199e+01
      vertex   -6.781482e-16 -8.117450e-32 1.142500e+01
    endloop
  endfacet
  facet normal -8.582690e-02 1.639855e-01 9.827220e-01
    outer loop
      vertex   -9.146565e-01 1.757031e+00 1.123394e+01
      vertex   -9.904507e-01 1.715511e+00 1.123425e+01
      vertex   -8.581071e-01 1.648497e+00 1.125699e+01
    endloop
  endfacet
  facet normal -9.105441e-02 1.540478e-01 9.838589e-01
    outer loop
      vertex   -8.581071e-01 1.648497e+00 1.125699e+01
      vertex   -9.904507e-01 1.715511e+00 1.123425e+01
      vertex   -8.681372e-01 1.503658e+00 1.127874e+01
    endloop
  endfacet
  facet normal -9.999104e-03 3.494487e-02 9.993392e-01
    outer loop
      vertex   -1.704420e-01 4.682856e-01 1.141295e+01
      vertex   -2.051765e-01 4.404742e-01 1.141358e+01
      vertex   -8.527230e-02 2.342837e-01 1.142199e+01
    endloop
  endfacet
  facet normal -1.667982e-02 3.106149e-02 9.993783e-01
    outer loop
      vertex   -8.527230e-02 2.342837e-01 1.142199e+01
      vertex   -2.051765e-01 4.404742e-01 1.141358e+01
      vertex   -1.021384e-01 2.193109e-01 1.142217e+01
    endloop
  endfacet
  facet normal -3.945041e-04 1.272355e-02 9.999190e-01
    outer loop
      vertex   -8.527230e-02 2.342837e-01 1.142199e+01
      vertex   -1.021384e-01 2.193109e-01 1.142217e+01
      vertex   -6.781482e-16 -8.117450e-32 1.142500e+01
    endloop
  endfacet
  facet normal -2.480088e-02 5.340712e-02 9.982648e-01
    outer loop
      vertex   -2.051765e-01 4.404742e-01 1.141358e+01
      vertex   -1.704420e-01 4.682856e-01 1.141295e+01
      vertex   -3.090467e-01 6.633439e-01 1.139907e+01
    endloop
  endfacet
  facet normal -1.951626e-02 5.715585e-02 9.981745e-01
    outer loop
      vertex   -3.090467e-01 6.633439e-01 1.139907e+01
      vertex   -1.704420e-01 4.682856e-01 1.141295e+01
      vertex   -2.554758e-01 7.019139e-01 1.139791e+01
    endloop
  endfacet
  facet normal -3.303453e-02 7.588343e-02 9.965693e-01
    outer loop
      vertex   -3.090467e-01 6.633439e-01 1.139907e+01
      vertex   -2.554758e-01 7.019139e-01 1.139791e+01
      vertex   -4.136777e-01 8.877660e-01 1.137851e+01
    endloop
  endfacet
  facet normal -2.896072e-02 7.933632e-02 9.964271e-01
    outer loop
      vertex   -4.136777e-01 8.877660e-01 1.137851e+01
      vertex   -2.554758e-01 7.019139e-01 1.139791e+01
      vertex   -3.403403e-01 9.350774e-01 1.137688e+01
    endloop
  endfacet
  facet normal -4.135723e-02 9.847792e-02 9.942795e-01
    outer loop
      vertex   -4.136777e-01 8.877660e-01 1.137851e+01
      vertex   -3.403403e-01 9.350774e-01 1.137688e+01
      vertex   -5.189941e-01 1.113578e+00 1.135177e+01
    endloop
  endfacet
  facet normal -3.834536e-02 1.014671e-01 9.940996e-01
    outer loop
      vertex   -5.189941e-01 1.113578e+00 1.135177e+01
      vertex   -3.403403e-01 9.350774e-01 1.137688e+01
      vertex   -4.250024e-01 1.167685e+00 1.134987e+01
    endloop
  endfacet
  facet normal -4.974606e-02 1.211768e-01 9.913836e-01
    outer loop
      vertex   -5.189941e-01 1.113578e+00 1.135177e+01
      vertex   -4.250024e-01 1.167685e+00 1.134987e+01
      vertex   -6.249170e-01 1.340610e+00 1.131870e+01
    endloop
  endfacet
  facet normal -4.768127e-02 1.235298e-01 9.911947e-01
    outer loop
      vertex   -6.249170e-01 1.340610e+00 1.131870e+01
      vertex   -4.250024e-01 1.167685e+00 1.134987e+01
      vertex   -5.094287e-01 1.399644e+00 1.131690e+01
    endloop
  endfacet
  facet normal -5.539769e-02 1.385525e-01 9.888045e-01
    outer loop
      vertex   -6.249170e-01 1.340610e+00 1.131870e+01
      vertex   -5.094287e-01 1.399644e+00 1.131690e+01
      vertex   -6.780802e-01 1.454528e+00 1.129976e+01
    endloop
  endfacet
  facet normal -5.249295e-02 1.471403e-01 9.877217e-01
    outer loop
      vertex   -6.780802e-01 1.454528e+00 1.129976e+01
      vertex   -5.094287e-01 1.399644e+00 1.131690e+01
      vertex   -5.935859e-01 1.630864e+00 1.127798e+01
    endloop
  endfacet
  facet normal -5.910584e-02 1.502058e-01 9.868864e-01
    outer loop
      vertex   -6.780802e-01 1.454528e+00 1.129976e+01
      vertex   -5.935859e-01 1.630864e+00 1.127798e+01
      vertex   -7.313636e-01 1.568683e+00 1.127920e+01
    endloop
  endfacet
  facet normal -6.411823e-02 1.612719e-01 9.848250e-01
    outer loop
      vertex   -7.313636e-01 1.568683e+00 1.127920e+01
      vertex   -5.935859e-01 1.630864e+00 1.127798e+01
      vertex   -7.847565e-01 1.683053e+00 1.125699e+01
    endloop
  endfacet
  facet normal -7.383832e-02 1.567438e-01 9.848753e-01
    outer loop
      vertex   -7.313636e-01 1.568683e+00 1.127920e+01
      vertex   -7.847565e-01 1.683053e+00 1.125699e+01
      vertex   -7.997452e-01 1.536470e+00 1.127920e+01
    endloop
  endfacet
  facet normal -4.982766e-03 1.058685e-02 9.999315e-01
    outer loop
      vertex   -1.117244e-01 2.147992e-01 1.142217e+01
      vertex   -6.781482e-16 -8.117450e-32 1.142500e+01
      vertex   -1.021384e-01 2.193109e-01 1.142217e+01
    endloop
  endfacet
  facet normal -6.866250e-02 1.457566e-01 9.869349e-01
    outer loop
      vertex   -7.997452e-01 1.536470e+00 1.127920e+01
      vertex   -7.414998e-01 1.424655e+00 1.129976e+01
      vertex   -7.313636e-01 1.568683e+00 1.127920e+01
    endloop
  endfacet
  facet normal -6.865725e-02 1.457563e-01 9.869353e-01
    outer loop
      vertex   -7.313636e-01 1.568683e+00 1.127920e+01
      vertex   -7.414998e-01 1.424655e+00 1.129976e+01
      vertex   -6.780802e-01 1.454528e+00 1.129976e+01
    endloop
  endfacet
  facet normal -6.348909e-02 1.347845e-01 9.888388e-01
    outer loop
      vertex   -7.414998e-01 1.424655e+00 1.129976e+01
      vertex   -6.833828e-01 1.313072e+00 1.131870e+01
      vertex   -6.780802e-01 1.454528e+00 1.129976e+01
    endloop
  endfacet
  facet normal -6.348430e-02 1.347844e-01 9.888392e-01
    outer loop
      vertex   -6.780802e-01 1.454528e+00 1.129976e+01
      vertex   -6.833828e-01 1.313072e+00 1.131870e+01
      vertex   -6.249170e-01 1.340610e+00 1.131870e+01
    endloop
  endfacet
  facet normal -5.575636e-02 1.183771e-01 9.914021e-01
    outer loop
      vertex   -6.833828e-01 1.313072e+00 1.131870e+01
      vertex   -5.675807e-01 1.090697e+00 1.135177e+01
      vertex   -6.249170e-01 1.340610e+00 1.131870e+01
    endloop
  endfacet
  facet normal -5.574889e-02 1.183788e-01 9.914023e-01
    outer loop
      vertex   -6.249170e-01 1.340610e+00 1.131870e+01
      vertex   -5.675807e-01 1.090697e+00 1.135177e+01
      vertex   -5.189941e-01 1.113578e+00 1.135177e+01
    endloop
  endfacet
  facet normal -4.547370e-02 9.656020e-02 9.942878e-01
    outer loop
      vertex   -5.675807e-01 1.090697e+00 1.135177e+01
      vertex   -4.524292e-01 8.695192e-01 1.137851e+01
      vertex   -5.189941e-01 1.113578e+00 1.135177e+01
    endloop
  endfacet
  facet normal -4.546771e-02 9.656184e-02 9.942879e-01
    outer loop
      vertex   -5.189941e-01 1.113578e+00 1.135177e+01
      vertex   -4.524292e-01 8.695192e-01 1.137851e+01
      vertex   -4.136777e-01 8.877660e-01 1.137851e+01
    endloop
  endfacet
  facet normal -3.524590e-02 7.485331e-02 9.965715e-01
    outer loop
      vertex   -4.524292e-01 8.695192e-01 1.137851e+01
      vertex   -3.380151e-01 6.497057e-01 1.139907e+01
      vertex   -4.136777e-01 8.877660e-01 1.137851e+01
    endloop
  endfacet
  facet normal -3.524134e-02 7.485476e-02 9.965715e-01
    outer loop
      vertex   -4.136777e-01 8.877660e-01 1.137851e+01
      vertex   -3.380151e-01 6.497057e-01 1.139907e+01
      vertex   -3.090467e-01 6.633439e-01 1.139907e+01
    endloop
  endfacet
  facet normal -1.498988e-02 3.184889e-02 9.993803e-01
    outer loop
      vertex   -1.117244e-01 2.147992e-01 1.142217e+01
      vertex   -1.021384e-01 2.193109e-01 1.142217e+01
      vertex   -2.051765e-01 4.404742e-01 1.141358e+01
    endloop
  endfacet
  facet normal -2.508228e-02 5.327629e-02 9.982648e-01
    outer loop
      vertex   -3.380151e-01 6.497057e-01 1.139907e+01
      vertex   -2.244208e-01 4.314154e-01 1.141358e+01
      vertex   -3.090467e-01 6.633439e-01 1.139907e+01
    endloop
  endfacet
  facet normal -2.507910e-02 5.327746e-02 9.982648e-01
    outer loop
      vertex   -3.090467e-01 6.633439e-01 1.139907e+01
      vertex   -2.244208e-01 4.314154e-01 1.141358e+01
      vertex   -2.051765e-01 4.404742e-01 1.141358e+01
    endloop
  endfacet
  facet normal -1.499175e-02 3.184812e-02 9.993803e-01
    outer loop
      vertex   -2.244208e-01 4.314154e-01 1.141358e+01
      vertex   -1.117244e-01 2.147992e-01 1.142217e+01
      vertex   -2.051765e-01 4.404742e-01 1.141358e+01
    endloop
  endfacet
  facet normal -8.660254e-01 -5.000000e-01 -5.186433e-16
    outer loop
      vertex   -9.904507e-01 1.715511e+00 1.123425e+01
      vertex   0.000000e+00 0.000000e+00 -8.881784e-15
      vertex   -8.681372e-01 1.503658e+00 1.127874e+01
    endloop
  endfacet
  facet normal -8.660254e-01 -5.000000e-01 -1.075827e-16
    outer loop
      vertex   -8.681372e-01 1.503658e+00 1.127874e+01
      vertex   0.000000e+00 0.000000e+00 -8.881784e-15
      vertex   -7.453032e-01 1.290903e+00 1.131739e+01
    endloop
  endfacet
  facet normal -8.660254e-01 -5.000000e-01 1.172818e-16
    outer loop
      vertex   -7.453032e-01 1.290903e+00 1.131739e+01
      vertex   0.000000e+00 0.000000e+00 -8.881784e-15
      vertex   -6.219958e-01 1.077328e+00 1.135016e+01
    endloop
  endfacet
  facet normal -8.660254e-01 -5.000000e-01 1.562468e-16
    outer loop
      vertex   -6.219958e-01 1.077328e+00 1.135016e+01
      vertex   0.000000e+00 0.000000e+00 -8.881784e-15
      vertex   -4.982619e-01 8.630149e-01 1.137703e+01
    endloop
  endfacet
  facet normal -8.660254e-01 -5.000000e-01 1.268287e-16
    outer loop
      vertex   -4.982619e-01 8.630149e-01 1.137703e+01
      vertex   0.000000e+00 0.000000e+00 -8.881784e-15
      vertex   -3.741484e-01 6.480441e-01 1.139798e+01
    endloop
  endfacet
  facet normal -8.660254e-01 -5.000000e-01 1.218167e-16
    outer loop
      vertex   -3.741484e-01 6.480441e-01 1.139798e+01
      vertex   0.000000e+00 0.000000e+00 -8.881784e-15
      vertex   -2.497023e-01 4.324970e-01 1.141297e+01
    endloop
  endfacet
  facet normal -8.660254e-01 -5.000000e-01 6.569944e-17
    outer loop
      vertex   -2.497023e-01 4.324970e-01 1.141297e+01
      vertex   0.000000e+00 0.000000e+00 -8.881784e-15
      vertex   -1.249704e-01 2.164552e-01 1.142199e+01
    endloop
  endfacet
  facet normal -8.660254e-01 -5.000000e-01 -5.102888e-17
    outer loop
      vertex   -1.249704e-01 2.164552e-01 1.142199e+01
      vertex   0.000000e+00 0.000000e+00 -8.881784e-15
      vertex   -6.781482e-16 -8.117450e-32 1.142500e+01
    endloop
  endfacet
  facet normal -4.547473e-01 8.735599e-01 -1.734879e-01
    outer loop
      vertex   0.000000e+00 0.000000e+00 -8.881784e-15
      vertex   -9.904507e-01 1.715511e+00 1.123425e+01
      vertex   -2.790555e-01 5.984352e-01 3.744750e+00
    endloop
  endfacet
  facet normal -4.736730e-01 8.633878e-01 -1.737684e-01
    outer loop
      vertex   -2.790555e-01 5.984352e-01 3.744750e+00
      vertex   -9.904507e-01 1.715511e+00 1.123425e+01
      vertex   -9.146565e-01 1.757031e+00 1.123394e+01
    endloop
  endfacet
  facet normal -4.355741e-01 8.832527e-01 -1.736081e-01
    outer loop
      vertex   -2.790555e-01 5.984352e-01 3.744750e+00
      vertex   -9.146565e-01 1.757031e+00 1.123394e+01
      vertex   -5.581121e-01 1.196870e+00 7.489500e+00
    endloop
  endfacet
  facet normal -4.355744e-01 8.832526e-01 -1.736081e-01
    outer loop
      vertex   -5.581121e-01 1.196870e+00 7.489500e+00
      vertex   -9.146565e-01 1.757031e+00 1.123394e+01
      vertex   -8.371250e-01 1.795209e+00 1.123365e+01
    endloop
  endfacet
  facet normal -3.966328e-01 9.014115e-01 -1.736081e-01
    outer loop
      vertex   -5.581121e-01 1.196870e+00 7.489500e+00
      vertex   -8.371250e-01 1.795209e+00 1.123365e+01
      vertex   -7.580027e-01 1.829971e+00 1.123338e+01
    endloop
  endfacet
  facet normal -3.568959e-01 9.177486e-01 -1.742492e-01
    outer loop
      vertex   -7.580027e-01 1.829971e+00 1.123338e+01
      vertex   -6.774409e-01 1.861253e+00 1.123313e+01
      vertex   -5.581121e-01 1.196870e+00 7.489500e+00
    endloop
  endfacet
  facet normal -3.768813e-01 9.098695e-01 -1.734879e-01
    outer loop
      vertex   -5.581121e-01 1.196870e+00 7.489500e+00
      vertex   -6.774409e-01 1.861253e+00 1.123313e+01
      vertex   -2.790555e-01 5.984352e-01 3.744750e+00
    endloop
  endfacet
  facet normal -3.768808e-01 9.098697e-01 -1.734879e-01
    outer loop
      vertex   -6.774409e-01 1.861253e+00 1.123313e+01
      vertex   0.000000e+00 0.000000e+00 -8.881784e-15
      vertex   -2.790555e-01 5.984352e-01 3.744750e+00
    endloop
  endfacet
endsolid
