solid ASCII
  facet normal 8.660254e-01 -5.000000e-01 -4.937605e-14
    outer loop
      vertex   3.597272e+00 6.230657e+00 8.574123e+00
      vertex   7.938674e-15 0.000000e+00 0.000000e+00
      vertex   3.685767e+00 6.383937e+00 8.406893e+00
    endloop
  endfacet
  facet normal 8.660254e-01 -5.000000e-01 -4.382621e-14
    outer loop
      vertex   3.685767e+00 6.383937e+00 8.406893e+00
      vertex   7.938674e-15 0.000000e+00 0.000000e+00
      vertex   3.772500e+00 6.534161e+00 8.235639e+00
    endloop
  endfacet
  facet normal 8.660254e-01 -5.000000e-01 6.984635e-15
    outer loop
      vertex   3.772500e+00 6.534161e+00 8.235639e+00
      vertex   7.938674e-15 0.000000e+00 0.000000e+00
      vertex   3.857345e+00 6.681118e+00 8.060614e+00
    endloop
  endfacet
  facet normal 8.660254e-01 -5.000000e-01 2.373549e-14
    outer loop
      vertex   3.857345e+00 6.681118e+00 8.060614e+00
      vertex   7.938674e-15 0.000000e+00 0.000000e+00
      vertex   3.940193e+00 6.824615e+00 7.882081e+00
    endloop
  endfacet
  facet normal 8.660254e-01 -5.000000e-01 2.570390e-14
    outer loop
      vertex   3.940193e+00 6.824615e+00 7.882081e+00
      vertex   7.938674e-15 0.000000e+00 0.000000e+00
      vertex   4.021026e+00 6.964622e+00 7.700119e+00
    endloop
  endfacet
  facet normal 8.660254e-01 -5.000000e-01 2.816807e-14
    outer loop
      vertex   4.021026e+00 6.964622e+00 7.700119e+00
      vertex   7.938674e-15 0.000000e+00 0.000000e+00
      vertex   4.099826e+00 7.101107e+00 7.514808e+00
    endloop
  endfacet
  facet normal 8.660254e-01 -5.000000e-01 1.558533e-14
    outer loop
      vertex   4.099826e+00 7.101107e+00 7.514808e+00
      vertex   7.938674e-15 0.000000e+00 0.000000e+00
      vertex   4.176575e+00 7.234041e+00 7.326228e+00
    endloop
  endfacet
  facet normal 8.660254e-01 -5.000000e-01 8.976780e-15
    outer loop
      vertex   4.176575e+00 7.234041e+00 7.326228e+00
      vertex   7.938674e-15 0.000000e+00 0.000000e+00
      vertex   4.251257e+00 7.363393e+00 7.134456e+00
    endloop
  endfacet
  facet normal 2.320924e-01 6.486825e-01 7.248063e-01
    outer loop
      vertex   2.517745e+00 6.917449e+00 8.395355e+00
      vertex   2.457458e+00 6.751811e+00 8.562901e+00
      vertex   2.663106e+00 6.853404e+00 8.406127e+00
    endloop
  endfacet
  facet normal 2.385303e-01 6.418267e-01 7.288085e-01
    outer loop
      vertex   2.663106e+00 6.853404e+00 8.406127e+00
      vertex   2.457458e+00 6.751811e+00 8.562901e+00
      vertex   2.750571e+00 6.640057e+00 8.565384e+00
    endloop
  endfacet
  facet normal 2.462270e-01 6.425743e-01 7.255829e-01
    outer loop
      vertex   2.663106e+00 6.853404e+00 8.406127e+00
      vertex   2.750571e+00 6.640057e+00 8.565384e+00
      vertex   2.811740e+00 6.796448e+00 8.406127e+00
    endloop
  endfacet
  facet normal 2.596647e-01 6.372921e-01 7.255571e-01
    outer loop
      vertex   2.811740e+00 6.796448e+00 8.406127e+00
      vertex   2.750571e+00 6.640057e+00 8.565384e+00
      vertex   2.959738e+00 6.736147e+00 8.406127e+00
    endloop
  endfacet
  facet normal 2.654541e-01 6.515010e-01 7.106902e-01
    outer loop
      vertex   2.811740e+00 6.796448e+00 8.406127e+00
      vertex   2.959738e+00 6.736147e+00 8.406127e+00
      vertex   3.029715e+00 6.895408e+00 8.233992e+00
    endloop
  endfacet
  facet normal 2.790821e-01 6.456457e-01 7.108128e-01
    outer loop
      vertex   3.029715e+00 6.895408e+00 8.233992e+00
      vertex   2.959738e+00 6.736147e+00 8.406127e+00
      vertex   3.180444e+00 6.830255e+00 8.233992e+00
    endloop
  endfacet
  facet normal 2.852198e-01 6.598449e-01 6.951650e-01
    outer loop
      vertex   3.029715e+00 6.895408e+00 8.233992e+00
      vertex   3.180444e+00 6.830255e+00 8.233992e+00
      vertex   3.252380e+00 6.984743e+00 8.057839e+00
    endloop
  endfacet
  facet normal 2.990810e-01 6.535398e-01 6.952958e-01
    outer loop
      vertex   3.252380e+00 6.984743e+00 8.057839e+00
      vertex   3.180444e+00 6.830255e+00 8.233992e+00
      vertex   3.405612e+00 6.914619e+00 8.057839e+00
    endloop
  endfacet
  facet normal 3.038063e-01 6.638655e-01 6.833625e-01
    outer loop
      vertex   3.252380e+00 6.984743e+00 8.057839e+00
      vertex   3.405612e+00 6.914619e+00 8.057839e+00
      vertex   3.442659e+00 6.989839e+00 7.968295e+00
    endloop
  endfacet
  facet normal 3.178080e-01 6.571338e-01 6.835007e-01
    outer loop
      vertex   3.442659e+00 6.989839e+00 7.968295e+00
      vertex   3.405612e+00 6.914619e+00 8.057839e+00
      vertex   3.596520e+00 6.915427e+00 7.968295e+00
    endloop
  endfacet
  facet normal 3.210525e-01 6.638423e-01 6.754545e-01
    outer loop
      vertex   3.442659e+00 6.989839e+00 7.968295e+00
      vertex   3.596520e+00 6.915427e+00 7.968295e+00
      vertex   3.634786e+00 6.989005e+00 7.877794e+00
    endloop
  endfacet
  facet normal 3.351065e-01 6.567111e-01 6.755991e-01
    outer loop
      vertex   3.634786e+00 6.989005e+00 7.877794e+00
      vertex   3.596520e+00 6.915427e+00 7.968295e+00
      vertex   3.789110e+00 6.910256e+00 7.877794e+00
    endloop
  endfacet
  facet normal 3.384501e-01 6.632636e-01 6.674825e-01
    outer loop
      vertex   3.634786e+00 6.989005e+00 7.877794e+00
      vertex   3.789110e+00 6.910256e+00 7.877794e+00
      vertex   3.828537e+00 6.982159e+00 7.786354e+00
    endloop
  endfacet
  facet normal 3.527035e-01 6.556408e-01 6.676341e-01
    outer loop
      vertex   3.828537e+00 6.982159e+00 7.786354e+00
      vertex   3.789110e+00 6.910256e+00 7.877794e+00
      vertex   3.940193e+00 6.824615e+00 7.882081e+00
    endloop
  endfacet
  facet normal 3.573362e-01 6.567557e-01 6.640653e-01
    outer loop
      vertex   3.828537e+00 6.982159e+00 7.786354e+00
      vertex   3.940193e+00 6.824615e+00 7.882081e+00
      vertex   4.021026e+00 6.964622e+00 7.700119e+00
    endloop
  endfacet
  facet normal 2.653073e-01 6.308878e-01 7.291040e-01
    outer loop
      vertex   2.750571e+00 6.640057e+00 8.565384e+00
      vertex   3.038603e+00 6.515797e+00 8.568096e+00
      vertex   2.959738e+00 6.736147e+00 8.406127e+00
    endloop
  endfacet
  facet normal 2.728748e-01 6.312853e-01 7.259602e-01
    outer loop
      vertex   2.959738e+00 6.736147e+00 8.406127e+00
      vertex   3.038603e+00 6.515797e+00 8.568096e+00
      vertex   3.106986e+00 6.672498e+00 8.406127e+00
    endloop
  endfacet
  facet normal 2.790821e-01 6.456457e-01 7.108128e-01
    outer loop
      vertex   2.959738e+00 6.736147e+00 8.406127e+00
      vertex   3.106986e+00 6.672498e+00 8.406127e+00
      vertex   3.180444e+00 6.830255e+00 8.233992e+00
    endloop
  endfacet
  facet normal 2.926427e-01 6.394711e-01 7.109409e-01
    outer loop
      vertex   3.180444e+00 6.830255e+00 8.233992e+00
      vertex   3.106986e+00 6.672498e+00 8.406127e+00
      vertex   3.330287e+00 6.761682e+00 8.233992e+00
    endloop
  endfacet
  facet normal 2.990810e-01 6.535398e-01 6.952958e-01
    outer loop
      vertex   3.180444e+00 6.830255e+00 8.233992e+00
      vertex   3.330287e+00 6.761682e+00 8.233992e+00
      vertex   3.405612e+00 6.914619e+00 8.057839e+00
    endloop
  endfacet
  facet normal 3.128629e-01 6.469088e-01 6.954321e-01
    outer loop
      vertex   3.405612e+00 6.914619e+00 8.057839e+00
      vertex   3.330287e+00 6.761682e+00 8.233992e+00
      vertex   3.557817e+00 6.841008e+00 8.057839e+00
    endloop
  endfacet
  facet normal 3.178080e-01 6.571338e-01 6.835007e-01
    outer loop
      vertex   3.405612e+00 6.914619e+00 8.057839e+00
      vertex   3.557817e+00 6.841008e+00 8.057839e+00
      vertex   3.596520e+00 6.915427e+00 7.968295e+00
    endloop
  endfacet
  facet normal 3.317186e-01 6.500719e-01 6.836441e-01
    outer loop
      vertex   3.596520e+00 6.915427e+00 7.968295e+00
      vertex   3.557817e+00 6.841008e+00 8.057839e+00
      vertex   3.749220e+00 6.837508e+00 7.968295e+00
    endloop
  endfacet
  facet normal 3.351065e-01 6.567111e-01 6.755991e-01
    outer loop
      vertex   3.596520e+00 6.915427e+00 7.968295e+00
      vertex   3.749220e+00 6.837508e+00 7.968295e+00
      vertex   3.789110e+00 6.910256e+00 7.877794e+00
    endloop
  endfacet
  facet normal 3.488983e-01 6.493339e-01 6.757481e-01
    outer loop
      vertex   3.789110e+00 6.910256e+00 7.877794e+00
      vertex   3.749220e+00 6.837508e+00 7.968295e+00
      vertex   3.940193e+00 6.824615e+00 7.882081e+00
    endloop
  endfacet
  facet normal 2.862092e-01 6.254129e-01 7.259084e-01
    outer loop
      vertex   3.106986e+00 6.672498e+00 8.406127e+00
      vertex   3.038603e+00 6.515797e+00 8.568096e+00
      vertex   3.253368e+00 6.605509e+00 8.406127e+00
    endloop
  endfacet
  facet normal 2.916381e-01 6.187731e-01 7.294293e-01
    outer loop
      vertex   3.253368e+00 6.605509e+00 8.406127e+00
      vertex   3.038603e+00 6.515797e+00 8.568096e+00
      vertex   3.321012e+00 6.379250e+00 8.571017e+00
    endloop
  endfacet
  facet normal 2.992629e-01 6.187879e-01 7.263217e-01
    outer loop
      vertex   3.253368e+00 6.605509e+00 8.406127e+00
      vertex   3.321012e+00 6.379250e+00 8.571017e+00
      vertex   3.398769e+00 6.535189e+00 8.406127e+00
    endloop
  endfacet
  facet normal 3.124143e-01 6.122411e-01 7.263320e-01
    outer loop
      vertex   3.398769e+00 6.535189e+00 8.406127e+00
      vertex   3.321012e+00 6.379250e+00 8.571017e+00
      vertex   3.543073e+00 6.461554e+00 8.406127e+00
    endloop
  endfacet
  facet normal 3.195198e-01 6.261657e-01 7.112128e-01
    outer loop
      vertex   3.398769e+00 6.535189e+00 8.406127e+00
      vertex   3.543073e+00 6.461554e+00 8.406127e+00
      vertex   3.626841e+00 6.614323e+00 8.233992e+00
    endloop
  endfacet
  facet normal 3.326818e-01 6.191093e-01 7.113554e-01
    outer loop
      vertex   3.626841e+00 6.614323e+00 8.233992e+00
      vertex   3.543073e+00 6.461554e+00 8.406127e+00
      vertex   3.772500e+00 6.534161e+00 8.235639e+00
    endloop
  endfacet
  facet normal 3.401867e-01 6.324290e-01 6.959213e-01
    outer loop
      vertex   3.626841e+00 6.614323e+00 8.233992e+00
      vertex   3.772500e+00 6.534161e+00 8.235639e+00
      vertex   3.857345e+00 6.681118e+00 8.060614e+00
    endloop
  endfacet
  facet normal 3.174756e-01 6.054976e-01 7.297821e-01
    outer loop
      vertex   3.321012e+00 6.379250e+00 8.571017e+00
      vertex   3.597272e+00 6.230657e+00 8.574123e+00
      vertex   3.543073e+00 6.461554e+00 8.406127e+00
    endloop
  endfacet
  facet normal 3.252271e-01 6.050806e-01 7.267082e-01
    outer loop
      vertex   3.543073e+00 6.461554e+00 8.406127e+00
      vertex   3.597272e+00 6.230657e+00 8.574123e+00
      vertex   3.685767e+00 6.383937e+00 8.406893e+00
    endloop
  endfacet
  facet normal 3.328283e-01 6.189043e-01 7.114652e-01
    outer loop
      vertex   3.543073e+00 6.461554e+00 8.406127e+00
      vertex   3.685767e+00 6.383937e+00 8.406893e+00
      vertex   3.772500e+00 6.534161e+00 8.235639e+00
    endloop
  endfacet
  facet normal 3.505149e-01 6.438440e-01 6.801501e-01
    outer loop
      vertex   3.940193e+00 6.824615e+00 7.882081e+00
      vertex   3.749220e+00 6.837508e+00 7.968295e+00
      vertex   3.857345e+00 6.681118e+00 8.060614e+00
    endloop
  endfacet
  facet normal 3.456364e-01 6.426216e-01 6.837931e-01
    outer loop
      vertex   3.857345e+00 6.681118e+00 8.060614e+00
      vertex   3.749220e+00 6.837508e+00 7.968295e+00
      vertex   3.708874e+00 6.763927e+00 8.057839e+00
    endloop
  endfacet
  facet normal 3.399299e-01 6.327898e-01 6.957188e-01
    outer loop
      vertex   3.857345e+00 6.681118e+00 8.060614e+00
      vertex   3.708874e+00 6.763927e+00 8.057839e+00
      vertex   3.626841e+00 6.614323e+00 8.233992e+00
    endloop
  endfacet
  facet normal 3.265550e-01 6.399526e-01 6.955735e-01
    outer loop
      vertex   3.626841e+00 6.614323e+00 8.233992e+00
      vertex   3.708874e+00 6.763927e+00 8.057839e+00
      vertex   3.479125e+00 6.689700e+00 8.233992e+00
    endloop
  endfacet
  facet normal 3.195198e-01 6.261657e-01 7.112128e-01
    outer loop
      vertex   3.626841e+00 6.614323e+00 8.233992e+00
      vertex   3.479125e+00 6.689700e+00 8.233992e+00
      vertex   3.398769e+00 6.535189e+00 8.406127e+00
    endloop
  endfacet
  facet normal 3.061254e-01 6.329775e-01 7.110743e-01
    outer loop
      vertex   3.398769e+00 6.535189e+00 8.406127e+00
      vertex   3.479125e+00 6.689700e+00 8.233992e+00
      vertex   3.253368e+00 6.605509e+00 8.406127e+00
    endloop
  endfacet
  facet normal 3.557667e-01 6.622385e-01 6.594469e-01
    outer loop
      vertex   3.828537e+00 6.982159e+00 7.786354e+00
      vertex   4.021026e+00 6.964622e+00 7.700119e+00
      vertex   3.867494e+00 7.053205e+00 7.693990e+00
    endloop
  endfacet
  facet normal 3.612028e-01 6.708465e-01 6.476863e-01
    outer loop
      vertex   3.867494e+00 7.053205e+00 7.693990e+00
      vertex   4.021026e+00 6.964622e+00 7.700119e+00
      vertex   4.099826e+00 7.101107e+00 7.514808e+00
    endloop
  endfacet
  facet normal 3.604985e-01 6.718476e-01 6.470407e-01
    outer loop
      vertex   3.867494e+00 7.053205e+00 7.693990e+00
      vertex   4.099826e+00 7.101107e+00 7.514808e+00
      vertex   3.943969e+00 7.192675e+00 7.506565e+00
    endloop
  endfacet
  facet normal 3.678483e-01 6.829236e-01 6.311125e-01
    outer loop
      vertex   3.943969e+00 7.192675e+00 7.506565e+00
      vertex   4.099826e+00 7.101107e+00 7.514808e+00
      vertex   4.176575e+00 7.234041e+00 7.326228e+00
    endloop
  endfacet
  facet normal 3.669745e-01 6.841696e-01 6.302712e-01
    outer loop
      vertex   3.943969e+00 7.192675e+00 7.506565e+00
      vertex   4.176575e+00 7.234041e+00 7.326228e+00
      vertex   4.018486e+00 7.328571e+00 7.315661e+00
    endloop
  endfacet
  facet normal 3.743025e-01 6.946402e-01 6.143067e-01
    outer loop
      vertex   4.018486e+00 7.328571e+00 7.315661e+00
      vertex   4.176575e+00 7.234041e+00 7.326228e+00
      vertex   4.251257e+00 7.363393e+00 7.134456e+00
    endloop
  endfacet
  facet normal 3.738053e-01 6.953512e-01 6.138047e-01
    outer loop
      vertex   4.018486e+00 7.328571e+00 7.315661e+00
      vertex   4.251257e+00 7.363393e+00 7.134456e+00
      vertex   4.088695e+00 7.452397e+00 7.132626e+00
    endloop
  endfacet
  facet normal 3.590389e-01 7.033249e-01 6.135349e-01
    outer loop
      vertex   4.088695e+00 7.452397e+00 7.132626e+00
      vertex   3.924278e+00 7.537882e+00 7.130847e+00
      vertex   4.018486e+00 7.328571e+00 7.315661e+00
    endloop
  endfacet
  facet normal 3.588950e-01 7.033297e-01 6.136136e-01
    outer loop
      vertex   4.018486e+00 7.328571e+00 7.315661e+00
      vertex   3.924278e+00 7.537882e+00 7.130847e+00
      vertex   3.854819e+00 7.412087e+00 7.315661e+00
    endloop
  endfacet
  facet normal 3.529370e-01 6.916537e-01 6.301195e-01
    outer loop
      vertex   4.018486e+00 7.328571e+00 7.315661e+00
      vertex   3.854819e+00 7.412087e+00 7.315661e+00
      vertex   3.783338e+00 7.274642e+00 7.506565e+00
    endloop
  endfacet
  facet normal 3.381273e-01 6.991480e-01 6.299699e-01
    outer loop
      vertex   3.783338e+00 7.274642e+00 7.506565e+00
      vertex   3.854819e+00 7.412087e+00 7.315661e+00
      vertex   3.621485e+00 7.352919e+00 7.506565e+00
    endloop
  endfacet
  facet normal 3.320708e-01 6.866251e-01 6.467418e-01
    outer loop
      vertex   3.783338e+00 7.274642e+00 7.506565e+00
      vertex   3.621485e+00 7.352919e+00 7.506565e+00
      vertex   3.551262e+00 7.210342e+00 7.693990e+00
    endloop
  endfacet
  facet normal 3.174348e-01 6.936460e-01 6.465991e-01
    outer loop
      vertex   3.551262e+00 7.210342e+00 7.693990e+00
      vertex   3.621485e+00 7.352919e+00 7.506565e+00
      vertex   3.391477e+00 7.283465e+00 7.693990e+00
    endloop
  endfacet
  facet normal 3.129848e-01 6.839220e-01 6.590077e-01
    outer loop
      vertex   3.551262e+00 7.210342e+00 7.693990e+00
      vertex   3.391477e+00 7.283465e+00 7.693990e+00
      vertex   3.357315e+00 7.210100e+00 7.786354e+00
    endloop
  endfacet
  facet normal 2.984739e-01 6.905079e-01 6.588719e-01
    outer loop
      vertex   3.357315e+00 7.210100e+00 7.786354e+00
      vertex   3.391477e+00 7.283465e+00 7.693990e+00
      vertex   3.198204e+00 7.278876e+00 7.786354e+00
    endloop
  endfacet
  facet normal 2.955964e-01 6.838508e-01 6.670614e-01
    outer loop
      vertex   3.357315e+00 7.210100e+00 7.786354e+00
      vertex   3.198204e+00 7.278876e+00 7.786354e+00
      vertex   3.165268e+00 7.203917e+00 7.877794e+00
    endloop
  endfacet
  facet normal 2.811560e-01 6.900381e-01 6.669323e-01
    outer loop
      vertex   3.165268e+00 7.203917e+00 7.877794e+00
      vertex   3.198204e+00 7.278876e+00 7.786354e+00
      vertex   3.006993e+00 7.268406e+00 7.877794e+00
    endloop
  endfacet
  facet normal 2.783830e-01 6.832321e-01 6.750532e-01
    outer loop
      vertex   3.165268e+00 7.203917e+00 7.877794e+00
      vertex   3.006993e+00 7.268406e+00 7.877794e+00
      vertex   2.975336e+00 7.191887e+00 7.968295e+00
    endloop
  endfacet
  facet normal 2.640270e-01 6.890268e-01 6.749310e-01
    outer loop
      vertex   2.975336e+00 7.191887e+00 7.968295e+00
      vertex   3.006993e+00 7.268406e+00 7.877794e+00
      vertex   2.818054e+00 7.252156e+00 7.968295e+00
    endloop
  endfacet
  facet normal 2.613630e-01 6.820744e-01 6.829816e-01
    outer loop
      vertex   2.975336e+00 7.191887e+00 7.968295e+00
      vertex   2.818054e+00 7.252156e+00 7.968295e+00
      vertex   2.787728e+00 7.174114e+00 8.057839e+00
    endloop
  endfacet
  facet normal 2.474634e-01 6.873490e-01 6.828713e-01
    outer loop
      vertex   2.787728e+00 7.174114e+00 8.057839e+00
      vertex   2.818054e+00 7.252156e+00 7.968295e+00
      vertex   2.634593e+00 7.238485e+00 8.048540e+00
    endloop
  endfacet
  facet normal 2.428060e-01 6.778672e-01 6.939318e-01
    outer loop
      vertex   2.787728e+00 7.174114e+00 8.057839e+00
      vertex   2.634593e+00 7.238485e+00 8.048540e+00
      vertex   2.576823e+00 7.079764e+00 8.223800e+00
    endloop
  endfacet
  facet normal 3.441238e-01 7.109742e-01 6.132654e-01
    outer loop
      vertex   3.924278e+00 7.537882e+00 7.130847e+00
      vertex   3.758064e+00 7.619820e+00 7.129123e+00
      vertex   3.854819e+00 7.412087e+00 7.315661e+00
    endloop
  endfacet
  facet normal 3.438492e-01 7.109793e-01 6.134135e-01
    outer loop
      vertex   3.854819e+00 7.412087e+00 7.315661e+00
      vertex   3.758064e+00 7.619820e+00 7.129123e+00
      vertex   3.689908e+00 7.491843e+00 7.315661e+00
    endloop
  endfacet
  facet normal 3.381273e-01 6.991480e-01 6.299699e-01
    outer loop
      vertex   3.854819e+00 7.412087e+00 7.315661e+00
      vertex   3.689908e+00 7.491843e+00 7.315661e+00
      vertex   3.621485e+00 7.352919e+00 7.506565e+00
    endloop
  endfacet
  facet normal 3.232217e-01 7.062912e-01 6.298257e-01
    outer loop
      vertex   3.621485e+00 7.352919e+00 7.506565e+00
      vertex   3.689908e+00 7.491843e+00 7.315661e+00
      vertex   3.458540e+00 7.427488e+00 7.506565e+00
    endloop
  endfacet
  facet normal 3.174348e-01 6.936460e-01 6.465991e-01
    outer loop
      vertex   3.621485e+00 7.352919e+00 7.506565e+00
      vertex   3.458540e+00 7.427488e+00 7.506565e+00
      vertex   3.391477e+00 7.283465e+00 7.693990e+00
    endloop
  endfacet
  facet normal 3.027158e-01 7.003214e-01 6.464620e-01
    outer loop
      vertex   3.391477e+00 7.283465e+00 7.693990e+00
      vertex   3.458540e+00 7.427488e+00 7.506565e+00
      vertex   3.230746e+00 7.352941e+00 7.693990e+00
    endloop
  endfacet
  facet normal 2.984739e-01 6.905079e-01 6.588719e-01
    outer loop
      vertex   3.391477e+00 7.283465e+00 7.693990e+00
      vertex   3.230746e+00 7.352941e+00 7.693990e+00
      vertex   3.198204e+00 7.278876e+00 7.786354e+00
    endloop
  endfacet
  facet normal 2.838919e-01 6.967528e-01 6.587419e-01
    outer loop
      vertex   3.198204e+00 7.278876e+00 7.786354e+00
      vertex   3.230746e+00 7.352941e+00 7.693990e+00
      vertex   3.038281e+00 7.344036e+00 7.786354e+00
    endloop
  endfacet
  facet normal 2.811560e-01 6.900381e-01 6.669323e-01
    outer loop
      vertex   3.198204e+00 7.278876e+00 7.786354e+00
      vertex   3.038281e+00 7.344036e+00 7.786354e+00
      vertex   3.006993e+00 7.268406e+00 7.877794e+00
    endloop
  endfacet
  facet normal 2.666562e-01 6.958879e-01 6.668092e-01
    outer loop
      vertex   3.006993e+00 7.268406e+00 7.877794e+00
      vertex   3.038281e+00 7.344036e+00 7.786354e+00
      vertex   2.848037e+00 7.329316e+00 7.877794e+00
    endloop
  endfacet
  facet normal 2.640270e-01 6.890268e-01 6.749310e-01
    outer loop
      vertex   3.006993e+00 7.268406e+00 7.877794e+00
      vertex   2.848037e+00 7.329316e+00 7.877794e+00
      vertex   2.818054e+00 7.252156e+00 7.968295e+00
    endloop
  endfacet
  facet normal 2.492757e-01 6.946171e-01 6.748101e-01
    outer loop
      vertex   2.818054e+00 7.252156e+00 7.968295e+00
      vertex   2.848037e+00 7.329316e+00 7.877794e+00
      vertex   2.690997e+00 7.393453e+00 7.869785e+00
    endloop
  endfacet
  facet normal 2.449407e-01 6.929880e-01 6.780647e-01
    outer loop
      vertex   2.818054e+00 7.252156e+00 7.968295e+00
      vertex   2.690997e+00 7.393453e+00 7.869785e+00
      vertex   2.634593e+00 7.238485e+00 8.048540e+00
    endloop
  endfacet
  facet normal 3.290575e-01 7.182819e-01 6.130190e-01
    outer loop
      vertex   3.758064e+00 7.619820e+00 7.129123e+00
      vertex   3.590112e+00 7.698184e+00 7.127456e+00
      vertex   3.689908e+00 7.491843e+00 7.315661e+00
    endloop
  endfacet
  facet normal 3.287094e-01 7.182828e-01 6.132046e-01
    outer loop
      vertex   3.689908e+00 7.491843e+00 7.315661e+00
      vertex   3.590112e+00 7.698184e+00 7.127456e+00
      vertex   3.523884e+00 7.567820e+00 7.315661e+00
    endloop
  endfacet
  facet normal 3.232217e-01 7.062912e-01 6.298257e-01
    outer loop
      vertex   3.689908e+00 7.491843e+00 7.315661e+00
      vertex   3.523884e+00 7.567820e+00 7.315661e+00
      vertex   3.458540e+00 7.427488e+00 7.506565e+00
    endloop
  endfacet
  facet normal 3.082319e-01 7.130828e-01 6.296873e-01
    outer loop
      vertex   3.458540e+00 7.427488e+00 7.506565e+00
      vertex   3.523884e+00 7.567820e+00 7.315661e+00
      vertex   3.294631e+00 7.498338e+00 7.506565e+00
    endloop
  endfacet
  facet normal 3.027158e-01 7.003214e-01 6.464620e-01
    outer loop
      vertex   3.458540e+00 7.427488e+00 7.506565e+00
      vertex   3.294631e+00 7.498338e+00 7.506565e+00
      vertex   3.230746e+00 7.352941e+00 7.693990e+00
    endloop
  endfacet
  facet normal 2.879250e-01 7.066511e-01 6.463308e-01
    outer loop
      vertex   3.230746e+00 7.352941e+00 7.693990e+00
      vertex   3.294631e+00 7.498338e+00 7.506565e+00
      vertex   3.069197e+00 7.418764e+00 7.693990e+00
    endloop
  endfacet
  facet normal 2.838919e-01 6.967528e-01 6.587419e-01
    outer loop
      vertex   3.230746e+00 7.352941e+00 7.693990e+00
      vertex   3.069197e+00 7.418764e+00 7.693990e+00
      vertex   3.038281e+00 7.344036e+00 7.786354e+00
    endloop
  endfacet
  facet normal 2.692500e-01 7.026570e-01 6.586179e-01
    outer loop
      vertex   3.038281e+00 7.344036e+00 7.786354e+00
      vertex   3.069197e+00 7.418764e+00 7.693990e+00
      vertex   2.877671e+00 7.405580e+00 7.786354e+00
    endloop
  endfacet
  facet normal 2.666562e-01 6.958879e-01 6.668092e-01
    outer loop
      vertex   3.038281e+00 7.344036e+00 7.786354e+00
      vertex   2.877671e+00 7.405580e+00 7.786354e+00
      vertex   2.848037e+00 7.329316e+00 7.877794e+00
    endloop
  endfacet
  facet normal 2.524136e-01 7.012870e-01 6.666963e-01
    outer loop
      vertex   2.848037e+00 7.329316e+00 7.877794e+00
      vertex   2.877671e+00 7.405580e+00 7.786354e+00
      vertex   2.690997e+00 7.393453e+00 7.869785e+00
    endloop
  endfacet
  facet normal 3.138473e-01 7.252446e-01 6.127970e-01
    outer loop
      vertex   3.590112e+00 7.698184e+00 7.127456e+00
      vertex   3.420518e+00 7.772933e+00 7.125850e+00
      vertex   3.523884e+00 7.567820e+00 7.315661e+00
    endloop
  endfacet
  facet normal 3.134867e-01 7.252394e-01 6.129877e-01
    outer loop
      vertex   3.523884e+00 7.567820e+00 7.315661e+00
      vertex   3.420518e+00 7.772933e+00 7.125850e+00
      vertex   3.356879e+00 7.640009e+00 7.315661e+00
    endloop
  endfacet
  facet normal 3.082319e-01 7.130828e-01 6.296873e-01
    outer loop
      vertex   3.523884e+00 7.567820e+00 7.315661e+00
      vertex   3.356879e+00 7.640009e+00 7.315661e+00
      vertex   3.294631e+00 7.498338e+00 7.506565e+00
    endloop
  endfacet
  facet normal 2.931694e-01 7.195224e-01 6.295548e-01
    outer loop
      vertex   3.294631e+00 7.498338e+00 7.506565e+00
      vertex   3.356879e+00 7.640009e+00 7.315661e+00
      vertex   3.129887e+00 7.565463e+00 7.506565e+00
    endloop
  endfacet
  facet normal 2.879250e-01 7.066511e-01 6.463308e-01
    outer loop
      vertex   3.294631e+00 7.498338e+00 7.506565e+00
      vertex   3.129887e+00 7.565463e+00 7.506565e+00
      vertex   3.069197e+00 7.418764e+00 7.693990e+00
    endloop
  endfacet
  facet normal 2.730736e-01 7.126353e-01 6.462056e-01
    outer loop
      vertex   3.069197e+00 7.418764e+00 7.693990e+00
      vertex   3.129887e+00 7.565463e+00 7.506565e+00
      vertex   2.906953e+00 7.480934e+00 7.693990e+00
    endloop
  endfacet
  facet normal 2.692500e-01 7.026570e-01 6.586179e-01
    outer loop
      vertex   3.069197e+00 7.418764e+00 7.693990e+00
      vertex   2.906953e+00 7.480934e+00 7.693990e+00
      vertex   2.877671e+00 7.405580e+00 7.786354e+00
    endloop
  endfacet
  facet normal 2.543021e-01 7.083168e-01 6.584966e-01
    outer loop
      vertex   2.877671e+00 7.405580e+00 7.786354e+00
      vertex   2.906953e+00 7.480934e+00 7.693990e+00
      vertex   2.746023e+00 7.544637e+00 7.687617e+00
    endloop
  endfacet
  facet normal 2.499450e-01 7.066452e-01 6.619518e-01
    outer loop
      vertex   2.877671e+00 7.405580e+00 7.786354e+00
      vertex   2.746023e+00 7.544637e+00 7.687617e+00
      vertex   2.690997e+00 7.393453e+00 7.869785e+00
    endloop
  endfacet
  facet normal 2.985020e-01 7.318594e-01 6.125997e-01
    outer loop
      vertex   3.420518e+00 7.772933e+00 7.125850e+00
      vertex   3.249381e+00 7.844025e+00 7.124307e+00
      vertex   3.356879e+00 7.640009e+00 7.315661e+00
    endloop
  endfacet
  facet normal 2.981920e-01 7.318492e-01 6.127629e-01
    outer loop
      vertex   3.356879e+00 7.640009e+00 7.315661e+00
      vertex   3.249381e+00 7.844025e+00 7.124307e+00
      vertex   3.189022e+00 7.708402e+00 7.315661e+00
    endloop
  endfacet
  facet normal 2.931694e-01 7.195224e-01 6.295548e-01
    outer loop
      vertex   3.356879e+00 7.640009e+00 7.315661e+00
      vertex   3.189022e+00 7.708402e+00 7.315661e+00
      vertex   3.129887e+00 7.565463e+00 7.506565e+00
    endloop
  endfacet
  facet normal 2.780455e-01 7.256105e-01 6.294284e-01
    outer loop
      vertex   3.129887e+00 7.565463e+00 7.506565e+00
      vertex   3.189022e+00 7.708402e+00 7.315661e+00
      vertex   2.964435e+00 7.628862e+00 7.506565e+00
    endloop
  endfacet
  facet normal 2.730736e-01 7.126353e-01 6.462056e-01
    outer loop
      vertex   3.129887e+00 7.565463e+00 7.506565e+00
      vertex   2.964435e+00 7.628862e+00 7.506565e+00
      vertex   2.906953e+00 7.480934e+00 7.693990e+00
    endloop
  endfacet
  facet normal 2.586629e-01 7.180926e-01 6.460933e-01
    outer loop
      vertex   2.906953e+00 7.480934e+00 7.693990e+00
      vertex   2.964435e+00 7.628862e+00 7.506565e+00
      vertex   2.746023e+00 7.544637e+00 7.687617e+00
    endloop
  endfacet
  facet normal 2.830294e-01 7.381239e-01 6.124275e-01
    outer loop
      vertex   3.249381e+00 7.844025e+00 7.124307e+00
      vertex   3.076760e+00 7.911440e+00 7.122831e+00
      vertex   3.189022e+00 7.708402e+00 7.315661e+00
    endloop
  endfacet
  facet normal 2.828366e-01 7.381137e-01 6.125289e-01
    outer loop
      vertex   3.189022e+00 7.708402e+00 7.315661e+00
      vertex   3.076760e+00 7.911440e+00 7.122831e+00
      vertex   3.020444e+00 7.772999e+00 7.315661e+00
    endloop
  endfacet
  facet normal 2.780455e-01 7.256105e-01 6.294284e-01
    outer loop
      vertex   3.189022e+00 7.708402e+00 7.315661e+00
      vertex   3.020444e+00 7.772999e+00 7.315661e+00
      vertex   2.964435e+00 7.628862e+00 7.506565e+00
    endloop
  endfacet
  facet normal 2.632044e-01 7.312243e-01 6.293127e-01
    outer loop
      vertex   2.964435e+00 7.628862e+00 7.506565e+00
      vertex   3.020444e+00 7.772999e+00 7.315661e+00
      vertex   2.799660e+00 7.692003e+00 7.502114e+00
    endloop
  endfacet
  facet normal 2.579936e-01 7.187742e-01 6.456028e-01
    outer loop
      vertex   2.964435e+00 7.628862e+00 7.506565e+00
      vertex   2.799660e+00 7.692003e+00 7.502114e+00
      vertex   2.746023e+00 7.544637e+00 7.687617e+00
    endloop
  endfacet
  facet normal 2.674631e-01 7.441095e-01 6.121801e-01
    outer loop
      vertex   2.902719e+00 7.975155e+00 7.121424e+00
      vertex   2.851896e+00 7.835520e+00 7.313357e+00
      vertex   3.076760e+00 7.911440e+00 7.122831e+00
    endloop
  endfacet
  facet normal 2.675986e-01 7.439738e-01 6.122859e-01
    outer loop
      vertex   3.076760e+00 7.911440e+00 7.122831e+00
      vertex   2.851896e+00 7.835520e+00 7.313357e+00
      vertex   3.020444e+00 7.772999e+00 7.315661e+00
    endloop
  endfacet
  facet normal 2.627936e-01 7.316364e-01 6.290053e-01
    outer loop
      vertex   2.851896e+00 7.835520e+00 7.313357e+00
      vertex   2.799660e+00 7.692003e+00 7.502114e+00
      vertex   3.020444e+00 7.772999e+00 7.315661e+00
    endloop
  endfacet
  facet normal 2.441215e-01 6.764854e-01 6.948181e-01
    outer loop
      vertex   2.787728e+00 7.174114e+00 8.057839e+00
      vertex   2.576823e+00 7.079764e+00 8.223800e+00
      vertex   2.726069e+00 7.015437e+00 8.233992e+00
    endloop
  endfacet
  facet normal 2.375038e-01 6.634601e-01 7.095158e-01
    outer loop
      vertex   2.726069e+00 7.015437e+00 8.233992e+00
      vertex   2.576823e+00 7.079764e+00 8.223800e+00
      vertex   2.517745e+00 6.917449e+00 8.395355e+00
    endloop
  endfacet
  facet normal 2.389792e-01 6.619024e-01 7.104746e-01
    outer loop
      vertex   2.726069e+00 7.015437e+00 8.233992e+00
      vertex   2.517745e+00 6.917449e+00 8.395355e+00
      vertex   2.663106e+00 6.853404e+00 8.406127e+00
    endloop
  endfacet
  facet normal 2.517691e-01 6.570373e-01 7.105732e-01
    outer loop
      vertex   2.726069e+00 7.015437e+00 8.233992e+00
      vertex   2.663106e+00 6.853404e+00 8.406127e+00
      vertex   2.878218e+00 6.957136e+00 8.233992e+00
    endloop
  endfacet
  facet normal 2.517691e-01 6.570373e-01 7.105732e-01
    outer loop
      vertex   2.878218e+00 6.957136e+00 8.233992e+00
      vertex   2.663106e+00 6.853404e+00 8.406127e+00
      vertex   2.811740e+00 6.796448e+00 8.406127e+00
    endloop
  endfacet
  facet normal 2.654541e-01 6.515010e-01 7.106902e-01
    outer loop
      vertex   2.878218e+00 6.957136e+00 8.233992e+00
      vertex   2.811740e+00 6.796448e+00 8.406127e+00
      vertex   3.029715e+00 6.895408e+00 8.233992e+00
    endloop
  endfacet
  facet normal 2.573022e-01 6.714770e-01 6.949202e-01
    outer loop
      vertex   2.787728e+00 7.174114e+00 8.057839e+00
      vertex   2.726069e+00 7.015437e+00 8.233992e+00
      vertex   2.943318e+00 7.114493e+00 8.057839e+00
    endloop
  endfacet
  facet normal 2.573022e-01 6.714770e-01 6.949202e-01
    outer loop
      vertex   2.943318e+00 7.114493e+00 8.057839e+00
      vertex   2.726069e+00 7.015437e+00 8.233992e+00
      vertex   2.878218e+00 6.957136e+00 8.233992e+00
    endloop
  endfacet
  facet normal 2.712900e-01 6.658239e-01 6.950397e-01
    outer loop
      vertex   2.943318e+00 7.114493e+00 8.057839e+00
      vertex   2.878218e+00 6.957136e+00 8.233992e+00
      vertex   3.098242e+00 7.051370e+00 8.057839e+00
    endloop
  endfacet
  facet normal 2.712900e-01 6.658239e-01 6.950397e-01
    outer loop
      vertex   3.098242e+00 7.051370e+00 8.057839e+00
      vertex   2.878218e+00 6.957136e+00 8.233992e+00
      vertex   3.029715e+00 6.895408e+00 8.233992e+00
    endloop
  endfacet
  facet normal 2.852198e-01 6.598449e-01 6.951650e-01
    outer loop
      vertex   3.098242e+00 7.051370e+00 8.057839e+00
      vertex   3.029715e+00 6.895408e+00 8.233992e+00
      vertex   3.252380e+00 6.984743e+00 8.057839e+00
    endloop
  endfacet
  facet normal 2.755730e-01 6.763358e-01 6.831028e-01
    outer loop
      vertex   3.098242e+00 7.051370e+00 8.057839e+00
      vertex   3.131945e+00 7.128077e+00 7.968295e+00
      vertex   2.943318e+00 7.114493e+00 8.057839e+00
    endloop
  endfacet
  facet normal 2.755730e-01 6.763358e-01 6.831028e-01
    outer loop
      vertex   2.943318e+00 7.114493e+00 8.057839e+00
      vertex   3.131945e+00 7.128077e+00 7.968295e+00
      vertex   2.975336e+00 7.191887e+00 7.968295e+00
    endloop
  endfacet
  facet normal 2.613630e-01 6.820744e-01 6.829816e-01
    outer loop
      vertex   2.943318e+00 7.114493e+00 8.057839e+00
      vertex   2.975336e+00 7.191887e+00 7.968295e+00
      vertex   2.787728e+00 7.174114e+00 8.057839e+00
    endloop
  endfacet
  facet normal 2.783830e-01 6.832321e-01 6.750532e-01
    outer loop
      vertex   2.975336e+00 7.191887e+00 7.968295e+00
      vertex   3.131945e+00 7.128077e+00 7.968295e+00
      vertex   3.165268e+00 7.203917e+00 7.877794e+00
    endloop
  endfacet
  facet normal 2.926797e-01 6.771033e-01 6.751813e-01
    outer loop
      vertex   3.165268e+00 7.203917e+00 7.877794e+00
      vertex   3.131945e+00 7.128077e+00 7.968295e+00
      vertex   3.322741e+00 7.135849e+00 7.877794e+00
    endloop
  endfacet
  facet normal 2.955964e-01 6.838508e-01 6.670614e-01
    outer loop
      vertex   3.165268e+00 7.203917e+00 7.877794e+00
      vertex   3.322741e+00 7.135849e+00 7.877794e+00
      vertex   3.357315e+00 7.210100e+00 7.786354e+00
    endloop
  endfacet
  facet normal 3.099662e-01 6.773257e-01 6.671963e-01
    outer loop
      vertex   3.357315e+00 7.210100e+00 7.786354e+00
      vertex   3.322741e+00 7.135849e+00 7.877794e+00
      vertex   3.515491e+00 7.137713e+00 7.786354e+00
    endloop
  endfacet
  facet normal 3.129848e-01 6.839220e-01 6.590077e-01
    outer loop
      vertex   3.357315e+00 7.210100e+00 7.786354e+00
      vertex   3.515491e+00 7.137713e+00 7.786354e+00
      vertex   3.551262e+00 7.210342e+00 7.693990e+00
    endloop
  endfacet
  facet normal 3.274136e-01 6.769953e-01 6.591492e-01
    outer loop
      vertex   3.551262e+00 7.210342e+00 7.693990e+00
      vertex   3.515491e+00 7.137713e+00 7.786354e+00
      vertex   3.709977e+00 7.133583e+00 7.693990e+00
    endloop
  endfacet
  facet normal 3.320708e-01 6.866251e-01 6.467418e-01
    outer loop
      vertex   3.551262e+00 7.210342e+00 7.693990e+00
      vertex   3.709977e+00 7.133583e+00 7.693990e+00
      vertex   3.783338e+00 7.274642e+00 7.506565e+00
    endloop
  endfacet
  facet normal 3.466124e-01 6.792593e-01 6.468900e-01
    outer loop
      vertex   3.783338e+00 7.274642e+00 7.506565e+00
      vertex   3.709977e+00 7.133583e+00 7.693990e+00
      vertex   3.943969e+00 7.192675e+00 7.506565e+00
    endloop
  endfacet
  facet normal 3.529370e-01 6.916537e-01 6.301195e-01
    outer loop
      vertex   3.783338e+00 7.274642e+00 7.506565e+00
      vertex   3.943969e+00 7.192675e+00 7.506565e+00
      vertex   4.018486e+00 7.328571e+00 7.315661e+00
    endloop
  endfacet
  facet normal 2.897244e-01 6.702662e-01 6.832298e-01
    outer loop
      vertex   3.131945e+00 7.128077e+00 7.968295e+00
      vertex   3.098242e+00 7.051370e+00 8.057839e+00
      vertex   3.287760e+00 7.060726e+00 7.968295e+00
    endloop
  endfacet
  facet normal 2.897244e-01 6.702662e-01 6.832298e-01
    outer loop
      vertex   3.287760e+00 7.060726e+00 7.968295e+00
      vertex   3.098242e+00 7.051370e+00 8.057839e+00
      vertex   3.252380e+00 6.984743e+00 8.057839e+00
    endloop
  endfacet
  facet normal 3.038063e-01 6.638655e-01 6.833625e-01
    outer loop
      vertex   3.287760e+00 7.060726e+00 7.968295e+00
      vertex   3.252380e+00 6.984743e+00 8.057839e+00
      vertex   3.442659e+00 6.989839e+00 7.968295e+00
    endloop
  endfacet
  facet normal 2.926427e-01 6.394711e-01 7.109409e-01
    outer loop
      vertex   3.106986e+00 6.672498e+00 8.406127e+00
      vertex   3.253368e+00 6.605509e+00 8.406127e+00
      vertex   3.330287e+00 6.761682e+00 8.233992e+00
    endloop
  endfacet
  facet normal 3.061254e-01 6.329775e-01 7.110743e-01
    outer loop
      vertex   3.330287e+00 6.761682e+00 8.233992e+00
      vertex   3.253368e+00 6.605509e+00 8.406127e+00
      vertex   3.479125e+00 6.689700e+00 8.233992e+00
    endloop
  endfacet
  facet normal 3.128629e-01 6.469088e-01 6.954321e-01
    outer loop
      vertex   3.330287e+00 6.761682e+00 8.233992e+00
      vertex   3.479125e+00 6.689700e+00 8.233992e+00
      vertex   3.557817e+00 6.841008e+00 8.057839e+00
    endloop
  endfacet
  facet normal 3.265550e-01 6.399526e-01 6.955735e-01
    outer loop
      vertex   3.557817e+00 6.841008e+00 8.057839e+00
      vertex   3.479125e+00 6.689700e+00 8.233992e+00
      vertex   3.708874e+00 6.763927e+00 8.057839e+00
    endloop
  endfacet
  facet normal 3.317186e-01 6.500719e-01 6.836441e-01
    outer loop
      vertex   3.557817e+00 6.841008e+00 8.057839e+00
      vertex   3.708874e+00 6.763927e+00 8.057839e+00
      vertex   3.749220e+00 6.837508e+00 7.968295e+00
    endloop
  endfacet
  facet normal 3.069065e-01 6.706399e-01 6.753151e-01
    outer loop
      vertex   3.442659e+00 6.989839e+00 7.968295e+00
      vertex   3.479288e+00 7.064208e+00 7.877794e+00
      vertex   3.287760e+00 7.060726e+00 7.968295e+00
    endloop
  endfacet
  facet normal 3.069065e-01 6.706399e-01 6.753151e-01
    outer loop
      vertex   3.287760e+00 7.060726e+00 7.968295e+00
      vertex   3.479288e+00 7.064208e+00 7.877794e+00
      vertex   3.322741e+00 7.135849e+00 7.877794e+00
    endloop
  endfacet
  facet normal 2.926797e-01 6.771033e-01 6.751813e-01
    outer loop
      vertex   3.287760e+00 7.060726e+00 7.968295e+00
      vertex   3.322741e+00 7.135849e+00 7.877794e+00
      vertex   3.131945e+00 7.128077e+00 7.968295e+00
    endloop
  endfacet
  facet normal 3.099662e-01 6.773257e-01 6.671963e-01
    outer loop
      vertex   3.322741e+00 7.135849e+00 7.877794e+00
      vertex   3.479288e+00 7.064208e+00 7.877794e+00
      vertex   3.515491e+00 7.137713e+00 7.786354e+00
    endloop
  endfacet
  facet normal 3.242545e-01 6.704631e-01 6.673367e-01
    outer loop
      vertex   3.515491e+00 7.137713e+00 7.786354e+00
      vertex   3.479288e+00 7.064208e+00 7.877794e+00
      vertex   3.672607e+00 7.061728e+00 7.786354e+00
    endloop
  endfacet
  facet normal 3.274136e-01 6.769953e-01 6.591492e-01
    outer loop
      vertex   3.515491e+00 7.137713e+00 7.786354e+00
      vertex   3.672607e+00 7.061728e+00 7.786354e+00
      vertex   3.709977e+00 7.133583e+00 7.693990e+00
    endloop
  endfacet
  facet normal 3.417491e-01 6.697286e-01 6.592960e-01
    outer loop
      vertex   3.709977e+00 7.133583e+00 7.693990e+00
      vertex   3.672607e+00 7.061728e+00 7.786354e+00
      vertex   3.867494e+00 7.053205e+00 7.693990e+00
    endloop
  endfacet
  facet normal 3.466124e-01 6.792593e-01 6.468900e-01
    outer loop
      vertex   3.709977e+00 7.133583e+00 7.693990e+00
      vertex   3.867494e+00 7.053205e+00 7.693990e+00
      vertex   3.943969e+00 7.192675e+00 7.506565e+00
    endloop
  endfacet
  facet normal 3.242545e-01 6.704631e-01 6.673367e-01
    outer loop
      vertex   3.672607e+00 7.061728e+00 7.786354e+00
      vertex   3.479288e+00 7.064208e+00 7.877794e+00
      vertex   3.634786e+00 6.989005e+00 7.877794e+00
    endloop
  endfacet
  facet normal 3.210525e-01 6.638423e-01 6.754545e-01
    outer loop
      vertex   3.634786e+00 6.989005e+00 7.877794e+00
      vertex   3.479288e+00 7.064208e+00 7.877794e+00
      vertex   3.442659e+00 6.989839e+00 7.968295e+00
    endloop
  endfacet
  facet normal 3.384501e-01 6.632636e-01 6.674825e-01
    outer loop
      vertex   3.672607e+00 7.061728e+00 7.786354e+00
      vertex   3.634786e+00 6.989005e+00 7.877794e+00
      vertex   3.828537e+00 6.982159e+00 7.786354e+00
    endloop
  endfacet
  facet normal 3.417491e-01 6.697286e-01 6.592960e-01
    outer loop
      vertex   3.828537e+00 6.982159e+00 7.786354e+00
      vertex   3.867494e+00 7.053205e+00 7.693990e+00
      vertex   3.672607e+00 7.061728e+00 7.786354e+00
    endloop
  endfacet
  facet normal -9.396926e-01 3.420201e-01 3.005374e-10
    outer loop
      vertex   2.457458e+00 6.751811e+00 8.562901e+00
      vertex   2.517745e+00 6.917449e+00 8.395355e+00
      vertex   7.938674e-15 0.000000e+00 0.000000e+00
    endloop
  endfacet
  facet normal -9.396926e-01 3.420201e-01 2.314636e-10
    outer loop
      vertex   7.938674e-15 0.000000e+00 0.000000e+00
      vertex   2.517745e+00 6.917449e+00 8.395355e+00
      vertex   2.576823e+00 7.079764e+00 8.223800e+00
    endloop
  endfacet
  facet normal -9.396926e-01 3.420201e-01 -6.331042e-11
    outer loop
      vertex   7.938674e-15 0.000000e+00 0.000000e+00
      vertex   2.576823e+00 7.079764e+00 8.223800e+00
      vertex   2.634593e+00 7.238485e+00 8.048540e+00
    endloop
  endfacet
  facet normal -9.396926e-01 3.420201e-01 -1.200941e-10
    outer loop
      vertex   2.634593e+00 7.238485e+00 8.048540e+00
      vertex   2.690997e+00 7.393453e+00 7.869785e+00
      vertex   7.938674e-15 0.000000e+00 0.000000e+00
    endloop
  endfacet
  facet normal -9.396926e-01 3.420201e-01 -1.480557e-10
    outer loop
      vertex   7.938674e-15 0.000000e+00 0.000000e+00
      vertex   2.690997e+00 7.393453e+00 7.869785e+00
      vertex   2.746023e+00 7.544637e+00 7.687617e+00
    endloop
  endfacet
  facet normal -9.396926e-01 3.420201e-01 -1.457760e-10
    outer loop
      vertex   7.938674e-15 0.000000e+00 0.000000e+00
      vertex   2.746023e+00 7.544637e+00 7.687617e+00
      vertex   2.799660e+00 7.692003e+00 7.502114e+00
    endloop
  endfacet
  facet normal -9.396926e-01 3.420201e-01 -1.118734e-10
    outer loop
      vertex   2.799660e+00 7.692003e+00 7.502114e+00
      vertex   2.851896e+00 7.835520e+00 7.313357e+00
      vertex   7.938674e-15 0.000000e+00 0.000000e+00
    endloop
  endfacet
  facet normal -9.396926e-01 3.420201e-01 -4.503380e-11
    outer loop
      vertex   7.938674e-15 0.000000e+00 0.000000e+00
      vertex   2.851896e+00 7.835520e+00 7.313357e+00
      vertex   2.902719e+00 7.975155e+00 7.121424e+00
    endloop
  endfacet
  facet normal -3.684989e-01 -6.716755e-01 6.426979e-01
    outer loop
      vertex   7.938674e-15 0.000000e+00 0.000000e+00
      vertex   3.597272e+00 6.230657e+00 8.574123e+00
      vertex   1.661072e+00 3.190800e+00 4.287062e+00
    endloop
  endfacet
  facet normal -3.685025e-01 -6.716734e-01 6.426980e-01
    outer loop
      vertex   1.661072e+00 3.190800e+00 4.287062e+00
      vertex   3.597272e+00 6.230657e+00 8.574123e+00
      vertex   3.321012e+00 6.379250e+00 8.571017e+00
    endloop
  endfacet
  facet normal -3.388643e-01 -6.871030e-01 6.426978e-01
    outer loop
      vertex   1.661072e+00 3.190800e+00 4.287062e+00
      vertex   3.321012e+00 6.379250e+00 8.571017e+00
      vertex   3.038603e+00 6.515797e+00 8.568096e+00
    endloop
  endfacet
  facet normal -3.388551e-01 -6.871073e-01 6.426981e-01
    outer loop
      vertex   1.661072e+00 3.190800e+00 4.287062e+00
      vertex   3.038603e+00 6.515797e+00 8.568096e+00
      vertex   1.520322e+00 3.260213e+00 4.287062e+00
    endloop
  endfacet
  facet normal -3.085703e-01 -7.012304e-01 6.426977e-01
    outer loop
      vertex   1.520322e+00 3.260213e+00 4.287062e+00
      vertex   3.038603e+00 6.515797e+00 8.568096e+00
      vertex   2.750571e+00 6.640057e+00 8.565384e+00
    endloop
  endfacet
  facet normal -3.085612e-01 -7.012341e-01 6.426980e-01
    outer loop
      vertex   1.520322e+00 3.260213e+00 4.287062e+00
      vertex   2.750571e+00 6.640057e+00 8.565384e+00
      vertex   1.376652e+00 3.323431e+00 4.287062e+00
    endloop
  endfacet
  facet normal -2.776788e-01 -7.140268e-01 6.426976e-01
    outer loop
      vertex   1.376652e+00 3.323431e+00 4.287062e+00
      vertex   2.750571e+00 6.640057e+00 8.565384e+00
      vertex   2.457458e+00 6.751811e+00 8.562901e+00
    endloop
  endfacet
  facet normal -2.776748e-01 -7.140282e-01 6.426978e-01
    outer loop
      vertex   1.376652e+00 3.323431e+00 4.287062e+00
      vertex   2.457458e+00 6.751811e+00 8.562901e+00
      vertex   7.938674e-15 0.000000e+00 0.000000e+00
    endloop
  endfacet
  facet normal -3.085613e-01 -7.012342e-01 6.426978e-01
    outer loop
      vertex   1.376652e+00 3.323431e+00 4.287062e+00
      vertex   7.938674e-15 0.000000e+00 0.000000e+00
      vertex   1.520322e+00 3.260213e+00 4.287062e+00
    endloop
  endfacet
  facet normal -3.388552e-01 -6.871075e-01 6.426978e-01
    outer loop
      vertex   7.938674e-15 0.000000e+00 0.000000e+00
      vertex   1.661072e+00 3.190800e+00 4.287062e+00
      vertex   1.520322e+00 3.260213e+00 4.287062e+00
    endloop
  endfacet
  facet normal 2.330078e-01 5.991651e-01 -7.659691e-01
    outer loop
      vertex   7.938674e-15 0.000000e+00 0.000000e+00
      vertex   2.902719e+00 7.975155e+00 7.121424e+00
      vertex   1.626945e+00 3.927624e+00 3.567228e+00
    endloop
  endfacet
  facet normal 2.263748e-01 6.014381e-01 -7.661767e-01
    outer loop
      vertex   1.626945e+00 3.927624e+00 3.567228e+00
      vertex   2.902719e+00 7.975155e+00 7.121424e+00
      vertex   3.076760e+00 7.911440e+00 7.122831e+00
    endloop
  endfacet
  facet normal 2.395148e-01 5.965212e-01 -7.660255e-01
    outer loop
      vertex   1.626945e+00 3.927624e+00 3.567228e+00
      vertex   3.076760e+00 7.911440e+00 7.122831e+00
      vertex   3.249381e+00 7.844025e+00 7.124307e+00
    endloop
  endfacet
  facet normal 2.524761e-01 5.911519e-01 -7.660256e-01
    outer loop
      vertex   3.249381e+00 7.844025e+00 7.124307e+00
      vertex   3.420518e+00 7.772933e+00 7.125850e+00
      vertex   1.626945e+00 3.927624e+00 3.567228e+00
    endloop
  endfacet
  facet normal 2.588549e-01 5.882638e-01 -7.661199e-01
    outer loop
      vertex   1.626945e+00 3.927624e+00 3.567228e+00
      vertex   3.420518e+00 7.772933e+00 7.125850e+00
      vertex   1.796739e+00 3.852910e+00 3.567228e+00
    endloop
  endfacet
  facet normal 2.589273e-01 5.884284e-01 -7.659691e-01
    outer loop
      vertex   1.626945e+00 3.927624e+00 3.567228e+00
      vertex   1.796739e+00 3.852910e+00 3.567228e+00
      vertex   7.938674e-15 0.000000e+00 0.000000e+00
    endloop
  endfacet
  facet normal 2.653153e-01 5.855021e-01 -7.660255e-01
    outer loop
      vertex   3.420518e+00 7.772933e+00 7.125850e+00
      vertex   3.590112e+00 7.698184e+00 7.127456e+00
      vertex   1.796739e+00 3.852910e+00 3.567228e+00
    endloop
  endfacet
  facet normal 2.780259e-01 5.795742e-01 -7.660257e-01
    outer loop
      vertex   1.796739e+00 3.852910e+00 3.567228e+00
      vertex   3.590112e+00 7.698184e+00 7.127456e+00
      vertex   3.758064e+00 7.619820e+00 7.129123e+00
    endloop
  endfacet
  facet normal 2.842685e-01 5.764129e-01 -7.661198e-01
    outer loop
      vertex   1.796739e+00 3.852910e+00 3.567228e+00
      vertex   3.758064e+00 7.619820e+00 7.129123e+00
      vertex   1.963072e+00 3.770880e+00 3.567228e+00
    endloop
  endfacet
  facet normal 2.906003e-01 5.733728e-01 -7.660256e-01
    outer loop
      vertex   1.963072e+00 3.770880e+00 3.567228e+00
      vertex   3.758064e+00 7.619820e+00 7.129123e+00
      vertex   3.924278e+00 7.537882e+00 7.130847e+00
    endloop
  endfacet
  facet normal 3.030324e-01 5.669003e-01 -7.660257e-01
    outer loop
      vertex   1.963072e+00 3.770880e+00 3.567228e+00
      vertex   3.924278e+00 7.537882e+00 7.130847e+00
      vertex   4.088695e+00 7.452397e+00 7.132626e+00
    endloop
  endfacet
  facet normal 3.152333e-01 5.600017e-01 -7.661763e-01
    outer loop
      vertex   4.088695e+00 7.452397e+00 7.132626e+00
      vertex   4.251257e+00 7.363393e+00 7.134456e+00
      vertex   1.963072e+00 3.770880e+00 3.567228e+00
    endloop
  endfacet
  facet normal 3.092213e-01 5.636253e-01 -7.659692e-01
    outer loop
      vertex   1.963072e+00 3.770880e+00 3.567228e+00
      vertex   4.251257e+00 7.363393e+00 7.134456e+00
      vertex   7.938674e-15 0.000000e+00 0.000000e+00
    endloop
  endfacet
  facet normal 2.843480e-01 5.765740e-01 -7.659691e-01
    outer loop
      vertex   1.963072e+00 3.770880e+00 3.567228e+00
      vertex   7.938674e-15 0.000000e+00 0.000000e+00
      vertex   1.796739e+00 3.852910e+00 3.567228e+00
    endloop
  endfacet
endsolid
