solid ASCII
  facet normal 5.000000e-01 8.660254e-01 -1.195292e-10
    outer loop
      vertex   8.332632e+00 -4.810847e+00 -5.555088e+00
      vertex   0.000000e+00 0.000000e+00 0.000000e+00
      vertex   8.429506e+00 -4.866777e+00 -5.341161e+00
    endloop
  endfacet
  facet normal 5.000000e-01 8.660254e-01 -3.030723e-10
    outer loop
      vertex   8.429506e+00 -4.866777e+00 -5.341161e+00
      vertex   0.000000e+00 0.000000e+00 0.000000e+00
      vertex   8.522538e+00 -4.920490e+00 -5.124847e+00
    endloop
  endfacet
  facet normal 5.000000e-01 8.660254e-01 -4.002766e-10
    outer loop
      vertex   8.522538e+00 -4.920490e+00 -5.124847e+00
      vertex   0.000000e+00 0.000000e+00 0.000000e+00
      vertex   8.611699e+00 -4.971967e+00 -4.906221e+00
    endloop
  endfacet
  facet normal 5.000000e-01 8.660254e-01 -4.091976e-10
    outer loop
      vertex   8.611699e+00 -4.971967e+00 -4.906221e+00
      vertex   0.000000e+00 0.000000e+00 0.000000e+00
      vertex   8.696958e+00 -5.021191e+00 -4.685360e+00
    endloop
  endfacet
  facet normal 5.000000e-01 8.660254e-01 -3.280292e-10
    outer loop
      vertex   8.696958e+00 -5.021191e+00 -4.685360e+00
      vertex   0.000000e+00 0.000000e+00 0.000000e+00
      vertex   8.778284e+00 -5.068145e+00 -4.462338e+00
    endloop
  endfacet
  facet normal 5.000000e-01 8.660254e-01 -1.551084e-10
    outer loop
      vertex   8.778284e+00 -5.068145e+00 -4.462338e+00
      vertex   0.000000e+00 0.000000e+00 0.000000e+00
      vertex   8.855647e+00 -5.112810e+00 -4.237231e+00
    endloop
  endfacet
  facet normal 5.000000e-01 8.660254e-01 7.755888e-10
    outer loop
      vertex   8.855647e+00 -5.112810e+00 -4.237231e+00
      vertex   0.000000e+00 0.000000e+00 0.000000e+00
      vertex   8.928975e+00 -5.155146e+00 -4.010245e+00
    endloop
  endfacet
  facet normal 5.000000e-01 8.660254e-01 1.071284e-09
    outer loop
      vertex   8.928975e+00 -5.155146e+00 -4.010245e+00
      vertex   0.000000e+00 0.000000e+00 0.000000e+00
      vertex   8.998168e+00 -5.195095e+00 -3.781720e+00
    endloop
  endfacet
  facet normal 6.729161e-01 -5.788082e-01 -4.606136e-01
    outer loop
      vertex   7.434459e+00 -6.238252e+00 -5.325549e+00
      vertex   7.349530e+00 -6.166988e+00 -5.539173e+00
      vertex   7.568192e+00 -6.073749e+00 -5.336892e+00
    endloop
  endfacet
  facet normal 6.731437e-01 -5.780799e-01 -4.611954e-01
    outer loop
      vertex   7.568192e+00 -6.073749e+00 -5.336892e+00
      vertex   7.349530e+00 -6.166988e+00 -5.539173e+00
      vertex   7.485299e+00 -6.007231e+00 -5.541255e+00
    endloop
  endfacet
  facet normal 6.856590e-01 -5.630327e-01 -4.613740e-01
    outer loop
      vertex   7.568192e+00 -6.073749e+00 -5.336892e+00
      vertex   7.485299e+00 -6.007231e+00 -5.541255e+00
      vertex   7.704527e+00 -5.907721e+00 -5.336892e+00
    endloop
  endfacet
  facet normal 6.856531e-01 -5.630533e-01 -4.613577e-01
    outer loop
      vertex   7.704527e+00 -5.907721e+00 -5.336892e+00
      vertex   7.485299e+00 -6.007231e+00 -5.541255e+00
      vertex   7.617505e+00 -5.844548e+00 -5.543318e+00
    endloop
  endfacet
  facet normal 6.977505e-01 -5.476620e-01 -4.617473e-01
    outer loop
      vertex   7.704527e+00 -5.907721e+00 -5.336892e+00
      vertex   7.617505e+00 -5.844548e+00 -5.543318e+00
      vertex   7.746098e+00 -5.678994e+00 -5.545358e+00
    endloop
  endfacet
  facet normal 6.979301e-01 -5.475588e-01 -4.615982e-01
    outer loop
      vertex   7.704527e+00 -5.907721e+00 -5.336892e+00
      vertex   7.746098e+00 -5.678994e+00 -5.545358e+00
      vertex   7.835912e+00 -5.740254e+00 -5.336892e+00
    endloop
  endfacet
  facet normal 7.095619e-01 -5.320145e-01 -4.620417e-01
    outer loop
      vertex   7.835912e+00 -5.740254e+00 -5.336892e+00
      vertex   7.746098e+00 -5.678994e+00 -5.545358e+00
      vertex   7.871025e+00 -5.510625e+00 -5.547373e+00
    endloop
  endfacet
  facet normal 7.097908e-01 -5.318747e-01 -4.618510e-01
    outer loop
      vertex   7.835912e+00 -5.740254e+00 -5.336892e+00
      vertex   7.871025e+00 -5.510625e+00 -5.547373e+00
      vertex   7.963292e+00 -5.570265e+00 -5.336892e+00
    endloop
  endfacet
  facet normal 7.210500e-01 -5.160930e-01 -4.623148e-01
    outer loop
      vertex   7.963292e+00 -5.570265e+00 -5.336892e+00
      vertex   7.871025e+00 -5.510625e+00 -5.547373e+00
      vertex   7.992208e+00 -5.339539e+00 -5.549357e+00
    endloop
  endfacet
  facet normal 7.212847e-01 -5.159411e-01 -4.621180e-01
    outer loop
      vertex   7.963292e+00 -5.570265e+00 -5.336892e+00
      vertex   7.992208e+00 -5.339539e+00 -5.549357e+00
      vertex   8.086592e+00 -5.397892e+00 -5.336892e+00
    endloop
  endfacet
  facet normal 7.322066e-01 -4.999062e-01 -4.625659e-01
    outer loop
      vertex   8.086592e+00 -5.397892e+00 -5.336892e+00
      vertex   7.992208e+00 -5.339539e+00 -5.549357e+00
      vertex   8.109568e+00 -5.165841e+00 -5.551306e+00
    endloop
  endfacet
  facet normal 7.324044e-01 -4.997713e-01 -4.623987e-01
    outer loop
      vertex   8.086592e+00 -5.397892e+00 -5.336892e+00
      vertex   8.109568e+00 -5.165841e+00 -5.551306e+00
      vertex   8.205747e+00 -5.223273e+00 -5.336892e+00
    endloop
  endfacet
  facet normal 7.430254e-01 -4.834613e-01 -4.627942e-01
    outer loop
      vertex   8.205747e+00 -5.223273e+00 -5.336892e+00
      vertex   8.109568e+00 -5.165841e+00 -5.551306e+00
      vertex   8.223057e+00 -4.989590e+00 -5.553218e+00
    endloop
  endfacet
  facet normal 7.430626e-01 -4.834345e-01 -4.627623e-01
    outer loop
      vertex   8.205747e+00 -5.223273e+00 -5.336892e+00
      vertex   8.223057e+00 -4.989590e+00 -5.553218e+00
      vertex   8.319652e+00 -5.048195e+00 -5.336892e+00
    endloop
  endfacet
  facet normal 7.533552e-01 -4.670719e-01 -4.629253e-01
    outer loop
      vertex   8.319652e+00 -5.048195e+00 -5.336892e+00
      vertex   8.223057e+00 -4.989590e+00 -5.553218e+00
      vertex   8.429506e+00 -4.866777e+00 -5.341161e+00
    endloop
  endfacet
  facet normal 7.615249e-01 -4.715881e-01 -4.446171e-01
    outer loop
      vertex   8.319652e+00 -5.048195e+00 -5.336892e+00
      vertex   8.429506e+00 -4.866777e+00 -5.341161e+00
      vertex   8.522538e+00 -4.920490e+00 -5.124847e+00
    endloop
  endfacet
  facet normal 7.534146e-01 -4.667118e-01 -4.631917e-01
    outer loop
      vertex   8.223057e+00 -4.989590e+00 -5.553218e+00
      vertex   8.332632e+00 -4.810847e+00 -5.555088e+00
      vertex   8.429506e+00 -4.866777e+00 -5.341161e+00
    endloop
  endfacet
  facet normal 7.614060e-01 -4.722787e-01 -4.440875e-01
    outer loop
      vertex   8.319652e+00 -5.048195e+00 -5.336892e+00
      vertex   8.522538e+00 -4.920490e+00 -5.124847e+00
      vertex   8.412877e+00 -5.104756e+00 -5.116902e+00
    endloop
  endfacet
  facet normal 7.693230e-01 -4.762051e-01 -4.258765e-01
    outer loop
      vertex   8.412877e+00 -5.104756e+00 -5.116902e+00
      vertex   8.522538e+00 -4.920490e+00 -5.124847e+00
      vertex   8.611699e+00 -4.971967e+00 -4.906221e+00
    endloop
  endfacet
  facet normal 7.691404e-01 -4.772302e-01 -4.250580e-01
    outer loop
      vertex   8.412877e+00 -5.104756e+00 -5.116902e+00
      vertex   8.611699e+00 -4.971967e+00 -4.906221e+00
      vertex   8.501853e+00 -5.158738e+00 -4.895293e+00
    endloop
  endfacet
  facet normal 7.767545e-01 -4.806501e-01 -4.069741e-01
    outer loop
      vertex   8.501853e+00 -5.158738e+00 -4.895293e+00
      vertex   8.611699e+00 -4.971967e+00 -4.906221e+00
      vertex   8.696958e+00 -5.021191e+00 -4.685360e+00
    endloop
  endfacet
  facet normal 7.765203e-01 -4.819076e-01 -4.059326e-01
    outer loop
      vertex   8.501853e+00 -5.158738e+00 -4.895293e+00
      vertex   8.696958e+00 -5.021191e+00 -4.685360e+00
      vertex   8.586561e+00 -5.210130e+00 -4.672242e+00
    endloop
  endfacet
  facet normal 7.838191e-01 -4.849214e-01 -3.879159e-01
    outer loop
      vertex   8.586561e+00 -5.210130e+00 -4.672242e+00
      vertex   8.696958e+00 -5.021191e+00 -4.685360e+00
      vertex   8.778284e+00 -5.068145e+00 -4.462338e+00
    endloop
  endfacet
  facet normal 7.835457e-01 -4.863124e-01 -3.867252e-01
    outer loop
      vertex   8.586561e+00 -5.210130e+00 -4.672242e+00
      vertex   8.778284e+00 -5.068145e+00 -4.462338e+00
      vertex   8.666990e+00 -5.258926e+00 -4.447923e+00
    endloop
  endfacet
  facet normal 7.905168e-01 -4.890176e-01 -3.687072e-01
    outer loop
      vertex   8.666990e+00 -5.258926e+00 -4.447923e+00
      vertex   8.778284e+00 -5.068145e+00 -4.462338e+00
      vertex   8.855647e+00 -5.112810e+00 -4.237231e+00
    endloop
  endfacet
  facet normal 7.902179e-01 -4.904451e-01 -3.674497e-01
    outer loop
      vertex   8.666990e+00 -5.258926e+00 -4.447923e+00
      vertex   8.855647e+00 -5.112810e+00 -4.237231e+00
      vertex   8.743134e+00 -5.305123e+00 -4.222510e+00
    endloop
  endfacet
  facet normal 7.968444e-01 -4.929371e-01 -3.493595e-01
    outer loop
      vertex   8.743134e+00 -5.305123e+00 -4.222510e+00
      vertex   8.855647e+00 -5.112810e+00 -4.237231e+00
      vertex   8.928975e+00 -5.155146e+00 -4.010245e+00
    endloop
  endfacet
  facet normal 7.965363e-01 -4.943102e-01 -3.481196e-01
    outer loop
      vertex   8.743134e+00 -5.305123e+00 -4.222510e+00
      vertex   8.928975e+00 -5.155146e+00 -4.010245e+00
      vertex   8.814996e+00 -5.348720e+00 -3.996177e+00
    endloop
  endfacet
  facet normal 8.027981e-01 -4.966728e-01 -3.298958e-01
    outer loop
      vertex   8.814996e+00 -5.348720e+00 -3.996177e+00
      vertex   8.928975e+00 -5.155146e+00 -4.010245e+00
      vertex   8.998168e+00 -5.195095e+00 -3.781720e+00
    endloop
  endfacet
  facet normal 8.026227e-01 -4.974019e-01 -3.292237e-01
    outer loop
      vertex   8.814996e+00 -5.348720e+00 -3.996177e+00
      vertex   8.998168e+00 -5.195095e+00 -3.781720e+00
      vertex   8.879370e+00 -5.387774e+00 -3.780235e+00
    endloop
  endfacet
  facet normal 7.915255e-01 -5.149624e-01 -3.290914e-01
    outer loop
      vertex   8.814996e+00 -5.348720e+00 -3.996177e+00
      vertex   8.879370e+00 -5.387774e+00 -3.780235e+00
      vertex   8.694291e+00 -5.534250e+00 -3.996177e+00
    endloop
  endfacet
  facet normal 7.914637e-01 -5.151895e-01 -3.288844e-01
    outer loop
      vertex   8.694291e+00 -5.534250e+00 -3.996177e+00
      vertex   8.879370e+00 -5.387774e+00 -3.780235e+00
      vertex   8.756341e+00 -5.577745e+00 -3.778718e+00
    endloop
  endfacet
  facet normal 7.800207e-01 -5.322632e-01 -3.290343e-01
    outer loop
      vertex   8.694291e+00 -5.534250e+00 -3.996177e+00
      vertex   8.756341e+00 -5.577745e+00 -3.778718e+00
      vertex   8.568042e+00 -5.719265e+00 -3.996177e+00
    endloop
  endfacet
  facet normal 7.798961e-01 -5.326799e-01 -3.286552e-01
    outer loop
      vertex   8.568042e+00 -5.719265e+00 -3.996177e+00
      vertex   8.756341e+00 -5.577745e+00 -3.778718e+00
      vertex   8.629133e+00 -5.764945e+00 -3.777172e+00
    endloop
  endfacet
  facet normal 7.681012e-01 -5.494293e-01 -3.288586e-01
    outer loop
      vertex   8.568042e+00 -5.719265e+00 -3.996177e+00
      vertex   8.629133e+00 -5.764945e+00 -3.777172e+00
      vertex   8.437401e+00 -5.901901e+00 -3.996177e+00
    endloop
  endfacet
  facet normal 7.679533e-01 -5.498831e-01 -3.284454e-01
    outer loop
      vertex   8.437401e+00 -5.901901e+00 -3.996177e+00
      vertex   8.629133e+00 -5.764945e+00 -3.777172e+00
      vertex   8.497796e+00 -5.949307e+00 -3.775598e+00
    endloop
  endfacet
  facet normal 7.557989e-01 -5.663505e-01 -3.286566e-01
    outer loop
      vertex   8.437401e+00 -5.901901e+00 -3.996177e+00
      vertex   8.497796e+00 -5.949307e+00 -3.775598e+00
      vertex   8.302438e+00 -6.082010e+00 -3.996177e+00
    endloop
  endfacet
  facet normal 7.556436e-01 -5.667911e-01 -3.282539e-01
    outer loop
      vertex   8.302438e+00 -6.082010e+00 -3.996177e+00
      vertex   8.497796e+00 -5.949307e+00 -3.775598e+00
      vertex   8.362417e+00 -6.130719e+00 -3.774000e+00
    endloop
  endfacet
  facet normal 7.431213e-01 -5.830134e-01 -3.284298e-01
    outer loop
      vertex   8.302438e+00 -6.082010e+00 -3.996177e+00
      vertex   8.362417e+00 -6.130719e+00 -3.774000e+00
      vertex   8.163230e+00 -6.259448e+00 -3.996177e+00
    endloop
  endfacet
  facet normal 7.429770e-01 -5.833942e-01 -3.280798e-01
    outer loop
      vertex   8.163230e+00 -6.259448e+00 -3.996177e+00
      vertex   8.362417e+00 -6.130719e+00 -3.774000e+00
      vertex   8.223083e+00 -6.309077e+00 -3.772382e+00
    endloop
  endfacet
  facet normal 7.300277e-01 -5.994642e-01 -3.281802e-01
    outer loop
      vertex   8.163230e+00 -6.259448e+00 -3.996177e+00
      vertex   8.223083e+00 -6.309077e+00 -3.772382e+00
      vertex   8.018801e+00 -6.435334e+00 -3.996177e+00
    endloop
  endfacet
  facet normal 7.299443e-01 -5.996714e-01 -3.279871e-01
    outer loop
      vertex   8.018801e+00 -6.435334e+00 -3.996177e+00
      vertex   8.223083e+00 -6.309077e+00 -3.772382e+00
      vertex   8.079851e+00 -6.484320e+00 -3.770746e+00
    endloop
  endfacet
  facet normal 7.166112e-01 -6.156200e-01 -3.278420e-01
    outer loop
      vertex   8.018801e+00 -6.435334e+00 -3.996177e+00
      vertex   8.079851e+00 -6.484320e+00 -3.770746e+00
      vertex   7.872167e+00 -6.605533e+00 -3.997097e+00
    endloop
  endfacet
  facet normal 7.165971e-01 -6.156525e-01 -3.278117e-01
    outer loop
      vertex   7.872167e+00 -6.605533e+00 -3.997097e+00
      vertex   8.079851e+00 -6.484320e+00 -3.770746e+00
      vertex   7.932776e+00 -6.656389e+00 -3.769095e+00
    endloop
  endfacet
  facet normal 7.114311e-01 -6.110531e-01 -3.471021e-01
    outer loop
      vertex   8.018801e+00 -6.435334e+00 -3.996177e+00
      vertex   7.872167e+00 -6.605533e+00 -3.997097e+00
      vertex   7.953429e+00 -6.382878e+00 -4.222510e+00
    endloop
  endfacet
  facet normal 7.113437e-01 -6.111068e-01 -3.471867e-01
    outer loop
      vertex   7.953429e+00 -6.382878e+00 -4.222510e+00
      vertex   7.872167e+00 -6.605533e+00 -3.997097e+00
      vertex   7.807931e+00 -6.551632e+00 -4.223583e+00
    endloop
  endfacet
  facet normal 7.058481e-01 -6.062465e-01 -3.663928e-01
    outer loop
      vertex   7.953429e+00 -6.382878e+00 -4.222510e+00
      vertex   7.807931e+00 -6.551632e+00 -4.223583e+00
      vertex   7.884161e+00 -6.327296e+00 -4.447923e+00
    endloop
  endfacet
  facet normal 7.057849e-01 -6.062843e-01 -3.664520e-01
    outer loop
      vertex   7.884161e+00 -6.327296e+00 -4.447923e+00
      vertex   7.807931e+00 -6.551632e+00 -4.223583e+00
      vertex   7.740147e+00 -6.494754e+00 -4.448237e+00
    endloop
  endfacet
  facet normal 6.999157e-01 -6.012008e-01 -3.855848e-01
    outer loop
      vertex   7.884161e+00 -6.327296e+00 -4.447923e+00
      vertex   7.740147e+00 -6.494754e+00 -4.448237e+00
      vertex   7.668881e+00 -6.434956e+00 -4.670837e+00
    endloop
  endfacet
  facet normal 6.999369e-01 -6.011460e-01 -3.856317e-01
    outer loop
      vertex   7.884161e+00 -6.327296e+00 -4.447923e+00
      vertex   7.668881e+00 -6.434956e+00 -4.670837e+00
      vertex   7.810995e+00 -6.268586e+00 -4.672242e+00
    endloop
  endfacet
  facet normal 6.936631e-01 -5.959468e-01 -4.045726e-01
    outer loop
      vertex   7.810995e+00 -6.268586e+00 -4.672242e+00
      vertex   7.668881e+00 -6.434956e+00 -4.670837e+00
      vertex   7.594161e+00 -6.372258e+00 -4.891305e+00
    endloop
  endfacet
  facet normal 6.937662e-01 -5.956675e-01 -4.048069e-01
    outer loop
      vertex   7.810995e+00 -6.268586e+00 -4.672242e+00
      vertex   7.594161e+00 -6.372258e+00 -4.891305e+00
      vertex   7.733938e+00 -6.206751e+00 -4.895293e+00
    endloop
  endfacet
  facet normal 6.870763e-01 -5.904658e-01 -4.234103e-01
    outer loop
      vertex   7.733938e+00 -6.206751e+00 -4.895293e+00
      vertex   7.594161e+00 -6.372258e+00 -4.891305e+00
      vertex   7.516011e+00 -6.306682e+00 -5.109568e+00
    endloop
  endfacet
  facet normal 6.872866e-01 -5.898668e-01 -4.239036e-01
    outer loop
      vertex   7.733938e+00 -6.206751e+00 -4.895293e+00
      vertex   7.516011e+00 -6.306682e+00 -5.109568e+00
      vertex   7.652998e+00 -6.141802e+00 -5.116902e+00
    endloop
  endfacet
  facet normal 6.801593e-01 -5.847543e-01 -4.420925e-01
    outer loop
      vertex   7.652998e+00 -6.141802e+00 -5.116902e+00
      vertex   7.516011e+00 -6.306682e+00 -5.109568e+00
      vertex   7.434459e+00 -6.238252e+00 -5.325549e+00
    endloop
  endfacet
  facet normal 6.804935e-01 -5.837474e-01 -4.429080e-01
    outer loop
      vertex   7.652998e+00 -6.141802e+00 -5.116902e+00
      vertex   7.434459e+00 -6.238252e+00 -5.325549e+00
      vertex   7.568192e+00 -6.073749e+00 -5.336892e+00
    endloop
  endfacet
  facet normal 6.928292e-01 -5.689206e-01 -4.430768e-01
    outer loop
      vertex   7.652998e+00 -6.141802e+00 -5.116902e+00
      vertex   7.568192e+00 -6.073749e+00 -5.336892e+00
      vertex   7.704527e+00 -5.907721e+00 -5.336892e+00
    endloop
  endfacet
  facet normal 6.998970e-01 -5.747240e-01 -4.240713e-01
    outer loop
      vertex   7.733938e+00 -6.206751e+00 -4.895293e+00
      vertex   7.652998e+00 -6.141802e+00 -5.116902e+00
      vertex   7.790856e+00 -5.973917e+00 -5.116902e+00
    endloop
  endfacet
  facet normal 6.928295e-01 -5.689204e-01 -4.430766e-01
    outer loop
      vertex   7.790856e+00 -5.973917e+00 -5.116902e+00
      vertex   7.652998e+00 -6.141802e+00 -5.116902e+00
      vertex   7.704527e+00 -5.907721e+00 -5.336892e+00
    endloop
  endfacet
  facet normal 7.052530e-01 -5.533039e-01 -4.432528e-01
    outer loop
      vertex   7.790856e+00 -5.973917e+00 -5.116902e+00
      vertex   7.704527e+00 -5.907721e+00 -5.336892e+00
      vertex   7.923714e+00 -5.804574e+00 -5.116902e+00
    endloop
  endfacet
  facet normal 7.052530e-01 -5.533039e-01 -4.432528e-01
    outer loop
      vertex   7.923714e+00 -5.804574e+00 -5.116902e+00
      vertex   7.704527e+00 -5.907721e+00 -5.336892e+00
      vertex   7.835912e+00 -5.740254e+00 -5.336892e+00
    endloop
  endfacet
  facet normal 7.172760e-01 -5.374836e-01 -4.434259e-01
    outer loop
      vertex   7.923714e+00 -5.804574e+00 -5.116902e+00
      vertex   7.835912e+00 -5.740254e+00 -5.336892e+00
      vertex   8.052521e+00 -5.632680e+00 -5.116902e+00
    endloop
  endfacet
  facet normal 7.172760e-01 -5.374836e-01 -4.434259e-01
    outer loop
      vertex   8.052521e+00 -5.632680e+00 -5.116902e+00
      vertex   7.835912e+00 -5.740254e+00 -5.336892e+00
      vertex   7.963292e+00 -5.570265e+00 -5.336892e+00
    endloop
  endfacet
  facet normal 7.289368e-01 -5.214147e-01 -4.435965e-01
    outer loop
      vertex   8.052521e+00 -5.632680e+00 -5.116902e+00
      vertex   7.963292e+00 -5.570265e+00 -5.336892e+00
      vertex   8.177203e+00 -5.458375e+00 -5.116902e+00
    endloop
  endfacet
  facet normal 7.289368e-01 -5.214147e-01 -4.435965e-01
    outer loop
      vertex   8.177203e+00 -5.458375e+00 -5.116902e+00
      vertex   7.963292e+00 -5.570265e+00 -5.336892e+00
      vertex   8.086592e+00 -5.397892e+00 -5.336892e+00
    endloop
  endfacet
  facet normal 7.402279e-01 -5.051098e-01 -4.437643e-01
    outer loop
      vertex   8.177203e+00 -5.458375e+00 -5.116902e+00
      vertex   8.086592e+00 -5.397892e+00 -5.336892e+00
      vertex   8.297693e+00 -5.281800e+00 -5.116902e+00
    endloop
  endfacet
  facet normal 7.402279e-01 -5.051098e-01 -4.437643e-01
    outer loop
      vertex   8.297693e+00 -5.281800e+00 -5.116902e+00
      vertex   8.086592e+00 -5.397892e+00 -5.336892e+00
      vertex   8.205747e+00 -5.223273e+00 -5.336892e+00
    endloop
  endfacet
  facet normal 7.510926e-01 -4.886588e-01 -4.439286e-01
    outer loop
      vertex   8.297693e+00 -5.281800e+00 -5.116902e+00
      vertex   8.205747e+00 -5.223273e+00 -5.336892e+00
      vertex   8.319652e+00 -5.048195e+00 -5.336892e+00
    endloop
  endfacet
  facet normal 7.066209e-01 -5.802450e-01 -4.049724e-01
    outer loop
      vertex   7.810995e+00 -6.268586e+00 -4.672242e+00
      vertex   7.733938e+00 -6.206751e+00 -4.895293e+00
      vertex   7.873251e+00 -6.037096e+00 -4.895293e+00
    endloop
  endfacet
  facet normal 6.998973e-01 -5.747238e-01 -4.240711e-01
    outer loop
      vertex   7.873251e+00 -6.037096e+00 -4.895293e+00
      vertex   7.733938e+00 -6.206751e+00 -4.895293e+00
      vertex   7.790856e+00 -5.973917e+00 -5.116902e+00
    endloop
  endfacet
  facet normal 7.124532e-01 -5.589528e-01 -4.242432e-01
    outer loop
      vertex   7.873251e+00 -6.037096e+00 -4.895293e+00
      vertex   7.790856e+00 -5.973917e+00 -5.116902e+00
      vertex   8.007514e+00 -5.865962e+00 -4.895293e+00
    endloop
  endfacet
  facet normal 7.124532e-01 -5.589528e-01 -4.242432e-01
    outer loop
      vertex   8.007514e+00 -5.865962e+00 -4.895293e+00
      vertex   7.790856e+00 -5.973917e+00 -5.116902e+00
      vertex   7.923714e+00 -5.804574e+00 -5.116902e+00
    endloop
  endfacet
  facet normal 7.246047e-01 -5.429754e-01 -4.244123e-01
    outer loop
      vertex   8.007514e+00 -5.865962e+00 -4.895293e+00
      vertex   7.923714e+00 -5.804574e+00 -5.116902e+00
      vertex   8.137683e+00 -5.692250e+00 -4.895293e+00
    endloop
  endfacet
  facet normal 7.246047e-01 -5.429754e-01 -4.244123e-01
    outer loop
      vertex   8.137683e+00 -5.692250e+00 -4.895293e+00
      vertex   7.923714e+00 -5.804574e+00 -5.116902e+00
      vertex   8.052521e+00 -5.632680e+00 -5.116902e+00
    endloop
  endfacet
  facet normal 7.363905e-01 -5.267464e-01 -4.245790e-01
    outer loop
      vertex   8.137683e+00 -5.692250e+00 -4.895293e+00
      vertex   8.052521e+00 -5.632680e+00 -5.116902e+00
      vertex   8.263683e+00 -5.516102e+00 -4.895293e+00
    endloop
  endfacet
  facet normal 7.363905e-01 -5.267464e-01 -4.245790e-01
    outer loop
      vertex   8.263683e+00 -5.516102e+00 -4.895293e+00
      vertex   8.052521e+00 -5.632680e+00 -5.116902e+00
      vertex   8.177203e+00 -5.458375e+00 -5.116902e+00
    endloop
  endfacet
  facet normal 7.478028e-01 -5.102787e-01 -4.247429e-01
    outer loop
      vertex   8.263683e+00 -5.516102e+00 -4.895293e+00
      vertex   8.177203e+00 -5.458375e+00 -5.116902e+00
      vertex   8.385447e+00 -5.337659e+00 -4.895293e+00
    endloop
  endfacet
  facet normal 7.478028e-01 -5.102787e-01 -4.247429e-01
    outer loop
      vertex   8.385447e+00 -5.337659e+00 -4.895293e+00
      vertex   8.177203e+00 -5.458375e+00 -5.116902e+00
      vertex   8.297693e+00 -5.281800e+00 -5.116902e+00
    endloop
  endfacet
  facet normal 7.587846e-01 -4.936629e-01 -4.249033e-01
    outer loop
      vertex   8.385447e+00 -5.337659e+00 -4.895293e+00
      vertex   8.297693e+00 -5.281800e+00 -5.116902e+00
      vertex   8.412877e+00 -5.104756e+00 -5.116902e+00
    endloop
  endfacet
  facet normal 7.510928e-01 -4.886586e-01 -4.439284e-01
    outer loop
      vertex   8.412877e+00 -5.104756e+00 -5.116902e+00
      vertex   8.297693e+00 -5.281800e+00 -5.116902e+00
      vertex   8.319652e+00 -5.048195e+00 -5.336892e+00
    endloop
  endfacet
  facet normal 7.130016e-01 -5.854842e-01 -3.857939e-01
    outer loop
      vertex   7.884161e+00 -6.327296e+00 -4.447923e+00
      vertex   7.810995e+00 -6.268586e+00 -4.672242e+00
      vertex   7.951693e+00 -6.097244e+00 -4.672242e+00
    endloop
  endfacet
  facet normal 7.066212e-01 -5.802448e-01 -4.049722e-01
    outer loop
      vertex   7.951693e+00 -6.097244e+00 -4.672242e+00
      vertex   7.810995e+00 -6.268586e+00 -4.672242e+00
      vertex   7.873251e+00 -6.037096e+00 -4.895293e+00
    endloop
  endfacet
  facet normal 7.193031e-01 -5.643269e-01 -4.051397e-01
    outer loop
      vertex   7.951693e+00 -6.097244e+00 -4.672242e+00
      vertex   7.873251e+00 -6.037096e+00 -4.895293e+00
      vertex   8.087294e+00 -5.924405e+00 -4.672242e+00
    endloop
  endfacet
  facet normal 7.193031e-01 -5.643269e-01 -4.051397e-01
    outer loop
      vertex   8.087294e+00 -5.924405e+00 -4.672242e+00
      vertex   7.873251e+00 -6.037096e+00 -4.895293e+00
      vertex   8.007514e+00 -5.865962e+00 -4.895293e+00
    endloop
  endfacet
  facet normal 7.315771e-01 -5.482001e-01 -4.053043e-01
    outer loop
      vertex   8.087294e+00 -5.924405e+00 -4.672242e+00
      vertex   8.007514e+00 -5.865962e+00 -4.895293e+00
      vertex   8.218759e+00 -5.748963e+00 -4.672242e+00
    endloop
  endfacet
  facet normal 7.315771e-01 -5.482001e-01 -4.053043e-01
    outer loop
      vertex   8.218759e+00 -5.748963e+00 -4.672242e+00
      vertex   8.007514e+00 -5.865962e+00 -4.895293e+00
      vertex   8.137683e+00 -5.692250e+00 -4.895293e+00
    endloop
  endfacet
  facet normal 7.434820e-01 -5.318190e-01 -4.054665e-01
    outer loop
      vertex   8.218759e+00 -5.748963e+00 -4.672242e+00
      vertex   8.137683e+00 -5.692250e+00 -4.895293e+00
      vertex   8.346015e+00 -5.571060e+00 -4.672242e+00
    endloop
  endfacet
  facet normal 7.434820e-01 -5.318190e-01 -4.054665e-01
    outer loop
      vertex   8.346015e+00 -5.571060e+00 -4.672242e+00
      vertex   8.137683e+00 -5.692250e+00 -4.895293e+00
      vertex   8.263683e+00 -5.516102e+00 -4.895293e+00
    endloop
  endfacet
  facet normal 7.550099e-01 -5.151966e-01 -4.056261e-01
    outer loop
      vertex   8.346015e+00 -5.571060e+00 -4.672242e+00
      vertex   8.263683e+00 -5.516102e+00 -4.895293e+00
      vertex   8.468993e+00 -5.390839e+00 -4.672242e+00
    endloop
  endfacet
  facet normal 7.550099e-01 -5.151966e-01 -4.056261e-01
    outer loop
      vertex   8.468993e+00 -5.390839e+00 -4.672242e+00
      vertex   8.263683e+00 -5.516102e+00 -4.895293e+00
      vertex   8.385447e+00 -5.337659e+00 -4.895293e+00
    endloop
  endfacet
  facet normal 7.661033e-01 -4.984241e-01 -4.057823e-01
    outer loop
      vertex   8.468993e+00 -5.390839e+00 -4.672242e+00
      vertex   8.385447e+00 -5.337659e+00 -4.895293e+00
      vertex   8.501853e+00 -5.158738e+00 -4.895293e+00
    endloop
  endfacet
  facet normal 7.587849e-01 -4.936627e-01 -4.249031e-01
    outer loop
      vertex   8.501853e+00 -5.158738e+00 -4.895293e+00
      vertex   8.385447e+00 -5.337659e+00 -4.895293e+00
      vertex   8.412877e+00 -5.104756e+00 -5.116902e+00
    endloop
  endfacet
  facet normal 7.190403e-01 -5.904425e-01 -3.665497e-01
    outer loop
      vertex   7.953429e+00 -6.382878e+00 -4.222510e+00
      vertex   7.884161e+00 -6.327296e+00 -4.447923e+00
      vertex   8.026172e+00 -6.154354e+00 -4.447923e+00
    endloop
  endfacet
  facet normal 7.130019e-01 -5.854840e-01 -3.857937e-01
    outer loop
      vertex   8.026172e+00 -6.154354e+00 -4.447923e+00
      vertex   7.884161e+00 -6.327296e+00 -4.447923e+00
      vertex   7.951693e+00 -6.097244e+00 -4.672242e+00
    endloop
  endfacet
  facet normal 7.258036e-01 -5.694268e-01 -3.859562e-01
    outer loop
      vertex   8.026172e+00 -6.154354e+00 -4.447923e+00
      vertex   7.951693e+00 -6.097244e+00 -4.672242e+00
      vertex   8.163043e+00 -5.979896e+00 -4.447923e+00
    endloop
  endfacet
  facet normal 7.258036e-01 -5.694268e-01 -3.859562e-01
    outer loop
      vertex   8.163043e+00 -5.979896e+00 -4.447923e+00
      vertex   7.951693e+00 -6.097244e+00 -4.672242e+00
      vertex   8.087294e+00 -5.924405e+00 -4.672242e+00
    endloop
  endfacet
  facet normal 7.381940e-01 -5.531584e-01 -3.861158e-01
    outer loop
      vertex   8.163043e+00 -5.979896e+00 -4.447923e+00
      vertex   8.087294e+00 -5.924405e+00 -4.672242e+00
      vertex   8.295740e+00 -5.802810e+00 -4.447923e+00
    endloop
  endfacet
  facet normal 7.381940e-01 -5.531584e-01 -3.861158e-01
    outer loop
      vertex   8.295740e+00 -5.802810e+00 -4.447923e+00
      vertex   8.087294e+00 -5.924405e+00 -4.672242e+00
      vertex   8.218759e+00 -5.748963e+00 -4.672242e+00
    endloop
  endfacet
  facet normal 7.502120e-01 -5.366330e-01 -3.862732e-01
    outer loop
      vertex   8.295740e+00 -5.802810e+00 -4.447923e+00
      vertex   8.218759e+00 -5.748963e+00 -4.672242e+00
      vertex   8.424188e+00 -5.623241e+00 -4.447923e+00
    endloop
  endfacet
  facet normal 7.502120e-01 -5.366330e-01 -3.862732e-01
    outer loop
      vertex   8.424188e+00 -5.623241e+00 -4.447923e+00
      vertex   8.218759e+00 -5.748963e+00 -4.672242e+00
      vertex   8.346015e+00 -5.571060e+00 -4.672242e+00
    endloop
  endfacet
  facet normal 7.618497e-01 -5.198639e-01 -3.864280e-01
    outer loop
      vertex   8.424188e+00 -5.623241e+00 -4.447923e+00
      vertex   8.346015e+00 -5.571060e+00 -4.672242e+00
      vertex   8.548317e+00 -5.441332e+00 -4.447923e+00
    endloop
  endfacet
  facet normal 7.618497e-01 -5.198639e-01 -3.864280e-01
    outer loop
      vertex   8.548317e+00 -5.441332e+00 -4.447923e+00
      vertex   8.346015e+00 -5.571060e+00 -4.672242e+00
      vertex   8.468993e+00 -5.390839e+00 -4.672242e+00
    endloop
  endfacet
  facet normal 7.730491e-01 -5.029427e-01 -3.865795e-01
    outer loop
      vertex   8.548317e+00 -5.441332e+00 -4.447923e+00
      vertex   8.468993e+00 -5.390839e+00 -4.672242e+00
      vertex   8.586561e+00 -5.210130e+00 -4.672242e+00
    endloop
  endfacet
  facet normal 7.661035e-01 -4.984239e-01 -4.057821e-01
    outer loop
      vertex   8.586561e+00 -5.210130e+00 -4.672242e+00
      vertex   8.468993e+00 -5.390839e+00 -4.672242e+00
      vertex   8.501853e+00 -5.158738e+00 -4.895293e+00
    endloop
  endfacet
  facet normal 7.247385e-01 -5.951212e-01 -3.472533e-01
    outer loop
      vertex   8.018801e+00 -6.435334e+00 -3.996177e+00
      vertex   7.953429e+00 -6.382878e+00 -4.222510e+00
      vertex   8.096684e+00 -6.208422e+00 -4.222510e+00
    endloop
  endfacet
  facet normal 7.190405e-01 -5.904424e-01 -3.665495e-01
    outer loop
      vertex   8.096684e+00 -6.208422e+00 -4.222510e+00
      vertex   7.953429e+00 -6.382878e+00 -4.222510e+00
      vertex   8.026172e+00 -6.154354e+00 -4.447923e+00
    endloop
  endfacet
  facet normal 7.319558e-01 -5.742535e-01 -3.667065e-01
    outer loop
      vertex   8.096684e+00 -6.208422e+00 -4.222510e+00
      vertex   8.026172e+00 -6.154354e+00 -4.447923e+00
      vertex   8.234758e+00 -6.032431e+00 -4.222510e+00
    endloop
  endfacet
  facet normal 7.319558e-01 -5.742535e-01 -3.667065e-01
    outer loop
      vertex   8.234758e+00 -6.032431e+00 -4.222510e+00
      vertex   8.026172e+00 -6.154354e+00 -4.447923e+00
      vertex   8.163043e+00 -5.979896e+00 -4.447923e+00
    endloop
  endfacet
  facet normal 7.444564e-01 -5.578511e-01 -3.668608e-01
    outer loop
      vertex   8.234758e+00 -6.032431e+00 -4.222510e+00
      vertex   8.163043e+00 -5.979896e+00 -4.447923e+00
      vertex   8.368621e+00 -5.853790e+00 -4.222510e+00
    endloop
  endfacet
  facet normal 7.444564e-01 -5.578511e-01 -3.668608e-01
    outer loop
      vertex   8.368621e+00 -5.853790e+00 -4.222510e+00
      vertex   8.163043e+00 -5.979896e+00 -4.447923e+00
      vertex   8.295740e+00 -5.802810e+00 -4.447923e+00
    endloop
  endfacet
  facet normal 7.565816e-01 -5.411893e-01 -3.670128e-01
    outer loop
      vertex   8.368621e+00 -5.853790e+00 -4.222510e+00
      vertex   8.295740e+00 -5.802810e+00 -4.447923e+00
      vertex   8.498197e+00 -5.672642e+00 -4.222510e+00
    endloop
  endfacet
  facet normal 7.565816e-01 -5.411893e-01 -3.670128e-01
    outer loop
      vertex   8.498197e+00 -5.672642e+00 -4.222510e+00
      vertex   8.295740e+00 -5.802810e+00 -4.447923e+00
      vertex   8.424188e+00 -5.623241e+00 -4.447923e+00
    endloop
  endfacet
  facet normal 7.683234e-01 -5.242813e-01 -3.671624e-01
    outer loop
      vertex   8.498197e+00 -5.672642e+00 -4.222510e+00
      vertex   8.424188e+00 -5.623241e+00 -4.447923e+00
      vertex   8.623417e+00 -5.489135e+00 -4.222510e+00
    endloop
  endfacet
  facet normal 7.683234e-01 -5.242813e-01 -3.671624e-01
    outer loop
      vertex   8.623417e+00 -5.489135e+00 -4.222510e+00
      vertex   8.424188e+00 -5.623241e+00 -4.447923e+00
      vertex   8.548317e+00 -5.441332e+00 -4.447923e+00
    endloop
  endfacet
  facet normal 7.796233e-01 -5.072195e-01 -3.673088e-01
    outer loop
      vertex   8.623417e+00 -5.489135e+00 -4.222510e+00
      vertex   8.548317e+00 -5.441332e+00 -4.447923e+00
      vertex   8.666990e+00 -5.258926e+00 -4.447923e+00
    endloop
  endfacet
  facet normal 7.730493e-01 -5.029425e-01 -3.865793e-01
    outer loop
      vertex   8.666990e+00 -5.258926e+00 -4.447923e+00
      vertex   8.548317e+00 -5.441332e+00 -4.447923e+00
      vertex   8.586561e+00 -5.210130e+00 -4.672242e+00
    endloop
  endfacet
  facet normal 7.377612e-01 -5.788081e-01 -3.474041e-01
    outer loop
      vertex   8.302438e+00 -6.082010e+00 -3.996177e+00
      vertex   8.163230e+00 -6.259448e+00 -3.996177e+00
      vertex   8.096684e+00 -6.208422e+00 -4.222510e+00
    endloop
  endfacet
  facet normal 7.247387e-01 -5.951211e-01 -3.472530e-01
    outer loop
      vertex   8.096684e+00 -6.208422e+00 -4.222510e+00
      vertex   8.163230e+00 -6.259448e+00 -3.996177e+00
      vertex   8.018801e+00 -6.435334e+00 -3.996177e+00
    endloop
  endfacet
  facet normal 7.377612e-01 -5.788081e-01 -3.474041e-01
    outer loop
      vertex   8.302438e+00 -6.082010e+00 -3.996177e+00
      vertex   8.096684e+00 -6.208422e+00 -4.222510e+00
      vertex   8.234758e+00 -6.032431e+00 -4.222510e+00
    endloop
  endfacet
  facet normal 7.503660e-01 -5.622793e-01 -3.475526e-01
    outer loop
      vertex   8.437401e+00 -5.901901e+00 -3.996177e+00
      vertex   8.302438e+00 -6.082010e+00 -3.996177e+00
      vertex   8.234758e+00 -6.032431e+00 -4.222510e+00
    endloop
  endfacet
  facet normal 7.503660e-01 -5.622793e-01 -3.475526e-01
    outer loop
      vertex   8.437401e+00 -5.901901e+00 -3.996177e+00
      vertex   8.234758e+00 -6.032431e+00 -4.222510e+00
      vertex   8.368621e+00 -5.853790e+00 -4.222510e+00
    endloop
  endfacet
  facet normal 7.625925e-01 -5.454889e-01 -3.476990e-01
    outer loop
      vertex   8.568042e+00 -5.719265e+00 -3.996177e+00
      vertex   8.437401e+00 -5.901901e+00 -3.996177e+00
      vertex   8.368621e+00 -5.853790e+00 -4.222510e+00
    endloop
  endfacet
  facet normal 7.625925e-01 -5.454889e-01 -3.476990e-01
    outer loop
      vertex   8.568042e+00 -5.719265e+00 -3.996177e+00
      vertex   8.368621e+00 -5.853790e+00 -4.222510e+00
      vertex   8.498197e+00 -5.672642e+00 -4.222510e+00
    endloop
  endfacet
  facet normal 7.744326e-01 -5.284501e-01 -3.478429e-01
    outer loop
      vertex   8.694291e+00 -5.534250e+00 -3.996177e+00
      vertex   8.568042e+00 -5.719265e+00 -3.996177e+00
      vertex   8.498197e+00 -5.672642e+00 -4.222510e+00
    endloop
  endfacet
  facet normal 7.744326e-01 -5.284501e-01 -3.478429e-01
    outer loop
      vertex   8.694291e+00 -5.534250e+00 -3.996177e+00
      vertex   8.498197e+00 -5.672642e+00 -4.222510e+00
      vertex   8.623417e+00 -5.489135e+00 -4.222510e+00
    endloop
  endfacet
  facet normal 7.858277e-01 -5.112555e-01 -3.479836e-01
    outer loop
      vertex   8.743134e+00 -5.305123e+00 -4.222510e+00
      vertex   8.814996e+00 -5.348720e+00 -3.996177e+00
      vertex   8.694291e+00 -5.534250e+00 -3.996177e+00
    endloop
  endfacet
  facet normal 7.796236e-01 -5.072194e-01 -3.673086e-01
    outer loop
      vertex   8.666990e+00 -5.258926e+00 -4.447923e+00
      vertex   8.743134e+00 -5.305123e+00 -4.222510e+00
      vertex   8.623417e+00 -5.489135e+00 -4.222510e+00
    endloop
  endfacet
  facet normal 7.858275e-01 -5.112556e-01 -3.479839e-01
    outer loop
      vertex   8.623417e+00 -5.489135e+00 -4.222510e+00
      vertex   8.743134e+00 -5.305123e+00 -4.222510e+00
      vertex   8.694291e+00 -5.534250e+00 -3.996177e+00
    endloop
  endfacet
  facet normal -6.427876e-01 -7.660444e-01 -4.119188e-11
    outer loop
      vertex   7.349530e+00 -6.166988e+00 -5.539173e+00
      vertex   7.434459e+00 -6.238252e+00 -5.325549e+00
      vertex   0.000000e+00 0.000000e+00 0.000000e+00
    endloop
  endfacet
  facet normal -6.427876e-01 -7.660444e-01 -1.042101e-10
    outer loop
      vertex   0.000000e+00 0.000000e+00 0.000000e+00
      vertex   7.434459e+00 -6.238252e+00 -5.325549e+00
      vertex   7.516011e+00 -6.306682e+00 -5.109568e+00
    endloop
  endfacet
  facet normal -6.427876e-01 -7.660444e-01 -1.371005e-10
    outer loop
      vertex   0.000000e+00 0.000000e+00 0.000000e+00
      vertex   7.516011e+00 -6.306682e+00 -5.109568e+00
      vertex   7.594161e+00 -6.372258e+00 -4.891305e+00
    endloop
  endfacet
  facet normal -6.427876e-01 -7.660444e-01 -1.391888e-10
    outer loop
      vertex   7.594161e+00 -6.372258e+00 -4.891305e+00
      vertex   7.668881e+00 -6.434956e+00 -4.670837e+00
      vertex   0.000000e+00 0.000000e+00 0.000000e+00
    endloop
  endfacet
  facet normal -6.427876e-01 -7.660444e-01 -1.098403e-10
    outer loop
      vertex   0.000000e+00 0.000000e+00 0.000000e+00
      vertex   7.668881e+00 -6.434956e+00 -4.670837e+00
      vertex   7.740147e+00 -6.494754e+00 -4.448237e+00
    endloop
  endfacet
  facet normal -6.427876e-01 -7.660444e-01 -4.847704e-11
    outer loop
      vertex   0.000000e+00 0.000000e+00 0.000000e+00
      vertex   7.740147e+00 -6.494754e+00 -4.448237e+00
      vertex   7.807931e+00 -6.551632e+00 -4.223583e+00
    endloop
  endfacet
  facet normal -6.427876e-01 -7.660444e-01 2.807200e-10
    outer loop
      vertex   7.807931e+00 -6.551632e+00 -4.223583e+00
      vertex   7.872167e+00 -6.605533e+00 -3.997097e+00
      vertex   0.000000e+00 0.000000e+00 0.000000e+00
    endloop
  endfacet
  facet normal -6.427876e-01 -7.660444e-01 3.437577e-10
    outer loop
      vertex   0.000000e+00 0.000000e+00 0.000000e+00
      vertex   7.872167e+00 -6.605533e+00 -3.997097e+00
      vertex   7.932776e+00 -6.656389e+00 -3.769095e+00
    endloop
  endfacet
  facet normal 2.658353e-01 -2.152692e-01 9.396759e-01
    outer loop
      vertex   0.000000e+00 0.000000e+00 0.000000e+00
      vertex   7.932776e+00 -6.656389e+00 -3.769095e+00
      vertex   4.093790e+00 -3.198420e+00 -1.890860e+00
    endloop
  endfacet
  facet normal 2.643501e-01 -2.169373e-01 9.397112e-01
    outer loop
      vertex   4.093790e+00 -3.198420e+00 -1.890860e+00
      vertex   7.932776e+00 -6.656389e+00 -3.769095e+00
      vertex   8.079851e+00 -6.484320e+00 -3.770746e+00
    endloop
  endfacet
  facet normal 2.690924e-01 -2.111664e-01 9.396797e-01
    outer loop
      vertex   4.093790e+00 -3.198420e+00 -1.890860e+00
      vertex   8.079851e+00 -6.484320e+00 -3.770746e+00
      vertex   8.223083e+00 -6.309077e+00 -3.772382e+00
    endloop
  endfacet
  facet normal 2.731307e-01 -2.058187e-01 9.397012e-01
    outer loop
      vertex   4.093790e+00 -3.198420e+00 -1.890860e+00
      vertex   8.223083e+00 -6.309077e+00 -3.772382e+00
      vertex   4.202920e+00 -3.053600e+00 -1.890860e+00
    endloop
  endfacet
  facet normal 2.736113e-01 -2.052201e-01 9.396923e-01
    outer loop
      vertex   4.202920e+00 -3.053600e+00 -1.890860e+00
      vertex   8.223083e+00 -6.309077e+00 -3.772382e+00
      vertex   8.362417e+00 -6.130719e+00 -3.774000e+00
    endloop
  endfacet
  facet normal 2.780476e-01 -1.992171e-01 9.396819e-01
    outer loop
      vertex   4.202920e+00 -3.053600e+00 -1.890860e+00
      vertex   8.362417e+00 -6.130719e+00 -3.774000e+00
      vertex   8.497796e+00 -5.949307e+00 -3.775598e+00
    endloop
  endfacet
  facet normal 2.801287e-01 -1.961482e-01 9.397094e-01
    outer loop
      vertex   4.202920e+00 -3.053600e+00 -1.890860e+00
      vertex   8.497796e+00 -5.949307e+00 -3.775598e+00
      vertex   4.306929e+00 -2.905060e+00 -1.890860e+00
    endloop
  endfacet
  facet normal 2.823276e-01 -1.931040e-01 9.396818e-01
    outer loop
      vertex   4.306929e+00 -2.905060e+00 -1.890860e+00
      vertex   8.497796e+00 -5.949307e+00 -3.775598e+00
      vertex   8.629133e+00 -5.764945e+00 -3.777172e+00
    endloop
  endfacet
  facet normal 2.864470e-01 -1.868853e-01 9.396925e-01
    outer loop
      vertex   4.306929e+00 -2.905060e+00 -1.890860e+00
      vertex   8.629133e+00 -5.764945e+00 -3.777172e+00
      vertex   8.756341e+00 -5.577745e+00 -3.778718e+00
    endloop
  endfacet
  facet normal 2.868231e-01 -1.862651e-01 9.397009e-01
    outer loop
      vertex   4.306929e+00 -2.905060e+00 -1.890860e+00
      vertex   8.756341e+00 -5.577745e+00 -3.778718e+00
      vertex   4.405690e+00 -2.752981e+00 -1.890860e+00
    endloop
  endfacet
  facet normal 2.904814e-01 -1.806166e-01 9.396798e-01
    outer loop
      vertex   4.405690e+00 -2.752981e+00 -1.890860e+00
      vertex   8.756341e+00 -5.577745e+00 -3.778718e+00
      vertex   8.879370e+00 -5.387774e+00 -3.780235e+00
    endloop
  endfacet
  facet normal 2.942744e-01 -1.741990e-01 9.397113e-01
    outer loop
      vertex   4.405690e+00 -2.752981e+00 -1.890860e+00
      vertex   8.879370e+00 -5.387774e+00 -3.780235e+00
      vertex   8.998168e+00 -5.195095e+00 -3.781720e+00
    endloop
  endfacet
  facet normal 2.932079e-01 -1.761770e-01 9.396759e-01
    outer loop
      vertex   8.998168e+00 -5.195095e+00 -3.781720e+00
      vertex   0.000000e+00 0.000000e+00 0.000000e+00
      vertex   4.405690e+00 -2.752981e+00 -1.890860e+00
    endloop
  endfacet
  facet normal 2.868808e-01 -1.863026e-01 9.396759e-01
    outer loop
      vertex   4.405690e+00 -2.752981e+00 -1.890860e+00
      vertex   0.000000e+00 0.000000e+00 0.000000e+00
      vertex   4.306929e+00 -2.905060e+00 -1.890860e+00
    endloop
  endfacet
  facet normal 2.802042e-01 -1.962011e-01 9.396759e-01
    outer loop
      vertex   4.306929e+00 -2.905060e+00 -1.890860e+00
      vertex   0.000000e+00 0.000000e+00 0.000000e+00
      vertex   4.202920e+00 -3.053600e+00 -1.890860e+00
    endloop
  endfacet
  facet normal 2.731862e-01 -2.058605e-01 9.396759e-01
    outer loop
      vertex   4.202920e+00 -3.053600e+00 -1.890860e+00
      vertex   0.000000e+00 0.000000e+00 0.000000e+00
      vertex   4.093790e+00 -3.198420e+00 -1.890860e+00
    endloop
  endfacet
  facet normal -4.286326e-01 2.575485e-01 -8.659924e-01
    outer loop
      vertex   0.000000e+00 0.000000e+00 0.000000e+00
      vertex   8.332632e+00 -4.810847e+00 -5.555088e+00
      vertex   4.079830e+00 -2.549361e+00 -2.777544e+00
    endloop
  endfacet
  facet normal -4.302093e-01 2.546690e-01 -8.660621e-01
    outer loop
      vertex   4.079830e+00 -2.549361e+00 -2.777544e+00
      vertex   8.332632e+00 -4.810847e+00 -5.555088e+00
      vertex   8.223057e+00 -4.989590e+00 -5.553218e+00
    endloop
  endfacet
  facet normal -4.246473e-01 2.640422e-01 -8.660002e-01
    outer loop
      vertex   4.079830e+00 -2.549361e+00 -2.777544e+00
      vertex   8.223057e+00 -4.989590e+00 -5.553218e+00
      vertex   8.109568e+00 -5.165841e+00 -5.551306e+00
    endloop
  endfacet
  facet normal -4.193115e-01 2.723041e-01 -8.660418e-01
    outer loop
      vertex   4.079830e+00 -2.549361e+00 -2.777544e+00
      vertex   8.109568e+00 -5.165841e+00 -5.551306e+00
      vertex   3.988373e+00 -2.690192e+00 -2.777544e+00
    endloop
  endfacet
  facet normal -4.187552e-01 2.732117e-01 -8.660251e-01
    outer loop
      vertex   3.988373e+00 -2.690192e+00 -2.777544e+00
      vertex   8.109568e+00 -5.165841e+00 -5.551306e+00
      vertex   7.992208e+00 -5.339539e+00 -5.549357e+00
    endloop
  endfacet
  facet normal -4.127272e-01 2.822996e-01 -8.660042e-01
    outer loop
      vertex   3.988373e+00 -2.690192e+00 -2.777544e+00
      vertex   7.992208e+00 -5.339539e+00 -5.549357e+00
      vertex   7.871025e+00 -5.510625e+00 -5.547373e+00
    endloop
  endfacet
  facet normal -4.095291e-01 2.867554e-01 -8.660585e-01
    outer loop
      vertex   3.988373e+00 -2.690192e+00 -2.777544e+00
      vertex   7.871025e+00 -5.510625e+00 -5.547373e+00
      vertex   3.892057e+00 -2.827745e+00 -2.777544e+00
    endloop
  endfacet
  facet normal -4.064702e-01 2.912361e-01 -8.660043e-01
    outer loop
      vertex   3.892057e+00 -2.827745e+00 -2.777544e+00
      vertex   7.871025e+00 -5.510625e+00 -5.547373e+00
      vertex   7.746098e+00 -5.678994e+00 -5.545358e+00
    endloop
  endfacet
  facet normal -3.999901e-01 3.000151e-01 -8.660247e-01
    outer loop
      vertex   3.892057e+00 -2.827745e+00 -2.777544e+00
      vertex   7.746098e+00 -5.678994e+00 -5.545358e+00
      vertex   7.617505e+00 -5.844548e+00 -5.543318e+00
    endloop
  endfacet
  facet normal -3.992946e-01 3.008900e-01 -8.660422e-01
    outer loop
      vertex   3.892057e+00 -2.827745e+00 -2.777544e+00
      vertex   7.617505e+00 -5.844548e+00 -5.543318e+00
      vertex   3.790999e+00 -2.961853e+00 -2.777544e+00
    endloop
  endfacet
  facet normal -3.933788e-01 3.087022e-01 -8.660000e-01
    outer loop
      vertex   3.790999e+00 -2.961853e+00 -2.777544e+00
      vertex   7.617505e+00 -5.844548e+00 -5.543318e+00
      vertex   7.485299e+00 -6.007231e+00 -5.541255e+00
    endloop
  endfacet
  facet normal -3.864619e-01 3.171493e-01 -8.660621e-01
    outer loop
      vertex   3.790999e+00 -2.961853e+00 -2.777544e+00
      vertex   7.485299e+00 -6.007231e+00 -5.541255e+00
      vertex   7.349530e+00 -6.166988e+00 -5.539173e+00
    endloop
  endfacet
  facet normal -3.886174e-01 3.146961e-01 -8.659924e-01
    outer loop
      vertex   7.349530e+00 -6.166988e+00 -5.539173e+00
      vertex   0.000000e+00 0.000000e+00 0.000000e+00
      vertex   3.790999e+00 -2.961853e+00 -2.777544e+00
    endloop
  endfacet
  facet normal -3.993634e-01 3.009419e-01 -8.659924e-01
    outer loop
      vertex   3.790999e+00 -2.961853e+00 -2.777544e+00
      vertex   0.000000e+00 0.000000e+00 0.000000e+00
      vertex   3.892057e+00 -2.827745e+00 -2.777544e+00
    endloop
  endfacet
  facet normal -4.096228e-01 2.868210e-01 -8.659924e-01
    outer loop
      vertex   3.892057e+00 -2.827745e+00 -2.777544e+00
      vertex   0.000000e+00 0.000000e+00 0.000000e+00
      vertex   3.988373e+00 -2.690192e+00 -2.777544e+00
    endloop
  endfacet
  facet normal -4.193832e-01 2.723506e-01 -8.659924e-01
    outer loop
      vertex   3.988373e+00 -2.690192e+00 -2.777544e+00
      vertex   0.000000e+00 0.000000e+00 0.000000e+00
      vertex   4.079830e+00 -2.549361e+00 -2.777544e+00
    endloop
  endfacet
endsolid
