solid ASCII
  facet normal 6.427876e-01 7.660444e-01 -1.564686e-16
    outer loop
      vertex   1.517841e+00 -1.273620e+00 -1.123708e+01
      vertex   0.000000e+00 0.000000e+00 0.000000e+00
      vertex   1.704622e+00 -1.430348e+00 -1.118746e+01
    endloop
  endfacet
  facet normal 6.427876e-01 7.660444e-01 -6.263208e-16
    outer loop
      vertex   1.704622e+00 -1.430348e+00 -1.118746e+01
      vertex   0.000000e+00 0.000000e+00 0.000000e+00
      vertex   1.890397e+00 -1.586232e+00 -1.113215e+01
    endloop
  endfacet
  facet normal 6.427876e-01 7.660444e-01 -5.681488e-16
    outer loop
      vertex   1.890397e+00 -1.586232e+00 -1.113215e+01
      vertex   0.000000e+00 0.000000e+00 0.000000e+00
      vertex   2.075027e+00 -1.741154e+00 -1.107120e+01
    endloop
  endfacet
  facet normal 6.427876e-01 7.660444e-01 -7.058723e-16
    outer loop
      vertex   2.075027e+00 -1.741154e+00 -1.107120e+01
      vertex   0.000000e+00 0.000000e+00 0.000000e+00
      vertex   2.258445e+00 -1.895060e+00 -1.100464e+01
    endloop
  endfacet
  facet normal 6.427876e-01 7.660444e-01 -7.848496e-16
    outer loop
      vertex   2.258445e+00 -1.895060e+00 -1.100464e+01
      vertex   0.000000e+00 0.000000e+00 0.000000e+00
      vertex   2.440583e+00 -2.047892e+00 -1.093253e+01
    endloop
  endfacet
  facet normal 6.427876e-01 7.660444e-01 -3.533831e-16
    outer loop
      vertex   2.440583e+00 -2.047892e+00 -1.093253e+01
      vertex   0.000000e+00 0.000000e+00 0.000000e+00
      vertex   2.621375e+00 -2.199595e+00 -1.085488e+01
    endloop
  endfacet
  facet normal 6.427876e-01 7.660444e-01 -8.642067e-16
    outer loop
      vertex   2.621375e+00 -2.199595e+00 -1.085488e+01
      vertex   0.000000e+00 0.000000e+00 0.000000e+00
      vertex   2.800753e+00 -2.350111e+00 -1.077175e+01
    endloop
  endfacet
  facet normal 6.427876e-01 7.660444e-01 5.501231e-16
    outer loop
      vertex   2.800753e+00 -2.350111e+00 -1.077175e+01
      vertex   0.000000e+00 0.000000e+00 0.000000e+00
      vertex   2.978652e+00 -2.499386e+00 -1.068316e+01
    endloop
  endfacet
  facet normal 1.284672e-01 -1.544903e-01 -9.796065e-01
    outer loop
      vertex   1.430098e+00 -1.704325e+00 -1.118564e+01
      vertex   1.273454e+00 -1.517644e+00 -1.123562e+01
      vertex   1.505612e+00 -1.624293e+00 -1.118836e+01
    endloop
  endfacet
  facet normal 1.309658e-01 -1.492637e-01 -9.800859e-01
    outer loop
      vertex   1.505612e+00 -1.624293e+00 -1.118836e+01
      vertex   1.273454e+00 -1.517644e+00 -1.123562e+01
      vertex   1.400975e+00 -1.400967e+00 -1.123635e+01
    endloop
  endfacet
  facet normal 1.364270e-01 -1.466303e-01 -9.797384e-01
    outer loop
      vertex   1.505612e+00 -1.624293e+00 -1.118836e+01
      vertex   1.400975e+00 -1.400967e+00 -1.123635e+01
      vertex   1.585633e+00 -1.549840e+00 -1.118836e+01
    endloop
  endfacet
  facet normal 1.419665e-01 -1.398261e-01 -9.799460e-01
    outer loop
      vertex   1.585633e+00 -1.549840e+00 -1.118836e+01
      vertex   1.400975e+00 -1.400967e+00 -1.123635e+01
      vertex   1.644751e+00 -1.489817e+00 -1.118836e+01
    endloop
  endfacet
  facet normal 1.583333e-01 -1.559460e-01 -9.749930e-01
    outer loop
      vertex   1.585633e+00 -1.549840e+00 -1.118836e+01
      vertex   1.644751e+00 -1.489817e+00 -1.118836e+01
      vertex   1.822610e+00 -1.650922e+00 -1.113370e+01
    endloop
  endfacet
  facet normal 1.636312e-01 -1.501110e-01 -9.750341e-01
    outer loop
      vertex   1.822610e+00 -1.650922e+00 -1.113370e+01
      vertex   1.644751e+00 -1.489817e+00 -1.118836e+01
      vertex   1.704622e+00 -1.430348e+00 -1.118746e+01
    endloop
  endfacet
  facet normal 1.649109e-01 -1.494006e-01 -9.749276e-01
    outer loop
      vertex   1.822610e+00 -1.650922e+00 -1.113370e+01
      vertex   1.704622e+00 -1.430348e+00 -1.118746e+01
      vertex   1.890397e+00 -1.586232e+00 -1.113215e+01
    endloop
  endfacet
  facet normal 1.430765e-01 -1.369155e-01 -9.801955e-01
    outer loop
      vertex   1.400975e+00 -1.400967e+00 -1.123635e+01
      vertex   1.517841e+00 -1.273620e+00 -1.123708e+01
      vertex   1.644751e+00 -1.489817e+00 -1.118836e+01
    endloop
  endfacet
  facet normal 1.477834e-01 -1.340833e-01 -9.798886e-01
    outer loop
      vertex   1.644751e+00 -1.489817e+00 -1.118836e+01
      vertex   1.517841e+00 -1.273620e+00 -1.123708e+01
      vertex   1.704622e+00 -1.430348e+00 -1.118746e+01
    endloop
  endfacet
  facet normal 1.802322e-01 -1.655835e-01 -9.695867e-01
    outer loop
      vertex   1.822610e+00 -1.650922e+00 -1.113370e+01
      vertex   1.890397e+00 -1.586232e+00 -1.113215e+01
      vertex   2.000696e+00 -1.812233e+00 -1.107305e+01
    endloop
  endfacet
  facet normal 1.817629e-01 -1.647968e-01 -9.694350e-01
    outer loop
      vertex   2.000696e+00 -1.812233e+00 -1.107305e+01
      vertex   1.890397e+00 -1.586232e+00 -1.113215e+01
      vertex   2.075027e+00 -1.741154e+00 -1.107120e+01
    endloop
  endfacet
  facet normal 1.969872e-01 -1.808705e-01 -9.635776e-01
    outer loop
      vertex   2.000696e+00 -1.812233e+00 -1.107305e+01
      vertex   2.075027e+00 -1.741154e+00 -1.107120e+01
      vertex   2.178866e+00 -1.973619e+00 -1.100634e+01
    endloop
  endfacet
  facet normal 1.983751e-01 -1.802059e-01 -9.634174e-01
    outer loop
      vertex   2.178866e+00 -1.973619e+00 -1.100634e+01
      vertex   2.075027e+00 -1.741154e+00 -1.107120e+01
      vertex   2.258445e+00 -1.895060e+00 -1.100464e+01
    endloop
  endfacet
  facet normal 2.138366e-01 -1.960061e-01 -9.570034e-01
    outer loop
      vertex   2.178866e+00 -1.973619e+00 -1.100634e+01
      vertex   2.258445e+00 -1.895060e+00 -1.100464e+01
      vertex   2.356971e+00 -2.134948e+00 -1.093350e+01
    endloop
  endfacet
  facet normal 2.147669e-01 -1.955876e-01 -9.568807e-01
    outer loop
      vertex   2.356971e+00 -2.134948e+00 -1.093350e+01
      vertex   2.258445e+00 -1.895060e+00 -1.100464e+01
      vertex   2.440583e+00 -2.047892e+00 -1.093253e+01
    endloop
  endfacet
  facet normal 2.307378e-01 -2.110051e-01 -9.498615e-01
    outer loop
      vertex   2.356971e+00 -2.134948e+00 -1.093350e+01
      vertex   2.440583e+00 -2.047892e+00 -1.093253e+01
      vertex   2.534862e+00 -2.296081e+00 -1.085449e+01
    endloop
  endfacet
  facet normal 2.309460e-01 -2.109163e-01 -9.498306e-01
    outer loop
      vertex   2.534862e+00 -2.296081e+00 -1.085449e+01
      vertex   2.440583e+00 -2.047892e+00 -1.093253e+01
      vertex   2.621375e+00 -2.199595e+00 -1.085488e+01
    endloop
  endfacet
  facet normal 2.473815e-01 -2.256222e-01 -9.422829e-01
    outer loop
      vertex   2.534862e+00 -2.296081e+00 -1.085449e+01
      vertex   2.621375e+00 -2.199595e+00 -1.085488e+01
      vertex   2.800753e+00 -2.350111e+00 -1.077175e+01
    endloop
  endfacet
  facet normal 2.471831e-01 -2.263947e-01 -9.421497e-01
    outer loop
      vertex   2.534862e+00 -2.296081e+00 -1.085449e+01
      vertex   2.800753e+00 -2.350111e+00 -1.077175e+01
      vertex   2.712384e+00 -2.456881e+00 -1.076928e+01
    endloop
  endfacet
  facet normal 2.638247e-01 -2.399852e-01 -9.342396e-01
    outer loop
      vertex   2.712384e+00 -2.456881e+00 -1.076928e+01
      vertex   2.800753e+00 -2.350111e+00 -1.077175e+01
      vertex   2.978652e+00 -2.499386e+00 -1.068316e+01
    endloop
  endfacet
  facet normal 2.633630e-01 -2.420578e-01 -9.338351e-01
    outer loop
      vertex   2.712384e+00 -2.456881e+00 -1.076928e+01
      vertex   2.978652e+00 -2.499386e+00 -1.068316e+01
      vertex   2.866460e+00 -2.626583e+00 -1.068183e+01
    endloop
  endfacet
  facet normal 2.542872e-01 -2.504532e-01 -9.341366e-01
    outer loop
      vertex   2.712384e+00 -2.456881e+00 -1.076928e+01
      vertex   2.866460e+00 -2.626583e+00 -1.068183e+01
      vertex   2.614892e+00 -2.555865e+00 -1.076928e+01
    endloop
  endfacet
  facet normal 2.530994e-01 -2.539200e-01 -9.335231e-01
    outer loop
      vertex   2.614892e+00 -2.555865e+00 -1.076928e+01
      vertex   2.866460e+00 -2.626583e+00 -1.068183e+01
      vertex   2.748824e+00 -2.748764e+00 -1.068049e+01
    endloop
  endfacet
  facet normal 2.430356e-01 -2.612121e-01 -9.341852e-01
    outer loop
      vertex   2.614892e+00 -2.555865e+00 -1.076928e+01
      vertex   2.748824e+00 -2.748764e+00 -1.068049e+01
      vertex   2.482928e+00 -2.678647e+00 -1.076928e+01
    endloop
  endfacet
  facet normal 2.418568e-01 -2.647928e-01 -9.334827e-01
    outer loop
      vertex   2.482928e+00 -2.678647e+00 -1.076928e+01
      vertex   2.748824e+00 -2.748764e+00 -1.068049e+01
      vertex   2.625971e+00 -2.865698e+00 -1.067915e+01
    endloop
  endfacet
  facet normal 2.308688e-01 -2.733481e-01 -9.337989e-01
    outer loop
      vertex   2.482928e+00 -2.678647e+00 -1.076928e+01
      vertex   2.625971e+00 -2.865698e+00 -1.067915e+01
      vertex   2.349045e+00 -2.799483e+00 -1.076700e+01
    endloop
  endfacet
  facet normal 2.302876e-01 -2.752340e-01 -9.333884e-01
    outer loop
      vertex   2.349045e+00 -2.799483e+00 -1.076700e+01
      vertex   2.625971e+00 -2.865698e+00 -1.067915e+01
      vertex   2.498137e+00 -2.977163e+00 -1.067783e+01
    endloop
  endfacet
  facet normal 2.167979e-01 -2.579034e-01 -9.415331e-01
    outer loop
      vertex   2.349045e+00 -2.799483e+00 -1.076700e+01
      vertex   2.198698e+00 -2.620306e+00 -1.085070e+01
      vertex   2.482928e+00 -2.678647e+00 -1.076928e+01
    endloop
  endfacet
  facet normal 2.171745e-01 -2.564874e-01 -9.418330e-01
    outer loop
      vertex   2.482928e+00 -2.678647e+00 -1.076928e+01
      vertex   2.198698e+00 -2.620306e+00 -1.085070e+01
      vertex   2.320423e+00 -2.503333e+00 -1.085449e+01
    endloop
  endfacet
  facet normal 2.287259e-01 -2.458321e-01 -9.419400e-01
    outer loop
      vertex   2.482928e+00 -2.678647e+00 -1.076928e+01
      vertex   2.320423e+00 -2.503333e+00 -1.085449e+01
      vertex   2.614892e+00 -2.555865e+00 -1.076928e+01
    endloop
  endfacet
  facet normal 2.287259e-01 -2.458321e-01 -9.419400e-01
    outer loop
      vertex   2.614892e+00 -2.555865e+00 -1.076928e+01
      vertex   2.320423e+00 -2.503333e+00 -1.085449e+01
      vertex   2.443751e+00 -2.388587e+00 -1.085449e+01
    endloop
  endfacet
  facet normal 2.389924e-01 -2.353890e-01 -9.420587e-01
    outer loop
      vertex   2.614892e+00 -2.555865e+00 -1.076928e+01
      vertex   2.443751e+00 -2.388587e+00 -1.085449e+01
      vertex   2.712384e+00 -2.456881e+00 -1.076928e+01
    endloop
  endfacet
  facet normal 2.389924e-01 -2.353890e-01 -9.420587e-01
    outer loop
      vertex   2.712384e+00 -2.456881e+00 -1.076928e+01
      vertex   2.443751e+00 -2.388587e+00 -1.085449e+01
      vertex   2.534862e+00 -2.296081e+00 -1.085449e+01
    endloop
  endfacet
  facet normal 2.022371e-01 -2.411807e-01 -9.491744e-01
    outer loop
      vertex   2.198698e+00 -2.620306e+00 -1.085070e+01
      vertex   2.047151e+00 -2.439699e+00 -1.092888e+01
      vertex   2.320423e+00 -2.503333e+00 -1.085449e+01
    endloop
  endfacet
  facet normal 2.028511e-01 -2.390273e-01 -9.495880e-01
    outer loop
      vertex   2.320423e+00 -2.503333e+00 -1.085449e+01
      vertex   2.047151e+00 -2.439699e+00 -1.092888e+01
      vertex   2.157581e+00 -2.327655e+00 -1.093350e+01
    endloop
  endfacet
  facet normal 2.133647e-01 -2.293221e-01 -9.496773e-01
    outer loop
      vertex   2.320423e+00 -2.503333e+00 -1.085449e+01
      vertex   2.157581e+00 -2.327655e+00 -1.093350e+01
      vertex   2.443751e+00 -2.388587e+00 -1.085449e+01
    endloop
  endfacet
  facet normal 2.133647e-01 -2.293221e-01 -9.496773e-01
    outer loop
      vertex   2.443751e+00 -2.388587e+00 -1.085449e+01
      vertex   2.157581e+00 -2.327655e+00 -1.093350e+01
      vertex   2.272254e+00 -2.220962e+00 -1.093350e+01
    endloop
  endfacet
  facet normal 2.229380e-01 -2.195767e-01 -9.497814e-01
    outer loop
      vertex   2.443751e+00 -2.388587e+00 -1.085449e+01
      vertex   2.272254e+00 -2.220962e+00 -1.093350e+01
      vertex   2.534862e+00 -2.296081e+00 -1.085449e+01
    endloop
  endfacet
  facet normal 2.229380e-01 -2.195767e-01 -9.497814e-01
    outer loop
      vertex   2.534862e+00 -2.296081e+00 -1.085449e+01
      vertex   2.272254e+00 -2.220962e+00 -1.093350e+01
      vertex   2.356971e+00 -2.134948e+00 -1.093350e+01
    endloop
  endfacet
  facet normal 1.875844e-01 -2.242571e-01 -9.563058e-01
    outer loop
      vertex   2.047151e+00 -2.439699e+00 -1.092888e+01
      vertex   1.894461e+00 -2.257731e+00 -1.100151e+01
      vertex   2.157581e+00 -2.327655e+00 -1.093350e+01
    endloop
  endfacet
  facet normal 1.884218e-01 -2.215576e-01 -9.567703e-01
    outer loop
      vertex   2.157581e+00 -2.327655e+00 -1.093350e+01
      vertex   1.894461e+00 -2.257731e+00 -1.100151e+01
      vertex   1.994543e+00 -2.151765e+00 -1.100634e+01
    endloop
  endfacet
  facet normal 1.979508e-01 -2.127554e-01 -9.568441e-01
    outer loop
      vertex   2.157581e+00 -2.327655e+00 -1.093350e+01
      vertex   1.994543e+00 -2.151765e+00 -1.100634e+01
      vertex   2.272254e+00 -2.220962e+00 -1.093350e+01
    endloop
  endfacet
  facet normal 1.979508e-01 -2.127554e-01 -9.568441e-01
    outer loop
      vertex   2.272254e+00 -2.220962e+00 -1.093350e+01
      vertex   1.994543e+00 -2.151765e+00 -1.100634e+01
      vertex   2.100550e+00 -2.053134e+00 -1.100634e+01
    endloop
  endfacet
  facet normal 2.068294e-01 -2.037109e-01 -9.569344e-01
    outer loop
      vertex   2.272254e+00 -2.220962e+00 -1.093350e+01
      vertex   2.100550e+00 -2.053134e+00 -1.100634e+01
      vertex   2.356971e+00 -2.134948e+00 -1.093350e+01
    endloop
  endfacet
  facet normal 2.068294e-01 -2.037109e-01 -9.569344e-01
    outer loop
      vertex   2.356971e+00 -2.134948e+00 -1.093350e+01
      vertex   2.100550e+00 -2.053134e+00 -1.100634e+01
      vertex   2.178866e+00 -1.973619e+00 -1.100634e+01
    endloop
  endfacet
  facet normal 1.728538e-01 -2.071344e-01 -9.629210e-01
    outer loop
      vertex   1.894461e+00 -2.257731e+00 -1.100151e+01
      vertex   1.740685e+00 -2.074467e+00 -1.106853e+01
      vertex   1.994543e+00 -2.151765e+00 -1.100634e+01
    endloop
  endfacet
  facet normal 1.738883e-01 -2.041070e-01 -9.633811e-01
    outer loop
      vertex   1.994543e+00 -2.151765e+00 -1.100634e+01
      vertex   1.740685e+00 -2.074467e+00 -1.106853e+01
      vertex   1.831446e+00 -1.975811e+00 -1.107305e+01
    endloop
  endfacet
  facet normal 1.824992e-01 -1.961482e-01 -9.634417e-01
    outer loop
      vertex   1.994543e+00 -2.151765e+00 -1.100634e+01
      vertex   1.831446e+00 -1.975811e+00 -1.107305e+01
      vertex   2.100550e+00 -2.053134e+00 -1.100634e+01
    endloop
  endfacet
  facet normal 1.824992e-01 -1.961482e-01 -9.634417e-01
    outer loop
      vertex   2.100550e+00 -2.053134e+00 -1.100634e+01
      vertex   1.831446e+00 -1.975811e+00 -1.107305e+01
      vertex   1.928785e+00 -1.885245e+00 -1.107305e+01
    endloop
  endfacet
  facet normal 1.906821e-01 -1.878071e-01 -9.635190e-01
    outer loop
      vertex   2.100550e+00 -2.053134e+00 -1.100634e+01
      vertex   1.928785e+00 -1.885245e+00 -1.107305e+01
      vertex   2.178866e+00 -1.973619e+00 -1.100634e+01
    endloop
  endfacet
  facet normal 1.906821e-01 -1.878071e-01 -9.635190e-01
    outer loop
      vertex   2.178866e+00 -1.973619e+00 -1.100634e+01
      vertex   1.928785e+00 -1.885245e+00 -1.107305e+01
      vertex   2.000696e+00 -1.812233e+00 -1.107305e+01
    endloop
  endfacet
  facet normal 1.580661e-01 -1.898091e-01 -9.690137e-01
    outer loop
      vertex   1.740685e+00 -2.074467e+00 -1.106853e+01
      vertex   1.585878e+00 -1.889976e+00 -1.112992e+01
      vertex   1.831446e+00 -1.975811e+00 -1.107305e+01
    endloop
  endfacet
  facet normal 1.592431e-01 -1.867126e-01 -9.694225e-01
    outer loop
      vertex   1.831446e+00 -1.975811e+00 -1.107305e+01
      vertex   1.585878e+00 -1.889976e+00 -1.112992e+01
      vertex   1.668425e+00 -1.799940e+00 -1.113370e+01
    endloop
  endfacet
  facet normal 1.670249e-01 -1.795166e-01 -9.694723e-01
    outer loop
      vertex   1.831446e+00 -1.975811e+00 -1.107305e+01
      vertex   1.668425e+00 -1.799940e+00 -1.113370e+01
      vertex   1.928785e+00 -1.885245e+00 -1.107305e+01
    endloop
  endfacet
  facet normal 1.670249e-01 -1.795166e-01 -9.694723e-01
    outer loop
      vertex   1.928785e+00 -1.885245e+00 -1.107305e+01
      vertex   1.668425e+00 -1.799940e+00 -1.113370e+01
      vertex   1.757099e+00 -1.717436e+00 -1.113370e+01
    endloop
  endfacet
  facet normal 1.745116e-01 -1.718805e-01 -9.695374e-01
    outer loop
      vertex   1.928785e+00 -1.885245e+00 -1.107305e+01
      vertex   1.757099e+00 -1.717436e+00 -1.113370e+01
      vertex   2.000696e+00 -1.812233e+00 -1.107305e+01
    endloop
  endfacet
  facet normal 1.745116e-01 -1.718805e-01 -9.695374e-01
    outer loop
      vertex   2.000696e+00 -1.812233e+00 -1.107305e+01
      vertex   1.757099e+00 -1.717436e+00 -1.113370e+01
      vertex   1.822610e+00 -1.650922e+00 -1.113370e+01
    endloop
  endfacet
  facet normal 1.432531e-01 -1.722693e-01 -9.745778e-01
    outer loop
      vertex   1.585878e+00 -1.889976e+00 -1.112992e+01
      vertex   1.430098e+00 -1.704325e+00 -1.118564e+01
      vertex   1.668425e+00 -1.799940e+00 -1.113370e+01
    endloop
  endfacet
  facet normal 1.444642e-01 -1.694243e-01 -9.748977e-01
    outer loop
      vertex   1.668425e+00 -1.799940e+00 -1.113370e+01
      vertex   1.430098e+00 -1.704325e+00 -1.118564e+01
      vertex   1.505612e+00 -1.624293e+00 -1.118836e+01
    endloop
  endfacet
  facet normal 1.515424e-01 -1.628762e-01 -9.749391e-01
    outer loop
      vertex   1.668425e+00 -1.799940e+00 -1.113370e+01
      vertex   1.505612e+00 -1.624293e+00 -1.118836e+01
      vertex   1.757099e+00 -1.717436e+00 -1.113370e+01
    endloop
  endfacet
  facet normal 1.515424e-01 -1.628762e-01 -9.749391e-01
    outer loop
      vertex   1.757099e+00 -1.717436e+00 -1.113370e+01
      vertex   1.505612e+00 -1.624293e+00 -1.118836e+01
      vertex   1.585633e+00 -1.549840e+00 -1.118836e+01
    endloop
  endfacet
  facet normal 1.583333e-01 -1.559460e-01 -9.749930e-01
    outer loop
      vertex   1.757099e+00 -1.717436e+00 -1.113370e+01
      vertex   1.585633e+00 -1.549840e+00 -1.118836e+01
      vertex   1.822610e+00 -1.650922e+00 -1.113370e+01
    endloop
  endfacet
  facet normal -7.660444e-01 -6.427876e-01 1.173974e-16
    outer loop
      vertex   1.273454e+00 -1.517644e+00 -1.123562e+01
      vertex   1.430098e+00 -1.704325e+00 -1.118564e+01
      vertex   0.000000e+00 0.000000e+00 0.000000e+00
    endloop
  endfacet
  facet normal -7.660444e-01 -6.427876e-01 -1.566561e-16
    outer loop
      vertex   0.000000e+00 0.000000e+00 0.000000e+00
      vertex   1.430098e+00 -1.704325e+00 -1.118564e+01
      vertex   1.585878e+00 -1.889976e+00 -1.112992e+01
    endloop
  endfacet
  facet normal -7.660444e-01 -6.427876e-01 0.000000e+00
    outer loop
      vertex   0.000000e+00 0.000000e+00 0.000000e+00
      vertex   1.585878e+00 -1.889976e+00 -1.112992e+01
      vertex   1.740685e+00 -2.074467e+00 -1.106853e+01
    endloop
  endfacet
  facet normal -7.660444e-01 -6.427876e-01 7.847565e-17
    outer loop
      vertex   1.740685e+00 -2.074467e+00 -1.106853e+01
      vertex   1.894461e+00 -2.257731e+00 -1.100151e+01
      vertex   0.000000e+00 0.000000e+00 0.000000e+00
    endloop
  endfacet
  facet normal -7.660444e-01 -6.427876e-01 3.141358e-16
    outer loop
      vertex   0.000000e+00 0.000000e+00 0.000000e+00
      vertex   1.894461e+00 -2.257731e+00 -1.100151e+01
      vertex   2.047151e+00 -2.439699e+00 -1.092888e+01
    endloop
  endfacet
  facet normal -7.660444e-01 -6.427876e-01 -6.286569e-16
    outer loop
      vertex   0.000000e+00 0.000000e+00 0.000000e+00
      vertex   2.047151e+00 -2.439699e+00 -1.092888e+01
      vertex   2.198698e+00 -2.620306e+00 -1.085070e+01
    endloop
  endfacet
  facet normal -7.660444e-01 -6.427876e-01 -8.255125e-16
    outer loop
      vertex   2.198698e+00 -2.620306e+00 -1.085070e+01
      vertex   2.349045e+00 -2.799483e+00 -1.076700e+01
      vertex   0.000000e+00 0.000000e+00 0.000000e+00
    endloop
  endfacet
  facet normal -7.660444e-01 -6.427876e-01 6.291874e-16
    outer loop
      vertex   0.000000e+00 0.000000e+00 0.000000e+00
      vertex   2.349045e+00 -2.799483e+00 -1.076700e+01
      vertex   2.498137e+00 -2.977163e+00 -1.067783e+01
    endloop
  endfacet
  facet normal 6.195429e-01 -7.064440e-01 3.422039e-01
    outer loop
      vertex   2.625971e+00 -2.865698e+00 -1.067915e+01
      vertex   1.778900e+00 -1.885524e+00 -7.122109e+00
      vertex   2.498137e+00 -2.977163e+00 -1.067783e+01
    endloop
  endfacet
  facet normal 6.247347e-01 -7.020087e-01 3.418924e-01
    outer loop
      vertex   2.498137e+00 -2.977163e+00 -1.067783e+01
      vertex   1.778900e+00 -1.885524e+00 -7.122109e+00
      vertex   8.894501e-01 -9.427620e-01 -3.561055e+00
    endloop
  endfacet
  facet normal 6.247347e-01 -7.020087e-01 3.418924e-01
    outer loop
      vertex   2.498137e+00 -2.977163e+00 -1.067783e+01
      vertex   8.894501e-01 -9.427620e-01 -3.561055e+00
      vertex   0.000000e+00 0.000000e+00 0.000000e+00
    endloop
  endfacet
  facet normal 6.498656e-01 -6.788472e-01 3.418204e-01
    outer loop
      vertex   2.625971e+00 -2.865698e+00 -1.067915e+01
      vertex   2.748824e+00 -2.748764e+00 -1.068049e+01
      vertex   1.778900e+00 -1.885524e+00 -7.122109e+00
    endloop
  endfacet
  facet normal 6.643972e-01 -6.643972e-01 3.422758e-01
    outer loop
      vertex   1.778900e+00 -1.885524e+00 -7.122109e+00
      vertex   2.748824e+00 -2.748764e+00 -1.068049e+01
      vertex   1.885524e+00 -1.778900e+00 -7.122109e+00
    endloop
  endfacet
  facet normal 6.644959e-01 -6.644959e-01 3.418924e-01
    outer loop
      vertex   1.778900e+00 -1.885524e+00 -7.122109e+00
      vertex   1.885524e+00 -1.778900e+00 -7.122109e+00
      vertex   9.427620e-01 -8.894501e-01 -3.561055e+00
    endloop
  endfacet
  facet normal 7.020087e-01 -6.247347e-01 3.418924e-01
    outer loop
      vertex   9.427620e-01 -8.894501e-01 -3.561055e+00
      vertex   1.885524e+00 -1.778900e+00 -7.122109e+00
      vertex   2.978652e+00 -2.499386e+00 -1.068316e+01
    endloop
  endfacet
  facet normal 7.020087e-01 -6.247347e-01 3.418924e-01
    outer loop
      vertex   9.427620e-01 -8.894501e-01 -3.561055e+00
      vertex   2.978652e+00 -2.499386e+00 -1.068316e+01
      vertex   0.000000e+00 0.000000e+00 0.000000e+00
    endloop
  endfacet
  facet normal 6.788580e-01 -6.498543e-01 3.418204e-01
    outer loop
      vertex   2.748824e+00 -2.748764e+00 -1.068049e+01
      vertex   2.866460e+00 -2.626583e+00 -1.068183e+01
      vertex   1.885524e+00 -1.778900e+00 -7.122109e+00
    endloop
  endfacet
  facet normal 7.064520e-01 -6.195336e-01 3.422040e-01
    outer loop
      vertex   1.885524e+00 -1.778900e+00 -7.122109e+00
      vertex   2.866460e+00 -2.626583e+00 -1.068183e+01
      vertex   2.978652e+00 -2.499386e+00 -1.068316e+01
    endloop
  endfacet
  facet normal 6.644959e-01 -6.644959e-01 3.418924e-01
    outer loop
      vertex   9.427620e-01 -8.894501e-01 -3.561055e+00
      vertex   0.000000e+00 0.000000e+00 0.000000e+00
      vertex   8.894501e-01 -9.427620e-01 -3.561055e+00
    endloop
  endfacet
  facet normal 6.644959e-01 -6.644959e-01 3.418924e-01
    outer loop
      vertex   9.427620e-01 -8.894501e-01 -3.561055e+00
      vertex   8.894501e-01 -9.427620e-01 -3.561055e+00
      vertex   1.778900e+00 -1.885524e+00 -7.122109e+00
    endloop
  endfacet
  facet normal -7.260982e-01 6.653445e-01 -1.734879e-01
    outer loop
      vertex   1.400975e+00 -1.400967e+00 -1.123635e+01
      vertex   9.340428e-01 -9.340393e-01 -7.491386e+00
      vertex   1.517841e+00 -1.273620e+00 -1.123708e+01
    endloop
  endfacet
  facet normal -7.260980e-01 6.653448e-01 -1.734879e-01
    outer loop
      vertex   1.517841e+00 -1.273620e+00 -1.123708e+01
      vertex   9.340428e-01 -9.340393e-01 -7.491386e+00
      vertex   4.670210e-01 -4.670201e-01 -3.745693e+00
    endloop
  endfacet
  facet normal -7.260976e-01 6.653452e-01 -1.734879e-01
    outer loop
      vertex   1.517841e+00 -1.273620e+00 -1.123708e+01
      vertex   4.670210e-01 -4.670201e-01 -3.745693e+00
      vertex   0.000000e+00 0.000000e+00 0.000000e+00
    endloop
  endfacet
  facet normal -6.653466e-01 7.260963e-01 -1.734879e-01
    outer loop
      vertex   1.400975e+00 -1.400967e+00 -1.123635e+01
      vertex   1.273454e+00 -1.517644e+00 -1.123562e+01
      vertex   9.340428e-01 -9.340393e-01 -7.491386e+00
    endloop
  endfacet
  facet normal -6.653463e-01 7.260965e-01 -1.734879e-01
    outer loop
      vertex   9.340428e-01 -9.340393e-01 -7.491386e+00
      vertex   1.273454e+00 -1.517644e+00 -1.123562e+01
      vertex   4.670210e-01 -4.670201e-01 -3.745693e+00
    endloop
  endfacet
  facet normal -6.653459e-01 7.260970e-01 -1.734879e-01
    outer loop
      vertex   1.273454e+00 -1.517644e+00 -1.123562e+01
      vertex   0.000000e+00 0.000000e+00 0.000000e+00
      vertex   4.670210e-01 -4.670201e-01 -3.745693e+00
    endloop
  endfacet
endsolid
