solid ASCII
  facet normal 5.000000e-01 8.660254e-01 1.295538e-14
    outer loop
      vertex   8.998168e+00 -5.195095e+00 -3.781720e+00
      vertex   0.000000e+00 0.000000e+00 0.000000e+00
      vertex   9.063018e+00 -5.232536e+00 -3.552469e+00
    endloop
  endfacet
  facet normal 5.000000e-01 8.660254e-01 -1.250973e-16
    outer loop
      vertex   9.063018e+00 -5.232536e+00 -3.552469e+00
      vertex   0.000000e+00 0.000000e+00 0.000000e+00
      vertex   9.123741e+00 -5.267594e+00 -3.321857e+00
    endloop
  endfacet
  facet normal 5.000000e-01 8.660254e-01 -3.464100e-15
    outer loop
      vertex   9.123741e+00 -5.267594e+00 -3.321857e+00
      vertex   0.000000e+00 0.000000e+00 0.000000e+00
      vertex   9.180328e+00 -5.300265e+00 -3.089963e+00
    endloop
  endfacet
  facet normal 5.000000e-01 8.660254e-01 8.144829e-16
    outer loop
      vertex   9.180328e+00 -5.300265e+00 -3.089963e+00
      vertex   0.000000e+00 0.000000e+00 0.000000e+00
      vertex   9.232771e+00 -5.330543e+00 -2.856867e+00
    endloop
  endfacet
  facet normal 5.000000e-01 8.660254e-01 -5.684228e-15
    outer loop
      vertex   9.232771e+00 -5.330543e+00 -2.856867e+00
      vertex   0.000000e+00 0.000000e+00 0.000000e+00
      vertex   9.281060e+00 -5.358423e+00 -2.622651e+00
    endloop
  endfacet
  facet normal 5.000000e-01 8.660254e-01 7.422790e-16
    outer loop
      vertex   9.281060e+00 -5.358423e+00 -2.622651e+00
      vertex   0.000000e+00 0.000000e+00 0.000000e+00
      vertex   9.325189e+00 -5.383900e+00 -2.387393e+00
    endloop
  endfacet
  facet normal 5.000000e-01 8.660254e-01 -7.331866e-15
    outer loop
      vertex   9.325189e+00 -5.383900e+00 -2.387393e+00
      vertex   0.000000e+00 0.000000e+00 0.000000e+00
      vertex   9.365147e+00 -5.406970e+00 -2.151174e+00
    endloop
  endfacet
  facet normal 5.000000e-01 8.660254e-01 5.913414e-14
    outer loop
      vertex   9.365147e+00 -5.406970e+00 -2.151174e+00
      vertex   0.000000e+00 0.000000e+00 0.000000e+00
      vertex   9.400927e+00 -5.427628e+00 -1.914074e+00
    endloop
  endfacet
  facet normal 7.216461e-01 -6.197817e-01 -3.083789e-01
    outer loop
      vertex   7.932776e+00 -6.656389e+00 -3.769095e+00
      vertex   8.079851e+00 -6.484320e+00 -3.770746e+00
      vertex   7.989550e+00 -6.704028e+00 -3.540491e+00
    endloop
  endfacet
  facet normal 7.272455e-01 -6.160590e-01 -3.026308e-01
    outer loop
      vertex   7.989550e+00 -6.704028e+00 -3.540491e+00
      vertex   8.079851e+00 -6.484320e+00 -3.770746e+00
      vertex   8.095754e+00 -6.642633e+00 -3.410254e+00
    endloop
  endfacet
  facet normal 7.193844e-01 -6.317087e-01 -2.888429e-01
    outer loop
      vertex   7.989550e+00 -6.704028e+00 -3.540491e+00
      vertex   8.095754e+00 -6.642633e+00 -3.410254e+00
      vertex   8.042708e+00 -6.748633e+00 -3.310543e+00
    endloop
  endfacet
  facet normal 7.335908e-01 -6.228448e-01 -2.718620e-01
    outer loop
      vertex   8.042708e+00 -6.748633e+00 -3.310543e+00
      vertex   8.095754e+00 -6.642633e+00 -3.410254e+00
      vertex   8.177078e+00 -6.709359e+00 -3.037938e+00
    endloop
  endfacet
  facet normal 7.299859e-01 -6.281624e-01 -2.693190e-01
    outer loop
      vertex   8.042708e+00 -6.748633e+00 -3.310543e+00
      vertex   8.177078e+00 -6.709359e+00 -3.037938e+00
      vertex   8.092243e+00 -6.790198e+00 -3.079333e+00
    endloop
  endfacet
  facet normal 7.290749e-01 -6.372826e-01 -2.496412e-01
    outer loop
      vertex   8.092243e+00 -6.790198e+00 -3.079333e+00
      vertex   8.177078e+00 -6.709359e+00 -3.037938e+00
      vertex   8.138148e+00 -6.828717e+00 -2.846938e+00
    endloop
  endfacet
  facet normal 7.365953e-01 -6.307711e-01 -2.440394e-01
    outer loop
      vertex   8.138148e+00 -6.828717e+00 -2.846938e+00
      vertex   8.177078e+00 -6.709359e+00 -3.037938e+00
      vertex   8.232206e+00 -6.754593e+00 -2.754625e+00
    endloop
  endfacet
  facet normal 7.315050e-01 -6.419035e-01 -2.299139e-01
    outer loop
      vertex   8.138148e+00 -6.828717e+00 -2.846938e+00
      vertex   8.232206e+00 -6.754593e+00 -2.754625e+00
      vertex   8.180415e+00 -6.864183e+00 -2.613438e+00
    endloop
  endfacet
  facet normal 7.414268e-01 -6.339185e-01 -2.200763e-01
    outer loop
      vertex   8.180415e+00 -6.864183e+00 -2.613438e+00
      vertex   8.232206e+00 -6.754593e+00 -2.754625e+00
      vertex   8.281593e+00 -6.795115e+00 -2.471523e+00
    endloop
  endfacet
  facet normal 7.349020e-01 -6.447982e-01 -2.101294e-01
    outer loop
      vertex   8.180415e+00 -6.864183e+00 -2.613438e+00
      vertex   8.281593e+00 -6.795115e+00 -2.471523e+00
      vertex   8.219038e+00 -6.896592e+00 -2.378912e+00
    endloop
  endfacet
  facet normal 7.446006e-01 -6.380347e-01 -1.961674e-01
    outer loop
      vertex   8.219038e+00 -6.896592e+00 -2.378912e+00
      vertex   8.281593e+00 -6.795115e+00 -2.471523e+00
      vertex   8.325309e+00 -6.830984e+00 -2.188922e+00
    endloop
  endfacet
  facet normal 7.391047e-01 -6.461533e-01 -1.902897e-01
    outer loop
      vertex   8.219038e+00 -6.896592e+00 -2.378912e+00
      vertex   8.325309e+00 -6.830984e+00 -2.188922e+00
      vertex   8.254009e+00 -6.925936e+00 -2.143441e+00
    endloop
  endfacet
  facet normal 7.529809e-01 -6.395749e-01 -1.548024e-01
    outer loop
      vertex   8.254009e+00 -6.925936e+00 -2.143441e+00
      vertex   8.325309e+00 -6.830984e+00 -2.188922e+00
      vertex   8.400927e+00 -6.741959e+00 -2.188922e+00
    endloop
  endfacet
  facet normal 7.484979e-01 -6.403404e-01 -1.723803e-01
    outer loop
      vertex   8.254009e+00 -6.925936e+00 -2.143441e+00
      vertex   8.400927e+00 -6.741959e+00 -2.188922e+00
      vertex   8.439288e+00 -6.772739e+00 -1.908014e+00
    endloop
  endfacet
  facet normal 7.577781e-01 -6.293147e-01 -1.724395e-01
    outer loop
      vertex   8.439288e+00 -6.772739e+00 -1.908014e+00
      vertex   8.400927e+00 -6.741959e+00 -2.188922e+00
      vertex   8.477655e+00 -6.649568e+00 -2.188922e+00
    endloop
  endfacet
  facet normal 7.614353e-01 -6.254822e-01 -1.702595e-01
    outer loop
      vertex   8.439288e+00 -6.772739e+00 -1.908014e+00
      vertex   8.477655e+00 -6.649568e+00 -2.188922e+00
      vertex   8.589245e+00 -6.589942e+00 -1.908917e+00
    endloop
  endfacet
  facet normal 7.647420e-01 -6.207958e-01 -1.725753e-01
    outer loop
      vertex   8.589245e+00 -6.589942e+00 -1.908917e+00
      vertex   8.477655e+00 -6.649568e+00 -2.188922e+00
      vertex   8.552216e+00 -6.557717e+00 -2.188922e+00
    endloop
  endfacet
  facet normal 7.747492e-01 -6.082937e-01 -1.724598e-01
    outer loop
      vertex   8.589245e+00 -6.589942e+00 -1.908917e+00
      vertex   8.552216e+00 -6.557717e+00 -2.188922e+00
      vertex   8.735131e+00 -6.403882e+00 -1.909811e+00
    endloop
  endfacet
  facet normal 7.749348e-01 -6.079725e-01 -1.727584e-01
    outer loop
      vertex   8.735131e+00 -6.403882e+00 -1.909811e+00
      vertex   8.552216e+00 -6.557717e+00 -2.188922e+00
      vertex   8.698058e+00 -6.371825e+00 -2.188922e+00
    endloop
  endfacet
  facet normal 7.879949e-01 -5.910096e-01 -1.725449e-01
    outer loop
      vertex   8.735131e+00 -6.403882e+00 -1.909811e+00
      vertex   8.698058e+00 -6.371825e+00 -2.188922e+00
      vertex   8.876887e+00 -6.214620e+00 -1.910693e+00
    endloop
  endfacet
  facet normal 7.882023e-01 -5.906316e-01 -1.728918e-01
    outer loop
      vertex   8.876887e+00 -6.214620e+00 -1.910693e+00
      vertex   8.698058e+00 -6.371825e+00 -2.188922e+00
      vertex   8.839452e+00 -6.183133e+00 -2.188922e+00
    endloop
  endfacet
  facet normal 8.008718e-01 -5.734085e-01 -1.726473e-01
    outer loop
      vertex   8.876887e+00 -6.214620e+00 -1.910693e+00
      vertex   8.839452e+00 -6.183133e+00 -2.188922e+00
      vertex   9.014421e+00 -6.022267e+00 -1.911562e+00
    endloop
  endfacet
  facet normal 8.010756e-01 -5.730163e-01 -1.730034e-01
    outer loop
      vertex   9.014421e+00 -6.022267e+00 -1.911562e+00
      vertex   8.839452e+00 -6.183133e+00 -2.188922e+00
      vertex   8.976318e+00 -5.991794e+00 -2.188922e+00
    endloop
  endfacet
  facet normal 8.133699e-01 -5.555003e-01 -1.727679e-01
    outer loop
      vertex   9.014421e+00 -6.022267e+00 -1.911562e+00
      vertex   8.976318e+00 -5.991794e+00 -2.188922e+00
      vertex   9.147641e+00 -5.826938e+00 -1.912417e+00
    endloop
  endfacet
  facet normal 8.135467e-01 -5.551404e-01 -1.730921e-01
    outer loop
      vertex   9.147641e+00 -5.826938e+00 -1.912417e+00
      vertex   8.976318e+00 -5.991794e+00 -2.188922e+00
      vertex   9.108583e+00 -5.797963e+00 -2.188922e+00
    endloop
  endfacet
  facet normal 8.254810e-01 -5.372933e-01 -1.729076e-01
    outer loop
      vertex   9.147641e+00 -5.826938e+00 -1.912417e+00
      vertex   9.108583e+00 -5.797963e+00 -2.188922e+00
      vertex   9.276494e+00 -5.628703e+00 -1.913255e+00
    endloop
  endfacet
  facet normal 8.256082e-01 -5.370184e-01 -1.731539e-01
    outer loop
      vertex   9.276494e+00 -5.628703e+00 -1.913255e+00
      vertex   9.108583e+00 -5.797963e+00 -2.188922e+00
      vertex   9.236181e+00 -5.601795e+00 -2.188922e+00
    endloop
  endfacet
  facet normal 8.363771e-01 -5.201126e-01 -1.730786e-01
    outer loop
      vertex   9.276494e+00 -5.628703e+00 -1.913255e+00
      vertex   9.236181e+00 -5.601795e+00 -2.188922e+00
      vertex   9.365147e+00 -5.406970e+00 -2.151174e+00
    endloop
  endfacet
  facet normal 8.350867e-01 -5.156653e-01 -1.916232e-01
    outer loop
      vertex   9.365147e+00 -5.406970e+00 -2.151174e+00
      vertex   9.236181e+00 -5.601795e+00 -2.188922e+00
      vertex   9.325189e+00 -5.383900e+00 -2.387393e+00
    endloop
  endfacet
  facet normal 8.318055e-01 -5.190175e-01 -1.967750e-01
    outer loop
      vertex   9.325189e+00 -5.383900e+00 -2.387393e+00
      vertex   9.236181e+00 -5.601795e+00 -2.188922e+00
      vertex   9.187682e+00 -5.572380e+00 -2.471523e+00
    endloop
  endfacet
  facet normal 8.321253e-01 -5.126327e-01 -2.116015e-01
    outer loop
      vertex   9.325189e+00 -5.383900e+00 -2.387393e+00
      vertex   9.187682e+00 -5.572380e+00 -2.471523e+00
      vertex   9.281060e+00 -5.358423e+00 -2.622651e+00
    endloop
  endfacet
  facet normal 8.270975e-01 -5.168963e-01 -2.207442e-01
    outer loop
      vertex   9.281060e+00 -5.358423e+00 -2.622651e+00
      vertex   9.187682e+00 -5.572380e+00 -2.471523e+00
      vertex   9.132892e+00 -5.539150e+00 -2.754625e+00
    endloop
  endfacet
  facet normal 8.283808e-01 -5.100863e-01 -2.315106e-01
    outer loop
      vertex   9.281060e+00 -5.358423e+00 -2.622651e+00
      vertex   9.132892e+00 -5.539150e+00 -2.754625e+00
      vertex   9.232771e+00 -5.330543e+00 -2.856867e+00
    endloop
  endfacet
  facet normal 8.223207e-01 -5.136863e-01 -2.447755e-01
    outer loop
      vertex   9.232771e+00 -5.330543e+00 -2.856867e+00
      vertex   9.132892e+00 -5.539150e+00 -2.754625e+00
      vertex   9.071731e+00 -5.502056e+00 -3.037938e+00
    endloop
  endfacet
  facet normal 8.237893e-01 -5.081317e-01 -2.513430e-01
    outer loop
      vertex   9.232771e+00 -5.330543e+00 -2.856867e+00
      vertex   9.071731e+00 -5.502056e+00 -3.037938e+00
      vertex   9.180328e+00 -5.300265e+00 -3.089963e+00
    endloop
  endfacet
  facet normal 8.167163e-01 -5.094098e-01 -2.710648e-01
    outer loop
      vertex   9.180328e+00 -5.300265e+00 -3.089963e+00
      vertex   9.071731e+00 -5.502056e+00 -3.037938e+00
      vertex   9.123741e+00 -5.267594e+00 -3.321857e+00
    endloop
  endfacet
  facet normal 8.152043e-01 -5.109866e-01 -2.726439e-01
    outer loop
      vertex   9.123741e+00 -5.267594e+00 -3.321857e+00
      vertex   9.071731e+00 -5.502056e+00 -3.037938e+00
      vertex   8.981510e+00 -5.447336e+00 -3.410254e+00
    endloop
  endfacet
  facet normal 8.147161e-01 -5.016760e-01 -2.907902e-01
    outer loop
      vertex   9.123741e+00 -5.267594e+00 -3.321857e+00
      vertex   8.981510e+00 -5.447336e+00 -3.410254e+00
      vertex   9.063018e+00 -5.232536e+00 -3.552469e+00
    endloop
  endfacet
  facet normal 8.062278e-01 -5.073706e-01 -3.042562e-01
    outer loop
      vertex   9.063018e+00 -5.232536e+00 -3.552469e+00
      vertex   8.981510e+00 -5.447336e+00 -3.410254e+00
      vertex   8.879370e+00 -5.387774e+00 -3.780235e+00
    endloop
  endfacet
  facet normal 8.081075e-01 -5.006383e-01 -3.103603e-01
    outer loop
      vertex   9.063018e+00 -5.232536e+00 -3.552469e+00
      vertex   8.879370e+00 -5.387774e+00 -3.780235e+00
      vertex   8.998168e+00 -5.195095e+00 -3.781720e+00
    endloop
  endfacet
  facet normal 7.360852e-01 -6.044724e-01 -3.046172e-01
    outer loop
      vertex   8.223083e+00 -6.309077e+00 -3.772382e+00
      vertex   8.243900e+00 -6.466218e+00 -3.410254e+00
      vertex   8.079851e+00 -6.484320e+00 -3.770746e+00
    endloop
  endfacet
  facet normal 7.331247e-01 -6.088419e-01 -3.030506e-01
    outer loop
      vertex   8.079851e+00 -6.484320e+00 -3.770746e+00
      vertex   8.243900e+00 -6.466218e+00 -3.410254e+00
      vertex   8.169274e+00 -6.556077e+00 -3.410254e+00
    endloop
  endfacet
  facet normal 7.263430e-01 -6.169502e-01 -3.029823e-01
    outer loop
      vertex   8.079851e+00 -6.484320e+00 -3.770746e+00
      vertex   8.169274e+00 -6.556077e+00 -3.410254e+00
      vertex   8.095754e+00 -6.642633e+00 -3.410254e+00
    endloop
  endfacet
  facet normal 7.334619e-01 -6.229969e-01 -2.718611e-01
    outer loop
      vertex   8.095754e+00 -6.642633e+00 -3.410254e+00
      vertex   8.169274e+00 -6.556077e+00 -3.410254e+00
      vertex   8.177078e+00 -6.709359e+00 -3.037938e+00
    endloop
  endfacet
  facet normal 7.398558e-01 -6.005939e-01 -3.031509e-01
    outer loop
      vertex   8.243900e+00 -6.466218e+00 -3.410254e+00
      vertex   8.223083e+00 -6.309077e+00 -3.772382e+00
      vertex   8.316405e+00 -6.376901e+00 -3.410254e+00
    endloop
  endfacet
  facet normal 7.495698e-01 -5.883202e-01 -3.033555e-01
    outer loop
      vertex   8.316405e+00 -6.376901e+00 -3.410254e+00
      vertex   8.223083e+00 -6.309077e+00 -3.772382e+00
      vertex   8.362417e+00 -6.130719e+00 -3.774000e+00
    endloop
  endfacet
  facet normal 7.497171e-01 -5.881881e-01 -3.032474e-01
    outer loop
      vertex   8.316405e+00 -6.376901e+00 -3.410254e+00
      vertex   8.362417e+00 -6.130719e+00 -3.774000e+00
      vertex   8.458225e+00 -6.196134e+00 -3.410254e+00
    endloop
  endfacet
  facet normal 7.623328e-01 -5.715656e-01 -3.035810e-01
    outer loop
      vertex   8.458225e+00 -6.196134e+00 -3.410254e+00
      vertex   8.362417e+00 -6.130719e+00 -3.774000e+00
      vertex   8.497796e+00 -5.949307e+00 -3.775598e+00
    endloop
  endfacet
  facet normal 7.625217e-01 -5.713881e-01 -3.034406e-01
    outer loop
      vertex   8.458225e+00 -6.196134e+00 -3.410254e+00
      vertex   8.497796e+00 -5.949307e+00 -3.775598e+00
      vertex   8.595721e+00 -6.012645e+00 -3.410254e+00
    endloop
  endfacet
  facet normal 7.747446e-01 -5.545106e-01 -3.037908e-01
    outer loop
      vertex   8.595721e+00 -6.012645e+00 -3.410254e+00
      vertex   8.497796e+00 -5.949307e+00 -3.775598e+00
      vertex   8.629133e+00 -5.764945e+00 -3.777172e+00
    endloop
  endfacet
  facet normal 7.749383e-01 -5.543200e-01 -3.036445e-01
    outer loop
      vertex   8.595721e+00 -6.012645e+00 -3.410254e+00
      vertex   8.629133e+00 -5.764945e+00 -3.777172e+00
      vertex   8.728813e+00 -5.826582e+00 -3.410254e+00
    endloop
  endfacet
  facet normal 7.867959e-01 -5.371647e-01 -3.039839e-01
    outer loop
      vertex   8.728813e+00 -5.826582e+00 -3.410254e+00
      vertex   8.629133e+00 -5.764945e+00 -3.777172e+00
      vertex   8.756341e+00 -5.577745e+00 -3.778718e+00
    endloop
  endfacet
  facet normal 7.869585e-01 -5.369974e-01 -3.038588e-01
    outer loop
      vertex   8.728813e+00 -5.826582e+00 -3.410254e+00
      vertex   8.756341e+00 -5.577745e+00 -3.778718e+00
      vertex   8.857431e+00 -5.638095e+00 -3.410254e+00
    endloop
  endfacet
  facet normal 7.984796e-01 -5.195356e-01 -3.041597e-01
    outer loop
      vertex   8.857431e+00 -5.638095e+00 -3.410254e+00
      vertex   8.756341e+00 -5.577745e+00 -3.778718e+00
      vertex   8.879370e+00 -5.387774e+00 -3.780235e+00
    endloop
  endfacet
  facet normal 7.985740e-01 -5.194340e-01 -3.040853e-01
    outer loop
      vertex   8.857431e+00 -5.638095e+00 -3.410254e+00
      vertex   8.879370e+00 -5.387774e+00 -3.780235e+00
      vertex   8.981510e+00 -5.447336e+00 -3.410254e+00
    endloop
  endfacet
  facet normal 8.374218e-01 -5.189258e-01 -1.715833e-01
    outer loop
      vertex   9.365147e+00 -5.406970e+00 -2.151174e+00
      vertex   9.400927e+00 -5.427628e+00 -1.914074e+00
      vertex   9.276494e+00 -5.628703e+00 -1.913255e+00
    endloop
  endfacet
  facet normal 7.474444e-01 -6.420965e-01 -1.704084e-01
    outer loop
      vertex   8.439288e+00 -6.772739e+00 -1.908014e+00
      vertex   8.285320e+00 -6.952209e+00 -1.907103e+00
      vertex   8.254009e+00 -6.925936e+00 -2.143441e+00
    endloop
  endfacet
  facet normal 7.391207e-01 -6.278031e-01 -2.440569e-01
    outer loop
      vertex   8.232206e+00 -6.754593e+00 -2.754625e+00
      vertex   8.177078e+00 -6.709359e+00 -3.037938e+00
      vertex   8.251340e+00 -6.621930e+00 -3.037938e+00
    endloop
  endfacet
  facet normal 7.334621e-01 -6.229967e-01 -2.718610e-01
    outer loop
      vertex   8.251340e+00 -6.621930e+00 -3.037938e+00
      vertex   8.177078e+00 -6.709359e+00 -3.037938e+00
      vertex   8.169274e+00 -6.556077e+00 -3.410254e+00
    endloop
  endfacet
  facet normal 7.403134e-01 -6.148119e-01 -2.719235e-01
    outer loop
      vertex   8.251340e+00 -6.621930e+00 -3.037938e+00
      vertex   8.169274e+00 -6.556077e+00 -3.410254e+00
      vertex   8.243900e+00 -6.466218e+00 -3.410254e+00
    endloop
  endfacet
  facet normal 7.434796e-01 -6.315052e-01 -2.200890e-01
    outer loop
      vertex   8.281593e+00 -6.795115e+00 -2.471523e+00
      vertex   8.232206e+00 -6.754593e+00 -2.754625e+00
      vertex   8.306972e+00 -6.666570e+00 -2.754625e+00
    endloop
  endfacet
  facet normal 7.391209e-01 -6.278030e-01 -2.440568e-01
    outer loop
      vertex   8.306972e+00 -6.666570e+00 -2.754625e+00
      vertex   8.232206e+00 -6.754593e+00 -2.754625e+00
      vertex   8.251340e+00 -6.621930e+00 -3.037938e+00
    endloop
  endfacet
  facet normal 7.460277e-01 -6.195571e-01 -2.441138e-01
    outer loop
      vertex   8.306972e+00 -6.666570e+00 -2.754625e+00
      vertex   8.251340e+00 -6.621930e+00 -3.037938e+00
      vertex   8.326711e+00 -6.531173e+00 -3.037938e+00
    endloop
  endfacet
  facet normal 7.403136e-01 -6.148117e-01 -2.719234e-01
    outer loop
      vertex   8.326711e+00 -6.531173e+00 -3.037938e+00
      vertex   8.251340e+00 -6.621930e+00 -3.037938e+00
      vertex   8.243900e+00 -6.466218e+00 -3.410254e+00
    endloop
  endfacet
  facet normal 7.471217e-01 -6.064921e-01 -2.719863e-01
    outer loop
      vertex   8.326711e+00 -6.531173e+00 -3.037938e+00
      vertex   8.243900e+00 -6.466218e+00 -3.410254e+00
      vertex   8.399945e+00 -6.440958e+00 -3.037938e+00
    endloop
  endfacet
  facet normal 7.471217e-01 -6.064921e-01 -2.719863e-01
    outer loop
      vertex   8.399945e+00 -6.440958e+00 -3.037938e+00
      vertex   8.243900e+00 -6.466218e+00 -3.410254e+00
      vertex   8.316405e+00 -6.376901e+00 -3.410254e+00
    endloop
  endfacet
  facet normal 7.570862e-01 -5.939695e-01 -2.720676e-01
    outer loop
      vertex   8.399945e+00 -6.440958e+00 -3.037938e+00
      vertex   8.316405e+00 -6.376901e+00 -3.410254e+00
      vertex   8.543190e+00 -6.258375e+00 -3.037938e+00
    endloop
  endfacet
  facet normal 7.570862e-01 -5.939695e-01 -2.720676e-01
    outer loop
      vertex   8.543190e+00 -6.258375e+00 -3.037938e+00
      vertex   8.316405e+00 -6.376901e+00 -3.410254e+00
      vertex   8.458225e+00 -6.196134e+00 -3.410254e+00
    endloop
  endfacet
  facet normal 7.700387e-01 -5.770208e-01 -2.721900e-01
    outer loop
      vertex   8.543190e+00 -6.258375e+00 -3.037938e+00
      vertex   8.458225e+00 -6.196134e+00 -3.410254e+00
      vertex   8.682067e+00 -6.073043e+00 -3.037938e+00
    endloop
  endfacet
  facet normal 7.700387e-01 -5.770208e-01 -2.721900e-01
    outer loop
      vertex   8.682067e+00 -6.073043e+00 -3.037938e+00
      vertex   8.458225e+00 -6.196134e+00 -3.410254e+00
      vertex   8.595721e+00 -6.012645e+00 -3.410254e+00
    endloop
  endfacet
  facet normal 7.826032e-01 -5.598027e-01 -2.723108e-01
    outer loop
      vertex   8.682067e+00 -6.073043e+00 -3.037938e+00
      vertex   8.595721e+00 -6.012645e+00 -3.410254e+00
      vertex   8.816496e+00 -5.885111e+00 -3.037938e+00
    endloop
  endfacet
  facet normal 7.826032e-01 -5.598027e-01 -2.723108e-01
    outer loop
      vertex   8.816496e+00 -5.885111e+00 -3.037938e+00
      vertex   8.595721e+00 -6.012645e+00 -3.410254e+00
      vertex   8.728813e+00 -5.826582e+00 -3.410254e+00
    endloop
  endfacet
  facet normal 7.947715e-01 -5.423287e-01 -2.724295e-01
    outer loop
      vertex   8.816496e+00 -5.885111e+00 -3.037938e+00
      vertex   8.728813e+00 -5.826582e+00 -3.410254e+00
      vertex   8.946406e+00 -5.694731e+00 -3.037938e+00
    endloop
  endfacet
  facet normal 7.947715e-01 -5.423287e-01 -2.724295e-01
    outer loop
      vertex   8.946406e+00 -5.694731e+00 -3.037938e+00
      vertex   8.728813e+00 -5.826582e+00 -3.410254e+00
      vertex   8.857431e+00 -5.638095e+00 -3.410254e+00
    endloop
  endfacet
  facet normal 8.065359e-01 -5.246128e-01 -2.725460e-01
    outer loop
      vertex   8.946406e+00 -5.694731e+00 -3.037938e+00
      vertex   8.857431e+00 -5.638095e+00 -3.410254e+00
      vertex   9.071731e+00 -5.502056e+00 -3.037938e+00
    endloop
  endfacet
  facet normal 8.065359e-01 -5.246128e-01 -2.725460e-01
    outer loop
      vertex   9.071731e+00 -5.502056e+00 -3.037938e+00
      vertex   8.857431e+00 -5.638095e+00 -3.410254e+00
      vertex   8.981510e+00 -5.447336e+00 -3.410254e+00
    endloop
  endfacet
  facet normal 7.473573e-01 -6.347986e-01 -1.961830e-01
    outer loop
      vertex   8.325309e+00 -6.830984e+00 -2.188922e+00
      vertex   8.281593e+00 -6.795115e+00 -2.471523e+00
      vertex   8.356810e+00 -6.706560e+00 -2.471523e+00
    endloop
  endfacet
  facet normal 7.434798e-01 -6.315051e-01 -2.200889e-01
    outer loop
      vertex   8.356810e+00 -6.706560e+00 -2.471523e+00
      vertex   8.281593e+00 -6.795115e+00 -2.471523e+00
      vertex   8.306972e+00 -6.666570e+00 -2.754625e+00
    endloop
  endfacet
  facet normal 7.504294e-01 -6.232124e-01 -2.201409e-01
    outer loop
      vertex   8.356810e+00 -6.706560e+00 -2.471523e+00
      vertex   8.306972e+00 -6.666570e+00 -2.754625e+00
      vertex   8.382849e+00 -6.575205e+00 -2.754625e+00
    endloop
  endfacet
  facet normal 7.460279e-01 -6.195570e-01 -2.441137e-01
    outer loop
      vertex   8.382849e+00 -6.575205e+00 -2.754625e+00
      vertex   8.306972e+00 -6.666570e+00 -2.754625e+00
      vertex   8.326711e+00 -6.531173e+00 -3.037938e+00
    endloop
  endfacet
  facet normal 7.528911e-01 -6.111756e-01 -2.441710e-01
    outer loop
      vertex   8.382849e+00 -6.575205e+00 -2.754625e+00
      vertex   8.326711e+00 -6.531173e+00 -3.037938e+00
      vertex   8.456576e+00 -6.484382e+00 -2.754625e+00
    endloop
  endfacet
  facet normal 7.528911e-01 -6.111756e-01 -2.441710e-01
    outer loop
      vertex   8.456576e+00 -6.484382e+00 -2.754625e+00
      vertex   8.326711e+00 -6.531173e+00 -3.037938e+00
      vertex   8.399945e+00 -6.440958e+00 -3.037938e+00
    endloop
  endfacet
  facet normal 7.629361e-01 -5.985590e-01 -2.442451e-01
    outer loop
      vertex   8.456576e+00 -6.484382e+00 -2.754625e+00
      vertex   8.399945e+00 -6.440958e+00 -3.037938e+00
      vertex   8.600787e+00 -6.300568e+00 -2.754625e+00
    endloop
  endfacet
  facet normal 7.629361e-01 -5.985590e-01 -2.442451e-01
    outer loop
      vertex   8.600787e+00 -6.300568e+00 -2.754625e+00
      vertex   8.399945e+00 -6.440958e+00 -3.037938e+00
      vertex   8.543190e+00 -6.258375e+00 -3.037938e+00
    endloop
  endfacet
  facet normal 7.759940e-01 -5.814835e-01 -2.443568e-01
    outer loop
      vertex   8.600787e+00 -6.300568e+00 -2.754625e+00
      vertex   8.543190e+00 -6.258375e+00 -3.037938e+00
      vertex   8.740600e+00 -6.113987e+00 -2.754625e+00
    endloop
  endfacet
  facet normal 7.759940e-01 -5.814835e-01 -2.443568e-01
    outer loop
      vertex   8.740600e+00 -6.113987e+00 -2.754625e+00
      vertex   8.543190e+00 -6.258375e+00 -3.037938e+00
      vertex   8.682067e+00 -6.073043e+00 -3.037938e+00
    endloop
  endfacet
  facet normal 7.886612e-01 -5.641361e-01 -2.444668e-01
    outer loop
      vertex   8.740600e+00 -6.113987e+00 -2.754625e+00
      vertex   8.682067e+00 -6.073043e+00 -3.037938e+00
      vertex   8.875936e+00 -5.924787e+00 -2.754625e+00
    endloop
  endfacet
  facet normal 7.886612e-01 -5.641361e-01 -2.444668e-01
    outer loop
      vertex   8.875936e+00 -5.924787e+00 -2.754625e+00
      vertex   8.682067e+00 -6.073043e+00 -3.037938e+00
      vertex   8.816496e+00 -5.885111e+00 -3.037938e+00
    endloop
  endfacet
  facet normal 8.009291e-01 -5.465305e-01 -2.445751e-01
    outer loop
      vertex   8.875936e+00 -5.924787e+00 -2.754625e+00
      vertex   8.816496e+00 -5.885111e+00 -3.037938e+00
      vertex   9.006721e+00 -5.733124e+00 -2.754625e+00
    endloop
  endfacet
  facet normal 8.009291e-01 -5.465305e-01 -2.445751e-01
    outer loop
      vertex   9.006721e+00 -5.733124e+00 -2.754625e+00
      vertex   8.816496e+00 -5.885111e+00 -3.037938e+00
      vertex   8.946406e+00 -5.694731e+00 -3.037938e+00
    endloop
  endfacet
  facet normal 8.127900e-01 -5.286808e-01 -2.446813e-01
    outer loop
      vertex   9.006721e+00 -5.733124e+00 -2.754625e+00
      vertex   8.946406e+00 -5.694731e+00 -3.037938e+00
      vertex   9.132892e+00 -5.539150e+00 -2.754625e+00
    endloop
  endfacet
  facet normal 8.127900e-01 -5.286808e-01 -2.446813e-01
    outer loop
      vertex   9.132892e+00 -5.539150e+00 -2.754625e+00
      vertex   8.946406e+00 -5.694731e+00 -3.037938e+00
      vertex   9.071731e+00 -5.502056e+00 -3.037938e+00
    endloop
  endfacet
  facet normal 7.504296e-01 -6.232122e-01 -2.201408e-01
    outer loop
      vertex   8.382849e+00 -6.575205e+00 -2.754625e+00
      vertex   8.433139e+00 -6.614651e+00 -2.471523e+00
      vertex   8.356810e+00 -6.706560e+00 -2.471523e+00
    endloop
  endfacet
  facet normal 7.543452e-01 -6.264640e-01 -1.962298e-01
    outer loop
      vertex   8.356810e+00 -6.706560e+00 -2.471523e+00
      vertex   8.433139e+00 -6.614651e+00 -2.471523e+00
      vertex   8.400927e+00 -6.741959e+00 -2.188922e+00
    endloop
  endfacet
  facet normal 7.473575e-01 -6.347984e-01 -1.961830e-01
    outer loop
      vertex   8.356810e+00 -6.706560e+00 -2.471523e+00
      vertex   8.400927e+00 -6.741959e+00 -2.188922e+00
      vertex   8.325309e+00 -6.830984e+00 -2.188922e+00
    endloop
  endfacet
  facet normal 7.612888e-01 -6.179926e-01 -1.962768e-01
    outer loop
      vertex   8.552216e+00 -6.557717e+00 -2.188922e+00
      vertex   8.477655e+00 -6.649568e+00 -2.188922e+00
      vertex   8.433139e+00 -6.614651e+00 -2.471523e+00
    endloop
  endfacet
  facet normal 7.543454e-01 -6.264639e-01 -1.962297e-01
    outer loop
      vertex   8.433139e+00 -6.614651e+00 -2.471523e+00
      vertex   8.477655e+00 -6.649568e+00 -2.188922e+00
      vertex   8.400927e+00 -6.741959e+00 -2.188922e+00
    endloop
  endfacet
  facet normal 7.573352e-01 -6.147832e-01 -2.201931e-01
    outer loop
      vertex   8.433139e+00 -6.614651e+00 -2.471523e+00
      vertex   8.382849e+00 -6.575205e+00 -2.754625e+00
      vertex   8.507309e+00 -6.523283e+00 -2.471523e+00
    endloop
  endfacet
  facet normal 7.573352e-01 -6.147832e-01 -2.201931e-01
    outer loop
      vertex   8.507309e+00 -6.523283e+00 -2.471523e+00
      vertex   8.382849e+00 -6.575205e+00 -2.754625e+00
      vertex   8.456576e+00 -6.484382e+00 -2.754625e+00
    endloop
  endfacet
  facet normal 7.674423e-01 -6.020943e-01 -2.202607e-01
    outer loop
      vertex   8.507309e+00 -6.523283e+00 -2.471523e+00
      vertex   8.456576e+00 -6.484382e+00 -2.754625e+00
      vertex   8.652384e+00 -6.338366e+00 -2.471523e+00
    endloop
  endfacet
  facet normal 7.674423e-01 -6.020943e-01 -2.202607e-01
    outer loop
      vertex   8.652384e+00 -6.338366e+00 -2.471523e+00
      vertex   8.456576e+00 -6.484382e+00 -2.754625e+00
      vertex   8.600787e+00 -6.300568e+00 -2.754625e+00
    endloop
  endfacet
  facet normal 7.805816e-01 -5.849211e-01 -2.203626e-01
    outer loop
      vertex   8.652384e+00 -6.338366e+00 -2.471523e+00
      vertex   8.600787e+00 -6.300568e+00 -2.754625e+00
      vertex   8.793036e+00 -6.150665e+00 -2.471523e+00
    endloop
  endfacet
  facet normal 7.805816e-01 -5.849211e-01 -2.203626e-01
    outer loop
      vertex   8.793036e+00 -6.150665e+00 -2.471523e+00
      vertex   8.600787e+00 -6.300568e+00 -2.754625e+00
      vertex   8.740600e+00 -6.113987e+00 -2.754625e+00
    endloop
  endfacet
  facet normal 7.933279e-01 -5.674742e-01 -2.204630e-01
    outer loop
      vertex   8.793036e+00 -6.150665e+00 -2.471523e+00
      vertex   8.740600e+00 -6.113987e+00 -2.754625e+00
      vertex   8.929184e+00 -5.960331e+00 -2.471523e+00
    endloop
  endfacet
  facet normal 7.933279e-01 -5.674742e-01 -2.204630e-01
    outer loop
      vertex   8.929184e+00 -5.960331e+00 -2.471523e+00
      vertex   8.740600e+00 -6.113987e+00 -2.754625e+00
      vertex   8.875936e+00 -5.924787e+00 -2.754625e+00
    endloop
  endfacet
  facet normal 8.056726e-01 -5.497674e-01 -2.205618e-01
    outer loop
      vertex   8.929184e+00 -5.960331e+00 -2.471523e+00
      vertex   8.875936e+00 -5.924787e+00 -2.754625e+00
      vertex   9.060754e+00 -5.767518e+00 -2.471523e+00
    endloop
  endfacet
  facet normal 8.056726e-01 -5.497674e-01 -2.205618e-01
    outer loop
      vertex   9.060754e+00 -5.767518e+00 -2.471523e+00
      vertex   8.875936e+00 -5.924787e+00 -2.754625e+00
      vertex   9.006721e+00 -5.733124e+00 -2.754625e+00
    endloop
  endfacet
  facet normal 8.176080e-01 -5.318147e-01 -2.206587e-01
    outer loop
      vertex   9.060754e+00 -5.767518e+00 -2.471523e+00
      vertex   9.006721e+00 -5.733124e+00 -2.754625e+00
      vertex   9.187682e+00 -5.572380e+00 -2.471523e+00
    endloop
  endfacet
  facet normal 8.176080e-01 -5.318147e-01 -2.206587e-01
    outer loop
      vertex   9.187682e+00 -5.572380e+00 -2.471523e+00
      vertex   9.006721e+00 -5.733124e+00 -2.754625e+00
      vertex   9.132892e+00 -5.539150e+00 -2.754625e+00
    endloop
  endfacet
  facet normal 7.714511e-01 -6.052394e-01 -1.963377e-01
    outer loop
      vertex   8.698058e+00 -6.371825e+00 -2.188922e+00
      vertex   8.552216e+00 -6.557717e+00 -2.188922e+00
      vertex   8.507309e+00 -6.523283e+00 -2.471523e+00
    endloop
  endfacet
  facet normal 7.612888e-01 -6.179926e-01 -1.962768e-01
    outer loop
      vertex   8.507309e+00 -6.523283e+00 -2.471523e+00
      vertex   8.552216e+00 -6.557717e+00 -2.188922e+00
      vertex   8.433139e+00 -6.614651e+00 -2.471523e+00
    endloop
  endfacet
  facet normal 7.714511e-01 -6.052394e-01 -1.963377e-01
    outer loop
      vertex   8.698058e+00 -6.371825e+00 -2.188922e+00
      vertex   8.507309e+00 -6.523283e+00 -2.471523e+00
      vertex   8.652384e+00 -6.338366e+00 -2.471523e+00
    endloop
  endfacet
  facet normal 7.846628e-01 -5.879793e-01 -1.964295e-01
    outer loop
      vertex   8.839452e+00 -6.183133e+00 -2.188922e+00
      vertex   8.698058e+00 -6.371825e+00 -2.188922e+00
      vertex   8.652384e+00 -6.338366e+00 -2.471523e+00
    endloop
  endfacet
  facet normal 7.846628e-01 -5.879793e-01 -1.964295e-01
    outer loop
      vertex   8.839452e+00 -6.183133e+00 -2.188922e+00
      vertex   8.652384e+00 -6.338366e+00 -2.471523e+00
      vertex   8.793036e+00 -6.150665e+00 -2.471523e+00
    endloop
  endfacet
  facet normal 7.974795e-01 -5.704439e-01 -1.965200e-01
    outer loop
      vertex   8.976318e+00 -5.991794e+00 -2.188922e+00
      vertex   8.839452e+00 -6.183133e+00 -2.188922e+00
      vertex   8.793036e+00 -6.150665e+00 -2.471523e+00
    endloop
  endfacet
  facet normal 7.974795e-01 -5.704439e-01 -1.965200e-01
    outer loop
      vertex   8.976318e+00 -5.991794e+00 -2.188922e+00
      vertex   8.793036e+00 -6.150665e+00 -2.471523e+00
      vertex   8.929184e+00 -5.960331e+00 -2.471523e+00
    endloop
  endfacet
  facet normal 8.098927e-01 -5.526470e-01 -1.966090e-01
    outer loop
      vertex   9.108583e+00 -5.797963e+00 -2.188922e+00
      vertex   8.976318e+00 -5.991794e+00 -2.188922e+00
      vertex   8.929184e+00 -5.960331e+00 -2.471523e+00
    endloop
  endfacet
  facet normal 8.098927e-01 -5.526470e-01 -1.966090e-01
    outer loop
      vertex   9.108583e+00 -5.797963e+00 -2.188922e+00
      vertex   8.929184e+00 -5.960331e+00 -2.471523e+00
      vertex   9.060754e+00 -5.767518e+00 -2.471523e+00
    endloop
  endfacet
  facet normal 8.218944e-01 -5.346028e-01 -1.966963e-01
    outer loop
      vertex   9.236181e+00 -5.601795e+00 -2.188922e+00
      vertex   9.108583e+00 -5.797963e+00 -2.188922e+00
      vertex   9.060754e+00 -5.767518e+00 -2.471523e+00
    endloop
  endfacet
  facet normal 8.218944e-01 -5.346028e-01 -1.966963e-01
    outer loop
      vertex   9.236181e+00 -5.601795e+00 -2.188922e+00
      vertex   9.060754e+00 -5.767518e+00 -2.471523e+00
      vertex   9.187682e+00 -5.572380e+00 -2.471523e+00
    endloop
  endfacet
  facet normal -6.427876e-01 -7.660444e-01 -3.313908e-14
    outer loop
      vertex   7.932776e+00 -6.656389e+00 -3.769095e+00
      vertex   7.989550e+00 -6.704028e+00 -3.540491e+00
      vertex   0.000000e+00 0.000000e+00 0.000000e+00
    endloop
  endfacet
  facet normal -6.427876e-01 -7.660444e-01 -5.374864e-15
    outer loop
      vertex   0.000000e+00 0.000000e+00 0.000000e+00
      vertex   7.989550e+00 -6.704028e+00 -3.540491e+00
      vertex   8.042708e+00 -6.748633e+00 -3.310543e+00
    endloop
  endfacet
  facet normal -6.427876e-01 -7.660444e-01 5.379730e-15
    outer loop
      vertex   0.000000e+00 0.000000e+00 0.000000e+00
      vertex   8.042708e+00 -6.748633e+00 -3.310543e+00
      vertex   8.092243e+00 -6.790198e+00 -3.079333e+00
    endloop
  endfacet
  facet normal -6.427876e-01 -7.660444e-01 -6.772032e-15
    outer loop
      vertex   8.092243e+00 -6.790198e+00 -3.079333e+00
      vertex   8.138148e+00 -6.828717e+00 -2.846938e+00
      vertex   0.000000e+00 0.000000e+00 0.000000e+00
    endloop
  endfacet
  facet normal -6.427876e-01 -7.660444e-01 8.081416e-15
    outer loop
      vertex   0.000000e+00 0.000000e+00 0.000000e+00
      vertex   8.138148e+00 -6.828717e+00 -2.846938e+00
      vertex   8.180415e+00 -6.864183e+00 -2.613438e+00
    endloop
  endfacet
  facet normal -6.427876e-01 -7.660444e-01 -5.390642e-15
    outer loop
      vertex   0.000000e+00 0.000000e+00 0.000000e+00
      vertex   8.180415e+00 -6.864183e+00 -2.613438e+00
      vertex   8.219038e+00 -6.896592e+00 -2.378912e+00
    endloop
  endfacet
  facet normal -6.427876e-01 -7.660444e-01 -6.994146e-15
    outer loop
      vertex   8.219038e+00 -6.896592e+00 -2.378912e+00
      vertex   8.254009e+00 -6.925936e+00 -2.143441e+00
      vertex   0.000000e+00 0.000000e+00 0.000000e+00
    endloop
  endfacet
  facet normal -6.427876e-01 -7.660444e-01 2.697459e-15
    outer loop
      vertex   0.000000e+00 0.000000e+00 0.000000e+00
      vertex   8.254009e+00 -6.925936e+00 -2.143441e+00
      vertex   8.285320e+00 -6.952209e+00 -1.907103e+00
    endloop
  endfacet
  facet normal 1.349699e-01 -1.092965e-01 9.848032e-01
    outer loop
      vertex   0.000000e+00 0.000000e+00 0.000000e+00
      vertex   8.285320e+00 -6.952209e+00 -1.907103e+00
      vertex   4.277029e+00 -3.341581e+00 -9.570372e-01
    endloop
  endfacet
  facet normal 1.342123e-01 -1.101401e-01 9.848128e-01
    outer loop
      vertex   4.277029e+00 -3.341581e+00 -9.570372e-01
      vertex   8.285320e+00 -6.952209e+00 -1.907103e+00
      vertex   8.439288e+00 -6.772739e+00 -1.908014e+00
    endloop
  endfacet
  facet normal 1.366236e-01 -1.072126e-01 9.848043e-01
    outer loop
      vertex   4.277029e+00 -3.341581e+00 -9.570372e-01
      vertex   8.439288e+00 -6.772739e+00 -1.908014e+00
      vertex   8.589245e+00 -6.589942e+00 -1.908917e+00
    endloop
  endfacet
  facet normal 1.386711e-01 -1.044962e-01 9.848101e-01
    outer loop
      vertex   4.277029e+00 -3.341581e+00 -9.570372e-01
      vertex   8.589245e+00 -6.589942e+00 -1.908917e+00
      vertex   4.391043e+00 -3.190279e+00 -9.570372e-01
    endloop
  endfacet
  facet normal 1.389168e-01 -1.041922e-01 9.848077e-01
    outer loop
      vertex   4.391043e+00 -3.190279e+00 -9.570372e-01
      vertex   8.589245e+00 -6.589942e+00 -1.908917e+00
      vertex   8.735131e+00 -6.403882e+00 -1.909811e+00
    endloop
  endfacet
  facet normal 1.411703e-01 -1.011451e-01 9.848049e-01
    outer loop
      vertex   4.391043e+00 -3.190279e+00 -9.570372e-01
      vertex   8.735131e+00 -6.403882e+00 -1.909811e+00
      vertex   8.876887e+00 -6.214620e+00 -1.910693e+00
    endloop
  endfacet
  facet normal 1.422232e-01 -9.958574e-02 9.848123e-01
    outer loop
      vertex   4.391043e+00 -3.190279e+00 -9.570372e-01
      vertex   8.876887e+00 -6.214620e+00 -1.910693e+00
      vertex   4.499707e+00 -3.035091e+00 -9.570372e-01
    endloop
  endfacet
  facet normal 1.433433e-01 -9.804142e-02 9.848048e-01
    outer loop
      vertex   4.499707e+00 -3.035091e+00 -9.570372e-01
      vertex   8.876887e+00 -6.214620e+00 -1.910693e+00
      vertex   9.014421e+00 -6.022267e+00 -1.911562e+00
    endloop
  endfacet
  facet normal 1.454335e-01 -9.488332e-02 9.848077e-01
    outer loop
      vertex   4.499707e+00 -3.035091e+00 -9.570372e-01
      vertex   9.014421e+00 -6.022267e+00 -1.911562e+00
      vertex   9.147641e+00 -5.826938e+00 -1.912417e+00
    endloop
  endfacet
  facet normal 1.456230e-01 -9.456867e-02 9.848100e-01
    outer loop
      vertex   4.499707e+00 -3.035091e+00 -9.570372e-01
      vertex   9.147641e+00 -5.826938e+00 -1.912417e+00
      vertex   4.602889e+00 -2.876204e+00 -9.570372e-01
    endloop
  endfacet
  facet normal 1.474831e-01 -9.170180e-02 9.848043e-01
    outer loop
      vertex   4.602889e+00 -2.876204e+00 -9.570372e-01
      vertex   9.147641e+00 -5.826938e+00 -1.912417e+00
      vertex   9.276494e+00 -5.628703e+00 -1.913255e+00
    endloop
  endfacet
  facet normal 1.494050e-01 -8.844157e-02 9.848128e-01
    outer loop
      vertex   4.602889e+00 -2.876204e+00 -9.570372e-01
      vertex   9.276494e+00 -5.628703e+00 -1.913255e+00
      vertex   9.400927e+00 -5.427628e+00 -1.914074e+00
    endloop
  endfacet
  facet normal 1.488675e-01 -8.944861e-02 9.848032e-01
    outer loop
      vertex   9.400927e+00 -5.427628e+00 -1.914074e+00
      vertex   0.000000e+00 0.000000e+00 0.000000e+00
      vertex   4.602889e+00 -2.876204e+00 -9.570372e-01
    endloop
  endfacet
  facet normal 1.456551e-01 -9.458955e-02 9.848032e-01
    outer loop
      vertex   4.602889e+00 -2.876204e+00 -9.570372e-01
      vertex   0.000000e+00 0.000000e+00 0.000000e+00
      vertex   4.499707e+00 -3.035091e+00 -9.570372e-01
    endloop
  endfacet
  facet normal 1.422653e-01 -9.961522e-02 9.848032e-01
    outer loop
      vertex   4.499707e+00 -3.035091e+00 -9.570372e-01
      vertex   0.000000e+00 0.000000e+00 0.000000e+00
      vertex   4.391043e+00 -3.190279e+00 -9.570372e-01
    endloop
  endfacet
  facet normal 1.387021e-01 -1.045195e-01 9.848032e-01
    outer loop
      vertex   4.391043e+00 -3.190279e+00 -9.570372e-01
      vertex   0.000000e+00 0.000000e+00 0.000000e+00
      vertex   4.277029e+00 -3.341581e+00 -9.570372e-01
    endloop
  endfacet
  facet normal -2.932079e-01 1.761770e-01 -9.396759e-01
    outer loop
      vertex   0.000000e+00 0.000000e+00 0.000000e+00
      vertex   8.998168e+00 -5.195095e+00 -3.781720e+00
      vertex   4.405690e+00 -2.752981e+00 -1.890860e+00
    endloop
  endfacet
  facet normal -2.942744e-01 1.741990e-01 -9.397113e-01
    outer loop
      vertex   4.405690e+00 -2.752981e+00 -1.890860e+00
      vertex   8.998168e+00 -5.195095e+00 -3.781720e+00
      vertex   8.879370e+00 -5.387774e+00 -3.780235e+00
    endloop
  endfacet
  facet normal -2.904814e-01 1.806166e-01 -9.396798e-01
    outer loop
      vertex   4.405690e+00 -2.752981e+00 -1.890860e+00
      vertex   8.879370e+00 -5.387774e+00 -3.780235e+00
      vertex   8.756341e+00 -5.577745e+00 -3.778718e+00
    endloop
  endfacet
  facet normal -2.868231e-01 1.862651e-01 -9.397009e-01
    outer loop
      vertex   4.405690e+00 -2.752981e+00 -1.890860e+00
      vertex   8.756341e+00 -5.577745e+00 -3.778718e+00
      vertex   4.306929e+00 -2.905060e+00 -1.890860e+00
    endloop
  endfacet
  facet normal -2.864470e-01 1.868853e-01 -9.396925e-01
    outer loop
      vertex   4.306929e+00 -2.905060e+00 -1.890860e+00
      vertex   8.756341e+00 -5.577745e+00 -3.778718e+00
      vertex   8.629133e+00 -5.764945e+00 -3.777172e+00
    endloop
  endfacet
  facet normal -2.823276e-01 1.931040e-01 -9.396818e-01
    outer loop
      vertex   4.306929e+00 -2.905060e+00 -1.890860e+00
      vertex   8.629133e+00 -5.764945e+00 -3.777172e+00
      vertex   8.497796e+00 -5.949307e+00 -3.775598e+00
    endloop
  endfacet
  facet normal -2.801287e-01 1.961482e-01 -9.397094e-01
    outer loop
      vertex   4.306929e+00 -2.905060e+00 -1.890860e+00
      vertex   8.497796e+00 -5.949307e+00 -3.775598e+00
      vertex   4.202920e+00 -3.053600e+00 -1.890860e+00
    endloop
  endfacet
  facet normal -2.780476e-01 1.992171e-01 -9.396819e-01
    outer loop
      vertex   4.202920e+00 -3.053600e+00 -1.890860e+00
      vertex   8.497796e+00 -5.949307e+00 -3.775598e+00
      vertex   8.362417e+00 -6.130719e+00 -3.774000e+00
    endloop
  endfacet
  facet normal -2.736113e-01 2.052201e-01 -9.396923e-01
    outer loop
      vertex   4.202920e+00 -3.053600e+00 -1.890860e+00
      vertex   8.362417e+00 -6.130719e+00 -3.774000e+00
      vertex   8.223083e+00 -6.309077e+00 -3.772382e+00
    endloop
  endfacet
  facet normal -2.731307e-01 2.058187e-01 -9.397012e-01
    outer loop
      vertex   4.202920e+00 -3.053600e+00 -1.890860e+00
      vertex   8.223083e+00 -6.309077e+00 -3.772382e+00
      vertex   4.093790e+00 -3.198420e+00 -1.890860e+00
    endloop
  endfacet
  facet normal -2.690924e-01 2.111664e-01 -9.396797e-01
    outer loop
      vertex   4.093790e+00 -3.198420e+00 -1.890860e+00
      vertex   8.223083e+00 -6.309077e+00 -3.772382e+00
      vertex   8.079851e+00 -6.484320e+00 -3.770746e+00
    endloop
  endfacet
  facet normal -2.643501e-01 2.169373e-01 -9.397112e-01
    outer loop
      vertex   4.093790e+00 -3.198420e+00 -1.890860e+00
      vertex   8.079851e+00 -6.484320e+00 -3.770746e+00
      vertex   7.932776e+00 -6.656389e+00 -3.769095e+00
    endloop
  endfacet
  facet normal -2.658353e-01 2.152692e-01 -9.396759e-01
    outer loop
      vertex   7.932776e+00 -6.656389e+00 -3.769095e+00
      vertex   0.000000e+00 0.000000e+00 0.000000e+00
      vertex   4.093790e+00 -3.198420e+00 -1.890860e+00
    endloop
  endfacet
  facet normal -2.731862e-01 2.058605e-01 -9.396759e-01
    outer loop
      vertex   4.093790e+00 -3.198420e+00 -1.890860e+00
      vertex   0.000000e+00 0.000000e+00 0.000000e+00
      vertex   4.202920e+00 -3.053600e+00 -1.890860e+00
    endloop
  endfacet
  facet normal -2.802042e-01 1.962011e-01 -9.396759e-01
    outer loop
      vertex   4.202920e+00 -3.053600e+00 -1.890860e+00
      vertex   0.000000e+00 0.000000e+00 0.000000e+00
      vertex   4.306929e+00 -2.905060e+00 -1.890860e+00
    endloop
  endfacet
  facet normal -2.868808e-01 1.863026e-01 -9.396759e-01
    outer loop
      vertex   4.306929e+00 -2.905060e+00 -1.890860e+00
      vertex   0.000000e+00 0.000000e+00 0.000000e+00
      vertex   4.405690e+00 -2.752981e+00 -1.890860e+00
    endloop
  endfacet
endsolid
