solid ASCII
  facet normal -9.848078e-01 1.736482e-01 -8.060488e-17
    outer loop
      vertex   -9.783119e-01 -5.548282e+00 9.758155e+00
      vertex   0.000000e+00 0.000000e+00 0.000000e+00
      vertex   -1.013830e+00 -5.749716e+00 9.623472e+00
    endloop
  endfacet
  facet normal -9.848078e-01 1.736482e-01 2.723625e-16
    outer loop
      vertex   -1.013830e+00 -5.749716e+00 9.623472e+00
      vertex   0.000000e+00 0.000000e+00 0.000000e+00
      vertex   -1.048805e+00 -5.948068e+00 9.484188e+00
    endloop
  endfacet
  facet normal -9.848078e-01 1.736482e-01 -5.553971e-16
    outer loop
      vertex   -1.048805e+00 -5.948068e+00 9.484188e+00
      vertex   0.000000e+00 0.000000e+00 0.000000e+00
      vertex   -1.083225e+00 -6.143276e+00 9.340369e+00
    endloop
  endfacet
  facet normal -9.848078e-01 1.736482e-01 6.569889e-16
    outer loop
      vertex   -1.083225e+00 -6.143276e+00 9.340369e+00
      vertex   0.000000e+00 0.000000e+00 0.000000e+00
      vertex   -1.117080e+00 -6.335275e+00 9.192083e+00
    endloop
  endfacet
  facet normal -9.848078e-01 1.736482e-01 6.474047e-16
    outer loop
      vertex   -1.117080e+00 -6.335275e+00 9.192083e+00
      vertex   0.000000e+00 0.000000e+00 0.000000e+00
      vertex   -1.150358e+00 -6.524004e+00 9.039396e+00
    endloop
  endfacet
  facet normal -9.848078e-01 1.736482e-01 -1.113495e-15
    outer loop
      vertex   -1.150358e+00 -6.524004e+00 9.039396e+00
      vertex   0.000000e+00 0.000000e+00 0.000000e+00
      vertex   -1.183048e+00 -6.709399e+00 8.882375e+00
    endloop
  endfacet
  facet normal -9.848078e-01 1.736482e-01 6.482225e-16
    outer loop
      vertex   -1.183048e+00 -6.709399e+00 8.882375e+00
      vertex   0.000000e+00 0.000000e+00 0.000000e+00
      vertex   -1.215139e+00 -6.891398e+00 8.721087e+00
    endloop
  endfacet
  facet normal -9.848078e-01 1.736482e-01 -2.766338e-15
    outer loop
      vertex   -1.215139e+00 -6.891398e+00 8.721087e+00
      vertex   0.000000e+00 0.000000e+00 0.000000e+00
      vertex   -1.246620e+00 -7.069935e+00 8.555600e+00
    endloop
  endfacet
  facet normal -1.097524e-02 -5.504256e-01 8.348121e-01
    outer loop
      vertex   -4.515714e-16 -5.837140e+00 9.621678e+00
      vertex   -5.694612e-17 -5.632847e+00 9.756377e+00
      vertex   -2.485255e-01 -5.827789e+00 9.624576e+00
    endloop
  endfacet
  facet normal -1.147494e-02 -5.499817e-01 8.350979e-01
    outer loop
      vertex   -2.485255e-01 -5.827789e+00 9.624576e+00
      vertex   -5.694612e-17 -5.632847e+00 9.756377e+00
      vertex   -2.457198e-01 -5.627550e+00 9.756489e+00
    endloop
  endfacet
  facet normal -2.807024e-02 -5.496390e-01 8.349306e-01
    outer loop
      vertex   -2.485255e-01 -5.827789e+00 9.624576e+00
      vertex   -2.457198e-01 -5.627550e+00 9.756489e+00
      vertex   -3.741975e-01 -5.821371e+00 9.624576e+00
    endloop
  endfacet
  facet normal -3.425637e-02 -5.466954e-01 8.366305e-01
    outer loop
      vertex   -3.741975e-01 -5.821371e+00 9.624576e+00
      vertex   -2.457198e-01 -5.627550e+00 9.756489e+00
      vertex   -4.909843e-01 -5.611667e+00 9.756825e+00
    endloop
  endfacet
  facet normal -3.941781e-02 -5.486279e-01 8.351369e-01
    outer loop
      vertex   -3.741975e-01 -5.821371e+00 9.624576e+00
      vertex   -4.909843e-01 -5.611667e+00 9.756825e+00
      vertex   -5.007105e-01 -5.812281e+00 9.624576e+00
    endloop
  endfacet
  facet normal -5.088097e-02 -5.479549e-01 8.349590e-01
    outer loop
      vertex   -5.007105e-01 -5.812281e+00 9.624576e+00
      vertex   -4.909843e-01 -5.611667e+00 9.756825e+00
      vertex   -6.279859e-01 -5.800463e+00 9.624576e+00
    endloop
  endfacet
  facet normal -5.258980e-02 -5.663578e-01 8.224799e-01
    outer loop
      vertex   -5.007105e-01 -5.812281e+00 9.624576e+00
      vertex   -6.279859e-01 -5.800463e+00 9.624576e+00
      vertex   -6.495619e-01 -5.999752e+00 9.485966e+00
    endloop
  endfacet
  facet normal -6.448407e-02 -5.650885e-01 8.225064e-01
    outer loop
      vertex   -6.495619e-01 -5.999752e+00 9.485966e+00
      vertex   -6.279859e-01 -5.800463e+00 9.624576e+00
      vertex   -7.819137e-01 -5.984649e+00 9.485966e+00
    endloop
  endfacet
  facet normal -6.657361e-02 -5.833996e-01 8.094522e-01
    outer loop
      vertex   -6.495619e-01 -5.999752e+00 9.485966e+00
      vertex   -7.819137e-01 -5.984649e+00 9.485966e+00
      vertex   -8.075578e-01 -6.180925e+00 9.342395e+00
    endloop
  endfacet
  facet normal -7.891619e-02 -5.818117e-01 8.094859e-01
    outer loop
      vertex   -8.075578e-01 -6.180925e+00 9.342395e+00
      vertex   -7.819137e-01 -5.984649e+00 9.485966e+00
      vertex   -9.448851e-01 -6.162298e+00 9.342395e+00
    endloop
  endfacet
  facet normal -8.074695e-02 -5.953091e-01 7.994292e-01
    outer loop
      vertex   -8.075578e-01 -6.180925e+00 9.342395e+00
      vertex   -9.448851e-01 -6.162298e+00 9.342395e+00
      vertex   -9.597358e-01 -6.259150e+00 9.268772e+00
    endloop
  endfacet
  facet normal -9.330167e-02 -5.934154e-01 7.994705e-01
    outer loop
      vertex   -9.597358e-01 -6.259150e+00 9.268772e+00
      vertex   -9.448851e-01 -6.162298e+00 9.342395e+00
      vertex   -1.083225e+00 -6.143276e+00 9.340369e+00
    endloop
  endfacet
  facet normal -9.896675e-02 -5.972586e-01 7.959194e-01
    outer loop
      vertex   -9.597358e-01 -6.259150e+00 9.268772e+00
      vertex   -1.083225e+00 -6.143276e+00 9.340369e+00
      vertex   -1.117080e+00 -6.335275e+00 9.192083e+00
    endloop
  endfacet
  facet normal -5.702974e-02 -5.447036e-01 8.366873e-01
    outer loop
      vertex   -4.909843e-01 -5.611667e+00 9.756825e+00
      vertex   -7.353310e-01 -5.585229e+00 9.757382e+00
      vertex   -6.279859e-01 -5.800463e+00 9.624576e+00
    endloop
  endfacet
  facet normal -6.235485e-02 -5.464297e-01 8.351805e-01
    outer loop
      vertex   -6.279859e-01 -5.800463e+00 9.624576e+00
      vertex   -7.353310e-01 -5.585229e+00 9.757382e+00
      vertex   -7.559415e-01 -5.785862e+00 9.624576e+00
    endloop
  endfacet
  facet normal -6.448407e-02 -5.650885e-01 8.225064e-01
    outer loop
      vertex   -6.279859e-01 -5.800463e+00 9.624576e+00
      vertex   -7.559415e-01 -5.785862e+00 9.624576e+00
      vertex   -7.819137e-01 -5.984649e+00 9.485966e+00
    endloop
  endfacet
  facet normal -7.643905e-02 -5.635489e-01 8.225386e-01
    outer loop
      vertex   -7.819137e-01 -5.984649e+00 9.485966e+00
      vertex   -7.559415e-01 -5.785862e+00 9.624576e+00
      vertex   -9.148802e-01 -5.966614e+00 9.485966e+00
    endloop
  endfacet
  facet normal -7.891619e-02 -5.818117e-01 8.094859e-01
    outer loop
      vertex   -7.819137e-01 -5.984649e+00 9.485966e+00
      vertex   -9.148802e-01 -5.966614e+00 9.485966e+00
      vertex   -9.448851e-01 -6.162298e+00 9.342395e+00
    endloop
  endfacet
  facet normal -9.106316e-02 -5.799786e-01 8.095260e-01
    outer loop
      vertex   -9.448851e-01 -6.162298e+00 9.342395e+00
      vertex   -9.148802e-01 -5.966614e+00 9.485966e+00
      vertex   -1.048805e+00 -5.948068e+00 9.484188e+00
    endloop
  endfacet
  facet normal -9.162004e-02 -5.801336e-01 8.093521e-01
    outer loop
      vertex   -9.448851e-01 -6.162298e+00 9.342395e+00
      vertex   -1.048805e+00 -5.948068e+00 9.484188e+00
      vertex   -1.083225e+00 -6.143276e+00 9.340369e+00
    endloop
  endfacet
  facet normal -7.394502e-02 -5.451616e-01 8.350635e-01
    outer loop
      vertex   -7.559415e-01 -5.785862e+00 9.624576e+00
      vertex   -7.353310e-01 -5.585229e+00 9.757382e+00
      vertex   -8.844913e-01 -5.768425e+00 9.624576e+00
    endloop
  endfacet
  facet normal -7.970720e-02 -5.417119e-01 8.367766e-01
    outer loop
      vertex   -8.844913e-01 -5.768425e+00 9.624576e+00
      vertex   -7.353310e-01 -5.585229e+00 9.757382e+00
      vertex   -9.783119e-01 -5.548282e+00 9.758155e+00
    endloop
  endfacet
  facet normal -8.571530e-02 -5.432902e-01 8.351579e-01
    outer loop
      vertex   -8.844913e-01 -5.768425e+00 9.624576e+00
      vertex   -9.783119e-01 -5.548282e+00 9.758155e+00
      vertex   -1.013830e+00 -5.749716e+00 9.623472e+00
    endloop
  endfacet
  facet normal -8.827969e-02 -5.617600e-01 8.225767e-01
    outer loop
      vertex   -8.844913e-01 -5.768425e+00 9.624576e+00
      vertex   -1.013830e+00 -5.749716e+00 9.623472e+00
      vertex   -9.148802e-01 -5.966614e+00 9.485966e+00
    endloop
  endfacet
  facet normal -8.872864e-02 -5.618816e-01 8.224453e-01
    outer loop
      vertex   -9.148802e-01 -5.966614e+00 9.485966e+00
      vertex   -1.013830e+00 -5.749716e+00 9.623472e+00
      vertex   -1.048805e+00 -5.948068e+00 9.484188e+00
    endloop
  endfacet
  facet normal -1.015752e-01 -6.148259e-01 7.820943e-01
    outer loop
      vertex   -1.150358e+00 -6.524004e+00 9.039396e+00
      vertex   -9.891184e-01 -6.450776e+00 9.117904e+00
      vertex   -1.117080e+00 -6.335275e+00 9.192083e+00
    endloop
  endfacet
  facet normal -9.610310e-02 -6.110852e-01 7.857093e-01
    outer loop
      vertex   -1.117080e+00 -6.335275e+00 9.192083e+00
      vertex   -9.891184e-01 -6.450776e+00 9.117904e+00
      vertex   -9.744812e-01 -6.355316e+00 9.193938e+00
    endloop
  endfacet
  facet normal -9.495186e-02 -6.022522e-01 7.926389e-01
    outer loop
      vertex   -1.117080e+00 -6.335275e+00 9.192083e+00
      vertex   -9.744812e-01 -6.355316e+00 9.193938e+00
      vertex   -9.597358e-01 -6.259150e+00 9.268772e+00
    endloop
  endfacet
  facet normal -8.195463e-02 -6.042127e-01 7.925973e-01
    outer loop
      vertex   -9.597358e-01 -6.259150e+00 9.268772e+00
      vertex   -9.744812e-01 -6.355316e+00 9.193938e+00
      vertex   -8.202501e-01 -6.278070e+00 9.268772e+00
    endloop
  endfacet
  facet normal -8.074695e-02 -5.953091e-01 7.994292e-01
    outer loop
      vertex   -9.597358e-01 -6.259150e+00 9.268772e+00
      vertex   -8.202501e-01 -6.278070e+00 9.268772e+00
      vertex   -8.075578e-01 -6.180925e+00 9.342395e+00
    endloop
  endfacet
  facet normal -6.811791e-02 -5.969327e-01 7.993944e-01
    outer loop
      vertex   -8.075578e-01 -6.180925e+00 9.342395e+00
      vertex   -8.202501e-01 -6.278070e+00 9.268772e+00
      vertex   -6.708653e-01 -6.196523e+00 9.342395e+00
    endloop
  endfacet
  facet normal -6.657361e-02 -5.833996e-01 8.094522e-01
    outer loop
      vertex   -8.075578e-01 -6.180925e+00 9.342395e+00
      vertex   -6.708653e-01 -6.196523e+00 9.342395e+00
      vertex   -6.495619e-01 -5.999752e+00 9.485966e+00
    endloop
  endfacet
  facet normal -5.429380e-02 -5.847088e-01 8.094244e-01
    outer loop
      vertex   -6.495619e-01 -5.999752e+00 9.485966e+00
      vertex   -6.708653e-01 -6.196523e+00 9.342395e+00
      vertex   -5.179136e-01 -6.011977e+00 9.485966e+00
    endloop
  endfacet
  facet normal -5.258980e-02 -5.663578e-01 8.224799e-01
    outer loop
      vertex   -6.495619e-01 -5.999752e+00 9.485966e+00
      vertex   -5.179136e-01 -6.011977e+00 9.485966e+00
      vertex   -5.007105e-01 -5.812281e+00 9.624576e+00
    endloop
  endfacet
  facet normal -4.076382e-02 -5.673620e-01 8.224589e-01
    outer loop
      vertex   -5.007105e-01 -5.812281e+00 9.624576e+00
      vertex   -5.179136e-01 -6.011977e+00 9.485966e+00
      vertex   -3.741975e-01 -5.821371e+00 9.624576e+00
    endloop
  endfacet
  facet normal -1.041376e-01 -6.320272e-01 7.679173e-01
    outer loop
      vertex   -1.183048e+00 -6.709399e+00 8.882375e+00
      vertex   -1.018056e+00 -6.639499e+00 8.962281e+00
      vertex   -1.150358e+00 -6.524004e+00 9.039396e+00
    endloop
  endfacet
  facet normal -9.887395e-02 -6.284284e-01 7.715580e-01
    outer loop
      vertex   -1.150358e+00 -6.524004e+00 9.039396e+00
      vertex   -1.018056e+00 -6.639499e+00 8.962281e+00
      vertex   -1.003644e+00 -6.545510e+00 9.040681e+00
    endloop
  endfacet
  facet normal -9.766737e-02 -6.197713e-01 7.786813e-01
    outer loop
      vertex   -1.150358e+00 -6.524004e+00 9.039396e+00
      vertex   -1.003644e+00 -6.545510e+00 9.040681e+00
      vertex   -9.891184e-01 -6.450776e+00 9.117904e+00
    endloop
  endfacet
  facet normal -8.433742e-02 -6.217799e-01 7.786379e-01
    outer loop
      vertex   -9.891184e-01 -6.450776e+00 9.117904e+00
      vertex   -1.003644e+00 -6.545510e+00 9.040681e+00
      vertex   -8.453623e-01 -6.470275e+00 9.117904e+00
    endloop
  endfacet
  facet normal -8.315153e-02 -6.130369e-01 7.856664e-01
    outer loop
      vertex   -9.891184e-01 -6.450776e+00 9.117904e+00
      vertex   -8.453623e-01 -6.470275e+00 9.117904e+00
      vertex   -8.328525e-01 -6.374526e+00 9.193938e+00
    endloop
  endfacet
  facet normal -7.014622e-02 -6.147072e-01 7.856300e-01
    outer loop
      vertex   -8.328525e-01 -6.374526e+00 9.193938e+00
      vertex   -8.453623e-01 -6.470275e+00 9.117904e+00
      vertex   -6.918784e-01 -6.390613e+00 9.193938e+00
    endloop
  endfacet
  facet normal -6.913661e-02 -6.058598e-01 7.925617e-01
    outer loop
      vertex   -8.328525e-01 -6.374526e+00 9.193938e+00
      vertex   -6.918784e-01 -6.390613e+00 9.193938e+00
      vertex   -6.814092e-01 -6.293913e+00 9.268772e+00
    endloop
  endfacet
  facet normal -5.638389e-02 -6.072178e-01 7.925323e-01
    outer loop
      vertex   -6.814092e-01 -6.293913e+00 9.268772e+00
      vertex   -6.918784e-01 -6.390613e+00 9.193938e+00
      vertex   -5.433064e-01 -6.306737e+00 9.268772e+00
    endloop
  endfacet
  facet normal -5.555316e-02 -5.982713e-01 7.993656e-01
    outer loop
      vertex   -6.814092e-01 -6.293913e+00 9.268772e+00
      vertex   -5.433064e-01 -6.306737e+00 9.268772e+00
      vertex   -5.348994e-01 -6.209148e+00 9.342395e+00
    endloop
  endfacet
  facet normal -4.306068e-02 -5.993303e-01 7.993429e-01
    outer loop
      vertex   -5.348994e-01 -6.209148e+00 9.342395e+00
      vertex   -5.433064e-01 -6.306737e+00 9.268772e+00
      vertex   -3.997480e-01 -6.218859e+00 9.342395e+00
    endloop
  endfacet
  facet normal -4.208457e-02 -5.857446e-01 8.094024e-01
    outer loop
      vertex   -5.348994e-01 -6.209148e+00 9.342395e+00
      vertex   -3.997480e-01 -6.218859e+00 9.342395e+00
      vertex   -3.870540e-01 -6.021379e+00 9.485966e+00
    endloop
  endfacet
  facet normal -2.995338e-02 -5.865125e-01 8.093861e-01
    outer loop
      vertex   -3.870540e-01 -6.021379e+00 9.485966e+00
      vertex   -3.997480e-01 -6.218859e+00 9.342395e+00
      vertex   -2.570642e-01 -6.028017e+00 9.485966e+00
    endloop
  endfacet
  facet normal -2.901338e-02 -5.681066e-01 8.224434e-01
    outer loop
      vertex   -3.870540e-01 -6.021379e+00 9.485966e+00
      vertex   -2.570642e-01 -6.028017e+00 9.485966e+00
      vertex   -2.485255e-01 -5.827789e+00 9.624576e+00
    endloop
  endfacet
  facet normal -1.181153e-02 -5.688026e-01 8.223892e-01
    outer loop
      vertex   -2.485255e-01 -5.827789e+00 9.624576e+00
      vertex   -2.570642e-01 -6.028017e+00 9.485966e+00
      vertex   -4.515714e-16 -5.837140e+00 9.621678e+00
    endloop
  endfacet
  facet normal -1.066512e-01 -6.488591e-01 7.533972e-01
    outer loop
      vertex   -1.215139e+00 -6.891398e+00 8.721087e+00
      vertex   -1.046525e+00 -6.825165e+00 8.801999e+00
      vertex   -1.183048e+00 -6.709399e+00 8.882375e+00
    endloop
  endfacet
  facet normal -1.041821e-01 -6.471853e-01 7.551803e-01
    outer loop
      vertex   -1.183048e+00 -6.709399e+00 8.882375e+00
      vertex   -1.046525e+00 -6.825165e+00 8.801999e+00
      vertex   -1.039453e+00 -6.779044e+00 8.842500e+00
    endloop
  endfacet
  facet normal -1.012857e-01 -6.433231e-01 7.588653e-01
    outer loop
      vertex   -1.183048e+00 -6.709399e+00 8.882375e+00
      vertex   -1.039453e+00 -6.779044e+00 8.842500e+00
      vertex   -1.032350e+00 -6.732724e+00 8.882716e+00
    endloop
  endfacet
  facet normal -8.754001e-02 -6.453911e-01 7.588195e-01
    outer loop
      vertex   -1.032350e+00 -6.732724e+00 8.882716e+00
      vertex   -1.039453e+00 -6.779044e+00 8.842500e+00
      vertex   -8.823110e-01 -6.753075e+00 8.882716e+00
    endloop
  endfacet
  facet normal -8.696422e-02 -6.411461e-01 7.624755e-01
    outer loop
      vertex   -1.032350e+00 -6.732724e+00 8.882716e+00
      vertex   -8.823110e-01 -6.753075e+00 8.882716e+00
      vertex   -8.762152e-01 -6.706418e+00 8.922643e+00
    endloop
  endfacet
  facet normal -7.336227e-02 -6.428902e-01 7.624370e-01
    outer loop
      vertex   -8.762152e-01 -6.706418e+00 8.922643e+00
      vertex   -8.823110e-01 -6.753075e+00 8.882716e+00
      vertex   -7.279013e-01 -6.723343e+00 8.922643e+00
    endloop
  endfacet
  facet normal -7.287412e-02 -6.386124e-01 7.660702e-01
    outer loop
      vertex   -8.762152e-01 -6.706418e+00 8.922643e+00
      vertex   -7.279013e-01 -6.723343e+00 8.922643e+00
      vertex   -7.228163e-01 -6.676375e+00 8.962281e+00
    endloop
  endfacet
  facet normal -5.943175e-02 -6.400411e-01 7.660386e-01
    outer loop
      vertex   -7.228163e-01 -6.676375e+00 8.962281e+00
      vertex   -7.279013e-01 -6.723343e+00 8.922643e+00
      vertex   -5.763214e-01 -6.689977e+00 8.962281e+00
    endloop
  endfacet
  facet normal -5.883095e-02 -6.335709e-01 7.714446e-01
    outer loop
      vertex   -7.228163e-01 -6.676375e+00 8.962281e+00
      vertex   -5.763214e-01 -6.689977e+00 8.962281e+00
      vertex   -5.681629e-01 -6.595274e+00 9.040681e+00
    endloop
  endfacet
  facet normal -4.560122e-02 -6.346903e-01 7.714200e-01
    outer loop
      vertex   -5.681629e-01 -6.595274e+00 9.040681e+00
      vertex   -5.763214e-01 -6.689977e+00 8.962281e+00
      vertex   -4.246069e-01 -6.605588e+00 9.040681e+00
    endloop
  endfacet
  facet normal -4.497495e-02 -6.259737e-01 7.785462e-01
    outer loop
      vertex   -5.681629e-01 -6.595274e+00 9.040681e+00
      vertex   -4.246069e-01 -6.605588e+00 9.040681e+00
      vertex   -4.184615e-01 -6.509985e+00 9.117904e+00
    endloop
  endfacet
  facet normal -3.201050e-02 -6.267927e-01 7.785283e-01
    outer loop
      vertex   -4.184615e-01 -6.509985e+00 9.117904e+00
      vertex   -4.246069e-01 -6.605588e+00 9.040681e+00
      vertex   -2.779237e-01 -6.517162e+00 9.117904e+00
    endloop
  endfacet
  facet normal -3.156052e-02 -6.179816e-01 7.855588e-01
    outer loop
      vertex   -4.184615e-01 -6.509985e+00 9.117904e+00
      vertex   -2.779237e-01 -6.517162e+00 9.117904e+00
      vertex   -2.738109e-01 -6.420720e+00 9.193938e+00
    endloop
  endfacet
  facet normal -1.271641e-02 -6.187358e-01 7.854962e-01
    outer loop
      vertex   -2.738109e-01 -6.420720e+00 9.193938e+00
      vertex   -2.779237e-01 -6.517162e+00 9.117904e+00
      vertex   -5.074846e-16 -6.431194e+00 9.190120e+00
    endloop
  endfacet
  facet normal -1.227954e-02 -6.098421e-01 7.924278e-01
    outer loop
      vertex   -2.738109e-01 -6.420720e+00 9.193938e+00
      vertex   -5.074846e-16 -6.431194e+00 9.190120e+00
      vertex   -2.696677e-01 -6.323564e+00 9.268772e+00
    endloop
  endfacet
  facet normal -9.781045e-03 -6.058442e-01 7.955232e-01
    outer loop
      vertex   -2.696677e-01 -6.323564e+00 9.268772e+00
      vertex   -5.074846e-16 -6.431194e+00 9.190120e+00
      vertex   -4.850238e-16 -6.236380e+00 9.338484e+00
    endloop
  endfacet
  facet normal -1.236321e-02 -6.008501e-01 7.992661e-01
    outer loop
      vertex   -2.696677e-01 -6.323564e+00 9.268772e+00
      vertex   -4.850238e-16 -6.236380e+00 9.338484e+00
      vertex   -2.654950e-01 -6.225715e+00 9.342395e+00
    endloop
  endfacet
  facet normal -1.169262e-02 -5.877179e-01 8.089814e-01
    outer loop
      vertex   -2.654950e-01 -6.225715e+00 9.342395e+00
      vertex   -4.850238e-16 -6.236380e+00 9.338484e+00
      vertex   -4.654302e-16 -6.038339e+00 9.482359e+00
    endloop
  endfacet
  facet normal -1.222216e-02 -5.872276e-01 8.093296e-01
    outer loop
      vertex   -2.654950e-01 -6.225715e+00 9.342395e+00
      vertex   -4.654302e-16 -6.038339e+00 9.482359e+00
      vertex   -2.570642e-01 -6.028017e+00 9.485966e+00
    endloop
  endfacet
  facet normal -1.132118e-02 -5.692485e-01 8.220876e-01
    outer loop
      vertex   -2.570642e-01 -6.028017e+00 9.485966e+00
      vertex   -4.654302e-16 -6.038339e+00 9.482359e+00
      vertex   -4.515714e-16 -5.837140e+00 9.621678e+00
    endloop
  endfacet
  facet normal -1.091140e-01 -6.653185e-01 7.385428e-01
    outer loop
      vertex   -1.246620e+00 -7.069935e+00 8.555600e+00
      vertex   -1.074502e+00 -7.007626e+00 8.637161e+00
      vertex   -1.215139e+00 -6.891398e+00 8.721087e+00
    endloop
  endfacet
  facet normal -1.068448e-01 -6.637984e-01 7.402404e-01
    outer loop
      vertex   -1.215139e+00 -6.891398e+00 8.721087e+00
      vertex   -1.074502e+00 -7.007626e+00 8.637161e+00
      vertex   -1.067555e+00 -6.962319e+00 8.678792e+00
    endloop
  endfacet
  facet normal -1.039505e-01 -6.600270e-01 7.440152e-01
    outer loop
      vertex   -1.215139e+00 -6.891398e+00 8.721087e+00
      vertex   -1.067555e+00 -6.962319e+00 8.678792e+00
      vertex   -1.060576e+00 -6.916805e+00 8.720142e+00
    endloop
  endfacet
  facet normal -8.981342e-02 -6.621518e-01 7.439681e-01
    outer loop
      vertex   -1.060576e+00 -6.916805e+00 8.720142e+00
      vertex   -1.067555e+00 -6.962319e+00 8.678792e+00
      vertex   -9.064346e-01 -6.937713e+00 8.720142e+00
    endloop
  endfacet
  facet normal -8.924958e-02 -6.579949e-01 7.477147e-01
    outer loop
      vertex   -1.060576e+00 -6.916805e+00 8.720142e+00
      vertex   -9.064346e-01 -6.937713e+00 8.720142e+00
      vertex   -9.004433e-01 -6.891856e+00 8.761212e+00
    endloop
  endfacet
  facet normal -7.528998e-02 -6.597831e-01 7.476748e-01
    outer loop
      vertex   -9.004433e-01 -6.891856e+00 8.761212e+00
      vertex   -9.064346e-01 -6.937713e+00 8.720142e+00
      vertex   -7.480284e-01 -6.909249e+00 8.761212e+00
    endloop
  endfacet
  facet normal -7.481183e-02 -6.555930e-01 7.513994e-01
    outer loop
      vertex   -9.004433e-01 -6.891856e+00 8.761212e+00
      vertex   -7.480284e-01 -6.909249e+00 8.761212e+00
      vertex   -7.430291e-01 -6.863072e+00 8.801999e+00
    endloop
  endfacet
  facet normal -6.101189e-02 -6.570582e-01 7.513668e-01
    outer loop
      vertex   -7.430291e-01 -6.863072e+00 8.801999e+00
      vertex   -7.480284e-01 -6.909249e+00 8.761212e+00
      vertex   -5.924376e-01 -6.877056e+00 8.801999e+00
    endloop
  endfacet
  facet normal -6.061991e-02 -6.528369e-01 7.550690e-01
    outer loop
      vertex   -7.430291e-01 -6.863072e+00 8.801999e+00
      vertex   -5.924376e-01 -6.877056e+00 8.801999e+00
      vertex   -5.884341e-01 -6.830583e+00 8.842500e+00
    endloop
  endfacet
  facet normal -4.698779e-02 -6.539889e-01 7.550435e-01
    outer loop
      vertex   -5.884341e-01 -6.830583e+00 8.842500e+00
      vertex   -5.924376e-01 -6.877056e+00 8.801999e+00
      vertex   -4.397562e-01 -6.841265e+00 8.842500e+00
    endloop
  endfacet
  facet normal -4.668239e-02 -6.497383e-01 7.587232e-01
    outer loop
      vertex   -5.884341e-01 -6.830583e+00 8.842500e+00
      vertex   -4.397562e-01 -6.841265e+00 8.842500e+00
      vertex   -4.367515e-01 -6.794520e+00 8.882716e+00
    endloop
  endfacet
  facet normal -3.322569e-02 -6.505872e-01 7.587044e-01
    outer loop
      vertex   -4.367515e-01 -6.794520e+00 8.882716e+00
      vertex   -4.397562e-01 -6.841265e+00 8.842500e+00
      vertex   -2.900711e-01 -6.802011e+00 8.882716e+00
    endloop
  endfacet
  facet normal -3.300722e-02 -6.463092e-01 7.623614e-01
    outer loop
      vertex   -4.367515e-01 -6.794520e+00 8.882716e+00
      vertex   -2.900711e-01 -6.802011e+00 8.882716e+00
      vertex   -2.880670e-01 -6.755017e+00 8.922643e+00
    endloop
  endfacet
  facet normal -1.313366e-02 -6.470987e-01 7.622931e-01
    outer loop
      vertex   -2.880670e-01 -6.755017e+00 8.922643e+00
      vertex   -2.900711e-01 -6.802011e+00 8.882716e+00
      vertex   -5.495390e-16 -6.810883e+00 8.880183e+00
    endloop
  endfacet
  facet normal -1.177353e-02 -6.428365e-01 7.659129e-01
    outer loop
      vertex   -2.880670e-01 -6.755017e+00 8.922643e+00
      vertex   -5.495390e-16 -6.810883e+00 8.880183e+00
      vertex   -2.860546e-01 -6.707827e+00 8.962281e+00
    endloop
  endfacet
  facet normal -1.065120e-02 -6.409755e-01 7.674874e-01
    outer loop
      vertex   -2.860546e-01 -6.707827e+00 8.962281e+00
      vertex   -5.495390e-16 -6.810883e+00 8.880183e+00
      vertex   -5.299455e-16 -6.622717e+00 9.037331e+00
    endloop
  endfacet
  facet normal -1.305405e-02 -6.362937e-01 7.713365e-01
    outer loop
      vertex   -2.860546e-01 -6.707827e+00 8.962281e+00
      vertex   -5.299455e-16 -6.622717e+00 9.037331e+00
      vertex   -2.820052e-01 -6.612871e+00 9.040681e+00
    endloop
  endfacet
  facet normal -1.266462e-02 -6.275641e-01 7.784619e-01
    outer loop
      vertex   -2.820052e-01 -6.612871e+00 9.040681e+00
      vertex   -5.299455e-16 -6.622717e+00 9.037331e+00
      vertex   -2.779237e-01 -6.517162e+00 9.117904e+00
    endloop
  endfacet
  facet normal -3.201050e-02 -6.267927e-01 7.785283e-01
    outer loop
      vertex   -2.820052e-01 -6.612871e+00 9.040681e+00
      vertex   -2.779237e-01 -6.517162e+00 9.117904e+00
      vertex   -4.246069e-01 -6.605588e+00 9.040681e+00
    endloop
  endfacet
  facet normal -1.071711e-01 -6.679475e-01 7.364513e-01
    outer loop
      vertex   -1.074502e+00 -7.007626e+00 8.637161e+00
      vertex   -1.246620e+00 -7.069935e+00 8.555600e+00
      vertex   -1.081417e+00 -7.052722e+00 8.595253e+00
    endloop
  endfacet
  facet normal -1.011182e-01 -6.870602e-01 7.195300e-01
    outer loop
      vertex   -1.081417e+00 -7.052722e+00 8.595253e+00
      vertex   -1.246620e+00 -7.069935e+00 8.555600e+00
      vertex   -9.369703e-01 -7.116661e+00 8.554499e+00
    endloop
  endfacet
  facet normal -9.139643e-02 -6.738226e-01 7.332188e-01
    outer loop
      vertex   -1.081417e+00 -7.052722e+00 8.595253e+00
      vertex   -9.369703e-01 -7.116661e+00 8.554499e+00
      vertex   -9.242463e-01 -7.074041e+00 8.595253e+00
    endloop
  endfacet
  facet normal -7.724281e-02 -6.768963e-01 7.320143e-01
    outer loop
      vertex   -9.242463e-01 -7.074041e+00 8.595253e+00
      vertex   -9.369703e-01 -7.116661e+00 8.554499e+00
      vertex   -7.678023e-01 -7.091893e+00 8.595253e+00
    endloop
  endfacet
  facet normal -7.670903e-02 -6.722186e-01 7.363680e-01
    outer loop
      vertex   -9.242463e-01 -7.074041e+00 8.595253e+00
      vertex   -7.678023e-01 -7.091893e+00 8.595253e+00
      vertex   -7.628928e-01 -7.046546e+00 8.637161e+00
    endloop
  endfacet
  facet normal -6.255899e-02 -6.737195e-01 7.363344e-01
    outer loop
      vertex   -7.628928e-01 -7.046546e+00 8.637161e+00
      vertex   -7.678023e-01 -7.091893e+00 8.595253e+00
      vertex   -6.082755e-01 -7.060903e+00 8.637161e+00
    endloop
  endfacet
  facet normal -6.217537e-02 -6.695882e-01 7.401256e-01
    outer loop
      vertex   -7.628928e-01 -7.046546e+00 8.637161e+00
      vertex   -6.082755e-01 -7.060903e+00 8.637161e+00
      vertex   -6.043428e-01 -7.015252e+00 8.678792e+00
    endloop
  endfacet
  facet normal -4.819338e-02 -6.707686e-01 7.400992e-01
    outer loop
      vertex   -6.043428e-01 -7.015252e+00 8.678792e+00
      vertex   -6.082755e-01 -7.060903e+00 8.637161e+00
      vertex   -4.516453e-01 -7.026223e+00 8.678792e+00
    endloop
  endfacet
  facet normal -4.789441e-02 -6.666075e-01 7.438687e-01
    outer loop
      vertex   -6.043428e-01 -7.015252e+00 8.678792e+00
      vertex   -4.516453e-01 -7.026223e+00 8.678792e+00
      vertex   -4.486928e-01 -6.980292e+00 8.720142e+00
    endloop
  endfacet
  facet normal -3.408829e-02 -6.674775e-01 7.438493e-01
    outer loop
      vertex   -4.486928e-01 -6.980292e+00 8.720142e+00
      vertex   -4.516453e-01 -7.026223e+00 8.678792e+00
      vertex   -2.980020e-01 -6.987988e+00 8.720142e+00
    endloop
  endfacet
  facet normal -3.387436e-02 -6.632885e-01 7.475968e-01
    outer loop
      vertex   -4.486928e-01 -6.980292e+00 8.720142e+00
      vertex   -2.980020e-01 -6.987988e+00 8.720142e+00
      vertex   -2.960323e-01 -6.941798e+00 8.761212e+00
    endloop
  endfacet
  facet normal -1.350088e-02 -6.640948e-01 7.475265e-01
    outer loop
      vertex   -2.960323e-01 -6.941798e+00 8.761212e+00
      vertex   -2.980020e-01 -6.987988e+00 8.720142e+00
      vertex   -5.633979e-16 -6.995624e+00 8.718740e+00
    endloop
  endfacet
  facet normal -1.220893e-02 -6.599182e-01 7.512383e-01
    outer loop
      vertex   -2.960323e-01 -6.941798e+00 8.761212e+00
      vertex   -5.633979e-16 -6.995624e+00 8.718740e+00
      vertex   -2.940538e-01 -6.895404e+00 8.801999e+00
    endloop
  endfacet
  facet normal -1.106691e-02 -6.579874e-01 7.529476e-01
    outer loop
      vertex   -2.940538e-01 -6.895404e+00 8.801999e+00
      vertex   -5.633979e-16 -6.995624e+00 8.718740e+00
      vertex   -5.495390e-16 -6.810883e+00 8.880183e+00
    endloop
  endfacet
  facet normal -1.226200e-02 -6.556756e-01 7.549431e-01
    outer loop
      vertex   -2.940538e-01 -6.895404e+00 8.801999e+00
      vertex   -5.495390e-16 -6.810883e+00 8.880183e+00
      vertex   -2.920667e-01 -6.848808e+00 8.842500e+00
    endloop
  endfacet
  facet normal -1.329648e-02 -6.513786e-01 7.586364e-01
    outer loop
      vertex   -2.920667e-01 -6.848808e+00 8.842500e+00
      vertex   -5.495390e-16 -6.810883e+00 8.880183e+00
      vertex   -2.900711e-01 -6.802011e+00 8.882716e+00
    endloop
  endfacet
  facet normal -3.322569e-02 -6.505872e-01 7.587044e-01
    outer loop
      vertex   -2.920667e-01 -6.848808e+00 8.842500e+00
      vertex   -2.900711e-01 -6.802011e+00 8.882716e+00
      vertex   -4.397562e-01 -6.841265e+00 8.842500e+00
    endloop
  endfacet
  facet normal -7.230600e-02 -6.904488e-01 7.197585e-01
    outer loop
      vertex   -9.369703e-01 -7.116661e+00 8.554499e+00
      vertex   -6.256054e-01 -7.150095e+00 8.553706e+00
      vertex   -7.678023e-01 -7.091893e+00 8.595253e+00
    endloop
  endfacet
  facet normal -6.286626e-02 -6.770286e-01 7.332667e-01
    outer loop
      vertex   -7.678023e-01 -7.091893e+00 8.595253e+00
      vertex   -6.256054e-01 -7.150095e+00 8.553706e+00
      vertex   -6.121900e-01 -7.106343e+00 8.595253e+00
    endloop
  endfacet
  facet normal -6.255899e-02 -6.737195e-01 7.363344e-01
    outer loop
      vertex   -7.678023e-01 -7.091893e+00 8.595253e+00
      vertex   -6.121900e-01 -7.106343e+00 8.595253e+00
      vertex   -6.082755e-01 -7.060903e+00 8.637161e+00
    endloop
  endfacet
  facet normal -4.849071e-02 -6.749069e-01 7.363079e-01
    outer loop
      vertex   -6.082755e-01 -7.060903e+00 8.637161e+00
      vertex   -6.121900e-01 -7.106343e+00 8.595253e+00
      vertex   -4.545843e-01 -7.071945e+00 8.637161e+00
    endloop
  endfacet
  facet normal -4.819338e-02 -6.707686e-01 7.400992e-01
    outer loop
      vertex   -6.082755e-01 -7.060903e+00 8.637161e+00
      vertex   -4.545843e-01 -7.071945e+00 8.637161e+00
      vertex   -4.516453e-01 -7.026223e+00 8.678792e+00
    endloop
  endfacet
  facet normal -3.430107e-02 -6.716438e-01 7.400797e-01
    outer loop
      vertex   -4.516453e-01 -7.026223e+00 8.678792e+00
      vertex   -4.545843e-01 -7.071945e+00 8.637161e+00
      vertex   -2.999629e-01 -7.033970e+00 8.678792e+00
    endloop
  endfacet
  facet normal -3.408829e-02 -6.674775e-01 7.438493e-01
    outer loop
      vertex   -4.516453e-01 -7.026223e+00 8.678792e+00
      vertex   -2.999629e-01 -7.033970e+00 8.678792e+00
      vertex   -2.980020e-01 -6.987988e+00 8.720142e+00
    endloop
  endfacet
  facet normal -1.362594e-02 -6.682868e-01 7.437789e-01
    outer loop
      vertex   -2.980020e-01 -6.987988e+00 8.720142e+00
      vertex   -2.999629e-01 -7.033970e+00 8.678792e+00
      vertex   -5.633979e-16 -6.995624e+00 8.718740e+00
    endloop
  endfacet
  facet normal -4.884629e-02 -6.798560e-01 7.317171e-01
    outer loop
      vertex   -6.121900e-01 -7.106343e+00 8.595253e+00
      vertex   -6.256054e-01 -7.150095e+00 8.553706e+00
      vertex   -4.575098e-01 -7.117456e+00 8.595253e+00
    endloop
  endfacet
  facet normal -4.341771e-02 -6.927425e-01 7.198769e-01
    outer loop
      vertex   -4.575098e-01 -7.117456e+00 8.595253e+00
      vertex   -6.256054e-01 -7.150095e+00 8.553706e+00
      vertex   -3.130884e-01 -7.170178e+00 8.553228e+00
    endloop
  endfacet
  facet normal -3.469312e-02 -6.793205e-01 7.330212e-01
    outer loop
      vertex   -4.575098e-01 -7.117456e+00 8.595253e+00
      vertex   -3.130884e-01 -7.170178e+00 8.553228e+00
      vertex   -3.038578e-01 -7.125303e+00 8.595253e+00
    endloop
  endfacet
  facet normal -1.421595e-02 -6.819147e-01 7.312935e-01
    outer loop
      vertex   -3.038578e-01 -7.125303e+00 8.595253e+00
      vertex   -3.130884e-01 -7.170178e+00 8.553228e+00
      vertex   -9.673838e-18 -7.176877e+00 8.553069e+00
    endloop
  endfacet
  facet normal -1.263941e-02 -6.766422e-01 7.362035e-01
    outer loop
      vertex   -3.038578e-01 -7.125303e+00 8.595253e+00
      vertex   -9.673838e-18 -7.176877e+00 8.553069e+00
      vertex   -3.019149e-01 -7.079742e+00 8.637161e+00
    endloop
  endfacet
  facet normal -1.147035e-02 -6.746254e-01 7.380711e-01
    outer loop
      vertex   -3.019149e-01 -7.079742e+00 8.637161e+00
      vertex   -9.673838e-18 -7.176877e+00 8.553069e+00
      vertex   -5.633979e-16 -6.995624e+00 8.718740e+00
    endloop
  endfacet
  facet normal -1.258434e-02 -6.724937e-01 7.399959e-01
    outer loop
      vertex   -3.019149e-01 -7.079742e+00 8.637161e+00
      vertex   -5.633979e-16 -6.995624e+00 8.718740e+00
      vertex   -2.999629e-01 -7.033970e+00 8.678792e+00
    endloop
  endfacet
  facet normal -1.022288e-02 -6.235932e-01 7.816822e-01
    outer loop
      vertex   -5.299455e-16 -6.622717e+00 9.037331e+00
      vertex   -5.074846e-16 -6.431194e+00 9.190120e+00
      vertex   -2.779237e-01 -6.517162e+00 9.117904e+00
    endloop
  endfacet
  facet normal -2.995338e-02 -5.865125e-01 8.093861e-01
    outer loop
      vertex   -2.570642e-01 -6.028017e+00 9.485966e+00
      vertex   -3.997480e-01 -6.218859e+00 9.342395e+00
      vertex   -2.654950e-01 -6.225715e+00 9.342395e+00
    endloop
  endfacet
  facet normal -3.064809e-02 -6.001155e-01 7.993260e-01
    outer loop
      vertex   -2.654950e-01 -6.225715e+00 9.342395e+00
      vertex   -3.997480e-01 -6.218859e+00 9.342395e+00
      vertex   -4.060308e-01 -6.316600e+00 9.268772e+00
    endloop
  endfacet
  facet normal -3.064809e-02 -6.001155e-01 7.993260e-01
    outer loop
      vertex   -2.654950e-01 -6.225715e+00 9.342395e+00
      vertex   -4.060308e-01 -6.316600e+00 9.268772e+00
      vertex   -2.696677e-01 -6.323564e+00 9.268772e+00
    endloop
  endfacet
  facet normal -3.110635e-02 -6.090887e-01 7.924919e-01
    outer loop
      vertex   -2.696677e-01 -6.323564e+00 9.268772e+00
      vertex   -4.060308e-01 -6.316600e+00 9.268772e+00
      vertex   -4.122691e-01 -6.413649e+00 9.193938e+00
    endloop
  endfacet
  facet normal -3.110635e-02 -6.090887e-01 7.924919e-01
    outer loop
      vertex   -2.696677e-01 -6.323564e+00 9.268772e+00
      vertex   -4.122691e-01 -6.413649e+00 9.193938e+00
      vertex   -2.738109e-01 -6.420720e+00 9.193938e+00
    endloop
  endfacet
  facet normal -3.156052e-02 -6.179816e-01 7.855588e-01
    outer loop
      vertex   -2.738109e-01 -6.420720e+00 9.193938e+00
      vertex   -4.122691e-01 -6.413649e+00 9.193938e+00
      vertex   -4.184615e-01 -6.509985e+00 9.117904e+00
    endloop
  endfacet
  facet normal -3.245622e-02 -6.355202e-01 7.714018e-01
    outer loop
      vertex   -2.860546e-01 -6.707827e+00 8.962281e+00
      vertex   -2.820052e-01 -6.612871e+00 9.040681e+00
      vertex   -4.307040e-01 -6.700440e+00 8.962281e+00
    endloop
  endfacet
  facet normal -3.245622e-02 -6.355202e-01 7.714018e-01
    outer loop
      vertex   -4.307040e-01 -6.700440e+00 8.962281e+00
      vertex   -2.820052e-01 -6.612871e+00 9.040681e+00
      vertex   -4.246069e-01 -6.605588e+00 9.040681e+00
    endloop
  endfacet
  facet normal -4.560122e-02 -6.346903e-01 7.714200e-01
    outer loop
      vertex   -4.307040e-01 -6.700440e+00 8.962281e+00
      vertex   -4.246069e-01 -6.605588e+00 9.040681e+00
      vertex   -5.763214e-01 -6.689977e+00 8.962281e+00
    endloop
  endfacet
  facet normal -3.278763e-02 -6.420095e-01 7.659952e-01
    outer loop
      vertex   -2.880670e-01 -6.755017e+00 8.922643e+00
      vertex   -2.860546e-01 -6.707827e+00 8.962281e+00
      vertex   -4.337340e-01 -6.747578e+00 8.922643e+00
    endloop
  endfacet
  facet normal -3.278763e-02 -6.420095e-01 7.659952e-01
    outer loop
      vertex   -4.337340e-01 -6.747578e+00 8.922643e+00
      vertex   -2.860546e-01 -6.707827e+00 8.962281e+00
      vertex   -4.307040e-01 -6.700440e+00 8.962281e+00
    endloop
  endfacet
  facet normal -4.606688e-02 -6.411715e-01 7.660137e-01
    outer loop
      vertex   -4.337340e-01 -6.747578e+00 8.922643e+00
      vertex   -4.307040e-01 -6.700440e+00 8.962281e+00
      vertex   -5.803758e-01 -6.737042e+00 8.922643e+00
    endloop
  endfacet
  facet normal -4.606688e-02 -6.411715e-01 7.660137e-01
    outer loop
      vertex   -5.803758e-01 -6.737042e+00 8.922643e+00
      vertex   -4.307040e-01 -6.700440e+00 8.962281e+00
      vertex   -5.763214e-01 -6.689977e+00 8.962281e+00
    endloop
  endfacet
  facet normal -5.943175e-02 -6.400411e-01 7.660386e-01
    outer loop
      vertex   -5.803758e-01 -6.737042e+00 8.922643e+00
      vertex   -5.763214e-01 -6.689977e+00 8.962281e+00
      vertex   -7.279013e-01 -6.723343e+00 8.922643e+00
    endloop
  endfacet
  facet normal -3.344305e-02 -6.548431e-01 7.550245e-01
    outer loop
      vertex   -2.940538e-01 -6.895404e+00 8.801999e+00
      vertex   -2.920667e-01 -6.848808e+00 8.842500e+00
      vertex   -4.427482e-01 -6.887810e+00 8.801999e+00
    endloop
  endfacet
  facet normal -3.344305e-02 -6.548431e-01 7.550245e-01
    outer loop
      vertex   -4.427482e-01 -6.887810e+00 8.801999e+00
      vertex   -2.920667e-01 -6.848808e+00 8.842500e+00
      vertex   -4.397562e-01 -6.841265e+00 8.842500e+00
    endloop
  endfacet
  facet normal -4.698779e-02 -6.539889e-01 7.550435e-01
    outer loop
      vertex   -4.427482e-01 -6.887810e+00 8.801999e+00
      vertex   -4.397562e-01 -6.841265e+00 8.842500e+00
      vertex   -5.924376e-01 -6.877056e+00 8.801999e+00
    endloop
  endfacet
  facet normal -3.365927e-02 -6.590770e-01 7.513219e-01
    outer loop
      vertex   -2.960323e-01 -6.941798e+00 8.761212e+00
      vertex   -2.940538e-01 -6.895404e+00 8.801999e+00
      vertex   -4.457271e-01 -6.934153e+00 8.761212e+00
    endloop
  endfacet
  facet normal -3.365927e-02 -6.590770e-01 7.513219e-01
    outer loop
      vertex   -4.457271e-01 -6.934153e+00 8.761212e+00
      vertex   -2.940538e-01 -6.895404e+00 8.801999e+00
      vertex   -4.427482e-01 -6.887810e+00 8.801999e+00
    endloop
  endfacet
  facet normal -4.729160e-02 -6.582175e-01 7.513410e-01
    outer loop
      vertex   -4.457271e-01 -6.934153e+00 8.761212e+00
      vertex   -4.427482e-01 -6.887810e+00 8.801999e+00
      vertex   -5.964236e-01 -6.923326e+00 8.761212e+00
    endloop
  endfacet
  facet normal -4.729160e-02 -6.582175e-01 7.513410e-01
    outer loop
      vertex   -5.964236e-01 -6.923326e+00 8.761212e+00
      vertex   -4.427482e-01 -6.887810e+00 8.801999e+00
      vertex   -5.924376e-01 -6.877056e+00 8.801999e+00
    endloop
  endfacet
  facet normal -6.101189e-02 -6.570582e-01 7.513668e-01
    outer loop
      vertex   -5.964236e-01 -6.923326e+00 8.761212e+00
      vertex   -5.924376e-01 -6.877056e+00 8.801999e+00
      vertex   -7.480284e-01 -6.909249e+00 8.761212e+00
    endloop
  endfacet
  facet normal -3.451268e-02 -6.757873e-01 7.362882e-01
    outer loop
      vertex   -4.575098e-01 -7.117456e+00 8.595253e+00
      vertex   -3.038578e-01 -7.125303e+00 8.595253e+00
      vertex   -3.019149e-01 -7.079742e+00 8.637161e+00
    endloop
  endfacet
  facet normal -3.451268e-02 -6.757873e-01 7.362882e-01
    outer loop
      vertex   -4.575098e-01 -7.117456e+00 8.595253e+00
      vertex   -3.019149e-01 -7.079742e+00 8.637161e+00
      vertex   -4.545843e-01 -7.071945e+00 8.637161e+00
    endloop
  endfacet
  facet normal -3.430107e-02 -6.716438e-01 7.400797e-01
    outer loop
      vertex   -4.545843e-01 -7.071945e+00 8.637161e+00
      vertex   -3.019149e-01 -7.079742e+00 8.637161e+00
      vertex   -2.999629e-01 -7.033970e+00 8.678792e+00
    endloop
  endfacet
  facet normal -2.901338e-02 -5.681066e-01 8.224434e-01
    outer loop
      vertex   -2.485255e-01 -5.827789e+00 9.624576e+00
      vertex   -3.741975e-01 -5.821371e+00 9.624576e+00
      vertex   -3.870540e-01 -6.021379e+00 9.485966e+00
    endloop
  endfacet
  facet normal -4.076382e-02 -5.673620e-01 8.224589e-01
    outer loop
      vertex   -3.870540e-01 -6.021379e+00 9.485966e+00
      vertex   -3.741975e-01 -5.821371e+00 9.624576e+00
      vertex   -5.179136e-01 -6.011977e+00 9.485966e+00
    endloop
  endfacet
  facet normal -4.208457e-02 -5.857446e-01 8.094024e-01
    outer loop
      vertex   -3.870540e-01 -6.021379e+00 9.485966e+00
      vertex   -5.179136e-01 -6.011977e+00 9.485966e+00
      vertex   -5.348994e-01 -6.209148e+00 9.342395e+00
    endloop
  endfacet
  facet normal -5.429380e-02 -5.847088e-01 8.094244e-01
    outer loop
      vertex   -5.348994e-01 -6.209148e+00 9.342395e+00
      vertex   -5.179136e-01 -6.011977e+00 9.485966e+00
      vertex   -6.708653e-01 -6.196523e+00 9.342395e+00
    endloop
  endfacet
  facet normal -5.555316e-02 -5.982713e-01 7.993656e-01
    outer loop
      vertex   -5.348994e-01 -6.209148e+00 9.342395e+00
      vertex   -6.708653e-01 -6.196523e+00 9.342395e+00
      vertex   -6.814092e-01 -6.293913e+00 9.268772e+00
    endloop
  endfacet
  facet normal -6.811791e-02 -5.969327e-01 7.993944e-01
    outer loop
      vertex   -6.814092e-01 -6.293913e+00 9.268772e+00
      vertex   -6.708653e-01 -6.196523e+00 9.342395e+00
      vertex   -8.202501e-01 -6.278070e+00 9.268772e+00
    endloop
  endfacet
  facet normal -6.913661e-02 -6.058598e-01 7.925617e-01
    outer loop
      vertex   -6.814092e-01 -6.293913e+00 9.268772e+00
      vertex   -8.202501e-01 -6.278070e+00 9.268772e+00
      vertex   -8.328525e-01 -6.374526e+00 9.193938e+00
    endloop
  endfacet
  facet normal -8.195463e-02 -6.042127e-01 7.925973e-01
    outer loop
      vertex   -8.328525e-01 -6.374526e+00 9.193938e+00
      vertex   -8.202501e-01 -6.278070e+00 9.268772e+00
      vertex   -9.744812e-01 -6.355316e+00 9.193938e+00
    endloop
  endfacet
  facet normal -8.315153e-02 -6.130369e-01 7.856664e-01
    outer loop
      vertex   -8.328525e-01 -6.374526e+00 9.193938e+00
      vertex   -9.744812e-01 -6.355316e+00 9.193938e+00
      vertex   -9.891184e-01 -6.450776e+00 9.117904e+00
    endloop
  endfacet
  facet normal -4.306068e-02 -5.993303e-01 7.993429e-01
    outer loop
      vertex   -3.997480e-01 -6.218859e+00 9.342395e+00
      vertex   -5.433064e-01 -6.306737e+00 9.268772e+00
      vertex   -4.060308e-01 -6.316600e+00 9.268772e+00
    endloop
  endfacet
  facet normal -4.370456e-02 -6.082921e-01 7.925091e-01
    outer loop
      vertex   -4.060308e-01 -6.316600e+00 9.268772e+00
      vertex   -5.433064e-01 -6.306737e+00 9.268772e+00
      vertex   -5.516537e-01 -6.403634e+00 9.193938e+00
    endloop
  endfacet
  facet normal -4.370456e-02 -6.082921e-01 7.925091e-01
    outer loop
      vertex   -4.060308e-01 -6.316600e+00 9.268772e+00
      vertex   -5.516537e-01 -6.403634e+00 9.193938e+00
      vertex   -4.122691e-01 -6.413649e+00 9.193938e+00
    endloop
  endfacet
  facet normal -4.434270e-02 -6.171738e-01 7.855764e-01
    outer loop
      vertex   -4.122691e-01 -6.413649e+00 9.193938e+00
      vertex   -5.516537e-01 -6.403634e+00 9.193938e+00
      vertex   -5.599398e-01 -6.499820e+00 9.117904e+00
    endloop
  endfacet
  facet normal -4.434270e-02 -6.171738e-01 7.855764e-01
    outer loop
      vertex   -4.122691e-01 -6.413649e+00 9.193938e+00
      vertex   -5.599398e-01 -6.499820e+00 9.117904e+00
      vertex   -4.184615e-01 -6.509985e+00 9.117904e+00
    endloop
  endfacet
  facet normal -4.497495e-02 -6.259737e-01 7.785462e-01
    outer loop
      vertex   -4.184615e-01 -6.509985e+00 9.117904e+00
      vertex   -5.599398e-01 -6.499820e+00 9.117904e+00
      vertex   -5.681629e-01 -6.595274e+00 9.040681e+00
    endloop
  endfacet
  facet normal -3.300722e-02 -6.463092e-01 7.623614e-01
    outer loop
      vertex   -2.880670e-01 -6.755017e+00 8.922643e+00
      vertex   -4.337340e-01 -6.747578e+00 8.922643e+00
      vertex   -4.367515e-01 -6.794520e+00 8.882716e+00
    endloop
  endfacet
  facet normal -4.637542e-02 -6.454658e-01 7.623800e-01
    outer loop
      vertex   -4.367515e-01 -6.794520e+00 8.882716e+00
      vertex   -4.337340e-01 -6.747578e+00 8.922643e+00
      vertex   -5.844134e-01 -6.783911e+00 8.882716e+00
    endloop
  endfacet
  facet normal -4.668239e-02 -6.497383e-01 7.587232e-01
    outer loop
      vertex   -4.367515e-01 -6.794520e+00 8.882716e+00
      vertex   -5.844134e-01 -6.783911e+00 8.882716e+00
      vertex   -5.884341e-01 -6.830583e+00 8.842500e+00
    endloop
  endfacet
  facet normal -6.022588e-02 -6.485934e-01 7.587486e-01
    outer loop
      vertex   -5.884341e-01 -6.830583e+00 8.842500e+00
      vertex   -5.844134e-01 -6.783911e+00 8.882716e+00
      vertex   -7.380080e-01 -6.816694e+00 8.842500e+00
    endloop
  endfacet
  facet normal -6.061991e-02 -6.528369e-01 7.550690e-01
    outer loop
      vertex   -5.884341e-01 -6.830583e+00 8.842500e+00
      vertex   -7.380080e-01 -6.816694e+00 8.842500e+00
      vertex   -7.430291e-01 -6.863072e+00 8.801999e+00
    endloop
  endfacet
  facet normal -7.433115e-02 -6.513807e-01 7.551014e-01
    outer loop
      vertex   -7.430291e-01 -6.863072e+00 8.801999e+00
      vertex   -7.380080e-01 -6.816694e+00 8.842500e+00
      vertex   -8.944253e-01 -6.845796e+00 8.801999e+00
    endloop
  endfacet
  facet normal -7.481183e-02 -6.555930e-01 7.513994e-01
    outer loop
      vertex   -7.430291e-01 -6.863072e+00 8.801999e+00
      vertex   -8.944253e-01 -6.845796e+00 8.801999e+00
      vertex   -9.004433e-01 -6.891856e+00 8.761212e+00
    endloop
  endfacet
  facet normal -8.868272e-02 -6.538157e-01 7.514389e-01
    outer loop
      vertex   -9.004433e-01 -6.891856e+00 8.761212e+00
      vertex   -8.944253e-01 -6.845796e+00 8.801999e+00
      vertex   -1.053566e+00 -6.871087e+00 8.761212e+00
    endloop
  endfacet
  facet normal -8.924958e-02 -6.579949e-01 7.477147e-01
    outer loop
      vertex   -9.004433e-01 -6.891856e+00 8.761212e+00
      vertex   -1.053566e+00 -6.871087e+00 8.761212e+00
      vertex   -1.060576e+00 -6.916805e+00 8.720142e+00
    endloop
  endfacet
  facet normal -1.032477e-01 -6.558907e-01 7.477616e-01
    outer loop
      vertex   -1.060576e+00 -6.916805e+00 8.720142e+00
      vertex   -1.053566e+00 -6.871087e+00 8.761212e+00
      vertex   -1.215139e+00 -6.891398e+00 8.721087e+00
    endloop
  endfacet
  facet normal -4.637542e-02 -6.454658e-01 7.623800e-01
    outer loop
      vertex   -5.844134e-01 -6.783911e+00 8.882716e+00
      vertex   -4.337340e-01 -6.747578e+00 8.922643e+00
      vertex   -5.803758e-01 -6.737042e+00 8.922643e+00
    endloop
  endfacet
  facet normal -3.387436e-02 -6.632885e-01 7.475968e-01
    outer loop
      vertex   -2.960323e-01 -6.941798e+00 8.761212e+00
      vertex   -4.457271e-01 -6.934153e+00 8.761212e+00
      vertex   -4.486928e-01 -6.980292e+00 8.720142e+00
    endloop
  endfacet
  facet normal -4.759381e-02 -6.624237e-01 7.476160e-01
    outer loop
      vertex   -4.486928e-01 -6.980292e+00 8.720142e+00
      vertex   -4.457271e-01 -6.934153e+00 8.761212e+00
      vertex   -6.003921e-01 -6.969392e+00 8.720142e+00
    endloop
  endfacet
  facet normal -4.789441e-02 -6.666075e-01 7.438687e-01
    outer loop
      vertex   -4.486928e-01 -6.980292e+00 8.720142e+00
      vertex   -6.003921e-01 -6.969392e+00 8.720142e+00
      vertex   -6.043428e-01 -7.015252e+00 8.678792e+00
    endloop
  endfacet
  facet normal -6.178964e-02 -6.654341e-01 7.438948e-01
    outer loop
      vertex   -6.043428e-01 -7.015252e+00 8.678792e+00
      vertex   -6.003921e-01 -6.969392e+00 8.720142e+00
      vertex   -7.579605e-01 -7.000988e+00 8.678792e+00
    endloop
  endfacet
  facet normal -6.217537e-02 -6.695882e-01 7.401256e-01
    outer loop
      vertex   -6.043428e-01 -7.015252e+00 8.678792e+00
      vertex   -7.579605e-01 -7.000988e+00 8.678792e+00
      vertex   -7.628928e-01 -7.046546e+00 8.637161e+00
    endloop
  endfacet
  facet normal -7.623860e-02 -6.680961e-01 7.401590e-01
    outer loop
      vertex   -7.628928e-01 -7.046546e+00 8.637161e+00
      vertex   -7.579605e-01 -7.000988e+00 8.678792e+00
      vertex   -9.183364e-01 -7.028808e+00 8.637161e+00
    endloop
  endfacet
  facet normal -7.670903e-02 -6.722186e-01 7.363680e-01
    outer loop
      vertex   -7.628928e-01 -7.046546e+00 8.637161e+00
      vertex   -9.183364e-01 -7.028808e+00 8.637161e+00
      vertex   -9.242463e-01 -7.074041e+00 8.595253e+00
    endloop
  endfacet
  facet normal -9.093192e-02 -6.703980e-01 7.364088e-01
    outer loop
      vertex   -9.242463e-01 -7.074041e+00 8.595253e+00
      vertex   -9.183364e-01 -7.028808e+00 8.637161e+00
      vertex   -1.081417e+00 -7.052722e+00 8.595253e+00
    endloop
  endfacet
  facet normal -4.759381e-02 -6.624237e-01 7.476160e-01
    outer loop
      vertex   -6.003921e-01 -6.969392e+00 8.720142e+00
      vertex   -4.457271e-01 -6.934153e+00 8.761212e+00
      vertex   -5.964236e-01 -6.923326e+00 8.761212e+00
    endloop
  endfacet
  facet normal -4.849071e-02 -6.749069e-01 7.363079e-01
    outer loop
      vertex   -6.121900e-01 -7.106343e+00 8.595253e+00
      vertex   -4.575098e-01 -7.117456e+00 8.595253e+00
      vertex   -4.545843e-01 -7.071945e+00 8.637161e+00
    endloop
  endfacet
  facet normal -5.638389e-02 -6.072178e-01 7.925323e-01
    outer loop
      vertex   -5.516537e-01 -6.403634e+00 9.193938e+00
      vertex   -5.433064e-01 -6.306737e+00 9.268772e+00
      vertex   -6.918784e-01 -6.390613e+00 9.193938e+00
    endloop
  endfacet
  facet normal -5.720721e-02 -6.160843e-01 7.856001e-01
    outer loop
      vertex   -5.599398e-01 -6.499820e+00 9.117904e+00
      vertex   -5.516537e-01 -6.403634e+00 9.193938e+00
      vertex   -7.022708e-01 -6.486603e+00 9.117904e+00
    endloop
  endfacet
  facet normal -5.720721e-02 -6.160843e-01 7.856001e-01
    outer loop
      vertex   -7.022708e-01 -6.486603e+00 9.117904e+00
      vertex   -5.516537e-01 -6.403634e+00 9.193938e+00
      vertex   -6.918784e-01 -6.390613e+00 9.193938e+00
    endloop
  endfacet
  facet normal -7.014622e-02 -6.147072e-01 7.856300e-01
    outer loop
      vertex   -7.022708e-01 -6.486603e+00 9.117904e+00
      vertex   -6.918784e-01 -6.390613e+00 9.193938e+00
      vertex   -8.453623e-01 -6.470275e+00 9.117904e+00
    endloop
  endfacet
  facet normal -5.802294e-02 -6.248692e-01 7.785703e-01
    outer loop
      vertex   -5.681629e-01 -6.595274e+00 9.040681e+00
      vertex   -5.599398e-01 -6.499820e+00 9.117904e+00
      vertex   -7.125841e-01 -6.581864e+00 9.040681e+00
    endloop
  endfacet
  facet normal -5.802294e-02 -6.248692e-01 7.785703e-01
    outer loop
      vertex   -7.125841e-01 -6.581864e+00 9.040681e+00
      vertex   -5.599398e-01 -6.499820e+00 9.117904e+00
      vertex   -7.022708e-01 -6.486603e+00 9.117904e+00
    endloop
  endfacet
  facet normal -7.114653e-02 -6.234732e-01 7.786009e-01
    outer loop
      vertex   -7.125841e-01 -6.581864e+00 9.040681e+00
      vertex   -7.022708e-01 -6.486603e+00 9.117904e+00
      vertex   -8.577770e-01 -6.565295e+00 9.040681e+00
    endloop
  endfacet
  facet normal -7.114653e-02 -6.234732e-01 7.786009e-01
    outer loop
      vertex   -8.577770e-01 -6.565295e+00 9.040681e+00
      vertex   -7.022708e-01 -6.486603e+00 9.117904e+00
      vertex   -8.453623e-01 -6.470275e+00 9.117904e+00
    endloop
  endfacet
  facet normal -8.433742e-02 -6.217799e-01 7.786379e-01
    outer loop
      vertex   -8.577770e-01 -6.565295e+00 9.040681e+00
      vertex   -8.453623e-01 -6.470275e+00 9.117904e+00
      vertex   -1.003644e+00 -6.545510e+00 9.040681e+00
    endloop
  endfacet
  facet normal -5.883095e-02 -6.335709e-01 7.714446e-01
    outer loop
      vertex   -5.681629e-01 -6.595274e+00 9.040681e+00
      vertex   -7.125841e-01 -6.581864e+00 9.040681e+00
      vertex   -7.228163e-01 -6.676375e+00 8.962281e+00
    endloop
  endfacet
  facet normal -7.213737e-02 -6.321562e-01 7.714757e-01
    outer loop
      vertex   -7.228163e-01 -6.676375e+00 8.962281e+00
      vertex   -7.125841e-01 -6.581864e+00 9.040681e+00
      vertex   -8.700941e-01 -6.659568e+00 8.962281e+00
    endloop
  endfacet
  facet normal -7.287412e-02 -6.386124e-01 7.660702e-01
    outer loop
      vertex   -7.228163e-01 -6.676375e+00 8.962281e+00
      vertex   -8.700941e-01 -6.659568e+00 8.962281e+00
      vertex   -8.762152e-01 -6.706418e+00 8.922643e+00
    endloop
  endfacet
  facet normal -8.638551e-02 -6.368795e-01 7.661084e-01
    outer loop
      vertex   -8.762152e-01 -6.706418e+00 8.922643e+00
      vertex   -8.700941e-01 -6.659568e+00 8.962281e+00
      vertex   -1.025218e+00 -6.686208e+00 8.922643e+00
    endloop
  endfacet
  facet normal -8.696422e-02 -6.411461e-01 7.624755e-01
    outer loop
      vertex   -8.762152e-01 -6.706418e+00 8.922643e+00
      vertex   -1.025218e+00 -6.686208e+00 8.922643e+00
      vertex   -1.032350e+00 -6.732724e+00 8.882716e+00
    endloop
  endfacet
  facet normal -1.006385e-01 -6.390882e-01 7.625209e-01
    outer loop
      vertex   -1.032350e+00 -6.732724e+00 8.882716e+00
      vertex   -1.025218e+00 -6.686208e+00 8.922643e+00
      vertex   -1.183048e+00 -6.709399e+00 8.882375e+00
    endloop
  endfacet
  facet normal -7.213737e-02 -6.321562e-01 7.714757e-01
    outer loop
      vertex   -8.700941e-01 -6.659568e+00 8.962281e+00
      vertex   -7.125841e-01 -6.581864e+00 9.040681e+00
      vertex   -8.577770e-01 -6.565295e+00 9.040681e+00
    endloop
  endfacet
  facet normal -5.982982e-02 -6.443281e-01 7.624052e-01
    outer loop
      vertex   -5.844134e-01 -6.783911e+00 8.882716e+00
      vertex   -5.803758e-01 -6.737042e+00 8.922643e+00
      vertex   -7.329653e-01 -6.770117e+00 8.882716e+00
    endloop
  endfacet
  facet normal -5.982982e-02 -6.443281e-01 7.624052e-01
    outer loop
      vertex   -7.329653e-01 -6.770117e+00 8.882716e+00
      vertex   -5.803758e-01 -6.737042e+00 8.922643e+00
      vertex   -7.279013e-01 -6.723343e+00 8.922643e+00
    endloop
  endfacet
  facet normal -7.336227e-02 -6.428902e-01 7.624370e-01
    outer loop
      vertex   -7.329653e-01 -6.770117e+00 8.882716e+00
      vertex   -7.279013e-01 -6.723343e+00 8.922643e+00
      vertex   -8.823110e-01 -6.753075e+00 8.882716e+00
    endloop
  endfacet
  facet normal -6.022588e-02 -6.485934e-01 7.587486e-01
    outer loop
      vertex   -5.844134e-01 -6.783911e+00 8.882716e+00
      vertex   -7.329653e-01 -6.770117e+00 8.882716e+00
      vertex   -7.380080e-01 -6.816694e+00 8.842500e+00
    endloop
  endfacet
  facet normal -7.384795e-02 -6.471463e-01 7.587807e-01
    outer loop
      vertex   -7.380080e-01 -6.816694e+00 8.842500e+00
      vertex   -7.329653e-01 -6.770117e+00 8.882716e+00
      vertex   -8.883812e-01 -6.799535e+00 8.842500e+00
    endloop
  endfacet
  facet normal -7.433115e-02 -6.513807e-01 7.551014e-01
    outer loop
      vertex   -7.380080e-01 -6.816694e+00 8.842500e+00
      vertex   -8.883812e-01 -6.799535e+00 8.842500e+00
      vertex   -8.944253e-01 -6.845796e+00 8.801999e+00
    endloop
  endfacet
  facet normal -8.811285e-02 -6.496144e-01 7.551406e-01
    outer loop
      vertex   -8.944253e-01 -6.845796e+00 8.801999e+00
      vertex   -8.883812e-01 -6.799535e+00 8.842500e+00
      vertex   -1.046525e+00 -6.825165e+00 8.801999e+00
    endloop
  endfacet
  facet normal -8.868272e-02 -6.538157e-01 7.514389e-01
    outer loop
      vertex   -8.944253e-01 -6.845796e+00 8.801999e+00
      vertex   -1.046525e+00 -6.825165e+00 8.801999e+00
      vertex   -1.053566e+00 -6.871087e+00 8.761212e+00
    endloop
  endfacet
  facet normal -1.047367e-01 -6.513900e-01 7.514794e-01
    outer loop
      vertex   -1.053566e+00 -6.871087e+00 8.761212e+00
      vertex   -1.046525e+00 -6.825165e+00 8.801999e+00
      vertex   -1.215139e+00 -6.891398e+00 8.721087e+00
    endloop
  endfacet
  facet normal -7.384795e-02 -6.471463e-01 7.587807e-01
    outer loop
      vertex   -8.883812e-01 -6.799535e+00 8.842500e+00
      vertex   -7.329653e-01 -6.770117e+00 8.882716e+00
      vertex   -8.823110e-01 -6.753075e+00 8.882716e+00
    endloop
  endfacet
  facet normal -6.140180e-02 -6.612574e-01 7.476420e-01
    outer loop
      vertex   -6.003921e-01 -6.969392e+00 8.720142e+00
      vertex   -5.964236e-01 -6.923326e+00 8.761212e+00
      vertex   -7.530056e-01 -6.955221e+00 8.720142e+00
    endloop
  endfacet
  facet normal -6.140180e-02 -6.612574e-01 7.476420e-01
    outer loop
      vertex   -7.530056e-01 -6.955221e+00 8.720142e+00
      vertex   -5.964236e-01 -6.923326e+00 8.761212e+00
      vertex   -7.480284e-01 -6.909249e+00 8.761212e+00
    endloop
  endfacet
  facet normal -7.528998e-02 -6.597831e-01 7.476748e-01
    outer loop
      vertex   -7.530056e-01 -6.955221e+00 8.720142e+00
      vertex   -7.480284e-01 -6.909249e+00 8.761212e+00
      vertex   -9.064346e-01 -6.937713e+00 8.720142e+00
    endloop
  endfacet
  facet normal -6.178964e-02 -6.654341e-01 7.438948e-01
    outer loop
      vertex   -6.003921e-01 -6.969392e+00 8.720142e+00
      vertex   -7.530056e-01 -6.955221e+00 8.720142e+00
      vertex   -7.579605e-01 -7.000988e+00 8.678792e+00
    endloop
  endfacet
  facet normal -7.576557e-02 -6.639509e-01 7.439280e-01
    outer loop
      vertex   -7.579605e-01 -7.000988e+00 8.678792e+00
      vertex   -7.530056e-01 -6.955221e+00 8.720142e+00
      vertex   -9.123991e-01 -6.983364e+00 8.678792e+00
    endloop
  endfacet
  facet normal -7.623860e-02 -6.680961e-01 7.401590e-01
    outer loop
      vertex   -7.579605e-01 -7.000988e+00 8.678792e+00
      vertex   -9.123991e-01 -6.983364e+00 8.678792e+00
      vertex   -9.183364e-01 -7.028808e+00 8.637161e+00
    endloop
  endfacet
  facet normal -9.037421e-02 -6.662863e-01 7.401994e-01
    outer loop
      vertex   -9.183364e-01 -7.028808e+00 8.637161e+00
      vertex   -9.123991e-01 -6.983364e+00 8.678792e+00
      vertex   -1.074502e+00 -7.007626e+00 8.637161e+00
    endloop
  endfacet
  facet normal -9.093192e-02 -6.703980e-01 7.364088e-01
    outer loop
      vertex   -9.183364e-01 -7.028808e+00 8.637161e+00
      vertex   -1.074502e+00 -7.007626e+00 8.637161e+00
      vertex   -1.081417e+00 -7.052722e+00 8.595253e+00
    endloop
  endfacet
  facet normal -7.576557e-02 -6.639509e-01 7.439280e-01
    outer loop
      vertex   -9.123991e-01 -6.983364e+00 8.678792e+00
      vertex   -7.530056e-01 -6.955221e+00 8.720142e+00
      vertex   -9.064346e-01 -6.937713e+00 8.720142e+00
    endloop
  endfacet
  facet normal -7.643905e-02 -5.635489e-01 8.225386e-01
    outer loop
      vertex   -8.844913e-01 -5.768425e+00 9.624576e+00
      vertex   -9.148802e-01 -5.966614e+00 9.485966e+00
      vertex   -7.559415e-01 -5.785862e+00 9.624576e+00
    endloop
  endfacet
  facet normal -8.551208e-02 -6.304401e-01 7.715134e-01
    outer loop
      vertex   -8.700941e-01 -6.659568e+00 8.962281e+00
      vertex   -8.577770e-01 -6.565295e+00 9.040681e+00
      vertex   -1.018056e+00 -6.639499e+00 8.962281e+00
    endloop
  endfacet
  facet normal -8.551208e-02 -6.304401e-01 7.715134e-01
    outer loop
      vertex   -1.018056e+00 -6.639499e+00 8.962281e+00
      vertex   -8.577770e-01 -6.565295e+00 9.040681e+00
      vertex   -1.003644e+00 -6.545510e+00 9.040681e+00
    endloop
  endfacet
  facet normal -1.022406e-01 -6.344809e-01 7.661468e-01
    outer loop
      vertex   -1.183048e+00 -6.709399e+00 8.882375e+00
      vertex   -1.025218e+00 -6.686208e+00 8.922643e+00
      vertex   -1.018056e+00 -6.639499e+00 8.962281e+00
    endloop
  endfacet
  facet normal -8.638551e-02 -6.368795e-01 7.661084e-01
    outer loop
      vertex   -1.018056e+00 -6.639499e+00 8.962281e+00
      vertex   -1.025218e+00 -6.686208e+00 8.922643e+00
      vertex   -8.700941e-01 -6.659568e+00 8.962281e+00
    endloop
  endfacet
  facet normal -8.754001e-02 -6.453911e-01 7.588195e-01
    outer loop
      vertex   -8.883812e-01 -6.799535e+00 8.842500e+00
      vertex   -8.823110e-01 -6.753075e+00 8.882716e+00
      vertex   -1.039453e+00 -6.779044e+00 8.842500e+00
    endloop
  endfacet
  facet normal -8.811285e-02 -6.496144e-01 7.551406e-01
    outer loop
      vertex   -1.039453e+00 -6.779044e+00 8.842500e+00
      vertex   -1.046525e+00 -6.825165e+00 8.801999e+00
      vertex   -8.883812e-01 -6.799535e+00 8.842500e+00
    endloop
  endfacet
  facet normal -8.981342e-02 -6.621518e-01 7.439681e-01
    outer loop
      vertex   -9.123991e-01 -6.983364e+00 8.678792e+00
      vertex   -9.064346e-01 -6.937713e+00 8.720142e+00
      vertex   -1.067555e+00 -6.962319e+00 8.678792e+00
    endloop
  endfacet
  facet normal -9.037421e-02 -6.662863e-01 7.401994e-01
    outer loop
      vertex   -1.067555e+00 -6.962319e+00 8.678792e+00
      vertex   -1.074502e+00 -7.007626e+00 8.637161e+00
      vertex   -9.123991e-01 -6.983364e+00 8.678792e+00
    endloop
  endfacet
  facet normal 1.000000e+00 -1.401863e-15 -8.035289e-16
    outer loop
      vertex   -5.694612e-17 -5.632847e+00 9.756377e+00
      vertex   -4.515714e-16 -5.837140e+00 9.621678e+00
      vertex   0.000000e+00 0.000000e+00 0.000000e+00
    endloop
  endfacet
  facet normal 1.000000e+00 -7.138977e-17 3.623000e-18
    outer loop
      vertex   0.000000e+00 0.000000e+00 0.000000e+00
      vertex   -4.515714e-16 -5.837140e+00 9.621678e+00
      vertex   -4.654302e-16 -6.038339e+00 9.482359e+00
    endloop
  endfacet
  facet normal 1.000000e+00 -9.202353e-17 -9.516526e-18
    outer loop
      vertex   0.000000e+00 0.000000e+00 0.000000e+00
      vertex   -4.654302e-16 -6.038339e+00 9.482359e+00
      vertex   -4.850238e-16 -6.236380e+00 9.338484e+00
    endloop
  endfacet
  facet normal 1.000000e+00 -1.026445e-16 -1.660937e-17
    outer loop
      vertex   -4.850238e-16 -6.236380e+00 9.338484e+00
      vertex   -5.074846e-16 -6.431194e+00 9.190120e+00
      vertex   0.000000e+00 0.000000e+00 0.000000e+00
    endloop
  endfacet
  facet normal 1.000000e+00 -1.035303e-16 -1.722926e-17
    outer loop
      vertex   0.000000e+00 0.000000e+00 0.000000e+00
      vertex   -5.074846e-16 -6.431194e+00 9.190120e+00
      vertex   -5.299455e-16 -6.622717e+00 9.037331e+00
    endloop
  endfacet
  facet normal 1.000000e+00 -9.497570e-17 -1.096028e-17
    outer loop
      vertex   0.000000e+00 0.000000e+00 0.000000e+00
      vertex   -5.299455e-16 -6.622717e+00 9.037331e+00
      vertex   -5.495390e-16 -6.810883e+00 8.880183e+00
    endloop
  endfacet
  facet normal 1.000000e+00 -7.729186e-17 2.602791e-18
    outer loop
      vertex   -5.495390e-16 -6.810883e+00 8.880183e+00
      vertex   -5.633979e-16 -6.995624e+00 8.718740e+00
      vertex   0.000000e+00 0.000000e+00 0.000000e+00
    endloop
  endfacet
  facet normal 1.000000e+00 1.728359e-15 1.451396e-15
    outer loop
      vertex   0.000000e+00 0.000000e+00 0.000000e+00
      vertex   -5.633979e-16 -6.995624e+00 8.718740e+00
      vertex   -9.673838e-18 -7.176877e+00 8.553069e+00
    endloop
  endfacet
  facet normal 1.317521e-01 8.559968e-01 4.999108e-01
    outer loop
      vertex   -7.353310e-01 -5.585229e+00 9.757382e+00
      vertex   -4.902548e-01 -3.723782e+00 6.505437e+00
      vertex   -9.783119e-01 -5.548282e+00 9.758155e+00
    endloop
  endfacet
  facet normal 1.317518e-01 8.559969e-01 4.999108e-01
    outer loop
      vertex   -9.783119e-01 -5.548282e+00 9.758155e+00
      vertex   -4.902548e-01 -3.723782e+00 6.505437e+00
      vertex   -2.451250e-01 -1.861891e+00 3.252718e+00
    endloop
  endfacet
  facet normal 1.317511e-01 8.559970e-01 4.999108e-01
    outer loop
      vertex   -9.783119e-01 -5.548282e+00 9.758155e+00
      vertex   -2.451250e-01 -1.861891e+00 3.252718e+00
      vertex   0.000000e+00 0.000000e+00 0.000000e+00
    endloop
  endfacet
  facet normal 9.428832e-02 8.609291e-01 4.999108e-01
    outer loop
      vertex   0.000000e+00 0.000000e+00 0.000000e+00
      vertex   -2.451250e-01 -1.861891e+00 3.252718e+00
      vertex   -1.636778e-01 -1.870811e+00 3.252718e+00
    endloop
  endfacet
  facet normal 9.429089e-02 8.609289e-01 4.999107e-01
    outer loop
      vertex   -7.353310e-01 -5.585229e+00 9.757382e+00
      vertex   -4.909843e-01 -5.611667e+00 9.756825e+00
      vertex   -4.902548e-01 -3.723782e+00 6.505437e+00
    endloop
  endfacet
  facet normal 9.428955e-02 8.609290e-01 4.999108e-01
    outer loop
      vertex   -4.902548e-01 -3.723782e+00 6.505437e+00
      vertex   -4.909843e-01 -5.611667e+00 9.756825e+00
      vertex   -3.273616e-01 -3.741622e+00 6.505437e+00
    endloop
  endfacet
  facet normal 9.428955e-02 8.609290e-01 4.999107e-01
    outer loop
      vertex   -4.902548e-01 -3.723782e+00 6.505437e+00
      vertex   -3.273616e-01 -3.741622e+00 6.505437e+00
      vertex   -2.451250e-01 -1.861891e+00 3.252718e+00
    endloop
  endfacet
  facet normal 9.428832e-02 8.609291e-01 4.999108e-01
    outer loop
      vertex   -2.451250e-01 -1.861891e+00 3.252718e+00
      vertex   -3.273616e-01 -3.741622e+00 6.505437e+00
      vertex   -1.636778e-01 -1.870811e+00 3.252718e+00
    endloop
  endfacet
  facet normal 5.664731e-02 8.642224e-01 4.999107e-01
    outer loop
      vertex   -4.909843e-01 -5.611667e+00 9.756825e+00
      vertex   -2.457198e-01 -5.627550e+00 9.756489e+00
      vertex   -3.273616e-01 -3.741622e+00 6.505437e+00
    endloop
  endfacet
  facet normal 5.664632e-02 8.642224e-01 4.999108e-01
    outer loop
      vertex   -3.273616e-01 -3.741622e+00 6.505437e+00
      vertex   -2.457198e-01 -5.627550e+00 9.756489e+00
      vertex   -1.638377e-01 -3.752341e+00 6.505437e+00
    endloop
  endfacet
  facet normal 5.664632e-02 8.642225e-01 4.999107e-01
    outer loop
      vertex   -3.273616e-01 -3.741622e+00 6.505437e+00
      vertex   -1.638377e-01 -3.752341e+00 6.505437e+00
      vertex   -1.636778e-01 -1.870811e+00 3.252718e+00
    endloop
  endfacet
  facet normal 5.664523e-02 8.642225e-01 4.999108e-01
    outer loop
      vertex   -1.636778e-01 -1.870811e+00 3.252718e+00
      vertex   -1.638377e-01 -3.752341e+00 6.505437e+00
      vertex   -8.191711e-02 -1.876170e+00 3.252718e+00
    endloop
  endfacet
  facet normal 5.664523e-02 8.642225e-01 4.999107e-01
    outer loop
      vertex   -1.636778e-01 -1.870811e+00 3.252718e+00
      vertex   -8.191711e-02 -1.876170e+00 3.252718e+00
      vertex   0.000000e+00 0.000000e+00 0.000000e+00
    endloop
  endfacet
  facet normal 1.889467e-02 8.658708e-01 4.999107e-01
    outer loop
      vertex   -2.457198e-01 -5.627550e+00 9.756489e+00
      vertex   -5.694612e-17 -5.632847e+00 9.756377e+00
      vertex   -1.638377e-01 -3.752341e+00 6.505437e+00
    endloop
  endfacet
  facet normal 1.889430e-02 8.658708e-01 4.999107e-01
    outer loop
      vertex   -1.638377e-01 -3.752341e+00 6.505437e+00
      vertex   -5.694612e-17 -5.632847e+00 9.756377e+00
      vertex   -8.191711e-02 -1.876170e+00 3.252718e+00
    endloop
  endfacet
  facet normal 1.889377e-02 8.658708e-01 4.999107e-01
    outer loop
      vertex   -5.694612e-17 -5.632847e+00 9.756377e+00
      vertex   0.000000e+00 0.000000e+00 0.000000e+00
      vertex   -8.191711e-02 -1.876170e+00 3.252718e+00
    endloop
  endfacet
  facet normal -1.671362e-02 -7.659374e-01 -6.426978e-01
    outer loop
      vertex   0.000000e+00 0.000000e+00 0.000000e+00
      vertex   -9.673838e-18 -7.176877e+00 8.553069e+00
      vertex   -1.565797e-01 -3.586084e+00 4.277800e+00
    endloop
  endfacet
  facet normal -1.671461e-02 -7.659374e-01 -6.426978e-01
    outer loop
      vertex   -1.565797e-01 -3.586084e+00 4.277800e+00
      vertex   -9.673838e-18 -7.176877e+00 8.553069e+00
      vertex   -3.130884e-01 -7.170178e+00 8.553228e+00
    endloop
  endfacet
  facet normal -5.010888e-02 -7.644793e-01 -6.426979e-01
    outer loop
      vertex   -1.565797e-01 -3.586084e+00 4.277800e+00
      vertex   -3.130884e-01 -7.170178e+00 8.553228e+00
      vertex   -3.128588e-01 -3.575840e+00 4.277800e+00
    endloop
  endfacet
  facet normal -5.011099e-02 -7.644792e-01 -6.426978e-01
    outer loop
      vertex   -3.128588e-01 -3.575840e+00 4.277800e+00
      vertex   -3.130884e-01 -7.170178e+00 8.553228e+00
      vertex   -6.256054e-01 -7.150095e+00 8.553706e+00
    endloop
  endfacet
  facet normal -8.340762e-02 -7.615659e-01 -6.426979e-01
    outer loop
      vertex   -3.128588e-01 -3.575840e+00 4.277800e+00
      vertex   -6.256054e-01 -7.150095e+00 8.553706e+00
      vertex   -4.685346e-01 -3.558790e+00 4.277800e+00
    endloop
  endfacet
  facet normal -8.341034e-02 -7.615657e-01 -6.426978e-01
    outer loop
      vertex   -4.685346e-01 -3.558790e+00 4.277800e+00
      vertex   -6.256054e-01 -7.150095e+00 8.553706e+00
      vertex   -9.369703e-01 -7.116661e+00 8.554499e+00
    endloop
  endfacet
  facet normal -1.165469e-01 -7.572029e-01 -6.426979e-01
    outer loop
      vertex   -4.685346e-01 -3.558790e+00 4.277800e+00
      vertex   -9.369703e-01 -7.116661e+00 8.554499e+00
      vertex   -1.246620e+00 -7.069935e+00 8.555600e+00
    endloop
  endfacet
  facet normal -1.165459e-01 -7.572031e-01 -6.426978e-01
    outer loop
      vertex   -1.246620e+00 -7.069935e+00 8.555600e+00
      vertex   0.000000e+00 0.000000e+00 0.000000e+00
      vertex   -4.685346e-01 -3.558790e+00 4.277800e+00
    endloop
  endfacet
  facet normal -8.340763e-02 -7.615659e-01 -6.426978e-01
    outer loop
      vertex   -4.685346e-01 -3.558790e+00 4.277800e+00
      vertex   0.000000e+00 0.000000e+00 0.000000e+00
      vertex   -3.128588e-01 -3.575840e+00 4.277800e+00
    endloop
  endfacet
  facet normal -5.010888e-02 -7.644793e-01 -6.426978e-01
    outer loop
      vertex   -3.128588e-01 -3.575840e+00 4.277800e+00
      vertex   0.000000e+00 0.000000e+00 0.000000e+00
      vertex   -1.565797e-01 -3.586084e+00 4.277800e+00
    endloop
  endfacet
endsolid
