solid ASCII
  facet normal 9.396926e-01 -3.420201e-01 4.883493e-14
    outer loop
      vertex   -1.328100e+00 -3.648924e+00 -1.066874e+01
      vertex   0.000000e+00 0.000000e+00 8.881784e-15
      vertex   -1.406215e+00 -3.863543e+00 -1.057349e+01
    endloop
  endfacet
  facet normal 9.396926e-01 -3.420201e-01 2.898412e-14
    outer loop
      vertex   -1.406215e+00 -3.863543e+00 -1.057349e+01
      vertex   0.000000e+00 0.000000e+00 8.881784e-15
      vertex   -1.483590e+00 -4.076129e+00 -1.047285e+01
    endloop
  endfacet
  facet normal 9.396926e-01 -3.420201e-01 -1.381177e-14
    outer loop
      vertex   -1.483590e+00 -4.076129e+00 -1.047285e+01
      vertex   0.000000e+00 0.000000e+00 8.881784e-15
      vertex   -1.560083e+00 -4.286293e+00 -1.036702e+01
    endloop
  endfacet
  facet normal 9.396926e-01 -3.420201e-01 -2.259570e-14
    outer loop
      vertex   -1.560083e+00 -4.286293e+00 -1.036702e+01
      vertex   0.000000e+00 0.000000e+00 8.881784e-15
      vertex   -1.635630e+00 -4.493856e+00 -1.025613e+01
    endloop
  endfacet
  facet normal 9.396926e-01 -3.420201e-01 -2.514384e-14
    outer loop
      vertex   -1.635630e+00 -4.493856e+00 -1.025613e+01
      vertex   0.000000e+00 0.000000e+00 8.881784e-15
      vertex   -1.710208e+00 -4.698759e+00 -1.014024e+01
    endloop
  endfacet
  facet normal 9.396926e-01 -3.420201e-01 -2.614303e-14
    outer loop
      vertex   -1.710208e+00 -4.698759e+00 -1.014024e+01
      vertex   0.000000e+00 0.000000e+00 8.881784e-15
      vertex   -1.783796e+00 -4.900939e+00 -1.001942e+01
    endloop
  endfacet
  facet normal 9.396926e-01 -3.420201e-01 -2.023652e-14
    outer loop
      vertex   -1.783796e+00 -4.900939e+00 -1.001942e+01
      vertex   0.000000e+00 0.000000e+00 8.881784e-15
      vertex   -1.856371e+00 -5.100336e+00 -9.893746e+00
    endloop
  endfacet
  facet normal 9.396926e-01 -3.420201e-01 -7.354643e-15
    outer loop
      vertex   -1.856371e+00 -5.100336e+00 -9.893746e+00
      vertex   0.000000e+00 0.000000e+00 8.881784e-15
      vertex   -1.927910e+00 -5.296890e+00 -9.763281e+00
    endloop
  endfacet
  facet normal -1.795155e-01 -3.385092e-01 -9.236805e-01
    outer loop
      vertex   -2.056638e+00 -3.562201e+00 -1.057801e+01
      vertex   -1.942294e+00 -3.364152e+00 -1.067282e+01
      vertex   -1.928526e+00 -3.627157e+00 -1.057911e+01
    endloop
  endfacet
  facet normal -1.776560e-01 -3.385364e-01 -9.240300e-01
    outer loop
      vertex   -1.928526e+00 -3.627157e+00 -1.057911e+01
      vertex   -1.942294e+00 -3.364152e+00 -1.067282e+01
      vertex   -1.793537e+00 -3.445295e+00 -1.067169e+01
    endloop
  endfacet
  facet normal -1.680954e-01 -3.452742e-01 -9.233253e-01
    outer loop
      vertex   -1.928526e+00 -3.627157e+00 -1.057911e+01
      vertex   -1.793537e+00 -3.445295e+00 -1.067169e+01
      vertex   -1.800086e+00 -3.689688e+00 -1.057911e+01
    endloop
  endfacet
  facet normal -1.630576e-01 -3.456921e-01 -9.240721e-01
    outer loop
      vertex   -1.800086e+00 -3.689688e+00 -1.057911e+01
      vertex   -1.793537e+00 -3.445295e+00 -1.067169e+01
      vertex   -1.641392e+00 -3.519895e+00 -1.067063e+01
    endloop
  endfacet
  facet normal -1.565758e-01 -3.512288e-01 -9.231047e-01
    outer loop
      vertex   -1.800086e+00 -3.689688e+00 -1.057911e+01
      vertex   -1.641392e+00 -3.519895e+00 -1.067063e+01
      vertex   -1.670298e+00 -3.747547e+00 -1.057911e+01
    endloop
  endfacet
  facet normal -1.483941e-01 -3.526006e-01 -9.239329e-01
    outer loop
      vertex   -1.670298e+00 -3.747547e+00 -1.057911e+01
      vertex   -1.641392e+00 -3.519895e+00 -1.067063e+01
      vertex   -1.486148e+00 -3.587814e+00 -1.066964e+01
    endloop
  endfacet
  facet normal -1.447524e-01 -3.563179e-01 -9.230841e-01
    outer loop
      vertex   -1.670298e+00 -3.747547e+00 -1.057911e+01
      vertex   -1.486148e+00 -3.587814e+00 -1.066964e+01
      vertex   -1.539419e+00 -3.800716e+00 -1.057911e+01
    endloop
  endfacet
  facet normal -1.336511e-01 -3.593136e-01 -9.235968e-01
    outer loop
      vertex   -1.539419e+00 -3.800716e+00 -1.057911e+01
      vertex   -1.486148e+00 -3.587814e+00 -1.066964e+01
      vertex   -1.328100e+00 -3.648924e+00 -1.066874e+01
    endloop
  endfacet
  facet normal -1.316728e-01 -3.616882e-01 -9.229539e-01
    outer loop
      vertex   -1.539419e+00 -3.800716e+00 -1.057911e+01
      vertex   -1.328100e+00 -3.648924e+00 -1.066874e+01
      vertex   -1.406215e+00 -3.863543e+00 -1.057349e+01
    endloop
  endfacet
  facet normal -1.406345e-01 -3.799119e-01 -9.142696e-01
    outer loop
      vertex   -1.539419e+00 -3.800716e+00 -1.057911e+01
      vertex   -1.406215e+00 -3.863543e+00 -1.057349e+01
      vertex   -1.623714e+00 -4.008834e+00 -1.047966e+01
    endloop
  endfacet
  facet normal -1.390206e-01 -3.819411e-01 -9.136708e-01
    outer loop
      vertex   -1.623714e+00 -4.008834e+00 -1.047966e+01
      vertex   -1.406215e+00 -3.863543e+00 -1.057349e+01
      vertex   -1.483590e+00 -4.076129e+00 -1.047285e+01
    endloop
  endfacet
  facet normal -1.456197e-01 -3.950131e-01 -9.070609e-01
    outer loop
      vertex   -1.623714e+00 -4.008834e+00 -1.047966e+01
      vertex   -1.483590e+00 -4.076129e+00 -1.047285e+01
      vertex   -1.665692e+00 -4.112477e+00 -1.042779e+01
    endloop
  endfacet
  facet normal -1.432393e-01 -4.030296e-01 -9.039080e-01
    outer loop
      vertex   -1.665692e+00 -4.112477e+00 -1.042779e+01
      vertex   -1.483590e+00 -4.076129e+00 -1.047285e+01
      vertex   -1.560083e+00 -4.286293e+00 -1.036702e+01
    endloop
  endfacet
  facet normal -1.481192e-01 -4.053555e-01 -9.020796e-01
    outer loop
      vertex   -1.665692e+00 -4.112477e+00 -1.042779e+01
      vertex   -1.560083e+00 -4.286293e+00 -1.036702e+01
      vertex   -1.707547e+00 -4.215813e+00 -1.037448e+01
    endloop
  endfacet
  facet normal -1.528675e-01 -4.147530e-01 -8.970014e-01
    outer loop
      vertex   -1.707547e+00 -4.215813e+00 -1.037448e+01
      vertex   -1.560083e+00 -4.286293e+00 -1.036702e+01
      vertex   -1.749268e+00 -4.318820e+00 -1.031974e+01
    endloop
  endfacet
  facet normal -1.663001e-01 -4.093591e-01 -8.970894e-01
    outer loop
      vertex   -1.707547e+00 -4.215813e+00 -1.037448e+01
      vertex   -1.749268e+00 -4.318820e+00 -1.031974e+01
      vertex   -1.852721e+00 -4.156837e+00 -1.037448e+01
    endloop
  endfacet
  facet normal -1.663001e-01 -4.093591e-01 -8.970894e-01
    outer loop
      vertex   -1.852721e+00 -4.156837e+00 -1.037448e+01
      vertex   -1.749268e+00 -4.318820e+00 -1.031974e+01
      vertex   -1.897989e+00 -4.258403e+00 -1.031974e+01
    endloop
  endfacet
  facet normal -1.798259e-01 -4.033832e-01 -8.971871e-01
    outer loop
      vertex   -1.852721e+00 -4.156837e+00 -1.037448e+01
      vertex   -1.897989e+00 -4.258403e+00 -1.031974e+01
      vertex   -1.996683e+00 -4.092659e+00 -1.037448e+01
    endloop
  endfacet
  facet normal -1.798259e-01 -4.033832e-01 -8.971871e-01
    outer loop
      vertex   -1.996683e+00 -4.092659e+00 -1.037448e+01
      vertex   -1.897989e+00 -4.258403e+00 -1.031974e+01
      vertex   -2.045469e+00 -4.192657e+00 -1.031974e+01
    endloop
  endfacet
  facet normal -1.932297e-01 -3.969010e-01 -8.972914e-01
    outer loop
      vertex   -1.996683e+00 -4.092659e+00 -1.037448e+01
      vertex   -2.045469e+00 -4.192657e+00 -1.031974e+01
      vertex   -2.139151e+00 -4.023299e+00 -1.037448e+01
    endloop
  endfacet
  facet normal -1.932297e-01 -3.969010e-01 -8.972914e-01
    outer loop
      vertex   -2.139151e+00 -4.023299e+00 -1.037448e+01
      vertex   -2.045469e+00 -4.192657e+00 -1.031974e+01
      vertex   -2.191418e+00 -4.121602e+00 -1.031974e+01
    endloop
  endfacet
  facet normal -2.063368e-01 -3.899936e-01 -8.974019e-01
    outer loop
      vertex   -2.139151e+00 -4.023299e+00 -1.037448e+01
      vertex   -2.191418e+00 -4.121602e+00 -1.031974e+01
      vertex   -2.281918e+00 -3.952398e+00 -1.037246e+01
    endloop
  endfacet
  facet normal -2.128983e-01 -3.926617e-01 -8.947017e-01
    outer loop
      vertex   -2.281918e+00 -3.952398e+00 -1.037246e+01
      vertex   -2.191418e+00 -4.121602e+00 -1.031974e+01
      vertex   -2.392551e+00 -4.144020e+00 -1.026204e+01
    endloop
  endfacet
  facet normal -2.114642e-01 -3.990823e-01 -8.921974e-01
    outer loop
      vertex   -2.392551e+00 -4.144020e+00 -1.026204e+01
      vertex   -2.191418e+00 -4.121602e+00 -1.031974e+01
      vertex   -2.243506e+00 -4.219569e+00 -1.026357e+01
    endloop
  endfacet
  facet normal -2.161155e-01 -4.083665e-01 -8.868658e-01
    outer loop
      vertex   -2.392551e+00 -4.144020e+00 -1.026204e+01
      vertex   -2.243506e+00 -4.219569e+00 -1.026357e+01
      vertex   -2.295405e+00 -4.317179e+00 -1.020598e+01
    endloop
  endfacet
  facet normal -2.023424e-01 -4.156189e-01 -8.867460e-01
    outer loop
      vertex   -2.295405e+00 -4.317179e+00 -1.020598e+01
      vertex   -2.243506e+00 -4.219569e+00 -1.026357e+01
      vertex   -2.142530e+00 -4.391605e+00 -1.020598e+01
    endloop
  endfacet
  facet normal -2.068643e-01 -4.249069e-01 -8.812839e-01
    outer loop
      vertex   -2.295405e+00 -4.317179e+00 -1.020598e+01
      vertex   -2.142530e+00 -4.391605e+00 -1.020598e+01
      vertex   -2.190784e+00 -4.490513e+00 -1.014697e+01
    endloop
  endfacet
  facet normal -1.925114e-01 -4.318391e-01 -8.811665e-01
    outer loop
      vertex   -2.190784e+00 -4.490513e+00 -1.014697e+01
      vertex   -2.142530e+00 -4.391605e+00 -1.020598e+01
      vertex   -2.032827e+00 -4.560930e+00 -1.014697e+01
    endloop
  endfacet
  facet normal -1.987815e-01 -4.459043e-01 -8.727286e-01
    outer loop
      vertex   -2.190784e+00 -4.490513e+00 -1.014697e+01
      vertex   -2.032827e+00 -4.560930e+00 -1.014697e+01
      vertex   -2.121814e+00 -4.760586e+00 -1.002469e+01
    endloop
  endfacet
  facet normal -1.838255e-01 -4.524991e-01 -8.726126e-01
    outer loop
      vertex   -2.121814e+00 -4.760586e+00 -1.002469e+01
      vertex   -2.032827e+00 -4.560930e+00 -1.014697e+01
      vertex   -1.955555e+00 -4.828127e+00 -1.002469e+01
    endloop
  endfacet
  facet normal -1.914721e-01 -4.713218e-01 -8.609264e-01
    outer loop
      vertex   -2.121814e+00 -4.760586e+00 -1.002469e+01
      vertex   -1.955555e+00 -4.828127e+00 -1.002469e+01
      vertex   -2.036818e+00 -5.028761e+00 -9.896776e+00
    endloop
  endfacet
  facet normal -1.760304e-01 -4.775051e-01 -8.608148e-01
    outer loop
      vertex   -2.036818e+00 -5.028761e+00 -9.896776e+00
      vertex   -1.955555e+00 -4.828127e+00 -1.002469e+01
      vertex   -1.783796e+00 -4.900939e+00 -1.001942e+01
    endloop
  endfacet
  facet normal -1.753450e-01 -4.784778e-01 -8.604145e-01
    outer loop
      vertex   -2.036818e+00 -5.028761e+00 -9.896776e+00
      vertex   -1.783796e+00 -4.900939e+00 -1.001942e+01
      vertex   -1.856371e+00 -5.100336e+00 -9.893746e+00
    endloop
  endfacet
  facet normal -1.506880e-01 -4.226196e-01 -8.936922e-01
    outer loop
      vertex   -1.560083e+00 -4.286293e+00 -1.036702e+01
      vertex   -1.635630e+00 -4.493856e+00 -1.025613e+01
      vertex   -1.749268e+00 -4.318820e+00 -1.031974e+01
    endloop
  endfacet
  facet normal -1.554004e-01 -4.249785e-01 -8.917646e-01
    outer loop
      vertex   -1.749268e+00 -4.318820e+00 -1.031974e+01
      vertex   -1.635630e+00 -4.493856e+00 -1.025613e+01
      vertex   -1.790847e+00 -4.421474e+00 -1.026357e+01
    endloop
  endfacet
  facet normal -1.702292e-01 -4.190309e-01 -8.918717e-01
    outer loop
      vertex   -1.749268e+00 -4.318820e+00 -1.031974e+01
      vertex   -1.790847e+00 -4.421474e+00 -1.026357e+01
      vertex   -1.897989e+00 -4.258403e+00 -1.031974e+01
    endloop
  endfacet
  facet normal -1.702292e-01 -4.190309e-01 -8.918717e-01
    outer loop
      vertex   -1.897989e+00 -4.258403e+00 -1.031974e+01
      vertex   -1.790847e+00 -4.421474e+00 -1.026357e+01
      vertex   -1.943102e+00 -4.359621e+00 -1.026357e+01
    endloop
  endfacet
  facet normal -1.840755e-01 -4.129160e-01 -8.919734e-01
    outer loop
      vertex   -1.897989e+00 -4.258403e+00 -1.031974e+01
      vertex   -1.943102e+00 -4.359621e+00 -1.026357e+01
      vertex   -2.045469e+00 -4.192657e+00 -1.031974e+01
    endloop
  endfacet
  facet normal -1.840755e-01 -4.129160e-01 -8.919734e-01
    outer loop
      vertex   -2.045469e+00 -4.192657e+00 -1.031974e+01
      vertex   -1.943102e+00 -4.359621e+00 -1.026357e+01
      vertex   -2.094088e+00 -4.292313e+00 -1.026357e+01
    endloop
  endfacet
  facet normal -1.977972e-01 -4.062829e-01 -8.920821e-01
    outer loop
      vertex   -2.045469e+00 -4.192657e+00 -1.031974e+01
      vertex   -2.094088e+00 -4.292313e+00 -1.026357e+01
      vertex   -2.191418e+00 -4.121602e+00 -1.031974e+01
    endloop
  endfacet
  facet normal -1.977972e-01 -4.062829e-01 -8.920821e-01
    outer loop
      vertex   -2.191418e+00 -4.121602e+00 -1.031974e+01
      vertex   -2.094088e+00 -4.292313e+00 -1.026357e+01
      vertex   -2.243506e+00 -4.219569e+00 -1.026357e+01
    endloop
  endfacet
  facet normal -1.600135e-01 -4.343223e-01 -8.864309e-01
    outer loop
      vertex   -1.790847e+00 -4.421474e+00 -1.026357e+01
      vertex   -1.635630e+00 -4.493856e+00 -1.025613e+01
      vertex   -1.832274e+00 -4.523755e+00 -1.020598e+01
    endloop
  endfacet
  facet normal -1.579906e-01 -4.419234e-01 -8.830304e-01
    outer loop
      vertex   -1.832274e+00 -4.523755e+00 -1.020598e+01
      vertex   -1.635630e+00 -4.493856e+00 -1.025613e+01
      vertex   -1.710208e+00 -4.698759e+00 -1.014024e+01
    endloop
  endfacet
  facet normal -1.626531e-01 -4.443913e-01 -8.809428e-01
    outer loop
      vertex   -1.832274e+00 -4.523755e+00 -1.020598e+01
      vertex   -1.710208e+00 -4.698759e+00 -1.014024e+01
      vertex   -1.873540e+00 -4.625639e+00 -1.014697e+01
    endloop
  endfacet
  facet normal -1.692464e-01 -4.583434e-01 -8.725119e-01
    outer loop
      vertex   -1.873540e+00 -4.625639e+00 -1.014697e+01
      vertex   -1.710208e+00 -4.698759e+00 -1.014024e+01
      vertex   -1.955555e+00 -4.828127e+00 -1.002469e+01
    endloop
  endfacet
  facet normal -1.838255e-01 -4.524991e-01 -8.726126e-01
    outer loop
      vertex   -1.873540e+00 -4.625639e+00 -1.014697e+01
      vertex   -1.955555e+00 -4.828127e+00 -1.002469e+01
      vertex   -2.032827e+00 -4.560930e+00 -1.014697e+01
    endloop
  endfacet
  facet normal -1.681943e-01 -4.598243e-01 -8.719360e-01
    outer loop
      vertex   -1.710208e+00 -4.698759e+00 -1.014024e+01
      vertex   -1.783796e+00 -4.900939e+00 -1.001942e+01
      vertex   -1.955555e+00 -4.828127e+00 -1.002469e+01
    endloop
  endfacet
  facet normal -1.827614e-01 -4.966698e-01 -8.484794e-01
    outer loop
      vertex   -1.856371e+00 -5.100336e+00 -9.893746e+00
      vertex   -1.927910e+00 -5.296890e+00 -9.763281e+00
      vertex   -2.036818e+00 -5.028761e+00 -9.896776e+00
    endloop
  endfacet
  facet normal -1.845410e-01 -4.970809e-01 -8.478533e-01
    outer loop
      vertex   -2.036818e+00 -5.028761e+00 -9.896776e+00
      vertex   -1.927910e+00 -5.296890e+00 -9.763281e+00
      vertex   -2.157577e+00 -5.208655e+00 -9.765023e+00
    endloop
  endfacet
  facet normal -1.985875e-01 -4.888369e-01 -8.494713e-01
    outer loop
      vertex   -2.036818e+00 -5.028761e+00 -9.896776e+00
      vertex   -2.157577e+00 -5.208655e+00 -9.765023e+00
      vertex   -2.209986e+00 -4.958412e+00 -9.896776e+00
    endloop
  endfacet
  facet normal -2.055551e-01 -4.892861e-01 -8.475531e-01
    outer loop
      vertex   -2.209986e+00 -4.958412e+00 -9.896776e+00
      vertex   -2.157577e+00 -5.208655e+00 -9.765023e+00
      vertex   -2.383212e+00 -5.110568e+00 -9.766925e+00
    endloop
  endfacet
  facet normal -2.145027e-01 -4.811698e-01 -8.499790e-01
    outer loop
      vertex   -2.209986e+00 -4.958412e+00 -9.896776e+00
      vertex   -2.383212e+00 -5.110568e+00 -9.766925e+00
      vertex   -2.381710e+00 -4.881859e+00 -9.896776e+00
    endloop
  endfacet
  facet normal -2.259332e-01 -4.798388e-01 -8.477670e-01
    outer loop
      vertex   -2.381710e+00 -4.881859e+00 -9.896776e+00
      vertex   -2.383212e+00 -5.110568e+00 -9.766925e+00
      vertex   -2.604387e+00 -5.002810e+00 -9.768973e+00
    endloop
  endfacet
  facet normal -2.305863e-01 -4.736329e-01 -8.500011e-01
    outer loop
      vertex   -2.381710e+00 -4.881859e+00 -9.896776e+00
      vertex   -2.604387e+00 -5.002810e+00 -9.768973e+00
      vertex   -2.551650e+00 -4.799124e+00 -9.896776e+00
    endloop
  endfacet
  facet normal -2.455516e-01 -4.688063e-01 -8.484840e-01
    outer loop
      vertex   -2.551650e+00 -4.799124e+00 -9.896776e+00
      vertex   -2.604387e+00 -5.002810e+00 -9.768973e+00
      vertex   -2.820688e+00 -4.885575e+00 -9.771150e+00
    endloop
  endfacet
  facet normal -2.471501e-01 -4.656674e-01 -8.497474e-01
    outer loop
      vertex   -2.551650e+00 -4.799124e+00 -9.896776e+00
      vertex   -2.820688e+00 -4.885575e+00 -9.771150e+00
      vertex   -2.715878e+00 -4.704039e+00 -9.901117e+00
    endloop
  endfacet
  facet normal -2.373222e-01 -4.492213e-01 -8.613236e-01
    outer loop
      vertex   -2.551650e+00 -4.799124e+00 -9.896776e+00
      vertex   -2.715878e+00 -4.704039e+00 -9.901117e+00
      vertex   -2.449847e+00 -4.607653e+00 -1.002469e+01
    endloop
  endfacet
  facet normal -2.377186e-01 -4.484815e-01 -8.615998e-01
    outer loop
      vertex   -2.449847e+00 -4.607653e+00 -1.002469e+01
      vertex   -2.715878e+00 -4.704039e+00 -9.901117e+00
      vertex   -2.609564e+00 -4.519897e+00 -1.002630e+01
    endloop
  endfacet
  facet normal -2.280749e-01 -4.311390e-01 -8.729840e-01
    outer loop
      vertex   -2.449847e+00 -4.607653e+00 -1.002469e+01
      vertex   -2.609564e+00 -4.519897e+00 -1.002630e+01
      vertex   -2.347102e+00 -4.414411e+00 -1.014697e+01
    endloop
  endfacet
  facet normal -2.281651e-01 -4.309785e-01 -8.730397e-01
    outer loop
      vertex   -2.347102e+00 -4.414411e+00 -1.014697e+01
      vertex   -2.609564e+00 -4.519897e+00 -1.002630e+01
      vertex   -2.501777e+00 -4.333205e+00 -1.014663e+01
    endloop
  endfacet
  facet normal -2.210699e-01 -4.174294e-01 -8.814084e-01
    outer loop
      vertex   -2.347102e+00 -4.414411e+00 -1.014697e+01
      vertex   -2.501777e+00 -4.333205e+00 -1.014663e+01
      vertex   -2.295405e+00 -4.317179e+00 -1.020598e+01
    endloop
  endfacet
  facet normal -2.223499e-01 -4.109740e-01 -8.841159e-01
    outer loop
      vertex   -2.295405e+00 -4.317179e+00 -1.020598e+01
      vertex   -2.501777e+00 -4.333205e+00 -1.014663e+01
      vertex   -2.392551e+00 -4.144020e+00 -1.026204e+01
    endloop
  endfacet
  facet normal -2.017302e-01 -3.805735e-01 -9.024792e-01
    outer loop
      vertex   -2.139151e+00 -4.023299e+00 -1.037448e+01
      vertex   -2.281918e+00 -3.952398e+00 -1.037246e+01
      vertex   -2.086718e+00 -3.924682e+00 -1.042779e+01
    endloop
  endfacet
  facet normal -2.033249e-01 -3.740584e-01 -9.048421e-01
    outer loop
      vertex   -2.086718e+00 -3.924682e+00 -1.042779e+01
      vertex   -2.281918e+00 -3.952398e+00 -1.037246e+01
      vertex   -2.169911e+00 -3.758396e+00 -1.047783e+01
    endloop
  endfacet
  facet normal -1.965102e-01 -3.714273e-01 -9.074280e-01
    outer loop
      vertex   -2.086718e+00 -3.924682e+00 -1.042779e+01
      vertex   -2.169911e+00 -3.758396e+00 -1.047783e+01
      vertex   -2.034128e+00 -3.825772e+00 -1.047966e+01
    endloop
  endfacet
  facet normal -1.896656e-01 -3.574423e-01 -9.144736e-01
    outer loop
      vertex   -2.034128e+00 -3.825772e+00 -1.047966e+01
      vertex   -2.169911e+00 -3.758396e+00 -1.047783e+01
      vertex   -2.056638e+00 -3.562201e+00 -1.057801e+01
    endloop
  endfacet
  facet normal -1.890354e-01 -3.574378e-01 -9.146058e-01
    outer loop
      vertex   -2.034128e+00 -3.825772e+00 -1.047966e+01
      vertex   -2.056638e+00 -3.562201e+00 -1.057801e+01
      vertex   -1.928526e+00 -3.627157e+00 -1.057911e+01
    endloop
  endfacet
  facet normal -1.770870e-01 -3.637434e-01 -9.145113e-01
    outer loop
      vertex   -2.034128e+00 -3.825772e+00 -1.047966e+01
      vertex   -1.928526e+00 -3.627157e+00 -1.057911e+01
      vertex   -1.898655e+00 -3.891727e+00 -1.047966e+01
    endloop
  endfacet
  facet normal -1.770870e-01 -3.637434e-01 -9.145113e-01
    outer loop
      vertex   -1.898655e+00 -3.891727e+00 -1.047966e+01
      vertex   -1.928526e+00 -3.627157e+00 -1.057911e+01
      vertex   -1.800086e+00 -3.689688e+00 -1.057911e+01
    endloop
  endfacet
  facet normal -1.648061e-01 -3.696909e-01 -9.144220e-01
    outer loop
      vertex   -1.898655e+00 -3.891727e+00 -1.047966e+01
      vertex   -1.800086e+00 -3.689688e+00 -1.057911e+01
      vertex   -1.761760e+00 -3.952754e+00 -1.047966e+01
    endloop
  endfacet
  facet normal -1.648061e-01 -3.696909e-01 -9.144220e-01
    outer loop
      vertex   -1.761760e+00 -3.952754e+00 -1.047966e+01
      vertex   -1.800086e+00 -3.689688e+00 -1.057911e+01
      vertex   -1.670298e+00 -3.747547e+00 -1.057911e+01
    endloop
  endfacet
  facet normal -1.524126e-01 -3.751742e-01 -9.143384e-01
    outer loop
      vertex   -1.761760e+00 -3.952754e+00 -1.047966e+01
      vertex   -1.670298e+00 -3.747547e+00 -1.057911e+01
      vertex   -1.623714e+00 -4.008834e+00 -1.047966e+01
    endloop
  endfacet
  facet normal -1.524126e-01 -3.751742e-01 -9.143384e-01
    outer loop
      vertex   -1.623714e+00 -4.008834e+00 -1.047966e+01
      vertex   -1.670298e+00 -3.747547e+00 -1.057911e+01
      vertex   -1.539419e+00 -3.800716e+00 -1.057911e+01
    endloop
  endfacet
  facet normal -1.886410e-01 -3.874756e-01 -9.023731e-01
    outer loop
      vertex   -1.996683e+00 -4.092659e+00 -1.037448e+01
      vertex   -2.139151e+00 -4.023299e+00 -1.037448e+01
      vertex   -2.086718e+00 -3.924682e+00 -1.042779e+01
    endloop
  endfacet
  facet normal -1.840321e-01 -3.780087e-01 -9.073266e-01
    outer loop
      vertex   -2.086718e+00 -3.924682e+00 -1.042779e+01
      vertex   -2.034128e+00 -3.825772e+00 -1.047966e+01
      vertex   -1.947742e+00 -3.992342e+00 -1.042779e+01
    endloop
  endfacet
  facet normal -1.840321e-01 -3.780087e-01 -9.073266e-01
    outer loop
      vertex   -1.947742e+00 -3.992342e+00 -1.042779e+01
      vertex   -2.034128e+00 -3.825772e+00 -1.047966e+01
      vertex   -1.898655e+00 -3.891727e+00 -1.047966e+01
    endloop
  endfacet
  facet normal -1.712681e-01 -3.841865e-01 -9.072309e-01
    outer loop
      vertex   -1.947742e+00 -3.992342e+00 -1.042779e+01
      vertex   -1.898655e+00 -3.891727e+00 -1.047966e+01
      vertex   -1.807308e+00 -4.054947e+00 -1.042779e+01
    endloop
  endfacet
  facet normal -1.712681e-01 -3.841865e-01 -9.072309e-01
    outer loop
      vertex   -1.807308e+00 -4.054947e+00 -1.042779e+01
      vertex   -1.898655e+00 -3.891727e+00 -1.047966e+01
      vertex   -1.761760e+00 -3.952754e+00 -1.047966e+01
    endloop
  endfacet
  facet normal -1.583876e-01 -3.898819e-01 -9.071414e-01
    outer loop
      vertex   -1.807308e+00 -4.054947e+00 -1.042779e+01
      vertex   -1.761760e+00 -3.952754e+00 -1.047966e+01
      vertex   -1.665692e+00 -4.112477e+00 -1.042779e+01
    endloop
  endfacet
  facet normal -1.583876e-01 -3.898819e-01 -9.071414e-01
    outer loop
      vertex   -1.665692e+00 -4.112477e+00 -1.042779e+01
      vertex   -1.761760e+00 -3.952754e+00 -1.047966e+01
      vertex   -1.623714e+00 -4.008834e+00 -1.047966e+01
    endloop
  endfacet
  facet normal -2.023424e-01 -4.156189e-01 -8.867460e-01
    outer loop
      vertex   -2.142530e+00 -4.391605e+00 -1.020598e+01
      vertex   -2.243506e+00 -4.219569e+00 -1.026357e+01
      vertex   -2.094088e+00 -4.292313e+00 -1.026357e+01
    endloop
  endfacet
  facet normal -2.068643e-01 -4.249069e-01 -8.812839e-01
    outer loop
      vertex   -2.295405e+00 -4.317179e+00 -1.020598e+01
      vertex   -2.190784e+00 -4.490513e+00 -1.014697e+01
      vertex   -2.347102e+00 -4.414411e+00 -1.014697e+01
    endloop
  endfacet
  facet normal -2.136038e-01 -4.387501e-01 -8.728527e-01
    outer loop
      vertex   -2.347102e+00 -4.414411e+00 -1.014697e+01
      vertex   -2.190784e+00 -4.490513e+00 -1.014697e+01
      vertex   -2.286686e+00 -4.687086e+00 -1.002469e+01
    endloop
  endfacet
  facet normal -2.136038e-01 -4.387501e-01 -8.728527e-01
    outer loop
      vertex   -2.347102e+00 -4.414411e+00 -1.014697e+01
      vertex   -2.286686e+00 -4.687086e+00 -1.002469e+01
      vertex   -2.449847e+00 -4.607653e+00 -1.002469e+01
    endloop
  endfacet
  facet normal -2.224943e-01 -4.570115e-01 -8.611834e-01
    outer loop
      vertex   -2.449847e+00 -4.607653e+00 -1.002469e+01
      vertex   -2.286686e+00 -4.687086e+00 -1.002469e+01
      vertex   -2.381710e+00 -4.881859e+00 -9.896776e+00
    endloop
  endfacet
  facet normal -2.224943e-01 -4.570115e-01 -8.611834e-01
    outer loop
      vertex   -2.449847e+00 -4.607653e+00 -1.002469e+01
      vertex   -2.381710e+00 -4.881859e+00 -9.896776e+00
      vertex   -2.551650e+00 -4.799124e+00 -9.896776e+00
    endloop
  endfacet
  facet normal -1.755564e-01 -3.938060e-01 -9.022731e-01
    outer loop
      vertex   -1.852721e+00 -4.156837e+00 -1.037448e+01
      vertex   -1.996683e+00 -4.092659e+00 -1.037448e+01
      vertex   -1.947742e+00 -3.992342e+00 -1.042779e+01
    endloop
  endfacet
  facet normal -1.886410e-01 -3.874756e-01 -9.023731e-01
    outer loop
      vertex   -1.947742e+00 -3.992342e+00 -1.042779e+01
      vertex   -1.996683e+00 -4.092659e+00 -1.037448e+01
      vertex   -2.086718e+00 -3.924682e+00 -1.042779e+01
    endloop
  endfacet
  facet normal -1.755564e-01 -3.938060e-01 -9.022731e-01
    outer loop
      vertex   -1.852721e+00 -4.156837e+00 -1.037448e+01
      vertex   -1.947742e+00 -3.992342e+00 -1.042779e+01
      vertex   -1.807308e+00 -4.054947e+00 -1.042779e+01
    endloop
  endfacet
  facet normal -1.883044e-01 -4.224020e-01 -8.866330e-01
    outer loop
      vertex   -2.142530e+00 -4.391605e+00 -1.020598e+01
      vertex   -2.094088e+00 -4.292313e+00 -1.026357e+01
      vertex   -1.988052e+00 -4.460471e+00 -1.020598e+01
    endloop
  endfacet
  facet normal -1.883044e-01 -4.224020e-01 -8.866330e-01
    outer loop
      vertex   -1.988052e+00 -4.460471e+00 -1.020598e+01
      vertex   -2.094088e+00 -4.292313e+00 -1.026357e+01
      vertex   -1.943102e+00 -4.359621e+00 -1.026357e+01
    endloop
  endfacet
  facet normal -1.741390e-01 -4.286551e-01 -8.865271e-01
    outer loop
      vertex   -1.988052e+00 -4.460471e+00 -1.020598e+01
      vertex   -1.943102e+00 -4.359621e+00 -1.026357e+01
      vertex   -1.832274e+00 -4.523755e+00 -1.020598e+01
    endloop
  endfacet
  facet normal -1.741390e-01 -4.286551e-01 -8.865271e-01
    outer loop
      vertex   -1.832274e+00 -4.523755e+00 -1.020598e+01
      vertex   -1.943102e+00 -4.359621e+00 -1.026357e+01
      vertex   -1.790847e+00 -4.421474e+00 -1.026357e+01
    endloop
  endfacet
  facet normal -2.070526e-01 -4.644578e-01 -8.610506e-01
    outer loop
      vertex   -2.209986e+00 -4.958412e+00 -9.896776e+00
      vertex   -2.381710e+00 -4.881859e+00 -9.896776e+00
      vertex   -2.286686e+00 -4.687086e+00 -1.002469e+01
    endloop
  endfacet
  facet normal -2.070526e-01 -4.644578e-01 -8.610506e-01
    outer loop
      vertex   -2.209986e+00 -4.958412e+00 -9.896776e+00
      vertex   -2.286686e+00 -4.687086e+00 -1.002469e+01
      vertex   -2.121814e+00 -4.760586e+00 -1.002469e+01
    endloop
  endfacet
  facet normal -1.987815e-01 -4.459043e-01 -8.727286e-01
    outer loop
      vertex   -2.121814e+00 -4.760586e+00 -1.002469e+01
      vertex   -2.286686e+00 -4.687086e+00 -1.002469e+01
      vertex   -2.190784e+00 -4.490513e+00 -1.014697e+01
    endloop
  endfacet
  facet normal -1.623526e-01 -3.996420e-01 -9.021795e-01
    outer loop
      vertex   -1.707547e+00 -4.215813e+00 -1.037448e+01
      vertex   -1.852721e+00 -4.156837e+00 -1.037448e+01
      vertex   -1.807308e+00 -4.054947e+00 -1.042779e+01
    endloop
  endfacet
  facet normal -1.623526e-01 -3.996420e-01 -9.021795e-01
    outer loop
      vertex   -1.707547e+00 -4.215813e+00 -1.037448e+01
      vertex   -1.807308e+00 -4.054947e+00 -1.042779e+01
      vertex   -1.665692e+00 -4.112477e+00 -1.042779e+01
    endloop
  endfacet
  facet normal -1.780286e-01 -4.382296e-01 -8.810565e-01
    outer loop
      vertex   -1.873540e+00 -4.625639e+00 -1.014697e+01
      vertex   -2.032827e+00 -4.560930e+00 -1.014697e+01
      vertex   -1.988052e+00 -4.460471e+00 -1.020598e+01
    endloop
  endfacet
  facet normal -1.925114e-01 -4.318391e-01 -8.811665e-01
    outer loop
      vertex   -1.988052e+00 -4.460471e+00 -1.020598e+01
      vertex   -2.032827e+00 -4.560930e+00 -1.014697e+01
      vertex   -2.142530e+00 -4.391605e+00 -1.020598e+01
    endloop
  endfacet
  facet normal -1.780286e-01 -4.382296e-01 -8.810565e-01
    outer loop
      vertex   -1.873540e+00 -4.625639e+00 -1.014697e+01
      vertex   -1.988052e+00 -4.460471e+00 -1.020598e+01
      vertex   -1.832274e+00 -4.523755e+00 -1.020598e+01
    endloop
  endfacet
  facet normal -1.914721e-01 -4.713218e-01 -8.609264e-01
    outer loop
      vertex   -2.036818e+00 -5.028761e+00 -9.896776e+00
      vertex   -2.209986e+00 -4.958412e+00 -9.896776e+00
      vertex   -2.121814e+00 -4.760586e+00 -1.002469e+01
    endloop
  endfacet
  facet normal -8.660254e-01 5.000000e-01 5.460865e-11
    outer loop
      vertex   -1.942294e+00 -3.364152e+00 -1.067282e+01
      vertex   -2.056638e+00 -3.562201e+00 -1.057801e+01
      vertex   0.000000e+00 0.000000e+00 8.881784e-15
    endloop
  endfacet
  facet normal -8.660254e-01 5.000000e-01 3.777653e-11
    outer loop
      vertex   0.000000e+00 0.000000e+00 8.881784e-15
      vertex   -2.056638e+00 -3.562201e+00 -1.057801e+01
      vertex   -2.169911e+00 -3.758396e+00 -1.047783e+01
    endloop
  endfacet
  facet normal -8.660254e-01 5.000000e-01 -1.532897e-11
    outer loop
      vertex   0.000000e+00 0.000000e+00 8.881784e-15
      vertex   -2.169911e+00 -3.758396e+00 -1.047783e+01
      vertex   -2.281918e+00 -3.952398e+00 -1.037246e+01
    endloop
  endfacet
  facet normal -8.660254e-01 5.000000e-01 -2.584388e-11
    outer loop
      vertex   -2.281918e+00 -3.952398e+00 -1.037246e+01
      vertex   -2.392551e+00 -4.144020e+00 -1.026204e+01
      vertex   0.000000e+00 0.000000e+00 8.881784e-15
    endloop
  endfacet
  facet normal -8.660254e-01 5.000000e-01 -3.108669e-11
    outer loop
      vertex   0.000000e+00 0.000000e+00 8.881784e-15
      vertex   -2.392551e+00 -4.144020e+00 -1.026204e+01
      vertex   -2.501777e+00 -4.333205e+00 -1.014663e+01
    endloop
  endfacet
  facet normal -8.660254e-01 5.000000e-01 -3.048963e-11
    outer loop
      vertex   0.000000e+00 0.000000e+00 8.881784e-15
      vertex   -2.501777e+00 -4.333205e+00 -1.014663e+01
      vertex   -2.609564e+00 -4.519897e+00 -1.002630e+01
    endloop
  endfacet
  facet normal -8.660254e-01 5.000000e-01 -2.349530e-11
    outer loop
      vertex   -2.609564e+00 -4.519897e+00 -1.002630e+01
      vertex   -2.715878e+00 -4.704039e+00 -9.901117e+00
      vertex   0.000000e+00 0.000000e+00 8.881784e-15
    endloop
  endfacet
  facet normal -8.660254e-01 5.000000e-01 -9.555509e-12
    outer loop
      vertex   0.000000e+00 0.000000e+00 8.881784e-15
      vertex   -2.715878e+00 -4.704039e+00 -9.901117e+00
      vertex   -2.820688e+00 -4.885575e+00 -9.771150e+00
    endloop
  endfacet
  facet normal -4.165785e-01 -7.593098e-01 4.999109e-01
    outer loop
      vertex   -2.604387e+00 -5.002810e+00 -9.768973e+00
      vertex   -1.736630e+00 -3.335958e+00 -6.514100e+00
      vertex   -2.820688e+00 -4.885575e+00 -9.771150e+00
    endloop
  endfacet
  facet normal -4.165774e-01 -7.593105e-01 4.999108e-01
    outer loop
      vertex   -2.820688e+00 -4.885575e+00 -9.771150e+00
      vertex   -1.736630e+00 -3.335958e+00 -6.514100e+00
      vertex   -8.683070e-01 -1.667983e+00 -3.257050e+00
    endloop
  endfacet
  facet normal -4.165750e-01 -7.593118e-01 4.999108e-01
    outer loop
      vertex   -2.820688e+00 -4.885575e+00 -9.771150e+00
      vertex   -8.683070e-01 -1.667983e+00 -3.257050e+00
      vertex   0.000000e+00 0.000000e+00 8.881784e-15
    endloop
  endfacet
  facet normal -3.830687e-01 -7.767546e-01 4.999107e-01
    outer loop
      vertex   -2.604387e+00 -5.002810e+00 -9.768973e+00
      vertex   -2.383212e+00 -5.110568e+00 -9.766925e+00
      vertex   -1.736630e+00 -3.335958e+00 -6.514100e+00
    endloop
  endfacet
  facet normal -3.830644e-01 -7.767565e-01 4.999109e-01
    outer loop
      vertex   -1.736630e+00 -3.335958e+00 -6.514100e+00
      vertex   -2.383212e+00 -5.110568e+00 -9.766925e+00
      vertex   -1.589474e+00 -3.408529e+00 -6.514100e+00
    endloop
  endfacet
  facet normal -3.830645e-01 -7.767566e-01 4.999107e-01
    outer loop
      vertex   -1.736630e+00 -3.335958e+00 -6.514100e+00
      vertex   -1.589474e+00 -3.408529e+00 -6.514100e+00
      vertex   -8.683070e-01 -1.667983e+00 -3.257050e+00
    endloop
  endfacet
  facet normal -3.830602e-01 -7.767587e-01 4.999109e-01
    outer loop
      vertex   -8.683070e-01 -1.667983e+00 -3.257050e+00
      vertex   -1.589474e+00 -3.408529e+00 -6.514100e+00
      vertex   -7.947267e-01 -1.704269e+00 -3.257050e+00
    endloop
  endfacet
  facet normal -3.830602e-01 -7.767587e-01 4.999108e-01
    outer loop
      vertex   -8.683070e-01 -1.667983e+00 -3.257050e+00
      vertex   -7.947267e-01 -1.704269e+00 -3.257050e+00
      vertex   0.000000e+00 0.000000e+00 8.881784e-15
    endloop
  endfacet
  facet normal -3.488222e-01 -7.927247e-01 4.999106e-01
    outer loop
      vertex   -2.383212e+00 -5.110568e+00 -9.766925e+00
      vertex   -2.157577e+00 -5.208655e+00 -9.765023e+00
      vertex   -1.589474e+00 -3.408529e+00 -6.514100e+00
    endloop
  endfacet
  facet normal -3.488180e-01 -7.927264e-01 4.999108e-01
    outer loop
      vertex   -1.589474e+00 -3.408529e+00 -6.514100e+00
      vertex   -2.157577e+00 -5.208655e+00 -9.765023e+00
      vertex   -1.439272e+00 -3.474622e+00 -6.514100e+00
    endloop
  endfacet
  facet normal -3.488181e-01 -7.927265e-01 4.999107e-01
    outer loop
      vertex   -1.589474e+00 -3.408529e+00 -6.514100e+00
      vertex   -1.439272e+00 -3.474622e+00 -6.514100e+00
      vertex   -7.947267e-01 -1.704269e+00 -3.257050e+00
    endloop
  endfacet
  facet normal -3.488138e-01 -7.927283e-01 4.999108e-01
    outer loop
      vertex   -7.947267e-01 -1.704269e+00 -3.257050e+00
      vertex   -1.439272e+00 -3.474622e+00 -6.514100e+00
      vertex   -7.196282e-01 -1.737314e+00 -3.257050e+00
    endloop
  endfacet
  facet normal -3.488138e-01 -7.927283e-01 4.999107e-01
    outer loop
      vertex   -7.947267e-01 -1.704269e+00 -3.257050e+00
      vertex   -7.196282e-01 -1.737314e+00 -3.257050e+00
      vertex   0.000000e+00 0.000000e+00 8.881784e-15
    endloop
  endfacet
  facet normal -3.139047e-01 -8.071884e-01 4.999106e-01
    outer loop
      vertex   -2.157577e+00 -5.208655e+00 -9.765023e+00
      vertex   -1.927910e+00 -5.296890e+00 -9.763281e+00
      vertex   -1.439272e+00 -3.474622e+00 -6.514100e+00
    endloop
  endfacet
  facet normal -3.139034e-01 -8.071889e-01 4.999107e-01
    outer loop
      vertex   -1.439272e+00 -3.474622e+00 -6.514100e+00
      vertex   -1.927910e+00 -5.296890e+00 -9.763281e+00
      vertex   -7.196282e-01 -1.737314e+00 -3.257050e+00
    endloop
  endfacet
  facet normal -3.139010e-01 -8.071898e-01 4.999107e-01
    outer loop
      vertex   -1.927910e+00 -5.296890e+00 -9.763281e+00
      vertex   0.000000e+00 0.000000e+00 8.881784e-15
      vertex   -7.196282e-01 -1.737314e+00 -3.257050e+00
    endloop
  endfacet
  facet normal 3.405604e-01 8.757369e-01 -3.422039e-01
    outer loop
      vertex   -1.486148e+00 -3.587814e+00 -1.066964e+01
      vertex   -1.025738e+00 -2.377927e+00 -7.115211e+00
      vertex   -1.328100e+00 -3.648924e+00 -1.066874e+01
    endloop
  endfacet
  facet normal 3.469575e-01 8.733442e-01 -3.418924e-01
    outer loop
      vertex   -1.328100e+00 -3.648924e+00 -1.066874e+01
      vertex   -1.025738e+00 -2.377927e+00 -7.115211e+00
      vertex   -5.128689e-01 -1.188964e+00 -3.557606e+00
    endloop
  endfacet
  facet normal 3.469575e-01 8.733442e-01 -3.418924e-01
    outer loop
      vertex   -1.328100e+00 -3.648924e+00 -1.066874e+01
      vertex   -5.128689e-01 -1.188964e+00 -3.557606e+00
      vertex   0.000000e+00 0.000000e+00 8.881784e-15
    endloop
  endfacet
  facet normal 3.784931e-01 8.601754e-01 -3.418204e-01
    outer loop
      vertex   -1.486148e+00 -3.587814e+00 -1.066964e+01
      vertex   -1.641392e+00 -3.519895e+00 -1.067063e+01
      vertex   -1.025738e+00 -2.377927e+00 -7.115211e+00
    endloop
  endfacet
  facet normal 3.970919e-01 8.515664e-01 -3.422758e-01
    outer loop
      vertex   -1.025738e+00 -2.377927e+00 -7.115211e+00
      vertex   -1.641392e+00 -3.519895e+00 -1.067063e+01
      vertex   -1.162267e+00 -2.314263e+00 -7.115211e+00
    endloop
  endfacet
  facet normal 3.971509e-01 8.516929e-01 -3.418924e-01
    outer loop
      vertex   -1.025738e+00 -2.377927e+00 -7.115211e+00
      vertex   -1.162267e+00 -2.314263e+00 -7.115211e+00
      vertex   -5.811333e-01 -1.157131e+00 -3.557606e+00
    endloop
  endfacet
  facet normal 4.460005e-01 8.271597e-01 -3.418924e-01
    outer loop
      vertex   -5.811333e-01 -1.157131e+00 -3.557606e+00
      vertex   -1.162267e+00 -2.314263e+00 -7.115211e+00
      vertex   -1.942294e+00 -3.364152e+00 -1.067282e+01
    endloop
  endfacet
  facet normal 4.460005e-01 8.271597e-01 -3.418924e-01
    outer loop
      vertex   -5.811333e-01 -1.157131e+00 -3.557606e+00
      vertex   -1.942294e+00 -3.364152e+00 -1.067282e+01
      vertex   0.000000e+00 0.000000e+00 8.881784e-15
    endloop
  endfacet
  facet normal 4.156534e-01 8.428470e-01 -3.418204e-01
    outer loop
      vertex   -1.641392e+00 -3.519895e+00 -1.067063e+01
      vertex   -1.793537e+00 -3.445295e+00 -1.067169e+01
      vertex   -1.162267e+00 -2.314263e+00 -7.115211e+00
    endloop
  endfacet
  facet normal 4.519538e-01 8.237925e-01 -3.422040e-01
    outer loop
      vertex   -1.162267e+00 -2.314263e+00 -7.115211e+00
      vertex   -1.793537e+00 -3.445295e+00 -1.067169e+01
      vertex   -1.942294e+00 -3.364152e+00 -1.067282e+01
    endloop
  endfacet
  facet normal 3.971509e-01 8.516929e-01 -3.418924e-01
    outer loop
      vertex   -5.811333e-01 -1.157131e+00 -3.557606e+00
      vertex   0.000000e+00 0.000000e+00 8.881784e-15
      vertex   -5.128689e-01 -1.188964e+00 -3.557606e+00
    endloop
  endfacet
  facet normal 3.971509e-01 8.516929e-01 -3.418924e-01
    outer loop
      vertex   -5.811333e-01 -1.157131e+00 -3.557606e+00
      vertex   -5.128689e-01 -1.188964e+00 -3.557606e+00
      vertex   -1.025738e+00 -2.377927e+00 -7.115211e+00
    endloop
  endfacet
endsolid
