solid ASCII
  facet normal -9.848078e-01 1.736482e-01 1.985033e-16
    outer loop
      vertex   1.471997e+00 8.348109e+00 -7.112957e+00
      vertex   -2.307555e-14 0.000000e+00 1.776357e-14
      vertex   1.496796e+00 8.488754e+00 -6.919393e+00
    endloop
  endfacet
  facet normal -9.848078e-01 1.736482e-01 -4.811428e-16
    outer loop
      vertex   1.496796e+00 8.488754e+00 -6.919393e+00
      vertex   -2.307555e-14 0.000000e+00 1.776357e-14
      vertex   1.520879e+00 8.625332e+00 -6.722869e+00
    endloop
  endfacet
  facet normal -9.848078e-01 1.736482e-01 -1.476338e-15
    outer loop
      vertex   1.520879e+00 8.625332e+00 -6.722869e+00
      vertex   -2.307555e-14 0.000000e+00 1.776357e-14
      vertex   1.544238e+00 8.757808e+00 -6.523462e+00
    endloop
  endfacet
  facet normal -9.848078e-01 1.736482e-01 1.048014e-16
    outer loop
      vertex   1.544238e+00 8.757808e+00 -6.523462e+00
      vertex   -2.307555e-14 0.000000e+00 1.776357e-14
      vertex   1.566868e+00 8.886149e+00 -6.321250e+00
    endloop
  endfacet
  facet normal -9.848078e-01 1.736482e-01 -1.908929e-15
    outer loop
      vertex   1.566868e+00 8.886149e+00 -6.321250e+00
      vertex   -2.307555e-14 0.000000e+00 1.776357e-14
      vertex   1.588763e+00 9.010322e+00 -6.116310e+00
    endloop
  endfacet
  facet normal -9.848078e-01 1.736482e-01 -1.941748e-15
    outer loop
      vertex   1.588763e+00 9.010322e+00 -6.116310e+00
      vertex   -2.307555e-14 0.000000e+00 1.776357e-14
      vertex   1.609917e+00 9.130292e+00 -5.908719e+00
    endloop
  endfacet
  facet normal -9.848078e-01 1.736482e-01 -8.506704e-16
    outer loop
      vertex   1.609917e+00 9.130292e+00 -5.908719e+00
      vertex   -2.307555e-14 0.000000e+00 1.776357e-14
      vertex   1.630324e+00 9.246027e+00 -5.698555e+00
    endloop
  endfacet
  facet normal -9.848078e-01 1.736482e-01 2.437656e-15
    outer loop
      vertex   1.630324e+00 9.246027e+00 -5.698555e+00
      vertex   -2.307555e-14 0.000000e+00 1.776357e-14
      vertex   1.649978e+00 9.357492e+00 -5.485894e+00
    endloop
  endfacet
  facet normal 2.560435e-01 7.617898e-01 -5.950781e-01
    outer loop
      vertex   2.902719e+00 7.975155e+00 -7.121424e+00
      vertex   2.727634e+00 8.035044e+00 -7.120091e+00
      vertex   2.951778e+00 8.109944e+00 -6.927766e+00
    endloop
  endfacet
  facet normal 2.557614e-01 7.620594e-01 -5.948543e-01
    outer loop
      vertex   2.951778e+00 8.109944e+00 -6.927766e+00
      vertex   2.727634e+00 8.035044e+00 -7.120091e+00
      vertex   2.770474e+00 8.171980e+00 -6.926245e+00
    endloop
  endfacet
  facet normal 2.598539e-01 7.736051e-01 -5.779370e-01
    outer loop
      vertex   2.951778e+00 8.109944e+00 -6.927766e+00
      vertex   2.770474e+00 8.171980e+00 -6.926245e+00
      vertex   2.999413e+00 8.240818e+00 -6.731165e+00
    endloop
  endfacet
  facet normal 2.596109e-01 7.738382e-01 -5.777341e-01
    outer loop
      vertex   2.999413e+00 8.240818e+00 -6.731165e+00
      vertex   2.770474e+00 8.171980e+00 -6.926245e+00
      vertex   2.815503e+00 8.304801e+00 -6.728106e+00
    endloop
  endfacet
  facet normal 2.637646e-01 7.849580e-01 -5.605972e-01
    outer loop
      vertex   2.999413e+00 8.240818e+00 -6.731165e+00
      vertex   2.815503e+00 8.304801e+00 -6.728106e+00
      vertex   3.045611e+00 8.367748e+00 -6.531698e+00
    endloop
  endfacet
  facet normal 2.633778e-01 7.853268e-01 -5.602623e-01
    outer loop
      vertex   3.045611e+00 8.367748e+00 -6.531698e+00
      vertex   2.815503e+00 8.304801e+00 -6.728106e+00
      vertex   2.859142e+00 8.433522e+00 -6.527161e+00
    endloop
  endfacet
  facet normal 2.675367e-01 7.959308e-01 -5.430637e-01
    outer loop
      vertex   3.045611e+00 8.367748e+00 -6.531698e+00
      vertex   2.859142e+00 8.433522e+00 -6.527161e+00
      vertex   3.090364e+00 8.490704e+00 -6.329444e+00
    endloop
  endfacet
  facet normal 2.670264e-01 7.964138e-01 -5.426067e-01
    outer loop
      vertex   3.090364e+00 8.490704e+00 -6.329444e+00
      vertex   2.859142e+00 8.433522e+00 -6.527161e+00
      vertex   2.901369e+00 8.558076e+00 -6.323566e+00
    endloop
  endfacet
  facet normal 2.711675e-01 8.065246e-01 -5.253439e-01
    outer loop
      vertex   3.090364e+00 8.490704e+00 -6.329444e+00
      vertex   2.901369e+00 8.558076e+00 -6.323566e+00
      vertex   3.133658e+00 8.609655e+00 -6.124479e+00
    endloop
  endfacet
  facet normal 2.705583e-01 8.070955e-01 -5.247810e-01
    outer loop
      vertex   3.133658e+00 8.609655e+00 -6.124479e+00
      vertex   2.901369e+00 8.558076e+00 -6.323566e+00
      vertex   2.942161e+00 8.678400e+00 -6.117480e+00
    endloop
  endfacet
  facet normal 2.746542e-01 8.167403e-01 -5.074450e-01
    outer loop
      vertex   3.133658e+00 8.609655e+00 -6.124479e+00
      vertex   2.942161e+00 8.678400e+00 -6.117480e+00
      vertex   3.175484e+00 8.724571e+00 -5.916882e+00
    endloop
  endfacet
  facet normal 2.739746e-01 8.173692e-01 -5.067992e-01
    outer loop
      vertex   3.175484e+00 8.724571e+00 -5.916882e+00
      vertex   2.942161e+00 8.678400e+00 -6.117480e+00
      vertex   2.981501e+00 8.794440e+00 -5.909064e+00
    endloop
  endfacet
  facet normal 2.779940e-01 8.265790e-01 -4.893736e-01
    outer loop
      vertex   3.175484e+00 8.724571e+00 -5.916882e+00
      vertex   2.981501e+00 8.794440e+00 -5.909064e+00
      vertex   3.215830e+00 8.835421e+00 -5.706731e+00
    endloop
  endfacet
  facet normal 2.772765e-01 8.272330e-01 -4.886751e-01
    outer loop
      vertex   3.215830e+00 8.835421e+00 -5.706731e+00
      vertex   2.981501e+00 8.794440e+00 -5.909064e+00
      vertex   3.019371e+00 8.906145e+00 -5.698481e+00
    endloop
  endfacet
  facet normal 2.811842e-01 8.360419e-01 -4.711362e-01
    outer loop
      vertex   3.215830e+00 8.835421e+00 -5.706731e+00
      vertex   3.019371e+00 8.906145e+00 -5.698481e+00
      vertex   3.254686e+00 8.942176e+00 -5.494102e+00
    endloop
  endfacet
  facet normal 2.809016e-01 8.362951e-01 -4.708554e-01
    outer loop
      vertex   3.254686e+00 8.942176e+00 -5.494102e+00
      vertex   3.019371e+00 8.906145e+00 -5.698481e+00
      vertex   3.058254e+00 9.008883e+00 -5.492810e+00
    endloop
  endfacet
  facet normal 2.633263e-01 8.422022e-01 -4.704835e-01
    outer loop
      vertex   3.058254e+00 9.008883e+00 -5.492810e+00
      vertex   3.019371e+00 8.906145e+00 -5.698481e+00
      vertex   2.860471e+00 9.071404e+00 -5.491590e+00
    endloop
  endfacet
  facet normal 2.628917e-01 8.421671e-01 -4.707892e-01
    outer loop
      vertex   2.860471e+00 9.071404e+00 -5.491590e+00
      vertex   3.019371e+00 8.906145e+00 -5.698481e+00
      vertex   2.820961e+00 8.968081e+00 -5.698481e+00
    endloop
  endfacet
  facet normal 2.456239e-01 8.476695e-01 -4.702395e-01
    outer loop
      vertex   2.860471e+00 9.071404e+00 -5.491590e+00
      vertex   2.820961e+00 8.968081e+00 -5.698481e+00
      vertex   2.661409e+00 9.129721e+00 -5.490443e+00
    endloop
  endfacet
  facet normal 2.449651e-01 8.476068e-01 -4.706961e-01
    outer loop
      vertex   2.661409e+00 9.129721e+00 -5.490443e+00
      vertex   2.820961e+00 8.968081e+00 -5.698481e+00
      vertex   2.622297e+00 9.025496e+00 -5.698481e+00
    endloop
  endfacet
  facet normal 2.278159e-01 8.527370e-01 -4.700421e-01
    outer loop
      vertex   2.661409e+00 9.129721e+00 -5.490443e+00
      vertex   2.622297e+00 9.025496e+00 -5.698481e+00
      vertex   2.461136e+00 9.183815e+00 -5.489373e+00
    endloop
  endfacet
  facet normal 2.270383e-01 8.526501e-01 -4.705757e-01
    outer loop
      vertex   2.461136e+00 9.183815e+00 -5.489373e+00
      vertex   2.622297e+00 9.025496e+00 -5.698481e+00
      vertex   2.423531e+00 9.078423e+00 -5.698481e+00
    endloop
  endfacet
  facet normal 2.099107e-01 8.574030e-01 -4.698910e-01
    outer loop
      vertex   2.461136e+00 9.183815e+00 -5.489373e+00
      vertex   2.423531e+00 9.078423e+00 -5.698481e+00
      vertex   2.259759e+00 9.233660e+00 -5.488381e+00
    endloop
  endfacet
  facet normal 2.091225e-01 8.573003e-01 -4.704296e-01
    outer loop
      vertex   2.259759e+00 9.233660e+00 -5.488381e+00
      vertex   2.423531e+00 9.078423e+00 -5.698481e+00
      vertex   2.224809e+00 9.126897e+00 -5.698481e+00
    endloop
  endfacet
  facet normal 1.919185e-01 8.616660e-01 -4.697861e-01
    outer loop
      vertex   2.259759e+00 9.233660e+00 -5.488381e+00
      vertex   2.224809e+00 9.126897e+00 -5.698481e+00
      vertex   2.057393e+00 9.279230e+00 -5.487470e+00
    endloop
  endfacet
  facet normal 1.912292e-01 8.615619e-01 -4.702578e-01
    outer loop
      vertex   2.057393e+00 9.279230e+00 -5.487470e+00
      vertex   2.224809e+00 9.126897e+00 -5.698481e+00
      vertex   2.026275e+00 9.170963e+00 -5.698481e+00
    endloop
  endfacet
  facet normal 1.738478e-01 8.655246e-01 -4.697277e-01
    outer loop
      vertex   2.057393e+00 9.279230e+00 -5.487470e+00
      vertex   2.026275e+00 9.170963e+00 -5.698481e+00
      vertex   1.854110e+00 9.320512e+00 -5.486640e+00
    endloop
  endfacet
  facet normal 1.733694e-01 8.654414e-01 -4.700578e-01
    outer loop
      vertex   1.854110e+00 9.320512e+00 -5.486640e+00
      vertex   2.026275e+00 9.170963e+00 -5.698481e+00
      vertex   1.828070e+00 9.210668e+00 -5.698481e+00
    endloop
  endfacet
  facet normal 1.557054e-01 8.689761e-01 -4.697194e-01
    outer loop
      vertex   1.854110e+00 9.320512e+00 -5.486640e+00
      vertex   1.828070e+00 9.210668e+00 -5.698481e+00
      vertex   1.649978e+00 9.357492e+00 -5.485894e+00
    endloop
  endfacet
  facet normal 1.555492e-01 8.689450e-01 -4.698287e-01
    outer loop
      vertex   1.649978e+00 9.357492e+00 -5.485894e+00
      vertex   1.828070e+00 9.210668e+00 -5.698481e+00
      vertex   1.630324e+00 9.246027e+00 -5.698555e+00
    endloop
  endfacet
  facet normal 1.538051e-01 8.591530e-01 -4.880574e-01
    outer loop
      vertex   1.630324e+00 9.246027e+00 -5.698555e+00
      vertex   1.828070e+00 9.210668e+00 -5.698481e+00
      vertex   1.609917e+00 9.130292e+00 -5.908719e+00
    endloop
  endfacet
  facet normal 1.538197e-01 8.591438e-01 -4.880690e-01
    outer loop
      vertex   1.609917e+00 9.130292e+00 -5.908719e+00
      vertex   1.828070e+00 9.210668e+00 -5.698481e+00
      vertex   1.805142e+00 9.095143e+00 -5.909064e+00
    endloop
  endfacet
  facet normal 1.519564e-01 8.489712e-01 -5.061197e-01
    outer loop
      vertex   1.609917e+00 9.130292e+00 -5.908719e+00
      vertex   1.805142e+00 9.095143e+00 -5.909064e+00
      vertex   1.588763e+00 9.010322e+00 -6.116310e+00
    endloop
  endfacet
  facet normal 1.520413e-01 8.489165e-01 -5.061860e-01
    outer loop
      vertex   1.588763e+00 9.010322e+00 -6.116310e+00
      vertex   1.805142e+00 9.095143e+00 -5.909064e+00
      vertex   1.781324e+00 8.975136e+00 -6.117480e+00
    endloop
  endfacet
  facet normal 1.500110e-01 8.383978e-01 -5.240093e-01
    outer loop
      vertex   1.588763e+00 9.010322e+00 -6.116310e+00
      vertex   1.781324e+00 8.975136e+00 -6.117480e+00
      vertex   1.566868e+00 8.886149e+00 -6.321250e+00
    endloop
  endfacet
  facet normal 1.502111e-01 8.382663e-01 -5.241624e-01
    outer loop
      vertex   1.566868e+00 8.886149e+00 -6.321250e+00
      vertex   1.781324e+00 8.975136e+00 -6.117480e+00
      vertex   1.756626e+00 8.850698e+00 -6.323566e+00
    endloop
  endfacet
  facet normal 1.479727e-01 8.274320e-01 -5.417199e-01
    outer loop
      vertex   1.566868e+00 8.886149e+00 -6.321250e+00
      vertex   1.756626e+00 8.850698e+00 -6.323566e+00
      vertex   1.544238e+00 8.757808e+00 -6.523462e+00
    endloop
  endfacet
  facet normal 1.483253e-01 8.271955e-01 -5.419846e-01
    outer loop
      vertex   1.544238e+00 8.757808e+00 -6.523462e+00
      vertex   1.756626e+00 8.850698e+00 -6.323566e+00
      vertex   1.731060e+00 8.721885e+00 -6.527161e+00
    endloop
  endfacet
  facet normal 1.458449e-01 8.160728e-01 -5.592445e-01
    outer loop
      vertex   1.544238e+00 8.757808e+00 -6.523462e+00
      vertex   1.731060e+00 8.721885e+00 -6.527161e+00
      vertex   1.520879e+00 8.625332e+00 -6.722869e+00
    endloop
  endfacet
  facet normal 1.463799e-01 8.157068e-01 -5.596386e-01
    outer loop
      vertex   1.520879e+00 8.625332e+00 -6.722869e+00
      vertex   1.731060e+00 8.721885e+00 -6.527161e+00
      vertex   1.704639e+00 8.588763e+00 -6.728106e+00
    endloop
  endfacet
  facet normal 1.436311e-01 8.043197e-01 -5.765761e-01
    outer loop
      vertex   1.520879e+00 8.625332e+00 -6.722869e+00
      vertex   1.704639e+00 8.588763e+00 -6.728106e+00
      vertex   1.496796e+00 8.488754e+00 -6.919393e+00
    endloop
  endfacet
  facet normal 1.443712e-01 8.038038e-01 -5.771104e-01
    outer loop
      vertex   1.496796e+00 8.488754e+00 -6.919393e+00
      vertex   1.704639e+00 8.588763e+00 -6.728106e+00
      vertex   1.677376e+00 8.451401e+00 -6.926245e+00
    endloop
  endfacet
  facet normal 1.413353e-01 7.921719e-01 -5.937070e-01
    outer loop
      vertex   1.496796e+00 8.488754e+00 -6.919393e+00
      vertex   1.677376e+00 8.451401e+00 -6.926245e+00
      vertex   1.471997e+00 8.348109e+00 -7.112957e+00
    endloop
  endfacet
  facet normal 1.419552e-01 7.917321e-01 -5.941455e-01
    outer loop
      vertex   1.471997e+00 8.348109e+00 -7.112957e+00
      vertex   1.677376e+00 8.451401e+00 -6.926245e+00
      vertex   1.654040e+00 8.314891e+00 -7.113727e+00
    endloop
  endfacet
  facet normal 1.580145e-01 7.887913e-01 -5.940032e-01
    outer loop
      vertex   1.654040e+00 8.314891e+00 -7.113727e+00
      vertex   1.677376e+00 8.451401e+00 -6.926245e+00
      vertex   1.859242e+00 8.414969e+00 -6.926245e+00
    endloop
  endfacet
  facet normal 1.584672e-01 7.884602e-01 -5.943220e-01
    outer loop
      vertex   1.654040e+00 8.314891e+00 -7.113727e+00
      vertex   1.859242e+00 8.414969e+00 -6.926245e+00
      vertex   1.835316e+00 8.277812e+00 -7.114583e+00
    endloop
  endfacet
  facet normal 1.743066e-01 7.853190e-01 -5.940466e-01
    outer loop
      vertex   1.835316e+00 8.277812e+00 -7.114583e+00
      vertex   1.859242e+00 8.414969e+00 -6.926245e+00
      vertex   2.041410e+00 8.374535e+00 -6.926245e+00
    endloop
  endfacet
  facet normal 1.749178e-01 7.848565e-01 -5.944780e-01
    outer loop
      vertex   1.835316e+00 8.277812e+00 -7.114583e+00
      vertex   2.041410e+00 8.374535e+00 -6.926245e+00
      vertex   2.015762e+00 8.236885e+00 -7.115524e+00
    endloop
  endfacet
  facet normal 1.906213e-01 7.814544e-01 -5.941317e-01
    outer loop
      vertex   2.015762e+00 8.236885e+00 -7.115524e+00
      vertex   2.041410e+00 8.374535e+00 -6.926245e+00
      vertex   2.223751e+00 8.330057e+00 -6.926245e+00
    endloop
  endfacet
  facet normal 1.913025e-01 7.809190e-01 -5.946166e-01
    outer loop
      vertex   2.015762e+00 8.236885e+00 -7.115524e+00
      vertex   2.223751e+00 8.330057e+00 -6.926245e+00
      vertex   2.195314e+00 8.192121e+00 -7.116547e+00
    endloop
  endfacet
  facet normal 2.069468e-01 7.771958e-01 -5.942556e-01
    outer loop
      vertex   2.195314e+00 8.192121e+00 -7.116547e+00
      vertex   2.223751e+00 8.330057e+00 -6.926245e+00
      vertex   2.406132e+00 8.281493e+00 -6.926245e+00
    endloop
  endfacet
  facet normal 2.076152e-01 7.766477e-01 -5.947388e-01
    outer loop
      vertex   2.195314e+00 8.192121e+00 -7.116547e+00
      vertex   2.406132e+00 8.281493e+00 -6.926245e+00
      vertex   2.373869e+00 8.143544e+00 -7.117650e+00
    endloop
  endfacet
  facet normal 2.232703e-01 7.725403e-01 -5.944173e-01
    outer loop
      vertex   2.373869e+00 8.143544e+00 -7.117650e+00
      vertex   2.406132e+00 8.281493e+00 -6.926245e+00
      vertex   2.588420e+00 8.228811e+00 -6.926245e+00
    endloop
  endfacet
  facet normal 2.238494e-01 7.720433e-01 -5.948450e-01
    outer loop
      vertex   2.373869e+00 8.143544e+00 -7.117650e+00
      vertex   2.588420e+00 8.228811e+00 -6.926245e+00
      vertex   2.551330e+00 8.091179e+00 -7.118833e+00
    endloop
  endfacet
  facet normal 2.395789e-01 7.674849e-01 -5.946166e-01
    outer loop
      vertex   2.551330e+00 8.091179e+00 -7.118833e+00
      vertex   2.588420e+00 8.228811e+00 -6.926245e+00
      vertex   2.770474e+00 8.171980e+00 -6.926245e+00
    endloop
  endfacet
  facet normal 2.399991e-01 7.671061e-01 -5.949359e-01
    outer loop
      vertex   2.551330e+00 8.091179e+00 -7.118833e+00
      vertex   2.770474e+00 8.171980e+00 -6.926245e+00
      vertex   2.727634e+00 8.035044e+00 -7.120091e+00
    endloop
  endfacet
  facet normal 2.432424e-01 7.792210e-01 -5.776225e-01
    outer loop
      vertex   2.815503e+00 8.304801e+00 -6.728106e+00
      vertex   2.770474e+00 8.171980e+00 -6.926245e+00
      vertex   2.630490e+00 8.362555e+00 -6.728106e+00
    endloop
  endfacet
  facet normal 2.432424e-01 7.792210e-01 -5.776225e-01
    outer loop
      vertex   2.630490e+00 8.362555e+00 -6.728106e+00
      vertex   2.770474e+00 8.171980e+00 -6.926245e+00
      vertex   2.588420e+00 8.228811e+00 -6.926245e+00
    endloop
  endfacet
  facet normal 2.266635e-01 7.842810e-01 -5.775179e-01
    outer loop
      vertex   2.630490e+00 8.362555e+00 -6.728106e+00
      vertex   2.588420e+00 8.228811e+00 -6.926245e+00
      vertex   2.445240e+00 8.416094e+00 -6.728106e+00
    endloop
  endfacet
  facet normal 2.266635e-01 7.842810e-01 -5.775179e-01
    outer loop
      vertex   2.445240e+00 8.416094e+00 -6.728106e+00
      vertex   2.588420e+00 8.228811e+00 -6.926245e+00
      vertex   2.406132e+00 8.281493e+00 -6.926245e+00
    endloop
  endfacet
  facet normal 2.100784e-01 7.889566e-01 -5.774207e-01
    outer loop
      vertex   2.445240e+00 8.416094e+00 -6.728106e+00
      vertex   2.406132e+00 8.281493e+00 -6.926245e+00
      vertex   2.259894e+00 8.465446e+00 -6.728106e+00
    endloop
  endfacet
  facet normal 2.100784e-01 7.889566e-01 -5.774207e-01
    outer loop
      vertex   2.259894e+00 8.465446e+00 -6.728106e+00
      vertex   2.406132e+00 8.281493e+00 -6.926245e+00
      vertex   2.223751e+00 8.330057e+00 -6.926245e+00
    endloop
  endfacet
  facet normal 1.934989e-01 7.932511e-01 -5.773308e-01
    outer loop
      vertex   2.259894e+00 8.465446e+00 -6.728106e+00
      vertex   2.223751e+00 8.330057e+00 -6.926245e+00
      vertex   2.074589e+00 8.510648e+00 -6.728106e+00
    endloop
  endfacet
  facet normal 1.934989e-01 7.932511e-01 -5.773308e-01
    outer loop
      vertex   2.074589e+00 8.510648e+00 -6.728106e+00
      vertex   2.223751e+00 8.330057e+00 -6.926245e+00
      vertex   2.041410e+00 8.374535e+00 -6.926245e+00
    endloop
  endfacet
  facet normal 1.769367e-01 7.971685e-01 -5.772485e-01
    outer loop
      vertex   2.074589e+00 8.510648e+00 -6.728106e+00
      vertex   2.041410e+00 8.374535e+00 -6.926245e+00
      vertex   1.889461e+00 8.551738e+00 -6.728106e+00
    endloop
  endfacet
  facet normal 1.769367e-01 7.971685e-01 -5.772485e-01
    outer loop
      vertex   1.889461e+00 8.551738e+00 -6.728106e+00
      vertex   2.041410e+00 8.374535e+00 -6.926245e+00
      vertex   1.859242e+00 8.414969e+00 -6.926245e+00
    endloop
  endfacet
  facet normal 1.604028e-01 8.007131e-01 -5.771736e-01
    outer loop
      vertex   1.889461e+00 8.551738e+00 -6.728106e+00
      vertex   1.859242e+00 8.414969e+00 -6.926245e+00
      vertex   1.704639e+00 8.588763e+00 -6.728106e+00
    endloop
  endfacet
  facet normal 1.604028e-01 8.007131e-01 -5.771736e-01
    outer loop
      vertex   1.704639e+00 8.588763e+00 -6.728106e+00
      vertex   1.859242e+00 8.414969e+00 -6.926245e+00
      vertex   1.677376e+00 8.451401e+00 -6.926245e+00
    endloop
  endfacet
  facet normal 2.468440e-01 7.907584e-01 -5.601510e-01
    outer loop
      vertex   2.859142e+00 8.433522e+00 -6.527161e+00
      vertex   2.815503e+00 8.304801e+00 -6.728106e+00
      vertex   2.671261e+00 8.492171e+00 -6.527161e+00
    endloop
  endfacet
  facet normal 2.468440e-01 7.907584e-01 -5.601510e-01
    outer loop
      vertex   2.671261e+00 8.492171e+00 -6.527161e+00
      vertex   2.815503e+00 8.304801e+00 -6.728106e+00
      vertex   2.630490e+00 8.362555e+00 -6.728106e+00
    endloop
  endfacet
  facet normal 2.300183e-01 7.958891e-01 -5.600466e-01
    outer loop
      vertex   2.671261e+00 8.492171e+00 -6.527161e+00
      vertex   2.630490e+00 8.362555e+00 -6.728106e+00
      vertex   2.483140e+00 8.546540e+00 -6.527161e+00
    endloop
  endfacet
  facet normal 2.300183e-01 7.958891e-01 -5.600466e-01
    outer loop
      vertex   2.483140e+00 8.546540e+00 -6.527161e+00
      vertex   2.630490e+00 8.362555e+00 -6.728106e+00
      vertex   2.445240e+00 8.416094e+00 -6.728106e+00
    endloop
  endfacet
  facet normal 2.131866e-01 8.006298e-01 -5.599494e-01
    outer loop
      vertex   2.483140e+00 8.546540e+00 -6.527161e+00
      vertex   2.445240e+00 8.416094e+00 -6.728106e+00
      vertex   2.294921e+00 8.596658e+00 -6.527161e+00
    endloop
  endfacet
  facet normal 2.131866e-01 8.006298e-01 -5.599494e-01
    outer loop
      vertex   2.294921e+00 8.596658e+00 -6.527161e+00
      vertex   2.445240e+00 8.416094e+00 -6.728106e+00
      vertex   2.259894e+00 8.465446e+00 -6.728106e+00
    endloop
  endfacet
  facet normal 1.963610e-01 8.049841e-01 -5.598597e-01
    outer loop
      vertex   2.294921e+00 8.596658e+00 -6.527161e+00
      vertex   2.259894e+00 8.465446e+00 -6.728106e+00
      vertex   2.106745e+00 8.642560e+00 -6.527161e+00
    endloop
  endfacet
  facet normal 1.963610e-01 8.049841e-01 -5.598597e-01
    outer loop
      vertex   2.106745e+00 8.642560e+00 -6.527161e+00
      vertex   2.259894e+00 8.465446e+00 -6.728106e+00
      vertex   2.074589e+00 8.510648e+00 -6.728106e+00
    endloop
  endfacet
  facet normal 1.795530e-01 8.089560e-01 -5.597775e-01
    outer loop
      vertex   2.106745e+00 8.642560e+00 -6.527161e+00
      vertex   2.074589e+00 8.510648e+00 -6.728106e+00
      vertex   1.918747e+00 8.684287e+00 -6.527161e+00
    endloop
  endfacet
  facet normal 1.795530e-01 8.089560e-01 -5.597775e-01
    outer loop
      vertex   1.918747e+00 8.684287e+00 -6.527161e+00
      vertex   2.074589e+00 8.510648e+00 -6.728106e+00
      vertex   1.889461e+00 8.551738e+00 -6.728106e+00
    endloop
  endfacet
  facet normal 1.627740e-01 8.125500e-01 -5.597028e-01
    outer loop
      vertex   1.918747e+00 8.684287e+00 -6.527161e+00
      vertex   1.889461e+00 8.551738e+00 -6.728106e+00
      vertex   1.731060e+00 8.721885e+00 -6.527161e+00
    endloop
  endfacet
  facet normal 1.627740e-01 8.125500e-01 -5.597028e-01
    outer loop
      vertex   1.731060e+00 8.721885e+00 -6.527161e+00
      vertex   1.889461e+00 8.551738e+00 -6.728106e+00
      vertex   1.704639e+00 8.588763e+00 -6.728106e+00
    endloop
  endfacet
  facet normal 2.503208e-01 8.018963e-01 -5.424959e-01
    outer loop
      vertex   2.901369e+00 8.558076e+00 -6.323566e+00
      vertex   2.859142e+00 8.433522e+00 -6.527161e+00
      vertex   2.710713e+00 8.617591e+00 -6.323566e+00
    endloop
  endfacet
  facet normal 2.503208e-01 8.018963e-01 -5.424959e-01
    outer loop
      vertex   2.710713e+00 8.617591e+00 -6.323566e+00
      vertex   2.859142e+00 8.433522e+00 -6.527161e+00
      vertex   2.671261e+00 8.492171e+00 -6.527161e+00
    endloop
  endfacet
  facet normal 2.332569e-01 8.070950e-01 -5.423919e-01
    outer loop
      vertex   2.710713e+00 8.617591e+00 -6.323566e+00
      vertex   2.671261e+00 8.492171e+00 -6.527161e+00
      vertex   2.519813e+00 8.672763e+00 -6.323566e+00
    endloop
  endfacet
  facet normal 2.332569e-01 8.070950e-01 -5.423919e-01
    outer loop
      vertex   2.519813e+00 8.672763e+00 -6.323566e+00
      vertex   2.671261e+00 8.492171e+00 -6.527161e+00
      vertex   2.483140e+00 8.546540e+00 -6.527161e+00
    endloop
  endfacet
  facet normal 2.161872e-01 8.118984e-01 -5.422951e-01
    outer loop
      vertex   2.519813e+00 8.672763e+00 -6.323566e+00
      vertex   2.483140e+00 8.546540e+00 -6.527161e+00
      vertex   2.328815e+00 8.723621e+00 -6.323566e+00
    endloop
  endfacet
  facet normal 2.161872e-01 8.118984e-01 -5.422951e-01
    outer loop
      vertex   2.328815e+00 8.723621e+00 -6.323566e+00
      vertex   2.483140e+00 8.546540e+00 -6.527161e+00
      vertex   2.294921e+00 8.596658e+00 -6.527161e+00
    endloop
  endfacet
  facet normal 1.991238e-01 8.163103e-01 -5.422058e-01
    outer loop
      vertex   2.328815e+00 8.723621e+00 -6.323566e+00
      vertex   2.294921e+00 8.596658e+00 -6.527161e+00
      vertex   2.137859e+00 8.770201e+00 -6.323566e+00
    endloop
  endfacet
  facet normal 1.991238e-01 8.163103e-01 -5.422058e-01
    outer loop
      vertex   2.137859e+00 8.770201e+00 -6.323566e+00
      vertex   2.294921e+00 8.596658e+00 -6.527161e+00
      vertex   2.106745e+00 8.642560e+00 -6.527161e+00
    endloop
  endfacet
  facet normal 1.820785e-01 8.203347e-01 -5.421239e-01
    outer loop
      vertex   2.137859e+00 8.770201e+00 -6.323566e+00
      vertex   2.106745e+00 8.642560e+00 -6.527161e+00
      vertex   1.947084e+00 8.812544e+00 -6.323566e+00
    endloop
  endfacet
  facet normal 1.820785e-01 8.203347e-01 -5.421239e-01
    outer loop
      vertex   1.947084e+00 8.812544e+00 -6.323566e+00
      vertex   2.106745e+00 8.642560e+00 -6.527161e+00
      vertex   1.918747e+00 8.684287e+00 -6.527161e+00
    endloop
  endfacet
  facet normal 1.650629e-01 8.239761e-01 -5.420495e-01
    outer loop
      vertex   1.947084e+00 8.812544e+00 -6.323566e+00
      vertex   1.918747e+00 8.684287e+00 -6.527161e+00
      vertex   1.756626e+00 8.850698e+00 -6.323566e+00
    endloop
  endfacet
  facet normal 1.650629e-01 8.239761e-01 -5.420495e-01
    outer loop
      vertex   1.756626e+00 8.850698e+00 -6.323566e+00
      vertex   1.918747e+00 8.684287e+00 -6.527161e+00
      vertex   1.731060e+00 8.721885e+00 -6.527161e+00
    endloop
  endfacet
  facet normal 2.536720e-01 8.126320e-01 -5.246711e-01
    outer loop
      vertex   2.942161e+00 8.678400e+00 -6.117480e+00
      vertex   2.901369e+00 8.558076e+00 -6.323566e+00
      vertex   2.748825e+00 8.738752e+00 -6.117480e+00
    endloop
  endfacet
  facet normal 2.536720e-01 8.126320e-01 -5.246711e-01
    outer loop
      vertex   2.748825e+00 8.738752e+00 -6.117480e+00
      vertex   2.901369e+00 8.558076e+00 -6.323566e+00
      vertex   2.710713e+00 8.617591e+00 -6.323566e+00
    endloop
  endfacet
  facet normal 2.363785e-01 8.178960e-01 -5.245677e-01
    outer loop
      vertex   2.748825e+00 8.738752e+00 -6.117480e+00
      vertex   2.710713e+00 8.617591e+00 -6.323566e+00
      vertex   2.555241e+00 8.794700e+00 -6.117480e+00
    endloop
  endfacet
  facet normal 2.363785e-01 8.178960e-01 -5.245677e-01
    outer loop
      vertex   2.555241e+00 8.794700e+00 -6.117480e+00
      vertex   2.710713e+00 8.617591e+00 -6.323566e+00
      vertex   2.519813e+00 8.672763e+00 -6.323566e+00
    endloop
  endfacet
  facet normal 2.190793e-01 8.227598e-01 -5.244717e-01
    outer loop
      vertex   2.555241e+00 8.794700e+00 -6.117480e+00
      vertex   2.519813e+00 8.672763e+00 -6.323566e+00
      vertex   2.361557e+00 8.846273e+00 -6.117480e+00
    endloop
  endfacet
  facet normal 2.190793e-01 8.227598e-01 -5.244717e-01
    outer loop
      vertex   2.361557e+00 8.846273e+00 -6.117480e+00
      vertex   2.519813e+00 8.672763e+00 -6.323566e+00
      vertex   2.328815e+00 8.723621e+00 -6.323566e+00
    endloop
  endfacet
  facet normal 2.017867e-01 8.272271e-01 -5.243830e-01
    outer loop
      vertex   2.361557e+00 8.846273e+00 -6.117480e+00
      vertex   2.328815e+00 8.723621e+00 -6.323566e+00
      vertex   2.167917e+00 8.893508e+00 -6.117480e+00
    endloop
  endfacet
  facet normal 2.017867e-01 8.272271e-01 -5.243830e-01
    outer loop
      vertex   2.167917e+00 8.893508e+00 -6.117480e+00
      vertex   2.328815e+00 8.723621e+00 -6.323566e+00
      vertex   2.137859e+00 8.770201e+00 -6.323566e+00
    endloop
  endfacet
  facet normal 1.845128e-01 8.313019e-01 -5.243016e-01
    outer loop
      vertex   2.167917e+00 8.893508e+00 -6.117480e+00
      vertex   2.137859e+00 8.770201e+00 -6.323566e+00
      vertex   1.974460e+00 8.936446e+00 -6.117480e+00
    endloop
  endfacet
  facet normal 1.845128e-01 8.313019e-01 -5.243016e-01
    outer loop
      vertex   1.974460e+00 8.936446e+00 -6.117480e+00
      vertex   2.137859e+00 8.770201e+00 -6.323566e+00
      vertex   1.947084e+00 8.812544e+00 -6.323566e+00
    endloop
  endfacet
  facet normal 1.672690e-01 8.349889e-01 -5.242277e-01
    outer loop
      vertex   1.974460e+00 8.936446e+00 -6.117480e+00
      vertex   1.947084e+00 8.812544e+00 -6.323566e+00
      vertex   1.781324e+00 8.975136e+00 -6.117480e+00
    endloop
  endfacet
  facet normal 1.672690e-01 8.349889e-01 -5.242277e-01
    outer loop
      vertex   1.781324e+00 8.975136e+00 -6.117480e+00
      vertex   1.947084e+00 8.812544e+00 -6.323566e+00
      vertex   1.756626e+00 8.850698e+00 -6.323566e+00
    endloop
  endfacet
  facet normal 2.599955e-01 8.328890e-01 -4.885676e-01
    outer loop
      vertex   2.820961e+00 8.968081e+00 -5.698481e+00
      vertex   3.019371e+00 8.906145e+00 -5.698481e+00
      vertex   2.981501e+00 8.794440e+00 -5.909064e+00
    endloop
  endfacet
  facet normal 2.568971e-01 8.229634e-01 -5.066904e-01
    outer loop
      vertex   2.981501e+00 8.794440e+00 -5.909064e+00
      vertex   2.942161e+00 8.678400e+00 -6.117480e+00
      vertex   2.785579e+00 8.855599e+00 -5.909064e+00
    endloop
  endfacet
  facet normal 2.568971e-01 8.229634e-01 -5.066904e-01
    outer loop
      vertex   2.785579e+00 8.855599e+00 -5.909064e+00
      vertex   2.942161e+00 8.678400e+00 -6.117480e+00
      vertex   2.748825e+00 8.738752e+00 -6.117480e+00
    endloop
  endfacet
  facet normal 2.393824e-01 8.282902e-01 -5.065880e-01
    outer loop
      vertex   2.785579e+00 8.855599e+00 -5.909064e+00
      vertex   2.748825e+00 8.738752e+00 -6.117480e+00
      vertex   2.589407e+00 8.912294e+00 -5.909064e+00
    endloop
  endfacet
  facet normal 2.393824e-01 8.282902e-01 -5.065880e-01
    outer loop
      vertex   2.589407e+00 8.912294e+00 -5.909064e+00
      vertex   2.748825e+00 8.738752e+00 -6.117480e+00
      vertex   2.555241e+00 8.794700e+00 -6.117480e+00
    endloop
  endfacet
  facet normal 2.218624e-01 8.332119e-01 -5.064929e-01
    outer loop
      vertex   2.589407e+00 8.912294e+00 -5.909064e+00
      vertex   2.555241e+00 8.794700e+00 -6.117480e+00
      vertex   2.393134e+00 8.964556e+00 -5.909064e+00
    endloop
  endfacet
  facet normal 2.218624e-01 8.332119e-01 -5.064929e-01
    outer loop
      vertex   2.393134e+00 8.964556e+00 -5.909064e+00
      vertex   2.555241e+00 8.794700e+00 -6.117480e+00
      vertex   2.361557e+00 8.846273e+00 -6.117480e+00
    endloop
  endfacet
  facet normal 2.043493e-01 8.377323e-01 -5.064050e-01
    outer loop
      vertex   2.393134e+00 8.964556e+00 -5.909064e+00
      vertex   2.361557e+00 8.846273e+00 -6.117480e+00
      vertex   2.196904e+00 9.012423e+00 -5.909064e+00
    endloop
  endfacet
  facet normal 2.043493e-01 8.377323e-01 -5.064050e-01
    outer loop
      vertex   2.196904e+00 9.012423e+00 -5.909064e+00
      vertex   2.361557e+00 8.846273e+00 -6.117480e+00
      vertex   2.167917e+00 8.893508e+00 -6.117480e+00
    endloop
  endfacet
  facet normal 1.868552e-01 8.418555e-01 -5.063245e-01
    outer loop
      vertex   2.196904e+00 9.012423e+00 -5.909064e+00
      vertex   2.167917e+00 8.893508e+00 -6.117480e+00
      vertex   2.000860e+00 9.055936e+00 -5.909064e+00
    endloop
  endfacet
  facet normal 1.868552e-01 8.418555e-01 -5.063245e-01
    outer loop
      vertex   2.000860e+00 9.055936e+00 -5.909064e+00
      vertex   2.167917e+00 8.893508e+00 -6.117480e+00
      vertex   1.974460e+00 8.936446e+00 -6.117480e+00
    endloop
  endfacet
  facet normal 1.693920e-01 8.455862e-01 -5.062513e-01
    outer loop
      vertex   2.000860e+00 9.055936e+00 -5.909064e+00
      vertex   1.974460e+00 8.936446e+00 -6.117480e+00
      vertex   1.805142e+00 9.095143e+00 -5.909064e+00
    endloop
  endfacet
  facet normal 1.693920e-01 8.455862e-01 -5.062513e-01
    outer loop
      vertex   1.805142e+00 9.095143e+00 -5.909064e+00
      vertex   1.974460e+00 8.936446e+00 -6.117480e+00
      vertex   1.781324e+00 8.975136e+00 -6.117480e+00
    endloop
  endfacet
  facet normal 2.422684e-01 8.382759e-01 -4.884665e-01
    outer loop
      vertex   2.622297e+00 9.025496e+00 -5.698481e+00
      vertex   2.820961e+00 8.968081e+00 -5.698481e+00
      vertex   2.785579e+00 8.855599e+00 -5.909064e+00
    endloop
  endfacet
  facet normal 2.599955e-01 8.328890e-01 -4.885676e-01
    outer loop
      vertex   2.785579e+00 8.855599e+00 -5.909064e+00
      vertex   2.820961e+00 8.968081e+00 -5.698481e+00
      vertex   2.981501e+00 8.794440e+00 -5.909064e+00
    endloop
  endfacet
  facet normal 2.422684e-01 8.382759e-01 -4.884665e-01
    outer loop
      vertex   2.622297e+00 9.025496e+00 -5.698481e+00
      vertex   2.785579e+00 8.855599e+00 -5.909064e+00
      vertex   2.589407e+00 8.912294e+00 -5.909064e+00
    endloop
  endfacet
  facet normal 2.245361e-01 8.432531e-01 -4.883726e-01
    outer loop
      vertex   2.423531e+00 9.078423e+00 -5.698481e+00
      vertex   2.622297e+00 9.025496e+00 -5.698481e+00
      vertex   2.589407e+00 8.912294e+00 -5.909064e+00
    endloop
  endfacet
  facet normal 2.245361e-01 8.432531e-01 -4.883726e-01
    outer loop
      vertex   2.423531e+00 9.078423e+00 -5.698481e+00
      vertex   2.589407e+00 8.912294e+00 -5.909064e+00
      vertex   2.393134e+00 8.964556e+00 -5.909064e+00
    endloop
  endfacet
  facet normal 2.068111e-01 8.478244e-01 -4.882858e-01
    outer loop
      vertex   2.224809e+00 9.126897e+00 -5.698481e+00
      vertex   2.423531e+00 9.078423e+00 -5.698481e+00
      vertex   2.393134e+00 8.964556e+00 -5.909064e+00
    endloop
  endfacet
  facet normal 2.068111e-01 8.478244e-01 -4.882858e-01
    outer loop
      vertex   2.224809e+00 9.126897e+00 -5.698481e+00
      vertex   2.393134e+00 8.964556e+00 -5.909064e+00
      vertex   2.196904e+00 9.012423e+00 -5.909064e+00
    endloop
  endfacet
  facet normal 1.891055e-01 8.519940e-01 -4.882062e-01
    outer loop
      vertex   2.026275e+00 9.170963e+00 -5.698481e+00
      vertex   2.224809e+00 9.126897e+00 -5.698481e+00
      vertex   2.196904e+00 9.012423e+00 -5.909064e+00
    endloop
  endfacet
  facet normal 1.891055e-01 8.519940e-01 -4.882062e-01
    outer loop
      vertex   2.026275e+00 9.170963e+00 -5.698481e+00
      vertex   2.196904e+00 9.012423e+00 -5.909064e+00
      vertex   2.000860e+00 9.055936e+00 -5.909064e+00
    endloop
  endfacet
  facet normal 1.714314e-01 8.557667e-01 -4.881339e-01
    outer loop
      vertex   1.828070e+00 9.210668e+00 -5.698481e+00
      vertex   2.026275e+00 9.170963e+00 -5.698481e+00
      vertex   2.000860e+00 9.055936e+00 -5.909064e+00
    endloop
  endfacet
  facet normal 1.714314e-01 8.557667e-01 -4.881339e-01
    outer loop
      vertex   1.828070e+00 9.210668e+00 -5.698481e+00
      vertex   2.000860e+00 9.055936e+00 -5.909064e+00
      vertex   1.805142e+00 9.095143e+00 -5.909064e+00
    endloop
  endfacet
  facet normal 9.396926e-01 -3.420201e-01 -3.728429e-15
    outer loop
      vertex   2.902719e+00 7.975155e+00 -7.121424e+00
      vertex   2.951778e+00 8.109944e+00 -6.927766e+00
      vertex   -2.307555e-14 0.000000e+00 1.776357e-14
    endloop
  endfacet
  facet normal 9.396926e-01 -3.420201e-01 1.334800e-15
    outer loop
      vertex   -2.307555e-14 0.000000e+00 1.776357e-14
      vertex   2.951778e+00 8.109944e+00 -6.927766e+00
      vertex   2.999413e+00 8.240818e+00 -6.731165e+00
    endloop
  endfacet
  facet normal 9.396926e-01 -3.420201e-01 0.000000e+00
    outer loop
      vertex   -2.307555e-14 0.000000e+00 1.776357e-14
      vertex   2.999413e+00 8.240818e+00 -6.731165e+00
      vertex   3.045611e+00 8.367748e+00 -6.531698e+00
    endloop
  endfacet
  facet normal 9.396926e-01 -3.420201e-01 2.968196e-15
    outer loop
      vertex   3.045611e+00 8.367748e+00 -6.531698e+00
      vertex   3.090364e+00 8.490704e+00 -6.329444e+00
      vertex   -2.307555e-14 0.000000e+00 1.776357e-14
    endloop
  endfacet
  facet normal 9.396926e-01 -3.420201e-01 1.339033e-15
    outer loop
      vertex   -2.307555e-14 0.000000e+00 1.776357e-14
      vertex   3.090364e+00 8.490704e+00 -6.329444e+00
      vertex   3.133658e+00 8.609655e+00 -6.124479e+00
    endloop
  endfacet
  facet normal 9.396926e-01 -3.420201e-01 1.340135e-15
    outer loop
      vertex   -2.307555e-14 0.000000e+00 1.776357e-14
      vertex   3.133658e+00 8.609655e+00 -6.124479e+00
      vertex   3.175484e+00 8.724571e+00 -5.916882e+00
    endloop
  endfacet
  facet normal 9.396926e-01 -3.420201e-01 4.190895e-17
    outer loop
      vertex   3.175484e+00 8.724571e+00 -5.916882e+00
      vertex   3.215830e+00 8.835421e+00 -5.706731e+00
      vertex   -2.307555e-14 0.000000e+00 1.776357e-14
    endloop
  endfacet
  facet normal 9.396926e-01 -3.420201e-01 6.709446e-15
    outer loop
      vertex   -2.307555e-14 0.000000e+00 1.776357e-14
      vertex   3.215830e+00 8.835421e+00 -5.706731e+00
      vertex   3.254686e+00 8.942176e+00 -5.494102e+00
    endloop
  endfacet
  facet normal 1.628027e-01 4.728133e-01 8.659924e-01
    outer loop
      vertex   -2.307555e-14 0.000000e+00 1.776357e-14
      vertex   3.254686e+00 8.942176e+00 -5.494102e+00
      vertex   1.470313e+00 4.525158e+00 -2.747051e+00
    endloop
  endfacet
  facet normal 1.658582e-01 4.716222e-01 8.660621e-01
    outer loop
      vertex   1.470313e+00 4.525158e+00 -2.747051e+00
      vertex   3.254686e+00 8.942176e+00 -5.494102e+00
      vertex   3.058254e+00 9.008883e+00 -5.492810e+00
    endloop
  endfacet
  facet normal 1.555687e-01 4.752284e-01 8.660002e-01
    outer loop
      vertex   1.470313e+00 4.525158e+00 -2.747051e+00
      vertex   3.058254e+00 9.008883e+00 -5.492810e+00
      vertex   2.860471e+00 9.071404e+00 -5.491590e+00
    endloop
  endfacet
  facet normal 1.461775e-01 4.781252e-01 8.660418e-01
    outer loop
      vertex   1.470313e+00 4.525158e+00 -2.747051e+00
      vertex   2.860471e+00 9.071404e+00 -5.491590e+00
      vertex   1.311491e+00 4.573714e+00 -2.747051e+00
    endloop
  endfacet
  facet normal 1.451575e-01 4.784663e-01 8.660250e-01
    outer loop
      vertex   1.311491e+00 4.573714e+00 -2.747051e+00
      vertex   2.860471e+00 9.071404e+00 -5.491590e+00
      vertex   2.661409e+00 9.129721e+00 -5.490443e+00
    endloop
  endfacet
  facet normal 1.346965e-01 4.815533e-01 8.660042e-01
    outer loop
      vertex   1.311491e+00 4.573714e+00 -2.747051e+00
      vertex   2.661409e+00 9.129721e+00 -5.490443e+00
      vertex   2.461136e+00 9.183815e+00 -5.489373e+00
    endloop
  endfacet
  facet normal 1.293947e-01 4.829077e-01 8.660584e-01
    outer loop
      vertex   1.311491e+00 4.573714e+00 -2.747051e+00
      vertex   2.461136e+00 9.183815e+00 -5.489373e+00
      vertex   1.151072e+00 4.616698e+00 -2.747051e+00
    endloop
  endfacet
  facet normal 1.241581e-01 4.843773e-01 8.660043e-01
    outer loop
      vertex   1.151072e+00 4.616698e+00 -2.747051e+00
      vertex   2.461136e+00 9.183815e+00 -5.489373e+00
      vertex   2.259759e+00 9.233660e+00 -5.488381e+00
    endloop
  endfacet
  facet normal 1.135518e-01 4.869364e-01 8.660248e-01
    outer loop
      vertex   1.151072e+00 4.616698e+00 -2.747051e+00
      vertex   2.259759e+00 9.233660e+00 -5.488381e+00
      vertex   2.057393e+00 9.279230e+00 -5.487470e+00
    endloop
  endfacet
  facet normal 1.124690e-01 4.871570e-01 8.660420e-01
    outer loop
      vertex   1.151072e+00 4.616698e+00 -2.747051e+00
      vertex   2.057393e+00 9.279230e+00 -5.487470e+00
      vertex   9.892505e-01 4.654058e+00 -2.747051e+00
    endloop
  endfacet
  facet normal 1.029072e-01 4.893403e-01 8.660001e-01
    outer loop
      vertex   9.892505e-01 4.654058e+00 -2.747051e+00
      vertex   2.057393e+00 9.279230e+00 -5.487470e+00
      vertex   1.854110e+00 9.320512e+00 -5.486640e+00
    endloop
  endfacet
  facet normal 9.218295e-02 4.913643e-01 8.660620e-01
    outer loop
      vertex   9.892505e-01 4.654058e+00 -2.747051e+00
      vertex   1.854110e+00 9.320512e+00 -5.486640e+00
      vertex   1.649978e+00 9.357492e+00 -5.485894e+00
    endloop
  endfacet
  facet normal 9.541540e-02 4.908697e-01 8.659924e-01
    outer loop
      vertex   1.649978e+00 9.357492e+00 -5.485894e+00
      vertex   -2.307555e-14 0.000000e+00 1.776357e-14
      vertex   9.892505e-01 4.654058e+00 -2.747051e+00
    endloop
  endfacet
  facet normal 1.124884e-01 4.872407e-01 8.659924e-01
    outer loop
      vertex   9.892505e-01 4.654058e+00 -2.747051e+00
      vertex   -2.307555e-14 0.000000e+00 1.776357e-14
      vertex   1.151072e+00 4.616698e+00 -2.747051e+00
    endloop
  endfacet
  facet normal 1.294243e-01 4.830181e-01 8.659924e-01
    outer loop
      vertex   1.151072e+00 4.616698e+00 -2.747051e+00
      vertex   -2.307555e-14 0.000000e+00 1.776357e-14
      vertex   1.311491e+00 4.573714e+00 -2.747051e+00
    endloop
  endfacet
  facet normal 1.462026e-01 4.782070e-01 8.659924e-01
    outer loop
      vertex   1.311491e+00 4.573714e+00 -2.747051e+00
      vertex   -2.307555e-14 0.000000e+00 1.776357e-14
      vertex   1.470313e+00 4.525158e+00 -2.747051e+00
    endloop
  endfacet
  facet normal -1.254222e-01 -6.305241e-01 -7.659691e-01
    outer loop
      vertex   -2.307555e-14 0.000000e+00 1.776357e-14
      vertex   1.471997e+00 8.348109e+00 -7.112957e+00
      vertex   9.185000e-01 4.142895e+00 -3.560712e+00
    endloop
  endfacet
  facet normal -1.184938e-01 -6.316113e-01 -7.661765e-01
    outer loop
      vertex   9.185000e-01 4.142895e+00 -3.560712e+00
      vertex   1.471997e+00 8.348109e+00 -7.112957e+00
      vertex   1.654040e+00 8.314891e+00 -7.113727e+00
    endloop
  endfacet
  facet normal -1.322857e-01 -6.290511e-01 -7.660256e-01
    outer loop
      vertex   9.185000e-01 4.142895e+00 -3.560712e+00
      vertex   1.654040e+00 8.314891e+00 -7.113727e+00
      vertex   1.835316e+00 8.277812e+00 -7.114583e+00
    endloop
  endfacet
  facet normal -1.459803e-01 -6.260148e-01 -7.660256e-01
    outer loop
      vertex   1.835316e+00 8.277812e+00 -7.114583e+00
      vertex   2.015762e+00 8.236885e+00 -7.115524e+00
      vertex   9.185000e-01 4.142895e+00 -3.560712e+00
    endloop
  endfacet
  facet normal -1.527675e-01 -6.242775e-01 -7.661199e-01
    outer loop
      vertex   9.185000e-01 4.142895e+00 -3.560712e+00
      vertex   2.015762e+00 8.236885e+00 -7.115524e+00
      vertex   1.098353e+00 4.098883e+00 -3.560712e+00
    endloop
  endfacet
  facet normal -1.528102e-01 -6.244521e-01 -7.659691e-01
    outer loop
      vertex   9.185000e-01 4.142895e+00 -3.560712e+00
      vertex   1.098353e+00 4.098883e+00 -3.560712e+00
      vertex   -2.307555e-14 0.000000e+00 1.776357e-14
    endloop
  endfacet
  facet normal -1.596046e-01 -6.226807e-01 -7.660256e-01
    outer loop
      vertex   2.015762e+00 8.236885e+00 -7.115524e+00
      vertex   2.195314e+00 8.192121e+00 -7.116547e+00
      vertex   1.098353e+00 4.098883e+00 -3.560712e+00
    endloop
  endfacet
  facet normal -1.731517e-01 -6.190502e-01 -7.660257e-01
    outer loop
      vertex   1.098353e+00 4.098883e+00 -3.560712e+00
      vertex   2.195314e+00 8.192121e+00 -7.116547e+00
      vertex   2.373869e+00 8.143544e+00 -7.117650e+00
    endloop
  endfacet
  facet normal -1.798531e-01 -6.170197e-01 -7.661198e-01
    outer loop
      vertex   1.098353e+00 4.098883e+00 -3.560712e+00
      vertex   2.373869e+00 8.143544e+00 -7.117650e+00
      vertex   1.276086e+00 4.047076e+00 -3.560712e+00
    endloop
  endfacet
  facet normal -1.866131e-01 -6.151263e-01 -7.660256e-01
    outer loop
      vertex   1.276086e+00 4.047076e+00 -3.560712e+00
      vertex   2.373869e+00 8.143544e+00 -7.117650e+00
      vertex   2.551330e+00 8.091179e+00 -7.118833e+00
    endloop
  endfacet
  facet normal -1.999825e-01 -6.109105e-01 -7.660257e-01
    outer loop
      vertex   1.276086e+00 4.047076e+00 -3.560712e+00
      vertex   2.551330e+00 8.091179e+00 -7.118833e+00
      vertex   2.727634e+00 8.035044e+00 -7.120091e+00
    endloop
  endfacet
  facet normal -2.131982e-01 -6.062347e-01 -7.661763e-01
    outer loop
      vertex   2.727634e+00 8.035044e+00 -7.120091e+00
      vertex   2.902719e+00 7.975155e+00 -7.121424e+00
      vertex   1.276086e+00 4.047076e+00 -3.560712e+00
    endloop
  endfacet
  facet normal -2.066494e-01 -6.087588e-01 -7.659691e-01
    outer loop
      vertex   1.276086e+00 4.047076e+00 -3.560712e+00
      vertex   2.902719e+00 7.975155e+00 -7.121424e+00
      vertex   -2.307555e-14 0.000000e+00 1.776357e-14
    endloop
  endfacet
  facet normal -1.799033e-01 -6.171921e-01 -7.659691e-01
    outer loop
      vertex   1.276086e+00 4.047076e+00 -3.560712e+00
      vertex   -2.307555e-14 0.000000e+00 1.776357e-14
      vertex   1.098353e+00 4.098883e+00 -3.560712e+00
    endloop
  endfacet
endsolid
