solid ASCII
  facet normal 3.420201e-01 -9.396926e-01 -2.040716e-14
    outer loop
      vertex   -1.023119e+01 -3.723850e+00 -1.919815e+00
      vertex   0.000000e+00 0.000000e+00 0.000000e+00
      vertex   -1.026570e+01 -3.736411e+00 -1.681824e+00
    endloop
  endfacet
  facet normal 3.420201e-01 -9.396926e-01 -3.592674e-15
    outer loop
      vertex   -1.026570e+01 -3.736411e+00 -1.681824e+00
      vertex   0.000000e+00 0.000000e+00 0.000000e+00
      vertex   -1.029564e+01 -3.747308e+00 -1.443106e+00
    endloop
  endfacet
  facet normal 3.420201e-01 -9.396926e-01 -1.731116e-15
    outer loop
      vertex   -1.029564e+01 -3.747308e+00 -1.443106e+00
      vertex   0.000000e+00 0.000000e+00 0.000000e+00
      vertex   -1.032100e+01 -3.756538e+00 -1.203740e+00
    endloop
  endfacet
  facet normal 3.420201e-01 -9.396926e-01 9.019368e-16
    outer loop
      vertex   -1.032100e+01 -3.756538e+00 -1.203740e+00
      vertex   0.000000e+00 0.000000e+00 0.000000e+00
      vertex   -1.034178e+01 -3.764098e+00 -9.638065e-01
    endloop
  endfacet
  facet normal 3.420201e-01 -9.396926e-01 -3.372320e-15
    outer loop
      vertex   -1.034178e+01 -3.764098e+00 -9.638065e-01
      vertex   0.000000e+00 0.000000e+00 0.000000e+00
      vertex   -1.035795e+01 -3.769984e+00 -7.233854e-01
    endloop
  endfacet
  facet normal 3.420201e-01 -9.396926e-01 -5.457895e-15
    outer loop
      vertex   -1.035795e+01 -3.769984e+00 -7.233854e-01
      vertex   0.000000e+00 0.000000e+00 0.000000e+00
      vertex   -1.036951e+01 -3.774193e+00 -4.825571e-01
    endloop
  endfacet
  facet normal 3.420201e-01 -9.396926e-01 1.564999e-15
    outer loop
      vertex   -1.036951e+01 -3.774193e+00 -4.825571e-01
      vertex   0.000000e+00 0.000000e+00 0.000000e+00
      vertex   -1.037645e+01 -3.776721e+00 -2.414019e-01
    endloop
  endfacet
  facet normal 3.420201e-01 -9.396926e-01 6.689705e-15
    outer loop
      vertex   -1.037645e+01 -3.776721e+00 -2.414019e-01
      vertex   0.000000e+00 0.000000e+00 0.000000e+00
      vertex   -1.037877e+01 -3.777564e+00 9.714451e-16
    endloop
  endfacet
  facet normal -9.696992e-01 -1.903874e-01 -1.530889e-01
    outer loop
      vertex   -1.074348e+01 -1.894365e+00 -1.923589e+00
      vertex   -1.069772e+01 -2.127740e+00 -1.923245e+00
      vertex   -1.077985e+01 -1.900778e+00 -1.685262e+00
    endloop
  endfacet
  facet normal -9.696964e-01 -1.904516e-01 -1.530266e-01
    outer loop
      vertex   -1.077985e+01 -1.900778e+00 -1.685262e+00
      vertex   -1.069772e+01 -2.127740e+00 -1.923245e+00
      vertex   -1.073588e+01 -2.129919e+00 -1.678672e+00
    endloop
  endfacet
  facet normal -9.726732e-01 -1.904414e-01 -1.328118e-01
    outer loop
      vertex   -1.077985e+01 -1.900778e+00 -1.685262e+00
      vertex   -1.073588e+01 -2.129919e+00 -1.678672e+00
      vertex   -1.081141e+01 -1.906343e+00 -1.446153e+00
    endloop
  endfacet
  facet normal -9.726244e-01 -1.912213e-01 -1.320460e-01
    outer loop
      vertex   -1.081141e+01 -1.906343e+00 -1.446153e+00
      vertex   -1.073588e+01 -2.129919e+00 -1.678672e+00
      vertex   -1.076776e+01 -2.136243e+00 -1.434715e+00
    endloop
  endfacet
  facet normal -9.751764e-01 -1.907324e-01 -1.124815e-01
    outer loop
      vertex   -1.081141e+01 -1.906343e+00 -1.446153e+00
      vertex   -1.076776e+01 -2.136243e+00 -1.434715e+00
      vertex   -1.083814e+01 -1.911057e+00 -1.206344e+00
    endloop
  endfacet
  facet normal -9.750892e-01 -1.918206e-01 -1.113817e-01
    outer loop
      vertex   -1.083814e+01 -1.911057e+00 -1.206344e+00
      vertex   -1.076776e+01 -2.136243e+00 -1.434715e+00
      vertex   -1.079446e+01 -2.141539e+00 -1.191885e+00
    endloop
  endfacet
  facet normal -9.772551e-01 -1.910218e-01 -9.210404e-02
    outer loop
      vertex   -1.083814e+01 -1.911057e+00 -1.206344e+00
      vertex   -1.079446e+01 -2.141539e+00 -1.191885e+00
      vertex   -1.086005e+01 -1.914920e+00 -9.659128e-01
    endloop
  endfacet
  facet normal -9.771321e-01 -1.922574e-01 -9.082917e-02
    outer loop
      vertex   -1.086005e+01 -1.914920e+00 -9.659128e-01
      vertex   -1.079446e+01 -2.141539e+00 -1.191885e+00
      vertex   -1.081606e+01 -2.145826e+00 -9.503422e-01
    endloop
  endfacet
  facet normal -9.789094e-01 -1.913050e-01 -7.168459e-02
    outer loop
      vertex   -1.086005e+01 -1.914920e+00 -9.659128e-01
      vertex   -1.081606e+01 -2.145826e+00 -9.503422e-01
      vertex   -1.087711e+01 -1.917928e+00 -7.249408e-01
    endloop
  endfacet
  facet normal -9.787613e-01 -1.925359e-01 -7.039993e-02
    outer loop
      vertex   -1.087711e+01 -1.917928e+00 -7.249408e-01
      vertex   -1.081606e+01 -2.145826e+00 -9.503422e-01
      vertex   -1.083269e+01 -2.149124e+00 -7.102391e-01
    endloop
  endfacet
  facet normal -9.801389e-01 -1.915815e-01 -5.122844e-02
    outer loop
      vertex   -1.087711e+01 -1.917928e+00 -7.249408e-01
      vertex   -1.083269e+01 -2.149124e+00 -7.102391e-01
      vertex   -1.088931e+01 -1.920079e+00 -4.835077e-01
    endloop
  endfacet
  facet normal -9.799863e-01 -1.926560e-01 -5.010487e-02
    outer loop
      vertex   -1.088931e+01 -1.920079e+00 -4.835077e-01
      vertex   -1.083269e+01 -2.149124e+00 -7.102391e-01
      vertex   -1.084442e+01 -2.151453e+00 -4.717226e-01
    endloop
  endfacet
  facet normal -9.809416e-01 -1.918551e-01 -3.074273e-02
    outer loop
      vertex   -1.088931e+01 -1.920079e+00 -4.835077e-01
      vertex   -1.084442e+01 -2.151453e+00 -4.717226e-01
      vertex   -1.089663e+01 -1.921370e+00 -2.417365e-01
    endloop
  endfacet
  facet normal -9.808171e-01 -1.926149e-01 -2.995436e-02
    outer loop
      vertex   -1.089663e+01 -1.921370e+00 -2.417365e-01
      vertex   -1.084442e+01 -2.151453e+00 -4.717226e-01
      vertex   -1.085138e+01 -2.152833e+00 -2.349321e-01
    endloop
  endfacet
  facet normal -9.813154e-01 -1.921329e-01 -1.024676e-02
    outer loop
      vertex   -1.089663e+01 -1.921370e+00 -2.417365e-01
      vertex   -1.085138e+01 -2.152833e+00 -2.349321e-01
      vertex   -1.089907e+01 -1.921800e+00 4.163336e-16
    endloop
  endfacet
  facet normal -9.812168e-01 -1.926639e-01 -9.704563e-03
    outer loop
      vertex   -1.089907e+01 -1.921800e+00 4.163336e-16
      vertex   -1.085138e+01 -2.152833e+00 -2.349321e-01
      vertex   -1.085259e+01 -2.158538e+00 0.000000e+00
    endloop
  endfacet
  facet normal -9.767241e-01 -2.142566e-01 -1.020584e-02
    outer loop
      vertex   -1.085259e+01 -2.158538e+00 0.000000e+00
      vertex   -1.085138e+01 -2.152833e+00 -2.349321e-01
      vertex   -1.080051e+01 -2.384770e+00 -2.349321e-01
    endloop
  endfacet
  facet normal -9.765845e-01 -2.149227e-01 -9.533513e-03
    outer loop
      vertex   -1.085259e+01 -2.158538e+00 0.000000e+00
      vertex   -1.080051e+01 -2.384770e+00 -2.349321e-01
      vertex   -1.080074e+01 -2.394124e+00 0.000000e+00
    endloop
  endfacet
  facet normal -9.716679e-01 -2.361228e-01 -1.037274e-02
    outer loop
      vertex   -1.080074e+01 -2.394124e+00 0.000000e+00
      vertex   -1.080051e+01 -2.384770e+00 -2.349321e-01
      vertex   -1.074406e+01 -2.617029e+00 -2.349321e-01
    endloop
  endfacet
  facet normal -9.714505e-01 -2.370546e-01 -9.436174e-03
    outer loop
      vertex   -1.080074e+01 -2.394124e+00 0.000000e+00
      vertex   -1.074406e+01 -2.617029e+00 -2.349321e-01
      vertex   -1.074355e+01 -2.628473e+00 0.000000e+00
    endloop
  endfacet
  facet normal -9.660893e-01 -2.579960e-01 -1.046788e-02
    outer loop
      vertex   -1.074355e+01 -2.628473e+00 0.000000e+00
      vertex   -1.074406e+01 -2.617029e+00 -2.349321e-01
      vertex   -1.068200e+01 -2.849433e+00 -2.349321e-01
    endloop
  endfacet
  facet normal -9.658180e-01 -2.590503e-01 -9.405161e-03
    outer loop
      vertex   -1.074355e+01 -2.628473e+00 0.000000e+00
      vertex   -1.068200e+01 -2.849433e+00 -2.349321e-01
      vertex   -1.068105e+01 -2.861497e+00 0.000000e+00
    endloop
  endfacet
  facet normal -9.599841e-01 -2.798577e-01 -1.049719e-02
    outer loop
      vertex   -1.068105e+01 -2.861497e+00 0.000000e+00
      vertex   -1.068200e+01 -2.849433e+00 -2.349321e-01
      vertex   -1.061426e+01 -3.081799e+00 -2.349321e-01
    endloop
  endfacet
  facet normal -9.596915e-01 -2.808970e-01 -9.439386e-03
    outer loop
      vertex   -1.068105e+01 -2.861497e+00 0.000000e+00
      vertex   -1.061426e+01 -3.081799e+00 -2.349321e-01
      vertex   -1.061328e+01 -3.093039e+00 0.000000e+00
    endloop
  endfacet
  facet normal -9.533489e-01 -3.016892e-01 -1.046060e-02
    outer loop
      vertex   -1.061328e+01 -3.093039e+00 0.000000e+00
      vertex   -1.061426e+01 -3.081799e+00 -2.349321e-01
      vertex   -1.054080e+01 -3.313937e+00 -2.349321e-01
    endloop
  endfacet
  facet normal -9.530764e-01 -3.025795e-01 -9.539459e-03
    outer loop
      vertex   -1.061328e+01 -3.093039e+00 0.000000e+00
      vertex   -1.054080e+01 -3.313937e+00 -2.349321e-01
      vertex   -1.054029e+01 -3.322952e+00 0.000000e+00
    endloop
  endfacet
  facet normal -9.461813e-01 -3.234715e-01 -1.035614e-02
    outer loop
      vertex   -1.054029e+01 -3.322952e+00 0.000000e+00
      vertex   -1.054080e+01 -3.313937e+00 -2.349321e-01
      vertex   -1.046158e+01 -3.545658e+00 -2.349321e-01
    endloop
  endfacet
  facet normal -9.459779e-01 -3.240859e-01 -9.705539e-03
    outer loop
      vertex   -1.054029e+01 -3.322952e+00 0.000000e+00
      vertex   -1.046158e+01 -3.545658e+00 -2.349321e-01
      vertex   -1.046211e+01 -3.551155e+00 0.000000e+00
    endloop
  endfacet
  facet normal -9.383978e-01 -3.454066e-01 -1.018745e-02
    outer loop
      vertex   -1.046211e+01 -3.551155e+00 0.000000e+00
      vertex   -1.046158e+01 -3.545658e+00 -2.349321e-01
      vertex   -1.037877e+01 -3.777564e+00 9.714451e-16
    endloop
  endfacet
  facet normal -9.383889e-01 -3.454301e-01 -1.021377e-02
    outer loop
      vertex   -1.037877e+01 -3.777564e+00 9.714451e-16
      vertex   -1.046158e+01 -3.545658e+00 -2.349321e-01
      vertex   -1.037645e+01 -3.776721e+00 -2.414019e-01
    endloop
  endfacet
  facet normal -9.381969e-01 -3.448082e-01 -2.989939e-02
    outer loop
      vertex   -1.037645e+01 -3.776721e+00 -2.414019e-01
      vertex   -1.046158e+01 -3.545658e+00 -2.349321e-01
      vertex   -1.045487e+01 -3.543384e+00 -4.717226e-01
    endloop
  endfacet
  facet normal -9.379391e-01 -3.454444e-01 -3.063171e-02
    outer loop
      vertex   -1.037645e+01 -3.776721e+00 -2.414019e-01
      vertex   -1.045487e+01 -3.543384e+00 -4.717226e-01
      vertex   -1.036951e+01 -3.774193e+00 -4.825571e-01
    endloop
  endfacet
  facet normal -9.375001e-01 -3.443722e-01 -5.001325e-02
    outer loop
      vertex   -1.036951e+01 -3.774193e+00 -4.825571e-01
      vertex   -1.045487e+01 -3.543384e+00 -4.717226e-01
      vertex   -1.044356e+01 -3.539549e+00 -7.102391e-01
    endloop
  endfacet
  facet normal -9.371266e-01 -3.452389e-01 -5.102790e-02
    outer loop
      vertex   -1.036951e+01 -3.774193e+00 -4.825571e-01
      vertex   -1.044356e+01 -3.539549e+00 -7.102391e-01
      vertex   -1.035795e+01 -3.769984e+00 -7.233854e-01
    endloop
  endfacet
  facet normal -9.363857e-01 -3.438658e-01 -7.027167e-02
    outer loop
      vertex   -1.035795e+01 -3.769984e+00 -7.233854e-01
      vertex   -1.044356e+01 -3.539549e+00 -7.102391e-01
      vertex   -1.042753e+01 -3.534118e+00 -9.503422e-01
    endloop
  endfacet
  facet normal -9.359495e-01 -3.448203e-01 -7.139731e-02
    outer loop
      vertex   -1.035795e+01 -3.769984e+00 -7.233854e-01
      vertex   -1.042753e+01 -3.534118e+00 -9.503422e-01
      vertex   -1.034178e+01 -3.764098e+00 -9.638065e-01
    endloop
  endfacet
  facet normal -9.348466e-01 -3.432810e-01 -9.066426e-02
    outer loop
      vertex   -1.034178e+01 -3.764098e+00 -9.638065e-01
      vertex   -1.042753e+01 -3.534118e+00 -9.503422e-01
      vertex   -1.040670e+01 -3.527057e+00 -1.191885e+00
    endloop
  endfacet
  facet normal -9.344074e-01 -3.441910e-01 -9.173497e-02
    outer loop
      vertex   -1.034178e+01 -3.764098e+00 -9.638065e-01
      vertex   -1.040670e+01 -3.527057e+00 -1.191885e+00
      vertex   -1.032100e+01 -3.756538e+00 -1.203740e+00
    endloop
  endfacet
  facet normal -9.328744e-01 -3.426140e-01 -1.111801e-01
    outer loop
      vertex   -1.032100e+01 -3.756538e+00 -1.203740e+00
      vertex   -1.040670e+01 -3.527057e+00 -1.191885e+00
      vertex   -1.038096e+01 -3.518334e+00 -1.434715e+00
    endloop
  endfacet
  facet normal -9.325014e-01 -3.433499e-01 -1.120359e-01
    outer loop
      vertex   -1.032100e+01 -3.756538e+00 -1.203740e+00
      vertex   -1.038096e+01 -3.518334e+00 -1.434715e+00
      vertex   -1.029564e+01 -3.747308e+00 -1.443106e+00
    endloop
  endfacet
  facet normal -9.304597e-01 -3.418646e-01 -1.318079e-01
    outer loop
      vertex   -1.029564e+01 -3.747308e+00 -1.443106e+00
      vertex   -1.038096e+01 -3.518334e+00 -1.434715e+00
      vertex   -1.035023e+01 -3.507918e+00 -1.678672e+00
    endloop
  endfacet
  facet normal -9.302332e-01 -3.422925e-01 -1.322952e-01
    outer loop
      vertex   -1.029564e+01 -3.747308e+00 -1.443106e+00
      vertex   -1.035023e+01 -3.507918e+00 -1.678672e+00
      vertex   -1.026570e+01 -3.736411e+00 -1.681824e+00
    endloop
  endfacet
  facet normal -9.276422e-01 -3.410597e-01 -1.521783e-01
    outer loop
      vertex   -1.026570e+01 -3.736411e+00 -1.681824e+00
      vertex   -1.035023e+01 -3.507918e+00 -1.678672e+00
      vertex   -1.031325e+01 -3.500635e+00 -1.920407e+00
    endloop
  endfacet
  facet normal -9.274777e-01 -3.413599e-01 -1.525078e-01
    outer loop
      vertex   -1.026570e+01 -3.736411e+00 -1.681824e+00
      vertex   -1.031325e+01 -3.500635e+00 -1.920407e+00
      vertex   -1.023119e+01 -3.723850e+00 -1.919815e+00
    endloop
  endfacet
  facet normal -9.653445e-01 -2.117604e-01 -1.525373e-01
    outer loop
      vertex   -1.073588e+01 -2.129919e+00 -1.678672e+00
      vertex   -1.069772e+01 -2.127740e+00 -1.923245e+00
      vertex   -1.068555e+01 -2.359387e+00 -1.678672e+00
    endloop
  endfacet
  facet normal -9.651129e-01 -2.123819e-01 -1.531375e-01
    outer loop
      vertex   -1.068555e+01 -2.359387e+00 -1.678672e+00
      vertex   -1.069772e+01 -2.127740e+00 -1.923245e+00
      vertex   -1.064667e+01 -2.359982e+00 -1.922862e+00
    endloop
  endfacet
  facet normal -9.603795e-01 -2.333796e-01 -1.523327e-01
    outer loop
      vertex   -1.068555e+01 -2.359387e+00 -1.678672e+00
      vertex   -1.064667e+01 -2.359982e+00 -1.922862e+00
      vertex   -1.062971e+01 -2.589174e+00 -1.678672e+00
    endloop
  endfacet
  facet normal -9.600333e-01 -2.342512e-01 -1.531748e-01
    outer loop
      vertex   -1.062971e+01 -2.589174e+00 -1.678672e+00
      vertex   -1.064667e+01 -2.359982e+00 -1.922862e+00
      vertex   -1.059036e+01 -2.591007e+00 -1.922442e+00
    endloop
  endfacet
  facet normal -9.548881e-01 -2.550047e-01 -1.521884e-01
    outer loop
      vertex   -1.062971e+01 -2.589174e+00 -1.678672e+00
      vertex   -1.059036e+01 -2.591007e+00 -1.922442e+00
      vertex   -1.056830e+01 -2.819104e+00 -1.678672e+00
    endloop
  endfacet
  facet normal -9.544717e-01 -2.559882e-01 -1.531464e-01
    outer loop
      vertex   -1.056830e+01 -2.819104e+00 -1.678672e+00
      vertex   -1.059036e+01 -2.591007e+00 -1.922442e+00
      vertex   -1.052883e+01 -2.820729e+00 -1.921986e+00
    endloop
  endfacet
  facet normal -9.488672e-01 -2.766169e-01 -1.520993e-01
    outer loop
      vertex   -1.056830e+01 -2.819104e+00 -1.678672e+00
      vertex   -1.052883e+01 -2.820729e+00 -1.921986e+00
      vertex   -1.050128e+01 -3.048996e+00 -1.678672e+00
    endloop
  endfacet
  facet normal -9.484322e-01 -2.775810e-01 -1.530530e-01
    outer loop
      vertex   -1.050128e+01 -3.048996e+00 -1.678672e+00
      vertex   -1.052883e+01 -2.820729e+00 -1.921986e+00
      vertex   -1.046210e+01 -3.048993e+00 -1.921494e+00
    endloop
  endfacet
  facet normal -9.423134e-01 -2.981970e-01 -1.520660e-01
    outer loop
      vertex   -1.050128e+01 -3.048996e+00 -1.678672e+00
      vertex   -1.046210e+01 -3.048993e+00 -1.921494e+00
      vertex   -1.042860e+01 -3.278664e+00 -1.678672e+00
    endloop
  endfacet
  facet normal -9.419201e-01 -2.990151e-01 -1.528940e-01
    outer loop
      vertex   -1.042860e+01 -3.278664e+00 -1.678672e+00
      vertex   -1.046210e+01 -3.048993e+00 -1.921494e+00
      vertex   -1.039023e+01 -3.275656e+00 -1.920967e+00
    endloop
  endfacet
  facet normal -9.352241e-01 -3.197255e-01 -1.520907e-01
    outer loop
      vertex   -1.042860e+01 -3.278664e+00 -1.678672e+00
      vertex   -1.039023e+01 -3.275656e+00 -1.920967e+00
      vertex   -1.035023e+01 -3.507918e+00 -1.678672e+00
    endloop
  endfacet
  facet normal -9.349402e-01 -3.202796e-01 -1.526687e-01
    outer loop
      vertex   -1.035023e+01 -3.507918e+00 -1.678672e+00
      vertex   -1.039023e+01 -3.275656e+00 -1.920967e+00
      vertex   -1.031325e+01 -3.500635e+00 -1.920407e+00
    endloop
  endfacet
  facet normal -9.682253e-01 -2.123923e-01 -1.320200e-01
    outer loop
      vertex   -1.076776e+01 -2.136243e+00 -1.434715e+00
      vertex   -1.073588e+01 -2.129919e+00 -1.678672e+00
      vertex   -1.071727e+01 -2.366392e+00 -1.434715e+00
    endloop
  endfacet
  facet normal -9.682253e-01 -2.123923e-01 -1.320200e-01
    outer loop
      vertex   -1.071727e+01 -2.366392e+00 -1.434715e+00
      vertex   -1.073588e+01 -2.129919e+00 -1.678672e+00
      vertex   -1.068555e+01 -2.359387e+00 -1.678672e+00
    endloop
  endfacet
  facet normal -9.632184e-01 -2.340695e-01 -1.319913e-01
    outer loop
      vertex   -1.071727e+01 -2.366392e+00 -1.434715e+00
      vertex   -1.068555e+01 -2.359387e+00 -1.678672e+00
      vertex   -1.066127e+01 -2.596862e+00 -1.434715e+00
    endloop
  endfacet
  facet normal -9.632184e-01 -2.340695e-01 -1.319913e-01
    outer loop
      vertex   -1.066127e+01 -2.596862e+00 -1.434715e+00
      vertex   -1.068555e+01 -2.359387e+00 -1.678672e+00
      vertex   -1.062971e+01 -2.589174e+00 -1.678672e+00
    endloop
  endfacet
  facet normal -9.576934e-01 -2.557538e-01 -1.319599e-01
    outer loop
      vertex   -1.066127e+01 -2.596862e+00 -1.434715e+00
      vertex   -1.062971e+01 -2.589174e+00 -1.678672e+00
      vertex   -1.059968e+01 -2.827475e+00 -1.434715e+00
    endloop
  endfacet
  facet normal -9.576934e-01 -2.557538e-01 -1.319599e-01
    outer loop
      vertex   -1.059968e+01 -2.827475e+00 -1.434715e+00
      vertex   -1.062971e+01 -2.589174e+00 -1.678672e+00
      vertex   -1.056830e+01 -2.819104e+00 -1.678672e+00
    endloop
  endfacet
  facet normal -9.516459e-01 -2.774269e-01 -1.319256e-01
    outer loop
      vertex   -1.059968e+01 -2.827475e+00 -1.434715e+00
      vertex   -1.056830e+01 -2.819104e+00 -1.678672e+00
      vertex   -1.053246e+01 -3.058049e+00 -1.434715e+00
    endloop
  endfacet
  facet normal -9.516459e-01 -2.774269e-01 -1.319256e-01
    outer loop
      vertex   -1.053246e+01 -3.058049e+00 -1.434715e+00
      vertex   -1.056830e+01 -2.819104e+00 -1.678672e+00
      vertex   -1.050128e+01 -3.048996e+00 -1.678672e+00
    endloop
  endfacet
  facet normal -9.450727e-01 -2.990702e-01 -1.318887e-01
    outer loop
      vertex   -1.053246e+01 -3.058049e+00 -1.434715e+00
      vertex   -1.050128e+01 -3.048996e+00 -1.678672e+00
      vertex   -1.045957e+01 -3.288399e+00 -1.434715e+00
    endloop
  endfacet
  facet normal -9.450727e-01 -2.990702e-01 -1.318887e-01
    outer loop
      vertex   -1.045957e+01 -3.288399e+00 -1.434715e+00
      vertex   -1.050128e+01 -3.048996e+00 -1.678672e+00
      vertex   -1.042860e+01 -3.278664e+00 -1.678672e+00
    endloop
  endfacet
  facet normal -9.379712e-01 -3.206647e-01 -1.318490e-01
    outer loop
      vertex   -1.045957e+01 -3.288399e+00 -1.434715e+00
      vertex   -1.042860e+01 -3.278664e+00 -1.678672e+00
      vertex   -1.038096e+01 -3.518334e+00 -1.434715e+00
    endloop
  endfacet
  facet normal -9.379712e-01 -3.206647e-01 -1.318490e-01
    outer loop
      vertex   -1.038096e+01 -3.518334e+00 -1.434715e+00
      vertex   -1.042860e+01 -3.278664e+00 -1.678672e+00
      vertex   -1.035023e+01 -3.507918e+00 -1.678672e+00
    endloop
  endfacet
  facet normal -9.706996e-01 -2.129351e-01 -1.113596e-01
    outer loop
      vertex   -1.079446e+01 -2.141539e+00 -1.191885e+00
      vertex   -1.076776e+01 -2.136243e+00 -1.434715e+00
      vertex   -1.074384e+01 -2.372259e+00 -1.191885e+00
    endloop
  endfacet
  facet normal -9.706996e-01 -2.129351e-01 -1.113596e-01
    outer loop
      vertex   -1.074384e+01 -2.372259e+00 -1.191885e+00
      vertex   -1.076776e+01 -2.136243e+00 -1.434715e+00
      vertex   -1.071727e+01 -2.366392e+00 -1.434715e+00
    endloop
  endfacet
  facet normal -9.656789e-01 -2.346674e-01 -1.113353e-01
    outer loop
      vertex   -1.074384e+01 -2.372259e+00 -1.191885e+00
      vertex   -1.071727e+01 -2.366392e+00 -1.434715e+00
      vertex   -1.068770e+01 -2.603300e+00 -1.191885e+00
    endloop
  endfacet
  facet normal -9.656789e-01 -2.346674e-01 -1.113353e-01
    outer loop
      vertex   -1.068770e+01 -2.603300e+00 -1.191885e+00
      vertex   -1.071727e+01 -2.366392e+00 -1.434715e+00
      vertex   -1.066127e+01 -2.596862e+00 -1.434715e+00
    endloop
  endfacet
  facet normal -9.601385e-01 -2.564068e-01 -1.113086e-01
    outer loop
      vertex   -1.068770e+01 -2.603300e+00 -1.191885e+00
      vertex   -1.066127e+01 -2.596862e+00 -1.434715e+00
      vertex   -1.062596e+01 -2.834485e+00 -1.191885e+00
    endloop
  endfacet
  facet normal -9.601385e-01 -2.564068e-01 -1.113086e-01
    outer loop
      vertex   -1.062596e+01 -2.834485e+00 -1.191885e+00
      vertex   -1.066127e+01 -2.596862e+00 -1.434715e+00
      vertex   -1.059968e+01 -2.827475e+00 -1.434715e+00
    endloop
  endfacet
  facet normal -9.540743e-01 -2.781349e-01 -1.112796e-01
    outer loop
      vertex   -1.062596e+01 -2.834485e+00 -1.191885e+00
      vertex   -1.059968e+01 -2.827475e+00 -1.434715e+00
      vertex   -1.055858e+01 -3.065631e+00 -1.191885e+00
    endloop
  endfacet
  facet normal -9.540743e-01 -2.781349e-01 -1.112796e-01
    outer loop
      vertex   -1.055858e+01 -3.065631e+00 -1.191885e+00
      vertex   -1.059968e+01 -2.827475e+00 -1.434715e+00
      vertex   -1.053246e+01 -3.058049e+00 -1.434715e+00
    endloop
  endfacet
  facet normal -9.474830e-01 -2.998329e-01 -1.112483e-01
    outer loop
      vertex   -1.055858e+01 -3.065631e+00 -1.191885e+00
      vertex   -1.053246e+01 -3.058049e+00 -1.434715e+00
      vertex   -1.048550e+01 -3.296552e+00 -1.191885e+00
    endloop
  endfacet
  facet normal -9.474830e-01 -2.998329e-01 -1.112483e-01
    outer loop
      vertex   -1.048550e+01 -3.296552e+00 -1.191885e+00
      vertex   -1.053246e+01 -3.058049e+00 -1.434715e+00
      vertex   -1.045957e+01 -3.288399e+00 -1.434715e+00
    endloop
  endfacet
  facet normal -9.403620e-01 -3.214820e-01 -1.112146e-01
    outer loop
      vertex   -1.048550e+01 -3.296552e+00 -1.191885e+00
      vertex   -1.045957e+01 -3.288399e+00 -1.434715e+00
      vertex   -1.040670e+01 -3.527057e+00 -1.191885e+00
    endloop
  endfacet
  facet normal -9.403620e-01 -3.214820e-01 -1.112146e-01
    outer loop
      vertex   -1.040670e+01 -3.527057e+00 -1.191885e+00
      vertex   -1.045957e+01 -3.288399e+00 -1.434715e+00
      vertex   -1.038096e+01 -3.518334e+00 -1.434715e+00
    endloop
  endfacet
  facet normal -9.727391e-01 -2.133825e-01 -9.081110e-02
    outer loop
      vertex   -1.081606e+01 -2.145826e+00 -9.503422e-01
      vertex   -1.079446e+01 -2.141539e+00 -1.191885e+00
      vertex   -1.076535e+01 -2.377008e+00 -9.503422e-01
    endloop
  endfacet
  facet normal -9.727391e-01 -2.133825e-01 -9.081110e-02
    outer loop
      vertex   -1.076535e+01 -2.377008e+00 -9.503422e-01
      vertex   -1.079446e+01 -2.141539e+00 -1.191885e+00
      vertex   -1.074384e+01 -2.372259e+00 -1.191885e+00
    endloop
  endfacet
  facet normal -9.677069e-01 -2.351602e-01 -9.079119e-02
    outer loop
      vertex   -1.076535e+01 -2.377008e+00 -9.503422e-01
      vertex   -1.074384e+01 -2.372259e+00 -1.191885e+00
      vertex   -1.070909e+01 -2.608511e+00 -9.503422e-01
    endloop
  endfacet
  facet normal -9.677069e-01 -2.351602e-01 -9.079119e-02
    outer loop
      vertex   -1.070909e+01 -2.608511e+00 -9.503422e-01
      vertex   -1.074384e+01 -2.372259e+00 -1.191885e+00
      vertex   -1.068770e+01 -2.603300e+00 -1.191885e+00
    endloop
  endfacet
  facet normal -9.621539e-01 -2.569450e-01 -9.076934e-02
    outer loop
      vertex   -1.070909e+01 -2.608511e+00 -9.503422e-01
      vertex   -1.068770e+01 -2.603300e+00 -1.191885e+00
      vertex   -1.064723e+01 -2.840159e+00 -9.503422e-01
    endloop
  endfacet
  facet normal -9.621539e-01 -2.569450e-01 -9.076934e-02
    outer loop
      vertex   -1.064723e+01 -2.840159e+00 -9.503422e-01
      vertex   -1.068770e+01 -2.603300e+00 -1.191885e+00
      vertex   -1.062596e+01 -2.834485e+00 -1.191885e+00
    endloop
  endfacet
  facet normal -9.560760e-01 -2.787184e-01 -9.074557e-02
    outer loop
      vertex   -1.064723e+01 -2.840159e+00 -9.503422e-01
      vertex   -1.062596e+01 -2.834485e+00 -1.191885e+00
      vertex   -1.057971e+01 -3.071768e+00 -9.503422e-01
    endloop
  endfacet
  facet normal -9.560760e-01 -2.787184e-01 -9.074557e-02
    outer loop
      vertex   -1.057971e+01 -3.071768e+00 -9.503422e-01
      vertex   -1.062596e+01 -2.834485e+00 -1.191885e+00
      vertex   -1.055858e+01 -3.065631e+00 -1.191885e+00
    endloop
  endfacet
  facet normal -9.494697e-01 -3.004616e-01 -9.071991e-02
    outer loop
      vertex   -1.057971e+01 -3.071768e+00 -9.503422e-01
      vertex   -1.055858e+01 -3.065631e+00 -1.191885e+00
      vertex   -1.050649e+01 -3.303151e+00 -9.503422e-01
    endloop
  endfacet
  facet normal -9.494697e-01 -3.004616e-01 -9.071991e-02
    outer loop
      vertex   -1.050649e+01 -3.303151e+00 -9.503422e-01
      vertex   -1.055858e+01 -3.065631e+00 -1.191885e+00
      vertex   -1.048550e+01 -3.296552e+00 -1.191885e+00
    endloop
  endfacet
  facet normal -9.423325e-01 -3.221557e-01 -9.069239e-02
    outer loop
      vertex   -1.050649e+01 -3.303151e+00 -9.503422e-01
      vertex   -1.048550e+01 -3.296552e+00 -1.191885e+00
      vertex   -1.042753e+01 -3.534118e+00 -9.503422e-01
    endloop
  endfacet
  facet normal -9.423325e-01 -3.221557e-01 -9.069239e-02
    outer loop
      vertex   -1.042753e+01 -3.534118e+00 -9.503422e-01
      vertex   -1.048550e+01 -3.296552e+00 -1.191885e+00
      vertex   -1.040670e+01 -3.527057e+00 -1.191885e+00
    endloop
  endfacet
  facet normal -9.743524e-01 -2.137364e-01 -7.038589e-02
    outer loop
      vertex   -1.083269e+01 -2.149124e+00 -7.102391e-01
      vertex   -1.081606e+01 -2.145826e+00 -9.503422e-01
      vertex   -1.078190e+01 -2.380661e+00 -7.102391e-01
    endloop
  endfacet
  facet normal -9.743524e-01 -2.137364e-01 -7.038589e-02
    outer loop
      vertex   -1.078190e+01 -2.380661e+00 -7.102391e-01
      vertex   -1.081606e+01 -2.145826e+00 -9.503422e-01
      vertex   -1.076535e+01 -2.377008e+00 -9.503422e-01
    endloop
  endfacet
  facet normal -9.693112e-01 -2.355501e-01 -7.037040e-02
    outer loop
      vertex   -1.078190e+01 -2.380661e+00 -7.102391e-01
      vertex   -1.076535e+01 -2.377008e+00 -9.503422e-01
      vertex   -1.072555e+01 -2.612520e+00 -7.102391e-01
    endloop
  endfacet
  facet normal -9.693112e-01 -2.355501e-01 -7.037040e-02
    outer loop
      vertex   -1.072555e+01 -2.612520e+00 -7.102391e-01
      vertex   -1.076535e+01 -2.377008e+00 -9.503422e-01
      vertex   -1.070909e+01 -2.608511e+00 -9.503422e-01
    endloop
  endfacet
  facet normal -9.637482e-01 -2.573708e-01 -7.035341e-02
    outer loop
      vertex   -1.072555e+01 -2.612520e+00 -7.102391e-01
      vertex   -1.070909e+01 -2.608511e+00 -9.503422e-01
      vertex   -1.066359e+01 -2.844524e+00 -7.102391e-01
    endloop
  endfacet
  facet normal -9.637482e-01 -2.573708e-01 -7.035341e-02
    outer loop
      vertex   -1.066359e+01 -2.844524e+00 -7.102391e-01
      vertex   -1.070909e+01 -2.608511e+00 -9.503422e-01
      vertex   -1.064723e+01 -2.840159e+00 -9.503422e-01
    endloop
  endfacet
  facet normal -9.576594e-01 -2.791800e-01 -7.033493e-02
    outer loop
      vertex   -1.066359e+01 -2.844524e+00 -7.102391e-01
      vertex   -1.064723e+01 -2.840159e+00 -9.503422e-01
      vertex   -1.059597e+01 -3.076489e+00 -7.102391e-01
    endloop
  endfacet
  facet normal -9.576594e-01 -2.791800e-01 -7.033493e-02
    outer loop
      vertex   -1.059597e+01 -3.076489e+00 -7.102391e-01
      vertex   -1.064723e+01 -2.840159e+00 -9.503422e-01
      vertex   -1.057971e+01 -3.071768e+00 -9.503422e-01
    endloop
  endfacet
  facet normal -9.510413e-01 -3.009590e-01 -7.031498e-02
    outer loop
      vertex   -1.059597e+01 -3.076489e+00 -7.102391e-01
      vertex   -1.057971e+01 -3.071768e+00 -9.503422e-01
      vertex   -1.052264e+01 -3.308227e+00 -7.102391e-01
    endloop
  endfacet
  facet normal -9.510413e-01 -3.009590e-01 -7.031498e-02
    outer loop
      vertex   -1.052264e+01 -3.308227e+00 -7.102391e-01
      vertex   -1.057971e+01 -3.071768e+00 -9.503422e-01
      vertex   -1.050649e+01 -3.303151e+00 -9.503422e-01
    endloop
  endfacet
  facet normal -9.438914e-01 -3.226886e-01 -7.029357e-02
    outer loop
      vertex   -1.052264e+01 -3.308227e+00 -7.102391e-01
      vertex   -1.050649e+01 -3.303151e+00 -9.503422e-01
      vertex   -1.044356e+01 -3.539549e+00 -7.102391e-01
    endloop
  endfacet
  facet normal -9.438914e-01 -3.226886e-01 -7.029357e-02
    outer loop
      vertex   -1.044356e+01 -3.539549e+00 -7.102391e-01
      vertex   -1.050649e+01 -3.303151e+00 -9.503422e-01
      vertex   -1.042753e+01 -3.534118e+00 -9.503422e-01
    endloop
  endfacet
  facet normal -9.763368e-01 -2.141717e-01 -2.994838e-02
    outer loop
      vertex   -1.080051e+01 -2.384770e+00 -2.349321e-01
      vertex   -1.085138e+01 -2.152833e+00 -2.349321e-01
      vertex   -1.084442e+01 -2.151453e+00 -4.717226e-01
    endloop
  endfacet
  facet normal -9.755486e-01 -2.139988e-01 -5.009486e-02
    outer loop
      vertex   -1.084442e+01 -2.151453e+00 -4.717226e-01
      vertex   -1.083269e+01 -2.149124e+00 -7.102391e-01
      vertex   -1.079358e+01 -2.383240e+00 -4.717226e-01
    endloop
  endfacet
  facet normal -9.755486e-01 -2.139988e-01 -5.009486e-02
    outer loop
      vertex   -1.079358e+01 -2.383240e+00 -4.717226e-01
      vertex   -1.083269e+01 -2.149124e+00 -7.102391e-01
      vertex   -1.078190e+01 -2.380661e+00 -7.102391e-01
    endloop
  endfacet
  facet normal -9.705006e-01 -2.358392e-01 -5.008381e-02
    outer loop
      vertex   -1.079358e+01 -2.383240e+00 -4.717226e-01
      vertex   -1.078190e+01 -2.380661e+00 -7.102391e-01
      vertex   -1.073717e+01 -2.615351e+00 -4.717226e-01
    endloop
  endfacet
  facet normal -9.705006e-01 -2.358392e-01 -5.008381e-02
    outer loop
      vertex   -1.073717e+01 -2.615351e+00 -4.717226e-01
      vertex   -1.078190e+01 -2.380661e+00 -7.102391e-01
      vertex   -1.072555e+01 -2.612520e+00 -7.102391e-01
    endloop
  endfacet
  facet normal -9.649303e-01 -2.576865e-01 -5.007169e-02
    outer loop
      vertex   -1.073717e+01 -2.615351e+00 -4.717226e-01
      vertex   -1.072555e+01 -2.612520e+00 -7.102391e-01
      vertex   -1.067515e+01 -2.847606e+00 -4.717226e-01
    endloop
  endfacet
  facet normal -9.649303e-01 -2.576865e-01 -5.007169e-02
    outer loop
      vertex   -1.067515e+01 -2.847606e+00 -4.717226e-01
      vertex   -1.072555e+01 -2.612520e+00 -7.102391e-01
      vertex   -1.066359e+01 -2.844524e+00 -7.102391e-01
    endloop
  endfacet
  facet normal -9.588334e-01 -2.795222e-01 -5.005851e-02
    outer loop
      vertex   -1.067515e+01 -2.847606e+00 -4.717226e-01
      vertex   -1.066359e+01 -2.844524e+00 -7.102391e-01
      vertex   -1.060745e+01 -3.079822e+00 -4.717226e-01
    endloop
  endfacet
  facet normal -9.588334e-01 -2.795222e-01 -5.005851e-02
    outer loop
      vertex   -1.060745e+01 -3.079822e+00 -4.717226e-01
      vertex   -1.066359e+01 -2.844524e+00 -7.102391e-01
      vertex   -1.059597e+01 -3.076489e+00 -7.102391e-01
    endloop
  endfacet
  facet normal -9.522065e-01 -3.013277e-01 -5.004427e-02
    outer loop
      vertex   -1.060745e+01 -3.079822e+00 -4.717226e-01
      vertex   -1.059597e+01 -3.076489e+00 -7.102391e-01
      vertex   -1.053404e+01 -3.311812e+00 -4.717226e-01
    endloop
  endfacet
  facet normal -9.522065e-01 -3.013277e-01 -5.004427e-02
    outer loop
      vertex   -1.053404e+01 -3.311812e+00 -4.717226e-01
      vertex   -1.059597e+01 -3.076489e+00 -7.102391e-01
      vertex   -1.052264e+01 -3.308227e+00 -7.102391e-01
    endloop
  endfacet
  facet normal -9.450471e-01 -3.230837e-01 -5.002900e-02
    outer loop
      vertex   -1.053404e+01 -3.311812e+00 -4.717226e-01
      vertex   -1.052264e+01 -3.308227e+00 -7.102391e-01
      vertex   -1.045487e+01 -3.543384e+00 -4.717226e-01
    endloop
  endfacet
  facet normal -9.450471e-01 -3.230837e-01 -5.002900e-02
    outer loop
      vertex   -1.045487e+01 -3.543384e+00 -4.717226e-01
      vertex   -1.052264e+01 -3.308227e+00 -7.102391e-01
      vertex   -1.044356e+01 -3.539549e+00 -7.102391e-01
    endloop
  endfacet
  facet normal -9.712845e-01 -2.360296e-01 -2.994176e-02
    outer loop
      vertex   -1.074406e+01 -2.617029e+00 -2.349321e-01
      vertex   -1.080051e+01 -2.384770e+00 -2.349321e-01
      vertex   -1.079358e+01 -2.383240e+00 -4.717226e-01
    endloop
  endfacet
  facet normal -9.763368e-01 -2.141717e-01 -2.994838e-02
    outer loop
      vertex   -1.079358e+01 -2.383240e+00 -4.717226e-01
      vertex   -1.080051e+01 -2.384770e+00 -2.349321e-01
      vertex   -1.084442e+01 -2.151453e+00 -4.717226e-01
    endloop
  endfacet
  facet normal -9.712845e-01 -2.360296e-01 -2.994176e-02
    outer loop
      vertex   -1.074406e+01 -2.617029e+00 -2.349321e-01
      vertex   -1.079358e+01 -2.383240e+00 -4.717226e-01
      vertex   -1.073717e+01 -2.615351e+00 -4.717226e-01
    endloop
  endfacet
  facet normal -9.657093e-01 -2.578945e-01 -2.993451e-02
    outer loop
      vertex   -1.068200e+01 -2.849433e+00 -2.349321e-01
      vertex   -1.074406e+01 -2.617029e+00 -2.349321e-01
      vertex   -1.073717e+01 -2.615351e+00 -4.717226e-01
    endloop
  endfacet
  facet normal -9.657093e-01 -2.578945e-01 -2.993451e-02
    outer loop
      vertex   -1.068200e+01 -2.849433e+00 -2.349321e-01
      vertex   -1.073717e+01 -2.615351e+00 -4.717226e-01
      vertex   -1.067515e+01 -2.847606e+00 -4.717226e-01
    endloop
  endfacet
  facet normal -9.596070e-01 -2.797478e-01 -2.992661e-02
    outer loop
      vertex   -1.061426e+01 -3.081799e+00 -2.349321e-01
      vertex   -1.068200e+01 -2.849433e+00 -2.349321e-01
      vertex   -1.067515e+01 -2.847606e+00 -4.717226e-01
    endloop
  endfacet
  facet normal -9.596070e-01 -2.797478e-01 -2.992661e-02
    outer loop
      vertex   -1.061426e+01 -3.081799e+00 -2.349321e-01
      vertex   -1.067515e+01 -2.847606e+00 -4.717226e-01
      vertex   -1.060745e+01 -3.079822e+00 -4.717226e-01
    endloop
  endfacet
  facet normal -9.529743e-01 -3.015707e-01 -2.991808e-02
    outer loop
      vertex   -1.054080e+01 -3.313937e+00 -2.349321e-01
      vertex   -1.061426e+01 -3.081799e+00 -2.349321e-01
      vertex   -1.060745e+01 -3.079822e+00 -4.717226e-01
    endloop
  endfacet
  facet normal -9.529743e-01 -3.015707e-01 -2.991808e-02
    outer loop
      vertex   -1.054080e+01 -3.313937e+00 -2.349321e-01
      vertex   -1.060745e+01 -3.079822e+00 -4.717226e-01
      vertex   -1.053404e+01 -3.311812e+00 -4.717226e-01
    endloop
  endfacet
  facet normal -9.458087e-01 -3.233441e-01 -2.990894e-02
    outer loop
      vertex   -1.046158e+01 -3.545658e+00 -2.349321e-01
      vertex   -1.054080e+01 -3.313937e+00 -2.349321e-01
      vertex   -1.053404e+01 -3.311812e+00 -4.717226e-01
    endloop
  endfacet
  facet normal -9.458087e-01 -3.233441e-01 -2.990894e-02
    outer loop
      vertex   -1.046158e+01 -3.545658e+00 -2.349321e-01
      vertex   -1.053404e+01 -3.311812e+00 -4.717226e-01
      vertex   -1.045487e+01 -3.543384e+00 -4.717226e-01
    endloop
  endfacet
  facet normal -1.736482e-01 9.848078e-01 1.157610e-14
    outer loop
      vertex   -1.074348e+01 -1.894365e+00 -1.923589e+00
      vertex   -1.077985e+01 -1.900778e+00 -1.685262e+00
      vertex   0.000000e+00 0.000000e+00 0.000000e+00
    endloop
  endfacet
  facet normal -1.736482e-01 9.848078e-01 1.329946e-15
    outer loop
      vertex   0.000000e+00 0.000000e+00 0.000000e+00
      vertex   -1.077985e+01 -1.900778e+00 -1.685262e+00
      vertex   -1.081141e+01 -1.906343e+00 -1.446153e+00
    endloop
  endfacet
  facet normal -1.736482e-01 9.848078e-01 0.000000e+00
    outer loop
      vertex   0.000000e+00 0.000000e+00 0.000000e+00
      vertex   -1.081141e+01 -1.906343e+00 -1.446153e+00
      vertex   -1.083814e+01 -1.911057e+00 -1.206344e+00
    endloop
  endfacet
  facet normal -1.736482e-01 9.848078e-01 4.906552e-16
    outer loop
      vertex   -1.083814e+01 -1.911057e+00 -1.206344e+00
      vertex   -1.086005e+01 -1.914920e+00 -9.659128e-01
      vertex   0.000000e+00 0.000000e+00 0.000000e+00
    endloop
  endfacet
  facet normal -1.736482e-01 9.848078e-01 1.328579e-15
    outer loop
      vertex   0.000000e+00 0.000000e+00 0.000000e+00
      vertex   -1.086005e+01 -1.914920e+00 -9.659128e-01
      vertex   -1.087711e+01 -1.917928e+00 -7.249408e-01
    endloop
  endfacet
  facet normal -1.736482e-01 9.848078e-01 1.327827e-15
    outer loop
      vertex   0.000000e+00 0.000000e+00 0.000000e+00
      vertex   -1.087711e+01 -1.917928e+00 -7.249408e-01
      vertex   -1.088931e+01 -1.920079e+00 -4.835077e-01
    endloop
  endfacet
  facet normal -1.736482e-01 9.848078e-01 -3.187645e-15
    outer loop
      vertex   -1.088931e+01 -1.920079e+00 -4.835077e-01
      vertex   -1.089663e+01 -1.921370e+00 -2.417365e-01
      vertex   0.000000e+00 0.000000e+00 0.000000e+00
    endloop
  endfacet
  facet normal -1.736482e-01 9.848078e-01 0.000000e+00
    outer loop
      vertex   0.000000e+00 0.000000e+00 0.000000e+00
      vertex   -1.089663e+01 -1.921370e+00 -2.417365e-01
      vertex   -1.089907e+01 -1.921800e+00 4.163336e-16
    endloop
  endfacet
  facet normal 3.366377e-16 -1.692530e-15 1.000000e+00
    outer loop
      vertex   -1.089907e+01 -1.921800e+00 4.163336e-16
      vertex   -1.085259e+01 -2.158538e+00 0.000000e+00
      vertex   0.000000e+00 0.000000e+00 0.000000e+00
    endloop
  endfacet
  facet normal 0.000000e+00 0.000000e+00 1.000000e+00
    outer loop
      vertex   0.000000e+00 0.000000e+00 0.000000e+00
      vertex   -1.085259e+01 -2.158538e+00 0.000000e+00
      vertex   -1.080074e+01 -2.394124e+00 0.000000e+00
    endloop
  endfacet
  facet normal 0.000000e+00 0.000000e+00 1.000000e+00
    outer loop
      vertex   0.000000e+00 0.000000e+00 0.000000e+00
      vertex   -1.080074e+01 -2.394124e+00 0.000000e+00
      vertex   -1.074355e+01 -2.628473e+00 0.000000e+00
    endloop
  endfacet
  facet normal -0.000000e+00 0.000000e+00 1.000000e+00
    outer loop
      vertex   -1.074355e+01 -2.628473e+00 0.000000e+00
      vertex   -1.068105e+01 -2.861497e+00 0.000000e+00
      vertex   0.000000e+00 0.000000e+00 0.000000e+00
    endloop
  endfacet
  facet normal 0.000000e+00 0.000000e+00 1.000000e+00
    outer loop
      vertex   0.000000e+00 0.000000e+00 0.000000e+00
      vertex   -1.068105e+01 -2.861497e+00 0.000000e+00
      vertex   -1.061328e+01 -3.093039e+00 0.000000e+00
    endloop
  endfacet
  facet normal 0.000000e+00 0.000000e+00 1.000000e+00
    outer loop
      vertex   0.000000e+00 0.000000e+00 0.000000e+00
      vertex   -1.061328e+01 -3.093039e+00 0.000000e+00
      vertex   -1.054029e+01 -3.322952e+00 0.000000e+00
    endloop
  endfacet
  facet normal -0.000000e+00 0.000000e+00 1.000000e+00
    outer loop
      vertex   -1.054029e+01 -3.322952e+00 0.000000e+00
      vertex   -1.046211e+01 -3.551155e+00 0.000000e+00
      vertex   0.000000e+00 0.000000e+00 0.000000e+00
    endloop
  endfacet
  facet normal -1.294635e-15 3.814142e-15 1.000000e+00
    outer loop
      vertex   0.000000e+00 0.000000e+00 0.000000e+00
      vertex   -1.046211e+01 -3.551155e+00 0.000000e+00
      vertex   -1.037877e+01 -3.777564e+00 9.714451e-16
    endloop
  endfacet
  facet normal 1.642118e-01 5.654269e-02 -9.848032e-01
    outer loop
      vertex   0.000000e+00 0.000000e+00 0.000000e+00
      vertex   -1.023119e+01 -3.723850e+00 -1.919815e+00
      vertex   -5.187641e+00 -1.685567e+00 -9.617946e-01
    endloop
  endfacet
  facet normal 1.637879e-01 5.759610e-02 -9.848128e-01
    outer loop
      vertex   -5.187641e+00 -1.685567e+00 -9.617946e-01
      vertex   -1.023119e+01 -3.723850e+00 -1.919815e+00
      vertex   -1.031325e+01 -3.500635e+00 -1.920407e+00
    endloop
  endfacet
  facet normal 1.650519e-01 5.402231e-02 -9.848043e-01
    outer loop
      vertex   -5.187641e+00 -1.685567e+00 -9.617946e-01
      vertex   -1.031325e+01 -3.500635e+00 -1.920407e+00
      vertex   -1.039023e+01 -3.275656e+00 -1.920967e+00
    endloop
  endfacet
  facet normal 1.660482e-01 5.076602e-02 -9.848100e-01
    outer loop
      vertex   -5.187641e+00 -1.685567e+00 -9.617946e-01
      vertex   -1.039023e+01 -3.275656e+00 -1.920967e+00
      vertex   -5.243306e+00 -1.503494e+00 -9.617946e-01
    endloop
  endfacet
  facet normal 1.661732e-01 5.040151e-02 -9.848077e-01
    outer loop
      vertex   -5.243306e+00 -1.503494e+00 -9.617946e-01
      vertex   -1.039023e+01 -3.275656e+00 -1.920967e+00
      vertex   -1.046210e+01 -3.048993e+00 -1.921494e+00
    endloop
  endfacet
  facet normal 1.672487e-01 4.676823e-02 -9.848049e-01
    outer loop
      vertex   -5.243306e+00 -1.503494e+00 -9.617946e-01
      vertex   -1.046210e+01 -3.048993e+00 -1.921494e+00
      vertex   -1.052883e+01 -2.820729e+00 -1.921986e+00
    endloop
  endfacet
  facet normal 1.677064e-01 4.493681e-02 -9.848123e-01
    outer loop
      vertex   -5.243306e+00 -1.503494e+00 -9.617946e-01
      vertex   -1.052883e+01 -2.820729e+00 -1.921986e+00
      vertex   -5.292583e+00 -1.319589e+00 -9.617946e-01
    endloop
  endfacet
  facet normal 1.682292e-01 4.310866e-02 -9.848048e-01
    outer loop
      vertex   -5.292583e+00 -1.319589e+00 -9.617946e-01
      vertex   -1.052883e+01 -2.820729e+00 -1.921986e+00
      vertex   -1.059036e+01 -2.591007e+00 -1.922442e+00
    endloop
  endfacet
  facet normal 1.691136e-01 3.942562e-02 -9.848077e-01
    outer loop
      vertex   -5.292583e+00 -1.319589e+00 -9.617946e-01
      vertex   -1.059036e+01 -2.591007e+00 -1.922442e+00
      vertex   -1.064667e+01 -2.359982e+00 -1.922862e+00
    endloop
  endfacet
  facet normal 1.691852e-01 3.905947e-02 -9.848100e-01
    outer loop
      vertex   -5.292583e+00 -1.319589e+00 -9.617946e-01
      vertex   -1.064667e+01 -2.359982e+00 -1.922862e+00
      vertex   -5.335412e+00 -1.134077e+00 -9.617946e-01
    endloop
  endfacet
  facet normal 1.699519e-01 3.573312e-02 -9.848043e-01
    outer loop
      vertex   -5.335412e+00 -1.134077e+00 -9.617946e-01
      vertex   -1.064667e+01 -2.359982e+00 -1.922862e+00
      vertex   -1.069772e+01 -2.127740e+00 -1.923245e+00
    endloop
  endfacet
  facet normal 1.706433e-01 3.201032e-02 -9.848128e-01
    outer loop
      vertex   -5.335412e+00 -1.134077e+00 -9.617946e-01
      vertex   -1.069772e+01 -2.127740e+00 -1.923245e+00
      vertex   -1.074348e+01 -1.894365e+00 -1.923589e+00
    endloop
  endfacet
  facet normal 1.704830e-01 3.313852e-02 -9.848032e-01
    outer loop
      vertex   -1.074348e+01 -1.894365e+00 -1.923589e+00
      vertex   0.000000e+00 0.000000e+00 0.000000e+00
      vertex   -5.335412e+00 -1.134077e+00 -9.617946e-01
    endloop
  endfacet
  facet normal 1.692226e-01 3.906811e-02 -9.848032e-01
    outer loop
      vertex   -5.335412e+00 -1.134077e+00 -9.617946e-01
      vertex   0.000000e+00 0.000000e+00 0.000000e+00
      vertex   -5.292583e+00 -1.319589e+00 -9.617946e-01
    endloop
  endfacet
  facet normal 1.677560e-01 4.495010e-02 -9.848032e-01
    outer loop
      vertex   -5.292583e+00 -1.319589e+00 -9.617946e-01
      vertex   0.000000e+00 0.000000e+00 0.000000e+00
      vertex   -5.243306e+00 -1.503494e+00 -9.617946e-01
    endloop
  endfacet
  facet normal 1.660851e-01 5.077731e-02 -9.848032e-01
    outer loop
      vertex   -5.243306e+00 -1.503494e+00 -9.617946e-01
      vertex   0.000000e+00 0.000000e+00 0.000000e+00
      vertex   -5.187641e+00 -1.685567e+00 -9.617946e-01
    endloop
  endfacet
endsolid
