solid ASCII
  facet normal -7.660444e-01 -6.427876e-01 7.618853e-16
    outer loop
      vertex   3.629799e+00 -4.325826e+00 9.780829e+00
      vertex   0.000000e+00 0.000000e+00 0.000000e+00
      vertex   3.762259e+00 -4.483686e+00 9.647460e+00
    endloop
  endfacet
  facet normal -7.660444e-01 -6.427876e-01 -8.026945e-17
    outer loop
      vertex   3.762259e+00 -4.483686e+00 9.647460e+00
      vertex   0.000000e+00 0.000000e+00 0.000000e+00
      vertex   3.892754e+00 -4.639204e+00 9.509468e+00
    endloop
  endfacet
  facet normal -7.660444e-01 -6.427876e-01 1.968100e-15
    outer loop
      vertex   3.892754e+00 -4.639204e+00 9.509468e+00
      vertex   0.000000e+00 0.000000e+00 0.000000e+00
      vertex   4.021241e+00 -4.792328e+00 9.366917e+00
    endloop
  endfacet
  facet normal -7.660444e-01 -6.427876e-01 -2.210509e-15
    outer loop
      vertex   4.021241e+00 -4.792328e+00 9.366917e+00
      vertex   0.000000e+00 0.000000e+00 0.000000e+00
      vertex   4.147674e+00 -4.943006e+00 9.219869e+00
    endloop
  endfacet
  facet normal -7.660444e-01 -6.427876e-01 1.206361e-16
    outer loop
      vertex   4.147674e+00 -4.943006e+00 9.219869e+00
      vertex   0.000000e+00 0.000000e+00 0.000000e+00
      vertex   4.272012e+00 -5.091186e+00 9.068385e+00
    endloop
  endfacet
  facet normal -7.660444e-01 -6.427876e-01 2.574610e-15
    outer loop
      vertex   4.272012e+00 -5.091186e+00 9.068385e+00
      vertex   0.000000e+00 0.000000e+00 0.000000e+00
      vertex   4.394212e+00 -5.236818e+00 8.912529e+00
    endloop
  endfacet
  facet normal -7.660444e-01 -6.427876e-01 -1.649833e-15
    outer loop
      vertex   4.394212e+00 -5.236818e+00 8.912529e+00
      vertex   0.000000e+00 0.000000e+00 0.000000e+00
      vertex   4.514229e+00 -5.379849e+00 8.752363e+00
    endloop
  endfacet
  facet normal -7.660444e-01 -6.427876e-01 -2.213569e-15
    outer loop
      vertex   4.514229e+00 -5.379849e+00 8.752363e+00
      vertex   0.000000e+00 0.000000e+00 0.000000e+00
      vertex   4.632021e+00 -5.520228e+00 8.587950e+00
    endloop
  endfacet
  facet normal 3.993170e-01 -3.644598e-01 8.412580e-01
    outer loop
      vertex   4.488835e+00 -3.766580e+00 9.658358e+00
      vertex   4.330395e+00 -3.633633e+00 9.791161e+00
      vertex   4.339556e+00 -3.930775e+00 9.658081e+00
    endloop
  endfacet
  facet normal 3.976971e-01 -3.647894e-01 8.418823e-01
    outer loop
      vertex   4.339556e+00 -3.930775e+00 9.658081e+00
      vertex   4.330395e+00 -3.633633e+00 9.791161e+00
      vertex   4.166747e+00 -3.817987e+00 9.788586e+00
    endloop
  endfacet
  facet normal 3.893514e-01 -3.762520e-01 8.407377e-01
    outer loop
      vertex   4.339556e+00 -3.930775e+00 9.658081e+00
      vertex   4.166747e+00 -3.817987e+00 9.788586e+00
      vertex   4.262344e+00 -4.010675e+00 9.658081e+00
    endloop
  endfacet
  facet normal 3.809365e-01 -3.814502e-01 8.422488e-01
    outer loop
      vertex   4.262344e+00 -4.010675e+00 9.658081e+00
      vertex   4.166747e+00 -3.817987e+00 9.788586e+00
      vertex   3.995207e+00 -3.995022e+00 9.785992e+00
    endloop
  endfacet
  facet normal 3.807620e-01 -3.822200e-01 8.419787e-01
    outer loop
      vertex   4.262344e+00 -4.010675e+00 9.658081e+00
      vertex   3.995207e+00 -3.995022e+00 9.785992e+00
      vertex   4.183578e+00 -4.089141e+00 9.658081e+00
    endloop
  endfacet
  facet normal 3.743378e-01 -3.925380e-01 8.401102e-01
    outer loop
      vertex   4.183578e+00 -4.089141e+00 9.658081e+00
      vertex   3.995207e+00 -3.995022e+00 9.785992e+00
      vertex   4.079235e+00 -4.188646e+00 9.658081e+00
    endloop
  endfacet
  facet normal 3.865409e-01 -4.053344e-01 8.284263e-01
    outer loop
      vertex   4.183578e+00 -4.089141e+00 9.658081e+00
      vertex   4.079235e+00 -4.188646e+00 9.658081e+00
      vertex   4.221840e+00 -4.335077e+00 9.519896e+00
    endloop
  endfacet
  facet normal 3.765977e-01 -4.148803e-01 8.282804e-01
    outer loop
      vertex   4.221840e+00 -4.335077e+00 9.519896e+00
      vertex   4.079235e+00 -4.188646e+00 9.658081e+00
      vertex   4.111320e+00 -4.435399e+00 9.519896e+00
    endloop
  endfacet
  facet normal 3.891025e-01 -4.286562e-01 8.153853e-01
    outer loop
      vertex   4.221840e+00 -4.335077e+00 9.519896e+00
      vertex   4.111320e+00 -4.435399e+00 9.519896e+00
      vertex   4.248460e+00 -4.583349e+00 9.376674e+00
    endloop
  endfacet
  facet normal 3.785972e-01 -4.382462e-01 8.152327e-01
    outer loop
      vertex   4.248460e+00 -4.583349e+00 9.376674e+00
      vertex   4.111320e+00 -4.435399e+00 9.519896e+00
      vertex   4.131747e+00 -4.684177e+00 9.376674e+00
    endloop
  endfacet
  facet normal 3.875923e-01 -4.486585e-01 8.052812e-01
    outer loop
      vertex   4.248460e+00 -4.583349e+00 9.376674e+00
      vertex   4.131747e+00 -4.684177e+00 9.376674e+00
      vertex   4.197767e+00 -4.759023e+00 9.303197e+00
    endloop
  endfacet
  facet normal 3.770079e-01 -4.578491e-01 8.051330e-01
    outer loop
      vertex   4.197767e+00 -4.759023e+00 9.303197e+00
      vertex   4.131747e+00 -4.684177e+00 9.376674e+00
      vertex   4.021241e+00 -4.792328e+00 9.366917e+00
    endloop
  endfacet
  facet normal 3.768872e-01 -4.653446e-01 8.008810e-01
    outer loop
      vertex   4.197767e+00 -4.759023e+00 9.303197e+00
      vertex   4.021241e+00 -4.792328e+00 9.366917e+00
      vertex   4.147674e+00 -4.943006e+00 9.219869e+00
    endloop
  endfacet
  facet normal 3.643059e-01 -3.980808e-01 8.419103e-01
    outer loop
      vertex   3.995207e+00 -3.995022e+00 9.785992e+00
      vertex   3.816109e+00 -4.164407e+00 9.783400e+00
      vertex   4.079235e+00 -4.188646e+00 9.658081e+00
    endloop
  endfacet
  facet normal 3.636399e-01 -4.006053e-01 8.410002e-01
    outer loop
      vertex   4.079235e+00 -4.188646e+00 9.658081e+00
      vertex   3.816109e+00 -4.164407e+00 9.783400e+00
      vertex   3.972448e+00 -4.285580e+00 9.658081e+00
    endloop
  endfacet
  facet normal 3.765977e-01 -4.148803e-01 8.282804e-01
    outer loop
      vertex   4.079235e+00 -4.188646e+00 9.658081e+00
      vertex   3.972448e+00 -4.285580e+00 9.658081e+00
      vertex   4.111320e+00 -4.435399e+00 9.519896e+00
    endloop
  endfacet
  facet normal 3.664344e-01 -4.241671e-01 8.281353e-01
    outer loop
      vertex   4.111320e+00 -4.435399e+00 9.519896e+00
      vertex   3.972448e+00 -4.285580e+00 9.658081e+00
      vertex   3.998374e+00 -4.532972e+00 9.519896e+00
    endloop
  endfacet
  facet normal 3.785972e-01 -4.382462e-01 8.152327e-01
    outer loop
      vertex   4.111320e+00 -4.435399e+00 9.519896e+00
      vertex   3.998374e+00 -4.532972e+00 9.519896e+00
      vertex   4.131747e+00 -4.684177e+00 9.376674e+00
    endloop
  endfacet
  facet normal 3.688443e-01 -4.467248e-01 8.151017e-01
    outer loop
      vertex   4.131747e+00 -4.684177e+00 9.376674e+00
      vertex   3.998374e+00 -4.532972e+00 9.519896e+00
      vertex   3.892754e+00 -4.639204e+00 9.509468e+00
    endloop
  endfacet
  facet normal 3.678329e-01 -4.492878e-01 8.141495e-01
    outer loop
      vertex   4.131747e+00 -4.684177e+00 9.376674e+00
      vertex   3.892754e+00 -4.639204e+00 9.509468e+00
      vertex   4.021241e+00 -4.792328e+00 9.366917e+00
    endloop
  endfacet
  facet normal 3.548518e-01 -4.107596e-01 8.398552e-01
    outer loop
      vertex   3.972448e+00 -4.285580e+00 9.658081e+00
      vertex   3.816109e+00 -4.164407e+00 9.783400e+00
      vertex   3.863317e+00 -4.379857e+00 9.658081e+00
    endloop
  endfacet
  facet normal 3.467779e-01 -4.136608e-01 8.418015e-01
    outer loop
      vertex   3.863317e+00 -4.379857e+00 9.658081e+00
      vertex   3.816109e+00 -4.164407e+00 9.783400e+00
      vertex   3.629799e+00 -4.325826e+00 9.780829e+00
    endloop
  endfacet
  facet normal 3.439511e-01 -4.206440e-01 8.394976e-01
    outer loop
      vertex   3.863317e+00 -4.379857e+00 9.658081e+00
      vertex   3.629799e+00 -4.325826e+00 9.780829e+00
      vertex   3.762259e+00 -4.483686e+00 9.647460e+00
    endloop
  endfacet
  facet normal 3.571124e-01 -4.322793e-01 8.280129e-01
    outer loop
      vertex   3.863317e+00 -4.379857e+00 9.658081e+00
      vertex   3.762259e+00 -4.483686e+00 9.647460e+00
      vertex   3.998374e+00 -4.532972e+00 9.519896e+00
    endloop
  endfacet
  facet normal 3.559838e-01 -4.351080e-01 8.270167e-01
    outer loop
      vertex   3.998374e+00 -4.532972e+00 9.519896e+00
      vertex   3.762259e+00 -4.483686e+00 9.647460e+00
      vertex   3.892754e+00 -4.639204e+00 9.509468e+00
    endloop
  endfacet
  facet normal 3.882747e-01 -4.790138e-01 7.872665e-01
    outer loop
      vertex   4.272012e+00 -5.091186e+00 9.068385e+00
      vertex   4.328404e+00 -4.907128e+00 9.152564e+00
      vertex   4.147674e+00 -4.943006e+00 9.219869e+00
    endloop
  endfacet
  facet normal 3.884303e-01 -4.718715e-01 7.914917e-01
    outer loop
      vertex   4.147674e+00 -4.943006e+00 9.219869e+00
      vertex   4.328404e+00 -4.907128e+00 9.152564e+00
      vertex   4.263324e+00 -4.833346e+00 9.228490e+00
    endloop
  endfacet
  facet normal 3.819483e-01 -4.655744e-01 7.983458e-01
    outer loop
      vertex   4.147674e+00 -4.943006e+00 9.219869e+00
      vertex   4.263324e+00 -4.833346e+00 9.228490e+00
      vertex   4.197767e+00 -4.759023e+00 9.303197e+00
    endloop
  endfacet
  facet normal 3.935288e-01 -4.555303e-01 7.985156e-01
    outer loop
      vertex   4.197767e+00 -4.759023e+00 9.303197e+00
      vertex   4.263324e+00 -4.833346e+00 9.228490e+00
      vertex   4.316345e+00 -4.656585e+00 9.303197e+00
    endloop
  endfacet
  facet normal 3.875923e-01 -4.486585e-01 8.052812e-01
    outer loop
      vertex   4.197767e+00 -4.759023e+00 9.303197e+00
      vertex   4.316345e+00 -4.656585e+00 9.303197e+00
      vertex   4.248460e+00 -4.583349e+00 9.376674e+00
    endloop
  endfacet
  facet normal 3.983507e-01 -4.388445e-01 8.054391e-01
    outer loop
      vertex   4.248460e+00 -4.583349e+00 9.376674e+00
      vertex   4.316345e+00 -4.656585e+00 9.303197e+00
      vertex   4.362667e+00 -4.479681e+00 9.376674e+00
    endloop
  endfacet
  facet normal 3.891025e-01 -4.286562e-01 8.153853e-01
    outer loop
      vertex   4.248460e+00 -4.583349e+00 9.376674e+00
      vertex   4.362667e+00 -4.479681e+00 9.376674e+00
      vertex   4.221840e+00 -4.335077e+00 9.519896e+00
    endloop
  endfacet
  facet normal 3.993806e-01 -4.187984e-01 8.155385e-01
    outer loop
      vertex   4.221840e+00 -4.335077e+00 9.519896e+00
      vertex   4.362667e+00 -4.479681e+00 9.376674e+00
      vertex   4.329831e+00 -4.232093e+00 9.519896e+00
    endloop
  endfacet
  facet normal 3.865409e-01 -4.053344e-01 8.284263e-01
    outer loop
      vertex   4.221840e+00 -4.335077e+00 9.519896e+00
      vertex   4.329831e+00 -4.232093e+00 9.519896e+00
      vertex   4.183578e+00 -4.089141e+00 9.658081e+00
    endloop
  endfacet
  facet normal 3.951482e-01 -3.966612e-01 8.285637e-01
    outer loop
      vertex   4.183578e+00 -4.089141e+00 9.658081e+00
      vertex   4.329831e+00 -4.232093e+00 9.519896e+00
      vertex   4.262344e+00 -4.010675e+00 9.658081e+00
    endloop
  endfacet
  facet normal 4.022015e-01 -4.901204e-01 7.733149e-01
    outer loop
      vertex   4.394212e+00 -5.236818e+00 8.912529e+00
      vertex   4.520653e+00 -5.125081e+00 8.917585e+00
      vertex   4.272012e+00 -5.091186e+00 9.068385e+00
    endloop
  endfacet
  facet normal 4.027249e-01 -4.887965e-01 7.738803e-01
    outer loop
      vertex   4.272012e+00 -5.091186e+00 9.068385e+00
      vertex   4.520653e+00 -5.125081e+00 8.917585e+00
      vertex   4.392995e+00 -4.980354e+00 9.075430e+00
    endloop
  endfacet
  facet normal 3.934360e-01 -4.793323e-01 7.845054e-01
    outer loop
      vertex   4.272012e+00 -5.091186e+00 9.068385e+00
      vertex   4.392995e+00 -4.980354e+00 9.075430e+00
      vertex   4.328404e+00 -4.907128e+00 9.152564e+00
    endloop
  endfacet
  facet normal 4.052485e-01 -4.690965e-01 7.846796e-01
    outer loop
      vertex   4.328404e+00 -4.907128e+00 9.152564e+00
      vertex   4.392995e+00 -4.980354e+00 9.075430e+00
      vertex   4.450672e+00 -4.801501e+00 9.152564e+00
    endloop
  endfacet
  facet normal 3.994146e-01 -4.623434e-01 7.916480e-01
    outer loop
      vertex   4.328404e+00 -4.907128e+00 9.152564e+00
      vertex   4.450672e+00 -4.801501e+00 9.152564e+00
      vertex   4.383753e+00 -4.729307e+00 9.228490e+00
    endloop
  endfacet
  facet normal 4.105062e-01 -4.522357e-01 7.918128e-01
    outer loop
      vertex   4.383753e+00 -4.729307e+00 9.228490e+00
      vertex   4.450672e+00 -4.801501e+00 9.152564e+00
      vertex   4.501597e+00 -4.622337e+00 9.228490e+00
    endloop
  endfacet
  facet normal 4.044545e-01 -4.455688e-01 7.986770e-01
    outer loop
      vertex   4.383753e+00 -4.729307e+00 9.228490e+00
      vertex   4.501597e+00 -4.622337e+00 9.228490e+00
      vertex   4.432376e+00 -4.551260e+00 9.303197e+00
    endloop
  endfacet
  facet normal 4.151444e-01 -4.353286e-01 7.988392e-01
    outer loop
      vertex   4.432376e+00 -4.551260e+00 9.303197e+00
      vertex   4.501597e+00 -4.622337e+00 9.228490e+00
      vertex   4.545753e+00 -4.443140e+00 9.303197e+00
    endloop
  endfacet
  facet normal 4.088768e-01 -4.287563e-01 8.055978e-01
    outer loop
      vertex   4.432376e+00 -4.551260e+00 9.303197e+00
      vertex   4.545753e+00 -4.443140e+00 9.303197e+00
      vertex   4.474260e+00 -4.373261e+00 9.376674e+00
    endloop
  endfacet
  facet normal 4.179897e-01 -4.195902e-01 8.057473e-01
    outer loop
      vertex   4.474260e+00 -4.373261e+00 9.376674e+00
      vertex   4.545753e+00 -4.443140e+00 9.303197e+00
      vertex   4.558499e+00 -4.289344e+00 9.376674e+00
    endloop
  endfacet
  facet normal 4.082783e-01 -4.098416e-01 8.156829e-01
    outer loop
      vertex   4.474260e+00 -4.373261e+00 9.376674e+00
      vertex   4.558499e+00 -4.289344e+00 9.376674e+00
      vertex   4.411351e+00 -4.150884e+00 9.519896e+00
    endloop
  endfacet
  facet normal 4.158787e-01 -4.018869e-01 8.158014e-01
    outer loop
      vertex   4.411351e+00 -4.150884e+00 9.519896e+00
      vertex   4.558499e+00 -4.289344e+00 9.376674e+00
      vertex   4.491262e+00 -4.068191e+00 9.519896e+00
    endloop
  endfacet
  facet normal 4.025004e-01 -3.889587e-01 8.286764e-01
    outer loop
      vertex   4.411351e+00 -4.150884e+00 9.519896e+00
      vertex   4.491262e+00 -4.068191e+00 9.519896e+00
      vertex   4.339556e+00 -3.930775e+00 9.658081e+00
    endloop
  endfacet
  facet normal 4.132327e-01 -3.772443e-01 8.288096e-01
    outer loop
      vertex   4.339556e+00 -3.930775e+00 9.658081e+00
      vertex   4.491262e+00 -4.068191e+00 9.519896e+00
      vertex   4.644944e+00 -3.897570e+00 9.520933e+00
    endloop
  endfacet
  facet normal 4.132439e-01 -3.771006e-01 8.288695e-01
    outer loop
      vertex   4.339556e+00 -3.930775e+00 9.658081e+00
      vertex   4.644944e+00 -3.897570e+00 9.520933e+00
      vertex   4.488835e+00 -3.766580e+00 9.658358e+00
    endloop
  endfacet
  facet normal 4.135662e-01 -5.023487e-01 7.593476e-01
    outer loop
      vertex   4.520653e+00 -5.125081e+00 8.917585e+00
      vertex   4.394212e+00 -5.236818e+00 8.912529e+00
      vertex   4.646193e+00 -5.267406e+00 8.755056e+00
    endloop
  endfacet
  facet normal 4.132416e-01 -5.031615e-01 7.589861e-01
    outer loop
      vertex   4.646193e+00 -5.267406e+00 8.755056e+00
      vertex   4.394212e+00 -5.236818e+00 8.912529e+00
      vertex   4.514229e+00 -5.379849e+00 8.752363e+00
    endloop
  endfacet
  facet normal 4.242659e-01 -5.157485e-01 7.443131e-01
    outer loop
      vertex   4.646193e+00 -5.267406e+00 8.755056e+00
      vertex   4.514229e+00 -5.379849e+00 8.752363e+00
      vertex   4.632021e+00 -5.520228e+00 8.587950e+00
    endloop
  endfacet
  facet normal 4.307678e-01 -5.143025e-01 7.415740e-01
    outer loop
      vertex   4.632021e+00 -5.520228e+00 8.587950e+00
      vertex   4.870637e+00 -5.315065e+00 8.591628e+00
      vertex   4.646193e+00 -5.267406e+00 8.755056e+00
    endloop
  endfacet
  facet normal 4.357249e-01 -5.043745e-01 7.454866e-01
    outer loop
      vertex   4.646193e+00 -5.267406e+00 8.755056e+00
      vertex   4.870637e+00 -5.315065e+00 8.591628e+00
      vertex   4.777438e+00 -5.154025e+00 8.755056e+00
    endloop
  endfacet
  facet normal 4.252436e-01 -4.922418e-01 7.595169e-01
    outer loop
      vertex   4.646193e+00 -5.267406e+00 8.755056e+00
      vertex   4.777438e+00 -5.154025e+00 8.755056e+00
      vertex   4.648352e+00 -5.014763e+00 8.917585e+00
    endloop
  endfacet
  facet normal 4.370645e-01 -4.814937e-01 7.596962e-01
    outer loop
      vertex   4.648352e+00 -5.014763e+00 8.917585e+00
      vertex   4.777438e+00 -5.154025e+00 8.755056e+00
      vertex   4.773309e+00 -4.901336e+00 8.917585e+00
    endloop
  endfacet
  facet normal 4.254015e-01 -4.686451e-01 7.742128e-01
    outer loop
      vertex   4.648352e+00 -5.014763e+00 8.917585e+00
      vertex   4.773309e+00 -4.901336e+00 8.917585e+00
      vertex   4.638516e+00 -4.762928e+00 9.075430e+00
    endloop
  endfacet
  facet normal 4.366544e-01 -4.578844e-01 7.743867e-01
    outer loop
      vertex   4.638516e+00 -4.762928e+00 9.075430e+00
      vertex   4.773309e+00 -4.901336e+00 8.917585e+00
      vertex   4.757165e+00 -4.649780e+00 9.075430e+00
    endloop
  endfacet
  facet normal 4.275183e-01 -4.483041e-01 7.850169e-01
    outer loop
      vertex   4.638516e+00 -4.762928e+00 9.075430e+00
      vertex   4.757165e+00 -4.649780e+00 9.075430e+00
      vertex   4.687220e+00 -4.581414e+00 9.152564e+00
    endloop
  endfacet
  facet normal 4.370542e-01 -4.387277e-01 7.851762e-01
    outer loop
      vertex   4.687220e+00 -4.581414e+00 9.152564e+00
      vertex   4.757165e+00 -4.649780e+00 9.075430e+00
      vertex   4.775468e+00 -4.493502e+00 9.152564e+00
    endloop
  endfacet
  facet normal 4.307547e-01 -4.324040e-01 7.921346e-01
    outer loop
      vertex   4.687220e+00 -4.581414e+00 9.152564e+00
      vertex   4.775468e+00 -4.493502e+00 9.152564e+00
      vertex   4.703666e+00 -4.425939e+00 9.228490e+00
    endloop
  endfacet
  facet normal 4.387806e-01 -4.240183e-01 7.922626e-01
    outer loop
      vertex   4.703666e+00 -4.425939e+00 9.228490e+00
      vertex   4.775468e+00 -4.493502e+00 9.152564e+00
      vertex   4.788872e+00 -4.337766e+00 9.228490e+00
    endloop
  endfacet
  facet normal 4.323049e-01 -4.177604e-01 7.991174e-01
    outer loop
      vertex   4.703666e+00 -4.425939e+00 9.228490e+00
      vertex   4.788872e+00 -4.337766e+00 9.228490e+00
      vertex   4.715234e+00 -4.271065e+00 9.303197e+00
    endloop
  endfacet
  facet normal 4.438115e-01 -4.052232e-01 7.992656e-01
    outer loop
      vertex   4.715234e+00 -4.271065e+00 9.303197e+00
      vertex   4.788872e+00 -4.337766e+00 9.228490e+00
      vertex   4.949960e+00 -4.153510e+00 9.232459e+00
    endloop
  endfacet
  facet normal 4.421425e-01 -3.996513e-01 8.029874e-01
    outer loop
      vertex   4.715234e+00 -4.271065e+00 9.303197e+00
      vertex   4.949960e+00 -4.153510e+00 9.232459e+00
      vertex   4.798669e+00 -4.026562e+00 9.378946e+00
    endloop
  endfacet
  facet normal 4.492211e-01 -4.948861e-01 7.438334e-01
    outer loop
      vertex   4.777438e+00 -5.154025e+00 8.755056e+00
      vertex   4.870637e+00 -5.315065e+00 8.591628e+00
      vertex   4.905865e+00 -5.037448e+00 8.755056e+00
    endloop
  endfacet
  facet normal 4.520491e-01 -4.944186e-01 7.424297e-01
    outer loop
      vertex   4.905865e+00 -5.037448e+00 8.755056e+00
      vertex   4.870637e+00 -5.315065e+00 8.591628e+00
      vertex   5.100090e+00 -5.099705e+00 8.595337e+00
    endloop
  endfacet
  facet normal 4.593384e-01 -4.816713e-01 7.463250e-01
    outer loop
      vertex   4.905865e+00 -5.037448e+00 8.755056e+00
      vertex   5.100090e+00 -5.099705e+00 8.595337e+00
      vertex   5.031353e+00 -4.917779e+00 8.755056e+00
    endloop
  endfacet
  facet normal 4.722234e-01 -4.740316e-01 7.431683e-01
    outer loop
      vertex   5.031353e+00 -4.917779e+00 8.755056e+00
      vertex   5.100090e+00 -5.099705e+00 8.595337e+00
      vertex   5.126080e+00 -4.823413e+00 8.755056e+00
    endloop
  endfacet
  facet normal 4.586479e-01 -4.604041e-01 7.600462e-01
    outer loop
      vertex   5.031353e+00 -4.917779e+00 8.755056e+00
      vertex   5.126080e+00 -4.823413e+00 8.755056e+00
      vertex   4.987574e+00 -4.693084e+00 8.917585e+00
    endloop
  endfacet
  facet normal 4.672037e-01 -4.514851e-01 7.601855e-01
    outer loop
      vertex   4.987574e+00 -4.693084e+00 8.917585e+00
      vertex   5.126080e+00 -4.823413e+00 8.755056e+00
      vertex   5.077923e+00 -4.599589e+00 8.917585e+00
    endloop
  endfacet
  facet normal 4.547209e-01 -4.394222e-01 7.746851e-01
    outer loop
      vertex   4.987574e+00 -4.693084e+00 8.917585e+00
      vertex   5.077923e+00 -4.599589e+00 8.917585e+00
      vertex   4.934528e+00 -4.469702e+00 9.075430e+00
    endloop
  endfacet
  facet normal 4.665596e-01 -4.265445e-01 7.748432e-01
    outer loop
      vertex   4.934528e+00 -4.469702e+00 9.075430e+00
      vertex   5.077923e+00 -4.599589e+00 8.917585e+00
      vertex   5.245029e+00 -4.401102e+00 8.926231e+00
    endloop
  endfacet
  facet normal 4.666024e-01 -4.252658e-01 7.755200e-01
    outer loop
      vertex   4.934528e+00 -4.469702e+00 9.075430e+00
      vertex   5.245029e+00 -4.401102e+00 8.926231e+00
      vertex   5.098764e+00 -4.278371e+00 9.081534e+00
    endloop
  endfacet
  facet normal 4.728313e-01 -4.739101e-01 7.428592e-01
    outer loop
      vertex   5.100090e+00 -5.099705e+00 8.595337e+00
      vertex   5.319933e+00 -4.874543e+00 8.599050e+00
      vertex   5.126080e+00 -4.823413e+00 8.755056e+00
    endloop
  endfacet
  facet normal 4.786223e-01 -4.625195e-01 7.463219e-01
    outer loop
      vertex   5.126080e+00 -4.823413e+00 8.755056e+00
      vertex   5.319933e+00 -4.874543e+00 8.599050e+00
      vertex   5.218939e+00 -4.727321e+00 8.755056e+00
    endloop
  endfacet
  facet normal 4.672037e-01 -4.514851e-01 7.601855e-01
    outer loop
      vertex   5.126080e+00 -4.823413e+00 8.755056e+00
      vertex   5.218939e+00 -4.727321e+00 8.755056e+00
      vertex   5.077923e+00 -4.599589e+00 8.917585e+00
    endloop
  endfacet
  facet normal 4.792907e-01 -4.383491e-01 7.603489e-01
    outer loop
      vertex   5.077923e+00 -4.599589e+00 8.917585e+00
      vertex   5.218939e+00 -4.727321e+00 8.755056e+00
      vertex   5.388702e+00 -4.521658e+00 8.766611e+00
    endloop
  endfacet
  facet normal 4.793268e-01 -4.367020e-01 7.612734e-01
    outer loop
      vertex   5.077923e+00 -4.599589e+00 8.917585e+00
      vertex   5.388702e+00 -4.521658e+00 8.766611e+00
      vertex   5.245029e+00 -4.401102e+00 8.926231e+00
    endloop
  endfacet
  facet normal 4.917501e-01 -4.515721e-01 7.444894e-01
    outer loop
      vertex   5.319933e+00 -4.874543e+00 8.599050e+00
      vertex   5.529733e+00 -4.639997e+00 8.602737e+00
      vertex   5.218939e+00 -4.727321e+00 8.755056e+00
    endloop
  endfacet
  facet normal 4.917907e-01 -4.478990e-01 7.466782e-01
    outer loop
      vertex   5.218939e+00 -4.727321e+00 8.755056e+00
      vertex   5.529733e+00 -4.639997e+00 8.602737e+00
      vertex   5.388702e+00 -4.521658e+00 8.766611e+00
    endloop
  endfacet
  facet normal 4.570176e-01 -4.173555e-01 7.854612e-01
    outer loop
      vertex   4.934528e+00 -4.469702e+00 9.075430e+00
      vertex   5.098764e+00 -4.278371e+00 9.081534e+00
      vertex   4.861975e+00 -4.403983e+00 9.152564e+00
    endloop
  endfacet
  facet normal 4.552319e-01 -4.117296e-01 7.894572e-01
    outer loop
      vertex   4.861975e+00 -4.403983e+00 9.152564e+00
      vertex   5.098764e+00 -4.278371e+00 9.081534e+00
      vertex   4.949960e+00 -4.153510e+00 9.232459e+00
    endloop
  endfacet
  facet normal 4.506674e-01 -4.110695e-01 7.924145e-01
    outer loop
      vertex   4.861975e+00 -4.403983e+00 9.152564e+00
      vertex   4.949960e+00 -4.153510e+00 9.232459e+00
      vertex   4.788872e+00 -4.337766e+00 9.228490e+00
    endloop
  endfacet
  facet normal 4.269358e-01 -3.895097e-01 8.160931e-01
    outer loop
      vertex   4.644944e+00 -3.897570e+00 9.520933e+00
      vertex   4.491262e+00 -4.068191e+00 9.519896e+00
      vertex   4.798669e+00 -4.026562e+00 9.378946e+00
    endloop
  endfacet
  facet normal 4.269127e-01 -3.898531e-01 8.159413e-01
    outer loop
      vertex   4.798669e+00 -4.026562e+00 9.378946e+00
      vertex   4.491262e+00 -4.068191e+00 9.519896e+00
      vertex   4.641076e+00 -4.203892e+00 9.376674e+00
    endloop
  endfacet
  facet normal 4.372629e-01 -3.989242e-01 8.060153e-01
    outer loop
      vertex   4.798669e+00 -4.026562e+00 9.378946e+00
      vertex   4.641076e+00 -4.203892e+00 9.376674e+00
      vertex   4.715234e+00 -4.271065e+00 9.303197e+00
    endloop
  endfacet
  facet normal 4.257738e-01 -4.114490e-01 8.058699e-01
    outer loop
      vertex   4.715234e+00 -4.271065e+00 9.303197e+00
      vertex   4.641076e+00 -4.203892e+00 9.376674e+00
      vertex   4.631338e+00 -4.357882e+00 9.303197e+00
    endloop
  endfacet
  facet normal 4.323049e-01 -4.177604e-01 7.991174e-01
    outer loop
      vertex   4.715234e+00 -4.271065e+00 9.303197e+00
      vertex   4.631338e+00 -4.357882e+00 9.303197e+00
      vertex   4.703666e+00 -4.425939e+00 9.228490e+00
    endloop
  endfacet
  facet normal 4.243994e-01 -4.260244e-01 7.989921e-01
    outer loop
      vertex   4.703666e+00 -4.425939e+00 9.228490e+00
      vertex   4.631338e+00 -4.357882e+00 9.303197e+00
      vertex   4.616744e+00 -4.512529e+00 9.228490e+00
    endloop
  endfacet
  facet normal 4.307547e-01 -4.324040e-01 7.921346e-01
    outer loop
      vertex   4.703666e+00 -4.425939e+00 9.228490e+00
      vertex   4.616744e+00 -4.512529e+00 9.228490e+00
      vertex   4.687220e+00 -4.581414e+00 9.152564e+00
    endloop
  endfacet
  facet normal 4.213587e-01 -4.418450e-01 7.919785e-01
    outer loop
      vertex   4.687220e+00 -4.581414e+00 9.152564e+00
      vertex   4.616744e+00 -4.512529e+00 9.228490e+00
      vertex   4.570315e+00 -4.692898e+00 9.152564e+00
    endloop
  endfacet
  facet normal 4.275183e-01 -4.483041e-01 7.850169e-01
    outer loop
      vertex   4.687220e+00 -4.581414e+00 9.152564e+00
      vertex   4.570315e+00 -4.692898e+00 9.152564e+00
      vertex   4.638516e+00 -4.762928e+00 9.075430e+00
    endloop
  endfacet
  facet normal 4.165047e-01 -4.588439e-01 7.848479e-01
    outer loop
      vertex   4.638516e+00 -4.762928e+00 9.075430e+00
      vertex   4.570315e+00 -4.692898e+00 9.152564e+00
      vertex   4.517088e+00 -4.873152e+00 9.075430e+00
    endloop
  endfacet
  facet normal 4.254015e-01 -4.686451e-01 7.742128e-01
    outer loop
      vertex   4.638516e+00 -4.762928e+00 9.075430e+00
      vertex   4.517088e+00 -4.873152e+00 9.075430e+00
      vertex   4.648352e+00 -5.014763e+00 8.917585e+00
    endloop
  endfacet
  facet normal 4.139010e-01 -4.791122e-01 7.740397e-01
    outer loop
      vertex   4.648352e+00 -5.014763e+00 8.917585e+00
      vertex   4.517088e+00 -4.873152e+00 9.075430e+00
      vertex   4.520653e+00 -5.125081e+00 8.917585e+00
    endloop
  endfacet
  facet normal 4.252436e-01 -4.922418e-01 7.595169e-01
    outer loop
      vertex   4.648352e+00 -5.014763e+00 8.917585e+00
      vertex   4.520653e+00 -5.125081e+00 8.917585e+00
      vertex   4.646193e+00 -5.267406e+00 8.755056e+00
    endloop
  endfacet
  facet normal 4.257738e-01 -4.114490e-01 8.058699e-01
    outer loop
      vertex   4.631338e+00 -4.357882e+00 9.303197e+00
      vertex   4.641076e+00 -4.203892e+00 9.376674e+00
      vertex   4.558499e+00 -4.289344e+00 9.376674e+00
    endloop
  endfacet
  facet normal 4.158787e-01 -4.018869e-01 8.158014e-01
    outer loop
      vertex   4.558499e+00 -4.289344e+00 9.376674e+00
      vertex   4.641076e+00 -4.203892e+00 9.376674e+00
      vertex   4.491262e+00 -4.068191e+00 9.519896e+00
    endloop
  endfacet
  facet normal 4.387806e-01 -4.240183e-01 7.922626e-01
    outer loop
      vertex   4.788872e+00 -4.337766e+00 9.228490e+00
      vertex   4.775468e+00 -4.493502e+00 9.152564e+00
      vertex   4.861975e+00 -4.403983e+00 9.152564e+00
    endloop
  endfacet
  facet normal 4.451997e-01 -4.302214e-01 7.853068e-01
    outer loop
      vertex   4.861975e+00 -4.403983e+00 9.152564e+00
      vertex   4.775468e+00 -4.493502e+00 9.152564e+00
      vertex   4.846730e+00 -4.560556e+00 9.075430e+00
    endloop
  endfacet
  facet normal 4.451997e-01 -4.302214e-01 7.853068e-01
    outer loop
      vertex   4.861975e+00 -4.403983e+00 9.152564e+00
      vertex   4.846730e+00 -4.560556e+00 9.075430e+00
      vertex   4.934528e+00 -4.469702e+00 9.075430e+00
    endloop
  endfacet
  facet normal 4.547209e-01 -4.394222e-01 7.746851e-01
    outer loop
      vertex   4.934528e+00 -4.469702e+00 9.075430e+00
      vertex   4.846730e+00 -4.560556e+00 9.075430e+00
      vertex   4.987574e+00 -4.693084e+00 8.917585e+00
    endloop
  endfacet
  facet normal 4.025004e-01 -3.889587e-01 8.286764e-01
    outer loop
      vertex   4.339556e+00 -3.930775e+00 9.658081e+00
      vertex   4.262344e+00 -4.010675e+00 9.658081e+00
      vertex   4.411351e+00 -4.150884e+00 9.519896e+00
    endloop
  endfacet
  facet normal 3.951482e-01 -3.966612e-01 8.285637e-01
    outer loop
      vertex   4.411351e+00 -4.150884e+00 9.519896e+00
      vertex   4.262344e+00 -4.010675e+00 9.658081e+00
      vertex   4.329831e+00 -4.232093e+00 9.519896e+00
    endloop
  endfacet
  facet normal 4.082783e-01 -4.098416e-01 8.156829e-01
    outer loop
      vertex   4.411351e+00 -4.150884e+00 9.519896e+00
      vertex   4.329831e+00 -4.232093e+00 9.519896e+00
      vertex   4.474260e+00 -4.373261e+00 9.376674e+00
    endloop
  endfacet
  facet normal 3.993806e-01 -4.187984e-01 8.155385e-01
    outer loop
      vertex   4.474260e+00 -4.373261e+00 9.376674e+00
      vertex   4.329831e+00 -4.232093e+00 9.519896e+00
      vertex   4.362667e+00 -4.479681e+00 9.376674e+00
    endloop
  endfacet
  facet normal 4.088768e-01 -4.287563e-01 8.055978e-01
    outer loop
      vertex   4.474260e+00 -4.373261e+00 9.376674e+00
      vertex   4.362667e+00 -4.479681e+00 9.376674e+00
      vertex   4.432376e+00 -4.551260e+00 9.303197e+00
    endloop
  endfacet
  facet normal 3.983507e-01 -4.388445e-01 8.054391e-01
    outer loop
      vertex   4.432376e+00 -4.551260e+00 9.303197e+00
      vertex   4.362667e+00 -4.479681e+00 9.376674e+00
      vertex   4.316345e+00 -4.656585e+00 9.303197e+00
    endloop
  endfacet
  facet normal 4.044545e-01 -4.455688e-01 7.986770e-01
    outer loop
      vertex   4.432376e+00 -4.551260e+00 9.303197e+00
      vertex   4.316345e+00 -4.656585e+00 9.303197e+00
      vertex   4.383753e+00 -4.729307e+00 9.228490e+00
    endloop
  endfacet
  facet normal 3.935288e-01 -4.555303e-01 7.985156e-01
    outer loop
      vertex   4.383753e+00 -4.729307e+00 9.228490e+00
      vertex   4.316345e+00 -4.656585e+00 9.303197e+00
      vertex   4.263324e+00 -4.833346e+00 9.228490e+00
    endloop
  endfacet
  facet normal 3.994146e-01 -4.623434e-01 7.916480e-01
    outer loop
      vertex   4.383753e+00 -4.729307e+00 9.228490e+00
      vertex   4.263324e+00 -4.833346e+00 9.228490e+00
      vertex   4.328404e+00 -4.907128e+00 9.152564e+00
    endloop
  endfacet
  facet normal 4.243994e-01 -4.260244e-01 7.989921e-01
    outer loop
      vertex   4.616744e+00 -4.512529e+00 9.228490e+00
      vertex   4.631338e+00 -4.357882e+00 9.303197e+00
      vertex   4.545753e+00 -4.443140e+00 9.303197e+00
    endloop
  endfacet
  facet normal 4.179897e-01 -4.195902e-01 8.057473e-01
    outer loop
      vertex   4.545753e+00 -4.443140e+00 9.303197e+00
      vertex   4.631338e+00 -4.357882e+00 9.303197e+00
      vertex   4.558499e+00 -4.289344e+00 9.376674e+00
    endloop
  endfacet
  facet normal 4.370542e-01 -4.387277e-01 7.851762e-01
    outer loop
      vertex   4.775468e+00 -4.493502e+00 9.152564e+00
      vertex   4.757165e+00 -4.649780e+00 9.075430e+00
      vertex   4.846730e+00 -4.560556e+00 9.075430e+00
    endloop
  endfacet
  facet normal 4.463980e-01 -4.481073e-01 7.745506e-01
    outer loop
      vertex   4.846730e+00 -4.560556e+00 9.075430e+00
      vertex   4.757165e+00 -4.649780e+00 9.075430e+00
      vertex   4.895406e+00 -4.784900e+00 8.917585e+00
    endloop
  endfacet
  facet normal 4.463980e-01 -4.481073e-01 7.745506e-01
    outer loop
      vertex   4.846730e+00 -4.560556e+00 9.075430e+00
      vertex   4.895406e+00 -4.784900e+00 8.917585e+00
      vertex   4.987574e+00 -4.693084e+00 8.917585e+00
    endloop
  endfacet
  facet normal 4.586479e-01 -4.604041e-01 7.600462e-01
    outer loop
      vertex   4.987574e+00 -4.693084e+00 8.917585e+00
      vertex   4.895406e+00 -4.784900e+00 8.917585e+00
      vertex   5.031353e+00 -4.917779e+00 8.755056e+00
    endloop
  endfacet
  facet normal 4.486316e-01 -4.704439e-01 7.598764e-01
    outer loop
      vertex   5.031353e+00 -4.917779e+00 8.755056e+00
      vertex   4.895406e+00 -4.784900e+00 8.917585e+00
      vertex   4.905865e+00 -5.037448e+00 8.755056e+00
    endloop
  endfacet
  facet normal 4.486316e-01 -4.704439e-01 7.598764e-01
    outer loop
      vertex   4.905865e+00 -5.037448e+00 8.755056e+00
      vertex   4.895406e+00 -4.784900e+00 8.917585e+00
      vertex   4.773309e+00 -4.901336e+00 8.917585e+00
    endloop
  endfacet
  facet normal 4.370645e-01 -4.814937e-01 7.596962e-01
    outer loop
      vertex   4.905865e+00 -5.037448e+00 8.755056e+00
      vertex   4.773309e+00 -4.901336e+00 8.917585e+00
      vertex   4.777438e+00 -5.154025e+00 8.755056e+00
    endloop
  endfacet
  facet normal 4.366544e-01 -4.578844e-01 7.743867e-01
    outer loop
      vertex   4.895406e+00 -4.784900e+00 8.917585e+00
      vertex   4.757165e+00 -4.649780e+00 9.075430e+00
      vertex   4.773309e+00 -4.901336e+00 8.917585e+00
    endloop
  endfacet
  facet normal 4.213587e-01 -4.418450e-01 7.919785e-01
    outer loop
      vertex   4.570315e+00 -4.692898e+00 9.152564e+00
      vertex   4.616744e+00 -4.512529e+00 9.228490e+00
      vertex   4.501597e+00 -4.622337e+00 9.228490e+00
    endloop
  endfacet
  facet normal 4.151444e-01 -4.353286e-01 7.988392e-01
    outer loop
      vertex   4.501597e+00 -4.622337e+00 9.228490e+00
      vertex   4.616744e+00 -4.512529e+00 9.228490e+00
      vertex   4.545753e+00 -4.443140e+00 9.303197e+00
    endloop
  endfacet
  facet normal 4.165047e-01 -4.588439e-01 7.848479e-01
    outer loop
      vertex   4.517088e+00 -4.873152e+00 9.075430e+00
      vertex   4.570315e+00 -4.692898e+00 9.152564e+00
      vertex   4.450672e+00 -4.801501e+00 9.152564e+00
    endloop
  endfacet
  facet normal 4.105062e-01 -4.522357e-01 7.918128e-01
    outer loop
      vertex   4.450672e+00 -4.801501e+00 9.152564e+00
      vertex   4.570315e+00 -4.692898e+00 9.152564e+00
      vertex   4.501597e+00 -4.622337e+00 9.228490e+00
    endloop
  endfacet
  facet normal 4.139010e-01 -4.791122e-01 7.740397e-01
    outer loop
      vertex   4.392995e+00 -4.980354e+00 9.075430e+00
      vertex   4.520653e+00 -5.125081e+00 8.917585e+00
      vertex   4.517088e+00 -4.873152e+00 9.075430e+00
    endloop
  endfacet
  facet normal 4.052485e-01 -4.690965e-01 7.846796e-01
    outer loop
      vertex   4.517088e+00 -4.873152e+00 9.075430e+00
      vertex   4.450672e+00 -4.801501e+00 9.152564e+00
      vertex   4.392995e+00 -4.980354e+00 9.075430e+00
    endloop
  endfacet
  facet normal 3.664344e-01 -4.241671e-01 8.281353e-01
    outer loop
      vertex   3.863317e+00 -4.379857e+00 9.658081e+00
      vertex   3.998374e+00 -4.532972e+00 9.519896e+00
      vertex   3.972448e+00 -4.285580e+00 9.658081e+00
    endloop
  endfacet
  facet normal 6.427876e-01 7.660444e-01 -2.319785e-15
    outer loop
      vertex   4.330395e+00 -3.633633e+00 9.791161e+00
      vertex   4.488835e+00 -3.766580e+00 9.658358e+00
      vertex   0.000000e+00 0.000000e+00 0.000000e+00
    endloop
  endfacet
  facet normal 6.427876e-01 7.660444e-01 1.280944e-15
    outer loop
      vertex   0.000000e+00 0.000000e+00 0.000000e+00
      vertex   4.488835e+00 -3.766580e+00 9.658358e+00
      vertex   4.644944e+00 -3.897570e+00 9.520933e+00
    endloop
  endfacet
  facet normal 6.427876e-01 7.660444e-01 0.000000e+00
    outer loop
      vertex   0.000000e+00 0.000000e+00 0.000000e+00
      vertex   4.644944e+00 -3.897570e+00 9.520933e+00
      vertex   4.798669e+00 -4.026562e+00 9.378946e+00
    endloop
  endfacet
  facet normal 6.427876e-01 7.660444e-01 9.619503e-16
    outer loop
      vertex   4.798669e+00 -4.026562e+00 9.378946e+00
      vertex   4.949960e+00 -4.153510e+00 9.232459e+00
      vertex   0.000000e+00 0.000000e+00 0.000000e+00
    endloop
  endfacet
  facet normal 6.427876e-01 7.660444e-01 1.283199e-15
    outer loop
      vertex   0.000000e+00 0.000000e+00 0.000000e+00
      vertex   4.949960e+00 -4.153510e+00 9.232459e+00
      vertex   5.098764e+00 -4.278371e+00 9.081534e+00
    endloop
  endfacet
  facet normal 6.427876e-01 7.660444e-01 2.567292e-15
    outer loop
      vertex   0.000000e+00 0.000000e+00 0.000000e+00
      vertex   5.098764e+00 -4.278371e+00 9.081534e+00
      vertex   5.245029e+00 -4.401102e+00 8.926231e+00
    endloop
  endfacet
  facet normal 6.427876e-01 7.660444e-01 1.524682e-15
    outer loop
      vertex   5.245029e+00 -4.401102e+00 8.926231e+00
      vertex   5.388702e+00 -4.521658e+00 8.766611e+00
      vertex   0.000000e+00 0.000000e+00 0.000000e+00
    endloop
  endfacet
  facet normal 6.427876e-01 7.660444e-01 -8.988625e-15
    outer loop
      vertex   0.000000e+00 0.000000e+00 0.000000e+00
      vertex   5.388702e+00 -4.521658e+00 8.766611e+00
      vertex   5.529733e+00 -4.639997e+00 8.602737e+00
    endloop
  endfacet
  facet normal -5.710499e-01 6.511462e-01 4.999106e-01
    outer loop
      vertex   3.816109e+00 -4.164407e+00 9.783400e+00
      vertex   2.546075e+00 -2.778488e+00 6.527441e+00
      vertex   3.629799e+00 -4.325826e+00 9.780829e+00
    endloop
  endfacet
  facet normal -5.710486e-01 6.511473e-01 4.999107e-01
    outer loop
      vertex   3.629799e+00 -4.325826e+00 9.780829e+00
      vertex   2.546075e+00 -2.778488e+00 6.527441e+00
      vertex   1.273029e+00 -1.389252e+00 3.263720e+00
    endloop
  endfacet
  facet normal -5.710461e-01 6.511495e-01 4.999107e-01
    outer loop
      vertex   3.629799e+00 -4.325826e+00 9.780829e+00
      vertex   1.273029e+00 -1.389252e+00 3.263720e+00
      vertex   0.000000e+00 0.000000e+00 0.000000e+00
    endloop
  endfacet
  facet normal -5.989119e-01 6.256146e-01 4.999109e-01
    outer loop
      vertex   2.546075e+00 -2.778488e+00 6.527441e+00
      vertex   3.816109e+00 -4.164407e+00 9.783400e+00
      vertex   2.664858e+00 -2.664775e+00 6.527441e+00
    endloop
  endfacet
  facet normal -5.989162e-01 6.256107e-01 4.999106e-01
    outer loop
      vertex   2.664858e+00 -2.664775e+00 6.527441e+00
      vertex   3.816109e+00 -4.164407e+00 9.783400e+00
      vertex   3.995207e+00 -3.995022e+00 9.785992e+00
    endloop
  endfacet
  facet normal -6.256308e-01 5.988950e-01 4.999110e-01
    outer loop
      vertex   2.664858e+00 -2.664775e+00 6.527441e+00
      vertex   3.995207e+00 -3.995022e+00 9.785992e+00
      vertex   2.778547e+00 -2.546010e+00 6.527441e+00
    endloop
  endfacet
  facet normal -6.256349e-01 5.988909e-01 4.999107e-01
    outer loop
      vertex   2.778547e+00 -2.546010e+00 6.527441e+00
      vertex   3.995207e+00 -3.995022e+00 9.785992e+00
      vertex   4.166747e+00 -3.817987e+00 9.788586e+00
    endloop
  endfacet
  facet normal -6.511560e-01 5.710385e-01 4.999109e-01
    outer loop
      vertex   2.778547e+00 -2.546010e+00 6.527441e+00
      vertex   4.166747e+00 -3.817987e+00 9.788586e+00
      vertex   4.330395e+00 -3.633633e+00 9.791161e+00
    endloop
  endfacet
  facet normal -6.511549e-01 5.710398e-01 4.999108e-01
    outer loop
      vertex   2.778547e+00 -2.546010e+00 6.527441e+00
      vertex   4.330395e+00 -3.633633e+00 9.791161e+00
      vertex   1.389266e+00 -1.273013e+00 3.263720e+00
    endloop
  endfacet
  facet normal -6.511528e-01 5.710423e-01 4.999108e-01
    outer loop
      vertex   1.389266e+00 -1.273013e+00 3.263720e+00
      vertex   4.330395e+00 -3.633633e+00 9.791161e+00
      vertex   0.000000e+00 0.000000e+00 0.000000e+00
    endloop
  endfacet
  facet normal -6.256268e-01 5.988993e-01 4.999108e-01
    outer loop
      vertex   1.389266e+00 -1.273013e+00 3.263720e+00
      vertex   0.000000e+00 0.000000e+00 0.000000e+00
      vertex   1.332419e+00 -1.332398e+00 3.263720e+00
    endloop
  endfacet
  facet normal -5.989077e-01 6.256187e-01 4.999107e-01
    outer loop
      vertex   1.332419e+00 -1.332398e+00 3.263720e+00
      vertex   0.000000e+00 0.000000e+00 0.000000e+00
      vertex   1.273029e+00 -1.389252e+00 3.263720e+00
    endloop
  endfacet
  facet normal -5.989077e-01 6.256187e-01 4.999108e-01
    outer loop
      vertex   1.332419e+00 -1.332398e+00 3.263720e+00
      vertex   1.273029e+00 -1.389252e+00 3.263720e+00
      vertex   2.546075e+00 -2.778488e+00 6.527441e+00
    endloop
  endfacet
  facet normal -5.989120e-01 6.256147e-01 4.999107e-01
    outer loop
      vertex   1.332419e+00 -1.332398e+00 3.263720e+00
      vertex   2.546075e+00 -2.778488e+00 6.527441e+00
      vertex   2.664858e+00 -2.664775e+00 6.527441e+00
    endloop
  endfacet
  facet normal -6.256267e-01 5.988992e-01 4.999109e-01
    outer loop
      vertex   1.389266e+00 -1.273013e+00 3.263720e+00
      vertex   1.332419e+00 -1.332398e+00 3.263720e+00
      vertex   2.664858e+00 -2.664775e+00 6.527441e+00
    endloop
  endfacet
  facet normal -6.256309e-01 5.988951e-01 4.999107e-01
    outer loop
      vertex   1.389266e+00 -1.273013e+00 3.263720e+00
      vertex   2.664858e+00 -2.664775e+00 6.527441e+00
      vertex   2.778547e+00 -2.546010e+00 6.527441e+00
    endloop
  endfacet
  facet normal 5.760029e-01 -5.051337e-01 -6.426979e-01
    outer loop
      vertex   0.000000e+00 0.000000e+00 0.000000e+00
      vertex   5.529733e+00 -4.639997e+00 8.602737e+00
      vertex   2.661072e+00 -2.438354e+00 4.301369e+00
    endloop
  endfacet
  facet normal 5.760064e-01 -5.051295e-01 -6.426981e-01
    outer loop
      vertex   2.661072e+00 -2.438354e+00 4.301369e+00
      vertex   5.529733e+00 -4.639997e+00 8.602737e+00
      vertex   5.319933e+00 -4.874543e+00 8.599050e+00
    endloop
  endfacet
  facet normal 5.534348e-01 -5.297636e-01 -6.426978e-01
    outer loop
      vertex   2.661072e+00 -2.438354e+00 4.301369e+00
      vertex   5.319933e+00 -4.874543e+00 8.599050e+00
      vertex   5.100090e+00 -5.099705e+00 8.595337e+00
    endloop
  endfacet
  facet normal 5.534259e-01 -5.297725e-01 -6.426982e-01
    outer loop
      vertex   2.661072e+00 -2.438354e+00 4.301369e+00
      vertex   5.100090e+00 -5.099705e+00 8.595337e+00
      vertex   2.552192e+00 -2.552096e+00 4.301369e+00
    endloop
  endfacet
  facet normal 5.298002e-01 -5.533999e-01 -6.426976e-01
    outer loop
      vertex   2.552192e+00 -2.552096e+00 4.301369e+00
      vertex   5.100090e+00 -5.099705e+00 8.595337e+00
      vertex   4.870637e+00 -5.315065e+00 8.591628e+00
    endloop
  endfacet
  facet normal 5.297909e-01 -5.534084e-01 -6.426980e-01
    outer loop
      vertex   2.552192e+00 -2.552096e+00 4.301369e+00
      vertex   4.870637e+00 -5.315065e+00 8.591628e+00
      vertex   2.438430e+00 -2.661003e+00 4.301369e+00
    endloop
  endfacet
  facet normal 5.051461e-01 -5.759923e-01 -6.426976e-01
    outer loop
      vertex   2.438430e+00 -2.661003e+00 4.301369e+00
      vertex   4.870637e+00 -5.315065e+00 8.591628e+00
      vertex   4.632021e+00 -5.520228e+00 8.587950e+00
    endloop
  endfacet
  facet normal 5.051420e-01 -5.759958e-01 -6.426978e-01
    outer loop
      vertex   2.438430e+00 -2.661003e+00 4.301369e+00
      vertex   4.632021e+00 -5.520228e+00 8.587950e+00
      vertex   0.000000e+00 0.000000e+00 0.000000e+00
    endloop
  endfacet
  facet normal 5.297910e-01 -5.534086e-01 -6.426978e-01
    outer loop
      vertex   2.438430e+00 -2.661003e+00 4.301369e+00
      vertex   0.000000e+00 0.000000e+00 0.000000e+00
      vertex   2.552192e+00 -2.552096e+00 4.301369e+00
    endloop
  endfacet
  facet normal 5.534261e-01 -5.297727e-01 -6.426979e-01
    outer loop
      vertex   2.552192e+00 -2.552096e+00 4.301369e+00
      vertex   0.000000e+00 0.000000e+00 0.000000e+00
      vertex   2.661072e+00 -2.438354e+00 4.301369e+00
    endloop
  endfacet
endsolid
