solid ASCII
  facet normal -9.396926e-01 -3.420201e-01 -2.153175e-16
    outer loop
      vertex   -6.774409e-01 1.861253e+00 -1.123313e+01
      vertex   -5.937930e-01 1.631433e+00 -1.127788e+01
      vertex   0.000000e+00 0.000000e+00 8.881784e-15
    endloop
  endfacet
  facet normal -9.396926e-01 -3.420201e-01 -7.825182e-17
    outer loop
      vertex   0.000000e+00 0.000000e+00 8.881784e-15
      vertex   -5.937930e-01 1.631433e+00 -1.127788e+01
      vertex   -5.097857e-01 1.400625e+00 -1.131675e+01
    endloop
  endfacet
  facet normal -9.396926e-01 -3.420201e-01 7.819605e-17
    outer loop
      vertex   0.000000e+00 0.000000e+00 8.881784e-15
      vertex   -5.097857e-01 1.400625e+00 -1.131675e+01
      vertex   -4.254513e-01 1.168918e+00 -1.134971e+01
    endloop
  endfacet
  facet normal -9.396926e-01 -3.420201e-01 1.074285e-16
    outer loop
      vertex   -4.254513e-01 1.168918e+00 -1.134971e+01
      vertex   -3.408218e-01 9.364003e-01 -1.137674e+01
      vertex   0.000000e+00 0.000000e+00 8.881784e-15
    endloop
  endfacet
  facet normal -9.396926e-01 -3.420201e-01 1.073228e-16
    outer loop
      vertex   0.000000e+00 0.000000e+00 8.881784e-15
      vertex   -3.408218e-01 9.364003e-01 -1.137674e+01
      vertex   -2.559298e-01 7.031612e-01 -1.139782e+01
    endloop
  endfacet
  facet normal -9.396926e-01 -3.420201e-01 7.309243e-17
    outer loop
      vertex   0.000000e+00 0.000000e+00 8.881784e-15
      vertex   -2.559298e-01 7.031612e-01 -1.139782e+01
      vertex   -1.708072e-01 4.692890e-01 -1.141290e+01
    endloop
  endfacet
  facet normal -9.396926e-01 -3.420201e-01 3.406662e-17
    outer loop
      vertex   -1.708072e-01 4.692890e-01 -1.141290e+01
      vertex   -8.548652e-02 2.348723e-01 -1.142197e+01
      vertex   0.000000e+00 0.000000e+00 8.881784e-15
    endloop
  endfacet
  facet normal -9.396926e-01 -3.420201e-01 5.577688e-17
    outer loop
      vertex   0.000000e+00 0.000000e+00 8.881784e-15
      vertex   -8.548652e-02 2.348723e-01 -1.142197e+01
      vertex   -6.781482e-16 -8.117450e-32 -1.142500e+01
    endloop
  endfacet
  facet normal -5.540269e-02 1.713576e-01 -9.836499e-01
    outer loop
      vertex   -6.774409e-01 1.861253e+00 -1.123313e+01
      vertex   -5.955999e-01 1.888993e+00 -1.123291e+01
      vertex   -5.937930e-01 1.631433e+00 -1.127788e+01
    endloop
  endfacet
  facet normal -5.443053e-02 1.713734e-01 -9.837014e-01
    outer loop
      vertex   -5.937930e-01 1.631433e+00 -1.127788e+01
      vertex   -5.955999e-01 1.888993e+00 -1.123291e+01
      vertex   -5.118521e-01 1.653079e+00 -1.127864e+01
    endloop
  endfacet
  facet normal -4.847508e-02 1.486882e-01 -9.876953e-01
    outer loop
      vertex   -5.937930e-01 1.631433e+00 -1.127788e+01
      vertex   -5.118521e-01 1.653079e+00 -1.127864e+01
      vertex   -5.097857e-01 1.400625e+00 -1.131675e+01
    endloop
  endfacet
  facet normal -4.596992e-02 1.487259e-01 -9.878094e-01
    outer loop
      vertex   -5.097857e-01 1.400625e+00 -1.131675e+01
      vertex   -5.118521e-01 1.653079e+00 -1.127864e+01
      vertex   -4.374186e-01 1.412688e+00 -1.131830e+01
    endloop
  endfacet
  facet normal -4.219551e-02 1.256502e-01 -9.911769e-01
    outer loop
      vertex   -5.097857e-01 1.400625e+00 -1.131675e+01
      vertex   -4.374186e-01 1.412688e+00 -1.131830e+01
      vertex   -4.254513e-01 1.168918e+00 -1.134971e+01
    endloop
  endfacet
  facet normal -3.749231e-02 1.259014e-01 -9.913340e-01
    outer loop
      vertex   -4.254513e-01 1.168918e+00 -1.134971e+01
      vertex   -4.374186e-01 1.412688e+00 -1.131830e+01
      vertex   -3.633294e-01 1.173410e+00 -1.135149e+01
    endloop
  endfacet
  facet normal -3.587944e-02 1.025062e-01 -9.940851e-01
    outer loop
      vertex   -4.254513e-01 1.168918e+00 -1.134971e+01
      vertex   -3.633294e-01 1.173410e+00 -1.135149e+01
      vertex   -3.408218e-01 9.364003e-01 -1.137674e+01
    endloop
  endfacet
  facet normal -2.904415e-02 1.031717e-01 -9.942394e-01
    outer loop
      vertex   -3.408218e-01 9.364003e-01 -1.137674e+01
      vertex   -3.633294e-01 1.173410e+00 -1.135149e+01
      vertex   -2.896430e-01 9.354318e-01 -1.137834e+01
    endloop
  endfacet
  facet normal -2.956457e-02 7.925680e-02 -9.964157e-01
    outer loop
      vertex   -3.408218e-01 9.364003e-01 -1.137674e+01
      vertex   -2.896430e-01 9.354318e-01 -1.137834e+01
      vertex   -2.559298e-01 7.031612e-01 -1.139782e+01
    endloop
  endfacet
  facet normal -2.060678e-02 8.056709e-02 -9.965362e-01
    outer loop
      vertex   -2.559298e-01 7.031612e-01 -1.139782e+01
      vertex   -2.896430e-01 9.354318e-01 -1.137834e+01
      vertex   -2.164151e-01 6.989347e-01 -1.139897e+01
    endloop
  endfacet
  facet normal -2.329271e-02 5.590194e-02 -9.981645e-01
    outer loop
      vertex   -2.559298e-01 7.031612e-01 -1.139782e+01
      vertex   -2.164151e-01 6.989347e-01 -1.139897e+01
      vertex   -1.708072e-01 4.692890e-01 -1.141290e+01
    endloop
  endfacet
  facet normal -1.215987e-02 5.811725e-02 -9.982357e-01
    outer loop
      vertex   -1.708072e-01 4.692890e-01 -1.141290e+01
      vertex   -2.164151e-01 6.989347e-01 -1.139897e+01
      vertex   -1.436988e-01 4.640899e-01 -1.141353e+01
    endloop
  endfacet
  facet normal -1.710985e-02 3.244031e-02 -9.993272e-01
    outer loop
      vertex   -1.708072e-01 4.692890e-01 -1.141290e+01
      vertex   -1.436988e-01 4.640899e-01 -1.141353e+01
      vertex   -8.548652e-02 2.348723e-01 -1.142197e+01
    endloop
  endfacet
  facet normal -3.681557e-03 3.585142e-02 -9.993503e-01
    outer loop
      vertex   -8.548652e-02 2.348723e-01 -1.142197e+01
      vertex   -1.436988e-01 4.640899e-01 -1.141353e+01
      vertex   -7.154451e-02 2.310603e-01 -1.142216e+01
    endloop
  endfacet
  facet normal -1.106621e-02 8.869610e-03 -9.998994e-01
    outer loop
      vertex   -8.548652e-02 2.348723e-01 -1.142197e+01
      vertex   -7.154451e-02 2.310603e-01 -1.142216e+01
      vertex   -6.781482e-16 -8.117450e-32 -1.142500e+01
    endloop
  endfacet
  facet normal -4.818620e-02 1.735783e-01 -9.836405e-01
    outer loop
      vertex   -5.955999e-01 1.888993e+00 -1.123291e+01
      vertex   -5.126286e-01 1.913141e+00 -1.123271e+01
      vertex   -5.118521e-01 1.653079e+00 -1.127864e+01
    endloop
  endfacet
  facet normal -4.699720e-02 1.735916e-01 -9.836957e-01
    outer loop
      vertex   -5.118521e-01 1.653079e+00 -1.127864e+01
      vertex   -5.126286e-01 1.913141e+00 -1.123271e+01
      vertex   -4.312438e-01 1.674902e+00 -1.127864e+01
    endloop
  endfacet
  facet normal -4.070581e-02 1.503533e-01 -9.877940e-01
    outer loop
      vertex   -5.118521e-01 1.653079e+00 -1.127864e+01
      vertex   -4.312438e-01 1.674902e+00 -1.127864e+01
      vertex   -3.685323e-01 1.431338e+00 -1.131830e+01
    endloop
  endfacet
  facet normal -3.283335e-02 1.523775e-01 -9.877768e-01
    outer loop
      vertex   -3.685323e-01 1.431338e+00 -1.131830e+01
      vertex   -4.312438e-01 1.674902e+00 -1.127864e+01
      vertex   -2.586314e-01 1.466772e+00 -1.131649e+01
    endloop
  endfacet
  facet normal -2.569609e-02 1.304121e-01 -9.911268e-01
    outer loop
      vertex   -3.685323e-01 1.431338e+00 -1.131830e+01
      vertex   -2.586314e-01 1.466772e+00 -1.131649e+01
      vertex   -2.157708e-01 1.223697e+00 -1.134958e+01
    endloop
  endfacet
  facet normal -4.093541e-02 1.756443e-01 -9.836022e-01
    outer loop
      vertex   -5.126286e-01 1.913141e+00 -1.123271e+01
      vertex   -4.286827e-01 1.933652e+00 -1.123255e+01
      vertex   -4.312438e-01 1.674902e+00 -1.127864e+01
    endloop
  endfacet
  facet normal -3.695701e-02 1.756334e-01 -9.837617e-01
    outer loop
      vertex   -4.312438e-01 1.674902e+00 -1.127864e+01
      vertex   -4.286827e-01 1.933652e+00 -1.123255e+01
      vertex   -3.013546e-01 1.709067e+00 -1.127742e+01
    endloop
  endfacet
  facet normal -3.116110e-02 1.537359e-01 -9.876205e-01
    outer loop
      vertex   -4.312438e-01 1.674902e+00 -1.127864e+01
      vertex   -3.013546e-01 1.709067e+00 -1.127742e+01
      vertex   -2.586314e-01 1.466772e+00 -1.131649e+01
    endloop
  endfacet
  facet normal -3.362471e-02 1.774802e-01 -9.835498e-01
    outer loop
      vertex   -4.286827e-01 1.933652e+00 -1.123255e+01
      vertex   -3.439234e-01 1.950487e+00 -1.123241e+01
      vertex   -3.013546e-01 1.709067e+00 -1.127742e+01
    endloop
  endfacet
  facet normal -2.849914e-02 1.283783e-01 -9.913157e-01
    outer loop
      vertex   -3.685323e-01 1.431338e+00 -1.131830e+01
      vertex   -2.157708e-01 1.223697e+00 -1.134958e+01
      vertex   -3.061110e-01 1.188901e+00 -1.135149e+01
    endloop
  endfacet
  facet normal -2.020521e-02 1.069956e-01 -9.940542e-01
    outer loop
      vertex   -3.061110e-01 1.188901e+00 -1.135149e+01
      vertex   -2.157708e-01 1.223697e+00 -1.134958e+01
      vertex   -1.727898e-01 9.799395e-01 -1.137669e+01
    endloop
  endfacet
  facet normal -2.419110e-02 1.044741e-01 -9.942333e-01
    outer loop
      vertex   -3.061110e-01 1.188901e+00 -1.135149e+01
      vertex   -1.727898e-01 9.799395e-01 -1.137669e+01
      vertex   -2.440290e-01 9.477811e-01 -1.137834e+01
    endloop
  endfacet
  facet normal -1.467425e-02 8.350264e-02 -9.963995e-01
    outer loop
      vertex   -2.440290e-01 9.477811e-01 -1.137834e+01
      vertex   -1.727898e-01 9.799395e-01 -1.137669e+01
      vertex   -1.297052e-01 7.355947e-01 -1.139781e+01
    endloop
  endfacet
  facet normal -1.993045e-02 8.068358e-02 -9.965405e-01
    outer loop
      vertex   -2.440290e-01 9.477811e-01 -1.137834e+01
      vertex   -1.297052e-01 7.355947e-01 -1.139781e+01
      vertex   -1.823333e-01 7.081619e-01 -1.139897e+01
    endloop
  endfacet
  facet normal -9.087008e-03 5.995011e-02 -9.981600e-01
    outer loop
      vertex   -1.823333e-01 7.081619e-01 -1.139897e+01
      vertex   -1.297052e-01 7.355947e-01 -1.139781e+01
      vertex   -8.653406e-02 4.907590e-01 -1.141290e+01
    endloop
  endfacet
  facet normal -1.573948e-02 5.702436e-02 -9.982487e-01
    outer loop
      vertex   -1.823333e-01 7.081619e-01 -1.139897e+01
      vertex   -8.653406e-02 4.907590e-01 -1.141290e+01
      vertex   -1.210686e-01 4.702167e-01 -1.141353e+01
    endloop
  endfacet
  facet normal -3.425123e-03 3.635539e-02 -9.993331e-01
    outer loop
      vertex   -1.210686e-01 4.702167e-01 -1.141353e+01
      vertex   -8.653406e-02 4.907590e-01 -1.141290e+01
      vertex   -4.329333e-02 2.455287e-01 -1.142197e+01
    endloop
  endfacet
  facet normal -1.164140e-02 3.351275e-02 -9.993705e-01
    outer loop
      vertex   -1.210686e-01 4.702167e-01 -1.141353e+01
      vertex   -4.329333e-02 2.455287e-01 -1.142197e+01
      vertex   -6.027742e-02 2.341107e-01 -1.142216e+01
    endloop
  endfacet
  facet normal 2.331915e-03 1.273650e-02 -9.999162e-01
    outer loop
      vertex   -6.027742e-02 2.341107e-01 -1.142216e+01
      vertex   -4.329333e-02 2.455287e-01 -1.142197e+01
      vertex   -6.781482e-16 -8.117450e-32 -1.142500e+01
    endloop
  endfacet
  facet normal -3.071594e-03 1.134542e-02 -9.999309e-01
    outer loop
      vertex   -6.027742e-02 2.341107e-01 -1.142216e+01
      vertex   -6.781482e-16 -8.117450e-32 -1.142500e+01
      vertex   -7.154451e-02 2.310603e-01 -1.142216e+01
    endloop
  endfacet
  facet normal -4.070581e-02 1.503533e-01 -9.877940e-01
    outer loop
      vertex   -5.118521e-01 1.653079e+00 -1.127864e+01
      vertex   -3.685323e-01 1.431338e+00 -1.131830e+01
      vertex   -4.374186e-01 1.412688e+00 -1.131830e+01
    endloop
  endfacet
  facet normal -3.434896e-02 1.268733e-01 -9.913240e-01
    outer loop
      vertex   -4.374186e-01 1.412688e+00 -1.131830e+01
      vertex   -3.685323e-01 1.431338e+00 -1.131830e+01
      vertex   -3.061110e-01 1.188901e+00 -1.135149e+01
    endloop
  endfacet
  facet normal -3.434896e-02 1.268733e-01 -9.913240e-01
    outer loop
      vertex   -4.374186e-01 1.412688e+00 -1.131830e+01
      vertex   -3.061110e-01 1.188901e+00 -1.135149e+01
      vertex   -3.633294e-01 1.173410e+00 -1.135149e+01
    endloop
  endfacet
  facet normal -2.801804e-02 1.034890e-01 -9.942359e-01
    outer loop
      vertex   -3.633294e-01 1.173410e+00 -1.135149e+01
      vertex   -3.061110e-01 1.188901e+00 -1.135149e+01
      vertex   -2.440290e-01 9.477811e-01 -1.137834e+01
    endloop
  endfacet
  facet normal -2.801804e-02 1.034890e-01 -9.942359e-01
    outer loop
      vertex   -3.633294e-01 1.173410e+00 -1.135149e+01
      vertex   -2.440290e-01 9.477811e-01 -1.137834e+01
      vertex   -2.896430e-01 9.354318e-01 -1.137834e+01
    endloop
  endfacet
  facet normal -2.171913e-02 8.022303e-02 -9.965403e-01
    outer loop
      vertex   -2.896430e-01 9.354318e-01 -1.137834e+01
      vertex   -2.440290e-01 9.477811e-01 -1.137834e+01
      vertex   -1.823333e-01 7.081619e-01 -1.139897e+01
    endloop
  endfacet
  facet normal -2.171913e-02 8.022303e-02 -9.965403e-01
    outer loop
      vertex   -2.896430e-01 9.354318e-01 -1.137834e+01
      vertex   -1.823333e-01 7.081619e-01 -1.139897e+01
      vertex   -2.164151e-01 6.989347e-01 -1.139897e+01
    endloop
  endfacet
  facet normal -1.545807e-02 5.709683e-02 -9.982490e-01
    outer loop
      vertex   -2.164151e-01 6.989347e-01 -1.139897e+01
      vertex   -1.823333e-01 7.081619e-01 -1.139897e+01
      vertex   -1.210686e-01 4.702167e-01 -1.141353e+01
    endloop
  endfacet
  facet normal -1.545807e-02 5.709683e-02 -9.982490e-01
    outer loop
      vertex   -2.164151e-01 6.989347e-01 -1.139897e+01
      vertex   -1.210686e-01 4.702167e-01 -1.141353e+01
      vertex   -1.436988e-01 4.640899e-01 -1.141353e+01
    endloop
  endfacet
  facet normal -9.240457e-03 3.413109e-02 -9.993746e-01
    outer loop
      vertex   -1.436988e-01 4.640899e-01 -1.141353e+01
      vertex   -1.210686e-01 4.702167e-01 -1.141353e+01
      vertex   -6.027742e-02 2.341107e-01 -1.142216e+01
    endloop
  endfacet
  facet normal -9.240457e-03 3.413109e-02 -9.993746e-01
    outer loop
      vertex   -1.436988e-01 4.640899e-01 -1.141353e+01
      vertex   -6.027742e-02 2.341107e-01 -1.142216e+01
      vertex   -7.154451e-02 2.310603e-01 -1.142216e+01
    endloop
  endfacet
  facet normal 9.848078e-01 1.736482e-01 -1.659835e-16
    outer loop
      vertex   -3.439234e-01 1.950487e+00 -1.123241e+01
      vertex   0.000000e+00 0.000000e+00 8.881784e-15
      vertex   -3.013546e-01 1.709067e+00 -1.127742e+01
    endloop
  endfacet
  facet normal 9.848078e-01 1.736482e-01 -1.025304e-16
    outer loop
      vertex   -3.013546e-01 1.709067e+00 -1.127742e+01
      vertex   0.000000e+00 0.000000e+00 8.881784e-15
      vertex   -2.586314e-01 1.466772e+00 -1.131649e+01
    endloop
  endfacet
  facet normal 9.848078e-01 1.736482e-01 5.370516e-17
    outer loop
      vertex   -2.586314e-01 1.466772e+00 -1.131649e+01
      vertex   0.000000e+00 0.000000e+00 8.881784e-15
      vertex   -2.157708e-01 1.223697e+00 -1.134958e+01
    endloop
  endfacet
  facet normal 9.848078e-01 1.736482e-01 9.518994e-17
    outer loop
      vertex   -2.157708e-01 1.223697e+00 -1.134958e+01
      vertex   0.000000e+00 0.000000e+00 8.881784e-15
      vertex   -1.727898e-01 9.799395e-01 -1.137669e+01
    endloop
  endfacet
  facet normal 9.848078e-01 1.736482e-01 1.195635e-16
    outer loop
      vertex   -1.727898e-01 9.799395e-01 -1.137669e+01
      vertex   0.000000e+00 0.000000e+00 8.881784e-15
      vertex   -1.297052e-01 7.355947e-01 -1.139781e+01
    endloop
  endfacet
  facet normal 9.848078e-01 1.736482e-01 6.829342e-17
    outer loop
      vertex   -1.297052e-01 7.355947e-01 -1.139781e+01
      vertex   0.000000e+00 0.000000e+00 8.881784e-15
      vertex   -8.653406e-02 4.907590e-01 -1.141290e+01
    endloop
  endfacet
  facet normal 9.848078e-01 1.736482e-01 3.534673e-17
    outer loop
      vertex   -8.653406e-02 4.907590e-01 -1.141290e+01
      vertex   0.000000e+00 0.000000e+00 8.881784e-15
      vertex   -4.329333e-02 2.455287e-01 -1.142197e+01
    endloop
  endfacet
  facet normal 9.848078e-01 1.736482e-01 -5.907381e-17
    outer loop
      vertex   -4.329333e-02 2.455287e-01 -1.142197e+01
      vertex   0.000000e+00 0.000000e+00 8.881784e-15
      vertex   -6.781482e-16 -8.117450e-32 -1.142500e+01
    endloop
  endfacet
  facet normal -1.921074e-01 9.657805e-01 1.742491e-01
    outer loop
      vertex   -4.286827e-01 1.933652e+00 -1.123255e+01
      vertex   -3.417643e-01 1.275475e+00 -7.488756e+00
      vertex   -3.439234e-01 1.950487e+00 -1.123241e+01
    endloop
  endfacet
  facet normal -2.131582e-01 9.614913e-01 1.734879e-01
    outer loop
      vertex   -3.439234e-01 1.950487e+00 -1.123241e+01
      vertex   -3.417643e-01 1.275475e+00 -7.488756e+00
      vertex   -1.708818e-01 6.377378e-01 -3.744378e+00
    endloop
  endfacet
  facet normal -2.131578e-01 9.614914e-01 1.734879e-01
    outer loop
      vertex   -3.439234e-01 1.950487e+00 -1.123241e+01
      vertex   -1.708818e-01 6.377378e-01 -3.744378e+00
      vertex   0.000000e+00 0.000000e+00 8.881784e-15
    endloop
  endfacet
  facet normal -2.340781e-01 9.565917e-01 1.736081e-01
    outer loop
      vertex   -4.286827e-01 1.933652e+00 -1.123255e+01
      vertex   -5.126286e-01 1.913141e+00 -1.123271e+01
      vertex   -3.417643e-01 1.275475e+00 -7.488756e+00
    endloop
  endfacet
  facet normal -2.755813e-01 9.454709e-01 1.736081e-01
    outer loop
      vertex   -3.417643e-01 1.275475e+00 -7.488756e+00
      vertex   -5.126286e-01 1.913141e+00 -1.123271e+01
      vertex   -5.955999e-01 1.888993e+00 -1.123291e+01
    endloop
  endfacet
  facet normal -3.165242e-01 9.324429e-01 1.742491e-01
    outer loop
      vertex   -3.417643e-01 1.275475e+00 -7.488756e+00
      vertex   -5.955999e-01 1.888993e+00 -1.123291e+01
      vertex   -6.774409e-01 1.861253e+00 -1.123313e+01
    endloop
  endfacet
  facet normal -2.961466e-01 9.392546e-01 1.734879e-01
    outer loop
      vertex   -3.417643e-01 1.275475e+00 -7.488756e+00
      vertex   -6.774409e-01 1.861253e+00 -1.123313e+01
      vertex   -1.708818e-01 6.377378e-01 -3.744378e+00
    endloop
  endfacet
  facet normal -2.961462e-01 9.392547e-01 1.734879e-01
    outer loop
      vertex   -1.708818e-01 6.377378e-01 -3.744378e+00
      vertex   -6.774409e-01 1.861253e+00 -1.123313e+01
      vertex   0.000000e+00 0.000000e+00 8.881784e-15
    endloop
  endfacet
endsolid
