solid ASCII
  facet normal -6.427876e-01 7.660444e-01 8.347692e-15
    outer loop
      vertex   7.932776e+00 6.656389e+00 -3.769095e+00
      vertex   0.000000e+00 0.000000e+00 0.000000e+00
      vertex   7.989550e+00 6.704028e+00 -3.540491e+00
    endloop
  endfacet
  facet normal -6.427876e-01 7.660444e-01 -2.372499e-15
    outer loop
      vertex   7.989550e+00 6.704028e+00 -3.540491e+00
      vertex   0.000000e+00 0.000000e+00 0.000000e+00
      vertex   8.042708e+00 6.748633e+00 -3.310543e+00
    endloop
  endfacet
  facet normal -6.427876e-01 7.660444e-01 -2.290588e-15
    outer loop
      vertex   8.042708e+00 6.748633e+00 -3.310543e+00
      vertex   0.000000e+00 0.000000e+00 0.000000e+00
      vertex   8.092243e+00 6.790198e+00 -3.079333e+00
    endloop
  endfacet
  facet normal -6.427876e-01 7.660444e-01 -3.512203e-15
    outer loop
      vertex   8.092243e+00 6.790198e+00 -3.079333e+00
      vertex   0.000000e+00 0.000000e+00 0.000000e+00
      vertex   8.138148e+00 6.828717e+00 -2.846938e+00
    endloop
  endfacet
  facet normal -6.427876e-01 7.660444e-01 4.651024e-15
    outer loop
      vertex   8.138148e+00 6.828717e+00 -2.846938e+00
      vertex   0.000000e+00 0.000000e+00 0.000000e+00
      vertex   8.180415e+00 6.864183e+00 -2.613438e+00
    endloop
  endfacet
  facet normal -6.427876e-01 7.660444e-01 4.590469e-15
    outer loop
      vertex   8.180415e+00 6.864183e+00 -2.613438e+00
      vertex   0.000000e+00 0.000000e+00 0.000000e+00
      vertex   8.219038e+00 6.896592e+00 -2.378912e+00
    endloop
  endfacet
  facet normal -6.427876e-01 7.660444e-01 -8.194948e-15
    outer loop
      vertex   8.219038e+00 6.896592e+00 -2.378912e+00
      vertex   0.000000e+00 0.000000e+00 0.000000e+00
      vertex   8.254009e+00 6.925936e+00 -2.143441e+00
    endloop
  endfacet
  facet normal -6.427876e-01 7.660444e-01 6.441236e-14
    outer loop
      vertex   8.254009e+00 6.925936e+00 -2.143441e+00
      vertex   0.000000e+00 0.000000e+00 0.000000e+00
      vertex   8.285320e+00 6.952209e+00 -1.907103e+00
    endloop
  endfacet
  facet normal 8.081056e-01 5.006372e-01 -3.103669e-01
    outer loop
      vertex   8.998168e+00 5.195095e+00 -3.781720e+00
      vertex   8.879370e+00 5.387774e+00 -3.780235e+00
      vertex   9.062973e+00 5.232510e+00 -3.552634e+00
    endloop
  endfacet
  facet normal 8.060363e-01 5.080383e-01 -3.036488e-01
    outer loop
      vertex   9.062973e+00 5.232510e+00 -3.552634e+00
      vertex   8.879370e+00 5.387774e+00 -3.780235e+00
      vertex   9.041830e+00 5.351154e+00 -3.410254e+00
    endloop
  endfacet
  facet normal 8.187855e-01 4.949646e-01 -2.908614e-01
    outer loop
      vertex   9.062973e+00 5.232510e+00 -3.552634e+00
      vertex   9.041830e+00 5.351154e+00 -3.410254e+00
      vertex   9.123668e+00 5.267552e+00 -3.322141e+00
    endloop
  endfacet
  facet normal 8.153317e-01 5.107820e-01 -2.726461e-01
    outer loop
      vertex   9.123668e+00 5.267552e+00 -3.322141e+00
      vertex   9.041830e+00 5.351154e+00 -3.410254e+00
      vertex   9.132657e+00 5.404907e+00 -3.037938e+00
    endloop
  endfacet
  facet normal 8.179285e-01 5.074363e-01 -2.711113e-01
    outer loop
      vertex   9.123668e+00 5.267552e+00 -3.322141e+00
      vertex   9.132657e+00 5.404907e+00 -3.037938e+00
      vertex   9.180244e+00 5.300216e+00 -3.090318e+00
    endloop
  endfacet
  facet normal 8.275447e-01 5.019546e-01 -2.514187e-01
    outer loop
      vertex   9.180244e+00 5.300216e+00 -3.090318e+00
      vertex   9.132657e+00 5.404907e+00 -3.037938e+00
      vertex   9.232688e+00 5.330495e+00 -2.857247e+00
    endloop
  endfacet
  facet normal 8.232195e-01 5.122381e-01 -2.447893e-01
    outer loop
      vertex   9.232688e+00 5.330495e+00 -2.857247e+00
      vertex   9.132657e+00 5.404907e+00 -3.037938e+00
      vertex   9.194228e+00 5.441346e+00 -2.754625e+00
    endloop
  endfacet
  facet normal 8.325330e-01 5.032462e-01 -2.315859e-01
    outer loop
      vertex   9.232688e+00 5.330495e+00 -2.857247e+00
      vertex   9.194228e+00 5.441346e+00 -2.754625e+00
      vertex   9.280990e+00 5.358382e+00 -2.623008e+00
    endloop
  endfacet
  facet normal 8.279084e-01 5.155916e-01 -2.207555e-01
    outer loop
      vertex   9.280990e+00 5.358382e+00 -2.623008e+00
      vertex   9.194228e+00 5.441346e+00 -2.754625e+00
      vertex   9.249386e+00 5.473990e+00 -2.471523e+00
    endloop
  endfacet
  facet normal 8.361887e-01 5.059492e-01 -2.116692e-01
    outer loop
      vertex   9.280990e+00 5.358382e+00 -2.623008e+00
      vertex   9.249386e+00 5.473990e+00 -2.471523e+00
      vertex   9.325137e+00 5.383871e+00 -2.387679e+00
    endloop
  endfacet
  facet normal 8.329919e-01 5.171058e-01 -1.967893e-01
    outer loop
      vertex   9.325137e+00 5.383871e+00 -2.387679e+00
      vertex   9.249386e+00 5.473990e+00 -2.471523e+00
      vertex   9.298210e+00 5.502885e+00 -2.188922e+00
    endloop
  endfacet
  facet normal 8.386404e-01 5.098455e-01 -1.916766e-01
    outer loop
      vertex   9.325137e+00 5.383871e+00 -2.387679e+00
      vertex   9.298210e+00 5.502885e+00 -2.188922e+00
      vertex   9.365120e+00 5.406955e+00 -2.151341e+00
    endloop
  endfacet
  facet normal 8.375487e-01 5.252542e-01 -1.504001e-01
    outer loop
      vertex   9.365120e+00 5.406955e+00 -2.151341e+00
      vertex   9.298210e+00 5.502885e+00 -2.188922e+00
      vertex   9.236181e+00 5.601795e+00 -2.188922e+00
    endloop
  endfacet
  facet normal 8.363806e-01 5.201069e-01 -1.730786e-01
    outer loop
      vertex   9.365120e+00 5.406955e+00 -2.151341e+00
      vertex   9.236181e+00 5.601795e+00 -2.188922e+00
      vertex   9.276494e+00 5.628703e+00 -1.913255e+00
    endloop
  endfacet
  facet normal 8.285652e-01 5.324492e-01 -1.731404e-01
    outer loop
      vertex   9.276494e+00 5.628703e+00 -1.913255e+00
      vertex   9.236181e+00 5.601795e+00 -2.188922e+00
      vertex   9.172969e+00 5.700161e+00 -2.188922e+00
    endloop
  endfacet
  facet normal 8.257943e-01 5.374880e-01 -1.707936e-01
    outer loop
      vertex   9.276494e+00 5.628703e+00 -1.913255e+00
      vertex   9.172969e+00 5.700161e+00 -2.188922e+00
      vertex   9.147641e+00 5.826938e+00 -1.912417e+00
    endloop
  endfacet
  facet normal 8.226610e-01 5.415848e-01 -1.729590e-01
    outer loop
      vertex   9.147641e+00 5.826938e+00 -1.912417e+00
      vertex   9.172969e+00 5.700161e+00 -2.188922e+00
      vertex   9.108583e+00 5.797963e+00 -2.188922e+00
    endloop
  endfacet
  facet normal 8.135467e-01 5.551404e-01 -1.730921e-01
    outer loop
      vertex   9.147641e+00 5.826938e+00 -1.912417e+00
      vertex   9.108583e+00 5.797963e+00 -2.188922e+00
      vertex   8.976318e+00 5.991794e+00 -2.188922e+00
    endloop
  endfacet
  facet normal 8.098927e-01 5.526470e-01 -1.966090e-01
    outer loop
      vertex   8.976318e+00 5.991794e+00 -2.188922e+00
      vertex   9.108583e+00 5.797963e+00 -2.188922e+00
      vertex   9.060754e+00 5.767518e+00 -2.471523e+00
    endloop
  endfacet
  facet normal 8.098927e-01 5.526470e-01 -1.966090e-01
    outer loop
      vertex   8.976318e+00 5.991794e+00 -2.188922e+00
      vertex   9.060754e+00 5.767518e+00 -2.471523e+00
      vertex   8.929184e+00 5.960331e+00 -2.471523e+00
    endloop
  endfacet
  facet normal 8.056726e-01 5.497674e-01 -2.205618e-01
    outer loop
      vertex   8.929184e+00 5.960331e+00 -2.471523e+00
      vertex   9.060754e+00 5.767518e+00 -2.471523e+00
      vertex   9.006721e+00 5.733124e+00 -2.754625e+00
    endloop
  endfacet
  facet normal 8.056726e-01 5.497674e-01 -2.205618e-01
    outer loop
      vertex   8.929184e+00 5.960331e+00 -2.471523e+00
      vertex   9.006721e+00 5.733124e+00 -2.754625e+00
      vertex   8.875936e+00 5.924787e+00 -2.754625e+00
    endloop
  endfacet
  facet normal 8.009291e-01 5.465305e-01 -2.445751e-01
    outer loop
      vertex   8.875936e+00 5.924787e+00 -2.754625e+00
      vertex   9.006721e+00 5.733124e+00 -2.754625e+00
      vertex   8.946406e+00 5.694731e+00 -3.037938e+00
    endloop
  endfacet
  facet normal 8.009291e-01 5.465305e-01 -2.445751e-01
    outer loop
      vertex   8.875936e+00 5.924787e+00 -2.754625e+00
      vertex   8.946406e+00 5.694731e+00 -3.037938e+00
      vertex   8.816496e+00 5.885111e+00 -3.037938e+00
    endloop
  endfacet
  facet normal 7.947715e-01 5.423287e-01 -2.724295e-01
    outer loop
      vertex   8.816496e+00 5.885111e+00 -3.037938e+00
      vertex   8.946406e+00 5.694731e+00 -3.037938e+00
      vertex   8.857431e+00 5.638095e+00 -3.410254e+00
    endloop
  endfacet
  facet normal 7.947715e-01 5.423287e-01 -2.724295e-01
    outer loop
      vertex   8.816496e+00 5.885111e+00 -3.037938e+00
      vertex   8.857431e+00 5.638095e+00 -3.410254e+00
      vertex   8.728813e+00 5.826582e+00 -3.410254e+00
    endloop
  endfacet
  facet normal 7.869585e-01 5.369974e-01 -3.038588e-01
    outer loop
      vertex   8.728813e+00 5.826582e+00 -3.410254e+00
      vertex   8.857431e+00 5.638095e+00 -3.410254e+00
      vertex   8.756341e+00 5.577745e+00 -3.778718e+00
    endloop
  endfacet
  facet normal 7.867959e-01 5.371647e-01 -3.039839e-01
    outer loop
      vertex   8.728813e+00 5.826582e+00 -3.410254e+00
      vertex   8.756341e+00 5.577745e+00 -3.778718e+00
      vertex   8.629133e+00 5.764945e+00 -3.777172e+00
    endloop
  endfacet
  facet normal 7.980897e-01 5.192946e-01 -3.055913e-01
    outer loop
      vertex   8.756341e+00 5.577745e+00 -3.778718e+00
      vertex   8.920042e+00 5.542990e+00 -3.410254e+00
      vertex   8.879370e+00 5.387774e+00 -3.780235e+00
    endloop
  endfacet
  facet normal 8.014133e-01 5.150011e-01 -3.041555e-01
    outer loop
      vertex   8.879370e+00 5.387774e+00 -3.780235e+00
      vertex   8.920042e+00 5.542990e+00 -3.410254e+00
      vertex   8.981510e+00 5.447336e+00 -3.410254e+00
    endloop
  endfacet
  facet normal 8.070166e-01 5.061064e-01 -3.042704e-01
    outer loop
      vertex   8.879370e+00 5.387774e+00 -3.780235e+00
      vertex   8.981510e+00 5.447336e+00 -3.410254e+00
      vertex   9.041830e+00 5.351154e+00 -3.410254e+00
    endloop
  endfacet
  facet normal 8.150899e-01 5.111695e-01 -2.726431e-01
    outer loop
      vertex   9.041830e+00 5.351154e+00 -3.410254e+00
      vertex   8.981510e+00 5.447336e+00 -3.410254e+00
      vertex   9.071731e+00 5.502056e+00 -3.037938e+00
    endloop
  endfacet
  facet normal 8.150899e-01 5.111695e-01 -2.726431e-01
    outer loop
      vertex   9.041830e+00 5.351154e+00 -3.410254e+00
      vertex   9.071731e+00 5.502056e+00 -3.037938e+00
      vertex   9.132657e+00 5.404907e+00 -3.037938e+00
    endloop
  endfacet
  facet normal 8.214149e-01 5.151361e-01 -2.447698e-01
    outer loop
      vertex   9.132657e+00 5.404907e+00 -3.037938e+00
      vertex   9.071731e+00 5.502056e+00 -3.037938e+00
      vertex   9.132892e+00 5.539150e+00 -2.754625e+00
    endloop
  endfacet
  facet normal 8.214149e-01 5.151361e-01 -2.447698e-01
    outer loop
      vertex   9.132657e+00 5.404907e+00 -3.037938e+00
      vertex   9.132892e+00 5.539150e+00 -2.754625e+00
      vertex   9.194228e+00 5.441346e+00 -2.754625e+00
    endloop
  endfacet
  facet normal 8.262876e-01 5.181919e-01 -2.207395e-01
    outer loop
      vertex   9.194228e+00 5.441346e+00 -2.754625e+00
      vertex   9.132892e+00 5.539150e+00 -2.754625e+00
      vertex   9.187682e+00 5.572380e+00 -2.471523e+00
    endloop
  endfacet
  facet normal 8.262876e-01 5.181919e-01 -2.207395e-01
    outer loop
      vertex   9.194228e+00 5.441346e+00 -2.754625e+00
      vertex   9.187682e+00 5.572380e+00 -2.471523e+00
      vertex   9.249386e+00 5.473990e+00 -2.471523e+00
    endloop
  endfacet
  facet normal 8.306227e-01 5.209106e-01 -1.967690e-01
    outer loop
      vertex   9.249386e+00 5.473990e+00 -2.471523e+00
      vertex   9.187682e+00 5.572380e+00 -2.471523e+00
      vertex   9.236181e+00 5.601795e+00 -2.188922e+00
    endloop
  endfacet
  facet normal 8.306227e-01 5.209106e-01 -1.967690e-01
    outer loop
      vertex   9.249386e+00 5.473990e+00 -2.471523e+00
      vertex   9.236181e+00 5.601795e+00 -2.188922e+00
      vertex   9.298210e+00 5.502885e+00 -2.188922e+00
    endloop
  endfacet
  facet normal 7.749383e-01 5.543200e-01 -3.036445e-01
    outer loop
      vertex   8.728813e+00 5.826582e+00 -3.410254e+00
      vertex   8.629133e+00 5.764945e+00 -3.777172e+00
      vertex   8.595721e+00 6.012645e+00 -3.410254e+00
    endloop
  endfacet
  facet normal 7.747446e-01 5.545106e-01 -3.037908e-01
    outer loop
      vertex   8.595721e+00 6.012645e+00 -3.410254e+00
      vertex   8.629133e+00 5.764945e+00 -3.777172e+00
      vertex   8.497796e+00 5.949307e+00 -3.775598e+00
    endloop
  endfacet
  facet normal 7.625217e-01 5.713881e-01 -3.034406e-01
    outer loop
      vertex   8.595721e+00 6.012645e+00 -3.410254e+00
      vertex   8.497796e+00 5.949307e+00 -3.775598e+00
      vertex   8.458225e+00 6.196134e+00 -3.410254e+00
    endloop
  endfacet
  facet normal 7.623328e-01 5.715656e-01 -3.035810e-01
    outer loop
      vertex   8.458225e+00 6.196134e+00 -3.410254e+00
      vertex   8.497796e+00 5.949307e+00 -3.775598e+00
      vertex   8.362417e+00 6.130719e+00 -3.774000e+00
    endloop
  endfacet
  facet normal 7.497171e-01 5.881881e-01 -3.032474e-01
    outer loop
      vertex   8.458225e+00 6.196134e+00 -3.410254e+00
      vertex   8.362417e+00 6.130719e+00 -3.774000e+00
      vertex   8.316405e+00 6.376901e+00 -3.410254e+00
    endloop
  endfacet
  facet normal 7.495698e-01 5.883202e-01 -3.033555e-01
    outer loop
      vertex   8.316405e+00 6.376901e+00 -3.410254e+00
      vertex   8.362417e+00 6.130719e+00 -3.774000e+00
      vertex   8.223083e+00 6.309077e+00 -3.772382e+00
    endloop
  endfacet
  facet normal 7.364852e-01 6.047660e-01 -3.030637e-01
    outer loop
      vertex   8.316405e+00 6.376901e+00 -3.410254e+00
      vertex   8.223083e+00 6.309077e+00 -3.772382e+00
      vertex   8.169274e+00 6.556077e+00 -3.410254e+00
    endloop
  endfacet
  facet normal 7.364739e-01 6.047757e-01 -3.030720e-01
    outer loop
      vertex   8.169274e+00 6.556077e+00 -3.410254e+00
      vertex   8.223083e+00 6.309077e+00 -3.772382e+00
      vertex   8.079851e+00 6.484320e+00 -3.770746e+00
    endloop
  endfacet
  facet normal 7.268987e-01 6.162921e-01 -3.029892e-01
    outer loop
      vertex   8.169274e+00 6.556077e+00 -3.410254e+00
      vertex   8.079851e+00 6.484320e+00 -3.770746e+00
      vertex   7.989550e+00 6.704028e+00 -3.540491e+00
    endloop
  endfacet
  facet normal 7.216461e-01 6.197817e-01 -3.083789e-01
    outer loop
      vertex   7.989550e+00 6.704028e+00 -3.540491e+00
      vertex   8.079851e+00 6.484320e+00 -3.770746e+00
      vertex   7.932776e+00 6.656389e+00 -3.769095e+00
    endloop
  endfacet
  facet normal 7.245088e-01 6.258065e-01 -2.888826e-01
    outer loop
      vertex   7.989550e+00 6.704028e+00 -3.540491e+00
      vertex   8.042708e+00 6.748633e+00 -3.310543e+00
      vertex   8.169274e+00 6.556077e+00 -3.410254e+00
    endloop
  endfacet
  facet normal 7.335268e-01 6.229202e-01 -2.718618e-01
    outer loop
      vertex   8.169274e+00 6.556077e+00 -3.410254e+00
      vertex   8.042708e+00 6.748633e+00 -3.310543e+00
      vertex   8.251340e+00 6.621930e+00 -3.037938e+00
    endloop
  endfacet
  facet normal 7.437058e-01 6.106952e-01 -2.719431e-01
    outer loop
      vertex   8.169274e+00 6.556077e+00 -3.410254e+00
      vertex   8.251340e+00 6.621930e+00 -3.037938e+00
      vertex   8.316405e+00 6.376901e+00 -3.410254e+00
    endloop
  endfacet
  facet normal 7.437060e-01 6.106950e-01 -2.719430e-01
    outer loop
      vertex   8.316405e+00 6.376901e+00 -3.410254e+00
      vertex   8.251340e+00 6.621930e+00 -3.037938e+00
      vertex   8.399945e+00 6.440958e+00 -3.037938e+00
    endloop
  endfacet
  facet normal 7.570862e-01 5.939695e-01 -2.720676e-01
    outer loop
      vertex   8.316405e+00 6.376901e+00 -3.410254e+00
      vertex   8.399945e+00 6.440958e+00 -3.037938e+00
      vertex   8.458225e+00 6.196134e+00 -3.410254e+00
    endloop
  endfacet
  facet normal 7.570862e-01 5.939695e-01 -2.720676e-01
    outer loop
      vertex   8.458225e+00 6.196134e+00 -3.410254e+00
      vertex   8.399945e+00 6.440958e+00 -3.037938e+00
      vertex   8.543190e+00 6.258375e+00 -3.037938e+00
    endloop
  endfacet
  facet normal 7.700387e-01 5.770208e-01 -2.721900e-01
    outer loop
      vertex   8.458225e+00 6.196134e+00 -3.410254e+00
      vertex   8.543190e+00 6.258375e+00 -3.037938e+00
      vertex   8.595721e+00 6.012645e+00 -3.410254e+00
    endloop
  endfacet
  facet normal 7.700387e-01 5.770208e-01 -2.721900e-01
    outer loop
      vertex   8.595721e+00 6.012645e+00 -3.410254e+00
      vertex   8.543190e+00 6.258375e+00 -3.037938e+00
      vertex   8.682067e+00 6.073043e+00 -3.037938e+00
    endloop
  endfacet
  facet normal 7.826032e-01 5.598027e-01 -2.723108e-01
    outer loop
      vertex   8.595721e+00 6.012645e+00 -3.410254e+00
      vertex   8.682067e+00 6.073043e+00 -3.037938e+00
      vertex   8.728813e+00 5.826582e+00 -3.410254e+00
    endloop
  endfacet
  facet normal 7.826032e-01 5.598027e-01 -2.723108e-01
    outer loop
      vertex   8.728813e+00 5.826582e+00 -3.410254e+00
      vertex   8.682067e+00 6.073043e+00 -3.037938e+00
      vertex   8.816496e+00 5.885111e+00 -3.037938e+00
    endloop
  endfacet
  facet normal 7.319830e-01 6.258303e-01 -2.693276e-01
    outer loop
      vertex   8.042708e+00 6.748633e+00 -3.310543e+00
      vertex   8.092243e+00 6.790198e+00 -3.079333e+00
      vertex   8.251340e+00 6.621930e+00 -3.037938e+00
    endloop
  endfacet
  facet normal 7.335345e-01 6.321334e-01 -2.496687e-01
    outer loop
      vertex   8.251340e+00 6.621930e+00 -3.037938e+00
      vertex   8.092243e+00 6.790198e+00 -3.079333e+00
      vertex   8.138148e+00 6.828717e+00 -2.846938e+00
    endloop
  endfacet
  facet normal 7.378509e-01 6.293003e-01 -2.440434e-01
    outer loop
      vertex   8.251340e+00 6.621930e+00 -3.037938e+00
      vertex   8.138148e+00 6.828717e+00 -2.846938e+00
      vertex   8.306972e+00 6.666570e+00 -2.754625e+00
    endloop
  endfacet
  facet normal 7.366068e-01 6.360311e-01 -2.299454e-01
    outer loop
      vertex   8.306972e+00 6.666570e+00 -2.754625e+00
      vertex   8.138148e+00 6.828717e+00 -2.846938e+00
      vertex   8.180415e+00 6.864183e+00 -2.613438e+00
    endloop
  endfacet
  facet normal 7.424471e-01 6.327223e-01 -2.200790e-01
    outer loop
      vertex   8.306972e+00 6.666570e+00 -2.754625e+00
      vertex   8.180415e+00 6.864183e+00 -2.613438e+00
      vertex   8.356810e+00 6.706560e+00 -2.471523e+00
    endloop
  endfacet
  facet normal 7.400069e-01 6.389235e-01 -2.101583e-01
    outer loop
      vertex   8.356810e+00 6.706560e+00 -2.471523e+00
      vertex   8.180415e+00 6.864183e+00 -2.613438e+00
      vertex   8.219038e+00 6.896592e+00 -2.378912e+00
    endloop
  endfacet
  facet normal 7.459710e-01 6.364309e-01 -1.961710e-01
    outer loop
      vertex   8.356810e+00 6.706560e+00 -2.471523e+00
      vertex   8.219038e+00 6.896592e+00 -2.378912e+00
      vertex   8.400927e+00 6.741959e+00 -2.188922e+00
    endloop
  endfacet
  facet normal 7.436544e-01 6.409053e-01 -1.903114e-01
    outer loop
      vertex   8.400927e+00 6.741959e+00 -2.188922e+00
      vertex   8.219038e+00 6.896592e+00 -2.378912e+00
      vertex   8.254009e+00 6.925936e+00 -2.143441e+00
    endloop
  endfacet
  facet normal 7.484979e-01 6.403404e-01 -1.723803e-01
    outer loop
      vertex   8.400927e+00 6.741959e+00 -2.188922e+00
      vertex   8.254009e+00 6.925936e+00 -2.143441e+00
      vertex   8.439288e+00 6.772739e+00 -1.908014e+00
    endloop
  endfacet
  facet normal 7.474444e-01 6.420965e-01 -1.704084e-01
    outer loop
      vertex   8.439288e+00 6.772739e+00 -1.908014e+00
      vertex   8.254009e+00 6.925936e+00 -2.143441e+00
      vertex   8.285320e+00 6.952209e+00 -1.907103e+00
    endloop
  endfacet
  facet normal 7.611351e-01 6.252468e-01 -1.724522e-01
    outer loop
      vertex   8.439288e+00 6.772739e+00 -1.908014e+00
      vertex   8.589245e+00 6.589942e+00 -1.908917e+00
      vertex   8.400927e+00 6.741959e+00 -2.188922e+00
    endloop
  endfacet
  facet normal 7.612325e-01 6.250861e-01 -1.726049e-01
    outer loop
      vertex   8.400927e+00 6.741959e+00 -2.188922e+00
      vertex   8.589245e+00 6.589942e+00 -1.908917e+00
      vertex   8.552216e+00 6.557717e+00 -2.188922e+00
    endloop
  endfacet
  facet normal 7.578041e-01 6.222709e-01 -1.962444e-01
    outer loop
      vertex   8.400927e+00 6.741959e+00 -2.188922e+00
      vertex   8.552216e+00 6.557717e+00 -2.188922e+00
      vertex   8.507309e+00 6.523283e+00 -2.471523e+00
    endloop
  endfacet
  facet normal 7.714511e-01 6.052394e-01 -1.963377e-01
    outer loop
      vertex   8.507309e+00 6.523283e+00 -2.471523e+00
      vertex   8.552216e+00 6.557717e+00 -2.188922e+00
      vertex   8.652384e+00 6.338366e+00 -2.471523e+00
    endloop
  endfacet
  facet normal 7.674423e-01 6.020943e-01 -2.202607e-01
    outer loop
      vertex   8.507309e+00 6.523283e+00 -2.471523e+00
      vertex   8.652384e+00 6.338366e+00 -2.471523e+00
      vertex   8.600787e+00 6.300568e+00 -2.754625e+00
    endloop
  endfacet
  facet normal 7.805816e-01 5.849211e-01 -2.203626e-01
    outer loop
      vertex   8.600787e+00 6.300568e+00 -2.754625e+00
      vertex   8.652384e+00 6.338366e+00 -2.471523e+00
      vertex   8.740600e+00 6.113987e+00 -2.754625e+00
    endloop
  endfacet
  facet normal 7.759940e-01 5.814835e-01 -2.443568e-01
    outer loop
      vertex   8.600787e+00 6.300568e+00 -2.754625e+00
      vertex   8.740600e+00 6.113987e+00 -2.754625e+00
      vertex   8.682067e+00 6.073043e+00 -3.037938e+00
    endloop
  endfacet
  facet normal 7.886612e-01 5.641361e-01 -2.444668e-01
    outer loop
      vertex   8.682067e+00 6.073043e+00 -3.037938e+00
      vertex   8.740600e+00 6.113987e+00 -2.754625e+00
      vertex   8.816496e+00 5.885111e+00 -3.037938e+00
    endloop
  endfacet
  facet normal 7.747492e-01 6.082937e-01 -1.724598e-01
    outer loop
      vertex   8.589245e+00 6.589942e+00 -1.908917e+00
      vertex   8.735131e+00 6.403882e+00 -1.909811e+00
      vertex   8.552216e+00 6.557717e+00 -2.188922e+00
    endloop
  endfacet
  facet normal 7.749348e-01 6.079725e-01 -1.727584e-01
    outer loop
      vertex   8.552216e+00 6.557717e+00 -2.188922e+00
      vertex   8.735131e+00 6.403882e+00 -1.909811e+00
      vertex   8.698058e+00 6.371825e+00 -2.188922e+00
    endloop
  endfacet
  facet normal 7.714511e-01 6.052394e-01 -1.963377e-01
    outer loop
      vertex   8.552216e+00 6.557717e+00 -2.188922e+00
      vertex   8.698058e+00 6.371825e+00 -2.188922e+00
      vertex   8.652384e+00 6.338366e+00 -2.471523e+00
    endloop
  endfacet
  facet normal 7.846628e-01 5.879793e-01 -1.964295e-01
    outer loop
      vertex   8.652384e+00 6.338366e+00 -2.471523e+00
      vertex   8.698058e+00 6.371825e+00 -2.188922e+00
      vertex   8.793036e+00 6.150665e+00 -2.471523e+00
    endloop
  endfacet
  facet normal 7.805816e-01 5.849211e-01 -2.203626e-01
    outer loop
      vertex   8.652384e+00 6.338366e+00 -2.471523e+00
      vertex   8.793036e+00 6.150665e+00 -2.471523e+00
      vertex   8.740600e+00 6.113987e+00 -2.754625e+00
    endloop
  endfacet
  facet normal 7.933279e-01 5.674742e-01 -2.204630e-01
    outer loop
      vertex   8.740600e+00 6.113987e+00 -2.754625e+00
      vertex   8.793036e+00 6.150665e+00 -2.471523e+00
      vertex   8.875936e+00 5.924787e+00 -2.754625e+00
    endloop
  endfacet
  facet normal 7.886612e-01 5.641361e-01 -2.444668e-01
    outer loop
      vertex   8.740600e+00 6.113987e+00 -2.754625e+00
      vertex   8.875936e+00 5.924787e+00 -2.754625e+00
      vertex   8.816496e+00 5.885111e+00 -3.037938e+00
    endloop
  endfacet
  facet normal 7.879949e-01 5.910096e-01 -1.725449e-01
    outer loop
      vertex   8.735131e+00 6.403882e+00 -1.909811e+00
      vertex   8.876887e+00 6.214620e+00 -1.910693e+00
      vertex   8.698058e+00 6.371825e+00 -2.188922e+00
    endloop
  endfacet
  facet normal 7.882023e-01 5.906316e-01 -1.728918e-01
    outer loop
      vertex   8.698058e+00 6.371825e+00 -2.188922e+00
      vertex   8.876887e+00 6.214620e+00 -1.910693e+00
      vertex   8.839452e+00 6.183133e+00 -2.188922e+00
    endloop
  endfacet
  facet normal 7.846628e-01 5.879793e-01 -1.964295e-01
    outer loop
      vertex   8.698058e+00 6.371825e+00 -2.188922e+00
      vertex   8.839452e+00 6.183133e+00 -2.188922e+00
      vertex   8.793036e+00 6.150665e+00 -2.471523e+00
    endloop
  endfacet
  facet normal 7.974795e-01 5.704439e-01 -1.965200e-01
    outer loop
      vertex   8.793036e+00 6.150665e+00 -2.471523e+00
      vertex   8.839452e+00 6.183133e+00 -2.188922e+00
      vertex   8.929184e+00 5.960331e+00 -2.471523e+00
    endloop
  endfacet
  facet normal 7.933279e-01 5.674742e-01 -2.204630e-01
    outer loop
      vertex   8.793036e+00 6.150665e+00 -2.471523e+00
      vertex   8.929184e+00 5.960331e+00 -2.471523e+00
      vertex   8.875936e+00 5.924787e+00 -2.754625e+00
    endloop
  endfacet
  facet normal 8.008718e-01 5.734085e-01 -1.726473e-01
    outer loop
      vertex   8.876887e+00 6.214620e+00 -1.910693e+00
      vertex   9.014421e+00 6.022267e+00 -1.911562e+00
      vertex   8.839452e+00 6.183133e+00 -2.188922e+00
    endloop
  endfacet
  facet normal 8.010756e-01 5.730163e-01 -1.730034e-01
    outer loop
      vertex   8.839452e+00 6.183133e+00 -2.188922e+00
      vertex   9.014421e+00 6.022267e+00 -1.911562e+00
      vertex   8.976318e+00 5.991794e+00 -2.188922e+00
    endloop
  endfacet
  facet normal 7.974795e-01 5.704439e-01 -1.965200e-01
    outer loop
      vertex   8.839452e+00 6.183133e+00 -2.188922e+00
      vertex   8.976318e+00 5.991794e+00 -2.188922e+00
      vertex   8.929184e+00 5.960331e+00 -2.471523e+00
    endloop
  endfacet
  facet normal 8.133699e-01 5.555003e-01 -1.727679e-01
    outer loop
      vertex   9.014421e+00 6.022267e+00 -1.911562e+00
      vertex   9.147641e+00 5.826938e+00 -1.912417e+00
      vertex   8.976318e+00 5.991794e+00 -2.188922e+00
    endloop
  endfacet
  facet normal 8.374206e-01 5.189251e-01 -1.715908e-01
    outer loop
      vertex   9.276494e+00 5.628703e+00 -1.913255e+00
      vertex   9.400927e+00 5.427628e+00 -1.914074e+00
      vertex   9.365120e+00 5.406955e+00 -2.151341e+00
    endloop
  endfacet
  facet normal 7.956921e-01 5.238303e-01 -3.040983e-01
    outer loop
      vertex   8.756341e+00 5.577745e+00 -3.778718e+00
      vertex   8.857431e+00 5.638095e+00 -3.410254e+00
      vertex   8.920042e+00 5.542990e+00 -3.410254e+00
    endloop
  endfacet
  facet normal 8.036329e-01 5.290580e-01 -2.725285e-01
    outer loop
      vertex   8.920042e+00 5.542990e+00 -3.410254e+00
      vertex   8.857431e+00 5.638095e+00 -3.410254e+00
      vertex   8.946406e+00 5.694731e+00 -3.037938e+00
    endloop
  endfacet
  facet normal 8.036329e-01 5.290580e-01 -2.725285e-01
    outer loop
      vertex   8.920042e+00 5.542990e+00 -3.410254e+00
      vertex   8.946406e+00 5.694731e+00 -3.037938e+00
      vertex   9.009646e+00 5.598670e+00 -3.037938e+00
    endloop
  endfacet
  facet normal 8.098638e-01 5.331600e-01 -2.446653e-01
    outer loop
      vertex   9.009646e+00 5.598670e+00 -3.037938e+00
      vertex   8.946406e+00 5.694731e+00 -3.037938e+00
      vertex   9.006721e+00 5.733124e+00 -2.754625e+00
    endloop
  endfacet
  facet normal 8.098638e-01 5.331600e-01 -2.446653e-01
    outer loop
      vertex   9.009646e+00 5.598670e+00 -3.037938e+00
      vertex   9.006721e+00 5.733124e+00 -2.754625e+00
      vertex   9.070387e+00 5.636416e+00 -2.754625e+00
    endloop
  endfacet
  facet normal 8.146638e-01 5.363200e-01 -2.206441e-01
    outer loop
      vertex   9.070387e+00 5.636416e+00 -2.754625e+00
      vertex   9.006721e+00 5.733124e+00 -2.754625e+00
      vertex   9.060754e+00 5.767518e+00 -2.471523e+00
    endloop
  endfacet
  facet normal 8.146638e-01 5.363200e-01 -2.206441e-01
    outer loop
      vertex   9.070387e+00 5.636416e+00 -2.754625e+00
      vertex   9.060754e+00 5.767518e+00 -2.471523e+00
      vertex   9.124802e+00 5.670230e+00 -2.471523e+00
    endloop
  endfacet
  facet normal 8.189342e-01 5.391313e-01 -1.966831e-01
    outer loop
      vertex   9.124802e+00 5.670230e+00 -2.471523e+00
      vertex   9.060754e+00 5.767518e+00 -2.471523e+00
      vertex   9.108583e+00 5.797963e+00 -2.188922e+00
    endloop
  endfacet
  facet normal 8.189342e-01 5.391313e-01 -1.966831e-01
    outer loop
      vertex   9.124802e+00 5.670230e+00 -2.471523e+00
      vertex   9.108583e+00 5.797963e+00 -2.188922e+00
      vertex   9.172969e+00 5.700161e+00 -2.188922e+00
    endloop
  endfacet
  facet normal 8.248310e-01 5.300496e-01 -1.967263e-01
    outer loop
      vertex   9.124802e+00 5.670230e+00 -2.471523e+00
      vertex   9.172969e+00 5.700161e+00 -2.188922e+00
      vertex   9.187682e+00 5.572380e+00 -2.471523e+00
    endloop
  endfacet
  facet normal 8.248310e-01 5.300496e-01 -1.967263e-01
    outer loop
      vertex   9.187682e+00 5.572380e+00 -2.471523e+00
      vertex   9.172969e+00 5.700161e+00 -2.188922e+00
      vertex   9.236181e+00 5.601795e+00 -2.188922e+00
    endloop
  endfacet
  facet normal 8.205280e-01 5.272844e-01 -2.206921e-01
    outer loop
      vertex   9.070387e+00 5.636416e+00 -2.754625e+00
      vertex   9.124802e+00 5.670230e+00 -2.471523e+00
      vertex   9.132892e+00 5.539150e+00 -2.754625e+00
    endloop
  endfacet
  facet normal 8.205280e-01 5.272844e-01 -2.206921e-01
    outer loop
      vertex   9.132892e+00 5.539150e+00 -2.754625e+00
      vertex   9.124802e+00 5.670230e+00 -2.471523e+00
      vertex   9.187682e+00 5.572380e+00 -2.471523e+00
    endloop
  endfacet
  facet normal 8.156913e-01 5.241763e-01 -2.447179e-01
    outer loop
      vertex   9.009646e+00 5.598670e+00 -3.037938e+00
      vertex   9.070387e+00 5.636416e+00 -2.754625e+00
      vertex   9.071731e+00 5.502056e+00 -3.037938e+00
    endloop
  endfacet
  facet normal 8.156913e-01 5.241763e-01 -2.447179e-01
    outer loop
      vertex   9.071731e+00 5.502056e+00 -3.037938e+00
      vertex   9.070387e+00 5.636416e+00 -2.754625e+00
      vertex   9.132892e+00 5.539150e+00 -2.754625e+00
    endloop
  endfacet
  facet normal 8.094130e-01 5.201418e-01 -2.725861e-01
    outer loop
      vertex   8.920042e+00 5.542990e+00 -3.410254e+00
      vertex   9.009646e+00 5.598670e+00 -3.037938e+00
      vertex   8.981510e+00 5.447336e+00 -3.410254e+00
    endloop
  endfacet
  facet normal 8.094130e-01 5.201418e-01 -2.725861e-01
    outer loop
      vertex   8.981510e+00 5.447336e+00 -3.410254e+00
      vertex   9.009646e+00 5.598670e+00 -3.037938e+00
      vertex   9.071731e+00 5.502056e+00 -3.037938e+00
    endloop
  endfacet
  facet normal 7.759940e-01 5.814835e-01 -2.443568e-01
    outer loop
      vertex   8.600787e+00 6.300568e+00 -2.754625e+00
      vertex   8.682067e+00 6.073043e+00 -3.037938e+00
      vertex   8.543190e+00 6.258375e+00 -3.037938e+00
    endloop
  endfacet
  facet normal 7.629361e-01 5.985590e-01 -2.442451e-01
    outer loop
      vertex   8.600787e+00 6.300568e+00 -2.754625e+00
      vertex   8.543190e+00 6.258375e+00 -3.037938e+00
      vertex   8.456576e+00 6.484382e+00 -2.754625e+00
    endloop
  endfacet
  facet normal 7.629361e-01 5.985590e-01 -2.442451e-01
    outer loop
      vertex   8.456576e+00 6.484382e+00 -2.754625e+00
      vertex   8.543190e+00 6.258375e+00 -3.037938e+00
      vertex   8.399945e+00 6.440958e+00 -3.037938e+00
    endloop
  endfacet
  facet normal 7.494473e-01 6.154092e-01 -2.441315e-01
    outer loop
      vertex   8.456576e+00 6.484382e+00 -2.754625e+00
      vertex   8.399945e+00 6.440958e+00 -3.037938e+00
      vertex   8.306972e+00 6.666570e+00 -2.754625e+00
    endloop
  endfacet
  facet normal 7.494471e-01 6.154094e-01 -2.441317e-01
    outer loop
      vertex   8.306972e+00 6.666570e+00 -2.754625e+00
      vertex   8.399945e+00 6.440958e+00 -3.037938e+00
      vertex   8.251340e+00 6.621930e+00 -3.037938e+00
    endloop
  endfacet
  facet normal 7.674423e-01 6.020943e-01 -2.202607e-01
    outer loop
      vertex   8.600787e+00 6.300568e+00 -2.754625e+00
      vertex   8.456576e+00 6.484382e+00 -2.754625e+00
      vertex   8.507309e+00 6.523283e+00 -2.471523e+00
    endloop
  endfacet
  facet normal 7.538698e-01 6.190405e-01 -2.201571e-01
    outer loop
      vertex   8.507309e+00 6.523283e+00 -2.471523e+00
      vertex   8.456576e+00 6.484382e+00 -2.754625e+00
      vertex   8.356810e+00 6.706560e+00 -2.471523e+00
    endloop
  endfacet
  facet normal 7.578040e-01 6.222710e-01 -1.962446e-01
    outer loop
      vertex   8.507309e+00 6.523283e+00 -2.471523e+00
      vertex   8.356810e+00 6.706560e+00 -2.471523e+00
      vertex   8.400927e+00 6.741959e+00 -2.188922e+00
    endloop
  endfacet
  facet normal 7.538697e-01 6.190406e-01 -2.201572e-01
    outer loop
      vertex   8.356810e+00 6.706560e+00 -2.471523e+00
      vertex   8.456576e+00 6.484382e+00 -2.754625e+00
      vertex   8.306972e+00 6.666570e+00 -2.754625e+00
    endloop
  endfacet
  facet normal 5.000000e-01 -8.660254e-01 -5.210893e-15
    outer loop
      vertex   8.998168e+00 5.195095e+00 -3.781720e+00
      vertex   9.062973e+00 5.232510e+00 -3.552634e+00
      vertex   0.000000e+00 0.000000e+00 0.000000e+00
    endloop
  endfacet
  facet normal 5.000000e-01 -8.660254e-01 0.000000e+00
    outer loop
      vertex   0.000000e+00 0.000000e+00 0.000000e+00
      vertex   9.062973e+00 5.232510e+00 -3.552634e+00
      vertex   9.123668e+00 5.267552e+00 -3.322141e+00
    endloop
  endfacet
  facet normal 5.000000e-01 -8.660254e-01 -2.671916e-15
    outer loop
      vertex   0.000000e+00 0.000000e+00 0.000000e+00
      vertex   9.123668e+00 5.267552e+00 -3.322141e+00
      vertex   9.180244e+00 5.300216e+00 -3.090318e+00
    endloop
  endfacet
  facet normal 5.000000e-01 -8.660254e-01 4.427869e-15
    outer loop
      vertex   9.180244e+00 5.300216e+00 -3.090318e+00
      vertex   9.232688e+00 5.330495e+00 -2.857247e+00
      vertex   0.000000e+00 0.000000e+00 0.000000e+00
    endloop
  endfacet
  facet normal 5.000000e-01 -8.660254e-01 0.000000e+00
    outer loop
      vertex   0.000000e+00 0.000000e+00 0.000000e+00
      vertex   9.232688e+00 5.330495e+00 -2.857247e+00
      vertex   9.280990e+00 5.358382e+00 -2.623008e+00
    endloop
  endfacet
  facet normal 5.000000e-01 -8.660254e-01 -2.675563e-15
    outer loop
      vertex   0.000000e+00 0.000000e+00 0.000000e+00
      vertex   9.280990e+00 5.358382e+00 -2.623008e+00
      vertex   9.325137e+00 5.383871e+00 -2.387679e+00
    endloop
  endfacet
  facet normal 5.000000e-01 -8.660254e-01 -1.714431e-15
    outer loop
      vertex   9.325137e+00 5.383871e+00 -2.387679e+00
      vertex   9.365120e+00 5.406955e+00 -2.151341e+00
      vertex   0.000000e+00 0.000000e+00 0.000000e+00
    endloop
  endfacet
  facet normal 5.000000e-01 -8.660254e-01 1.338257e-14
    outer loop
      vertex   0.000000e+00 0.000000e+00 0.000000e+00
      vertex   9.365120e+00 5.406955e+00 -2.151341e+00
      vertex   9.400927e+00 5.427628e+00 -1.914074e+00
    endloop
  endfacet
  facet normal 1.488675e-01 8.944862e-02 9.848032e-01
    outer loop
      vertex   0.000000e+00 0.000000e+00 0.000000e+00
      vertex   9.400927e+00 5.427628e+00 -1.914074e+00
      vertex   4.602889e+00 2.876204e+00 -9.570372e-01
    endloop
  endfacet
  facet normal 1.494050e-01 8.844158e-02 9.848128e-01
    outer loop
      vertex   4.602889e+00 2.876204e+00 -9.570372e-01
      vertex   9.400927e+00 5.427628e+00 -1.914074e+00
      vertex   9.276494e+00 5.628703e+00 -1.913255e+00
    endloop
  endfacet
  facet normal 1.474831e-01 9.170180e-02 9.848043e-01
    outer loop
      vertex   4.602889e+00 2.876204e+00 -9.570372e-01
      vertex   9.276494e+00 5.628703e+00 -1.913255e+00
      vertex   9.147641e+00 5.826938e+00 -1.912417e+00
    endloop
  endfacet
  facet normal 1.456230e-01 9.456867e-02 9.848100e-01
    outer loop
      vertex   4.602889e+00 2.876204e+00 -9.570372e-01
      vertex   9.147641e+00 5.826938e+00 -1.912417e+00
      vertex   4.499707e+00 3.035091e+00 -9.570372e-01
    endloop
  endfacet
  facet normal 1.454335e-01 9.488332e-02 9.848077e-01
    outer loop
      vertex   4.499707e+00 3.035091e+00 -9.570372e-01
      vertex   9.147641e+00 5.826938e+00 -1.912417e+00
      vertex   9.014421e+00 6.022267e+00 -1.911562e+00
    endloop
  endfacet
  facet normal 1.433433e-01 9.804142e-02 9.848048e-01
    outer loop
      vertex   4.499707e+00 3.035091e+00 -9.570372e-01
      vertex   9.014421e+00 6.022267e+00 -1.911562e+00
      vertex   8.876887e+00 6.214620e+00 -1.910693e+00
    endloop
  endfacet
  facet normal 1.422232e-01 9.958574e-02 9.848123e-01
    outer loop
      vertex   4.499707e+00 3.035091e+00 -9.570372e-01
      vertex   8.876887e+00 6.214620e+00 -1.910693e+00
      vertex   4.391043e+00 3.190279e+00 -9.570372e-01
    endloop
  endfacet
  facet normal 1.411703e-01 1.011451e-01 9.848049e-01
    outer loop
      vertex   4.391043e+00 3.190279e+00 -9.570372e-01
      vertex   8.876887e+00 6.214620e+00 -1.910693e+00
      vertex   8.735131e+00 6.403882e+00 -1.909811e+00
    endloop
  endfacet
  facet normal 1.389168e-01 1.041922e-01 9.848077e-01
    outer loop
      vertex   4.391043e+00 3.190279e+00 -9.570372e-01
      vertex   8.735131e+00 6.403882e+00 -1.909811e+00
      vertex   8.589245e+00 6.589942e+00 -1.908917e+00
    endloop
  endfacet
  facet normal 1.386711e-01 1.044962e-01 9.848101e-01
    outer loop
      vertex   4.391043e+00 3.190279e+00 -9.570372e-01
      vertex   8.589245e+00 6.589942e+00 -1.908917e+00
      vertex   4.277029e+00 3.341581e+00 -9.570372e-01
    endloop
  endfacet
  facet normal 1.366236e-01 1.072126e-01 9.848043e-01
    outer loop
      vertex   4.277029e+00 3.341581e+00 -9.570372e-01
      vertex   8.589245e+00 6.589942e+00 -1.908917e+00
      vertex   8.439288e+00 6.772739e+00 -1.908014e+00
    endloop
  endfacet
  facet normal 1.342123e-01 1.101401e-01 9.848128e-01
    outer loop
      vertex   4.277029e+00 3.341581e+00 -9.570372e-01
      vertex   8.439288e+00 6.772739e+00 -1.908014e+00
      vertex   8.285320e+00 6.952209e+00 -1.907103e+00
    endloop
  endfacet
  facet normal 1.349699e-01 1.092965e-01 9.848032e-01
    outer loop
      vertex   8.285320e+00 6.952209e+00 -1.907103e+00
      vertex   0.000000e+00 0.000000e+00 0.000000e+00
      vertex   4.277029e+00 3.341581e+00 -9.570372e-01
    endloop
  endfacet
  facet normal 1.387021e-01 1.045195e-01 9.848032e-01
    outer loop
      vertex   4.277029e+00 3.341581e+00 -9.570372e-01
      vertex   0.000000e+00 0.000000e+00 0.000000e+00
      vertex   4.391043e+00 3.190279e+00 -9.570372e-01
    endloop
  endfacet
  facet normal 1.422653e-01 9.961522e-02 9.848032e-01
    outer loop
      vertex   4.391043e+00 3.190279e+00 -9.570372e-01
      vertex   0.000000e+00 0.000000e+00 0.000000e+00
      vertex   4.499707e+00 3.035091e+00 -9.570372e-01
    endloop
  endfacet
  facet normal 1.456551e-01 9.458955e-02 9.848032e-01
    outer loop
      vertex   4.499707e+00 3.035091e+00 -9.570372e-01
      vertex   0.000000e+00 0.000000e+00 0.000000e+00
      vertex   4.602889e+00 2.876204e+00 -9.570372e-01
    endloop
  endfacet
  facet normal -2.658353e-01 -2.152692e-01 -9.396759e-01
    outer loop
      vertex   0.000000e+00 0.000000e+00 0.000000e+00
      vertex   7.932776e+00 6.656389e+00 -3.769095e+00
      vertex   4.093790e+00 3.198420e+00 -1.890860e+00
    endloop
  endfacet
  facet normal -2.643501e-01 -2.169373e-01 -9.397112e-01
    outer loop
      vertex   4.093790e+00 3.198420e+00 -1.890860e+00
      vertex   7.932776e+00 6.656389e+00 -3.769095e+00
      vertex   8.079851e+00 6.484320e+00 -3.770746e+00
    endloop
  endfacet
  facet normal -2.690924e-01 -2.111664e-01 -9.396797e-01
    outer loop
      vertex   4.093790e+00 3.198420e+00 -1.890860e+00
      vertex   8.079851e+00 6.484320e+00 -3.770746e+00
      vertex   8.223083e+00 6.309077e+00 -3.772382e+00
    endloop
  endfacet
  facet normal -2.731307e-01 -2.058187e-01 -9.397012e-01
    outer loop
      vertex   4.093790e+00 3.198420e+00 -1.890860e+00
      vertex   8.223083e+00 6.309077e+00 -3.772382e+00
      vertex   4.202920e+00 3.053600e+00 -1.890860e+00
    endloop
  endfacet
  facet normal -2.736113e-01 -2.052201e-01 -9.396923e-01
    outer loop
      vertex   4.202920e+00 3.053600e+00 -1.890860e+00
      vertex   8.223083e+00 6.309077e+00 -3.772382e+00
      vertex   8.362417e+00 6.130719e+00 -3.774000e+00
    endloop
  endfacet
  facet normal -2.780476e-01 -1.992171e-01 -9.396819e-01
    outer loop
      vertex   4.202920e+00 3.053600e+00 -1.890860e+00
      vertex   8.362417e+00 6.130719e+00 -3.774000e+00
      vertex   8.497796e+00 5.949307e+00 -3.775598e+00
    endloop
  endfacet
  facet normal -2.801287e-01 -1.961482e-01 -9.397094e-01
    outer loop
      vertex   4.202920e+00 3.053600e+00 -1.890860e+00
      vertex   8.497796e+00 5.949307e+00 -3.775598e+00
      vertex   4.306929e+00 2.905060e+00 -1.890860e+00
    endloop
  endfacet
  facet normal -2.823276e-01 -1.931040e-01 -9.396818e-01
    outer loop
      vertex   4.306929e+00 2.905060e+00 -1.890860e+00
      vertex   8.497796e+00 5.949307e+00 -3.775598e+00
      vertex   8.629133e+00 5.764945e+00 -3.777172e+00
    endloop
  endfacet
  facet normal -2.864470e-01 -1.868853e-01 -9.396925e-01
    outer loop
      vertex   4.306929e+00 2.905060e+00 -1.890860e+00
      vertex   8.629133e+00 5.764945e+00 -3.777172e+00
      vertex   8.756341e+00 5.577745e+00 -3.778718e+00
    endloop
  endfacet
  facet normal -2.868231e-01 -1.862651e-01 -9.397009e-01
    outer loop
      vertex   4.306929e+00 2.905060e+00 -1.890860e+00
      vertex   8.756341e+00 5.577745e+00 -3.778718e+00
      vertex   4.405690e+00 2.752981e+00 -1.890860e+00
    endloop
  endfacet
  facet normal -2.904814e-01 -1.806166e-01 -9.396798e-01
    outer loop
      vertex   4.405690e+00 2.752981e+00 -1.890860e+00
      vertex   8.756341e+00 5.577745e+00 -3.778718e+00
      vertex   8.879370e+00 5.387774e+00 -3.780235e+00
    endloop
  endfacet
  facet normal -2.942744e-01 -1.741989e-01 -9.397113e-01
    outer loop
      vertex   4.405690e+00 2.752981e+00 -1.890860e+00
      vertex   8.879370e+00 5.387774e+00 -3.780235e+00
      vertex   8.998168e+00 5.195095e+00 -3.781720e+00
    endloop
  endfacet
  facet normal -2.932080e-01 -1.761770e-01 -9.396759e-01
    outer loop
      vertex   8.998168e+00 5.195095e+00 -3.781720e+00
      vertex   0.000000e+00 0.000000e+00 0.000000e+00
      vertex   4.405690e+00 2.752981e+00 -1.890860e+00
    endloop
  endfacet
  facet normal -2.868808e-01 -1.863026e-01 -9.396759e-01
    outer loop
      vertex   4.405690e+00 2.752981e+00 -1.890860e+00
      vertex   0.000000e+00 0.000000e+00 0.000000e+00
      vertex   4.306929e+00 2.905060e+00 -1.890860e+00
    endloop
  endfacet
  facet normal -2.802042e-01 -1.962011e-01 -9.396759e-01
    outer loop
      vertex   4.306929e+00 2.905060e+00 -1.890860e+00
      vertex   0.000000e+00 0.000000e+00 0.000000e+00
      vertex   4.202920e+00 3.053600e+00 -1.890860e+00
    endloop
  endfacet
  facet normal -2.731862e-01 -2.058605e-01 -9.396759e-01
    outer loop
      vertex   4.202920e+00 3.053600e+00 -1.890860e+00
      vertex   0.000000e+00 0.000000e+00 0.000000e+00
      vertex   4.093790e+00 3.198420e+00 -1.890860e+00
    endloop
  endfacet
endsolid
