solid ASCII
  facet normal -8.660254e-01 -5.000000e-01 2.669209e-14
    outer loop
      vertex   -5.367726e+00 9.297175e+00 -1.892950e+00
      vertex   0.000000e+00 0.000000e+00 0.000000e+00
      vertex   -5.385324e+00 9.327655e+00 -1.658167e+00
    endloop
  endfacet
  facet normal -8.660254e-01 -5.000000e-01 -6.416603e-15
    outer loop
      vertex   -5.385324e+00 9.327655e+00 -1.658167e+00
      vertex   0.000000e+00 0.000000e+00 0.000000e+00
      vertex   -5.400589e+00 9.354095e+00 -1.422705e+00
    endloop
  endfacet
  facet normal -8.660254e-01 -5.000000e-01 1.285543e-14
    outer loop
      vertex   -5.400589e+00 9.354095e+00 -1.422705e+00
      vertex   0.000000e+00 0.000000e+00 0.000000e+00
      vertex   -5.413517e+00 9.376486e+00 -1.186641e+00
    endloop
  endfacet
  facet normal -8.660254e-01 -5.000000e-01 -8.165709e-15
    outer loop
      vertex   -5.413517e+00 9.376486e+00 -1.186641e+00
      vertex   0.000000e+00 0.000000e+00 0.000000e+00
      vertex   -5.424104e+00 9.394823e+00 -9.500535e-01
    endloop
  endfacet
  facet normal -8.660254e-01 -5.000000e-01 6.270862e-15
    outer loop
      vertex   -5.424104e+00 9.394823e+00 -9.500535e-01
      vertex   0.000000e+00 0.000000e+00 0.000000e+00
      vertex   -5.432345e+00 9.409097e+00 -7.130183e-01
    endloop
  endfacet
  facet normal -8.660254e-01 -5.000000e-01 -4.311775e-15
    outer loop
      vertex   -5.432345e+00 9.409097e+00 -7.130183e-01
      vertex   0.000000e+00 0.000000e+00 0.000000e+00
      vertex   -5.438237e+00 9.419302e+00 -4.756129e-01
    endloop
  endfacet
  facet normal -8.660254e-01 -5.000000e-01 -5.181347e-15
    outer loop
      vertex   -5.438237e+00 9.419302e+00 -4.756129e-01
      vertex   0.000000e+00 0.000000e+00 0.000000e+00
      vertex   -5.441775e+00 9.425430e+00 -2.379144e-01
    endloop
  endfacet
  facet normal -8.660254e-01 -5.000000e-01 -1.646032e-14
    outer loop
      vertex   -5.441775e+00 9.425430e+00 -2.379144e-01
      vertex   0.000000e+00 0.000000e+00 0.000000e+00
      vertex   -5.442955e+00 9.427475e+00 -2.775558e-16
    endloop
  endfacet
  facet normal -3.346134e-01 9.307582e-01 -1.473876e-01
    outer loop
      vertex   -3.672994e+00 1.009147e+01 -1.653421e+00
      vertex   -3.661067e+00 1.005870e+01 -1.887447e+00
      vertex   -3.890994e+00 1.001333e+01 -1.651959e+00
    endloop
  endfacet
  facet normal -3.347019e-01 9.307112e-01 -1.474831e-01
    outer loop
      vertex   -3.890994e+00 1.001333e+01 -1.651959e+00
      vertex   -3.661067e+00 1.005870e+01 -1.887447e+00
      vertex   -3.881133e+00 9.979464e+00 -1.888040e+00
    endloop
  endfacet
  facet normal -3.539166e-01 9.236100e-01 -1.472671e-01
    outer loop
      vertex   -3.890994e+00 1.001333e+01 -1.651959e+00
      vertex   -3.881133e+00 9.979464e+00 -1.888040e+00
      vertex   -4.108160e+00 9.930112e+00 -1.651959e+00
    endloop
  endfacet
  facet normal -3.542639e-01 9.234171e-01 -1.476414e-01
    outer loop
      vertex   -4.108160e+00 9.930112e+00 -1.651959e+00
      vertex   -3.881133e+00 9.979464e+00 -1.888040e+00
      vertex   -4.099454e+00 9.895606e+00 -1.888663e+00
    endloop
  endfacet
  facet normal -3.732173e-01 9.159830e-01 -1.472548e-01
    outer loop
      vertex   -4.108160e+00 9.930112e+00 -1.651959e+00
      vertex   -4.099454e+00 9.895606e+00 -1.888663e+00
      vertex   -4.324396e+00 9.842007e+00 -1.651959e+00
    endloop
  endfacet
  facet normal -3.736875e-01 9.157093e-01 -1.477636e-01
    outer loop
      vertex   -4.324396e+00 9.842007e+00 -1.651959e+00
      vertex   -4.099454e+00 9.895606e+00 -1.888663e+00
      vertex   -4.315952e+00 9.807151e+00 -1.889314e+00
    endloop
  endfacet
  facet normal -3.924450e-01 9.079064e-01 -1.472850e-01
    outer loop
      vertex   -4.324396e+00 9.842007e+00 -1.651959e+00
      vertex   -4.315952e+00 9.807151e+00 -1.889314e+00
      vertex   -4.539536e+00 9.749012e+00 -1.651959e+00
    endloop
  endfacet
  facet normal -3.929663e-01 9.075884e-01 -1.478540e-01
    outer loop
      vertex   -4.539536e+00 9.749012e+00 -1.651959e+00
      vertex   -4.315952e+00 9.807151e+00 -1.889314e+00
      vertex   -4.530552e+00 9.714124e+00 -1.889993e+00
    endloop
  endfacet
  facet normal -4.115854e-01 8.993800e-01 -1.473536e-01
    outer loop
      vertex   -4.539536e+00 9.749012e+00 -1.651959e+00
      vertex   -4.530552e+00 9.714124e+00 -1.889993e+00
      vertex   -4.753410e+00 9.651136e+00 -1.651959e+00
    endloop
  endfacet
  facet normal -4.120922e-01 8.990559e-01 -1.479139e-01
    outer loop
      vertex   -4.753410e+00 9.651136e+00 -1.651959e+00
      vertex   -4.530552e+00 9.714124e+00 -1.889993e+00
      vertex   -4.743129e+00 9.616571e+00 -1.890697e+00
    endloop
  endfacet
  facet normal -4.306238e-01 8.904038e-01 -1.474593e-01
    outer loop
      vertex   -4.753410e+00 9.651136e+00 -1.651959e+00
      vertex   -4.743129e+00 9.616571e+00 -1.890697e+00
      vertex   -4.965852e+00 9.548393e+00 -1.651959e+00
    endloop
  endfacet
  facet normal -4.310551e-01 8.901146e-01 -1.479442e-01
    outer loop
      vertex   -4.965852e+00 9.548393e+00 -1.651959e+00
      vertex   -4.743129e+00 9.616571e+00 -1.890697e+00
      vertex   -4.953568e+00 9.514541e+00 -1.891425e+00
    endloop
  endfacet
  facet normal -4.495455e-01 8.809783e-01 -1.476012e-01
    outer loop
      vertex   -4.965852e+00 9.548393e+00 -1.651959e+00
      vertex   -4.953568e+00 9.514541e+00 -1.891425e+00
      vertex   -5.176691e+00 9.440807e+00 -1.651959e+00
    endloop
  endfacet
  facet normal -4.498470e-01 8.807663e-01 -1.479473e-01
    outer loop
      vertex   -5.176691e+00 9.440807e+00 -1.651959e+00
      vertex   -4.953568e+00 9.514541e+00 -1.891425e+00
      vertex   -5.161792e+00 9.408065e+00 -1.892177e+00
    endloop
  endfacet
  facet normal -4.681083e-01 8.712266e-01 -1.477796e-01
    outer loop
      vertex   -5.176691e+00 9.440807e+00 -1.651959e+00
      vertex   -5.161792e+00 9.408065e+00 -1.892177e+00
      vertex   -5.385324e+00 9.327655e+00 -1.658167e+00
    endloop
  endfacet
  facet normal -4.684421e-01 8.709785e-01 -1.481838e-01
    outer loop
      vertex   -5.385324e+00 9.327655e+00 -1.658167e+00
      vertex   -5.161792e+00 9.408065e+00 -1.892177e+00
      vertex   -5.367726e+00 9.297175e+00 -1.892950e+00
    endloop
  endfacet
  facet normal -4.698324e-01 8.733492e-01 -1.285254e-01
    outer loop
      vertex   -5.385324e+00 9.327655e+00 -1.658167e+00
      vertex   -5.400589e+00 9.354095e+00 -1.422705e+00
      vertex   -5.176691e+00 9.440807e+00 -1.651959e+00
    endloop
  endfacet
  facet normal -4.692633e-01 8.737594e-01 -1.278145e-01
    outer loop
      vertex   -5.176691e+00 9.440807e+00 -1.651959e+00
      vertex   -5.400589e+00 9.354095e+00 -1.422705e+00
      vertex   -5.191564e+00 9.467932e+00 -1.411916e+00
    endloop
  endfacet
  facet normal -4.507990e-01 8.834346e-01 -1.277637e-01
    outer loop
      vertex   -5.176691e+00 9.440807e+00 -1.651959e+00
      vertex   -5.191564e+00 9.467932e+00 -1.411916e+00
      vertex   -4.965852e+00 9.548393e+00 -1.651959e+00
    endloop
  endfacet
  facet normal -4.507990e-01 8.834346e-01 -1.277637e-01
    outer loop
      vertex   -4.965852e+00 9.548393e+00 -1.651959e+00
      vertex   -5.191564e+00 9.467932e+00 -1.411916e+00
      vertex   -4.980120e+00 9.575828e+00 -1.411916e+00
    endloop
  endfacet
  facet normal -4.318180e-01 8.928730e-01 -1.277142e-01
    outer loop
      vertex   -4.965852e+00 9.548393e+00 -1.651959e+00
      vertex   -4.980120e+00 9.575828e+00 -1.411916e+00
      vertex   -4.753410e+00 9.651136e+00 -1.651959e+00
    endloop
  endfacet
  facet normal -4.318180e-01 8.928730e-01 -1.277142e-01
    outer loop
      vertex   -4.753410e+00 9.651136e+00 -1.651959e+00
      vertex   -4.980120e+00 9.575828e+00 -1.411916e+00
      vertex   -4.767068e+00 9.678866e+00 -1.411916e+00
    endloop
  endfacet
  facet normal -4.127228e-01 9.018654e-01 -1.276666e-01
    outer loop
      vertex   -4.753410e+00 9.651136e+00 -1.651959e+00
      vertex   -4.767068e+00 9.678866e+00 -1.411916e+00
      vertex   -4.539536e+00 9.749012e+00 -1.651959e+00
    endloop
  endfacet
  facet normal -4.127228e-01 9.018654e-01 -1.276666e-01
    outer loop
      vertex   -4.539536e+00 9.749012e+00 -1.651959e+00
      vertex   -4.767068e+00 9.678866e+00 -1.411916e+00
      vertex   -4.552579e+00 9.777023e+00 -1.411916e+00
    endloop
  endfacet
  facet normal -3.935278e-01 9.104113e-01 -1.276208e-01
    outer loop
      vertex   -4.539536e+00 9.749012e+00 -1.651959e+00
      vertex   -4.552579e+00 9.777023e+00 -1.411916e+00
      vertex   -4.324396e+00 9.842007e+00 -1.651959e+00
    endloop
  endfacet
  facet normal -3.935278e-01 9.104113e-01 -1.276208e-01
    outer loop
      vertex   -4.324396e+00 9.842007e+00 -1.651959e+00
      vertex   -4.552579e+00 9.777023e+00 -1.411916e+00
      vertex   -4.336821e+00 9.870285e+00 -1.411916e+00
    endloop
  endfacet
  facet normal -3.742474e-01 9.185113e-01 -1.275771e-01
    outer loop
      vertex   -4.324396e+00 9.842007e+00 -1.651959e+00
      vertex   -4.336821e+00 9.870285e+00 -1.411916e+00
      vertex   -4.108160e+00 9.930112e+00 -1.651959e+00
    endloop
  endfacet
  facet normal -3.742474e-01 9.185113e-01 -1.275771e-01
    outer loop
      vertex   -4.108160e+00 9.930112e+00 -1.651959e+00
      vertex   -4.336821e+00 9.870285e+00 -1.411916e+00
      vertex   -4.119964e+00 9.958643e+00 -1.411916e+00
    endloop
  endfacet
  facet normal -3.548961e-01 9.261660e-01 -1.275353e-01
    outer loop
      vertex   -4.108160e+00 9.930112e+00 -1.651959e+00
      vertex   -4.119964e+00 9.958643e+00 -1.411916e+00
      vertex   -3.890994e+00 1.001333e+01 -1.651959e+00
    endloop
  endfacet
  facet normal -3.548961e-01 9.261660e-01 -1.275353e-01
    outer loop
      vertex   -3.890994e+00 1.001333e+01 -1.651959e+00
      vertex   -4.119964e+00 9.958643e+00 -1.411916e+00
      vertex   -3.902174e+00 1.004210e+01 -1.411916e+00
    endloop
  endfacet
  facet normal -3.357578e-01 9.332799e-01 -1.274966e-01
    outer loop
      vertex   -3.890994e+00 1.001333e+01 -1.651959e+00
      vertex   -3.902174e+00 1.004210e+01 -1.411916e+00
      vertex   -3.683343e+00 1.011990e+01 -1.418680e+00
    endloop
  endfacet
  facet normal -3.359957e-01 9.356224e-01 -1.082481e-01
    outer loop
      vertex   -3.683343e+00 1.011990e+01 -1.418680e+00
      vertex   -3.902174e+00 1.004210e+01 -1.411916e+00
      vertex   -3.692109e+00 1.014399e+01 -1.183300e+00
    endloop
  endfacet
  facet normal -3.366876e-01 9.354555e-01 -1.075380e-01
    outer loop
      vertex   -3.692109e+00 1.014399e+01 -1.183300e+00
      vertex   -3.902174e+00 1.004210e+01 -1.411916e+00
      vertex   -3.911537e+00 1.006620e+01 -1.172980e+00
    endloop
  endfacet
  facet normal -3.365214e-01 9.374964e-01 -8.862160e-02
    outer loop
      vertex   -3.692109e+00 1.014399e+01 -1.183300e+00
      vertex   -3.911537e+00 1.006620e+01 -1.172980e+00
      vertex   -3.699289e+00 1.016371e+01 -9.473565e-01
    endloop
  endfacet
  facet normal -3.374046e-01 9.372664e-01 -8.769145e-02
    outer loop
      vertex   -3.699289e+00 1.016371e+01 -9.473565e-01
      vertex   -3.911537e+00 1.006620e+01 -1.172980e+00
      vertex   -3.919118e+00 1.008570e+01 -9.353029e-01
    endloop
  endfacet
  facet normal -3.369859e-01 9.389807e-01 -6.896248e-02
    outer loop
      vertex   -3.699289e+00 1.016371e+01 -9.473565e-01
      vertex   -3.919118e+00 1.008570e+01 -9.353029e-01
      vertex   -3.704879e+00 1.017907e+01 -7.109265e-01
    endloop
  endfacet
  facet normal -3.379149e-01 9.387194e-01 -6.796674e-02
    outer loop
      vertex   -3.704879e+00 1.017907e+01 -7.109265e-01
      vertex   -3.919118e+00 1.008570e+01 -9.353029e-01
      vertex   -3.924950e+00 1.010071e+01 -6.990303e-01
    endloop
  endfacet
  facet normal -3.373873e-01 9.400754e-01 -4.927452e-02
    outer loop
      vertex   -3.704879e+00 1.017907e+01 -7.109265e-01
      vertex   -3.924950e+00 1.010071e+01 -6.990303e-01
      vertex   -3.708875e+00 1.019005e+01 -4.740858e-01
    endloop
  endfacet
  facet normal -3.382211e-01 9.398226e-01 -4.837318e-02
    outer loop
      vertex   -3.708875e+00 1.019005e+01 -4.740858e-01
      vertex   -3.924950e+00 1.010071e+01 -6.990303e-01
      vertex   -3.929068e+00 1.011131e+01 -4.643015e-01
    endloop
  endfacet
  facet normal -3.377276e-01 9.407794e-01 -2.956613e-02
    outer loop
      vertex   -3.708875e+00 1.019005e+01 -4.740858e-01
      vertex   -3.929068e+00 1.011131e+01 -4.643015e-01
      vertex   -3.711273e+00 1.019664e+01 -2.370169e-01
    endloop
  endfacet
  facet normal -3.383259e-01 9.405845e-01 -2.891961e-02
    outer loop
      vertex   -3.711273e+00 1.019664e+01 -2.370169e-01
      vertex   -3.929068e+00 1.011131e+01 -4.643015e-01
      vertex   -3.931511e+00 1.011760e+01 -2.312493e-01
    endloop
  endfacet
  facet normal -3.380086e-01 9.410914e-01 -9.854240e-03
    outer loop
      vertex   -3.711273e+00 1.019664e+01 -2.370169e-01
      vertex   -3.931511e+00 1.011760e+01 -2.312493e-01
      vertex   -3.712072e+00 1.019883e+01 -4.163336e-16
    endloop
  endfacet
  facet normal -3.383637e-01 9.409677e-01 -9.473776e-03
    outer loop
      vertex   -3.712072e+00 1.019883e+01 -4.163336e-16
      vertex   -3.931511e+00 1.011760e+01 -2.312493e-01
      vertex   -3.935247e+00 1.011858e+01 0.000000e+00
    endloop
  endfacet
  facet normal -3.578010e-01 9.337469e-01 -9.756976e-03
    outer loop
      vertex   -3.935247e+00 1.011858e+01 0.000000e+00
      vertex   -3.931511e+00 1.011760e+01 -2.312493e-01
      vertex   -4.150939e+00 1.003352e+01 -2.312493e-01
    endloop
  endfacet
  facet normal -3.581497e-01 9.336170e-01 -9.383911e-03
    outer loop
      vertex   -3.935247e+00 1.011858e+01 0.000000e+00
      vertex   -4.150939e+00 1.003352e+01 -2.312493e-01
      vertex   -4.156655e+00 1.003365e+01 0.000000e+00
    endloop
  endfacet
  facet normal -3.773124e-01 9.260336e-01 -9.853334e-03
    outer loop
      vertex   -4.156655e+00 1.003365e+01 0.000000e+00
      vertex   -4.150939e+00 1.003352e+01 -2.312493e-01
      vertex   -4.369427e+00 9.944493e+00 -2.312493e-01
    endloop
  endfacet
  facet normal -3.777943e-01 9.258425e-01 -9.336276e-03
    outer loop
      vertex   -4.156655e+00 1.003365e+01 0.000000e+00
      vertex   -4.369427e+00 9.944493e+00 -2.312493e-01
      vertex   -4.376220e+00 9.944052e+00 0.000000e+00
    endloop
  endfacet
  facet normal -3.967527e-01 9.178721e-01 -9.908435e-03
    outer loop
      vertex   -4.376220e+00 9.944052e+00 0.000000e+00
      vertex   -4.369427e+00 9.944493e+00 -2.312493e-01
      vertex   -4.586806e+00 9.850530e+00 -2.312493e-01
    endloop
  endfacet
  facet normal -3.972911e-01 9.176453e-01 -9.326422e-03
    outer loop
      vertex   -4.376220e+00 9.944052e+00 0.000000e+00
      vertex   -4.586806e+00 9.850530e+00 -2.312493e-01
      vertex   -4.593863e+00 9.849825e+00 0.000000e+00
    endloop
  endfacet
  facet normal -4.161074e-01 9.092613e-01 -9.926194e-03
    outer loop
      vertex   -4.593863e+00 9.849825e+00 0.000000e+00
      vertex   -4.586806e+00 9.850530e+00 -2.312493e-01
      vertex   -4.802908e+00 9.751635e+00 -2.312493e-01
    endloop
  endfacet
  facet normal -4.166315e-01 9.090274e-01 -9.353114e-03
    outer loop
      vertex   -4.593863e+00 9.849825e+00 0.000000e+00
      vertex   -4.802908e+00 9.751635e+00 -2.312493e-01
      vertex   -4.809460e+00 9.751011e+00 0.000000e+00
    endloop
  endfacet
  facet normal -4.353620e-01 9.002010e-01 -9.907546e-03
    outer loop
      vertex   -4.809460e+00 9.751011e+00 0.000000e+00
      vertex   -4.802908e+00 9.751635e+00 -2.312493e-01
      vertex   -5.017562e+00 9.647822e+00 -2.312493e-01
    endloop
  endfacet
  facet normal -4.358051e-01 8.999918e-01 -9.415528e-03
    outer loop
      vertex   -4.809460e+00 9.751011e+00 0.000000e+00
      vertex   -5.017562e+00 9.647822e+00 -2.312493e-01
      vertex   -5.022891e+00 9.647661e+00 0.000000e+00
    endloop
  endfacet
  facet normal -4.545019e-01 8.906913e-01 -9.852909e-03
    outer loop
      vertex   -5.022891e+00 9.647661e+00 0.000000e+00
      vertex   -5.017562e+00 9.647822e+00 -2.312493e-01
      vertex   -5.230596e+00 9.539115e+00 -2.312493e-01
    endloop
  endfacet
  facet normal -4.548036e-01 8.905410e-01 -9.511406e-03
    outer loop
      vertex   -5.022891e+00 9.647661e+00 0.000000e+00
      vertex   -5.230596e+00 9.539115e+00 -2.312493e-01
      vertex   -5.234082e+00 9.539805e+00 0.000000e+00
    endloop
  endfacet
  facet normal -4.736198e-01 8.806753e-01 -9.765610e-03
    outer loop
      vertex   -5.234082e+00 9.539805e+00 0.000000e+00
      vertex   -5.230596e+00 9.539115e+00 -2.312493e-01
      vertex   -5.442955e+00 9.427475e+00 -2.775558e-16
    endloop
  endfacet
  facet normal -4.737477e-01 8.806048e-01 -9.917043e-03
    outer loop
      vertex   -5.442955e+00 9.427475e+00 -2.775558e-16
      vertex   -5.230596e+00 9.539115e+00 -2.312493e-01
      vertex   -5.441775e+00 9.425430e+00 -2.379144e-01
    endloop
  endfacet
  facet normal -4.731048e-01 8.805290e-01 -2.899293e-02
    outer loop
      vertex   -5.441775e+00 9.425430e+00 -2.379144e-01
      vertex   -5.230596e+00 9.539115e+00 -2.312493e-01
      vertex   -5.227346e+00 9.533188e+00 -4.643015e-01
    endloop
  endfacet
  facet normal -4.737186e-01 8.801739e-01 -2.974332e-02
    outer loop
      vertex   -5.441775e+00 9.425430e+00 -2.379144e-01
      vertex   -5.227346e+00 9.533188e+00 -4.643015e-01
      vertex   -5.438237e+00 9.419302e+00 -4.756129e-01
    endloop
  endfacet
  facet normal -4.725902e-01 8.799470e-01 -4.849536e-02
    outer loop
      vertex   -5.438237e+00 9.419302e+00 -4.756129e-01
      vertex   -5.227346e+00 9.533188e+00 -4.643015e-01
      vertex   -5.221866e+00 9.523194e+00 -6.990303e-01
    endloop
  endfacet
  facet normal -4.734348e-01 8.794340e-01 -4.955179e-02
    outer loop
      vertex   -5.438237e+00 9.419302e+00 -4.756129e-01
      vertex   -5.221866e+00 9.523194e+00 -6.990303e-01
      vertex   -5.432345e+00 9.409097e+00 -7.130183e-01
    endloop
  endfacet
  facet normal -4.719562e-01 8.789850e-01 -6.813781e-02
    outer loop
      vertex   -5.432345e+00 9.409097e+00 -7.130183e-01
      vertex   -5.221866e+00 9.523194e+00 -6.990303e-01
      vertex   -5.214108e+00 9.509045e+00 -9.353029e-01
    endloop
  endfacet
  facet normal -4.729028e-01 8.783821e-01 -6.933832e-02
    outer loop
      vertex   -5.432345e+00 9.409097e+00 -7.130183e-01
      vertex   -5.214108e+00 9.509045e+00 -9.353029e-01
      vertex   -5.424104e+00 9.394823e+00 -9.500535e-01
    endloop
  endfacet
  facet normal -4.711934e-01 8.776379e-01 -8.791144e-02
    outer loop
      vertex   -5.424104e+00 9.394823e+00 -9.500535e-01
      vertex   -5.214108e+00 9.509045e+00 -9.353029e-01
      vertex   -5.204022e+00 9.490652e+00 -1.172980e+00
    endloop
  endfacet
  facet normal -4.721258e-01 8.770169e-01 -8.909883e-02
    outer loop
      vertex   -5.424104e+00 9.394823e+00 -9.500535e-01
      vertex   -5.204022e+00 9.490652e+00 -1.172980e+00
      vertex   -5.413517e+00 9.376486e+00 -1.186641e+00
    endloop
  endfacet
  facet normal -4.702965e-01 8.758989e-01 -1.078069e-01
    outer loop
      vertex   -5.413517e+00 9.376486e+00 -1.186641e+00
      vertex   -5.204022e+00 9.490652e+00 -1.172980e+00
      vertex   -5.191564e+00 9.467932e+00 -1.411916e+00
    endloop
  endfacet
  facet normal -4.711034e-01 8.753387e-01 -1.088292e-01
    outer loop
      vertex   -5.413517e+00 9.376486e+00 -1.186641e+00
      vertex   -5.191564e+00 9.467932e+00 -1.411916e+00
      vertex   -5.400589e+00 9.354095e+00 -1.422705e+00
    endloop
  endfacet
  facet normal -3.354138e-01 9.333569e-01 -1.278380e-01
    outer loop
      vertex   -3.683343e+00 1.011990e+01 -1.418680e+00
      vertex   -3.672994e+00 1.009147e+01 -1.653421e+00
      vertex   -3.890994e+00 1.001333e+01 -1.651959e+00
    endloop
  endfacet
  facet normal -3.557417e-01 9.283730e-01 -1.075704e-01
    outer loop
      vertex   -3.911537e+00 1.006620e+01 -1.172980e+00
      vertex   -3.902174e+00 1.004210e+01 -1.411916e+00
      vertex   -4.129850e+00 9.982541e+00 -1.172980e+00
    endloop
  endfacet
  facet normal -3.557417e-01 9.283730e-01 -1.075704e-01
    outer loop
      vertex   -4.129850e+00 9.982541e+00 -1.172980e+00
      vertex   -3.902174e+00 1.004210e+01 -1.411916e+00
      vertex   -4.119964e+00 9.958643e+00 -1.411916e+00
    endloop
  endfacet
  facet normal -3.751398e-01 9.207014e-01 -1.076058e-01
    outer loop
      vertex   -4.129850e+00 9.982541e+00 -1.172980e+00
      vertex   -4.119964e+00 9.958643e+00 -1.411916e+00
      vertex   -4.347228e+00 9.893970e+00 -1.172980e+00
    endloop
  endfacet
  facet normal -3.751398e-01 9.207014e-01 -1.076058e-01
    outer loop
      vertex   -4.347228e+00 9.893970e+00 -1.172980e+00
      vertex   -4.119964e+00 9.958643e+00 -1.411916e+00
      vertex   -4.336821e+00 9.870285e+00 -1.411916e+00
    endloop
  endfacet
  facet normal -3.944668e-01 9.125837e-01 -1.076429e-01
    outer loop
      vertex   -4.347228e+00 9.893970e+00 -1.172980e+00
      vertex   -4.336821e+00 9.870285e+00 -1.411916e+00
      vertex   -4.563503e+00 9.800484e+00 -1.172980e+00
    endloop
  endfacet
  facet normal -3.944668e-01 9.125837e-01 -1.076429e-01
    outer loop
      vertex   -4.563503e+00 9.800484e+00 -1.172980e+00
      vertex   -4.336821e+00 9.870285e+00 -1.411916e+00
      vertex   -4.552579e+00 9.777023e+00 -1.411916e+00
    endloop
  endfacet
  facet normal -4.137083e-01 9.040189e-01 -1.076817e-01
    outer loop
      vertex   -4.563503e+00 9.800484e+00 -1.172980e+00
      vertex   -4.552579e+00 9.777023e+00 -1.411916e+00
      vertex   -4.778507e+00 9.702092e+00 -1.172980e+00
    endloop
  endfacet
  facet normal -4.137083e-01 9.040189e-01 -1.076817e-01
    outer loop
      vertex   -4.778507e+00 9.702092e+00 -1.172980e+00
      vertex   -4.552579e+00 9.777023e+00 -1.411916e+00
      vertex   -4.767068e+00 9.678866e+00 -1.411916e+00
    endloop
  endfacet
  facet normal -4.328499e-01 8.950067e-01 -1.077220e-01
    outer loop
      vertex   -4.778507e+00 9.702092e+00 -1.172980e+00
      vertex   -4.767068e+00 9.678866e+00 -1.411916e+00
      vertex   -4.992070e+00 9.598807e+00 -1.172980e+00
    endloop
  endfacet
  facet normal -4.328499e-01 8.950067e-01 -1.077220e-01
    outer loop
      vertex   -4.992070e+00 9.598807e+00 -1.172980e+00
      vertex   -4.767068e+00 9.678866e+00 -1.411916e+00
      vertex   -4.980120e+00 9.575828e+00 -1.411916e+00
    endloop
  endfacet
  facet normal -4.518770e-01 8.855473e-01 -1.077640e-01
    outer loop
      vertex   -4.992070e+00 9.598807e+00 -1.172980e+00
      vertex   -4.980120e+00 9.575828e+00 -1.411916e+00
      vertex   -5.204022e+00 9.490652e+00 -1.172980e+00
    endloop
  endfacet
  facet normal -4.518770e-01 8.855473e-01 -1.077640e-01
    outer loop
      vertex   -5.204022e+00 9.490652e+00 -1.172980e+00
      vertex   -4.980120e+00 9.575828e+00 -1.411916e+00
      vertex   -5.191564e+00 9.467932e+00 -1.411916e+00
    endloop
  endfacet
  facet normal -3.564387e-01 9.301919e-01 -8.771786e-02
    outer loop
      vertex   -3.919118e+00 1.008570e+01 -9.353029e-01
      vertex   -3.911537e+00 1.006620e+01 -1.172980e+00
      vertex   -4.137854e+00 1.000189e+01 -9.353029e-01
    endloop
  endfacet
  facet normal -3.564387e-01 9.301919e-01 -8.771786e-02
    outer loop
      vertex   -4.137854e+00 1.000189e+01 -9.353029e-01
      vertex   -3.911537e+00 1.006620e+01 -1.172980e+00
      vertex   -4.129850e+00 9.982541e+00 -1.172980e+00
    endloop
  endfacet
  facet normal -3.758753e-01 9.225065e-01 -8.774681e-02
    outer loop
      vertex   -4.137854e+00 1.000189e+01 -9.353029e-01
      vertex   -4.129850e+00 9.982541e+00 -1.172980e+00
      vertex   -4.355653e+00 9.913145e+00 -9.353029e-01
    endloop
  endfacet
  facet normal -3.758753e-01 9.225065e-01 -8.774681e-02
    outer loop
      vertex   -4.355653e+00 9.913145e+00 -9.353029e-01
      vertex   -4.129850e+00 9.982541e+00 -1.172980e+00
      vertex   -4.347228e+00 9.893970e+00 -1.172980e+00
    endloop
  endfacet
  facet normal -3.952407e-01 9.143741e-01 -8.777717e-02
    outer loop
      vertex   -4.355653e+00 9.913145e+00 -9.353029e-01
      vertex   -4.347228e+00 9.893970e+00 -1.172980e+00
      vertex   -4.572347e+00 9.819478e+00 -9.353029e-01
    endloop
  endfacet
  facet normal -3.952407e-01 9.143741e-01 -8.777717e-02
    outer loop
      vertex   -4.572347e+00 9.819478e+00 -9.353029e-01
      vertex   -4.347228e+00 9.893970e+00 -1.172980e+00
      vertex   -4.563503e+00 9.800484e+00 -1.172980e+00
    endloop
  endfacet
  facet normal -4.145205e-01 9.057938e-01 -8.780891e-02
    outer loop
      vertex   -4.572347e+00 9.819478e+00 -9.353029e-01
      vertex   -4.563503e+00 9.800484e+00 -1.172980e+00
      vertex   -4.787768e+00 9.720894e+00 -9.353029e-01
    endloop
  endfacet
  facet normal -4.145205e-01 9.057938e-01 -8.780891e-02
    outer loop
      vertex   -4.787768e+00 9.720894e+00 -9.353029e-01
      vertex   -4.563503e+00 9.800484e+00 -1.172980e+00
      vertex   -4.778507e+00 9.702092e+00 -1.172980e+00
    endloop
  endfacet
  facet normal -4.337004e-01 8.967652e-01 -8.784197e-02
    outer loop
      vertex   -4.787768e+00 9.720894e+00 -9.353029e-01
      vertex   -4.778507e+00 9.702092e+00 -1.172980e+00
      vertex   -5.001745e+00 9.617409e+00 -9.353029e-01
    endloop
  endfacet
  facet normal -4.337004e-01 8.967652e-01 -8.784197e-02
    outer loop
      vertex   -5.001745e+00 9.617409e+00 -9.353029e-01
      vertex   -4.778507e+00 9.702092e+00 -1.172980e+00
      vertex   -4.992070e+00 9.598807e+00 -1.172980e+00
    endloop
  endfacet
  facet normal -4.527656e-01 8.872886e-01 -8.787631e-02
    outer loop
      vertex   -5.001745e+00 9.617409e+00 -9.353029e-01
      vertex   -4.992070e+00 9.598807e+00 -1.172980e+00
      vertex   -5.214108e+00 9.509045e+00 -9.353029e-01
    endloop
  endfacet
  facet normal -4.527656e-01 8.872886e-01 -8.787631e-02
    outer loop
      vertex   -5.214108e+00 9.509045e+00 -9.353029e-01
      vertex   -4.992070e+00 9.598807e+00 -1.172980e+00
      vertex   -5.204022e+00 9.490652e+00 -1.172980e+00
    endloop
  endfacet
  facet normal -3.569901e-01 9.316307e-01 -6.798729e-02
    outer loop
      vertex   -3.924950e+00 1.010071e+01 -6.990303e-01
      vertex   -3.919118e+00 1.008570e+01 -9.353029e-01
      vertex   -4.144011e+00 1.001677e+01 -6.990303e-01
    endloop
  endfacet
  facet normal -3.569901e-01 9.316307e-01 -6.798729e-02
    outer loop
      vertex   -4.144011e+00 1.001677e+01 -6.990303e-01
      vertex   -3.919118e+00 1.008570e+01 -9.353029e-01
      vertex   -4.137854e+00 1.000189e+01 -9.353029e-01
    endloop
  endfacet
  facet normal -3.764571e-01 9.239344e-01 -6.800980e-02
    outer loop
      vertex   -4.144011e+00 1.001677e+01 -6.990303e-01
      vertex   -4.137854e+00 1.000189e+01 -9.353029e-01
      vertex   -4.362134e+00 9.927896e+00 -6.990303e-01
    endloop
  endfacet
  facet normal -3.764571e-01 9.239344e-01 -6.800980e-02
    outer loop
      vertex   -4.362134e+00 9.927896e+00 -6.990303e-01
      vertex   -4.137854e+00 1.000189e+01 -9.353029e-01
      vertex   -4.355653e+00 9.913145e+00 -9.353029e-01
    endloop
  endfacet
  facet normal -3.958529e-01 9.157904e-01 -6.803341e-02
    outer loop
      vertex   -4.362134e+00 9.927896e+00 -6.990303e-01
      vertex   -4.355653e+00 9.913145e+00 -9.353029e-01
      vertex   -4.579151e+00 9.834089e+00 -6.990303e-01
    endloop
  endfacet
  facet normal -3.958529e-01 9.157904e-01 -6.803341e-02
    outer loop
      vertex   -4.579151e+00 9.834089e+00 -6.990303e-01
      vertex   -4.355653e+00 9.913145e+00 -9.353029e-01
      vertex   -4.572347e+00 9.819478e+00 -9.353029e-01
    endloop
  endfacet
  facet normal -4.151630e-01 9.071977e-01 -6.805808e-02
    outer loop
      vertex   -4.579151e+00 9.834089e+00 -6.990303e-01
      vertex   -4.572347e+00 9.819478e+00 -9.353029e-01
      vertex   -4.794892e+00 9.735359e+00 -6.990303e-01
    endloop
  endfacet
  facet normal -4.151630e-01 9.071977e-01 -6.805808e-02
    outer loop
      vertex   -4.794892e+00 9.735359e+00 -6.990303e-01
      vertex   -4.572347e+00 9.819478e+00 -9.353029e-01
      vertex   -4.787768e+00 9.720894e+00 -9.353029e-01
    endloop
  endfacet
  facet normal -4.343731e-01 8.981562e-01 -6.808379e-02
    outer loop
      vertex   -4.794892e+00 9.735359e+00 -6.990303e-01
      vertex   -4.787768e+00 9.720894e+00 -9.353029e-01
      vertex   -5.009188e+00 9.631720e+00 -6.990303e-01
    endloop
  endfacet
  facet normal -4.343731e-01 8.981562e-01 -6.808379e-02
    outer loop
      vertex   -5.009188e+00 9.631720e+00 -6.990303e-01
      vertex   -4.787768e+00 9.720894e+00 -9.353029e-01
      vertex   -5.001745e+00 9.617409e+00 -9.353029e-01
    endloop
  endfacet
  facet normal -4.534685e-01 8.886660e-01 -6.811048e-02
    outer loop
      vertex   -5.009188e+00 9.631720e+00 -6.990303e-01
      vertex   -5.001745e+00 9.617409e+00 -9.353029e-01
      vertex   -5.221866e+00 9.523194e+00 -6.990303e-01
    endloop
  endfacet
  facet normal -4.534685e-01 8.886660e-01 -6.811048e-02
    outer loop
      vertex   -5.221866e+00 9.523194e+00 -6.990303e-01
      vertex   -5.001745e+00 9.617409e+00 -9.353029e-01
      vertex   -5.214108e+00 9.509045e+00 -9.353029e-01
    endloop
  endfacet
  facet normal -3.576682e-01 9.334005e-01 -2.892857e-02
    outer loop
      vertex   -4.150939e+00 1.003352e+01 -2.312493e-01
      vertex   -3.931511e+00 1.011760e+01 -2.312493e-01
      vertex   -3.929068e+00 1.011131e+01 -4.643015e-01
    endloop
  endfacet
  facet normal -3.573988e-01 9.326975e-01 -4.838794e-02
    outer loop
      vertex   -3.929068e+00 1.011131e+01 -4.643015e-01
      vertex   -3.924950e+00 1.010071e+01 -6.990303e-01
      vertex   -4.148359e+00 1.002728e+01 -4.643015e-01
    endloop
  endfacet
  facet normal -3.573988e-01 9.326975e-01 -4.838794e-02
    outer loop
      vertex   -4.148359e+00 1.002728e+01 -4.643015e-01
      vertex   -3.924950e+00 1.010071e+01 -6.990303e-01
      vertex   -4.144011e+00 1.001677e+01 -6.990303e-01
    endloop
  endfacet
  facet normal -3.768885e-01 9.249931e-01 -4.840400e-02
    outer loop
      vertex   -4.148359e+00 1.002728e+01 -4.643015e-01
      vertex   -4.144011e+00 1.001677e+01 -6.990303e-01
      vertex   -4.366712e+00 9.938314e+00 -4.643015e-01
    endloop
  endfacet
  facet normal -3.768885e-01 9.249931e-01 -4.840400e-02
    outer loop
      vertex   -4.366712e+00 9.938314e+00 -4.643015e-01
      vertex   -4.144011e+00 1.001677e+01 -6.990303e-01
      vertex   -4.362134e+00 9.927896e+00 -6.990303e-01
    endloop
  endfacet
  facet normal -3.963068e-01 9.168404e-01 -4.842084e-02
    outer loop
      vertex   -4.366712e+00 9.938314e+00 -4.643015e-01
      vertex   -4.362134e+00 9.927896e+00 -6.990303e-01
      vertex   -4.583956e+00 9.844409e+00 -4.643015e-01
    endloop
  endfacet
  facet normal -3.963068e-01 9.168404e-01 -4.842084e-02
    outer loop
      vertex   -4.583956e+00 9.844409e+00 -4.643015e-01
      vertex   -4.362134e+00 9.927896e+00 -6.990303e-01
      vertex   -4.579151e+00 9.834089e+00 -6.990303e-01
    endloop
  endfacet
  facet normal -4.156394e-01 9.082387e-01 -4.843844e-02
    outer loop
      vertex   -4.583956e+00 9.844409e+00 -4.643015e-01
      vertex   -4.579151e+00 9.834089e+00 -6.990303e-01
      vertex   -4.799924e+00 9.745575e+00 -4.643015e-01
    endloop
  endfacet
  facet normal -4.156394e-01 9.082387e-01 -4.843844e-02
    outer loop
      vertex   -4.799924e+00 9.745575e+00 -4.643015e-01
      vertex   -4.579151e+00 9.834089e+00 -6.990303e-01
      vertex   -4.794892e+00 9.735359e+00 -6.990303e-01
    endloop
  endfacet
  facet normal -4.348719e-01 8.991876e-01 -4.845678e-02
    outer loop
      vertex   -4.799924e+00 9.745575e+00 -4.643015e-01
      vertex   -4.794892e+00 9.735359e+00 -6.990303e-01
      vertex   -5.014444e+00 9.641827e+00 -4.643015e-01
    endloop
  endfacet
  facet normal -4.348719e-01 8.991876e-01 -4.845678e-02
    outer loop
      vertex   -5.014444e+00 9.641827e+00 -4.643015e-01
      vertex   -4.794892e+00 9.735359e+00 -6.990303e-01
      vertex   -5.009188e+00 9.631720e+00 -6.990303e-01
    endloop
  endfacet
  facet normal -4.539896e-01 8.896873e-01 -4.847582e-02
    outer loop
      vertex   -5.014444e+00 9.641827e+00 -4.643015e-01
      vertex   -5.009188e+00 9.631720e+00 -6.990303e-01
      vertex   -5.227346e+00 9.533188e+00 -4.643015e-01
    endloop
  endfacet
  facet normal -4.539896e-01 8.896873e-01 -4.847582e-02
    outer loop
      vertex   -5.227346e+00 9.533188e+00 -4.643015e-01
      vertex   -5.009188e+00 9.631720e+00 -6.990303e-01
      vertex   -5.221866e+00 9.523194e+00 -6.990303e-01
    endloop
  endfacet
  facet normal -3.771727e-01 9.256907e-01 -2.893818e-02
    outer loop
      vertex   -4.369427e+00 9.944493e+00 -2.312493e-01
      vertex   -4.150939e+00 1.003352e+01 -2.312493e-01
      vertex   -4.148359e+00 1.002728e+01 -4.643015e-01
    endloop
  endfacet
  facet normal -3.576682e-01 9.334005e-01 -2.892857e-02
    outer loop
      vertex   -4.148359e+00 1.002728e+01 -4.643015e-01
      vertex   -4.150939e+00 1.003352e+01 -2.312493e-01
      vertex   -3.929068e+00 1.011131e+01 -4.643015e-01
    endloop
  endfacet
  facet normal -3.771727e-01 9.256907e-01 -2.893818e-02
    outer loop
      vertex   -4.369427e+00 9.944493e+00 -2.312493e-01
      vertex   -4.148359e+00 1.002728e+01 -4.643015e-01
      vertex   -4.366712e+00 9.938314e+00 -4.643015e-01
    endloop
  endfacet
  facet normal -3.966059e-01 9.175324e-01 -2.894827e-02
    outer loop
      vertex   -4.586806e+00 9.850530e+00 -2.312493e-01
      vertex   -4.369427e+00 9.944493e+00 -2.312493e-01
      vertex   -4.366712e+00 9.938314e+00 -4.643015e-01
    endloop
  endfacet
  facet normal -3.966059e-01 9.175324e-01 -2.894827e-02
    outer loop
      vertex   -4.586806e+00 9.850530e+00 -2.312493e-01
      vertex   -4.366712e+00 9.938314e+00 -4.643015e-01
      vertex   -4.583956e+00 9.844409e+00 -4.643015e-01
    endloop
  endfacet
  facet normal -4.159534e-01 9.089247e-01 -2.895881e-02
    outer loop
      vertex   -4.802908e+00 9.751635e+00 -2.312493e-01
      vertex   -4.586806e+00 9.850530e+00 -2.312493e-01
      vertex   -4.583956e+00 9.844409e+00 -4.643015e-01
    endloop
  endfacet
  facet normal -4.159534e-01 9.089247e-01 -2.895881e-02
    outer loop
      vertex   -4.802908e+00 9.751635e+00 -2.312493e-01
      vertex   -4.583956e+00 9.844409e+00 -4.643015e-01
      vertex   -4.799924e+00 9.745575e+00 -4.643015e-01
    endloop
  endfacet
  facet normal -4.352006e-01 8.998673e-01 -2.896979e-02
    outer loop
      vertex   -5.017562e+00 9.647822e+00 -2.312493e-01
      vertex   -4.802908e+00 9.751635e+00 -2.312493e-01
      vertex   -4.799924e+00 9.745575e+00 -4.643015e-01
    endloop
  endfacet
  facet normal -4.352006e-01 8.998673e-01 -2.896979e-02
    outer loop
      vertex   -5.017562e+00 9.647822e+00 -2.312493e-01
      vertex   -4.799924e+00 9.745575e+00 -4.643015e-01
      vertex   -5.014444e+00 9.641827e+00 -4.643015e-01
    endloop
  endfacet
  facet normal -4.543330e-01 8.903604e-01 -2.898119e-02
    outer loop
      vertex   -5.230596e+00 9.539115e+00 -2.312493e-01
      vertex   -5.017562e+00 9.647822e+00 -2.312493e-01
      vertex   -5.014444e+00 9.641827e+00 -4.643015e-01
    endloop
  endfacet
  facet normal -4.543330e-01 8.903604e-01 -2.898119e-02
    outer loop
      vertex   -5.230596e+00 9.539115e+00 -2.312493e-01
      vertex   -5.014444e+00 9.641827e+00 -4.643015e-01
      vertex   -5.227346e+00 9.533188e+00 -4.643015e-01
    endloop
  endfacet
  facet normal 9.396926e-01 3.420201e-01 -2.222937e-10
    outer loop
      vertex   -3.661067e+00 1.005870e+01 -1.887447e+00
      vertex   -3.672994e+00 1.009147e+01 -1.653421e+00
      vertex   0.000000e+00 0.000000e+00 0.000000e+00
    endloop
  endfacet
  facet normal 9.396926e-01 3.420201e-01 -5.604464e-10
    outer loop
      vertex   0.000000e+00 0.000000e+00 0.000000e+00
      vertex   -3.672994e+00 1.009147e+01 -1.653421e+00
      vertex   -3.683343e+00 1.011990e+01 -1.418680e+00
    endloop
  endfacet
  facet normal 9.396926e-01 3.420201e-01 -7.374340e-10
    outer loop
      vertex   0.000000e+00 0.000000e+00 0.000000e+00
      vertex   -3.683343e+00 1.011990e+01 -1.418680e+00
      vertex   -3.692109e+00 1.014399e+01 -1.183300e+00
    endloop
  endfacet
  facet normal 9.396926e-01 3.420201e-01 -7.524243e-10
    outer loop
      vertex   -3.692109e+00 1.014399e+01 -1.183300e+00
      vertex   -3.699289e+00 1.016371e+01 -9.473565e-01
      vertex   0.000000e+00 0.000000e+00 0.000000e+00
    endloop
  endfacet
  facet normal 9.396926e-01 3.420201e-01 -6.047974e-10
    outer loop
      vertex   0.000000e+00 0.000000e+00 0.000000e+00
      vertex   -3.699289e+00 1.016371e+01 -9.473565e-01
      vertex   -3.704879e+00 1.017907e+01 -7.109265e-01
    endloop
  endfacet
  facet normal 9.396926e-01 3.420201e-01 -2.942138e-10
    outer loop
      vertex   0.000000e+00 0.000000e+00 0.000000e+00
      vertex   -3.704879e+00 1.017907e+01 -7.109265e-01
      vertex   -3.708875e+00 1.019005e+01 -4.740858e-01
    endloop
  endfacet
  facet normal 9.396926e-01 3.420201e-01 1.363270e-09
    outer loop
      vertex   -3.708875e+00 1.019005e+01 -4.740858e-01
      vertex   -3.711273e+00 1.019664e+01 -2.370169e-01
      vertex   0.000000e+00 0.000000e+00 0.000000e+00
    endloop
  endfacet
  facet normal 9.396926e-01 3.420201e-01 1.841217e-09
    outer loop
      vertex   0.000000e+00 0.000000e+00 0.000000e+00
      vertex   -3.711273e+00 1.019664e+01 -2.370169e-01
      vertex   -3.712072e+00 1.019883e+01 -4.163336e-16
    endloop
  endfacet
  facet normal 1.636626e-15 6.365047e-16 1.000000e+00
    outer loop
      vertex   -3.712072e+00 1.019883e+01 -4.163336e-16
      vertex   -3.935247e+00 1.011858e+01 0.000000e+00
      vertex   0.000000e+00 0.000000e+00 0.000000e+00
    endloop
  endfacet
  facet normal 0.000000e+00 0.000000e+00 1.000000e+00
    outer loop
      vertex   0.000000e+00 0.000000e+00 0.000000e+00
      vertex   -3.935247e+00 1.011858e+01 0.000000e+00
      vertex   -4.156655e+00 1.003365e+01 0.000000e+00
    endloop
  endfacet
  facet normal 0.000000e+00 0.000000e+00 1.000000e+00
    outer loop
      vertex   0.000000e+00 0.000000e+00 0.000000e+00
      vertex   -4.156655e+00 1.003365e+01 0.000000e+00
      vertex   -4.376220e+00 9.944052e+00 0.000000e+00
    endloop
  endfacet
  facet normal 0.000000e+00 0.000000e+00 1.000000e+00
    outer loop
      vertex   -4.376220e+00 9.944052e+00 0.000000e+00
      vertex   -4.593863e+00 9.849825e+00 0.000000e+00
      vertex   0.000000e+00 0.000000e+00 0.000000e+00
    endloop
  endfacet
  facet normal 0.000000e+00 0.000000e+00 1.000000e+00
    outer loop
      vertex   0.000000e+00 0.000000e+00 0.000000e+00
      vertex   -4.593863e+00 9.849825e+00 0.000000e+00
      vertex   -4.809460e+00 9.751011e+00 0.000000e+00
    endloop
  endfacet
  facet normal 0.000000e+00 0.000000e+00 1.000000e+00
    outer loop
      vertex   0.000000e+00 0.000000e+00 0.000000e+00
      vertex   -4.809460e+00 9.751011e+00 0.000000e+00
      vertex   -5.022891e+00 9.647661e+00 0.000000e+00
    endloop
  endfacet
  facet normal 0.000000e+00 0.000000e+00 1.000000e+00
    outer loop
      vertex   -5.022891e+00 9.647661e+00 0.000000e+00
      vertex   -5.234082e+00 9.539805e+00 0.000000e+00
      vertex   0.000000e+00 0.000000e+00 0.000000e+00
    endloop
  endfacet
  facet normal -1.026070e-15 -5.629606e-16 1.000000e+00
    outer loop
      vertex   0.000000e+00 0.000000e+00 0.000000e+00
      vertex   -5.234082e+00 9.539805e+00 0.000000e+00
      vertex   -5.442955e+00 9.427475e+00 -2.775558e-16
    endloop
  endfacet
  facet normal 8.419882e-02 -1.518985e-01 -9.848032e-01
    outer loop
      vertex   0.000000e+00 0.000000e+00 0.000000e+00
      vertex   -5.367726e+00 9.297175e+00 -1.892950e+00
      vertex   -2.519995e+00 4.739421e+00 -9.464750e-01
    endloop
  endfacet
  facet normal 8.516740e-02 -1.512953e-01 -9.848128e-01
    outer loop
      vertex   -2.519995e+00 4.739421e+00 -9.464750e-01
      vertex   -5.367726e+00 9.297175e+00 -1.892950e+00
      vertex   -5.161792e+00 9.408065e+00 -1.892177e+00
    endloop
  endfacet
  facet normal 8.187229e-02 -1.531582e-01 -9.848043e-01
    outer loop
      vertex   -2.519995e+00 4.739421e+00 -9.464750e-01
      vertex   -5.161792e+00 9.408065e+00 -1.892177e+00
      vertex   -4.953568e+00 9.514541e+00 -1.891425e+00
    endloop
  endfacet
  facet normal 7.882886e-02 -1.547103e-01 -9.848100e-01
    outer loop
      vertex   -2.519995e+00 4.739421e+00 -9.464750e-01
      vertex   -4.953568e+00 9.514541e+00 -1.891425e+00
      vertex   -2.353056e+00 4.824481e+00 -9.464750e-01
    endloop
  endfacet
  facet normal 7.850602e-02 -1.548889e-01 -9.848077e-01
    outer loop
      vertex   -2.353056e+00 4.824481e+00 -9.464750e-01
      vertex   -4.953568e+00 9.514541e+00 -1.891425e+00
      vertex   -4.743129e+00 9.616571e+00 -1.890697e+00
    endloop
  endfacet
  facet normal 7.511648e-02 -1.565789e-01 -9.848048e-01
    outer loop
      vertex   -2.353056e+00 4.824481e+00 -9.464750e-01
      vertex   -4.743129e+00 9.616571e+00 -1.890697e+00
      vertex   -4.530552e+00 9.714124e+00 -1.889993e+00
    endloop
  endfacet
  facet normal 7.337602e-02 -1.573554e-01 -9.848123e-01
    outer loop
      vertex   -2.353056e+00 4.824481e+00 -9.464750e-01
      vertex   -4.530552e+00 9.714124e+00 -1.889993e+00
      vertex   -2.183251e+00 4.903662e+00 -9.464750e-01
    endloop
  endfacet
  facet normal 7.168241e-02 -1.581803e-01 -9.848049e-01
    outer loop
      vertex   -2.183251e+00 4.903662e+00 -9.464750e-01
      vertex   -4.530552e+00 9.714124e+00 -1.889993e+00
      vertex   -4.315952e+00 9.807151e+00 -1.889314e+00
    endloop
  endfacet
  facet normal 6.820726e-02 -1.596923e-01 -9.848077e-01
    outer loop
      vertex   -2.183251e+00 4.903662e+00 -9.464750e-01
      vertex   -4.315952e+00 9.807151e+00 -1.889314e+00
      vertex   -4.099454e+00 9.895606e+00 -1.888663e+00
    endloop
  endfacet
  facet normal 6.784465e-02 -1.598320e-01 -9.848101e-01
    outer loop
      vertex   -2.183251e+00 4.903662e+00 -9.464750e-01
      vertex   -4.099454e+00 9.895606e+00 -1.888663e+00
      vertex   -2.010786e+00 4.976869e+00 -9.464750e-01
    endloop
  endfacet
  facet normal 6.471181e-02 -1.611612e-01 -9.848043e-01
    outer loop
      vertex   -2.010786e+00 4.976869e+00 -9.464750e-01
      vertex   -4.099454e+00 9.895606e+00 -1.888663e+00
      vertex   -3.881133e+00 9.979464e+00 -1.888040e+00
    endloop
  endfacet
  facet normal 6.116037e-02 -1.624906e-01 -9.848128e-01
    outer loop
      vertex   -2.010786e+00 4.976869e+00 -9.464750e-01
      vertex   -3.881133e+00 9.979464e+00 -1.888040e+00
      vertex   -3.661067e+00 1.005870e+01 -1.887447e+00
    endloop
  endfacet
  facet normal 6.223908e-02 -1.621385e-01 -9.848032e-01
    outer loop
      vertex   -3.661067e+00 1.005870e+01 -1.887447e+00
      vertex   0.000000e+00 0.000000e+00 0.000000e+00
      vertex   -2.010786e+00 4.976869e+00 -9.464750e-01
    endloop
  endfacet
  facet normal 6.785977e-02 -1.598676e-01 -9.848032e-01
    outer loop
      vertex   -2.010786e+00 4.976869e+00 -9.464750e-01
      vertex   0.000000e+00 0.000000e+00 0.000000e+00
      vertex   -2.183251e+00 4.903662e+00 -9.464750e-01
    endloop
  endfacet
  facet normal 7.339773e-02 -1.574019e-01 -9.848032e-01
    outer loop
      vertex   -2.183251e+00 4.903662e+00 -9.464750e-01
      vertex   0.000000e+00 0.000000e+00 0.000000e+00
      vertex   -2.353056e+00 4.824481e+00 -9.464750e-01
    endloop
  endfacet
  facet normal 7.884627e-02 -1.547445e-01 -9.848032e-01
    outer loop
      vertex   -2.353056e+00 4.824481e+00 -9.464750e-01
      vertex   0.000000e+00 0.000000e+00 0.000000e+00
      vertex   -2.519995e+00 4.739421e+00 -9.464750e-01
    endloop
  endfacet
endsolid
