solid ASCII
  facet normal 6.427876e-01 7.660444e-01 -5.270021e-16
    outer loop
      vertex   1.517841e+00 -1.273620e+00 -1.123708e+01
      vertex   1.329896e+00 -1.115915e+00 -1.128102e+01
      vertex   0.000000e+00 0.000000e+00 8.881784e-15
    endloop
  endfacet
  facet normal 6.427876e-01 7.660444e-01 -7.808624e-17
    outer loop
      vertex   0.000000e+00 0.000000e+00 8.881784e-15
      vertex   1.329896e+00 -1.115915e+00 -1.128102e+01
      vertex   1.141294e+00 -9.576598e-01 -1.131914e+01
    endloop
  endfacet
  facet normal 6.427876e-01 7.660444e-01 -3.904404e-17
    outer loop
      vertex   0.000000e+00 0.000000e+00 8.881784e-15
      vertex   1.141294e+00 -9.576598e-01 -1.131914e+01
      vertex   9.521101e-01 -7.989153e-01 -1.135143e+01
    endloop
  endfacet
  facet normal 6.427876e-01 7.660444e-01 1.268799e-16
    outer loop
      vertex   9.521101e-01 -7.989153e-01 -1.135143e+01
      vertex   7.624157e-01 -6.397428e-01 -1.137788e+01
      vertex   0.000000e+00 0.000000e+00 8.881784e-15
    endloop
  endfacet
  facet normal 6.427876e-01 7.660444e-01 1.561235e-16
    outer loop
      vertex   0.000000e+00 0.000000e+00 8.881784e-15
      vertex   7.624157e-01 -6.397428e-01 -1.137788e+01
      vertex   5.722844e-01 -4.802036e-01 -1.139847e+01
    endloop
  endfacet
  facet normal 6.427876e-01 7.660444e-01 6.827931e-17
    outer loop
      vertex   0.000000e+00 0.000000e+00 8.881784e-15
      vertex   5.722844e-01 -4.802036e-01 -1.139847e+01
      vertex   3.817893e-01 -3.203592e-01 -1.141320e+01
    endloop
  endfacet
  facet normal 6.427876e-01 7.660444e-01 4.387225e-17
    outer loop
      vertex   3.817893e-01 -3.203592e-01 -1.141320e+01
      vertex   1.910034e-01 -1.602709e-01 -1.142205e+01
      vertex   0.000000e+00 0.000000e+00 8.881784e-15
    endloop
  endfacet
  facet normal 6.427876e-01 7.660444e-01 -3.815363e-17
    outer loop
      vertex   0.000000e+00 0.000000e+00 8.881784e-15
      vertex   1.910034e-01 -1.602709e-01 -1.142205e+01
      vertex   -6.781482e-16 -8.117450e-32 -1.142500e+01
    endloop
  endfacet
  facet normal 1.298132e-01 -1.195196e-01 -9.843087e-01
    outer loop
      vertex   1.517841e+00 -1.273620e+00 -1.123708e+01
      vertex   1.460797e+00 -1.338568e+00 -1.123672e+01
      vertex   1.329896e+00 -1.115915e+00 -1.128102e+01
    endloop
  endfacet
  facet normal 1.274815e-01 -1.209171e-01 -9.844427e-01
    outer loop
      vertex   1.329896e+00 -1.115915e+00 -1.128102e+01
      vertex   1.460797e+00 -1.338568e+00 -1.123672e+01
      vertex   1.239088e+00 -1.211117e+00 -1.128108e+01
    endloop
  endfacet
  facet normal 1.112590e-01 -1.054409e-01 -9.881820e-01
    outer loop
      vertex   1.329896e+00 -1.115915e+00 -1.128102e+01
      vertex   1.239088e+00 -1.211117e+00 -1.128108e+01
      vertex   1.141294e+00 -9.576598e-01 -1.131914e+01
    endloop
  endfacet
  facet normal 1.105120e-01 -1.057370e-01 -9.882342e-01
    outer loop
      vertex   1.141294e+00 -9.576598e-01 -1.131914e+01
      vertex   1.239088e+00 -1.211117e+00 -1.128108e+01
      vertex   1.058911e+00 -1.035007e+00 -1.132007e+01
    endloop
  endfacet
  facet normal 9.469364e-02 -8.884868e-02 -9.915337e-01
    outer loop
      vertex   1.141294e+00 -9.576598e-01 -1.131914e+01
      vertex   1.058911e+00 -1.035007e+00 -1.132007e+01
      vertex   9.521101e-01 -7.989153e-01 -1.135143e+01
    endloop
  endfacet
  facet normal 9.272673e-02 -8.975233e-02 -9.916382e-01
    outer loop
      vertex   9.521101e-01 -7.989153e-01 -1.135143e+01
      vertex   1.058911e+00 -1.035007e+00 -1.132007e+01
      vertex   8.795674e-01 -8.597126e-01 -1.135271e+01
    endloop
  endfacet
  facet normal 7.806388e-02 -7.220007e-02 -9.943305e-01
    outer loop
      vertex   9.521101e-01 -7.989153e-01 -1.135143e+01
      vertex   8.795674e-01 -8.597126e-01 -1.135271e+01
      vertex   7.624157e-01 -6.397428e-01 -1.137788e+01
    endloop
  endfacet
  facet normal 7.501820e-02 -7.383523e-02 -9.944449e-01
    outer loop
      vertex   7.624157e-01 -6.397428e-01 -1.137788e+01
      vertex   8.795674e-01 -8.597126e-01 -1.135271e+01
      vertex   7.011970e-01 -6.853686e-01 -1.137911e+01
    endloop
  endfacet
  facet normal 6.138909e-02 -5.549097e-02 -9.965702e-01
    outer loop
      vertex   7.624157e-01 -6.397428e-01 -1.137788e+01
      vertex   7.011970e-01 -6.853686e-01 -1.137911e+01
      vertex   5.722844e-01 -4.802036e-01 -1.139847e+01
    endloop
  endfacet
  facet normal 5.739067e-02 -5.801226e-02 -9.966649e-01
    outer loop
      vertex   5.722844e-01 -4.802036e-01 -1.139847e+01
      vertex   7.011970e-01 -6.853686e-01 -1.137911e+01
      vertex   5.239319e-01 -5.121050e-01 -1.139940e+01
    endloop
  endfacet
  facet normal 4.468998e-02 -3.871585e-02 -9.982504e-01
    outer loop
      vertex   5.722844e-01 -4.802036e-01 -1.139847e+01
      vertex   5.239319e-01 -5.121050e-01 -1.139940e+01
      vertex   3.817893e-01 -3.203592e-01 -1.141320e+01
    endloop
  endfacet
  facet normal 3.984686e-02 -4.231035e-02 -9.983096e-01
    outer loop
      vertex   3.817893e-01 -3.203592e-01 -1.141320e+01
      vertex   5.239319e-01 -5.121050e-01 -1.139940e+01
      vertex   3.478984e-01 -3.400452e-01 -1.141372e+01
    endloop
  endfacet
  facet normal 2.798869e-02 -2.186767e-02 -9.993690e-01
    outer loop
      vertex   3.817893e-01 -3.203592e-01 -1.141320e+01
      vertex   3.478984e-01 -3.400452e-01 -1.141372e+01
      vertex   1.910034e-01 -1.602709e-01 -1.142205e+01
    endloop
  endfacet
  facet normal 2.238801e-02 -2.675661e-02 -9.993912e-01
    outer loop
      vertex   1.910034e-01 -1.602709e-01 -1.142205e+01
      vertex   3.478984e-01 -3.400452e-01 -1.141372e+01
      vertex   1.732166e-01 -1.693065e-01 -1.142220e+01
    endloop
  endfacet
  facet normal 1.130891e-02 -4.937902e-03 -9.999239e-01
    outer loop
      vertex   1.910034e-01 -1.602709e-01 -1.142205e+01
      vertex   1.732166e-01 -1.693065e-01 -1.142220e+01
      vertex   -6.781482e-16 -8.117450e-32 -1.142500e+01
    endloop
  endfacet
  facet normal 1.248296e-01 -1.254511e-01 -9.842152e-01
    outer loop
      vertex   1.460797e+00 -1.338568e+00 -1.123672e+01
      vertex   1.400975e+00 -1.400967e+00 -1.123635e+01
      vertex   1.239088e+00 -1.211117e+00 -1.128108e+01
    endloop
  endfacet
  facet normal 1.203161e-01 -1.293145e-01 -9.842773e-01
    outer loop
      vertex   1.239088e+00 -1.211117e+00 -1.128108e+01
      vertex   1.400975e+00 -1.400967e+00 -1.123635e+01
      vertex   1.176555e+00 -1.269299e+00 -1.128108e+01
    endloop
  endfacet
  facet normal 1.042935e-01 -1.120936e-01 -9.882094e-01
    outer loop
      vertex   1.239088e+00 -1.211117e+00 -1.128108e+01
      vertex   1.176555e+00 -1.269299e+00 -1.128108e+01
      vertex   1.005471e+00 -1.084728e+00 -1.132007e+01
    endloop
  endfacet
  facet normal 1.002044e-01 -1.158810e-01 -9.881957e-01
    outer loop
      vertex   1.005471e+00 -1.084728e+00 -1.132007e+01
      vertex   1.176555e+00 -1.269299e+00 -1.128108e+01
      vertex   9.575684e-01 -1.141186e+00 -1.131831e+01
    endloop
  endfacet
  facet normal 8.272801e-02 -1.011535e-01 -9.914253e-01
    outer loop
      vertex   1.005471e+00 -1.084728e+00 -1.132007e+01
      vertex   9.575684e-01 -1.141186e+00 -1.131831e+01
      vertex   7.988516e-01 -9.520342e-01 -1.135085e+01
    endloop
  endfacet
  facet normal 1.193633e-01 -1.309064e-01 -9.841829e-01
    outer loop
      vertex   1.400975e+00 -1.400967e+00 -1.123635e+01
      vertex   1.338487e+00 -1.460696e+00 -1.123598e+01
      vertex   1.176555e+00 -1.269299e+00 -1.128108e+01
    endloop
  endfacet
  facet normal 1.148281e-01 -1.347483e-01 -9.842039e-01
    outer loop
      vertex   1.176555e+00 -1.269299e+00 -1.128108e+01
      vertex   1.338487e+00 -1.460696e+00 -1.123598e+01
      vertex   1.115790e+00 -1.329747e+00 -1.127989e+01
    endloop
  endfacet
  facet normal 9.862501e-02 -1.185354e-01 -9.880397e-01
    outer loop
      vertex   1.176555e+00 -1.269299e+00 -1.128108e+01
      vertex   1.115790e+00 -1.329747e+00 -1.127989e+01
      vertex   9.575684e-01 -1.141186e+00 -1.131831e+01
    endloop
  endfacet
  facet normal 1.138793e-01 -1.363260e-01 -9.840969e-01
    outer loop
      vertex   1.338487e+00 -1.460696e+00 -1.123598e+01
      vertex   1.273454e+00 -1.517644e+00 -1.123562e+01
      vertex   1.115790e+00 -1.329747e+00 -1.127989e+01
    endloop
  endfacet
  facet normal 8.546837e-02 -9.693039e-02 -9.916147e-01
    outer loop
      vertex   1.005471e+00 -1.084728e+00 -1.132007e+01
      vertex   7.988516e-01 -9.520342e-01 -1.135085e+01
      vertex   8.351787e-01 -9.010125e-01 -1.135271e+01
    endloop
  endfacet
  facet normal 6.676682e-02 -8.371091e-02 -9.942508e-01
    outer loop
      vertex   8.351787e-01 -9.010125e-01 -1.135271e+01
      vertex   7.988516e-01 -9.520342e-01 -1.135085e+01
      vertex   6.397012e-01 -7.623662e-01 -1.137751e+01
    endloop
  endfacet
  facet normal 7.080451e-02 -7.805056e-02 -9.944319e-01
    outer loop
      vertex   8.351787e-01 -9.010125e-01 -1.135271e+01
      vertex   6.397012e-01 -7.623662e-01 -1.137751e+01
      vertex   6.658100e-01 -7.182932e-01 -1.137911e+01
    endloop
  endfacet
  facet normal 5.072960e-02 -6.623379e-02 -9.965137e-01
    outer loop
      vertex   6.658100e-01 -7.182932e-01 -1.137911e+01
      vertex   6.397012e-01 -7.623662e-01 -1.137751e+01
      vertex   4.801791e-01 -5.722551e-01 -1.139827e+01
    endloop
  endfacet
  facet normal 5.624590e-02 -5.924086e-02 -9.966579e-01
    outer loop
      vertex   6.658100e-01 -7.182932e-01 -1.137911e+01
      vertex   4.801791e-01 -5.722551e-01 -1.139827e+01
      vertex   4.974908e-01 -5.367061e-01 -1.139940e+01
    endloop
  endfacet
  facet normal 3.460223e-02 -4.875040e-02 -9.982114e-01
    outer loop
      vertex   4.974908e-01 -5.367061e-01 -1.139940e+01
      vertex   4.801791e-01 -5.722551e-01 -1.139827e+01
      vertex   3.203469e-01 -3.817746e-01 -1.141311e+01
    endloop
  endfacet
  facet normal 4.182644e-02 -4.049863e-02 -9.983038e-01
    outer loop
      vertex   4.974908e-01 -5.367061e-01 -1.139940e+01
      vertex   3.203469e-01 -3.817746e-01 -1.141311e+01
      vertex   3.303412e-01 -3.563807e-01 -1.141372e+01
    endloop
  endfacet
  facet normal 1.836821e-02 -3.129123e-02 -9.993415e-01
    outer loop
      vertex   3.303412e-01 -3.563807e-01 -1.141372e+01
      vertex   3.203469e-01 -3.817746e-01 -1.141311e+01
      vertex   1.602666e-01 -1.909983e-01 -1.142202e+01
    endloop
  endfacet
  facet normal 2.758076e-02 -2.181931e-02 -9.993814e-01
    outer loop
      vertex   3.303412e-01 -3.563807e-01 -1.141372e+01
      vertex   1.602666e-01 -1.909983e-01 -1.142202e+01
      vertex   1.644749e-01 -1.774398e-01 -1.142220e+01
    endloop
  endfacet
  facet normal 2.008622e-03 -1.388909e-02 -9.999015e-01
    outer loop
      vertex   1.644749e-01 -1.774398e-01 -1.142220e+01
      vertex   1.602666e-01 -1.909983e-01 -1.142202e+01
      vertex   -6.781482e-16 -8.117450e-32 -1.142500e+01
    endloop
  endfacet
  facet normal 7.868948e-03 -8.457462e-03 -9.999333e-01
    outer loop
      vertex   1.644749e-01 -1.774398e-01 -1.142220e+01
      vertex   -6.781482e-16 -8.117450e-32 -1.142500e+01
      vertex   1.732166e-01 -1.693065e-01 -1.142220e+01
    endloop
  endfacet
  facet normal 1.042935e-01 -1.120936e-01 -9.882094e-01
    outer loop
      vertex   1.239088e+00 -1.211117e+00 -1.128108e+01
      vertex   1.005471e+00 -1.084728e+00 -1.132007e+01
      vertex   1.058911e+00 -1.035007e+00 -1.132007e+01
    endloop
  endfacet
  facet normal 8.800159e-02 -9.458318e-02 -9.916198e-01
    outer loop
      vertex   1.058911e+00 -1.035007e+00 -1.132007e+01
      vertex   1.005471e+00 -1.084728e+00 -1.132007e+01
      vertex   8.351787e-01 -9.010125e-01 -1.135271e+01
    endloop
  endfacet
  facet normal 8.800159e-02 -9.458318e-02 -9.916198e-01
    outer loop
      vertex   1.058911e+00 -1.035007e+00 -1.132007e+01
      vertex   8.351787e-01 -9.010125e-01 -1.135271e+01
      vertex   8.795674e-01 -8.597126e-01 -1.135271e+01
    endloop
  endfacet
  facet normal 7.177903e-02 -7.714734e-02 -9.944325e-01
    outer loop
      vertex   8.795674e-01 -8.597126e-01 -1.135271e+01
      vertex   8.351787e-01 -9.010125e-01 -1.135271e+01
      vertex   6.658100e-01 -7.182932e-01 -1.137911e+01
    endloop
  endfacet
  facet normal 7.177903e-02 -7.714734e-02 -9.944325e-01
    outer loop
      vertex   8.795674e-01 -8.597126e-01 -1.135271e+01
      vertex   6.658100e-01 -7.182932e-01 -1.137911e+01
      vertex   7.011970e-01 -6.853686e-01 -1.137911e+01
    endloop
  endfacet
  facet normal 5.564063e-02 -5.980196e-02 -9.966583e-01
    outer loop
      vertex   7.011970e-01 -6.853686e-01 -1.137911e+01
      vertex   6.658100e-01 -7.182932e-01 -1.137911e+01
      vertex   4.974908e-01 -5.367061e-01 -1.139940e+01
    endloop
  endfacet
  facet normal 5.564063e-02 -5.980196e-02 -9.966583e-01
    outer loop
      vertex   7.011970e-01 -6.853686e-01 -1.137911e+01
      vertex   4.974908e-01 -5.367061e-01 -1.139940e+01
      vertex   5.239319e-01 -5.121050e-01 -1.139940e+01
    endloop
  endfacet
  facet normal 3.960056e-02 -4.256226e-02 -9.983087e-01
    outer loop
      vertex   5.239319e-01 -5.121050e-01 -1.139940e+01
      vertex   4.974908e-01 -5.367061e-01 -1.139940e+01
      vertex   3.303412e-01 -3.563807e-01 -1.141372e+01
    endloop
  endfacet
  facet normal 3.960056e-02 -4.256226e-02 -9.983087e-01
    outer loop
      vertex   5.239319e-01 -5.121050e-01 -1.139940e+01
      vertex   3.303412e-01 -3.563807e-01 -1.141372e+01
      vertex   3.478984e-01 -3.400452e-01 -1.141372e+01
    endloop
  endfacet
  facet normal 2.367237e-02 -2.544282e-02 -9.993960e-01
    outer loop
      vertex   3.478984e-01 -3.400452e-01 -1.141372e+01
      vertex   3.303412e-01 -3.563807e-01 -1.141372e+01
      vertex   1.644749e-01 -1.774398e-01 -1.142220e+01
    endloop
  endfacet
  facet normal 2.367237e-02 -2.544282e-02 -9.993960e-01
    outer loop
      vertex   3.478984e-01 -3.400452e-01 -1.141372e+01
      vertex   1.644749e-01 -1.774398e-01 -1.142220e+01
      vertex   1.732166e-01 -1.693065e-01 -1.142220e+01
    endloop
  endfacet
  facet normal -7.660444e-01 -6.427876e-01 -4.880339e-17
    outer loop
      vertex   1.273454e+00 -1.517644e+00 -1.123562e+01
      vertex   0.000000e+00 0.000000e+00 8.881784e-15
      vertex   1.115790e+00 -1.329747e+00 -1.127989e+01
    endloop
  endfacet
  facet normal -7.660444e-01 -6.427876e-01 -3.904812e-17
    outer loop
      vertex   1.115790e+00 -1.329747e+00 -1.127989e+01
      vertex   0.000000e+00 0.000000e+00 8.881784e-15
      vertex   9.575684e-01 -1.141186e+00 -1.131831e+01
    endloop
  endfacet
  facet normal -7.660444e-01 -6.427876e-01 9.762121e-18
    outer loop
      vertex   9.575684e-01 -1.141186e+00 -1.131831e+01
      vertex   0.000000e+00 0.000000e+00 8.881784e-15
      vertex   7.988516e-01 -9.520342e-01 -1.135085e+01
    endloop
  endfacet
  facet normal -7.660444e-01 -6.427876e-01 2.928285e-17
    outer loop
      vertex   7.988516e-01 -9.520342e-01 -1.135085e+01
      vertex   0.000000e+00 0.000000e+00 8.881784e-15
      vertex   6.397012e-01 -7.623662e-01 -1.137751e+01
    endloop
  endfacet
  facet normal -7.660444e-01 -6.427876e-01 -2.439630e-17
    outer loop
      vertex   6.397012e-01 -7.623662e-01 -1.137751e+01
      vertex   0.000000e+00 0.000000e+00 8.881784e-15
      vertex   4.801791e-01 -5.722551e-01 -1.139827e+01
    endloop
  endfacet
  facet normal -7.660444e-01 -6.427876e-01 0.000000e+00
    outer loop
      vertex   4.801791e-01 -5.722551e-01 -1.139827e+01
      vertex   0.000000e+00 0.000000e+00 8.881784e-15
      vertex   3.203469e-01 -3.817746e-01 -1.141311e+01
    endloop
  endfacet
  facet normal -7.660444e-01 -6.427876e-01 0.000000e+00
    outer loop
      vertex   3.203469e-01 -3.817746e-01 -1.141311e+01
      vertex   0.000000e+00 0.000000e+00 8.881784e-15
      vertex   1.602666e-01 -1.909983e-01 -1.142202e+01
    endloop
  endfacet
  facet normal -7.660444e-01 -6.427876e-01 4.384610e-17
    outer loop
      vertex   1.602666e-01 -1.909983e-01 -1.142202e+01
      vertex   0.000000e+00 0.000000e+00 8.881784e-15
      vertex   -6.781482e-16 -8.117450e-32 -1.142500e+01
    endloop
  endfacet
  facet normal 6.492617e-01 -7.403353e-01 1.742492e-01
    outer loop
      vertex   1.338487e+00 -1.460696e+00 -1.123598e+01
      vertex   9.340428e-01 -9.340393e-01 -7.491386e+00
      vertex   1.273454e+00 -1.517644e+00 -1.123562e+01
    endloop
  endfacet
  facet normal 6.653463e-01 -7.260965e-01 1.734879e-01
    outer loop
      vertex   1.273454e+00 -1.517644e+00 -1.123562e+01
      vertex   9.340428e-01 -9.340393e-01 -7.491386e+00
      vertex   4.670210e-01 -4.670201e-01 -3.745693e+00
    endloop
  endfacet
  facet normal 6.653459e-01 -7.260970e-01 1.734879e-01
    outer loop
      vertex   1.273454e+00 -1.517644e+00 -1.123562e+01
      vertex   4.670210e-01 -4.670201e-01 -3.745693e+00
      vertex   0.000000e+00 0.000000e+00 8.881784e-15
    endloop
  endfacet
  facet normal 6.810140e-01 -7.113931e-01 1.736081e-01
    outer loop
      vertex   1.338487e+00 -1.460696e+00 -1.123598e+01
      vertex   1.400975e+00 -1.400967e+00 -1.123635e+01
      vertex   9.340428e-01 -9.340393e-01 -7.491386e+00
    endloop
  endfacet
  facet normal 7.113964e-01 -6.810106e-01 1.736081e-01
    outer loop
      vertex   9.340428e-01 -9.340393e-01 -7.491386e+00
      vertex   1.400975e+00 -1.400967e+00 -1.123635e+01
      vertex   1.460797e+00 -1.338568e+00 -1.123672e+01
    endloop
  endfacet
  facet normal 7.403404e-01 -6.492560e-01 1.742491e-01
    outer loop
      vertex   9.340428e-01 -9.340393e-01 -7.491386e+00
      vertex   1.460797e+00 -1.338568e+00 -1.123672e+01
      vertex   1.517841e+00 -1.273620e+00 -1.123708e+01
    endloop
  endfacet
  facet normal 7.260980e-01 -6.653448e-01 1.734879e-01
    outer loop
      vertex   9.340428e-01 -9.340393e-01 -7.491386e+00
      vertex   1.517841e+00 -1.273620e+00 -1.123708e+01
      vertex   4.670210e-01 -4.670201e-01 -3.745693e+00
    endloop
  endfacet
  facet normal 7.260976e-01 -6.653452e-01 1.734879e-01
    outer loop
      vertex   4.670210e-01 -4.670201e-01 -3.745693e+00
      vertex   1.517841e+00 -1.273620e+00 -1.123708e+01
      vertex   0.000000e+00 0.000000e+00 8.881784e-15
    endloop
  endfacet
endsolid
