solid ASCII
  facet normal -3.162916e-15 -1.000000e+00 2.053759e-15
    outer loop
      vertex   -5.667199e+00 -2.234572e-15 -9.815876e+00
      vertex   0.000000e+00 0.000000e+00 0.000000e+00
      vertex   -5.875846e+00 -1.304700e-15 -9.684440e+00
    endloop
  endfacet
  facet normal 2.220446e-16 -1.000000e+00 1.508447e-28
    outer loop
      vertex   -5.875846e+00 -1.304700e-15 -9.684440e+00
      vertex   0.000000e+00 0.000000e+00 0.000000e+00
      vertex   -6.081487e+00 -1.350361e-15 -9.548381e+00
    endloop
  endfacet
  facet normal 2.220446e-16 -1.000000e+00 1.999104e-28
    outer loop
      vertex   -6.081487e+00 -1.350361e-15 -9.548381e+00
      vertex   0.000000e+00 0.000000e+00 0.000000e+00
      vertex   -6.284054e+00 -1.395340e-15 -9.407758e+00
    endloop
  endfacet
  facet normal 2.220446e-16 -1.000000e+00 2.249528e-28
    outer loop
      vertex   -6.284054e+00 -1.395340e-15 -9.407758e+00
      vertex   0.000000e+00 0.000000e+00 0.000000e+00
      vertex   -6.483476e+00 -1.439621e-15 -9.262629e+00
    endloop
  endfacet
  facet normal 2.220446e-16 -1.000000e+00 2.238431e-28
    outer loop
      vertex   -6.483476e+00 -1.439621e-15 -9.262629e+00
      vertex   0.000000e+00 0.000000e+00 0.000000e+00
      vertex   -6.679685e+00 -1.483188e-15 -9.113054e+00
    endloop
  endfacet
  facet normal 2.220446e-16 -1.000000e+00 1.972277e-28
    outer loop
      vertex   -6.679685e+00 -1.483188e-15 -9.113054e+00
      vertex   0.000000e+00 0.000000e+00 0.000000e+00
      vertex   -6.872611e+00 -1.526026e-15 -8.959090e+00
    endloop
  endfacet
  facet normal 2.220446e-16 -1.000000e+00 1.407291e-28
    outer loop
      vertex   -6.872611e+00 -1.526026e-15 -8.959090e+00
      vertex   0.000000e+00 0.000000e+00 0.000000e+00
      vertex   -7.062185e+00 -1.568120e-15 -8.800797e+00
    endloop
  endfacet
  facet normal 4.165668e-15 -1.000000e+00 -3.164555e-15
    outer loop
      vertex   -7.062185e+00 -1.568120e-15 -8.800797e+00
      vertex   0.000000e+00 0.000000e+00 0.000000e+00
      vertex   -7.248337e+00 -2.858014e-15 -8.638232e+00
    endloop
  endfacet
  facet normal -5.257096e-01 9.111826e-02 -8.457700e-01
    outer loop
      vertex   -5.785508e+00 1.020141e+00 -9.682470e+00
      vertex   -5.580072e+00 9.839173e-01 -9.814066e+00
      vertex   -5.803542e+00 8.895435e-01 -9.685330e+00
    endloop
  endfacet
  facet normal -5.239018e-01 8.435275e-02 -8.475916e-01
    outer loop
      vertex   -5.803542e+00 8.895435e-01 -9.685330e+00
      vertex   -5.580072e+00 9.839173e-01 -9.814066e+00
      vertex   -5.618132e+00 7.396229e-01 -9.814854e+00
    endloop
  endfacet
  facet normal -5.275631e-01 7.835830e-02 -8.458943e-01
    outer loop
      vertex   -5.803542e+00 8.895435e-01 -9.685330e+00
      vertex   -5.618132e+00 7.396229e-01 -9.814854e+00
      vertex   -5.822751e+00 7.602143e-01 -9.685330e+00
    endloop
  endfacet
  facet normal -5.289252e-01 6.607140e-02 -8.460926e-01
    outer loop
      vertex   -5.822751e+00 7.602143e-01 -9.685330e+00
      vertex   -5.618132e+00 7.396229e-01 -9.814854e+00
      vertex   -5.838832e+00 6.314841e-01 -9.685330e+00
    endloop
  endfacet
  facet normal -5.429158e-01 6.781907e-02 -8.370442e-01
    outer loop
      vertex   -5.822751e+00 7.602143e-01 -9.685330e+00
      vertex   -5.838832e+00 6.314841e-01 -9.685330e+00
      vertex   -5.940983e+00 6.425321e-01 -9.618178e+00
    endloop
  endfacet
  facet normal -5.442880e-01 5.530836e-02 -8.370732e-01
    outer loop
      vertex   -5.940983e+00 6.425321e-01 -9.618178e+00
      vertex   -5.838832e+00 6.314841e-01 -9.685330e+00
      vertex   -5.954222e+00 5.122560e-01 -9.618178e+00
    endloop
  endfacet
  facet normal -5.535244e-01 5.624693e-02 -8.309314e-01
    outer loop
      vertex   -5.940983e+00 6.425321e-01 -9.618178e+00
      vertex   -5.954222e+00 5.122560e-01 -9.618178e+00
      vertex   -6.056003e+00 5.210125e-01 -9.549784e+00
    endloop
  endfacet
  facet normal -5.551412e-01 3.734462e-02 -8.309174e-01
    outer loop
      vertex   -6.056003e+00 5.210125e-01 -9.549784e+00
      vertex   -5.954222e+00 5.122560e-01 -9.618178e+00
      vertex   -6.073660e+00 2.585334e-01 -9.549784e+00
    endloop
  endfacet
  facet normal -5.643402e-01 3.796344e-02 -8.246690e-01
    outer loop
      vertex   -6.056003e+00 5.210125e-01 -9.549784e+00
      vertex   -6.073660e+00 2.585334e-01 -9.549784e+00
      vertex   -6.175118e+00 2.628520e-01 -9.480155e+00
    endloop
  endfacet
  facet normal -5.654361e-01 1.264258e-02 -8.246952e-01
    outer loop
      vertex   -6.175118e+00 2.628520e-01 -9.480155e+00
      vertex   -6.073660e+00 2.585334e-01 -9.549784e+00
      vertex   -6.081487e+00 -1.350361e-15 -9.548381e+00
    endloop
  endfacet
  facet normal -5.702351e-01 1.008295e-02 -8.214197e-01
    outer loop
      vertex   -6.175118e+00 2.628520e-01 -9.480155e+00
      vertex   -6.081487e+00 -1.350361e-15 -9.548381e+00
      vertex   -6.284054e+00 -1.395340e-15 -9.407758e+00
    endloop
  endfacet
  facet normal -5.270669e-01 6.038255e-02 -8.476759e-01
    outer loop
      vertex   -5.618132e+00 7.396229e-01 -9.814854e+00
      vertex   -5.645373e+00 4.938882e-01 -9.815420e+00
      vertex   -5.838832e+00 6.314841e-01 -9.685330e+00
    endloop
  endfacet
  facet normal -5.305165e-01 5.390895e-02 -8.459587e-01
    outer loop
      vertex   -5.838832e+00 6.314841e-01 -9.685330e+00
      vertex   -5.645373e+00 4.938882e-01 -9.815420e+00
      vertex   -5.851842e+00 5.034480e-01 -9.685330e+00
    endloop
  endfacet
  facet normal -5.442880e-01 5.530836e-02 -8.370732e-01
    outer loop
      vertex   -5.838832e+00 6.314841e-01 -9.685330e+00
      vertex   -5.851842e+00 5.034480e-01 -9.685330e+00
      vertex   -5.954222e+00 5.122560e-01 -9.618178e+00
    endloop
  endfacet
  facet normal -5.458781e-01 3.672148e-02 -8.370595e-01
    outer loop
      vertex   -5.954222e+00 5.122560e-01 -9.618178e+00
      vertex   -5.851842e+00 5.034480e-01 -9.685330e+00
      vertex   -5.971582e+00 2.541883e-01 -9.618178e+00
    endloop
  endfacet
  facet normal -5.551412e-01 3.734462e-02 -8.309174e-01
    outer loop
      vertex   -5.954222e+00 5.122560e-01 -9.618178e+00
      vertex   -5.971582e+00 2.541883e-01 -9.618178e+00
      vertex   -6.073660e+00 2.585334e-01 -9.549784e+00
    endloop
  endfacet
  facet normal -5.562224e-01 1.232972e-02 -8.309420e-01
    outer loop
      vertex   -6.073660e+00 2.585334e-01 -9.549784e+00
      vertex   -5.971582e+00 2.541883e-01 -9.618178e+00
      vertex   -6.081487e+00 -1.350361e-15 -9.548381e+00
    endloop
  endfacet
  facet normal -5.315175e-01 3.643440e-02 -8.462634e-01
    outer loop
      vertex   -5.645373e+00 4.938882e-01 -9.815420e+00
      vertex   -5.661740e+00 2.471843e-01 -9.815762e+00
      vertex   -5.851842e+00 5.034480e-01 -9.685330e+00
    endloop
  endfacet
  facet normal -5.321312e-01 3.579672e-02 -8.459049e-01
    outer loop
      vertex   -5.851842e+00 5.034480e-01 -9.685330e+00
      vertex   -5.661740e+00 2.471843e-01 -9.815762e+00
      vertex   -5.868904e+00 2.498176e-01 -9.685330e+00
    endloop
  endfacet
  facet normal -5.458781e-01 3.672148e-02 -8.370595e-01
    outer loop
      vertex   -5.851842e+00 5.034480e-01 -9.685330e+00
      vertex   -5.868904e+00 2.498176e-01 -9.685330e+00
      vertex   -5.971582e+00 2.541883e-01 -9.618178e+00
    endloop
  endfacet
  facet normal -5.469375e-01 1.221451e-02 -8.370844e-01
    outer loop
      vertex   -5.971582e+00 2.541883e-01 -9.618178e+00
      vertex   -5.868904e+00 2.498176e-01 -9.685330e+00
      vertex   -5.875846e+00 -1.304700e-15 -9.684440e+00
    endloop
  endfacet
  facet normal -5.517649e-01 9.577870e-03 -8.339447e-01
    outer loop
      vertex   -5.971582e+00 2.541883e-01 -9.618178e+00
      vertex   -5.875846e+00 -1.304700e-15 -9.684440e+00
      vertex   -6.081487e+00 -1.350361e-15 -9.548381e+00
    endloop
  endfacet
  facet normal -5.326485e-01 1.215520e-02 -8.462493e-01
    outer loop
      vertex   -5.661740e+00 2.471843e-01 -9.815762e+00
      vertex   -5.667199e+00 -2.234572e-15 -9.815876e+00
      vertex   -5.868904e+00 2.498176e-01 -9.685330e+00
    endloop
  endfacet
  facet normal -5.329684e-01 1.179435e-02 -8.460530e-01
    outer loop
      vertex   -5.868904e+00 2.498176e-01 -9.685330e+00
      vertex   -5.667199e+00 -2.234572e-15 -9.815876e+00
      vertex   -5.875846e+00 -1.304700e-15 -9.684440e+00
    endloop
  endfacet
  facet normal -5.883882e-01 1.057293e-02 -8.085094e-01
    outer loop
      vertex   -6.483476e+00 -1.439621e-15 -9.262629e+00
      vertex   -6.376088e+00 2.714066e-01 -9.337231e+00
      vertex   -6.284054e+00 -1.395340e-15 -9.407758e+00
    endloop
  endfacet
  facet normal -5.836713e-01 1.304966e-02 -8.118852e-01
    outer loop
      vertex   -6.284054e+00 -1.395340e-15 -9.407758e+00
      vertex   -6.376088e+00 2.714066e-01 -9.337231e+00
      vertex   -6.275934e+00 2.671434e-01 -9.409301e+00
    endloop
  endfacet
  facet normal -5.745915e-01 1.273636e-02 -8.183412e-01
    outer loop
      vertex   -6.284054e+00 -1.395340e-15 -9.407758e+00
      vertex   -6.275934e+00 2.671434e-01 -9.409301e+00
      vertex   -6.175118e+00 2.628520e-01 -9.480155e+00
    endloop
  endfacet
  facet normal -5.734734e-01 3.857784e-02 -8.183154e-01
    outer loop
      vertex   -6.175118e+00 2.628520e-01 -9.480155e+00
      vertex   -6.275934e+00 2.671434e-01 -9.409301e+00
      vertex   -6.157166e+00 5.297157e-01 -9.480155e+00
    endloop
  endfacet
  facet normal -5.643402e-01 3.796344e-02 -8.246690e-01
    outer loop
      vertex   -6.175118e+00 2.628520e-01 -9.480155e+00
      vertex   -6.157166e+00 5.297157e-01 -9.480155e+00
      vertex   -6.056003e+00 5.210125e-01 -9.549784e+00
    endloop
  endfacet
  facet normal -5.626970e-01 5.717901e-02 -8.246834e-01
    outer loop
      vertex   -6.056003e+00 5.210125e-01 -9.549784e+00
      vertex   -6.157166e+00 5.297157e-01 -9.480155e+00
      vertex   -6.042539e+00 6.535156e-01 -9.549784e+00
    endloop
  endfacet
  facet normal -5.535244e-01 5.624693e-02 -8.309314e-01
    outer loop
      vertex   -6.056003e+00 5.210125e-01 -9.549784e+00
      vertex   -6.042539e+00 6.535156e-01 -9.549784e+00
      vertex   -5.940983e+00 6.425321e-01 -9.618178e+00
    endloop
  endfacet
  facet normal -5.521283e-01 6.896986e-02 -8.309016e-01
    outer loop
      vertex   -5.940983e+00 6.425321e-01 -9.618178e+00
      vertex   -6.042539e+00 6.535156e-01 -9.549784e+00
      vertex   -5.924622e+00 7.735145e-01 -9.618178e+00
    endloop
  endfacet
  facet normal -5.429158e-01 6.781907e-02 -8.370442e-01
    outer loop
      vertex   -5.940983e+00 6.425321e-01 -9.618178e+00
      vertex   -5.924622e+00 7.735145e-01 -9.618178e+00
      vertex   -5.822751e+00 7.602143e-01 -9.685330e+00
    endloop
  endfacet
  facet normal -5.412513e-01 8.039139e-02 -8.370091e-01
    outer loop
      vertex   -5.822751e+00 7.602143e-01 -9.685330e+00
      vertex   -5.924622e+00 7.735145e-01 -9.618178e+00
      vertex   -5.803542e+00 8.895435e-01 -9.685330e+00
    endloop
  endfacet
  facet normal -6.062189e-01 1.104885e-02 -7.952211e-01
    outer loop
      vertex   -6.679685e+00 -1.483188e-15 -9.113054e+00
      vertex   -6.574329e+00 2.798450e-01 -9.189481e+00
      vertex   -6.483476e+00 -1.439621e-15 -9.262629e+00
    endloop
  endfacet
  facet normal -6.016284e-01 1.343889e-02 -7.986631e-01
    outer loop
      vertex   -6.483476e+00 -1.439621e-15 -9.262629e+00
      vertex   -6.574329e+00 2.798450e-01 -9.189481e+00
      vertex   -6.475560e+00 2.756408e-01 -9.263954e+00
    endloop
  endfacet
  facet normal -5.926889e-01 1.315013e-02 -8.053241e-01
    outer loop
      vertex   -6.483476e+00 -1.439621e-15 -9.262629e+00
      vertex   -6.475560e+00 2.756408e-01 -9.263954e+00
      vertex   -6.376088e+00 2.714066e-01 -9.337231e+00
    endloop
  endfacet
  facet normal -5.915348e-01 3.979283e-02 -8.052969e-01
    outer loop
      vertex   -6.376088e+00 2.714066e-01 -9.337231e+00
      vertex   -6.475560e+00 2.756408e-01 -9.263954e+00
      vertex   -6.357552e+00 5.469554e-01 -9.337231e+00
    endloop
  endfacet
  facet normal -5.825388e-01 3.918767e-02 -8.118576e-01
    outer loop
      vertex   -6.376088e+00 2.714066e-01 -9.337231e+00
      vertex   -6.357552e+00 5.469554e-01 -9.337231e+00
      vertex   -6.257689e+00 5.383640e-01 -9.409301e+00
    endloop
  endfacet
  facet normal -5.808433e-01 5.902296e-02 -8.118728e-01
    outer loop
      vertex   -6.257689e+00 5.383640e-01 -9.409301e+00
      vertex   -6.357552e+00 5.469554e-01 -9.337231e+00
      vertex   -6.243776e+00 6.752799e-01 -9.409301e+00
    endloop
  endfacet
  facet normal -5.718039e-01 5.810441e-02 -8.183301e-01
    outer loop
      vertex   -6.257689e+00 5.383640e-01 -9.409301e+00
      vertex   -6.243776e+00 6.752799e-01 -9.409301e+00
      vertex   -6.143476e+00 6.644322e-01 -9.480155e+00
    endloop
  endfacet
  facet normal -5.703603e-01 7.124733e-02 -8.182988e-01
    outer loop
      vertex   -6.143476e+00 6.644322e-01 -9.480155e+00
      vertex   -6.243776e+00 6.752799e-01 -9.409301e+00
      vertex   -6.126557e+00 7.998790e-01 -9.480155e+00
    endloop
  endfacet
  facet normal -5.612771e-01 7.011269e-02 -8.246528e-01
    outer loop
      vertex   -6.143476e+00 6.644322e-01 -9.480155e+00
      vertex   -6.126557e+00 7.998790e-01 -9.480155e+00
      vertex   -6.025897e+00 7.867369e-01 -9.549784e+00
    endloop
  endfacet
  facet normal -5.595546e-01 8.310996e-02 -8.246159e-01
    outer loop
      vertex   -6.025897e+00 7.867369e-01 -9.549784e+00
      vertex   -6.126557e+00 7.998790e-01 -9.480155e+00
      vertex   -6.006018e+00 9.205782e-01 -9.549784e+00
    endloop
  endfacet
  facet normal -5.504347e-01 8.175540e-02 -8.308656e-01
    outer loop
      vertex   -6.025897e+00 7.867369e-01 -9.549784e+00
      vertex   -6.006018e+00 9.205782e-01 -9.549784e+00
      vertex   -5.905076e+00 9.051063e-01 -9.618178e+00
    endloop
  endfacet
  facet normal -5.483960e-01 9.485936e-02 -8.308210e-01
    outer loop
      vertex   -5.905076e+00 9.051063e-01 -9.618178e+00
      vertex   -6.006018e+00 9.205782e-01 -9.549784e+00
      vertex   -5.987953e+00 1.055838e+00 -9.546264e+00
    endloop
  endfacet
  facet normal -5.434133e-01 9.893210e-02 -8.336152e-01
    outer loop
      vertex   -5.905076e+00 9.051063e-01 -9.618178e+00
      vertex   -5.987953e+00 1.055838e+00 -9.546264e+00
      vertex   -5.785508e+00 1.020141e+00 -9.682470e+00
    endloop
  endfacet
  facet normal -6.237029e-01 1.389285e-02 -7.815380e-01
    outer loop
      vertex   -6.872611e+00 -1.526026e-15 -8.959090e+00
      vertex   -6.866223e+00 2.922699e-01 -8.958993e+00
      vertex   -6.679685e+00 -1.483188e-15 -9.113054e+00
    endloop
  endfacet
  facet normal -6.236633e-01 1.393442e-02 -7.815689e-01
    outer loop
      vertex   -6.679685e+00 -1.483188e-15 -9.113054e+00
      vertex   -6.866223e+00 2.922699e-01 -8.958993e+00
      vertex   -6.672376e+00 2.840185e-01 -9.113822e+00
    endloop
  endfacet
  facet normal -6.105002e-01 1.356773e-02 -7.918998e-01
    outer loop
      vertex   -6.679685e+00 -1.483188e-15 -9.113054e+00
      vertex   -6.672376e+00 2.840185e-01 -9.113822e+00
      vertex   -6.574329e+00 2.798450e-01 -9.189481e+00
    endloop
  endfacet
  facet normal -6.093110e-01 4.098865e-02 -7.918712e-01
    outer loop
      vertex   -6.574329e+00 2.798450e-01 -9.189481e+00
      vertex   -6.672376e+00 2.840185e-01 -9.113822e+00
      vertex   -6.555217e+00 5.639610e-01 -9.189481e+00
    endloop
  endfacet
  facet normal -6.004594e-01 4.039320e-02 -7.986344e-01
    outer loop
      vertex   -6.574329e+00 2.798450e-01 -9.189481e+00
      vertex   -6.555217e+00 5.639610e-01 -9.189481e+00
      vertex   -6.456734e+00 5.554884e-01 -9.263954e+00
    endloop
  endfacet
  facet normal -5.987124e-01 6.083874e-02 -7.986502e-01
    outer loop
      vertex   -6.456734e+00 5.554884e-01 -9.263954e+00
      vertex   -6.555217e+00 5.639610e-01 -9.189481e+00
      vertex   -6.442379e+00 6.967593e-01 -9.263954e+00
    endloop
  endfacet
  facet normal -5.898134e-01 5.993446e-02 -8.053124e-01
    outer loop
      vertex   -6.456734e+00 5.554884e-01 -9.263954e+00
      vertex   -6.442379e+00 6.967593e-01 -9.263954e+00
      vertex   -6.343417e+00 6.860563e-01 -9.337231e+00
    endloop
  endfacet
  facet normal -5.883229e-01 7.349115e-02 -8.052796e-01
    outer loop
      vertex   -6.343417e+00 6.860563e-01 -9.337231e+00
      vertex   -6.442379e+00 6.967593e-01 -9.263954e+00
      vertex   -6.325947e+00 8.259112e-01 -9.337231e+00
    endloop
  endfacet
  facet normal -5.793762e-01 7.237356e-02 -8.118407e-01
    outer loop
      vertex   -6.343417e+00 6.860563e-01 -9.337231e+00
      vertex   -6.325947e+00 8.259112e-01 -9.337231e+00
      vertex   -6.226580e+00 8.129380e-01 -9.409301e+00
    endloop
  endfacet
  facet normal -5.775965e-01 8.578970e-02 -8.118020e-01
    outer loop
      vertex   -6.226580e+00 8.129380e-01 -9.409301e+00
      vertex   -6.325947e+00 8.259112e-01 -9.337231e+00
      vertex   -6.206039e+00 9.512366e-01 -9.409301e+00
    endloop
  endfacet
  facet normal -5.686092e-01 8.445482e-02 -8.182610e-01
    outer loop
      vertex   -6.226580e+00 8.129380e-01 -9.409301e+00
      vertex   -6.206039e+00 9.512366e-01 -9.409301e+00
      vertex   -6.106345e+00 9.359560e-01 -9.480155e+00
    endloop
  endfacet
  facet normal -5.665019e-01 9.798612e-02 -8.182141e-01
    outer loop
      vertex   -6.106345e+00 9.359560e-01 -9.480155e+00
      vertex   -6.206039e+00 9.512366e-01 -9.409301e+00
      vertex   -6.187340e+00 1.090995e+00 -9.405511e+00
    endloop
  endfacet
  facet normal -5.616555e-01 1.018943e-01 -8.210729e-01
    outer loop
      vertex   -6.106345e+00 9.359560e-01 -9.480155e+00
      vertex   -6.187340e+00 1.090995e+00 -9.405511e+00
      vertex   -5.987953e+00 1.055838e+00 -9.546264e+00
    endloop
  endfacet
  facet normal -6.408723e-01 1.426345e-02 -7.675149e-01
    outer loop
      vertex   -6.872611e+00 -1.526026e-15 -8.959090e+00
      vertex   -7.062185e+00 -1.568120e-15 -8.800797e+00
      vertex   -6.866223e+00 2.922699e-01 -8.958993e+00
    endloop
  endfacet
  facet normal -6.409413e-01 1.434165e-02 -7.674559e-01
    outer loop
      vertex   -6.866223e+00 2.922699e-01 -8.958993e+00
      vertex   -7.062185e+00 -1.568120e-15 -8.800797e+00
      vertex   -7.056944e+00 3.003881e-01 -8.799560e+00
    endloop
  endfacet
  facet normal -6.396937e-01 4.303251e-02 -7.674244e-01
    outer loop
      vertex   -6.866223e+00 2.922699e-01 -8.958993e+00
      vertex   -7.056944e+00 3.003881e-01 -8.799560e+00
      vertex   -6.846262e+00 5.890003e-01 -8.958993e+00
    endloop
  endfacet
  facet normal -6.396937e-01 4.303251e-02 -7.674244e-01
    outer loop
      vertex   -6.846262e+00 5.890003e-01 -8.958993e+00
      vertex   -7.056944e+00 3.003881e-01 -8.799560e+00
      vertex   -7.036428e+00 6.053608e-01 -8.799560e+00
    endloop
  endfacet
  facet normal -6.378342e-01 6.481415e-02 -7.674416e-01
    outer loop
      vertex   -6.846262e+00 5.890003e-01 -8.958993e+00
      vertex   -7.036428e+00 6.053608e-01 -8.799560e+00
      vertex   -6.831040e+00 7.387940e-01 -8.958993e+00
    endloop
  endfacet
  facet normal -6.378342e-01 6.481415e-02 -7.674416e-01
    outer loop
      vertex   -6.831040e+00 7.387940e-01 -8.958993e+00
      vertex   -7.036428e+00 6.053608e-01 -8.799560e+00
      vertex   -7.020784e+00 7.593152e-01 -8.799560e+00
    endloop
  endfacet
  facet normal -6.362180e-01 7.947404e-02 -7.674051e-01
    outer loop
      vertex   -6.831040e+00 7.387940e-01 -8.958993e+00
      vertex   -7.020784e+00 7.593152e-01 -8.799560e+00
      vertex   -6.812227e+00 8.893996e-01 -8.958993e+00
    endloop
  endfacet
  facet normal -6.362180e-01 7.947404e-02 -7.674051e-01
    outer loop
      vertex   -6.812227e+00 8.893996e-01 -8.958993e+00
      vertex   -7.020784e+00 7.593152e-01 -8.799560e+00
      vertex   -7.001448e+00 9.141042e-01 -8.799560e+00
    endloop
  endfacet
  facet normal -6.342575e-01 9.420549e-02 -7.673609e-01
    outer loop
      vertex   -6.812227e+00 8.893996e-01 -8.958993e+00
      vertex   -7.001448e+00 9.141042e-01 -8.799560e+00
      vertex   -6.789754e+00 1.040706e+00 -8.958993e+00
    endloop
  endfacet
  facet normal -6.342575e-01 9.420549e-02 -7.673609e-01
    outer loop
      vertex   -6.789754e+00 1.040706e+00 -8.958993e+00
      vertex   -7.001448e+00 9.141042e-01 -8.799560e+00
      vertex   -6.978351e+00 1.069613e+00 -8.799560e+00
    endloop
  endfacet
  facet normal -6.319899e-01 1.087278e-01 -7.673116e-01
    outer loop
      vertex   -6.789754e+00 1.040706e+00 -8.958993e+00
      vertex   -6.978351e+00 1.069613e+00 -8.799560e+00
      vertex   -6.766484e+00 1.193114e+00 -8.956562e+00
    endloop
  endfacet
  facet normal -6.321219e-01 1.091729e-01 -7.671396e-01
    outer loop
      vertex   -6.766484e+00 1.193114e+00 -8.956562e+00
      vertex   -6.978351e+00 1.069613e+00 -8.799560e+00
      vertex   -6.952971e+00 1.225996e+00 -8.798218e+00
    endloop
  endfacet
  facet normal -6.487514e-01 1.117483e-01 -7.527509e-01
    outer loop
      vertex   -6.952971e+00 1.225996e+00 -8.798218e+00
      vertex   -6.978351e+00 1.069613e+00 -8.799560e+00
      vertex   -7.136066e+00 1.258281e+00 -8.635627e+00
    endloop
  endfacet
  facet normal -6.533290e-01 1.052859e-01 -7.497174e-01
    outer loop
      vertex   -7.136066e+00 1.258281e+00 -8.635627e+00
      vertex   -6.978351e+00 1.069613e+00 -8.799560e+00
      vertex   -7.185107e+00 9.458983e-01 -8.636760e+00
    endloop
  endfacet
  facet normal -6.508060e-01 9.666342e-02 -7.530656e-01
    outer loop
      vertex   -7.185107e+00 9.458983e-01 -8.636760e+00
      vertex   -6.978351e+00 1.069613e+00 -8.799560e+00
      vertex   -7.001448e+00 9.141042e-01 -8.799560e+00
    endloop
  endfacet
  facet normal -6.531767e-01 8.159245e-02 -7.527967e-01
    outer loop
      vertex   -7.185107e+00 9.458983e-01 -8.636760e+00
      vertex   -7.001448e+00 9.141042e-01 -8.799560e+00
      vertex   -7.020784e+00 7.593152e-01 -8.799560e+00
    endloop
  endfacet
  facet normal -6.577043e-01 1.457516e-02 -7.531352e-01
    outer loop
      vertex   -7.062185e+00 -1.568120e-15 -8.800797e+00
      vertex   -7.248337e+00 -2.858014e-15 -8.638232e+00
      vertex   -7.056944e+00 3.003881e-01 -8.799560e+00
    endloop
  endfacet
  facet normal -6.581181e-01 1.503789e-02 -7.527645e-01
    outer loop
      vertex   -7.056944e+00 3.003881e-01 -8.799560e+00
      vertex   -7.248337e+00 -2.858014e-15 -8.638232e+00
      vertex   -7.241302e+00 3.161348e-01 -8.638067e+00
    endloop
  endfacet
  facet normal -6.561417e-01 4.413897e-02 -7.533458e-01
    outer loop
      vertex   -7.056944e+00 3.003881e-01 -8.799560e+00
      vertex   -7.241302e+00 3.161348e-01 -8.638067e+00
      vertex   -7.036428e+00 6.053608e-01 -8.799560e+00
    endloop
  endfacet
  facet normal -6.569092e-01 4.508772e-02 -7.526203e-01
    outer loop
      vertex   -7.036428e+00 6.053608e-01 -8.799560e+00
      vertex   -7.241302e+00 3.161348e-01 -8.638067e+00
      vertex   -7.220210e+00 6.316459e-01 -8.637575e+00
    endloop
  endfacet
  facet normal -6.543858e-01 6.649606e-02 -7.532313e-01
    outer loop
      vertex   -7.036428e+00 6.053608e-01 -8.799560e+00
      vertex   -7.220210e+00 6.316459e-01 -8.637575e+00
      vertex   -7.020784e+00 7.593152e-01 -8.799560e+00
    endloop
  endfacet
  facet normal -6.573123e-01 7.537032e-02 -7.498399e-01
    outer loop
      vertex   -7.020784e+00 7.593152e-01 -8.799560e+00
      vertex   -7.220210e+00 6.316459e-01 -8.637575e+00
      vertex   -7.185107e+00 9.458983e-01 -8.636760e+00
    endloop
  endfacet
  facet normal -6.151836e-01 1.063829e-01 -7.811734e-01
    outer loop
      vertex   -6.766484e+00 1.193114e+00 -8.956562e+00
      vertex   -6.576672e+00 1.159645e+00 -9.110599e+00
      vertex   -6.789754e+00 1.040706e+00 -8.958993e+00
    endloop
  endfacet
  facet normal -6.149768e-01 1.056841e-01 -7.814310e-01
    outer loop
      vertex   -6.789754e+00 1.040706e+00 -8.958993e+00
      vertex   -6.576672e+00 1.159645e+00 -9.110599e+00
      vertex   -6.598066e+00 1.011325e+00 -9.113822e+00
    endloop
  endfacet
  facet normal -6.171630e-01 9.166646e-02 -7.814775e-01
    outer loop
      vertex   -6.789754e+00 1.040706e+00 -8.958993e+00
      vertex   -6.598066e+00 1.011325e+00 -9.113822e+00
      vertex   -6.812227e+00 8.893996e-01 -8.958993e+00
    endloop
  endfacet
  facet normal -6.171630e-01 9.166646e-02 -7.814775e-01
    outer loop
      vertex   -6.812227e+00 8.893996e-01 -8.958993e+00
      vertex   -6.598066e+00 1.011325e+00 -9.113822e+00
      vertex   -6.619905e+00 8.642902e-01 -9.113822e+00
    endloop
  endfacet
  facet normal -6.190688e-01 7.733182e-02 -7.815201e-01
    outer loop
      vertex   -6.812227e+00 8.893996e-01 -8.958993e+00
      vertex   -6.619905e+00 8.642902e-01 -9.113822e+00
      vertex   -6.831040e+00 7.387940e-01 -8.958993e+00
    endloop
  endfacet
  facet normal -6.190688e-01 7.733182e-02 -7.815201e-01
    outer loop
      vertex   -6.831040e+00 7.387940e-01 -8.958993e+00
      vertex   -6.619905e+00 8.642902e-01 -9.113822e+00
      vertex   -6.638187e+00 7.179364e-01 -9.113822e+00
    endloop
  endfacet
  facet normal -6.206399e-01 6.306693e-02 -7.815553e-01
    outer loop
      vertex   -6.831040e+00 7.387940e-01 -8.958993e+00
      vertex   -6.638187e+00 7.179364e-01 -9.113822e+00
      vertex   -6.846262e+00 5.890003e-01 -8.958993e+00
    endloop
  endfacet
  facet normal -6.206399e-01 6.306693e-02 -7.815553e-01
    outer loop
      vertex   -6.846262e+00 5.890003e-01 -8.958993e+00
      vertex   -6.638187e+00 7.179364e-01 -9.113822e+00
      vertex   -6.652978e+00 5.723717e-01 -9.113822e+00
    endloop
  endfacet
  facet normal -6.224500e-01 4.187251e-02 -7.815387e-01
    outer loop
      vertex   -6.846262e+00 5.890003e-01 -8.958993e+00
      vertex   -6.652978e+00 5.723717e-01 -9.113822e+00
      vertex   -6.866223e+00 2.922699e-01 -8.958993e+00
    endloop
  endfacet
  facet normal -6.224500e-01 4.187251e-02 -7.815387e-01
    outer loop
      vertex   -6.866223e+00 2.922699e-01 -8.958993e+00
      vertex   -6.652978e+00 5.723717e-01 -9.113822e+00
      vertex   -6.672376e+00 2.840185e-01 -9.113822e+00
    endloop
  endfacet
  facet normal -6.019077e-01 1.040235e-01 -7.917615e-01
    outer loop
      vertex   -6.598066e+00 1.011325e+00 -9.113822e+00
      vertex   -6.576672e+00 1.159645e+00 -9.110599e+00
      vertex   -6.501111e+00 9.964641e-01 -9.189481e+00
    endloop
  endfacet
  facet normal -5.971785e-01 1.077037e-01 -7.948445e-01
    outer loop
      vertex   -6.501111e+00 9.964641e-01 -9.189481e+00
      vertex   -6.576672e+00 1.159645e+00 -9.110599e+00
      vertex   -6.383602e+00 1.125601e+00 -9.260269e+00
    endloop
  endfacet
  facet normal -5.932333e-01 1.020931e-01 -7.985307e-01
    outer loop
      vertex   -6.501111e+00 9.964641e-01 -9.189481e+00
      vertex   -6.383602e+00 1.125601e+00 -9.260269e+00
      vertex   -6.403442e+00 9.814937e-01 -9.263954e+00
    endloop
  endfacet
  facet normal -5.843441e-01 1.010397e-01 -8.051913e-01
    outer loop
      vertex   -6.403442e+00 9.814937e-01 -9.263954e+00
      vertex   -6.383602e+00 1.125601e+00 -9.260269e+00
      vertex   -6.305078e+00 9.664169e-01 -9.337231e+00
    endloop
  endfacet
  facet normal -5.865148e-01 8.711433e-02 -8.052400e-01
    outer loop
      vertex   -6.403442e+00 9.814937e-01 -9.263954e+00
      vertex   -6.305078e+00 9.664169e-01 -9.337231e+00
      vertex   -6.424636e+00 8.387961e-01 -9.263954e+00
    endloop
  endfacet
  facet normal -5.865148e-01 8.711433e-02 -8.052400e-01
    outer loop
      vertex   -6.424636e+00 8.387961e-01 -9.263954e+00
      vertex   -6.305078e+00 9.664169e-01 -9.337231e+00
      vertex   -6.325947e+00 8.259112e-01 -9.337231e+00
    endloop
  endfacet
  facet normal -5.883229e-01 7.349115e-02 -8.052796e-01
    outer loop
      vertex   -6.424636e+00 8.387961e-01 -9.263954e+00
      vertex   -6.325947e+00 8.259112e-01 -9.337231e+00
      vertex   -6.442379e+00 6.967593e-01 -9.263954e+00
    endloop
  endfacet
  facet normal -5.795788e-01 1.048193e-01 -8.081468e-01
    outer loop
      vertex   -6.383602e+00 1.125601e+00 -9.260269e+00
      vertex   -6.187340e+00 1.090995e+00 -9.405511e+00
      vertex   -6.305078e+00 9.664169e-01 -9.337231e+00
    endloop
  endfacet
  facet normal -5.755371e-01 9.901988e-02 -8.117587e-01
    outer loop
      vertex   -6.305078e+00 9.664169e-01 -9.337231e+00
      vertex   -6.187340e+00 1.090995e+00 -9.405511e+00
      vertex   -6.206039e+00 9.512366e-01 -9.409301e+00
    endloop
  endfacet
  facet normal -5.775965e-01 8.578970e-02 -8.118020e-01
    outer loop
      vertex   -6.305078e+00 9.664169e-01 -9.337231e+00
      vertex   -6.206039e+00 9.512366e-01 -9.409301e+00
      vertex   -6.325947e+00 8.259112e-01 -9.337231e+00
    endloop
  endfacet
  facet normal -5.393225e-01 9.280523e-02 -8.369698e-01
    outer loop
      vertex   -5.905076e+00 9.051063e-01 -9.618178e+00
      vertex   -5.785508e+00 1.020141e+00 -9.682470e+00
      vertex   -5.803542e+00 8.895435e-01 -9.685330e+00
    endloop
  endfacet
  facet normal -5.575624e-01 9.592103e-02 -8.245746e-01
    outer loop
      vertex   -6.106345e+00 9.359560e-01 -9.480155e+00
      vertex   -5.987953e+00 1.055838e+00 -9.546264e+00
      vertex   -6.006018e+00 9.205782e-01 -9.549784e+00
    endloop
  endfacet
  facet normal -5.504347e-01 8.175540e-02 -8.308656e-01
    outer loop
      vertex   -6.025897e+00 7.867369e-01 -9.549784e+00
      vertex   -5.905076e+00 9.051063e-01 -9.618178e+00
      vertex   -5.924622e+00 7.735145e-01 -9.618178e+00
    endloop
  endfacet
  facet normal -5.412513e-01 8.039139e-02 -8.370091e-01
    outer loop
      vertex   -5.924622e+00 7.735145e-01 -9.618178e+00
      vertex   -5.905076e+00 9.051063e-01 -9.618178e+00
      vertex   -5.803542e+00 8.895435e-01 -9.685330e+00
    endloop
  endfacet
  facet normal -5.686092e-01 8.445482e-02 -8.182610e-01
    outer loop
      vertex   -6.226580e+00 8.129380e-01 -9.409301e+00
      vertex   -6.106345e+00 9.359560e-01 -9.480155e+00
      vertex   -6.126557e+00 7.998790e-01 -9.480155e+00
    endloop
  endfacet
  facet normal -5.595546e-01 8.310996e-02 -8.246159e-01
    outer loop
      vertex   -6.126557e+00 7.998790e-01 -9.480155e+00
      vertex   -6.106345e+00 9.359560e-01 -9.480155e+00
      vertex   -6.006018e+00 9.205782e-01 -9.549784e+00
    endloop
  endfacet
  facet normal -6.041376e-01 8.973181e-02 -7.918118e-01
    outer loop
      vertex   -6.619905e+00 8.642902e-01 -9.113822e+00
      vertex   -6.598066e+00 1.011325e+00 -9.113822e+00
      vertex   -6.501111e+00 9.964641e-01 -9.189481e+00
    endloop
  endfacet
  facet normal -5.953624e-01 8.842845e-02 -7.985762e-01
    outer loop
      vertex   -6.501111e+00 9.964641e-01 -9.189481e+00
      vertex   -6.403442e+00 9.814937e-01 -9.263954e+00
      vertex   -6.522629e+00 8.515899e-01 -9.189481e+00
    endloop
  endfacet
  facet normal -5.953624e-01 8.842845e-02 -7.985762e-01
    outer loop
      vertex   -6.522629e+00 8.515899e-01 -9.189481e+00
      vertex   -6.403442e+00 9.814937e-01 -9.263954e+00
      vertex   -6.424636e+00 8.387961e-01 -9.263954e+00
    endloop
  endfacet
  facet normal -5.971987e-01 7.459988e-02 -7.986167e-01
    outer loop
      vertex   -6.522629e+00 8.515899e-01 -9.189481e+00
      vertex   -6.424636e+00 8.387961e-01 -9.263954e+00
      vertex   -6.540642e+00 7.073867e-01 -9.189481e+00
    endloop
  endfacet
  facet normal -5.971987e-01 7.459988e-02 -7.986167e-01
    outer loop
      vertex   -6.540642e+00 7.073867e-01 -9.189481e+00
      vertex   -6.424636e+00 8.387961e-01 -9.263954e+00
      vertex   -6.442379e+00 6.967593e-01 -9.263954e+00
    endloop
  endfacet
  facet normal -5.987124e-01 6.083874e-02 -7.986502e-01
    outer loop
      vertex   -6.540642e+00 7.073867e-01 -9.189481e+00
      vertex   -6.442379e+00 6.967593e-01 -9.263954e+00
      vertex   -6.555217e+00 5.639610e-01 -9.189481e+00
    endloop
  endfacet
  facet normal -5.612771e-01 7.011269e-02 -8.246528e-01
    outer loop
      vertex   -6.143476e+00 6.644322e-01 -9.480155e+00
      vertex   -6.025897e+00 7.867369e-01 -9.549784e+00
      vertex   -6.042539e+00 6.535156e-01 -9.549784e+00
    endloop
  endfacet
  facet normal -5.521283e-01 6.896986e-02 -8.309016e-01
    outer loop
      vertex   -6.042539e+00 6.535156e-01 -9.549784e+00
      vertex   -6.025897e+00 7.867369e-01 -9.549784e+00
      vertex   -5.924622e+00 7.735145e-01 -9.618178e+00
    endloop
  endfacet
  facet normal -5.793762e-01 7.237356e-02 -8.118407e-01
    outer loop
      vertex   -6.343417e+00 6.860563e-01 -9.337231e+00
      vertex   -6.226580e+00 8.129380e-01 -9.409301e+00
      vertex   -6.243776e+00 6.752799e-01 -9.409301e+00
    endloop
  endfacet
  facet normal -5.703603e-01 7.124733e-02 -8.182988e-01
    outer loop
      vertex   -6.243776e+00 6.752799e-01 -9.409301e+00
      vertex   -6.226580e+00 8.129380e-01 -9.409301e+00
      vertex   -6.126557e+00 7.998790e-01 -9.480155e+00
    endloop
  endfacet
  facet normal -6.060018e-01 7.569953e-02 -7.918532e-01
    outer loop
      vertex   -6.638187e+00 7.179364e-01 -9.113822e+00
      vertex   -6.619905e+00 8.642902e-01 -9.113822e+00
      vertex   -6.522629e+00 8.515899e-01 -9.189481e+00
    endloop
  endfacet
  facet normal -6.041376e-01 8.973181e-02 -7.918118e-01
    outer loop
      vertex   -6.522629e+00 8.515899e-01 -9.189481e+00
      vertex   -6.619905e+00 8.642902e-01 -9.113822e+00
      vertex   -6.501111e+00 9.964641e-01 -9.189481e+00
    endloop
  endfacet
  facet normal -6.060018e-01 7.569953e-02 -7.918532e-01
    outer loop
      vertex   -6.638187e+00 7.179364e-01 -9.113822e+00
      vertex   -6.522629e+00 8.515899e-01 -9.189481e+00
      vertex   -6.540642e+00 7.073867e-01 -9.189481e+00
    endloop
  endfacet
  facet normal -5.626970e-01 5.717901e-02 -8.246834e-01
    outer loop
      vertex   -6.143476e+00 6.644322e-01 -9.480155e+00
      vertex   -6.042539e+00 6.535156e-01 -9.549784e+00
      vertex   -6.157166e+00 5.297157e-01 -9.480155e+00
    endloop
  endfacet
  facet normal -5.718039e-01 5.810441e-02 -8.183301e-01
    outer loop
      vertex   -6.143476e+00 6.644322e-01 -9.480155e+00
      vertex   -6.157166e+00 5.297157e-01 -9.480155e+00
      vertex   -6.257689e+00 5.383640e-01 -9.409301e+00
    endloop
  endfacet
  facet normal -5.734734e-01 3.857784e-02 -8.183154e-01
    outer loop
      vertex   -6.257689e+00 5.383640e-01 -9.409301e+00
      vertex   -6.157166e+00 5.297157e-01 -9.480155e+00
      vertex   -6.275934e+00 2.671434e-01 -9.409301e+00
    endloop
  endfacet
  facet normal -5.825388e-01 3.918767e-02 -8.118576e-01
    outer loop
      vertex   -6.257689e+00 5.383640e-01 -9.409301e+00
      vertex   -6.275934e+00 2.671434e-01 -9.409301e+00
      vertex   -6.376088e+00 2.714066e-01 -9.337231e+00
    endloop
  endfacet
  facet normal -5.808433e-01 5.902296e-02 -8.118728e-01
    outer loop
      vertex   -6.343417e+00 6.860563e-01 -9.337231e+00
      vertex   -6.243776e+00 6.752799e-01 -9.409301e+00
      vertex   -6.357552e+00 5.469554e-01 -9.337231e+00
    endloop
  endfacet
  facet normal -5.898134e-01 5.993446e-02 -8.053124e-01
    outer loop
      vertex   -6.343417e+00 6.860563e-01 -9.337231e+00
      vertex   -6.357552e+00 5.469554e-01 -9.337231e+00
      vertex   -6.456734e+00 5.554884e-01 -9.263954e+00
    endloop
  endfacet
  facet normal -5.915348e-01 3.979283e-02 -8.052969e-01
    outer loop
      vertex   -6.456734e+00 5.554884e-01 -9.263954e+00
      vertex   -6.357552e+00 5.469554e-01 -9.337231e+00
      vertex   -6.475560e+00 2.756408e-01 -9.263954e+00
    endloop
  endfacet
  facet normal -6.004594e-01 4.039320e-02 -7.986344e-01
    outer loop
      vertex   -6.456734e+00 5.554884e-01 -9.263954e+00
      vertex   -6.475560e+00 2.756408e-01 -9.263954e+00
      vertex   -6.574329e+00 2.798450e-01 -9.189481e+00
    endloop
  endfacet
  facet normal -6.075385e-01 6.173563e-02 -7.918874e-01
    outer loop
      vertex   -6.638187e+00 7.179364e-01 -9.113822e+00
      vertex   -6.540642e+00 7.073867e-01 -9.189481e+00
      vertex   -6.652978e+00 5.723717e-01 -9.113822e+00
    endloop
  endfacet
  facet normal -6.075385e-01 6.173563e-02 -7.918874e-01
    outer loop
      vertex   -6.652978e+00 5.723717e-01 -9.113822e+00
      vertex   -6.540642e+00 7.073867e-01 -9.189481e+00
      vertex   -6.555217e+00 5.639610e-01 -9.189481e+00
    endloop
  endfacet
  facet normal -6.093110e-01 4.098865e-02 -7.918712e-01
    outer loop
      vertex   -6.652978e+00 5.723717e-01 -9.113822e+00
      vertex   -6.555217e+00 5.639610e-01 -9.189481e+00
      vertex   -6.672376e+00 2.840185e-01 -9.113822e+00
    endloop
  endfacet
  facet normal 1.736482e-01 9.848078e-01 -1.828566e-15
    outer loop
      vertex   -5.580072e+00 9.839173e-01 -9.814066e+00
      vertex   -5.785508e+00 1.020141e+00 -9.682470e+00
      vertex   0.000000e+00 0.000000e+00 0.000000e+00
    endloop
  endfacet
  facet normal 1.736482e-01 9.848078e-01 -3.182776e-16
    outer loop
      vertex   0.000000e+00 0.000000e+00 0.000000e+00
      vertex   -5.785508e+00 1.020141e+00 -9.682470e+00
      vertex   -5.987953e+00 1.055838e+00 -9.546264e+00
    endloop
  endfacet
  facet normal 1.736482e-01 9.848078e-01 3.185045e-16
    outer loop
      vertex   0.000000e+00 0.000000e+00 0.000000e+00
      vertex   -5.987953e+00 1.055838e+00 -9.546264e+00
      vertex   -6.187340e+00 1.090995e+00 -9.405511e+00
    endloop
  endfacet
  facet normal 1.736482e-01 9.848078e-01 -3.684883e-16
    outer loop
      vertex   -6.187340e+00 1.090995e+00 -9.405511e+00
      vertex   -6.383602e+00 1.125601e+00 -9.260269e+00
      vertex   0.000000e+00 0.000000e+00 0.000000e+00
    endloop
  endfacet
  facet normal 1.736482e-01 9.848078e-01 3.188425e-16
    outer loop
      vertex   0.000000e+00 0.000000e+00 0.000000e+00
      vertex   -6.383602e+00 1.125601e+00 -9.260269e+00
      vertex   -6.576672e+00 1.159645e+00 -9.110599e+00
    endloop
  endfacet
  facet normal 1.736482e-01 9.848078e-01 6.379086e-16
    outer loop
      vertex   0.000000e+00 0.000000e+00 0.000000e+00
      vertex   -6.576672e+00 1.159645e+00 -9.110599e+00
      vertex   -6.766484e+00 1.193114e+00 -8.956562e+00
    endloop
  endfacet
  facet normal 1.736482e-01 9.848078e-01 -5.084516e-16
    outer loop
      vertex   -6.766484e+00 1.193114e+00 -8.956562e+00
      vertex   -6.952971e+00 1.225996e+00 -8.798218e+00
      vertex   0.000000e+00 0.000000e+00 0.000000e+00
    endloop
  endfacet
  facet normal 1.736482e-01 9.848078e-01 3.190650e-15
    outer loop
      vertex   0.000000e+00 0.000000e+00 0.000000e+00
      vertex   -6.952971e+00 1.225996e+00 -8.798218e+00
      vertex   -7.136066e+00 1.258281e+00 -8.635627e+00
    endloop
  endfacet
  facet normal -7.572034e-01 1.165438e-01 6.426978e-01
    outer loop
      vertex   0.000000e+00 0.000000e+00 0.000000e+00
      vertex   -7.136066e+00 1.258281e+00 -8.635627e+00
      vertex   -3.593165e+00 4.730393e-01 -4.319116e+00
    endloop
  endfacet
  facet normal -7.572036e-01 1.165430e-01 6.426978e-01
    outer loop
      vertex   -3.593165e+00 4.730393e-01 -4.319116e+00
      vertex   -7.136066e+00 1.258281e+00 -8.635627e+00
      vertex   -7.185107e+00 9.458983e-01 -8.636760e+00
    endloop
  endfacet
  facet normal -7.615664e-01 8.340298e-02 6.426979e-01
    outer loop
      vertex   -3.593165e+00 4.730393e-01 -4.319116e+00
      vertex   -7.185107e+00 9.458983e-01 -8.636760e+00
      vertex   -3.610378e+00 3.158570e-01 -4.319116e+00
    endloop
  endfacet
  facet normal -7.615667e-01 8.340074e-02 6.426978e-01
    outer loop
      vertex   -3.610378e+00 3.158570e-01 -4.319116e+00
      vertex   -7.185107e+00 9.458983e-01 -8.636760e+00
      vertex   -7.220210e+00 6.316459e-01 -8.637575e+00
    endloop
  endfacet
  facet normal -7.644795e-01 5.010484e-02 6.426979e-01
    outer loop
      vertex   -3.610378e+00 3.158570e-01 -4.319116e+00
      vertex   -7.220210e+00 6.316459e-01 -8.637575e+00
      vertex   -3.620719e+00 1.580772e-01 -4.319116e+00
    endloop
  endfacet
  facet normal -7.644797e-01 5.010321e-02 6.426978e-01
    outer loop
      vertex   -3.620719e+00 1.580772e-01 -4.319116e+00
      vertex   -7.220210e+00 6.316459e-01 -8.637575e+00
      vertex   -7.241302e+00 3.161348e-01 -8.638067e+00
    endloop
  endfacet
  facet normal -7.659375e-01 1.671119e-02 6.426979e-01
    outer loop
      vertex   -3.620719e+00 1.580772e-01 -4.319116e+00
      vertex   -7.241302e+00 3.161348e-01 -8.638067e+00
      vertex   -7.248337e+00 -2.858014e-15 -8.638232e+00
    endloop
  endfacet
  facet normal -7.659375e-01 1.671206e-02 6.426978e-01
    outer loop
      vertex   -7.248337e+00 -2.858014e-15 -8.638232e+00
      vertex   0.000000e+00 0.000000e+00 0.000000e+00
      vertex   -3.620719e+00 1.580772e-01 -4.319116e+00
    endloop
  endfacet
  facet normal -7.644796e-01 5.010485e-02 6.426978e-01
    outer loop
      vertex   -3.620719e+00 1.580772e-01 -4.319116e+00
      vertex   0.000000e+00 0.000000e+00 0.000000e+00
      vertex   -3.610378e+00 3.158570e-01 -4.319116e+00
    endloop
  endfacet
  facet normal -7.615664e-01 8.340299e-02 6.426978e-01
    outer loop
      vertex   -3.610378e+00 3.158570e-01 -4.319116e+00
      vertex   0.000000e+00 0.000000e+00 0.000000e+00
      vertex   -3.593165e+00 4.730393e-01 -4.319116e+00
    endloop
  endfacet
  facet normal 8.658708e-01 -1.889230e-02 -4.999108e-01
    outer loop
      vertex   -5.661740e+00 2.471843e-01 -9.815762e+00
      vertex   -3.774537e+00 1.647942e-01 -6.543918e+00
      vertex   -5.667199e+00 -2.234572e-15 -9.815876e+00
    endloop
  endfacet
  facet normal 8.658708e-01 -1.889262e-02 -4.999108e-01
    outer loop
      vertex   -5.667199e+00 -2.234572e-15 -9.815876e+00
      vertex   -3.774537e+00 1.647942e-01 -6.543918e+00
      vertex   -1.887268e+00 8.239851e-02 -3.271959e+00
    endloop
  endfacet
  facet normal 8.658708e-01 -1.889305e-02 -4.999108e-01
    outer loop
      vertex   -5.667199e+00 -2.234572e-15 -9.815876e+00
      vertex   -1.887268e+00 8.239851e-02 -3.271959e+00
      vertex   0.000000e+00 0.000000e+00 0.000000e+00
    endloop
  endfacet
  facet normal 8.642226e-01 -5.664337e-02 -4.999108e-01
    outer loop
      vertex   0.000000e+00 0.000000e+00 0.000000e+00
      vertex   -1.887268e+00 8.239851e-02 -3.271959e+00
      vertex   -1.881878e+00 1.646410e-01 -3.271959e+00
    endloop
  endfacet
  facet normal 8.642227e-01 -5.664192e-02 -4.999107e-01
    outer loop
      vertex   -5.661740e+00 2.471843e-01 -9.815762e+00
      vertex   -5.645373e+00 4.938882e-01 -9.815420e+00
      vertex   -3.774537e+00 1.647942e-01 -6.543918e+00
    endloop
  endfacet
  facet normal 8.642227e-01 -5.664259e-02 -4.999108e-01
    outer loop
      vertex   -3.774537e+00 1.647942e-01 -6.543918e+00
      vertex   -5.645373e+00 4.938882e-01 -9.815420e+00
      vertex   -3.763756e+00 3.292781e-01 -6.543918e+00
    endloop
  endfacet
  facet normal 8.642227e-01 -5.664259e-02 -4.999107e-01
    outer loop
      vertex   -3.774537e+00 1.647942e-01 -6.543918e+00
      vertex   -3.763756e+00 3.292781e-01 -6.543918e+00
      vertex   -1.887268e+00 8.239851e-02 -3.271959e+00
    endloop
  endfacet
  facet normal 8.642226e-01 -5.664337e-02 -4.999108e-01
    outer loop
      vertex   -1.887268e+00 8.239851e-02 -3.271959e+00
      vertex   -3.763756e+00 3.292781e-01 -6.543918e+00
      vertex   -1.881878e+00 1.646410e-01 -3.271959e+00
    endloop
  endfacet
  facet normal 8.609296e-01 -9.428424e-02 -4.999107e-01
    outer loop
      vertex   -5.645373e+00 4.938882e-01 -9.815420e+00
      vertex   -5.618132e+00 7.396229e-01 -9.814854e+00
      vertex   -3.763756e+00 3.292781e-01 -6.543918e+00
    endloop
  endfacet
  facet normal 8.609294e-01 -9.428527e-02 -4.999108e-01
    outer loop
      vertex   -3.763756e+00 3.292781e-01 -6.543918e+00
      vertex   -5.618132e+00 7.396229e-01 -9.814854e+00
      vertex   -3.745811e+00 4.931373e-01 -6.543918e+00
    endloop
  endfacet
  facet normal 8.609295e-01 -9.428527e-02 -4.999107e-01
    outer loop
      vertex   -3.763756e+00 3.292781e-01 -6.543918e+00
      vertex   -3.745811e+00 4.931373e-01 -6.543918e+00
      vertex   -1.881878e+00 1.646410e-01 -3.271959e+00
    endloop
  endfacet
  facet normal 8.609293e-01 -9.428618e-02 -4.999108e-01
    outer loop
      vertex   -1.881878e+00 1.646410e-01 -3.271959e+00
      vertex   -3.745811e+00 4.931373e-01 -6.543918e+00
      vertex   -1.872905e+00 2.465706e-01 -3.271959e+00
    endloop
  endfacet
  facet normal 8.609294e-01 -9.428618e-02 -4.999108e-01
    outer loop
      vertex   -1.881878e+00 1.646410e-01 -3.271959e+00
      vertex   -1.872905e+00 2.465706e-01 -3.271959e+00
      vertex   0.000000e+00 0.000000e+00 0.000000e+00
    endloop
  endfacet
  facet normal 8.559973e-01 -1.317493e-01 -4.999107e-01
    outer loop
      vertex   -5.618132e+00 7.396229e-01 -9.814854e+00
      vertex   -5.580072e+00 9.839173e-01 -9.814066e+00
      vertex   -3.745811e+00 4.931373e-01 -6.543918e+00
    endloop
  endfacet
  facet normal 8.559973e-01 -1.317495e-01 -4.999107e-01
    outer loop
      vertex   -3.745811e+00 4.931373e-01 -6.543918e+00
      vertex   -5.580072e+00 9.839173e-01 -9.814066e+00
      vertex   -1.872905e+00 2.465706e-01 -3.271959e+00
    endloop
  endfacet
  facet normal 8.559972e-01 -1.317501e-01 -4.999107e-01
    outer loop
      vertex   -5.580072e+00 9.839173e-01 -9.814066e+00
      vertex   0.000000e+00 0.000000e+00 0.000000e+00
      vertex   -1.872905e+00 2.465706e-01 -3.271959e+00
    endloop
  endfacet
endsolid
