solid ASCII
  facet normal 9.848078e-01 1.736482e-01 -1.073695e-11
    outer loop
      vertex   -1.855260e+00 1.052170e+01 1.883881e+00
      vertex   0.000000e+00 0.000000e+00 0.000000e+00
      vertex   -1.861282e+00 1.055585e+01 1.650279e+00
    endloop
  endfacet
  facet normal 9.848078e-01 1.736482e-01 -2.699775e-11
    outer loop
      vertex   -1.861282e+00 1.055585e+01 1.650279e+00
      vertex   0.000000e+00 0.000000e+00 0.000000e+00
      vertex   -1.866506e+00 1.058548e+01 1.415969e+00
    endloop
  endfacet
  facet normal 9.848078e-01 1.736482e-01 -3.544565e-11
    outer loop
      vertex   -1.866506e+00 1.058548e+01 1.415969e+00
      vertex   0.000000e+00 0.000000e+00 0.000000e+00
      vertex   -1.870931e+00 1.061058e+01 1.181027e+00
    endloop
  endfacet
  facet normal 9.848078e-01 1.736482e-01 -3.603611e-11
    outer loop
      vertex   -1.870931e+00 1.061058e+01 1.181027e+00
      vertex   0.000000e+00 0.000000e+00 0.000000e+00
      vertex   -1.874555e+00 1.063113e+01 9.455266e-01
    endloop
  endfacet
  facet normal 9.848078e-01 1.736482e-01 -2.873000e-11
    outer loop
      vertex   -1.874555e+00 1.063113e+01 9.455266e-01
      vertex   0.000000e+00 0.000000e+00 0.000000e+00
      vertex   -1.877377e+00 1.064713e+01 7.095450e-01
    endloop
  endfacet
  facet normal 9.848078e-01 1.736482e-01 -1.351460e-11
    outer loop
      vertex   -1.877377e+00 1.064713e+01 7.095450e-01
      vertex   0.000000e+00 0.000000e+00 0.000000e+00
      vertex   -1.879394e+00 1.065857e+01 4.731576e-01
    endloop
  endfacet
  facet normal 9.848078e-01 1.736482e-01 6.755975e-11
    outer loop
      vertex   -1.879394e+00 1.065857e+01 4.731576e-01
      vertex   0.000000e+00 0.000000e+00 0.000000e+00
      vertex   -1.880605e+00 1.066544e+01 2.365534e-01
    endloop
  endfacet
  facet normal 9.848078e-01 1.736482e-01 8.547525e-11
    outer loop
      vertex   -1.880605e+00 1.066544e+01 2.365534e-01
      vertex   0.000000e+00 0.000000e+00 0.000000e+00
      vertex   -1.881008e+00 1.066773e+01 -5.551115e-16
    endloop
  endfacet
  facet normal -3.150316e-01 9.375746e-01 1.473397e-01
    outer loop
      vertex   -3.661067e+00 1.005870e+01 1.887447e+00
      vertex   -3.439937e+00 1.013309e+01 1.886885e+00
      vertex   -3.672999e+00 1.009148e+01 1.653322e+00
    endloop
  endfacet
  facet normal -3.136810e-01 9.382569e-01 1.458705e-01
    outer loop
      vertex   -3.672999e+00 1.009148e+01 1.653322e+00
      vertex   -3.439937e+00 1.013309e+01 1.886885e+00
      vertex   -3.424210e+00 1.017562e+01 1.647161e+00
    endloop
  endfacet
  facet normal -3.148836e-01 9.404888e-01 1.277858e-01
    outer loop
      vertex   -3.672999e+00 1.009148e+01 1.653322e+00
      vertex   -3.424210e+00 1.017562e+01 1.647161e+00
      vertex   -3.683349e+00 1.011992e+01 1.418527e+00
    endloop
  endfacet
  facet normal -3.143241e-01 9.407711e-01 1.270829e-01
    outer loop
      vertex   -3.683349e+00 1.011992e+01 1.418527e+00
      vertex   -3.424210e+00 1.017562e+01 1.647161e+00
      vertex   -3.433990e+00 1.020468e+01 1.407821e+00
    endloop
  endfacet
  facet normal -3.157720e-01 9.426456e-01 1.082001e-01
    outer loop
      vertex   -3.683349e+00 1.011992e+01 1.418527e+00
      vertex   -3.433990e+00 1.020468e+01 1.407821e+00
      vertex   -3.692114e+00 1.014400e+01 1.183141e+00
    endloop
  endfacet
  facet normal -3.149814e-01 9.430256e-01 1.071891e-01
    outer loop
      vertex   -3.692114e+00 1.014400e+01 1.183141e+00
      vertex   -3.433990e+00 1.020468e+01 1.407821e+00
      vertex   -3.442181e+00 1.022902e+01 1.169584e+00
    endloop
  endfacet
  facet normal -3.164770e-01 9.444552e-01 8.858162e-02
    outer loop
      vertex   -3.692114e+00 1.014400e+01 1.183141e+00
      vertex   -3.442181e+00 1.022902e+01 1.169584e+00
      vertex   -3.699292e+00 1.016372e+01 9.472387e-01
    endloop
  endfacet
  facet normal -3.155666e-01 9.448691e-01 8.740732e-02
    outer loop
      vertex   -3.699292e+00 1.016372e+01 9.472387e-01
      vertex   -3.442181e+00 1.022902e+01 1.169584e+00
      vertex   -3.448813e+00 1.024873e+01 9.326016e-01
    endloop
  endfacet
  facet normal -3.170016e-01 9.459165e-01 6.893440e-02
    outer loop
      vertex   -3.699292e+00 1.016372e+01 9.472387e-01
      vertex   -3.448813e+00 1.024873e+01 9.326016e-01
      vertex   -3.704879e+00 1.017907e+01 7.108969e-01
    endloop
  endfacet
  facet normal -3.160807e-01 9.463104e-01 6.774702e-02
    outer loop
      vertex   -3.704879e+00 1.017907e+01 7.108969e-01
      vertex   -3.448813e+00 1.024873e+01 9.326016e-01
      vertex   -3.453915e+00 1.026389e+01 6.970169e-01
    endloop
  endfacet
  facet normal -3.173460e-01 9.470294e-01 4.926228e-02
    outer loop
      vertex   -3.704879e+00 1.017907e+01 7.108969e-01
      vertex   -3.453915e+00 1.026389e+01 6.970169e-01
      vertex   -3.708873e+00 1.019005e+01 4.741923e-01
    endloop
  endfacet
  facet normal -3.165277e-01 9.473570e-01 4.821731e-02
    outer loop
      vertex   -3.708873e+00 1.019005e+01 4.741923e-01
      vertex   -3.453915e+00 1.026389e+01 6.970169e-01
      vertex   -3.457519e+00 1.027460e+01 4.629684e-01
    endloop
  endfacet
  facet normal -3.175076e-01 9.477946e-01 2.956914e-02
    outer loop
      vertex   -3.708873e+00 1.019005e+01 4.741923e-01
      vertex   -3.457519e+00 1.027460e+01 4.629684e-01
      vertex   -3.711272e+00 1.019664e+01 2.372011e-01
    endloop
  endfacet
  facet normal -3.169151e-01 9.480157e-01 2.882681e-02
    outer loop
      vertex   -3.711272e+00 1.019664e+01 2.372011e-01
      vertex   -3.457519e+00 1.027460e+01 4.629684e-01
      vertex   -3.459656e+00 1.028095e+01 2.305877e-01
    endloop
  endfacet
  facet normal -3.174512e-01 9.482117e-01 1.092628e-02
    outer loop
      vertex   -3.711272e+00 1.019664e+01 2.372011e-01
      vertex   -3.459656e+00 1.028095e+01 2.305877e-01
      vertex   -3.487838e+00 1.027417e+01 -1.791496e-34
    endloop
  endfacet
  facet normal -2.984842e-01 9.543774e-01 8.426935e-03
    outer loop
      vertex   -3.487838e+00 1.027417e+01 -1.791496e-34
      vertex   -3.459656e+00 1.028095e+01 2.305877e-01
      vertex   -3.262093e+00 1.034478e+01 -4.812290e-34
    endloop
  endfacet
  facet normal -2.948609e-01 9.554669e-01 1.183288e-02
    outer loop
      vertex   -3.262093e+00 1.034478e+01 -4.812290e-34
      vertex   -3.459656e+00 1.028095e+01 2.305877e-01
      vertex   -3.207448e+00 1.035878e+01 2.305877e-01
    endloop
  endfacet
  facet normal -2.783824e-01 9.604400e-01 7.625703e-03
    outer loop
      vertex   -3.262093e+00 1.034478e+01 -4.812290e-34
      vertex   -3.207448e+00 1.035878e+01 2.305877e-01
      vertex   -3.034915e+00 1.041062e+01 -5.531840e-34
    endloop
  endfacet
  facet normal -2.724559e-01 9.620880e-01 1.243061e-02
    outer loop
      vertex   -3.034915e+00 1.041062e+01 -5.531840e-34
      vertex   -3.207448e+00 1.035878e+01 2.305877e-01
      vertex   -2.954928e+00 1.043029e+01 2.305877e-01
    endloop
  endfacet
  facet normal -2.581719e-01 9.660727e-01 7.135798e-03
    outer loop
      vertex   -3.034915e+00 1.041062e+01 -5.531840e-34
      vertex   -2.954928e+00 1.043029e+01 2.305877e-01
      vertex   -2.806384e+00 1.047169e+01 -4.196023e-35
    endloop
  endfacet
  facet normal -2.500537e-01 9.681482e-01 1.273814e-02
    outer loop
      vertex   -2.806384e+00 1.047169e+01 -4.196023e-35
      vertex   -2.954928e+00 1.043029e+01 2.305877e-01
      vertex   -2.702328e+00 1.049554e+01 2.305877e-01
    endloop
  endfacet
  facet normal -2.378608e-01 9.712747e-01 6.912623e-03
    outer loop
      vertex   -2.806384e+00 1.047169e+01 -4.196023e-35
      vertex   -2.702328e+00 1.049554e+01 2.305877e-01
      vertex   -2.576619e+00 1.052796e+01 5.290405e-34
    endloop
  endfacet
  facet normal -2.297347e-01 9.731840e-01 1.161117e-02
    outer loop
      vertex   -2.576619e+00 1.052796e+01 5.290405e-34
      vertex   -2.702328e+00 1.049554e+01 2.305877e-01
      vertex   -2.496463e+00 1.054413e+01 2.305877e-01
    endloop
  endfacet
  facet normal -2.174590e-01 9.760433e-01 7.143384e-03
    outer loop
      vertex   -2.576619e+00 1.052796e+01 5.290405e-34
      vertex   -2.496463e+00 1.054413e+01 2.305877e-01
      vertex   -2.345748e+00 1.057940e+01 4.812264e-34
    endloop
  endfacet
  facet normal -2.115111e-01 9.773111e-01 1.122494e-02
    outer loop
      vertex   -2.345748e+00 1.057940e+01 4.812264e-34
      vertex   -2.496463e+00 1.054413e+01 2.305877e-01
      vertex   -2.290813e+00 1.058864e+01 2.305877e-01
    endloop
  endfacet
  facet normal -1.969753e-01 9.803787e-01 7.639012e-03
    outer loop
      vertex   -2.345748e+00 1.057940e+01 4.812264e-34
      vertex   -2.290813e+00 1.058864e+01 2.305877e-01
      vertex   -2.113851e+00 1.062599e+01 1.818309e-34
    endloop
  endfacet
  facet normal -1.933219e-01 9.810786e-01 1.055614e-02
    outer loop
      vertex   -2.113851e+00 1.062599e+01 1.818309e-34
      vertex   -2.290813e+00 1.058864e+01 2.305877e-01
      vertex   -2.085496e+00 1.062910e+01 2.305877e-01
    endloop
  endfacet
  facet normal -1.764155e-01 9.842797e-01 8.434061e-03
    outer loop
      vertex   -2.113851e+00 1.062599e+01 1.818309e-34
      vertex   -2.085496e+00 1.062910e+01 2.305877e-01
      vertex   -1.881008e+00 1.066773e+01 -5.551115e-16
    endloop
  endfacet
  facet normal -1.749057e-01 9.845363e-01 9.815947e-03
    outer loop
      vertex   -1.881008e+00 1.066773e+01 -5.551115e-16
      vertex   -2.085496e+00 1.062910e+01 2.305877e-01
      vertex   -1.880605e+00 1.066544e+01 2.365534e-01
    endloop
  endfacet
  facet normal -1.753771e-01 9.840806e-01 2.878086e-02
    outer loop
      vertex   -1.880605e+00 1.066544e+01 2.365534e-01
      vertex   -2.085496e+00 1.062910e+01 2.305877e-01
      vertex   -2.084207e+00 1.062253e+01 4.629684e-01
    endloop
  endfacet
  facet normal -1.746545e-01 9.841892e-01 2.945126e-02
    outer loop
      vertex   -1.880605e+00 1.066544e+01 2.365534e-01
      vertex   -2.084207e+00 1.062253e+01 4.629684e-01
      vertex   -1.879394e+00 1.065857e+01 4.731576e-01
    endloop
  endfacet
  facet normal -1.754303e-01 9.833141e-01 4.814074e-02
    outer loop
      vertex   -1.879394e+00 1.065857e+01 4.731576e-01
      vertex   -2.084207e+00 1.062253e+01 4.629684e-01
      vertex   -2.082035e+00 1.061146e+01 6.970169e-01
    endloop
  endfacet
  facet normal -1.744196e-01 9.834473e-01 4.908364e-02
    outer loop
      vertex   -1.879394e+00 1.065857e+01 4.731576e-01
      vertex   -2.082035e+00 1.061146e+01 6.970169e-01
      vertex   -1.877377e+00 1.064713e+01 7.095450e-01
    endloop
  endfacet
  facet normal -1.753351e-01 9.821825e-01 6.763982e-02
    outer loop
      vertex   -1.877377e+00 1.064713e+01 7.095450e-01
      vertex   -2.082035e+00 1.061146e+01 6.970169e-01
      vertex   -2.078960e+00 1.059579e+01 9.326016e-01
    endloop
  endfacet
  facet normal -1.741987e-01 9.823114e-01 6.869647e-02
    outer loop
      vertex   -1.877377e+00 1.064713e+01 7.095450e-01
      vertex   -2.078960e+00 1.059579e+01 9.326016e-01
      vertex   -1.874555e+00 1.063113e+01 9.455266e-01
    endloop
  endfacet
  facet normal -1.750905e-01 9.806770e-01 8.726948e-02
    outer loop
      vertex   -1.874555e+00 1.063113e+01 9.455266e-01
      vertex   -2.078960e+00 1.059579e+01 9.326016e-01
      vertex   -2.074962e+00 1.057541e+01 1.169584e+00
    endloop
  endfacet
  facet normal -1.739888e-01 9.807825e-01 8.828115e-02
    outer loop
      vertex   -1.874555e+00 1.063113e+01 9.455266e-01
      vertex   -2.074962e+00 1.057541e+01 1.169584e+00
      vertex   -1.870931e+00 1.061058e+01 1.181027e+00
    endloop
  endfacet
  facet normal -1.746961e-01 9.787890e-01 1.070206e-01
    outer loop
      vertex   -1.870931e+00 1.061058e+01 1.181027e+00
      vertex   -2.074962e+00 1.057541e+01 1.169584e+00
      vertex   -2.070024e+00 1.055024e+01 1.407821e+00
    endloop
  endfacet
  facet normal -1.737913e-01 9.788608e-01 1.078340e-01
    outer loop
      vertex   -1.870931e+00 1.061058e+01 1.181027e+00
      vertex   -2.070024e+00 1.055024e+01 1.407821e+00
      vertex   -1.866506e+00 1.058548e+01 1.415969e+00
    endloop
  endfacet
  facet normal -1.741472e-01 9.765108e-01 1.268837e-01
    outer loop
      vertex   -1.866506e+00 1.058548e+01 1.415969e+00
      vertex   -2.070024e+00 1.055024e+01 1.407821e+00
      vertex   -2.064129e+00 1.052020e+01 1.647161e+00
    endloop
  endfacet
  facet normal -1.736117e-01 9.765453e-01 1.273512e-01
    outer loop
      vertex   -1.866506e+00 1.058548e+01 1.415969e+00
      vertex   -2.064129e+00 1.052020e+01 1.647161e+00
      vertex   -1.861282e+00 1.055585e+01 1.650279e+00
    endloop
  endfacet
  facet normal -1.734354e-01 9.738385e-01 1.468291e-01
    outer loop
      vertex   -1.861282e+00 1.055585e+01 1.650279e+00
      vertex   -2.064129e+00 1.052020e+01 1.647161e+00
      vertex   -1.855260e+00 1.052170e+01 1.883881e+00
    endloop
  endfacet
  facet normal -1.744971e-01 9.735067e-01 1.477680e-01
    outer loop
      vertex   -1.855260e+00 1.052170e+01 1.883881e+00
      vertex   -2.064129e+00 1.052020e+01 1.647161e+00
      vertex   -2.084901e+00 1.048049e+01 1.884205e+00
    endloop
  endfacet
  facet normal -1.912662e-01 9.706462e-01 1.458193e-01
    outer loop
      vertex   -2.084901e+00 1.048049e+01 1.884205e+00
      vertex   -2.064129e+00 1.052020e+01 1.647161e+00
      vertex   -2.267342e+00 1.048015e+01 1.647161e+00
    endloop
  endfacet
  facet normal -1.948075e-01 9.695277e-01 1.485465e-01
    outer loop
      vertex   -2.084901e+00 1.048049e+01 1.884205e+00
      vertex   -2.267342e+00 1.048015e+01 1.647161e+00
      vertex   -2.313607e+00 1.043448e+01 1.884565e+00
    endloop
  endfacet
  facet normal -2.092814e-01 9.670089e-01 1.452414e-01
    outer loop
      vertex   -2.313607e+00 1.043448e+01 1.884565e+00
      vertex   -2.267342e+00 1.048015e+01 1.647161e+00
      vertex   -2.470885e+00 1.043610e+01 1.647161e+00
    endloop
  endfacet
  facet normal -2.150475e-01 9.651627e-01 1.490487e-01
    outer loop
      vertex   -2.313607e+00 1.043448e+01 1.884565e+00
      vertex   -2.470885e+00 1.043610e+01 1.647161e+00
      vertex   -2.541298e+00 1.038369e+01 1.884961e+00
    endloop
  endfacet
  facet normal -2.273245e-01 9.629738e-01 1.449311e-01
    outer loop
      vertex   -2.541298e+00 1.038369e+01 1.884961e+00
      vertex   -2.470885e+00 1.043610e+01 1.647161e+00
      vertex   -2.674641e+00 1.038800e+01 1.647161e+00
    endloop
  endfacet
  facet normal -2.352128e-01 9.604073e-01 1.493078e-01
    outer loop
      vertex   -2.541298e+00 1.038369e+01 1.884961e+00
      vertex   -2.674641e+00 1.038800e+01 1.647161e+00
      vertex   -2.767895e+00 1.032813e+01 1.885392e+00
    endloop
  endfacet
  facet normal -2.474698e-01 9.581439e-01 1.439410e-01
    outer loop
      vertex   -2.767895e+00 1.032813e+01 1.885392e+00
      vertex   -2.674641e+00 1.038800e+01 1.647161e+00
      vertex   -2.924653e+00 1.032343e+01 1.647161e+00
    endloop
  endfacet
  facet normal -2.553045e-01 9.552869e-01 1.491526e-01
    outer loop
      vertex   -2.767895e+00 1.032813e+01 1.885392e+00
      vertex   -2.924653e+00 1.032343e+01 1.647161e+00
      vertex   -2.993273e+00 1.026782e+01 1.885857e+00
    endloop
  endfacet
  facet normal -2.696255e-01 9.520935e-01 1.442917e-01
    outer loop
      vertex   -2.993273e+00 1.026782e+01 1.885857e+00
      vertex   -2.924653e+00 1.032343e+01 1.647161e+00
      vertex   -3.174586e+00 1.025265e+01 1.647161e+00
    endloop
  endfacet
  facet normal -2.753092e-01 9.497770e-01 1.487563e-01
    outer loop
      vertex   -2.993273e+00 1.026782e+01 1.885857e+00
      vertex   -3.174586e+00 1.025265e+01 1.647161e+00
      vertex   -3.217313e+00 1.020280e+01 1.886355e+00
    endloop
  endfacet
  facet normal -2.917688e-01 9.454475e-01 1.449139e-01
    outer loop
      vertex   -3.217313e+00 1.020280e+01 1.886355e+00
      vertex   -3.174586e+00 1.025265e+01 1.647161e+00
      vertex   -3.424210e+00 1.017562e+01 1.647161e+00
    endloop
  endfacet
  facet normal -2.952231e-01 9.438833e-01 1.480795e-01
    outer loop
      vertex   -3.217313e+00 1.020280e+01 1.886355e+00
      vertex   -3.424210e+00 1.017562e+01 1.647161e+00
      vertex   -3.439937e+00 1.013309e+01 1.886885e+00
    endloop
  endfacet
  facet normal -3.184696e-01 9.478818e-01 9.859156e-03
    outer loop
      vertex   -3.487838e+00 1.027417e+01 -1.791496e-34
      vertex   -3.712072e+00 1.019883e+01 -2.775558e-16
      vertex   -3.711272e+00 1.019664e+01 2.372011e-01
    endloop
  endfacet
  facet normal -2.924922e-01 9.477913e-01 1.270432e-01
    outer loop
      vertex   -3.433990e+00 1.020468e+01 1.407821e+00
      vertex   -3.424210e+00 1.017562e+01 1.647161e+00
      vertex   -3.183653e+00 1.028193e+01 1.407821e+00
    endloop
  endfacet
  facet normal -2.924922e-01 9.477913e-01 1.270432e-01
    outer loop
      vertex   -3.183653e+00 1.028193e+01 1.407821e+00
      vertex   -3.424210e+00 1.017562e+01 1.647161e+00
      vertex   -3.174586e+00 1.025265e+01 1.647161e+00
    endloop
  endfacet
  facet normal -2.702704e-01 9.543706e-01 1.270064e-01
    outer loop
      vertex   -3.183653e+00 1.028193e+01 1.407821e+00
      vertex   -3.174586e+00 1.025265e+01 1.647161e+00
      vertex   -2.933006e+00 1.035291e+01 1.407821e+00
    endloop
  endfacet
  facet normal -2.702704e-01 9.543706e-01 1.270064e-01
    outer loop
      vertex   -2.933006e+00 1.035291e+01 1.407821e+00
      vertex   -3.174586e+00 1.025265e+01 1.647161e+00
      vertex   -2.924653e+00 1.032343e+01 1.647161e+00
    endloop
  endfacet
  facet normal -2.480500e-01 9.603901e-01 1.269724e-01
    outer loop
      vertex   -2.933006e+00 1.035291e+01 1.407821e+00
      vertex   -2.924653e+00 1.032343e+01 1.647161e+00
      vertex   -2.682280e+00 1.041767e+01 1.407821e+00
    endloop
  endfacet
  facet normal -2.480500e-01 9.603901e-01 1.269724e-01
    outer loop
      vertex   -2.682280e+00 1.041767e+01 1.407821e+00
      vertex   -2.924653e+00 1.032343e+01 1.647161e+00
      vertex   -2.674641e+00 1.038800e+01 1.647161e+00
    endloop
  endfacet
  facet normal -2.278914e-01 9.653755e-01 1.269470e-01
    outer loop
      vertex   -2.682280e+00 1.041767e+01 1.407821e+00
      vertex   -2.674641e+00 1.038800e+01 1.647161e+00
      vertex   -2.477942e+00 1.046591e+01 1.407821e+00
    endloop
  endfacet
  facet normal -2.278914e-01 9.653755e-01 1.269470e-01
    outer loop
      vertex   -2.477942e+00 1.046591e+01 1.407821e+00
      vertex   -2.674641e+00 1.038800e+01 1.647161e+00
      vertex   -2.470885e+00 1.043610e+01 1.647161e+00
    endloop
  endfacet
  facet normal -2.098137e-01 9.694682e-01 1.269237e-01
    outer loop
      vertex   -2.477942e+00 1.046591e+01 1.407821e+00
      vertex   -2.470885e+00 1.043610e+01 1.647161e+00
      vertex   -2.273818e+00 1.051009e+01 1.407821e+00
    endloop
  endfacet
  facet normal -2.098137e-01 9.694682e-01 1.269237e-01
    outer loop
      vertex   -2.273818e+00 1.051009e+01 1.407821e+00
      vertex   -2.470885e+00 1.043610e+01 1.647161e+00
      vertex   -2.267342e+00 1.048015e+01 1.647161e+00
    endloop
  endfacet
  facet normal -1.917696e-01 9.732010e-01 1.269023e-01
    outer loop
      vertex   -2.273818e+00 1.051009e+01 1.407821e+00
      vertex   -2.267342e+00 1.048015e+01 1.647161e+00
      vertex   -2.070024e+00 1.055024e+01 1.407821e+00
    endloop
  endfacet
  facet normal -1.917696e-01 9.732010e-01 1.269023e-01
    outer loop
      vertex   -2.070024e+00 1.055024e+01 1.407821e+00
      vertex   -2.267342e+00 1.048015e+01 1.647161e+00
      vertex   -2.064129e+00 1.052020e+01 1.647161e+00
    endloop
  endfacet
  facet normal -2.931837e-01 9.500321e-01 1.071555e-01
    outer loop
      vertex   -3.442181e+00 1.022902e+01 1.169584e+00
      vertex   -3.433990e+00 1.020468e+01 1.407821e+00
      vertex   -3.191247e+00 1.030646e+01 1.169584e+00
    endloop
  endfacet
  facet normal -2.931837e-01 9.500321e-01 1.071555e-01
    outer loop
      vertex   -3.191247e+00 1.030646e+01 1.169584e+00
      vertex   -3.433990e+00 1.020468e+01 1.407821e+00
      vertex   -3.183653e+00 1.028193e+01 1.407821e+00
    endloop
  endfacet
  facet normal -2.709090e-01 9.566257e-01 1.071243e-01
    outer loop
      vertex   -3.191247e+00 1.030646e+01 1.169584e+00
      vertex   -3.183653e+00 1.028193e+01 1.407821e+00
      vertex   -2.940003e+00 1.037761e+01 1.169584e+00
    endloop
  endfacet
  facet normal -2.709090e-01 9.566257e-01 1.071243e-01
    outer loop
      vertex   -2.940003e+00 1.037761e+01 1.169584e+00
      vertex   -3.183653e+00 1.028193e+01 1.407821e+00
      vertex   -2.933006e+00 1.035291e+01 1.407821e+00
    endloop
  endfacet
  facet normal -2.486358e-01 9.626582e-01 1.070955e-01
    outer loop
      vertex   -2.940003e+00 1.037761e+01 1.169584e+00
      vertex   -2.933006e+00 1.035291e+01 1.407821e+00
      vertex   -2.688678e+00 1.044252e+01 1.169584e+00
    endloop
  endfacet
  facet normal -2.486358e-01 9.626582e-01 1.070955e-01
    outer loop
      vertex   -2.688678e+00 1.044252e+01 1.169584e+00
      vertex   -2.933006e+00 1.035291e+01 1.407821e+00
      vertex   -2.682280e+00 1.041767e+01 1.407821e+00
    endloop
  endfacet
  facet normal -2.284294e-01 9.676545e-01 1.070740e-01
    outer loop
      vertex   -2.688678e+00 1.044252e+01 1.169584e+00
      vertex   -2.682280e+00 1.041767e+01 1.407821e+00
      vertex   -2.483853e+00 1.049088e+01 1.169584e+00
    endloop
  endfacet
  facet normal -2.284294e-01 9.676545e-01 1.070740e-01
    outer loop
      vertex   -2.483853e+00 1.049088e+01 1.169584e+00
      vertex   -2.682280e+00 1.041767e+01 1.407821e+00
      vertex   -2.477942e+00 1.046591e+01 1.407821e+00
    endloop
  endfacet
  facet normal -2.103088e-01 9.717559e-01 1.070542e-01
    outer loop
      vertex   -2.483853e+00 1.049088e+01 1.169584e+00
      vertex   -2.477942e+00 1.046591e+01 1.407821e+00
      vertex   -2.279242e+00 1.053516e+01 1.169584e+00
    endloop
  endfacet
  facet normal -2.103088e-01 9.717559e-01 1.070542e-01
    outer loop
      vertex   -2.279242e+00 1.053516e+01 1.169584e+00
      vertex   -2.477942e+00 1.046591e+01 1.407821e+00
      vertex   -2.273818e+00 1.051009e+01 1.407821e+00
    endloop
  endfacet
  facet normal -1.922220e-01 9.754968e-01 1.070361e-01
    outer loop
      vertex   -2.279242e+00 1.053516e+01 1.169584e+00
      vertex   -2.273818e+00 1.051009e+01 1.407821e+00
      vertex   -2.074962e+00 1.057541e+01 1.169584e+00
    endloop
  endfacet
  facet normal -1.922220e-01 9.754968e-01 1.070361e-01
    outer loop
      vertex   -2.074962e+00 1.057541e+01 1.169584e+00
      vertex   -2.273818e+00 1.051009e+01 1.407821e+00
      vertex   -2.070024e+00 1.055024e+01 1.407821e+00
    endloop
  endfacet
  facet normal -2.937536e-01 9.518790e-01 8.737984e-02
    outer loop
      vertex   -3.448813e+00 1.024873e+01 9.326016e-01
      vertex   -3.442181e+00 1.022902e+01 1.169584e+00
      vertex   -3.197396e+00 1.032632e+01 9.326016e-01
    endloop
  endfacet
  facet normal -2.937536e-01 9.518790e-01 8.737984e-02
    outer loop
      vertex   -3.197396e+00 1.032632e+01 9.326016e-01
      vertex   -3.442181e+00 1.022902e+01 1.169584e+00
      vertex   -3.191247e+00 1.030646e+01 1.169584e+00
    endloop
  endfacet
  facet normal -2.714353e-01 9.584843e-01 8.735427e-02
    outer loop
      vertex   -3.197396e+00 1.032632e+01 9.326016e-01
      vertex   -3.191247e+00 1.030646e+01 1.169584e+00
      vertex   -2.945667e+00 1.039761e+01 9.326016e-01
    endloop
  endfacet
  facet normal -2.714353e-01 9.584843e-01 8.735427e-02
    outer loop
      vertex   -2.945667e+00 1.039761e+01 9.326016e-01
      vertex   -3.191247e+00 1.030646e+01 1.169584e+00
      vertex   -2.940003e+00 1.037761e+01 1.169584e+00
    endloop
  endfacet
  facet normal -2.491186e-01 9.645275e-01 8.733071e-02
    outer loop
      vertex   -2.945667e+00 1.039761e+01 9.326016e-01
      vertex   -2.940003e+00 1.037761e+01 1.169584e+00
      vertex   -2.693859e+00 1.046264e+01 9.326016e-01
    endloop
  endfacet
  facet normal -2.491186e-01 9.645275e-01 8.733071e-02
    outer loop
      vertex   -2.693859e+00 1.046264e+01 9.326016e-01
      vertex   -2.940003e+00 1.037761e+01 1.169584e+00
      vertex   -2.688678e+00 1.044252e+01 1.169584e+00
    endloop
  endfacet
  facet normal -2.288728e-01 9.695327e-01 8.731309e-02
    outer loop
      vertex   -2.693859e+00 1.046264e+01 9.326016e-01
      vertex   -2.688678e+00 1.044252e+01 1.169584e+00
      vertex   -2.488638e+00 1.051109e+01 9.326016e-01
    endloop
  endfacet
  facet normal -2.288728e-01 9.695327e-01 8.731309e-02
    outer loop
      vertex   -2.488638e+00 1.051109e+01 9.326016e-01
      vertex   -2.688678e+00 1.044252e+01 1.169584e+00
      vertex   -2.483853e+00 1.049088e+01 1.169584e+00
    endloop
  endfacet
  facet normal -2.107169e-01 9.736414e-01 8.729689e-02
    outer loop
      vertex   -2.488638e+00 1.051109e+01 9.326016e-01
      vertex   -2.483853e+00 1.049088e+01 1.169584e+00
      vertex   -2.283633e+00 1.055546e+01 9.326016e-01
    endloop
  endfacet
  facet normal -2.107169e-01 9.736414e-01 8.729689e-02
    outer loop
      vertex   -2.283633e+00 1.055546e+01 9.326016e-01
      vertex   -2.483853e+00 1.049088e+01 1.169584e+00
      vertex   -2.279242e+00 1.053516e+01 1.169584e+00
    endloop
  endfacet
  facet normal -1.925948e-01 9.773889e-01 8.728206e-02
    outer loop
      vertex   -2.283633e+00 1.055546e+01 9.326016e-01
      vertex   -2.279242e+00 1.053516e+01 1.169584e+00
      vertex   -2.078960e+00 1.059579e+01 9.326016e-01
    endloop
  endfacet
  facet normal -1.925948e-01 9.773889e-01 8.728206e-02
    outer loop
      vertex   -2.078960e+00 1.059579e+01 9.326016e-01
      vertex   -2.279242e+00 1.053516e+01 1.169584e+00
      vertex   -2.074962e+00 1.057541e+01 1.169584e+00
    endloop
  endfacet
  facet normal -2.942045e-01 9.533399e-01 6.772565e-02
    outer loop
      vertex   -3.453915e+00 1.026389e+01 6.970169e-01
      vertex   -3.448813e+00 1.024873e+01 9.326016e-01
      vertex   -3.202126e+00 1.034159e+01 6.970169e-01
    endloop
  endfacet
  facet normal -2.942045e-01 9.533399e-01 6.772565e-02
    outer loop
      vertex   -3.202126e+00 1.034159e+01 6.970169e-01
      vertex   -3.448813e+00 1.024873e+01 9.326016e-01
      vertex   -3.197396e+00 1.032632e+01 9.326016e-01
    endloop
  endfacet
  facet normal -2.718517e-01 9.599545e-01 6.770577e-02
    outer loop
      vertex   -3.202126e+00 1.034159e+01 6.970169e-01
      vertex   -3.197396e+00 1.032632e+01 9.326016e-01
      vertex   -2.950025e+00 1.041299e+01 6.970169e-01
    endloop
  endfacet
  facet normal -2.718517e-01 9.599545e-01 6.770577e-02
    outer loop
      vertex   -2.950025e+00 1.041299e+01 6.970169e-01
      vertex   -3.197396e+00 1.032632e+01 9.326016e-01
      vertex   -2.945667e+00 1.039761e+01 9.326016e-01
    endloop
  endfacet
  facet normal -2.495005e-01 9.660062e-01 6.768746e-02
    outer loop
      vertex   -2.950025e+00 1.041299e+01 6.970169e-01
      vertex   -2.945667e+00 1.039761e+01 9.326016e-01
      vertex   -2.697844e+00 1.047812e+01 6.970169e-01
    endloop
  endfacet
  facet normal -2.495005e-01 9.660062e-01 6.768746e-02
    outer loop
      vertex   -2.697844e+00 1.047812e+01 6.970169e-01
      vertex   -2.945667e+00 1.039761e+01 9.326016e-01
      vertex   -2.693859e+00 1.046264e+01 9.326016e-01
    endloop
  endfacet
  facet normal -2.292235e-01 9.710185e-01 6.767376e-02
    outer loop
      vertex   -2.697844e+00 1.047812e+01 6.970169e-01
      vertex   -2.693859e+00 1.046264e+01 9.326016e-01
      vertex   -2.492320e+00 1.052664e+01 6.970169e-01
    endloop
  endfacet
  facet normal -2.292235e-01 9.710185e-01 6.767376e-02
    outer loop
      vertex   -2.492320e+00 1.052664e+01 6.970169e-01
      vertex   -2.693859e+00 1.046264e+01 9.326016e-01
      vertex   -2.488638e+00 1.051109e+01 9.326016e-01
    endloop
  endfacet
  facet normal -2.110397e-01 9.751329e-01 6.766116e-02
    outer loop
      vertex   -2.492320e+00 1.052664e+01 6.970169e-01
      vertex   -2.488638e+00 1.051109e+01 9.326016e-01
      vertex   -2.287012e+00 1.057107e+01 6.970169e-01
    endloop
  endfacet
  facet normal -2.110397e-01 9.751329e-01 6.766116e-02
    outer loop
      vertex   -2.287012e+00 1.057107e+01 6.970169e-01
      vertex   -2.488638e+00 1.051109e+01 9.326016e-01
      vertex   -2.283633e+00 1.055546e+01 9.326016e-01
    endloop
  endfacet
  facet normal -1.928898e-01 9.788856e-01 6.764963e-02
    outer loop
      vertex   -2.287012e+00 1.057107e+01 6.970169e-01
      vertex   -2.283633e+00 1.055546e+01 9.326016e-01
      vertex   -2.082035e+00 1.061146e+01 6.970169e-01
    endloop
  endfacet
  facet normal -1.928898e-01 9.788856e-01 6.764963e-02
    outer loop
      vertex   -2.082035e+00 1.061146e+01 6.970169e-01
      vertex   -2.283633e+00 1.055546e+01 9.326016e-01
      vertex   -2.078960e+00 1.059579e+01 9.326016e-01
    endloop
  endfacet
  facet normal -2.947591e-01 9.551370e-01 2.881766e-02
    outer loop
      vertex   -3.207448e+00 1.035878e+01 2.305877e-01
      vertex   -3.459656e+00 1.028095e+01 2.305877e-01
      vertex   -3.457519e+00 1.027460e+01 4.629684e-01
    endloop
  endfacet
  facet normal -2.945388e-01 9.544231e-01 4.820205e-02
    outer loop
      vertex   -3.457519e+00 1.027460e+01 4.629684e-01
      vertex   -3.453915e+00 1.026389e+01 6.970169e-01
      vertex   -3.205467e+00 1.035238e+01 4.629684e-01
    endloop
  endfacet
  facet normal -2.945388e-01 9.544231e-01 4.820205e-02
    outer loop
      vertex   -3.205467e+00 1.035238e+01 4.629684e-01
      vertex   -3.453915e+00 1.026389e+01 6.970169e-01
      vertex   -3.202126e+00 1.034159e+01 6.970169e-01
    endloop
  endfacet
  facet normal -2.721604e-01 9.610446e-01 4.818787e-02
    outer loop
      vertex   -3.205467e+00 1.035238e+01 4.629684e-01
      vertex   -3.202126e+00 1.034159e+01 6.970169e-01
      vertex   -2.953103e+00 1.042385e+01 4.629684e-01
    endloop
  endfacet
  facet normal -2.721604e-01 9.610446e-01 4.818787e-02
    outer loop
      vertex   -2.953103e+00 1.042385e+01 4.629684e-01
      vertex   -3.202126e+00 1.034159e+01 6.970169e-01
      vertex   -2.950025e+00 1.041299e+01 6.970169e-01
    endloop
  endfacet
  facet normal -2.497837e-01 9.671025e-01 4.817481e-02
    outer loop
      vertex   -2.953103e+00 1.042385e+01 4.629684e-01
      vertex   -2.950025e+00 1.041299e+01 6.970169e-01
      vertex   -2.700658e+00 1.048905e+01 4.629684e-01
    endloop
  endfacet
  facet normal -2.497837e-01 9.671025e-01 4.817481e-02
    outer loop
      vertex   -2.700658e+00 1.048905e+01 4.629684e-01
      vertex   -2.950025e+00 1.041299e+01 6.970169e-01
      vertex   -2.697844e+00 1.047812e+01 6.970169e-01
    endloop
  endfacet
  facet normal -2.294836e-01 9.721201e-01 4.816503e-02
    outer loop
      vertex   -2.700658e+00 1.048905e+01 4.629684e-01
      vertex   -2.697844e+00 1.047812e+01 6.970169e-01
      vertex   -2.494920e+00 1.053762e+01 4.629684e-01
    endloop
  endfacet
  facet normal -2.294836e-01 9.721201e-01 4.816503e-02
    outer loop
      vertex   -2.494920e+00 1.053762e+01 4.629684e-01
      vertex   -2.697844e+00 1.047812e+01 6.970169e-01
      vertex   -2.492320e+00 1.052664e+01 6.970169e-01
    endloop
  endfacet
  facet normal -2.112790e-01 9.762388e-01 4.815605e-02
    outer loop
      vertex   -2.494920e+00 1.053762e+01 4.629684e-01
      vertex   -2.492320e+00 1.052664e+01 6.970169e-01
      vertex   -2.289398e+00 1.058210e+01 4.629684e-01
    endloop
  endfacet
  facet normal -2.112790e-01 9.762388e-01 4.815605e-02
    outer loop
      vertex   -2.289398e+00 1.058210e+01 4.629684e-01
      vertex   -2.492320e+00 1.052664e+01 6.970169e-01
      vertex   -2.287012e+00 1.057107e+01 6.970169e-01
    endloop
  endfacet
  facet normal -1.931084e-01 9.799954e-01 4.814783e-02
    outer loop
      vertex   -2.289398e+00 1.058210e+01 4.629684e-01
      vertex   -2.287012e+00 1.057107e+01 6.970169e-01
      vertex   -2.084207e+00 1.062253e+01 4.629684e-01
    endloop
  endfacet
  facet normal -1.931084e-01 9.799954e-01 4.814783e-02
    outer loop
      vertex   -2.084207e+00 1.062253e+01 4.629684e-01
      vertex   -2.287012e+00 1.057107e+01 6.970169e-01
      vertex   -2.082035e+00 1.061146e+01 6.970169e-01
    endloop
  endfacet
  facet normal -2.723638e-01 9.617630e-01 2.880917e-02
    outer loop
      vertex   -2.954928e+00 1.043029e+01 2.305877e-01
      vertex   -3.207448e+00 1.035878e+01 2.305877e-01
      vertex   -3.205467e+00 1.035238e+01 4.629684e-01
    endloop
  endfacet
  facet normal -2.947591e-01 9.551370e-01 2.881766e-02
    outer loop
      vertex   -3.205467e+00 1.035238e+01 4.629684e-01
      vertex   -3.207448e+00 1.035878e+01 2.305877e-01
      vertex   -3.457519e+00 1.027460e+01 4.629684e-01
    endloop
  endfacet
  facet normal -2.723638e-01 9.617630e-01 2.880917e-02
    outer loop
      vertex   -2.954928e+00 1.043029e+01 2.305877e-01
      vertex   -3.205467e+00 1.035238e+01 4.629684e-01
      vertex   -2.953103e+00 1.042385e+01 4.629684e-01
    endloop
  endfacet
  facet normal -2.499703e-01 9.678251e-01 2.880135e-02
    outer loop
      vertex   -2.702328e+00 1.049554e+01 2.305877e-01
      vertex   -2.954928e+00 1.043029e+01 2.305877e-01
      vertex   -2.953103e+00 1.042385e+01 4.629684e-01
    endloop
  endfacet
  facet normal -2.499703e-01 9.678251e-01 2.880135e-02
    outer loop
      vertex   -2.702328e+00 1.049554e+01 2.305877e-01
      vertex   -2.953103e+00 1.042385e+01 4.629684e-01
      vertex   -2.700658e+00 1.048905e+01 4.629684e-01
    endloop
  endfacet
  facet normal -2.296550e-01 9.728460e-01 2.879550e-02
    outer loop
      vertex   -2.496463e+00 1.054413e+01 2.305877e-01
      vertex   -2.702328e+00 1.049554e+01 2.305877e-01
      vertex   -2.700658e+00 1.048905e+01 4.629684e-01
    endloop
  endfacet
  facet normal -2.296550e-01 9.728460e-01 2.879550e-02
    outer loop
      vertex   -2.496463e+00 1.054413e+01 2.305877e-01
      vertex   -2.700658e+00 1.048905e+01 4.629684e-01
      vertex   -2.494920e+00 1.053762e+01 4.629684e-01
    endloop
  endfacet
  facet normal -2.114367e-01 9.769676e-01 2.879012e-02
    outer loop
      vertex   -2.290813e+00 1.058864e+01 2.305877e-01
      vertex   -2.496463e+00 1.054413e+01 2.305877e-01
      vertex   -2.494920e+00 1.053762e+01 4.629684e-01
    endloop
  endfacet
  facet normal -2.114367e-01 9.769676e-01 2.879012e-02
    outer loop
      vertex   -2.290813e+00 1.058864e+01 2.305877e-01
      vertex   -2.494920e+00 1.053762e+01 4.629684e-01
      vertex   -2.289398e+00 1.058210e+01 4.629684e-01
    endloop
  endfacet
  facet normal -1.932525e-01 9.807267e-01 2.878520e-02
    outer loop
      vertex   -2.085496e+00 1.062910e+01 2.305877e-01
      vertex   -2.290813e+00 1.058864e+01 2.305877e-01
      vertex   -2.289398e+00 1.058210e+01 4.629684e-01
    endloop
  endfacet
  facet normal -1.932525e-01 9.807267e-01 2.878520e-02
    outer loop
      vertex   -2.085496e+00 1.062910e+01 2.305877e-01
      vertex   -2.289398e+00 1.058210e+01 4.629684e-01
      vertex   -2.084207e+00 1.062253e+01 4.629684e-01
    endloop
  endfacet
  facet normal -9.396926e-01 -3.420201e-01 2.876478e-14
    outer loop
      vertex   -3.661067e+00 1.005870e+01 1.887447e+00
      vertex   -3.672999e+00 1.009148e+01 1.653322e+00
      vertex   0.000000e+00 0.000000e+00 0.000000e+00
    endloop
  endfacet
  facet normal -9.396926e-01 -3.420201e-01 0.000000e+00
    outer loop
      vertex   0.000000e+00 0.000000e+00 0.000000e+00
      vertex   -3.672999e+00 1.009148e+01 1.653322e+00
      vertex   -3.683349e+00 1.011992e+01 1.418527e+00
    endloop
  endfacet
  facet normal -9.396926e-01 -3.420201e-01 -1.105334e-14
    outer loop
      vertex   0.000000e+00 0.000000e+00 0.000000e+00
      vertex   -3.683349e+00 1.011992e+01 1.418527e+00
      vertex   -3.692114e+00 1.014400e+01 1.183141e+00
    endloop
  endfacet
  facet normal -9.396926e-01 -3.420201e-01 -4.474095e-15
    outer loop
      vertex   -3.692114e+00 1.014400e+01 1.183141e+00
      vertex   -3.699292e+00 1.016372e+01 9.472387e-01
      vertex   0.000000e+00 0.000000e+00 0.000000e+00
    endloop
  endfacet
  facet normal -9.396926e-01 -3.420201e-01 -8.288635e-15
    outer loop
      vertex   0.000000e+00 0.000000e+00 0.000000e+00
      vertex   -3.699292e+00 1.016372e+01 9.472387e-01
      vertex   -3.704879e+00 1.017907e+01 7.108969e-01
    endloop
  endfacet
  facet normal -9.396926e-01 -3.420201e-01 -1.381106e-14
    outer loop
      vertex   0.000000e+00 0.000000e+00 0.000000e+00
      vertex   -3.704879e+00 1.017907e+01 7.108969e-01
      vertex   -3.708873e+00 1.019005e+01 4.741923e-01
    endloop
  endfacet
  facet normal -9.396926e-01 -3.420201e-01 -7.721530e-15
    outer loop
      vertex   -3.708873e+00 1.019005e+01 4.741923e-01
      vertex   -3.711272e+00 1.019664e+01 2.372011e-01
      vertex   0.000000e+00 0.000000e+00 0.000000e+00
    endloop
  endfacet
  facet normal -9.396926e-01 -3.420201e-01 2.483998e-14
    outer loop
      vertex   0.000000e+00 0.000000e+00 0.000000e+00
      vertex   -3.711272e+00 1.019664e+01 2.372011e-01
      vertex   -3.712072e+00 1.019883e+01 -2.775558e-16
    endloop
  endfacet
  facet normal 3.313846e-02 -1.704830e-01 9.848032e-01
    outer loop
      vertex   0.000000e+00 0.000000e+00 0.000000e+00
      vertex   -1.855260e+00 1.052170e+01 1.883881e+00
      vertex   -1.112769e+00 5.235165e+00 9.437234e-01
    endloop
  endfacet
  facet normal 3.201389e-02 -1.706426e-01 9.848128e-01
    outer loop
      vertex   -1.112769e+00 5.235165e+00 9.437234e-01
      vertex   -1.855260e+00 1.052170e+01 1.883881e+00
      vertex   -2.084901e+00 1.048049e+01 1.884205e+00
    endloop
  endfacet
  facet normal 3.574105e-02 -1.699503e-01 9.848043e-01
    outer loop
      vertex   -1.112769e+00 5.235165e+00 9.437234e-01
      vertex   -2.084901e+00 1.048049e+01 1.884205e+00
      vertex   -2.313607e+00 1.043448e+01 1.884565e+00
    endloop
  endfacet
  facet normal 3.905942e-02 -1.691850e-01 9.848100e-01
    outer loop
      vertex   -1.112769e+00 5.235165e+00 9.437234e-01
      vertex   -2.313607e+00 1.043448e+01 1.884565e+00
      vertex   -1.294795e+00 5.193140e+00 9.437234e-01
    endloop
  endfacet
  facet normal 3.943739e-02 -1.691111e-01 9.848077e-01
    outer loop
      vertex   -1.294795e+00 5.193140e+00 9.437234e-01
      vertex   -2.313607e+00 1.043448e+01 1.884565e+00
      vertex   -2.541298e+00 1.038369e+01 1.884961e+00
    endloop
  endfacet
  facet normal 4.312200e-02 -1.682257e-01 9.848049e-01
    outer loop
      vertex   -1.294795e+00 5.193140e+00 9.437234e-01
      vertex   -2.541298e+00 1.038369e+01 1.884961e+00
      vertex   -2.767895e+00 1.032813e+01 1.885392e+00
    endloop
  endfacet
  facet normal 4.493680e-02 -1.677064e-01 9.848123e-01
    outer loop
      vertex   -1.294795e+00 5.193140e+00 9.437234e-01
      vertex   -2.767895e+00 1.032813e+01 1.885392e+00
      vertex   -1.475245e+00 5.144789e+00 9.437234e-01
    endloop
  endfacet
  facet normal 4.678207e-02 -1.672449e-01 9.848048e-01
    outer loop
      vertex   -1.475245e+00 5.144789e+00 9.437234e-01
      vertex   -2.767895e+00 1.032813e+01 1.885392e+00
      vertex   -2.993273e+00 1.026782e+01 1.885857e+00
    endloop
  endfacet
  facet normal 5.041403e-02 -1.661692e-01 9.848077e-01
    outer loop
      vertex   -1.475245e+00 5.144789e+00 9.437234e-01
      vertex   -2.993273e+00 1.026782e+01 1.885857e+00
      vertex   -3.217313e+00 1.020280e+01 1.886355e+00
    endloop
  endfacet
  facet normal 5.076609e-02 -1.660484e-01 9.848100e-01
    outer loop
      vertex   -1.475245e+00 5.144789e+00 9.437234e-01
      vertex   -3.217313e+00 1.020280e+01 1.886355e+00
      vertex   -1.653896e+00 5.090170e+00 9.437234e-01
    endloop
  endfacet
  facet normal 5.403073e-02 -1.650490e-01 9.848043e-01
    outer loop
      vertex   -1.653896e+00 5.090170e+00 9.437234e-01
      vertex   -3.217313e+00 1.020280e+01 1.886355e+00
      vertex   -3.439937e+00 1.013309e+01 1.886885e+00
    endloop
  endfacet
  facet normal 5.760041e-02 -1.637864e-01 9.848128e-01
    outer loop
      vertex   -1.653896e+00 5.090170e+00 9.437234e-01
      vertex   -3.439937e+00 1.013309e+01 1.886885e+00
      vertex   -3.661067e+00 1.005870e+01 1.887447e+00
    endloop
  endfacet
  facet normal 5.654277e-02 -1.642118e-01 9.848032e-01
    outer loop
      vertex   -3.661067e+00 1.005870e+01 1.887447e+00
      vertex   0.000000e+00 0.000000e+00 0.000000e+00
      vertex   -1.653896e+00 5.090170e+00 9.437234e-01
    endloop
  endfacet
  facet normal 5.077731e-02 -1.660851e-01 9.848032e-01
    outer loop
      vertex   -1.653896e+00 5.090170e+00 9.437234e-01
      vertex   0.000000e+00 0.000000e+00 0.000000e+00
      vertex   -1.475245e+00 5.144789e+00 9.437234e-01
    endloop
  endfacet
  facet normal 4.495010e-02 -1.677560e-01 9.848032e-01
    outer loop
      vertex   -1.475245e+00 5.144789e+00 9.437234e-01
      vertex   0.000000e+00 0.000000e+00 0.000000e+00
      vertex   -1.294795e+00 5.193140e+00 9.437234e-01
    endloop
  endfacet
  facet normal 3.906811e-02 -1.692226e-01 9.848032e-01
    outer loop
      vertex   -1.294795e+00 5.193140e+00 9.437234e-01
      vertex   0.000000e+00 0.000000e+00 0.000000e+00
      vertex   -1.112769e+00 5.235165e+00 9.437234e-01
    endloop
  endfacet
  facet normal 1.111070e-15 3.771818e-16 -1.000000e+00
    outer loop
      vertex   -3.712072e+00 1.019883e+01 -2.775558e-16
      vertex   -3.487838e+00 1.027417e+01 -1.791496e-34
      vertex   0.000000e+00 0.000000e+00 0.000000e+00
    endloop
  endfacet
  facet normal -1.204776e-33 -4.264296e-34 -1.000000e+00
    outer loop
      vertex   0.000000e+00 0.000000e+00 0.000000e+00
      vertex   -3.487838e+00 1.027417e+01 -1.791496e-34
      vertex   -3.262093e+00 1.034478e+01 -4.812290e-34
    endloop
  endfacet
  facet normal -2.778548e-34 -1.341370e-34 -1.000000e+00
    outer loop
      vertex   0.000000e+00 0.000000e+00 0.000000e+00
      vertex   -3.262093e+00 1.034478e+01 -4.812290e-34
      vertex   -3.034915e+00 1.041062e+01 -5.531840e-34
    endloop
  endfacet
  facet normal 2.088493e-33 5.557032e-34 -1.000000e+00
    outer loop
      vertex   -3.034915e+00 1.041062e+01 -5.531840e-34
      vertex   -2.806384e+00 1.047169e+01 -4.196023e-35
      vertex   0.000000e+00 0.000000e+00 0.000000e+00
    endloop
  endfacet
  facet normal 2.333014e-33 6.212340e-34 -1.000000e+00
    outer loop
      vertex   0.000000e+00 0.000000e+00 0.000000e+00
      vertex   -2.806384e+00 1.047169e+01 -4.196023e-35
      vertex   -2.576619e+00 1.052796e+01 5.290405e-34
    endloop
  endfacet
  facet normal -2.070110e-34 -4.130076e-37 -1.000000e+00
    outer loop
      vertex   0.000000e+00 0.000000e+00 0.000000e+00
      vertex   -2.576619e+00 1.052796e+01 5.290405e-34
      vertex   -2.345748e+00 1.057940e+01 4.812264e-34
    endloop
  endfacet
  facet normal -1.244757e-33 -2.305102e-34 -1.000000e+00
    outer loop
      vertex   -2.345748e+00 1.057940e+01 4.812264e-34
      vertex   -2.113851e+00 1.062599e+01 1.818309e-34
      vertex   0.000000e+00 0.000000e+00 0.000000e+00
    endloop
  endfacet
  facet normal -2.301980e-15 -4.579377e-16 -1.000000e+00
    outer loop
      vertex   0.000000e+00 0.000000e+00 0.000000e+00
      vertex   -2.113851e+00 1.062599e+01 1.818309e-34
      vertex   -1.881008e+00 1.066773e+01 -5.551115e-16
    endloop
  endfacet
endsolid
