solid ASCII
  facet normal -3.420201e-01 9.396926e-01 7.126053e-16
    outer loop
      vertex   8.060313e+00 2.933714e+00 -7.197466e+00
      vertex   -2.307555e-14 0.000000e+00 1.776357e-14
      vertex   8.199702e+00 2.984447e+00 -7.004076e+00
    endloop
  endfacet
  facet normal -3.420201e-01 9.396926e-01 -3.056841e-15
    outer loop
      vertex   8.199702e+00 2.984447e+00 -7.004076e+00
      vertex   -2.307555e-14 0.000000e+00 1.776357e-14
      vertex   8.335140e+00 3.033743e+00 -6.807598e+00
    endloop
  endfacet
  facet normal -3.420201e-01 9.396926e-01 -2.712575e-15
    outer loop
      vertex   8.335140e+00 3.033743e+00 -6.807598e+00
      vertex   -2.307555e-14 0.000000e+00 1.776357e-14
      vertex   8.466589e+00 3.081586e+00 -6.608109e+00
    endloop
  endfacet
  facet normal -3.420201e-01 9.396926e-01 -1.714379e-15
    outer loop
      vertex   8.466589e+00 3.081586e+00 -6.608109e+00
      vertex   -2.307555e-14 0.000000e+00 1.776357e-14
      vertex   8.594012e+00 3.127965e+00 -6.405685e+00
    endloop
  endfacet
  facet normal -3.420201e-01 9.396926e-01 -4.165858e-15
    outer loop
      vertex   8.594012e+00 3.127965e+00 -6.405685e+00
      vertex   -2.307555e-14 0.000000e+00 1.776357e-14
      vertex   8.717374e+00 3.172865e+00 -6.200403e+00
    endloop
  endfacet
  facet normal -3.420201e-01 9.396926e-01 -2.635487e-15
    outer loop
      vertex   8.717374e+00 3.172865e+00 -6.200403e+00
      vertex   -2.307555e-14 0.000000e+00 1.776357e-14
      vertex   8.836637e+00 3.216273e+00 -5.992338e+00
    endloop
  endfacet
  facet normal -3.420201e-01 9.396926e-01 8.787943e-16
    outer loop
      vertex   8.836637e+00 3.216273e+00 -5.992338e+00
      vertex   -2.307555e-14 0.000000e+00 1.776357e-14
      vertex   8.951763e+00 3.258175e+00 -5.781566e+00
    endloop
  endfacet
  facet normal -3.420201e-01 9.396926e-01 -2.841398e-15
    outer loop
      vertex   8.951763e+00 3.258175e+00 -5.781566e+00
      vertex   -2.307555e-14 0.000000e+00 1.776357e-14
      vertex   9.062717e+00 3.298559e+00 -5.568163e+00
    endloop
  endfacet
  facet normal 7.775033e-01 1.525921e-01 -6.100854e-01
    outer loop
      vertex   8.604244e+00 1.517160e+00 -7.012872e+00
      vertex   8.457589e+00 1.491301e+00 -7.206239e+00
      vertex   8.569719e+00 1.700168e+00 -7.011099e+00
    endloop
  endfacet
  facet normal 7.774932e-01 1.526062e-01 -6.100948e-01
    outer loop
      vertex   8.569719e+00 1.700168e+00 -7.011099e+00
      vertex   8.457589e+00 1.491301e+00 -7.206239e+00
      vertex   8.422124e+00 1.675187e+00 -7.205439e+00
    endloop
  endfacet
  facet normal 7.741638e-01 1.698225e-01 -6.097792e-01
    outer loop
      vertex   8.569719e+00 1.700168e+00 -7.011099e+00
      vertex   8.422124e+00 1.675187e+00 -7.205439e+00
      vertex   8.529539e+00 1.883336e+00 -7.011099e+00
    endloop
  endfacet
  facet normal 7.738483e-01 1.702483e-01 -6.100609e-01
    outer loop
      vertex   8.529539e+00 1.883336e+00 -7.011099e+00
      vertex   8.422124e+00 1.675187e+00 -7.205439e+00
      vertex   8.382559e+00 1.858209e+00 -7.204551e+00
    endloop
  endfacet
  facet normal 7.703109e-01 1.871915e-01 -6.095740e-01
    outer loop
      vertex   8.529539e+00 1.883336e+00 -7.011099e+00
      vertex   8.382559e+00 1.858209e+00 -7.204551e+00
      vertex   8.484965e+00 2.066760e+00 -7.011099e+00
    endloop
  endfacet
  facet normal 7.698417e-01 1.877984e-01 -6.099799e-01
    outer loop
      vertex   8.484965e+00 2.066760e+00 -7.011099e+00
      vertex   8.382559e+00 1.858209e+00 -7.204551e+00
      vertex   8.338912e+00 2.040301e+00 -7.203575e+00
    endloop
  endfacet
  facet normal 7.660259e-01 2.045687e-01 -6.093898e-01
    outer loop
      vertex   8.484965e+00 2.066760e+00 -7.011099e+00
      vertex   8.338912e+00 2.040301e+00 -7.203575e+00
      vertex   8.435951e+00 2.250298e+00 -7.011099e+00
    endloop
  endfacet
  facet normal 7.654730e-01 2.052507e-01 -6.098551e-01
    outer loop
      vertex   8.435951e+00 2.250298e+00 -7.011099e+00
      vertex   8.338912e+00 2.040301e+00 -7.203575e+00
      vertex   8.291199e+00 2.221397e+00 -7.202515e+00
    endloop
  endfacet
  facet normal 7.613072e-01 2.219388e-01 -6.092246e-01
    outer loop
      vertex   8.435951e+00 2.250298e+00 -7.011099e+00
      vertex   8.291199e+00 2.221397e+00 -7.202515e+00
      vertex   8.382455e+00 2.433805e+00 -7.011099e+00
    endloop
  endfacet
  facet normal 7.607445e-01 2.225973e-01 -6.096870e-01
    outer loop
      vertex   8.382455e+00 2.433805e+00 -7.011099e+00
      vertex   8.291199e+00 2.221397e+00 -7.202515e+00
      vertex   8.239452e+00 2.401376e+00 -7.201371e+00
    endloop
  endfacet
  facet normal 7.561514e-01 2.392856e-01 -6.090792e-01
    outer loop
      vertex   8.382455e+00 2.433805e+00 -7.011099e+00
      vertex   8.239452e+00 2.401376e+00 -7.201371e+00
      vertex   8.324440e+00 2.617133e+00 -7.011099e+00
    endloop
  endfacet
  facet normal 7.556608e-01 2.398277e-01 -6.094748e-01
    outer loop
      vertex   8.324440e+00 2.617133e+00 -7.011099e+00
      vertex   8.239452e+00 2.401376e+00 -7.201371e+00
      vertex   8.183707e+00 2.580132e+00 -7.200147e+00
    endloop
  endfacet
  facet normal 7.505554e-01 2.565927e-01 -6.089554e-01
    outer loop
      vertex   8.324440e+00 2.617133e+00 -7.011099e+00
      vertex   8.183707e+00 2.580132e+00 -7.200147e+00
      vertex   8.261878e+00 2.800131e+00 -7.011099e+00
    endloop
  endfacet
  facet normal 7.502256e-01 2.569351e-01 -6.092174e-01
    outer loop
      vertex   8.261878e+00 2.800131e+00 -7.011099e+00
      vertex   8.183707e+00 2.580132e+00 -7.200147e+00
      vertex   8.123986e+00 2.757599e+00 -7.198844e+00
    endloop
  endfacet
  facet normal 7.444868e-01 2.739305e-01 -6.088526e-01
    outer loop
      vertex   8.261878e+00 2.800131e+00 -7.011099e+00
      vertex   8.123986e+00 2.757599e+00 -7.198844e+00
      vertex   8.060313e+00 2.933714e+00 -7.197466e+00
    endloop
  endfacet
  facet normal 7.445349e-01 2.743462e-01 -6.086066e-01
    outer loop
      vertex   8.060313e+00 2.933714e+00 -7.197466e+00
      vertex   8.199702e+00 2.984447e+00 -7.004076e+00
      vertex   8.261878e+00 2.800131e+00 -7.011099e+00
    endloop
  endfacet
  facet normal 7.565362e-01 2.777631e-01 -5.920309e-01
    outer loop
      vertex   8.261878e+00 2.800131e+00 -7.011099e+00
      vertex   8.199702e+00 2.984447e+00 -7.004076e+00
      vertex   8.399821e+00 2.846882e+00 -6.812893e+00
    endloop
  endfacet
  facet normal 7.624995e-01 2.606761e-01 -5.921507e-01
    outer loop
      vertex   8.261878e+00 2.800131e+00 -7.011099e+00
      vertex   8.399821e+00 2.846882e+00 -6.812893e+00
      vertex   8.324440e+00 2.617133e+00 -7.011099e+00
    endloop
  endfacet
  facet normal 7.624995e-01 2.606761e-01 -5.921507e-01
    outer loop
      vertex   8.324440e+00 2.617133e+00 -7.011099e+00
      vertex   8.399821e+00 2.846882e+00 -6.812893e+00
      vertex   8.463427e+00 2.660829e+00 -6.812893e+00
    endloop
  endfacet
  facet normal 7.681941e-01 2.430966e-01 -5.922684e-01
    outer loop
      vertex   8.324440e+00 2.617133e+00 -7.011099e+00
      vertex   8.463427e+00 2.660829e+00 -6.812893e+00
      vertex   8.382455e+00 2.433805e+00 -7.011099e+00
    endloop
  endfacet
  facet normal 7.681941e-01 2.430966e-01 -5.922684e-01
    outer loop
      vertex   8.382455e+00 2.433805e+00 -7.011099e+00
      vertex   8.463427e+00 2.660829e+00 -6.812893e+00
      vertex   8.522410e+00 2.474440e+00 -6.812893e+00
    endloop
  endfacet
  facet normal 7.734636e-01 2.254826e-01 -5.923780e-01
    outer loop
      vertex   8.382455e+00 2.433805e+00 -7.011099e+00
      vertex   8.522410e+00 2.474440e+00 -6.812893e+00
      vertex   8.435951e+00 2.250298e+00 -7.011099e+00
    endloop
  endfacet
  facet normal 7.734636e-01 2.254826e-01 -5.923780e-01
    outer loop
      vertex   8.435951e+00 2.250298e+00 -7.011099e+00
      vertex   8.522410e+00 2.474440e+00 -6.812893e+00
      vertex   8.576800e+00 2.287869e+00 -6.812893e+00
    endloop
  endfacet
  facet normal 7.783102e-01 2.078492e-01 -5.924795e-01
    outer loop
      vertex   8.435951e+00 2.250298e+00 -7.011099e+00
      vertex   8.576800e+00 2.287869e+00 -6.812893e+00
      vertex   8.484965e+00 2.066760e+00 -7.011099e+00
    endloop
  endfacet
  facet normal 7.783102e-01 2.078492e-01 -5.924795e-01
    outer loop
      vertex   8.484965e+00 2.066760e+00 -7.011099e+00
      vertex   8.576800e+00 2.287869e+00 -6.812893e+00
      vertex   8.626632e+00 2.101267e+00 -6.812893e+00
    endloop
  endfacet
  facet normal 7.827370e-01 1.902111e-01 -5.925728e-01
    outer loop
      vertex   8.484965e+00 2.066760e+00 -7.011099e+00
      vertex   8.626632e+00 2.101267e+00 -6.812893e+00
      vertex   8.529539e+00 1.883336e+00 -7.011099e+00
    endloop
  endfacet
  facet normal 7.827370e-01 1.902111e-01 -5.925728e-01
    outer loop
      vertex   8.529539e+00 1.883336e+00 -7.011099e+00
      vertex   8.626632e+00 2.101267e+00 -6.812893e+00
      vertex   8.671950e+00 1.914781e+00 -6.812893e+00
    endloop
  endfacet
  facet normal 7.867476e-01 1.725829e-01 -5.926578e-01
    outer loop
      vertex   8.529539e+00 1.883336e+00 -7.011099e+00
      vertex   8.671950e+00 1.914781e+00 -6.812893e+00
      vertex   8.569719e+00 1.700168e+00 -7.011099e+00
    endloop
  endfacet
  facet normal 7.867476e-01 1.725829e-01 -5.926578e-01
    outer loop
      vertex   8.569719e+00 1.700168e+00 -7.011099e+00
      vertex   8.671950e+00 1.914781e+00 -6.812893e+00
      vertex   8.712801e+00 1.728555e+00 -6.812893e+00
    endloop
  endfacet
  facet normal 7.902994e-01 1.552171e-01 -5.927348e-01
    outer loop
      vertex   8.569719e+00 1.700168e+00 -7.011099e+00
      vertex   8.712801e+00 1.728555e+00 -6.812893e+00
      vertex   8.746750e+00 1.542288e+00 -6.816405e+00
    endloop
  endfacet
  facet normal 8.024866e-01 1.571155e-01 -5.756128e-01
    outer loop
      vertex   8.746750e+00 1.542288e+00 -6.816405e+00
      vertex   8.712801e+00 1.728555e+00 -6.812893e+00
      vertex   8.885067e+00 1.566677e+00 -6.616913e+00
    endloop
  endfacet
  facet normal 8.026373e-01 1.577360e-01 -5.752328e-01
    outer loop
      vertex   8.885067e+00 1.566677e+00 -6.616913e+00
      vertex   8.712801e+00 1.728555e+00 -6.812893e+00
      vertex   8.851528e+00 1.756077e+00 -6.611776e+00
    endloop
  endfacet
  facet normal 8.143770e-01 1.593483e-01 -5.580307e-01
    outer loop
      vertex   8.885067e+00 1.566677e+00 -6.616913e+00
      vertex   8.851528e+00 1.756077e+00 -6.611776e+00
      vertex   9.019158e+00 1.590321e+00 -6.414473e+00
    endloop
  endfacet
  facet normal 8.145703e-01 1.601549e-01 -5.575174e-01
    outer loop
      vertex   9.019158e+00 1.590321e+00 -6.414473e+00
      vertex   8.851528e+00 1.756077e+00 -6.611776e+00
      vertex   8.985823e+00 1.782720e+00 -6.407908e+00
    endloop
  endfacet
  facet normal 8.258716e-01 1.615230e-01 -5.402282e-01
    outer loop
      vertex   9.019158e+00 1.590321e+00 -6.414473e+00
      vertex   8.985823e+00 1.782720e+00 -6.407908e+00
      vertex   9.148982e+00 1.613212e+00 -6.209160e+00
    endloop
  endfacet
  facet normal 8.260944e-01 1.624707e-01 -5.396028e-01
    outer loop
      vertex   9.148982e+00 1.613212e+00 -6.209160e+00
      vertex   8.985823e+00 1.782720e+00 -6.407908e+00
      vertex   9.115618e+00 1.808470e+00 -6.201448e+00
    endloop
  endfacet
  facet normal 8.369683e-01 1.636419e-01 -5.222120e-01
    outer loop
      vertex   9.148982e+00 1.613212e+00 -6.209160e+00
      vertex   9.115618e+00 1.808470e+00 -6.201448e+00
      vertex   9.274501e+00 1.635345e+00 -6.001051e+00
    endloop
  endfacet
  facet normal 8.372064e-01 1.646806e-01 -5.215034e-01
    outer loop
      vertex   9.274501e+00 1.635345e+00 -6.001051e+00
      vertex   9.115618e+00 1.808470e+00 -6.201448e+00
      vertex   9.240849e+00 1.833315e+00 -5.992560e+00
    endloop
  endfacet
  facet normal 8.476652e-01 1.657073e-01 -5.039888e-01
    outer loop
      vertex   9.274501e+00 1.635345e+00 -6.001051e+00
      vertex   9.240849e+00 1.833315e+00 -5.992560e+00
      vertex   9.395675e+00 1.656711e+00 -5.790222e+00
    endloop
  endfacet
  facet normal 8.479034e-01 1.667818e-01 -5.032333e-01
    outer loop
      vertex   9.395675e+00 1.656711e+00 -5.790222e+00
      vertex   9.240849e+00 1.833315e+00 -5.992560e+00
      vertex   9.361460e+00 1.857244e+00 -5.781410e+00
    endloop
  endfacet
  facet normal 8.579604e-01 1.677214e-01 -4.855652e-01
    outer loop
      vertex   9.395675e+00 1.656711e+00 -5.790222e+00
      vertex   9.361460e+00 1.857244e+00 -5.781410e+00
      vertex   9.512466e+00 1.677304e+00 -5.576748e+00
    endloop
  endfacet
  facet normal 8.581347e-01 1.685414e-01 -4.849729e-01
    outer loop
      vertex   9.512466e+00 1.677304e+00 -5.576748e+00
      vertex   9.361460e+00 1.857244e+00 -5.781410e+00
      vertex   9.472303e+00 1.884044e+00 -5.575965e+00
    endloop
  endfacet
  facet normal 8.540753e-01 1.873521e-01 -4.852366e-01
    outer loop
      vertex   9.472303e+00 1.884044e+00 -5.575965e+00
      vertex   9.361460e+00 1.857244e+00 -5.781410e+00
      vertex   9.317568e+00 2.057335e+00 -5.781410e+00
    endloop
  endfacet
  facet normal 8.542005e-01 1.880417e-01 -4.847492e-01
    outer loop
      vertex   9.472303e+00 1.884044e+00 -5.575965e+00
      vertex   9.317568e+00 2.057335e+00 -5.781410e+00
      vertex   9.427502e+00 2.089800e+00 -5.575095e+00
    endloop
  endfacet
  facet normal 8.496591e-01 2.064737e-01 -4.852298e-01
    outer loop
      vertex   9.427502e+00 2.089800e+00 -5.575095e+00
      vertex   9.317568e+00 2.057335e+00 -5.781410e+00
      vertex   9.268877e+00 2.257704e+00 -5.781410e+00
    endloop
  endfacet
  facet normal 8.498060e-01 2.074307e-01 -4.845639e-01
    outer loop
      vertex   9.427502e+00 2.089800e+00 -5.575095e+00
      vertex   9.268877e+00 2.257704e+00 -5.781410e+00
      vertex   9.378082e+00 2.294495e+00 -5.574141e+00
    endloop
  endfacet
  facet normal 8.448179e-01 2.256102e-01 -4.851627e-01
    outer loop
      vertex   9.378082e+00 2.294495e+00 -5.574141e+00
      vertex   9.268877e+00 2.257704e+00 -5.781410e+00
      vertex   9.215334e+00 2.458199e+00 -5.781410e+00
    endloop
  endfacet
  facet normal 8.449572e-01 2.266995e-01 -4.844117e-01
    outer loop
      vertex   9.378082e+00 2.294495e+00 -5.574141e+00
      vertex   9.215334e+00 2.458199e+00 -5.781410e+00
      vertex   9.324063e+00 2.498056e+00 -5.573103e+00
    endloop
  endfacet
  facet normal 8.395448e-01 2.447468e-01 -4.850398e-01
    outer loop
      vertex   9.324063e+00 2.498056e+00 -5.573103e+00
      vertex   9.215334e+00 2.458199e+00 -5.781410e+00
      vertex   9.156895e+00 2.658660e+00 -5.781410e+00
    endloop
  endfacet
  facet normal 8.396586e-01 2.458361e-01 -4.842913e-01
    outer loop
      vertex   9.324063e+00 2.498056e+00 -5.573103e+00
      vertex   9.156895e+00 2.658660e+00 -5.781410e+00
      vertex   9.265481e+00 2.700346e+00 -5.571984e+00
    endloop
  endfacet
  facet normal 8.338359e-01 2.638691e-01 -4.848617e-01
    outer loop
      vertex   9.265481e+00 2.700346e+00 -5.571984e+00
      vertex   9.156895e+00 2.658660e+00 -5.781410e+00
      vertex   9.093521e+00 2.858925e+00 -5.781410e+00
    endloop
  endfacet
  facet normal 8.339155e-01 2.648255e-01 -4.842028e-01
    outer loop
      vertex   9.265481e+00 2.700346e+00 -5.571984e+00
      vertex   9.093521e+00 2.858925e+00 -5.781410e+00
      vertex   9.202379e+00 2.901241e+00 -5.570786e+00
    endloop
  endfacet
  facet normal 8.276883e-01 2.829622e-01 -4.846282e-01
    outer loop
      vertex   9.202379e+00 2.901241e+00 -5.570786e+00
      vertex   9.093521e+00 2.858925e+00 -5.781410e+00
      vertex   9.025179e+00 3.058830e+00 -5.781410e+00
    endloop
  endfacet
  facet normal 8.277328e-01 2.836566e-01 -4.841461e-01
    outer loop
      vertex   9.202379e+00 2.901241e+00 -5.570786e+00
      vertex   9.025179e+00 3.058830e+00 -5.781410e+00
      vertex   9.134782e+00 3.100670e+00 -5.569512e+00
    endloop
  endfacet
  facet normal 8.210966e-01 3.020194e-01 -4.843394e-01
    outer loop
      vertex   9.134782e+00 3.100670e+00 -5.569512e+00
      vertex   9.025179e+00 3.058830e+00 -5.781410e+00
      vertex   8.951763e+00 3.258175e+00 -5.781566e+00
    endloop
  endfacet
  facet normal 8.211105e-01 3.023190e-01 -4.841289e-01
    outer loop
      vertex   9.134782e+00 3.100670e+00 -5.569512e+00
      vertex   8.951763e+00 3.258175e+00 -5.781566e+00
      vertex   9.062717e+00 3.298559e+00 -5.568163e+00
    endloop
  endfacet
  facet normal 7.566329e-01 2.786641e-01 -5.914837e-01
    outer loop
      vertex   8.199702e+00 2.984447e+00 -7.004076e+00
      vertex   8.335140e+00 3.033743e+00 -6.807598e+00
      vertex   8.399821e+00 2.846882e+00 -6.812893e+00
    endloop
  endfacet
  facet normal 7.682913e-01 2.822192e-01 -5.745266e-01
    outer loop
      vertex   8.399821e+00 2.846882e+00 -6.812893e+00
      vertex   8.335140e+00 3.033743e+00 -6.807598e+00
      vertex   8.533564e+00 2.892211e+00 -6.611776e+00
    endloop
  endfacet
  facet normal 7.743969e-01 2.647434e-01 -5.746480e-01
    outer loop
      vertex   8.399821e+00 2.846882e+00 -6.812893e+00
      vertex   8.533564e+00 2.892211e+00 -6.611776e+00
      vertex   8.463427e+00 2.660829e+00 -6.812893e+00
    endloop
  endfacet
  facet normal 7.743969e-01 2.647434e-01 -5.746480e-01
    outer loop
      vertex   8.463427e+00 2.660829e+00 -6.812893e+00
      vertex   8.533564e+00 2.892211e+00 -6.611776e+00
      vertex   8.598183e+00 2.703195e+00 -6.611776e+00
    endloop
  endfacet
  facet normal 7.801852e-01 2.468912e-01 -5.747658e-01
    outer loop
      vertex   8.463427e+00 2.660829e+00 -6.812893e+00
      vertex   8.598183e+00 2.703195e+00 -6.611776e+00
      vertex   8.522410e+00 2.474440e+00 -6.812893e+00
    endloop
  endfacet
  facet normal 7.801852e-01 2.468912e-01 -5.747658e-01
    outer loop
      vertex   8.522410e+00 2.474440e+00 -6.812893e+00
      vertex   8.598183e+00 2.703195e+00 -6.611776e+00
      vertex   8.658105e+00 2.513839e+00 -6.611776e+00
    endloop
  endfacet
  facet normal 7.855415e-01 2.290036e-01 -5.748756e-01
    outer loop
      vertex   8.522410e+00 2.474440e+00 -6.812893e+00
      vertex   8.658105e+00 2.513839e+00 -6.611776e+00
      vertex   8.576800e+00 2.287869e+00 -6.812893e+00
    endloop
  endfacet
  facet normal 7.855415e-01 2.290036e-01 -5.748756e-01
    outer loop
      vertex   8.576800e+00 2.287869e+00 -6.812893e+00
      vertex   8.658105e+00 2.513839e+00 -6.611776e+00
      vertex   8.713361e+00 2.324297e+00 -6.611776e+00
    endloop
  endfacet
  facet normal 7.904680e-01 2.110960e-01 -5.749772e-01
    outer loop
      vertex   8.576800e+00 2.287869e+00 -6.812893e+00
      vertex   8.713361e+00 2.324297e+00 -6.611776e+00
      vertex   8.626632e+00 2.101267e+00 -6.812893e+00
    endloop
  endfacet
  facet normal 7.904680e-01 2.110960e-01 -5.749772e-01
    outer loop
      vertex   8.626632e+00 2.101267e+00 -6.812893e+00
      vertex   8.713361e+00 2.324297e+00 -6.611776e+00
      vertex   8.763987e+00 2.134724e+00 -6.611776e+00
    endloop
  endfacet
  facet normal 7.949679e-01 1.931833e-01 -5.750706e-01
    outer loop
      vertex   8.626632e+00 2.101267e+00 -6.812893e+00
      vertex   8.763987e+00 2.134724e+00 -6.611776e+00
      vertex   8.671950e+00 1.914781e+00 -6.812893e+00
    endloop
  endfacet
  facet normal 7.949679e-01 1.931833e-01 -5.750706e-01
    outer loop
      vertex   8.671950e+00 1.914781e+00 -6.812893e+00
      vertex   8.763987e+00 2.134724e+00 -6.611776e+00
      vertex   8.810026e+00 1.945269e+00 -6.611776e+00
    endloop
  endfacet
  facet normal 7.990449e-01 1.752805e-01 -5.751557e-01
    outer loop
      vertex   8.671950e+00 1.914781e+00 -6.812893e+00
      vertex   8.810026e+00 1.945269e+00 -6.611776e+00
      vertex   8.712801e+00 1.728555e+00 -6.812893e+00
    endloop
  endfacet
  facet normal 7.990449e-01 1.752805e-01 -5.751557e-01
    outer loop
      vertex   8.712801e+00 1.728555e+00 -6.812893e+00
      vertex   8.810026e+00 1.945269e+00 -6.611776e+00
      vertex   8.851528e+00 1.756077e+00 -6.611776e+00
    endloop
  endfacet
  facet normal 7.683539e-01 2.828569e-01 -5.741291e-01
    outer loop
      vertex   8.335140e+00 3.033743e+00 -6.807598e+00
      vertex   8.466589e+00 3.081586e+00 -6.608109e+00
      vertex   8.533564e+00 2.892211e+00 -6.611776e+00
    endloop
  endfacet
  facet normal 7.796589e-01 2.865197e-01 -5.568110e-01
    outer loop
      vertex   8.533564e+00 2.892211e+00 -6.611776e+00
      vertex   8.466589e+00 3.081586e+00 -6.608109e+00
      vertex   8.663036e+00 2.936092e+00 -6.407908e+00
    endloop
  endfacet
  facet normal 7.858996e-01 2.686759e-01 -5.569336e-01
    outer loop
      vertex   8.533564e+00 2.892211e+00 -6.611776e+00
      vertex   8.663036e+00 2.936092e+00 -6.407908e+00
      vertex   8.598183e+00 2.703195e+00 -6.611776e+00
    endloop
  endfacet
  facet normal 7.858996e-01 2.686759e-01 -5.569336e-01
    outer loop
      vertex   8.598183e+00 2.703195e+00 -6.611776e+00
      vertex   8.663036e+00 2.936092e+00 -6.407908e+00
      vertex   8.728635e+00 2.744208e+00 -6.407908e+00
    endloop
  endfacet
  facet normal 7.917788e-01 2.505600e-01 -5.570512e-01
    outer loop
      vertex   8.598183e+00 2.703195e+00 -6.611776e+00
      vertex   8.728635e+00 2.744208e+00 -6.407908e+00
      vertex   8.658105e+00 2.513839e+00 -6.611776e+00
    endloop
  endfacet
  facet normal 7.917788e-01 2.505600e-01 -5.570512e-01
    outer loop
      vertex   8.658105e+00 2.513839e+00 -6.611776e+00
      vertex   8.728635e+00 2.744208e+00 -6.407908e+00
      vertex   8.789466e+00 2.551979e+00 -6.407908e+00
    endloop
  endfacet
  facet normal 7.972192e-01 2.324079e-01 -5.571608e-01
    outer loop
      vertex   8.658105e+00 2.513839e+00 -6.611776e+00
      vertex   8.789466e+00 2.551979e+00 -6.407908e+00
      vertex   8.713361e+00 2.324297e+00 -6.611776e+00
    endloop
  endfacet
  facet normal 7.972192e-01 2.324079e-01 -5.571608e-01
    outer loop
      vertex   8.713361e+00 2.324297e+00 -6.611776e+00
      vertex   8.789466e+00 2.551979e+00 -6.407908e+00
      vertex   8.845560e+00 2.359561e+00 -6.407908e+00
    endloop
  endfacet
  facet normal 8.022232e-01 2.142352e-01 -5.572622e-01
    outer loop
      vertex   8.713361e+00 2.324297e+00 -6.611776e+00
      vertex   8.845560e+00 2.359561e+00 -6.407908e+00
      vertex   8.763987e+00 2.134724e+00 -6.611776e+00
    endloop
  endfacet
  facet normal 8.022232e-01 2.142352e-01 -5.572622e-01
    outer loop
      vertex   8.763987e+00 2.134724e+00 -6.611776e+00
      vertex   8.845560e+00 2.359561e+00 -6.407908e+00
      vertex   8.896954e+00 2.167112e+00 -6.407908e+00
    endloop
  endfacet
  facet normal 8.067940e-01 1.960572e-01 -5.573554e-01
    outer loop
      vertex   8.763987e+00 2.134724e+00 -6.611776e+00
      vertex   8.896954e+00 2.167112e+00 -6.407908e+00
      vertex   8.810026e+00 1.945269e+00 -6.611776e+00
    endloop
  endfacet
  facet normal 8.067940e-01 1.960572e-01 -5.573554e-01
    outer loop
      vertex   8.810026e+00 1.945269e+00 -6.611776e+00
      vertex   8.896954e+00 2.167112e+00 -6.407908e+00
      vertex   8.943692e+00 1.974782e+00 -6.407908e+00
    endloop
  endfacet
  facet normal 8.109351e-01 1.778888e-01 -5.574404e-01
    outer loop
      vertex   8.810026e+00 1.945269e+00 -6.611776e+00
      vertex   8.943692e+00 1.974782e+00 -6.407908e+00
      vertex   8.851528e+00 1.756077e+00 -6.611776e+00
    endloop
  endfacet
  facet normal 8.109351e-01 1.778888e-01 -5.574404e-01
    outer loop
      vertex   8.851528e+00 1.756077e+00 -6.611776e+00
      vertex   8.943692e+00 1.974782e+00 -6.407908e+00
      vertex   8.985823e+00 1.782720e+00 -6.407908e+00
    endloop
  endfacet
  facet normal 7.796951e-01 2.869278e-01 -5.565500e-01
    outer loop
      vertex   8.466589e+00 3.081586e+00 -6.608109e+00
      vertex   8.594012e+00 3.127965e+00 -6.405685e+00
      vertex   8.663036e+00 2.936092e+00 -6.407908e+00
    endloop
  endfacet
  facet normal 7.906362e-01 2.906592e-01 -5.388985e-01
    outer loop
      vertex   8.663036e+00 2.936092e+00 -6.407908e+00
      vertex   8.594012e+00 3.127965e+00 -6.405685e+00
      vertex   8.788168e+00 2.978502e+00 -6.201448e+00
    endloop
  endfacet
  facet normal 7.970035e-01 2.724720e-01 -5.390217e-01
    outer loop
      vertex   8.663036e+00 2.936092e+00 -6.407908e+00
      vertex   8.788168e+00 2.978502e+00 -6.201448e+00
      vertex   8.728635e+00 2.744208e+00 -6.407908e+00
    endloop
  endfacet
  facet normal 7.970035e-01 2.724720e-01 -5.390217e-01
    outer loop
      vertex   8.728635e+00 2.744208e+00 -6.407908e+00
      vertex   8.788168e+00 2.978502e+00 -6.201448e+00
      vertex   8.854715e+00 2.783847e+00 -6.201448e+00
    endloop
  endfacet
  facet normal 8.029706e-01 2.541017e-01 -5.391387e-01
    outer loop
      vertex   8.728635e+00 2.744208e+00 -6.407908e+00
      vertex   8.854715e+00 2.783847e+00 -6.201448e+00
      vertex   8.789466e+00 2.551979e+00 -6.407908e+00
    endloop
  endfacet
  facet normal 8.029706e-01 2.541017e-01 -5.391387e-01
    outer loop
      vertex   8.789466e+00 2.551979e+00 -6.407908e+00
      vertex   8.854715e+00 2.783847e+00 -6.201448e+00
      vertex   8.916425e+00 2.588840e+00 -6.201448e+00
    endloop
  endfacet
  facet normal 8.084924e-01 2.356943e-01 -5.392478e-01
    outer loop
      vertex   8.789466e+00 2.551979e+00 -6.407908e+00
      vertex   8.916425e+00 2.588840e+00 -6.201448e+00
      vertex   8.845560e+00 2.359561e+00 -6.407908e+00
    endloop
  endfacet
  facet normal 8.084924e-01 2.356943e-01 -5.392478e-01
    outer loop
      vertex   8.845560e+00 2.359561e+00 -6.407908e+00
      vertex   8.916425e+00 2.588840e+00 -6.201448e+00
      vertex   8.973329e+00 2.393644e+00 -6.201448e+00
    endloop
  endfacet
  facet normal 8.135714e-01 2.172658e-01 -5.393488e-01
    outer loop
      vertex   8.845560e+00 2.359561e+00 -6.407908e+00
      vertex   8.973329e+00 2.393644e+00 -6.201448e+00
      vertex   8.896954e+00 2.167112e+00 -6.407908e+00
    endloop
  endfacet
  facet normal 8.135714e-01 2.172658e-01 -5.393488e-01
    outer loop
      vertex   8.896954e+00 2.167112e+00 -6.407908e+00
      vertex   8.973329e+00 2.393644e+00 -6.201448e+00
      vertex   9.025465e+00 2.198415e+00 -6.201448e+00
    endloop
  endfacet
  facet normal 8.182107e-01 1.988315e-01 -5.394416e-01
    outer loop
      vertex   8.896954e+00 2.167112e+00 -6.407908e+00
      vertex   9.025465e+00 2.198415e+00 -6.201448e+00
      vertex   8.943692e+00 1.974782e+00 -6.407908e+00
    endloop
  endfacet
  facet normal 8.182107e-01 1.988315e-01 -5.394416e-01
    outer loop
      vertex   8.943692e+00 1.974782e+00 -6.407908e+00
      vertex   9.025465e+00 2.198415e+00 -6.201448e+00
      vertex   9.072878e+00 2.003307e+00 -6.201448e+00
    endloop
  endfacet
  facet normal 8.224141e-01 1.804068e-01 -5.395261e-01
    outer loop
      vertex   8.943692e+00 1.974782e+00 -6.407908e+00
      vertex   9.072878e+00 2.003307e+00 -6.201448e+00
      vertex   8.985823e+00 1.782720e+00 -6.407908e+00
    endloop
  endfacet
  facet normal 8.224141e-01 1.804068e-01 -5.395261e-01
    outer loop
      vertex   8.985823e+00 1.782720e+00 -6.407908e+00
      vertex   9.072878e+00 2.003307e+00 -6.201448e+00
      vertex   9.115618e+00 1.808470e+00 -6.201448e+00
    endloop
  endfacet
  facet normal 7.906537e-01 2.908798e-01 -5.387537e-01
    outer loop
      vertex   8.594012e+00 3.127965e+00 -6.405685e+00
      vertex   8.717374e+00 3.172865e+00 -6.200403e+00
      vertex   8.788168e+00 2.978502e+00 -6.201448e+00
    endloop
  endfacet
  facet normal 8.012213e-01 2.946324e-01 -5.208034e-01
    outer loop
      vertex   8.788168e+00 2.978502e+00 -6.201448e+00
      vertex   8.717374e+00 3.172865e+00 -6.200403e+00
      vertex   8.908900e+00 3.019420e+00 -5.992560e+00
    endloop
  endfacet
  facet normal 8.077051e-01 2.761305e-01 -5.209265e-01
    outer loop
      vertex   8.788168e+00 2.978502e+00 -6.201448e+00
      vertex   8.908900e+00 3.019420e+00 -5.992560e+00
      vertex   8.854715e+00 2.783847e+00 -6.201448e+00
    endloop
  endfacet
  facet normal 8.077051e-01 2.761305e-01 -5.209265e-01
    outer loop
      vertex   8.854715e+00 2.783847e+00 -6.201448e+00
      vertex   8.908900e+00 3.019420e+00 -5.992560e+00
      vertex   8.976361e+00 2.822091e+00 -5.992560e+00
    endloop
  endfacet
  facet normal 8.137570e-01 2.575151e-01 -5.210427e-01
    outer loop
      vertex   8.854715e+00 2.783847e+00 -6.201448e+00
      vertex   8.976361e+00 2.822091e+00 -5.992560e+00
      vertex   8.916425e+00 2.588840e+00 -6.201448e+00
    endloop
  endfacet
  facet normal 8.137570e-01 2.575151e-01 -5.210427e-01
    outer loop
      vertex   8.916425e+00 2.588840e+00 -6.201448e+00
      vertex   8.976361e+00 2.822091e+00 -5.992560e+00
      vertex   9.038919e+00 2.624406e+00 -5.992560e+00
    endloop
  endfacet
  facet normal 8.193575e-01 2.388618e-01 -5.211509e-01
    outer loop
      vertex   8.916425e+00 2.588840e+00 -6.201448e+00
      vertex   9.038919e+00 2.624406e+00 -5.992560e+00
      vertex   8.973329e+00 2.393644e+00 -6.201448e+00
    endloop
  endfacet
  facet normal 8.193575e-01 2.388618e-01 -5.211509e-01
    outer loop
      vertex   8.973329e+00 2.393644e+00 -6.201448e+00
      vertex   9.038919e+00 2.624406e+00 -5.992560e+00
      vertex   9.096605e+00 2.426528e+00 -5.992560e+00
    endloop
  endfacet
  facet normal 8.245090e-01 2.201867e-01 -5.212512e-01
    outer loop
      vertex   8.973329e+00 2.393644e+00 -6.201448e+00
      vertex   9.096605e+00 2.426528e+00 -5.992560e+00
      vertex   9.025465e+00 2.198415e+00 -6.201448e+00
    endloop
  endfacet
  facet normal 8.245090e-01 2.201867e-01 -5.212512e-01
    outer loop
      vertex   9.025465e+00 2.198415e+00 -6.201448e+00
      vertex   9.096605e+00 2.426528e+00 -5.992560e+00
      vertex   9.149458e+00 2.228617e+00 -5.992560e+00
    endloop
  endfacet
  facet normal 8.292145e-01 2.015055e-01 -5.213433e-01
    outer loop
      vertex   9.025465e+00 2.198415e+00 -6.201448e+00
      vertex   9.149458e+00 2.228617e+00 -5.992560e+00
      vertex   9.072878e+00 2.003307e+00 -6.201448e+00
    endloop
  endfacet
  facet normal 8.292145e-01 2.015055e-01 -5.213433e-01
    outer loop
      vertex   9.072878e+00 2.003307e+00 -6.201448e+00
      vertex   9.149458e+00 2.228617e+00 -5.992560e+00
      vertex   9.197522e+00 2.030828e+00 -5.992560e+00
    endloop
  endfacet
  facet normal 8.334779e-01 1.828338e-01 -5.214272e-01
    outer loop
      vertex   9.072878e+00 2.003307e+00 -6.201448e+00
      vertex   9.197522e+00 2.030828e+00 -5.992560e+00
      vertex   9.115618e+00 1.808470e+00 -6.201448e+00
    endloop
  endfacet
  facet normal 8.334779e-01 1.828338e-01 -5.214272e-01
    outer loop
      vertex   9.115618e+00 1.808470e+00 -6.201448e+00
      vertex   9.197522e+00 2.030828e+00 -5.992560e+00
      vertex   9.240849e+00 1.833315e+00 -5.992560e+00
    endloop
  endfacet
  facet normal 8.012272e-01 2.947159e-01 -5.207471e-01
    outer loop
      vertex   8.717374e+00 3.172865e+00 -6.200403e+00
      vertex   8.836637e+00 3.216273e+00 -5.992338e+00
      vertex   8.908900e+00 3.019420e+00 -5.992560e+00
    endloop
  endfacet
  facet normal 8.114127e-01 2.984344e-01 -5.025399e-01
    outer loop
      vertex   8.908900e+00 3.019420e+00 -5.992560e+00
      vertex   8.836637e+00 3.216273e+00 -5.992338e+00
      vertex   9.025179e+00 3.058830e+00 -5.781410e+00
    endloop
  endfacet
  facet normal 8.180013e-01 2.796505e-01 -5.026623e-01
    outer loop
      vertex   8.908900e+00 3.019420e+00 -5.992560e+00
      vertex   9.025179e+00 3.058830e+00 -5.781410e+00
      vertex   8.976361e+00 2.822091e+00 -5.992560e+00
    endloop
  endfacet
  facet normal 8.180013e-01 2.796505e-01 -5.026623e-01
    outer loop
      vertex   8.976361e+00 2.822091e+00 -5.992560e+00
      vertex   9.025179e+00 3.058830e+00 -5.781410e+00
      vertex   9.093521e+00 2.858925e+00 -5.781410e+00
    endloop
  endfacet
  facet normal 8.241351e-01 2.607993e-01 -5.027773e-01
    outer loop
      vertex   8.976361e+00 2.822091e+00 -5.992560e+00
      vertex   9.093521e+00 2.858925e+00 -5.781410e+00
      vertex   9.038919e+00 2.624406e+00 -5.992560e+00
    endloop
  endfacet
  facet normal 8.241351e-01 2.607993e-01 -5.027773e-01
    outer loop
      vertex   9.038919e+00 2.624406e+00 -5.992560e+00
      vertex   9.093521e+00 2.858925e+00 -5.781410e+00
      vertex   9.156895e+00 2.658660e+00 -5.781410e+00
    endloop
  endfacet
  facet normal 8.298115e-01 2.419094e-01 -5.028844e-01
    outer loop
      vertex   9.038919e+00 2.624406e+00 -5.992560e+00
      vertex   9.156895e+00 2.658660e+00 -5.781410e+00
      vertex   9.096605e+00 2.426528e+00 -5.992560e+00
    endloop
  endfacet
  facet normal 8.298115e-01 2.419094e-01 -5.028844e-01
    outer loop
      vertex   9.096605e+00 2.426528e+00 -5.992560e+00
      vertex   9.156895e+00 2.658660e+00 -5.781410e+00
      vertex   9.215334e+00 2.458199e+00 -5.781410e+00
    endloop
  endfacet
  facet normal 8.350328e-01 2.229971e-01 -5.029836e-01
    outer loop
      vertex   9.096605e+00 2.426528e+00 -5.992560e+00
      vertex   9.215334e+00 2.458199e+00 -5.781410e+00
      vertex   9.149458e+00 2.228617e+00 -5.992560e+00
    endloop
  endfacet
  facet normal 8.350328e-01 2.229971e-01 -5.029836e-01
    outer loop
      vertex   9.149458e+00 2.228617e+00 -5.992560e+00
      vertex   9.215334e+00 2.458199e+00 -5.781410e+00
      vertex   9.268877e+00 2.257704e+00 -5.781410e+00
    endloop
  endfacet
  facet normal 8.398022e-01 2.040784e-01 -5.030748e-01
    outer loop
      vertex   9.149458e+00 2.228617e+00 -5.992560e+00
      vertex   9.268877e+00 2.257704e+00 -5.781410e+00
      vertex   9.197522e+00 2.030828e+00 -5.992560e+00
    endloop
  endfacet
  facet normal 8.398022e-01 2.040784e-01 -5.030748e-01
    outer loop
      vertex   9.197522e+00 2.030828e+00 -5.992560e+00
      vertex   9.268877e+00 2.257704e+00 -5.781410e+00
      vertex   9.317568e+00 2.057335e+00 -5.781410e+00
    endloop
  endfacet
  facet normal 8.441235e-01 1.851690e-01 -5.031579e-01
    outer loop
      vertex   9.197522e+00 2.030828e+00 -5.992560e+00
      vertex   9.317568e+00 2.057335e+00 -5.781410e+00
      vertex   9.240849e+00 1.833315e+00 -5.992560e+00
    endloop
  endfacet
  facet normal 8.441235e-01 1.851690e-01 -5.031579e-01
    outer loop
      vertex   9.240849e+00 1.833315e+00 -5.992560e+00
      vertex   9.317568e+00 2.057335e+00 -5.781410e+00
      vertex   9.361460e+00 1.857244e+00 -5.781410e+00
    endloop
  endfacet
  facet normal 8.114130e-01 2.984389e-01 -5.025368e-01
    outer loop
      vertex   8.836637e+00 3.216273e+00 -5.992338e+00
      vertex   8.951763e+00 3.258175e+00 -5.781566e+00
      vertex   9.025179e+00 3.058830e+00 -5.781410e+00
    endloop
  endfacet
  facet normal 7.902026e-01 1.548219e-01 -5.929672e-01
    outer loop
      vertex   8.746750e+00 1.542288e+00 -6.816405e+00
      vertex   8.604244e+00 1.517160e+00 -7.012872e+00
      vertex   8.569719e+00 1.700168e+00 -7.011099e+00
    endloop
  endfacet
  facet normal 1.736482e-01 -9.848078e-01 2.548362e-15
    outer loop
      vertex   8.457589e+00 1.491301e+00 -7.206239e+00
      vertex   8.604244e+00 1.517160e+00 -7.012872e+00
      vertex   -2.307555e-14 0.000000e+00 1.776357e-14
    endloop
  endfacet
  facet normal 1.736482e-01 -9.848078e-01 0.000000e+00
    outer loop
      vertex   -2.307555e-14 0.000000e+00 1.776357e-14
      vertex   8.604244e+00 1.517160e+00 -7.012872e+00
      vertex   8.746750e+00 1.542288e+00 -6.816405e+00
    endloop
  endfacet
  facet normal 1.736482e-01 -9.848078e-01 6.508714e-16
    outer loop
      vertex   -2.307555e-14 0.000000e+00 1.776357e-14
      vertex   8.746750e+00 1.542288e+00 -6.816405e+00
      vertex   8.885067e+00 1.566677e+00 -6.616913e+00
    endloop
  endfacet
  facet normal 1.736482e-01 -9.848078e-01 -1.038011e-15
    outer loop
      vertex   8.885067e+00 1.566677e+00 -6.616913e+00
      vertex   9.019158e+00 1.590321e+00 -6.414473e+00
      vertex   -2.307555e-14 0.000000e+00 1.776357e-14
    endloop
  endfacet
  facet normal 1.736482e-01 -9.848078e-01 -6.516551e-16
    outer loop
      vertex   -2.307555e-14 0.000000e+00 1.776357e-14
      vertex   9.019158e+00 1.590321e+00 -6.414473e+00
      vertex   9.148982e+00 1.613212e+00 -6.209160e+00
    endloop
  endfacet
  facet normal 1.736482e-01 -9.848078e-01 -6.519343e-16
    outer loop
      vertex   -2.307555e-14 0.000000e+00 1.776357e-14
      vertex   9.148982e+00 1.613212e+00 -6.209160e+00
      vertex   9.274501e+00 1.635345e+00 -6.001051e+00
    endloop
  endfacet
  facet normal 1.736482e-01 -9.848078e-01 1.548831e-15
    outer loop
      vertex   9.274501e+00 1.635345e+00 -6.001051e+00
      vertex   9.395675e+00 1.656711e+00 -5.790222e+00
      vertex   -2.307555e-14 0.000000e+00 1.776357e-14
    endloop
  endfacet
  facet normal 1.736482e-01 -9.848078e-01 3.913623e-15
    outer loop
      vertex   -2.307555e-14 0.000000e+00 1.776357e-14
      vertex   9.395675e+00 1.656711e+00 -5.790222e+00
      vertex   9.512466e+00 1.677304e+00 -5.576748e+00
    endloop
  endfacet
  facet normal 4.908697e-01 9.541529e-02 8.659924e-01
    outer loop
      vertex   -2.307555e-14 0.000000e+00 1.776357e-14
      vertex   9.512466e+00 1.677304e+00 -5.576748e+00
      vertex   4.724067e+00 1.004131e+00 -2.788374e+00
    endloop
  endfacet
  facet normal 4.913658e-01 9.217449e-02 8.660621e-01
    outer loop
      vertex   4.724067e+00 1.004131e+00 -2.788374e+00
      vertex   9.512466e+00 1.677304e+00 -5.576748e+00
      vertex   9.472303e+00 1.884044e+00 -5.575965e+00
    endloop
  endfacet
  facet normal 4.893439e-01 1.028892e-01 8.660002e-01
    outer loop
      vertex   4.724067e+00 1.004131e+00 -2.788374e+00
      vertex   9.472303e+00 1.884044e+00 -5.575965e+00
      vertex   9.427502e+00 2.089800e+00 -5.575095e+00
    endloop
  endfacet
  facet normal 4.871573e-01 1.124691e-01 8.660418e-01
    outer loop
      vertex   4.724067e+00 1.004131e+00 -2.788374e+00
      vertex   9.427502e+00 2.089800e+00 -5.575095e+00
      vertex   4.686145e+00 1.168387e+00 -2.788374e+00
    endloop
  endfacet
  facet normal 4.869422e-01 1.135251e-01 8.660250e-01
    outer loop
      vertex   4.686145e+00 1.168387e+00 -2.788374e+00
      vertex   9.427502e+00 2.089800e+00 -5.575095e+00
      vertex   9.378082e+00 2.294495e+00 -5.574141e+00
    endloop
  endfacet
  facet normal 4.843851e-01 1.241278e-01 8.660042e-01
    outer loop
      vertex   4.686145e+00 1.168387e+00 -2.788374e+00
      vertex   9.378082e+00 2.294495e+00 -5.574141e+00
      vertex   9.324063e+00 2.498056e+00 -5.573103e+00
    endloop
  endfacet
  facet normal 4.829077e-01 1.293947e-01 8.660584e-01
    outer loop
      vertex   4.686145e+00 1.168387e+00 -2.788374e+00
      vertex   9.324063e+00 2.498056e+00 -5.573103e+00
      vertex   4.642515e+00 1.331220e+00 -2.788374e+00
    endloop
  endfacet
  facet normal 4.815619e-01 1.346651e-01 8.660043e-01
    outer loop
      vertex   4.642515e+00 1.331220e+00 -2.788374e+00
      vertex   9.324063e+00 2.498056e+00 -5.573103e+00
      vertex   9.265481e+00 2.700346e+00 -5.571984e+00
    endloop
  endfacet
  facet normal 4.784752e-01 1.451291e-01 8.660248e-01
    outer loop
      vertex   4.642515e+00 1.331220e+00 -2.788374e+00
      vertex   9.265481e+00 2.700346e+00 -5.571984e+00
      vertex   9.202379e+00 2.901241e+00 -5.570786e+00
    endloop
  endfacet
  facet normal 4.781248e-01 1.461774e-01 8.660420e-01
    outer loop
      vertex   4.642515e+00 1.331220e+00 -2.788374e+00
      vertex   9.202379e+00 2.901241e+00 -5.570786e+00
      vertex   4.593228e+00 1.492430e+00 -2.788374e+00
    endloop
  endfacet
  facet normal 4.752348e-01 1.555496e-01 8.660001e-01
    outer loop
      vertex   4.593228e+00 1.492430e+00 -2.788374e+00
      vertex   9.202379e+00 2.901241e+00 -5.570786e+00
      vertex   9.134782e+00 3.100670e+00 -5.569512e+00
    endloop
  endfacet
  facet normal 4.716256e-01 1.658489e-01 8.660620e-01
    outer loop
      vertex   4.593228e+00 1.492430e+00 -2.788374e+00
      vertex   9.134782e+00 3.100670e+00 -5.569512e+00
      vertex   9.062717e+00 3.298559e+00 -5.568163e+00
    endloop
  endfacet
  facet normal 4.728133e-01 1.628028e-01 8.659924e-01
    outer loop
      vertex   9.062717e+00 3.298559e+00 -5.568163e+00
      vertex   -2.307555e-14 0.000000e+00 1.776357e-14
      vertex   4.593228e+00 1.492430e+00 -2.788374e+00
    endloop
  endfacet
  facet normal 4.782070e-01 1.462026e-01 8.659924e-01
    outer loop
      vertex   4.593228e+00 1.492430e+00 -2.788374e+00
      vertex   -2.307555e-14 0.000000e+00 1.776357e-14
      vertex   4.642515e+00 1.331220e+00 -2.788374e+00
    endloop
  endfacet
  facet normal 4.830181e-01 1.294243e-01 8.659924e-01
    outer loop
      vertex   4.642515e+00 1.331220e+00 -2.788374e+00
      vertex   -2.307555e-14 0.000000e+00 1.776357e-14
      vertex   4.686145e+00 1.168387e+00 -2.788374e+00
    endloop
  endfacet
  facet normal 4.872407e-01 1.124884e-01 8.659924e-01
    outer loop
      vertex   4.686145e+00 1.168387e+00 -2.788374e+00
      vertex   -2.307555e-14 0.000000e+00 1.776357e-14
      vertex   4.724067e+00 1.004131e+00 -2.788374e+00
    endloop
  endfacet
  facet normal -6.087610e-01 -2.066431e-01 -7.659691e-01
    outer loop
      vertex   -2.307555e-14 0.000000e+00 1.776357e-14
      vertex   8.060313e+00 2.933714e+00 -7.197466e+00
      vertex   4.095303e+00 1.291199e+00 -3.603120e+00
    endloop
  endfacet
  facet normal -6.062387e-01 -2.131858e-01 -7.661765e-01
    outer loop
      vertex   4.095303e+00 1.291199e+00 -3.603120e+00
      vertex   8.060313e+00 2.933714e+00 -7.197466e+00
      vertex   8.123986e+00 2.757599e+00 -7.198844e+00
    endloop
  endfacet
  facet normal -6.109172e-01 -1.999624e-01 -7.660256e-01
    outer loop
      vertex   4.095303e+00 1.291199e+00 -3.603120e+00
      vertex   8.123986e+00 2.757599e+00 -7.198844e+00
      vertex   8.183707e+00 2.580132e+00 -7.200147e+00
    endloop
  endfacet
  facet normal -6.151349e-01 -1.865845e-01 -7.660256e-01
    outer loop
      vertex   8.183707e+00 2.580132e+00 -7.200147e+00
      vertex   8.239452e+00 2.401376e+00 -7.201371e+00
      vertex   4.095303e+00 1.291199e+00 -3.603120e+00
    endloop
  endfacet
  facet normal -6.170239e-01 -1.798385e-01 -7.661199e-01
    outer loop
      vertex   4.095303e+00 1.291199e+00 -3.603120e+00
      vertex   8.239452e+00 2.401376e+00 -7.201371e+00
      vertex   4.147729e+00 1.111325e+00 -3.603120e+00
    endloop
  endfacet
  facet normal -6.171964e-01 -1.798888e-01 -7.659691e-01
    outer loop
      vertex   4.095303e+00 1.291199e+00 -3.603120e+00
      vertex   4.147729e+00 1.111325e+00 -3.603120e+00
      vertex   -2.307555e-14 0.000000e+00 1.776357e-14
    endloop
  endfacet
  facet normal -6.190594e-01 -1.731194e-01 -7.660256e-01
    outer loop
      vertex   8.239452e+00 2.401376e+00 -7.201371e+00
      vertex   8.291199e+00 2.221397e+00 -7.202515e+00
      vertex   4.147729e+00 1.111325e+00 -3.603120e+00
    endloop
  endfacet
  facet normal -6.226886e-01 -1.595734e-01 -7.660257e-01
    outer loop
      vertex   4.147729e+00 1.111325e+00 -3.603120e+00
      vertex   8.291199e+00 2.221397e+00 -7.202515e+00
      vertex   8.338912e+00 2.040301e+00 -7.203575e+00
    endloop
  endfacet
  facet normal -6.242811e-01 -1.527534e-01 -7.661198e-01
    outer loop
      vertex   4.147729e+00 1.111325e+00 -3.603120e+00
      vertex   8.338912e+00 2.040301e+00 -7.203575e+00
      vertex   4.192253e+00 9.293603e-01 -3.603120e+00
    endloop
  endfacet
  facet normal -6.260210e-01 -1.459537e-01 -7.660256e-01
    outer loop
      vertex   4.192253e+00 9.293603e-01 -3.603120e+00
      vertex   8.338912e+00 2.040301e+00 -7.203575e+00
      vertex   8.382559e+00 1.858209e+00 -7.204551e+00
    endloop
  endfacet
  facet normal -6.290549e-01 -1.322670e-01 -7.660257e-01
    outer loop
      vertex   4.192253e+00 9.293603e-01 -3.603120e+00
      vertex   8.382559e+00 1.858209e+00 -7.204551e+00
      vertex   8.422124e+00 1.675187e+00 -7.205439e+00
    endloop
  endfacet
  facet normal -6.316135e-01 -1.184838e-01 -7.661762e-01
    outer loop
      vertex   8.422124e+00 1.675187e+00 -7.205439e+00
      vertex   8.457589e+00 1.491301e+00 -7.206239e+00
      vertex   4.192253e+00 9.293603e-01 -3.603120e+00
    endloop
  endfacet
  facet normal -6.305252e-01 -1.254163e-01 -7.659691e-01
    outer loop
      vertex   4.192253e+00 9.293603e-01 -3.603120e+00
      vertex   8.457589e+00 1.491301e+00 -7.206239e+00
      vertex   -2.307555e-14 0.000000e+00 1.776357e-14
    endloop
  endfacet
  facet normal -6.244555e-01 -1.527961e-01 -7.659691e-01
    outer loop
      vertex   4.192253e+00 9.293603e-01 -3.603120e+00
      vertex   -2.307555e-14 0.000000e+00 1.776357e-14
      vertex   4.147729e+00 1.111325e+00 -3.603120e+00
    endloop
  endfacet
endsolid
