solid ASCII
  facet normal 3.420201e-01 9.396926e-01 -1.228103e-14
    outer loop
      vertex   9.790399e+00 -3.563414e+00 -3.792106e+00
      vertex   0.000000e+00 0.000000e+00 0.000000e+00
      vertex   9.861364e+00 -3.589243e+00 -3.562325e+00
    endloop
  endfacet
  facet normal 3.420201e-01 9.396926e-01 -2.031593e-15
    outer loop
      vertex   9.861364e+00 -3.589243e+00 -3.562325e+00
      vertex   0.000000e+00 0.000000e+00 0.000000e+00
      vertex   9.927815e+00 -3.613429e+00 -3.331166e+00
    endloop
  endfacet
  facet normal 3.420201e-01 9.396926e-01 1.224171e-15
    outer loop
      vertex   9.927815e+00 -3.613429e+00 -3.331166e+00
      vertex   0.000000e+00 0.000000e+00 0.000000e+00
      vertex   9.989743e+00 -3.635969e+00 -3.098711e+00
    endloop
  endfacet
  facet normal 3.420201e-01 9.396926e-01 -1.837646e-15
    outer loop
      vertex   9.989743e+00 -3.635969e+00 -3.098711e+00
      vertex   0.000000e+00 0.000000e+00 0.000000e+00
      vertex   1.004714e+01 -3.656859e+00 -2.865040e+00
    endloop
  endfacet
  facet normal 3.420201e-01 9.396926e-01 2.825765e-15
    outer loop
      vertex   1.004714e+01 -3.656859e+00 -2.865040e+00
      vertex   0.000000e+00 0.000000e+00 0.000000e+00
      vertex   1.009999e+01 -3.676096e+00 -2.630234e+00
    endloop
  endfacet
  facet normal 3.420201e-01 9.396926e-01 -3.949846e-15
    outer loop
      vertex   1.009999e+01 -3.676096e+00 -2.630234e+00
      vertex   0.000000e+00 0.000000e+00 0.000000e+00
      vertex   1.014829e+01 -3.693676e+00 -2.394374e+00
    endloop
  endfacet
  facet normal 3.420201e-01 9.396926e-01 5.521687e-15
    outer loop
      vertex   1.014829e+01 -3.693676e+00 -2.394374e+00
      vertex   0.000000e+00 0.000000e+00 0.000000e+00
      vertex   1.019203e+01 -3.709595e+00 -2.157541e+00
    endloop
  endfacet
  facet normal 3.420201e-01 9.396926e-01 1.171246e-14
    outer loop
      vertex   1.019203e+01 -3.709595e+00 -2.157541e+00
      vertex   0.000000e+00 0.000000e+00 0.000000e+00
      vertex   1.023119e+01 -3.723850e+00 -1.919815e+00
    endloop
  endfacet
  facet normal 8.190335e-01 -4.824720e-01 -3.104914e-01
    outer loop
      vertex   8.998168e+00 -5.195095e+00 -3.781720e+00
      vertex   9.112996e+00 -4.999229e+00 -3.783172e+00
      vertex   9.062973e+00 -5.232510e+00 -3.552634e+00
    endloop
  endfacet
  facet normal 8.242303e-01 -4.775126e-01 -3.043454e-01
    outer loop
      vertex   9.062973e+00 -5.232510e+00 -3.552634e+00
      vertex   9.112996e+00 -4.999229e+00 -3.783172e+00
      vertex   9.159335e+00 -5.153606e+00 -3.415464e+00
    endloop
  endfacet
  facet normal 8.190160e-01 -4.945816e-01 -2.908639e-01
    outer loop
      vertex   9.062973e+00 -5.232510e+00 -3.552634e+00
      vertex   9.159335e+00 -5.153606e+00 -3.415464e+00
      vertex   9.123668e+00 -5.267552e+00 -3.322141e+00
    endloop
  endfacet
  facet normal 8.314569e-01 -4.838722e-01 -2.730333e-01
    outer loop
      vertex   9.123668e+00 -5.267552e+00 -3.322141e+00
      vertex   9.159335e+00 -5.153606e+00 -3.415464e+00
      vertex   9.252726e+00 -5.206154e+00 -3.037938e+00
    endloop
  endfacet
  facet normal 8.295300e-01 -4.881751e-01 -2.712287e-01
    outer loop
      vertex   9.123668e+00 -5.267552e+00 -3.322141e+00
      vertex   9.252726e+00 -5.206154e+00 -3.037938e+00
      vertex   9.180244e+00 -5.300216e+00 -3.090318e+00
    endloop
  endfacet
  facet normal 8.293085e-01 -4.990268e-01 -2.514352e-01
    outer loop
      vertex   9.180244e+00 -5.300216e+00 -3.090318e+00
      vertex   9.252726e+00 -5.206154e+00 -3.037938e+00
      vertex   9.232688e+00 -5.330495e+00 -2.857247e+00
    endloop
  endfacet
  facet normal 8.361491e-01 -4.907525e-01 -2.449828e-01
    outer loop
      vertex   9.232688e+00 -5.330495e+00 -2.857247e+00
      vertex   9.252726e+00 -5.206154e+00 -3.037938e+00
      vertex   9.314740e+00 -5.241047e+00 -2.756380e+00
    endloop
  endfacet
  facet normal 8.328071e-01 -5.027915e-01 -2.315882e-01
    outer loop
      vertex   9.232688e+00 -5.330495e+00 -2.857247e+00
      vertex   9.314740e+00 -5.241047e+00 -2.756380e+00
      vertex   9.280990e+00 -5.358382e+00 -2.623008e+00
    endloop
  endfacet
  facet normal 8.412931e-01 -4.932999e-01 -2.210905e-01
    outer loop
      vertex   9.280990e+00 -5.358382e+00 -2.623008e+00
      vertex   9.314740e+00 -5.241047e+00 -2.756380e+00
      vertex   9.370337e+00 -5.272329e+00 -2.475028e+00
    endloop
  endfacet
  facet normal 8.368401e-01 -5.048688e-01 -2.116744e-01
    outer loop
      vertex   9.280990e+00 -5.358382e+00 -2.623008e+00
      vertex   9.370337e+00 -5.272329e+00 -2.475028e+00
      vertex   9.325137e+00 -5.383871e+00 -2.387679e+00
    endloop
  endfacet
  facet normal 8.450847e-01 -4.969145e-01 -1.972507e-01
    outer loop
      vertex   9.325137e+00 -5.383871e+00 -2.387679e+00
      vertex   9.370337e+00 -5.272329e+00 -2.475028e+00
      vertex   9.419595e+00 -5.300045e+00 -2.194168e+00
    endloop
  endfacet
  facet normal 8.412873e-01 -5.054586e-01 -1.916959e-01
    outer loop
      vertex   9.325137e+00 -5.383871e+00 -2.387679e+00
      vertex   9.419595e+00 -5.300045e+00 -2.194168e+00
      vertex   9.365120e+00 -5.406955e+00 -2.151341e+00
    endloop
  endfacet
  facet normal 8.482595e-01 -5.009865e-01 -1.716635e-01
    outer loop
      vertex   9.365120e+00 -5.406955e+00 -2.151341e+00
      vertex   9.419595e+00 -5.300045e+00 -2.194168e+00
      vertex   9.400927e+00 -5.427628e+00 -1.914074e+00
    endloop
  endfacet
  facet normal 8.488376e-01 -5.001502e-01 -1.712440e-01
    outer loop
      vertex   9.400927e+00 -5.427628e+00 -1.914074e+00
      vertex   9.419595e+00 -5.300045e+00 -2.194168e+00
      vertex   9.521243e+00 -5.223156e+00 -1.914877e+00
    endloop
  endfacet
  facet normal 8.513972e-01 -4.949588e-01 -1.736047e-01
    outer loop
      vertex   9.521243e+00 -5.223156e+00 -1.914877e+00
      vertex   9.419595e+00 -5.300045e+00 -2.194168e+00
      vertex   9.479721e+00 -5.196620e+00 -2.194168e+00
    endloop
  endfacet
  facet normal 8.569597e-01 -4.852968e-01 -1.735137e-01
    outer loop
      vertex   9.521243e+00 -5.223156e+00 -1.914877e+00
      vertex   9.479721e+00 -5.196620e+00 -2.194168e+00
      vertex   9.538569e+00 -5.092704e+00 -2.194168e+00
    endloop
  endfacet
  facet normal 8.530528e-01 -4.830843e-01 -1.973082e-01
    outer loop
      vertex   9.538569e+00 -5.092704e+00 -2.194168e+00
      vertex   9.479721e+00 -5.196620e+00 -2.194168e+00
      vertex   9.430148e+00 -5.169445e+00 -2.475028e+00
    endloop
  endfacet
  facet normal 8.530528e-01 -4.830843e-01 -1.973082e-01
    outer loop
      vertex   9.538569e+00 -5.092704e+00 -2.194168e+00
      vertex   9.430148e+00 -5.169445e+00 -2.475028e+00
      vertex   9.488688e+00 -5.066072e+00 -2.475028e+00
    endloop
  endfacet
  facet normal 8.486136e-01 -4.805704e-01 -2.211495e-01
    outer loop
      vertex   9.488688e+00 -5.066072e+00 -2.475028e+00
      vertex   9.430148e+00 -5.169445e+00 -2.475028e+00
      vertex   9.374197e+00 -5.138773e+00 -2.756380e+00
    endloop
  endfacet
  facet normal 8.486136e-01 -4.805704e-01 -2.211495e-01
    outer loop
      vertex   9.488688e+00 -5.066072e+00 -2.475028e+00
      vertex   9.374197e+00 -5.138773e+00 -2.756380e+00
      vertex   9.432389e+00 -5.036014e+00 -2.756380e+00
    endloop
  endfacet
  facet normal 8.436282e-01 -4.777472e-01 -2.450491e-01
    outer loop
      vertex   9.432389e+00 -5.036014e+00 -2.756380e+00
      vertex   9.374197e+00 -5.138773e+00 -2.756380e+00
      vertex   9.311787e+00 -5.104561e+00 -3.037938e+00
    endloop
  endfacet
  facet normal 8.436282e-01 -4.777472e-01 -2.450491e-01
    outer loop
      vertex   9.432389e+00 -5.036014e+00 -2.756380e+00
      vertex   9.311787e+00 -5.104561e+00 -3.037938e+00
      vertex   9.369592e+00 -5.002486e+00 -3.037938e+00
    endloop
  endfacet
  facet normal 8.370826e-01 -4.740404e-01 -2.730907e-01
    outer loop
      vertex   9.369592e+00 -5.002486e+00 -3.037938e+00
      vertex   9.311787e+00 -5.104561e+00 -3.037938e+00
      vertex   9.217800e+00 -5.053039e+00 -3.415464e+00
    endloop
  endfacet
  facet normal 8.370826e-01 -4.740404e-01 -2.730907e-01
    outer loop
      vertex   9.369592e+00 -5.002486e+00 -3.037938e+00
      vertex   9.217800e+00 -5.053039e+00 -3.415464e+00
      vertex   9.275021e+00 -4.951994e+00 -3.415464e+00
    endloop
  endfacet
  facet normal 8.287312e-01 -4.693110e-01 -3.048801e-01
    outer loop
      vertex   9.275021e+00 -4.951994e+00 -3.415464e+00
      vertex   9.217800e+00 -5.053039e+00 -3.415464e+00
      vertex   9.112996e+00 -4.999229e+00 -3.783172e+00
    endloop
  endfacet
  facet normal 8.307935e-01 -4.646608e-01 -3.063862e-01
    outer loop
      vertex   9.275021e+00 -4.951994e+00 -3.415464e+00
      vertex   9.112996e+00 -4.999229e+00 -3.783172e+00
      vertex   9.223412e+00 -4.800878e+00 -3.784586e+00
    endloop
  endfacet
  facet normal 8.339831e-01 -4.599090e-01 -3.048868e-01
    outer loop
      vertex   9.275021e+00 -4.951994e+00 -3.415464e+00
      vertex   9.223412e+00 -4.800878e+00 -3.784586e+00
      vertex   9.330994e+00 -4.850494e+00 -3.415464e+00
    endloop
  endfacet
  facet normal 8.413360e-01 -4.461180e-01 -3.051761e-01
    outer loop
      vertex   9.330994e+00 -4.850494e+00 -3.415464e+00
      vertex   9.223412e+00 -4.800878e+00 -3.784586e+00
      vertex   9.329371e+00 -4.600111e+00 -3.785959e+00
    endloop
  endfacet
  facet normal 8.416423e-01 -4.457221e-01 -3.049098e-01
    outer loop
      vertex   9.330994e+00 -4.850494e+00 -3.415464e+00
      vertex   9.329371e+00 -4.600111e+00 -3.785959e+00
      vertex   9.439178e+00 -4.646215e+00 -3.415464e+00
    endloop
  endfacet
  facet normal 8.510653e-01 -4.271143e-01 -3.053871e-01
    outer loop
      vertex   9.439178e+00 -4.646215e+00 -3.415464e+00
      vertex   9.329371e+00 -4.600111e+00 -3.785959e+00
      vertex   9.430828e+00 -4.396999e+00 -3.787287e+00
    endloop
  endfacet
  facet normal 8.514242e-01 -4.266266e-01 -3.050682e-01
    outer loop
      vertex   9.439178e+00 -4.646215e+00 -3.415464e+00
      vertex   9.430828e+00 -4.396999e+00 -3.787287e+00
      vertex   9.542320e+00 -4.440372e+00 -3.415464e+00
    endloop
  endfacet
  facet normal 8.603861e-01 -4.078772e-01 -3.055684e-01
    outer loop
      vertex   9.542320e+00 -4.440372e+00 -3.415464e+00
      vertex   9.430828e+00 -4.396999e+00 -3.787287e+00
      vertex   9.527715e+00 -4.191664e+00 -3.788568e+00
    endloop
  endfacet
  facet normal 8.607413e-01 -4.073701e-01 -3.052443e-01
    outer loop
      vertex   9.542320e+00 -4.440372e+00 -3.415464e+00
      vertex   9.527715e+00 -4.191664e+00 -3.788568e+00
      vertex   9.640399e+00 -4.233140e+00 -3.415464e+00
    endloop
  endfacet
  facet normal 8.692909e-01 -3.884183e-01 -3.057197e-01
    outer loop
      vertex   9.640399e+00 -4.233140e+00 -3.415464e+00
      vertex   9.527715e+00 -4.191664e+00 -3.788568e+00
      vertex   9.619964e+00 -3.984239e+00 -3.789800e+00
    endloop
  endfacet
  facet normal 8.695905e-01 -3.879694e-01 -3.054376e-01
    outer loop
      vertex   9.640399e+00 -4.233140e+00 -3.415464e+00
      vertex   9.619964e+00 -3.984239e+00 -3.789800e+00
      vertex   9.733400e+00 -4.024689e+00 -3.415464e+00
    endloop
  endfacet
  facet normal 8.777739e-01 -3.687475e-01 -3.058403e-01
    outer loop
      vertex   9.733400e+00 -4.024689e+00 -3.415464e+00
      vertex   9.619964e+00 -3.984239e+00 -3.789800e+00
      vertex   9.707538e+00 -3.774797e+00 -3.790980e+00
    endloop
  endfacet
  facet normal 8.779686e-01 -3.684415e-01 -3.056501e-01
    outer loop
      vertex   9.733400e+00 -4.024689e+00 -3.415464e+00
      vertex   9.707538e+00 -3.774797e+00 -3.790980e+00
      vertex   9.821316e+00 -3.815191e+00 -3.415464e+00
    endloop
  endfacet
  facet normal 8.832784e-01 -3.553513e-01 -3.058508e-01
    outer loop
      vertex   9.821316e+00 -3.815191e+00 -3.415464e+00
      vertex   9.707538e+00 -3.774797e+00 -3.790980e+00
      vertex   9.861364e+00 -3.589243e+00 -3.562325e+00
    endloop
  endfacet
  facet normal 8.907203e-01 -3.479690e-01 -2.924636e-01
    outer loop
      vertex   9.821316e+00 -3.815191e+00 -3.415464e+00
      vertex   9.861364e+00 -3.589243e+00 -3.562325e+00
      vertex   9.927815e+00 -3.613429e+00 -3.331166e+00
    endloop
  endfacet
  facet normal 8.839435e-01 -3.481651e-01 -3.121299e-01
    outer loop
      vertex   9.707538e+00 -3.774797e+00 -3.790980e+00
      vertex   9.790399e+00 -3.563414e+00 -3.792106e+00
      vertex   9.861364e+00 -3.589243e+00 -3.562325e+00
    endloop
  endfacet
  facet normal 8.930854e-01 -3.570619e-01 -2.736884e-01
    outer loop
      vertex   9.821316e+00 -3.815191e+00 -3.415464e+00
      vertex   9.927815e+00 -3.613429e+00 -3.331166e+00
      vertex   9.921457e+00 -3.854092e+00 -3.037938e+00
    endloop
  endfacet
  facet normal 8.939035e-01 -3.558113e-01 -2.726442e-01
    outer loop
      vertex   9.921457e+00 -3.854092e+00 -3.037938e+00
      vertex   9.927815e+00 -3.613429e+00 -3.331166e+00
      vertex   9.989743e+00 -3.635969e+00 -3.098711e+00
    endloop
  endfacet
  facet normal 9.010080e-01 -3.525128e-01 -2.528227e-01
    outer loop
      vertex   9.921457e+00 -3.854092e+00 -3.037938e+00
      vertex   9.989743e+00 -3.635969e+00 -3.098711e+00
      vertex   1.004714e+01 -3.656859e+00 -2.865040e+00
    endloop
  endfacet
  facet normal 9.006075e-01 -3.585921e-01 -2.455968e-01
    outer loop
      vertex   9.921457e+00 -3.854092e+00 -3.037938e+00
      vertex   1.004714e+01 -3.656859e+00 -2.865040e+00
      vertex   9.987953e+00 -3.879923e+00 -2.756380e+00
    endloop
  endfacet
  facet normal 9.058660e-01 -3.537953e-01 -2.328856e-01
    outer loop
      vertex   9.987953e+00 -3.879923e+00 -2.756380e+00
      vertex   1.004714e+01 -3.656859e+00 -2.865040e+00
      vertex   1.009999e+01 -3.676096e+00 -2.630234e+00
    endloop
  endfacet
  facet normal 9.059286e-01 -3.607836e-01 -2.216495e-01
    outer loop
      vertex   9.987953e+00 -3.879923e+00 -2.756380e+00
      vertex   1.009999e+01 -3.676096e+00 -2.630234e+00
      vertex   1.004757e+01 -3.903081e+00 -2.475028e+00
    endloop
  endfacet
  facet normal 9.100245e-01 -3.557267e-01 -2.128706e-01
    outer loop
      vertex   1.004757e+01 -3.903081e+00 -2.475028e+00
      vertex   1.009999e+01 -3.676096e+00 -2.630234e+00
      vertex   1.014829e+01 -3.693676e+00 -2.394374e+00
    endloop
  endfacet
  facet normal 9.109606e-01 -3.619968e-01 -1.977602e-01
    outer loop
      vertex   1.004757e+01 -3.903081e+00 -2.475028e+00
      vertex   1.014829e+01 -3.693676e+00 -2.394374e+00
      vertex   1.010039e+01 -3.923599e+00 -2.194168e+00
    endloop
  endfacet
  facet normal 9.135250e-01 -3.581986e-01 -1.927846e-01
    outer loop
      vertex   1.010039e+01 -3.923599e+00 -2.194168e+00
      vertex   1.014829e+01 -3.693676e+00 -2.394374e+00
      vertex   1.019203e+01 -3.709595e+00 -2.157541e+00
    endloop
  endfacet
  facet normal 9.156599e-01 -3.623205e-01 -1.740428e-01
    outer loop
      vertex   1.010039e+01 -3.923599e+00 -2.194168e+00
      vertex   1.019203e+01 -3.709595e+00 -2.157541e+00
      vertex   1.014433e+01 -3.944620e+00 -1.919192e+00
    endloop
  endfacet
  facet normal 9.164286e-01 -3.610484e-01 -1.726345e-01
    outer loop
      vertex   1.014433e+01 -3.944620e+00 -1.919192e+00
      vertex   1.019203e+01 -3.709595e+00 -2.157541e+00
      vertex   1.023119e+01 -3.723850e+00 -1.919815e+00
    endloop
  endfacet
  facet normal 9.079901e-01 -3.810401e-01 -1.742480e-01
    outer loop
      vertex   1.010039e+01 -3.923599e+00 -2.194168e+00
      vertex   1.014433e+01 -3.944620e+00 -1.919192e+00
      vertex   1.000997e+01 -4.139049e+00 -2.194168e+00
    endloop
  endfacet
  facet normal 9.078646e-01 -3.815229e-01 -1.738453e-01
    outer loop
      vertex   1.000997e+01 -4.139049e+00 -2.194168e+00
      vertex   1.014433e+01 -3.944620e+00 -1.919192e+00
      vertex   1.005254e+01 -4.163349e+00 -1.918540e+00
    endloop
  endfacet
  facet normal 8.992605e-01 -4.012068e-01 -1.742519e-01
    outer loop
      vertex   1.000997e+01 -4.139049e+00 -2.194168e+00
      vertex   1.005254e+01 -4.163349e+00 -1.918540e+00
      vertex   9.914328e+00 -4.353423e+00 -2.194168e+00
    endloop
  endfacet
  facet normal 8.990726e-01 -4.018651e-01 -1.737037e-01
    outer loop
      vertex   9.914328e+00 -4.353423e+00 -2.194168e+00
      vertex   1.005254e+01 -4.163349e+00 -1.918540e+00
      vertex   9.955851e+00 -4.379961e+00 -1.917859e+00
    endloop
  endfacet
  facet normal 8.900581e-01 -4.212451e-01 -1.742104e-01
    outer loop
      vertex   9.914328e+00 -4.353423e+00 -2.194168e+00
      vertex   9.955851e+00 -4.379961e+00 -1.917859e+00
      vertex   9.813463e+00 -4.566544e+00 -2.194168e+00
    endloop
  endfacet
  facet normal 8.898296e-01 -4.219809e-01 -1.735957e-01
    outer loop
      vertex   9.813463e+00 -4.566544e+00 -2.194168e+00
      vertex   9.955851e+00 -4.379961e+00 -1.917859e+00
      vertex   9.854307e+00 -4.594376e+00 -1.917151e+00
    endloop
  endfacet
  facet normal 8.803845e-01 -4.411379e-01 -1.741278e-01
    outer loop
      vertex   9.813463e+00 -4.566544e+00 -2.194168e+00
      vertex   9.854307e+00 -4.594376e+00 -1.917151e+00
      vertex   9.707390e+00 -4.778236e+00 -2.194168e+00
    endloop
  endfacet
  facet normal 8.801425e-01 -4.418596e-01 -1.735205e-01
    outer loop
      vertex   9.707390e+00 -4.778236e+00 -2.194168e+00
      vertex   9.854307e+00 -4.594376e+00 -1.917151e+00
      vertex   9.747981e+00 -4.806457e+00 -1.916417e+00
    endloop
  endfacet
  facet normal 8.702428e-01 -4.608684e-01 -1.740051e-01
    outer loop
      vertex   9.707390e+00 -4.778236e+00 -2.194168e+00
      vertex   9.747981e+00 -4.806457e+00 -1.916417e+00
      vertex   9.596132e+00 -4.988320e+00 -2.194168e+00
    endloop
  endfacet
  facet normal 8.700197e-01 -4.614881e-01 -1.734775e-01
    outer loop
      vertex   9.596132e+00 -4.988320e+00 -2.194168e+00
      vertex   9.747981e+00 -4.806457e+00 -1.916417e+00
      vertex   9.636944e+00 -5.016075e+00 -1.915658e+00
    endloop
  endfacet
  facet normal 8.623551e-01 -4.755550e-01 -1.737561e-01
    outer loop
      vertex   9.596132e+00 -4.988320e+00 -2.194168e+00
      vertex   9.636944e+00 -5.016075e+00 -1.915658e+00
      vertex   9.538569e+00 -5.092704e+00 -2.194168e+00
    endloop
  endfacet
  facet normal 8.597962e-01 -4.810315e-01 -1.713455e-01
    outer loop
      vertex   9.538569e+00 -5.092704e+00 -2.194168e+00
      vertex   9.636944e+00 -5.016075e+00 -1.915658e+00
      vertex   9.521243e+00 -5.223156e+00 -1.914877e+00
    endloop
  endfacet
  facet normal 8.316763e-01 -4.834941e-01 -2.730349e-01
    outer loop
      vertex   9.217800e+00 -5.053039e+00 -3.415464e+00
      vertex   9.311787e+00 -5.104561e+00 -3.037938e+00
      vertex   9.159335e+00 -5.153606e+00 -3.415464e+00
    endloop
  endfacet
  facet normal 8.316763e-01 -4.834941e-01 -2.730349e-01
    outer loop
      vertex   9.159335e+00 -5.153606e+00 -3.415464e+00
      vertex   9.311787e+00 -5.104561e+00 -3.037938e+00
      vertex   9.252726e+00 -5.206154e+00 -3.037938e+00
    endloop
  endfacet
  facet normal 8.381770e-01 -4.872733e-01 -2.449982e-01
    outer loop
      vertex   9.311787e+00 -5.104561e+00 -3.037938e+00
      vertex   9.374197e+00 -5.138773e+00 -2.756380e+00
      vertex   9.252726e+00 -5.206154e+00 -3.037938e+00
    endloop
  endfacet
  facet normal 8.381770e-01 -4.872733e-01 -2.449982e-01
    outer loop
      vertex   9.252726e+00 -5.206154e+00 -3.037938e+00
      vertex   9.374197e+00 -5.138773e+00 -2.756380e+00
      vertex   9.314740e+00 -5.241047e+00 -2.756380e+00
    endloop
  endfacet
  facet normal 8.475367e-01 -4.927145e-01 -1.972663e-01
    outer loop
      vertex   9.479721e+00 -5.196620e+00 -2.194168e+00
      vertex   9.419595e+00 -5.300045e+00 -2.194168e+00
      vertex   9.370337e+00 -5.272329e+00 -2.475028e+00
    endloop
  endfacet
  facet normal 8.431280e-01 -4.901516e-01 -2.211031e-01
    outer loop
      vertex   9.374197e+00 -5.138773e+00 -2.756380e+00
      vertex   9.430148e+00 -5.169445e+00 -2.475028e+00
      vertex   9.314740e+00 -5.241047e+00 -2.756380e+00
    endloop
  endfacet
  facet normal 8.431280e-01 -4.901516e-01 -2.211031e-01
    outer loop
      vertex   9.314740e+00 -5.241047e+00 -2.756380e+00
      vertex   9.430148e+00 -5.169445e+00 -2.475028e+00
      vertex   9.370337e+00 -5.272329e+00 -2.475028e+00
    endloop
  endfacet
  facet normal 8.475367e-01 -4.927145e-01 -1.972663e-01
    outer loop
      vertex   9.430148e+00 -5.169445e+00 -2.475028e+00
      vertex   9.479721e+00 -5.196620e+00 -2.194168e+00
      vertex   9.370337e+00 -5.272329e+00 -2.475028e+00
    endloop
  endfacet
  facet normal 8.234056e-01 -4.786860e-01 -3.047341e-01
    outer loop
      vertex   9.112996e+00 -4.999229e+00 -3.783172e+00
      vertex   9.217800e+00 -5.053039e+00 -3.415464e+00
      vertex   9.159335e+00 -5.153606e+00 -3.415464e+00
    endloop
  endfacet
  facet normal 8.423756e-01 -4.645371e-01 -2.731456e-01
    outer loop
      vertex   9.369592e+00 -5.002486e+00 -3.037938e+00
      vertex   9.275021e+00 -4.951994e+00 -3.415464e+00
      vertex   9.426136e+00 -4.899952e+00 -3.037938e+00
    endloop
  endfacet
  facet normal 8.423756e-01 -4.645371e-01 -2.731456e-01
    outer loop
      vertex   9.426136e+00 -4.899952e+00 -3.037938e+00
      vertex   9.275021e+00 -4.951994e+00 -3.415464e+00
      vertex   9.330994e+00 -4.850494e+00 -3.415464e+00
    endloop
  endfacet
  facet normal 8.501013e-01 -4.502018e-01 -2.732146e-01
    outer loop
      vertex   9.426136e+00 -4.899952e+00 -3.037938e+00
      vertex   9.330994e+00 -4.850494e+00 -3.415464e+00
      vertex   9.535423e+00 -4.693589e+00 -3.037938e+00
    endloop
  endfacet
  facet normal 8.501013e-01 -4.502018e-01 -2.732146e-01
    outer loop
      vertex   9.535423e+00 -4.693589e+00 -3.037938e+00
      vertex   9.330994e+00 -4.850494e+00 -3.415464e+00
      vertex   9.439178e+00 -4.646215e+00 -3.415464e+00
    endloop
  endfacet
  facet normal 8.600006e-01 -4.309241e-01 -2.733192e-01
    outer loop
      vertex   9.535423e+00 -4.693589e+00 -3.037938e+00
      vertex   9.439178e+00 -4.646215e+00 -3.415464e+00
      vertex   9.639617e+00 -4.485648e+00 -3.037938e+00
    endloop
  endfacet
  facet normal 8.600006e-01 -4.309241e-01 -2.733192e-01
    outer loop
      vertex   9.639617e+00 -4.485648e+00 -3.037938e+00
      vertex   9.439178e+00 -4.646215e+00 -3.415464e+00
      vertex   9.542320e+00 -4.440372e+00 -3.415464e+00
    endloop
  endfacet
  facet normal 8.694372e-01 -4.114857e-01 -2.734200e-01
    outer loop
      vertex   9.639617e+00 -4.485648e+00 -3.037938e+00
      vertex   9.542320e+00 -4.440372e+00 -3.415464e+00
      vertex   9.738695e+00 -4.276302e+00 -3.037938e+00
    endloop
  endfacet
  facet normal 8.694372e-01 -4.114857e-01 -2.734200e-01
    outer loop
      vertex   9.738695e+00 -4.276302e+00 -3.037938e+00
      vertex   9.542320e+00 -4.440372e+00 -3.415464e+00
      vertex   9.640399e+00 -4.233140e+00 -3.415464e+00
    endloop
  endfacet
  facet normal 8.784078e-01 -3.919033e-01 -2.735169e-01
    outer loop
      vertex   9.738695e+00 -4.276302e+00 -3.037938e+00
      vertex   9.640399e+00 -4.233140e+00 -3.415464e+00
      vertex   9.832644e+00 -4.065726e+00 -3.037938e+00
    endloop
  endfacet
  facet normal 8.784078e-01 -3.919033e-01 -2.735169e-01
    outer loop
      vertex   9.832644e+00 -4.065726e+00 -3.037938e+00
      vertex   9.640399e+00 -4.233140e+00 -3.415464e+00
      vertex   9.733400e+00 -4.024689e+00 -3.415464e+00
    endloop
  endfacet
  facet normal 8.869101e-01 -3.721938e-01 -2.736096e-01
    outer loop
      vertex   9.832644e+00 -4.065726e+00 -3.037938e+00
      vertex   9.733400e+00 -4.024689e+00 -3.415464e+00
      vertex   9.921457e+00 -3.854092e+00 -3.037938e+00
    endloop
  endfacet
  facet normal 8.869101e-01 -3.721938e-01 -2.736096e-01
    outer loop
      vertex   9.921457e+00 -3.854092e+00 -3.037938e+00
      vertex   9.733400e+00 -4.024689e+00 -3.415464e+00
      vertex   9.821316e+00 -3.815191e+00 -3.415464e+00
    endloop
  endfacet
  facet normal 8.489654e-01 -4.681711e-01 -2.450991e-01
    outer loop
      vertex   9.432389e+00 -5.036014e+00 -2.756380e+00
      vertex   9.369592e+00 -5.002486e+00 -3.037938e+00
      vertex   9.489312e+00 -4.932792e+00 -2.756380e+00
    endloop
  endfacet
  facet normal 8.489654e-01 -4.681711e-01 -2.450991e-01
    outer loop
      vertex   9.489312e+00 -4.932792e+00 -2.756380e+00
      vertex   9.369592e+00 -5.002486e+00 -3.037938e+00
      vertex   9.426136e+00 -4.899952e+00 -3.037938e+00
    endloop
  endfacet
  facet normal 8.567548e-01 -4.537254e-01 -2.451620e-01
    outer loop
      vertex   9.489312e+00 -4.932792e+00 -2.756380e+00
      vertex   9.426136e+00 -4.899952e+00 -3.037938e+00
      vertex   9.599332e+00 -4.725047e+00 -2.756380e+00
    endloop
  endfacet
  facet normal 8.567548e-01 -4.537254e-01 -2.451620e-01
    outer loop
      vertex   9.599332e+00 -4.725047e+00 -2.756380e+00
      vertex   9.426136e+00 -4.899952e+00 -3.037938e+00
      vertex   9.535423e+00 -4.693589e+00 -3.037938e+00
    endloop
  endfacet
  facet normal 8.667369e-01 -4.342994e-01 -2.452573e-01
    outer loop
      vertex   9.599332e+00 -4.725047e+00 -2.756380e+00
      vertex   9.535423e+00 -4.693589e+00 -3.037938e+00
      vertex   9.704224e+00 -4.515712e+00 -2.756380e+00
    endloop
  endfacet
  facet normal 8.667369e-01 -4.342994e-01 -2.452573e-01
    outer loop
      vertex   9.704224e+00 -4.515712e+00 -2.756380e+00
      vertex   9.535423e+00 -4.693589e+00 -3.037938e+00
      vertex   9.639617e+00 -4.485648e+00 -3.037938e+00
    endloop
  endfacet
  facet normal 8.762525e-01 -4.147112e-01 -2.453492e-01
    outer loop
      vertex   9.704224e+00 -4.515712e+00 -2.756380e+00
      vertex   9.639617e+00 -4.485648e+00 -3.037938e+00
      vertex   9.803967e+00 -4.304963e+00 -2.756380e+00
    endloop
  endfacet
  facet normal 8.762525e-01 -4.147112e-01 -2.453492e-01
    outer loop
      vertex   9.803967e+00 -4.304963e+00 -2.756380e+00
      vertex   9.639617e+00 -4.485648e+00 -3.037938e+00
      vertex   9.738695e+00 -4.276302e+00 -3.037938e+00
    endloop
  endfacet
  facet normal 8.852984e-01 -3.949775e-01 -2.454375e-01
    outer loop
      vertex   9.803967e+00 -4.304963e+00 -2.756380e+00
      vertex   9.738695e+00 -4.276302e+00 -3.037938e+00
      vertex   9.898545e+00 -4.092975e+00 -2.756380e+00
    endloop
  endfacet
  facet normal 8.852984e-01 -3.949775e-01 -2.454375e-01
    outer loop
      vertex   9.898545e+00 -4.092975e+00 -2.756380e+00
      vertex   9.738695e+00 -4.276302e+00 -3.037938e+00
      vertex   9.832644e+00 -4.065726e+00 -3.037938e+00
    endloop
  endfacet
  facet normal 8.938721e-01 -3.751154e-01 -2.455220e-01
    outer loop
      vertex   9.898545e+00 -4.092975e+00 -2.756380e+00
      vertex   9.832644e+00 -4.065726e+00 -3.037938e+00
      vertex   9.987953e+00 -3.879923e+00 -2.756380e+00
    endloop
  endfacet
  facet normal 8.938721e-01 -3.751154e-01 -2.455220e-01
    outer loop
      vertex   9.987953e+00 -3.879923e+00 -2.756380e+00
      vertex   9.832644e+00 -4.065726e+00 -3.037938e+00
      vertex   9.921457e+00 -3.854092e+00 -3.037938e+00
    endloop
  endfacet
  facet normal 8.539843e-01 -4.709389e-01 -2.211952e-01
    outer loop
      vertex   9.488688e+00 -5.066072e+00 -2.475028e+00
      vertex   9.432389e+00 -5.036014e+00 -2.756380e+00
      vertex   9.545951e+00 -4.962234e+00 -2.475028e+00
    endloop
  endfacet
  facet normal 8.539843e-01 -4.709389e-01 -2.211952e-01
    outer loop
      vertex   9.545951e+00 -4.962234e+00 -2.475028e+00
      vertex   9.432389e+00 -5.036014e+00 -2.756380e+00
      vertex   9.489312e+00 -4.932792e+00 -2.756380e+00
    endloop
  endfacet
  facet normal 8.618225e-01 -4.564092e-01 -2.212526e-01
    outer loop
      vertex   9.545951e+00 -4.962234e+00 -2.475028e+00
      vertex   9.489312e+00 -4.932792e+00 -2.756380e+00
      vertex   9.656626e+00 -4.753249e+00 -2.475028e+00
    endloop
  endfacet
  facet normal 8.618225e-01 -4.564092e-01 -2.212526e-01
    outer loop
      vertex   9.656626e+00 -4.753249e+00 -2.475028e+00
      vertex   9.489312e+00 -4.932792e+00 -2.756380e+00
      vertex   9.599332e+00 -4.725047e+00 -2.756380e+00
    endloop
  endfacet
  facet normal 8.718676e-01 -4.368703e-01 -2.213397e-01
    outer loop
      vertex   9.656626e+00 -4.753249e+00 -2.475028e+00
      vertex   9.599332e+00 -4.725047e+00 -2.756380e+00
      vertex   9.762145e+00 -4.542664e+00 -2.475028e+00
    endloop
  endfacet
  facet normal 8.718676e-01 -4.368703e-01 -2.213397e-01
    outer loop
      vertex   9.762145e+00 -4.542664e+00 -2.475028e+00
      vertex   9.599332e+00 -4.725047e+00 -2.756380e+00
      vertex   9.704224e+00 -4.515712e+00 -2.756380e+00
    endloop
  endfacet
  facet normal 8.814434e-01 -4.171679e-01 -2.214236e-01
    outer loop
      vertex   9.762145e+00 -4.542664e+00 -2.475028e+00
      vertex   9.704224e+00 -4.515712e+00 -2.756380e+00
      vertex   9.862483e+00 -4.330658e+00 -2.475028e+00
    endloop
  endfacet
  facet normal 8.814434e-01 -4.171679e-01 -2.214236e-01
    outer loop
      vertex   9.862483e+00 -4.330658e+00 -2.475028e+00
      vertex   9.704224e+00 -4.515712e+00 -2.756380e+00
      vertex   9.803967e+00 -4.304963e+00 -2.756380e+00
    endloop
  endfacet
  facet normal 8.905467e-01 -3.973191e-01 -2.215042e-01
    outer loop
      vertex   9.862483e+00 -4.330658e+00 -2.475028e+00
      vertex   9.803967e+00 -4.304963e+00 -2.756380e+00
      vertex   9.957626e+00 -4.117405e+00 -2.475028e+00
    endloop
  endfacet
  facet normal 8.905467e-01 -3.973191e-01 -2.215042e-01
    outer loop
      vertex   9.957626e+00 -4.117405e+00 -2.475028e+00
      vertex   9.803967e+00 -4.304963e+00 -2.756380e+00
      vertex   9.898545e+00 -4.092975e+00 -2.756380e+00
    endloop
  endfacet
  facet normal 8.991750e-01 -3.773408e-01 -2.215813e-01
    outer loop
      vertex   9.957626e+00 -4.117405e+00 -2.475028e+00
      vertex   9.898545e+00 -4.092975e+00 -2.756380e+00
      vertex   1.004757e+01 -3.903081e+00 -2.475028e+00
    endloop
  endfacet
  facet normal 8.991750e-01 -3.773408e-01 -2.215813e-01
    outer loop
      vertex   1.004757e+01 -3.903081e+00 -2.475028e+00
      vertex   9.898545e+00 -4.092975e+00 -2.756380e+00
      vertex   9.987953e+00 -3.879923e+00 -2.756380e+00
    endloop
  endfacet
  facet normal 8.584535e-01 -4.734034e-01 -1.973494e-01
    outer loop
      vertex   9.538569e+00 -5.092704e+00 -2.194168e+00
      vertex   9.488688e+00 -5.066072e+00 -2.475028e+00
      vertex   9.596132e+00 -4.988320e+00 -2.194168e+00
    endloop
  endfacet
  facet normal 8.584535e-01 -4.734034e-01 -1.973494e-01
    outer loop
      vertex   9.596132e+00 -4.988320e+00 -2.194168e+00
      vertex   9.488688e+00 -5.066072e+00 -2.475028e+00
      vertex   9.545951e+00 -4.962234e+00 -2.475028e+00
    endloop
  endfacet
  facet normal 8.663350e-01 -4.587989e-01 -1.974011e-01
    outer loop
      vertex   9.596132e+00 -4.988320e+00 -2.194168e+00
      vertex   9.545951e+00 -4.962234e+00 -2.475028e+00
      vertex   9.707390e+00 -4.778236e+00 -2.194168e+00
    endloop
  endfacet
  facet normal 8.663350e-01 -4.587989e-01 -1.974011e-01
    outer loop
      vertex   9.707390e+00 -4.778236e+00 -2.194168e+00
      vertex   9.545951e+00 -4.962234e+00 -2.475028e+00
      vertex   9.656626e+00 -4.753249e+00 -2.475028e+00
    endloop
  endfacet
  facet normal 8.764363e-01 -4.391596e-01 -1.974796e-01
    outer loop
      vertex   9.707390e+00 -4.778236e+00 -2.194168e+00
      vertex   9.656626e+00 -4.753249e+00 -2.475028e+00
      vertex   9.813463e+00 -4.566544e+00 -2.194168e+00
    endloop
  endfacet
  facet normal 8.764363e-01 -4.391596e-01 -1.974796e-01
    outer loop
      vertex   9.813463e+00 -4.566544e+00 -2.194168e+00
      vertex   9.656626e+00 -4.753249e+00 -2.475028e+00
      vertex   9.762145e+00 -4.542664e+00 -2.475028e+00
    endloop
  endfacet
  facet normal 8.860659e-01 -4.193556e-01 -1.975553e-01
    outer loop
      vertex   9.813463e+00 -4.566544e+00 -2.194168e+00
      vertex   9.762145e+00 -4.542664e+00 -2.475028e+00
      vertex   9.914328e+00 -4.353423e+00 -2.194168e+00
    endloop
  endfacet
  facet normal 8.860659e-01 -4.193556e-01 -1.975553e-01
    outer loop
      vertex   9.914328e+00 -4.353423e+00 -2.194168e+00
      vertex   9.762145e+00 -4.542664e+00 -2.475028e+00
      vertex   9.862483e+00 -4.330658e+00 -2.475028e+00
    endloop
  endfacet
  facet normal 8.952203e-01 -3.994042e-01 -1.976280e-01
    outer loop
      vertex   9.914328e+00 -4.353423e+00 -2.194168e+00
      vertex   9.862483e+00 -4.330658e+00 -2.475028e+00
      vertex   1.000997e+01 -4.139049e+00 -2.194168e+00
    endloop
  endfacet
  facet normal 8.952203e-01 -3.994042e-01 -1.976280e-01
    outer loop
      vertex   1.000997e+01 -4.139049e+00 -2.194168e+00
      vertex   9.862483e+00 -4.330658e+00 -2.475028e+00
      vertex   9.957626e+00 -4.117405e+00 -2.475028e+00
    endloop
  endfacet
  facet normal 9.038972e-01 -3.793225e-01 -1.976975e-01
    outer loop
      vertex   1.000997e+01 -4.139049e+00 -2.194168e+00
      vertex   9.957626e+00 -4.117405e+00 -2.475028e+00
      vertex   1.010039e+01 -3.923599e+00 -2.194168e+00
    endloop
  endfacet
  facet normal 9.038972e-01 -3.793225e-01 -1.976975e-01
    outer loop
      vertex   1.010039e+01 -3.923599e+00 -2.194168e+00
      vertex   9.957626e+00 -4.117405e+00 -2.475028e+00
      vertex   1.004757e+01 -3.903081e+00 -2.475028e+00
    endloop
  endfacet
  facet normal -5.000000e-01 -8.660254e-01 -3.689312e-15
    outer loop
      vertex   8.998168e+00 -5.195095e+00 -3.781720e+00
      vertex   9.062973e+00 -5.232510e+00 -3.552634e+00
      vertex   0.000000e+00 0.000000e+00 0.000000e+00
    endloop
  endfacet
  facet normal -5.000000e-01 -8.660254e-01 0.000000e+00
    outer loop
      vertex   0.000000e+00 0.000000e+00 0.000000e+00
      vertex   9.062973e+00 -5.232510e+00 -3.552634e+00
      vertex   9.123668e+00 -5.267552e+00 -3.322141e+00
    endloop
  endfacet
  facet normal -5.000000e-01 -8.660254e-01 5.343833e-15
    outer loop
      vertex   0.000000e+00 0.000000e+00 0.000000e+00
      vertex   9.123668e+00 -5.267552e+00 -3.322141e+00
      vertex   9.180244e+00 -5.300216e+00 -3.090318e+00
    endloop
  endfacet
  facet normal -5.000000e-01 -8.660254e-01 -4.135463e-15
    outer loop
      vertex   9.180244e+00 -5.300216e+00 -3.090318e+00
      vertex   9.232688e+00 -5.330495e+00 -2.857247e+00
      vertex   0.000000e+00 0.000000e+00 0.000000e+00
    endloop
  endfacet
  facet normal -5.000000e-01 -8.660254e-01 0.000000e+00
    outer loop
      vertex   0.000000e+00 0.000000e+00 0.000000e+00
      vertex   9.232688e+00 -5.330495e+00 -2.857247e+00
      vertex   9.280990e+00 -5.358382e+00 -2.623008e+00
    endloop
  endfacet
  facet normal -5.000000e-01 -8.660254e-01 2.675563e-15
    outer loop
      vertex   0.000000e+00 0.000000e+00 0.000000e+00
      vertex   9.280990e+00 -5.358382e+00 -2.623008e+00
      vertex   9.325137e+00 -5.383871e+00 -2.387679e+00
    endloop
  endfacet
  facet normal -5.000000e-01 -8.660254e-01 2.718000e-16
    outer loop
      vertex   9.325137e+00 -5.383871e+00 -2.387679e+00
      vertex   9.365120e+00 -5.406955e+00 -2.151341e+00
      vertex   0.000000e+00 0.000000e+00 0.000000e+00
    endloop
  endfacet
  facet normal -5.000000e-01 -8.660254e-01 2.141211e-14
    outer loop
      vertex   0.000000e+00 0.000000e+00 0.000000e+00
      vertex   9.365120e+00 -5.406955e+00 -2.151341e+00
      vertex   9.400927e+00 -5.427628e+00 -1.914074e+00
    endloop
  endfacet
  facet normal 1.518985e-01 -8.419876e-02 9.848032e-01
    outer loop
      vertex   0.000000e+00 0.000000e+00 0.000000e+00
      vertex   9.400927e+00 -5.427628e+00 -1.914074e+00
      vertex   4.806682e+00 -2.555758e+00 -9.599073e-01
    endloop
  endfacet
  facet normal 1.512986e-01 -8.516164e-02 9.848128e-01
    outer loop
      vertex   4.806682e+00 -2.555758e+00 -9.599073e-01
      vertex   9.400927e+00 -5.427628e+00 -1.914074e+00
      vertex   9.521243e+00 -5.223156e+00 -1.914877e+00
    endloop
  endfacet
  facet normal 1.531646e-01 -8.186060e-02 9.848043e-01
    outer loop
      vertex   4.806682e+00 -2.555758e+00 -9.599073e-01
      vertex   9.521243e+00 -5.223156e+00 -1.914877e+00
      vertex   9.636944e+00 -5.016075e+00 -1.915658e+00
    endloop
  endfacet
  facet normal 1.547100e-01 -7.882870e-02 9.848101e-01
    outer loop
      vertex   4.806682e+00 -2.555758e+00 -9.599073e-01
      vertex   9.636944e+00 -5.016075e+00 -1.915658e+00
      vertex   4.892949e+00 -2.386451e+00 -9.599073e-01
    endloop
  endfacet
  facet normal 1.548981e-01 -7.848856e-02 9.848077e-01
    outer loop
      vertex   4.892949e+00 -2.386451e+00 -9.599073e-01
      vertex   9.636944e+00 -5.016075e+00 -1.915658e+00
      vertex   9.747981e+00 -4.806457e+00 -1.916417e+00
    endloop
  endfacet
  facet normal 1.565882e-01 -7.509677e-02 9.848049e-01
    outer loop
      vertex   4.892949e+00 -2.386451e+00 -9.599073e-01
      vertex   9.747981e+00 -4.806457e+00 -1.916417e+00
      vertex   9.854307e+00 -4.594376e+00 -1.917151e+00
    endloop
  endfacet
  facet normal 1.573554e-01 -7.337602e-02 9.848123e-01
    outer loop
      vertex   4.892949e+00 -2.386451e+00 -9.599073e-01
      vertex   9.854307e+00 -4.594376e+00 -1.917151e+00
      vertex   4.973254e+00 -2.214235e+00 -9.599073e-01
    endloop
  endfacet
  facet normal 1.581893e-01 -7.166299e-02 9.848048e-01
    outer loop
      vertex   4.973254e+00 -2.214235e+00 -9.599073e-01
      vertex   9.854307e+00 -4.594376e+00 -1.917151e+00
      vertex   9.955851e+00 -4.379961e+00 -1.917859e+00
    endloop
  endfacet
  facet normal 1.596995e-01 -6.818975e-02 9.848077e-01
    outer loop
      vertex   4.973254e+00 -2.214235e+00 -9.599073e-01
      vertex   9.955851e+00 -4.379961e+00 -1.917859e+00
      vertex   1.005254e+01 -4.163349e+00 -1.918540e+00
    endloop
  endfacet
  facet normal 1.598323e-01 -6.784478e-02 9.848100e-01
    outer loop
      vertex   4.973254e+00 -2.214235e+00 -9.599073e-01
      vertex   1.005254e+01 -4.163349e+00 -1.918540e+00
      vertex   5.047500e+00 -2.039323e+00 -9.599073e-01
    endloop
  endfacet
  facet normal 1.611658e-01 -6.469995e-02 9.848043e-01
    outer loop
      vertex   5.047500e+00 -2.039323e+00 -9.599073e-01
      vertex   1.005254e+01 -4.163349e+00 -1.918540e+00
      vertex   1.014433e+01 -3.944620e+00 -1.919192e+00
    endloop
  endfacet
  facet normal 1.624926e-01 -6.115481e-02 9.848128e-01
    outer loop
      vertex   5.047500e+00 -2.039323e+00 -9.599073e-01
      vertex   1.014433e+01 -3.944620e+00 -1.919192e+00
      vertex   1.023119e+01 -3.723850e+00 -1.919815e+00
    endloop
  endfacet
  facet normal 1.621385e-01 -6.223912e-02 9.848032e-01
    outer loop
      vertex   1.023119e+01 -3.723850e+00 -1.919815e+00
      vertex   0.000000e+00 0.000000e+00 0.000000e+00
      vertex   5.047500e+00 -2.039323e+00 -9.599073e-01
    endloop
  endfacet
  facet normal 1.598676e-01 -6.785977e-02 9.848032e-01
    outer loop
      vertex   5.047500e+00 -2.039323e+00 -9.599073e-01
      vertex   0.000000e+00 0.000000e+00 0.000000e+00
      vertex   4.973254e+00 -2.214235e+00 -9.599073e-01
    endloop
  endfacet
  facet normal 1.574019e-01 -7.339773e-02 9.848032e-01
    outer loop
      vertex   4.973254e+00 -2.214235e+00 -9.599073e-01
      vertex   0.000000e+00 0.000000e+00 0.000000e+00
      vertex   4.892949e+00 -2.386451e+00 -9.599073e-01
    endloop
  endfacet
  facet normal 1.547445e-01 -7.884627e-02 9.848032e-01
    outer loop
      vertex   4.892949e+00 -2.386451e+00 -9.599073e-01
      vertex   0.000000e+00 0.000000e+00 0.000000e+00
      vertex   4.806682e+00 -2.555758e+00 -9.599073e-01
    endloop
  endfacet
  facet normal -3.193463e-01 1.225855e-01 -9.396759e-01
    outer loop
      vertex   0.000000e+00 0.000000e+00 0.000000e+00
      vertex   9.790399e+00 -3.563414e+00 -3.792106e+00
      vertex   4.830037e+00 -1.951462e+00 -1.896053e+00
    endloop
  endfacet
  facet normal -3.200526e-01 1.204537e-01 -9.397113e-01
    outer loop
      vertex   4.830037e+00 -1.951462e+00 -1.896053e+00
      vertex   9.790399e+00 -3.563414e+00 -3.792106e+00
      vertex   9.707538e+00 -3.774797e+00 -3.790980e+00
    endloop
  endfacet
  facet normal -3.174311e-01 1.274337e-01 -9.396798e-01
    outer loop
      vertex   4.830037e+00 -1.951462e+00 -1.896053e+00
      vertex   9.707538e+00 -3.774797e+00 -3.790980e+00
      vertex   9.619964e+00 -3.984239e+00 -3.789800e+00
    endloop
  endfacet
  facet normal -3.148102e-01 1.336290e-01 -9.397009e-01
    outer loop
      vertex   4.830037e+00 -1.951462e+00 -1.896053e+00
      vertex   9.619964e+00 -3.984239e+00 -3.789800e+00
      vertex   4.758990e+00 -2.118839e+00 -1.896053e+00
    endloop
  endfacet
  facet normal -3.145459e-01 1.343090e-01 -9.396925e-01
    outer loop
      vertex   4.758990e+00 -2.118839e+00 -1.896053e+00
      vertex   9.619964e+00 -3.984239e+00 -3.789800e+00
      vertex   9.527715e+00 -4.191664e+00 -3.788568e+00
    endloop
  endfacet
  facet normal -3.115686e-01 1.411489e-01 -9.396818e-01
    outer loop
      vertex   4.758990e+00 -2.118839e+00 -1.896053e+00
      vertex   9.527715e+00 -4.191664e+00 -3.788568e+00
      vertex   9.430828e+00 -4.396999e+00 -3.787287e+00
    endloop
  endfacet
  facet normal -3.099337e-01 1.445245e-01 -9.397094e-01
    outer loop
      vertex   4.758990e+00 -2.118839e+00 -1.896053e+00
      vertex   9.430828e+00 -4.396999e+00 -3.787287e+00
      vertex   4.682144e+00 -2.283634e+00 -1.896053e+00
    endloop
  endfacet
  facet normal -3.084151e-01 1.479121e-01 -9.396819e-01
    outer loop
      vertex   4.682144e+00 -2.283634e+00 -1.896053e+00
      vertex   9.430828e+00 -4.396999e+00 -3.787287e+00
      vertex   9.329371e+00 -4.600111e+00 -3.785959e+00
    endloop
  endfacet
  facet normal -3.050888e-01 1.545937e-01 -9.396923e-01
    outer loop
      vertex   4.682144e+00 -2.283634e+00 -1.896053e+00
      vertex   9.329371e+00 -4.600111e+00 -3.785959e+00
      vertex   9.223412e+00 -4.800878e+00 -3.784586e+00
    endloop
  endfacet
  facet normal -3.047213e-01 1.552633e-01 -9.397011e-01
    outer loop
      vertex   4.682144e+00 -2.283634e+00 -1.896053e+00
      vertex   9.223412e+00 -4.800878e+00 -3.784586e+00
      vertex   4.599594e+00 -2.445648e+00 -1.896053e+00
    endloop
  endfacet
  facet normal -3.016717e-01 1.612332e-01 -9.396797e-01
    outer loop
      vertex   4.599594e+00 -2.445648e+00 -1.896053e+00
      vertex   9.223412e+00 -4.800878e+00 -3.784586e+00
      vertex   9.112996e+00 -4.999229e+00 -3.783172e+00
    endloop
  endfacet
  facet normal -2.980042e-01 1.677387e-01 -9.397112e-01
    outer loop
      vertex   4.599594e+00 -2.445648e+00 -1.896053e+00
      vertex   9.112996e+00 -4.999229e+00 -3.783172e+00
      vertex   8.998168e+00 -5.195095e+00 -3.781720e+00
    endloop
  endfacet
  facet normal -2.991777e-01 1.658371e-01 -9.396759e-01
    outer loop
      vertex   8.998168e+00 -5.195095e+00 -3.781720e+00
      vertex   0.000000e+00 0.000000e+00 0.000000e+00
      vertex   4.599594e+00 -2.445648e+00 -1.896053e+00
    endloop
  endfacet
  facet normal -3.047832e-01 1.552948e-01 -9.396759e-01
    outer loop
      vertex   4.599594e+00 -2.445648e+00 -1.896053e+00
      vertex   0.000000e+00 0.000000e+00 0.000000e+00
      vertex   4.682144e+00 -2.283634e+00 -1.896053e+00
    endloop
  endfacet
  facet normal -3.100172e-01 1.445634e-01 -9.396759e-01
    outer loop
      vertex   4.682144e+00 -2.283634e+00 -1.896053e+00
      vertex   0.000000e+00 0.000000e+00 0.000000e+00
      vertex   4.758990e+00 -2.118839e+00 -1.896053e+00
    endloop
  endfacet
  facet normal -3.148735e-01 1.336559e-01 -9.396759e-01
    outer loop
      vertex   4.758990e+00 -2.118839e+00 -1.896053e+00
      vertex   0.000000e+00 0.000000e+00 0.000000e+00
      vertex   4.830037e+00 -1.951462e+00 -1.896053e+00
    endloop
  endfacet
endsolid
