solid ASCII
  facet normal -1.539640e-01 -9.387701e-01 -3.082300e-01
    outer loop
      vertex   1.778111e+00 1.008417e+01 3.726958e+00
      vertex   1.686587e+00 1.009925e+01 3.726734e+00
      vertex   1.781735e+00 1.010472e+01 3.662554e+00
    endloop
  endfacet
  facet normal -1.539441e-01 -9.387827e-01 -3.082017e-01
    outer loop
      vertex   1.781735e+00 1.010472e+01 3.662554e+00
      vertex   1.686587e+00 1.009925e+01 3.726734e+00
      vertex   1.689888e+00 1.011987e+01 3.662301e+00
    endloop
  endfacet
  facet normal -1.542407e-01 -9.404913e-01 -3.027967e-01
    outer loop
      vertex   1.781735e+00 1.010472e+01 3.662554e+00
      vertex   1.689888e+00 1.011987e+01 3.662301e+00
      vertex   1.785294e+00 1.012491e+01 3.598041e+00
    endloop
  endfacet
  facet normal -1.542148e-01 -9.405076e-01 -3.027594e-01
    outer loop
      vertex   1.785294e+00 1.012491e+01 3.598041e+00
      vertex   1.689888e+00 1.011987e+01 3.662301e+00
      vertex   1.693135e+00 1.014016e+01 3.597604e+00
    endloop
  endfacet
  facet normal -1.545171e-01 -9.421800e-01 -2.973572e-01
    outer loop
      vertex   1.785294e+00 1.012491e+01 3.598041e+00
      vertex   1.693135e+00 1.014016e+01 3.597604e+00
      vertex   1.788789e+00 1.014473e+01 3.533421e+00
    endloop
  endfacet
  facet normal -1.544826e-01 -9.422014e-01 -2.973072e-01
    outer loop
      vertex   1.788789e+00 1.014473e+01 3.533421e+00
      vertex   1.693135e+00 1.014016e+01 3.597604e+00
      vertex   1.696316e+00 1.016007e+01 3.532870e+00
    endloop
  endfacet
  facet normal -1.547861e-01 -9.438373e-01 -2.919117e-01
    outer loop
      vertex   1.788789e+00 1.014473e+01 3.533421e+00
      vertex   1.696316e+00 1.016007e+01 3.532870e+00
      vertex   1.792220e+00 1.016418e+01 3.468696e+00
    endloop
  endfacet
  facet normal -1.547472e-01 -9.438611e-01 -2.918551e-01
    outer loop
      vertex   1.792220e+00 1.016418e+01 3.468696e+00
      vertex   1.696316e+00 1.016007e+01 3.532870e+00
      vertex   1.699431e+00 1.017958e+01 3.468103e+00
    endloop
  endfacet
  facet normal -1.550476e-01 -9.454632e-01 -2.864603e-01
    outer loop
      vertex   1.792220e+00 1.016418e+01 3.468696e+00
      vertex   1.699431e+00 1.017958e+01 3.468103e+00
      vertex   1.795586e+00 1.018327e+01 3.403868e+00
    endloop
  endfacet
  facet normal -1.550086e-01 -9.454869e-01 -2.864033e-01
    outer loop
      vertex   1.795586e+00 1.018327e+01 3.403868e+00
      vertex   1.699431e+00 1.017958e+01 3.468103e+00
      vertex   1.702481e+00 1.019871e+01 3.403307e+00
    endloop
  endfacet
  facet normal -1.553016e-01 -9.470579e-01 -2.810032e-01
    outer loop
      vertex   1.795586e+00 1.018327e+01 3.403868e+00
      vertex   1.702481e+00 1.019871e+01 3.403307e+00
      vertex   1.798888e+00 1.020200e+01 3.338938e+00
    endloop
  endfacet
  facet normal -1.552668e-01 -9.470787e-01 -2.809521e-01
    outer loop
      vertex   1.798888e+00 1.020200e+01 3.338938e+00
      vertex   1.702481e+00 1.019871e+01 3.403307e+00
      vertex   1.705466e+00 1.021745e+01 3.338486e+00
    endloop
  endfacet
  facet normal -1.554848e-01 -9.482746e-01 -2.767665e-01
    outer loop
      vertex   1.798888e+00 1.020200e+01 3.338938e+00
      vertex   1.705466e+00 1.021745e+01 3.338486e+00
      vertex   1.719383e+00 1.023056e+01 3.285740e+00
    endloop
  endfacet
  facet normal -1.509275e-01 -9.492874e-01 -2.758158e-01
    outer loop
      vertex   1.719383e+00 1.023056e+01 3.285740e+00
      vertex   1.705466e+00 1.021745e+01 3.338486e+00
      vertex   1.675334e+00 1.022675e+01 3.322966e+00
    endloop
  endfacet
  facet normal -1.482704e-01 -9.483575e-01 -2.804174e-01
    outer loop
      vertex   1.675334e+00 1.022675e+01 3.322966e+00
      vertex   1.705466e+00 1.021745e+01 3.338486e+00
      vertex   1.630572e+00 1.022299e+01 3.359341e+00
    endloop
  endfacet
  facet normal -1.484064e-01 -9.481774e-01 -2.809538e-01
    outer loop
      vertex   1.630572e+00 1.022299e+01 3.359341e+00
      vertex   1.705466e+00 1.021745e+01 3.338486e+00
      vertex   1.702481e+00 1.019871e+01 3.403307e+00
    endloop
  endfacet
  facet normal -1.468933e-01 -9.477474e-01 -2.831911e-01
    outer loop
      vertex   1.630572e+00 1.022299e+01 3.359341e+00
      vertex   1.702481e+00 1.019871e+01 3.403307e+00
      vertex   1.609018e+00 1.021319e+01 3.403307e+00
    endloop
  endfacet
  facet normal -1.467475e-01 -9.468068e-01 -2.863950e-01
    outer loop
      vertex   1.609018e+00 1.021319e+01 3.403307e+00
      vertex   1.702481e+00 1.019871e+01 3.403307e+00
      vertex   1.606004e+00 1.019406e+01 3.468103e+00
    endloop
  endfacet
  facet normal -1.401999e-01 -9.478017e-01 -2.863842e-01
    outer loop
      vertex   1.609018e+00 1.021319e+01 3.403307e+00
      vertex   1.606004e+00 1.019406e+01 3.468103e+00
      vertex   1.538961e+00 1.021564e+01 3.429501e+00
    endloop
  endfacet
  facet normal -1.383476e-01 -9.471991e-01 -2.892642e-01
    outer loop
      vertex   1.538961e+00 1.021564e+01 3.429501e+00
      vertex   1.606004e+00 1.019406e+01 3.468103e+00
      vertex   1.513090e+00 1.020763e+01 3.468103e+00
    endloop
  endfacet
  facet normal -1.339400e-01 -9.486387e-01 -2.866090e-01
    outer loop
      vertex   1.538961e+00 1.021564e+01 3.429501e+00
      vertex   1.513090e+00 1.020763e+01 3.468103e+00
      vertex   1.492135e+00 1.021205e+01 3.463264e+00
    endloop
  endfacet
  facet normal -1.321851e-01 -9.470156e-01 -2.927260e-01
    outer loop
      vertex   1.492135e+00 1.021205e+01 3.463264e+00
      vertex   1.513090e+00 1.020763e+01 3.468103e+00
      vertex   1.444646e+00 1.020852e+01 3.496135e+00
    endloop
  endfacet
  facet normal -1.318185e-01 -9.473461e-01 -2.918205e-01
    outer loop
      vertex   1.444646e+00 1.020852e+01 3.496135e+00
      vertex   1.513090e+00 1.020763e+01 3.468103e+00
      vertex   1.510192e+00 1.018809e+01 3.532870e+00
    endloop
  endfacet
  facet normal -1.298703e-01 -9.466572e-01 -2.949134e-01
    outer loop
      vertex   1.444646e+00 1.020852e+01 3.496135e+00
      vertex   1.510192e+00 1.018809e+01 3.532870e+00
      vertex   1.417611e+00 1.020079e+01 3.532870e+00
    endloop
  endfacet
  facet normal -1.297711e-01 -9.459344e-01 -2.972667e-01
    outer loop
      vertex   1.417611e+00 1.020079e+01 3.532870e+00
      vertex   1.510192e+00 1.018809e+01 3.532870e+00
      vertex   1.507237e+00 1.016815e+01 3.597604e+00
    endloop
  endfacet
  facet normal -1.297711e-01 -9.459344e-01 -2.972667e-01
    outer loop
      vertex   1.417611e+00 1.020079e+01 3.532870e+00
      vertex   1.507237e+00 1.016815e+01 3.597604e+00
      vertex   1.414836e+00 1.018082e+01 3.597604e+00
    endloop
  endfacet
  facet normal -1.295381e-01 -9.442360e-01 -3.027180e-01
    outer loop
      vertex   1.414836e+00 1.018082e+01 3.597604e+00
      vertex   1.507237e+00 1.016815e+01 3.597604e+00
      vertex   1.504224e+00 1.014782e+01 3.662301e+00
    endloop
  endfacet
  facet normal -1.295381e-01 -9.442360e-01 -3.027180e-01
    outer loop
      vertex   1.414836e+00 1.018082e+01 3.597604e+00
      vertex   1.504224e+00 1.014782e+01 3.662301e+00
      vertex   1.412008e+00 1.016047e+01 3.662301e+00
    endloop
  endfacet
  facet normal -1.293074e-01 -9.425547e-01 -3.080102e-01
    outer loop
      vertex   1.412008e+00 1.016047e+01 3.662301e+00
      vertex   1.504224e+00 1.014782e+01 3.662301e+00
      vertex   1.411306e+00 1.013971e+01 3.726129e+00
    endloop
  endfacet
  facet normal -1.213115e-01 -9.435410e-01 -3.082431e-01
    outer loop
      vertex   1.412008e+00 1.016047e+01 3.662301e+00
      vertex   1.411306e+00 1.013971e+01 3.726129e+00
      vertex   1.319326e+00 1.015159e+01 3.725951e+00
    endloop
  endfacet
  facet normal -1.458156e-01 -9.400800e-01 -3.082003e-01
    outer loop
      vertex   1.686587e+00 1.009925e+01 3.726734e+00
      vertex   1.594942e+00 1.011354e+01 3.726520e+00
      vertex   1.689888e+00 1.011987e+01 3.662301e+00
    endloop
  endfacet
  facet normal -1.457376e-01 -9.401283e-01 -3.080898e-01
    outer loop
      vertex   1.689888e+00 1.011987e+01 3.662301e+00
      vertex   1.594942e+00 1.011354e+01 3.726520e+00
      vertex   1.596593e+00 1.013433e+01 3.662301e+00
    endloop
  endfacet
  facet normal -1.459996e-01 -9.418182e-01 -3.027582e-01
    outer loop
      vertex   1.689888e+00 1.011987e+01 3.662301e+00
      vertex   1.596593e+00 1.013433e+01 3.662301e+00
      vertex   1.693135e+00 1.014016e+01 3.597604e+00
    endloop
  endfacet
  facet normal -1.459938e-01 -9.418218e-01 -3.027500e-01
    outer loop
      vertex   1.693135e+00 1.014016e+01 3.597604e+00
      vertex   1.596593e+00 1.013433e+01 3.662301e+00
      vertex   1.599791e+00 1.015463e+01 3.597604e+00
    endloop
  endfacet
  facet normal -1.462561e-01 -9.435136e-01 -2.973065e-01
    outer loop
      vertex   1.693135e+00 1.014016e+01 3.597604e+00
      vertex   1.599791e+00 1.015463e+01 3.597604e+00
      vertex   1.696316e+00 1.016007e+01 3.532870e+00
    endloop
  endfacet
  facet normal -1.462503e-01 -9.435172e-01 -2.972982e-01
    outer loop
      vertex   1.696316e+00 1.016007e+01 3.532870e+00
      vertex   1.599791e+00 1.015463e+01 3.597604e+00
      vertex   1.602928e+00 1.017454e+01 3.532870e+00
    endloop
  endfacet
  facet normal -1.465073e-01 -9.451753e-01 -2.918548e-01
    outer loop
      vertex   1.696316e+00 1.016007e+01 3.532870e+00
      vertex   1.602928e+00 1.017454e+01 3.532870e+00
      vertex   1.699431e+00 1.017958e+01 3.468103e+00
    endloop
  endfacet
  facet normal -1.465015e-01 -9.451788e-01 -2.918464e-01
    outer loop
      vertex   1.699431e+00 1.017958e+01 3.468103e+00
      vertex   1.602928e+00 1.017454e+01 3.532870e+00
      vertex   1.606004e+00 1.019406e+01 3.468103e+00
    endloop
  endfacet
  facet normal -1.467533e-01 -9.468033e-01 -2.864034e-01
    outer loop
      vertex   1.699431e+00 1.017958e+01 3.468103e+00
      vertex   1.606004e+00 1.019406e+01 3.468103e+00
      vertex   1.702481e+00 1.019871e+01 3.403307e+00
    endloop
  endfacet
  facet normal -1.376538e-01 -9.412908e-01 -3.082583e-01
    outer loop
      vertex   1.594942e+00 1.011354e+01 3.726520e+00
      vertex   1.503179e+00 1.012702e+01 3.726319e+00
      vertex   1.596593e+00 1.013433e+01 3.662301e+00
    endloop
  endfacet
  facet normal -1.374983e-01 -9.413842e-01 -3.080421e-01
    outer loop
      vertex   1.596593e+00 1.013433e+01 3.662301e+00
      vertex   1.503179e+00 1.012702e+01 3.726319e+00
      vertex   1.504224e+00 1.014782e+01 3.662301e+00
    endloop
  endfacet
  facet normal -1.377444e-01 -9.430689e-01 -3.027335e-01
    outer loop
      vertex   1.596593e+00 1.013433e+01 3.662301e+00
      vertex   1.504224e+00 1.014782e+01 3.662301e+00
      vertex   1.507237e+00 1.016815e+01 3.597604e+00
    endloop
  endfacet
  facet normal -1.294864e-01 -9.424493e-01 -3.082574e-01
    outer loop
      vertex   1.503179e+00 1.012702e+01 3.726319e+00
      vertex   1.411306e+00 1.013971e+01 3.726129e+00
      vertex   1.504224e+00 1.014782e+01 3.662301e+00
    endloop
  endfacet
  facet normal -1.211312e-01 -9.436452e-01 -3.079950e-01
    outer loop
      vertex   1.412008e+00 1.016047e+01 3.662301e+00
      vertex   1.319326e+00 1.015159e+01 3.725951e+00
      vertex   1.319957e+00 1.017229e+01 3.662301e+00
    endloop
  endfacet
  facet normal -1.131293e-01 -9.445661e-01 -3.082152e-01
    outer loop
      vertex   1.319957e+00 1.017229e+01 3.662301e+00
      vertex   1.319326e+00 1.015159e+01 3.725951e+00
      vertex   1.227247e+00 1.016268e+01 3.725784e+00
    endloop
  endfacet
  facet normal -1.129705e-01 -9.446564e-01 -3.079968e-01
    outer loop
      vertex   1.319957e+00 1.017229e+01 3.662301e+00
      vertex   1.227247e+00 1.016268e+01 3.725784e+00
      vertex   1.228080e+00 1.018327e+01 3.662301e+00
    endloop
  endfacet
  facet normal -1.056455e-01 -9.454509e-01 -3.081585e-01
    outer loop
      vertex   1.228080e+00 1.018327e+01 3.662301e+00
      vertex   1.227247e+00 1.016268e+01 3.725784e+00
      vertex   1.146544e+00 1.018857e+01 3.673995e+00
    endloop
  endfacet
  facet normal -1.056460e-01 -9.454495e-01 -3.081626e-01
    outer loop
      vertex   1.228080e+00 1.018327e+01 3.662301e+00
      vertex   1.146544e+00 1.018857e+01 3.673995e+00
      vertex   1.197680e+00 1.019174e+01 3.646738e+00
    endloop
  endfacet
  facet normal -1.049019e-01 -9.451968e-01 -3.091902e-01
    outer loop
      vertex   1.227247e+00 1.016268e+01 3.725784e+00
      vertex   1.135073e+00 1.017296e+01 3.725630e+00
      vertex   1.146544e+00 1.018857e+01 3.673995e+00
    endloop
  endfacet
  facet normal -9.991129e-02 -9.460182e-01 -3.083299e-01
    outer loop
      vertex   1.146544e+00 1.018857e+01 3.673995e+00
      vertex   1.135073e+00 1.017296e+01 3.725630e+00
      vertex   1.094915e+00 1.018547e+01 3.700247e+00
    endloop
  endfacet
  facet normal -9.657309e-02 -9.448232e-01 -3.130219e-01
    outer loop
      vertex   1.094915e+00 1.018547e+01 3.700247e+00
      vertex   1.135073e+00 1.017296e+01 3.725630e+00
      vertex   1.042809e+00 1.018243e+01 3.725488e+00
    endloop
  endfacet
  facet normal -1.086196e-01 -9.467588e-01 -3.030668e-01
    outer loop
      vertex   1.197680e+00 1.019174e+01 3.646738e+00
      vertex   1.248296e+00 1.019498e+01 3.618490e+00
      vertex   1.228080e+00 1.018327e+01 3.662301e+00
    endloop
  endfacet
  facet normal -1.130912e-01 -9.456660e-01 -3.048381e-01
    outer loop
      vertex   1.228080e+00 1.018327e+01 3.662301e+00
      vertex   1.248296e+00 1.019498e+01 3.618490e+00
      vertex   1.319957e+00 1.017229e+01 3.662301e+00
    endloop
  endfacet
  facet normal -1.145642e-01 -9.461773e-01 -3.026937e-01
    outer loop
      vertex   1.319957e+00 1.017229e+01 3.662301e+00
      vertex   1.248296e+00 1.019498e+01 3.618490e+00
      vertex   1.322601e+00 1.019266e+01 3.597604e+00
    endloop
  endfacet
  facet normal -1.147533e-01 -9.459301e-01 -3.033941e-01
    outer loop
      vertex   1.322601e+00 1.019266e+01 3.597604e+00
      vertex   1.248296e+00 1.019498e+01 3.618490e+00
      vertex   1.298318e+00 1.019828e+01 3.589292e+00
    endloop
  endfacet
  facet normal -1.171105e-01 -9.474922e-01 -2.975630e-01
    outer loop
      vertex   1.322601e+00 1.019266e+01 3.597604e+00
      vertex   1.298318e+00 1.019828e+01 3.589292e+00
      vertex   1.347725e+00 1.020163e+01 3.559160e+00
    endloop
  endfacet
  facet normal -1.236921e-01 -9.464006e-01 -2.983724e-01
    outer loop
      vertex   1.396505e+00 1.020505e+01 3.528104e+00
      vertex   1.417611e+00 1.020079e+01 3.532870e+00
      vertex   1.347725e+00 1.020163e+01 3.559160e+00
    endloop
  endfacet
  facet normal -1.232775e-01 -9.468056e-01 -2.972571e-01
    outer loop
      vertex   1.347725e+00 1.020163e+01 3.559160e+00
      vertex   1.417611e+00 1.020079e+01 3.532870e+00
      vertex   1.414836e+00 1.018082e+01 3.597604e+00
    endloop
  endfacet
  facet normal -1.214525e-01 -9.461485e-01 -3.000872e-01
    outer loop
      vertex   1.347725e+00 1.020163e+01 3.559160e+00
      vertex   1.414836e+00 1.018082e+01 3.597604e+00
      vertex   1.322601e+00 1.019266e+01 3.597604e+00
    endloop
  endfacet
  facet normal -1.213472e-01 -9.453282e-01 -3.027035e-01
    outer loop
      vertex   1.322601e+00 1.019266e+01 3.597604e+00
      vertex   1.414836e+00 1.018082e+01 3.597604e+00
      vertex   1.412008e+00 1.016047e+01 3.662301e+00
    endloop
  endfacet
  facet normal -1.213472e-01 -9.453282e-01 -3.027035e-01
    outer loop
      vertex   1.322601e+00 1.019266e+01 3.597604e+00
      vertex   1.412008e+00 1.016047e+01 3.662301e+00
      vertex   1.319957e+00 1.017229e+01 3.662301e+00
    endloop
  endfacet
  facet normal -1.254844e-01 -9.481506e-01 -2.920001e-01
    outer loop
      vertex   1.396505e+00 1.020505e+01 3.528104e+00
      vertex   1.444646e+00 1.020852e+01 3.496135e+00
      vertex   1.417611e+00 1.020079e+01 3.532870e+00
    endloop
  endfacet
  facet normal -1.402803e-01 -9.477226e-01 -2.866067e-01
    outer loop
      vertex   1.538961e+00 1.021564e+01 3.429501e+00
      vertex   1.585110e+00 1.021929e+01 3.394857e+00
      vertex   1.609018e+00 1.021319e+01 3.403307e+00
    endloop
  endfacet
  facet normal -1.424770e-01 -9.489836e-01 -2.813014e-01
    outer loop
      vertex   1.609018e+00 1.021319e+01 3.403307e+00
      vertex   1.585110e+00 1.021929e+01 3.394857e+00
      vertex   1.630572e+00 1.022299e+01 3.359341e+00
    endloop
  endfacet
  facet normal -1.563787e-01 -9.484839e-01 -2.755430e-01
    outer loop
      vertex   1.798888e+00 1.020200e+01 3.338938e+00
      vertex   1.719383e+00 1.023056e+01 3.285740e+00
      vertex   1.802125e+00 1.022036e+01 3.273909e+00
    endloop
  endfacet
  facet normal -1.562397e-01 -9.488900e-01 -2.742205e-01
    outer loop
      vertex   1.802125e+00 1.022036e+01 3.273909e+00
      vertex   1.719383e+00 1.023056e+01 3.285740e+00
      vertex   1.762709e+00 1.023443e+01 3.247675e+00
    endloop
  endfacet
  facet normal -1.592402e-01 -9.495781e-01 -2.700814e-01
    outer loop
      vertex   1.802125e+00 1.022036e+01 3.273909e+00
      vertex   1.762709e+00 1.023443e+01 3.247675e+00
      vertex   1.805297e+00 1.023835e+01 3.208782e+00
    endloop
  endfacet
  facet normal -1.377444e-01 -9.430689e-01 -3.027335e-01
    outer loop
      vertex   1.596593e+00 1.013433e+01 3.662301e+00
      vertex   1.507237e+00 1.016815e+01 3.597604e+00
      vertex   1.599791e+00 1.015463e+01 3.597604e+00
    endloop
  endfacet
  facet normal -1.379922e-01 -9.447654e-01 -2.972819e-01
    outer loop
      vertex   1.599791e+00 1.015463e+01 3.597604e+00
      vertex   1.507237e+00 1.016815e+01 3.597604e+00
      vertex   1.510192e+00 1.018809e+01 3.532870e+00
    endloop
  endfacet
  facet normal -1.379922e-01 -9.447654e-01 -2.972819e-01
    outer loop
      vertex   1.599791e+00 1.015463e+01 3.597604e+00
      vertex   1.510192e+00 1.018809e+01 3.532870e+00
      vertex   1.602928e+00 1.017454e+01 3.532870e+00
    endloop
  endfacet
  facet normal -1.382350e-01 -9.464281e-01 -2.918304e-01
    outer loop
      vertex   1.602928e+00 1.017454e+01 3.532870e+00
      vertex   1.510192e+00 1.018809e+01 3.532870e+00
      vertex   1.513090e+00 1.020763e+01 3.468103e+00
    endloop
  endfacet
  facet normal -1.382350e-01 -9.464281e-01 -2.918304e-01
    outer loop
      vertex   1.602928e+00 1.017454e+01 3.532870e+00
      vertex   1.513090e+00 1.020763e+01 3.468103e+00
      vertex   1.606004e+00 1.019406e+01 3.468103e+00
    endloop
  endfacet
  facet normal -4.211133e-01 5.301183e-04 -9.070079e-01
    outer loop
      vertex   1.009538e+00 1.022851e+01 3.740962e+00
      vertex   1.034017e+00 1.027702e+01 3.729625e+00
      vertex   1.042809e+00 1.018243e+01 3.725488e+00
    endloop
  endfacet
  facet normal -4.291321e-01 -3.800448e-04 -9.032416e-01
    outer loop
      vertex   1.042809e+00 1.018243e+01 3.725488e+00
      vertex   1.034017e+00 1.027702e+01 3.729625e+00
      vertex   1.062948e+00 1.027867e+01 3.715879e+00
    endloop
  endfacet
  facet normal -4.360227e-01 1.392027e-03 -8.999346e-01
    outer loop
      vertex   1.042809e+00 1.018243e+01 3.725488e+00
      vertex   1.062948e+00 1.027867e+01 3.715879e+00
      vertex   1.094915e+00 1.018547e+01 3.700247e+00
    endloop
  endfacet
  facet normal -4.387781e-01 2.223041e-04 -8.985954e-01
    outer loop
      vertex   1.094915e+00 1.018547e+01 3.700247e+00
      vertex   1.062948e+00 1.027867e+01 3.715879e+00
      vertex   1.091725e+00 1.028034e+01 3.701828e+00
    endloop
  endfacet
  facet normal -4.532290e-01 -3.837660e-04 -8.913941e-01
    outer loop
      vertex   1.094915e+00 1.018547e+01 3.700247e+00
      vertex   1.091725e+00 1.028034e+01 3.701828e+00
      vertex   1.146544e+00 1.018857e+01 3.673995e+00
    endloop
  endfacet
  facet normal -4.530793e-01 -2.712716e-04 -8.914702e-01
    outer loop
      vertex   1.146544e+00 1.018857e+01 3.673995e+00
      vertex   1.091725e+00 1.028034e+01 3.701828e+00
      vertex   1.148779e+00 1.028375e+01 3.672830e+00
    endloop
  endfacet
  facet normal -4.703874e-01 2.454840e-04 -8.824600e-01
    outer loop
      vertex   1.146544e+00 1.018857e+01 3.673995e+00
      vertex   1.148779e+00 1.028375e+01 3.672830e+00
      vertex   1.197680e+00 1.019174e+01 3.646738e+00
    endloop
  endfacet
  facet normal -4.719584e-01 -8.276381e-04 -8.816204e-01
    outer loop
      vertex   1.197680e+00 1.019174e+01 3.646738e+00
      vertex   1.148779e+00 1.028375e+01 3.672830e+00
      vertex   1.205153e+00 1.028723e+01 3.642648e+00
    endloop
  endfacet
  facet normal -4.873707e-01 7.396966e-04 -8.731948e-01
    outer loop
      vertex   1.197680e+00 1.019174e+01 3.646738e+00
      vertex   1.205153e+00 1.028723e+01 3.642648e+00
      vertex   1.248296e+00 1.019498e+01 3.618490e+00
    endloop
  endfacet
  facet normal -4.906140e-01 -1.253433e-03 -8.713761e-01
    outer loop
      vertex   1.248296e+00 1.019498e+01 3.618490e+00
      vertex   1.205153e+00 1.028723e+01 3.642648e+00
      vertex   1.260830e+00 1.029078e+01 3.611295e+00
    endloop
  endfacet
  facet normal -5.041617e-01 1.102514e-03 -8.636086e-01
    outer loop
      vertex   1.248296e+00 1.019498e+01 3.618490e+00
      vertex   1.260830e+00 1.029078e+01 3.611295e+00
      vertex   1.298318e+00 1.019828e+01 3.589292e+00
    endloop
  endfacet
  facet normal -5.090398e-01 -1.556342e-03 -8.607416e-01
    outer loop
      vertex   1.298318e+00 1.019828e+01 3.589292e+00
      vertex   1.260830e+00 1.029078e+01 3.611295e+00
      vertex   1.315792e+00 1.029441e+01 3.578784e+00
    endloop
  endfacet
  facet normal -5.207458e-01 1.340068e-03 -8.537107e-01
    outer loop
      vertex   1.298318e+00 1.019828e+01 3.589292e+00
      vertex   1.315792e+00 1.029441e+01 3.578784e+00
      vertex   1.347725e+00 1.020163e+01 3.559160e+00
    endloop
  endfacet
  facet normal -5.272301e-01 -1.735808e-03 -8.497208e-01
    outer loop
      vertex   1.347725e+00 1.020163e+01 3.559160e+00
      vertex   1.315792e+00 1.029441e+01 3.578784e+00
      vertex   1.370022e+00 1.029811e+01 3.545128e+00
    endloop
  endfacet
  facet normal -5.371174e-01 1.453114e-03 -8.435063e-01
    outer loop
      vertex   1.347725e+00 1.020163e+01 3.559160e+00
      vertex   1.370022e+00 1.029811e+01 3.545128e+00
      vertex   1.396505e+00 1.020505e+01 3.528104e+00
    endloop
  endfacet
  facet normal -5.451795e-01 -1.790417e-03 -8.383174e-01
    outer loop
      vertex   1.396505e+00 1.020505e+01 3.528104e+00
      vertex   1.370022e+00 1.029811e+01 3.545128e+00
      vertex   1.423502e+00 1.030188e+01 3.510340e+00
    endloop
  endfacet
  facet normal -5.532718e-01 1.441225e-03 -8.329995e-01
    outer loop
      vertex   1.396505e+00 1.020505e+01 3.528104e+00
      vertex   1.423502e+00 1.030188e+01 3.510340e+00
      vertex   1.444646e+00 1.020852e+01 3.496135e+00
    endloop
  endfacet
  facet normal -5.628823e-01 -1.718818e-03 -8.265353e-01
    outer loop
      vertex   1.444646e+00 1.020852e+01 3.496135e+00
      vertex   1.423502e+00 1.030188e+01 3.510340e+00
      vertex   1.476215e+00 1.030573e+01 3.474434e+00
    endloop
  endfacet
  facet normal -5.692048e-01 1.303566e-03 -8.221947e-01
    outer loop
      vertex   1.444646e+00 1.020852e+01 3.496135e+00
      vertex   1.476215e+00 1.030573e+01 3.474434e+00
      vertex   1.492135e+00 1.021205e+01 3.463264e+00
    endloop
  endfacet
  facet normal -5.803329e-01 -1.519676e-03 -8.143779e-01
    outer loop
      vertex   1.492135e+00 1.021205e+01 3.463264e+00
      vertex   1.476215e+00 1.030573e+01 3.474434e+00
      vertex   1.528144e+00 1.030965e+01 3.437422e+00
    endloop
  endfacet
  facet normal -5.849120e-01 1.038941e-03 -8.110961e-01
    outer loop
      vertex   1.492135e+00 1.021205e+01 3.463264e+00
      vertex   1.528144e+00 1.030965e+01 3.437422e+00
      vertex   1.538961e+00 1.021564e+01 3.429501e+00
    endloop
  endfacet
  facet normal -5.975257e-01 -1.191638e-03 -8.018488e-01
    outer loop
      vertex   1.538961e+00 1.021564e+01 3.429501e+00
      vertex   1.528144e+00 1.030965e+01 3.437422e+00
      vertex   1.579271e+00 1.031363e+01 3.399317e+00
    endloop
  endfacet
  facet normal -6.003892e-01 6.458354e-04 -7.997077e-01
    outer loop
      vertex   1.538961e+00 1.021564e+01 3.429501e+00
      vertex   1.579271e+00 1.031363e+01 3.399317e+00
      vertex   1.585110e+00 1.021929e+01 3.394857e+00
    endloop
  endfacet
  facet normal -6.144551e-01 -7.332860e-04 -7.889515e-01
    outer loop
      vertex   1.585110e+00 1.021929e+01 3.394857e+00
      vertex   1.579271e+00 1.031363e+01 3.399317e+00
      vertex   1.629579e+00 1.031769e+01 3.360132e+00
    endloop
  endfacet
  facet normal -6.156321e-01 1.224607e-04 -7.880337e-01
    outer loop
      vertex   1.585110e+00 1.021929e+01 3.394857e+00
      vertex   1.629579e+00 1.031769e+01 3.360132e+00
      vertex   1.630572e+00 1.022299e+01 3.359341e+00
    endloop
  endfacet
  facet normal -6.306568e-01 -1.351806e-04 -7.760618e-01
    outer loop
      vertex   1.630572e+00 1.022299e+01 3.359341e+00
      vertex   1.629579e+00 1.031769e+01 3.360132e+00
      vertex   1.675334e+00 1.022675e+01 3.322966e+00
    endloop
  endfacet
  facet normal -6.310971e-01 -5.030574e-04 -7.757037e-01
    outer loop
      vertex   1.675334e+00 1.022675e+01 3.322966e+00
      vertex   1.629579e+00 1.031769e+01 3.360132e+00
      vertex   1.679050e+00 1.032182e+01 3.319881e+00
    endloop
  endfacet
  facet normal -6.454884e-01 4.466223e-04 -7.637699e-01
    outer loop
      vertex   1.675334e+00 1.022675e+01 3.322966e+00
      vertex   1.679050e+00 1.032182e+01 3.319881e+00
      vertex   1.719383e+00 1.023056e+01 3.285740e+00
    endloop
  endfacet
  facet normal -6.474198e-01 -1.019462e-03 -7.621329e-01
    outer loop
      vertex   1.719383e+00 1.023056e+01 3.285740e+00
      vertex   1.679050e+00 1.032182e+01 3.319881e+00
      vertex   1.727667e+00 1.032601e+01 3.278576e+00
    endloop
  endfacet
  facet normal -6.600739e-01 8.992251e-04 -7.512002e-01
    outer loop
      vertex   1.719383e+00 1.023056e+01 3.285740e+00
      vertex   1.727667e+00 1.032601e+01 3.278576e+00
      vertex   1.762709e+00 1.023443e+01 3.247675e+00
    endloop
  endfacet
  facet normal -6.634618e-01 -1.406413e-03 -7.482088e-01
    outer loop
      vertex   1.762709e+00 1.023443e+01 3.247675e+00
      vertex   1.727667e+00 1.032601e+01 3.278576e+00
      vertex   1.775412e+00 1.033027e+01 3.236230e+00
    endloop
  endfacet
  facet normal -6.744092e-01 1.221018e-03 -7.383568e-01
    outer loop
      vertex   1.762709e+00 1.023443e+01 3.247675e+00
      vertex   1.775412e+00 1.033027e+01 3.236230e+00
      vertex   1.805297e+00 1.023835e+01 3.208782e+00
    endloop
  endfacet
  facet normal -6.792175e-01 -1.662523e-03 -7.339352e-01
    outer loop
      vertex   1.805297e+00 1.023835e+01 3.208782e+00
      vertex   1.775412e+00 1.033027e+01 3.236230e+00
      vertex   1.822269e+00 1.033460e+01 3.192857e+00
    endloop
  endfacet
  facet normal -4.098019e-01 6.597879e-04 -9.121743e-01
    outer loop
      vertex   9.757477e-01 1.027378e+01 3.756175e+00
      vertex   1.004949e+00 1.027539e+01 3.743057e+00
      vertex   1.009538e+00 1.022851e+01 3.740962e+00
    endloop
  endfacet
  facet normal -4.194610e-01 -4.825396e-04 -9.077733e-01
    outer loop
      vertex   1.009538e+00 1.022851e+01 3.740962e+00
      vertex   1.004949e+00 1.027539e+01 3.743057e+00
      vertex   1.034017e+00 1.027702e+01 3.729625e+00
    endloop
  endfacet
  facet normal 9.023889e-02 9.441713e-01 3.168555e-01
    outer loop
      vertex   9.757477e-01 1.027378e+01 3.756175e+00
      vertex   1.078297e+00 1.026392e+01 3.756322e+00
      vertex   1.004949e+00 1.027539e+01 3.743057e+00
    endloop
  endfacet
  facet normal 9.126381e-02 9.455604e-01 3.123884e-01
    outer loop
      vertex   1.004949e+00 1.027539e+01 3.743057e+00
      vertex   1.078297e+00 1.026392e+01 3.756322e+00
      vertex   1.034017e+00 1.027702e+01 3.729625e+00
    endloop
  endfacet
  facet normal 9.315993e-02 9.462916e-01 3.096021e-01
    outer loop
      vertex   1.034017e+00 1.027702e+01 3.729625e+00
      vertex   1.078297e+00 1.026392e+01 3.756322e+00
      vertex   1.078263e+00 1.027499e+01 3.722520e+00
    endloop
  endfacet
  facet normal 9.321120e-02 9.461707e-01 3.099559e-01
    outer loop
      vertex   1.034017e+00 1.027702e+01 3.729625e+00
      vertex   1.078263e+00 1.027499e+01 3.722520e+00
      vertex   1.062948e+00 1.027867e+01 3.715879e+00
    endloop
  endfacet
  facet normal 9.477262e-02 9.470330e-01 3.068331e-01
    outer loop
      vertex   1.062948e+00 1.027867e+01 3.715879e+00
      vertex   1.078263e+00 1.027499e+01 3.722520e+00
      vertex   1.091725e+00 1.028034e+01 3.701828e+00
    endloop
  endfacet
  facet normal 9.937348e-02 9.456989e-01 3.094809e-01
    outer loop
      vertex   1.091725e+00 1.028034e+01 3.701828e+00
      vertex   1.078263e+00 1.027499e+01 3.722520e+00
      vertex   1.179991e+00 1.026430e+01 3.722520e+00
    endloop
  endfacet
  facet normal 1.001848e-01 9.465304e-01 3.066648e-01
    outer loop
      vertex   1.091725e+00 1.028034e+01 3.701828e+00
      vertex   1.179991e+00 1.026430e+01 3.722520e+00
      vertex   1.181288e+00 1.027558e+01 3.687274e+00
    endloop
  endfacet
  facet normal 1.084455e-01 9.456159e-01 3.066760e-01
    outer loop
      vertex   1.181288e+00 1.027558e+01 3.687274e+00
      vertex   1.179991e+00 1.026430e+01 3.722520e+00
      vertex   1.283363e+00 1.026387e+01 3.687274e+00
    endloop
  endfacet
  facet normal 1.085531e-01 9.465547e-01 3.037276e-01
    outer loop
      vertex   1.181288e+00 1.027558e+01 3.687274e+00
      vertex   1.283363e+00 1.026387e+01 3.687274e+00
      vertex   1.284758e+00 1.027503e+01 3.652016e+00
    endloop
  endfacet
  facet normal 1.175600e-01 9.454737e-01 3.037419e-01
    outer loop
      vertex   1.284758e+00 1.027503e+01 3.652016e+00
      vertex   1.283363e+00 1.026387e+01 3.687274e+00
      vertex   1.387165e+00 1.026229e+01 3.652016e+00
    endloop
  endfacet
  facet normal 1.176754e-01 9.464015e-01 3.007933e-01
    outer loop
      vertex   1.284758e+00 1.027503e+01 3.652016e+00
      vertex   1.387165e+00 1.026229e+01 3.652016e+00
      vertex   1.388655e+00 1.027332e+01 3.616746e+00
    endloop
  endfacet
  facet normal 1.267113e-01 9.452293e-01 3.008087e-01
    outer loop
      vertex   1.388655e+00 1.027332e+01 3.616746e+00
      vertex   1.387165e+00 1.026229e+01 3.652016e+00
      vertex   1.491380e+00 1.025955e+01 3.616746e+00
    endloop
  endfacet
  facet normal 1.268343e-01 9.461462e-01 2.978599e-01
    outer loop
      vertex   1.388655e+00 1.027332e+01 3.616746e+00
      vertex   1.491380e+00 1.025955e+01 3.616746e+00
      vertex   1.492964e+00 1.027044e+01 3.581467e+00
    endloop
  endfacet
  facet normal 1.358981e-01 9.448817e-01 2.978763e-01
    outer loop
      vertex   1.492964e+00 1.027044e+01 3.581467e+00
      vertex   1.491380e+00 1.025955e+01 3.616746e+00
      vertex   1.595991e+00 1.025562e+01 3.581467e+00
    endloop
  endfacet
  facet normal 1.360284e-01 9.457876e-01 2.949274e-01
    outer loop
      vertex   1.492964e+00 1.027044e+01 3.581467e+00
      vertex   1.595991e+00 1.025562e+01 3.581467e+00
      vertex   1.597666e+00 1.026639e+01 3.546177e+00
    endloop
  endfacet
  facet normal 1.451188e-01 9.444300e-01 2.949448e-01
    outer loop
      vertex   1.597666e+00 1.026639e+01 3.546177e+00
      vertex   1.595991e+00 1.025562e+01 3.581467e+00
      vertex   1.700980e+00 1.025051e+01 3.546177e+00
    endloop
  endfacet
  facet normal 1.452563e-01 9.453248e-01 2.919958e-01
    outer loop
      vertex   1.597666e+00 1.026639e+01 3.546177e+00
      vertex   1.700980e+00 1.025051e+01 3.546177e+00
      vertex   1.702744e+00 1.026114e+01 3.510877e+00
    endloop
  endfacet
  facet normal 1.543828e-01 9.438716e-01 2.920143e-01
    outer loop
      vertex   1.702744e+00 1.026114e+01 3.510877e+00
      vertex   1.700980e+00 1.025051e+01 3.546177e+00
      vertex   1.804421e+00 1.023338e+01 3.546866e+00
    endloop
  endfacet
  facet normal 1.549751e-01 9.442103e-01 2.906023e-01
    outer loop
      vertex   1.702744e+00 1.026114e+01 3.510877e+00
      vertex   1.804421e+00 1.023338e+01 3.546866e+00
      vertex   1.808142e+00 1.025448e+01 3.476312e+00
    endloop
  endfacet
  facet normal 9.937591e-02 9.457221e-01 3.094095e-01
    outer loop
      vertex   1.078263e+00 1.027499e+01 3.722520e+00
      vertex   1.078297e+00 1.026392e+01 3.756322e+00
      vertex   1.179991e+00 1.026430e+01 3.722520e+00
    endloop
  endfacet
  facet normal 9.950554e-02 9.455813e-01 3.097979e-01
    outer loop
      vertex   1.179991e+00 1.026430e+01 3.722520e+00
      vertex   1.078297e+00 1.026392e+01 3.756322e+00
      vertex   1.180742e+00 1.025309e+01 3.756484e+00
    endloop
  endfacet
  facet normal 1.083475e-01 9.447616e-01 3.093320e-01
    outer loop
      vertex   1.179991e+00 1.026430e+01 3.722520e+00
      vertex   1.180742e+00 1.025309e+01 3.756484e+00
      vertex   1.281954e+00 1.025260e+01 3.722520e+00
    endloop
  endfacet
  facet normal 1.085284e-01 9.445632e-01 3.098740e-01
    outer loop
      vertex   1.281954e+00 1.025260e+01 3.722520e+00
      vertex   1.180742e+00 1.025309e+01 3.756484e+00
      vertex   1.283075e+00 1.024128e+01 3.756660e+00
    endloop
  endfacet
  facet normal 1.173393e-01 9.436983e-01 3.092976e-01
    outer loop
      vertex   1.281954e+00 1.025260e+01 3.722520e+00
      vertex   1.283075e+00 1.024128e+01 3.756660e+00
      vertex   1.384138e+00 1.023990e+01 3.722520e+00
    endloop
  endfacet
  facet normal 1.175438e-01 9.434712e-01 3.099122e-01
    outer loop
      vertex   1.384138e+00 1.023990e+01 3.722520e+00
      vertex   1.283075e+00 1.024128e+01 3.756660e+00
      vertex   1.385289e+00 1.022848e+01 3.756850e+00
    endloop
  endfacet
  facet normal 1.263498e-01 9.425319e-01 3.093045e-01
    outer loop
      vertex   1.384138e+00 1.023990e+01 3.722520e+00
      vertex   1.385289e+00 1.022848e+01 3.756850e+00
      vertex   1.486529e+00 1.022617e+01 3.722520e+00
    endloop
  endfacet
  facet normal 1.265513e-01 9.423046e-01 3.099142e-01
    outer loop
      vertex   1.486529e+00 1.022617e+01 3.722520e+00
      vertex   1.385289e+00 1.022848e+01 3.756850e+00
      vertex   1.487376e+00 1.021470e+01 3.757055e+00
    endloop
  endfacet
  facet normal 1.353775e-01 9.412622e-01 3.093515e-01
    outer loop
      vertex   1.486529e+00 1.022617e+01 3.722520e+00
      vertex   1.487376e+00 1.021470e+01 3.757055e+00
      vertex   1.589112e+00 1.021142e+01 3.722520e+00
    endloop
  endfacet
  facet normal 1.355508e-01 9.410631e-01 3.098810e-01
    outer loop
      vertex   1.589112e+00 1.021142e+01 3.722520e+00
      vertex   1.487376e+00 1.021470e+01 3.757055e+00
      vertex   1.589329e+00 1.019994e+01 3.757273e+00
    endloop
  endfacet
  facet normal 1.444210e-01 9.398887e-01 3.094378e-01
    outer loop
      vertex   1.589112e+00 1.021142e+01 3.722520e+00
      vertex   1.589329e+00 1.019994e+01 3.757273e+00
      vertex   1.691873e+00 1.019563e+01 3.722520e+00
    endloop
  endfacet
  facet normal 1.445421e-01 9.397466e-01 3.098128e-01
    outer loop
      vertex   1.691873e+00 1.019563e+01 3.722520e+00
      vertex   1.589329e+00 1.019994e+01 3.757273e+00
      vertex   1.691140e+00 1.018421e+01 3.757506e+00
    endloop
  endfacet
  facet normal 1.535331e-01 9.384023e-01 3.095621e-01
    outer loop
      vertex   1.691873e+00 1.019563e+01 3.722520e+00
      vertex   1.691140e+00 1.018421e+01 3.757506e+00
      vertex   1.792803e+00 1.016749e+01 3.757753e+00
    endloop
  endfacet
  facet normal 1.540860e-01 9.387434e-01 3.082504e-01
    outer loop
      vertex   1.792803e+00 1.016749e+01 3.757753e+00
      vertex   1.796751e+00 1.018988e+01 3.687590e+00
      vertex   1.691873e+00 1.019563e+01 3.722520e+00
    endloop
  endfacet
  facet normal 1.536205e-01 9.393078e-01 3.067600e-01
    outer loop
      vertex   1.691873e+00 1.019563e+01 3.722520e+00
      vertex   1.796751e+00 1.018988e+01 3.687590e+00
      vertex   1.693732e+00 1.020684e+01 3.687274e+00
    endloop
  endfacet
  facet normal 1.445537e-01 9.407520e-01 3.067408e-01
    outer loop
      vertex   1.691873e+00 1.019563e+01 3.722520e+00
      vertex   1.693732e+00 1.020684e+01 3.687274e+00
      vertex   1.589112e+00 1.021142e+01 3.722520e+00
    endloop
  endfacet
  facet normal 1.445537e-01 9.407520e-01 3.067408e-01
    outer loop
      vertex   1.589112e+00 1.021142e+01 3.722520e+00
      vertex   1.693732e+00 1.020684e+01 3.687274e+00
      vertex   1.590858e+00 1.022264e+01 3.687274e+00
    endloop
  endfacet
  facet normal 1.354987e-01 9.421047e-01 3.067228e-01
    outer loop
      vertex   1.589112e+00 1.021142e+01 3.722520e+00
      vertex   1.590858e+00 1.022264e+01 3.687274e+00
      vertex   1.486529e+00 1.022617e+01 3.722520e+00
    endloop
  endfacet
  facet normal 1.354987e-01 9.421047e-01 3.067228e-01
    outer loop
      vertex   1.486529e+00 1.022617e+01 3.722520e+00
      vertex   1.590858e+00 1.022264e+01 3.687274e+00
      vertex   1.488163e+00 1.023741e+01 3.687274e+00
    endloop
  endfacet
  facet normal 1.264615e-01 9.433657e-01 3.067060e-01
    outer loop
      vertex   1.486529e+00 1.022617e+01 3.722520e+00
      vertex   1.488163e+00 1.023741e+01 3.687274e+00
      vertex   1.384138e+00 1.023990e+01 3.722520e+00
    endloop
  endfacet
  facet normal 1.264615e-01 9.433657e-01 3.067060e-01
    outer loop
      vertex   1.384138e+00 1.023990e+01 3.722520e+00
      vertex   1.488163e+00 1.023741e+01 3.687274e+00
      vertex   1.385659e+00 1.025115e+01 3.687274e+00
    endloop
  endfacet
  facet normal 1.174434e-01 9.445359e-01 3.066904e-01
    outer loop
      vertex   1.384138e+00 1.023990e+01 3.722520e+00
      vertex   1.385659e+00 1.025115e+01 3.687274e+00
      vertex   1.281954e+00 1.025260e+01 3.722520e+00
    endloop
  endfacet
  facet normal 1.174434e-01 9.445359e-01 3.066904e-01
    outer loop
      vertex   1.281954e+00 1.025260e+01 3.722520e+00
      vertex   1.385659e+00 1.025115e+01 3.687274e+00
      vertex   1.283363e+00 1.026387e+01 3.687274e+00
    endloop
  endfacet
  facet normal 1.084455e-01 9.456159e-01 3.066760e-01
    outer loop
      vertex   1.281954e+00 1.025260e+01 3.722520e+00
      vertex   1.283363e+00 1.026387e+01 3.687274e+00
      vertex   1.179991e+00 1.026430e+01 3.722520e+00
    endloop
  endfacet
  facet normal 1.537828e-01 9.402392e-01 3.038109e-01
    outer loop
      vertex   1.693732e+00 1.020684e+01 3.687274e+00
      vertex   1.796751e+00 1.018988e+01 3.687590e+00
      vertex   1.695573e+00 1.021793e+01 3.652016e+00
    endloop
  endfacet
  facet normal 1.543884e-01 9.406027e-01 3.023752e-01
    outer loop
      vertex   1.695573e+00 1.021793e+01 3.652016e+00
      vertex   1.796751e+00 1.018988e+01 3.687590e+00
      vertex   1.800624e+00 1.021185e+01 3.617293e+00
    endloop
  endfacet
  facet normal 1.539207e-01 9.411645e-01 3.008618e-01
    outer loop
      vertex   1.695573e+00 1.021793e+01 3.652016e+00
      vertex   1.800624e+00 1.021185e+01 3.617293e+00
      vertex   1.697394e+00 1.022890e+01 3.616746e+00
    endloop
  endfacet
  facet normal 1.540867e-01 9.420750e-01 2.979126e-01
    outer loop
      vertex   1.697394e+00 1.022890e+01 3.616746e+00
      vertex   1.800624e+00 1.021185e+01 3.617293e+00
      vertex   1.699197e+00 1.023977e+01 3.581467e+00
    endloop
  endfacet
  facet normal 1.449798e-01 9.435254e-01 2.978939e-01
    outer loop
      vertex   1.697394e+00 1.022890e+01 3.616746e+00
      vertex   1.699197e+00 1.023977e+01 3.581467e+00
      vertex   1.594298e+00 1.024475e+01 3.616746e+00
    endloop
  endfacet
  facet normal 1.449798e-01 9.435254e-01 2.978939e-01
    outer loop
      vertex   1.594298e+00 1.024475e+01 3.616746e+00
      vertex   1.699197e+00 1.023977e+01 3.581467e+00
      vertex   1.595991e+00 1.025562e+01 3.581467e+00
    endloop
  endfacet
  facet normal 1.358981e-01 9.448817e-01 2.978763e-01
    outer loop
      vertex   1.594298e+00 1.024475e+01 3.616746e+00
      vertex   1.595991e+00 1.025562e+01 3.581467e+00
      vertex   1.491380e+00 1.025955e+01 3.616746e+00
    endloop
  endfacet
  facet normal 1.546847e-01 9.424250e-01 2.964924e-01
    outer loop
      vertex   1.800624e+00 1.021185e+01 3.617293e+00
      vertex   1.804421e+00 1.023338e+01 3.546866e+00
      vertex   1.699197e+00 1.023977e+01 3.581467e+00
    endloop
  endfacet
  facet normal 1.542157e-01 9.429815e-01 2.949634e-01
    outer loop
      vertex   1.699197e+00 1.023977e+01 3.581467e+00
      vertex   1.804421e+00 1.023338e+01 3.546866e+00
      vertex   1.700980e+00 1.025051e+01 3.546177e+00
    endloop
  endfacet
  facet normal 1.451188e-01 9.444300e-01 2.949448e-01
    outer loop
      vertex   1.699197e+00 1.023977e+01 3.581467e+00
      vertex   1.700980e+00 1.025051e+01 3.546177e+00
      vertex   1.595991e+00 1.025562e+01 3.581467e+00
    endloop
  endfacet
  facet normal 1.552595e-01 9.459586e-01 2.847048e-01
    outer loop
      vertex   1.811788e+00 1.027516e+01 3.405631e+00
      vertex   1.706216e+00 1.028207e+01 3.440253e+00
      vertex   1.808142e+00 1.025448e+01 3.476312e+00
    endloop
  endfacet
  facet normal 1.546710e-01 9.456291e-01 2.861163e-01
    outer loop
      vertex   1.808142e+00 1.025448e+01 3.476312e+00
      vertex   1.706216e+00 1.028207e+01 3.440253e+00
      vertex   1.704490e+00 1.027166e+01 3.475569e+00
    endloop
  endfacet
  facet normal 1.545057e-01 9.447589e-01 2.890652e-01
    outer loop
      vertex   1.808142e+00 1.025448e+01 3.476312e+00
      vertex   1.704490e+00 1.027166e+01 3.475569e+00
      vertex   1.702744e+00 1.026114e+01 3.510877e+00
    endloop
  endfacet
  facet normal 1.453923e-01 9.462098e-01 2.890469e-01
    outer loop
      vertex   1.702744e+00 1.026114e+01 3.510877e+00
      vertex   1.704490e+00 1.027166e+01 3.475569e+00
      vertex   1.599323e+00 1.027704e+01 3.510877e+00
    endloop
  endfacet
  facet normal 1.452563e-01 9.453248e-01 2.919958e-01
    outer loop
      vertex   1.702744e+00 1.026114e+01 3.510877e+00
      vertex   1.599323e+00 1.027704e+01 3.510877e+00
      vertex   1.597666e+00 1.026639e+01 3.546177e+00
    endloop
  endfacet
  facet normal 1.361572e-01 9.466835e-01 2.919786e-01
    outer loop
      vertex   1.597666e+00 1.026639e+01 3.546177e+00
      vertex   1.599323e+00 1.027704e+01 3.510877e+00
      vertex   1.494531e+00 1.028122e+01 3.546177e+00
    endloop
  endfacet
  facet normal 1.360284e-01 9.457876e-01 2.949274e-01
    outer loop
      vertex   1.597666e+00 1.026639e+01 3.546177e+00
      vertex   1.494531e+00 1.028122e+01 3.546177e+00
      vertex   1.492964e+00 1.027044e+01 3.581467e+00
    endloop
  endfacet
  facet normal 1.269558e-01 9.470531e-01 2.949111e-01
    outer loop
      vertex   1.492964e+00 1.027044e+01 3.581467e+00
      vertex   1.494531e+00 1.028122e+01 3.546177e+00
      vertex   1.390130e+00 1.028423e+01 3.581467e+00
    endloop
  endfacet
  facet normal 1.268343e-01 9.461462e-01 2.978599e-01
    outer loop
      vertex   1.492964e+00 1.027044e+01 3.581467e+00
      vertex   1.390130e+00 1.028423e+01 3.581467e+00
      vertex   1.388655e+00 1.027332e+01 3.616746e+00
    endloop
  endfacet
  facet normal 1.189565e-01 9.471726e-01 2.978480e-01
    outer loop
      vertex   1.388655e+00 1.027332e+01 3.616746e+00
      vertex   1.390130e+00 1.028423e+01 3.581467e+00
      vertex   1.315792e+00 1.029441e+01 3.578784e+00
    endloop
  endfacet
  facet normal 1.177077e-01 9.466616e-01 2.999611e-01
    outer loop
      vertex   1.388655e+00 1.027332e+01 3.616746e+00
      vertex   1.315792e+00 1.029441e+01 3.578784e+00
      vertex   1.286138e+00 1.028606e+01 3.616746e+00
    endloop
  endfacet
  facet normal 1.127751e-01 9.483570e-01 2.964805e-01
    outer loop
      vertex   1.286138e+00 1.028606e+01 3.616746e+00
      vertex   1.315792e+00 1.029441e+01 3.578784e+00
      vertex   1.260830e+00 1.029078e+01 3.611295e+00
    endloop
  endfacet
  facet normal 1.107690e-01 9.462264e-01 3.039503e-01
    outer loop
      vertex   1.286138e+00 1.028606e+01 3.616746e+00
      vertex   1.260830e+00 1.029078e+01 3.611295e+00
      vertex   1.205153e+00 1.028723e+01 3.642648e+00
    endloop
  endfacet
  facet normal 1.555380e-01 9.476700e-01 2.788002e-01
    outer loop
      vertex   1.815357e+00 1.029540e+01 3.334827e+00
      vertex   1.709612e+00 1.030253e+01 3.369598e+00
      vertex   1.811788e+00 1.027516e+01 3.405631e+00
    endloop
  endfacet
  facet normal 1.549514e-01 9.473476e-01 2.802189e-01
    outer loop
      vertex   1.811788e+00 1.027516e+01 3.405631e+00
      vertex   1.709612e+00 1.030253e+01 3.369598e+00
      vertex   1.707923e+00 1.029235e+01 3.404929e+00
    endloop
  endfacet
  facet normal 1.547906e-01 9.464967e-01 2.831675e-01
    outer loop
      vertex   1.811788e+00 1.027516e+01 3.405631e+00
      vertex   1.707923e+00 1.029235e+01 3.404929e+00
      vertex   1.706216e+00 1.028207e+01 3.440253e+00
    endloop
  endfacet
  facet normal 1.456597e-01 9.479502e-01 2.831495e-01
    outer loop
      vertex   1.706216e+00 1.028207e+01 3.440253e+00
      vertex   1.707923e+00 1.029235e+01 3.404929e+00
      vertex   1.602584e+00 1.029799e+01 3.440253e+00
    endloop
  endfacet
  facet normal 1.455268e-01 9.470849e-01 2.860981e-01
    outer loop
      vertex   1.706216e+00 1.028207e+01 3.440253e+00
      vertex   1.602584e+00 1.029799e+01 3.440253e+00
      vertex   1.600963e+00 1.028757e+01 3.475569e+00
    endloop
  endfacet
  facet normal 1.376028e-01 9.482726e-01 2.860847e-01
    outer loop
      vertex   1.600963e+00 1.028757e+01 3.475569e+00
      vertex   1.602584e+00 1.029799e+01 3.440253e+00
      vertex   1.528144e+00 1.030965e+01 3.437422e+00
    endloop
  endfacet
  facet normal 1.363176e-01 9.477983e-01 2.882637e-01
    outer loop
      vertex   1.600963e+00 1.028757e+01 3.475569e+00
      vertex   1.528144e+00 1.030965e+01 3.437422e+00
      vertex   1.497614e+00 1.030243e+01 3.475569e+00
    endloop
  endfacet
  facet normal 1.310974e-01 9.496871e-01 2.844430e-01
    outer loop
      vertex   1.497614e+00 1.030243e+01 3.475569e+00
      vertex   1.528144e+00 1.030965e+01 3.437422e+00
      vertex   1.476215e+00 1.030573e+01 3.474434e+00
    endloop
  endfacet
  facet normal 1.306509e-01 9.483650e-01 2.890227e-01
    outer loop
      vertex   1.497614e+00 1.030243e+01 3.475569e+00
      vertex   1.476215e+00 1.030573e+01 3.474434e+00
      vertex   1.496081e+00 1.029189e+01 3.510877e+00
    endloop
  endfacet
  facet normal 1.284752e-01 9.483068e-01 2.901866e-01
    outer loop
      vertex   1.496081e+00 1.029189e+01 3.510877e+00
      vertex   1.476215e+00 1.030573e+01 3.474434e+00
      vertex   1.423502e+00 1.030188e+01 3.510340e+00
    endloop
  endfacet
  facet normal 1.283884e-01 9.477722e-01 2.919663e-01
    outer loop
      vertex   1.496081e+00 1.029189e+01 3.510877e+00
      vertex   1.423502e+00 1.030188e+01 3.510340e+00
      vertex   1.494531e+00 1.028122e+01 3.546177e+00
    endloop
  endfacet
  facet normal 1.269753e-01 9.471983e-01 2.944361e-01
    outer loop
      vertex   1.494531e+00 1.028122e+01 3.546177e+00
      vertex   1.423502e+00 1.030188e+01 3.510340e+00
      vertex   1.391589e+00 1.029502e+01 3.546177e+00
    endloop
  endfacet
  facet normal 1.269558e-01 9.470531e-01 2.949111e-01
    outer loop
      vertex   1.494531e+00 1.028122e+01 3.546177e+00
      vertex   1.391589e+00 1.029502e+01 3.546177e+00
      vertex   1.390130e+00 1.028423e+01 3.581467e+00
    endloop
  endfacet
  facet normal 1.213458e-01 9.477903e-01 2.949047e-01
    outer loop
      vertex   1.390130e+00 1.028423e+01 3.581467e+00
      vertex   1.391589e+00 1.029502e+01 3.546177e+00
      vertex   1.370022e+00 1.029811e+01 3.545128e+00
    endloop
  endfacet
  facet normal 1.190910e-01 9.476982e-01 2.961172e-01
    outer loop
      vertex   1.390130e+00 1.028423e+01 3.581467e+00
      vertex   1.370022e+00 1.029811e+01 3.545128e+00
      vertex   1.315792e+00 1.029441e+01 3.578784e+00
    endloop
  endfacet
  facet normal 1.558106e-01 9.493444e-01 2.728887e-01
    outer loop
      vertex   1.818851e+00 1.031522e+01 3.263902e+00
      vertex   1.712932e+00 1.032254e+01 3.298917e+00
      vertex   1.815357e+00 1.029540e+01 3.334827e+00
    endloop
  endfacet
  facet normal 1.552239e-01 9.490272e-01 2.743225e-01
    outer loop
      vertex   1.815357e+00 1.029540e+01 3.334827e+00
      vertex   1.712932e+00 1.032254e+01 3.298917e+00
      vertex   1.711281e+00 1.031259e+01 3.334260e+00
    endloop
  endfacet
  facet normal 1.550705e-01 9.481952e-01 2.772705e-01
    outer loop
      vertex   1.815357e+00 1.029540e+01 3.334827e+00
      vertex   1.711281e+00 1.031259e+01 3.334260e+00
      vertex   1.709612e+00 1.030253e+01 3.369598e+00
    endloop
  endfacet
  facet normal 1.470758e-01 9.494723e-01 2.772564e-01
    outer loop
      vertex   1.709612e+00 1.030253e+01 3.369598e+00
      vertex   1.711281e+00 1.031259e+01 3.334260e+00
      vertex   1.629579e+00 1.031769e+01 3.360132e+00
    endloop
  endfacet
  facet normal 1.463037e-01 9.482467e-01 2.818216e-01
    outer loop
      vertex   1.709612e+00 1.030253e+01 3.369598e+00
      vertex   1.629579e+00 1.031769e+01 3.360132e+00
      vertex   1.604188e+00 1.030829e+01 3.404929e+00
    endloop
  endfacet
  facet normal 1.407016e-01 9.499277e-01 2.789989e-01
    outer loop
      vertex   1.604188e+00 1.030829e+01 3.404929e+00
      vertex   1.629579e+00 1.031769e+01 3.360132e+00
      vertex   1.579271e+00 1.031363e+01 3.399317e+00
    endloop
  endfacet
  facet normal 1.388654e-01 9.482485e-01 2.855541e-01
    outer loop
      vertex   1.604188e+00 1.030829e+01 3.404929e+00
      vertex   1.579271e+00 1.031363e+01 3.399317e+00
      vertex   1.528144e+00 1.030965e+01 3.437422e+00
    endloop
  endfacet
  facet normal 1.593410e-01 9.504381e-01 2.669790e-01
    outer loop
      vertex   1.822269e+00 1.033460e+01 3.192857e+00
      vertex   1.775412e+00 1.033027e+01 3.236230e+00
      vertex   1.818851e+00 1.031522e+01 3.263902e+00
    endloop
  endfacet
  facet normal 1.561250e-01 9.496609e-01 2.716047e-01
    outer loop
      vertex   1.818851e+00 1.031522e+01 3.263902e+00
      vertex   1.775412e+00 1.033027e+01 3.236230e+00
      vertex   1.727667e+00 1.032601e+01 3.278576e+00
    endloop
  endfacet
  facet normal 1.566075e-01 9.484635e-01 2.754833e-01
    outer loop
      vertex   1.818851e+00 1.031522e+01 3.263902e+00
      vertex   1.727667e+00 1.032601e+01 3.278576e+00
      vertex   1.712932e+00 1.032254e+01 3.298917e+00
    endloop
  endfacet
  facet normal 1.457927e-01 9.522409e-01 2.682943e-01
    outer loop
      vertex   1.712932e+00 1.032254e+01 3.298917e+00
      vertex   1.727667e+00 1.032601e+01 3.278576e+00
      vertex   1.679050e+00 1.032182e+01 3.319881e+00
    endloop
  endfacet
  facet normal 1.495666e-01 9.499376e-01 2.743145e-01
    outer loop
      vertex   1.712932e+00 1.032254e+01 3.298917e+00
      vertex   1.679050e+00 1.032182e+01 3.319881e+00
      vertex   1.711281e+00 1.031259e+01 3.334260e+00
    endloop
  endfacet
  facet normal 1.474441e-01 9.490503e-01 2.785027e-01
    outer loop
      vertex   1.711281e+00 1.031259e+01 3.334260e+00
      vertex   1.679050e+00 1.032182e+01 3.319881e+00
      vertex   1.629579e+00 1.031769e+01 3.360132e+00
    endloop
  endfacet
  facet normal 1.217757e-01 9.491902e-01 2.901871e-01
    outer loop
      vertex   1.423502e+00 1.030188e+01 3.510340e+00
      vertex   1.370022e+00 1.029811e+01 3.545128e+00
      vertex   1.391589e+00 1.029502e+01 3.546177e+00
    endloop
  endfacet
  facet normal 1.035641e-01 9.474635e-01 3.026340e-01
    outer loop
      vertex   1.148779e+00 1.028375e+01 3.672830e+00
      vertex   1.181288e+00 1.027558e+01 3.687274e+00
      vertex   1.205153e+00 1.028723e+01 3.642648e+00
    endloop
  endfacet
  facet normal 1.090494e-01 9.460263e-01 3.051924e-01
    outer loop
      vertex   1.205153e+00 1.028723e+01 3.642648e+00
      vertex   1.181288e+00 1.027558e+01 3.687274e+00
      vertex   1.284758e+00 1.027503e+01 3.652016e+00
    endloop
  endfacet
  facet normal 1.097719e-01 9.473543e-01 3.007822e-01
    outer loop
      vertex   1.205153e+00 1.028723e+01 3.642648e+00
      vertex   1.284758e+00 1.027503e+01 3.652016e+00
      vertex   1.286138e+00 1.028606e+01 3.616746e+00
    endloop
  endfacet
  facet normal 1.176754e-01 9.464015e-01 3.007933e-01
    outer loop
      vertex   1.286138e+00 1.028606e+01 3.616746e+00
      vertex   1.284758e+00 1.027503e+01 3.652016e+00
      vertex   1.388655e+00 1.027332e+01 3.616746e+00
    endloop
  endfacet
  facet normal 1.004748e-01 9.458466e-01 3.086730e-01
    outer loop
      vertex   1.148779e+00 1.028375e+01 3.672830e+00
      vertex   1.091725e+00 1.028034e+01 3.701828e+00
      vertex   1.181288e+00 1.027558e+01 3.687274e+00
    endloop
  endfacet
  facet normal 1.175600e-01 9.454737e-01 3.037419e-01
    outer loop
      vertex   1.387165e+00 1.026229e+01 3.652016e+00
      vertex   1.283363e+00 1.026387e+01 3.687274e+00
      vertex   1.385659e+00 1.025115e+01 3.687274e+00
    endloop
  endfacet
  facet normal 1.265871e-01 9.443025e-01 3.037574e-01
    outer loop
      vertex   1.387165e+00 1.026229e+01 3.652016e+00
      vertex   1.385659e+00 1.025115e+01 3.687274e+00
      vertex   1.489780e+00 1.024854e+01 3.652016e+00
    endloop
  endfacet
  facet normal 1.265871e-01 9.443025e-01 3.037574e-01
    outer loop
      vertex   1.489780e+00 1.024854e+01 3.652016e+00
      vertex   1.385659e+00 1.025115e+01 3.687274e+00
      vertex   1.488163e+00 1.023741e+01 3.687274e+00
    endloop
  endfacet
  facet normal 1.356332e-01 9.430403e-01 3.037740e-01
    outer loop
      vertex   1.489780e+00 1.024854e+01 3.652016e+00
      vertex   1.488163e+00 1.023741e+01 3.687274e+00
      vertex   1.592587e+00 1.023375e+01 3.652016e+00
    endloop
  endfacet
  facet normal 1.356332e-01 9.430403e-01 3.037740e-01
    outer loop
      vertex   1.592587e+00 1.023375e+01 3.652016e+00
      vertex   1.488163e+00 1.023741e+01 3.687274e+00
      vertex   1.590858e+00 1.022264e+01 3.687274e+00
    endloop
  endfacet
  facet normal 1.446973e-01 9.416864e-01 3.037919e-01
    outer loop
      vertex   1.592587e+00 1.023375e+01 3.652016e+00
      vertex   1.590858e+00 1.022264e+01 3.687274e+00
      vertex   1.695573e+00 1.021793e+01 3.652016e+00
    endloop
  endfacet
  facet normal 1.446973e-01 9.416864e-01 3.037919e-01
    outer loop
      vertex   1.695573e+00 1.021793e+01 3.652016e+00
      vertex   1.590858e+00 1.022264e+01 3.687274e+00
      vertex   1.693732e+00 1.020684e+01 3.687274e+00
    endloop
  endfacet
  facet normal 1.357664e-01 9.439659e-01 3.008252e-01
    outer loop
      vertex   1.594298e+00 1.024475e+01 3.616746e+00
      vertex   1.491380e+00 1.025955e+01 3.616746e+00
      vertex   1.489780e+00 1.024854e+01 3.652016e+00
    endloop
  endfacet
  facet normal 1.267113e-01 9.452293e-01 3.008087e-01
    outer loop
      vertex   1.489780e+00 1.024854e+01 3.652016e+00
      vertex   1.491380e+00 1.025955e+01 3.616746e+00
      vertex   1.387165e+00 1.026229e+01 3.652016e+00
    endloop
  endfacet
  facet normal 1.357664e-01 9.439659e-01 3.008252e-01
    outer loop
      vertex   1.594298e+00 1.024475e+01 3.616746e+00
      vertex   1.489780e+00 1.024854e+01 3.652016e+00
      vertex   1.592587e+00 1.023375e+01 3.652016e+00
    endloop
  endfacet
  facet normal 1.362847e-01 9.475697e-01 2.890298e-01
    outer loop
      vertex   1.600963e+00 1.028757e+01 3.475569e+00
      vertex   1.497614e+00 1.030243e+01 3.475569e+00
      vertex   1.496081e+00 1.029189e+01 3.510877e+00
    endloop
  endfacet
  facet normal 1.362847e-01 9.475697e-01 2.890298e-01
    outer loop
      vertex   1.600963e+00 1.028757e+01 3.475569e+00
      vertex   1.496081e+00 1.029189e+01 3.510877e+00
      vertex   1.599323e+00 1.027704e+01 3.510877e+00
    endloop
  endfacet
  facet normal 1.361572e-01 9.466835e-01 2.919786e-01
    outer loop
      vertex   1.599323e+00 1.027704e+01 3.510877e+00
      vertex   1.496081e+00 1.029189e+01 3.510877e+00
      vertex   1.494531e+00 1.028122e+01 3.546177e+00
    endloop
  endfacet
  facet normal 1.448393e-01 9.426108e-01 3.008429e-01
    outer loop
      vertex   1.697394e+00 1.022890e+01 3.616746e+00
      vertex   1.594298e+00 1.024475e+01 3.616746e+00
      vertex   1.592587e+00 1.023375e+01 3.652016e+00
    endloop
  endfacet
  facet normal 1.448393e-01 9.426108e-01 3.008429e-01
    outer loop
      vertex   1.697394e+00 1.022890e+01 3.616746e+00
      vertex   1.592587e+00 1.023375e+01 3.652016e+00
      vertex   1.695573e+00 1.021793e+01 3.652016e+00
    endloop
  endfacet
  facet normal 1.378479e-01 9.491215e-01 2.831365e-01
    outer loop
      vertex   1.604188e+00 1.030829e+01 3.404929e+00
      vertex   1.528144e+00 1.030965e+01 3.437422e+00
      vertex   1.602584e+00 1.029799e+01 3.440253e+00
    endloop
  endfacet
  facet normal 1.455268e-01 9.470849e-01 2.860981e-01
    outer loop
      vertex   1.706216e+00 1.028207e+01 3.440253e+00
      vertex   1.600963e+00 1.028757e+01 3.475569e+00
      vertex   1.704490e+00 1.027166e+01 3.475569e+00
    endloop
  endfacet
  facet normal 1.453923e-01 9.462098e-01 2.890469e-01
    outer loop
      vertex   1.704490e+00 1.027166e+01 3.475569e+00
      vertex   1.600963e+00 1.028757e+01 3.475569e+00
      vertex   1.599323e+00 1.027704e+01 3.510877e+00
    endloop
  endfacet
  facet normal 1.457912e-01 9.488057e-01 2.802011e-01
    outer loop
      vertex   1.709612e+00 1.030253e+01 3.369598e+00
      vertex   1.604188e+00 1.030829e+01 3.404929e+00
      vertex   1.707923e+00 1.029235e+01 3.404929e+00
    endloop
  endfacet
  facet normal 1.456597e-01 9.479502e-01 2.831495e-01
    outer loop
      vertex   1.707923e+00 1.029235e+01 3.404929e+00
      vertex   1.604188e+00 1.030829e+01 3.404929e+00
      vertex   1.602584e+00 1.029799e+01 3.440253e+00
    endloop
  endfacet
  facet normal 9.848078e-01 -1.736482e-01 -1.020342e-13
    outer loop
      vertex   1.778111e+00 1.008417e+01 3.726958e+00
      vertex   1.781735e+00 1.010472e+01 3.662554e+00
      vertex   1.792803e+00 1.016749e+01 3.757753e+00
    endloop
  endfacet
  facet normal 9.848078e-01 -1.736482e-01 -2.122476e-14
    outer loop
      vertex   1.792803e+00 1.016749e+01 3.757753e+00
      vertex   1.781735e+00 1.010472e+01 3.662554e+00
      vertex   1.785294e+00 1.012491e+01 3.598041e+00
    endloop
  endfacet
  facet normal 9.848078e-01 -1.736482e-01 -3.968910e-09
    outer loop
      vertex   1.792803e+00 1.016749e+01 3.757753e+00
      vertex   1.785294e+00 1.012491e+01 3.598041e+00
      vertex   1.796751e+00 1.018988e+01 3.687590e+00
    endloop
  endfacet
  facet normal 9.848078e-01 -1.736482e-01 2.029873e-09
    outer loop
      vertex   1.796751e+00 1.018988e+01 3.687590e+00
      vertex   1.785294e+00 1.012491e+01 3.598041e+00
      vertex   1.788789e+00 1.014473e+01 3.533421e+00
    endloop
  endfacet
  facet normal 9.848078e-01 -1.736481e-01 -9.053447e-09
    outer loop
      vertex   1.796751e+00 1.018988e+01 3.687590e+00
      vertex   1.788789e+00 1.014473e+01 3.533421e+00
      vertex   1.800624e+00 1.021185e+01 3.617293e+00
    endloop
  endfacet
  facet normal 9.848078e-01 -1.736482e-01 7.242570e-09
    outer loop
      vertex   1.800624e+00 1.021185e+01 3.617293e+00
      vertex   1.788789e+00 1.014473e+01 3.533421e+00
      vertex   1.792220e+00 1.016418e+01 3.468696e+00
    endloop
  endfacet
  facet normal 9.848078e-01 -1.736481e-01 -9.269651e-09
    outer loop
      vertex   1.800624e+00 1.021185e+01 3.617293e+00
      vertex   1.792220e+00 1.016418e+01 3.468696e+00
      vertex   1.804421e+00 1.023338e+01 3.546866e+00
    endloop
  endfacet
  facet normal 9.848078e-01 -1.736481e-01 1.438545e-08
    outer loop
      vertex   1.804421e+00 1.023338e+01 3.546866e+00
      vertex   1.792220e+00 1.016418e+01 3.468696e+00
      vertex   1.795586e+00 1.018327e+01 3.403868e+00
    endloop
  endfacet
  facet normal 9.848078e-01 -1.736481e-01 -5.478498e-09
    outer loop
      vertex   1.804421e+00 1.023338e+01 3.546866e+00
      vertex   1.795586e+00 1.018327e+01 3.403868e+00
      vertex   1.808142e+00 1.025448e+01 3.476312e+00
    endloop
  endfacet
  facet normal 9.848078e-01 -1.736481e-01 2.228949e-08
    outer loop
      vertex   1.808142e+00 1.025448e+01 3.476312e+00
      vertex   1.795586e+00 1.018327e+01 3.403868e+00
      vertex   1.798888e+00 1.020200e+01 3.338938e+00
    endloop
  endfacet
  facet normal 9.848078e-01 -1.736480e-01 1.524260e-09
    outer loop
      vertex   1.808142e+00 1.025448e+01 3.476312e+00
      vertex   1.798888e+00 1.020200e+01 3.338938e+00
      vertex   1.811788e+00 1.027516e+01 3.405631e+00
    endloop
  endfacet
  facet normal 9.848078e-01 -1.736481e-01 2.986894e-08
    outer loop
      vertex   1.811788e+00 1.027516e+01 3.405631e+00
      vertex   1.798888e+00 1.020200e+01 3.338938e+00
      vertex   1.802125e+00 1.022036e+01 3.273909e+00
    endloop
  endfacet
  facet normal 9.848078e-01 -1.736480e-01 1.100865e-08
    outer loop
      vertex   1.811788e+00 1.027516e+01 3.405631e+00
      vertex   1.802125e+00 1.022036e+01 3.273909e+00
      vertex   1.815357e+00 1.029540e+01 3.334827e+00
    endloop
  endfacet
  facet normal 9.848078e-01 -1.736481e-01 3.612103e-08
    outer loop
      vertex   1.815357e+00 1.029540e+01 3.334827e+00
      vertex   1.802125e+00 1.022036e+01 3.273909e+00
      vertex   1.805297e+00 1.023835e+01 3.208782e+00
    endloop
  endfacet
  facet normal 9.848078e-01 -1.736480e-01 2.231099e-08
    outer loop
      vertex   1.815357e+00 1.029540e+01 3.334827e+00
      vertex   1.805297e+00 1.023835e+01 3.208782e+00
      vertex   1.818851e+00 1.031522e+01 3.263902e+00
    endloop
  endfacet
  facet normal 9.848078e-01 -1.736480e-01 3.324741e-08
    outer loop
      vertex   1.818851e+00 1.031522e+01 3.263902e+00
      vertex   1.805297e+00 1.023835e+01 3.208782e+00
      vertex   1.822269e+00 1.033460e+01 3.192857e+00
    endloop
  endfacet
  facet normal -5.786549e-02 -3.370928e-01 9.396915e-01
    outer loop
      vertex   1.778111e+00 1.008417e+01 3.726958e+00
      vertex   1.792803e+00 1.016749e+01 3.757753e+00
      vertex   1.686587e+00 1.009925e+01 3.726734e+00
    endloop
  endfacet
  facet normal -5.773512e-02 -3.372704e-01 9.396357e-01
    outer loop
      vertex   1.686587e+00 1.009925e+01 3.726734e+00
      vertex   1.792803e+00 1.016749e+01 3.757753e+00
      vertex   1.691140e+00 1.018421e+01 3.757506e+00
    endloop
  endfacet
  facet normal -5.478826e-02 -3.374667e-01 9.397417e-01
    outer loop
      vertex   1.686587e+00 1.009925e+01 3.726734e+00
      vertex   1.691140e+00 1.018421e+01 3.757506e+00
      vertex   1.594942e+00 1.011354e+01 3.726520e+00
    endloop
  endfacet
  facet normal -5.438492e-02 -3.379499e-01 9.395915e-01
    outer loop
      vertex   1.594942e+00 1.011354e+01 3.726520e+00
      vertex   1.691140e+00 1.018421e+01 3.757506e+00
      vertex   1.589329e+00 1.019994e+01 3.757273e+00
    endloop
  endfacet
  facet normal -5.171356e-02 -3.378437e-01 9.397805e-01
    outer loop
      vertex   1.594942e+00 1.011354e+01 3.726520e+00
      vertex   1.589329e+00 1.019994e+01 3.757273e+00
      vertex   1.503179e+00 1.012702e+01 3.726319e+00
    endloop
  endfacet
  facet normal -5.102281e-02 -3.385655e-01 9.395585e-01
    outer loop
      vertex   1.503179e+00 1.012702e+01 3.726319e+00
      vertex   1.589329e+00 1.019994e+01 3.757273e+00
      vertex   1.487376e+00 1.021470e+01 3.757055e+00
    endloop
  endfacet
  facet normal -4.864068e-02 -3.382236e-01 9.398079e-01
    outer loop
      vertex   1.503179e+00 1.012702e+01 3.726319e+00
      vertex   1.487376e+00 1.021470e+01 3.757055e+00
      vertex   1.411306e+00 1.013971e+01 3.726129e+00
    endloop
  endfacet
  facet normal -4.764978e-02 -3.391169e-01 9.395367e-01
    outer loop
      vertex   1.411306e+00 1.013971e+01 3.726129e+00
      vertex   1.487376e+00 1.021470e+01 3.757055e+00
      vertex   1.385289e+00 1.022848e+01 3.756850e+00
    endloop
  endfacet
  facet normal -4.556899e-02 -3.386065e-01 9.398240e-01
    outer loop
      vertex   1.411306e+00 1.013971e+01 3.726129e+00
      vertex   1.385289e+00 1.022848e+01 3.756850e+00
      vertex   1.319326e+00 1.015159e+01 3.725951e+00
    endloop
  endfacet
  facet normal -4.426693e-02 -3.396039e-01 9.395263e-01
    outer loop
      vertex   1.319326e+00 1.015159e+01 3.725951e+00
      vertex   1.385289e+00 1.022848e+01 3.756850e+00
      vertex   1.283075e+00 1.024128e+01 3.756660e+00
    endloop
  endfacet
  facet normal -4.249788e-02 -3.389924e-01 9.398288e-01
    outer loop
      vertex   1.319326e+00 1.015159e+01 3.725951e+00
      vertex   1.283075e+00 1.024128e+01 3.756660e+00
      vertex   1.227247e+00 1.016268e+01 3.725784e+00
    endloop
  endfacet
  facet normal -4.087539e-02 -3.400263e-01 9.395272e-01
    outer loop
      vertex   1.227247e+00 1.016268e+01 3.725784e+00
      vertex   1.283075e+00 1.024128e+01 3.756660e+00
      vertex   1.180742e+00 1.025309e+01 3.756484e+00
    endloop
  endfacet
  facet normal -3.942672e-02 -3.393814e-01 9.398222e-01
    outer loop
      vertex   1.227247e+00 1.016268e+01 3.725784e+00
      vertex   1.180742e+00 1.025309e+01 3.756484e+00
      vertex   1.135073e+00 1.017296e+01 3.725630e+00
    endloop
  endfacet
  facet normal -3.747628e-02 -3.403841e-01 9.395394e-01
    outer loop
      vertex   1.135073e+00 1.017296e+01 3.725630e+00
      vertex   1.180742e+00 1.025309e+01 3.756484e+00
      vertex   1.078297e+00 1.026392e+01 3.756322e+00
    endloop
  endfacet
  facet normal -3.635488e-02 -3.397736e-01 9.398044e-01
    outer loop
      vertex   1.135073e+00 1.017296e+01 3.725630e+00
      vertex   1.078297e+00 1.026392e+01 3.756322e+00
      vertex   1.042809e+00 1.018243e+01 3.725488e+00
    endloop
  endfacet
  facet normal -3.452466e-02 -3.404976e-01 9.396113e-01
    outer loop
      vertex   1.042809e+00 1.018243e+01 3.725488e+00
      vertex   1.078297e+00 1.026392e+01 3.756322e+00
      vertex   1.009538e+00 1.022851e+01 3.740962e+00
    endloop
  endfacet
  facet normal -3.411911e-02 -3.411834e-01 9.393773e-01
    outer loop
      vertex   1.009538e+00 1.022851e+01 3.740962e+00
      vertex   1.078297e+00 1.026392e+01 3.756322e+00
      vertex   9.757477e-01 1.027378e+01 3.756175e+00
    endloop
  endfacet
endsolid
