solid ASCII
  facet normal 1.595805e-01 -9.753132e-01 1.526373e-01
    outer loop
      vertex   -1.855260e+00 1.052170e+01 -1.883881e+00
      vertex   -1.751522e+00 1.053870e+01 -1.883747e+00
      vertex   -1.857774e+00 1.053596e+01 -1.790153e+00
    endloop
  endfacet
  facet normal 1.595133e-01 -9.753363e-01 1.525604e-01
    outer loop
      vertex   -1.857774e+00 1.053596e+01 -1.790153e+00
      vertex   -1.751522e+00 1.053870e+01 -1.883747e+00
      vertex   -1.752758e+00 1.055319e+01 -1.789782e+00
    endloop
  endfacet
  facet normal 1.597283e-01 -9.764796e-01 1.448258e-01
    outer loop
      vertex   -1.857774e+00 1.053596e+01 -1.790153e+00
      vertex   -1.752758e+00 1.055319e+01 -1.789782e+00
      vertex   -1.860159e+00 1.054949e+01 -1.696312e+00
    endloop
  endfacet
  facet normal 1.596971e-01 -9.764900e-01 1.447895e-01
    outer loop
      vertex   -1.860159e+00 1.054949e+01 -1.696312e+00
      vertex   -1.752758e+00 1.055319e+01 -1.789782e+00
      vertex   -1.755011e+00 1.056676e+01 -1.695813e+00
    endloop
  endfacet
  facet normal 1.598605e-01 -9.773153e-01 1.389227e-01
    outer loop
      vertex   -1.860159e+00 1.054949e+01 -1.696312e+00
      vertex   -1.755011e+00 1.056676e+01 -1.695813e+00
      vertex   -1.756090e+00 1.057325e+01 -1.648881e+00
    endloop
  endfacet
  facet normal 1.505486e-01 -9.787943e-01 1.389134e-01
    outer loop
      vertex   -1.756090e+00 1.057325e+01 -1.648881e+00
      vertex   -1.755011e+00 1.056676e+01 -1.695813e+00
      vertex   -1.651029e+00 1.058941e+01 -1.648881e+00
    endloop
  endfacet
  facet normal 1.505862e-01 -9.790386e-01 1.371394e-01
    outer loop
      vertex   -1.756090e+00 1.057325e+01 -1.648881e+00
      vertex   -1.651029e+00 1.058941e+01 -1.648881e+00
      vertex   -1.716039e+00 1.058653e+01 -1.598078e+00
    endloop
  endfacet
  facet normal 1.525408e-01 -9.783769e-01 1.396782e-01
    outer loop
      vertex   -1.716039e+00 1.058653e+01 -1.598078e+00
      vertex   -1.651029e+00 1.058941e+01 -1.648881e+00
      vertex   -1.665440e+00 1.059042e+01 -1.626061e+00
    endloop
  endfacet
  facet normal 1.440339e-01 -9.804040e-01 1.343957e-01
    outer loop
      vertex   -1.665440e+00 1.059042e+01 -1.626061e+00
      vertex   -1.651029e+00 1.058941e+01 -1.648881e+00
      vertex   -1.614317e+00 1.059423e+01 -1.653061e+00
    endloop
  endfacet
  facet normal 1.444569e-01 -9.797124e-01 1.389090e-01
    outer loop
      vertex   -1.614317e+00 1.059423e+01 -1.653061e+00
      vertex   -1.651029e+00 1.058941e+01 -1.648881e+00
      vertex   -1.650015e+00 1.058291e+01 -1.695813e+00
    endloop
  endfacet
  facet normal 1.412076e-01 -9.797946e-01 1.416439e-01
    outer loop
      vertex   -1.614317e+00 1.059423e+01 -1.653061e+00
      vertex   -1.650015e+00 1.058291e+01 -1.695813e+00
      vertex   -1.545197e+00 1.059801e+01 -1.695813e+00
    endloop
  endfacet
  facet normal 1.411431e-01 -9.793468e-01 1.447707e-01
    outer loop
      vertex   -1.545197e+00 1.059801e+01 -1.695813e+00
      vertex   -1.650015e+00 1.058291e+01 -1.695813e+00
      vertex   -1.647897e+00 1.056932e+01 -1.789782e+00
    endloop
  endfacet
  facet normal 1.411431e-01 -9.793468e-01 1.447707e-01
    outer loop
      vertex   -1.545197e+00 1.059801e+01 -1.695813e+00
      vertex   -1.647897e+00 1.056932e+01 -1.789782e+00
      vertex   -1.543213e+00 1.058441e+01 -1.789782e+00
    endloop
  endfacet
  facet normal 1.409781e-01 -9.782019e-01 1.524669e-01
    outer loop
      vertex   -1.543213e+00 1.058441e+01 -1.789782e+00
      vertex   -1.647897e+00 1.056932e+01 -1.789782e+00
      vertex   -1.543606e+00 1.056975e+01 -1.883501e+00
    endloop
  endfacet
  facet normal 1.319563e-01 -9.794241e-01 1.526959e-01
    outer loop
      vertex   -1.543213e+00 1.058441e+01 -1.789782e+00
      vertex   -1.543606e+00 1.056975e+01 -1.883501e+00
      vertex   -1.439443e+00 1.058380e+01 -1.883390e+00
    endloop
  endfacet
  facet normal 1.503830e-01 -9.767699e-01 1.526614e-01
    outer loop
      vertex   -1.751522e+00 1.053870e+01 -1.883747e+00
      vertex   -1.647634e+00 1.055471e+01 -1.883620e+00
      vertex   -1.752758e+00 1.055319e+01 -1.789782e+00
    endloop
  endfacet
  facet normal 1.502443e-01 -9.768157e-01 1.525052e-01
    outer loop
      vertex   -1.752758e+00 1.055319e+01 -1.789782e+00
      vertex   -1.647634e+00 1.055471e+01 -1.883620e+00
      vertex   -1.647897e+00 1.056932e+01 -1.789782e+00
    endloop
  endfacet
  facet normal 1.504208e-01 -9.779634e-01 1.447798e-01
    outer loop
      vertex   -1.752758e+00 1.055319e+01 -1.789782e+00
      vertex   -1.647897e+00 1.056932e+01 -1.789782e+00
      vertex   -1.650015e+00 1.058291e+01 -1.695813e+00
    endloop
  endfacet
  facet normal 1.411747e-01 -9.781394e-01 1.526859e-01
    outer loop
      vertex   -1.647634e+00 1.055471e+01 -1.883620e+00
      vertex   -1.543606e+00 1.056975e+01 -1.883501e+00
      vertex   -1.647897e+00 1.056932e+01 -1.789782e+00
    endloop
  endfacet
  facet normal 1.317296e-01 -9.794936e-01 1.524451e-01
    outer loop
      vertex   -1.543213e+00 1.058441e+01 -1.789782e+00
      vertex   -1.439443e+00 1.058380e+01 -1.883390e+00
      vertex   -1.438723e+00 1.059846e+01 -1.789782e+00
    endloop
  endfacet
  facet normal 1.227283e-01 -9.806238e-01 1.526914e-01
    outer loop
      vertex   -1.438723e+00 1.059846e+01 -1.789782e+00
      vertex   -1.439443e+00 1.058380e+01 -1.883390e+00
      vertex   -1.335153e+00 1.059686e+01 -1.883286e+00
    endloop
  endfacet
  facet normal 1.225001e-01 -9.806915e-01 1.524398e-01
    outer loop
      vertex   -1.438723e+00 1.059846e+01 -1.789782e+00
      vertex   -1.335153e+00 1.059686e+01 -1.883286e+00
      vertex   -1.334440e+00 1.061149e+01 -1.789782e+00
    endloop
  endfacet
  facet normal 1.166700e-01 -9.813786e-01 1.525918e-01
    outer loop
      vertex   -1.334440e+00 1.061149e+01 -1.789782e+00
      vertex   -1.335153e+00 1.059686e+01 -1.883286e+00
      vertex   -1.297359e+00 1.061524e+01 -1.794002e+00
    endloop
  endfacet
  facet normal 1.159471e-01 -9.825906e-01 1.451617e-01
    outer loop
      vertex   -1.334440e+00 1.061149e+01 -1.789782e+00
      vertex   -1.297359e+00 1.061524e+01 -1.794002e+00
      vertex   -1.351330e+00 1.061197e+01 -1.773055e+00
    endloop
  endfacet
  facet normal 1.134667e-01 -9.815372e-01 1.539804e-01
    outer loop
      vertex   -1.335153e+00 1.059686e+01 -1.883286e+00
      vertex   -1.230744e+00 1.060895e+01 -1.883190e+00
      vertex   -1.297359e+00 1.061524e+01 -1.794002e+00
    endloop
  endfacet
  facet normal 1.138464e-01 -9.814497e-01 1.542578e-01
    outer loop
      vertex   -1.297359e+00 1.061524e+01 -1.794002e+00
      vertex   -1.230744e+00 1.060895e+01 -1.883190e+00
      vertex   -1.242965e+00 1.061842e+01 -1.813913e+00
    endloop
  endfacet
  facet normal 1.080860e-01 -9.822429e-01 1.533501e-01
    outer loop
      vertex   -1.242965e+00 1.061842e+01 -1.813913e+00
      vertex   -1.230744e+00 1.060895e+01 -1.883190e+00
      vertex   -1.188160e+00 1.062151e+01 -1.832783e+00
    endloop
  endfacet
  facet normal 1.041762e-01 -9.821479e-01 1.566294e-01
    outer loop
      vertex   -1.188160e+00 1.062151e+01 -1.832783e+00
      vertex   -1.230744e+00 1.060895e+01 -1.883190e+00
      vertex   -1.126223e+00 1.062005e+01 -1.883102e+00
    endloop
  endfacet
  facet normal 1.034558e-01 -9.823641e-01 1.557490e-01
    outer loop
      vertex   -1.188160e+00 1.062151e+01 -1.832783e+00
      vertex   -1.126223e+00 1.062005e+01 -1.883102e+00
      vertex   -1.132961e+00 1.062449e+01 -1.850603e+00
    endloop
  endfacet
  facet normal 9.777006e-02 -9.831161e-01 1.546729e-01
    outer loop
      vertex   -1.132961e+00 1.062449e+01 -1.850603e+00
      vertex   -1.126223e+00 1.062005e+01 -1.883102e+00
      vertex   -1.077425e+00 1.062738e+01 -1.867353e+00
    endloop
  endfacet
  facet normal 9.481850e-02 -9.820089e-01 1.633033e-01
    outer loop
      vertex   -1.077425e+00 1.062738e+01 -1.867353e+00
      vertex   -1.126223e+00 1.062005e+01 -1.883102e+00
      vertex   -1.021596e+00 1.063017e+01 -1.883021e+00
    endloop
  endfacet
  facet normal 1.249168e-01 -9.801194e-01 1.541483e-01
    outer loop
      vertex   -1.351330e+00 1.061197e+01 -1.773055e+00
      vertex   -1.404862e+00 1.060860e+01 -1.751081e+00
      vertex   -1.334440e+00 1.061149e+01 -1.789782e+00
    endloop
  endfacet
  facet normal 1.225507e-01 -9.810965e-01 1.497699e-01
    outer loop
      vertex   -1.334440e+00 1.061149e+01 -1.789782e+00
      vertex   -1.404862e+00 1.060860e+01 -1.751081e+00
      vertex   -1.438723e+00 1.059846e+01 -1.789782e+00
    endloop
  endfacet
  facet normal 1.270830e-01 -9.811164e-01 1.458096e-01
    outer loop
      vertex   -1.404862e+00 1.060860e+01 -1.751081e+00
      vertex   -1.457941e+00 1.060514e+01 -1.728088e+00
      vertex   -1.438723e+00 1.059846e+01 -1.789782e+00
    endloop
  endfacet
  facet normal 1.318356e-01 -9.802814e-01 1.471996e-01
    outer loop
      vertex   -1.438723e+00 1.059846e+01 -1.789782e+00
      vertex   -1.457941e+00 1.060514e+01 -1.728088e+00
      vertex   -1.543213e+00 1.058441e+01 -1.789782e+00
    endloop
  endfacet
  facet normal 1.327252e-01 -9.803422e-01 1.459905e-01
    outer loop
      vertex   -1.457941e+00 1.060514e+01 -1.728088e+00
      vertex   -1.510553e+00 1.060159e+01 -1.704081e+00
      vertex   -1.543213e+00 1.058441e+01 -1.789782e+00
    endloop
  endfacet
  facet normal 1.358080e-01 -9.801013e-01 1.447673e-01
    outer loop
      vertex   -1.543213e+00 1.058441e+01 -1.789782e+00
      vertex   -1.510553e+00 1.060159e+01 -1.704081e+00
      vertex   -1.545197e+00 1.059801e+01 -1.695813e+00
    endloop
  endfacet
  facet normal 1.340025e-01 -9.815230e-01 1.365867e-01
    outer loop
      vertex   -1.510553e+00 1.060159e+01 -1.704081e+00
      vertex   -1.562683e+00 1.059796e+01 -1.679070e+00
      vertex   -1.545197e+00 1.059801e+01 -1.695813e+00
    endloop
  endfacet
  facet normal 1.452912e-01 -9.781982e-01 1.483871e-01
    outer loop
      vertex   -1.545197e+00 1.059801e+01 -1.695813e+00
      vertex   -1.562683e+00 1.059796e+01 -1.679070e+00
      vertex   -1.614317e+00 1.059423e+01 -1.653061e+00
    endloop
  endfacet
  facet normal 1.532457e-01 -9.789216e-01 1.350121e-01
    outer loop
      vertex   -1.756090e+00 1.057325e+01 -1.648881e+00
      vertex   -1.716039e+00 1.058653e+01 -1.598078e+00
      vertex   -1.757137e+00 1.057956e+01 -1.601985e+00
    endloop
  endfacet
  facet normal 1.536878e-01 -9.793745e-01 1.311702e-01
    outer loop
      vertex   -1.757137e+00 1.057956e+01 -1.601985e+00
      vertex   -1.716039e+00 1.058653e+01 -1.598078e+00
      vertex   -1.766099e+00 1.058255e+01 -1.569120e+00
    endloop
  endfacet
  facet normal 1.605344e-01 -9.780400e-01 1.329155e-01
    outer loop
      vertex   -1.757137e+00 1.057956e+01 -1.601985e+00
      vertex   -1.766099e+00 1.058255e+01 -1.569120e+00
      vertex   -1.815605e+00 1.057849e+01 -1.539193e+00
    endloop
  endfacet
  facet normal 1.642519e-01 -9.779219e-01 1.291898e-01
    outer loop
      vertex   -1.864544e+00 1.057435e+01 -1.508306e+00
      vertex   -1.862416e+00 1.056229e+01 -1.602361e+00
      vertex   -1.815605e+00 1.057849e+01 -1.539193e+00
    endloop
  endfacet
  facet normal 1.599974e-01 -9.781961e-01 1.324129e-01
    outer loop
      vertex   -1.815605e+00 1.057849e+01 -1.539193e+00
      vertex   -1.862416e+00 1.056229e+01 -1.602361e+00
      vertex   -1.757137e+00 1.057956e+01 -1.601985e+00
    endloop
  endfacet
  facet normal 1.599315e-01 -9.778508e-01 1.350174e-01
    outer loop
      vertex   -1.757137e+00 1.057956e+01 -1.601985e+00
      vertex   -1.862416e+00 1.056229e+01 -1.602361e+00
      vertex   -1.756090e+00 1.057325e+01 -1.648881e+00
    endloop
  endfacet
  facet normal 1.607604e-01 -9.774377e-01 1.370094e-01
    outer loop
      vertex   -1.756090e+00 1.057325e+01 -1.648881e+00
      vertex   -1.862416e+00 1.056229e+01 -1.602361e+00
      vertex   -1.860159e+00 1.054949e+01 -1.696312e+00
    endloop
  endfacet
  facet normal 1.505486e-01 -9.787943e-01 1.389134e-01
    outer loop
      vertex   -1.651029e+00 1.058941e+01 -1.648881e+00
      vertex   -1.755011e+00 1.056676e+01 -1.695813e+00
      vertex   -1.650015e+00 1.058291e+01 -1.695813e+00
    endloop
  endfacet
  facet normal 1.504208e-01 -9.779634e-01 1.447798e-01
    outer loop
      vertex   -1.650015e+00 1.058291e+01 -1.695813e+00
      vertex   -1.755011e+00 1.056676e+01 -1.695813e+00
      vertex   -1.752758e+00 1.055319e+01 -1.789782e+00
    endloop
  endfacet
  facet normal 2.559347e-01 8.713588e-06 9.666941e-01
    outer loop
      vertex   -9.919140e-01 1.067774e+01 -1.890880e+00
      vertex   -9.920440e-01 1.072307e+01 -1.890846e+00
      vertex   -1.021596e+00 1.063017e+01 -1.883021e+00
    endloop
  endfacet
  facet normal 2.561196e-01 -5.422118e-05 9.666451e-01
    outer loop
      vertex   -1.021596e+00 1.063017e+01 -1.883021e+00
      vertex   -9.920440e-01 1.072307e+01 -1.890846e+00
      vertex   -1.022536e+00 1.072161e+01 -1.882767e+00
    endloop
  endfacet
  facet normal 2.662623e-01 5.772219e-05 9.639006e-01
    outer loop
      vertex   -1.021596e+00 1.063017e+01 -1.883021e+00
      vertex   -1.022536e+00 1.072161e+01 -1.882767e+00
      vertex   -1.052931e+00 1.072012e+01 -1.874370e+00
    endloop
  endfacet
  facet normal 2.459408e-01 -2.187803e-05 9.692849e-01
    outer loop
      vertex   -9.919140e-01 1.067774e+01 -1.890880e+00
      vertex   -9.614716e-01 1.072450e+01 -1.898603e+00
      vertex   -9.920440e-01 1.072307e+01 -1.890846e+00
    endloop
  endfacet
  facet normal 2.701297e-01 1.508578e-03 9.628228e-01
    outer loop
      vertex   -1.021596e+00 1.063017e+01 -1.883021e+00
      vertex   -1.052931e+00 1.072012e+01 -1.874370e+00
      vertex   -1.077425e+00 1.062738e+01 -1.867353e+00
    endloop
  endfacet
  facet normal 2.763926e-01 -2.800536e-04 9.610448e-01
    outer loop
      vertex   -1.077425e+00 1.062738e+01 -1.867353e+00
      vertex   -1.052931e+00 1.072012e+01 -1.874370e+00
      vertex   -1.083225e+00 1.071860e+01 -1.865659e+00
    endloop
  endfacet
  facet normal 2.864409e-01 4.136442e-04 9.580978e-01
    outer loop
      vertex   -1.077425e+00 1.062738e+01 -1.867353e+00
      vertex   -1.083225e+00 1.071860e+01 -1.865659e+00
      vertex   -1.113415e+00 1.071705e+01 -1.856632e+00
    endloop
  endfacet
  facet normal 2.886945e-01 1.399150e-03 9.574203e-01
    outer loop
      vertex   -1.077425e+00 1.062738e+01 -1.867353e+00
      vertex   -1.113415e+00 1.071705e+01 -1.856632e+00
      vertex   -1.132961e+00 1.062449e+01 -1.850603e+00
    endloop
  endfacet
  facet normal 2.965259e-01 -4.106400e-04 9.550247e-01
    outer loop
      vertex   -1.132961e+00 1.062449e+01 -1.850603e+00
      vertex   -1.113415e+00 1.071705e+01 -1.856632e+00
      vertex   -1.143499e+00 1.071547e+01 -1.847292e+00
    endloop
  endfacet
  facet normal 3.064749e-01 8.562807e-04 9.518784e-01
    outer loop
      vertex   -1.132961e+00 1.062449e+01 -1.850603e+00
      vertex   -1.143499e+00 1.071547e+01 -1.847292e+00
      vertex   -1.173475e+00 1.071387e+01 -1.837639e+00
    endloop
  endfacet
  facet normal 3.071589e-01 1.198410e-03 9.516575e-01
    outer loop
      vertex   -1.132961e+00 1.062449e+01 -1.850603e+00
      vertex   -1.173475e+00 1.071387e+01 -1.837639e+00
      vertex   -1.188160e+00 1.062151e+01 -1.832783e+00
    endloop
  endfacet
  facet normal 3.165124e-01 -4.501032e-04 9.485883e-01
    outer loop
      vertex   -1.188160e+00 1.062151e+01 -1.832783e+00
      vertex   -1.173475e+00 1.071387e+01 -1.837639e+00
      vertex   -1.203340e+00 1.071223e+01 -1.827675e+00
    endloop
  endfacet
  facet normal 3.254905e-01 1.223404e-03 9.455445e-01
    outer loop
      vertex   -1.188160e+00 1.062151e+01 -1.832783e+00
      vertex   -1.203340e+00 1.071223e+01 -1.827675e+00
      vertex   -1.242965e+00 1.061842e+01 -1.813913e+00
    endloop
  endfacet
  facet normal 3.263867e-01 7.996246e-04 9.452360e-01
    outer loop
      vertex   -1.242965e+00 1.061842e+01 -1.813913e+00
      vertex   -1.203340e+00 1.071223e+01 -1.827675e+00
      vertex   -1.233092e+00 1.071057e+01 -1.817400e+00
    endloop
  endfacet
  facet normal 3.363453e-01 -3.996517e-04 9.417387e-01
    outer loop
      vertex   -1.242965e+00 1.061842e+01 -1.813913e+00
      vertex   -1.233092e+00 1.071057e+01 -1.817400e+00
      vertex   -1.262729e+00 1.070888e+01 -1.806816e+00
    endloop
  endfacet
  facet normal 3.436800e-01 1.411022e-03 9.390857e-01
    outer loop
      vertex   -1.242965e+00 1.061842e+01 -1.813913e+00
      vertex   -1.262729e+00 1.070888e+01 -1.806816e+00
      vertex   -1.297359e+00 1.061524e+01 -1.794002e+00
    endloop
  endfacet
  facet normal 3.461657e-01 3.668844e-04 9.381733e-01
    outer loop
      vertex   -1.297359e+00 1.061524e+01 -1.794002e+00
      vertex   -1.262729e+00 1.070888e+01 -1.806816e+00
      vertex   -1.292247e+00 1.070716e+01 -1.795924e+00
    endloop
  endfacet
  facet normal 3.560176e-01 -2.583211e-04 9.344792e-01
    outer loop
      vertex   -1.297359e+00 1.061524e+01 -1.794002e+00
      vertex   -1.292247e+00 1.070716e+01 -1.795924e+00
      vertex   -1.321645e+00 1.070541e+01 -1.784724e+00
    endloop
  endfacet
  facet normal 3.617352e-01 1.507912e-03 9.322797e-01
    outer loop
      vertex   -1.297359e+00 1.061524e+01 -1.794002e+00
      vertex   -1.321645e+00 1.070541e+01 -1.784724e+00
      vertex   -1.351330e+00 1.061197e+01 -1.773055e+00
    endloop
  endfacet
  facet normal 3.657821e-01 2.517851e-05 9.307005e-01
    outer loop
      vertex   -1.351330e+00 1.061197e+01 -1.773055e+00
      vertex   -1.321645e+00 1.070541e+01 -1.784724e+00
      vertex   -1.350921e+00 1.070364e+01 -1.773218e+00
    endloop
  endfacet
  facet normal 3.755226e-01 -2.518960e-05 9.268132e-01
    outer loop
      vertex   -1.351330e+00 1.061197e+01 -1.773055e+00
      vertex   -1.350921e+00 1.070364e+01 -1.773218e+00
      vertex   -1.380072e+00 1.070184e+01 -1.761407e+00
    endloop
  endfacet
  facet normal 3.796515e-01 1.513677e-03 9.251283e-01
    outer loop
      vertex   -1.351330e+00 1.061197e+01 -1.773055e+00
      vertex   -1.380072e+00 1.070184e+01 -1.761407e+00
      vertex   -1.404862e+00 1.060860e+01 -1.751081e+00
    endloop
  endfacet
  facet normal 3.852291e-01 -2.248959e-04 9.228209e-01
    outer loop
      vertex   -1.404862e+00 1.060860e+01 -1.751081e+00
      vertex   -1.380072e+00 1.070184e+01 -1.761407e+00
      vertex   -1.409095e+00 1.070001e+01 -1.749292e+00
    endloop
  endfacet
  facet normal 3.948537e-01 3.006419e-04 9.187440e-01
    outer loop
      vertex   -1.404862e+00 1.060860e+01 -1.751081e+00
      vertex   -1.409095e+00 1.070001e+01 -1.749292e+00
      vertex   -1.437989e+00 1.069815e+01 -1.736874e+00
    endloop
  endfacet
  facet normal 3.974242e-01 1.427675e-03 9.176339e-01
    outer loop
      vertex   -1.404862e+00 1.060860e+01 -1.751081e+00
      vertex   -1.437989e+00 1.069815e+01 -1.736874e+00
      vertex   -1.457941e+00 1.060514e+01 -1.728088e+00
    endloop
  endfacet
  facet normal 4.045002e-01 -3.827396e-04 9.145378e-01
    outer loop
      vertex   -1.457941e+00 1.060514e+01 -1.728088e+00
      vertex   -1.437989e+00 1.069815e+01 -1.736874e+00
      vertex   -1.466750e+00 1.069627e+01 -1.724153e+00
    endloop
  endfacet
  facet normal 4.140042e-01 7.200839e-04 9.102747e-01
    outer loop
      vertex   -1.457941e+00 1.060514e+01 -1.728088e+00
      vertex   -1.466750e+00 1.069627e+01 -1.724153e+00
      vertex   -1.495377e+00 1.069436e+01 -1.711132e+00
    endloop
  endfacet
  facet normal 4.150490e-01 1.249056e-03 9.097982e-01
    outer loop
      vertex   -1.457941e+00 1.060514e+01 -1.728088e+00
      vertex   -1.495377e+00 1.069436e+01 -1.711132e+00
      vertex   -1.510553e+00 1.060159e+01 -1.704081e+00
    endloop
  endfacet
  facet normal 4.235886e-01 -4.477169e-04 9.058546e-01
    outer loop
      vertex   -1.510553e+00 1.060159e+01 -1.704081e+00
      vertex   -1.495377e+00 1.069436e+01 -1.711132e+00
      vertex   -1.523867e+00 1.069242e+01 -1.697810e+00
    endloop
  endfacet
  facet normal 4.325112e-01 1.152065e-03 9.016278e-01
    outer loop
      vertex   -1.510553e+00 1.060159e+01 -1.704081e+00
      vertex   -1.523867e+00 1.069242e+01 -1.697810e+00
      vertex   -1.562683e+00 1.059796e+01 -1.679070e+00
    endloop
  endfacet
  facet normal 4.329858e-01 9.119031e-04 9.014003e-01
    outer loop
      vertex   -1.562683e+00 1.059796e+01 -1.679070e+00
      vertex   -1.523867e+00 1.069242e+01 -1.697810e+00
      vertex   -1.552218e+00 1.069046e+01 -1.684190e+00
    endloop
  endfacet
  facet normal 4.424877e-01 -4.191210e-04 8.967745e-01
    outer loop
      vertex   -1.562683e+00 1.059796e+01 -1.679070e+00
      vertex   -1.552218e+00 1.069046e+01 -1.684190e+00
      vertex   -1.580427e+00 1.068847e+01 -1.670272e+00
    endloop
  endfacet
  facet normal 4.497925e-01 1.366931e-03 8.931321e-01
    outer loop
      vertex   -1.562683e+00 1.059796e+01 -1.679070e+00
      vertex   -1.580427e+00 1.068847e+01 -1.670272e+00
      vertex   -1.614317e+00 1.059423e+01 -1.653061e+00
    endloop
  endfacet
  facet normal 4.518173e-01 4.521495e-04 8.921104e-01
    outer loop
      vertex   -1.614317e+00 1.059423e+01 -1.653061e+00
      vertex   -1.580427e+00 1.068847e+01 -1.670272e+00
      vertex   -1.608492e+00 1.068646e+01 -1.656057e+00
    endloop
  endfacet
  facet normal 4.611910e-01 -2.961405e-04 8.873008e-01
    outer loop
      vertex   -1.614317e+00 1.059423e+01 -1.653061e+00
      vertex   -1.608492e+00 1.068646e+01 -1.656057e+00
      vertex   -1.636411e+00 1.068442e+01 -1.641547e+00
    endloop
  endfacet
  facet normal 4.669112e-01 1.488006e-03 8.843029e-01
    outer loop
      vertex   -1.614317e+00 1.059423e+01 -1.653061e+00
      vertex   -1.636411e+00 1.068442e+01 -1.641547e+00
      vertex   -1.665440e+00 1.059042e+01 -1.626061e+00
    endloop
  endfacet
  facet normal 4.704506e-01 8.570328e-05 8.824263e-01
    outer loop
      vertex   -1.665440e+00 1.059042e+01 -1.626061e+00
      vertex   -1.636411e+00 1.068442e+01 -1.641547e+00
      vertex   -1.664181e+00 1.068235e+01 -1.626741e+00
    endloop
  endfacet
  facet normal 4.796918e-01 -7.782673e-05 8.774371e-01
    outer loop
      vertex   -1.665440e+00 1.059042e+01 -1.626061e+00
      vertex   -1.664181e+00 1.068235e+01 -1.626741e+00
      vertex   -1.691800e+00 1.068026e+01 -1.611642e+00
    endloop
  endfacet
  facet normal 4.838630e-01 1.514341e-03 8.751424e-01
    outer loop
      vertex   -1.665440e+00 1.059042e+01 -1.626061e+00
      vertex   -1.691800e+00 1.068026e+01 -1.611642e+00
      vertex   -1.716039e+00 1.058653e+01 -1.598078e+00
    endloop
  endfacet
  facet normal 4.888790e-01 -1.866532e-04 8.723516e-01
    outer loop
      vertex   -1.716039e+00 1.058653e+01 -1.598078e+00
      vertex   -1.691800e+00 1.068026e+01 -1.611642e+00
      vertex   -1.719265e+00 1.067815e+01 -1.596251e+00
    endloop
  endfacet
  facet normal 4.979834e-01 2.369388e-04 8.671866e-01
    outer loop
      vertex   -1.716039e+00 1.058653e+01 -1.598078e+00
      vertex   -1.719265e+00 1.067815e+01 -1.596251e+00
      vertex   -1.746575e+00 1.067601e+01 -1.580568e+00
    endloop
  endfacet
  facet normal 5.006435e-01 1.444955e-03 8.656524e-01
    outer loop
      vertex   -1.716039e+00 1.058653e+01 -1.598078e+00
      vertex   -1.746575e+00 1.067601e+01 -1.580568e+00
      vertex   -1.766099e+00 1.058255e+01 -1.569120e+00
    endloop
  endfacet
  facet normal 5.070957e-01 -3.639401e-04 8.618897e-01
    outer loop
      vertex   -1.766099e+00 1.058255e+01 -1.569120e+00
      vertex   -1.746575e+00 1.067601e+01 -1.580568e+00
      vertex   -1.773726e+00 1.067384e+01 -1.564594e+00
    endloop
  endfacet
  facet normal 5.160574e-01 6.492889e-04 8.565537e-01
    outer loop
      vertex   -1.766099e+00 1.058255e+01 -1.569120e+00
      vertex   -1.773726e+00 1.067384e+01 -1.564594e+00
      vertex   -1.800706e+00 1.067166e+01 -1.548337e+00
    endloop
  endfacet
  facet normal 5.172479e-01 1.279353e-03 8.558347e-01
    outer loop
      vertex   -1.766099e+00 1.058255e+01 -1.569120e+00
      vertex   -1.800706e+00 1.067166e+01 -1.548337e+00
      vertex   -1.815605e+00 1.057849e+01 -1.539193e+00
    endloop
  endfacet
  facet normal 5.250851e-01 -4.436873e-04 8.510496e-01
    outer loop
      vertex   -1.815605e+00 1.057849e+01 -1.539193e+00
      vertex   -1.800706e+00 1.067166e+01 -1.548337e+00
      vertex   -1.827500e+00 1.066945e+01 -1.531807e+00
    endloop
  endfacet
  facet normal 5.338891e-01 1.154029e-03 8.455537e-01
    outer loop
      vertex   -1.815605e+00 1.057849e+01 -1.539193e+00
      vertex   -1.827500e+00 1.066945e+01 -1.531807e+00
      vertex   -1.854106e+00 1.066721e+01 -1.515005e+00
    endloop
  endfacet
  facet normal 5.428212e-01 -4.282375e-04 8.398482e-01
    outer loop
      vertex   -1.880520e+00 1.066496e+01 -1.497933e+00
      vertex   -1.864544e+00 1.057435e+01 -1.508306e+00
      vertex   -1.854106e+00 1.066721e+01 -1.515005e+00
    endloop
  endfacet
  facet normal 5.336712e-01 1.021881e-03 8.456915e-01
    outer loop
      vertex   -1.854106e+00 1.066721e+01 -1.515005e+00
      vertex   -1.864544e+00 1.057435e+01 -1.508306e+00
      vertex   -1.815605e+00 1.057849e+01 -1.539193e+00
    endloop
  endfacet
  facet normal -9.848078e-01 -1.736482e-01 2.972990e-08
    outer loop
      vertex   -1.855260e+00 1.052170e+01 -1.883881e+00
      vertex   -1.857774e+00 1.053596e+01 -1.790153e+00
      vertex   -1.870653e+00 1.060900e+01 -1.899511e+00
    endloop
  endfacet
  facet normal -9.848077e-01 -1.736482e-01 4.852477e-09
    outer loop
      vertex   -1.870653e+00 1.060900e+01 -1.899511e+00
      vertex   -1.857774e+00 1.053596e+01 -1.790153e+00
      vertex   -1.873339e+00 1.062423e+01 -1.799317e+00
    endloop
  endfacet
  facet normal -9.848077e-01 -1.736482e-01 7.072164e-08
    outer loop
      vertex   -1.873339e+00 1.062423e+01 -1.799317e+00
      vertex   -1.857774e+00 1.053596e+01 -1.790153e+00
      vertex   -1.860159e+00 1.054949e+01 -1.696312e+00
    endloop
  endfacet
  facet normal -9.848077e-01 -1.736483e-01 1.468751e-08
    outer loop
      vertex   -1.873339e+00 1.062423e+01 -1.799317e+00
      vertex   -1.860159e+00 1.054949e+01 -1.696312e+00
      vertex   -1.875878e+00 1.063863e+01 -1.698986e+00
    endloop
  endfacet
  facet normal -9.848077e-01 -1.736483e-01 8.069426e-08
    outer loop
      vertex   -1.875878e+00 1.063863e+01 -1.698986e+00
      vertex   -1.860159e+00 1.054949e+01 -1.696312e+00
      vertex   -1.862416e+00 1.056229e+01 -1.602361e+00
    endloop
  endfacet
  facet normal -9.848077e-01 -1.736483e-01 2.336415e-08
    outer loop
      vertex   -1.875878e+00 1.063863e+01 -1.698986e+00
      vertex   -1.862416e+00 1.056229e+01 -1.602361e+00
      vertex   -1.878272e+00 1.065221e+01 -1.598523e+00
    endloop
  endfacet
  facet normal -9.848077e-01 -1.736483e-01 5.277644e-08
    outer loop
      vertex   -1.878272e+00 1.065221e+01 -1.598523e+00
      vertex   -1.862416e+00 1.056229e+01 -1.602361e+00
      vertex   -1.864544e+00 1.057435e+01 -1.508306e+00
    endloop
  endfacet
  facet normal -9.848077e-01 -1.736484e-01 2.600369e-08
    outer loop
      vertex   -1.878272e+00 1.065221e+01 -1.598523e+00
      vertex   -1.864544e+00 1.057435e+01 -1.508306e+00
      vertex   -1.880520e+00 1.066496e+01 -1.497933e+00
    endloop
  endfacet
  facet normal -8.910793e-02 9.813553e-01 -1.702987e-01
    outer loop
      vertex   -9.614716e-01 1.072450e+01 -1.898603e+00
      vertex   -1.075601e+00 1.071412e+01 -1.898685e+00
      vertex   -9.920440e-01 1.072307e+01 -1.890846e+00
    endloop
  endfacet
  facet normal -9.001494e-02 9.826573e-01 -1.621171e-01
    outer loop
      vertex   -9.920440e-01 1.072307e+01 -1.890846e+00
      vertex   -1.075601e+00 1.071412e+01 -1.898685e+00
      vertex   -1.022536e+00 1.072161e+01 -1.882767e+00
    endloop
  endfacet
  facet normal -9.160649e-02 9.833211e-01 -1.571239e-01
    outer loop
      vertex   -1.022536e+00 1.072161e+01 -1.882767e+00
      vertex   -1.075601e+00 1.071412e+01 -1.898685e+00
      vertex   -1.052931e+00 1.072012e+01 -1.874370e+00
    endloop
  endfacet
  facet normal -9.390246e-02 9.834396e-01 -1.550125e-01
    outer loop
      vertex   -1.052931e+00 1.072012e+01 -1.874370e+00
      vertex   -1.075601e+00 1.071412e+01 -1.898685e+00
      vertex   -1.083225e+00 1.071860e+01 -1.865659e+00
    endloop
  endfacet
  facet normal -9.696546e-02 9.830392e-01 -1.556653e-01
    outer loop
      vertex   -1.083225e+00 1.071860e+01 -1.865659e+00
      vertex   -1.075601e+00 1.071412e+01 -1.898685e+00
      vertex   -1.113415e+00 1.071705e+01 -1.856632e+00
    endloop
  endfacet
  facet normal -9.931233e-02 9.824746e-01 -1.577363e-01
    outer loop
      vertex   -1.113415e+00 1.071705e+01 -1.856632e+00
      vertex   -1.075601e+00 1.071412e+01 -1.898685e+00
      vertex   -1.189611e+00 1.070258e+01 -1.898776e+00
    endloop
  endfacet
  facet normal -1.000805e-01 9.826112e-01 -1.563943e-01
    outer loop
      vertex   -1.113415e+00 1.071705e+01 -1.856632e+00
      vertex   -1.189611e+00 1.070258e+01 -1.898776e+00
      vertex   -1.143499e+00 1.071547e+01 -1.847292e+00
    endloop
  endfacet
  facet normal -1.023680e-01 9.826961e-01 -1.543668e-01
    outer loop
      vertex   -1.143499e+00 1.071547e+01 -1.847292e+00
      vertex   -1.189611e+00 1.070258e+01 -1.898776e+00
      vertex   -1.173475e+00 1.071387e+01 -1.837639e+00
    endloop
  endfacet
  facet normal -1.050430e-01 9.825293e-01 -1.536300e-01
    outer loop
      vertex   -1.173475e+00 1.071387e+01 -1.837639e+00
      vertex   -1.189611e+00 1.070258e+01 -1.898776e+00
      vertex   -1.203340e+00 1.071223e+01 -1.827675e+00
    endloop
  endfacet
  facet normal -1.081461e-01 9.821076e-01 -1.541720e-01
    outer loop
      vertex   -1.203340e+00 1.071223e+01 -1.827675e+00
      vertex   -1.189611e+00 1.070258e+01 -1.898776e+00
      vertex   -1.233092e+00 1.071057e+01 -1.817400e+00
    endloop
  endfacet
  facet normal -1.093633e-01 9.818741e-01 -1.547994e-01
    outer loop
      vertex   -1.233092e+00 1.071057e+01 -1.817400e+00
      vertex   -1.189611e+00 1.070258e+01 -1.898776e+00
      vertex   -1.303493e+00 1.068988e+01 -1.898876e+00
    endloop
  endfacet
  facet normal -1.108636e-01 9.819081e-01 -1.535117e-01
    outer loop
      vertex   -1.233092e+00 1.071057e+01 -1.817400e+00
      vertex   -1.303493e+00 1.068988e+01 -1.898876e+00
      vertex   -1.262729e+00 1.070888e+01 -1.806816e+00
    endloop
  endfacet
  facet normal -1.131572e-01 9.818079e-01 -1.524754e-01
    outer loop
      vertex   -1.262729e+00 1.070888e+01 -1.806816e+00
      vertex   -1.303493e+00 1.068988e+01 -1.898876e+00
      vertex   -1.302366e+00 1.070554e+01 -1.798883e+00
    endloop
  endfacet
  facet normal -1.128418e-01 9.821069e-01 -1.507740e-01
    outer loop
      vertex   -1.262729e+00 1.070888e+01 -1.806816e+00
      vertex   -1.302366e+00 1.070554e+01 -1.798883e+00
      vertex   -1.292247e+00 1.070716e+01 -1.795924e+00
    endloop
  endfacet
  facet normal -1.141875e-01 9.826063e-01 -1.464445e-01
    outer loop
      vertex   -1.292247e+00 1.070716e+01 -1.795924e+00
      vertex   -1.302366e+00 1.070554e+01 -1.798883e+00
      vertex   -1.321645e+00 1.070541e+01 -1.784724e+00
    endloop
  endfacet
  facet normal -1.202586e-01 9.806103e-01 -1.547300e-01
    outer loop
      vertex   -1.321645e+00 1.070541e+01 -1.784724e+00
      vertex   -1.302366e+00 1.070554e+01 -1.798883e+00
      vertex   -1.350921e+00 1.070364e+01 -1.773218e+00
    endloop
  endfacet
  facet normal -1.191253e-01 9.810900e-01 -1.525504e-01
    outer loop
      vertex   -1.350921e+00 1.070364e+01 -1.773218e+00
      vertex   -1.302366e+00 1.070554e+01 -1.798883e+00
      vertex   -1.416099e+00 1.069173e+01 -1.798883e+00
    endloop
  endfacet
  facet normal -1.208217e-01 9.815132e-01 -1.484385e-01
    outer loop
      vertex   -1.350921e+00 1.070364e+01 -1.773218e+00
      vertex   -1.416099e+00 1.069173e+01 -1.798883e+00
      vertex   -1.380072e+00 1.070184e+01 -1.761407e+00
    endloop
  endfacet
  facet normal -1.229711e-01 9.815549e-01 -1.463834e-01
    outer loop
      vertex   -1.380072e+00 1.070184e+01 -1.761407e+00
      vertex   -1.416099e+00 1.069173e+01 -1.798883e+00
      vertex   -1.409095e+00 1.070001e+01 -1.749292e+00
    endloop
  endfacet
  facet normal -1.257663e-01 9.812666e-01 -1.459406e-01
    outer loop
      vertex   -1.409095e+00 1.070001e+01 -1.749292e+00
      vertex   -1.416099e+00 1.069173e+01 -1.798883e+00
      vertex   -1.437989e+00 1.069815e+01 -1.736874e+00
    endloop
  endfacet
  facet normal -1.292665e-01 9.806368e-01 -1.471110e-01
    outer loop
      vertex   -1.437989e+00 1.069815e+01 -1.736874e+00
      vertex   -1.416099e+00 1.069173e+01 -1.798883e+00
      vertex   -1.466750e+00 1.069627e+01 -1.724153e+00
    endloop
  endfacet
  facet normal -1.292199e-01 9.806476e-01 -1.470801e-01
    outer loop
      vertex   -1.466750e+00 1.069627e+01 -1.724153e+00
      vertex   -1.416099e+00 1.069173e+01 -1.798883e+00
      vertex   -1.530082e+00 1.067671e+01 -1.798883e+00
    endloop
  endfacet
  facet normal -1.314537e-01 9.806333e-01 -1.451833e-01
    outer loop
      vertex   -1.466750e+00 1.069627e+01 -1.724153e+00
      vertex   -1.530082e+00 1.067671e+01 -1.798883e+00
      vertex   -1.495377e+00 1.069436e+01 -1.711132e+00
    endloop
  endfacet
  facet normal -1.339095e-01 9.804498e-01 -1.441751e-01
    outer loop
      vertex   -1.495377e+00 1.069436e+01 -1.711132e+00
      vertex   -1.530082e+00 1.067671e+01 -1.798883e+00
      vertex   -1.532159e+00 1.069121e+01 -1.698402e+00
    endloop
  endfacet
  facet normal -1.335717e-01 9.806460e-01 -1.431504e-01
    outer loop
      vertex   -1.495377e+00 1.069436e+01 -1.711132e+00
      vertex   -1.532159e+00 1.069121e+01 -1.698402e+00
      vertex   -1.523867e+00 1.069242e+01 -1.697810e+00
    endloop
  endfacet
  facet normal -1.340666e-01 9.813606e-01 -1.376863e-01
    outer loop
      vertex   -1.523867e+00 1.069242e+01 -1.697810e+00
      vertex   -1.532159e+00 1.069121e+01 -1.698402e+00
      vertex   -1.552218e+00 1.069046e+01 -1.684190e+00
    endloop
  endfacet
  facet normal -1.392780e-01 9.795596e-01 -1.451364e-01
    outer loop
      vertex   -1.552218e+00 1.069046e+01 -1.684190e+00
      vertex   -1.532159e+00 1.069121e+01 -1.698402e+00
      vertex   -1.646529e+00 1.067494e+01 -1.698402e+00
    endloop
  endfacet
  facet normal -1.396345e-01 9.798157e-01 -1.430503e-01
    outer loop
      vertex   -1.552218e+00 1.069046e+01 -1.684190e+00
      vertex   -1.646529e+00 1.067494e+01 -1.698402e+00
      vertex   -1.580427e+00 1.068847e+01 -1.670272e+00
    endloop
  endfacet
  facet normal -1.414286e-01 9.801425e-01 -1.389915e-01
    outer loop
      vertex   -1.580427e+00 1.068847e+01 -1.670272e+00
      vertex   -1.646529e+00 1.067494e+01 -1.698402e+00
      vertex   -1.647066e+00 1.067842e+01 -1.673307e+00
    endloop
  endfacet
  facet normal -1.413473e-01 9.799776e-01 -1.402315e-01
    outer loop
      vertex   -1.580427e+00 1.068847e+01 -1.670272e+00
      vertex   -1.647066e+00 1.067842e+01 -1.673307e+00
      vertex   -1.608492e+00 1.068646e+01 -1.656057e+00
    endloop
  endfacet
  facet normal -1.428793e-01 9.802236e-01 -1.369203e-01
    outer loop
      vertex   -1.608492e+00 1.068646e+01 -1.656057e+00
      vertex   -1.647066e+00 1.067842e+01 -1.673307e+00
      vertex   -1.647595e+00 1.068185e+01 -1.648222e+00
    endloop
  endfacet
  facet normal -1.429407e-01 9.801672e-01 -1.372600e-01
    outer loop
      vertex   -1.608492e+00 1.068646e+01 -1.656057e+00
      vertex   -1.647595e+00 1.068185e+01 -1.648222e+00
      vertex   -1.636411e+00 1.068442e+01 -1.641547e+00
    endloop
  endfacet
  facet normal -1.446074e-01 9.803026e-01 -1.345196e-01
    outer loop
      vertex   -1.636411e+00 1.068442e+01 -1.641547e+00
      vertex   -1.647595e+00 1.068185e+01 -1.648222e+00
      vertex   -1.664181e+00 1.068235e+01 -1.626741e+00
    endloop
  endfacet
  facet normal -1.494690e-01 9.790544e-01 -1.382446e-01
    outer loop
      vertex   -1.664181e+00 1.068235e+01 -1.626741e+00
      vertex   -1.647595e+00 1.068185e+01 -1.648222e+00
      vertex   -1.762253e+00 1.066435e+01 -1.648222e+00
    endloop
  endfacet
  facet normal -1.495288e-01 9.790806e-01 -1.379936e-01
    outer loop
      vertex   -1.664181e+00 1.068235e+01 -1.626741e+00
      vertex   -1.762253e+00 1.066435e+01 -1.648222e+00
      vertex   -1.691800e+00 1.068026e+01 -1.611642e+00
    endloop
  endfacet
  facet normal -1.511991e-01 9.792614e-01 -1.348553e-01
    outer loop
      vertex   -1.691800e+00 1.068026e+01 -1.611642e+00
      vertex   -1.762253e+00 1.066435e+01 -1.648222e+00
      vertex   -1.762809e+00 1.066771e+01 -1.623147e+00
    endloop
  endfacet
  facet normal -1.511448e-01 9.792286e-01 -1.351542e-01
    outer loop
      vertex   -1.691800e+00 1.068026e+01 -1.611642e+00
      vertex   -1.762809e+00 1.066771e+01 -1.623147e+00
      vertex   -1.719265e+00 1.067815e+01 -1.596251e+00
    endloop
  endfacet
  facet normal -1.526300e-01 9.793222e-01 -1.327861e-01
    outer loop
      vertex   -1.719265e+00 1.067815e+01 -1.596251e+00
      vertex   -1.762809e+00 1.066771e+01 -1.623147e+00
      vertex   -1.763357e+00 1.067103e+01 -1.598082e+00
    endloop
  endfacet
  facet normal -1.526651e-01 9.793936e-01 -1.322180e-01
    outer loop
      vertex   -1.719265e+00 1.067815e+01 -1.596251e+00
      vertex   -1.763357e+00 1.067103e+01 -1.598082e+00
      vertex   -1.746575e+00 1.067601e+01 -1.580568e+00
    endloop
  endfacet
  facet normal -1.542183e-01 9.793516e-01 -1.307179e-01
    outer loop
      vertex   -1.746575e+00 1.067601e+01 -1.580568e+00
      vertex   -1.763357e+00 1.067103e+01 -1.598082e+00
      vertex   -1.763896e+00 1.067429e+01 -1.573028e+00
    endloop
  endfacet
  facet normal -1.522268e-01 9.802903e-01 -1.259284e-01
    outer loop
      vertex   -1.746575e+00 1.067601e+01 -1.580568e+00
      vertex   -1.763896e+00 1.067429e+01 -1.573028e+00
      vertex   -1.773726e+00 1.067384e+01 -1.564594e+00
    endloop
  endfacet
  facet normal -1.562806e-01 9.790244e-01 -1.307196e-01
    outer loop
      vertex   -1.773726e+00 1.067384e+01 -1.564594e+00
      vertex   -1.763896e+00 1.067429e+01 -1.573028e+00
      vertex   -1.763357e+00 1.067103e+01 -1.598082e+00
    endloop
  endfacet
  facet normal -1.585075e-01 9.785790e-01 -1.313717e-01
    outer loop
      vertex   -1.773726e+00 1.067384e+01 -1.564594e+00
      vertex   -1.763357e+00 1.067103e+01 -1.598082e+00
      vertex   -1.800706e+00 1.067166e+01 -1.548337e+00
    endloop
  endfacet
  facet normal -1.604069e-01 9.780777e-01 -1.327915e-01
    outer loop
      vertex   -1.800706e+00 1.067166e+01 -1.548337e+00
      vertex   -1.763357e+00 1.067103e+01 -1.598082e+00
      vertex   -1.762809e+00 1.066771e+01 -1.623147e+00
    endloop
  endfacet
  facet normal -1.595796e-01 9.782685e-01 -1.323824e-01
    outer loop
      vertex   -1.800706e+00 1.067166e+01 -1.548337e+00
      vertex   -1.762809e+00 1.066771e+01 -1.623147e+00
      vertex   -1.878272e+00 1.065221e+01 -1.598523e+00
    endloop
  endfacet
  facet normal -1.600526e-01 9.778524e-01 -1.348625e-01
    outer loop
      vertex   -1.878272e+00 1.065221e+01 -1.598523e+00
      vertex   -1.762809e+00 1.066771e+01 -1.623147e+00
      vertex   -1.762253e+00 1.066435e+01 -1.648222e+00
    endloop
  endfacet
  facet normal -1.604931e-01 9.776303e-01 -1.359450e-01
    outer loop
      vertex   -1.878272e+00 1.065221e+01 -1.598523e+00
      vertex   -1.762253e+00 1.066435e+01 -1.648222e+00
      vertex   -1.875878e+00 1.063863e+01 -1.698986e+00
    endloop
  endfacet
  facet normal -1.600366e-01 9.775670e-01 -1.369347e-01
    outer loop
      vertex   -1.875878e+00 1.063863e+01 -1.698986e+00
      vertex   -1.762253e+00 1.066435e+01 -1.648222e+00
      vertex   -1.761688e+00 1.066093e+01 -1.673307e+00
    endloop
  endfacet
  facet normal -1.595295e-01 9.773572e-01 -1.390078e-01
    outer loop
      vertex   -1.875878e+00 1.063863e+01 -1.698986e+00
      vertex   -1.761688e+00 1.066093e+01 -1.673307e+00
      vertex   -1.761113e+00 1.065745e+01 -1.698402e+00
    endloop
  endfacet
  facet normal -1.494531e-01 9.789501e-01 -1.389978e-01
    outer loop
      vertex   -1.761113e+00 1.065745e+01 -1.698402e+00
      vertex   -1.761688e+00 1.066093e+01 -1.673307e+00
      vertex   -1.646529e+00 1.067494e+01 -1.698402e+00
    endloop
  endfacet
  facet normal -1.493411e-01 9.782163e-01 -1.441878e-01
    outer loop
      vertex   -1.761113e+00 1.065745e+01 -1.698402e+00
      vertex   -1.646529e+00 1.067494e+01 -1.698402e+00
      vertex   -1.644297e+00 1.066047e+01 -1.798883e+00
    endloop
  endfacet
  facet normal -1.392977e-01 9.796983e-01 -1.441781e-01
    outer loop
      vertex   -1.644297e+00 1.066047e+01 -1.798883e+00
      vertex   -1.646529e+00 1.067494e+01 -1.698402e+00
      vertex   -1.530082e+00 1.067671e+01 -1.798883e+00
    endloop
  endfacet
  facet normal -1.391257e-01 9.784884e-01 -1.523301e-01
    outer loop
      vertex   -1.644297e+00 1.066047e+01 -1.798883e+00
      vertex   -1.530082e+00 1.067671e+01 -1.798883e+00
      vertex   -1.530835e+00 1.066100e+01 -1.899103e+00
    endloop
  endfacet
  facet normal -1.293831e-01 9.797813e-01 -1.526060e-01
    outer loop
      vertex   -1.530835e+00 1.066100e+01 -1.899103e+00
      vertex   -1.530082e+00 1.067671e+01 -1.798883e+00
      vertex   -1.417237e+00 1.067602e+01 -1.898985e+00
    endloop
  endfacet
  facet normal -1.291165e-01 9.798632e-01 -1.523060e-01
    outer loop
      vertex   -1.417237e+00 1.067602e+01 -1.898985e+00
      vertex   -1.530082e+00 1.067671e+01 -1.798883e+00
      vertex   -1.416099e+00 1.069173e+01 -1.798883e+00
    endloop
  endfacet
  facet normal -1.193985e-01 9.810486e-01 -1.526026e-01
    outer loop
      vertex   -1.417237e+00 1.067602e+01 -1.898985e+00
      vertex   -1.416099e+00 1.069173e+01 -1.798883e+00
      vertex   -1.303493e+00 1.068988e+01 -1.898876e+00
    endloop
  endfacet
  facet normal -1.191299e-01 9.811281e-01 -1.523016e-01
    outer loop
      vertex   -1.303493e+00 1.068988e+01 -1.898876e+00
      vertex   -1.416099e+00 1.069173e+01 -1.798883e+00
      vertex   -1.302366e+00 1.070554e+01 -1.798883e+00
    endloop
  endfacet
  facet normal -1.393567e-01 9.784147e-01 -1.525921e-01
    outer loop
      vertex   -1.530835e+00 1.066100e+01 -1.899103e+00
      vertex   -1.644276e+00 1.064483e+01 -1.899230e+00
      vertex   -1.644297e+00 1.066047e+01 -1.798883e+00
    endloop
  endfacet
  facet normal -1.491559e-01 9.770029e-01 -1.523740e-01
    outer loop
      vertex   -1.644297e+00 1.066047e+01 -1.798883e+00
      vertex   -1.644276e+00 1.064483e+01 -1.899230e+00
      vertex   -1.758726e+00 1.064300e+01 -1.798883e+00
    endloop
  endfacet
  facet normal -1.493411e-01 9.782163e-01 -1.441878e-01
    outer loop
      vertex   -1.644297e+00 1.066047e+01 -1.798883e+00
      vertex   -1.758726e+00 1.064300e+01 -1.798883e+00
      vertex   -1.761113e+00 1.065745e+01 -1.698402e+00
    endloop
  endfacet
  facet normal -1.593837e-01 9.766288e-01 -1.441981e-01
    outer loop
      vertex   -1.761113e+00 1.065745e+01 -1.698402e+00
      vertex   -1.758726e+00 1.064300e+01 -1.798883e+00
      vertex   -1.875878e+00 1.063863e+01 -1.698986e+00
    endloop
  endfacet
  facet normal -1.493187e-01 9.769489e-01 -1.525607e-01
    outer loop
      vertex   -1.644276e+00 1.064483e+01 -1.899230e+00
      vertex   -1.757552e+00 1.062749e+01 -1.899366e+00
      vertex   -1.758726e+00 1.064300e+01 -1.798883e+00
    endloop
  endfacet
  facet normal -1.591901e-01 9.754082e-01 -1.524382e-01
    outer loop
      vertex   -1.758726e+00 1.064300e+01 -1.798883e+00
      vertex   -1.757552e+00 1.062749e+01 -1.899366e+00
      vertex   -1.873339e+00 1.062423e+01 -1.799317e+00
    endloop
  endfacet
  facet normal -1.594191e-01 9.766168e-01 -1.442402e-01
    outer loop
      vertex   -1.758726e+00 1.064300e+01 -1.798883e+00
      vertex   -1.873339e+00 1.062423e+01 -1.799317e+00
      vertex   -1.875878e+00 1.063863e+01 -1.698986e+00
    endloop
  endfacet
  facet normal -1.592679e-01 9.753813e-01 -1.525291e-01
    outer loop
      vertex   -1.757552e+00 1.062749e+01 -1.899366e+00
      vertex   -1.870653e+00 1.060900e+01 -1.899511e+00
      vertex   -1.873339e+00 1.062423e+01 -1.799317e+00
    endloop
  endfacet
  facet normal -1.659081e-01 9.778450e-01 -1.276469e-01
    outer loop
      vertex   -1.880520e+00 1.066496e+01 -1.497933e+00
      vertex   -1.854106e+00 1.066721e+01 -1.515005e+00
      vertex   -1.878272e+00 1.065221e+01 -1.598523e+00
    endloop
  endfacet
  facet normal -1.631979e-01 9.781901e-01 -1.284931e-01
    outer loop
      vertex   -1.878272e+00 1.065221e+01 -1.598523e+00
      vertex   -1.854106e+00 1.066721e+01 -1.515005e+00
      vertex   -1.827500e+00 1.066945e+01 -1.531807e+00
    endloop
  endfacet
  facet normal -1.610109e-01 9.783278e-01 -1.301931e-01
    outer loop
      vertex   -1.878272e+00 1.065221e+01 -1.598523e+00
      vertex   -1.827500e+00 1.066945e+01 -1.531807e+00
      vertex   -1.800706e+00 1.067166e+01 -1.548337e+00
    endloop
  endfacet
  facet normal -1.392977e-01 9.796983e-01 -1.441781e-01
    outer loop
      vertex   -1.646529e+00 1.067494e+01 -1.698402e+00
      vertex   -1.532159e+00 1.069121e+01 -1.698402e+00
      vertex   -1.530082e+00 1.067671e+01 -1.798883e+00
    endloop
  endfacet
  facet normal -1.494967e-01 9.792356e-01 -1.369247e-01
    outer loop
      vertex   -1.762253e+00 1.066435e+01 -1.648222e+00
      vertex   -1.647595e+00 1.068185e+01 -1.648222e+00
      vertex   -1.647066e+00 1.067842e+01 -1.673307e+00
    endloop
  endfacet
  facet normal -1.494967e-01 9.792356e-01 -1.369247e-01
    outer loop
      vertex   -1.762253e+00 1.066435e+01 -1.648222e+00
      vertex   -1.647066e+00 1.067842e+01 -1.673307e+00
      vertex   -1.761688e+00 1.066093e+01 -1.673307e+00
    endloop
  endfacet
  facet normal -1.494531e-01 9.789501e-01 -1.389978e-01
    outer loop
      vertex   -1.761688e+00 1.066093e+01 -1.673307e+00
      vertex   -1.647066e+00 1.067842e+01 -1.673307e+00
      vertex   -1.646529e+00 1.067494e+01 -1.698402e+00
    endloop
  endfacet
  facet normal 1.647066e-02 -1.733625e-01 -9.847203e-01
    outer loop
      vertex   -9.614716e-01 1.072450e+01 -1.898603e+00
      vertex   -9.919140e-01 1.067774e+01 -1.890880e+00
      vertex   -1.075601e+00 1.071412e+01 -1.898685e+00
    endloop
  endfacet
  facet normal 1.661372e-02 -1.730449e-01 -9.847738e-01
    outer loop
      vertex   -1.075601e+00 1.071412e+01 -1.898685e+00
      vertex   -9.919140e-01 1.067774e+01 -1.890880e+00
      vertex   -1.021596e+00 1.063017e+01 -1.883021e+00
    endloop
  endfacet
  facet normal 1.743904e-02 -1.725283e-01 -9.848502e-01
    outer loop
      vertex   -1.075601e+00 1.071412e+01 -1.898685e+00
      vertex   -1.021596e+00 1.063017e+01 -1.883021e+00
      vertex   -1.126223e+00 1.062005e+01 -1.883102e+00
    endloop
  endfacet
  facet normal 1.829381e-02 -1.729728e-01 -9.847567e-01
    outer loop
      vertex   -1.075601e+00 1.071412e+01 -1.898685e+00
      vertex   -1.126223e+00 1.062005e+01 -1.883102e+00
      vertex   -1.189611e+00 1.070258e+01 -1.898776e+00
    endloop
  endfacet
  facet normal 1.913591e-02 -1.723439e-01 -9.848509e-01
    outer loop
      vertex   -1.189611e+00 1.070258e+01 -1.898776e+00
      vertex   -1.126223e+00 1.062005e+01 -1.883102e+00
      vertex   -1.230744e+00 1.060895e+01 -1.883190e+00
    endloop
  endfacet
  facet normal 2.013300e-02 -1.727663e-01 -9.847571e-01
    outer loop
      vertex   -1.189611e+00 1.070258e+01 -1.898776e+00
      vertex   -1.230744e+00 1.060895e+01 -1.883190e+00
      vertex   -1.303493e+00 1.068988e+01 -1.898876e+00
    endloop
  endfacet
  facet normal 2.083213e-02 -1.721558e-01 -9.848494e-01
    outer loop
      vertex   -1.303493e+00 1.068988e+01 -1.898876e+00
      vertex   -1.230744e+00 1.060895e+01 -1.883190e+00
      vertex   -1.335153e+00 1.059686e+01 -1.883286e+00
    endloop
  endfacet
  facet normal 2.196810e-02 -1.725274e-01 -9.847597e-01
    outer loop
      vertex   -1.303493e+00 1.068988e+01 -1.898876e+00
      vertex   -1.335153e+00 1.059686e+01 -1.883286e+00
      vertex   -1.417237e+00 1.067602e+01 -1.898985e+00
    endloop
  endfacet
  facet normal 2.252797e-02 -1.719639e-01 -9.848456e-01
    outer loop
      vertex   -1.417237e+00 1.067602e+01 -1.898985e+00
      vertex   -1.335153e+00 1.059686e+01 -1.883286e+00
      vertex   -1.439443e+00 1.058380e+01 -1.883390e+00
    endloop
  endfacet
  facet normal 2.379858e-02 -1.722561e-01 -9.847647e-01
    outer loop
      vertex   -1.417237e+00 1.067602e+01 -1.898985e+00
      vertex   -1.439443e+00 1.058380e+01 -1.883390e+00
      vertex   -1.530835e+00 1.066100e+01 -1.899103e+00
    endloop
  endfacet
  facet normal 2.422365e-02 -1.717682e-01 -9.848395e-01
    outer loop
      vertex   -1.530835e+00 1.066100e+01 -1.899103e+00
      vertex   -1.439443e+00 1.058380e+01 -1.883390e+00
      vertex   -1.543606e+00 1.056975e+01 -1.883501e+00
    endloop
  endfacet
  facet normal 2.562388e-02 -1.719526e-01 -9.847719e-01
    outer loop
      vertex   -1.530835e+00 1.066100e+01 -1.899103e+00
      vertex   -1.543606e+00 1.056975e+01 -1.883501e+00
      vertex   -1.644276e+00 1.064483e+01 -1.899230e+00
    endloop
  endfacet
  facet normal 2.591944e-02 -1.715687e-01 -9.848311e-01
    outer loop
      vertex   -1.644276e+00 1.064483e+01 -1.899230e+00
      vertex   -1.543606e+00 1.056975e+01 -1.883501e+00
      vertex   -1.647634e+00 1.055471e+01 -1.883620e+00
    endloop
  endfacet
  facet normal 2.744348e-02 -1.716169e-01 -9.847814e-01
    outer loop
      vertex   -1.644276e+00 1.064483e+01 -1.899230e+00
      vertex   -1.647634e+00 1.055471e+01 -1.883620e+00
      vertex   -1.757552e+00 1.062749e+01 -1.899366e+00
    endloop
  endfacet
  facet normal 2.761558e-02 -1.713655e-01 -9.848204e-01
    outer loop
      vertex   -1.757552e+00 1.062749e+01 -1.899366e+00
      vertex   -1.647634e+00 1.055471e+01 -1.883620e+00
      vertex   -1.751522e+00 1.053870e+01 -1.883747e+00
    endloop
  endfacet
  facet normal 2.925690e-02 -1.712492e-01 -9.847932e-01
    outer loop
      vertex   -1.757552e+00 1.062749e+01 -1.899366e+00
      vertex   -1.751522e+00 1.053870e+01 -1.883747e+00
      vertex   -1.870653e+00 1.060900e+01 -1.899511e+00
    endloop
  endfacet
  facet normal 2.931238e-02 -1.711584e-01 -9.848074e-01
    outer loop
      vertex   -1.870653e+00 1.060900e+01 -1.899511e+00
      vertex   -1.751522e+00 1.053870e+01 -1.883747e+00
      vertex   -1.855260e+00 1.052170e+01 -1.883881e+00
    endloop
  endfacet
endsolid
